<?xml version="1.0" encoding="UTF-8"?>
<svg version="1.1" xmlns="http://www.w3.org/2000/svg" width="640" height="640">
<path d="M0 0 C206.58 0 413.16 0 626 0 C627.15276303 2.30552605 627.12551834 3.59925105 627.12649983 6.16384554 C627.12925958 7.04364559 627.13201932 7.92344563 627.13486269 8.82990628 C627.13280737 9.80433563 627.13075205 10.77876497 627.12863445 11.78272247 C627.13038749 12.81602729 627.13214053 13.84933211 627.13394669 14.91394919 C627.13864188 18.41697036 627.13613221 21.91995065 627.13371277 25.42297363 C627.13557897 27.94352773 627.1378789 30.46408153 627.14057809 32.98463488 C627.14543875 38.48571724 627.14714719 43.986787 627.14612198 49.48787117 C627.1446012 57.66795899 627.14874955 65.84803702 627.1539966 74.02812295 C627.16368384 89.48496489 627.16648135 104.94180352 627.16705366 120.39864814 C627.16751259 132.33079388 627.16956771 144.26293831 627.17275429 156.19508362 C627.17365178 159.62537972 627.17454159 163.05567582 627.17542917 166.48597193 C627.17565021 167.33866444 627.17587126 168.19135695 627.17609901 169.06988862 C627.18225589 193.06464598 627.18619929 217.05940289 627.18575573 241.05416107 C627.18574015 241.95940622 627.18572457 242.86465137 627.18570852 243.79732819 C627.18562541 248.38586222 627.18552637 252.97439625 627.18542381 257.56293029 C627.1853939 258.92996888 627.1853939 258.92996888 627.18536337 260.32462441 C627.18532294 262.16761489 627.18528114 264.01060538 627.18523798 265.85359586 C627.18462497 294.53960934 627.19213547 323.225611 627.20581055 351.91162109 C627.22115472 384.11242471 627.22977779 416.31322057 627.22884732 448.51402807 C627.22877269 451.94432418 627.22872399 455.37462028 627.22869301 458.80491638 C627.22867553 460.07193203 627.22867553 460.07193203 627.22865769 461.36454395 C627.22862686 474.98609883 627.23502579 488.6076435 627.24362527 502.22919534 C627.25208182 515.90672354 627.25310744 529.58423672 627.24651595 543.26176608 C627.24280702 551.39754909 627.24469246 559.53328661 627.25445829 567.66906484 C627.26112045 573.72884481 627.25744163 579.78857041 627.24958507 585.84835094 C627.24803484 588.31129864 627.24992263 590.77425118 627.25544515 593.23719317 C627.26241528 596.56397136 627.25728324 599.89050808 627.24888897 603.21727753 C627.25385715 604.19170687 627.25882533 605.16613621 627.26394406 606.17009372 C627.25681784 607.48979378 627.25681784 607.48979378 627.24954766 608.83615446 C627.24963588 609.59782831 627.2497241 610.35950216 627.249815 611.14425704 C627 613 627 613 625 615 C623.11005819 615.25028767 623.11005819 615.25028767 620.75279808 615.25069833 C619.85436361 615.25570536 618.95592914 615.2607124 618.03026938 615.26587117 C617.03498355 615.26118883 616.03969772 615.2565065 615.01425171 615.25168228 C613.95899803 615.25458916 612.90374436 615.25749604 611.8165133 615.26049101 C608.23878462 615.26785819 604.66122386 615.26081655 601.08349609 615.25396729 C598.50931904 615.25626906 595.93514264 615.25944367 593.36096764 615.26342177 C587.74271572 615.27066647 582.12450219 615.270413 576.50624847 615.26532745 C568.15193729 615.2577857 559.79765869 615.26161784 551.44334775 615.26774407 C536.5255715 615.27829543 521.60781234 615.27735487 506.69003445 615.27158624 C493.63553789 615.26656268 480.58104762 615.26523819 467.52655029 615.26763153 C466.66189763 615.2677843 465.79724497 615.26793707 464.90639071 615.26809447 C461.3968207 615.26871711 457.88725069 615.2693539 454.37768068 615.270014 C421.42955532 615.27613725 388.48144086 615.27057675 355.53331718 615.2598202 C326.23639832 615.25032841 296.93949684 615.25117765 267.64257812 615.26074219 C234.75618282 615.2714426 201.86979715 615.27570306 168.98340034 615.26951766 C165.48008347 615.26887619 161.97676659 615.26825051 158.47344971 615.26763153 C157.61079165 615.26747338 156.7481336 615.26731522 155.85933439 615.26715227 C142.81041544 615.26487367 129.76150344 615.26754468 116.71258545 615.27259064 C101.88105841 615.27829719 87.04955119 615.27690514 72.21802664 615.26602915 C63.9089465 615.26013772 55.59990925 615.25980027 47.29083019 615.2673215 C41.10204448 615.27230747 34.91330988 615.26693642 28.72453046 615.25737235 C26.20909419 615.25512309 23.69365223 615.25630833 21.17821956 615.26112393 C17.78064482 615.26713344 14.3833101 615.26104146 10.98574829 615.25168228 C9.99046246 615.25636461 8.99517663 615.26104695 7.96973062 615.26587117 C7.07129615 615.26086413 6.17286168 615.25585709 5.24720192 615.25069833 C4.46930608 615.25056281 3.69141025 615.25042729 2.88994181 615.25028767 C1 615 1 615 -1 613 C-1.249815 611.14425704 -1.249815 611.14425704 -1.24954766 608.83615446 C-1.25429847 607.95635441 -1.25904928 607.07655437 -1.26394406 606.17009372 C-1.25649179 604.7084497 -1.25649179 604.7084497 -1.24888897 603.21727753 C-1.25149625 602.18397271 -1.25410354 601.15066789 -1.25678983 600.08605081 C-1.26314473 596.58298247 -1.25509288 593.08008968 -1.24723816 589.57702637 C-1.24882465 587.05647194 -1.25128665 584.53591793 -1.25455457 582.01536512 C-1.25965004 576.51426711 -1.25847247 571.01322429 -1.2518692 565.51212883 C-1.24207712 557.33203596 -1.24367734 549.15197341 -1.2476195 540.97187705 C-1.25390467 527.21289887 -1.25071161 513.4539378 -1.24202538 499.69496155 C-1.23342225 486.06494488 -1.22850495 472.43493589 -1.22869301 458.80491638 C-1.22870065 457.95828623 -1.2287083 457.11165607 -1.22871618 456.23937046 C-1.22875708 452.80295077 -1.22882269 449.36653107 -1.22892199 445.93011138 C-1.22982882 413.66887037 -1.21987177 381.40764108 -1.20449232 349.14640414 C-1.19086766 320.46039402 -1.184631 291.77439223 -1.18530273 263.08837891 C-1.18534315 261.2465627 -1.18538351 259.40474649 -1.18542381 257.56293029 C-1.18544416 256.65238798 -1.18546452 255.74184566 -1.18548548 254.80371116 C-1.18558627 250.2205278 -1.18567686 245.63734444 -1.18575573 241.05416107 C-1.18577244 240.15004451 -1.18578916 239.24592795 -1.18580638 238.31441392 C-1.18617126 214.37159928 -1.18163599 190.42878569 -1.17542917 166.48597193 C-1.17509876 165.20900878 -1.17509876 165.20900878 -1.17476168 163.9062484 C-1.1738734 160.48265095 -1.17298502 157.0590535 -1.17207072 153.63545605 C-1.16890662 141.70638238 -1.16740092 129.77730953 -1.16695923 117.84823547 C-1.16636304 102.47823168 -1.16238675 87.10823477 -1.15252777 71.73823392 C-1.14739971 63.60246481 -1.14500774 55.46670581 -1.14652396 47.33093516 C-1.14734096 41.27116685 -1.14296269 35.21141445 -1.13647345 29.15164906 C-1.13464991 26.68870232 -1.13453965 24.22575365 -1.13624074 21.76280683 C-1.13828536 18.43608918 -1.13427833 15.1094346 -1.12863445 11.78272247 C-1.13171743 10.32107846 -1.13171743 10.32107846 -1.13486269 8.82990628 C-1.13210295 7.95010624 -1.1293432 7.07030619 -1.12649983 6.16384554 C-1.12620833 5.40217169 -1.12591683 4.64049784 -1.1256165 3.85574296 C-1 2 -1 2 0 0 Z " fill="#F59492" transform="translate(3,11)"/>
<path d="M0 0 C4.15428118 0.06800356 8.29677449 0.48187173 12.4375 0.8125 C13.58927734 0.89564453 14.74105469 0.97878906 15.92773438 1.06445312 C31.62417779 2.28419944 31.62417779 2.28419944 36 4 C37.84867772 6.57844708 38.49109206 8.88726211 39 12 C39.27263672 13.62228516 39.27263672 13.62228516 39.55078125 15.27734375 C40.36253465 22.12547563 40.14858865 29.05200173 40.125 35.9375 C40.12378143 36.70846008 40.12256287 37.47942017 40.12130737 38.27374268 C40.09718652 51.47746185 39.87504453 64.6752027 39.5625 77.875 C39.5429425 78.73278046 39.52338501 79.59056091 39.50323486 80.47433472 C39.29107077 89.55236296 38.94047814 98.58027788 38.23413086 107.63574219 C37.72981917 114.88226471 37.60032467 122.14826854 37.39453125 129.40820312 C37.19973728 135.71213907 36.86301554 141.94890516 36.24072266 148.22436523 C35.78014197 153.53505676 35.62782642 158.86148044 35.4375 164.1875 C35.37272461 165.90163086 35.37272461 165.90163086 35.30664062 167.65039062 C35.20183704 170.43350811 35.09966701 173.21669465 35 176 C29.34493435 174.28378605 24.05811648 171.87448941 18.6875 169.4375 C17.76904297 169.02564453 16.85058594 168.61378906 15.90429688 168.18945312 C9.13046454 165.13046454 9.13046454 165.13046454 8 164 C7.98293005 161.66103264 8.02960679 159.35505442 8.12109375 157.01953125 C8.1448407 156.30396561 8.16858765 155.58839996 8.1930542 154.85115051 C8.24428585 153.30941237 8.29755761 151.76774096 8.35263062 150.22613525 C8.49467884 146.18636744 8.61395563 142.14592994 8.734375 138.10546875 C8.77035042 136.90851379 8.77035042 136.90851379 8.80705261 135.68737793 C9.2458794 120.90999856 9.08149773 106.32277025 8.125 91.5625 C8.04660889 90.32258301 7.96821777 89.08266602 7.88745117 87.80517578 C7.46714956 81.94351973 6.9484367 76.55877529 5 71 C3.68 71 2.36 71 1 71 C-0.63010125 77.31230696 -2.18748309 83.64093504 -3.625 90 C-3.86476563 91.051875 -4.10453125 92.10375 -4.3515625 93.1875 C-6.54133389 106.06230048 -6.31273378 119.22749511 -6.5625 132.25 C-6.60577719 134.36328829 -6.64939412 136.47656966 -6.69335938 138.58984375 C-6.79949206 143.72649095 -6.90101973 148.8632102 -7 154 C-10.63 153.01 -14.26 152.02 -18 151 C-17.6390625 151.845625 -17.278125 152.69125 -16.90625 153.5625 C-14.24479241 160.06828522 -12.49939183 164.99148563 -13 172 C-12.67311165 173.66794271 -12.33930141 175.33453807 -12 177 C-10.99333353 192.24947171 -10.61374922 209.63441283 -19 223 C-22 225 -22 225 -24.4375 224.94921875 C-27.91285408 223.66185436 -28.95373711 221.86951774 -31 218.8125 C-31.68707031 217.81992187 -32.37414062 216.82734375 -33.08203125 215.8046875 C-33.71496094 214.87914062 -34.34789062 213.95359375 -35 213 C-37.80897633 209.13860396 -40.14133635 206.09319932 -45 205 C-47.68805807 204.90383904 -47.68805807 204.90383904 -50 206 C-52.764555 210.6997435 -52.25844392 215.8527463 -52.1875 221.125 C-52.18685547 222.011875 -52.18621094 222.89875 -52.18554688 223.8125 C-52.15635137 228.28914422 -51.96597615 232.69695432 -51.50708008 237.15063477 C-50.97760375 242.79897521 -50.79984267 248.41171032 -50.71875 254.08203125 C-50.70034058 255.09867355 -50.68193115 256.11531586 -50.66296387 257.1627655 C-50.60486203 260.37929141 -50.55180699 263.59586696 -50.5 266.8125 C-50.24189728 284.54011539 -50.24189728 284.54011539 -49.20947266 302.23413086 C-48.93967291 305.79655661 -48.90105135 309.30303273 -48.9375 312.875 C-48.94652344 314.04804688 -48.95554687 315.22109375 -48.96484375 316.4296875 C-48.97644531 317.27789062 -48.98804688 318.12609375 -49 319 C-55.69744866 319.41714213 -60.60801417 318.06610918 -66.8125 315.625 C-67.65748047 315.30789063 -68.50246094 314.99078125 -69.37304688 314.6640625 C-72.88447296 313.32531387 -75.85533283 312.09644478 -79 310 C-79.27669672 307.44506847 -79.3577025 305.13473128 -79.30883789 302.58007812 C-79.30611154 301.81060821 -79.30338518 301.04113829 -79.30057621 300.2483511 C-79.28832175 297.67569912 -79.25514668 295.10371951 -79.22265625 292.53125 C-79.21123232 290.71839807 -79.2014049 288.90553546 -79.19308472 287.09266663 C-79.17338733 283.23357084 -79.14574537 279.37465197 -79.11178589 275.51565552 C-79.02594444 265.53014468 -78.99836004 255.54442077 -78.9765625 245.55859375 C-78.97285676 244.08178792 -78.97285676 244.08178792 -78.96907616 242.57514763 C-78.93385441 226.21745094 -79.19136634 209.90566223 -79.9375 193.5625 C-79.9813382 192.58893555 -80.02517639 191.61537109 -80.07034302 190.61230469 C-80.53338616 180.58340466 -81.12814887 170.56347313 -81.79418945 160.54614258 C-82.55021895 147.51965567 -82.55021895 147.51965567 -82 143 C-78.1496895 140.43312633 -76.41430237 141.16711276 -72 142 C-72 141.01 -72 140.02 -72 139 C-72.556875 138.938125 -73.11375 138.87625 -73.6875 138.8125 C-77.00617521 137.64647898 -78.65110694 135.58378237 -81 133 C-81.66 132.278125 -82.32 131.55625 -83 130.8125 C-99.79971669 107.1878984 -102.34164042 67.82596817 -98 40 C-96.9047347 35.24424279 -95.62799019 30.60137605 -94 26 C-93.78601563 25.29488281 -93.57203125 24.58976562 -93.3515625 23.86328125 C-91.08850708 20.74340426 -87.73502233 19.49830635 -84.3125 17.875 C-83.61705078 17.52824219 -82.92160156 17.18148437 -82.20507812 16.82421875 C-72.06100318 11.88004777 -72.06100318 11.88004777 -66.30859375 12.10546875 C-58.9017962 14.97544614 -54.44352621 25.21605692 -51.24609375 31.9921875 C-49.34781035 36.57425088 -48.0479923 41.15827555 -47 46 C-46.80664062 46.88300781 -46.61328125 47.76601562 -46.4140625 48.67578125 C-43.99803743 60.77341404 -43.81338293 73.03839491 -43.81469727 85.33007812 C-43.81249608 87.6290908 -43.79421427 89.9276331 -43.77539062 92.2265625 C-43.70176809 111.32435162 -48.39194442 125.08791663 -59 141 C-57.68 141.33 -56.36 141.66 -55 142 C-54.01 149.425 -54.01 149.425 -53 157 C-51.824375 155.02 -51.824375 155.02 -50.625 153 C-49.2890625 150.75 -49.2890625 150.75 -48 149 C-47.34 149 -46.68 149 -46 149 C-46 148.34 -46 147.68 -46 147 C-42.14794038 143.95418542 -39.87024234 142.75109494 -35 143 C-35.02996567 142.32388672 -35.05993134 141.64777344 -35.09080505 140.95117188 C-36.24598607 113.55315447 -36.11879455 86.15507943 -36.06866455 58.73803711 C-36.05826952 52.43473655 -36.05383296 46.13143174 -36.04882812 39.828125 C-36.03823635 27.55207247 -36.02126435 15.27603837 -36 3 C-33.93323015 2.66741526 -31.86579722 2.33894949 -29.7980957 2.01220703 C-28.64686722 1.82884796 -27.49563873 1.64548889 -26.30952454 1.45657349 C-22.23335748 0.89423597 -18.2923035 0.76985232 -14.1875 0.875 C-13.48302734 0.88402344 -12.77855469 0.89304688 -12.05273438 0.90234375 C-10.36833093 0.9252608 -8.68410981 0.96108604 -7 1 C-6.505 4.96 -6.505 4.96 -6 9 C-5.65066406 8.43410156 -5.30132812 7.86820313 -4.94140625 7.28515625 C-4.48636719 6.55167969 -4.03132813 5.81820312 -3.5625 5.0625 C-3.11003906 4.33160156 -2.65757812 3.60070312 -2.19140625 2.84765625 C-1 1 -1 1 0 0 Z " fill="#FEF8F0" transform="translate(317,160)"/>
<path d="M0 0 C1.97919652 0.57211149 3.95838338 1.14425645 5.9375 1.71664429 C7.44747576 2.15287589 8.95796597 2.58732786 10.46875 3.02075195 C11.1390625 3.21628662 11.809375 3.41182129 12.5 3.61328125 C13.1703125 3.80704346 13.840625 4.00080566 14.53125 4.20043945 C16.76788542 4.92482444 18.95493645 5.72070077 21.15429688 6.54997253 C21.87452026 6.82119525 22.59474365 7.09241796 23.33679199 7.37185955 C24.16007996 7.68278907 24.16007996 7.68278907 25 8 C25.00808685 9.19444229 25.01617371 10.38888458 25.02450562 11.61952209 C25.1023305 22.93165579 25.19015829 34.24367456 25.28752708 45.55565739 C25.33725851 51.36984481 25.38358875 57.18401607 25.421875 62.99829102 C25.45902257 68.61995142 25.50545837 74.24146843 25.55806351 79.86300468 C25.57645217 81.99692684 25.59161596 84.13087955 25.60334396 86.26484871 C24.4080047 106.76102291 24.4080047 106.76102291 31 125 C32.08258501 121.75224498 32.28524098 119.06215906 32.49560547 115.64501953 C32.53555759 115.00161495 32.57550972 114.35821037 32.61667252 113.69530869 C32.74731122 111.54976272 32.87044327 109.40388068 32.9921875 107.2578125 C33.0355209 106.51175877 33.07885429 105.76570503 33.12350082 104.99704361 C34.15145605 87.12971915 34.63426874 69.25179823 35.06445312 51.36181641 C35.16766559 47.12261392 35.27753569 42.88358341 35.38671875 38.64453125 C35.59738207 30.42983564 35.80113195 22.21498962 36 14 C39.7691876 15.22028405 43.07703359 16.45011876 46.453125 18.53125 C47.236875 19.01207031 48.020625 19.49289063 48.828125 19.98828125 C49.62734375 20.48714844 50.4265625 20.98601562 51.25 21.5 C52.0646875 21.99886719 52.879375 22.49773437 53.71875 23.01171875 C59.71421807 26.71421807 59.71421807 26.71421807 62 29 C62.24723816 30.85899353 62.24723816 30.85899353 62.24291992 33.14819336 C62.24753487 34.43740944 62.24753487 34.43740944 62.25224304 35.75267029 C62.24146477 37.15707115 62.24146477 37.15707115 62.23046875 38.58984375 C62.23001053 39.56297012 62.22955231 40.5360965 62.2290802 41.53871155 C62.22605095 43.61265267 62.21814474 45.68659139 62.20581055 47.76049805 C62.18791319 50.86580924 62.18529855 53.97081526 62.18554688 57.07617188 C62.15495313 74.91473989 61.27194844 92.56669956 59.5 110.3125 C58.73793404 118.03194594 57.99781631 125.74346062 57.48828125 133.484375 C56.42935659 148.86704953 52.82958171 164.7175248 47 179 C48.32 179.33 49.64 179.66 51 180 C50.85459947 189.28486214 46.75843299 196.90321758 42.875 205.125 C42.21496006 206.54632495 41.55609797 207.96819749 40.8984375 209.390625 C39.2737364 212.89697212 37.63435933 216.39620166 35.98962402 219.89318848 C34.3218654 223.4436814 32.66539689 226.99943642 31.0078125 230.5546875 C30.42339082 231.80715269 29.83892339 233.05959654 29.25439453 234.31201172 C28.84044434 235.19904785 28.42649414 236.08608398 28 237 C32.09381348 235.31026652 36.18722791 233.61957107 40.28027344 231.92797852 C41.67306738 231.35251762 43.06597049 230.77732087 44.45898438 230.20239258 C46.45992251 229.37650679 48.46046758 228.54967538 50.4609375 227.72265625 C51.66540527 227.22515869 52.86987305 226.72766113 54.11083984 226.21508789 C55.76009768 225.52146306 57.39970832 224.80014584 59 224 C60.99960012 223.960008 63.00047242 223.95653201 65 224 C67.69911768 229.72087042 69.18803517 235.40125546 70.5625 241.5625 C72.10951754 248.52868358 72.10951754 248.52868358 74.1484375 255.359375 C75.91831407 260.84761611 75.10027004 265.79945993 72.54296875 270.9140625 C67.77466134 278.62230673 62.44100958 284.0217641 54.8125 288.8125 C54.18408203 289.21919922 53.55566406 289.62589844 52.90820312 290.04492188 C48.26450893 293 48.26450893 293 46 293 C46 293.66 46 294.32 46 295 C45.01644531 295.4125 44.03289062 295.825 43.01953125 296.25 C39.57924005 297.72329887 36.21352177 299.32363235 32.84741211 300.95800781 C14.673146 309.72569943 14.673146 309.72569943 9.7265625 308.3828125 C5.89244525 306.59724887 1.92136018 304.39880757 0.33984375 300.28125 C-0.144308 297.03131179 -0.28982026 293.77841467 -0.4375 290.5 C-0.8188229 282.98225608 -1.49672264 275.52071324 -2.33959961 268.04101562 C-2.59339343 265.69564374 -2.80711821 263.35111962 -3 261 C-3.07283203 260.24630127 -3.14566406 259.49260254 -3.22070312 258.71606445 C-3.57454411 252.41973636 -1.63143307 248.47377442 1.625 243.1875 C2.54495369 241.61965259 3.46292026 240.05063752 4.37890625 238.48046875 C4.82766113 237.72169434 5.27641602 236.96291992 5.73876953 236.18115234 C8.40046489 231.57805781 10.68470654 226.78437024 13 222 C13.33 221.34 13.66 220.68 14 220 C13.22076172 220.45052734 13.22076172 220.45052734 12.42578125 220.91015625 C11.72839844 221.29042969 11.03101563 221.67070312 10.3125 222.0625 C9.62800781 222.44535156 8.94351562 222.82820312 8.23828125 223.22265625 C5.46545274 224.18564556 3.78866101 223.77652732 1 223 C0.899497 212.11939104 0.87046093 201.2466923 1.375 190.375 C1.40585693 189.58891357 1.43671387 188.80282715 1.46850586 187.99291992 C1.68201133 183.95762219 2.15219014 181.69561972 4 178 C7.3 178.33 10.6 178.66 14 179 C13.278125 178.34 12.55625 177.68 11.8125 177 C4.72105982 169.86826755 2.07705458 161.79187294 1.18359375 151.86328125 C1.12220718 151.18492722 1.06082062 150.50657318 0.99757385 149.80766296 C0.86910132 148.3666207 0.74407603 146.92526739 0.62231445 145.48364258 C0.44407248 143.3897114 0.25135135 141.29753279 0.05664062 139.20507812 C-2.09249502 115.18680218 -2.18868924 91.04252642 -2.18530273 66.94580078 C-2.18522132 63.98187174 -2.19221506 61.0180968 -2.20581055 58.05419922 C-2.2937064 38.5976867 -1.73176536 19.39483575 0 0 Z " fill="#FEF7F0" transform="translate(364,167)"/>
<path d="M0 0 C0.99 0.33 1.98 0.66 3 1 C6.22920066 29.42790198 6.22920066 29.42790198 6.70874023 41.40380859 C6.82899878 44.33753223 7.02837098 47.18831255 7.46606445 50.09350586 C8.10526455 54.77015912 8.44236385 59.43253874 8.75390625 64.140625 C8.85166603 65.58486847 8.85166603 65.58486847 8.95140076 67.05828857 C9.08799877 69.08873686 9.22323192 71.11927737 9.35717773 73.14990234 C9.56094816 76.22656922 9.77141782 79.30272805 9.98242188 82.37890625 C10.11499164 84.36195191 10.24716576 86.34502407 10.37890625 88.328125 C10.44139053 89.23371155 10.50387482 90.1392981 10.56825256 91.07232666 C11.15486341 100.12942773 11.35717384 109.0087233 10 118 C10.90878906 118.36158203 10.90878906 118.36158203 11.8359375 118.73046875 C16.64212053 121.54998046 18.36783789 127.66586299 19.76171875 132.8125 C21.04212722 139.78663975 21.22106474 146.80257449 21.3125 153.875 C21.33920776 155.21268433 21.33920776 155.21268433 21.36645508 156.57739258 C21.35828762 163.27407787 20.25955743 167.96128484 16.1875 173.4375 C14 175 14 175 11.1875 175.5625 C7.00671359 174.82471416 4.03497399 172.96314029 1 170 C1 169.34 1 168.68 1 168 C-1.97 167.01 -1.97 167.01 -5 166 C-9.78253003 172.47955681 -10.19495889 177.99841465 -10.1875 185.875 C-10.18814453 186.57882812 -10.18878906 187.28265625 -10.18945312 188.0078125 C-10.13854357 193.0062047 -9.57510871 197.27467386 -8 202 C-5.79561167 202.87754191 -5.79561167 202.87754191 -3 203 C1.40140991 200.79929505 4.12157429 197.79617297 7.4375 194.1875 C11.48676542 190.07698519 11.48676542 190.07698519 15.75 189.4375 C20.25980811 191.60567698 22.034687 194.48051617 24 199 C27.99213495 211.06225722 28.57992099 225.52488319 23.5859375 237.34765625 C19.09741041 246.27347153 13.8161424 254.1489539 4.15234375 257.72265625 C-0.66267602 258.34310344 -4.17187097 257.49961503 -8.30859375 255.00390625 C-9.34113281 254.19824219 -10.37367188 253.39257812 -11.4375 252.5625 C-12.24864258 251.95051758 -12.24864258 251.95051758 -13.07617188 251.32617188 C-14.43146818 250.27586008 -15.72229079 249.14343435 -17 248 C-17 247.34 -17 246.68 -17 246 C-17.56847656 245.76925781 -18.13695312 245.53851563 -18.72265625 245.30078125 C-21.57986975 243.66878795 -23.28719372 241.67320933 -25.4375 239.1875 C-27.83284454 236.44659756 -30.17897156 233.82898274 -32.8125 231.3125 C-45.40310145 218.00243561 -45.62191958 193.18925023 -45.25390625 175.85546875 C-44.5971304 159.57468839 -41.91289426 143.91289426 -30 132 C-30.65226562 131.6596875 -31.30453125 131.319375 -31.9765625 130.96875 C-43.82960866 124.39537927 -48.87002395 114.53060124 -53.04296875 101.82421875 C-56.82397073 87.00198092 -57.87447582 66.58756103 -50.30078125 52.9375 C-48.30609678 49.86513729 -46.19321198 46.93337232 -44 44 C-42.89591797 42.43572266 -42.89591797 42.43572266 -41.76953125 40.83984375 C-36.33429071 33.16714535 -36.33429071 33.16714535 -34 32 C-31.6670134 31.95977609 -29.33293334 31.95679753 -27 32 C-27.04382813 31.39414063 -27.08765625 30.78828125 -27.1328125 30.1640625 C-27.11518331 24.43457509 -25.94563686 21.260699 -21.9375 17.125 C-19.98688535 15.35248495 -18.04001599 13.66195477 -16 12 C-15.34290039 11.4642334 -14.68580078 10.9284668 -14.00878906 10.37646484 C-11.87791781 8.66403524 -9.72748284 6.98156012 -7.5625 5.3125 C-6.86439209 4.77061035 -6.16628418 4.2287207 -5.44702148 3.67041016 C-4.78516846 3.17718262 -4.12331543 2.68395508 -3.44140625 2.17578125 C-2.85045166 1.73145752 -2.25949707 1.28713379 -1.65063477 0.8293457 C-0.83357056 0.41881958 -0.83357056 0.41881958 0 0 Z " fill="#FEF8F0" transform="translate(207,193)"/>
<path d="M0 0 C206.58 0 413.16 0 626 0 C627.15276303 2.30552605 627.12551834 3.59925105 627.12649983 6.16384554 C627.12925958 7.04364559 627.13201932 7.92344563 627.13486269 8.82990628 C627.13280737 9.80433563 627.13075205 10.77876497 627.12863445 11.78272247 C627.13038749 12.81602729 627.13214053 13.84933211 627.13394669 14.91394919 C627.13864188 18.41697036 627.13613221 21.91995065 627.13371277 25.42297363 C627.13557897 27.94352773 627.1378789 30.46408153 627.14057809 32.98463488 C627.14543875 38.48571724 627.14714719 43.986787 627.14612198 49.48787117 C627.1446012 57.66795899 627.14874955 65.84803702 627.1539966 74.02812295 C627.16368384 89.48496489 627.16648135 104.94180352 627.16705366 120.39864814 C627.16751259 132.33079388 627.16956771 144.26293831 627.17275429 156.19508362 C627.17365178 159.62537972 627.17454159 163.05567582 627.17542917 166.48597193 C627.17565021 167.33866444 627.17587126 168.19135695 627.17609901 169.06988862 C627.18225589 193.06464598 627.18619929 217.05940289 627.18575573 241.05416107 C627.18574015 241.95940622 627.18572457 242.86465137 627.18570852 243.79732819 C627.18562541 248.38586222 627.18552637 252.97439625 627.18542381 257.56293029 C627.1853939 258.92996888 627.1853939 258.92996888 627.18536337 260.32462441 C627.18532294 262.16761489 627.18528114 264.01060538 627.18523798 265.85359586 C627.18462497 294.53960934 627.19213547 323.225611 627.20581055 351.91162109 C627.22115472 384.11242471 627.22977779 416.31322057 627.22884732 448.51402807 C627.22877269 451.94432418 627.22872399 455.37462028 627.22869301 458.80491638 C627.22867553 460.07193203 627.22867553 460.07193203 627.22865769 461.36454395 C627.22862686 474.98609883 627.23502579 488.6076435 627.24362527 502.22919534 C627.25208182 515.90672354 627.25310744 529.58423672 627.24651595 543.26176608 C627.24280702 551.39754909 627.24469246 559.53328661 627.25445829 567.66906484 C627.26112045 573.72884481 627.25744163 579.78857041 627.24958507 585.84835094 C627.24803484 588.31129864 627.24992263 590.77425118 627.25544515 593.23719317 C627.26241528 596.56397136 627.25728324 599.89050808 627.24888897 603.21727753 C627.25385715 604.19170687 627.25882533 605.16613621 627.26394406 606.17009372 C627.25681784 607.48979378 627.25681784 607.48979378 627.24954766 608.83615446 C627.24963588 609.59782831 627.2497241 610.35950216 627.249815 611.14425704 C627 613 627 613 625 615 C623.11005819 615.25028767 623.11005819 615.25028767 620.75279808 615.25069833 C619.85436361 615.25570536 618.95592914 615.2607124 618.03026938 615.26587117 C617.03498355 615.26118883 616.03969772 615.2565065 615.01425171 615.25168228 C613.95899803 615.25458916 612.90374436 615.25749604 611.8165133 615.26049101 C608.23878462 615.26785819 604.66122386 615.26081655 601.08349609 615.25396729 C598.50931904 615.25626906 595.93514264 615.25944367 593.36096764 615.26342177 C587.74271572 615.27066647 582.12450219 615.270413 576.50624847 615.26532745 C568.15193729 615.2577857 559.79765869 615.26161784 551.44334775 615.26774407 C536.5255715 615.27829543 521.60781234 615.27735487 506.69003445 615.27158624 C493.63553789 615.26656268 480.58104762 615.26523819 467.52655029 615.26763153 C466.66189763 615.2677843 465.79724497 615.26793707 464.90639071 615.26809447 C461.3968207 615.26871711 457.88725069 615.2693539 454.37768068 615.270014 C421.42955532 615.27613725 388.48144086 615.27057675 355.53331718 615.2598202 C326.23639832 615.25032841 296.93949684 615.25117765 267.64257812 615.26074219 C234.75618282 615.2714426 201.86979715 615.27570306 168.98340034 615.26951766 C165.48008347 615.26887619 161.97676659 615.26825051 158.47344971 615.26763153 C157.61079165 615.26747338 156.7481336 615.26731522 155.85933439 615.26715227 C142.81041544 615.26487367 129.76150344 615.26754468 116.71258545 615.27259064 C101.88105841 615.27829719 87.04955119 615.27690514 72.21802664 615.26602915 C63.9089465 615.26013772 55.59990925 615.25980027 47.29083019 615.2673215 C41.10204448 615.27230747 34.91330988 615.26693642 28.72453046 615.25737235 C26.20909419 615.25512309 23.69365223 615.25630833 21.17821956 615.26112393 C17.78064482 615.26713344 14.3833101 615.26104146 10.98574829 615.25168228 C9.99046246 615.25636461 8.99517663 615.26104695 7.96973062 615.26587117 C7.07129615 615.26086413 6.17286168 615.25585709 5.24720192 615.25069833 C4.46930608 615.25056281 3.69141025 615.25042729 2.88994181 615.25028767 C1 615 1 615 -1 613 C-1.249815 611.14425704 -1.249815 611.14425704 -1.24954766 608.83615446 C-1.25429847 607.95635441 -1.25904928 607.07655437 -1.26394406 606.17009372 C-1.25649179 604.7084497 -1.25649179 604.7084497 -1.24888897 603.21727753 C-1.25149625 602.18397271 -1.25410354 601.15066789 -1.25678983 600.08605081 C-1.26314473 596.58298247 -1.25509288 593.08008968 -1.24723816 589.57702637 C-1.24882465 587.05647194 -1.25128665 584.53591793 -1.25455457 582.01536512 C-1.25965004 576.51426711 -1.25847247 571.01322429 -1.2518692 565.51212883 C-1.24207712 557.33203596 -1.24367734 549.15197341 -1.2476195 540.97187705 C-1.25390467 527.21289887 -1.25071161 513.4539378 -1.24202538 499.69496155 C-1.23342225 486.06494488 -1.22850495 472.43493589 -1.22869301 458.80491638 C-1.22870065 457.95828623 -1.2287083 457.11165607 -1.22871618 456.23937046 C-1.22875708 452.80295077 -1.22882269 449.36653107 -1.22892199 445.93011138 C-1.22982882 413.66887037 -1.21987177 381.40764108 -1.20449232 349.14640414 C-1.19086766 320.46039402 -1.184631 291.77439223 -1.18530273 263.08837891 C-1.18534315 261.2465627 -1.18538351 259.40474649 -1.18542381 257.56293029 C-1.18544416 256.65238798 -1.18546452 255.74184566 -1.18548548 254.80371116 C-1.18558627 250.2205278 -1.18567686 245.63734444 -1.18575573 241.05416107 C-1.18577244 240.15004451 -1.18578916 239.24592795 -1.18580638 238.31441392 C-1.18617126 214.37159928 -1.18163599 190.42878569 -1.17542917 166.48597193 C-1.17509876 165.20900878 -1.17509876 165.20900878 -1.17476168 163.9062484 C-1.1738734 160.48265095 -1.17298502 157.0590535 -1.17207072 153.63545605 C-1.16890662 141.70638238 -1.16740092 129.77730953 -1.16695923 117.84823547 C-1.16636304 102.47823168 -1.16238675 87.10823477 -1.15252777 71.73823392 C-1.14739971 63.60246481 -1.14500774 55.46670581 -1.14652396 47.33093516 C-1.14734096 41.27116685 -1.14296269 35.21141445 -1.13647345 29.15164906 C-1.13464991 26.68870232 -1.13453965 24.22575365 -1.13624074 21.76280683 C-1.13828536 18.43608918 -1.13427833 15.1094346 -1.12863445 11.78272247 C-1.13171743 10.32107846 -1.13171743 10.32107846 -1.13486269 8.82990628 C-1.13210295 7.95010624 -1.1293432 7.07030619 -1.12649983 6.16384554 C-1.12620833 5.40217169 -1.12591683 4.64049784 -1.1256165 3.85574296 C-1 2 -1 2 0 0 Z M3 6 C3 205.32 3 404.64 3 610 C207.27 610 411.54 610 622 610 C622 410.68 622 211.36 622 6 C417.73 6 213.46 6 3 6 Z " fill="#3F221D" transform="translate(3,11)"/>
<path d="M0 0 C0.886875 0.4021875 1.77375 0.804375 2.6875 1.21875 C14.68564141 7.2178207 24.36415149 16.25141661 29 29 C30.3865481 34.97355311 30.14690001 41.02949609 30.125 47.125 C30.12886719 48.20910156 30.13273438 49.29320312 30.13671875 50.41015625 C30.13542969 51.45300781 30.13414062 52.49585938 30.1328125 53.5703125 C30.13168457 54.51664551 30.13055664 55.46297852 30.12939453 56.43798828 C30.01130114 58.77623736 29.66247566 60.76258219 29 63 C28.34 63 27.68 63 27 63 C26.27392475 61.85694178 25.59334442 60.68475122 24.9375 59.5 C23.32593791 57.12354725 22.59217553 56.15194662 19.77734375 55.4296875 C15.20416143 55.26828148 15.20416143 55.26828148 11.30078125 57.37109375 C9.66014301 59.42558668 8.8671124 61.53206472 8 64 C7.31292969 63.96519531 6.62585938 63.93039062 5.91796875 63.89453125 C5.01691406 63.86746094 4.11585938 63.84039063 3.1875 63.8125 C2.29417969 63.77769531 1.40085937 63.74289062 0.48046875 63.70703125 C-1.9941723 63.81556106 -1.9941723 63.81556106 -3.75 65.125 C-5.49073443 67.73610165 -5.75509632 70.09415056 -6.1875 73.1875 C-6.34605469 74.27417969 -6.50460937 75.36085938 -6.66796875 76.48046875 C-6.83232422 77.72763672 -6.83232422 77.72763672 -7 79 C-8.093125 79.2475 -9.18625 79.495 -10.3125 79.75 C-14.23249054 81.07881035 -14.99588253 81.5652324 -17 85 C-18.26251041 91.79025871 -16.73278701 96.40081948 -13 102 C-13 102.66 -13 103.32 -13 104 C-11.02 104.99 -11.02 104.99 -9 106 C-23.42102384 113.21051192 -37.94445547 113.36131351 -53.02392578 108.70214844 C-60.48139717 106.05232292 -66.21958878 102.23900126 -71 96 C-71.84175781 95.19691406 -72.68351562 94.39382813 -73.55078125 93.56640625 C-82.35993417 84.33576276 -84.24366342 71.16868438 -83.97265625 58.94311523 C-83.65209308 50.71826559 -82.62963441 43.51249913 -79 36 C-78.34 36 -77.68 36 -77 36 C-76.896875 35.113125 -76.79375 34.22625 -76.6875 33.3125 C-75.98284093 29.9173245 -75.0445434 27.78057902 -73 25 C-72.34 25 -71.68 25 -71 25 C-70.73703125 24.25234375 -70.4740625 23.5046875 -70.203125 22.734375 C-65.31596309 11.62718885 -50.74430074 4.25165516 -39.9375 0 C-27.85903734 -4.38662957 -11.90656337 -5.45717488 0 0 Z " fill="#FEF7EF" transform="translate(556,451)"/>
<path d="M0 0 C0.88171875 -0.00708984 1.7634375 -0.01417969 2.671875 -0.02148438 C8.24121373 0.03238572 12.44463825 0.52347935 17.25 3.4375 C20.42255644 8.38032305 20.8272867 12.81870207 21.12890625 18.515625 C21.18587173 19.39188034 21.24283722 20.26813568 21.30152893 21.17094421 C21.48361928 24.00919596 21.64801502 26.84817883 21.8125 29.6875 C21.93527279 31.64144674 22.05946491 33.59530481 22.18505859 35.54907227 C22.43264507 39.41085415 22.67504333 43.27290273 22.91357422 47.13525391 C23.33562943 53.88708325 23.84169199 60.63103586 24.375 67.375 C24.45049072 68.34663086 24.52598145 69.31826172 24.60375977 70.31933594 C24.89142051 73.99957731 25.18097278 77.67864508 25.51538086 81.35498047 C26.15356758 88.47148437 26.49397776 95.54291478 26.5625 102.6875 C26.60600586 104.22277344 26.60600586 104.22277344 26.65039062 105.7890625 C26.70053213 111.79061454 26.69442103 117.90628861 22.25 122.4375 C19.29189555 123.66267531 16.48983254 123.82520873 13.3125 123.9375 C12.51392578 123.99679687 11.71535156 124.05609375 10.89257812 124.1171875 C7.01188354 124.38726069 3.14045667 124.50037607 -0.75 124.4375 C-2.20732062 117.78759036 -3.20136137 111.2232936 -3.75 104.4375 C-4.06453125 105.37851562 -4.3790625 106.31953125 -4.703125 107.2890625 C-5.13109375 108.53429687 -5.5590625 109.77953125 -6 111.0625 C-6.62648438 112.90714844 -6.62648438 112.90714844 -7.265625 114.7890625 C-8.85887781 118.7051102 -10.72469987 122.41219987 -13.75 125.4375 C-21.74511256 126.04705645 -29.89590459 125.34973146 -37.875 124.75 C-38.79958008 124.69674561 -39.72416016 124.64349121 -40.67675781 124.58862305 C-47.2346395 124.02961632 -47.2346395 124.02961632 -49.76953125 121.1171875 C-50.09308594 120.23289062 -50.41664063 119.34859375 -50.75 118.4375 C-51.04003906 117.74269531 -51.33007812 117.04789062 -51.62890625 116.33203125 C-59.21327644 93.23220661 -61.18084329 62.27829953 -51 39.875 C-47.20660991 32.92356595 -42.52941882 28.37228768 -34.921875 25.91015625 C-29.48179179 24.72625325 -24.06083223 24.4081389 -19 27 C-16.43424522 28.74980478 -14.53479949 30.7104425 -12.546875 33.08984375 C-11.75555176 34.03138306 -11.75555176 34.03138306 -10.94824219 34.99194336 C-10.55282227 35.46897705 -10.15740234 35.94601074 -9.75 36.4375 C-9.84087891 35.68130371 -9.93175781 34.92510742 -10.02539062 34.14599609 C-10.43722249 30.70192013 -10.84366118 27.25722818 -11.25 23.8125 C-11.39308594 22.62269531 -11.53617187 21.43289063 -11.68359375 20.20703125 C-11.88662109 18.47646484 -11.88662109 18.47646484 -12.09375 16.7109375 C-12.21943359 15.65310059 -12.34511719 14.59526367 -12.47460938 13.50537109 C-13.18553894 5.58556536 -13.18553894 5.58556536 -11.859375 2.08984375 C-8.30911795 -0.69119094 -4.36563616 -0.09722322 0 0 Z " fill="#FEF8F0" transform="translate(331.75,360.5625)"/>
<path d="M0 0 C3.7714922 1.56272478 6.15597615 3.92078673 9 6.8125 C9.845625 7.66457031 10.69125 8.51664063 11.5625 9.39453125 C17.82434461 16.08788118 17.82434461 16.08788118 18.42578125 19.2109375 C18.38839844 19.92507812 18.35101563 20.63921875 18.3125 21.375 C18.27769531 22.14457031 18.24289062 22.91414063 18.20703125 23.70703125 C17.924567 26.83545602 17.52717268 29.90286052 17 33 C18.2375 33.103125 19.475 33.20625 20.75 33.3125 C24.36622852 33.61385238 26.32637224 34.51938539 29 37 C29.50170898 39.1730957 29.50170898 39.1730957 29.49609375 41.67578125 C29.49673828 42.58650391 29.49738281 43.49722656 29.49804688 44.43554688 C29.47806641 45.38494141 29.45808594 46.33433594 29.4375 47.3125 C29.44458984 48.25029297 29.45167969 49.18808594 29.45898438 50.15429688 C29.40978021 55.52512042 28.94752831 59.33242865 26 64 C22.7 63.67 19.4 63.34 16 63 C16.33 70.26 16.66 77.52 17 85 C18.485 84.505 18.485 84.505 20 84 C20.03738281 83.16855469 20.07476562 82.33710938 20.11328125 81.48046875 C20.21189453 79.85044922 20.21189453 79.85044922 20.3125 78.1875 C20.39951172 76.56908203 20.39951172 76.56908203 20.48828125 74.91796875 C21 72 21 72 22.19921875 70.16796875 C24.63587366 68.58757869 26.61716068 68.38073575 29.5 68.125 C30.4590625 68.02445312 31.418125 67.92390625 32.40625 67.8203125 C35 68 35 68 36.82421875 69.14453125 C40.00531754 74.16453765 38.260101 82.37817485 37.3125 88 C35.0777536 97.668382 31.10789232 106.91001169 24 114 C23.34 114 22.68 114 22 114 C22 114.66 22 115.32 22 116 C20 117.625 20 117.625 18 119 C19.11375 120.051875 19.11375 120.051875 20.25 121.125 C23.79690893 124.83313206 27.38100672 128.7385571 28 134 C28.2784375 135.85625 28.2784375 135.85625 28.5625 137.75 C28.52543464 141.72340678 27.11671866 143.45083581 24.375 146.25 C21.87441664 148.54590928 19.47214531 150.37882983 16.5 152 C13.82899086 153.68835808 13.82899086 153.68835808 13.6328125 156.015625 C13.5857488 158.50756342 13.5857488 158.50756342 14 162 C18.18955063 157.94559617 22.00236916 153.6159788 25.81640625 149.20703125 C27.85289004 147.14868896 29.31147271 146.00394373 32 145 C34.71664853 145.16464537 35.72490316 145.73509193 37.6875 147.625 C41.71560034 154.91394347 40.90694642 166.5580245 38.87890625 174.5 C34.91894336 185.76389445 28.02509526 200.20009387 18 207 C12.50616445 207.20731455 9.04823163 205.20732925 4.9140625 201.86328125 C1.60550715 198.6425039 -0.66964211 194.95896028 -3 191 C-3.45375 190.31164062 -3.9075 189.62328125 -4.375 188.9140625 C-13.26527594 174.67903734 -14.20924437 152.93896104 -10.6875 136.75 C-9.02511206 129.95971699 -6.05622068 125.78291145 -1 121 C-1.41572266 120.25556641 -1.41572266 120.25556641 -1.83984375 119.49609375 C-2.20207031 118.81675781 -2.56429688 118.13742187 -2.9375 117.4375 C-3.47697266 116.44556641 -3.47697266 116.44556641 -4.02734375 115.43359375 C-6.90623811 108.23057694 -6.15324023 100.11477542 -6.125 92.5 C-6.12306641 91.25508789 -6.12113281 90.01017578 -6.11914062 88.72753906 C-6.07869053 80.11391655 -5.81677937 71.57618334 -5 63 C-6.670625 62.814375 -6.670625 62.814375 -8.375 62.625 C-12 62 -12 62 -14 60 C-14.68616682 53.27789114 -13.97694251 46.30767637 -13.625 39.5625 C-13.5943042 38.88880371 -13.5636084 38.21510742 -13.53198242 37.52099609 C-13.29892789 33.65798447 -12.78000847 30.45645281 -11 27 C-9.1875 26.0625 -9.1875 26.0625 -7 26 C-5.3207762 26.63437344 -3.65216741 27.29817021 -2 28 C-1.97494385 27.40050537 -1.9498877 26.80101074 -1.92407227 26.18334961 C-1.80714227 23.43456676 -1.68486053 20.68604625 -1.5625 17.9375 C-1.52318359 16.99455078 -1.48386719 16.05160156 -1.44335938 15.08007812 C-1.21274604 9.98884522 -0.8300873 5.02935244 0 0 Z " fill="#FEF7EF" transform="translate(441,210)"/>
<path d="M0 0 C2.5 0.25 2.5 0.25 4.5 2.25 C5.27593616 4.35125776 5.97473049 6.48151903 6.625 8.625 C6.97820313 9.76710938 7.33140625 10.90921875 7.6953125 12.0859375 C8.5 15.25 8.5 15.25 8.5 19.25 C9.16 19.25 9.82 19.25 10.5 19.25 C11.33919398 21.51882087 12.17151724 23.78977027 13 26.0625 C13.23847656 26.70509766 13.47695312 27.34769531 13.72265625 28.00976562 C14.77068746 30.89933739 15.5 33.15076061 15.5 36.25 C17.81351673 35.64952201 20.12597715 35.04557924 22.4375 34.4375 C23.12320068 34.25735352 23.80890137 34.07720703 24.51538086 33.89160156 C28.25615646 32.89476713 31.91631014 31.80937059 35.5625 30.5 C38.96923753 29.31504781 41.8616319 28.88616319 45.5 29.25 C46.5 30.25 46.5 30.25 46.89453125 33.890625 C46.827762 38.96508777 44.5770478 41.4523018 41.1875 45 C40.19074554 46.09835911 39.19463483 47.1973028 38.19921875 48.296875 C37.73056396 48.80782715 37.26190918 49.3187793 36.77905273 49.84521484 C33.08023818 53.80078562 33.08023818 53.80078562 32.5625 59.125 C32.90644257 62.10583557 33.6781146 63.51588121 35.38671875 66.06640625 C37.6086476 69.41367429 38.91658205 72.53036699 40.25 76.3125 C40.67796875 77.49972656 41.1059375 78.68695313 41.546875 79.91015625 C42.41238865 82.94300121 42.8776547 85.13434869 42.5 88.25 C41.84 88.91 41.18 89.57 40.5 90.25 C33.39934972 90.09220777 27.00275829 86.85110332 20.5 84.25 C19.51 83.92 18.52 83.59 17.5 83.25 C17.5 83.91 17.5 84.57 17.5 85.25 C16.84 85.25 16.18 85.25 15.5 85.25 C15.2525 85.90613281 15.005 86.56226563 14.75 87.23828125 C13.16429617 91.05883642 11.34796095 94.73823035 9.5 98.4375 C9.14421875 99.16130859 8.7884375 99.88511719 8.421875 100.63085938 C5.73962199 106.01037801 5.73962199 106.01037801 3.5 108.25 C1 108.5625 1 108.5625 -1.5 108.25 C-3.96105545 104.55841682 -3.75575793 101.78376446 -3.6953125 97.51953125 C-3.6924826 96.76911057 -3.68965271 96.01868988 -3.68673706 95.24552917 C-3.67555062 92.85102325 -3.65044928 90.45689269 -3.625 88.0625 C-3.61496819 86.43815645 -3.60584269 84.81380703 -3.59765625 83.18945312 C-3.57561637 79.209491 -3.5410974 75.22980912 -3.5 71.25 C-4.75119629 71.11263428 -6.00239258 70.97526855 -7.29150391 70.83374023 C-11.27975671 70.3958799 -14.30199318 69.19085449 -17.875 67.3125 C-18.89335938 66.78785156 -19.91171875 66.26320313 -20.9609375 65.72265625 C-23.5 64.25 -23.5 64.25 -25.5 62.25 C-26 58.875 -26 58.875 -25.5 55.25 C-19.54817454 49.99024727 -13.98494739 50.21951142 -6.5 50.25 C-6.52320312 49.04730469 -6.54640625 47.84460938 -6.5703125 46.60546875 C-6.70894539 35.88701328 -6.37860553 25.2566915 -5.625 14.5625 C-5.54652832 13.37487061 -5.46805664 12.18724121 -5.38720703 10.96362305 C-5.30325684 9.85801025 -5.21930664 8.75239746 -5.1328125 7.61328125 C-5.02283936 6.13275269 -5.02283936 6.13275269 -4.91064453 4.62231445 C-4.32694129 1.25023098 -3.41128833 0.34112883 0 0 Z " fill="#FEF6EE" transform="translate(54.5,112.75)"/>
<path d="M0 0 C3.5 0.8125 3.5 0.8125 5.4375 1.9375 C7.10500169 4.88015005 6.74030011 7.50837348 6.5 10.8125 C6.17 11.4725 5.84 12.1325 5.5 12.8125 C4.84 12.8125 4.18 12.8125 3.5 12.8125 C3.2525 13.534375 3.005 14.25625 2.75 15 C1.5 17.8125 1.5 17.8125 -0.4375 20.125 C-5.04508279 26.12881999 -5.81680376 31.65720827 -6 39.0625 C-6.04592285 40.10917847 -6.04592285 40.10917847 -6.09277344 41.17700195 C-6.14885742 43.47956369 -6.14885742 43.47956369 -5.5 46.8125 C-3.12793806 49.32579665 -3.12793806 49.32579665 -0.5 50.8125 C-0.40203125 49.85988281 -0.3040625 48.90726563 -0.203125 47.92578125 C-0.05359375 46.67152344 0.0959375 45.41726563 0.25 44.125 C0.38921875 42.88363281 0.5284375 41.64226563 0.671875 40.36328125 C1.88088617 35.17936071 4.13270513 32.72402991 8.5 29.8125 C13.90515174 29.37660067 17.0584085 29.41598885 21.5 32.8125 C23.5 34.8125 23.5 34.8125 23.5 37.8125 C24.16 37.8125 24.82 37.8125 25.5 37.8125 C25.5 42.4325 25.5 47.0525 25.5 51.8125 C24.84 51.8125 24.18 51.8125 23.5 51.8125 C23.273125 52.864375 23.04625 53.91625 22.8125 55 C21.69869179 58.98711053 19.57710928 61.05099167 16.5 63.8125 C16.17 64.4725 15.84 65.1325 15.5 65.8125 C18.04604597 69.33631687 18.04604597 69.33631687 21.5 71.8125 C26.79449372 72.15967992 30.24663444 72.33671718 34.5 68.8125 C35.53013277 67.16428756 36.53114628 65.49746298 37.5 63.8125 C39.3125 61.9375 39.3125 61.9375 41.5 60.8125 C44.92348685 60.88236708 46.76778411 61.17791289 49.375 63.4375 C51.03311197 66.93795861 51.06945984 68.95282776 50.5 72.8125 C47.15589543 79.6192944 42.04947232 85.59883058 35.171875 88.9453125 C28.12141149 91.23362083 20.53494608 90.74088836 13.875 87.5625 C10.55910034 85.77786298 8.51139234 84.01535404 6.5 80.8125 C6.5 80.1525 6.5 79.4925 6.5 78.8125 C5.84 78.8125 5.18 78.8125 4.5 78.8125 C1.5 72.1875 1.5 72.1875 1.5 68.8125 C0.448125 68.709375 -0.60375 68.60625 -1.6875 68.5 C-7.30952985 67.48619134 -10.76782583 65.09758886 -14.5 60.8125 C-14.5 60.1525 -14.5 59.4925 -14.5 58.8125 C-15.16 58.8125 -15.82 58.8125 -16.5 58.8125 C-21.96406988 43.34815129 -20.31167691 31.43356876 -16.5 15.8125 C-15.84 15.8125 -15.18 15.8125 -14.5 15.8125 C-14.35691406 14.72001953 -14.35691406 14.72001953 -14.2109375 13.60546875 C-13.39692916 10.40757885 -12.18449841 8.68416575 -10.125 6.125 C-9.21621094 4.97451172 -9.21621094 4.97451172 -8.2890625 3.80078125 C-5.50555806 0.70732326 -4.22819873 -0.22651065 0 0 Z " fill="#FEF5EE" transform="translate(59.5,472.1875)"/>
<path d="M0 0 C2.91323524 0.10536113 4.26081407 0.41165703 6.9375 1.75 C13.42261147 9.31596339 14.83504831 19.66177536 14.1875 29.375 C12.84765625 31.30859375 12.84765625 31.30859375 11.1875 32.375 C8.6875 32.5 8.6875 32.5 6.1875 31.375 C2.98595862 26.07589702 2.81501901 21.4588562 3.1875 15.375 C2.5275 15.375 1.8675 15.375 1.1875 15.375 C1.15011719 16.42300781 1.11273437 17.47101563 1.07421875 18.55078125 C1.00855485 19.92972305 0.94210765 21.30862771 0.875 22.6875 C0.85244141 23.37779297 0.82988281 24.06808594 0.80664062 24.77929688 C0.53550931 29.88149527 0.53550931 29.88149527 -1.1953125 32.3359375 C-3.50326977 33.81882792 -5.13012568 33.71889414 -7.8125 33.375 C-9.9510485 31.2364515 -10.23905063 30.24224686 -10.8125 27.375 C-10.998125 29.293125 -10.998125 29.293125 -11.1875 31.25 C-11.5625 35.125 -11.5625 35.125 -13.8125 37.375 C-16.4375 37.5 -16.4375 37.5 -18.8125 37.375 C-21.35771255 32.74734081 -22.6670847 28.4853144 -23.8125 23.375 C-23.76029297 24.94701172 -23.76029297 24.94701172 -23.70703125 26.55078125 C-23.67889063 27.92967147 -23.65159076 29.30857902 -23.625 30.6875 C-23.59986328 31.37779297 -23.57472656 32.06808594 -23.54882812 32.77929688 C-23.47550737 37.83842921 -23.47550737 37.83842921 -25.01953125 40.296875 C-28.6402252 42.4740243 -32.668103 42.58719313 -36.8125 42.375 C-41.22885545 40.02587476 -43.17458718 37.04305154 -44.8125 32.375 C-46.57847886 20.52396829 -46.57847886 20.52396829 -43.8125 16.375 C-41.4375 16.625 -41.4375 16.625 -38.8125 17.375 C-36.71387502 20.27310116 -36.8125 21.65878861 -36.8125 25.375 C-36.1525 25.375 -35.4925 25.375 -34.8125 25.375 C-34.82410156 24.44816406 -34.83570313 23.52132812 -34.84765625 22.56640625 C-34.85667969 21.36886719 -34.86570312 20.17132813 -34.875 18.9375 C-34.88660156 17.74253906 -34.89820313 16.54757813 -34.91015625 15.31640625 C-34.8125 12.375 -34.8125 12.375 -33.8125 11.375 C-32.14632885 11.33436168 -30.47861905 11.332279 -28.8125 11.375 C-28.4825 12.365 -28.1525 13.355 -27.8125 14.375 C-27.1525 14.375 -26.4925 14.375 -25.8125 14.375 C-25.420625 13.42625 -25.02875 12.4775 -24.625 11.5 C-22.59311948 7.99675773 -21.58820474 7.46796716 -17.8125 6.375 C-17.4825 6.045 -17.1525 5.715 -16.8125 5.375 C-13.14905389 5.23931681 -10.30634279 5.21038574 -6.8125 6.375 C-6.626875 5.446875 -6.626875 5.446875 -6.4375 4.5 C-5.28034782 0.5656826 -4.04133513 0.39750837 0 0 Z " fill="#FEF4ED" transform="translate(556.8125,90.625)"/>
<path d="M0 0 C2.875 0.6875 2.875 0.6875 3.875 1.6875 C5.3168069 10.85402416 6.0775572 20.09796824 6.1875 29.375 C6.20498291 30.10388428 6.22246582 30.83276855 6.24047852 31.58374023 C6.23520985 36.65629817 5.29310176 40.20312192 2.875 44.6875 C0.62277708 46.86500463 -1.12997774 47.44818045 -4.125 48.6875 C-6.9375 48.625 -6.9375 48.625 -9.125 47.6875 C-11.44067384 44.21398925 -11.72087577 42.77350528 -11.125 38.6875 C-8.27425356 36.37608396 -6.8110549 35.6875 -3.125 35.6875 C-3.125 33.0475 -3.125 30.4075 -3.125 27.6875 C-4.1975 27.625625 -5.27 27.56375 -6.375 27.5 C-10.125 26.6875 -10.125 26.6875 -12.4375 24.5625 C-15.85854731 18.73404904 -16.57329582 13.2998633 -16.125 6.6875 C-14.125 4.6875 -14.125 4.6875 -11.6875 4.4375 C-9.125 4.6875 -9.125 4.6875 -6.125 6.6875 C-6.186875 5.90375 -6.24875 5.12 -6.3125 4.3125 C-6.250625 3.44625 -6.18875 2.58 -6.125 1.6875 C-3.125 -0.3125 -3.125 -0.3125 0 0 Z " fill="#FEF4EC" transform="translate(502.125,102.3125)"/>
<path d="M0 0 C0.78246094 -0.03738281 1.56492187 -0.07476562 2.37109375 -0.11328125 C4.5625 0.3125 4.5625 0.3125 6.2734375 2.04296875 C9.85688852 8.35201433 10.49278977 17.19851944 9.5625 24.3125 C8.9025 24.9725 8.2425 25.6325 7.5625 26.3125 C4.62796739 25.94568342 3.69812754 25.44812754 1.5625 23.3125 C1.1484375 20.2734375 1.1484375 20.2734375 0.9375 16.6875 C0.86273437 15.49898437 0.78796875 14.31046875 0.7109375 13.0859375 C0.66195312 12.17070312 0.61296875 11.25546875 0.5625 10.3125 C-0.4275 10.3125 -1.4175 10.3125 -2.4375 10.3125 C-2.4375 15.5925 -2.4375 20.8725 -2.4375 26.3125 C-4.0875 26.6425 -5.7375 26.9725 -7.4375 27.3125 C-8.0975 26.6525 -8.7575 25.9925 -9.4375 25.3125 C-9.829375 26.1375 -10.22125 26.9625 -10.625 27.8125 C-11.223125 28.6375 -11.82125 29.4625 -12.4375 30.3125 C-15.125 30.625 -15.125 30.625 -17.4375 30.3125 C-20.37915751 24.0089482 -22.11558937 16.26291605 -21.4375 9.3125 C-19.15247149 5.88495724 -18.29915366 5.42808883 -14.4375 4.3125 C-12.1054198 4.23603835 -9.76904122 4.22106701 -7.4375 4.3125 C-7.1075 3.3225 -6.7775 2.3325 -6.4375 1.3125 C-4.12316978 0.15533489 -2.57689188 0.08039564 0 0 Z " fill="#FEF3EB" transform="translate(589.4375,128.6875)"/>
<path d="M0 0 C4.70588235 0.70588235 4.70588235 0.70588235 6 2 C6.07271741 4.35313555 6.08370868 6.70833668 6.0625 9.0625 C6.05347656 10.35285156 6.04445313 11.64320312 6.03515625 12.97265625 C6.02355469 13.97167969 6.01195313 14.97070312 6 16 C6.99 16.33 7.98 16.66 9 17 C9.6875 19.0625 9.6875 19.0625 10 21 C11.134375 20.979375 12.26875 20.95875 13.4375 20.9375 C17 21 17 21 18 22 C18.04080783 23.99958364 18.04254356 26.00045254 18 28 C17.113125 28.28875 16.22625 28.5775 15.3125 28.875 C10.29836986 30.28958257 10.29836986 30.28958257 6 33 C5.86776232 34.37891723 5.79684002 35.7638595 5.75390625 37.1484375 C5.72103516 37.98890625 5.68816406 38.829375 5.65429688 39.6953125 C5.59337073 41.47383755 5.53604626 43.25248982 5.48242188 45.03125 C5.44826172 45.87429687 5.41410156 46.71734375 5.37890625 47.5859375 C5.3538501 48.3598584 5.32879395 49.1337793 5.30297852 49.93115234 C5 52 5 52 3 55 C-0.875 54.125 -0.875 54.125 -2 53 C-2.14431309 51.63330294 -2.22689369 50.25993852 -2.28125 48.88671875 C-2.31863281 48.05076172 -2.35601562 47.21480469 -2.39453125 46.35351562 C-2.42933594 45.47373047 -2.46414062 44.59394531 -2.5 43.6875 C-2.5691703 41.96208532 -2.64196154 40.23681118 -2.71875 38.51171875 C-2.74904297 37.74303467 -2.77933594 36.97435059 -2.81054688 36.18237305 C-2.99762661 34.02733985 -3.41610944 32.07937139 -4 30 C-5.27875 30.020625 -6.5575 30.04125 -7.875 30.0625 C-11.75 30.125 -11.75 30.125 -14 29 C-14 27.02 -14 25.04 -14 23 C-8.375 21 -8.375 21 -5 21 C-4.690625 20.360625 -4.38125 19.72125 -4.0625 19.0625 C-3 17 -3 17 -2 16 C-1.78936893 13.49583065 -1.62427923 11.00859919 -1.5 8.5 C-1.13513514 1.13513514 -1.13513514 1.13513514 0 0 Z " fill="#FEF1E9" transform="translate(115,57)"/>
<path d="M0 0 C4.70588235 0.70588235 4.70588235 0.70588235 6 2 C6.20335663 5.36668196 6.34673179 8.72609932 6.4296875 12.09765625 C6.53047415 16.26954948 6.53047415 16.26954948 8.4765625 19.8203125 C8.97929688 20.20960938 9.48203125 20.59890625 10 21 C10.33 21.99 10.66 22.98 11 24 C13.97 24.33 16.94 24.66 20 25 C20.625 27.375 20.625 27.375 21 30 C18.2173829 32.7826171 15.89667775 32.40930664 12.09375 32.65625 C9.78487741 32.82631807 9.78487741 32.82631807 8 35 C7.75603747 36.90543398 7.75603747 36.90543398 7.875 39.0625 C7.89046875 39.85914063 7.9059375 40.65578125 7.921875 41.4765625 C7.94765625 42.30929687 7.9734375 43.14203125 8 44 C8.05094651 45.64557222 8.09303786 47.29144961 8.125 48.9375 C8.14820313 49.66839844 8.17140625 50.39929688 8.1953125 51.15234375 C8 53 8 53 6 55 C4.68 55 3.36 55 2 55 C1.11722245 50.48184719 0.89410497 46.22487306 0.9375 41.625 C0.94652344 40.37976563 0.95554687 39.13453125 0.96484375 37.8515625 C0.97644531 36.91054688 0.98804688 35.96953125 1 35 C-0.26457031 34.81824219 -0.26457031 34.81824219 -1.5546875 34.6328125 C-2.65039062 34.46523438 -3.74609375 34.29765625 -4.875 34.125 C-6.51082031 33.88136719 -6.51082031 33.88136719 -8.1796875 33.6328125 C-11 33 -11 33 -13 31 C-12.625 28.375 -12.625 28.375 -12 26 C-10.01432292 25.64192708 -8.02864583 25.28385417 -6.04296875 24.92578125 C-2.96321259 23.53017473 -2.29599662 22.11607964 -1 19 C-0.67965067 15.90377467 -0.76156286 12.85719117 -0.875 9.75 C-0.95230533 6.83058684 -0.99408678 3.92112953 -1 1 C-0.67 0.67 -0.34 0.34 0 0 Z " fill="#FEF0E8" transform="translate(588,384)"/>
<path d="M0 0 C0.845625 0.08507812 1.69125 0.17015625 2.5625 0.2578125 C5.36387572 0.9671352 6.89403949 1.91006364 9 3.875 C10.10111689 7.17835066 10.20226528 9.77332137 10.25 13.25 C10.27578125 14.37148438 10.3015625 15.49296875 10.328125 16.6484375 C9.96554878 20.21377031 9.11263678 22.01583052 7 24.875 C3.06538376 28.04455197 -0.02077887 28.40848798 -5 27.875 C-8.5386994 26.22360695 -9.81070153 25.15894771 -12 21.875 C-12.85681496 14.9870979 -12.09434226 9.06368452 -9 2.875 C-5.97865614 -0.02811736 -4.12347269 -0.49029096 0 0 Z " fill="#FEF6EE" transform="translate(137,492.125)"/>
<path d="M0 0 C1.65 0 3.3 0 5 0 C5.67258667 2.33163378 6.33847444 4.6652039 7 7 C7.27191162 7.9437146 7.27191162 7.9437146 7.54931641 8.90649414 C8.50357054 13.3391752 8.31347615 17.92108989 8.375 22.4375 C8.41238281 23.47455078 8.44976563 24.51160156 8.48828125 25.58007812 C8.57654763 33.21512003 8.57654763 33.21512003 5.67578125 37.1640625 C2.65300133 39.23808668 0.65792254 39.91871283 -3 40 C-3.66 39.34 -4.32 38.68 -5 38 C-4.96712417 35.27130593 -4.43602229 32.7033382 -4 30 C-2.68 29.67 -1.36 29.34 0 29 C0.33 26.69 0.66 24.38 1 22 C0.0925 22.103125 -0.815 22.20625 -1.75 22.3125 C-5 22 -5 22 -7.3125 19.6875 C-9.58405467 16.06983885 -10.12315033 13.49737281 -10.0625 9.3125 C-10.05347656 8.50425781 -10.04445313 7.69601563 -10.03515625 6.86328125 C-10.02355469 6.24839844 -10.01195312 5.63351563 -10 5 C-7.125 4.375 -7.125 4.375 -4 4 C-3.34 4.66 -2.68 5.32 -2 6 C-1.34 4.02 -0.68 2.04 0 0 Z " fill="#FEF3EB" transform="translate(539,138)"/>
<path d="M0 0 C2.5 0.125 2.5 0.125 3.5 1.125 C4.99747338 8.47027088 5.7537426 15.63959323 5.5 23.125 C-2.9910432 25.78885669 -2.9910432 25.78885669 -6.5 25.125 C-11.16165268 20.46334732 -12.60680001 16.27349526 -12.625 9.8125 C-12.59306101 8.24977089 -12.55459773 6.68710161 -12.5 5.125 C-10.1875 4.5 -10.1875 4.5 -7.5 4.125 C-6.51 4.785 -5.52 5.445 -4.5 6.125 C-4.355625 5.320625 -4.21125 4.51625 -4.0625 3.6875 C-3.2891492 0.16445746 -3.2891492 0.16445746 0 0 Z " fill="#FEF1E9" transform="translate(562.5,137.875)"/>
<path d="M0 0 C1.010625 0.144375 2.02125 0.28875 3.0625 0.4375 C9.173772 8.70395488 8.98358047 21.60361149 8.0625 31.4375 C7.4025 32.0975 6.7425 32.7575 6.0625 33.4375 C2.76535207 33.10778521 1.4398161 32.8148161 -0.9375 30.4375 C-1.34814453 28.37451172 -1.34814453 28.37451172 -1.5703125 25.8671875 C-1.65410156 24.97128906 -1.73789062 24.07539062 -1.82421875 23.15234375 C-1.90285156 22.21519531 -1.98148438 21.27804688 -2.0625 20.3125 C-2.19205078 18.89517578 -2.19205078 18.89517578 -2.32421875 17.44921875 C-2.53664083 15.11257582 -2.74071542 12.7755033 -2.9375 10.4375 C-3.5975 10.4375 -4.2575 10.4375 -4.9375 10.4375 C-5.1328125 4.3828125 -5.1328125 4.3828125 -4.9375 2.4375 C-2.9375 0.4375 -2.9375 0.4375 0 0 Z " fill="#FEF1EA" transform="translate(578.9375,62.5625)"/>
<path d="M0 0 C2.35090442 1.68797166 2.93238026 2.66137712 3.50390625 5.5234375 C3.65594262 12.92254098 3.65594262 12.92254098 1.86328125 15.8671875 C-0.73356582 18.28000604 -2.6768797 18.99366431 -6.1875 19.0625 C-9.51035942 17.80719755 -10.51177133 17.22449544 -12 14 C-12.54583589 9.78060191 -12.69196207 5.49955069 -10 2 C-6.78801186 -0.29427725 -3.86893019 -0.41158832 0 0 Z " fill="#FEF4EC" transform="translate(164,531)"/>
<path d="M0 0 C0.99 0.66 1.98 1.32 3 2 C3.81336238 6.96151053 3.81336238 6.96151053 3 10 C0.18458579 13.38982343 -2.88535764 14.82515414 -7.1875 15.5 C-10.47067377 14.91632466 -11.88078547 14.60826403 -14 12 C-14.33686831 9.24528656 -14.18319242 6.7936844 -14 4 C-13.34 4 -12.68 4 -12 4 C-12 3.34 -12 2.68 -12 2 C-4.56046065 -1.64683301 -4.56046065 -1.64683301 0 0 Z " fill="#F59996" transform="translate(535,498)"/>
<path d="M0 0 C1.65 0 3.3 0 5 0 C5.95376567 3.20782086 6.11621181 6.08187396 6.09765625 9.421875 C6.09443359 10.44667969 6.09121094 11.47148438 6.08789062 12.52734375 C6.07951172 13.59082031 6.07113281 14.65429688 6.0625 15.75 C6.05798828 16.82894531 6.05347656 17.90789062 6.04882812 19.01953125 C6.03705727 21.67974383 6.02061399 24.33984365 6 27 C4.125 27.625 4.125 27.625 2 28 C-1.80577994 24.19422006 -1.12882439 19.00010499 -1.13671875 13.90429688 C-1.13285156 13.04900391 -1.12898437 12.19371094 -1.125 11.3125 C-1.12886719 10.44560547 -1.13273438 9.57871094 -1.13671875 8.68554688 C-1.13542969 7.85732422 -1.13414062 7.02910156 -1.1328125 6.17578125 C-1.13168457 5.42208252 -1.13055664 4.66838379 -1.12939453 3.8918457 C-1 2 -1 2 0 0 Z " fill="#FEF1E9" transform="translate(597,73)"/>
<path d="M0 0 C3.23648331 1.00442585 3.99765499 1.99583109 5.6875 5 C7.90862456 10.89027508 9.09420215 17.19769733 6.5625 23.125 C6.046875 24.07375 5.53125 25.0225 5 26 C2.2913761 24.64568805 1.74974779 22.76535743 0.64648438 20.04541016 C-0.43416927 16.62633302 -0.61124397 13.2522084 -0.75 9.6875 C-0.79253906 8.97271484 -0.83507812 8.25792969 -0.87890625 7.52148438 C-1.14514943 2.29029887 -1.14514943 2.29029887 0 0 Z " fill="#F59A97" transform="translate(243,222)"/>
<path d="M0 0 C1.2065625 0.0309375 1.2065625 0.0309375 2.4375 0.0625 C4.0010348 3.18956959 3.83708487 6.64232443 3.4375 10.0625 C2.4475 11.5475 2.4475 11.5475 1.4375 13.0625 C-2.4375 12.1875 -2.4375 12.1875 -3.5625 11.0625 C-3.66073937 9.39820949 -3.69223631 7.72968069 -3.6875 6.0625 C-3.69007813 5.155 -3.69265625 4.2475 -3.6953125 3.3125 C-3.50465529 0.08254264 -3.25740423 0.07944888 0 0 Z " fill="#F59795" transform="translate(302.5625,434.9375)"/>
<path d="M0 0 C0.66 0.33 1.32 0.66 2 1 C1.67 1.33 1.34 1.66 1 2 C1.57914133 9.06552429 2.78350311 16.0199062 4 23 C3.34 23 2.68 23 2 23 C1.34 24.32 0.68 25.64 0 27 C-2.31 27 -4.62 27 -7 27 C-7 26.67 -7 26.34 -7 26 C-5.02 25.67 -3.04 25.34 -1 25 C-0.9727585 23.58344207 -0.95349533 22.16672955 -0.9375 20.75 C-0.92589844 19.96109375 -0.91429687 19.1721875 -0.90234375 18.359375 C-0.99680485 16.07719481 -1.43733944 14.20303249 -2 12 C-2.11311965 10.48209216 -2.17462299 8.95956257 -2.1875 7.4375 C-2.20167969 6.67308594 -2.21585938 5.90867188 -2.23046875 5.12109375 C-2 3 -2 3 0 0 Z " fill="#F7B1AE" transform="translate(568,136)"/>
<path d="M0 0 C1 1 1 1 1.1875 3.9375 C1 7 1 7 -1 9 C-5.55555556 8.44444444 -5.55555556 8.44444444 -7 7 C-7.04092937 4.66702567 -7.04241723 2.33294775 -7 0 C-4.31633121 -1.3418344 -2.84719317 -0.73004953 0 0 Z " fill="#FDEBE4" transform="translate(590,105)"/>
<path d="M0 0 C3.875 0.875 3.875 0.875 5 2 C5.23728814 8.52542373 5.23728814 8.52542373 4 11 C2.35 11 0.7 11 -1 11 C-2.38550197 8.22899606 -2.1877467 6.0665294 -2 3 C-1.34 2.01 -0.68 1.02 0 0 Z " fill="#F59996" transform="translate(181,263)"/>
<path d="M0 0 C1.44207941 2.88415883 1.09394887 5.41721528 1.0625 8.625 C1.05347656 9.81351563 1.04445313 11.00203125 1.03515625 12.2265625 C1.02355469 13.14179687 1.01195312 14.05703125 1 15 C0.34 14.01 -0.32 13.02 -1 12 C-1.33 18.6 -1.66 25.2 -2 32 C-2.33 32 -2.66 32 -3 32 C-3.33 24.08 -3.66 16.16 -4 8 C-3.34 8 -2.68 8 -2 8 C-1.855625 6.865625 -1.71125 5.73125 -1.5625 4.5625 C-1 1 -1 1 0 0 Z " fill="#F7AFAC" transform="translate(511,108)"/>
<path d="M0 0 C0.33 0 0.66 0 1 0 C1.33 3.63 1.66 7.26 2 11 C1.34 11 0.68 11 0 11 C0 15.95 0 20.9 0 26 C-0.66 26.33 -1.32 26.66 -2 27 C-2 19.74 -2 12.48 -2 5 C-1.67 5 -1.34 5 -1 5 C-0.67 3.35 -0.34 1.7 0 0 Z " fill="#F7B0AD" transform="translate(549,144)"/>
<path d="M0 0 C2.49361571 1.20381448 4.68143083 2.45428722 7 4 C6 7 6 7 4 8 C2.00039988 8.039992 -0.00047242 8.04346799 -2 8 C-1.47731534 5.23723823 -0.89130413 2.6739124 0 0 Z " fill="#F59A97" transform="translate(199,305)"/>
<path d="M0 0 C0.33 0 0.66 0 1 0 C1.27714844 1.13179688 1.55429687 2.26359375 1.83984375 3.4296875 C2.20560488 4.91148902 2.57149711 6.39325818 2.9375 7.875 C3.11990234 8.62136719 3.30230469 9.36773437 3.49023438 10.13671875 C4.45209692 14.17039125 4.45209692 14.17039125 6 18 C5.01 18.33 4.02 18.66 3 19 C2.01 19.99 1.02 20.98 0 22 C0 14.74 0 7.48 0 0 Z " fill="#F6A5A2" transform="translate(532,109)"/>
<path d="M0 0 C0.99 0 1.98 0 3 0 C3.22331199 1.58129029 3.42804644 3.16521089 3.625 4.75 C3.74101563 5.63171875 3.85703125 6.5134375 3.9765625 7.421875 C4.0023954 10.26349367 3.55715677 11.64837549 2 14 C1.01 14.495 1.01 14.495 0 15 C0 10.05 0 5.1 0 0 Z " fill="#F8B5B1" transform="translate(587,139)"/>
<path d="M0 0 C1.65497356 3.30994713 1.10084335 6.99123 1.0625 10.625 C1.05798828 11.42679688 1.05347656 12.22859375 1.04882812 13.0546875 C1.03703168 15.03649006 1.01909605 17.01825433 1 19 C0.34 17.68 -0.32 16.36 -1 15 C-1.99 15.495 -1.99 15.495 -3 16 C-3.19361753 10.48190035 -2.81170643 6.22197736 -1 1 C-0.67 0.67 -0.34 0.34 0 0 Z " fill="#FACFCA" transform="translate(534,99)"/>
<path d="M0 0 C0.66 0.33 1.32 0.66 2 1 C1.67 1.33 1.34 1.66 1 2 C1.09017996 4.19050021 1.24666208 6.378466 1.4375 8.5625 C1.53933594 9.76003906 1.64117188 10.95757812 1.74609375 12.19140625 C1.82988281 13.11824219 1.91367187 14.04507813 2 15 C1.01 15.33 0.02 15.66 -1 16 C-1.82791734 13.0923543 -2.16193659 10.45909481 -2.1875 7.4375 C-2.20167969 6.67308594 -2.21585938 5.90867188 -2.23046875 5.12109375 C-2 3 -2 3 0 0 Z " fill="#F8B8B4" transform="translate(568,136)"/>
<path d="M0 0 C1.65 0 3.3 0 5 0 C5 1.98 5 3.96 5 6 C3.35 5.67 1.7 5.34 0 5 C0 3.35 0 1.7 0 0 Z " fill="#FDE6DF" transform="translate(599,109)"/>
<path d="M0 0 C0.33 0 0.66 0 1 0 C1 3.96 1 7.92 1 12 C0.34 12 -0.32 12 -1 12 C-1.92470553 7.28400182 -2.22923777 4.32734391 0 0 Z " fill="#F9C1BC" transform="translate(521,104)"/>
<path d="M0 0 C0.66 1.32 1.32 2.64 2 4 C2.66 4.33 3.32 4.66 4 5 C3.625 6.9375 3.625 6.9375 3 9 C2.01 9.495 2.01 9.495 1 10 C0.67 6.7 0.34 3.4 0 0 Z " fill="#F9C4C0" transform="translate(566,142)"/>
<path d="M0 0 C-0.61875 0.4125 -1.2375 0.825 -1.875 1.25 C-4.06768281 3.05573879 -4.92788417 4.4090534 -6 7 C-6 4.69 -6 2.38 -6 0 C-3.50907189 -1.24546405 -2.58919267 -0.7767578 0 0 Z " fill="#FCDCD6" transform="translate(589,105)"/>
</svg>
