<?xml version="1.0" encoding="UTF-8"?>
<svg version="1.1" xmlns="http://www.w3.org/2000/svg" width="320" height="320">
<path d="M0 0 C79.00911282 -0.04033135 79.00911282 -0.04033135 111.92382812 -0.04882812 C119.45841474 -0.05078614 126.99300133 -0.05280666 134.52758789 -0.05493164 C135.47198866 -0.05519539 136.41638943 -0.05545914 137.38940841 -0.05573088 C152.65679117 -0.06008592 167.92417019 -0.06797288 183.19155072 -0.0771528 C198.84787712 -0.0864884 214.50420156 -0.09205541 230.16053063 -0.09408849 C239.8294075 -0.09546392 249.49827379 -0.09981554 259.16714741 -0.10791647 C265.78809374 -0.11318278 272.40903457 -0.11480456 279.02998286 -0.11350138 C282.85584243 -0.11285782 286.68168344 -0.11387753 290.50753975 -0.11920547 C294.64541462 -0.1249262 298.78324943 -0.12300124 302.92112732 -0.12025452 C304.75523113 -0.12462378 304.75523113 -0.12462378 306.62638754 -0.12908131 C307.72564819 -0.12709026 308.82490885 -0.12509921 309.95748043 -0.12304783 C310.91399594 -0.12342755 311.87051145 -0.12380727 312.85601228 -0.1241985 C315 -0 315 -0 316 1 C316.09714351 2.63682647 316.12371573 4.27787414 316.12304783 5.9175806 C316.1250387 6.98931208 316.12702957 8.06104355 316.12908077 9.16525173 C316.12616811 10.35652204 316.12325544 11.54779234 316.12025452 12.77516174 C316.12111053 14.02662491 316.12196655 15.27808807 316.12284851 16.56747437 C316.12510319 20.06405864 316.1210622 23.56061258 316.11607273 27.057193 C316.1117248 30.87708446 316.1131661 34.69697438 316.11389065 38.51686764 C316.11442364 45.94139751 316.10979342 53.36591536 316.10338932 60.79044214 C316.09620683 69.37327611 316.09539553 77.95610279 316.09460449 86.53894043 C316.08934797 109.2134622 316.07538694 131.88798128 316.0625 154.5625 C316.041875 205.196875 316.02125 255.83125 316 308 C211.72 308 107.44 308 0 308 C0 206.36 0 104.72 0 0 Z " fill="#FEF8F0" transform="translate(3,4)"/>
<path d="M0 0 C79.00911282 -0.04033135 79.00911282 -0.04033135 111.92382812 -0.04882812 C119.45841474 -0.05078614 126.99300133 -0.05280666 134.52758789 -0.05493164 C135.47198866 -0.05519539 136.41638943 -0.05545914 137.38940841 -0.05573088 C152.65679117 -0.06008592 167.92417019 -0.06797288 183.19155072 -0.0771528 C198.84787712 -0.0864884 214.50420156 -0.09205541 230.16053063 -0.09408849 C239.8294075 -0.09546392 249.49827379 -0.09981554 259.16714741 -0.10791647 C265.78809374 -0.11318278 272.40903457 -0.11480456 279.02998286 -0.11350138 C282.85584243 -0.11285782 286.68168344 -0.11387753 290.50753975 -0.11920547 C294.64541462 -0.1249262 298.78324943 -0.12300124 302.92112732 -0.12025452 C304.75523113 -0.12462378 304.75523113 -0.12462378 306.62638754 -0.12908131 C307.72564819 -0.12709026 308.82490885 -0.12509921 309.95748043 -0.12304783 C310.91399594 -0.12342755 311.87051145 -0.12380727 312.85601228 -0.1241985 C315 -0 315 -0 316 1 C316.09714351 2.63682647 316.12371573 4.27787414 316.12304783 5.9175806 C316.1250387 6.98931208 316.12702957 8.06104355 316.12908077 9.16525173 C316.12616811 10.35652204 316.12325544 11.54779234 316.12025452 12.77516174 C316.12111053 14.02662491 316.12196655 15.27808807 316.12284851 16.56747437 C316.12510319 20.06405864 316.1210622 23.56061258 316.11607273 27.057193 C316.1117248 30.87708446 316.1131661 34.69697438 316.11389065 38.51686764 C316.11442364 45.94139751 316.10979342 53.36591536 316.10338932 60.79044214 C316.09620683 69.37327611 316.09539553 77.95610279 316.09460449 86.53894043 C316.08934797 109.2134622 316.07538694 131.88798128 316.0625 154.5625 C316.041875 205.196875 316.02125 255.83125 316 308 C211.72 308 107.44 308 0 308 C0 206.36 0 104.72 0 0 Z M22 26 C22 110.81 22 195.62 22 283 C111.43 283 200.86 283 293 283 C293 198.19 293 113.38 293 26 C203.57 26 114.14 26 22 26 Z " fill="#4B2C27" transform="translate(3,4)"/>
<path d="M0 0 C79.00911282 -0.04033135 79.00911282 -0.04033135 111.92382812 -0.04882812 C119.45841474 -0.05078614 126.99300133 -0.05280666 134.52758789 -0.05493164 C135.47198866 -0.05519539 136.41638943 -0.05545914 137.38940841 -0.05573088 C152.65679117 -0.06008592 167.92417019 -0.06797288 183.19155072 -0.0771528 C198.84787712 -0.0864884 214.50420156 -0.09205541 230.16053063 -0.09408849 C239.8294075 -0.09546392 249.49827379 -0.09981554 259.16714741 -0.10791647 C265.78809374 -0.11318278 272.40903457 -0.11480456 279.02998286 -0.11350138 C282.85584243 -0.11285782 286.68168344 -0.11387753 290.50753975 -0.11920547 C294.64541462 -0.1249262 298.78324943 -0.12300124 302.92112732 -0.12025452 C304.75523113 -0.12462378 304.75523113 -0.12462378 306.62638754 -0.12908131 C307.72564819 -0.12709026 308.82490885 -0.12509921 309.95748043 -0.12304783 C310.91399594 -0.12342755 311.87051145 -0.12380727 312.85601228 -0.1241985 C315 -0 315 -0 316 1 C316.09714351 2.63682647 316.12371573 4.27787414 316.12304783 5.9175806 C316.1250387 6.98931208 316.12702957 8.06104355 316.12908077 9.16525173 C316.12616811 10.35652204 316.12325544 11.54779234 316.12025452 12.77516174 C316.12111053 14.02662491 316.12196655 15.27808807 316.12284851 16.56747437 C316.12510319 20.06405864 316.1210622 23.56061258 316.11607273 27.057193 C316.1117248 30.87708446 316.1131661 34.69697438 316.11389065 38.51686764 C316.11442364 45.94139751 316.10979342 53.36591536 316.10338932 60.79044214 C316.09620683 69.37327611 316.09539553 77.95610279 316.09460449 86.53894043 C316.08934797 109.2134622 316.07538694 131.88798128 316.0625 154.5625 C316.041875 205.196875 316.02125 255.83125 316 308 C211.72 308 107.44 308 0 308 C0 206.36 0 104.72 0 0 Z M9 12 C9 106.05 9 200.1 9 297 C61.76269451 297.02912091 61.76269451 297.02912091 114.52539062 297.04882812 C121.62931317 297.05078614 128.7332357 297.05280666 135.8371582 297.05493164 C136.72757814 297.05519539 137.61799809 297.05545914 138.53540045 297.05573088 C152.92995354 297.06008587 167.32450265 297.06797281 181.71905338 297.0771528 C196.48040995 297.08648853 211.24176442 297.09205544 226.00312382 297.09408849 C235.1192306 297.09546389 244.23532615 297.09981536 253.35142947 297.10791647 C259.59392978 297.11318294 265.83642424 297.11480452 272.07892662 297.11350138 C275.68605785 297.11285784 279.29316939 297.11387724 282.90029716 297.11920547 C286.80169786 297.12492665 290.70307247 297.12300111 294.60447693 297.12025452 C295.75717573 297.12316736 296.90987453 297.1260802 298.0975036 297.12908131 C299.13406314 297.12709026 300.17062267 297.12509921 301.2385931 297.12304783 C302.14042889 297.12342755 303.04226467 297.12380727 303.97142881 297.1241985 C305.99574468 297.22511325 305.99574468 297.22511325 307 296 C307.09773212 294.4892532 307.12555493 292.97393428 307.12584114 291.4600296 C307.12844889 290.4728543 307.13105664 289.48567901 307.13374341 288.46858931 C307.13151268 287.3710459 307.12928196 286.27350249 307.12698364 285.1427002 C307.12932363 283.40900893 307.12932363 283.40900893 307.13171089 281.6402936 C307.13502407 278.41782546 307.13381177 275.19539458 307.13072467 271.97292733 C307.12847237 268.50322531 307.13194933 265.03352852 307.13470459 261.56382751 C307.13916311 254.76101678 307.13818546 247.95821705 307.13529195 241.15540588 C307.13303824 235.62912078 307.13272525 230.10283877 307.13381577 224.57655334 C307.133969 223.79155033 307.13412223 223.00654731 307.13428011 222.19775632 C307.13459982 220.60329258 307.13492403 219.00882885 307.1352527 217.41436511 C307.13810773 202.44513352 307.1348201 187.47590804 307.12945233 172.50667745 C307.12498427 159.64816602 307.1257602 146.78966361 307.13037109 133.93115234 C307.13571645 119.01734821 307.13783304 104.10354943 307.13475883 89.18974447 C307.13444026 87.60097853 307.13412589 86.0122126 307.13381577 84.42344666 C307.13366149 83.64163915 307.13350721 82.85983164 307.13334826 82.054333 C307.13248299 76.53142435 307.13394621 71.00851909 307.13629532 65.48561096 C307.13909309 58.75971539 307.13835556 52.03383149 307.13301457 45.30793726 C307.13037724 41.87294791 307.12937303 38.43797805 307.13266373 35.00298882 C307.13537193 31.28773931 307.13199816 27.57254569 307.12698364 23.8572998 C307.13032973 22.21098469 307.13032973 22.21098469 307.13374341 20.53141069 C307.12983178 19.05064775 307.12983178 19.05064775 307.12584114 17.5399704 C307.12567879 16.68120536 307.12551644 15.82244033 307.12534916 14.93765211 C307.21361575 12.99362122 307.21361575 12.99362122 306 12 C304.41530178 11.90297746 302.82625849 11.87628368 301.2385931 11.87695217 C300.20203357 11.87496112 299.16547403 11.87297007 298.0975036 11.87091869 C296.3684554 11.87528795 296.3684554 11.87528795 294.60447693 11.87974548 C292.78397271 11.87846385 292.78397271 11.87846385 290.92669064 11.87715632 C287.54266124 11.87578809 284.15868896 11.8789357 280.77466643 11.88393438 C277.13115984 11.88823546 273.48765514 11.8867927 269.84414673 11.8860321 C263.52645381 11.88550665 257.20877119 11.88865567 250.89108086 11.89426994 C241.75665657 11.90238206 232.62223728 11.90499987 223.48780978 11.90625793 C208.6693606 11.90844891 193.85091691 11.91511022 179.0324707 11.92456055 C164.63403348 11.93373349 150.23559775 11.94080344 135.8371582 11.94506836 C134.9412278 11.94533636 134.0452974 11.94560435 133.1222176 11.94588047 C126.11590468 11.94795978 119.10959172 11.94991675 112.10327876 11.95183504 C77.73551413 11.96127611 43.36776325 11.98139266 9 12 Z " fill="#E7716F" transform="translate(3,4)"/>
<path d="M0 0 C1.05703125 0.37382813 2.1140625 0.74765625 3.203125 1.1328125 C27.11082608 10.38938394 43.76696793 26.98293658 54.22216797 50.18457031 C61.53167844 67.24468328 61.05860087 89.38284328 54.75 106.625 C50.28398465 117.4265255 44.74599869 126.23587715 37 135 C36.47019531 135.62519531 35.94039062 136.25039062 35.39453125 136.89453125 C19.66223812 154.16365508 -4.46863881 161.85732925 -27.18457031 163.12158203 C-51.1637746 163.93617503 -74.42493053 155.05997728 -92 139 C-93.20269531 137.91912109 -93.20269531 137.91912109 -94.4296875 136.81640625 C-103.60392357 128.15184996 -109.28394254 117.60666591 -114 106 C-114.41636719 105.00226563 -114.83273438 104.00453125 -115.26171875 102.9765625 C-121.95337511 83.95817074 -119.17624469 61.81196844 -110.875 43.875 C-99.23622882 21.82127692 -80.27810112 6.60925969 -56.5625 -0.8125 C-38.68133802 -6.3051966 -17.68683953 -6.35231561 0 0 Z M-41.1875 -2 C-42.27417969 -1.814375 -43.36085938 -1.62875 -44.48046875 -1.4375 C-45.31191406 -1.293125 -46.14335937 -1.14875 -47 -1 C-47.02557078 6.57648998 -47.04295863 14.15296863 -47.05493164 21.72949219 C-47.05992852 24.30143652 -47.06672827 26.87337806 -47.07543945 29.4453125 C-47.0877102 33.16406956 -47.09327491 36.88278873 -47.09765625 40.6015625 C-47.10281754 41.73236237 -47.10797882 42.86316223 -47.11329651 44.02822876 C-47.11384771 52.05631478 -46.66466604 60.00036197 -46 68 C-48.97 67.34 -51.94 66.68 -55 66 C-53 61 -53 61 -51.95068359 58.75 C-50.21092487 53.71747759 -50.62815851 48.36636688 -50.62939453 43.09228516 C-50.62506995 41.03330635 -50.58885756 38.97656193 -50.55078125 36.91796875 C-50.44370895 24.48532098 -52.46091564 13.42145641 -61 4 C-64.61526464 4.36152646 -67.84952052 5.16190602 -71.1875 6.5625 C-72.16783203 6.96662109 -72.16783203 6.96662109 -73.16796875 7.37890625 C-76.76179557 10.55894491 -77.77916368 14.97141403 -78.28100586 19.58129883 C-78.40341837 22.43648791 -78.41585826 25.26751971 -78.375 28.125 C-78.36557373 29.14037842 -78.35614746 30.15575684 -78.34643555 31.2019043 C-78.08031893 44.52363875 -75.47222158 55.79166762 -68 67 C-71.3 67 -74.6 67 -78 67 C-78.08564209 65.60241455 -78.17128418 64.2048291 -78.25952148 62.76489258 C-78.57849548 57.57440817 -78.90197399 52.38421258 -79.22680664 47.1940918 C-79.36670638 44.94872525 -79.50538821 42.70328248 -79.64282227 40.45776367 C-79.84069987 37.228144 -80.04297112 33.99882477 -80.24609375 30.76953125 C-80.3065538 29.76727005 -80.36701385 28.76500885 -80.42930603 27.7323761 C-80.48929276 26.79177841 -80.54927948 25.85118073 -80.61108398 24.88208008 C-80.68769508 23.64630974 -80.68769508 23.64630974 -80.76585388 22.38557434 C-81.0122544 19.87514723 -81.46599501 17.46392558 -82 15 C-87.77499672 17.00691375 -91.93855652 20.47798045 -96 25 C-97.19880755 28.28939544 -97.19880755 28.28939544 -97 31 C-98.32 31 -99.64 31 -101 31 C-102.77062716 33.44614374 -104.23435228 35.75119457 -105.6875 38.375 C-106.09033203 39.07367188 -106.49316406 39.77234375 -106.90820312 40.4921875 C-111.64066939 48.73634984 -112.36830336 57.23897163 -110.46875 66.625 C-108.95566317 70.83532856 -106.51968559 74.35080018 -104 78 C-104 78.66 -104 79.32 -104 80 C-105.86328125 81.62109375 -105.86328125 81.62109375 -108.3125 83.4375 C-112.43324043 86.41697227 -112.43324043 86.41697227 -116 90 C-116 90.99 -116 91.98 -116 93 C-112.7173068 91.50923566 -110.06922559 89.61379679 -107.25 87.375 C-106.45078125 86.74335938 -105.6515625 86.11171875 -104.828125 85.4609375 C-104.22484375 84.97882813 -103.6215625 84.49671875 -103 84 C-103.66589845 85.99769536 -104.34428217 87.99127281 -105.03515625 89.98046875 C-106.45580227 95.02621151 -106.40707899 100.10374635 -106.4375 105.3125 C-106.47037109 106.29412109 -106.50324219 107.27574219 -106.53710938 108.28710938 C-106.6228266 120.06153878 -101.28061464 127.37053133 -93.421875 135.56640625 C-92.62265625 136.36949219 -91.8234375 137.17257813 -91 138 C-90.42765625 138.60714844 -89.8553125 139.21429688 -89.265625 139.83984375 C-86.61846667 142.40872589 -85.15508314 142.99183773 -81.4375 143.1875 C-75.87927057 141.26738438 -73.95199619 137.6742002 -71.1875 132.8125 C-69.09207952 126.0850974 -68.80839331 119.71842944 -72 113.3125 C-72.66 112.219375 -73.32 111.12625 -74 110 C-76.28836222 109.58013054 -76.28836222 109.58013054 -79 110 C-81.64587234 112.39585286 -81.64587234 112.39585286 -84 115 C-85.485 115.495 -85.485 115.495 -87 116 C-88.35827701 113.28344597 -88.1323445 111.09210594 -88.125 108.0625 C-88.12886719 106.47115234 -88.12886719 106.47115234 -88.1328125 104.84765625 C-88 102 -88 102 -87 99 C-84.13275314 99.57344937 -83.1385485 99.8614515 -81 102 C-78.54290625 102.58350505 -78.54290625 102.58350505 -76 102 C-71.57547521 96.31886793 -72.41293668 89.85164694 -73 83 C-73.91801035 79.05137857 -75.07973511 75.92026489 -78 73 C-74.04 72.01 -74.04 72.01 -70 71 C-68.78942159 98.3178111 -68.45868506 125.66174294 -68 153 C-66.25307205 153.67467562 -64.50231475 154.33944156 -62.75 155 C-61.28820312 155.556875 -61.28820312 155.556875 -59.796875 156.125 C-56.85216862 157.19905238 -56.85216862 157.19905238 -53 157 C-53.33 138.85 -53.66 120.7 -54 102 C-53.01 101.67 -52.02 101.34 -51 101 C-47.97336612 102.96731202 -46.23602802 104.56728196 -44.5 107.75 C-44.005 108.4925 -43.51 109.235 -43 110 C-40.37305578 110.41780879 -40.37305578 110.41780879 -38 110 C-34.49855678 104.48061977 -34.60992101 99.74543196 -34.75 93.4375 C-34.75773437 92.03854492 -34.75773437 92.03854492 -34.765625 90.61132812 C-34.8152692 86.25815252 -35.05385324 82.26287465 -36 78 C-34.40791442 78.84653403 -32.81592439 79.69324816 -31.22436523 80.54077148 C-29.85850964 81.26781987 -28.49212927 81.99388318 -27.12524414 82.71899414 C-22.18531552 85.34592435 -17.30551398 88.06457562 -12.46484375 90.87109375 C-9.65058443 92.16003344 -7.05970482 92.61365121 -4 93 C-4.165 94.27875 -4.33 95.5575 -4.5 96.875 C-5.76025948 105.63882551 -5.76025948 105.63882551 -4 114 C-2.02 113.34 -0.04 112.68 2 112 C1.32710938 112.8765625 0.65421875 113.753125 -0.0390625 114.65625 C-8.11718163 126.25412104 -7.59571546 136.04924157 -5.66699219 149.71020508 C-4.90990889 152.30928422 -4.14466234 153.37558238 -2 155 C3.39250114 155.81941045 7.16696094 153.86779748 11.8125 151.4375 C12.51592529 151.07688477 13.21935059 150.71626953 13.9440918 150.34472656 C20.8348232 146.72028285 27.690591 142.67179586 32 136 C32.99493717 128.32477042 30.28116126 121.250834 28 114 C22.38145179 114.66636964 17.60962765 116.08767337 12.35327148 118.09936523 C11.1884021 118.54517944 11.1884021 118.54517944 10 119 C10.30292969 118.39003174 10.60585937 117.78006348 10.91796875 117.15161133 C12.28888198 114.37683022 13.64453844 111.5948596 15 108.8125 C15.47695312 107.85279297 15.95390625 106.89308594 16.4453125 105.90429688 C17.12207031 104.50727539 17.12207031 104.50727539 17.8125 103.08203125 C18.23144531 102.22843018 18.65039062 101.3748291 19.08203125 100.49536133 C20.06477208 97.82392675 20.17682289 95.82253539 20 93 C23.465 92.505 23.465 92.505 27 92 C27.03867187 93.66675781 27.03867187 93.66675781 27.078125 95.3671875 C27.49817594 107.85632755 29.09702376 116.69234302 38 126 C40.36586915 125.98165402 40.36586915 125.98165402 43 125 C44.64165057 122.90578629 45.90110838 121.04193361 47.1875 118.75 C47.52974609 118.17636719 47.87199219 117.60273438 48.22460938 117.01171875 C51.26726231 111.82443861 53.28664779 107.74929194 53.125 101.6875 C53.10695312 100.80449219 53.08890625 99.92148438 53.0703125 99.01171875 C53.04710937 98.34785156 53.02390625 97.68398437 53 97 C51.12730052 96.33875883 51.12730052 96.33875883 49 96 C45.61893264 98.28222047 42.82589091 101.06944646 40 104 C40 102.68 40 101.36 40 100 C40.5775 99.7525 41.155 99.505 41.75 99.25 C44.3988272 97.77842934 46.10374141 96.37032324 48 94 C48.57764269 90.781705 48.1517398 89.3034796 46.6875 86.375 C45.24475606 84.3444715 43.84113437 82.66578824 42 81 C42.55171875 80.80019531 43.1034375 80.60039062 43.671875 80.39453125 C46.94079839 78.43646808 48.97214979 75.67055675 51.25 72.6875 C51.70890625 72.11837891 52.1678125 71.54925781 52.640625 70.96289062 C54.6971886 68.29731489 55.95214239 66.47038996 56.296875 63.08203125 C56.19890625 62.39496094 56.1009375 61.70789063 56 61 C55.01 61.495 55.01 61.495 54 62 C53.67 60.68 53.34 59.36 53 58 C48.99745544 57.90818866 48.99745544 57.90818866 45 58 C43.64381501 59.12534105 43.64381501 59.12534105 43.9375 62.0625 C43.9684375 63.5165625 43.9684375 63.5165625 44 65 C43.34 65 42.68 65 42 65 C42 61.7 42 58.4 42 55 C43.65 55 45.3 55 47 55 C48.33901792 53.88873341 48.33901792 53.88873341 48.09765625 51.05859375 C48.08605469 49.86363281 48.07445312 48.66867188 48.0625 47.4375 C48.05347656 46.23996094 48.04445312 45.04242188 48.03515625 43.80859375 C48.02355469 42.88175781 48.01195312 41.95492187 48 41 C45.03 40.505 45.03 40.505 42 40 C42.144375 38.845 42.28875 37.69 42.4375 36.5 C42.48234929 31.47687973 40.03311945 29.00662986 36.7265625 25.46875 C35.12390023 23.78401717 35.12390023 23.78401717 33 24 C33 28.29 33 32.58 33 37 C31.35 37 29.7 37 28 37 C26.46733418 40.06533164 26.89723529 43.26754272 26.9375 46.625 C26.94426758 47.68460938 26.94426758 47.68460938 26.95117188 48.765625 C26.96296125 50.51045275 26.98089676 52.255237 27 54 C28.32 54.33 29.64 54.66 31 55 C30.98428955 56.09671021 30.98428955 56.09671021 30.96826172 57.21557617 C30.92659711 60.53951559 30.90064044 63.86339995 30.875 67.1875 C30.84986328 68.91323242 30.84986328 68.91323242 30.82421875 70.67382812 C30.81455078 72.34155273 30.81455078 72.34155273 30.8046875 74.04296875 C30.78897705 75.57473755 30.78897705 75.57473755 30.77294922 77.13745117 C31.01000368 80.12612167 31.74382898 82.29423369 33 85 C32.11248047 85.29003906 32.11248047 85.29003906 31.20703125 85.5859375 C30.02173828 85.97652344 30.02173828 85.97652344 28.8125 86.375 C28.03519531 86.63023437 27.25789062 86.88546875 26.45703125 87.1484375 C23.93632321 88.02206922 21.46935722 88.99120398 19 90 C19.26554688 89.40316406 19.53109375 88.80632812 19.8046875 88.19140625 C26.60209033 71.49559566 26.2088014 51.46310721 26.62475586 33.65649414 C26.6669821 32.24725498 26.72887952 30.83848286 26.80932617 29.4309082 C27.47385362 20.88449659 27.47385362 20.88449659 23.83056641 13.50732422 C20.34846823 11.02155808 17.05168359 9.3505612 13 8 C12.12914281 20.16421867 11.71470784 32.30964368 11.4375 44.5 C11.39415998 46.30599632 11.35054171 48.11198598 11.30664062 49.91796875 C11.20123187 54.27857608 11.09954431 58.63925502 11 63 C10.01 63.495 10.01 63.495 9 64 C8.21781106 56.46788895 7.81097569 48.99566141 7.68359375 41.42578125 C7.66281265 40.37593552 7.64203156 39.32608978 7.62062073 38.24443054 C7.55592029 34.93384511 7.49661514 31.62318939 7.4375 28.3125 C7.39423891 26.05012332 7.35062238 23.78775341 7.30664062 21.52539062 C7.2003221 16.01699855 7.09841742 10.50853861 7 5 C5.56570999 4.32645501 4.12742943 3.66140299 2.6875 3 C1.88699219 2.62875 1.08648437 2.2575 0.26171875 1.875 C-2.06213959 0.81959333 -2.06213959 0.81959333 -5 1 C-5.72675821 4.91517937 -6.1260232 8.61939499 -6.12939453 12.59960938 C-6.13412277 14.21289124 -6.13412277 14.21289124 -6.13894653 15.85876465 C-6.1369223 17.00880981 -6.13489807 18.15885498 -6.1328125 19.34375 C-6.13424759 21.1456781 -6.13424759 21.1456781 -6.13571167 22.98400879 C-6.13639138 25.52579806 -6.13455166 28.06758908 -6.13037109 30.609375 C-6.12505747 34.45837417 -6.13030376 38.30725463 -6.13671875 42.15625 C-6.1360572 44.63541692 -6.13477445 47.11458377 -6.1328125 49.59375 C-6.13584885 51.29452698 -6.13584885 51.29452698 -6.13894653 53.02966309 C-6.31831969 71.52113962 -6.31831969 71.52113962 -1 89 C-3.97 88.34 -6.94 87.68 -10 87 C-10.10316672 80.61512655 -10.0516015 74.28470105 -9.64826965 67.91116333 C-8.90003432 55.96134509 -8.81383611 44.02186702 -8.81469727 32.05175781 C-8.81247195 28.58126219 -8.79412478 25.11106635 -8.77539062 21.640625 C-8.77246256 19.4192719 -8.77047385 17.19791733 -8.76953125 14.9765625 C-8.75875298 13.43133408 -8.75875298 13.43133408 -8.74775696 11.85488892 C-8.7523719 10.41585709 -8.7523719 10.41585709 -8.75708008 8.94775391 C-8.75565506 8.11015533 -8.75423004 7.27255676 -8.75276184 6.40957642 C-9.04105895 3.59984056 -9.70314476 1.50821587 -11 -1 C-13.91240747 -2.08515876 -13.91240747 -2.08515876 -17.3125 -2.375 C-18.44300781 -2.52710937 -19.57351562 -2.67921875 -20.73828125 -2.8359375 C-23.80041512 -2.989961 -26.09399024 -2.9566687 -29 -2 C-29.66 -1.01 -30.32 -0.02 -31 1 C-31.495 -0.98 -31.495 -0.98 -32 -3 C-35.18470342 -3 -38.05023907 -2.53974382 -41.1875 -2 Z " fill="#FDE6DF" transform="translate(190,81)"/>
<path d="M0 0 C79.00911282 -0.04033135 79.00911282 -0.04033135 111.92382812 -0.04882812 C119.45841474 -0.05078614 126.99300133 -0.05280666 134.52758789 -0.05493164 C135.47198866 -0.05519539 136.41638943 -0.05545914 137.38940841 -0.05573088 C152.65679117 -0.06008592 167.92417019 -0.06797288 183.19155072 -0.0771528 C198.84787712 -0.0864884 214.50420156 -0.09205541 230.16053063 -0.09408849 C239.8294075 -0.09546392 249.49827379 -0.09981554 259.16714741 -0.10791647 C265.78809374 -0.11318278 272.40903457 -0.11480456 279.02998286 -0.11350138 C282.85584243 -0.11285782 286.68168344 -0.11387753 290.50753975 -0.11920547 C294.64541462 -0.1249262 298.78324943 -0.12300124 302.92112732 -0.12025452 C304.75523113 -0.12462378 304.75523113 -0.12462378 306.62638754 -0.12908131 C307.72564819 -0.12709026 308.82490885 -0.12509921 309.95748043 -0.12304783 C310.91399594 -0.12342755 311.87051145 -0.12380727 312.85601228 -0.1241985 C315 -0 315 -0 316 1 C316.09714351 2.63682647 316.12371573 4.27787414 316.12304783 5.9175806 C316.1250387 6.98931208 316.12702957 8.06104355 316.12908077 9.16525173 C316.12616811 10.35652204 316.12325544 11.54779234 316.12025452 12.77516174 C316.12111053 14.02662491 316.12196655 15.27808807 316.12284851 16.56747437 C316.12510319 20.06405864 316.1210622 23.56061258 316.11607273 27.057193 C316.1117248 30.87708446 316.1131661 34.69697438 316.11389065 38.51686764 C316.11442364 45.94139751 316.10979342 53.36591536 316.10338932 60.79044214 C316.09620683 69.37327611 316.09539553 77.95610279 316.09460449 86.53894043 C316.08934797 109.2134622 316.07538694 131.88798128 316.0625 154.5625 C316.041875 205.196875 316.02125 255.83125 316 308 C211.72 308 107.44 308 0 308 C0 206.36 0 104.72 0 0 Z M2 3 C2 102.99 2 202.98 2 306 C104.63 306 207.26 306 313 306 C313 206.01 313 106.02 313 3 C210.37 3 107.74 3 2 3 Z " fill="#391D18" transform="translate(3,4)"/>
<path d="M0 0 C0 91.41 0 182.82 0 277 C-9.9031563 268.51158031 -9.9031563 268.51158031 -10.3829515 265.97704494 C-10.38669099 265.19628223 -10.39043048 264.41551952 -10.39428329 263.61109734 C-10.40580673 262.70847503 -10.41733016 261.80585272 -10.4292028 260.87587821 C-10.42660335 259.88300021 -10.4240039 258.8901222 -10.42132568 257.86715698 C-10.43469573 256.28637712 -10.43469573 256.28637712 -10.44833589 254.6736623 C-10.47445468 251.12465527 -10.47892633 247.57595113 -10.48339844 244.02685547 C-10.49727911 241.4893173 -10.51235257 238.95178541 -10.52853394 236.41426086 C-10.56795378 229.50702745 -10.58736044 222.59989413 -10.60056591 215.69256735 C-10.60885369 211.37859203 -10.62156603 207.06463689 -10.63507843 202.7506752 C-10.67166164 190.80436151 -10.70255597 178.85806398 -10.7127037 166.91169548 C-10.7133624 166.14695359 -10.7140211 165.3822117 -10.71469976 164.59429581 C-10.71568201 163.44444366 -10.71568201 163.44444366 -10.7166841 162.27136219 C-10.7180145 160.71801749 -10.71935419 159.1646728 -10.72070312 157.61132812 C-10.72136741 156.8408162 -10.7220317 156.07030427 -10.72271612 155.2764435 C-10.73455335 142.79884179 -10.78689152 130.32176644 -10.85678169 117.84436797 C-10.92797353 105.03099796 -10.96531167 92.21789179 -10.96880746 79.40432084 C-10.97155539 72.21112869 -10.98874979 65.01862183 -11.0432663 57.82561874 C-11.09438547 51.05699774 -11.099191 44.28989728 -11.07284927 37.52106285 C-11.07053644 35.03824191 -11.08359 32.55535138 -11.11322403 30.07270622 C-11.35046213 8.95723354 -11.35046213 8.95723354 -5.4956665 2.95315552 C-1.56739364 0 -1.56739364 0 0 0 Z " fill="#F9D4CF" transform="translate(308,20)"/>
<path d="M0 0 C4.28372628 2.14186314 7.35958819 3.96412667 10 8 C10.86711061 11.48836149 10.82350611 14.87485787 10.78208923 18.4556427 C10.79356587 19.50797567 10.80504252 20.56030863 10.81686693 21.64453048 C10.84782419 25.17078557 10.83588882 28.69557214 10.82397461 32.22192383 C10.83701618 34.75005958 10.8525657 37.27818346 10.87043762 39.80628967 C10.90646684 45.96086616 10.91406176 52.1149013 10.90703683 58.26956276 C10.90168435 63.27367778 10.90694243 68.27767373 10.91971016 73.28177452 C10.92149573 73.99440628 10.92328129 74.70703803 10.92512097 75.44126469 C10.9287563 76.88906992 10.9323987 78.33687513 10.9360481 79.78468033 C10.96866967 93.35933236 10.96219014 106.93376076 10.94389356 120.50842538 C10.92839138 132.91797686 10.96213773 145.32682148 11.01918822 157.73623315 C11.07735483 170.48646337 11.10208578 183.23635939 11.09081846 195.98672312 C11.08508623 203.14180966 11.0925052 210.29629484 11.13496208 217.45127296 C11.17449469 224.18144374 11.16688404 230.90997311 11.12772942 237.64021873 C11.12062933 240.10849866 11.12884696 242.57687792 11.15359879 245.04504395 C11.34887841 266.03314561 11.34887841 266.03314561 5.49269104 272.03813171 C1.56298487 275 1.56298487 275 0 275 C0 184.25 0 93.5 0 0 Z " fill="#F9D4CF" transform="translate(14,21)"/>
<path d="M0 0 C95.7 0 191.4 0 290 0 C282.32125014 8.95854151 282.32125014 8.95854151 280.00391233 9.25760233 C279.17666139 9.26117947 278.34941045 9.26475662 277.49709129 9.26844215 C276.5435924 9.27735784 275.59009351 9.28627353 274.60770071 9.29545939 C273.55286351 9.29509066 272.49802632 9.29472194 271.41122437 9.29434204 C269.73878786 9.30537211 269.73878786 9.30537211 268.03256476 9.316625 C264.27087778 9.33877168 260.50930113 9.34639861 256.74755859 9.35400391 C254.0607639 9.36652779 251.37398118 9.37979473 248.68719482 9.39382935 C240.60488747 9.43338324 232.522575 9.45349543 224.44019502 9.47128493 C220.63475462 9.48004828 216.82931981 9.49078267 213.02388382 9.50126266 C200.37418206 9.53529267 187.72448379 9.56427996 175.07474327 9.57876015 C171.79087698 9.58258 168.50701072 9.58642065 165.22314453 9.59033203 C164.40694557 9.59129951 163.59074661 9.59226699 162.74981435 9.59326379 C149.53112596 9.60986047 136.3127998 9.6605247 123.09426956 9.72549339 C109.5249714 9.79164248 95.95585725 9.82765848 82.386397 9.83404863 C74.76683394 9.83837863 67.14779875 9.85587045 59.52839279 9.90697098 C53.03824008 9.95039703 46.54874334 9.96648128 40.05846183 9.94703741 C36.74758375 9.93794929 33.43834078 9.94608927 30.12759018 9.9805603 C26.53414213 10.01588157 22.94412634 10.00185125 19.35067749 9.97549438 C17.7884982 10.00840212 17.7884982 10.00840212 16.19475973 10.04197466 C10.4199837 9.93971398 7.48144983 9.10922729 3.29058266 5.0015316 C0 1.28930049 0 1.28930049 0 0 Z " fill="#F5CFCB" transform="translate(16,19)"/>
<path d="M0 0 C1.4240982 -0.01337353 1.4240982 -0.01337353 2.87696606 -0.02701724 C3.92723018 -0.02664851 4.97749431 -0.02627979 6.05958462 -0.02589989 C7.72483745 -0.03692995 7.72483745 -0.03692995 9.42373174 -0.04818285 C13.16926529 -0.07032945 16.91468802 -0.07795646 20.66027737 -0.08556175 C23.33559747 -0.09808572 26.01090557 -0.11135271 28.68621731 -0.12538719 C36.73441761 -0.16494249 44.78262305 -0.18505422 52.83089629 -0.20284277 C56.62076675 -0.21160659 60.4106316 -0.22234092 64.20049763 -0.23282051 C76.79958498 -0.26685194 89.39866883 -0.29583828 101.9977951 -0.31031799 C105.26859002 -0.31413782 108.5393849 -0.31797847 111.81017971 -0.32188988 C113.02959876 -0.3233411 113.02959876 -0.3233411 114.27365255 -0.32482164 C127.43670071 -0.34141473 140.59938491 -0.39207223 153.76227421 -0.45705123 C167.27620661 -0.52321901 180.7899542 -0.55921808 194.30404943 -0.56560647 C201.89178737 -0.56993493 209.47899503 -0.5874039 217.06657505 -0.63852882 C223.53034952 -0.68198055 229.99346503 -0.69802658 236.45736898 -0.67859526 C239.75419622 -0.66951433 243.04938302 -0.67761564 246.34608173 -0.71211815 C249.92604413 -0.74748651 253.50256938 -0.73338582 257.08253384 -0.70705223 C258.11718291 -0.72899072 259.15183198 -0.75092921 260.21783406 -0.77353251 C267.38071424 -0.64649543 270.86600242 1.44217134 275.94869226 6.45508063 C277.51550198 8.26844215 277.51550198 8.26844215 277.51550198 9.26844215 C181.81550198 9.26844215 86.11550198 9.26844215 -12.48449802 9.26844215 C-4.5570828 0.01979106 -4.5570828 0.01979106 0 0 Z " fill="#FAD6D1" transform="translate(28.484498023986816,288.73155784606934)"/>
<path d="M0 0 C12.75 -0.125 12.75 -0.125 15 1 C17.34797783 8.26133886 17.59572543 16.25430702 18.125 23.8125 C18.20991699 24.98143799 18.29483398 26.15037598 18.38232422 27.35473633 C19.09597058 37.91368714 19.20406093 48.42284165 19 59 C14.12378844 60.48686403 10.11221339 61.20866177 5 61 C4.67 59.02 4.34 57.04 4 55 C3.525625 56.175625 3.05125 57.35125 2.5625 58.5625 C1.23046875 60.48828125 1.23046875 60.48828125 -1 62 C-3.90205059 62.49067014 -6.69362329 62.41120584 -9.625 62.25 C-10.77246704 62.20081421 -10.77246704 62.20081421 -11.94311523 62.15063477 C-15.60588419 61.8249032 -17.53402083 61.55282498 -19.94921875 58.6875 C-24.34497386 47.44482521 -25.07601194 32.38876179 -20.9140625 20.953125 C-19.15084095 17.18555758 -17.29794717 14.79318994 -13.75 12.625 C-9.78440711 11.72372889 -6.9994359 12.1614086 -3 13 C-2.01 13.99 -1.02 14.98 0 16 C0 10.72 0 5.44 0 0 Z " fill="#FEF8F0" transform="translate(163,180)"/>
<path d="M0 0 C0.99 0.495 0.99 0.495 2 1 C2 91.42 2 181.84 2 275 C9.93666943 267.94092514 9.93666943 267.94092514 11.05882359 259.24085903 C11.0394118 258.26418805 11.02000002 257.28751707 11 256.28125 C11.01091895 255.22494164 11.0218379 254.16863329 11.03308773 253.08031559 C11.05990593 249.55258339 11.02989056 246.02767291 11 242.5 C11.00760818 239.96681988 11.01872879 237.43364824 11.03309631 234.90049744 C11.05610559 229.45296819 11.05475025 224.00631811 11.03103638 218.55880737 C10.99679394 210.68294767 11.00679507 202.80762748 11.02743971 194.93174303 C11.05974277 182.1524872 11.05648704 169.37349938 11.03076172 156.59423828 C11.00585506 144.18370428 10.99776216 131.77334626 11.01220703 119.36279297 C11.01309224 118.59723689 11.01397745 117.83168082 11.01488948 117.04292607 C11.01943398 113.20218446 11.02430826 109.36144335 11.02934647 105.52070236 C11.07068768 73.68036915 11.0536809 41.8403192 11 10 C11.33 10 11.66 10 12 10 C12 94.81 12 179.62 12 267 C101.43 267 190.86 267 283 267 C283 182.19 283 97.38 283 10 C283.66 10 284.32 10 285 10 C285.00059709 10.54402157 285.00119418 11.08804314 285.00180936 11.64855021 C285.03769237 43.88166759 285.09431442 76.11467206 285.17792095 108.34769909 C285.18793858 112.21674367 285.19778268 116.08578868 285.20751953 119.95483398 C285.2094609 120.72510104 285.21140228 121.4953681 285.21340248 122.28897659 C285.24443547 134.76599051 285.26140675 147.24298603 285.27319422 159.72003128 C285.28559907 172.51975845 285.31308535 185.31938895 285.35461307 198.11905509 C285.37976766 206.01909042 285.39311586 213.91896546 285.39142957 221.81904141 C285.39139634 227.87376401 285.41233165 233.92822757 285.44116783 239.98288918 C285.44970607 242.46895071 285.45139036 244.95504641 285.44580269 247.44111633 C285.43920053 250.82912192 285.45699382 254.21614325 285.48101807 257.60404968 C285.47325765 258.59335014 285.46549723 259.58265059 285.45750165 260.60192984 C285.513363 265.03601677 285.57750935 267.34524956 288.03243637 271.14974689 C288.68173237 271.76033042 289.33102837 272.37091394 290 273 C289.01 273 288.02 273 287 273 C286.53827086 272.51301687 286.07654171 272.02603374 285.60082078 271.52429354 C283.47238277 269.49760551 282.29282478 269.62066354 279.38686752 269.61130333 C278.43424428 269.60101329 277.48162103 269.59072325 276.50013041 269.5801214 C275.45141489 269.58408508 274.40269937 269.58804877 273.32220459 269.59213257 C272.20977048 269.58463033 271.09733637 269.5771281 269.95119214 269.56939852 C266.20403011 269.54797725 262.45717979 269.54818236 258.70996094 269.54833984 C256.0312421 269.53773211 253.35254929 269.52598096 250.67384338 269.51293945 C243.38245822 269.48079517 236.09114371 269.47100329 228.79969692 269.46529722 C224.24720505 269.46154818 219.6947321 269.45274219 215.14225006 269.44279861 C202.53882149 269.41585458 189.93541124 269.39334886 177.33195114 269.39092064 C176.52515957 269.39076507 175.71836799 269.39060949 174.88712819 269.3904492 C173.25154098 269.39015815 171.61595377 269.38987278 169.98036656 269.38959305 C169.16845204 269.38945019 168.35653752 269.38930734 167.52001953 269.38916016 C166.70711438 269.38902049 165.89420922 269.38888082 165.05667058 269.38873692 C151.88589676 269.38560194 138.71545188 269.34901795 125.54478666 269.2975239 C112.02404009 269.24508241 98.50345594 269.21880765 84.98260522 269.21936953 C77.39054662 269.21911683 69.79886591 269.20786633 62.20690155 269.16819382 C55.74165179 269.13458134 49.27692699 269.12511134 42.81161705 269.14695077 C39.51315814 269.1573894 36.21594161 269.15276738 32.91755104 269.12518692 C29.33936972 269.09712056 25.76386866 269.11213017 22.18572998 269.13803101 C20.62604103 269.11051571 20.62604103 269.11051571 19.03484321 269.08244455 C18.07178897 269.09823198 17.10873474 269.11401942 16.11649704 269.13028526 C15.2914721 269.12925344 14.46644716 269.12822161 13.61642146 269.12715852 C9.75993196 270.19707287 9.75993196 270.19707287 4 277 C99.37 277.33 194.74 277.66 293 278 C293 278.33 293 278.66 293 279 C196.97 279 100.94 279 2 279 C2 278.34 2 277.68 2 277 C1.34 277 0.68 277 0 277 C0 185.59 0 94.18 0 0 Z " fill="#553D38" transform="translate(13,20)"/>
<path d="M0 0 C0.33 0.66 0.66 1.32 1 2 C1.66 2.33 2.32 2.66 3 3 C2.34 3 1.68 3 1 3 C1 94.41 1 185.82 1 280 C1.66 280 2.32 280 3 280 C3 280.66 3 281.32 3 282 C99.03 282 195.06 282 294 282 C292.68 280.02 291.36 278.04 290 276 C293.875 277.875 293.875 277.875 295 279 C295.00135653 278.41713154 295.00271306 277.83426307 295.00411069 277.23373193 C295.08470473 242.71274877 295.1756362 208.19180879 295.28005161 173.67088939 C295.29257096 169.52888417 295.30500366 165.38687869 295.31738281 161.24487305 C295.31984881 160.4202503 295.3223148 159.59562756 295.32485552 158.74601624 C295.36461392 145.38174383 295.3973476 132.01746292 295.42749982 118.65316578 C295.4585787 104.94720531 295.49717273 91.24128098 295.54279006 77.53536111 C295.57071574 69.07337906 295.59273102 60.61142355 295.60726251 52.14940772 C295.61777865 46.35212245 295.63557333 40.55488845 295.65916704 34.75764176 C295.67257616 31.40947121 295.68162744 28.06143678 295.68421364 24.71323013 C295.68751638 21.08831587 295.70293979 17.46365416 295.7215271 13.83879089 C295.71959237 12.77362769 295.71765763 11.70846448 295.71566427 10.6110236 C295.72312976 9.64363328 295.73059525 8.67624296 295.73828697 7.67953777 C295.74056529 6.84225444 295.74284362 6.00497112 295.74519098 5.14231557 C296 3 296 3 298 0 C298.02286515 36.03550422 298.0404976 72.07100718 298.05106533 108.10651716 C298.05231611 112.35624908 298.05361042 116.60598099 298.05493164 120.85571289 C298.05532511 122.1248354 298.05532511 122.1248354 298.05572652 123.41959674 C298.06008347 137.13765926 298.06797115 150.85571762 298.0771528 164.57377767 C298.08648865 178.63904658 298.09205546 192.70431331 298.09408849 206.76958519 C298.09546386 215.4557597 298.09981521 224.14192242 298.10791647 232.8280933 C298.11318308 238.7762467 298.11480449 244.72439397 298.11350138 250.67254954 C298.11285786 254.10955877 298.11387699 257.54654733 298.11920547 260.98355293 C298.12413508 264.70104251 298.12300101 268.41848045 298.12025452 272.13597107 C298.12462378 273.78330936 298.12462378 273.78330936 298.12908131 275.46392721 C298.12709026 276.45171921 298.12509921 277.4395112 298.12304783 278.45723629 C298.12342755 279.3165434 298.12380727 280.1758505 298.1241985 281.06119722 C298 283 298 283 297 284 C295.41530178 284.09702254 293.82625849 284.12371632 292.2385931 284.12304783 C290.6837538 284.1260344 290.6837538 284.1260344 289.0975036 284.12908131 C287.9448048 284.12616847 286.792106 284.12325563 285.60447693 284.12025452 C284.39080745 284.12110894 283.17713798 284.12196337 281.92669064 284.12284368 C278.54266124 284.12421191 275.15868896 284.1210643 271.77466643 284.11606562 C268.13115984 284.11176454 264.48765514 284.1132073 260.84414673 284.1139679 C254.52645381 284.11449335 248.20877119 284.11134433 241.89108086 284.10573006 C232.75665657 284.09761794 223.62223728 284.09500013 214.48780978 284.09374207 C199.6693606 284.09155109 184.85091691 284.08488978 170.0324707 284.07543945 C155.63403348 284.06626651 141.23559775 284.05919656 126.8371582 284.05493164 C125.4932626 284.05452964 125.4932626 284.05452964 124.1222176 284.05411953 C117.11590468 284.05204022 110.10959172 284.05008325 103.10327876 284.04816496 C68.73551413 284.03872389 34.36776325 284.01860734 0 284 C0 190.28 0 96.56 0 0 Z " fill="#592E2A" transform="translate(12,17)"/>
<path d="M0 0 C0.99 0.495 0.99 0.495 2 1 C2 91.42 2 181.84 2 275 C5.96 271.04 5.96 271.04 10 267 C10.495 268.485 10.495 268.485 11 270 C8.69 272.31 6.38 274.62 4 277 C99.37 277.33 194.74 277.66 293 278 C293 278.33 293 278.66 293 279 C196.97 279 100.94 279 2 279 C2 278.34 2 277.68 2 277 C1.34 277 0.68 277 0 277 C0 185.59 0 94.18 0 0 Z " fill="#937570" transform="translate(13,20)"/>
<path d="M0 0 C0.99 0.33 1.98 0.66 3 1 C4.28802244 9.83360274 4.111369 18.66004345 4.0625 27.5625 C4.05747543 29.15950381 4.05291421 30.75650914 4.04882812 32.35351562 C4.03789728 36.23571533 4.02068533 40.11784051 4 44 C1 45 1 45 -1.65039062 43.88745117 C-4 42 -4 42 -4.61523438 39.6184082 C-4.60814453 38.68859131 -4.60105469 37.75877441 -4.59375 36.80078125 C-4.59318604 35.76308594 -4.59262207 34.72539062 -4.59204102 33.65625 C-4.56166748 32.5528125 -4.53129395 31.449375 -4.5 30.3125 C-4.48445068 29.19230469 -4.46890137 28.07210937 -4.45288086 26.91796875 C-3.89890188 3.89890188 -3.89890188 3.89890188 0 0 Z " fill="#FDE5DE" transform="translate(162,115)"/>
<path d="M0 0 C0.66 0 1.32 0 2 0 C4.60018816 3.90028225 4.15085514 7.47434569 4 12 C3.01 12.495 3.01 12.495 2 13 C0.21590198 9.93753253 -0.22880021 7.77920727 -0.125 4.25 C-0.10695313 3.45078125 -0.08890625 2.6515625 -0.0703125 1.828125 C-0.04710938 1.22484375 -0.02390625 0.6215625 0 0 Z " fill="#FDE7E0" transform="translate(124,110)"/>
<path d="M0 0 C0.33 0.99 0.66 1.98 1 3 C-2 6 -5 9 -8 12 C-7.84595887 6.91664275 -4.97931568 4.64245282 -1.49609375 1.35546875 C-1.00238281 0.90816406 -0.50867188 0.46085937 0 0 Z " fill="#6A4E49" transform="translate(23,287)"/>
<path d="M0 0 C1.65 0 3.3 0 5 0 C4.1875 2.4375 4.1875 2.4375 3 5 C2.01 5.33 1.02 5.66 0 6 C0 4.02 0 2.04 0 0 Z " fill="#FDE8E1" transform="translate(134,151)"/>
<path d="M0 0 C0.99 0 1.98 0 3 0 C3 1.65 3 3.3 3 5 C1.68 5 0.36 5 -1 5 C-0.67 3.35 -0.34 1.7 0 0 Z " fill="#FDE7E0" transform="translate(153,217)"/>
</svg>
