<?xml version="1.0" encoding="UTF-8"?>
<svg version="1.1" xmlns="http://www.w3.org/2000/svg" width="640" height="640">
<path d="M0 0 C207.57 0 415.14 0 629 0 C630.15276303 2.30552605 630.12551834 3.59925105 630.12649983 6.16384554 C630.12925958 7.04364559 630.13201932 7.92344563 630.13486269 8.82990628 C630.13280737 9.80433563 630.13075205 10.77876497 630.12863445 11.78272247 C630.13038749 12.81602729 630.13214053 13.84933211 630.13394669 14.91394919 C630.13864188 18.41697036 630.13613221 21.91995065 630.13371277 25.42297363 C630.13557897 27.94352773 630.1378789 30.46408153 630.14057809 32.98463488 C630.14543875 38.48571724 630.14714719 43.986787 630.14612198 49.48787117 C630.1446012 57.66795899 630.14874955 65.84803702 630.1539966 74.02812295 C630.16368384 89.48496489 630.16648135 104.94180352 630.16705366 120.39864814 C630.16751259 132.33079388 630.16956771 144.26293831 630.17275429 156.19508362 C630.17365178 159.62537972 630.17454159 163.05567582 630.17542917 166.48597193 C630.17565021 167.33866444 630.17587126 168.19135695 630.17609901 169.06988862 C630.18225589 193.06464598 630.18619929 217.05940289 630.18575573 241.05416107 C630.18574015 241.95940622 630.18572457 242.86465137 630.18570852 243.79732819 C630.18562541 248.38586222 630.18552637 252.97439625 630.18542381 257.56293029 C630.1853939 258.92996888 630.1853939 258.92996888 630.18536337 260.32462441 C630.18532294 262.16761489 630.18528114 264.01060538 630.18523798 265.85359586 C630.18462497 294.53960934 630.19213547 323.225611 630.20581055 351.91162109 C630.22115472 384.11242471 630.22977779 416.31322057 630.22884732 448.51402807 C630.22877269 451.94432418 630.22872399 455.37462028 630.22869301 458.80491638 C630.22867553 460.07193203 630.22867553 460.07193203 630.22865769 461.36454395 C630.22862686 474.98609883 630.23502579 488.6076435 630.24362527 502.22919534 C630.25208182 515.90672354 630.25310744 529.58423672 630.24651595 543.26176608 C630.24280702 551.39754909 630.24469246 559.53328661 630.25445829 567.66906484 C630.26112045 573.72884481 630.25744163 579.78857041 630.24958507 585.84835094 C630.24803484 588.31129864 630.24992263 590.77425118 630.25544515 593.23719317 C630.26241528 596.56397136 630.25728324 599.89050808 630.24888897 603.21727753 C630.25385715 604.19170687 630.25882533 605.16613621 630.26394406 606.17009372 C630.25681784 607.48979378 630.25681784 607.48979378 630.24954766 608.83615446 C630.24963588 609.59782831 630.2497241 610.35950216 630.249815 611.14425704 C630 613 630 613 628 615 C626.10169348 615.249815 626.10169348 615.249815 623.73241132 615.24954766 C622.82942038 615.25429847 621.92642943 615.25904928 620.99607512 615.26394406 C619.99569041 615.25897588 618.99530569 615.2540077 617.96460629 615.24888897 C616.90398789 615.25149625 615.8433695 615.25410354 614.75061116 615.25678983 C611.1546406 615.26314516 607.55884102 615.25509262 603.96287537 615.24723816 C601.37561146 615.24882464 598.78834796 615.25128662 596.20108563 615.25455457 C590.55426452 615.26025528 584.90748354 615.25847231 579.26066399 615.2518692 C570.86392916 615.24207741 562.46722387 615.24367725 554.07048565 615.2476195 C539.94740476 615.25390468 525.82434053 615.25071163 511.70126152 615.24202538 C497.71119469 615.2334226 483.72113535 615.22850494 469.73106575 615.22869301 C468.86210892 615.22870065 467.9931521 615.2287083 467.09786324 615.22871618 C463.57084115 615.22875708 460.04381906 615.22882269 456.51679697 615.22892199 C423.40541337 615.22982882 390.29404118 615.21987174 357.18266154 615.20449232 C327.73806501 615.19086646 298.2934766 615.18463105 268.84887695 615.18530273 C266.95821496 615.18534315 265.06755296 615.18538351 263.17689096 615.18542381 C261.7748578 615.18545434 261.7748578 615.18545434 260.34450073 615.18548548 C255.639818 615.18558627 250.93513527 615.18567686 246.23045254 615.18575573 C244.83833763 615.1857808 244.83833763 615.1857808 243.41809919 615.18580638 C218.84420241 615.18617121 194.27030665 615.18163655 169.69641072 615.17542917 C168.82273745 615.17520889 167.94906418 615.17498862 167.04891596 615.17476168 C163.53535223 615.1738734 160.02178849 615.17298502 156.50822476 615.17207072 C144.26329307 615.16890603 132.01836217 615.16740085 119.77343009 615.16695923 C103.99762216 615.16636319 88.22182094 615.16238977 72.44601589 615.15252777 C64.09452343 615.14739764 55.74304084 615.14500842 47.39154688 615.14652396 C41.17297031 615.14734039 34.95440797 615.1429661 28.73583496 615.13647345 C26.20695758 615.13464857 23.67807832 615.13454092 21.14920085 615.13624074 C17.73596239 615.13828248 14.32278562 615.13428374 10.90955257 615.12863445 C9.90682669 615.13068977 8.90410081 615.13274509 7.87098929 615.13486269 C6.97050186 615.13210295 6.07001444 615.1293432 5.14223951 615.12649983 C4.36044416 615.12620833 3.57864881 615.12591683 2.77316269 615.1256165 C1 615 1 615 0 614 C-0.09679699 612.64910245 -0.12447428 611.29317655 -0.1241985 609.93881553 C-0.1264458 609.05649234 -0.12869311 608.17416914 -0.13100851 607.26510888 C-0.12838148 606.28262553 -0.12575446 605.30014219 -0.12304783 604.28788662 C-0.12420157 603.249691 -0.12535532 602.21149539 -0.12654402 601.1418393 C-0.1292179 597.61785429 -0.12468322 594.09391378 -0.12025452 590.56993103 C-0.12069146 588.04258717 -0.12156748 585.51524335 -0.12284851 582.98789978 C-0.12463081 577.46165198 -0.12326715 571.9354183 -0.11921513 566.40917194 C-0.11313151 558.08498111 -0.11284369 549.76079683 -0.11368043 541.43660417 C-0.11492469 527.48902986 -0.11162007 513.54146024 -0.10557556 499.59388733 C-0.09741693 480.73483105 -0.09547353 461.87578281 -0.09460449 443.01672363 C-0.08934734 397.65698146 -0.07538632 352.29724064 -0.0625 306.9375 C-0.041875 205.648125 -0.02125 104.35875 0 0 Z " fill="#FEF8F0" transform="translate(6,11)"/>
<path d="M0 0 C207.57 0 415.14 0 629 0 C630.15276303 2.30552605 630.12551834 3.59925105 630.12649983 6.16384554 C630.12925958 7.04364559 630.13201932 7.92344563 630.13486269 8.82990628 C630.13280737 9.80433563 630.13075205 10.77876497 630.12863445 11.78272247 C630.13038749 12.81602729 630.13214053 13.84933211 630.13394669 14.91394919 C630.13864188 18.41697036 630.13613221 21.91995065 630.13371277 25.42297363 C630.13557897 27.94352773 630.1378789 30.46408153 630.14057809 32.98463488 C630.14543875 38.48571724 630.14714719 43.986787 630.14612198 49.48787117 C630.1446012 57.66795899 630.14874955 65.84803702 630.1539966 74.02812295 C630.16368384 89.48496489 630.16648135 104.94180352 630.16705366 120.39864814 C630.16751259 132.33079388 630.16956771 144.26293831 630.17275429 156.19508362 C630.17365178 159.62537972 630.17454159 163.05567582 630.17542917 166.48597193 C630.17565021 167.33866444 630.17587126 168.19135695 630.17609901 169.06988862 C630.18225589 193.06464598 630.18619929 217.05940289 630.18575573 241.05416107 C630.18574015 241.95940622 630.18572457 242.86465137 630.18570852 243.79732819 C630.18562541 248.38586222 630.18552637 252.97439625 630.18542381 257.56293029 C630.1853939 258.92996888 630.1853939 258.92996888 630.18536337 260.32462441 C630.18532294 262.16761489 630.18528114 264.01060538 630.18523798 265.85359586 C630.18462497 294.53960934 630.19213547 323.225611 630.20581055 351.91162109 C630.22115472 384.11242471 630.22977779 416.31322057 630.22884732 448.51402807 C630.22877269 451.94432418 630.22872399 455.37462028 630.22869301 458.80491638 C630.22867553 460.07193203 630.22867553 460.07193203 630.22865769 461.36454395 C630.22862686 474.98609883 630.23502579 488.6076435 630.24362527 502.22919534 C630.25208182 515.90672354 630.25310744 529.58423672 630.24651595 543.26176608 C630.24280702 551.39754909 630.24469246 559.53328661 630.25445829 567.66906484 C630.26112045 573.72884481 630.25744163 579.78857041 630.24958507 585.84835094 C630.24803484 588.31129864 630.24992263 590.77425118 630.25544515 593.23719317 C630.26241528 596.56397136 630.25728324 599.89050808 630.24888897 603.21727753 C630.25385715 604.19170687 630.25882533 605.16613621 630.26394406 606.17009372 C630.25681784 607.48979378 630.25681784 607.48979378 630.24954766 608.83615446 C630.24963588 609.59782831 630.2497241 610.35950216 630.249815 611.14425704 C630 613 630 613 628 615 C626.10169348 615.249815 626.10169348 615.249815 623.73241132 615.24954766 C622.82942038 615.25429847 621.92642943 615.25904928 620.99607512 615.26394406 C619.99569041 615.25897588 618.99530569 615.2540077 617.96460629 615.24888897 C616.90398789 615.25149625 615.8433695 615.25410354 614.75061116 615.25678983 C611.1546406 615.26314516 607.55884102 615.25509262 603.96287537 615.24723816 C601.37561146 615.24882464 598.78834796 615.25128662 596.20108563 615.25455457 C590.55426452 615.26025528 584.90748354 615.25847231 579.26066399 615.2518692 C570.86392916 615.24207741 562.46722387 615.24367725 554.07048565 615.2476195 C539.94740476 615.25390468 525.82434053 615.25071163 511.70126152 615.24202538 C497.71119469 615.2334226 483.72113535 615.22850494 469.73106575 615.22869301 C468.86210892 615.22870065 467.9931521 615.2287083 467.09786324 615.22871618 C463.57084115 615.22875708 460.04381906 615.22882269 456.51679697 615.22892199 C423.40541337 615.22982882 390.29404118 615.21987174 357.18266154 615.20449232 C327.73806501 615.19086646 298.2934766 615.18463105 268.84887695 615.18530273 C266.95821496 615.18534315 265.06755296 615.18538351 263.17689096 615.18542381 C261.7748578 615.18545434 261.7748578 615.18545434 260.34450073 615.18548548 C255.639818 615.18558627 250.93513527 615.18567686 246.23045254 615.18575573 C244.83833763 615.1857808 244.83833763 615.1857808 243.41809919 615.18580638 C218.84420241 615.18617121 194.27030665 615.18163655 169.69641072 615.17542917 C168.82273745 615.17520889 167.94906418 615.17498862 167.04891596 615.17476168 C163.53535223 615.1738734 160.02178849 615.17298502 156.50822476 615.17207072 C144.26329307 615.16890603 132.01836217 615.16740085 119.77343009 615.16695923 C103.99762216 615.16636319 88.22182094 615.16238977 72.44601589 615.15252777 C64.09452343 615.14739764 55.74304084 615.14500842 47.39154688 615.14652396 C41.17297031 615.14734039 34.95440797 615.1429661 28.73583496 615.13647345 C26.20695758 615.13464857 23.67807832 615.13454092 21.14920085 615.13624074 C17.73596239 615.13828248 14.32278562 615.13428374 10.90955257 615.12863445 C9.90682669 615.13068977 8.90410081 615.13274509 7.87098929 615.13486269 C6.97050186 615.13210295 6.07001444 615.1293432 5.14223951 615.12649983 C4.36044416 615.12620833 3.57864881 615.12591683 2.77316269 615.1256165 C1 615 1 615 0 614 C-0.09679699 612.64910245 -0.12447428 611.29317655 -0.1241985 609.93881553 C-0.1264458 609.05649234 -0.12869311 608.17416914 -0.13100851 607.26510888 C-0.12838148 606.28262553 -0.12575446 605.30014219 -0.12304783 604.28788662 C-0.12420157 603.249691 -0.12535532 602.21149539 -0.12654402 601.1418393 C-0.1292179 597.61785429 -0.12468322 594.09391378 -0.12025452 590.56993103 C-0.12069146 588.04258717 -0.12156748 585.51524335 -0.12284851 582.98789978 C-0.12463081 577.46165198 -0.12326715 571.9354183 -0.11921513 566.40917194 C-0.11313151 558.08498111 -0.11284369 549.76079683 -0.11368043 541.43660417 C-0.11492469 527.48902986 -0.11162007 513.54146024 -0.10557556 499.59388733 C-0.09741693 480.73483105 -0.09547353 461.87578281 -0.09460449 443.01672363 C-0.08934734 397.65698146 -0.07538632 352.29724064 -0.0625 306.9375 C-0.041875 205.648125 -0.02125 104.35875 0 0 Z M43 51 C43 220.62 43 390.24 43 565 C221.86 565 400.72 565 585 565 C585 395.38 585 225.76 585 51 C406.14 51 227.28 51 43 51 Z " fill="#482D28" transform="translate(6,11)"/>
<path d="M0 0 C207.57 0 415.14 0 629 0 C630.15276303 2.30552605 630.12551834 3.59925105 630.12649983 6.16384554 C630.12925958 7.04364559 630.13201932 7.92344563 630.13486269 8.82990628 C630.13280737 9.80433563 630.13075205 10.77876497 630.12863445 11.78272247 C630.13038749 12.81602729 630.13214053 13.84933211 630.13394669 14.91394919 C630.13864188 18.41697036 630.13613221 21.91995065 630.13371277 25.42297363 C630.13557897 27.94352773 630.1378789 30.46408153 630.14057809 32.98463488 C630.14543875 38.48571724 630.14714719 43.986787 630.14612198 49.48787117 C630.1446012 57.66795899 630.14874955 65.84803702 630.1539966 74.02812295 C630.16368384 89.48496489 630.16648135 104.94180352 630.16705366 120.39864814 C630.16751259 132.33079388 630.16956771 144.26293831 630.17275429 156.19508362 C630.17365178 159.62537972 630.17454159 163.05567582 630.17542917 166.48597193 C630.17565021 167.33866444 630.17587126 168.19135695 630.17609901 169.06988862 C630.18225589 193.06464598 630.18619929 217.05940289 630.18575573 241.05416107 C630.18574015 241.95940622 630.18572457 242.86465137 630.18570852 243.79732819 C630.18562541 248.38586222 630.18552637 252.97439625 630.18542381 257.56293029 C630.1853939 258.92996888 630.1853939 258.92996888 630.18536337 260.32462441 C630.18532294 262.16761489 630.18528114 264.01060538 630.18523798 265.85359586 C630.18462497 294.53960934 630.19213547 323.225611 630.20581055 351.91162109 C630.22115472 384.11242471 630.22977779 416.31322057 630.22884732 448.51402807 C630.22877269 451.94432418 630.22872399 455.37462028 630.22869301 458.80491638 C630.22867553 460.07193203 630.22867553 460.07193203 630.22865769 461.36454395 C630.22862686 474.98609883 630.23502579 488.6076435 630.24362527 502.22919534 C630.25208182 515.90672354 630.25310744 529.58423672 630.24651595 543.26176608 C630.24280702 551.39754909 630.24469246 559.53328661 630.25445829 567.66906484 C630.26112045 573.72884481 630.25744163 579.78857041 630.24958507 585.84835094 C630.24803484 588.31129864 630.24992263 590.77425118 630.25544515 593.23719317 C630.26241528 596.56397136 630.25728324 599.89050808 630.24888897 603.21727753 C630.25385715 604.19170687 630.25882533 605.16613621 630.26394406 606.17009372 C630.25681784 607.48979378 630.25681784 607.48979378 630.24954766 608.83615446 C630.24963588 609.59782831 630.2497241 610.35950216 630.249815 611.14425704 C630 613 630 613 628 615 C626.10169348 615.249815 626.10169348 615.249815 623.73241132 615.24954766 C622.82942038 615.25429847 621.92642943 615.25904928 620.99607512 615.26394406 C619.99569041 615.25897588 618.99530569 615.2540077 617.96460629 615.24888897 C616.90398789 615.25149625 615.8433695 615.25410354 614.75061116 615.25678983 C611.1546406 615.26314516 607.55884102 615.25509262 603.96287537 615.24723816 C601.37561146 615.24882464 598.78834796 615.25128662 596.20108563 615.25455457 C590.55426452 615.26025528 584.90748354 615.25847231 579.26066399 615.2518692 C570.86392916 615.24207741 562.46722387 615.24367725 554.07048565 615.2476195 C539.94740476 615.25390468 525.82434053 615.25071163 511.70126152 615.24202538 C497.71119469 615.2334226 483.72113535 615.22850494 469.73106575 615.22869301 C468.86210892 615.22870065 467.9931521 615.2287083 467.09786324 615.22871618 C463.57084115 615.22875708 460.04381906 615.22882269 456.51679697 615.22892199 C423.40541337 615.22982882 390.29404118 615.21987174 357.18266154 615.20449232 C327.73806501 615.19086646 298.2934766 615.18463105 268.84887695 615.18530273 C266.95821496 615.18534315 265.06755296 615.18538351 263.17689096 615.18542381 C261.7748578 615.18545434 261.7748578 615.18545434 260.34450073 615.18548548 C255.639818 615.18558627 250.93513527 615.18567686 246.23045254 615.18575573 C244.83833763 615.1857808 244.83833763 615.1857808 243.41809919 615.18580638 C218.84420241 615.18617121 194.27030665 615.18163655 169.69641072 615.17542917 C168.82273745 615.17520889 167.94906418 615.17498862 167.04891596 615.17476168 C163.53535223 615.1738734 160.02178849 615.17298502 156.50822476 615.17207072 C144.26329307 615.16890603 132.01836217 615.16740085 119.77343009 615.16695923 C103.99762216 615.16636319 88.22182094 615.16238977 72.44601589 615.15252777 C64.09452343 615.14739764 55.74304084 615.14500842 47.39154688 615.14652396 C41.17297031 615.14734039 34.95440797 615.1429661 28.73583496 615.13647345 C26.20695758 615.13464857 23.67807832 615.13454092 21.14920085 615.13624074 C17.73596239 615.13828248 14.32278562 615.13428374 10.90955257 615.12863445 C9.90682669 615.13068977 8.90410081 615.13274509 7.87098929 615.13486269 C6.97050186 615.13210295 6.07001444 615.1293432 5.14223951 615.12649983 C4.36044416 615.12620833 3.57864881 615.12591683 2.77316269 615.1256165 C1 615 1 615 0 614 C-0.09679699 612.64910245 -0.12447428 611.29317655 -0.1241985 609.93881553 C-0.1264458 609.05649234 -0.12869311 608.17416914 -0.13100851 607.26510888 C-0.12838148 606.28262553 -0.12575446 605.30014219 -0.12304783 604.28788662 C-0.12420157 603.249691 -0.12535532 602.21149539 -0.12654402 601.1418393 C-0.1292179 597.61785429 -0.12468322 594.09391378 -0.12025452 590.56993103 C-0.12069146 588.04258717 -0.12156748 585.51524335 -0.12284851 582.98789978 C-0.12463081 577.46165198 -0.12326715 571.9354183 -0.11921513 566.40917194 C-0.11313151 558.08498111 -0.11284369 549.76079683 -0.11368043 541.43660417 C-0.11492469 527.48902986 -0.11162007 513.54146024 -0.10557556 499.59388733 C-0.09741693 480.73483105 -0.09547353 461.87578281 -0.09460449 443.01672363 C-0.08934734 397.65698146 -0.07538632 352.29724064 -0.0625 306.9375 C-0.041875 205.648125 -0.02125 104.35875 0 0 Z M17 24 C16.90089381 27.00020829 16.86826179 29.97742667 16.87695217 32.97809696 C16.87579843 33.93690989 16.87464468 34.89572283 16.87345598 35.88359069 C16.8707824 39.13766641 16.87531654 42.39169394 16.87974548 45.64576721 C16.87930854 47.9797161 16.8784325 50.31366495 16.87715149 52.64761353 C16.87513344 58.42600244 16.87781479 64.20437631 16.88238819 69.98276346 C16.88766748 76.99436652 16.88708279 84.00596614 16.88631957 91.01757071 C16.88507534 103.89729035 16.88837981 116.7770049 16.89442444 129.65672302 C16.90258323 147.0718911 16.90452648 164.48705046 16.90539551 181.90222168 C16.91065261 223.78898216 16.92461363 265.67574118 16.9375 307.5625 C16.958125 401.096875 16.97875 494.63125 17 591 C213.35 591 409.7 591 612 591 C612.020625 497.465625 612.04125 403.93125 612.0625 307.5625 C612.07615601 263.17407593 612.07615601 263.17407593 612.09008789 217.88891602 C612.09343121 191.48650366 612.09343121 191.48650366 612.09544373 165.08409119 C612.09644155 152.49519969 612.10076529 139.90631351 612.10667343 127.3174235 C612.11260961 114.49636421 612.11484053 101.6753083 612.11344495 88.85424769 C612.11278755 81.88849726 612.11370198 74.92275606 612.11921513 67.95700753 C612.12403932 61.67117844 612.12435116 55.38536674 612.12090111 49.0995369 C612.12047338 46.8148234 612.12177298 44.53010887 612.12488258 42.24539745 C612.12884338 39.1562755 612.12676498 36.06721773 612.12304783 32.97809696 C612.12698837 31.61748315 612.12698837 31.61748315 612.13100851 30.22938219 C612.51231132 26.30032789 612.51231132 26.30032789 611 23 C607.86572008 22.89991307 604.75340668 22.86642109 601.61864471 22.87415886 C600.61658487 22.87270542 599.61452503 22.87125198 598.58209974 22.86975449 C595.1793522 22.86606629 591.77664867 22.86959387 588.37390137 22.87301636 C585.92774415 22.87186565 583.48158711 22.87027847 581.03543043 22.86828911 C575.69382682 22.86496866 570.35223654 22.86479472 565.01063347 22.86733627 C557.06772781 22.87110534 549.12483073 22.86919203 541.18192513 22.86612797 C526.99920699 22.86085086 512.81649334 22.86132313 498.63377477 22.86420688 C486.22255977 22.86671818 473.81134643 22.86738113 461.40013123 22.86618423 C460.57824145 22.86610785 459.75635167 22.86603146 458.90955615 22.86595276 C455.57359895 22.86564145 452.23764175 22.86532305 448.90168455 22.864993 C417.58033028 22.86193104 386.25897887 22.86471216 354.93762504 22.8700899 C327.08422896 22.87483583 299.23083745 22.87441122 271.37744141 22.86962891 C240.11494708 22.86427927 208.85245529 22.86214815 177.58996058 22.86524117 C174.25992998 22.86556191 170.92989938 22.86587475 167.59986877 22.86618423 C166.77987446 22.86626331 165.95988015 22.86634239 165.11503753 22.86642386 C152.70880667 22.8675634 140.30257765 22.86622722 127.89634705 22.86370468 C113.79599674 22.86085205 99.69565164 22.86154606 85.59530199 22.86698543 C77.69483594 22.86993222 69.79438116 22.87009832 61.89391539 22.86633925 C56.01104553 22.86384784 50.12818575 22.86652953 44.24531704 22.87131383 C41.85301674 22.8724392 39.46071494 22.87184421 37.06841558 22.86943804 C33.83937324 22.86643716 30.61039421 22.86947529 27.38135529 22.87415886 C25.95865931 22.87064711 25.95865931 22.87064711 24.507222 22.86706442 C20.43099597 22.46355103 20.43099597 22.46355103 17 24 Z " fill="#EE7573" transform="translate(6,11)"/>
<path d="M0 0 C1.21601898 -0.00855011 1.21601898 -0.00855011 2.456604 -0.01727295 C4.17108883 -0.02668033 5.88559139 -0.03323989 7.60009766 -0.03710938 C10.15431872 -0.0466919 12.70769023 -0.07770326 15.26171875 -0.109375 C30.65922036 -0.20942042 45.61068044 1.70140252 60.453125 5.890625 C61.36553955 6.14553711 62.2779541 6.40044922 63.21801758 6.66308594 C72.64761738 9.39905094 81.58834241 13.0009878 90.453125 17.203125 C91.6302002 17.7597583 91.6302002 17.7597583 92.83105469 18.32763672 C110.28874048 26.72910353 125.61520994 37.66956291 139.453125 51.203125 C140.74089844 52.41548828 140.74089844 52.41548828 142.0546875 53.65234375 C168.70061939 79.26708633 186.83688388 117.5534747 188.61425781 154.55786133 C188.66038095 158.3772323 188.69979425 162.19598775 188.703125 166.015625 C188.70379974 166.70942261 188.70447449 167.40322021 188.70516968 168.11804199 C188.68826172 179.07123867 188.05137705 189.5333944 185.453125 200.203125 C185.16381104 201.4089624 185.16381104 201.4089624 184.86865234 202.63916016 C182.75833431 211.2906365 180.34656185 219.78009168 177.453125 228.203125 C176.793125 228.203125 176.133125 228.203125 175.453125 228.203125 C175.33839844 228.91855469 175.22367187 229.63398438 175.10546875 230.37109375 C171.37360153 246.57231371 158.29015476 262.05353574 147.453125 274.203125 C146.84984375 274.92757813 146.2465625 275.65203125 145.625 276.3984375 C138.79064381 284.59302963 130.49757563 292.50118874 121.453125 298.203125 C120.793125 298.203125 120.133125 298.203125 119.453125 298.203125 C119.453125 298.863125 119.453125 299.523125 119.453125 300.203125 C117.53564453 301.58837891 117.53564453 301.58837891 114.8359375 303.1796875 C113.84553467 303.76427734 112.85513184 304.34886719 111.8347168 304.95117188 C110.7600415 305.57056641 109.68536621 306.18996094 108.578125 306.828125 C107.48346924 307.46041016 106.38881348 308.09269531 105.26098633 308.74414062 C60.50857156 334.23664301 9.19850741 340.5420386 -40.546875 327.203125 C-58.14035815 322.10670271 -75.50013985 314.72037306 -90.546875 304.203125 C-91.64128906 303.46578125 -92.73570312 302.7284375 -93.86328125 301.96875 C-101.89102245 296.48170053 -109.0900615 290.40171103 -116.06689453 283.63623047 C-117.4429378 282.30377023 -118.83605589 280.98900558 -120.23046875 279.67578125 C-149.02164193 251.96259271 -165.89100423 210.46789549 -166.85131836 170.69604492 C-166.90846532 156.11664387 -165.51055332 141.24833295 -161.546875 127.203125 C-161.20914063 125.97722656 -160.87140625 124.75132812 -160.5234375 123.48828125 C-151.70792897 92.7999359 -133.39336549 63.46727093 -108.546875 43.203125 C-107.95841797 42.72020996 -107.36996094 42.23729492 -106.76367188 41.73974609 C-80.19348017 20.12320625 -49.34928131 6.64168432 -15.546875 1.203125 C-14.47904785 1.0273291 -13.4112207 0.8515332 -12.31103516 0.67041016 C-8.17893648 0.15744889 -4.15823888 0.02333418 0 0 Z M-9.171875 4.140625 C-10.0175 4.22763672 -10.863125 4.31464844 -11.734375 4.40429688 C-15.43424311 4.79821028 -18.94097638 5.27407416 -22.546875 6.203125 C-22.57028228 20.02721863 -22.58793212 33.85130737 -22.59868717 47.67541695 C-22.60385499 54.0979089 -22.61083835 60.52038707 -22.62231445 66.94287109 C-22.75524544 106.58500177 -22.75524544 106.58500177 -21.546875 146.203125 C-22.536875 145.543125 -23.526875 144.883125 -24.546875 144.203125 C-30.15440079 142.25765687 -35.64526767 141.65435453 -41.546875 141.203125 C-40.51120855 139.11270147 -39.45836882 137.03662823 -38.36328125 134.9765625 C-32.89400735 124.51508531 -30.44860644 114.55862905 -30.37890625 102.71484375 C-30.37462616 102.0186644 -30.37034607 101.32248505 -30.36593628 100.60520935 C-30.35599849 98.36694816 -30.35587367 96.12890396 -30.359375 93.890625 C-30.36031158 93.1254657 -30.36124817 92.3603064 -30.36221313 91.57196045 C-30.39205016 80.358236 -30.45722432 69.2539157 -32.546875 58.203125 C-32.77286377 56.9951123 -32.77286377 56.9951123 -33.00341797 55.76269531 C-35.9499355 40.78951784 -40.76063438 28.57844514 -51.4921875 17.36328125 C-54.5762281 15.62191232 -56.14926026 16.26571558 -59.546875 17.203125 C-71.58287532 21.20594188 -71.58287532 21.20594188 -80.828125 29.33984375 C-82.11966495 32.66713417 -82.92405367 35.68947262 -83.546875 39.203125 C-83.71783691 39.89937988 -83.88879883 40.59563477 -84.06494141 41.31298828 C-85.85412734 48.91427955 -85.85918801 56.42922617 -85.796875 64.203125 C-85.79377319 64.88876526 -85.79067139 65.57440552 -85.78747559 66.28082275 C-85.65865925 90.57119606 -83.89305437 122.85694563 -65.546875 141.203125 C-66.94099609 141.49316406 -66.94099609 141.49316406 -68.36328125 141.7890625 C-69.59949219 142.04945313 -70.83570313 142.30984375 -72.109375 142.578125 C-73.32753906 142.83335937 -74.54570312 143.08859375 -75.80078125 143.3515625 C-79.42887024 144.17630014 -82.97430209 145.16743406 -86.546875 146.203125 C-86.52403442 144.65709595 -86.52403442 144.65709595 -86.50073242 143.07983398 C-86.39557096 132.73036556 -86.93077934 122.56819383 -87.859375 112.265625 C-88.13954602 109.03810886 -88.41397191 105.81011647 -88.6875 102.58203125 C-88.75856461 101.74930695 -88.82962921 100.91658264 -88.90284729 100.05862427 C-89.44035161 93.68205978 -89.9064672 87.3021337 -90.34375 80.91796875 C-90.40833908 79.98001968 -90.47292816 79.04207062 -90.53947449 78.07569885 C-90.79217397 74.39116008 -91.04372887 70.70658937 -91.28482056 67.02127075 C-91.94221467 56.98205895 -92.7691487 47.11801492 -94.546875 37.203125 C-103.02956239 42.45588877 -110.19927755 48.8365424 -117.23046875 55.8984375 C-119.546875 58.203125 -119.546875 58.203125 -121.859375 60.015625 C-124.44012342 63.36103962 -123.82338033 66.05554498 -123.546875 70.203125 C-124.58070313 70.03941406 -125.61453125 69.87570313 -126.6796875 69.70703125 C-130.41339718 69.81103312 -130.41339718 69.81103312 -132.10449219 71.61669922 C-133.67654784 73.72757721 -135.06127312 75.8874793 -136.421875 78.140625 C-136.93145752 78.94443604 -137.44104004 79.74824707 -137.96606445 80.57641602 C-149.16523751 98.52136148 -156.03018653 113.63378097 -151.359375 135.140625 C-148.59944549 145.17438742 -145.39089034 154.25281677 -138.546875 162.203125 C-137.763125 163.193125 -136.979375 164.183125 -136.171875 165.203125 C-135.3675 166.193125 -135.3675 166.193125 -134.546875 167.203125 C-135.08054688 167.5434375 -135.61421875 167.88375 -136.1640625 168.234375 C-142.27052027 172.20674199 -147.92804897 176.57321235 -153.546875 181.203125 C-154.73990234 182.12158203 -154.73990234 182.12158203 -155.95703125 183.05859375 C-160.4334257 186.45879057 -160.4334257 186.45879057 -162.046875 191.640625 C-161.881875 192.48625 -161.716875 193.331875 -161.546875 194.203125 C-160.886875 194.533125 -160.226875 194.863125 -159.546875 195.203125 C-158.886875 194.873125 -158.226875 194.543125 -157.546875 194.203125 C-157.546875 193.543125 -157.546875 192.883125 -157.546875 192.203125 C-157.0003125 191.96851563 -156.45375 191.73390625 -155.890625 191.4921875 C-152.92283289 189.85990184 -150.60446155 187.79882515 -148.046875 185.578125 C-142.19938188 180.57828038 -136.04716808 176.32919756 -129.546875 172.203125 C-130.01738281 172.79738281 -130.48789063 173.39164063 -130.97265625 174.00390625 C-135.66249538 180.24731528 -137.98501757 185.60718596 -139.546875 193.203125 C-139.72661865 194.07155029 -139.9063623 194.93997559 -140.09155273 195.8347168 C-141.63944429 204.13303328 -141.84626946 212.21475326 -141.796875 220.640625 C-141.80460937 221.95611328 -141.81234375 223.27160156 -141.8203125 224.62695312 C-141.78187014 244.0499539 -137.68126208 254.85607575 -125.1328125 269.22265625 C-123.47729837 271.13074883 -121.87197142 273.08431536 -120.3359375 275.08984375 C-119.45035156 276.13591797 -119.45035156 276.13591797 -118.546875 277.203125 C-117.886875 277.203125 -117.226875 277.203125 -116.546875 277.203125 C-116.546875 277.863125 -116.546875 278.523125 -116.546875 279.203125 C-115.886875 279.203125 -115.226875 279.203125 -114.546875 279.203125 C-114.546875 279.863125 -114.546875 280.523125 -114.546875 281.203125 C-112.07831873 283.75239701 -109.268678 285.93041949 -106.546875 288.203125 C-105.8146875 288.87988281 -105.0825 289.55664062 -104.328125 290.25390625 C-100.7562194 293.39190078 -97.95894709 295.76876601 -93.046875 295.640625 C-85.51919273 294.03787241 -80.3287209 287.79243115 -76.234375 281.640625 C-69.17592879 268.91969269 -68.03270637 255.17015236 -71.546875 241.203125 C-74.37862663 233.8788183 -74.37862663 233.8788183 -79.546875 228.203125 C-82.48275905 227.55178137 -82.48275905 227.55178137 -85.546875 228.203125 C-88.00032526 230.26021291 -88.00032526 230.26021291 -90.046875 233.015625 C-93.21518125 236.99322687 -95.78309888 239.3027507 -100.546875 241.203125 C-103.421875 240.890625 -103.421875 240.890625 -105.546875 240.203125 C-107.2467136 235.00841824 -107.93366922 230.41074716 -107.921875 224.953125 C-107.92054565 223.84420898 -107.92054565 223.84420898 -107.91918945 222.71289062 C-107.78640701 216.51727508 -106.83984186 210.57759935 -103.546875 205.203125 C-102.556875 204.873125 -101.566875 204.543125 -100.546875 204.203125 C-98.13671875 205.8203125 -98.13671875 205.8203125 -95.484375 208.078125 C-91.10843247 211.95706609 -91.10843247 211.95706609 -85.671875 213.578125 C-82.45600312 213.4929063 -82.45600312 213.4929063 -80.359375 211.265625 C-73.04523766 198.90725501 -74.29161489 183.75206865 -77.62890625 170.19921875 C-79.5388339 163.96554001 -82.24055784 159.12463033 -86.546875 154.203125 C-80.58018672 152.36910196 -74.61609067 150.66423248 -68.546875 149.203125 C-68.55195068 150.02087402 -68.55702637 150.83862305 -68.56225586 151.68115234 C-68.59207143 160.36174267 -68.44318311 169.02340889 -68.17456055 177.69921875 C-68.10921844 179.8332381 -68.0495718 181.96736872 -67.99023438 184.1015625 C-67.94826028 185.5026145 -67.90595387 186.9036566 -67.86328125 188.3046875 C-67.82662354 189.53525879 -67.78996582 190.76583008 -67.75219727 192.03369141 C-67.62250059 195.29368423 -67.34473491 198.52741522 -67.046875 201.77615356 C-66.55691729 207.59450105 -66.37733997 213.36740136 -66.34155273 219.20410156 C-66.33165314 220.22997879 -66.32175354 221.25585602 -66.31155396 222.31282043 C-66.28032009 225.65644128 -66.25533461 229.00007627 -66.23046875 232.34375 C-66.20986618 234.68072855 -66.18886891 237.01770366 -66.16749573 239.35467529 C-66.11261588 245.47012518 -66.06305797 251.58560677 -66.01464844 257.70111084 C-65.96418263 263.95571677 -65.9086282 270.21027734 -65.85351562 276.46484375 C-65.74635175 288.71089864 -65.64481611 300.95699312 -65.546875 313.203125 C-63.98274069 314.00212314 -62.41658253 314.79715996 -60.84960938 315.59057617 C-59.97767944 316.0337468 -59.10574951 316.47691742 -58.20739746 316.93351746 C-54.26209768 318.81622374 -50.20560873 320.18889092 -46.046875 321.515625 C-45.25023437 321.77923828 -44.45359375 322.04285156 -43.6328125 322.31445312 C-39.67303297 323.70071095 -39.67303297 323.70071095 -35.546875 324.203125 C-35.56971054 323.65666321 -35.59254608 323.11020142 -35.61607361 322.54718018 C-38.50206049 253.34249308 -38.50206049 253.34249308 -38.734375 225.265625 C-38.74742676 224.39518555 -38.76047852 223.52474609 -38.77392578 222.62792969 C-38.77996277 218.4072142 -38.66357805 214.98663952 -36.546875 211.203125 C-34.421875 210.078125 -34.421875 210.078125 -31.546875 210.203125 C-24.45999276 212.70705555 -21.14415555 218.26713533 -17.40625 224.4609375 C-15.63135008 227.078542 -14.24320954 228.59312359 -11.546875 230.203125 C-8.89294076 230.12018955 -7.65552283 229.27884925 -5.484375 227.765625 C-2.6110106 223.96536885 -1.69746758 219.77618086 -0.546875 215.203125 C-0.37341553 214.64415527 -0.19995605 214.08518555 -0.02124023 213.50927734 C1.07438589 208.18283147 0.67956691 202.57022975 0.69335938 197.14404297 C0.70294683 194.8703788 0.73393242 192.59766638 0.765625 190.32421875 C0.83227121 180.86123241 -0.10919566 172.40049281 -2.546875 163.203125 C-1.7741626 163.62287598 -1.0014502 164.04262695 -0.20532227 164.47509766 C1.71334127 165.51732189 3.63204634 166.55946967 5.55078125 167.6015625 C7.88042036 168.88709687 10.1699913 170.21315475 12.453125 171.578125 C15.32413165 173.44126657 15.32413165 173.44126657 18.453125 173.203125 C18.453125 173.863125 18.453125 174.523125 18.453125 175.203125 C19.55720703 175.80060547 19.55720703 175.80060547 20.68359375 176.41015625 C21.65941406 176.93996094 22.63523437 177.46976563 23.640625 178.015625 C25.08501953 178.79873047 25.08501953 178.79873047 26.55859375 179.59765625 C28.44657074 180.64483377 30.30639387 181.74498188 32.12890625 182.90234375 C34.44553034 184.44731503 34.44553034 184.44731503 37.453125 184.203125 C37.453125 184.863125 37.453125 185.523125 37.453125 186.203125 C38.37931641 186.56664062 38.37931641 186.56664062 39.32421875 186.9375 C44.40276528 188.94727488 49.40584432 191.04389902 54.34765625 193.37109375 C56.87349571 194.44145889 56.87349571 194.44145889 61.453125 195.203125 C61.453125 208.403125 61.453125 221.603125 61.453125 235.203125 C66.60341463 236.32837438 66.60341463 236.32837438 70.765625 234.265625 C71.81169922 233.69521484 71.81169922 233.69521484 72.87890625 233.11328125 C73.39839844 232.81292969 73.91789063 232.51257813 74.453125 232.203125 C73.72609375 233.54890625 73.72609375 233.54890625 72.984375 234.921875 C68.84778856 242.61228349 64.83058891 250.34728338 60.98046875 258.18554688 C58.55433942 263.10191058 58.55433942 263.10191058 57.453125 264.203125 C57.13503989 272.83440737 57.87095472 281.4115105 58.57006836 290.00878906 C58.76624155 292.46083146 58.94469379 294.91379284 59.12304688 297.3671875 C59.24891102 298.9427957 59.37582733 300.51832029 59.50390625 302.09375 C59.55404373 302.8188678 59.60418121 303.5439856 59.65583801 304.29107666 C60.18036817 310.32235681 61.67210752 314.50691787 66.078125 318.703125 C71.33907074 321.04132311 75.68122367 319.24901203 80.92871094 317.26904297 C83.48226732 316.19099678 86.00030132 315.05494851 88.515625 313.890625 C89.36189453 313.51228516 90.20816406 313.13394531 91.08007812 312.74414062 C95.80819998 310.58969189 100.22932088 308.22121507 104.58813477 305.39477539 C106.34258026 304.27375844 108.12210264 303.25401561 109.9453125 302.25 C114.03288561 299.93610439 117.80078241 297.23793333 121.578125 294.453125 C122.26777344 293.96585937 122.95742188 293.47859375 123.66796875 292.9765625 C129.21334419 288.88379975 132.39507542 284.31922416 135.453125 278.203125 C136.34630269 270.16452576 134.26638323 263.7867843 131.73706055 256.26416016 C129.94836762 250.91877525 128.6095987 245.74240646 127.875 240.13671875 C127.58587406 237.97579234 127.58587406 237.97579234 125.453125 236.203125 C119.88394854 236.51313953 115.49121883 237.73607628 110.328125 239.92578125 C109.69575928 240.19071884 109.06339355 240.45565643 108.41186523 240.72862244 C106.42153758 241.56498976 104.43738829 242.41498499 102.453125 243.265625 C101.092835 243.84011012 99.73216067 244.41368611 98.37109375 244.98632812 C95.06060265 246.38146146 91.75549878 247.78886689 88.453125 249.203125 C88.94433838 248.25163574 89.43555176 247.30014648 89.94165039 246.31982422 C94.50781012 237.43052698 98.69279803 228.3910628 102.765625 219.265625 C103.28092773 218.11731201 103.79623047 216.96899902 104.32714844 215.78588867 C109.2537486 205.84998147 109.2537486 205.84998147 111.453125 195.203125 C112.11699219 195.08195313 112.78085937 194.96078125 113.46484375 194.8359375 C114.34785156 194.66835938 115.23085938 194.50078125 116.140625 194.328125 C117.01074219 194.16570312 117.88085938 194.00328125 118.77734375 193.8359375 C121.47980365 193.1968156 123.88955708 192.25860131 126.453125 191.203125 C126.43741455 192.14518799 126.4217041 193.08725098 126.40551758 194.05786133 C126.35391949 197.6046313 126.31654959 201.15099357 126.28833008 204.69799805 C126.27338566 206.22345332 126.25302253 207.74886672 126.22680664 209.27416992 C126.0149977 221.92871578 127.51209734 232.32810428 133.453125 243.640625 C133.79601562 244.32060547 134.13890625 245.00058594 134.4921875 245.70117188 C137.06106615 250.72103093 137.06106615 250.72103093 140.453125 255.203125 C141.113125 255.203125 141.773125 255.203125 142.453125 255.203125 C142.453125 255.863125 142.453125 256.523125 142.453125 257.203125 C146.10417104 260.00509056 148.94726219 261.4585446 153.453125 262.203125 C163.92253131 249.13492989 179.71210231 228.55339779 178.578125 210.953125 C177.8860304 207.22035246 177.09712011 204.0359769 174.453125 201.203125 C172.08439344 200.29275509 172.08439344 200.29275509 169.453125 200.203125 C167.36497168 201.30807128 167.36497168 201.30807128 165.578125 203.140625 C164.8975 203.78386719 164.216875 204.42710937 163.515625 205.08984375 C159.48346302 209.22128245 155.65918313 213.39403781 152.453125 218.203125 C151.453125 217.203125 151.453125 217.203125 150.9921875 213.99609375 C151.54503638 209.44680337 152.53824622 208.58609331 155.9765625 205.87304688 C156.58757812 205.42509766 157.19859375 204.97714844 157.828125 204.515625 C163.23031267 200.72980482 163.23031267 200.72980482 166.453125 195.203125 C167.03228963 188.89264374 164.72961139 184.31836455 161.21875 179.24609375 C159.18167266 176.88903302 156.93272853 175.0796957 154.453125 173.203125 C155.20335937 172.48769531 155.95359375 171.77226562 156.7265625 171.03515625 C164.08269755 163.91471728 170.44377453 156.48196422 176.453125 148.203125 C177.41992188 146.96369141 177.41992188 146.96369141 178.40625 145.69921875 C182.40306586 140.32966473 183.08897409 136.87954045 182.453125 130.203125 C181.793125 130.203125 181.133125 130.203125 180.453125 130.203125 C178.8084576 132.66639212 178.8084576 132.66639212 177.453125 135.203125 C177.33195312 134.50445312 177.21078125 133.80578125 177.0859375 133.0859375 C176.91835938 132.17585937 176.75078125 131.26578125 176.578125 130.328125 C176.41570312 129.42320312 176.25328125 128.51828125 176.0859375 127.5859375 C175.62267797 125.03806512 175.62267797 125.03806512 173.453125 123.203125 C170.87837883 123.10521516 170.87837883 123.10521516 168.015625 123.453125 C167.04753906 123.54078125 166.07945312 123.6284375 165.08203125 123.71875 C162.23284745 124.06487899 162.23284745 124.06487899 159.453125 126.203125 C158.72244148 129.28064398 158.72244148 129.28064398 158.390625 132.765625 C158.14287225 134.91989414 157.84486219 137.07033365 157.453125 139.203125 C156.793125 139.533125 156.133125 139.863125 155.453125 140.203125 C154.5529414 135.40718883 154.15872738 130.68912886 153.890625 125.828125 C153.84744141 125.09207031 153.80425781 124.35601562 153.75976562 123.59765625 C153.65468701 121.79964432 153.55350407 120.00140542 153.453125 118.203125 C157.083125 118.533125 160.713125 118.863125 164.453125 119.203125 C168.90415076 112.52658635 168.36687411 100.95911444 167.453125 93.203125 C165.27792773 90.32363749 162.86754389 89.28574562 159.453125 88.203125 C158.133125 88.203125 156.813125 88.203125 155.453125 88.203125 C155.53433594 87.29691406 155.61554688 86.39070313 155.69921875 85.45703125 C156.15970001 76.60448186 156.15970001 76.60448186 152.078125 69.015625 C150.88442006 67.73104129 149.67776974 66.45824733 148.453125 65.203125 C147.793125 64.213125 147.133125 63.223125 146.453125 62.203125 C145.793125 62.203125 145.133125 62.203125 144.453125 62.203125 C144.185 61.605 143.916875 61.006875 143.640625 60.390625 C142.45395094 58.20464646 141.35713387 56.78979906 139.453125 55.203125 C138.793125 55.203125 138.133125 55.203125 137.453125 55.203125 C137.39777588 55.84338623 137.34242676 56.48364746 137.28540039 57.14331055 C137.03168335 60.0593404 136.77369551 62.97497734 136.515625 65.890625 C136.42861328 66.89802734 136.34160156 67.90542969 136.25195312 68.94335938 C136.16494141 69.91982422 136.07792969 70.89628906 135.98828125 71.90234375 C135.909729 72.79783936 135.83117676 73.69333496 135.75024414 74.6159668 C135.4550787 77.18611323 134.99700264 79.67499049 134.453125 82.203125 C132.473125 81.873125 130.493125 81.543125 128.453125 81.203125 C123.65761745 87.24963452 124.07931785 93.1831004 123.765625 100.640625 C123.67571289 102.35862305 123.67571289 102.35862305 123.58398438 104.11132812 C123.53693359 105.21283203 123.48988281 106.31433594 123.44140625 107.44921875 C123.39540283 108.45654053 123.34939941 109.4638623 123.30200195 110.50170898 C123.45919828 113.31168862 123.8984187 114.87495994 125.453125 117.203125 C128.13102963 118.04198669 130.6269191 118.02078914 133.453125 118.203125 C133.31165039 118.95811279 133.17017578 119.71310059 133.02441406 120.4909668 C131.61232024 128.68371677 131.14008774 136.69119354 131.19238281 144.98901367 C131.20320852 147.03138256 131.19235925 149.07289007 131.1796875 151.11523438 C131.19816255 160.53289108 131.84705057 167.82844422 136.453125 176.203125 C129.89100596 181.64030935 123.95164486 185.01728502 115.453125 186.203125 C115.453125 186.863125 115.453125 187.523125 115.453125 188.203125 C113.473125 187.873125 111.493125 187.543125 109.453125 187.203125 C109.70707031 186.57148438 109.96101563 185.93984375 110.22265625 185.2890625 C117.53536312 166.28150231 118.60449634 145.88492701 120.015625 125.765625 C120.20442873 123.11243569 120.39448 120.45934621 120.58641052 117.80638123 C120.70418942 116.17473967 120.82011516 114.54296272 120.93373108 112.911026 C121.19608265 109.24266939 121.5122308 105.59608064 121.95019531 101.94433594 C123.05257918 92.28161253 123.27504919 82.54539615 123.51733398 72.83032227 C123.59940031 70.20793737 123.71553047 67.58639329 123.8659668 64.96704102 C125.21597648 50.79732317 125.21597648 50.79732317 120.75396729 37.85552979 C115.97071298 33.37322564 110.42339897 30.74871317 104.453125 28.203125 C102.91793907 27.45474629 101.38779855 26.69588809 99.86401367 25.92456055 C98.73842041 25.35648682 97.61282715 24.78841309 96.453125 24.203125 C96.46472656 25.07710937 96.47632813 25.95109375 96.48828125 26.8515625 C96.53894733 33.75662546 96.41813642 40.60079654 95.9765625 47.4921875 C95.43841955 56.51747376 95.22849078 65.53480516 95.06497192 74.57342529 C94.78947211 89.25482214 94.33692468 103.91674789 93.515625 118.578125 C93.47801056 119.3014502 93.44039612 120.02477539 93.40164185 120.77001953 C93.29442462 122.79773878 93.17295886 124.82468966 93.05078125 126.8515625 C92.95035522 128.55578369 92.95035522 128.55578369 92.84790039 130.29443359 C92.47282222 133.05799656 91.87684291 134.8323079 90.453125 137.203125 C83.71127717 125.80713331 86.10936905 106.96313989 86.0390625 94.203125 C86.02030957 92.02880147 86.00073324 89.8544849 85.9803772 87.68017578 C85.92948518 82.01196434 85.88963229 76.34372942 85.85223389 70.67541504 C85.81192205 64.86949053 85.76095503 59.06366007 85.7109375 53.2578125 C85.6146879 41.90631648 85.53012331 30.55476681 85.453125 19.203125 C84.20430157 18.56475591 82.95380473 17.92965995 81.70263672 17.29589844 C81.00645233 16.94186951 80.31026794 16.58784058 79.59298706 16.2230835 C76.34558874 14.67522134 72.99905168 13.54975271 69.578125 12.453125 C68.91554688 12.23269531 68.25296875 12.01226562 67.5703125 11.78515625 C64.08444512 10.59995019 64.08444512 10.59995019 60.453125 10.203125 C58.87859635 30.64390949 58.11454699 50.96046505 58.19537735 71.46509552 C58.20327683 73.61953335 58.20775894 75.77395698 58.21151733 77.92840576 C58.25056725 97.23805042 58.52411738 116.53101796 59.265625 135.828125 C59.30046997 136.81157898 59.33531494 137.79503296 59.37121582 138.80828857 C59.81225783 165.82134154 59.81225783 165.82134154 71.453125 189.203125 C69.65933001 188.96888373 67.86814723 188.71463958 66.078125 188.453125 C65.08039063 188.31390625 64.08265625 188.1746875 63.0546875 188.03125 C58.29386711 186.93657112 53.93967273 185.11072036 49.453125 183.203125 C49.42370853 178.93230652 49.40618785 174.66151466 49.390625 170.390625 C49.38224609 169.19501953 49.37386719 167.99941406 49.36523438 166.76757812 C49.34807337 160.46949082 49.55347793 154.30964978 50.20141602 148.04663086 C50.7063748 142.34221281 50.7909104 136.6131957 50.953125 130.890625 C51.1577769 123.73917803 51.39304679 116.61038798 51.94921875 109.4765625 C52.6101663 100.70582533 52.81676021 91.93170983 53.015625 83.140625 C53.03580688 82.25982269 53.05598877 81.37902039 53.07678223 80.4715271 C53.22077565 74.04903092 53.34290614 67.62628364 53.453125 61.203125 C53.46857361 60.32346069 53.48402222 59.44379639 53.49993896 58.53747559 C53.58573716 53.48444439 53.64973089 48.4318528 53.68429565 43.37820435 C53.69664075 41.82922464 53.71398101 40.28027492 53.73684692 38.73141479 C54.35294342 22.47706478 54.35294342 22.47706478 48.68188477 7.88110352 C46.03223614 5.88624811 44.33884852 5.52175366 41.05859375 5.15625 C40.02025391 5.03378906 38.98191406 4.91132813 37.91210938 4.78515625 C36.83251953 4.67558594 35.75292969 4.56601563 34.640625 4.453125 C33.03864258 4.26556641 33.03864258 4.26556641 31.40429688 4.07421875 C28.42262839 3.7386197 25.44312739 3.45262365 22.453125 3.203125 C21.72536865 3.1402832 20.9976123 3.07744141 20.24780273 3.01269531 C17.44261212 2.87493546 15.83868909 2.9247055 13.52734375 4.59375 C12.84091797 5.51414063 12.84091797 5.51414063 12.140625 6.453125 C11.67011719 7.05640625 11.19960938 7.6596875 10.71484375 8.28125 C9.21542955 10.48348658 9.21542955 10.48348658 7.453125 14.203125 C7.123125 10.573125 6.793125 6.943125 6.453125 3.203125 C1.18272598 3.07436932 -3.94185571 3.57336906 -9.171875 4.140625 Z " fill="#FDE5DE" transform="translate(308.546875,154.796875)"/>
<path d="M0 0 C207.57 0 415.14 0 629 0 C630.15276303 2.30552605 630.12551834 3.59925105 630.12649983 6.16384554 C630.12925958 7.04364559 630.13201932 7.92344563 630.13486269 8.82990628 C630.13280737 9.80433563 630.13075205 10.77876497 630.12863445 11.78272247 C630.13038749 12.81602729 630.13214053 13.84933211 630.13394669 14.91394919 C630.13864188 18.41697036 630.13613221 21.91995065 630.13371277 25.42297363 C630.13557897 27.94352773 630.1378789 30.46408153 630.14057809 32.98463488 C630.14543875 38.48571724 630.14714719 43.986787 630.14612198 49.48787117 C630.1446012 57.66795899 630.14874955 65.84803702 630.1539966 74.02812295 C630.16368384 89.48496489 630.16648135 104.94180352 630.16705366 120.39864814 C630.16751259 132.33079388 630.16956771 144.26293831 630.17275429 156.19508362 C630.17365178 159.62537972 630.17454159 163.05567582 630.17542917 166.48597193 C630.17565021 167.33866444 630.17587126 168.19135695 630.17609901 169.06988862 C630.18225589 193.06464598 630.18619929 217.05940289 630.18575573 241.05416107 C630.18574015 241.95940622 630.18572457 242.86465137 630.18570852 243.79732819 C630.18562541 248.38586222 630.18552637 252.97439625 630.18542381 257.56293029 C630.1853939 258.92996888 630.1853939 258.92996888 630.18536337 260.32462441 C630.18532294 262.16761489 630.18528114 264.01060538 630.18523798 265.85359586 C630.18462497 294.53960934 630.19213547 323.225611 630.20581055 351.91162109 C630.22115472 384.11242471 630.22977779 416.31322057 630.22884732 448.51402807 C630.22877269 451.94432418 630.22872399 455.37462028 630.22869301 458.80491638 C630.22867553 460.07193203 630.22867553 460.07193203 630.22865769 461.36454395 C630.22862686 474.98609883 630.23502579 488.6076435 630.24362527 502.22919534 C630.25208182 515.90672354 630.25310744 529.58423672 630.24651595 543.26176608 C630.24280702 551.39754909 630.24469246 559.53328661 630.25445829 567.66906484 C630.26112045 573.72884481 630.25744163 579.78857041 630.24958507 585.84835094 C630.24803484 588.31129864 630.24992263 590.77425118 630.25544515 593.23719317 C630.26241528 596.56397136 630.25728324 599.89050808 630.24888897 603.21727753 C630.25385715 604.19170687 630.25882533 605.16613621 630.26394406 606.17009372 C630.25681784 607.48979378 630.25681784 607.48979378 630.24954766 608.83615446 C630.24963588 609.59782831 630.2497241 610.35950216 630.249815 611.14425704 C630 613 630 613 628 615 C626.10169348 615.249815 626.10169348 615.249815 623.73241132 615.24954766 C622.82942038 615.25429847 621.92642943 615.25904928 620.99607512 615.26394406 C619.99569041 615.25897588 618.99530569 615.2540077 617.96460629 615.24888897 C616.90398789 615.25149625 615.8433695 615.25410354 614.75061116 615.25678983 C611.1546406 615.26314516 607.55884102 615.25509262 603.96287537 615.24723816 C601.37561146 615.24882464 598.78834796 615.25128662 596.20108563 615.25455457 C590.55426452 615.26025528 584.90748354 615.25847231 579.26066399 615.2518692 C570.86392916 615.24207741 562.46722387 615.24367725 554.07048565 615.2476195 C539.94740476 615.25390468 525.82434053 615.25071163 511.70126152 615.24202538 C497.71119469 615.2334226 483.72113535 615.22850494 469.73106575 615.22869301 C468.86210892 615.22870065 467.9931521 615.2287083 467.09786324 615.22871618 C463.57084115 615.22875708 460.04381906 615.22882269 456.51679697 615.22892199 C423.40541337 615.22982882 390.29404118 615.21987174 357.18266154 615.20449232 C327.73806501 615.19086646 298.2934766 615.18463105 268.84887695 615.18530273 C266.95821496 615.18534315 265.06755296 615.18538351 263.17689096 615.18542381 C261.7748578 615.18545434 261.7748578 615.18545434 260.34450073 615.18548548 C255.639818 615.18558627 250.93513527 615.18567686 246.23045254 615.18575573 C244.83833763 615.1857808 244.83833763 615.1857808 243.41809919 615.18580638 C218.84420241 615.18617121 194.27030665 615.18163655 169.69641072 615.17542917 C168.82273745 615.17520889 167.94906418 615.17498862 167.04891596 615.17476168 C163.53535223 615.1738734 160.02178849 615.17298502 156.50822476 615.17207072 C144.26329307 615.16890603 132.01836217 615.16740085 119.77343009 615.16695923 C103.99762216 615.16636319 88.22182094 615.16238977 72.44601589 615.15252777 C64.09452343 615.14739764 55.74304084 615.14500842 47.39154688 615.14652396 C41.17297031 615.14734039 34.95440797 615.1429661 28.73583496 615.13647345 C26.20695758 615.13464857 23.67807832 615.13454092 21.14920085 615.13624074 C17.73596239 615.13828248 14.32278562 615.13428374 10.90955257 615.12863445 C9.90682669 615.13068977 8.90410081 615.13274509 7.87098929 615.13486269 C6.97050186 615.13210295 6.07001444 615.1293432 5.14223951 615.12649983 C4.36044416 615.12620833 3.57864881 615.12591683 2.77316269 615.1256165 C1 615 1 615 0 614 C-0.09679699 612.64910245 -0.12447428 611.29317655 -0.1241985 609.93881553 C-0.1264458 609.05649234 -0.12869311 608.17416914 -0.13100851 607.26510888 C-0.12838148 606.28262553 -0.12575446 605.30014219 -0.12304783 604.28788662 C-0.12420157 603.249691 -0.12535532 602.21149539 -0.12654402 601.1418393 C-0.1292179 597.61785429 -0.12468322 594.09391378 -0.12025452 590.56993103 C-0.12069146 588.04258717 -0.12156748 585.51524335 -0.12284851 582.98789978 C-0.12463081 577.46165198 -0.12326715 571.9354183 -0.11921513 566.40917194 C-0.11313151 558.08498111 -0.11284369 549.76079683 -0.11368043 541.43660417 C-0.11492469 527.48902986 -0.11162007 513.54146024 -0.10557556 499.59388733 C-0.09741693 480.73483105 -0.09547353 461.87578281 -0.09460449 443.01672363 C-0.08934734 397.65698146 -0.07538632 352.29724064 -0.0625 306.9375 C-0.041875 205.648125 -0.02125 104.35875 0 0 Z M4 6 C4 205.32 4 404.64 4 610 C208.93 610 413.86 610 625 610 C625 410.68 625 211.36 625 6 C420.07 6 215.14 6 4 6 Z " fill="#3F201B" transform="translate(6,11)"/>
<path d="M0 0 C2.31 1.98 4.62 3.96 7 6 C8.22379145 6.97299733 9.45030905 7.94260434 10.68241113 8.9050563 C16.92868385 14.12553853 21.57431912 18.80811325 22.61323926 27.13463796 C22.90636533 31.81287543 22.88107677 36.46026799 22.81141663 41.14506531 C22.83115555 43.27206667 22.85696831 45.39901876 22.88828844 47.52588111 C22.95617454 53.34175074 22.93730018 59.15453238 22.90344059 64.9705795 C22.88200157 71.25394266 22.94114111 77.53663646 22.98954773 83.81977844 C23.06628296 95.40832489 23.07890548 106.99564284 23.05693424 118.58436986 C23.03662883 129.29449476 23.04036296 140.00425553 23.06811333 150.71436501 C23.07174327 152.15345975 23.07536839 153.5925545 23.07898871 155.03164927 C23.08447702 157.2005109 23.08998523 159.36937247 23.09555803 161.53823389 C23.1467773 181.69203039 23.17007436 201.84570622 23.13427067 221.9995451 C23.1329256 222.75859762 23.13158053 223.51765014 23.1301947 224.29970425 C23.11910903 230.46290252 23.10727371 236.62609939 23.09538083 242.78929615 C23.04963176 266.81903028 23.09093863 290.84720391 23.20239258 314.87670898 C23.32756307 341.9049194 23.38947647 368.93218641 23.35706609 395.96069843 C23.35380677 398.84598418 23.35074764 401.73127008 23.34780693 404.61655617 C23.34703696 405.32692977 23.34626699 406.03730338 23.34547369 406.76920346 C23.33512064 417.465816 23.3735226 428.16153735 23.43678474 438.8579464 C23.50867469 451.03292521 23.51140918 463.20520533 23.42971093 475.38027086 C23.38984453 481.58749899 23.37989438 487.79078839 23.45331955 493.99779892 C23.90676784 535.11330159 23.90676784 535.11330159 14.13464874 546.11951905 C4.54538472 555 4.54538472 555 0 555 C0 371.85 0 188.7 0 0 Z " fill="#FAD6D1" transform="translate(26,40)"/>
<path d="M0 0 C0 182.82 0 365.64 0 554 C-4.28029772 550.33117338 -8.18103174 546.91362003 -12.03125 542.90625 C-13.87429631 541.0231568 -13.87429631 541.0231568 -15.6913636 539.80874119 C-20.59265518 536.1968421 -20.59265518 536.1968421 -21.65881033 533.06431333 C-21.91311246 530.77092015 -21.95147267 528.56355521 -21.91440773 526.25622272 C-21.92817697 525.38379117 -21.94194622 524.51135962 -21.95613271 523.61249074 C-21.99380394 520.67993395 -21.98158918 517.74971481 -21.96963501 514.81697083 C-21.98628996 512.69691165 -22.00595729 510.57687434 -22.02838266 508.45686835 C-22.08099904 502.62375276 -22.08964745 496.79126811 -22.09098125 490.95794547 C-22.09982544 484.66913592 -22.14859497 478.38061482 -22.19177246 472.09196472 C-22.27376101 459.05133976 -22.30972563 446.01094361 -22.33181543 432.97010107 C-22.33301726 432.26120278 -22.33421908 431.5523045 -22.33545732 430.82192445 C-22.33665235 430.11157597 -22.33784737 429.40122749 -22.3390786 428.6693533 C-22.35169483 421.51212582 -22.37367714 414.35493616 -22.39696794 407.19773658 C-22.47671796 382.68436108 -22.54318816 358.17101438 -22.55935097 333.65750599 C-22.55986801 332.89632534 -22.56038505 332.1351447 -22.56091776 331.35089797 C-22.56300948 328.26624915 -22.56505718 325.1816003 -22.56710177 322.09695145 C-22.56864552 319.77532765 -22.57021022 317.45370386 -22.57177734 315.13208008 C-22.57228156 314.36492299 -22.57278578 313.5977659 -22.57330528 312.80736162 C-22.59018002 287.95278211 -22.68651362 263.09941514 -22.83137873 238.24527296 C-22.98435255 211.95166141 -23.06820898 185.6587355 -23.07237375 159.36466426 C-23.07308172 156.47476005 -23.07406142 153.58485606 -23.07523727 150.69495201 C-23.07549281 149.9834064 -23.07574834 149.27186079 -23.07601162 148.5387532 C-23.08169048 137.11466065 -23.14943633 125.69175443 -23.23953708 114.26805207 C-23.32859168 102.77005513 -23.34472251 91.27417304 -23.29311855 79.77583472 C-23.26711197 73.55234411 -23.27128851 67.33288108 -23.35911179 61.1098671 C-23.90852319 19.87740964 -23.90852319 19.87740964 -14.14216268 8.87189358 C-4.55757152 0 -4.55757152 0 0 0 Z " fill="#F7D3CE" transform="translate(615,42)"/>
<path d="M0 0 C2.25469329 -0.01312122 4.50936114 -0.03147481 6.76397413 -0.05458885 C12.94164215 -0.10265924 19.11705722 -0.07609756 25.29470503 -0.03696239 C31.27811818 -0.01073054 37.26117981 -0.04092312 43.24452464 -0.06926525 C56.23259731 -0.12849656 69.21994316 -0.1194332 82.20805496 -0.08127677 C93.57353397 -0.0480722 104.93875177 -0.03766096 116.30427361 -0.04977608 C117.0587977 -0.05054757 117.81332179 -0.05131907 118.59071025 -0.05211395 C121.65372419 -0.05526834 124.716738 -0.05851797 127.77975167 -0.0619174 C156.49959077 -0.09339729 185.21897399 -0.05576627 213.93872705 0.01348124 C239.44458336 0.07456555 264.94979426 0.07654674 290.45567322 0.02806091 C319.12514299 -0.02621185 347.79426508 -0.04517342 376.46377176 -0.00594288 C379.52082495 -0.0018483 382.57787824 0.00216992 385.63493156 0.00616264 C386.76398232 0.00768717 386.76398232 0.00768717 387.91584219 0.0092425 C399.27380376 0.0239901 410.63153554 0.01204372 421.98947334 -0.01273918 C434.90560146 -0.04073402 447.82102794 -0.02911585 460.73704392 0.03440107 C467.32699177 0.06581543 473.91597366 0.07863985 480.50595856 0.04431534 C486.53992415 0.01340063 492.57151247 0.03334824 498.60523539 0.09373938 C500.78672398 0.10671238 502.96841813 0.10118876 505.14979065 0.07521421 C523.15292324 -0.12221834 523.15292324 -0.12221834 529.21997267 5.50118133 C531.27843595 7.71824867 533.0962755 10.09303901 534.9026947 12.51707458 C535.5626947 12.84707458 536.2226947 13.17707458 536.9026947 13.51707458 C536.9026947 14.17707458 536.9026947 14.83707458 536.9026947 15.51707458 C537.5626947 15.51707458 538.2226947 15.51707458 538.9026947 15.51707458 C538.9026947 16.17707458 538.9026947 16.83707458 538.9026947 17.51707458 C539.8926947 17.84707458 540.8826947 18.17707458 541.9026947 18.51707458 C541.9026947 19.17707458 541.9026947 19.83707458 541.9026947 20.51707458 C349.8426947 20.51707458 157.7826947 20.51707458 -40.0973053 20.51707458 C-38.1173053 18.20707458 -36.1373053 15.89707458 -34.0973053 13.51707458 C-33.29405919 12.44283908 -32.49081308 11.36860358 -31.66322619 10.26181549 C-22.93360972 -0.7266089 -13.22705292 -0.18104842 0 0 Z " fill="#F8D3CE" transform="translate(69.09730529785156,577.4829254150391)"/>
<path d="M0 0 C191.73 0 383.46 0 581 0 C575 7 575 7 571 9 C571 9.66 571 10.32 571 11 C567.57772095 15.09454537 563.95410106 18.3365301 558.51925206 18.88319749 C556.8539773 18.9224637 555.18753343 18.92411236 553.52205276 18.89485455 C552.13082132 18.91236265 552.13082132 18.91236265 550.71148419 18.93022445 C547.60371268 18.96078339 544.49827606 18.94157121 541.39044189 18.92253113 C539.13993159 18.9341779 536.88943527 18.9488586 534.63896251 18.96631223 C528.45474338 19.00527339 522.27121293 19.00045156 516.0869112 18.98836792 C510.10228515 18.98339748 504.11783389 19.01117177 498.13328448 19.03772709 C484.3815298 19.09720748 470.6299825 19.10906947 456.87811854 19.10585221 C446.25767227 19.1035653 435.63729913 19.11326207 425.01686859 19.13140297 C423.49080937 19.13395158 421.96475013 19.13649323 420.43869089 19.13902796 C419.30238528 19.14091671 419.30238528 19.14091671 418.14312402 19.14284362 C417.38419613 19.14410418 416.62526824 19.14536473 415.84334254 19.14666349 C414.70303701 19.14856704 414.70303701 19.14856704 413.539695 19.15050904 C392.15846921 19.18582899 370.77727008 19.20634144 349.39601517 19.19666576 C348.59000421 19.19630628 347.78399326 19.19594679 346.95355774 19.19557641 C342.86842394 19.19371553 338.78329022 19.19172687 334.69815651 19.18969568 C333.88684453 19.18929367 333.07553256 19.18889166 332.23963538 19.18847746 C330.59896506 19.18766284 328.95829473 19.18684039 327.31762442 19.18601012 C301.79226676 19.17345896 276.26742395 19.21183274 250.7421875 19.28979492 C222.05996051 19.37733209 193.37806186 19.42457763 164.69569278 19.41375428 C161.63659337 19.41273971 158.57749395 19.4118705 155.51839447 19.41109657 C154.76517539 19.41088015 154.0119563 19.41066372 153.2359124 19.41044074 C141.87085905 19.40802332 130.50616684 19.43725766 119.14121246 19.48271751 C106.21297375 19.53441219 93.28548279 19.54433298 80.35720494 19.49860891 C73.76096663 19.47642081 67.16592268 19.47473133 60.56977463 19.52467346 C54.52874723 19.56991275 48.49043674 19.55958096 42.44950733 19.5052977 C40.2665004 19.49537881 38.08328691 19.50565082 35.90050235 19.53834965 C17.89821613 19.78971052 17.89821613 19.78971052 11.46125798 13.79850673 C10.00449742 12.23657298 8.65467527 10.64242791 7.33571315 8.96323663 C5.10461929 6.13272679 2.80276977 4.22521373 0 2 C0 1.34 0 0.68 0 0 Z " fill="#F7D1CD" transform="translate(31,39)"/>
<path d="M0 0 C0.88623047 -0.020625 1.77246094 -0.04125 2.68554688 -0.0625 C8.32100888 -0.09587061 12.45138401 0.27966468 17.3125 3.25 C20.48425348 8.19373041 20.88976111 12.6307187 21.19140625 18.328125 C21.24837173 19.20438034 21.30533722 20.08063568 21.36402893 20.98344421 C21.54611928 23.82169596 21.71051502 26.66067883 21.875 29.5 C21.99777279 31.45394674 22.12196491 33.40780481 22.24755859 35.36157227 C22.49514507 39.22335415 22.73754333 43.08540273 22.97607422 46.94775391 C23.39812943 53.69958325 23.90419199 60.44353586 24.4375 67.1875 C24.51299072 68.15913086 24.58848145 69.13076172 24.66625977 70.13183594 C24.95330668 73.80422423 25.24085565 77.47531275 25.58007812 81.14331055 C26.2481132 88.49950618 26.52688547 95.80193778 26.5625 103.1875 C26.583125 104.28384766 26.60375 105.38019531 26.625 106.50976562 C26.63273437 108.0962793 26.63273437 108.0962793 26.640625 109.71484375 C26.6499707 110.659646 26.65931641 111.60444824 26.66894531 112.57788086 C26.23622001 115.82183869 25.30470215 117.66444835 23.3125 120.25 C20.43809968 121.12365072 18.00057922 121.66824493 15.0625 122.0625 C13.95455078 122.24329102 13.95455078 122.24329102 12.82421875 122.42773438 C8.1833971 123.14391056 4.11029881 123.25 -0.6875 123.25 C-1.6775 117.64 -2.6675 112.03 -3.6875 106.25 C-4.43 108.10625 -5.1725 109.9625 -5.9375 111.875 C-7.74500272 116.39375679 -9.46041333 120.5697015 -12.6875 124.25 C-15.56330018 124.78741316 -17.52681035 124.92086554 -20.375 124.75 C-21.11379395 124.72736084 -21.85258789 124.70472168 -22.61376953 124.68139648 C-41.65538168 123.92737277 -41.65538168 123.92737277 -49.6875 121.25 C-52.36010706 116.09952358 -53.65991084 110.8480701 -54.8125 105.1875 C-54.98426758 104.35331543 -55.15603516 103.51913086 -55.33300781 102.65966797 C-59.27201382 82.71605987 -61.24077304 55.12228038 -49.8125 37.125 C-44.67486972 30.29195173 -38.78436605 26.13346307 -30.234375 24.89453125 C-23.87794248 24.53381345 -19.46966371 26.02123078 -14.6875 30.25 C-13.32228486 31.89065328 -11.98222593 33.55316756 -10.6875 35.25 C-10.83146857 32.52072343 -10.97733502 29.79157759 -11.125 27.0625 C-11.16866699 26.24837646 -11.21233398 25.43425293 -11.25732422 24.59545898 C-11.58622428 18.63604743 -12.03994663 12.69640935 -12.6015625 6.75390625 C-12.6875 4.25 -12.6875 4.25 -11.6875 1.25 C-8.10172938 -0.54288531 -3.94870471 0.02248373 0 0 Z " fill="#FEF8F0" transform="translate(336.6875,360.75)"/>
<path d="M0 0 C1.32 0.33 2.64 0.66 4 1 C6.34771472 7.70775634 6.67728517 14.44377505 7.125 21.5 C7.20919189 22.79156006 7.29338379 24.08312012 7.38012695 25.41381836 C8.39132789 42.02025805 8.10582907 58.50596215 7.5625 75.125 C7.50388794 76.93206421 7.50388794 76.93206421 7.4440918 78.77563477 C7.40195557 79.90412842 7.35981934 81.03262207 7.31640625 82.1953125 C7.27974854 83.19578613 7.24309082 84.19625977 7.20532227 85.22705078 C7.00790354 87.89325993 6.58553197 90.39412973 6 93 C4.43621708 92.23177266 2.874034 91.46028836 1.3125 90.6875 C0.44238281 90.25824219 -0.42773438 89.82898438 -1.32421875 89.38671875 C-2.20722656 88.92910156 -3.09023438 88.47148437 -4 88 C-5.29973755 87.55624023 -5.29973755 87.55624023 -6.62573242 87.10351562 C-9.48623666 84.56921182 -9.40308037 83.87107859 -9.64697266 80.17504883 C-9.68018663 78.10263461 -9.68369399 76.02961863 -9.6640625 73.95703125 C-9.67123795 72.28419319 -9.67123795 72.28419319 -9.67855835 70.57756042 C-9.68196847 68.20102541 -9.67268884 65.82444419 -9.65185547 63.44799805 C-9.62563479 59.89843259 -9.6512876 56.35218664 -9.68359375 52.80273438 C-9.71210864 34.89397452 -8.80290465 16.00090524 0 0 Z " fill="#FDE5DE" transform="translate(324,230)"/>
<path d="M0 0 C4.73179391 3.96447598 6.90276144 7.89105016 8 14 C8.05230072 18.73695079 7.65070741 22.02393888 5 26 C4.34 26 3.68 26 3 26 C-1.31861985 17.80619002 -1.71543982 10.08960426 -1 1 C-0.67 0.67 -0.34 0.34 0 0 Z " fill="#FDE6DF" transform="translate(248,221)"/>
<path d="M0 0 C5.00147987 0 6.81156072 0.02896975 11 2 C10.60167969 2.50789063 10.20335937 3.01578125 9.79296875 3.5390625 C6.71433825 7.53903498 4.08404386 11.36879143 2 16 C1.67 16 1.34 16 1 16 C0.67 10.72 0.34 5.44 0 0 Z " fill="#FDE6DF" transform="translate(267,303)"/>
<path d="M0 0 C4.875 0.875 4.875 0.875 6 2 C6.47058824 8.23529412 6.47058824 8.23529412 4.5 11.4375 C4.005 11.953125 3.51 12.46875 3 13 C-0.875 11.125 -0.875 11.125 -2 10 C-2.35897436 3.53846154 -2.35897436 3.53846154 0 0 Z " fill="#FDE6DF" transform="translate(305,435)"/>
<path d="M0 0 C0.598125 0.226875 1.19625 0.45375 1.8125 0.6875 C3.0625 7.3125 3.0625 7.3125 0.8125 10.6875 C-4.0625 9.8125 -4.0625 9.8125 -5.1875 8.6875 C-5.64727011 3.40014368 -5.64727011 3.40014368 -3.9375 0.75 C-2.1875 -0.3125 -2.1875 -0.3125 0 0 Z " fill="#FDE6DF" transform="translate(188.1875,263.3125)"/>
<path d="M0 0 C0.99 0.33 1.98 0.66 3 1 C2.67 2.32 2.34 3.64 2 5 C1.01 5 0.02 5 -1 5 C-0.67 3.35 -0.34 1.7 0 0 Z " fill="#FDE8E1" transform="translate(453,346)"/>
</svg>
