<?xml version="1.0" encoding="UTF-8"?>
<svg version="1.1" xmlns="http://www.w3.org/2000/svg" width="320" height="320">
<path d="M0 0 C103.29 0 206.58 0 313 0 C313 101.64 313 203.28 313 308 C209.71 308 106.42 308 0 308 C0 206.36 0 104.72 0 0 Z " fill="#F49492" transform="translate(0,4)"/>
<path d="M0 0 C1.09570312 0.00902344 2.19140625 0.01804687 3.3203125 0.02734375 C4.58488281 0.04474609 4.58488281 0.04474609 5.875 0.0625 C6.37 1.0525 6.37 1.0525 6.875 2.0625 C7.535 1.4025 8.195 0.7425 8.875 0.0625 C11.703125 -0.16796875 11.703125 -0.16796875 15.125 -0.125 C16.80335938 -0.11533203 16.80335938 -0.11533203 18.515625 -0.10546875 C21.73322401 0.0554112 24.73606703 0.33348746 27.875 1.0625 C29.25167585 3.81585169 29.00471888 6.02312159 29.0078125 9.10546875 C29.00982666 10.38848877 29.01184082 11.67150879 29.01391602 12.9934082 C29.00980659 14.41227377 29.0051525 15.83113784 29 17.25 C28.99878143 17.96747406 28.99756287 18.68494812 28.99630737 19.42416382 C28.97172965 31.91119263 28.74696112 44.39205606 28.4375 56.875 C28.4179425 57.69825775 28.39838501 58.5215155 28.37823486 59.36972046 C28.15292894 68.6326188 27.79948336 77.83695013 26.875 87.0625 C22.39111986 85.6118329 18.0800936 84.21159765 13.875 82.0625 C13.84994385 80.74531982 13.8248877 79.42813965 13.79907227 78.07104492 C13.70499118 73.19008438 13.60477208 68.30926592 13.50268555 63.4284668 C13.45933936 61.3148938 13.41766406 59.20128586 13.37768555 57.08764648 C13.31997551 54.05181336 13.25628299 51.01615611 13.19140625 47.98046875 C13.17469376 47.03350632 13.15798126 46.08654388 13.14076233 45.11088562 C13.1108445 43.78985588 13.1108445 43.78985588 13.08032227 42.44213867 C13.05700584 41.27964851 13.05700584 41.27964851 13.03321838 40.09367371 C12.94144623 37.85917507 12.94144623 37.85917507 11.875 35.0625 C10.885 34.5675 10.885 34.5675 9.875 34.0625 C6.53528973 47.96745724 6.17022476 61.81341972 5.875 76.0625 C3.70625748 75.55646008 1.87532373 75.06266187 -0.125 74.0625 C0.36178223 74.76971191 0.84856445 75.47692383 1.35009766 76.20556641 C3.04095019 79.37341083 3.26110621 81.21439176 3.2734375 84.7734375 C3.27923828 86.39378906 3.27923828 86.39378906 3.28515625 88.046875 C3.27355469 89.16578125 3.26195312 90.2846875 3.25 91.4375 C3.26160156 92.54867187 3.27320313 93.65984375 3.28515625 94.8046875 C3.26304637 100.99545523 2.85207109 105.59666049 -0.125 111.0625 C-4.50153129 110.58629711 -6.19038005 109.39350111 -8.9375 106 C-9.54207031 105.26652344 -10.14664063 104.53304687 -10.76953125 103.77734375 C-11.21683594 103.21144531 -11.66414063 102.64554687 -12.125 102.0625 C-14.105 102.5575 -14.105 102.5575 -16.125 103.0625 C-16.19421476 115.78071256 -15.99032014 128.4748495 -15.625 141.1875 C-15.57659668 142.93619167 -15.52841867 144.68488959 -15.48046875 146.43359375 C-15.36456074 150.64330534 -15.24565874 154.85292201 -15.125 159.0625 C-20.58050918 158.36307575 -24.66500637 156.88249788 -30.125 155.0625 C-30.455 127.0125 -30.785 98.9625 -31.125 70.0625 C-29.64 69.5675 -29.64 69.5675 -28.125 69.0625 C-29.23875 67.825 -29.23875 67.825 -30.375 66.5625 C-38.71096897 56.47904745 -39.4806652 45.04788678 -39.44067383 32.41357422 C-39.43748497 30.30254773 -39.46114649 28.19288827 -39.48632812 26.08203125 C-39.48859904 24.72656425 -39.48930558 23.37109352 -39.48828125 22.015625 C-39.49126221 20.80036133 -39.49424316 19.58509766 -39.49731445 18.33300781 C-39.09142224 14.76754417 -38.26064738 12.91430606 -36.125 10.0625 C-32.57620826 7.54099008 -28.5311132 4.98958748 -24.0625 5.125 C-19.1367879 7.50840908 -17.14638314 12.76939928 -14.95703125 17.48828125 C-12.35731684 25.53152912 -12.7730912 34.45357441 -12.625 42.8125 C-12.57085937 44.10671875 -12.51671875 45.4009375 -12.4609375 46.734375 C-12.32585669 56.30581534 -14.51607798 62.32218761 -20.125 70.0625 C-19.465 70.0625 -18.805 70.0625 -18.125 70.0625 C-18.125 72.7025 -18.125 75.3425 -18.125 78.0625 C-17.465 78.0625 -16.805 78.0625 -16.125 78.0625 C-15.856875 77.27875 -15.58875 76.495 -15.3125 75.6875 C-14.125 73.0625 -14.125 73.0625 -11.125 71.0625 C-10.135 71.0625 -9.145 71.0625 -8.125 71.0625 C-8.125 47.9625 -8.125 24.8625 -8.125 1.0625 C-5.36047967 -0.31976016 -3.0788637 -0.03275387 0 0 Z " fill="#FEF7EF" transform="translate(147.125,79.9375)"/>
<path d="M0 0 C9.91640191 0.84037304 9.91640191 0.84037304 13 4 C13.74374549 7.47412514 13.67274856 10.90051321 13.63671875 14.44140625 C13.64709671 15.47885483 13.65747467 16.51630341 13.66816711 17.58518982 C13.69792228 20.91129326 13.69447218 24.23628732 13.6875 27.5625 C13.69642724 30.86340661 13.71256213 34.16401492 13.7389679 37.46482849 C13.75373365 39.51837727 13.75777607 41.57204169 13.74919128 43.62562561 C13.77410879 49.97353572 14.51818648 55.82673419 16 62 C17.571639 58.85672201 17.22063893 55.47447461 17.28125 52.01953125 C17.29965942 51.21448654 17.31806885 50.40944183 17.33703613 49.58000183 C17.39584685 46.99091001 17.44847032 44.40174625 17.5 41.8125 C17.73782921 30.17998425 18.09696559 18.60245784 19 7 C20.6681969 7.66282829 22.33457253 8.33024366 24 9 C24.73138184 9.27312012 25.46276367 9.54624023 26.21630859 9.82763672 C28.63988101 10.97873295 30.20767642 11.98695214 32 14 C33.09777418 18.38631686 32.84146154 22.63320344 32.625 27.125 C32.57533081 29.04300415 32.57533081 29.04300415 32.5246582 30.99975586 C32.40134146 35.00521157 32.21097806 38.99826996 32 43 C31.9395752 44.2566748 31.87915039 45.51334961 31.81689453 46.80810547 C31.63405061 50.39517075 31.42145278 53.97842424 31.1875 57.5625 C31.11805176 58.63580566 31.04860352 59.70911133 30.97705078 60.81494141 C30.47087386 67.23286389 29.36487173 73.23265859 27.67553711 79.44604492 C26.5124897 83.84309549 26.05186059 88.22209119 25.75 92.75 C25.06506767 98.29367107 22.46322722 103.05307553 20 108 C19.52433594 108.96550781 19.04867187 109.93101562 18.55859375 110.92578125 C17.38467193 113.29034742 16.19893667 115.64804338 15 118 C15.95261719 117.566875 16.90523437 117.13375 17.88671875 116.6875 C19.15343115 116.12451671 20.42037035 115.56204352 21.6875 115 C22.31333984 114.71382813 22.93917969 114.42765625 23.58398438 114.1328125 C27.19992767 112.54255472 30.04190849 111.63673348 34 112 C39.34045236 129.39658085 39.34045236 129.39658085 37 136 C31.46426895 145.10717043 18.75646934 150.71374493 9 154 C6.05883196 153.83400065 4.57707235 153.43439662 2.23046875 151.66796875 C-0.06152063 148.56104981 0.17984015 144.72668762 0 141 C-0.08765625 139.77023438 -0.1753125 138.54046875 -0.265625 137.2734375 C-0.82693956 126.31519726 1.86803191 119.19795213 8 110 C5.03 110.99 5.03 110.99 2 112 C1 111 1 111 0.8671875 108.8828125 C0.88610853 102.20368962 1.28077434 95.63999405 2 89 C3.98 88.505 3.98 88.505 6 88 C5.54625 87.319375 5.0925 86.63875 4.625 85.9375 C-1.04578359 75.68646813 -0.13894323 63.68125507 -0.09765625 52.34375 C-0.0957883 50.83060757 -0.09436618 49.31746454 -0.09336853 47.80432129 C-0.08957306 43.84568577 -0.07976854 39.88708766 -0.06866455 35.9284668 C-0.05838618 31.87939968 -0.05385721 27.83032644 -0.04882812 23.78125 C-0.03814326 15.85414961 -0.02110302 7.92707947 0 0 Z " fill="#FEF6EE" transform="translate(179,83)"/>
<path d="M0 0 C0.55296787 6.15219985 1.1042462 12.30454807 1.65405273 18.45703125 C1.84077853 20.54398551 2.02794212 22.63090064 2.21557617 24.71777344 C2.39778985 26.7449613 2.57940591 28.77220298 2.76040649 30.79949951 C2.93777936 32.78598643 3.11646131 34.77235691 3.29647827 36.75860596 C3.67278562 40.97387207 4.03037324 45.1823776 4.24658203 49.40917969 C4.34302002 51.2601123 4.34302002 51.2601123 4.44140625 53.1484375 C4.48080322 54.17888184 4.5202002 55.20932617 4.56079102 56.27099609 C5.06940051 59.4312167 6.23134848 61.36005912 8 64 C9.3574271 67.7250325 9.20357509 71.56935755 9.25 75.5 C9.27578125 76.8096875 9.3015625 78.119375 9.328125 79.46875 C8.99149371 83.09154393 8.48706663 84.43439442 6 87 C0.25 86.25 0.25 86.25 -2 84 C-2.99 84 -3.98 84 -5 84 C-6.42597611 86.85195222 -6.1320252 89.32461175 -6.125 92.5 C-6.12757812 93.6653125 -6.13015625 94.830625 -6.1328125 96.03125 C-6.2048431 98.92930786 -6.2048431 98.92930786 -5 101 C-1.94255926 99.98085309 -0.20235223 99.22132275 2 96.8125 C4 95 4 95 6.5625 94.875 C9 96 9 96 10.8125 98.3125 C13.16031034 105.60306895 13.08718618 112.51675755 9.8125 119.5 C7.23226366 124.02813307 4.70659685 127.12733293 -0.38671875 128.76953125 C-3.77806262 129.06861838 -4.71428197 128.2624737 -7.3125 126.125 C-15.72878659 119.04129212 -22.84089276 111.62372678 -24.36401367 100.29174805 C-24.49832118 97.5164733 -24.49779808 94.77760168 -24.4375 92 C-24.44458984 91.07960938 -24.45167969 90.15921875 -24.45898438 89.2109375 C-24.37623728 80.17240911 -22.52807481 72.24368423 -17 65 C-17.5775 64.773125 -18.155 64.54625 -18.75 64.3125 C-23.48362631 61.55121798 -25.85746077 56.89723252 -28 52 C-29.78204553 44.99471755 -30.59111393 34.94864768 -27.875 28.0625 C-21.40022548 17.48703495 -21.40022548 17.48703495 -17.125 16 C-16.42375 16 -15.7225 16 -15 16 C-15.144375 15.319375 -15.28875 14.63875 -15.4375 13.9375 C-14.66133275 8.72609133 -10.28926188 5.76733084 -6.26953125 2.6640625 C-2.44348404 0 -2.44348404 0 0 0 Z " fill="#FEF5EE" transform="translate(103,96)"/>
<path d="M0 0 C103.29 0 206.58 0 313 0 C313 101.64 313 203.28 313 308 C209.71 308 106.42 308 0 308 C0 206.36 0 104.72 0 0 Z M1 3 C1 102.99 1 202.98 1 306 C103.3 306 205.6 306 311 306 C311 206.01 311 106.02 311 3 C208.7 3 106.4 3 1 3 Z " fill="#381D18" transform="translate(0,4)"/>
<path d="M0 0 C5.55143269 5.86865742 7.5 10.71697007 7.5 18.875 C7.42048562 21.02188818 7.32473862 23.16852776 7.1875 25.3125 C6.1975 25.8075 6.1975 25.8075 5.1875 26.3125 C4.5275 25.9825 3.8675 25.6525 3.1875 25.3125 C1.18789988 25.272508 -0.81297242 25.26903201 -2.8125 25.3125 C-3.1425 25.9725 -3.4725 26.6325 -3.8125 27.3125 C-6.1265622 28.04325648 -8.46078869 28.71388258 -10.8125 29.3125 C-10.895 30.26125 -10.9775 31.21 -11.0625 32.1875 C-11.8125 35.3125 -11.8125 35.3125 -13.875 36.6875 C-14.514375 36.89375 -15.15375 37.1 -15.8125 37.3125 C-16.1079439 42.33504631 -15.79764628 45.20792386 -12.8125 49.3125 C-18.46235069 52.95286771 -26.37563057 51.81158133 -32.8125 51.3125 C-39.68280972 49.69233741 -43.18927356 45.09160261 -46.8125 39.3125 C-47.43125 38.36375 -48.05 37.415 -48.6875 36.4375 C-51.52425128 28.55763532 -49.92795506 19.91198503 -46.8125 12.3125 C-42.24832495 4.36322846 -34.69520258 -2.55904547 -25.75 -5.125 C-15.77615544 -6.54983494 -8.74018664 -5.24411198 0 0 Z " fill="#FEF7EF" transform="translate(283.8125,228.6875)"/>
<path d="M0 0 C12.42449996 -0.36904455 12.42449996 -0.36904455 14.63671875 1.04956055 C16.68098361 3.97427975 16.70536097 7.03984849 16.94921875 10.5 C17.01178864 11.24435806 17.07435852 11.98871613 17.13882446 12.75563049 C17.33668762 15.16950137 17.51328982 17.58431536 17.6875 20 C17.81452304 21.64706748 17.94172033 23.29412153 18.0690918 24.94116211 C18.709045 33.47307727 19.27488294 42.00330677 19.3125 50.5625 C19.31789795 51.30306641 19.3232959 52.04363281 19.32885742 52.80664062 C19.27835412 56.42179873 19.06374328 57.90438509 17 61 C14.1796875 61.51171875 14.1796875 61.51171875 10.875 61.6875 C9.23144531 61.78611328 9.23144531 61.78611328 7.5546875 61.88671875 C6.71164063 61.92410156 5.86859375 61.96148437 5 62 C5 58.7 5 55.4 5 52 C4.34 52 3.68 52 3 52 C2.87625 52.9075 2.7525 53.815 2.625 54.75 C2.0724341 57.62334269 1.35517759 59.46592809 0 62 C-2.22909871 62.02714735 -4.45829367 62.04646254 -6.6875 62.0625 C-7.92886719 62.07410156 -9.17023438 62.08570313 -10.44921875 62.09765625 C-13.46235454 62.01478673 -16.08275339 61.70839449 -19 61 C-23.31406114 47.51516739 -25.7960591 32.48565144 -20 19 C-17.1630368 15.3418106 -14.53694736 13.08022556 -10 12 C-5.07178954 12.25490744 -3.56315478 12.43684522 0 16 C0 10.72 0 5.44 0 0 Z " fill="#FEF6EE" transform="translate(158,180)"/>
<path d="M0 0 C4.06792164 2.03396082 6.89165976 3.96113135 9 8 C9.40313102 11.05085571 9.30565025 13.94349754 9 17 C10.98 17.33 12.96 17.66 15 18 C15.02694851 19.95825873 15.04637218 21.91662226 15.0625 23.875 C15.07410156 24.96554688 15.08570313 26.05609375 15.09765625 27.1796875 C15 30 15 30 14 32 C12.02 32 10.04 32 8 32 C8.33 35.63 8.66 39.26 9 43 C9.66 43 10.32 43 11 43 C10.9690625 41.2984375 10.9690625 41.2984375 10.9375 39.5625 C11 36 11 36 12 35 C15.5 34.875 15.5 34.875 19 35 C20 36 20 36 20.01953125 38.00390625 C19.32445341 46.5940192 16.69080486 52.49622302 11 59 C11.309375 59.61875 11.61875 60.2375 11.9375 60.875 C13.96121662 64.92243324 14.55028483 67.36188503 14 72 C12.66015625 73.4296875 12.66015625 73.4296875 11 74.6875 C10.01 75.450625 9.02 76.21375 8 77 C8 78.32 8 79.64 8 81 C10.31 78.36 12.62 75.72 15 73 C16.65 73.33 18.3 73.66 20 74 C20.93673465 85.88265247 18.66169075 92.74352031 11.625 102.1875 C11.08875 102.785625 10.5525 103.38375 10 104 C7.31244347 103.92095422 5.53188196 103.45570449 3.47265625 101.69140625 C-3.21096685 94.32751617 -5.67978886 86.71844008 -5.5 76.875 C-5.51546875 76.02035156 -5.5309375 75.16570312 -5.546875 74.28515625 C-5.52011023 69.92919039 -5.25136258 66.94826916 -2.84375 63.2578125 C-0.59805658 60.16071719 -0.59805658 60.16071719 -1.73828125 57.0234375 C-2.15464844 56.02570313 -2.57101563 55.02796875 -3 54 C-3.49383498 46.31626248 -3.24091752 38.6006198 -2 31 C-3.32 31 -4.64 31 -6 31 C-6 25.72 -6 20.44 -6 15 C-4.35 14.67 -2.7 14.34 -1 14 C-0.67 9.38 -0.34 4.76 0 0 Z " fill="#FEF5ED" transform="translate(218,104)"/>
<path d="M0 0 C1.32 0 2.64 0 4 0 C5.00399524 2.62353518 6.00334445 5.24867795 7 7.875 C7.42925781 8.99455078 7.42925781 8.99455078 7.8671875 10.13671875 C10 15.7734375 10 15.7734375 10 18 C10.73605469 17.69964844 11.47210938 17.39929688 12.23046875 17.08984375 C13.20628906 16.70957031 14.18210937 16.32929687 15.1875 15.9375 C16.15042969 15.55464844 17.11335938 15.17179687 18.10546875 14.77734375 C21.20934675 13.94377867 22.94919117 14.11320182 26 15 C25.76225893 18.92272768 24.48415582 20.73985136 21.875 23.5 C19.45525305 26.06586105 19.45525305 26.06586105 18.875 29.4375 C19.92597106 31.91831207 19.92597106 31.91831207 21.015625 33.91015625 C24.03369896 39.59561248 24.03369896 39.59561248 23.75 43 C23.5025 43.66 23.255 44.32 23 45 C18.61667943 44.17812739 14.32059823 43.09845718 10 42 C9.7525 42.680625 9.505 43.36125 9.25 44.0625 C7.75802092 47.56865083 5.93164489 50.71620368 4 54 C3.01 53.67 2.02 53.34 1 53 C1 47.06 1 41.12 1 35 C-1.31 34.67 -3.62 34.34 -6 34 C-8.4375 32.75 -8.4375 32.75 -10 31 C-10.25 28.3125 -10.25 28.3125 -10 26 C-8 25 -8 25 -1 25 C-0.67 16.75 -0.34 8.5 0 0 Z " fill="#FEF4EC" transform="translate(23,56)"/>
<path d="M0 0 C1.75 0.875 1.75 0.875 2.75 1.875 C3.125 4.625 3.125 4.625 2.75 7.875 C0.3125 10.5625 0.3125 10.5625 -2.25 12.875 C-3.56886422 16.83159266 -3.51518132 19.69839427 -3.25 23.875 C-2.26 24.535 -1.27 25.195 -0.25 25.875 C-0.3325 24.8025 -0.415 23.73 -0.5 22.625 C-0.25 18.875 -0.25 18.875 1.375 16.375 C3.75 14.875 3.75 14.875 6.875 15 C9.75 15.875 9.75 15.875 11.75 17.875 C12.05078125 20.1171875 12.05078125 20.1171875 12.0625 22.75 C12.08763672 24.04550781 12.08763672 24.04550781 12.11328125 25.3671875 C11.68286955 28.33841663 10.81006738 29.71969836 8.75 31.875 C8.09 31.875 7.43 31.875 6.75 31.875 C7.90684329 33.9745533 7.90684329 33.9745533 9.75 35.875 C12.16263295 36.62585106 12.16263295 36.62585106 14.75 35.875 C15.9875 34.6065625 15.9875 34.6065625 17.25 33.3125 C18.075 32.508125 18.9 31.70375 19.75 30.875 C22.5625 31.0625 22.5625 31.0625 24.75 31.875 C24.49385063 36.22953922 24.17722153 38.37109768 21.3125 41.75 C17.45346069 44.95017894 14.98254306 45.27802871 10.078125 45.22265625 C6.04192966 44.61993581 4.44236327 42.90390867 1.75 39.875 C0.875 37.0625 0.875 37.0625 0.75 34.875 C0.028125 34.813125 -0.69375 34.75125 -1.4375 34.6875 C-5.12798635 33.6213595 -6.74572729 31.72708836 -9.25 28.875 C-11.80024793 23.77450413 -10.82820733 15.82067039 -9.75390625 10.34765625 C-8.22783541 5.85566242 -5.4027281 -0.30015156 0 0 Z " fill="#FEF4EC" transform="translate(28.25,235.125)"/>
<path d="M0 0 C3 2 3 2 3.68359375 3.796875 C4.04479998 6.31194061 4.09592646 8.70958935 4.0625 11.25 C4.05347656 12.14203125 4.04445313 13.0340625 4.03515625 13.953125 C4.02355469 14.62859375 4.01195312 15.3040625 4 16 C0.125 15.125 0.125 15.125 -1 14 C-1.14115161 11.32941149 -1.04247107 8.67567762 -1 6 C-1.66 6 -2.32 6 -3 6 C-3 9.3 -3 12.6 -3 16 C-3.7425 16.144375 -4.485 16.28875 -5.25 16.4375 C-7.92165768 16.94746381 -7.92165768 16.94746381 -10.1875 17.625 C-12 18 -12 18 -14 17 C-14.33 17.99 -14.66 18.98 -15 20 C-21.41868512 20.48442907 -21.41868512 20.48442907 -23.875 18.4375 C-25.31379166 15.32011808 -25.67296599 12.4011537 -26 9 C-24.35 8.67 -22.7 8.34 -21 8 C-20.67 7.01 -20.34 6.02 -20 5 C-19.443125 5.2475 -18.88625 5.495 -18.3125 5.75 C-15.8131231 6.2887033 -15.8131231 6.2887033 -13.625 4.1875 C-12.75875 3.465625 -11.8925 2.74375 -11 2 C-7.24564096 0.43568373 -4.06898479 -0.43989025 0 0 Z " fill="#FEF1E9" transform="translate(279,45)"/>
<path d="M0 0 C2.625 0.375 2.625 0.375 4.4375 2.4375 C5.84801242 5.9266623 5.84443084 8.6446758 5.625 12.375 C4.305 12.375 2.985 12.375 1.625 12.375 C1.295 11.715 0.965 11.055 0.625 10.375 C0.295 11.365 -0.035 12.355 -0.375 13.375 C-1.695 13.045 -3.015 12.715 -4.375 12.375 C-4.705 13.365 -5.035 14.355 -5.375 15.375 C-9.002651 16.94148566 -12.438635 18.1197177 -16.375 17.375 C-18.45614878 14.86326871 -19.26637335 12.94528989 -19.875 9.75 C-19.375 7.375 -19.375 7.375 -17.5625 5.75 C-13.6922237 4.08046905 -9.78858858 3.03934155 -5.703125 2.0234375 C-3.21419468 1.33021194 -2.55868525 0.40400293 0 0 Z " fill="#FEEEE7" transform="translate(292.375,63.625)"/>
<path d="M0 0 C1.32 0.33 2.64 0.66 4 1 C5.27887477 4.95007287 5.22041893 8.95442874 5.25 13.0625 C5.270625 13.78244141 5.29125 14.50238281 5.3125 15.24414062 C5.35141119 20.48255975 5.35141119 20.48255975 3.65234375 22.984375 C1.3800317 24.38106799 -0.38825859 24.21176282 -3 24 C-3.33 22.68 -3.66 21.36 -4 20 C-2.68 19.34 -1.36 18.68 0 18 C0 16.68 0 15.36 0 14 C-0.928125 13.8453125 -0.928125 13.8453125 -1.875 13.6875 C-4 13 -4 13 -6 10 C-6.07905064 7.66800612 -6.08798769 5.33167378 -6 3 C-4.68 3 -3.36 3 -2 3 C-1.34 2.01 -0.68 1.02 0 0 Z " fill="#FEF0E9" transform="translate(247,50)"/>
<path d="M0 0 C0.99 0 1.98 0 3 0 C3 2.64 3 5.28 3 8 C3.66 8 4.32 8 5 8 C5 8.66 5 9.32 5 10 C6.32 10 7.64 10 9 10 C9 11.32 9 12.64 9 14 C7.35 14.66 5.7 15.32 4 16 C3.67 19.63 3.34 23.26 3 27 C2.01 27 1.02 27 0 27 C-0.33 23.37 -0.66 19.74 -1 16 C-2.65 15.67 -4.3 15.34 -6 15 C-5.75 12.625 -5.75 12.625 -5 10 C-4.01 9.5978125 -4.01 9.5978125 -3 9.1875 C-0.81578805 8.20919068 -0.81578805 8.20919068 -0.515625 6.10546875 C-0.27410349 4.0773984 -0.13149443 2.03816368 0 0 Z " fill="#FEF0E8" transform="translate(55,28)"/>
<path d="M0 0 C0.99 0.33 1.98 0.66 3 1 C3 3.97 3 6.94 3 10 C3.66 10 4.32 10 5 10 C5 10.99 5 11.98 5 13 C6.65 13 8.3 13 10 13 C10 13.99 10 14.98 10 16 C8.35 16.33 6.7 16.66 5 17 C4.67 20.3 4.34 23.6 4 27 C3.01 27.33 2.02 27.66 1 28 C0.67 24.7 0.34 21.4 0 18 C-1.98 17.67 -3.96 17.34 -6 17 C-6 15.68 -6 14.36 -6 13 C-4.68 13 -3.36 13 -2 13 C-1.34 8.71 -0.68 4.42 0 0 Z " fill="#FDEDE6" transform="translate(292,191)"/>
<path d="M0 0 C2.875 0.9375 2.875 0.9375 4.875 3.9375 C5.34149698 7.59172636 5.34496298 9.27607062 3.1875 12.3125 C0.875 13.9375 0.875 13.9375 -1.6875 14.375 C-4.125 13.9375 -4.125 13.9375 -5.9375 12.875 C-7.82143714 9.80120782 -7.55680709 7.45364342 -7.125 3.9375 C-4.93889371 0.57425955 -4.04330284 -0.08086606 0 0 Z " fill="#FEF0E9" transform="translate(67.125,245.0625)"/>
<path d="M0 0 C0.80674061 3.57828496 1.1893828 6.95765945 1.25 10.625 C1.28867187 12.03652344 1.28867187 12.03652344 1.328125 13.4765625 C1 16 1 16 -0.265625 17.8359375 C-2 19 -2 19 -6 19 C-5.67 17.35 -5.34 15.7 -5 14 C-4.34 14 -3.68 14 -3 14 C-3 13.01 -3 12.02 -3 11 C-3.639375 10.87625 -4.27875 10.7525 -4.9375 10.625 C-5.618125 10.41875 -6.29875 10.2125 -7 10 C-8.4783226 7.04335481 -8.06032783 4.25770263 -8 1 C-3.375 -1.125 -3.375 -1.125 0 0 Z " fill="#FDECE5" transform="translate(271,69)"/>
<path d="M0 0 C0.03738281 0.69867188 0.07476562 1.39734375 0.11328125 2.1171875 C0.21189453 3.48230469 0.21189453 3.48230469 0.3125 4.875 C0.39951172 6.23238281 0.39951172 6.23238281 0.48828125 7.6171875 C0.7882039 10.36221601 0.7882039 10.36221601 4 12 C-3.27099664 14.70548712 -3.27099664 14.70548712 -7 14 C-9.08114878 11.48826871 -9.89137335 9.57028989 -10.5 6.375 C-10 4 -10 4 -7.75 2.25 C-2.8 0 -2.8 0 0 0 Z " fill="#FDE5DE" transform="translate(283,67)"/>
<path d="M0 0 C1.65 0 3.3 0 5 0 C6.26305335 5.07476794 7.27036084 9.72796354 7 15 C5.68 15.33 4.36 15.66 3 16 C0.96780512 12.59648662 0.63108961 9.6767073 0.375 5.75 C0.30023438 4.67234375 0.22546875 3.5946875 0.1484375 2.484375 C0.09945313 1.66453125 0.05046875 0.8446875 0 0 Z " fill="#FDE9E2" transform="translate(285,31)"/>
<path d="M0 0 C2.4375 0.1875 2.4375 0.1875 3.4375 1.1875 C3.625 4.125 3.625 4.125 3.4375 7.1875 C2.7775 7.8475 2.1175 8.5075 1.4375 9.1875 C-3.11805556 8.63194444 -3.11805556 8.63194444 -4.5625 7.1875 C-4.75 4.75 -4.75 4.75 -4.5625 2.1875 C-2.5625 0.1875 -2.5625 0.1875 0 0 Z " fill="#FDEDE6" transform="translate(78.5625,264.8125)"/>
<path d="M0 0 C0.33 0 0.66 0 1 0 C1 6.93 1 13.86 1 21 C0.34 21 -0.32 21 -1 21 C-1 23.31 -1 25.62 -1 28 C-1.33 28 -1.66 28 -2 28 C-4.17073039 13.07622858 -4.17073039 13.07622858 -1 7 C-0.61250787 4.67504723 -0.27017161 2.34148732 0 0 Z " fill="#F8B4B0" transform="translate(107,99)"/>
<path d="M0 0 C0.6875 2.3125 0.6875 2.3125 1 5 C-0.125 6.875 -0.125 6.875 -2 8 C-4.6875 7.6875 -4.6875 7.6875 -7 7 C-7.6875 5.1875 -7.6875 5.1875 -8 3 C-5.85915306 -0.33020635 -3.75910189 -0.30479204 0 0 Z " fill="#F69F9C" transform="translate(266,248)"/>
<path d="M0 0 C5.41538462 -0.36923077 5.41538462 -0.36923077 8.375 1.5 C8.91125 1.995 9.4475 2.49 10 3 C8.02 3.33 6.04 3.66 4 4 C3.67 6.31 3.34 8.62 3 11 C2.34 11 1.68 11 1 11 C-0.28317892 7.15046324 -0.06643637 4.05261865 0 0 Z " fill="#F7AAA7" transform="translate(226,136)"/>
<path d="M0 0 C0.99 0 1.98 0 3 0 C3 4.62 3 9.24 3 14 C2.01 13.67 1.02 13.34 0 13 C0 8.71 0 4.42 0 0 Z " fill="#FDEDE5" transform="translate(296,36)"/>
<path d="M0 0 C0.66 0 1.32 0 2 0 C4.20914 3.31371 4.22481553 4.3446021 4.125 8.1875 C4.10695313 9.08855469 4.08890625 9.98960938 4.0703125 10.91796875 C4.03550781 11.94857422 4.03550781 11.94857422 4 13 C3.34 13 2.68 13 2 13 C-0.24828052 8.50343896 -0.16682272 4.92127034 0 0 Z " fill="#F6A4A1" transform="translate(119,110)"/>
<path d="M0 0 C0.66 0.66 1.32 1.32 2 2 C0.85760183 3.33627775 -0.28901055 4.66895388 -1.4375 6 C-2.07558594 6.7425 -2.71367187 7.485 -3.37109375 8.25 C-3.90863281 8.8275 -4.44617188 9.405 -5 10 C-5.33 10 -5.66 10 -6 10 C-6.375 7.8125 -6.375 7.8125 -6 5 C-4.16038352 3.00977164 -2.20813852 1.61010101 0 0 Z " fill="#F6A09E" transform="translate(231,176)"/>
<path d="M0 0 C0.33 0 0.66 0 1 0 C1.22142255 1.95689659 1.4267568 3.91561952 1.625 5.875 C1.74101562 6.96554688 1.85703125 8.05609375 1.9765625 9.1796875 C1.98429687 10.11039063 1.99203125 11.04109375 2 12 C1.34 12.66 0.68 13.32 0 14 C-0.19456705 12.04235617 -0.38044247 10.08384679 -0.5625 8.125 C-0.66691406 7.03445312 -0.77132813 5.94390625 -0.87890625 4.8203125 C-1 2 -1 2 0 0 Z " fill="#F9C6C1" transform="translate(264,50)"/>
<path d="M0 0 C0.99 0 1.98 0 3 0 C3 1.65 3 3.3 3 5 C1.68 5 0.36 5 -1 5 C-0.67 3.35 -0.34 1.7 0 0 Z " fill="#F6A19F" transform="translate(148,217)"/>
<path d="M0 0 C1.74627478 2.61941217 2.38722388 4.03824877 3 7 C2.34 7 1.68 7 1 7 C0.67 7.66 0.34 8.32 0 9 C-1.125 2.25 -1.125 2.25 0 0 Z " fill="#F7AFAB" transform="translate(214,193)"/>
<path d="M0 0 C1.32 0.33 2.64 0.66 4 1 C3.67 2.32 3.34 3.64 3 5 C2.01 5 1.02 5 0 5 C0 3.35 0 1.7 0 0 Z " fill="#FCDDD6" transform="translate(290,51)"/>
<path d="M0 0 C1.32 0.33 2.64 0.66 4 1 C3.67 2.32 3.34 3.64 3 5 C3 4.01 3 3.02 3 2 C1.35 3.32 -0.3 4.64 -2 6 C-1.34 4.02 -0.68 2.04 0 0 Z " fill="#FCDCD6" transform="translate(247,50)"/>
</svg>
