<?xml version="1.0" encoding="UTF-8"?>
<svg version="1.1" xmlns="http://www.w3.org/2000/svg" width="960" height="320">
<path d="M0 0 C0.64836012 -0.00140232 1.29672024 -0.00280463 1.96472764 -0.00424945 C4.1687031 -0.00776903 6.37261022 -0.00407248 8.57658482 -0.00049198 C10.16690689 -0.00153373 11.75722873 -0.00301395 13.34755003 -0.00489634 C17.7584896 -0.0088229 22.16940753 -0.00644355 26.58034678 -0.00311839 C31.36362699 -0.0005982 36.14690369 -0.003835 40.93018341 -0.00636172 C49.32698168 -0.00998688 57.72377352 -0.00985562 66.12057209 -0.00731456 C78.60650215 -0.00354623 91.09242675 -0.00545842 103.57835677 -0.00852287 C125.87274271 -0.01380054 148.16712579 -0.01332748 170.461512 -0.01044396 C189.9711783 -0.00793285 209.48084356 -0.00726962 228.99050999 -0.0084666 C230.92830199 -0.00858118 230.92830199 -0.00858118 232.9052413 -0.00869807 C238.14873364 -0.00900939 243.39222598 -0.00932778 248.63571831 -0.00965784 C263.29473842 -0.01056956 277.95375853 -0.01114548 292.61277866 -0.01144397 C293.61420218 -0.01146444 293.61420218 -0.01146444 294.63585648 -0.01148532 C315.91870155 -0.01189479 337.20154626 -0.01076676 358.48439121 -0.00859439 C359.52029022 -0.00848902 359.52029022 -0.00848902 360.57711649 -0.00838152 C371.79300347 -0.00723648 383.00889044 -0.00601706 394.22477741 -0.00479134 C438.71221052 0.00006524 483.19964062 -0.00016017 527.68707371 -0.00502193 C538.89721266 -0.00624305 550.10735162 -0.00745408 561.31749058 -0.00859439 C562.35277198 -0.00870007 562.35277198 -0.00870007 563.40896815 -0.00880787 C584.66901319 -0.01096307 605.92905798 -0.01187852 627.18910313 -0.01144397 C628.18979739 -0.0114236 628.18979739 -0.0114236 629.2107077 -0.01140281 C644.51007466 -0.01107636 659.80944159 -0.01037268 675.10880852 -0.00940967 C680.34299628 -0.00908893 685.57718404 -0.00877609 690.8113718 -0.0084666 C692.10025413 -0.00838752 693.38913645 -0.00830845 694.71707582 -0.00822697 C714.21910965 -0.00708734 733.72114233 -0.00842379 753.223176 -0.01094615 C775.38785129 -0.01379853 797.55252326 -0.01310533 819.71719813 -0.00766541 C832.13677341 -0.00471818 844.55634151 -0.00455314 856.97591661 -0.00831159 C865.25569803 -0.01054185 873.53547367 -0.00918054 881.81525423 -0.00480682 C886.54345429 -0.00241157 891.27164002 -0.00164847 895.99983966 -0.0052128 C900.29127679 -0.00841514 904.58268673 -0.00711173 908.87412183 -0.00203214 C910.42648178 -0.00101525 911.97884392 -0.00171616 913.53120215 -0.00423808 C915.62146265 -0.00739596 917.71162599 -0.00452095 919.80188179 0 C921.54579951 0.00010164 921.54579951 0.00010164 923.32494789 0.00020533 C925.9009409 0.12534916 925.9009409 0.12534916 926.9009409 1.12534916 C926.99901588 2.77685128 927.02649653 4.43257693 927.02678204 6.08698857 C927.03069366 7.70882904 927.03069366 7.70882904 927.0346843 9.36343396 C927.03245358 10.56603297 927.03022286 11.76863198 927.02792454 13.00767338 C927.02948453 14.27372347 927.03104452 15.53977356 927.03265178 16.84418881 C927.0368495 20.37449562 927.03475243 23.90477561 927.03166556 27.43508255 C927.02941347 31.23607584 927.03289012 35.03706434 927.03564548 38.83805668 C927.04010423 46.29058074 927.03912625 53.74309476 927.03623284 61.19561923 C927.03397922 67.24965033 927.03366611 73.3036786 927.03475666 79.35771 C927.03498651 80.64761666 927.03498651 80.64761666 927.035221 81.96358204 C927.03554071 83.71024478 927.03586492 85.45690751 927.03619359 87.20357025 C927.03904869 103.60204997 927.0357609 120.00052411 927.03039323 136.39900291 C927.02592516 150.48552217 927.02670109 164.57203318 927.03131199 178.65855229 C927.03665723 194.99627454 927.038774 211.3339919 927.03569973 227.6717149 C927.03538116 229.41213938 927.03506679 231.15256385 927.03475666 232.89298832 C927.03460238 233.74942681 927.03444811 234.60586529 927.03428916 235.48825645 C927.03342385 241.53865492 927.03488717 247.5890503 927.03723621 253.63944829 C927.04003385 261.00763491 927.03929672 268.37581087 927.03395547 275.74399626 C927.03131796 279.50707822 927.03031421 283.27014238 927.03360462 287.03322423 C927.03710966 291.10317347 927.03293941 295.17307731 927.02792454 299.24302495 C927.03015526 300.44562396 927.03238598 301.64822297 927.0346843 302.88726437 C927.03207655 303.96849135 927.02946881 305.04971833 927.02678204 306.16370976 C927.02661968 307.10449439 927.02645733 308.04527901 927.02629006 309.01457226 C926.9009409 311.12534916 926.9009409 311.12534916 925.9009409 312.12534916 C923.8698872 312.2240194 921.83533081 312.25057981 919.80188179 312.25069833 C918.82934161 312.2528018 918.82934161 312.2528018 917.83715415 312.25494777 C915.63317869 312.25846736 913.42927157 312.25477081 911.22529697 312.2511903 C909.6349749 312.25223206 908.04465306 312.25371227 906.45433176 312.25559467 C902.0433922 312.25952122 897.63247426 312.25714188 893.22153501 312.25381672 C888.4382548 312.25129653 883.6549781 312.25453333 878.87169838 312.25706005 C870.47490011 312.26068521 862.07810827 312.26055395 853.6813097 312.25801289 C841.19537964 312.25424456 828.70945504 312.25615675 816.22352502 312.2592212 C793.92913908 312.26449887 771.634756 312.26402581 749.34036979 312.26114229 C729.83070349 312.25863118 710.32103823 312.25796794 690.8113718 312.25916493 C688.8735798 312.25927951 688.8735798 312.25927951 686.89664049 312.2593964 C681.65314815 312.25970771 676.40965581 312.26002611 671.16616348 312.26035616 C656.50714337 312.26126789 641.84812326 312.26184381 627.18910313 312.2621423 C626.52148745 312.26215595 625.85387177 312.26216959 625.16602531 312.26218365 C603.88318024 312.26259311 582.60033553 312.26146508 561.31749058 312.25929272 C560.62689124 312.25922247 559.9362919 312.25915222 559.2247653 312.25907985 C548.00887832 312.25793481 536.79299135 312.25671539 525.57710438 312.25548967 C481.08967127 312.25063309 436.60224117 312.2508585 392.11480808 312.25572026 C380.90466913 312.25694138 369.69453017 312.25815241 358.48439121 312.25929272 C357.79420361 312.25936317 357.10401601 312.25943362 356.39291364 312.2595062 C335.1328686 312.2616614 313.87282381 312.26257685 292.61277866 312.2621423 C291.6120844 312.26212192 291.6120844 312.26212192 290.59117409 312.26210114 C275.29180713 312.26177468 259.9924402 312.26107101 244.69307327 312.26010799 C239.45888551 312.25978725 234.22469775 312.25947442 228.99050999 312.25916493 C227.70162766 312.25908585 226.41274534 312.25900677 225.08480597 312.2589253 C205.58277214 312.25778567 186.08073946 312.25912212 166.57870579 312.26164448 C144.4140305 312.26449686 122.24935853 312.26380366 100.08468366 312.25836374 C87.66510838 312.2554165 75.24554028 312.25525147 62.82596518 312.25900991 C54.54618376 312.26124018 46.26640812 312.25987886 37.98662756 312.25550514 C33.2584275 312.2531099 28.53024177 312.2523468 23.80204213 312.25591113 C19.510605 312.25911346 15.21919506 312.25781006 10.92775996 312.25273047 C9.37540001 312.25171358 7.82303787 312.25241449 6.27067964 312.2549364 C4.18041914 312.25809429 2.0902558 312.25521927 0 312.25069833 C-1.74391772 312.25059669 -1.74391772 312.25059669 -3.5230661 312.250493 C-6.0990591 312.12534916 -6.0990591 312.12534916 -7.0990591 311.12534916 C-7.19713409 309.47384704 -7.22461474 307.8181214 -7.22490025 306.16370976 C-7.22750799 305.08248278 -7.23011574 304.0012558 -7.23280251 302.88726437 C-7.23057179 301.68466536 -7.22834107 300.48206635 -7.22604275 299.24302495 C-7.22760274 297.97697485 -7.22916273 296.71092476 -7.23076999 295.40650952 C-7.23496771 291.87620271 -7.23287064 288.34592272 -7.22978377 284.81561577 C-7.22753168 281.01462249 -7.23100833 277.21363399 -7.23376369 273.41264164 C-7.23822244 265.96011758 -7.23724446 258.50760356 -7.23435105 251.0550791 C-7.23209743 245.001048 -7.23178432 238.94701972 -7.23287487 232.89298832 C-7.2330281 232.03305055 -7.23318134 231.17311278 -7.23333921 230.28711629 C-7.23365892 228.54045355 -7.23398313 226.79379082 -7.2343118 225.04712808 C-7.2371669 208.64864836 -7.23387911 192.25017422 -7.22851144 175.85169542 C-7.22404337 161.76517616 -7.2248193 147.67866515 -7.2294302 133.59214604 C-7.23477544 117.25442379 -7.23689221 100.91670643 -7.23381793 84.57898343 C-7.23349937 82.83855895 -7.233185 81.09813448 -7.23287487 79.35771 C-7.23272059 78.50127152 -7.23256632 77.64483304 -7.23240737 76.76244187 C-7.23154206 70.71204341 -7.23300538 64.66164803 -7.23535442 58.61125004 C-7.23815206 51.24306342 -7.23741493 43.87488746 -7.23207368 36.50670207 C-7.22943617 32.74362011 -7.22843242 28.98055595 -7.23172283 25.2174741 C-7.23522787 21.14752486 -7.23105762 17.07762102 -7.22604275 13.00767338 C-7.22827347 11.80507437 -7.23050419 10.60247536 -7.23280251 9.36343396 C-7.23019476 8.28220698 -7.22758702 7.20098 -7.22490025 6.08698857 C-7.22473789 5.14620394 -7.22457554 4.20541932 -7.22440827 3.23612607 C-6.96149943 -1.19104275 -3.73554188 0.00021771 0 0 Z " fill="#FEF8F0" transform="translate(23.099059104919434,2.8746508359909058)"/>
<path d="M0 0 C0.64836012 -0.00140232 1.29672024 -0.00280463 1.96472764 -0.00424945 C4.1687031 -0.00776903 6.37261022 -0.00407248 8.57658482 -0.00049198 C10.16690689 -0.00153373 11.75722873 -0.00301395 13.34755003 -0.00489634 C17.7584896 -0.0088229 22.16940753 -0.00644355 26.58034678 -0.00311839 C31.36362699 -0.0005982 36.14690369 -0.003835 40.93018341 -0.00636172 C49.32698168 -0.00998688 57.72377352 -0.00985562 66.12057209 -0.00731456 C78.60650215 -0.00354623 91.09242675 -0.00545842 103.57835677 -0.00852287 C125.87274271 -0.01380054 148.16712579 -0.01332748 170.461512 -0.01044396 C189.9711783 -0.00793285 209.48084356 -0.00726962 228.99050999 -0.0084666 C230.92830199 -0.00858118 230.92830199 -0.00858118 232.9052413 -0.00869807 C238.14873364 -0.00900939 243.39222598 -0.00932778 248.63571831 -0.00965784 C263.29473842 -0.01056956 277.95375853 -0.01114548 292.61277866 -0.01144397 C293.61420218 -0.01146444 293.61420218 -0.01146444 294.63585648 -0.01148532 C315.91870155 -0.01189479 337.20154626 -0.01076676 358.48439121 -0.00859439 C359.52029022 -0.00848902 359.52029022 -0.00848902 360.57711649 -0.00838152 C371.79300347 -0.00723648 383.00889044 -0.00601706 394.22477741 -0.00479134 C438.71221052 0.00006524 483.19964062 -0.00016017 527.68707371 -0.00502193 C538.89721266 -0.00624305 550.10735162 -0.00745408 561.31749058 -0.00859439 C562.35277198 -0.00870007 562.35277198 -0.00870007 563.40896815 -0.00880787 C584.66901319 -0.01096307 605.92905798 -0.01187852 627.18910313 -0.01144397 C628.18979739 -0.0114236 628.18979739 -0.0114236 629.2107077 -0.01140281 C644.51007466 -0.01107636 659.80944159 -0.01037268 675.10880852 -0.00940967 C680.34299628 -0.00908893 685.57718404 -0.00877609 690.8113718 -0.0084666 C692.10025413 -0.00838752 693.38913645 -0.00830845 694.71707582 -0.00822697 C714.21910965 -0.00708734 733.72114233 -0.00842379 753.223176 -0.01094615 C775.38785129 -0.01379853 797.55252326 -0.01310533 819.71719813 -0.00766541 C832.13677341 -0.00471818 844.55634151 -0.00455314 856.97591661 -0.00831159 C865.25569803 -0.01054185 873.53547367 -0.00918054 881.81525423 -0.00480682 C886.54345429 -0.00241157 891.27164002 -0.00164847 895.99983966 -0.0052128 C900.29127679 -0.00841514 904.58268673 -0.00711173 908.87412183 -0.00203214 C910.42648178 -0.00101525 911.97884392 -0.00171616 913.53120215 -0.00423808 C915.62146265 -0.00739596 917.71162599 -0.00452095 919.80188179 0 C921.54579951 0.00010164 921.54579951 0.00010164 923.32494789 0.00020533 C925.9009409 0.12534916 925.9009409 0.12534916 926.9009409 1.12534916 C926.99901588 2.77685128 927.02649653 4.43257693 927.02678204 6.08698857 C927.03069366 7.70882904 927.03069366 7.70882904 927.0346843 9.36343396 C927.03245358 10.56603297 927.03022286 11.76863198 927.02792454 13.00767338 C927.02948453 14.27372347 927.03104452 15.53977356 927.03265178 16.84418881 C927.0368495 20.37449562 927.03475243 23.90477561 927.03166556 27.43508255 C927.02941347 31.23607584 927.03289012 35.03706434 927.03564548 38.83805668 C927.04010423 46.29058074 927.03912625 53.74309476 927.03623284 61.19561923 C927.03397922 67.24965033 927.03366611 73.3036786 927.03475666 79.35771 C927.03498651 80.64761666 927.03498651 80.64761666 927.035221 81.96358204 C927.03554071 83.71024478 927.03586492 85.45690751 927.03619359 87.20357025 C927.03904869 103.60204997 927.0357609 120.00052411 927.03039323 136.39900291 C927.02592516 150.48552217 927.02670109 164.57203318 927.03131199 178.65855229 C927.03665723 194.99627454 927.038774 211.3339919 927.03569973 227.6717149 C927.03538116 229.41213938 927.03506679 231.15256385 927.03475666 232.89298832 C927.03460238 233.74942681 927.03444811 234.60586529 927.03428916 235.48825645 C927.03342385 241.53865492 927.03488717 247.5890503 927.03723621 253.63944829 C927.04003385 261.00763491 927.03929672 268.37581087 927.03395547 275.74399626 C927.03131796 279.50707822 927.03031421 283.27014238 927.03360462 287.03322423 C927.03710966 291.10317347 927.03293941 295.17307731 927.02792454 299.24302495 C927.03015526 300.44562396 927.03238598 301.64822297 927.0346843 302.88726437 C927.03207655 303.96849135 927.02946881 305.04971833 927.02678204 306.16370976 C927.02661968 307.10449439 927.02645733 308.04527901 927.02629006 309.01457226 C926.9009409 311.12534916 926.9009409 311.12534916 925.9009409 312.12534916 C923.8698872 312.2240194 921.83533081 312.25057981 919.80188179 312.25069833 C918.82934161 312.2528018 918.82934161 312.2528018 917.83715415 312.25494777 C915.63317869 312.25846736 913.42927157 312.25477081 911.22529697 312.2511903 C909.6349749 312.25223206 908.04465306 312.25371227 906.45433176 312.25559467 C902.0433922 312.25952122 897.63247426 312.25714188 893.22153501 312.25381672 C888.4382548 312.25129653 883.6549781 312.25453333 878.87169838 312.25706005 C870.47490011 312.26068521 862.07810827 312.26055395 853.6813097 312.25801289 C841.19537964 312.25424456 828.70945504 312.25615675 816.22352502 312.2592212 C793.92913908 312.26449887 771.634756 312.26402581 749.34036979 312.26114229 C729.83070349 312.25863118 710.32103823 312.25796794 690.8113718 312.25916493 C688.8735798 312.25927951 688.8735798 312.25927951 686.89664049 312.2593964 C681.65314815 312.25970771 676.40965581 312.26002611 671.16616348 312.26035616 C656.50714337 312.26126789 641.84812326 312.26184381 627.18910313 312.2621423 C626.52148745 312.26215595 625.85387177 312.26216959 625.16602531 312.26218365 C603.88318024 312.26259311 582.60033553 312.26146508 561.31749058 312.25929272 C560.62689124 312.25922247 559.9362919 312.25915222 559.2247653 312.25907985 C548.00887832 312.25793481 536.79299135 312.25671539 525.57710438 312.25548967 C481.08967127 312.25063309 436.60224117 312.2508585 392.11480808 312.25572026 C380.90466913 312.25694138 369.69453017 312.25815241 358.48439121 312.25929272 C357.79420361 312.25936317 357.10401601 312.25943362 356.39291364 312.2595062 C335.1328686 312.2616614 313.87282381 312.26257685 292.61277866 312.2621423 C291.6120844 312.26212192 291.6120844 312.26212192 290.59117409 312.26210114 C275.29180713 312.26177468 259.9924402 312.26107101 244.69307327 312.26010799 C239.45888551 312.25978725 234.22469775 312.25947442 228.99050999 312.25916493 C227.70162766 312.25908585 226.41274534 312.25900677 225.08480597 312.2589253 C205.58277214 312.25778567 186.08073946 312.25912212 166.57870579 312.26164448 C144.4140305 312.26449686 122.24935853 312.26380366 100.08468366 312.25836374 C87.66510838 312.2554165 75.24554028 312.25525147 62.82596518 312.25900991 C54.54618376 312.26124018 46.26640812 312.25987886 37.98662756 312.25550514 C33.2584275 312.2531099 28.53024177 312.2523468 23.80204213 312.25591113 C19.510605 312.25911346 15.21919506 312.25781006 10.92775996 312.25273047 C9.37540001 312.25171358 7.82303787 312.25241449 6.27067964 312.2549364 C4.18041914 312.25809429 2.0902558 312.25521927 0 312.25069833 C-1.74391772 312.25059669 -1.74391772 312.25059669 -3.5230661 312.250493 C-6.0990591 312.12534916 -6.0990591 312.12534916 -7.0990591 311.12534916 C-7.19713409 309.47384704 -7.22461474 307.8181214 -7.22490025 306.16370976 C-7.22750799 305.08248278 -7.23011574 304.0012558 -7.23280251 302.88726437 C-7.23057179 301.68466536 -7.22834107 300.48206635 -7.22604275 299.24302495 C-7.22760274 297.97697485 -7.22916273 296.71092476 -7.23076999 295.40650952 C-7.23496771 291.87620271 -7.23287064 288.34592272 -7.22978377 284.81561577 C-7.22753168 281.01462249 -7.23100833 277.21363399 -7.23376369 273.41264164 C-7.23822244 265.96011758 -7.23724446 258.50760356 -7.23435105 251.0550791 C-7.23209743 245.001048 -7.23178432 238.94701972 -7.23287487 232.89298832 C-7.2330281 232.03305055 -7.23318134 231.17311278 -7.23333921 230.28711629 C-7.23365892 228.54045355 -7.23398313 226.79379082 -7.2343118 225.04712808 C-7.2371669 208.64864836 -7.23387911 192.25017422 -7.22851144 175.85169542 C-7.22404337 161.76517616 -7.2248193 147.67866515 -7.2294302 133.59214604 C-7.23477544 117.25442379 -7.23689221 100.91670643 -7.23381793 84.57898343 C-7.23349937 82.83855895 -7.233185 81.09813448 -7.23287487 79.35771 C-7.23272059 78.50127152 -7.23256632 77.64483304 -7.23240737 76.76244187 C-7.23154206 70.71204341 -7.23300538 64.66164803 -7.23535442 58.61125004 C-7.23815206 51.24306342 -7.23741493 43.87488746 -7.23207368 36.50670207 C-7.22943617 32.74362011 -7.22843242 28.98055595 -7.23172283 25.2174741 C-7.23522787 21.14752486 -7.23105762 17.07762102 -7.22604275 13.00767338 C-7.22827347 11.80507437 -7.23050419 10.60247536 -7.23280251 9.36343396 C-7.23019476 8.28220698 -7.22758702 7.20098 -7.22490025 6.08698857 C-7.22473789 5.14620394 -7.22457554 4.20541932 -7.22440827 3.23612607 C-6.96149943 -1.19104275 -3.73554188 0.00021771 0 0 Z M56.9009409 26.12534916 C56.9009409 112.25534916 56.9009409 198.38534916 56.9009409 287.12534916 C322.2209409 287.12534916 587.5409409 287.12534916 860.9009409 287.12534916 C860.9009409 200.99534916 860.9009409 114.86534916 860.9009409 26.12534916 C595.5809409 26.12534916 330.2609409 26.12534916 56.9009409 26.12534916 Z " fill="#3C211B" transform="translate(23.099059104919434,2.8746508359909058)"/>
<path d="M0 0 C0.64836012 -0.00140232 1.29672024 -0.00280463 1.96472764 -0.00424945 C4.1687031 -0.00776903 6.37261022 -0.00407248 8.57658482 -0.00049198 C10.16690689 -0.00153373 11.75722873 -0.00301395 13.34755003 -0.00489634 C17.7584896 -0.0088229 22.16940753 -0.00644355 26.58034678 -0.00311839 C31.36362699 -0.0005982 36.14690369 -0.003835 40.93018341 -0.00636172 C49.32698168 -0.00998688 57.72377352 -0.00985562 66.12057209 -0.00731456 C78.60650215 -0.00354623 91.09242675 -0.00545842 103.57835677 -0.00852287 C125.87274271 -0.01380054 148.16712579 -0.01332748 170.461512 -0.01044396 C189.9711783 -0.00793285 209.48084356 -0.00726962 228.99050999 -0.0084666 C230.92830199 -0.00858118 230.92830199 -0.00858118 232.9052413 -0.00869807 C238.14873364 -0.00900939 243.39222598 -0.00932778 248.63571831 -0.00965784 C263.29473842 -0.01056956 277.95375853 -0.01114548 292.61277866 -0.01144397 C293.61420218 -0.01146444 293.61420218 -0.01146444 294.63585648 -0.01148532 C315.91870155 -0.01189479 337.20154626 -0.01076676 358.48439121 -0.00859439 C359.52029022 -0.00848902 359.52029022 -0.00848902 360.57711649 -0.00838152 C371.79300347 -0.00723648 383.00889044 -0.00601706 394.22477741 -0.00479134 C438.71221052 0.00006524 483.19964062 -0.00016017 527.68707371 -0.00502193 C538.89721266 -0.00624305 550.10735162 -0.00745408 561.31749058 -0.00859439 C562.35277198 -0.00870007 562.35277198 -0.00870007 563.40896815 -0.00880787 C584.66901319 -0.01096307 605.92905798 -0.01187852 627.18910313 -0.01144397 C628.18979739 -0.0114236 628.18979739 -0.0114236 629.2107077 -0.01140281 C644.51007466 -0.01107636 659.80944159 -0.01037268 675.10880852 -0.00940967 C680.34299628 -0.00908893 685.57718404 -0.00877609 690.8113718 -0.0084666 C692.10025413 -0.00838752 693.38913645 -0.00830845 694.71707582 -0.00822697 C714.21910965 -0.00708734 733.72114233 -0.00842379 753.223176 -0.01094615 C775.38785129 -0.01379853 797.55252326 -0.01310533 819.71719813 -0.00766541 C832.13677341 -0.00471818 844.55634151 -0.00455314 856.97591661 -0.00831159 C865.25569803 -0.01054185 873.53547367 -0.00918054 881.81525423 -0.00480682 C886.54345429 -0.00241157 891.27164002 -0.00164847 895.99983966 -0.0052128 C900.29127679 -0.00841514 904.58268673 -0.00711173 908.87412183 -0.00203214 C910.42648178 -0.00101525 911.97884392 -0.00171616 913.53120215 -0.00423808 C915.62146265 -0.00739596 917.71162599 -0.00452095 919.80188179 0 C921.54579951 0.00010164 921.54579951 0.00010164 923.32494789 0.00020533 C925.9009409 0.12534916 925.9009409 0.12534916 926.9009409 1.12534916 C926.99901588 2.77685128 927.02649653 4.43257693 927.02678204 6.08698857 C927.03069366 7.70882904 927.03069366 7.70882904 927.0346843 9.36343396 C927.03245358 10.56603297 927.03022286 11.76863198 927.02792454 13.00767338 C927.02948453 14.27372347 927.03104452 15.53977356 927.03265178 16.84418881 C927.0368495 20.37449562 927.03475243 23.90477561 927.03166556 27.43508255 C927.02941347 31.23607584 927.03289012 35.03706434 927.03564548 38.83805668 C927.04010423 46.29058074 927.03912625 53.74309476 927.03623284 61.19561923 C927.03397922 67.24965033 927.03366611 73.3036786 927.03475666 79.35771 C927.03498651 80.64761666 927.03498651 80.64761666 927.035221 81.96358204 C927.03554071 83.71024478 927.03586492 85.45690751 927.03619359 87.20357025 C927.03904869 103.60204997 927.0357609 120.00052411 927.03039323 136.39900291 C927.02592516 150.48552217 927.02670109 164.57203318 927.03131199 178.65855229 C927.03665723 194.99627454 927.038774 211.3339919 927.03569973 227.6717149 C927.03538116 229.41213938 927.03506679 231.15256385 927.03475666 232.89298832 C927.03460238 233.74942681 927.03444811 234.60586529 927.03428916 235.48825645 C927.03342385 241.53865492 927.03488717 247.5890503 927.03723621 253.63944829 C927.04003385 261.00763491 927.03929672 268.37581087 927.03395547 275.74399626 C927.03131796 279.50707822 927.03031421 283.27014238 927.03360462 287.03322423 C927.03710966 291.10317347 927.03293941 295.17307731 927.02792454 299.24302495 C927.03015526 300.44562396 927.03238598 301.64822297 927.0346843 302.88726437 C927.03207655 303.96849135 927.02946881 305.04971833 927.02678204 306.16370976 C927.02661968 307.10449439 927.02645733 308.04527901 927.02629006 309.01457226 C926.9009409 311.12534916 926.9009409 311.12534916 925.9009409 312.12534916 C923.8698872 312.2240194 921.83533081 312.25057981 919.80188179 312.25069833 C918.82934161 312.2528018 918.82934161 312.2528018 917.83715415 312.25494777 C915.63317869 312.25846736 913.42927157 312.25477081 911.22529697 312.2511903 C909.6349749 312.25223206 908.04465306 312.25371227 906.45433176 312.25559467 C902.0433922 312.25952122 897.63247426 312.25714188 893.22153501 312.25381672 C888.4382548 312.25129653 883.6549781 312.25453333 878.87169838 312.25706005 C870.47490011 312.26068521 862.07810827 312.26055395 853.6813097 312.25801289 C841.19537964 312.25424456 828.70945504 312.25615675 816.22352502 312.2592212 C793.92913908 312.26449887 771.634756 312.26402581 749.34036979 312.26114229 C729.83070349 312.25863118 710.32103823 312.25796794 690.8113718 312.25916493 C688.8735798 312.25927951 688.8735798 312.25927951 686.89664049 312.2593964 C681.65314815 312.25970771 676.40965581 312.26002611 671.16616348 312.26035616 C656.50714337 312.26126789 641.84812326 312.26184381 627.18910313 312.2621423 C626.52148745 312.26215595 625.85387177 312.26216959 625.16602531 312.26218365 C603.88318024 312.26259311 582.60033553 312.26146508 561.31749058 312.25929272 C560.62689124 312.25922247 559.9362919 312.25915222 559.2247653 312.25907985 C548.00887832 312.25793481 536.79299135 312.25671539 525.57710438 312.25548967 C481.08967127 312.25063309 436.60224117 312.2508585 392.11480808 312.25572026 C380.90466913 312.25694138 369.69453017 312.25815241 358.48439121 312.25929272 C357.79420361 312.25936317 357.10401601 312.25943362 356.39291364 312.2595062 C335.1328686 312.2616614 313.87282381 312.26257685 292.61277866 312.2621423 C291.6120844 312.26212192 291.6120844 312.26212192 290.59117409 312.26210114 C275.29180713 312.26177468 259.9924402 312.26107101 244.69307327 312.26010799 C239.45888551 312.25978725 234.22469775 312.25947442 228.99050999 312.25916493 C227.70162766 312.25908585 226.41274534 312.25900677 225.08480597 312.2589253 C205.58277214 312.25778567 186.08073946 312.25912212 166.57870579 312.26164448 C144.4140305 312.26449686 122.24935853 312.26380366 100.08468366 312.25836374 C87.66510838 312.2554165 75.24554028 312.25525147 62.82596518 312.25900991 C54.54618376 312.26124018 46.26640812 312.25987886 37.98662756 312.25550514 C33.2584275 312.2531099 28.53024177 312.2523468 23.80204213 312.25591113 C19.510605 312.25911346 15.21919506 312.25781006 10.92775996 312.25273047 C9.37540001 312.25171358 7.82303787 312.25241449 6.27067964 312.2549364 C4.18041914 312.25809429 2.0902558 312.25521927 0 312.25069833 C-1.74391772 312.25059669 -1.74391772 312.25059669 -3.5230661 312.250493 C-6.0990591 312.12534916 -6.0990591 312.12534916 -7.0990591 311.12534916 C-7.19713409 309.47384704 -7.22461474 307.8181214 -7.22490025 306.16370976 C-7.22750799 305.08248278 -7.23011574 304.0012558 -7.23280251 302.88726437 C-7.23057179 301.68466536 -7.22834107 300.48206635 -7.22604275 299.24302495 C-7.22760274 297.97697485 -7.22916273 296.71092476 -7.23076999 295.40650952 C-7.23496771 291.87620271 -7.23287064 288.34592272 -7.22978377 284.81561577 C-7.22753168 281.01462249 -7.23100833 277.21363399 -7.23376369 273.41264164 C-7.23822244 265.96011758 -7.23724446 258.50760356 -7.23435105 251.0550791 C-7.23209743 245.001048 -7.23178432 238.94701972 -7.23287487 232.89298832 C-7.2330281 232.03305055 -7.23318134 231.17311278 -7.23333921 230.28711629 C-7.23365892 228.54045355 -7.23398313 226.79379082 -7.2343118 225.04712808 C-7.2371669 208.64864836 -7.23387911 192.25017422 -7.22851144 175.85169542 C-7.22404337 161.76517616 -7.2248193 147.67866515 -7.2294302 133.59214604 C-7.23477544 117.25442379 -7.23689221 100.91670643 -7.23381793 84.57898343 C-7.23349937 82.83855895 -7.233185 81.09813448 -7.23287487 79.35771 C-7.23272059 78.50127152 -7.23256632 77.64483304 -7.23240737 76.76244187 C-7.23154206 70.71204341 -7.23300538 64.66164803 -7.23535442 58.61125004 C-7.23815206 51.24306342 -7.23741493 43.87488746 -7.23207368 36.50670207 C-7.22943617 32.74362011 -7.22843242 28.98055595 -7.23172283 25.2174741 C-7.23522787 21.14752486 -7.23105762 17.07762102 -7.22604275 13.00767338 C-7.22827347 11.80507437 -7.23050419 10.60247536 -7.23280251 9.36343396 C-7.23019476 8.28220698 -7.22758702 7.20098 -7.22490025 6.08698857 C-7.22473789 5.14620394 -7.22457554 4.20541932 -7.22440827 3.23612607 C-6.96149943 -1.19104275 -3.73554188 0.00021771 0 0 Z M17.9009409 13.12534916 C17.9009409 107.83534916 17.9009409 202.54534916 17.9009409 300.12534916 C309.2909409 300.12534916 600.6809409 300.12534916 900.9009409 300.12534916 C900.9009409 205.41534916 900.9009409 110.70534916 900.9009409 13.12534916 C899.12388447 11.34829274 896.53347512 12.00014826 894.12889528 12 C892.86406366 11.99749648 891.59923204 11.99499296 890.29607219 11.99241358 C888.87130894 11.99469091 887.44654584 11.99705912 886.02178288 11.99950802 C884.51843761 11.99846625 883.01509259 11.99698603 881.51174814 11.99510366 C877.34230255 11.99117734 873.17287983 11.99355633 869.00343458 11.99688161 C864.48193833 11.99940191 859.96044579 11.99616496 855.43895006 11.99363828 C847.50178312 11.9900132 839.56462297 11.99014433 831.62745571 11.99268544 C819.82498955 11.99645384 808.02252916 11.99454154 796.22006305 11.99147713 C775.14601654 11.98619951 754.07197305 11.98667249 732.99792625 11.98955604 C714.55616856 11.99206717 696.11441198 11.99273037 677.67265415 11.9915334 C676.4514965 11.99145701 675.23033885 11.99138063 673.97217643 11.99130193 C669.0156584 11.99099061 664.05914038 11.99067222 659.10262236 11.99034216 C612.56411448 11.98728008 566.02560853 11.99006151 519.48710095 11.99543906 C478.09981858 12.00018501 436.71253966 11.99976039 395.3252573 11.99497807 C348.87430191 11.98962864 302.42334822 11.9874972 255.97239256 11.99059033 C251.02467092 11.99091107 246.07694928 11.99122391 241.12922764 11.9915334 C239.91088599 11.99161248 238.69254434 11.99169155 237.43728324 11.99177303 C219.0027596 11.99291265 200.56823719 11.99157623 182.13371372 11.98905385 C161.1822555 11.98620144 140.23080079 11.98689472 119.27934301 11.99233459 C107.53963379 11.99528178 95.79993217 11.99544692 84.06022314 11.99168841 C76.23362129 11.9894581 68.40702557 11.99081956 60.58042463 11.99519318 C56.11105991 11.99758836 51.64171034 11.99835168 47.17234606 11.9947872 C43.1157706 11.99158468 39.0592239 11.99288854 35.00265058 11.99796786 C33.53531007 11.99898468 32.06796723 11.998284 30.60062853 11.99576192 C28.62474988 11.99260369 26.64886382 11.99608909 24.67298651 12 C23.02452893 12.00010164 23.02452893 12.00010164 21.34276918 12.00020533 C18.95369747 11.84926318 18.95369747 11.84926318 17.9009409 13.12534916 Z " fill="#EB7471" transform="translate(23.099059104919434,2.8746508359909058)"/>
<path d="M0 0 C1.28777344 0.2472583 1.28777344 0.2472583 2.6015625 0.49951172 C35.03883622 6.8888508 71.80954916 17.96903719 95 43 C95 43.66 95 44.32 95 45 C95.66 45 96.32 45 97 45 C98.56390723 46.92620234 99.97981547 48.83099795 101.375 50.875 C101.77912109 51.46345703 102.18324219 52.05191406 102.59960938 52.65820312 C110.89082154 65.06142651 112.9168055 79.0897588 110.4375 93.75 C106.02777455 109.69750026 92.32552232 123.14453853 79 132 C78.01644531 132.66386719 77.03289062 133.32773438 76.01953125 134.01171875 C55.50646617 147.24511561 32.03540364 155.98493257 8 160 C6.44613209 160.32189839 4.89279136 160.64634694 3.33984375 160.97265625 C-2.42773094 162.13571871 -8.22122717 162.87744311 -14.0625 163.5625 C-15.15941162 163.69180908 -16.25632324 163.82111816 -17.38647461 163.9543457 C-26.25536693 164.96995701 -35.07859913 165.71075499 -44 166 C-45.17949219 166.04125 -46.35898437 166.0825 -47.57421875 166.125 C-100.10213083 167.01814197 -160.41370027 156.36122744 -199.6875 118.5625 C-202 116 -202 116 -202 114 C-202.66 114 -203.32 114 -204 114 C-209.8482719 106.81209931 -212.73659177 98.87110001 -215 90 C-215.19335938 89.30777344 -215.38671875 88.61554688 -215.5859375 87.90234375 C-218.11204603 76.29654322 -213.99927385 63.8687242 -208 54 C-187.2736434 23.64526259 -148.71419939 8.96065593 -114 2.125 C-110.93514315 1.55569364 -107.8680466 1.00904073 -104.79541016 0.48339844 C-102.25588971 0.04424992 -99.72838524 -0.43502402 -97.19921875 -0.9296875 C-66.51148105 -6.68467071 -30.68950873 -6.02391915 0 0 Z M-72.75 -1.5625 C-74.20599609 -1.50352539 -74.20599609 -1.50352539 -75.69140625 -1.44335938 C-76.61308594 -1.40146484 -77.53476562 -1.35957031 -78.484375 -1.31640625 C-79.32709961 -1.27974854 -80.16982422 -1.24309082 -81.03808594 -1.20532227 C-83.00194548 -1.20794331 -83.00194548 -1.20794331 -84 0 C-84.09870482 1.61898676 -84.12798862 3.24226558 -84.12939453 4.86425781 C-84.13412277 6.42288544 -84.13412277 6.42288544 -84.13894653 8.01300049 C-84.1369223 9.14824158 -84.13489807 10.28348267 -84.1328125 11.453125 C-84.13424759 13.20263458 -84.13424759 13.20263458 -84.13571167 14.98748779 C-84.13639436 17.46919814 -84.13453396 19.95091024 -84.13037109 22.43261719 C-84.12508147 26.19209952 -84.13028298 29.9514592 -84.13671875 33.7109375 C-84.13605686 36.12500026 -84.13477341 38.53906295 -84.1328125 40.953125 C-84.13584885 42.61955048 -84.13584885 42.61955048 -84.13894653 44.31964111 C-84.39118138 57.34276046 -84.39118138 57.34276046 -82 70 C-88.27 69.01 -94.54 68.02 -101 67 C-99.35 65.68 -97.7 64.36 -96 63 C-89.09692746 53.37630475 -89.97835221 41.64224722 -91.49609375 30.2890625 C-94.10199641 18.83486889 -100.21375275 11.27610183 -109.90234375 4.7109375 C-112.88207272 3.70104798 -114.95645418 4.30759333 -118 5 C-118.99 5.21398437 -119.98 5.42796875 -121 5.6484375 C-131.20555247 7.85428481 -131.20555247 7.85428481 -138.8125 14.5 C-143.74297546 23.17192951 -142.55661919 34.68434195 -140.25 44.04296875 C-137.19466336 54.08738795 -133.07741256 60.26882287 -125 67 C-130.61 67.99 -136.22 68.98 -142 70 C-142.103125 68.494375 -142.20625 66.98875 -142.3125 65.4375 C-143.69977982 48.86829875 -146.30198013 32.39860306 -149 16 C-154.79736411 16.50016475 -159.05979837 18.18837323 -164.1875 20.875 C-164.88552734 21.22691406 -165.58355469 21.57882813 -166.30273438 21.94140625 C-171.48333411 24.49186882 -171.48333411 24.49186882 -176 28 C-176 29.32 -176 30.64 -176 32 C-177.423125 31.7525 -177.423125 31.7525 -178.875 31.5 C-186.39792135 31.5 -192.49784927 39.41928903 -197.5 44.3125 C-201.21322929 48.06377467 -203.30536045 50.6603244 -203.4375 56.0625 C-203.24588028 63.71720343 -200.77900386 69.14886932 -195.44140625 74.625 C-193.01466934 76.82799521 -190.55407022 78.9468251 -188 81 C-188.81082031 81.29132813 -189.62164062 81.58265625 -190.45703125 81.8828125 C-198.02595967 84.68481394 -205.02905513 87.93477965 -212 92 C-211.67 93.32 -211.34 94.64 -211 96 C-209.80503906 95.45730469 -208.61007812 94.91460937 -207.37890625 94.35546875 C-205.77354011 93.63258458 -204.16806552 92.90994122 -202.5625 92.1875 C-201.77939453 91.83107422 -200.99628906 91.47464844 -200.18945312 91.10742188 C-194.88510298 88.72810432 -189.54982471 86.73042987 -184 85 C-185.11375 85.99 -185.11375 85.99 -186.25 87 C-191.80969275 92.55969275 -193.9234926 99.43847151 -194.25 107.125 C-194.12529415 113.36029259 -193.38026558 119.82631255 -189.546875 124.9375 C-180.52494242 133.41027146 -161.52546338 145.94324663 -148.87890625 146.3125 C-141.82620325 145.7443064 -136.14967644 142.71645757 -131.5 137.375 C-127.89827854 132.74720672 -126.49769327 130.02768072 -127 124 C-128.79269541 118.71154855 -130.86408166 114.56795917 -136 112 C-140.81090525 111.5687704 -143.33295218 112.43964126 -147.375 115 C-152.32809435 117.88648179 -155.33867389 118.64090484 -161 118 C-161.02709444 115.91673869 -161.04643873 113.83337559 -161.0625 111.75 C-161.07410156 110.58984375 -161.08570313 109.4296875 -161.09765625 108.234375 C-161.01782092 105.59022872 -160.78643778 103.50173909 -160 101 C-156.14310148 100.76858609 -153.641383 100.65792907 -150.1875 102.5 C-145.93359383 104.5018382 -141.61200621 105.15680684 -137 104 C-134.11421327 101.32282436 -133.10789208 99.62279771 -132.43359375 95.73046875 C-132.44098843 89.02349054 -132.64074825 83.96447244 -136.515625 78.35546875 C-138.28609144 76.73875334 -139.66011516 76.38498105 -142 76 C-142 75.34 -142 74.68 -142 74 C-141.09636719 73.93941406 -140.19273437 73.87882812 -139.26171875 73.81640625 C-138.08222656 73.73261719 -136.90273438 73.64882812 -135.6875 73.5625 C-134.51574219 73.48128906 -133.34398437 73.40007812 -132.13671875 73.31640625 C-128.97409042 73.1132629 -128.97409042 73.1132629 -126 72 C-125.97494385 72.66008057 -125.9498877 73.32016113 -125.92407227 74.00024414 C-125.80728248 77.02115369 -125.68493554 80.04181422 -125.5625 83.0625 C-125.52318359 84.10083984 -125.48386719 85.13917969 -125.44335938 86.20898438 C-125.40146484 87.22412109 -125.35957031 88.23925781 -125.31640625 89.28515625 C-125.27974854 90.21207275 -125.24309082 91.13898926 -125.20532227 92.09399414 C-125.04079479 95.04106892 -125.04079479 95.04106892 -124.5 98.08984375 C-123.81007343 103.48528511 -123.7644569 108.84284764 -123.68359375 114.27734375 C-123.66281265 115.4438295 -123.64203156 116.61031525 -123.62062073 117.81214905 C-123.55549089 121.52054224 -123.49641083 125.22900332 -123.4375 128.9375 C-123.39427999 131.45899126 -123.3506646 133.98047577 -123.30664062 136.50195312 C-123.19984716 142.66789799 -123.0980143 148.83390967 -123 155 C-121.56385322 155.48637758 -120.12703694 155.97077858 -118.68994141 156.4543457 C-117.88988678 156.72430862 -117.08983215 156.99427155 -116.26553345 157.27241516 C-113.65633667 158.11036881 -111.07311231 158.71064329 -108.375 159.1875 C-107.51648438 159.34605469 -106.65796875 159.50460938 -105.7734375 159.66796875 C-102.49909899 160.05996702 -99.29516425 160.02055548 -96 160 C-96.06058594 158.75500732 -96.12117188 157.51001465 -96.18359375 156.22729492 C-96.40989179 151.56254453 -96.63269222 146.89763227 -96.85449219 142.23266602 C-96.95055851 140.22220427 -97.0475452 138.21178626 -97.14550781 136.20141602 C-97.2869894 133.29454678 -97.42504627 130.38753091 -97.5625 127.48046875 C-97.60624756 126.59667038 -97.64999512 125.71287201 -97.69506836 124.80229187 C-98.52184753 107.04369505 -98.52184753 107.04369505 -97 104 C-89.9532822 103.49666301 -84.85358501 104.7300108 -79.375 109.37890625 C-78.88 109.83136719 -78.385 110.28382813 -77.875 110.75 C-75.18442381 113.17006436 -75.18442381 113.17006436 -72 113.75 C-67.5337435 112.63343588 -65.55984067 109.6855035 -63 106 C-61.32754774 102.65509548 -61.81540687 98.92428641 -61.8125 95.25 C-61.80025391 94.45078125 -61.78800781 93.6515625 -61.77539062 92.828125 C-61.76384113 88.1467292 -62.20325743 84.40308456 -64 80 C-63.01644531 80.29132813 -62.03289062 80.58265625 -61.01953125 80.8828125 C-51.85560228 83.59066784 -42.67856958 86.24830532 -33.4855957 88.85595703 C-32.65632568 89.09169434 -31.82705566 89.32743164 -30.97265625 89.5703125 C-29.74675781 89.91823853 -29.74675781 89.91823853 -28.49609375 90.27319336 C-25.90430233 91.02786502 -23.33074968 91.83266066 -20.75390625 92.63671875 C-17.11048659 93.73548822 -13.68868408 94.44303307 -9.875 94.6875 C-8.94429687 94.75324219 -8.01359375 94.81898438 -7.0546875 94.88671875 C-6.37664062 94.92410156 -5.69859375 94.96148437 -5 95 C-5.165 96.258125 -5.33 97.51625 -5.5 98.8125 C-6.09827745 104.18845022 -6.32807498 109.59641212 -6 115 C-5.67 115.33 -5.34 115.66 -5 116 C-3.30858344 115.91036938 -1.62040398 115.75422324 0.0625 115.5625 C1.44115234 115.40974609 1.44115234 115.40974609 2.84765625 115.25390625 C3.55792969 115.17011719 4.26820313 115.08632812 5 115 C4.566875 115.40992188 4.13375 115.81984375 3.6875 116.2421875 C3.130625 116.78101563 2.57375 117.31984375 2 117.875 C1.443125 118.40867187 0.88625 118.94234375 0.3125 119.4921875 C-1.21885522 120.91824988 -1.21885522 120.91824988 -1 123 C-1.66 123 -2.32 123 -3 123 C-4.68732277 124.98260426 -6.35366057 126.9832342 -8 129 C-8.66 129.33 -9.32 129.66 -10 130 C-9.31900686 135.61978452 -8.58055223 141.22228911 -7.6875 146.8125 C-7.58244141 147.56208984 -7.47738281 148.31167969 -7.36914062 149.08398438 C-6.84396079 152.29532992 -6.4225726 154.53617845 -4.19921875 156.9765625 C9.22266541 163.22262582 31.18457297 152.45209215 44 147.875 C44.91313965 147.55080078 45.8262793 147.22660156 46.76708984 146.89257812 C56.33549457 143.37351816 56.33549457 143.37351816 63 136 C62.48856643 132.73523228 61.12634774 130.04580378 59.625 127.125 C59.18027344 126.25359375 58.73554687 125.3821875 58.27734375 124.484375 C57.64505859 123.25460938 57.64505859 123.25460938 57 122 C56.39393269 120.79261886 55.78936179 119.58448303 55.1875 118.375 C54.795625 117.59125 54.40375 116.8075 54 116 C46.95691413 116.35645635 40.51885388 117.22380293 33.7578125 119.234375 C29.2357371 120.48979537 24.62700637 121.23927361 20 122 C20 121.34 20 120.68 20 120 C20.66 120 21.32 120 22 120 C23.43812673 118.43059199 24.8003005 116.79125965 26.125 115.125 C26.92164063 114.12597656 27.71828125 113.12695312 28.5390625 112.09765625 C29.35117187 111.07542969 30.16328125 110.05320312 31 109 C31.77085937 108.07058594 32.54171875 107.14117187 33.3359375 106.18359375 C34.05007813 105.31863281 34.76421875 104.45367187 35.5 103.5625 C36.1496875 102.78003906 36.799375 101.99757813 37.46875 101.19140625 C38.96128406 99.05540725 39.58227656 97.54695264 40 95 C40.99 95.04125 41.98 95.0825 43 95.125 C47.23835866 95.1423348 50.93193985 94.14191162 55 93 C54.67 93.66 54.34 94.32 54 95 C53.16734598 103.43193946 53.05019952 110.69531847 58.08984375 117.84375 C63.45331412 123.89821962 69.17646985 128.04797942 77.24609375 129.3671875 C81.35983832 128.81868822 83.81616571 126.35931274 86.8125 123.6875 C87.42544922 123.14786621 88.03839844 122.60823242 88.66992188 122.05224609 C96.54418801 114.93258769 96.54418801 114.93258769 102 106 C101.23922454 102.46412316 100.5635697 100.5635697 98 98 C91.04636373 97.14578175 86.34980166 100.39459871 81.06640625 104.50390625 C79 106 79 106 77 106 C77 105.01 77 104.02 77 103 C77.84304688 102.59007812 78.68609375 102.18015625 79.5546875 101.7578125 C80.65039062 101.21898437 81.74609375 100.68015625 82.875 100.125 C83.96554687 99.59132813 85.05609375 99.05765625 86.1796875 98.5078125 C89.03882547 97.15464063 89.03882547 97.15464063 91 95 C90.78011048 92.42415137 90.2039523 91.22800821 88.4765625 89.296875 C87.56003906 88.53117187 87.56003906 88.53117187 86.625 87.75 C86.01914062 87.22921875 85.41328125 86.7084375 84.7890625 86.171875 C82.93819049 84.72603094 82.93819049 84.72603094 80 85 C80 84.34 80 83.68 80 83 C80.88042969 82.73574219 81.76085937 82.47148437 82.66796875 82.19921875 C91.37889241 79.0641032 98.87702769 72.78631578 106 67 C105.67 65.35 105.34 63.7 105 62 C103.02 63.485 103.02 63.485 101 65 C100.5359375 63.7934375 100.5359375 63.7934375 100.0625 62.5625 C99.23664655 60.10919595 99.23664655 60.10919595 98 59 C96.02380553 58.87485072 94.04261827 58.8242724 92.0625 58.8125 C90.98097656 58.79832031 89.89945313 58.78414062 88.78515625 58.76953125 C85.85955685 58.70951969 85.85955685 58.70951969 84 61 C83.83318891 64.08347826 83.83318891 64.08347826 84 67 C82.68 67 81.36 67 80 67 C80 63.7 80 60.4 80 57 C81.423125 57.103125 82.84625 57.20625 84.3125 57.3125 C88.13165059 57.36367628 88.13165059 57.36367628 91.0625 55 C92.33898353 50.9152527 92.55278555 48.28408799 92 44 C89.20308991 41.36761404 87.50793153 41.02875084 83.6875 40.8125 C82.800625 40.874375 81.91375 40.93625 81 41 C81.3403125 39.515 81.3403125 39.515 81.6875 38 C81.8187223 36.01791528 81.8187223 36.01791528 81 34 C76.34343692 29.54346111 71.06243816 26.18336438 65 24 C63.4087311 28.873261 62.78807779 32.80790596 63 38 C62.36191406 37.98839844 61.72382812 37.97679687 61.06640625 37.96484375 C60.24011719 37.95582031 59.41382813 37.94679687 58.5625 37.9375 C57.73878906 37.92589844 56.91507813 37.91429687 56.06640625 37.90234375 C54.00836062 37.76732652 54.00836062 37.76732652 53 39 C52.73624417 41.67272576 52.53151543 44.32082416 52.375 47 C52.29765625 48.12535156 52.29765625 48.12535156 52.21875 49.2734375 C52.10173483 51.18009649 52.0460671 53.09030922 52 55 C53.18424326 56.41577477 53.18424326 56.41577477 56.5625 56.0625 C58.2640625 56.0315625 58.2640625 56.0315625 60 56 C59.67 56.99 59.34 57.98 59 59 C58.74544245 62.43305568 58.76869117 65.87098906 58.75 69.3125 C58.729375 70.25029297 58.70875 71.18808594 58.6875 72.15429688 C58.65703049 77.55882605 59.00779205 81.29908382 62 86 C60.234375 86.44140625 58.46875 86.8828125 56.703125 87.32421875 C55.97609375 87.50597656 55.2490625 87.68773437 54.5 87.875 C53.09375 88.2265625 51.6875 88.578125 50.28125 88.9296875 C49.23130859 89.19217285 49.23130859 89.19217285 48.16015625 89.45996094 C47.09087891 89.72728027 47.09087891 89.72728027 46 90 C44.85337891 90.28665527 44.85337891 90.28665527 43.68359375 90.57910156 C42.95269531 90.76182617 42.22179687 90.94455078 41.46875 91.1328125 C40.3240625 91.41898437 39.179375 91.70515625 38 92 C38.45890625 91.2678125 38.9178125 90.535625 39.390625 89.78125 C45.38723389 79.19899902 47.00995887 68.59505434 48.62548828 56.64013672 C49.060918 53.57055591 49.65779623 50.54270215 50.25 47.5 C51.81130478 37.48847547 51.16057012 27.10233103 51 17 C48.71264646 16.0301621 46.42088788 15.07426133 44.125 14.125 C43.49335937 13.85558594 42.86171875 13.58617187 42.2109375 13.30859375 C36.92077237 11.13962605 31.62603664 9.96920939 26 9 C25.85164703 11.91655632 25.70604824 14.83320519 25.5625 17.75 C25.49373657 19.12889404 25.49373657 19.12889404 25.42358398 20.53564453 C25.15327153 26.15053954 24.93916762 31.7635772 24.78125 37.3828125 C24.74443115 38.62579102 24.7076123 39.86876953 24.66967773 41.14941406 C24.59928055 43.59647777 24.53606638 46.04376072 24.48071289 48.49121094 C24.30768663 54.33510024 23.98681958 59.48195047 22 65 C21.34 65 20.68 65 20 65 C14.74765216 53.39067034 16.8780985 37.65311163 16.9375 25.125 C16.94252888 23.26171996 16.94708931 21.3984386 16.95117188 19.53515625 C16.96205869 15.02340405 16.97924546 10.51171715 17 6 C8.95619068 3.28374714 1.50945928 1.68483484 -7 2 C-7.73217805 5.94378911 -8.12929519 9.68211384 -8.14526367 13.69140625 C-8.15164352 14.78694824 -8.15802338 15.88249023 -8.16459656 17.01123047 C-8.16570938 18.18314941 -8.1668222 19.35506836 -8.16796875 20.5625 C-8.17129715 21.78598145 -8.17462555 23.00946289 -8.17805481 24.27001953 C-8.18311183 26.85888291 -8.18546351 29.44775278 -8.18530273 32.03662109 C-8.18747678 35.95812027 -8.20561154 39.87933227 -8.22460938 43.80078125 C-8.22754619 46.32551988 -8.22952906 48.85025984 -8.23046875 51.375 C-8.24124702 53.10858765 -8.24124702 53.10858765 -8.25224304 54.87719727 C-8.49300673 73.24639382 -8.49300673 73.24639382 -0.8984375 89.2109375 C-0.27195312 89.80132812 0.35453125 90.39171875 1 91 C-1.04190981 90.85761163 -3.08352045 90.71092972 -5.125 90.5625 C-6.83042969 90.44068359 -6.83042969 90.44068359 -8.5703125 90.31640625 C-11.75532567 90.02257246 -14.84986047 89.54306086 -18 89 C-17.91959473 88.15743652 -17.83918945 87.31487305 -17.75634766 86.44677734 C-15.84839359 66.31935889 -14.05172898 46.19381694 -13 26 C-12.95182129 25.07622559 -12.90364258 24.15245117 -12.85400391 23.20068359 C-12.74717099 20.86253024 -12.67504289 18.52747339 -12.625 16.1875 C-12.59664062 14.98480469 -12.56828125 13.78210938 -12.5390625 12.54296875 C-13.14349671 7.89702103 -14.91155651 4.15854654 -17 0 C-21.02045543 -0.33799692 -25.04141688 -0.66956119 -29.0625 -1 C-30.19623047 -1.09539062 -31.32996094 -1.19078125 -32.49804688 -1.2890625 C-43.27428165 -2.93514161 -43.27428165 -2.93514161 -52.9375 0.5 C-54.4534375 1.7375 -54.4534375 1.7375 -56 3 C-56.33 1.35 -56.66 -0.3 -57 -2 C-62.26000871 -2.02762857 -67.49637643 -1.800012 -72.75 -1.5625 Z " fill="#FDE5DE" transform="translate(536,80)"/>
<path d="M0 0 C10.47508236 2.85684064 20.75190217 6.41316576 31 10 C31 96.46 31 182.92 31 272 C5 281 5 281 0 282 C0 188.94 0 95.88 0 0 Z " fill="#FCD7D2" transform="translate(45,18)"/>
<path d="M0 0 C0 92.73 0 185.46 0 281 C-10 278 -20 275 -30 272 C-30 185.21 -30 98.42 -30 9 C-2 0 -2 0 0 0 Z " fill="#FDD8D3" transform="translate(919,19)"/>
<path d="M0 0 C0.64836012 -0.00140232 1.29672024 -0.00280463 1.96472764 -0.00424945 C4.1687031 -0.00776903 6.37261022 -0.00407248 8.57658482 -0.00049198 C10.16690689 -0.00153373 11.75722873 -0.00301395 13.34755003 -0.00489634 C17.7584896 -0.0088229 22.16940753 -0.00644355 26.58034678 -0.00311839 C31.36362699 -0.0005982 36.14690369 -0.003835 40.93018341 -0.00636172 C49.32698168 -0.00998688 57.72377352 -0.00985562 66.12057209 -0.00731456 C78.60650215 -0.00354623 91.09242675 -0.00545842 103.57835677 -0.00852287 C125.87274271 -0.01380054 148.16712579 -0.01332748 170.461512 -0.01044396 C189.9711783 -0.00793285 209.48084356 -0.00726962 228.99050999 -0.0084666 C230.92830199 -0.00858118 230.92830199 -0.00858118 232.9052413 -0.00869807 C238.14873364 -0.00900939 243.39222598 -0.00932778 248.63571831 -0.00965784 C263.29473842 -0.01056956 277.95375853 -0.01114548 292.61277866 -0.01144397 C293.61420218 -0.01146444 293.61420218 -0.01146444 294.63585648 -0.01148532 C315.91870155 -0.01189479 337.20154626 -0.01076676 358.48439121 -0.00859439 C359.52029022 -0.00848902 359.52029022 -0.00848902 360.57711649 -0.00838152 C371.79300347 -0.00723648 383.00889044 -0.00601706 394.22477741 -0.00479134 C438.71221052 0.00006524 483.19964062 -0.00016017 527.68707371 -0.00502193 C538.89721266 -0.00624305 550.10735162 -0.00745408 561.31749058 -0.00859439 C562.35277198 -0.00870007 562.35277198 -0.00870007 563.40896815 -0.00880787 C584.66901319 -0.01096307 605.92905798 -0.01187852 627.18910313 -0.01144397 C628.18979739 -0.0114236 628.18979739 -0.0114236 629.2107077 -0.01140281 C644.51007466 -0.01107636 659.80944159 -0.01037268 675.10880852 -0.00940967 C680.34299628 -0.00908893 685.57718404 -0.00877609 690.8113718 -0.0084666 C692.10025413 -0.00838752 693.38913645 -0.00830845 694.71707582 -0.00822697 C714.21910965 -0.00708734 733.72114233 -0.00842379 753.223176 -0.01094615 C775.38785129 -0.01379853 797.55252326 -0.01310533 819.71719813 -0.00766541 C832.13677341 -0.00471818 844.55634151 -0.00455314 856.97591661 -0.00831159 C865.25569803 -0.01054185 873.53547367 -0.00918054 881.81525423 -0.00480682 C886.54345429 -0.00241157 891.27164002 -0.00164847 895.99983966 -0.0052128 C900.29127679 -0.00841514 904.58268673 -0.00711173 908.87412183 -0.00203214 C910.42648178 -0.00101525 911.97884392 -0.00171616 913.53120215 -0.00423808 C915.62146265 -0.00739596 917.71162599 -0.00452095 919.80188179 0 C921.54579951 0.00010164 921.54579951 0.00010164 923.32494789 0.00020533 C925.9009409 0.12534916 925.9009409 0.12534916 926.9009409 1.12534916 C926.99901588 2.77685128 927.02649653 4.43257693 927.02678204 6.08698857 C927.03069366 7.70882904 927.03069366 7.70882904 927.0346843 9.36343396 C927.03245358 10.56603297 927.03022286 11.76863198 927.02792454 13.00767338 C927.02948453 14.27372347 927.03104452 15.53977356 927.03265178 16.84418881 C927.0368495 20.37449562 927.03475243 23.90477561 927.03166556 27.43508255 C927.02941347 31.23607584 927.03289012 35.03706434 927.03564548 38.83805668 C927.04010423 46.29058074 927.03912625 53.74309476 927.03623284 61.19561923 C927.03397922 67.24965033 927.03366611 73.3036786 927.03475666 79.35771 C927.03498651 80.64761666 927.03498651 80.64761666 927.035221 81.96358204 C927.03554071 83.71024478 927.03586492 85.45690751 927.03619359 87.20357025 C927.03904869 103.60204997 927.0357609 120.00052411 927.03039323 136.39900291 C927.02592516 150.48552217 927.02670109 164.57203318 927.03131199 178.65855229 C927.03665723 194.99627454 927.038774 211.3339919 927.03569973 227.6717149 C927.03538116 229.41213938 927.03506679 231.15256385 927.03475666 232.89298832 C927.03460238 233.74942681 927.03444811 234.60586529 927.03428916 235.48825645 C927.03342385 241.53865492 927.03488717 247.5890503 927.03723621 253.63944829 C927.04003385 261.00763491 927.03929672 268.37581087 927.03395547 275.74399626 C927.03131796 279.50707822 927.03031421 283.27014238 927.03360462 287.03322423 C927.03710966 291.10317347 927.03293941 295.17307731 927.02792454 299.24302495 C927.03015526 300.44562396 927.03238598 301.64822297 927.0346843 302.88726437 C927.03207655 303.96849135 927.02946881 305.04971833 927.02678204 306.16370976 C927.02661968 307.10449439 927.02645733 308.04527901 927.02629006 309.01457226 C926.9009409 311.12534916 926.9009409 311.12534916 925.9009409 312.12534916 C923.8698872 312.2240194 921.83533081 312.25057981 919.80188179 312.25069833 C918.82934161 312.2528018 918.82934161 312.2528018 917.83715415 312.25494777 C915.63317869 312.25846736 913.42927157 312.25477081 911.22529697 312.2511903 C909.6349749 312.25223206 908.04465306 312.25371227 906.45433176 312.25559467 C902.0433922 312.25952122 897.63247426 312.25714188 893.22153501 312.25381672 C888.4382548 312.25129653 883.6549781 312.25453333 878.87169838 312.25706005 C870.47490011 312.26068521 862.07810827 312.26055395 853.6813097 312.25801289 C841.19537964 312.25424456 828.70945504 312.25615675 816.22352502 312.2592212 C793.92913908 312.26449887 771.634756 312.26402581 749.34036979 312.26114229 C729.83070349 312.25863118 710.32103823 312.25796794 690.8113718 312.25916493 C688.8735798 312.25927951 688.8735798 312.25927951 686.89664049 312.2593964 C681.65314815 312.25970771 676.40965581 312.26002611 671.16616348 312.26035616 C656.50714337 312.26126789 641.84812326 312.26184381 627.18910313 312.2621423 C626.52148745 312.26215595 625.85387177 312.26216959 625.16602531 312.26218365 C603.88318024 312.26259311 582.60033553 312.26146508 561.31749058 312.25929272 C560.62689124 312.25922247 559.9362919 312.25915222 559.2247653 312.25907985 C548.00887832 312.25793481 536.79299135 312.25671539 525.57710438 312.25548967 C481.08967127 312.25063309 436.60224117 312.2508585 392.11480808 312.25572026 C380.90466913 312.25694138 369.69453017 312.25815241 358.48439121 312.25929272 C357.79420361 312.25936317 357.10401601 312.25943362 356.39291364 312.2595062 C335.1328686 312.2616614 313.87282381 312.26257685 292.61277866 312.2621423 C291.6120844 312.26212192 291.6120844 312.26212192 290.59117409 312.26210114 C275.29180713 312.26177468 259.9924402 312.26107101 244.69307327 312.26010799 C239.45888551 312.25978725 234.22469775 312.25947442 228.99050999 312.25916493 C227.70162766 312.25908585 226.41274534 312.25900677 225.08480597 312.2589253 C205.58277214 312.25778567 186.08073946 312.25912212 166.57870579 312.26164448 C144.4140305 312.26449686 122.24935853 312.26380366 100.08468366 312.25836374 C87.66510838 312.2554165 75.24554028 312.25525147 62.82596518 312.25900991 C54.54618376 312.26124018 46.26640812 312.25987886 37.98662756 312.25550514 C33.2584275 312.2531099 28.53024177 312.2523468 23.80204213 312.25591113 C19.510605 312.25911346 15.21919506 312.25781006 10.92775996 312.25273047 C9.37540001 312.25171358 7.82303787 312.25241449 6.27067964 312.2549364 C4.18041914 312.25809429 2.0902558 312.25521927 0 312.25069833 C-1.74391772 312.25059669 -1.74391772 312.25059669 -3.5230661 312.250493 C-6.0990591 312.12534916 -6.0990591 312.12534916 -7.0990591 311.12534916 C-7.19713409 309.47384704 -7.22461474 307.8181214 -7.22490025 306.16370976 C-7.22750799 305.08248278 -7.23011574 304.0012558 -7.23280251 302.88726437 C-7.23057179 301.68466536 -7.22834107 300.48206635 -7.22604275 299.24302495 C-7.22760274 297.97697485 -7.22916273 296.71092476 -7.23076999 295.40650952 C-7.23496771 291.87620271 -7.23287064 288.34592272 -7.22978377 284.81561577 C-7.22753168 281.01462249 -7.23100833 277.21363399 -7.23376369 273.41264164 C-7.23822244 265.96011758 -7.23724446 258.50760356 -7.23435105 251.0550791 C-7.23209743 245.001048 -7.23178432 238.94701972 -7.23287487 232.89298832 C-7.2330281 232.03305055 -7.23318134 231.17311278 -7.23333921 230.28711629 C-7.23365892 228.54045355 -7.23398313 226.79379082 -7.2343118 225.04712808 C-7.2371669 208.64864836 -7.23387911 192.25017422 -7.22851144 175.85169542 C-7.22404337 161.76517616 -7.2248193 147.67866515 -7.2294302 133.59214604 C-7.23477544 117.25442379 -7.23689221 100.91670643 -7.23381793 84.57898343 C-7.23349937 82.83855895 -7.233185 81.09813448 -7.23287487 79.35771 C-7.23272059 78.50127152 -7.23256632 77.64483304 -7.23240737 76.76244187 C-7.23154206 70.71204341 -7.23300538 64.66164803 -7.23535442 58.61125004 C-7.23815206 51.24306342 -7.23741493 43.87488746 -7.23207368 36.50670207 C-7.22943617 32.74362011 -7.22843242 28.98055595 -7.23172283 25.2174741 C-7.23522787 21.14752486 -7.23105762 17.07762102 -7.22604275 13.00767338 C-7.22827347 11.80507437 -7.23050419 10.60247536 -7.23280251 9.36343396 C-7.23019476 8.28220698 -7.22758702 7.20098 -7.22490025 6.08698857 C-7.22473789 5.14620394 -7.22457554 4.20541932 -7.22440827 3.23612607 C-6.96149943 -1.19104275 -3.73554188 0.00021771 0 0 Z M-2.0990591 3.12534916 C-2.0990591 104.43534916 -2.0990591 205.74534916 -2.0990591 310.12534916 C302.4909409 310.12534916 607.0809409 310.12534916 920.9009409 310.12534916 C920.9009409 208.81534916 920.9009409 107.50534916 920.9009409 3.12534916 C616.3109409 3.12534916 311.7209409 3.12534916 -2.0990591 3.12534916 Z " fill="#341B16" transform="translate(23.099059104919434,2.8746508359909058)"/>
<path d="M0 0 C4.16796778 0.01976207 8.33577509 -0.001555 12.50373208 -0.01737164 C19.79119561 -0.03946743 27.07828444 -0.03583635 34.36574614 -0.01485943 C45.20251769 0.01624799 56.03900004 0.00701457 66.87578955 -0.00998494 C86.23373418 -0.03904522 105.59150323 -0.02851765 124.94944152 -0.00134948 C141.8876642 0.02226496 158.82582653 0.03196942 175.76406538 0.02803684 C176.88885487 0.0277924 178.01364436 0.02754795 179.17251838 0.0272961 C183.73868736 0.02628022 188.30485631 0.02519379 192.87102525 0.02400518 C235.67585536 0.01302413 278.48057905 0.04119555 321.28538062 0.0881552 C359.29917245 0.12964888 397.3128539 0.14083629 435.32666456 0.12515141 C445.06386367 0.12116767 454.80106278 0.11720739 464.53826201 0.11352802 C466.33651872 0.11284623 466.33651872 0.11284623 468.17110386 0.11215067 C499.95692368 0.10054237 531.74273381 0.11243676 563.52854859 0.13173534 C566.94917812 0.13379013 570.36980765 0.13583896 573.79043719 0.13787739 C576.05948736 0.13923375 578.32853753 0.14060801 580.59758769 0.14200031 C596.40523181 0.15149887 612.21285224 0.15173381 628.02049759 0.14557233 C648.39032523 0.13764195 668.76003574 0.14589122 689.12983527 0.18277089 C699.89785079 0.20178781 710.66566627 0.20721883 721.43369015 0.19284 C728.63108778 0.18462923 735.82831236 0.19468334 743.02567166 0.21944192 C747.12311639 0.23304063 751.22015615 0.23895298 755.31760051 0.22270278 C785.84876529 0.11133206 785.84876529 0.11133206 799.21338331 5.88687016 C801.04127609 6.50730265 802.87400825 7.11385511 804.71338331 7.69937016 C806.44588331 8.28718266 806.44588331 8.28718266 808.21338331 8.88687016 C808.21338331 9.21687016 808.21338331 9.54687016 808.21338331 9.88687016 C523.75338331 9.88687016 239.29338331 9.88687016 -53.78661669 9.88687016 C-37.63329976 -0.88200779 -18.58727483 -0.12325165 0 0 Z " fill="#FDD8D3" transform="translate(104.78661668673158,291.1131298430264)"/>
<path d="M0 0 C282.81 0 565.62 0 857 0 C854.32363112 2.67636888 851.27382398 3.38400968 847.75 4.5 C846.76580078 4.81904297 846.76580078 4.81904297 845.76171875 5.14453125 C843.84228133 5.76653582 841.92115852 6.38333183 840 7 C838.58064957 7.52473551 838.58064957 7.52473551 837.1326254 8.06007173 C833.93506909 9.01948219 831.40841697 9.25271367 828.08111864 9.25760233 C826.91102671 9.26414672 825.74093478 9.27069111 824.53538552 9.27743381 C822.61720415 9.27298294 822.61720415 9.27298294 820.66027164 9.26844215 C819.27713425 9.27235009 817.89399909 9.27712858 816.51086739 9.28269809 C812.698335 9.29549342 808.88588693 9.29582173 805.07333716 9.29414328 C800.92972571 9.29448238 796.78614442 9.30629584 792.64254802 9.316625 C784.41860299 9.33528071 776.19467949 9.34312173 767.97071594 9.34766293 C758.12168536 9.3535863 748.27268336 9.37098098 738.42366777 9.38849149 C714.61374088 9.43018986 690.80380902 9.45112311 666.99385413 9.46875071 C655.72739331 9.47716415 644.46093462 9.4876082 633.1944756 9.49811976 C594.62134976 9.5339049 556.04822331 9.56389428 517.47508335 9.57876015 C515.05312772 9.57970966 512.6311721 9.58066144 510.20921647 9.58161547 C508.40761617 9.5823246 508.40761617 9.5823246 506.56961991 9.58304805 C500.48448292 9.58545043 494.39934595 9.58788134 488.31420898 9.59033203 C486.50279001 9.59105248 486.50279001 9.59105248 484.65477672 9.59178749 C445.52061437 9.60756553 406.38657342 9.65441034 367.25246406 9.71944392 C325.87021834 9.78808775 284.4880436 9.82746702 243.10574001 9.83404863 C238.55987764 9.83488369 234.01401532 9.83584281 229.468153 9.83689499 C228.34884769 9.83714137 227.22954238 9.83738776 226.07631873 9.83764161 C208.08513659 9.8423003 190.09409567 9.87359105 172.10296381 9.91457868 C154.00518248 9.95515384 135.90757021 9.96602174 117.80975182 9.94703741 C107.06756819 9.9366294 96.32594869 9.94825691 85.58384661 9.99210676 C78.39428095 10.01922792 71.2051013 10.01687723 64.01553133 9.99130284 C59.92783126 9.97757781 55.84120532 9.97592781 51.75360353 10.01042302 C33.26481586 10.15732568 17.1101789 8.78760316 0 1 C0 0.67 0 0.34 0 0 Z " fill="#F6D0CC" transform="translate(55,18)"/>
<path d="M0 0 C2.97 0 5.94 0 9 0 C9 94.71 9 189.42 9 287 C-279.09 286.67 -567.18 286.34 -864 286 C-864 285.67 -864 285.34 -864 285 C-580.53 284.67 -297.06 284.34 -5 284 C-17.96197588 279.28655423 -27.44859331 276.54828674 -41.01921368 276.61523914 C-42.4151404 276.6113049 -43.81106392 276.60605951 -45.20698139 276.59963337 C-49.03159846 276.58579845 -52.8559993 276.59047944 -56.68062511 276.59826221 C-60.84564164 276.60342013 -65.01061346 276.59115962 -69.17561609 276.58113068 C-76.47133219 276.56595135 -83.76698909 276.56183817 -91.06271935 276.56500816 C-101.91115118 276.56967148 -112.75951604 276.55717495 -123.60793466 276.54117843 C-141.85759702 276.51475366 -160.1072442 276.50222141 -178.35692406 276.49761391 C-196.42571187 276.49300665 -214.49447861 276.48222035 -232.56325722 276.46318626 C-233.68682832 276.46200614 -234.81039942 276.46082601 -235.96801813 276.45961012 C-241.67409611 276.45358468 -247.38017396 276.44744889 -253.08625177 276.44127061 C-293.49963428 276.39771138 -333.91301629 276.36799931 -374.32641602 276.34643555 C-413.58684038 276.32545529 -452.8472522 276.29819973 -492.10766602 276.26245117 C-493.31789857 276.26135169 -494.52813113 276.26025222 -495.7750374 276.25911942 C-507.92871903 276.24807106 -520.08240054 276.23689516 -532.23608196 276.2256258 C-556.99440819 276.20267184 -581.75273516 276.18056919 -606.51106262 276.15898132 C-607.64940395 276.1579877 -608.78774528 276.15699409 -609.9605818 276.15597036 C-685.97371092 276.08971869 -761.98685477 276.04331156 -838 276 C-838 275.67 -838 275.34 -838 275 C-572.02 274.67 -306.04 274.34 -32 274 C-31.67 187.54 -31.34 101.08 -31 12 C-26.42234307 9.71117154 -22.83490289 8.24695286 -18 6.9375 C-13.60191866 5.73670806 -9.3333493 4.44444977 -5 3 C-287.81 3 -570.62 3 -862 3 C-862 2.34 -862 1.68 -862 1 C-861.25270065 1.00015598 -860.50540129 1.00031196 -859.7354565 1.00047267 C-778.4193362 1.01741005 -697.1032157 1.0331167 -615.78709412 1.04234314 C-613.96662517 1.04255023 -613.96662517 1.04255023 -612.10937907 1.04276149 C-585.73696294 1.04575403 -559.36454679 1.04852427 -532.99213061 1.05106533 C-520.06010204 1.05231272 -507.12807348 1.05360927 -494.19604492 1.05493164 C-492.90911612 1.0550624 -491.62218732 1.05519316 -490.29626068 1.05532788 C-448.54319181 1.05959328 -406.79012429 1.0671076 -365.03705624 1.07629722 C-322.1494151 1.08571946 -279.26177471 1.09188304 -236.37413255 1.09391499 C-230.32395008 1.09420317 -224.2737676 1.0945288 -218.22358513 1.09487724 C-217.03275999 1.09494467 -215.84193485 1.09501209 -214.6150241 1.09508156 C-195.40486802 1.09626572 -176.19471425 1.10091036 -156.98455911 1.10683203 C-137.69680931 1.11270439 -118.4090618 1.11497173 -99.12131114 1.11350138 C-87.64599876 1.11273772 -76.17069474 1.11479584 -64.69538386 1.12079754 C-57.04498716 1.12452732 -49.39459598 1.12467795 -41.74419891 1.12183181 C-37.3754559 1.12031156 -33.00672879 1.12042925 -28.63798744 1.12488318 C-24.67270298 1.12889539 -20.70744699 1.1284037 -16.74216302 1.12413998 C-15.30786666 1.12341895 -13.87356827 1.12441597 -12.43927449 1.12723524 C-10.50783791 1.13079443 -8.57639237 1.12770904 -6.64495569 1.1241985 C-5.57071714 1.12435448 -4.49647858 1.12451046 -3.38968733 1.12467116 C-1.0466282 1.26973035 -1.0466282 1.26973035 0 0 Z M-26 12 C-26 98.79 -26 185.58 -26 275 C-11.08987392 279.81669643 -11.08987392 279.81669643 4 284 C4 191.27 4 98.54 4 3 C-6.44030651 3 -16.06053001 8.80517036 -26 12 Z " fill="#553A34" transform="translate(915,16)"/>
<path d="M0 0 C1.09828125 -0.02900391 2.1965625 -0.05800781 3.328125 -0.08789062 C4.92140625 -0.10045898 4.92140625 -0.10045898 6.546875 -0.11328125 C8.00625488 -0.13515503 8.00625488 -0.13515503 9.49511719 -0.1574707 C13.19457412 0.47364013 14.721515 1.5393229 17.25 4.3125 C18.02892561 7.02575754 18.48782156 9.28495417 18.796875 12.05078125 C18.89840881 12.80860397 18.99994263 13.5664267 19.10455322 14.34721375 C19.42356074 16.77100302 19.71161514 19.19739847 20 21.625 C20.20773423 23.21444234 20.41735296 24.80363959 20.62890625 26.39257812 C21.59434203 33.79886886 22.41451994 41.22288469 23.015625 48.66796875 C23.11133789 49.83352295 23.20705078 50.99907715 23.30566406 52.19995117 C23.24425768 55.63359161 22.77283666 58.78966334 20.25 61.3125 C12.66353691 62.62554169 4.91827809 62.4206732 -2.75 62.3125 C-3.41 59.3425 -4.07 56.3725 -4.75 53.3125 C-5.15992188 53.86679688 -5.56984375 54.42109375 -5.9921875 54.9921875 C-6.53101563 55.71664062 -7.06984375 56.44109375 -7.625 57.1875 C-8.15867187 57.90679687 -8.69234375 58.62609375 -9.2421875 59.3671875 C-10.75 61.3125 -10.75 61.3125 -12.75 63.3125 C-15.18927246 63.48995632 -17.50051818 63.54626638 -19.9375 63.5 C-20.99868042 63.48815674 -20.99868042 63.48815674 -22.08129883 63.47607422 C-43.83502592 63.13326773 -43.83502592 63.13326773 -48.75 60.3125 C-54.16075685 52.16903767 -55.98616207 41.19681719 -54.26953125 31.63671875 C-52.20419321 24.84734785 -48.72013772 19.29259182 -42.75 15.3125 C-37.88168336 13.31044079 -33.55998101 12.92832304 -28.375 12.9375 C-27.62347656 12.93621094 -26.87195313 12.93492187 -26.09765625 12.93359375 C-20.37123889 13.0431426 -16.57634438 14.09493708 -11.75 17.3125 C-11.42 17.3125 -11.09 17.3125 -10.75 17.3125 C-10.90597656 16.16910156 -11.06195313 15.02570313 -11.22265625 13.84765625 C-11.41956059 12.35680907 -11.61615944 10.86592153 -11.8125 9.375 C-11.91626953 8.62025391 -12.02003906 7.86550781 -12.12695312 7.08789062 C-12.37665638 5.16775872 -12.56790281 3.24021856 -12.75 1.3125 C-10.21542988 -1.22207012 -3.40249133 0.02953552 0 0 Z " fill="#FEF8F0" transform="translate(500.75,180.6875)"/>
<path d="M0 0 C267.63 0 535.26 0 811 0 C807.60345786 2.26436143 806.45378803 2.24963565 802.47213298 2.24839699 C801.31292367 2.25289158 800.15371436 2.25738617 798.9593775 2.26201695 C797.6773648 2.25676292 796.39535211 2.2515089 795.07449055 2.24609566 C793.69982878 2.24757408 792.32516773 2.24993034 790.9505088 2.25308865 C787.14766082 2.25925294 783.344919 2.25285487 779.54207888 2.24453239 C775.41454998 2.23768658 771.28703227 2.24240125 767.15950125 2.24568737 C759.91717275 2.24984323 752.67487704 2.24653304 745.43255234 2.23841095 C734.66339623 2.22636705 723.8942609 2.2257369 713.12509928 2.22749493 C695.01182254 2.23012612 676.89856036 2.22342707 658.78528786 2.21146011 C640.84386943 2.199637 622.90245707 2.19193043 604.96103477 2.18975449 C603.84661818 2.18961701 602.73220159 2.18947953 601.5840148 2.18933788 C595.92474557 2.18866124 590.26547634 2.18805846 584.6062071 2.18748413 C544.49340802 2.18328029 504.38061687 2.16979715 464.26782227 2.15087891 C425.29223676 2.13251818 386.31665342 2.11834697 347.34106445 2.10986328 C346.14023808 2.10960023 344.9394117 2.10933718 343.70219665 2.10906615 C331.64330199 2.10642917 319.58440731 2.10387754 307.52551261 2.10138843 C282.95887739 2.09631564 258.39224231 2.09067313 233.8256073 2.08468628 C232.13120546 2.08427441 232.13120546 2.08427441 230.40257329 2.08385422 C195.77023773 2.07540592 161.13790351 2.06454228 126.50556946 2.05130005 C125.52207716 2.05092493 124.53858486 2.05054982 123.52528977 2.05016333 C83.6835259 2.03493063 43.84176308 2.01714424 4 2 C4 88.13 4 174.26 4 263 C268.99 263 533.98 263 807 263 C807 263.33 807 263.66 807 264 C540.03 264.33 273.06 264.66 -2 265 C-2 264.34 -2 263.68 -2 263 C-1.34 263 -0.68 263 0 263 C0 176.21 0 89.42 0 0 Z " fill="#442B26" transform="translate(76,27)"/>
<path d="M0 0 C0 87.12 0 174.24 0 264 C-268.29 264 -536.58 264 -813 264 C-813 263.67 -813 263.34 -813 263 C-547.02 262.67 -281.04 262.34 -7 262 C-6.67 175.54 -6.34 89.08 -6 0 C-3 -1 -3 -1 0 0 Z " fill="#5F4640" transform="translate(890,28)"/>
<path d="M0 0 C3.875 1.75 3.875 1.75 5 4 C7.51197178 18.50342833 6.9584483 32.40077852 6 47 C2.8568669 48.57156655 0.634536 47.11705576 -2.625 46.0625 C-4.40777344 45.49208984 -4.40777344 45.49208984 -6.2265625 44.91015625 C-7.14179688 44.60980469 -8.05703125 44.30945313 -9 44 C-9.05878077 40.35423608 -9.0938558 36.70859648 -9.125 33.0625 C-9.14175781 32.04091797 -9.15851563 31.01933594 -9.17578125 29.96679688 C-9.22961062 21.54249977 -8.46259633 14.11317897 -4.5 6.5625 C-3.86578125 5.32693359 -3.86578125 5.32693359 -3.21875 4.06640625 C-2 2 -2 2 0 0 Z " fill="#FDE5DE" transform="translate(488,114)"/>
<path d="M0 0 C3.65316671 1.24976756 4.78065836 1.67098753 7 5 C7.32727273 10.34545455 7.32727273 10.34545455 6 13 C4.1875 12.9375 4.1875 12.9375 2 12 C0.03162185 8.47049435 -1.11990624 6.12711866 -0.6875 2.0625 C-0.460625 1.381875 -0.23375 0.70125 0 0 Z " fill="#FDE6DF" transform="translate(417,110)"/>
<path d="M0 0 C8.25732112 1.25959136 16.12760847 4.28252097 24 7 C23.67 7.99 23.34 8.98 23 10 C22.11699219 9.67386719 21.23398437 9.34773438 20.32421875 9.01171875 C12.95213925 6.32736327 5.61838502 3.91237012 -2 2 C-1.34 1.34 -0.68 0.68 0 0 Z " fill="#4B312C" transform="translate(890,291)"/>
<path d="M0 0 C5.21838653 0.37274189 10.00090581 2.28221644 14.875 4.0625 C15.65875 4.34416016 16.4425 4.62582031 17.25 4.91601562 C19.16830576 5.60613782 21.08438519 6.30244316 23 7 C20.60228131 8.53861706 19.47271643 9.08246857 16.61816406 8.58447266 C15.75932617 8.2807373 14.90048828 7.97700195 14.015625 7.6640625 C13.08105469 7.34179688 12.14648438 7.01953125 11.18359375 6.6875 C10.21550781 6.336875 9.24742188 5.98625 8.25 5.625 C6.77466797 5.11066406 6.77466797 5.11066406 5.26953125 4.5859375 C2.84131702 3.73724126 0.4188627 2.87492127 -2 2 C-1.34 1.34 -0.68 0.68 0 0 Z " fill="#513732" transform="translate(55,19)"/>
<path d="M0 0 C-3.59952042 1.20191984 -7.20524257 2.38402448 -10.8125 3.5625 C-11.83666016 3.90474609 -12.86082031 4.24699219 -13.91601562 4.59960938 C-15.39038086 5.07817383 -15.39038086 5.07817383 -16.89453125 5.56640625 C-17.80050049 5.86490479 -18.70646973 6.16340332 -19.63989258 6.47094727 C-22 7 -22 7 -25 6 C-24 4 -24 4 -21.05078125 3 C-19.81714844 2.67 -18.58351563 2.34 -17.3125 2 C-11.9910084 0.5649827 -11.9910084 0.5649827 -6.79296875 -1.25 C-3.50110372 -2.13396935 -2.83949713 -1.62842901 0 0 Z " fill="#503631" transform="translate(914,21)"/>
<path d="M0 0 C0 0.66 0 1.32 0 2 C-7.92 4.64 -15.84 7.28 -24 10 C-24 9.01 -24 8.02 -24 7 C-20.56496228 5.82599412 -17.12659286 4.66206791 -13.6875 3.5 C-12.71103516 3.16613281 -11.73457031 2.83226562 -10.72851562 2.48828125 C-9.79072266 2.17246094 -8.85292969 1.85664063 -7.88671875 1.53125 C-6.59060669 1.09135742 -6.59060669 1.09135742 -5.26831055 0.64257812 C-3 0 -3 0 0 0 Z " fill="#3E2520" transform="translate(74,291)"/>
<path d="M0 0 C1.67542976 0.28604898 3.34385343 0.61781233 5 1 C5.33 1.99 5.66 2.98 6 4 C4.75 5.5625 4.75 5.5625 3 7 C0.8125 6.6875 0.8125 6.6875 -1 6 C-1.042721 4.33388095 -1.04063832 2.66617115 -1 1 C-0.67 0.67 -0.34 0.34 0 0 Z " fill="#FDE6DF" transform="translate(470,218)"/>
<path d="M0 0 C2.97 0 5.94 0 9 0 C9 0.66 9 1.32 9 2 C7.25 3.2890625 7.25 3.2890625 5 4.625 C4.2575 5.07101563 3.515 5.51703125 2.75 5.9765625 C2.1725 6.31429687 1.595 6.65203125 1 7 C0.67 4.69 0.34 2.38 0 0 Z " fill="#FDE5DE" transform="translate(435,152)"/>
<path d="M0 0 C2.97 0.495 2.97 0.495 6 1 C5.67 2.32 5.34 3.64 5 5 C3.35 5.33 1.7 5.66 0 6 C-1.125 2.25 -1.125 2.25 0 0 Z " fill="#FDE7E0" transform="translate(359,131)"/>
<path d="M0 0 C-1 2 -1 2 -3.28515625 2.8515625 C-4.65994141 3.23441406 -4.65994141 3.23441406 -6.0625 3.625 C-6.98160156 3.88539063 -7.90070312 4.14578125 -8.84765625 4.4140625 C-9.55792969 4.60742188 -10.26820312 4.80078125 -11 5 C-11 4.01 -11 3.02 -11 2 C-9.73392393 1.46770674 -8.46189588 0.94955456 -7.1875 0.4375 C-6.47980469 0.14746094 -5.77210937 -0.14257812 -5.04296875 -0.44140625 C-3 -1 -3 -1 0 0 Z " fill="#4F342F" transform="translate(61,296)"/>
<path d="M0 0 C3.27310883 0.20892184 5.32433057 0.43694214 7.875 2.5625 C8.431875 3.2740625 8.431875 3.2740625 9 4 C7 5 7 5 4.8359375 4.44140625 C4.02382813 4.15136719 3.21171875 3.86132812 2.375 3.5625 C1.55773438 3.27503906 0.74046875 2.98757812 -0.1015625 2.69140625 C-0.72804687 2.46324219 -1.35453125 2.23507813 -2 2 C-1.34 1.34 -0.68 0.68 0 0 Z " fill="#583D38" transform="translate(55,19)"/>
<path d="M0 0 C3.125 0.375 3.125 0.375 6 1 C6 1.99 6 2.98 6 4 C3.36 3.34 0.72 2.68 -2 2 C-1.34 1.34 -0.68 0.68 0 0 Z " fill="#614540" transform="translate(890,291)"/>
</svg>
