<?xml version="1.0" encoding="UTF-8"?>
<svg version="1.1" xmlns="http://www.w3.org/2000/svg" width="960" height="320">
<path d="M0 0 C0.64836012 -0.00140232 1.29672024 -0.00280463 1.96472764 -0.00424945 C4.1687031 -0.00776903 6.37261022 -0.00407248 8.57658482 -0.00049198 C10.16690689 -0.00153373 11.75722873 -0.00301395 13.34755003 -0.00489634 C17.7584896 -0.0088229 22.16940753 -0.00644355 26.58034678 -0.00311839 C31.36362699 -0.0005982 36.14690369 -0.003835 40.93018341 -0.00636172 C49.32698168 -0.00998688 57.72377352 -0.00985562 66.12057209 -0.00731456 C78.60650215 -0.00354623 91.09242675 -0.00545842 103.57835677 -0.00852287 C125.87274271 -0.01380054 148.16712579 -0.01332748 170.461512 -0.01044396 C189.9711783 -0.00793285 209.48084356 -0.00726962 228.99050999 -0.0084666 C230.92830199 -0.00858118 230.92830199 -0.00858118 232.9052413 -0.00869807 C238.14873364 -0.00900939 243.39222598 -0.00932778 248.63571831 -0.00965784 C263.29473842 -0.01056956 277.95375853 -0.01114548 292.61277866 -0.01144397 C293.61420218 -0.01146444 293.61420218 -0.01146444 294.63585648 -0.01148532 C315.91870155 -0.01189479 337.20154626 -0.01076676 358.48439121 -0.00859439 C359.52029022 -0.00848902 359.52029022 -0.00848902 360.57711649 -0.00838152 C371.79300347 -0.00723648 383.00889044 -0.00601706 394.22477741 -0.00479134 C438.71221052 0.00006524 483.19964062 -0.00016017 527.68707371 -0.00502193 C538.89721266 -0.00624305 550.10735162 -0.00745408 561.31749058 -0.00859439 C562.35277198 -0.00870007 562.35277198 -0.00870007 563.40896815 -0.00880787 C584.66901319 -0.01096307 605.92905798 -0.01187852 627.18910313 -0.01144397 C628.18979739 -0.0114236 628.18979739 -0.0114236 629.2107077 -0.01140281 C644.51007466 -0.01107636 659.80944159 -0.01037268 675.10880852 -0.00940967 C680.34299628 -0.00908893 685.57718404 -0.00877609 690.8113718 -0.0084666 C692.10025413 -0.00838752 693.38913645 -0.00830845 694.71707582 -0.00822697 C714.21910965 -0.00708734 733.72114233 -0.00842379 753.223176 -0.01094615 C775.38785129 -0.01379853 797.55252326 -0.01310533 819.71719813 -0.00766541 C832.13677341 -0.00471818 844.55634151 -0.00455314 856.97591661 -0.00831159 C865.25569803 -0.01054185 873.53547367 -0.00918054 881.81525423 -0.00480682 C886.54345429 -0.00241157 891.27164002 -0.00164847 895.99983966 -0.0052128 C900.29127679 -0.00841514 904.58268673 -0.00711173 908.87412183 -0.00203214 C910.42648178 -0.00101525 911.97884392 -0.00171616 913.53120215 -0.00423808 C915.62146265 -0.00739596 917.71162599 -0.00452095 919.80188179 0 C921.54579951 0.00010164 921.54579951 0.00010164 923.32494789 0.00020533 C925.9009409 0.12534916 925.9009409 0.12534916 926.9009409 1.12534916 C926.99902747 2.78206386 927.02649656 4.44299018 927.02678204 6.10260594 C927.03069366 7.7296715 927.03069366 7.7296715 927.0346843 9.38960707 C927.03245358 10.59609703 927.03022286 11.80258699 927.02792454 13.04563725 C927.02948453 14.31577089 927.03104452 15.58590454 927.03265178 16.89452708 C927.03684952 20.43623543 927.03475243 23.97791706 927.03166556 27.51962554 C927.02941348 31.33288887 927.03289012 35.14614744 927.03564548 38.95940983 C927.04010424 46.43599735 927.03912625 53.91257486 927.03623284 61.38916278 C927.03397922 67.46274003 927.03366611 73.53631446 927.03475666 79.60989201 C927.03498651 80.90396171 927.03498651 80.90396171 927.035221 82.22417423 C927.03554071 83.97647397 927.03586492 85.7287737 927.03619359 87.48107344 C927.03904869 103.93248827 927.03576089 120.38389755 927.03039323 136.83531147 C927.02592516 150.9673125 927.02670109 165.09930532 927.03131199 179.2313062 C927.03665722 195.62176616 927.038774 212.01222124 927.03569973 228.40268195 C927.03538116 230.1487234 927.03506679 231.89476486 927.03475666 233.64080632 C927.03460238 234.50000891 927.03444811 235.3592115 927.03428916 236.24445054 C927.03342385 242.31438567 927.03488718 248.38431771 927.03723621 254.45425236 C927.04003385 261.84622754 927.03929673 269.2381921 927.03395547 276.63016605 C927.03131796 280.40539959 927.03031422 284.18061538 927.03360462 287.95584881 C927.03710965 292.03893519 927.03293942 296.1219763 927.02792454 300.20506108 C927.03015526 301.41155104 927.03238598 302.618041 927.0346843 303.86109126 C927.03207655 304.94580163 927.02946881 306.030512 927.02678204 307.14809239 C927.02661968 308.09191478 927.02645733 309.03573717 927.02629006 310.00816023 C926.9009409 312.12534916 926.9009409 312.12534916 925.9009409 313.12534916 C923.8698872 313.2240194 921.83533081 313.25057981 919.80188179 313.25069833 C918.82934161 313.2528018 918.82934161 313.2528018 917.83715415 313.25494777 C915.63317869 313.25846736 913.42927157 313.25477081 911.22529697 313.2511903 C909.6349749 313.25223206 908.04465306 313.25371227 906.45433176 313.25559467 C902.0433922 313.25952122 897.63247426 313.25714188 893.22153501 313.25381672 C888.4382548 313.25129653 883.6549781 313.25453333 878.87169838 313.25706005 C870.47490011 313.26068521 862.07810827 313.26055395 853.6813097 313.25801289 C841.19537964 313.25424456 828.70945504 313.25615675 816.22352502 313.2592212 C793.92913908 313.26449887 771.634756 313.26402581 749.34036979 313.26114229 C729.83070349 313.25863118 710.32103823 313.25796794 690.8113718 313.25916493 C688.8735798 313.25927951 688.8735798 313.25927951 686.89664049 313.2593964 C681.65314815 313.25970771 676.40965581 313.26002611 671.16616348 313.26035616 C656.50714337 313.26126789 641.84812326 313.26184381 627.18910313 313.2621423 C626.52148745 313.26215595 625.85387177 313.26216959 625.16602531 313.26218365 C603.88318024 313.26259311 582.60033553 313.26146508 561.31749058 313.25929272 C560.62689124 313.25922247 559.9362919 313.25915222 559.2247653 313.25907985 C548.00887832 313.25793481 536.79299135 313.25671539 525.57710438 313.25548967 C481.08967127 313.25063309 436.60224117 313.2508585 392.11480808 313.25572026 C380.90466913 313.25694138 369.69453017 313.25815241 358.48439121 313.25929272 C357.79420361 313.25936317 357.10401601 313.25943362 356.39291364 313.2595062 C335.1328686 313.2616614 313.87282381 313.26257685 292.61277866 313.2621423 C291.6120844 313.26212192 291.6120844 313.26212192 290.59117409 313.26210114 C275.29180713 313.26177468 259.9924402 313.26107101 244.69307327 313.26010799 C239.45888551 313.25978725 234.22469775 313.25947442 228.99050999 313.25916493 C227.70162766 313.25908585 226.41274534 313.25900677 225.08480597 313.2589253 C205.58277214 313.25778567 186.08073946 313.25912212 166.57870579 313.26164448 C144.4140305 313.26449686 122.24935853 313.26380366 100.08468366 313.25836374 C87.66510838 313.2554165 75.24554028 313.25525147 62.82596518 313.25900991 C54.54618376 313.26124018 46.26640812 313.25987886 37.98662756 313.25550514 C33.2584275 313.2531099 28.53024177 313.2523468 23.80204213 313.25591113 C19.510605 313.25911346 15.21919506 313.25781006 10.92775996 313.25273047 C9.37540001 313.25171358 7.82303787 313.25241449 6.27067964 313.2549364 C4.18041914 313.25809429 2.0902558 313.25521927 0 313.25069833 C-1.74391772 313.25059669 -1.74391772 313.25059669 -3.5230661 313.250493 C-6.0990591 313.12534916 -6.0990591 313.12534916 -7.0990591 312.12534916 C-7.19714568 310.46863447 -7.22461477 308.80770815 -7.22490025 307.14809239 C-7.22750799 306.06338202 -7.23011574 304.97867164 -7.23280251 303.86109126 C-7.23057179 302.6546013 -7.22834107 301.44811134 -7.22604275 300.20506108 C-7.22760274 298.93492743 -7.22916273 297.66479379 -7.23076999 296.35617125 C-7.23496773 292.81446289 -7.23287064 289.27278127 -7.22978377 285.73107278 C-7.22753169 281.91780945 -7.23100833 278.10455089 -7.23376369 274.2912885 C-7.23822245 266.81470098 -7.23724446 259.33812347 -7.23435105 251.86153555 C-7.23209743 245.7879583 -7.23178432 239.71438386 -7.23287487 233.64080632 C-7.2330281 232.77809318 -7.23318134 231.91538005 -7.23333921 231.0265241 C-7.23365892 229.27422436 -7.23398313 227.52192462 -7.2343118 225.76962489 C-7.2371669 209.31821005 -7.2338791 192.86680078 -7.22851144 176.41538686 C-7.22404337 162.28338583 -7.2248193 148.15139301 -7.2294302 134.01939213 C-7.23477543 117.62893217 -7.23689221 101.23847709 -7.23381793 84.84801638 C-7.23349937 83.10197493 -7.233185 81.35593347 -7.23287487 79.60989201 C-7.23272059 78.75068942 -7.23256632 77.89148682 -7.23240737 77.00624779 C-7.23154206 70.93631266 -7.23300539 64.86638062 -7.23535442 58.79644597 C-7.23815206 51.40447078 -7.23741494 44.01250623 -7.23207368 36.62053227 C-7.22943617 32.84529873 -7.22843243 29.07008294 -7.23172283 25.29484951 C-7.23522786 21.21176314 -7.23105763 17.12872202 -7.22604275 13.04563725 C-7.22827347 11.83914729 -7.23050419 10.63265733 -7.23280251 9.38960707 C-7.23019476 8.3048967 -7.22758702 7.22018632 -7.22490025 6.10260594 C-7.22465672 4.68687236 -7.22465672 4.68687236 -7.22440827 3.24253809 C-6.96192998 -1.19080722 -3.74318911 0.00021816 0 0 Z " fill="#F49492" transform="translate(23.099059104919434,4.874650835990906)"/>
<path d="M0 0 C0.9796875 0.05027344 1.959375 0.10054688 2.96875 0.15234375 C4.49628906 0.25482422 4.49628906 0.25482422 6.0546875 0.359375 C7.04984375 0.41222656 8.045 0.46507813 9.0703125 0.51953125 C15.375953 0.87350324 21.65159548 1.42701134 27.9296875 2.109375 C30.28624074 7.65347657 31.36347426 12.17424836 31.1796875 18.234375 C31.16107666 19.38619263 31.16107666 19.38619263 31.14208984 20.5612793 C31.09227699 23.07833788 31.01420711 25.59325456 30.9296875 28.109375 C30.90358398 28.97997559 30.87748047 29.85057617 30.85058594 30.74755859 C30.23205057 50.30251876 28.1592497 69.68372136 25.9296875 89.109375 C20.17114334 88.61484196 14.90283882 87.71294481 9.3671875 86.046875 C7.53994141 85.50353516 7.53994141 85.50353516 5.67578125 84.94921875 C4.31646484 84.53349609 4.31646484 84.53349609 2.9296875 84.109375 C2.94016113 83.33037842 2.95063477 82.55138184 2.96142578 81.7487793 C3.14009267 66.39360368 3.05319003 51.33412977 0.9296875 36.109375 C-2.64287433 37.25146091 -2.64287433 37.25146091 -5.36328125 39.703125 C-9.5922649 48.71510763 -10.37973882 57.88584644 -10.6953125 67.734375 C-10.73398437 68.73855469 -10.77265625 69.74273437 -10.8125 70.77734375 C-10.90559517 73.22109199 -10.98898291 75.66520691 -11.0703125 78.109375 C-14.0403125 77.779375 -17.0103125 77.449375 -20.0703125 77.109375 C-19.4309375 77.955 -18.7915625 78.800625 -18.1328125 79.671875 C-15.85427185 83.14201995 -15.34070087 85.91835529 -15.0703125 90.109375 C-15.00714844 91.03234375 -14.94398438 91.9553125 -14.87890625 92.90625 C-14.58098899 100.47911442 -15.4961671 106.8765795 -20.51171875 112.81640625 C-22.0703125 114.109375 -22.0703125 114.109375 -25.1953125 114.734375 C-30.02866182 113.95480253 -32.31448087 111.98030604 -35.95703125 108.8359375 C-39.96668864 105.56002518 -42.86105048 104.65639569 -48.0703125 105.109375 C-50.27935963 106.89870581 -50.27935963 106.89870581 -50.29858398 109.28808594 C-50.16213682 117.85666972 -49.76360651 126.40157025 -49.27075195 134.95605469 C-49.13226546 137.36890608 -49.00035961 139.78205609 -48.86914062 142.1953125 C-48.78163915 143.75523021 -48.6937617 145.31512689 -48.60546875 146.875 C-48.54758934 147.93778168 -48.54758934 147.93778168 -48.48854065 149.02203369 C-48.2111096 153.75216844 -47.6990139 158.4127025 -47.0703125 163.109375 C-66.35271991 161.9681713 -66.35271991 161.9681713 -74.0703125 158.109375 C-74.08244278 157.15241982 -74.08244278 157.15241982 -74.09481812 156.1761322 C-74.18229129 149.40867397 -74.28181551 142.64146224 -74.38769531 135.87426758 C-74.42548623 133.36389373 -74.46041584 130.85347482 -74.4921875 128.34301758 C-74.67893146 113.75656344 -75.1933513 99.32486965 -76.65478516 84.80688477 C-77.03934118 80.88231361 -77.15288123 77.05085689 -77.0703125 73.109375 C-74.1003125 72.119375 -74.1003125 72.119375 -71.0703125 71.109375 C-71.63878906 70.79226562 -72.20726562 70.47515625 -72.79296875 70.1484375 C-81.27048562 65.02513014 -87.01015957 57.59794191 -90.0703125 48.109375 C-90.72258376 44.85326766 -91.08335278 41.60244963 -91.3828125 38.296875 C-91.46547363 37.4097583 -91.54813477 36.5226416 -91.63330078 35.60864258 C-92.31114788 27.21121326 -91.86600349 20.13981789 -87.49316406 12.7121582 C-84.67777534 9.54073971 -80.76164703 8.98684372 -76.7578125 8.109375 C-75.92830078 7.89410156 -75.09878906 7.67882812 -74.24414062 7.45703125 C-69.24993416 6.25085352 -65.12625093 5.72267344 -60.0703125 7.109375 C-50.36872435 13.57710043 -45.93518194 21.15255869 -43.6171875 32.3046875 C-42.19235803 42.21742966 -41.07147044 53.14750363 -46.42578125 62.05078125 C-49.2357996 65.56831016 -52.47622688 68.41604037 -56.0703125 71.109375 C-55.0803125 71.439375 -54.0903125 71.769375 -53.0703125 72.109375 C-52.33984375 73.95703125 -52.33984375 73.95703125 -51.8828125 76.171875 C-51.72425781 76.90535156 -51.56570313 77.63882813 -51.40234375 78.39453125 C-51.29277344 78.96042969 -51.18320312 79.52632813 -51.0703125 80.109375 C-50.66941406 79.68785156 -50.26851563 79.26632813 -49.85546875 78.83203125 C-45.16074563 74.30763822 -41.54971098 73.13876003 -35.0703125 73.109375 C-35.23297104 72.4210408 -35.39562958 71.7327066 -35.56321716 71.02351379 C-36.1266402 67.78567504 -36.19012264 64.77007845 -36.18383789 61.4831543 C-36.18398392 60.83868851 -36.18412994 60.19422272 -36.1842804 59.53022766 C-36.18358756 57.41464796 -36.17582481 55.29915794 -36.16796875 53.18359375 C-36.16610233 51.71100411 -36.16467949 50.23841385 -36.16368103 48.76582336 C-36.15987346 44.90085112 -36.15005829 41.0359168 -36.13897705 37.17095947 C-36.128725 33.22270216 -36.12417529 29.27443868 -36.11914062 25.32617188 C-36.10843437 17.58722235 -36.09137919 9.848304 -36.0703125 2.109375 C-32.7059733 1.40364917 -29.64771174 0.98952081 -26.20703125 1.01171875 C-24.87768555 1.01655273 -24.87768555 1.01655273 -23.52148438 1.02148438 C-22.1534668 1.03405273 -22.1534668 1.03405273 -20.7578125 1.046875 C-19.82646484 1.05138672 -18.89511719 1.05589844 -17.93554688 1.06054688 C-15.64706877 1.07228266 -13.35872442 1.08870137 -11.0703125 1.109375 C-11.0703125 2.429375 -11.0703125 3.749375 -11.0703125 5.109375 C-10.4103125 5.109375 -9.7503125 5.109375 -9.0703125 5.109375 C-9.0703125 4.449375 -9.0703125 3.789375 -9.0703125 3.109375 C-6.07272177 0.22744414 -4.08925096 -0.23838347 0 0 Z " fill="#FEF7EF" transform="translate(486.0703125,80.890625)"/>
<path d="M0 0 C0.64836012 -0.00140232 1.29672024 -0.00280463 1.96472764 -0.00424945 C4.1687031 -0.00776903 6.37261022 -0.00407248 8.57658482 -0.00049198 C10.16690689 -0.00153373 11.75722873 -0.00301395 13.34755003 -0.00489634 C17.7584896 -0.0088229 22.16940753 -0.00644355 26.58034678 -0.00311839 C31.36362699 -0.0005982 36.14690369 -0.003835 40.93018341 -0.00636172 C49.32698168 -0.00998688 57.72377352 -0.00985562 66.12057209 -0.00731456 C78.60650215 -0.00354623 91.09242675 -0.00545842 103.57835677 -0.00852287 C125.87274271 -0.01380054 148.16712579 -0.01332748 170.461512 -0.01044396 C189.9711783 -0.00793285 209.48084356 -0.00726962 228.99050999 -0.0084666 C230.92830199 -0.00858118 230.92830199 -0.00858118 232.9052413 -0.00869807 C238.14873364 -0.00900939 243.39222598 -0.00932778 248.63571831 -0.00965784 C263.29473842 -0.01056956 277.95375853 -0.01114548 292.61277866 -0.01144397 C293.61420218 -0.01146444 293.61420218 -0.01146444 294.63585648 -0.01148532 C315.91870155 -0.01189479 337.20154626 -0.01076676 358.48439121 -0.00859439 C359.52029022 -0.00848902 359.52029022 -0.00848902 360.57711649 -0.00838152 C371.79300347 -0.00723648 383.00889044 -0.00601706 394.22477741 -0.00479134 C438.71221052 0.00006524 483.19964062 -0.00016017 527.68707371 -0.00502193 C538.89721266 -0.00624305 550.10735162 -0.00745408 561.31749058 -0.00859439 C562.35277198 -0.00870007 562.35277198 -0.00870007 563.40896815 -0.00880787 C584.66901319 -0.01096307 605.92905798 -0.01187852 627.18910313 -0.01144397 C628.18979739 -0.0114236 628.18979739 -0.0114236 629.2107077 -0.01140281 C644.51007466 -0.01107636 659.80944159 -0.01037268 675.10880852 -0.00940967 C680.34299628 -0.00908893 685.57718404 -0.00877609 690.8113718 -0.0084666 C692.10025413 -0.00838752 693.38913645 -0.00830845 694.71707582 -0.00822697 C714.21910965 -0.00708734 733.72114233 -0.00842379 753.223176 -0.01094615 C775.38785129 -0.01379853 797.55252326 -0.01310533 819.71719813 -0.00766541 C832.13677341 -0.00471818 844.55634151 -0.00455314 856.97591661 -0.00831159 C865.25569803 -0.01054185 873.53547367 -0.00918054 881.81525423 -0.00480682 C886.54345429 -0.00241157 891.27164002 -0.00164847 895.99983966 -0.0052128 C900.29127679 -0.00841514 904.58268673 -0.00711173 908.87412183 -0.00203214 C910.42648178 -0.00101525 911.97884392 -0.00171616 913.53120215 -0.00423808 C915.62146265 -0.00739596 917.71162599 -0.00452095 919.80188179 0 C921.54579951 0.00010164 921.54579951 0.00010164 923.32494789 0.00020533 C925.9009409 0.12534916 925.9009409 0.12534916 926.9009409 1.12534916 C926.99902747 2.78206386 927.02649656 4.44299018 927.02678204 6.10260594 C927.03069366 7.7296715 927.03069366 7.7296715 927.0346843 9.38960707 C927.03245358 10.59609703 927.03022286 11.80258699 927.02792454 13.04563725 C927.02948453 14.31577089 927.03104452 15.58590454 927.03265178 16.89452708 C927.03684952 20.43623543 927.03475243 23.97791706 927.03166556 27.51962554 C927.02941348 31.33288887 927.03289012 35.14614744 927.03564548 38.95940983 C927.04010424 46.43599735 927.03912625 53.91257486 927.03623284 61.38916278 C927.03397922 67.46274003 927.03366611 73.53631446 927.03475666 79.60989201 C927.03498651 80.90396171 927.03498651 80.90396171 927.035221 82.22417423 C927.03554071 83.97647397 927.03586492 85.7287737 927.03619359 87.48107344 C927.03904869 103.93248827 927.03576089 120.38389755 927.03039323 136.83531147 C927.02592516 150.9673125 927.02670109 165.09930532 927.03131199 179.2313062 C927.03665722 195.62176616 927.038774 212.01222124 927.03569973 228.40268195 C927.03538116 230.1487234 927.03506679 231.89476486 927.03475666 233.64080632 C927.03460238 234.50000891 927.03444811 235.3592115 927.03428916 236.24445054 C927.03342385 242.31438567 927.03488718 248.38431771 927.03723621 254.45425236 C927.04003385 261.84622754 927.03929673 269.2381921 927.03395547 276.63016605 C927.03131796 280.40539959 927.03031422 284.18061538 927.03360462 287.95584881 C927.03710965 292.03893519 927.03293942 296.1219763 927.02792454 300.20506108 C927.03015526 301.41155104 927.03238598 302.618041 927.0346843 303.86109126 C927.03207655 304.94580163 927.02946881 306.030512 927.02678204 307.14809239 C927.02661968 308.09191478 927.02645733 309.03573717 927.02629006 310.00816023 C926.9009409 312.12534916 926.9009409 312.12534916 925.9009409 313.12534916 C923.8698872 313.2240194 921.83533081 313.25057981 919.80188179 313.25069833 C918.82934161 313.2528018 918.82934161 313.2528018 917.83715415 313.25494777 C915.63317869 313.25846736 913.42927157 313.25477081 911.22529697 313.2511903 C909.6349749 313.25223206 908.04465306 313.25371227 906.45433176 313.25559467 C902.0433922 313.25952122 897.63247426 313.25714188 893.22153501 313.25381672 C888.4382548 313.25129653 883.6549781 313.25453333 878.87169838 313.25706005 C870.47490011 313.26068521 862.07810827 313.26055395 853.6813097 313.25801289 C841.19537964 313.25424456 828.70945504 313.25615675 816.22352502 313.2592212 C793.92913908 313.26449887 771.634756 313.26402581 749.34036979 313.26114229 C729.83070349 313.25863118 710.32103823 313.25796794 690.8113718 313.25916493 C688.8735798 313.25927951 688.8735798 313.25927951 686.89664049 313.2593964 C681.65314815 313.25970771 676.40965581 313.26002611 671.16616348 313.26035616 C656.50714337 313.26126789 641.84812326 313.26184381 627.18910313 313.2621423 C626.52148745 313.26215595 625.85387177 313.26216959 625.16602531 313.26218365 C603.88318024 313.26259311 582.60033553 313.26146508 561.31749058 313.25929272 C560.62689124 313.25922247 559.9362919 313.25915222 559.2247653 313.25907985 C548.00887832 313.25793481 536.79299135 313.25671539 525.57710438 313.25548967 C481.08967127 313.25063309 436.60224117 313.2508585 392.11480808 313.25572026 C380.90466913 313.25694138 369.69453017 313.25815241 358.48439121 313.25929272 C357.79420361 313.25936317 357.10401601 313.25943362 356.39291364 313.2595062 C335.1328686 313.2616614 313.87282381 313.26257685 292.61277866 313.2621423 C291.6120844 313.26212192 291.6120844 313.26212192 290.59117409 313.26210114 C275.29180713 313.26177468 259.9924402 313.26107101 244.69307327 313.26010799 C239.45888551 313.25978725 234.22469775 313.25947442 228.99050999 313.25916493 C227.70162766 313.25908585 226.41274534 313.25900677 225.08480597 313.2589253 C205.58277214 313.25778567 186.08073946 313.25912212 166.57870579 313.26164448 C144.4140305 313.26449686 122.24935853 313.26380366 100.08468366 313.25836374 C87.66510838 313.2554165 75.24554028 313.25525147 62.82596518 313.25900991 C54.54618376 313.26124018 46.26640812 313.25987886 37.98662756 313.25550514 C33.2584275 313.2531099 28.53024177 313.2523468 23.80204213 313.25591113 C19.510605 313.25911346 15.21919506 313.25781006 10.92775996 313.25273047 C9.37540001 313.25171358 7.82303787 313.25241449 6.27067964 313.2549364 C4.18041914 313.25809429 2.0902558 313.25521927 0 313.25069833 C-1.74391772 313.25059669 -1.74391772 313.25059669 -3.5230661 313.250493 C-6.0990591 313.12534916 -6.0990591 313.12534916 -7.0990591 312.12534916 C-7.19714568 310.46863447 -7.22461477 308.80770815 -7.22490025 307.14809239 C-7.22750799 306.06338202 -7.23011574 304.97867164 -7.23280251 303.86109126 C-7.23057179 302.6546013 -7.22834107 301.44811134 -7.22604275 300.20506108 C-7.22760274 298.93492743 -7.22916273 297.66479379 -7.23076999 296.35617125 C-7.23496773 292.81446289 -7.23287064 289.27278127 -7.22978377 285.73107278 C-7.22753169 281.91780945 -7.23100833 278.10455089 -7.23376369 274.2912885 C-7.23822245 266.81470098 -7.23724446 259.33812347 -7.23435105 251.86153555 C-7.23209743 245.7879583 -7.23178432 239.71438386 -7.23287487 233.64080632 C-7.2330281 232.77809318 -7.23318134 231.91538005 -7.23333921 231.0265241 C-7.23365892 229.27422436 -7.23398313 227.52192462 -7.2343118 225.76962489 C-7.2371669 209.31821005 -7.2338791 192.86680078 -7.22851144 176.41538686 C-7.22404337 162.28338583 -7.2248193 148.15139301 -7.2294302 134.01939213 C-7.23477543 117.62893217 -7.23689221 101.23847709 -7.23381793 84.84801638 C-7.23349937 83.10197493 -7.233185 81.35593347 -7.23287487 79.60989201 C-7.23272059 78.75068942 -7.23256632 77.89148682 -7.23240737 77.00624779 C-7.23154206 70.93631266 -7.23300539 64.86638062 -7.23535442 58.79644597 C-7.23815206 51.40447078 -7.23741494 44.01250623 -7.23207368 36.62053227 C-7.22943617 32.84529873 -7.22843243 29.07008294 -7.23172283 25.29484951 C-7.23522786 21.21176314 -7.23105763 17.12872202 -7.22604275 13.04563725 C-7.22827347 11.83914729 -7.23050419 10.63265733 -7.23280251 9.38960707 C-7.23019476 8.3048967 -7.22758702 7.22018632 -7.22490025 6.10260594 C-7.22465672 4.68687236 -7.22465672 4.68687236 -7.22440827 3.24253809 C-6.96192998 -1.19080722 -3.74318911 0.00021816 0 0 Z M-2.0990591 3.12534916 C-2.0990591 104.76534916 -2.0990591 206.40534916 -2.0990591 311.12534916 C302.4909409 311.12534916 607.0809409 311.12534916 920.9009409 311.12534916 C920.9009409 209.48534916 920.9009409 107.84534916 920.9009409 3.12534916 C616.3109409 3.12534916 311.7209409 3.12534916 -2.0990591 3.12534916 Z " fill="#361C17" transform="translate(23.099059104919434,4.874650835990906)"/>
<path d="M0 0 C1.79166667 0.125 3.58333333 0.25 5.375 0.375 C6.87160156 0.47941406 6.87160156 0.47941406 8.3984375 0.5859375 C11.40346438 0.93141781 14.26607311 1.42221248 17.22509766 2.02587891 C18.12072418 2.20776764 19.01635071 2.38965637 19.93911743 2.57705688 C20.61920868 2.71662811 21.29929993 2.85619934 22 3 C22.01030746 3.61085953 22.02061493 4.22171906 22.03123474 4.85108948 C22.13967588 11.22675468 22.25424162 17.60228925 22.37231445 23.9777832 C22.41554308 26.35503396 22.45722636 28.73231335 22.49731445 31.10961914 C22.55531024 34.5328025 22.61891954 37.95584334 22.68359375 41.37890625 C22.70030624 42.43646622 22.71701874 43.49402618 22.73423767 44.58363342 C22.86033577 50.90907167 22.98362928 56.95088784 25 63 C25.99 63 26.98 63 28 63 C29.01627712 56.10443372 29.24467682 49.2743538 29.4375 42.3125 C29.81229604 30.47687814 30.70092774 18.76732442 32 7 C37.71122747 8.15780296 43.09469921 9.60775311 48.5625 11.625 C49.78066406 12.07101563 50.99882813 12.51703125 52.25390625 12.9765625 C53.61322266 13.48316406 53.61322266 13.48316406 55 14 C55.49155356 27.37403805 54.9999477 40.41014539 53.25 53.6875 C53.09305664 54.9142041 52.93611328 56.1409082 52.77441406 57.40478516 C51.12548149 69.0944828 48.33775327 79.94790773 42 90 C42.99 90.33 43.98 90.66 45 91 C44.56887673 95.98603436 41.9525158 99.03220249 38.875 102.75 C37.87612026 103.98683234 36.87742256 105.22381173 35.87890625 106.4609375 C35.38922363 107.06131836 34.89954102 107.66169922 34.39501953 108.28027344 C32.49872634 110.61795094 30.65338865 112.99356294 28.8125 115.375 C27.87516796 116.58346363 26.93769904 117.79182112 26 119 C29.25031727 118.35575667 32.50019606 117.70932737 35.75 117.0625 C36.67039062 116.88009766 37.59078125 116.69769531 38.5390625 116.50976562 C39.42851563 116.33251953 40.31796875 116.15527344 41.234375 115.97265625 C42.45979004 115.72914429 42.45979004 115.72914429 43.70996094 115.48071289 C45.20173593 115.16756737 46.68750728 114.82377972 48.1640625 114.4453125 C50.25081662 113.93916363 52.10628791 113.90177147 54.25 113.9375 C56.10625 113.9684375 56.10625 113.9684375 58 114 C58.24234375 114.56847656 58.4846875 115.13695312 58.734375 115.72265625 C60.39535208 119.54929191 62.05258233 123.1755722 64.3125 126.6875 C66 130 66 130 66.1875 133 C63.95577107 138.63805204 60.39377509 141.87154948 54.92578125 144.44921875 C51.64146529 145.71945942 48.33743921 146.87778607 45 148 C43.68513298 148.51482845 42.37220106 149.03466789 41.0625 149.5625 C35.16913076 151.76469318 29.06099534 153.33411239 23 155 C21.79537109 155.34611328 21.79537109 155.34611328 20.56640625 155.69921875 C14.88461288 157.26088125 10.21446502 157.91921189 4.6875 155.625 C0.25016893 152.94196261 0.25016893 152.94196261 -0.50244141 150.1081543 C-0.67525635 148.9776062 -0.67525635 148.9776062 -0.8515625 147.82421875 C-1.04492188 146.58188477 -1.04492188 146.58188477 -1.2421875 145.31445312 C-1.36851562 144.44755859 -1.49484375 143.58066406 -1.625 142.6875 C-1.82609375 141.40456055 -1.82609375 141.40456055 -2.03125 140.09570312 C-2.64767459 136.03547791 -3.18688269 132.11991384 -3 128 C-1.515 127.505 -1.515 127.505 0 127 C0.68567815 125.67634306 1.34816772 124.34064794 2 123 C3.49942868 121.21367703 5.04497953 119.46545079 6.625 117.75 C7.44226563 116.85796875 8.25953125 115.9659375 9.1015625 115.046875 C9.72804688 114.37140625 10.35453125 113.6959375 11 113 C10.36191406 113.08378906 9.72382812 113.16757813 9.06640625 113.25390625 C8.24011719 113.35574219 7.41382813 113.45757812 6.5625 113.5625 C5.32693359 113.71912109 5.32693359 113.71912109 4.06640625 113.87890625 C3.04353516 113.93884766 3.04353516 113.93884766 2 114 C0.22526229 112.22526229 0.86768142 109.87826984 0.86328125 107.51757812 C0.86714844 106.78990234 0.87101563 106.06222656 0.875 105.3125 C0.87113281 104.60416016 0.86726562 103.89582031 0.86328125 103.16601562 C0.87096938 99.00289267 1.18627198 95.10093088 2 91 C4.89234315 90.17361624 6.88742431 90 10 90 C8.6078125 88.948125 8.6078125 88.948125 7.1875 87.875 C2.93878757 84.66486172 1.29945827 80.54776184 0.3046875 75.40625 C0.16289063 74.1171875 0.02109375 72.828125 -0.125 71.5 C-0.34542969 69.59734375 -0.34542969 69.59734375 -0.5703125 67.65625 C-0.71983054 66.10475987 -0.86224667 64.55257892 -1 63 C-1.08902588 61.99775391 -1.17805176 60.99550781 -1.26977539 59.96289062 C-1.97219978 51.21993545 -2.18625282 42.52476843 -2.18530273 33.75927734 C-2.18749797 31.50208897 -2.20577164 29.24538452 -2.22460938 26.98828125 C-2.25878532 17.7975808 -1.59787481 9.07484253 0 0 Z " fill="#FEF7EF" transform="translate(523,85)"/>
<path d="M0 0 C1.44012004 6.80584646 2.58868086 13.60426906 3.5 20.5 C3.68900879 21.9236084 3.68900879 21.9236084 3.88183594 23.37597656 C4.25947052 26.25003517 4.62986704 29.12496719 5 32 C5.11408203 32.85916016 5.22816406 33.71832031 5.34570312 34.60351562 C6.48216954 43.225689 7.39775433 51.33392315 6 60 C6.7425 60.20625 7.485 60.4125 8.25 60.625 C11.87455474 62.43727737 13.06680304 64.47881982 15 68 C16.73607018 73.35288305 16.98751026 79.78985798 14.6875 84.9375 C13 87 13 87 10 89 C4.47383078 89.21732126 0.6606093 87.84815013 -4 85 C-6.67975596 84.98546047 -6.67975596 84.98546047 -9 86 C-11.23465229 89.35197843 -11.27108649 90.57791246 -11.25 94.5 C-11.25515625 95.4590625 -11.2603125 96.418125 -11.265625 97.40625 C-11.17982609 100.23622897 -11.17982609 100.23622897 -9 103 C-4.41524424 102.22568569 -0.80972632 101.56185092 3.0625 98.875 C7.17895227 96.24747727 9.16584296 96.30940614 14 97 C17.95656033 100.09643852 20.62149303 103.33284624 21.3359375 108.3671875 C21.42594655 114.14576849 20.98127175 117.5083088 17 122 C11.33511046 127.83698745 5.55867842 131.06400657 -2.6640625 131.35546875 C-8.48972707 131.28056811 -12.57850752 129.28790258 -17.5625 126.4375 C-18.39023926 125.97931885 -19.21797852 125.5211377 -20.07080078 125.04907227 C-29.97979964 119.46633096 -37.76226239 114.42077202 -41.60546875 103.23828125 C-43.2604768 93.84897814 -43.45312869 82.14817206 -38 74 C-36.25783259 72.18555927 -34.5122021 70.6471039 -32.48828125 69.15625 C-30.84617437 68.05230493 -30.84617437 68.05230493 -30 66 C-30.86625 65.9175 -31.7325 65.835 -32.625 65.75 C-40.75718586 63.94284759 -45.27201483 57.81917923 -49.875 51.375 C-52.05360258 44.83919225 -51.65768427 37.98487475 -50.1875 31.3125 C-46.10850009 25.1357287 -40.13728278 20.09152185 -34 16 C-31.95703125 15.8046875 -31.95703125 15.8046875 -29.8125 15.875 C-27.9253125 15.936875 -27.9253125 15.936875 -26 16 C-26 14.35 -26 12.7 -26 11 C-22.92043712 9.34703881 -19.83573921 7.70389829 -16.75 6.0625 C-15.44095703 5.35963867 -15.44095703 5.35963867 -14.10546875 4.64257812 C-12.83896484 3.9706543 -12.83896484 3.9706543 -11.546875 3.28515625 C-10.38430176 2.66459351 -10.38430176 2.66459351 -9.19824219 2.03149414 C-5.99867861 0.53014406 -3.53703631 0 0 0 Z " fill="#FEF7EF" transform="translate(387,98)"/>
<path d="M0 0 C1.11439453 0.00346436 2.22878906 0.00692871 3.37695312 0.01049805 C19.21737574 0.21971554 19.21737574 0.21971554 25.9375 3.3125 C26.4325 4.7975 26.4325 4.7975 26.9375 6.3125 C28.92804876 7.00687747 30.93005385 7.66860218 32.9375 8.3125 C39.24473002 11.97069341 43.30861549 16.47740028 45.9375 23.3125 C46.56746739 28.70114414 46.01025791 33.26015259 43.9375 38.3125 C42 37.5 42 37.5 39.9375 36.3125 C39.6075 35.3225 39.2775 34.3325 38.9375 33.3125 C37.47926788 33.2854957 36.02089325 33.26610213 34.5625 33.25 C33.34433594 33.23259766 33.34433594 33.23259766 32.1015625 33.21484375 C29.88812858 33.16783666 29.88812858 33.16783666 27.9375 34.3125 C26.80399466 36.32919827 26.80399466 36.32919827 25.9375 38.3125 C25.25042969 38.27769531 24.56335938 38.24289062 23.85546875 38.20703125 C22.95441406 38.17996094 22.05335938 38.15289062 21.125 38.125 C20.23167969 38.09019531 19.33835937 38.05539062 18.41796875 38.01953125 C15.90051763 38.10541634 15.90051763 38.10541634 14.15625 39.65625 C12.58135866 41.79648695 12.28960044 43.70695677 11.9375 46.3125 C9.2975 46.6425 6.6575 46.9725 3.9375 47.3125 C3.9375 47.9725 3.9375 48.6325 3.9375 49.3125 C3.2775 49.3125 2.6175 49.3125 1.9375 49.3125 C3.101311 54.81415198 4.37255879 57.06898914 8.9375 60.3125 C8.9375 60.9725 8.9375 61.6325 8.9375 62.3125 C-6.74209151 66.34028497 -23.77329979 65.40890007 -39.0625 60.3125 C-39.3925 59.6525 -39.7225 58.9925 -40.0625 58.3125 C-41.609375 57.7865625 -41.609375 57.7865625 -43.1875 57.25 C-49.51154911 54.67353555 -53.4200445 48.32764765 -56.0625 42.25 C-57.83427048 36.73782518 -56.6662785 32.19092199 -54.9375 26.8125 C-49.0849245 15.8876924 -38.68043028 8.32781976 -27.0625 4.3125 C-24.81647318 3.72674217 -22.58311566 3.22590929 -20.30078125 2.8046875 C-17.97292307 2.36047849 -17.97292307 2.36047849 -15.546875 1.27734375 C-10.37784347 -0.15399121 -5.3392436 -0.02644362 0 0 Z " fill="#FEF6EE" transform="translate(686.0625,237.6875)"/>
<path d="M0 0 C0.495 1.485 0.495 1.485 1 3 C2.99054876 3.69437747 4.99255385 4.35610218 7 5 C13.30723002 8.65819341 17.37111549 13.16490028 20 20 C20.62996739 25.38864414 20.07275791 29.94765259 18 35 C16.0625 34.1875 16.0625 34.1875 14 33 C13.67 32.01 13.34 31.02 13 30 C11.54176788 29.9729957 10.08339325 29.95360213 8.625 29.9375 C7.40683594 29.92009766 7.40683594 29.92009766 6.1640625 29.90234375 C3.95062858 29.85533666 3.95062858 29.85533666 2 31 C0.86649466 33.01669827 0.86649466 33.01669827 0 35 C-0.68707031 34.96519531 -1.37414062 34.93039063 -2.08203125 34.89453125 C-2.98308594 34.86746094 -3.88414062 34.84039062 -4.8125 34.8125 C-5.70582031 34.77769531 -6.59914063 34.74289063 -7.51953125 34.70703125 C-10.03698237 34.79291634 -10.03698237 34.79291634 -11.78125 36.34375 C-13.35614134 38.48398695 -13.64789956 40.39445677 -14 43 C-16.64 43.33 -19.28 43.66 -22 44 C-22 44.66 -22 45.32 -22 46 C-22.66 46 -23.32 46 -24 46 C-22.836189 51.50165198 -21.56494121 53.75648914 -17 57 C-17 57.66 -17 58.32 -17 59 C-32.67959151 63.02778497 -49.71079979 62.09640007 -65 57 C-65.33 56.34 -65.66 55.68 -66 55 C-67.546875 54.4740625 -67.546875 54.4740625 -69.125 53.9375 C-75.44904911 51.36103555 -79.3575445 45.01514765 -82 38.9375 C-83.77177048 33.42532518 -82.6037785 28.87842199 -80.875 23.5 C-76.295404 14.95142079 -68.59279864 7.02371036 -59.13671875 4.12109375 C-56.75602141 3.63956657 -54.41485583 3.25176157 -52 3 C-51.67 2.01 -51.34 1.02 -51 0 C-37.95068419 -6.00565103 -13.04931581 -6.00565103 0 0 Z " fill="#FEF6EE" transform="translate(153,150)"/>
<path d="M0 0 C0.79921875 -0.01224609 1.5984375 -0.02449219 2.421875 -0.03710938 C7.03613456 -0.04849324 11.03735824 0.08748547 15.25 2.1875 C18.97400154 6.36996393 18.92512226 11.34318676 19.3125 16.6875 C19.46594818 18.49503171 19.62219729 20.30232783 19.78125 22.109375 C19.85730469 22.98400391 19.93335938 23.85863281 20.01171875 24.75976562 C20.31445098 27.84416037 20.79064825 30.88313243 21.3125 33.9375 C22.10736544 38.84658896 22.63494773 43.73088886 23 48.6875 C23.09796875 49.9971875 23.1959375 51.306875 23.296875 52.65625 C23.24988673 56.19603304 23.16623306 58.21626222 21.25 61.1875 C16.65276859 63.43779646 11.90290452 63.59429076 6.875 63.8125 C5.77091797 63.87050781 5.77091797 63.87050781 4.64453125 63.9296875 C2.84672594 64.02307998 1.04839892 64.1063371 -0.75 64.1875 C-2.10605968 60.33287365 -2.99143238 57.2918504 -2.75 53.1875 C-3.41 53.1875 -4.07 53.1875 -4.75 53.1875 C-4.976875 54.074375 -5.20375 54.96125 -5.4375 55.875 C-7.04647311 59.93574165 -8.21993324 61.57083801 -11.75 64.1875 C-15.53630828 64.834054 -19.23391728 64.70295402 -23.0625 64.5625 C-24.06990234 64.54832031 -25.07730469 64.53414063 -26.11523438 64.51953125 C-41.31627223 64.22244256 -41.31627223 64.22244256 -44.51953125 61.91015625 C-50.75979434 51.9771532 -52.62653928 40.86206837 -50.12890625 29.31640625 C-47.98095545 23.0443899 -44.47905336 18.57554362 -38.75 15.1875 C-35.42538888 13.97608124 -32.26745511 13.48062126 -28.75 13.1875 C-27.47382813 13.06568359 -27.47382813 13.06568359 -26.171875 12.94140625 C-20.12001778 12.63510059 -15.82804506 13.88610778 -10.75 17.1875 C-10.42 17.5175 -10.09 17.8475 -9.75 18.1875 C-10.08 12.5775 -10.41 6.9675 -10.75 1.1875 C-7.40509548 -0.48495226 -3.67428641 0.00290687 0 0 Z " fill="#FEF7EF" transform="translate(494.75,182.8125)"/>
<path d="M0 0 C4.75797209 0.95159442 6.88132298 1.95750318 10.8125 4.5625 C11.78832031 5.20316406 12.76414062 5.84382813 13.76953125 6.50390625 C14.50558594 6.99761719 15.24164062 7.49132812 16 8 C15.67 10.64 15.34 13.28 15 16 C15.62648438 16.04898438 16.25296875 16.09796875 16.8984375 16.1484375 C17.71570313 16.22320312 18.53296875 16.29796875 19.375 16.375 C20.18710937 16.44460937 20.99921875 16.51421875 21.8359375 16.5859375 C24 17 24 17 26 19 C26.50442453 24.24601514 25.64964989 27.47351478 23 32 C20.03 32 17.06 32 14 32 C14.33 35.63 14.66 39.26 15 43 C15.99 43 16.98 43 18 43 C17.95875 42.05125 17.9175 41.1025 17.875 40.125 C18 37 18 37 20 35 C23.00390625 34.76953125 23.00390625 34.76953125 26.5625 34.8125 C28.32787109 34.82216797 28.32787109 34.82216797 30.12890625 34.83203125 C33 35 33 35 34 36 C34.67445502 41.53053119 33.10201365 45.52411401 30 50 C26.1625732 54.02168738 21.91945176 57.38654125 17 60 C20.96 63.465 20.96 63.465 25 67 C24 72 24 72 20.8125 74.1875 C17.64428789 75.80433552 14.41684134 76.99994888 11 78 C11.66 79.32 12.32 80.64 13 82 C13.79664063 81.43410156 14.59328125 80.86820312 15.4140625 80.28515625 C16.47367188 79.55167969 17.53328125 78.81820312 18.625 78.0625 C19.66914062 77.33160156 20.71328125 76.60070312 21.7890625 75.84765625 C25.03914634 73.97747419 27.27835916 73.22202971 31 73 C33.375 74.3125 33.375 74.3125 35 77 C35.80506427 81.8057408 35.61687179 85.71485043 33.5 90.125 C21.02379064 104.47264076 21.02379064 104.47264076 13.87890625 105.22265625 C6.77291266 104.91477091 1.48551533 101.29476573 -3.5703125 96.515625 C-10.02751673 89.3237688 -10.35281314 82.95343769 -10.49609375 73.62109375 C-9.80299187 68.56199579 -7.55526022 65.55526022 -4 62 C-3.01 62 -2.02 62 -1 62 C-1.825 60.989375 -2.65 59.97875 -3.5 58.9375 C-7.7283272 52.21769389 -6.81573774 43.81902213 -5.53515625 36.25390625 C-5.10231313 34.48146107 -4.56633782 32.73440957 -4 31 C-5.7015625 31.0309375 -5.7015625 31.0309375 -7.4375 31.0625 C-11 31 -11 31 -12 30 C-11.93529835 27.31782231 -11.80879885 24.67427324 -11.625 22 C-11.58117187 21.24976563 -11.53734375 20.49953125 -11.4921875 19.7265625 C-11.12840854 14.12840854 -11.12840854 14.12840854 -10 13 C-7.32941149 12.85884839 -4.67567762 12.95752893 -2 13 C-1.34 8.71 -0.68 4.42 0 0 Z " fill="#FEF6EF" transform="translate(591,107)"/>
<path d="M0 0 C2.69140625 0.375 2.69140625 0.375 4.7890625 2.5 C5.76166016 3.923125 5.76166016 3.923125 6.75390625 5.375 C7.44484375 6.37273438 8.13578125 7.37046875 8.84765625 8.3984375 C10.4014301 10.90686054 11.61166095 13.29209087 12.75390625 16 C13.39328125 17.11375 14.03265625 18.2275 14.69140625 19.375 C18.3179429 20.51456727 18.3179429 20.51456727 21.69140625 20.375 C21.69140625 19.715 21.69140625 19.055 21.69140625 18.375 C23.91911967 17.86856447 26.14864701 17.3701038 28.37890625 16.875 C29.62027344 16.5965625 30.86164063 16.318125 32.140625 16.03125 C35.13930996 15.4770376 37.66638253 15.06977238 40.69140625 15.375 C42.69140625 17.375 42.69140625 17.375 42.6953125 19.203125 C41.1864041 22.46753383 38.49367382 24.11475167 35.62890625 26.125 C35.06107422 26.53621094 34.49324219 26.94742188 33.90820312 27.37109375 C32.50945968 28.38195036 31.1013125 29.37977206 29.69140625 30.375 C30.30585121 35.91475774 33.16855042 38.29243038 36.9765625 42.09375 C38.98910599 44.77102881 39.05412606 46.10476425 38.69140625 49.375 C33.40084735 50.94786886 29.54812988 49.69259967 24.47265625 48.06640625 C21.20960592 47.2552266 19.03461203 46.81995039 15.69140625 47.375 C13.34256161 49.27016783 11.51709063 51.531215 9.62890625 53.875 C4.45539741 60.24749104 4.45539741 60.24749104 0.8828125 60.84375 C-1.30859375 60.375 -1.30859375 60.375 -2.30859375 59.375 C-2.39528807 57.8862814 -2.41562869 56.393555 -2.40625 54.90234375 C-2.40302734 54.00322266 -2.39980469 53.10410156 -2.39648438 52.17773438 C-2.38810547 51.23220703 -2.37972656 50.28667969 -2.37109375 49.3125 C-2.36658203 48.36310547 -2.36207031 47.41371094 -2.35742188 46.43554688 C-2.34559485 44.08196935 -2.329114 41.72851523 -2.30859375 39.375 C-3.34371094 39.40335938 -4.37882812 39.43171875 -5.4453125 39.4609375 C-8.97330056 39.38245849 -11.74618012 38.9534721 -15.12109375 38 C-16.52294922 37.61714844 -16.52294922 37.61714844 -17.953125 37.2265625 C-20.30859375 36.375 -20.30859375 36.375 -22.30859375 34.375 C-22.30859375 33.055 -22.30859375 31.735 -22.30859375 30.375 C-18.78703411 28.02729357 -16.80087532 27.99830386 -12.62109375 27.75 C-11.44160156 27.67523438 -10.26210937 27.60046875 -9.046875 27.5234375 C-8.14324219 27.47445312 -7.23960937 27.42546875 -6.30859375 27.375 C-6.22295166 26.59261963 -6.13730957 25.81023926 -6.04907227 25.00415039 C-5.66091931 21.48141985 -5.26609805 17.95946859 -4.87109375 14.4375 C-4.73638672 13.20580078 -4.60167969 11.97410156 -4.46289062 10.70507812 C-4.33076172 9.53525391 -4.19863281 8.36542969 -4.0625 7.16015625 C-3.94205322 6.07613525 -3.82160645 4.99211426 -3.69750977 3.87524414 C-3.17493249 0.51572507 -3.17493249 0.51572507 0 0 Z " fill="#FEF5ED" transform="translate(258.30859375,50.625)"/>
<path d="M0 0 C2.625 0.25 2.625 0.25 4.15234375 1.34765625 C6.21484365 4.01194658 6.88604323 6.7108747 7.8125 9.9375 C8.15667969 11.11699219 8.50085938 12.29648438 8.85546875 13.51171875 C9.10941406 14.41535156 9.36335937 15.31898438 9.625 16.25 C10.52863281 16.28738281 11.43226563 16.32476562 12.36328125 16.36328125 C13.54277344 16.42902344 14.72226562 16.49476563 15.9375 16.5625 C17.10925781 16.62050781 18.28101563 16.67851562 19.48828125 16.73828125 C22.625 17.25 22.625 17.25 24.54296875 18.640625 C25.625 20.25 25.625 20.25 25.625 22.6875 C24.27639128 26.14330983 22.72005515 27.20858065 19.625 29.25 C18.94050781 29.43949219 18.25601563 29.62898438 17.55078125 29.82421875 C14.89988523 30.64756706 13.52763055 31.19068223 11.625 33.25 C11.03082012 36.71912477 10.79729953 39.90445447 10.83691406 43.41113281 C10.86540091 46.61815261 10.84177233 48.85195022 9.2890625 51.703125 C7.625 53.25 7.625 53.25 4.8125 54 C-0.06471102 52.85242094 -1.79943781 49.34167326 -4.375 45.25 C-9.00247935 46.94398798 -12.79339955 49.38227595 -16.875 52.10546875 C-19.90712943 53.4936155 -21.25995228 53.32869051 -24.375 52.25 C-26.375 50.25 -26.375 50.25 -26.75 47.3125 C-26.66531049 42.82395593 -24.88916558 38.9802612 -23.15234375 34.8984375 C-22.24187404 31.79643518 -22.27451535 30.28124566 -23.375 27.25 C-25.20480845 25.16094636 -25.20480845 25.16094636 -27.4375 23.3125 C-31.29178063 19.65853144 -31.29178063 19.65853144 -32.0625 15.875 C-31.375 13.25 -31.375 13.25 -28.375 11.25 C-21.51840021 11.3958851 -15.55388331 14.50044766 -9.375 17.25 C-9.19324219 16.59773438 -9.01148438 15.94546875 -8.82421875 15.2734375 C-4.56976465 0.48102786 -4.56976465 0.48102786 0 0 Z " fill="#FEF8F0" transform="translate(842.375,119.75)"/>
<path d="M0 0 C1.91796875 0.44140625 1.91796875 0.44140625 3.91796875 2.44140625 C3.85546875 4.81640625 3.85546875 4.81640625 2.91796875 7.44140625 C2.15484375 8.01890625 1.39171875 8.59640625 0.60546875 9.19140625 C-3.12741378 12.31661023 -4.71695188 15.80816626 -6.08203125 20.44140625 C-6.2903108 23.80364159 -6.2903108 23.80364159 -5.08203125 26.44140625 C-3.13040007 27.87778323 -3.13040007 27.87778323 -1.08203125 28.44140625 C-0.99953125 27.36890625 -0.91703125 26.29640625 -0.83203125 25.19140625 C-0.01921535 21.12732673 0.6889176 19.91068066 3.91796875 17.44140625 C8.77329369 15.8229646 13.06072776 15.88845622 17.79296875 17.81640625 C20.91796875 19.44140625 20.91796875 19.44140625 21.91796875 21.44140625 C22.59865226 24.92990923 22.30165097 26.85341325 20.35546875 29.8359375 C18.5953998 32.08925158 16.79588178 34.28563874 14.91796875 36.44140625 C15.57796875 37.43140625 16.23796875 38.42140625 16.91796875 39.44140625 C21.41274793 40.25285311 25.67550539 40.03562786 29.79296875 38.06640625 C30.49421875 37.53015625 31.19546875 36.99390625 31.91796875 36.44140625 C34.89783818 34.45482663 35.88286662 34.43843149 39.60546875 34.75390625 C42.91796875 35.44140625 42.91796875 35.44140625 43.91796875 36.44140625 C44.234375 38.7734375 44.234375 38.7734375 43.91796875 41.44140625 C38.96098274 47.05033146 32.78853176 50.03489867 25.390625 50.65234375 C18.29115689 50.91123039 10.56597842 50.58699543 4.9609375 45.75390625 C0.91796875 41.20911702 0.91796875 41.20911702 0.91796875 38.44140625 C-0.09265625 38.50328125 -1.10328125 38.56515625 -2.14453125 38.62890625 C-7.32839955 38.38205538 -10.89789226 37.3609469 -14.85546875 33.8828125 C-19.13613878 29.0494738 -19.95036958 24.708826 -19.59765625 18.3359375 C-18.7926168 13.81673876 -17.01387109 10.90765741 -14.08203125 7.44140625 C-13.30279297 6.43013672 -13.30279297 6.43013672 -12.5078125 5.3984375 C-8.65832312 0.90287997 -5.91216823 -0.31545132 0 0 Z " fill="#FEF3EC" transform="translate(264.08203125,251.55859375)"/>
<path d="M0 0 C2.5 1 2.5 1 4.3125 3.875 C5.5 7 5.5 7 5.5 10 C6.12648438 9.97679687 6.75296875 9.95359375 7.3984375 9.9296875 C8.21570313 9.91164062 9.03296875 9.89359375 9.875 9.875 C10.68710937 9.85179687 11.49921875 9.82859375 12.3359375 9.8046875 C14.5 10 14.5 10 16.5 12 C16.9375 14.4375 16.9375 14.4375 16.5 17 C13.63896577 19.24243223 12.15923696 20 8.5 20 C8.61859375 20.60328125 8.7371875 21.2065625 8.859375 21.828125 C9.91260745 28.35816619 9.91260745 28.35816619 7.8125 31.625 C5.5 33 5.5 33 3.375 33 C0.99496645 31.73064878 0.45752008 30.47359354 -0.5 28 C-1.304375 28.804375 -2.10875 29.60875 -2.9375 30.4375 C-6.5 34 -6.5 34 -9.4375 34.1875 C-12.5 34 -12.5 34 -14.5 32 C-14.71358801 28.15541573 -14.67881287 24.68379022 -13.5 21 C-14.61375 20.54625 -15.7275 20.0925 -16.875 19.625 C-20.5 18 -20.5 18 -22.5 16 C-22.25 12.9375 -22.25 12.9375 -21.5 10 C-18.73547967 8.61773984 -16.4538637 8.90474613 -13.375 8.9375 C-12.27929688 8.94652344 -11.18359375 8.95554688 -10.0546875 8.96484375 C-9.21164062 8.97644531 -8.36859375 8.98804688 -7.5 9 C-7.231875 7.88625 -6.96375 6.7725 -6.6875 5.625 C-5.3592063 1.5702087 -4.44123429 0 0 0 Z " fill="#FEF8F0" transform="translate(868.5,186)"/>
<path d="M0 0 C3.72181887 2.77156725 5.82389064 5.50940062 7 10 C7.1875 13.75 7.1875 13.75 7 17 C6 18 6 18 3.6875 18.4375 C1 18 1 18 -1.3125 15.1875 C-3 12 -3 12 -3 9 C-3.66 9 -4.32 9 -5 9 C-5 11.64 -5 14.28 -5 17 C-8.375 17.625 -8.375 17.625 -12 18 C-12.66 17.34 -13.32 16.68 -14 16 C-14.391875 16.825 -14.78375 17.65 -15.1875 18.5 C-17 21 -17 21 -19.5 21.625 C-22 21 -22 21 -23.75 19.1875 C-25.56605841 14.55655106 -25.74926852 9.93681642 -26 5 C-22.39273997 3.34910982 -19.64601848 2.76943951 -15.6875 2.875 C-14.36298828 2.90207031 -14.36298828 2.90207031 -13.01171875 2.9296875 C-12.01591797 2.96449219 -12.01591797 2.96449219 -11 3 C-11 2.34 -11 1.68 -11 1 C-7.51982692 -0.74008654 -3.79693185 -0.58464868 0 0 Z " fill="#FEF1E9" transform="translate(710,38)"/>
<path d="M0 0 C3.0625 0.0625 3.0625 0.0625 6 1 C8.28571221 3.93877285 8.60310691 7.36181338 9 11 C9.15082031 12.29744141 9.15082031 12.29744141 9.3046875 13.62109375 C9.78996171 20.77403568 9.78996171 20.77403568 7.68359375 24.04296875 C4.54563277 26.99840851 2.5163791 27.93227815 -1.8125 28.5 C-5 28 -5 28 -7 26 C-7 24.68 -7 23.36 -7 22 C-3.535 21.505 -3.535 21.505 0 21 C0 19.35 0 17.7 0 16 C-1.60875 15.938125 -1.60875 15.938125 -3.25 15.875 C-7 15 -7 15 -9.4375 12.25 C-10.96010909 9.08297308 -11.49088185 7.43617297 -11 4 C-10.67 3.67 -10.34 3.34 -10 3 C-8.329375 3.061875 -8.329375 3.061875 -6.625 3.125 C-3.05939824 3.41477233 -3.05939824 3.41477233 -1.4375 1.4375 C-0.963125 0.963125 -0.48875 0.48875 0 0 Z " fill="#FEF1E9" transform="translate(653,44)"/>
<path d="M0 0 C3.43644039 0.03688487 3.93271007 0.13362006 6.5625 2.625 C7.09875 3.5325 7.635 4.44 8.1875 5.375 C8.6 6.035 9.0125 6.695 9.4375 7.375 C10.34790138 9.80273701 10.33037008 11.80333863 10.1875 14.375 C8.5375 14.705 6.8875 15.035 5.1875 15.375 C3.5247974 12.70021756 2.18766187 10.3754856 1.1875 7.375 C0.5275 7.045 -0.1325 6.715 -0.8125 6.375 C-0.8125 9.345 -0.8125 12.315 -0.8125 15.375 C-2.7925 15.375 -4.7725 15.375 -6.8125 15.375 C-7.1425 14.715 -7.4725 14.055 -7.8125 13.375 C-8.4725 15.025 -9.1325 16.675 -9.8125 18.375 C-12.125 18.375 -12.125 18.375 -14.8125 17.375 C-17.00791939 13.82919058 -17.93117106 10.51424222 -17.5 6.375 C-17.273125 5.715 -17.04625 5.055 -16.8125 4.375 C-15.8225 4.375 -14.8325 4.375 -13.8125 4.375 C-13.8125 3.715 -13.8125 3.055 -13.8125 2.375 C-12.85537109 2.28412109 -12.85537109 2.28412109 -11.87890625 2.19140625 C-10.63947266 2.06572266 -10.63947266 2.06572266 -9.375 1.9375 C-8.55128906 1.85628906 -7.72757813 1.77507813 -6.87890625 1.69140625 C-3.75197128 1.2126128 -3.72464391 0.36635842 0 0 Z " fill="#FEF0E8" transform="translate(732.8125,58.625)"/>
<path d="M0 0 C2.5 0.125 2.5 0.125 3.5 1.125 C3.64115161 3.79558851 3.54247107 6.44932238 3.5 9.125 C4.16 9.125 4.82 9.125 5.5 9.125 C5.5 10.115 5.5 11.105 5.5 12.125 C7.81 12.125 10.12 12.125 12.5 12.125 C12.83 13.445 13.16 14.765 13.5 16.125 C12.22125 16.24875 10.9425 16.3725 9.625 16.5 C6.15209064 16.81542399 6.15209064 16.81542399 3.5 19.125 C3.07557555 21.52493356 3.07557555 21.52493356 2.9375 24.1875 C2.59722222 29.02777778 2.59722222 29.02777778 1.5 30.125 C-0.16617115 30.16563832 -1.83388095 30.167721 -3.5 30.125 C-3.56058594 29.34253906 -3.62117188 28.56007813 -3.68359375 27.75390625 C-3.76738281 26.74199219 -3.85117187 25.73007812 -3.9375 24.6875 C-4.01871094 23.67816406 -4.09992188 22.66882813 -4.18359375 21.62890625 C-4.23211468 19.18859221 -4.23211468 19.18859221 -5.5 18.125 C-6.84747084 17.89424918 -8.20377565 17.71346937 -9.5625 17.5625 C-10.861875 17.418125 -12.16125 17.27375 -13.5 17.125 C-13.83 15.805 -14.16 14.485 -14.5 13.125 C-13.86191406 12.92003906 -13.22382813 12.71507812 -12.56640625 12.50390625 C-11.74011719 12.23449219 -10.91382813 11.96507812 -10.0625 11.6875 C-9.23878906 11.42066406 -8.41507812 11.15382813 -7.56640625 10.87890625 C-5.53780412 10.30344506 -5.53780412 10.30344506 -4.5 9.125 C-4.29395915 7.79718122 -4.1337041 6.46204105 -4 5.125 C-3.50502513 0.17525126 -3.50502513 0.17525126 0 0 Z " fill="#FEEFE7" transform="translate(314.5,18.875)"/>
<path d="M0 0 C1.67542976 0.28604898 3.34385343 0.61781233 5 1 C5 4.3 5 7.6 5 11 C8.47369066 12.73684533 10.07619937 13.30084112 13.75 13.625 C14.54921875 13.69976562 15.3484375 13.77453125 16.171875 13.8515625 C16.77515625 13.90054688 17.3784375 13.94953125 18 14 C18 15.32 18 16.64 18 18 C17.30132813 18.06058594 16.60265625 18.12117188 15.8828125 18.18359375 C14.97273437 18.26738281 14.06265625 18.35117188 13.125 18.4375 C12.22007812 18.51871094 11.31515625 18.59992188 10.3828125 18.68359375 C7.98889139 18.86989285 7.98889139 18.86989285 6 20 C6 23.3 6 26.6 6 30 C4.68 30.33 3.36 30.66 2 31 C1 30 1 30 0.90234375 27.71484375 C0.95117188 23.85742188 0.95117188 23.85742188 1 20 C-2.96 19.67 -6.92 19.34 -11 19 C-11 17.35 -11 15.7 -11 14 C-9.329375 13.814375 -9.329375 13.814375 -7.625 13.625 C-3.96896323 13.3534187 -3.96896323 13.3534187 -2 11 C-1.57557555 8.60006644 -1.57557555 8.60006644 -1.4375 5.9375 C-1.09722222 1.09722222 -1.09722222 1.09722222 0 0 Z " fill="#FEF0E9" transform="translate(733,202)"/>
<path d="M0 0 C3.04040289 4.56060433 2.32890373 9.07348014 2.3125 14.4375 C2.32861328 15.48744141 2.34472656 16.53738281 2.36132812 17.61914062 C2.36229492 19.13604492 2.36229492 19.13604492 2.36328125 20.68359375 C2.36775269 22.06889282 2.36775269 22.06889282 2.37231445 23.48217773 C1.93774183 26.42102853 0.94762493 27.80131782 -1 30 C-5.75 29.25 -5.75 29.25 -8 27 C-8.45655797 23.03951178 -8.32402042 19.0462619 -8.3125 15.0625 C-8.32861328 13.95197266 -8.34472656 12.84144531 -8.36132812 11.69726562 C-8.36197266 10.63314453 -8.36261719 9.56902344 -8.36328125 8.47265625 C-8.36626221 7.49562744 -8.36924316 6.51859863 -8.37231445 5.51196289 C-8 3 -8 3 -6.63745117 1.18139648 C-4.31324983 -0.49547996 -2.7921808 -0.42956628 0 0 Z " fill="#FEF4EC" transform="translate(62,95)"/>
<path d="M0 0 C2.625 1.5 2.625 1.5 4 4 C4.59392053 6.81391474 4.65009889 9.1924933 4 12 C1.89673857 14.62907679 0.42473115 15.77594954 -2.9375 16.3046875 C-7.01686641 16.44375681 -10.34430582 15.93536751 -14 14 C-16 12 -16 12 -16.375 9.1875 C-15.9175983 5.29958551 -14.69507803 3.77434503 -12 1 C-8.2941599 -0.85292005 -4.04532833 -0.45020589 0 0 Z " fill="#FEF0E9" transform="translate(337,262)"/>
<path d="M0 0 C2.31 0 4.62 0 7 0 C9.52701252 5.68577816 9.79234099 11.88278674 9 18 C7.7734375 20.3515625 7.7734375 20.3515625 6 22 C3.73828125 22.390625 3.73828125 22.390625 1.3125 22.25 C0.50425781 22.21390625 -0.30398438 22.1778125 -1.13671875 22.140625 C-2.05904297 22.07101563 -2.05904297 22.07101563 -3 22 C-3.33 20.35 -3.66 18.7 -4 17 C-2.35 16.67 -0.7 16.34 1 16 C1 15.01 1 14.02 1 13 C0.236875 12.938125 -0.52625 12.87625 -1.3125 12.8125 C-4 12 -4 12 -5.8125 9.75 C-7.04572782 6.89410399 -7.26317349 5.07035744 -7 2 C-4.69 2 -2.38 2 0 2 C0 1.34 0 0.68 0 0 Z " fill="#FEF0E9" transform="translate(688,65)"/>
<path d="M0 0 C2.5 0.25 2.5 0.25 4.5 2.25 C5.95070019 7.08566729 6.75407962 11.16840768 6.5 16.25 C2.78677136 18.10661432 -1.44811434 17.70356929 -5.5 17.25 C-8.84988751 15.98328626 -11.84040312 14.56919376 -13.5 11.25 C-13.625 7.6875 -13.625 7.6875 -13.5 4.25 C-12.5 3.25 -12.5 3.25 -10.0625 3.0625 C-7.5 3.25 -7.5 3.25 -5.5 5.25 C-5.5 6.24 -5.5 7.23 -5.5 8.25 C-4.84 8.25 -4.18 8.25 -3.5 8.25 C-3.70625 7.30125 -3.9125 6.3525 -4.125 5.375 C-4.24875 4.34375 -4.3725 3.3125 -4.5 2.25 C-2.5 0.25 -2.5 0.25 0 0 Z " fill="#FEF1E9" transform="translate(677.5,43.75)"/>
<path d="M0 0 C2.4375 0.8125 2.4375 0.8125 4.4375 2.8125 C4.88511388 5.89566438 4.76156858 9.01305283 4.75 12.125 C4.76611328 12.98029297 4.78222656 13.83558594 4.79882812 14.71679688 C4.80260476 19.59242877 4.55871161 22.81833738 1.4375 26.8125 C-0.9375 26.5 -0.9375 26.5 -3.5625 25.8125 C-6.41049817 21.54050275 -5.89268316 17.83451715 -5.875 12.8125 C-5.89111328 11.89726562 -5.90722656 10.98203125 -5.92382812 10.0390625 C-5.92447266 9.15992187 -5.92511719 8.28078125 -5.92578125 7.375 C-5.92876221 6.57191406 -5.93174316 5.76882812 -5.93481445 4.94140625 C-5.29175425 1.26436691 -3.72430984 -0.27251048 0 0 Z " fill="#FEF5ED" transform="translate(44.5625,116.1875)"/>
<path d="M0 0 C2.31 0 4.62 0 7 0 C8.2834998 4.0911556 9.38021934 7.6908475 9 12 C7.27026886 13.72973114 4.97483037 13.17208117 2.625 13.1875 C1.64789062 13.20167969 0.67078125 13.21585938 -0.3359375 13.23046875 C-3 13 -3 13 -6 11 C-6.51171875 8.8359375 -6.51171875 8.8359375 -6.6875 6.375 C-6.75324219 5.55773437 -6.81898438 4.74046875 -6.88671875 3.8984375 C-6.92410156 3.27195312 -6.96148438 2.64546875 -7 2 C-4.69 2 -2.38 2 0 2 C0 1.34 0 0.68 0 0 Z " fill="#FDEEE7" transform="translate(706,65)"/>
<path d="M0 0 C2.625 0.375 2.625 0.375 4.3125 2.5625 C4.745625 3.490625 5.17875 4.41875 5.625 5.375 C6.016875 6.138125 6.40875 6.90125 6.8125 7.6875 C7.93383517 11.3965317 7.81858985 14.50320305 7.625 18.375 C6.625 19.375 6.625 19.375 4.25 19.625 C1.625 19.375 1.625 19.375 -0.0625 18.375 C-3.37159353 13.33257176 -3.73425365 7.24280955 -3.375 1.375 C-2.375 0.375 -2.375 0.375 0 0 Z " fill="#FDEDE6" transform="translate(724.375,21.625)"/>
<path d="M0 0 C0.66 0.33 1.32 0.66 2 1 C2.48192771 6.42168675 2.48192771 6.42168675 0.4375 8.875 C-2.86377254 10.39866425 -5.4083844 10.332557 -9 10 C-11 8 -11 8 -11.3125 5 C-11.209375 4.01 -11.10625 3.02 -11 2 C-6.94641576 -0.70238949 -4.81689896 -0.22937614 0 0 Z " fill="#FEF1E9" transform="translate(357,285)"/>
<path d="M0 0 C0.66 0.66 1.32 1.32 2 2 C1.8125 4 1.8125 4 1 6 C-2.31371 8.20914 -3.3446021 8.22481553 -7.1875 8.125 C-8.08855469 8.10695312 -8.98960938 8.08890625 -9.91796875 8.0703125 C-10.60503906 8.04710937 -11.29210937 8.02390625 -12 8 C-12.33 6.35 -12.66 4.7 -13 3 C-8.51982193 -0.36013356 -5.41184254 -0.44359365 0 0 Z " fill="#F59B99" transform="translate(127,175)"/>
<path d="M0 0 C-0.3125 2.375 -0.3125 2.375 -1 5 C-4.02544334 7.01696222 -4.61067382 7.25811096 -8 7.1875 C-8.680625 7.18105469 -9.36125 7.17460937 -10.0625 7.16796875 C-12 7 -12 7 -15 6 C-14.51963048 1.43648961 -14.51963048 1.43648961 -12.4375 -0.3125 C-8.43317233 -1.44192575 -3.79742986 -1.89871493 0 0 Z " fill="#F59B98" transform="translate(688,267)"/>
<path d="M0 0 C1.65 0 3.3 0 5 0 C5.33 4.95 5.66 9.9 6 15 C4.35 15.33 2.7 15.66 1 16 C-0.25447333 10.95970539 -1.39277298 6.23697313 -1 1 C-0.67 0.67 -0.34 0.34 0 0 Z " fill="#FEEFE8" transform="translate(740,28)"/>
<path d="M0 0 C3.36370321 1.39187719 5.21906331 2.79431396 7 6 C7.1875 9.25 7.1875 9.25 7 12 C5.02 12.99 5.02 12.99 3 14 C-1.07877462 7.10284464 -1.07877462 7.10284464 -0.75 2.5 C-0.5025 1.675 -0.255 0.85 0 0 Z " fill="#F59D9B" transform="translate(416,112)"/>
<path d="M0 0 C2.625 0.375 2.625 0.375 5 1 C5.625 3.375 5.625 3.375 6 6 C5.34 6.66 4.68 7.32 4 8 C1.375 7.625 1.375 7.625 -1 7 C-1.625 4.625 -1.625 4.625 -2 2 C-1.34 1.34 -0.68 0.68 0 0 Z " fill="#FDE7E0" transform="translate(43,153)"/>
<path d="M0 0 C0.66 0.33 1.32 0.66 2 1 C0.77946141 4.66161578 -0.36782304 5.16270474 -3.5625 7.1875 C-4.38878906 7.71730469 -5.21507812 8.24710938 -6.06640625 8.79296875 C-6.70449219 9.19128906 -7.34257813 9.58960938 -8 10 C-8.66 9.67 -9.32 9.34 -10 9 C-10 7.68 -10 6.36 -10 5 C-8.38007835 4.13624104 -6.75388139 3.28424146 -5.125 2.4375 C-4.22007812 1.96183594 -3.31515625 1.48617187 -2.3828125 0.99609375 C-1.20332031 0.50302734 -1.20332031 0.50302734 0 0 Z " fill="#F59D9A" transform="translate(612,180)"/>
<path d="M0 0 C2.5 0.125 2.5 0.125 3.5 1.125 C3.625 3.625 3.625 3.625 3.5 6.125 C2.5 7.125 2.5 7.125 0 7.25 C-2.5 7.125 -2.5 7.125 -3.5 6.125 C-3.625 3.625 -3.625 3.625 -3.5 1.125 C-2.5 0.125 -2.5 0.125 0 0 Z " fill="#FDEDE6" transform="translate(58.5,135.875)"/>
<path d="M0 0 C-0.33 1.65 -0.66 3.3 -1 5 C-2.875 5.625 -2.875 5.625 -5 6 C-5.66 5.34 -6.32 4.68 -7 4 C-7 2.68 -7 1.36 -7 0 C-4.3333581 -1.33332095 -2.83319697 -0.67102033 0 0 Z " fill="#F59C9A" transform="translate(472,222)"/>
<path d="M0 0 C1.32 0 2.64 0 4 0 C4.36923077 4.55384615 4.36923077 4.55384615 2.5 6.8125 C2.005 7.204375 1.51 7.59625 1 8 C3.64 8 6.28 8 9 8 C8.67 8.66 8.34 9.32 8 10 C5.03 10 2.06 10 -1 10 C-1.33 8.35 -1.66 6.7 -2 5 C-0.35 4.67 1.3 4.34 3 4 C3 3.01 3 2.02 3 1 C2.01 0.67 1.02 0.34 0 0 Z " fill="#FACBC6" transform="translate(686,77)"/>
<path d="M0 0 C0.66 0.33 1.32 0.66 2 1 C-2.62 5.62 -7.24 10.24 -12 15 C-12 10.09687565 -8.29800369 7.38658643 -5 4 C-3.37458956 2.61667196 -1.72614587 1.25537882 0 0 Z " fill="#FCE0D9" transform="translate(645,249)"/>
<path d="M0 0 C0.66 0.33 1.32 0.66 2 1 C-2.62 5.62 -7.24 10.24 -12 15 C-12 10.09687565 -8.29800369 7.38658643 -5 4 C-3.37458956 2.61667196 -1.72614587 1.25537882 0 0 Z " fill="#FCE0D9" transform="translate(86,158)"/>
<path d="M0 0 C0.66 0.33 1.32 0.66 2 1 C0.90344712 2.31886772 -0.20253423 3.62990057 -1.3125 4.9375 C-1.92738281 5.66839844 -2.54226562 6.39929688 -3.17578125 7.15234375 C-5 9 -5 9 -8 10 C-8 10.99 -8 11.98 -8 13 C-8.66 13 -9.32 13 -10 13 C-8.65515286 8.95838045 -6.9494838 6.61321846 -3.875 3.6875 C-3.15054688 2.99011719 -2.42609375 2.29273438 -1.6796875 1.57421875 C-1.12539062 1.05472656 -0.57109375 0.53523437 0 0 Z " fill="#FCDFD9" transform="translate(257,252)"/>
<path d="M0 0 C1.2065625 0.0309375 1.2065625 0.0309375 2.4375 0.0625 C3 2 3 2 3.4375 4.0625 C2.4375 5.0625 2.4375 5.0625 -0.125 5.125 C-1.3315625 5.0940625 -1.3315625 5.0940625 -2.5625 5.0625 C-3.125 3.125 -3.125 3.125 -3.5625 1.0625 C-2.5625 0.0625 -2.5625 0.0625 0 0 Z " fill="#FDE7E0" transform="translate(731.5625,45.9375)"/>
<path d="M0 0 C0 0.33 0 0.66 0 1 C-0.969375 1.309375 -1.93875 1.61875 -2.9375 1.9375 C-5.84065792 2.69523342 -5.84065792 2.69523342 -7 4 C-7.23192865 5.51469448 -7.41215238 7.03754562 -7.5625 8.5625 C-7.64628906 9.38878906 -7.73007812 10.21507812 -7.81640625 11.06640625 C-7.87699219 11.70449219 -7.93757812 12.34257812 -8 13 C-8.66 12.67 -9.32 12.34 -10 12 C-10.08090971 10.37581255 -10.13914995 8.75048255 -10.1875 7.125 C-10.22230469 6.22007812 -10.25710938 5.31515625 -10.29296875 4.3828125 C-10.19628906 3.59648437 -10.09960938 2.81015625 -10 2 C-6.3558226 -0.4294516 -4.28758728 -0.16179575 0 0 Z " fill="#F7AFAC" transform="translate(748,220)"/>
<path d="M0 0 C1.6140712 2.8973901 2.3756433 5.33286311 2.75 8.625 C2.84796875 9.40101562 2.9459375 10.17703125 3.046875 10.9765625 C3 13 3 13 1 15 C-0.96263236 9.4584498 -1.01603857 5.79141983 0 0 Z " fill="#F7B2AE" transform="translate(683,44)"/>
<path d="M0 0 C1.67542976 0.28604898 3.34385343 0.61781233 5 1 C5 3.97 5 6.94 5 10 C4.67 10 4.34 10 4 10 C4 7.36 4 4.72 4 2 C3.01 2.33 2.02 2.66 1 3 C0.67 5.64 0.34 8.28 0 11 C-0.33 11 -0.66 11 -1 11 C-1.02688151 9.35425434 -1.04634123 7.70838587 -1.0625 6.0625 C-1.07410156 5.14597656 -1.08570313 4.22945312 -1.09765625 3.28515625 C-1 1 -1 1 0 0 Z " fill="#FBD3CD" transform="translate(733,202)"/>
<path d="M0 0 C1.65 0.33 3.3 0.66 5 1 C4.67 2.32 4.34 3.64 4 5 C2.35 4.67 0.7 4.34 -1 4 C-0.67 2.68 -0.34 1.36 0 0 Z " fill="#F59593" transform="translate(361,134)"/>
<path d="M0 0 C2.21399303 3.79541663 3.00980198 7.75629421 4 12 C2.02 12.99 2.02 12.99 0 14 C-0.19393875 11.85473901 -0.37998676 9.70876323 -0.5625 7.5625 C-0.71912109 5.77005859 -0.71912109 5.77005859 -0.87890625 3.94140625 C-0.91886719 2.97074219 -0.95882812 2.00007813 -1 1 C-0.67 0.67 -0.34 0.34 0 0 Z " fill="#F7B2AE" transform="translate(714,64)"/>
<path d="M0 0 C2.31 0.33 4.62 0.66 7 1 C5.875 2.5 5.875 2.5 4 4 C0.8125 4.1875 0.8125 4.1875 -2 4 C-1.34 2.68 -0.68 1.36 0 0 Z " fill="#F6A19F" transform="translate(377,155)"/>
<path d="M0 0 C2.0625 0.4375 2.0625 0.4375 4 1 C3.360625 1.4125 2.72125 1.825 2.0625 2.25 C-0.20990931 4.17810487 -0.60196439 5.11424181 -1 8 C-1.66 8 -2.32 8 -3 8 C-3.66 6.35 -4.32 4.7 -5 3 C-4.360625 2.690625 -3.72125 2.38125 -3.0625 2.0625 C-1.06389179 1.1654837 -1.06389179 1.1654837 0 0 Z " fill="#FBD1CB" transform="translate(653,44)"/>
<path d="M0 0 C3.82097239 0.53069061 6.06171403 1.49701566 9 4 C7.3125 4.6875 7.3125 4.6875 5 5 C2.25 3.6875 2.25 3.6875 0 2 C0 1.34 0 0.68 0 0 Z " fill="#F59D9B" transform="translate(360,220)"/>
<path d="M0 0 C1.65 0 3.3 0 5 0 C5 1.32 5 2.64 5 4 C3.35 4 1.7 4 0 4 C0 2.68 0 1.36 0 0 Z " fill="#FBD6D0" transform="translate(743,48)"/>
</svg>
