<?xml version="1.0" encoding="UTF-8"?>
<svg version="1.1" xmlns="http://www.w3.org/2000/svg" width="960" height="640">
<path d="M0 0 C307.56 0 615.12 0 932 0 C933.15276303 2.30552605 933.12551834 3.59925105 933.12649983 6.16384554 C933.12925958 7.04364559 933.13201932 7.92344563 933.13486269 8.82990628 C933.13280737 9.80433563 933.13075205 10.77876497 933.12863445 11.78272247 C933.13038749 12.81602729 933.13214053 13.84933211 933.13394669 14.91394919 C933.13864188 18.41697036 933.13613221 21.91995065 933.13371277 25.42297363 C933.13557897 27.94352773 933.1378789 30.46408153 933.14057809 32.98463488 C933.14543875 38.48571724 933.14714719 43.986787 933.14612198 49.48787117 C933.1446012 57.66795899 933.14874955 65.84803702 933.1539966 74.02812295 C933.16368384 89.48496489 933.16648135 104.94180352 933.16705366 120.39864814 C933.16751259 132.33079388 933.16956771 144.26293831 933.17275429 156.19508362 C933.17365178 159.62537972 933.17454159 163.05567582 933.17542917 166.48597193 C933.17565021 167.33866444 933.17587126 168.19135695 933.17609901 169.06988862 C933.18225589 193.06464598 933.18619929 217.05940289 933.18575573 241.05416107 C933.18574015 241.95940622 933.18572457 242.86465137 933.18570852 243.79732819 C933.18562541 248.38586222 933.18552637 252.97439625 933.18542381 257.56293029 C933.1853939 258.92996888 933.1853939 258.92996888 933.18536337 260.32462441 C933.18532294 262.16761489 933.18528114 264.01060538 933.18523798 265.85359586 C933.18462497 294.53960934 933.19213547 323.225611 933.20581055 351.91162109 C933.22115472 384.11242471 933.22977779 416.31322057 933.22884732 448.51402807 C933.22877269 451.94432418 933.22872399 455.37462028 933.22869301 458.80491638 C933.22867553 460.07193203 933.22867553 460.07193203 933.22865769 461.36454395 C933.22862686 474.98609883 933.23502579 488.6076435 933.24362527 502.22919534 C933.25208182 515.90672354 933.25310744 529.58423672 933.24651595 543.26176608 C933.24280702 551.39754909 933.24469246 559.53328661 933.25445829 567.66906484 C933.26112045 573.72884481 933.25744163 579.78857041 933.24958507 585.84835094 C933.24803484 588.31129864 933.24992263 590.77425118 933.25544515 593.23719317 C933.26241528 596.56397136 933.25728324 599.89050808 933.24888897 603.21727753 C933.25385715 604.19170687 933.25882533 605.16613621 933.26394406 606.17009372 C933.25681784 607.48979378 933.25681784 607.48979378 933.24954766 608.83615446 C933.24963588 609.59782831 933.2497241 610.35950216 933.249815 611.14425704 C933 613 933 613 931 615 C928.30506986 615.25028767 928.30506986 615.25028767 924.79071712 615.25069833 C924.142592 615.25350296 923.49446688 615.2563076 922.82670161 615.25919722 C920.62948677 615.26622132 918.43254752 615.25885112 916.2353363 615.25168228 C914.6475612 615.25376636 913.05978704 615.25672721 911.47201502 615.26049101 C907.0727832 615.26833609 902.67363823 615.26358959 898.2744077 615.25693511 C893.50208567 615.2518909 888.72977763 615.25836987 883.95745754 615.26342177 C875.58142099 615.27066925 867.20541017 615.2704113 858.82937241 615.26532745 C846.37428079 615.25778822 833.91921104 615.26161652 821.46411958 615.26774407 C799.22430817 615.2782974 776.98450821 615.27735409 754.74469569 615.27158624 C735.28274796 615.26656335 715.82080445 615.26523788 696.3588562 615.26763153 C695.06998142 615.2677843 693.78110665 615.26793707 692.45317506 615.26809447 C687.22175917 615.26871711 681.99034329 615.2693539 676.7589274 615.270014 C662.13381521 615.27183743 647.50870299 615.27298928 632.8835907 615.27358627 C632.21752821 615.27361356 631.55146572 615.27364086 630.86521952 615.27366897 C609.63299015 615.27448786 588.40076224 615.27223206 567.16853333 615.26788712 C566.47961151 615.26774662 565.79068969 615.26760612 565.08089145 615.26746136 C553.89236223 615.26517131 542.70383304 615.26273246 531.51530385 615.26028102 C487.13682613 615.25056791 442.75836048 615.25101873 398.37988281 615.26074219 C387.19707745 615.26318445 376.01427208 615.26560651 364.83146667 615.26788712 C363.79869914 615.26809846 363.79869914 615.26809846 362.74506762 615.26831407 C341.53551465 615.27262469 320.32596269 615.27445532 299.1164093 615.27358627 C298.45083231 615.2735591 297.78525533 615.27353194 297.09950934 615.27350394 C281.83550103 615.27285103 266.57149283 615.27144366 251.30748463 615.26951766 C246.08537102 615.26887619 240.86325741 615.26825051 235.6411438 615.26763153 C234.3552417 615.26747338 233.0693396 615.26731522 231.74447077 615.26715227 C212.29049136 615.26487334 192.83651661 615.26754529 173.38253784 615.27259064 C151.27171041 615.2782963 129.16089628 615.27690704 107.05007052 615.26602915 C94.66179801 615.26013622 82.27355426 615.25980242 69.88528247 615.2673215 C61.62512389 615.27178386 53.36498853 615.26905603 45.10483341 615.26031196 C40.3886679 615.25552404 35.67255982 615.25399003 30.95639598 615.26112393 C26.67470462 615.26753503 22.39312217 615.26491231 18.11143892 615.2547626 C16.56374174 615.25273113 15.01603575 615.25412483 13.46834548 615.25917448 C11.38185592 615.26550446 9.29575384 615.25972712 7.20928288 615.25069833 C5.46967827 615.25049505 5.46967827 615.25049505 3.69493014 615.25028767 C1 615 1 615 -1 613 C-1.249815 611.14425704 -1.249815 611.14425704 -1.24954766 608.83615446 C-1.25429847 607.95635441 -1.25904928 607.07655437 -1.26394406 606.17009372 C-1.25649179 604.7084497 -1.25649179 604.7084497 -1.24888897 603.21727753 C-1.25149625 602.18397271 -1.25410354 601.15066789 -1.25678983 600.08605081 C-1.26314473 596.58298247 -1.25509288 593.08008968 -1.24723816 589.57702637 C-1.24882465 587.05647194 -1.25128665 584.53591793 -1.25455457 582.01536512 C-1.25965004 576.51426711 -1.25847247 571.01322429 -1.2518692 565.51212883 C-1.24207712 557.33203596 -1.24367734 549.15197341 -1.2476195 540.97187705 C-1.25390467 527.21289887 -1.25071161 513.4539378 -1.24202538 499.69496155 C-1.23342225 486.06494488 -1.22850495 472.43493589 -1.22869301 458.80491638 C-1.22870065 457.95828623 -1.2287083 457.11165607 -1.22871618 456.23937046 C-1.22875708 452.80295077 -1.22882269 449.36653107 -1.22892199 445.93011138 C-1.22982882 413.66887037 -1.21987177 381.40764108 -1.20449232 349.14640414 C-1.19086766 320.46039402 -1.184631 291.77439223 -1.18530273 263.08837891 C-1.18534315 261.2465627 -1.18538351 259.40474649 -1.18542381 257.56293029 C-1.18544416 256.65238798 -1.18546452 255.74184566 -1.18548548 254.80371116 C-1.18558627 250.2205278 -1.18567686 245.63734444 -1.18575573 241.05416107 C-1.18577244 240.15004451 -1.18578916 239.24592795 -1.18580638 238.31441392 C-1.18617126 214.37159928 -1.18163599 190.42878569 -1.17542917 166.48597193 C-1.17509876 165.20900878 -1.17509876 165.20900878 -1.17476168 163.9062484 C-1.1738734 160.48265095 -1.17298502 157.0590535 -1.17207072 153.63545605 C-1.16890662 141.70638238 -1.16740092 129.77730953 -1.16695923 117.84823547 C-1.16636304 102.47823168 -1.16238675 87.10823477 -1.15252777 71.73823392 C-1.14739971 63.60246481 -1.14500774 55.46670581 -1.14652396 47.33093516 C-1.14734096 41.27116685 -1.14296269 35.21141445 -1.13647345 29.15164906 C-1.13464991 26.68870232 -1.13453965 24.22575365 -1.13624074 21.76280683 C-1.13828536 18.43608918 -1.13427833 15.1094346 -1.12863445 11.78272247 C-1.13171743 10.32107846 -1.13171743 10.32107846 -1.13486269 8.82990628 C-1.13210295 7.95010624 -1.1293432 7.07030619 -1.12649983 6.16384554 C-1.12620833 5.40217169 -1.12591683 4.64049784 -1.1256165 3.85574296 C-1 2 -1 2 0 0 Z " fill="#FEF8F0" transform="translate(17,11)"/>
<path d="M0 0 C307.56 0 615.12 0 932 0 C933.15276303 2.30552605 933.12551834 3.59925105 933.12649983 6.16384554 C933.12925958 7.04364559 933.13201932 7.92344563 933.13486269 8.82990628 C933.13280737 9.80433563 933.13075205 10.77876497 933.12863445 11.78272247 C933.13038749 12.81602729 933.13214053 13.84933211 933.13394669 14.91394919 C933.13864188 18.41697036 933.13613221 21.91995065 933.13371277 25.42297363 C933.13557897 27.94352773 933.1378789 30.46408153 933.14057809 32.98463488 C933.14543875 38.48571724 933.14714719 43.986787 933.14612198 49.48787117 C933.1446012 57.66795899 933.14874955 65.84803702 933.1539966 74.02812295 C933.16368384 89.48496489 933.16648135 104.94180352 933.16705366 120.39864814 C933.16751259 132.33079388 933.16956771 144.26293831 933.17275429 156.19508362 C933.17365178 159.62537972 933.17454159 163.05567582 933.17542917 166.48597193 C933.17565021 167.33866444 933.17587126 168.19135695 933.17609901 169.06988862 C933.18225589 193.06464598 933.18619929 217.05940289 933.18575573 241.05416107 C933.18574015 241.95940622 933.18572457 242.86465137 933.18570852 243.79732819 C933.18562541 248.38586222 933.18552637 252.97439625 933.18542381 257.56293029 C933.1853939 258.92996888 933.1853939 258.92996888 933.18536337 260.32462441 C933.18532294 262.16761489 933.18528114 264.01060538 933.18523798 265.85359586 C933.18462497 294.53960934 933.19213547 323.225611 933.20581055 351.91162109 C933.22115472 384.11242471 933.22977779 416.31322057 933.22884732 448.51402807 C933.22877269 451.94432418 933.22872399 455.37462028 933.22869301 458.80491638 C933.22867553 460.07193203 933.22867553 460.07193203 933.22865769 461.36454395 C933.22862686 474.98609883 933.23502579 488.6076435 933.24362527 502.22919534 C933.25208182 515.90672354 933.25310744 529.58423672 933.24651595 543.26176608 C933.24280702 551.39754909 933.24469246 559.53328661 933.25445829 567.66906484 C933.26112045 573.72884481 933.25744163 579.78857041 933.24958507 585.84835094 C933.24803484 588.31129864 933.24992263 590.77425118 933.25544515 593.23719317 C933.26241528 596.56397136 933.25728324 599.89050808 933.24888897 603.21727753 C933.25385715 604.19170687 933.25882533 605.16613621 933.26394406 606.17009372 C933.25681784 607.48979378 933.25681784 607.48979378 933.24954766 608.83615446 C933.24963588 609.59782831 933.2497241 610.35950216 933.249815 611.14425704 C933 613 933 613 931 615 C928.30506986 615.25028767 928.30506986 615.25028767 924.79071712 615.25069833 C924.142592 615.25350296 923.49446688 615.2563076 922.82670161 615.25919722 C920.62948677 615.26622132 918.43254752 615.25885112 916.2353363 615.25168228 C914.6475612 615.25376636 913.05978704 615.25672721 911.47201502 615.26049101 C907.0727832 615.26833609 902.67363823 615.26358959 898.2744077 615.25693511 C893.50208567 615.2518909 888.72977763 615.25836987 883.95745754 615.26342177 C875.58142099 615.27066925 867.20541017 615.2704113 858.82937241 615.26532745 C846.37428079 615.25778822 833.91921104 615.26161652 821.46411958 615.26774407 C799.22430817 615.2782974 776.98450821 615.27735409 754.74469569 615.27158624 C735.28274796 615.26656335 715.82080445 615.26523788 696.3588562 615.26763153 C695.06998142 615.2677843 693.78110665 615.26793707 692.45317506 615.26809447 C687.22175917 615.26871711 681.99034329 615.2693539 676.7589274 615.270014 C662.13381521 615.27183743 647.50870299 615.27298928 632.8835907 615.27358627 C632.21752821 615.27361356 631.55146572 615.27364086 630.86521952 615.27366897 C609.63299015 615.27448786 588.40076224 615.27223206 567.16853333 615.26788712 C566.47961151 615.26774662 565.79068969 615.26760612 565.08089145 615.26746136 C553.89236223 615.26517131 542.70383304 615.26273246 531.51530385 615.26028102 C487.13682613 615.25056791 442.75836048 615.25101873 398.37988281 615.26074219 C387.19707745 615.26318445 376.01427208 615.26560651 364.83146667 615.26788712 C363.79869914 615.26809846 363.79869914 615.26809846 362.74506762 615.26831407 C341.53551465 615.27262469 320.32596269 615.27445532 299.1164093 615.27358627 C298.45083231 615.2735591 297.78525533 615.27353194 297.09950934 615.27350394 C281.83550103 615.27285103 266.57149283 615.27144366 251.30748463 615.26951766 C246.08537102 615.26887619 240.86325741 615.26825051 235.6411438 615.26763153 C234.3552417 615.26747338 233.0693396 615.26731522 231.74447077 615.26715227 C212.29049136 615.26487334 192.83651661 615.26754529 173.38253784 615.27259064 C151.27171041 615.2782963 129.16089628 615.27690704 107.05007052 615.26602915 C94.66179801 615.26013622 82.27355426 615.25980242 69.88528247 615.2673215 C61.62512389 615.27178386 53.36498853 615.26905603 45.10483341 615.26031196 C40.3886679 615.25552404 35.67255982 615.25399003 30.95639598 615.26112393 C26.67470462 615.26753503 22.39312217 615.26491231 18.11143892 615.2547626 C16.56374174 615.25273113 15.01603575 615.25412483 13.46834548 615.25917448 C11.38185592 615.26550446 9.29575384 615.25972712 7.20928288 615.25069833 C5.46967827 615.25049505 5.46967827 615.25049505 3.69493014 615.25028767 C1 615 1 615 -1 613 C-1.249815 611.14425704 -1.249815 611.14425704 -1.24954766 608.83615446 C-1.25429847 607.95635441 -1.25904928 607.07655437 -1.26394406 606.17009372 C-1.25649179 604.7084497 -1.25649179 604.7084497 -1.24888897 603.21727753 C-1.25149625 602.18397271 -1.25410354 601.15066789 -1.25678983 600.08605081 C-1.26314473 596.58298247 -1.25509288 593.08008968 -1.24723816 589.57702637 C-1.24882465 587.05647194 -1.25128665 584.53591793 -1.25455457 582.01536512 C-1.25965004 576.51426711 -1.25847247 571.01322429 -1.2518692 565.51212883 C-1.24207712 557.33203596 -1.24367734 549.15197341 -1.2476195 540.97187705 C-1.25390467 527.21289887 -1.25071161 513.4539378 -1.24202538 499.69496155 C-1.23342225 486.06494488 -1.22850495 472.43493589 -1.22869301 458.80491638 C-1.22870065 457.95828623 -1.2287083 457.11165607 -1.22871618 456.23937046 C-1.22875708 452.80295077 -1.22882269 449.36653107 -1.22892199 445.93011138 C-1.22982882 413.66887037 -1.21987177 381.40764108 -1.20449232 349.14640414 C-1.19086766 320.46039402 -1.184631 291.77439223 -1.18530273 263.08837891 C-1.18534315 261.2465627 -1.18538351 259.40474649 -1.18542381 257.56293029 C-1.18544416 256.65238798 -1.18546452 255.74184566 -1.18548548 254.80371116 C-1.18558627 250.2205278 -1.18567686 245.63734444 -1.18575573 241.05416107 C-1.18577244 240.15004451 -1.18578916 239.24592795 -1.18580638 238.31441392 C-1.18617126 214.37159928 -1.18163599 190.42878569 -1.17542917 166.48597193 C-1.17509876 165.20900878 -1.17509876 165.20900878 -1.17476168 163.9062484 C-1.1738734 160.48265095 -1.17298502 157.0590535 -1.17207072 153.63545605 C-1.16890662 141.70638238 -1.16740092 129.77730953 -1.16695923 117.84823547 C-1.16636304 102.47823168 -1.16238675 87.10823477 -1.15252777 71.73823392 C-1.14739971 63.60246481 -1.14500774 55.46670581 -1.14652396 47.33093516 C-1.14734096 41.27116685 -1.14296269 35.21141445 -1.13647345 29.15164906 C-1.13464991 26.68870232 -1.13453965 24.22575365 -1.13624074 21.76280683 C-1.13828536 18.43608918 -1.13427833 15.1094346 -1.12863445 11.78272247 C-1.13171743 10.32107846 -1.13171743 10.32107846 -1.13486269 8.82990628 C-1.13210295 7.95010624 -1.1293432 7.07030619 -1.12649983 6.16384554 C-1.12620833 5.40217169 -1.12591683 4.64049784 -1.1256165 3.85574296 C-1 2 -1 2 0 0 Z M63 51 C63 220.62 63 390.24 63 565 C328.32 565 593.64 565 867 565 C867 395.38 867 225.76 867 51 C601.68 51 336.36 51 63 51 Z " fill="#492E29" transform="translate(17,11)"/>
<path d="M0 0 C307.56 0 615.12 0 932 0 C933.15276303 2.30552605 933.12551834 3.59925105 933.12649983 6.16384554 C933.12925958 7.04364559 933.13201932 7.92344563 933.13486269 8.82990628 C933.13280737 9.80433563 933.13075205 10.77876497 933.12863445 11.78272247 C933.13038749 12.81602729 933.13214053 13.84933211 933.13394669 14.91394919 C933.13864188 18.41697036 933.13613221 21.91995065 933.13371277 25.42297363 C933.13557897 27.94352773 933.1378789 30.46408153 933.14057809 32.98463488 C933.14543875 38.48571724 933.14714719 43.986787 933.14612198 49.48787117 C933.1446012 57.66795899 933.14874955 65.84803702 933.1539966 74.02812295 C933.16368384 89.48496489 933.16648135 104.94180352 933.16705366 120.39864814 C933.16751259 132.33079388 933.16956771 144.26293831 933.17275429 156.19508362 C933.17365178 159.62537972 933.17454159 163.05567582 933.17542917 166.48597193 C933.17565021 167.33866444 933.17587126 168.19135695 933.17609901 169.06988862 C933.18225589 193.06464598 933.18619929 217.05940289 933.18575573 241.05416107 C933.18574015 241.95940622 933.18572457 242.86465137 933.18570852 243.79732819 C933.18562541 248.38586222 933.18552637 252.97439625 933.18542381 257.56293029 C933.1853939 258.92996888 933.1853939 258.92996888 933.18536337 260.32462441 C933.18532294 262.16761489 933.18528114 264.01060538 933.18523798 265.85359586 C933.18462497 294.53960934 933.19213547 323.225611 933.20581055 351.91162109 C933.22115472 384.11242471 933.22977779 416.31322057 933.22884732 448.51402807 C933.22877269 451.94432418 933.22872399 455.37462028 933.22869301 458.80491638 C933.22867553 460.07193203 933.22867553 460.07193203 933.22865769 461.36454395 C933.22862686 474.98609883 933.23502579 488.6076435 933.24362527 502.22919534 C933.25208182 515.90672354 933.25310744 529.58423672 933.24651595 543.26176608 C933.24280702 551.39754909 933.24469246 559.53328661 933.25445829 567.66906484 C933.26112045 573.72884481 933.25744163 579.78857041 933.24958507 585.84835094 C933.24803484 588.31129864 933.24992263 590.77425118 933.25544515 593.23719317 C933.26241528 596.56397136 933.25728324 599.89050808 933.24888897 603.21727753 C933.25385715 604.19170687 933.25882533 605.16613621 933.26394406 606.17009372 C933.25681784 607.48979378 933.25681784 607.48979378 933.24954766 608.83615446 C933.24963588 609.59782831 933.2497241 610.35950216 933.249815 611.14425704 C933 613 933 613 931 615 C928.30506986 615.25028767 928.30506986 615.25028767 924.79071712 615.25069833 C924.142592 615.25350296 923.49446688 615.2563076 922.82670161 615.25919722 C920.62948677 615.26622132 918.43254752 615.25885112 916.2353363 615.25168228 C914.6475612 615.25376636 913.05978704 615.25672721 911.47201502 615.26049101 C907.0727832 615.26833609 902.67363823 615.26358959 898.2744077 615.25693511 C893.50208567 615.2518909 888.72977763 615.25836987 883.95745754 615.26342177 C875.58142099 615.27066925 867.20541017 615.2704113 858.82937241 615.26532745 C846.37428079 615.25778822 833.91921104 615.26161652 821.46411958 615.26774407 C799.22430817 615.2782974 776.98450821 615.27735409 754.74469569 615.27158624 C735.28274796 615.26656335 715.82080445 615.26523788 696.3588562 615.26763153 C695.06998142 615.2677843 693.78110665 615.26793707 692.45317506 615.26809447 C687.22175917 615.26871711 681.99034329 615.2693539 676.7589274 615.270014 C662.13381521 615.27183743 647.50870299 615.27298928 632.8835907 615.27358627 C632.21752821 615.27361356 631.55146572 615.27364086 630.86521952 615.27366897 C609.63299015 615.27448786 588.40076224 615.27223206 567.16853333 615.26788712 C566.47961151 615.26774662 565.79068969 615.26760612 565.08089145 615.26746136 C553.89236223 615.26517131 542.70383304 615.26273246 531.51530385 615.26028102 C487.13682613 615.25056791 442.75836048 615.25101873 398.37988281 615.26074219 C387.19707745 615.26318445 376.01427208 615.26560651 364.83146667 615.26788712 C363.79869914 615.26809846 363.79869914 615.26809846 362.74506762 615.26831407 C341.53551465 615.27262469 320.32596269 615.27445532 299.1164093 615.27358627 C298.45083231 615.2735591 297.78525533 615.27353194 297.09950934 615.27350394 C281.83550103 615.27285103 266.57149283 615.27144366 251.30748463 615.26951766 C246.08537102 615.26887619 240.86325741 615.26825051 235.6411438 615.26763153 C234.3552417 615.26747338 233.0693396 615.26731522 231.74447077 615.26715227 C212.29049136 615.26487334 192.83651661 615.26754529 173.38253784 615.27259064 C151.27171041 615.2782963 129.16089628 615.27690704 107.05007052 615.26602915 C94.66179801 615.26013622 82.27355426 615.25980242 69.88528247 615.2673215 C61.62512389 615.27178386 53.36498853 615.26905603 45.10483341 615.26031196 C40.3886679 615.25552404 35.67255982 615.25399003 30.95639598 615.26112393 C26.67470462 615.26753503 22.39312217 615.26491231 18.11143892 615.2547626 C16.56374174 615.25273113 15.01603575 615.25412483 13.46834548 615.25917448 C11.38185592 615.26550446 9.29575384 615.25972712 7.20928288 615.25069833 C5.46967827 615.25049505 5.46967827 615.25049505 3.69493014 615.25028767 C1 615 1 615 -1 613 C-1.249815 611.14425704 -1.249815 611.14425704 -1.24954766 608.83615446 C-1.25429847 607.95635441 -1.25904928 607.07655437 -1.26394406 606.17009372 C-1.25649179 604.7084497 -1.25649179 604.7084497 -1.24888897 603.21727753 C-1.25149625 602.18397271 -1.25410354 601.15066789 -1.25678983 600.08605081 C-1.26314473 596.58298247 -1.25509288 593.08008968 -1.24723816 589.57702637 C-1.24882465 587.05647194 -1.25128665 584.53591793 -1.25455457 582.01536512 C-1.25965004 576.51426711 -1.25847247 571.01322429 -1.2518692 565.51212883 C-1.24207712 557.33203596 -1.24367734 549.15197341 -1.2476195 540.97187705 C-1.25390467 527.21289887 -1.25071161 513.4539378 -1.24202538 499.69496155 C-1.23342225 486.06494488 -1.22850495 472.43493589 -1.22869301 458.80491638 C-1.22870065 457.95828623 -1.2287083 457.11165607 -1.22871618 456.23937046 C-1.22875708 452.80295077 -1.22882269 449.36653107 -1.22892199 445.93011138 C-1.22982882 413.66887037 -1.21987177 381.40764108 -1.20449232 349.14640414 C-1.19086766 320.46039402 -1.184631 291.77439223 -1.18530273 263.08837891 C-1.18534315 261.2465627 -1.18538351 259.40474649 -1.18542381 257.56293029 C-1.18544416 256.65238798 -1.18546452 255.74184566 -1.18548548 254.80371116 C-1.18558627 250.2205278 -1.18567686 245.63734444 -1.18575573 241.05416107 C-1.18577244 240.15004451 -1.18578916 239.24592795 -1.18580638 238.31441392 C-1.18617126 214.37159928 -1.18163599 190.42878569 -1.17542917 166.48597193 C-1.17509876 165.20900878 -1.17509876 165.20900878 -1.17476168 163.9062484 C-1.1738734 160.48265095 -1.17298502 157.0590535 -1.17207072 153.63545605 C-1.16890662 141.70638238 -1.16740092 129.77730953 -1.16695923 117.84823547 C-1.16636304 102.47823168 -1.16238675 87.10823477 -1.15252777 71.73823392 C-1.14739971 63.60246481 -1.14500774 55.46670581 -1.14652396 47.33093516 C-1.14734096 41.27116685 -1.14296269 35.21141445 -1.13647345 29.15164906 C-1.13464991 26.68870232 -1.13453965 24.22575365 -1.13624074 21.76280683 C-1.13828536 18.43608918 -1.13427833 15.1094346 -1.12863445 11.78272247 C-1.13171743 10.32107846 -1.13171743 10.32107846 -1.13486269 8.82990628 C-1.13210295 7.95010624 -1.1293432 7.07030619 -1.12649983 6.16384554 C-1.12620833 5.40217169 -1.12591683 4.64049784 -1.1256165 3.85574296 C-1 2 -1 2 0 0 Z M25 23 C23.29441313 26.41117374 23.86440619 30.31414738 23.87415886 34.06711674 C23.87270542 35.02305596 23.87125198 35.97899519 23.86975449 36.96390226 C23.86607197 40.20373868 23.86959129 43.44352871 23.87301636 46.68336487 C23.87186543 49.01489074 23.8702781 51.34641643 23.86828911 53.67794174 C23.86453299 59.43712609 23.86546917 65.19629666 23.86833988 70.95548121 C23.87151897 77.85019113 23.86891918 84.74489572 23.86612797 91.63960537 C23.86085268 105.14929313 23.86132239 118.65897617 23.86420688 132.16866438 C23.86671868 143.9903267 23.86738089 155.81198729 23.86618423 167.63364983 C23.86610785 168.41665315 23.86603146 169.19965648 23.86595276 170.00638718 C23.86564145 173.18453854 23.86532305 176.36268989 23.864993 179.54084125 C23.8619315 209.3763058 23.86471148 239.21176733 23.8700899 269.04723142 C23.87483624 295.57828284 23.87441077 322.10932947 23.86962891 348.64038086 C23.86427926 378.42146549 23.86214812 408.20254746 23.86524117 437.9836325 C23.86556191 441.15581032 23.86587475 444.32798813 23.86618423 447.50016594 C23.86626331 448.28128554 23.86634239 449.06240514 23.86642386 449.86719502 C23.86756335 461.68469876 23.86622733 473.50220058 23.86370468 485.31970406 C23.86085206 498.75029044 23.86154606 512.18087136 23.86698543 525.61145706 C23.86967164 532.47117545 23.87075385 539.33088493 23.86733627 546.19060326 C23.86437598 552.4591986 23.86596163 558.72777503 23.87131383 564.99636864 C23.87243915 567.27491167 23.87184431 569.55345626 23.86943804 571.8319983 C23.86643695 574.90759702 23.8694755 577.98312928 23.87415886 581.0587244 C23.87181769 581.96198087 23.86947653 582.86523733 23.86706442 583.79586521 C23.48932419 587.71161867 23.48932419 587.71161867 25 591 C26.92194644 591.09849986 28.84757677 591.12523051 30.77204561 591.12534916 C32.03687723 591.12785268 33.30170886 591.1303562 34.60486871 591.13293558 C36.02963196 591.13065825 37.45439506 591.12829004 38.87915802 591.12584114 C40.38250329 591.12688291 41.88584831 591.12836314 43.38919276 591.13024551 C47.55863835 591.13417183 51.72806106 591.13179283 55.89750632 591.12846755 C60.41900256 591.12594726 64.9404951 591.12918421 69.46199083 591.13171089 C77.39915777 591.13533596 85.33631792 591.13520484 93.27348518 591.13266373 C105.07595134 591.12889532 116.87841173 591.13080763 128.68087785 591.13387203 C149.75492436 591.13914965 170.82896784 591.13867667 191.90301464 591.13579312 C210.34477234 591.133282 228.78652892 591.13261879 247.22828674 591.13381577 C248.44944439 591.13389215 249.67060204 591.13396854 250.92876447 591.13404724 C255.88528249 591.13435855 260.84180051 591.13467695 265.79831854 591.135007 C312.33682642 591.13806908 358.87533236 591.13528765 405.41383994 591.1299101 C446.80112232 591.12516416 488.18840123 591.12558877 529.57568359 591.13037109 C576.02663899 591.13572053 622.47759268 591.13785196 668.92854834 591.13475883 C673.87626998 591.13443809 678.82399162 591.13412525 683.77171326 591.13381577 C684.99005491 591.13373669 686.20839656 591.13365761 687.46365765 591.13357614 C705.89818129 591.13243651 724.3327037 591.13377293 742.76722717 591.13629532 C763.71868539 591.13914772 784.67014011 591.13845444 805.62159789 591.13301457 C817.3613071 591.13006738 829.10100873 591.12990224 840.84071776 591.13366075 C848.66731961 591.13589107 856.49391533 591.1345296 864.32051626 591.13015598 C868.78988099 591.12776081 873.25923056 591.12699749 877.72859484 591.13056196 C881.7851703 591.13376448 885.841717 591.13246062 889.89829031 591.1273813 C891.36563083 591.12636448 892.83297366 591.12706516 894.30031236 591.12958724 C896.27619102 591.13274547 898.25207708 591.12926008 900.22795439 591.12534916 C901.32692611 591.1252814 902.42589783 591.12521365 903.55817172 591.12514383 C905.94724342 591.27608598 905.94724342 591.27608598 907 590 C907.10093521 587.01207951 907.13543454 584.04717557 907.12863445 581.0587244 C907.13038749 580.10423862 907.13214053 579.14975284 907.13394669 578.16634324 C907.13864776 574.92542106 907.13613073 571.68454293 907.13371277 568.44361877 C907.13557868 566.11366852 907.13787849 563.78371858 907.14057809 561.45376915 C907.14608301 555.69456899 907.14687439 549.93538128 907.14571724 544.17617892 C907.14458443 537.28220517 907.14921381 530.38823841 907.1539966 523.49426666 C907.16368668 509.19880606 907.16648146 494.90334904 907.16705366 480.60788555 C907.16751252 469.57197839 907.16956725 458.53607264 907.17275429 447.50016594 C907.17365178 444.32798813 907.17454159 441.15581032 907.17542917 437.9836325 C907.17565021 437.19510848 907.17587126 436.40658445 907.17609901 435.59416575 C907.18225645 413.4030893 907.18619924 391.21201335 907.18575573 369.02093601 C907.18574015 368.18363642 907.18572457 367.34633682 907.18570852 366.48366452 C907.18562541 362.23950092 907.18552637 357.99533733 907.18542381 353.75117374 C907.18540387 352.90820757 907.18538392 352.06524139 907.18536337 351.19673078 C907.18532294 349.49204675 907.18528114 347.78736272 907.18523798 346.08267869 C907.18462502 319.55177706 907.19213423 293.02088821 907.20581055 266.48999023 C907.22115506 236.71036754 907.22977776 206.93075323 907.22884732 177.15112633 C907.22877269 173.97863416 907.22872399 170.80614199 907.22869301 167.63364983 C907.22868135 166.85245115 907.2286697 166.07125248 907.22865769 165.26638111 C907.22862686 152.66851719 907.23502582 140.07066431 907.24362527 127.47280367 C907.25208229 114.82238329 907.25310708 102.17197915 907.24651595 89.52155752 C907.24313497 82.66171164 907.24299016 75.80190247 907.2518692 68.94206047 C907.25966655 62.67212133 907.25837293 56.40225476 907.24958507 50.13231754 C907.24803501 47.85439927 907.24992199 45.57647576 907.25544515 43.29856367 C907.26241688 40.22132456 907.25728199 37.1443464 907.24888897 34.06711674 C907.25634124 32.71574379 907.25634124 32.71574379 907.26394406 31.33707038 C907.45945924 26.6874283 907.45945924 26.6874283 905 23 C902.31322673 22.69687801 902.31322673 22.69687801 899.10901725 22.75160301 C897.84311553 22.74710842 896.57721381 22.74261383 895.27295142 22.73798305 C893.85217304 22.74311536 892.43139531 22.74842923 891.01061821 22.75390434 C889.50750952 22.75242645 888.00440148 22.75007077 886.50129539 22.74691135 C882.33715074 22.7407385 878.17310282 22.74715215 874.00896533 22.75546761 C869.49151961 22.7623064 864.9740842 22.7576001 860.45663655 22.75431263 C852.5281554 22.75015455 844.59970418 22.75347071 836.6712265 22.76158905 C824.88175611 22.77362744 813.09230471 22.77426361 801.30282929 22.77250507 C781.47392306 22.7698732 761.64503013 22.77657549 741.81612778 22.78853989 C722.17411102 22.80036122 702.53209979 22.80806921 682.8900795 22.81024551 C681.67023181 22.81038299 680.45038412 22.81052047 679.19357136 22.81066212 C672.99894975 22.81133875 666.80432815 22.81194153 660.60970654 22.81251587 C616.69732011 22.81672021 572.78494093 22.83020471 528.87255859 22.84912109 C518.22440595 22.85370277 507.5762533 22.85825503 496.92810059 22.8626709 C495.93752555 22.86308175 495.93752555 22.86308175 494.9269389 22.86350089 C463.57352649 22.87645934 432.22011364 22.88390232 400.86669922 22.89013672 C398.89493999 22.8905313 398.89493999 22.8905313 396.88334725 22.89093385 C383.68291457 22.89357082 370.48248188 22.89612245 357.28204917 22.89861157 C330.38962162 22.90368442 303.4971942 22.90932693 276.60476685 22.91531372 C275.36821117 22.9155883 274.1316555 22.91586288 272.85762844 22.91614578 C190.23841595 22.93455688 107.61920747 22.96624841 25 23 Z " fill="#EF7573" transform="translate(17,11)"/>
<path d="M0 0 C1.73495476 -0.0146228 1.73495476 -0.0146228 3.50495911 -0.02954102 C28.81955468 -0.19899764 53.55885365 0.01622299 78.5546875 4.23828125 C79.68600098 4.4202002 80.81731445 4.60211914 81.98291016 4.78955078 C106.29640984 8.76541022 130.74007623 14.87136574 153.5546875 24.23828125 C154.39789551 24.57972168 155.24110352 24.92116211 156.10986328 25.27294922 C167.16361579 29.77498095 177.82081313 34.73984649 188.28125 40.48828125 C191.4325861 42.2911314 191.4325861 42.2911314 194.5546875 43.23828125 C194.5546875 43.89828125 194.5546875 44.55828125 194.5546875 45.23828125 C195.1940625 45.46515625 195.8334375 45.69203125 196.4921875 45.92578125 C200.68789011 47.72393951 204.59369306 49.97732146 208.5546875 52.23828125 C208.5546875 52.89828125 208.5546875 53.55828125 208.5546875 54.23828125 C209.0909375 54.31304687 209.6271875 54.3878125 210.1796875 54.46484375 C213.4589495 55.53276131 215.88209374 57.50440968 218.5546875 59.61328125 C219.4058313 60.277229 219.4058313 60.277229 220.27416992 60.95458984 C226.32563703 65.74173407 231.96598498 70.92496407 237.5546875 76.23828125 C238.23789062 76.85703125 238.92109375 77.47578125 239.625 78.11328125 C260.01367033 97.22232792 274.06531164 123.76330096 278.5546875 151.23828125 C278.68488281 152.00785156 278.81507813 152.77742187 278.94921875 153.5703125 C283.21093672 184.19785899 272.44926877 214.67753548 254.1484375 238.96875 C249.94197441 244.36545094 245.30988303 249.32669697 240.5546875 254.23828125 C240.08305176 254.73569824 239.61141602 255.23311523 239.12548828 255.74560547 C227.32844119 268.18184238 213.97008432 278.03696413 199.5546875 287.23828125 C198.56726563 287.8725 197.57984375 288.50671875 196.5625 289.16015625 C192.49515025 291.69470654 189.34057654 293.49101086 184.5546875 294.23828125 C184.5546875 294.89828125 184.5546875 295.55828125 184.5546875 296.23828125 C176.25651864 300.6702578 167.83233295 304.18318525 158.98388672 307.35498047 C156.3215859 308.32304121 153.67491333 309.32831086 151.02734375 310.3359375 C66.6375456 342.09413061 -41.56515032 345.97110911 -125.21484375 308.640625 C-126.72111328 307.91552734 -126.72111328 307.91552734 -128.2578125 307.17578125 C-131.41259225 305.66836431 -134.55778817 304.19022827 -137.7734375 302.81640625 C-142.0242088 300.98947901 -146.20225456 299.03179971 -150.3828125 297.05078125 C-151.16205078 296.68275391 -151.94128906 296.31472656 -152.74414062 295.93554688 C-154.64505605 295.03756842 -156.54525884 294.13808169 -158.4453125 293.23828125 C-158.4453125 292.57828125 -158.4453125 291.91828125 -158.4453125 291.23828125 C-159.42177734 291.15707031 -159.42177734 291.15707031 -160.41796875 291.07421875 C-164.81535202 289.85997356 -168.14223382 287.42264537 -171.8828125 284.86328125 C-172.67905029 284.32380859 -173.47528809 283.78433594 -174.2956543 283.22851562 C-208.15901754 260.04046831 -237.69623382 228.85029663 -245.90234375 187.421875 C-251.09200667 156.99327588 -244.24348451 126.40848998 -226.5859375 101.0390625 C-220.46426583 92.5527451 -213.70292056 84.76588961 -206.4453125 77.23828125 C-205.6821875 76.41199219 -204.9190625 75.58570313 -204.1328125 74.734375 C-193.51590817 63.56151791 -180.90737909 54.63375131 -167.4453125 47.23828125 C-164.75640287 45.60819801 -162.07899784 43.96109919 -159.40625 42.3046875 C-157.4453125 41.23828125 -157.4453125 41.23828125 -155.4453125 41.23828125 C-155.4453125 40.57828125 -155.4453125 39.91828125 -155.4453125 39.23828125 C-106.39301178 16.48215817 -54.62341473 0.38410181 0 0 Z M-18.0078125 4.73828125 C-19.60478436 4.88318055 -21.20178937 5.02771492 -22.79882812 5.171875 C-26.68138489 5.52313471 -30.56345872 5.87933945 -34.4453125 6.23828125 C-34.4687094 20.07964561 -34.48636455 33.9210051 -34.49712467 47.76238537 C-34.50229467 54.19275306 -34.50928227 60.62310701 -34.52075195 67.0534668 C-34.67738037 106.15875964 -34.67738037 106.15875964 -33.4453125 145.23828125 C-35.59186751 144.93077754 -37.73754535 144.61714465 -39.8828125 144.30078125 C-41.07777344 144.12675781 -42.27273438 143.95273437 -43.50390625 143.7734375 C-46.4453125 143.23828125 -46.4453125 143.23828125 -47.4453125 142.23828125 C-50.13393914 141.83834439 -52.80883467 141.48693582 -55.5078125 141.17578125 C-56.26642578 141.08490234 -57.02503906 140.99402344 -57.80664062 140.90039062 C-59.6857426 140.67584385 -61.56547345 140.45657147 -63.4453125 140.23828125 C-62.86523438 139.655625 -62.28515625 139.07296875 -61.6875 138.47265625 C-49.42673219 125.60491974 -46.08015048 112.94868701 -46.12963867 95.61499023 C-46.13276252 93.33722368 -46.10942004 91.06080632 -46.08398438 88.78320312 C-45.98464775 65.69415287 -50.87673704 42.2889439 -67.4453125 25.23828125 C-74.97372455 18.59417844 -74.97372455 18.59417844 -84.20703125 16.41015625 C-90.79711978 17.23869991 -96.97959288 19.394412 -103.2578125 21.48828125 C-104.47146484 21.87113281 -105.68511719 22.25398438 -106.93554688 22.6484375 C-108.10021484 23.03386719 -109.26488281 23.41929687 -110.46484375 23.81640625 C-112.04422729 24.33315918 -112.04422729 24.33315918 -113.65551758 24.86035156 C-118.66191426 27.33310057 -120.85239354 31.60696835 -123.0703125 36.55078125 C-123.47507812 37.43378906 -123.87984375 38.31679687 -124.296875 39.2265625 C-133.12576081 62.37986508 -128.42979939 92.3072707 -118.625 114.40625 C-113.61395567 125.22231579 -107.75852954 134.7925206 -97.4453125 141.23828125 C-98.22777344 141.29886719 -99.01023437 141.35945312 -99.81640625 141.421875 C-100.82832031 141.50566406 -101.84023438 141.58945312 -102.8828125 141.67578125 C-103.89214844 141.75699219 -104.90148437 141.83820313 -105.94140625 141.921875 C-108.38172029 141.97039593 -108.38172029 141.97039593 -109.4453125 143.23828125 C-112.25853698 143.61376898 -115.0609107 143.94485848 -117.8828125 144.23828125 C-123.32899839 144.60715312 -123.32899839 144.60715312 -128.4453125 146.23828125 C-128.42301575 145.35845078 -128.42301575 145.35845078 -128.40026855 144.46084595 C-128.30578591 137.73603544 -128.89200421 131.24115133 -129.7265625 124.57421875 C-130.00464919 122.26408671 -130.28195892 119.95386104 -130.55859375 117.64355469 C-130.77733154 115.83244202 -130.77733154 115.83244202 -131.00048828 113.98474121 C-131.76015647 107.58655886 -132.45796548 101.18161589 -133.1640625 94.77734375 C-133.53315105 91.47386853 -133.90313284 88.17049586 -134.27401733 84.86722183 C-134.65116794 81.50437071 -135.02520928 78.14122513 -135.39306641 74.77734375 C-135.82852568 70.79713454 -136.277279 66.81851623 -136.7265625 62.83984375 C-136.85478394 61.64904205 -136.98300537 60.45824036 -137.1151123 59.23135376 C-137.979692 51.68700676 -139.46253214 44.57081436 -141.4453125 37.23828125 C-147.7153125 40.20828125 -153.9853125 43.17828125 -160.4453125 46.23828125 C-160.4453125 46.89828125 -160.4453125 47.55828125 -160.4453125 48.23828125 C-162.0953125 48.56828125 -163.7453125 48.89828125 -165.4453125 49.23828125 C-165.4453125 49.89828125 -165.4453125 50.55828125 -165.4453125 51.23828125 C-166.3115625 51.48578125 -167.1778125 51.73328125 -168.0703125 51.98828125 C-171.65591314 53.31628149 -174.40859237 54.92458973 -177.4453125 57.23828125 C-177.4453125 57.89828125 -177.4453125 58.55828125 -177.4453125 59.23828125 C-179.4253125 59.73328125 -179.4253125 59.73328125 -181.4453125 60.23828125 C-181.4453125 60.89828125 -181.4453125 61.55828125 -181.4453125 62.23828125 C-182.1053125 62.23828125 -182.7653125 62.23828125 -183.4453125 62.23828125 C-183.4453125 65.20828125 -183.4453125 68.17828125 -183.4453125 71.23828125 C-184.4353125 70.74328125 -184.4353125 70.74328125 -185.4453125 70.23828125 C-190.67206058 69.51244801 -190.67206058 69.51244801 -195.3984375 71.44921875 C-197.52229297 73.28816678 -199.48055804 75.23018662 -201.4453125 77.23828125 C-202.2290625 77.975625 -203.0128125 78.71296875 -203.8203125 79.47265625 C-219.37112507 94.26864665 -219.37112507 94.26864665 -227.4453125 113.23828125 C-227.5071875 113.88667969 -227.5690625 114.53507812 -227.6328125 115.203125 C-228.42744412 130.12730006 -222.38943719 145.23769086 -213.0703125 156.67578125 C-209.38822299 160.62626908 -205.05840056 163.47670472 -200.4453125 166.23828125 C-204.75747072 169.41566099 -209.03396822 171.3792252 -214.03125 173.2890625 C-216.94580032 174.43507501 -219.67596152 175.78072811 -222.4453125 177.23828125 C-222.4453125 177.89828125 -222.4453125 178.55828125 -222.4453125 179.23828125 C-223.13109375 179.32207031 -223.816875 179.40585937 -224.5234375 179.4921875 C-228.17130691 180.42366218 -231.05185303 182.18021428 -234.1953125 184.17578125 C-234.78441406 184.53607422 -235.37351563 184.89636719 -235.98046875 185.26757812 C-239.26158407 187.21598596 -239.26158407 187.21598596 -241.4453125 190.23828125 C-240.83952997 192.25755636 -240.17611516 194.26081522 -239.4453125 196.23828125 C-233.8188408 193.2146065 -228.24341874 190.13658539 -222.7578125 186.86328125 C-217.9210773 184.0270805 -213.00813968 181.39568477 -208.0078125 178.86328125 C-207.33339111 178.5173291 -206.65896973 178.17137695 -205.96411133 177.81494141 C-202.48262404 176.07615683 -199.31409486 174.76008234 -195.4453125 174.23828125 C-196.11626953 174.93050781 -196.11626953 174.93050781 -196.80078125 175.63671875 C-209.01338299 188.81278801 -212.40836732 206.19340298 -211.7734375 223.76171875 C-210.84622041 239.07423865 -207.90147018 251.11457737 -196.21582031 261.69970703 C-181.08567476 274.84782855 -164.53717055 285.69428417 -146.4453125 294.23828125 C-145.7853125 294.56828125 -145.1253125 294.89828125 -144.4453125 295.23828125 C-134.62517105 296.11507959 -127.01775644 292.34678603 -119.546875 286.15625 C-110.90801469 278.27208566 -105.14160953 269.45458623 -104.1328125 257.55078125 C-104.49811506 246.46277402 -108.42125843 237.8054763 -115.7578125 229.67578125 C-119.66659248 227.58503847 -123.0932014 227.54575042 -127.4453125 228.23828125 C-130.47280033 229.66255385 -133.0021685 231.56009569 -135.6328125 233.61328125 C-141.85931631 238.31748547 -147.22904595 242.15119976 -155.4453125 241.23828125 C-158.77890527 239.09525732 -159.40601977 235.92499042 -160.4453125 232.23828125 C-161.30698839 223.56710073 -161.2116529 215.93808791 -157.125 208.05859375 C-154.69864901 205.4291064 -152.98134242 204.78326077 -149.4453125 204.23828125 C-146.75857914 205.39058475 -144.66691721 206.47984957 -142.2578125 208.05078125 C-135.89042542 212.00456192 -131.05435925 214.34576237 -123.4453125 213.23828125 C-118.79523818 210.51842646 -116.14943339 207.2261018 -114.1328125 202.2265625 C-111.23950662 189.65054547 -112.99493025 175.89864589 -118.9453125 164.546875 C-121.18951484 161.09290733 -123.94008546 158.41028591 -127.4453125 156.23828125 C-128.1053125 156.23828125 -128.7653125 156.23828125 -129.4453125 156.23828125 C-129.4453125 155.57828125 -129.4453125 154.91828125 -129.4453125 154.23828125 C-123.16895485 153.01171655 -116.88468161 151.9921095 -110.54296875 151.16796875 C-109.85658325 151.07765381 -109.17019775 150.98733887 -108.4630127 150.89428711 C-106.79060494 150.6744059 -105.11798093 150.45617061 -103.4453125 150.23828125 C-102.89046597 157.97118859 -102.33959408 165.70437232 -101.79125977 173.43774414 C-101.60496271 176.0589004 -101.4178137 178.67999627 -101.22973633 181.30102539 C-100.95680565 185.1067708 -100.68712223 188.91273579 -100.41796875 192.71875 C-100.294468 194.42637764 -100.294468 194.42637764 -100.16847229 196.16850281 C-98.93451366 213.74455004 -98.29462801 231.26401947 -98.34765625 248.8828125 C-98.34952902 250.7585191 -98.35094884 252.6342262 -98.35194397 254.50993347 C-98.35570166 259.36763947 -98.36547135 264.22531398 -98.37664795 269.08300781 C-98.38701009 274.07161025 -98.39147278 279.06021795 -98.39648438 284.04882812 C-98.40710212 293.77865942 -98.42409368 303.50846768 -98.4453125 313.23828125 C-95.93369817 314.03709361 -93.42105113 314.83237085 -90.90771484 315.62573242 C-90.20658066 315.84912041 -89.50544647 316.07250839 -88.7830658 316.30266571 C-81.95708165 318.45189668 -75.06982322 320.05707936 -68.0703125 321.55078125 C-66.27207031 321.94620117 -66.27207031 321.94620117 -64.4375 322.34960938 C-58.99066356 323.68903219 -58.99066356 323.68903219 -53.4453125 324.23828125 C-53.50589844 323.4277832 -53.56648437 322.61728516 -53.62890625 321.78222656 C-54.33171439 312.18889539 -54.91335046 302.59237681 -55.4453125 292.98828125 C-55.48888885 292.20913361 -55.53246521 291.42998596 -55.57736206 290.62722778 C-56.20883159 279.29560893 -56.74798933 267.9662615 -57.10351562 256.62207031 C-57.25796823 251.9616994 -57.50222974 247.34455875 -57.95703125 242.703125 C-58.48219031 237.25052359 -58.66347533 231.83927389 -58.6953125 226.36328125 C-58.7159375 225.45320312 -58.7365625 224.543125 -58.7578125 223.60546875 C-58.80786133 215.04711803 -58.80786133 215.04711803 -55.4453125 211.23828125 C-49.64500274 209.5083643 -45.52362836 210.30726946 -40.03515625 212.734375 C-34.06932327 216.19869732 -29.34916214 221.26540364 -24.5703125 226.17578125 C-22.48209261 228.20258291 -21.22719505 229.4200805 -18.4453125 230.23828125 C-14.69554878 230.10192621 -12.1175724 229.60642358 -8.8203125 227.80078125 C-0.31135118 218.62005982 0.93835412 206.48782279 0.8671875 194.48828125 C0.86372314 193.53107178 0.86025879 192.5738623 0.85668945 191.58764648 C0.6967263 181.0892912 -1.15410261 171.84241767 -5.4453125 162.23828125 C10.21471802 168.00270966 10.21471802 168.00270966 15.1796875 170.30078125 C18.89697199 172.0169988 22.69133013 173.38322307 26.5546875 174.73828125 C30.41804487 176.09333943 34.21240301 177.4595637 37.9296875 179.17578125 C47.46372796 183.5678673 57.54283854 187.10432013 67.5546875 190.23828125 C68.6478125 190.58890625 69.7409375 190.93953125 70.8671875 191.30078125 C75.23875615 192.41219701 79.61981023 193.10413714 84.078125 193.7734375 C86.5546875 194.23828125 86.5546875 194.23828125 87.5546875 195.23828125 C89.22085865 195.27891957 90.88856845 195.28100225 92.5546875 195.23828125 C92.45857178 196.13546875 92.36245605 197.03265625 92.26342773 197.95703125 C91.90770496 201.31849208 91.56018846 204.68060009 91.21801758 208.04345703 C91.06890334 209.49268619 90.91662174 210.94159337 90.76098633 212.39013672 C89.4335482 223.34352915 89.4335482 223.34352915 90.5546875 234.23828125 C91.2146875 234.89828125 91.8746875 235.55828125 92.5546875 236.23828125 C98.85641674 235.90068861 104.57753437 234.18575532 110.5546875 232.23828125 C109.73226563 233.23085938 108.90984375 234.2234375 108.0625 235.24609375 C101.99780236 242.61310541 96.09219185 250.00593168 90.71533203 257.89501953 C88.8006185 260.66966882 87.40534765 262.33784115 84.5546875 264.23828125 C84.15146306 266.14400267 84.15146306 266.14400267 84.30541992 268.31347656 C84.33292328 269.1206311 84.36042664 269.92778564 84.38876343 270.75939941 C84.64180998 274.53987862 85.04062387 278.28008334 85.54296875 282.03515625 C85.64683395 282.83181702 85.75069916 283.62847778 85.85771179 284.44927979 C86.077419 286.1168253 86.30025578 287.78396128 86.52612305 289.45068359 C86.86799358 291.9942787 87.19118343 294.53982146 87.51367188 297.0859375 C87.7306374 298.71499511 87.94869817 300.3439073 88.16796875 301.97265625 C88.26185379 302.72794617 88.35573883 303.48323608 88.45246887 304.26141357 C89.0564518 308.56307529 89.95243483 311.73551705 92.5546875 315.23828125 C94.68680069 316.92628499 94.68680069 316.92628499 97.1796875 318.11328125 C97.97632813 318.54382813 98.77296875 318.974375 99.59375 319.41796875 C108.29507015 321.82862473 117.88080662 317.59887177 126.1796875 315.05078125 C127.18014099 314.74790192 127.18014099 314.74790192 128.20080566 314.43890381 C136.83656084 311.8227398 145.29882387 308.99595688 153.60546875 305.45703125 C157.82705633 303.71248115 162.14670468 302.42065782 166.5546875 301.23828125 C166.5546875 300.57828125 166.5546875 299.91828125 166.5546875 299.23828125 C167.35003906 299.16738281 168.14539063 299.09648437 168.96484375 299.0234375 C173.7492409 297.97701331 177.67499754 295.94070265 181.9921875 293.67578125 C182.81267578 293.27037109 183.63316406 292.86496094 184.47851562 292.44726562 C191.6025643 288.73457306 197.30871716 283.73739525 200.5546875 276.23828125 C201.30409848 270.58511585 199.1894395 266.57402776 196.8046875 261.61328125 C193.90389343 255.37686008 191.37396638 249.23893381 189.44140625 242.62109375 C188.4128455 239.85711994 187.78106741 238.21218509 185.5546875 236.23828125 C178.76142237 235.67786228 172.98950098 237.20970369 166.4921875 239.08203125 C165.46029297 239.37057983 164.42839844 239.65912842 163.36523438 239.9564209 C160.09223892 240.87403564 156.8235075 241.80591424 153.5546875 242.73828125 C151.32708978 243.36553184 149.09922759 243.99184402 146.87109375 244.6171875 C141.42918359 246.14670378 135.99069627 247.68792971 130.5546875 249.23828125 C131.49938877 247.8118252 132.44535608 246.38620756 133.3918457 244.9609375 C133.91849319 244.16695557 134.44514069 243.37297363 134.98774719 242.55493164 C137.14034742 239.37240954 139.43421322 236.30868438 141.7421875 233.23828125 C156.50581535 215.44307145 156.50581535 215.44307145 164.5546875 195.23828125 C165.20953125 195.20089844 165.864375 195.16351563 166.5390625 195.125 C173.79818994 194.60209675 180.54890321 193.18229469 187.5546875 191.23828125 C187.31492187 192.95144531 187.31492187 192.95144531 187.0703125 194.69921875 C184.74765568 213.43696436 186.83183821 230.3866943 198.47265625 245.7734375 C205.3674809 254.0169504 213.97263025 259.82190597 224.5546875 262.23828125 C227.99102206 261.76150664 229.6610977 260.51625471 232.09375 258.09765625 C232.75181641 257.44579346 233.40988281 256.79393066 234.08789062 256.12231445 C234.77818359 255.4180835 235.46847656 254.71385254 236.1796875 253.98828125 C236.89318359 253.26535889 237.60667969 252.54243652 238.34179688 251.79760742 C255.44348403 234.32014199 255.44348403 234.32014199 263.5546875 212.23828125 C262.8462154 207.99467795 261.1280228 204.89124645 258.3046875 201.67578125 C254.46689006 199.66965986 252.71128965 200.06057731 248.5546875 201.23828125 C241.95033994 204.00546598 237.04863204 208.29084876 231.86328125 213.14453125 C229.23347157 215.52960399 226.58419569 217.40463156 223.5546875 219.23828125 C223.5546875 216.26828125 223.5546875 213.29828125 223.5546875 210.23828125 C224.80765625 209.57441406 226.060625 208.91054688 227.3515625 208.2265625 C229.0029135 207.33520827 230.65393817 206.44324926 232.3046875 205.55078125 C233.1296875 205.11572266 233.9546875 204.68066406 234.8046875 204.23242188 C239.27143406 201.80092677 242.90967296 199.75504105 245.5546875 195.23828125 C246.2364784 191.30059095 245.39786494 187.67449348 243.3828125 184.2421875 C240.02080998 180.03968435 236.33424591 177.62806046 231.5546875 175.23828125 C230.22135417 174.57161458 228.88802083 173.90494792 227.5546875 173.23828125 C228.59367187 172.62082031 229.63265625 172.00335938 230.703125 171.3671875 C239.09221294 166.30331321 246.47327239 161.06358731 253.5546875 154.23828125 C254.90222413 153.06396294 256.25613488 151.89690726 257.6171875 150.73828125 C258.93072652 149.57278453 260.24316203 148.40604335 261.5546875 147.23828125 C262.39 146.52800781 263.2253125 145.81773437 264.0859375 145.0859375 C268.71390235 141.22335236 268.71390235 141.22335236 270.8984375 135.88671875 C270.65120967 133.43580805 270.65120967 133.43580805 269.5546875 130.23828125 C266.18876884 131.68081782 264.04421671 133.57092852 261.5546875 136.23828125 C261.51730469 135.62339844 261.47992187 135.00851562 261.44140625 134.375 C261.34279297 133.16263672 261.34279297 133.16263672 261.2421875 131.92578125 C261.18417969 131.12527344 261.12617187 130.32476562 261.06640625 129.5 C260.46018064 126.82057536 259.72070444 125.88980486 257.5546875 124.23828125 C250.65374985 122.51304684 242.96638028 122.73713643 236.4296875 125.61328125 C233.46791999 129.75975577 233.64921941 134.25387124 233.5546875 139.23828125 C232.2346875 139.56828125 230.9146875 139.89828125 229.5546875 140.23828125 C228.63376469 135.58290769 228.43262753 131.09142692 228.4921875 126.36328125 C228.49669922 125.67492187 228.50121094 124.9865625 228.50585938 124.27734375 C228.51752414 122.5976179 228.53545479 120.9179375 228.5546875 119.23828125 C229.51890625 119.29628906 230.483125 119.35429687 231.4765625 119.4140625 C233.37148438 119.48173828 233.37148438 119.48173828 235.3046875 119.55078125 C236.55765625 119.60878906 237.810625 119.66679687 239.1015625 119.7265625 C242.69106451 119.56488958 242.69106451 119.56488958 244.9609375 116.90234375 C246.92979788 113.61125851 247.39567301 110.9846627 247.5546875 107.23828125 C247.61785156 106.09746094 247.68101562 104.95664062 247.74609375 103.78125 C247.95246609 98.49539493 247.95246609 98.49539493 247.5546875 93.23828125 C245.22304361 90.8143965 242.91884151 89.81178731 239.6796875 89.05078125 C239.04289062 88.89222656 238.40609375 88.73367187 237.75 88.5703125 C235.00095087 88.15453105 232.33050131 88.18687729 229.5546875 88.23828125 C229.77769531 87.35527344 230.00070312 86.47226563 230.23046875 85.5625 C231.55871596 78.85093958 231.55871596 78.85093958 229.45507812 72.59228516 C226.40802861 69.38794867 222.85938214 66.85450263 219.21240234 64.37646484 C217.02879158 62.87720219 214.99230629 61.21093784 212.9296875 59.55078125 C210.37960173 57.57418639 209.91850395 57.23828125 206.5546875 57.23828125 C206.2246875 56.24828125 205.8946875 55.25828125 205.5546875 54.23828125 C204.8946875 54.56828125 204.2346875 54.89828125 203.5546875 55.23828125 C202.99065192 57.3636389 202.99065192 57.3636389 202.703125 59.9375 C202.57421875 60.89978516 202.4453125 61.86207031 202.3125 62.85351562 C202.18617188 63.86736328 202.05984375 64.88121094 201.9296875 65.92578125 C201.795625 66.92029297 201.6615625 67.91480469 201.5234375 68.93945312 C200.89832524 73.73304359 200.37308013 78.39266634 200.5546875 83.23828125 C199.3378125 82.88765625 198.1209375 82.53703125 196.8671875 82.17578125 C192.14261021 80.99056943 192.14261021 80.99056943 187.5546875 82.23828125 C184.16579001 88.36732004 183.72089727 94.52743821 183.1796875 101.42578125 C183.07269531 102.50537109 182.96570313 103.58496094 182.85546875 104.69726562 C182.76910156 105.73560547 182.68273437 106.77394531 182.59375 107.84375 C182.51334473 108.78371826 182.43293945 109.72368652 182.35009766 110.69213867 C182.59756179 113.77185638 183.45836175 115.01462641 185.5546875 117.23828125 C189.04500143 118.73413008 192.81632383 118.25566899 196.5546875 118.23828125 C196.4103125 118.98464844 196.2659375 119.73101562 196.1171875 120.5 C194.61165752 129.66909575 194.27333312 138.76406234 194.1796875 148.05078125 C194.15390625 149.28981201 194.128125 150.52884277 194.1015625 151.80541992 C194.08292304 160.48966084 194.99487915 168.0851715 200.8046875 174.86328125 C201.3821875 175.31703125 201.9596875 175.77078125 202.5546875 176.23828125 C197.57446846 179.44775574 192.9564795 181.12609695 187.203125 182.52734375 C184.58127707 183.15824557 184.58127707 183.15824557 182.33203125 184.22265625 C178.23490804 185.72090102 174.04685688 186.23411257 169.7421875 186.86328125 C168.85853516 186.99734375 167.97488281 187.13140625 167.06445312 187.26953125 C164.8952812 187.59783835 162.72543372 187.92058001 160.5546875 188.23828125 C161.00199219 187.41328125 161.44929688 186.58828125 161.91015625 185.73828125 C162.51472656 184.58328125 163.11929687 183.42828125 163.7421875 182.23828125 C164.33386719 181.12453125 164.92554688 180.01078125 165.53515625 178.86328125 C171.10505866 166.93222473 173.5097621 154.38659199 175.1171875 141.42578125 C175.32062449 139.84733684 175.52465902 138.26896934 175.72924805 136.69067383 C176.14648829 133.44975461 176.5534985 130.20773744 176.95507812 126.96484375 C177.41914487 123.2500405 177.92931769 119.54404842 178.46235657 115.83859253 C182.05891266 90.65211248 181.98363962 65.64049566 181.5546875 40.23828125 C177.44920429 38.43678217 173.34147104 36.6405409 169.23168945 34.84887695 C167.8375242 34.2402476 166.44395434 33.63025234 165.05102539 33.01879883 C157.64627778 29.76942447 150.29754571 26.61344373 142.5546875 24.23828125 C142.57789063 24.98464844 142.60109375 25.73101562 142.625 26.5 C142.75777849 34.81762384 142.32178728 43.00869264 141.6796875 51.30078125 C140.9005557 61.43228225 140.39854397 71.55186496 140.046875 81.70703125 C140.00539337 82.90017441 139.96391174 84.09331757 139.9211731 85.32261658 C139.71457708 91.36520902 139.52113645 97.40799977 139.34033203 103.45141602 C139.26609008 105.72542774 139.19171401 107.99943509 139.1171875 110.2734375 C139.09010712 111.30073975 139.06302673 112.32804199 139.03512573 113.38647461 C138.74924695 121.81280963 137.70332636 130.07292697 135.5546875 138.23828125 C128.47760954 132.14413079 128.10664594 123.79731323 127.36186409 114.9469223 C127.2128071 112.58788355 127.09041701 110.22944825 126.98266602 107.86816406 C126.92108606 106.56998434 126.92108606 106.56998434 126.85826206 105.24557877 C126.46205909 96.23671211 126.42738963 87.23849729 126.45703125 78.22265625 C126.45890437 76.50246218 126.46032403 74.78226756 126.46131897 73.06207275 C126.46507391 68.61041703 126.47484096 64.15879576 126.48602295 59.70715332 C126.49639129 55.1342007 126.50084906 50.56124232 126.50585938 45.98828125 C126.51647221 37.07159973 126.5334601 28.15494339 126.5546875 19.23828125 C121.80337214 17.39330083 117.20209701 15.78019806 112.2265625 14.6328125 C111.09734375 14.37177734 109.968125 14.11074219 108.8046875 13.84179688 C107.6496875 13.58076172 106.4946875 13.31972656 105.3046875 13.05078125 C103.54898438 12.64182617 103.54898438 12.64182617 101.7578125 12.22460938 C95.22290259 10.71382183 95.22290259 10.71382183 88.5546875 10.23828125 C86.8447504 31.09858937 86.26265825 51.78831721 86.35906982 72.71020508 C86.36991308 75.6696801 86.36949197 78.62910967 86.36906338 81.58860111 C82.82281381 136.52090599 82.82281381 136.52090599 101.1796875 185.11328125 C103.56058006 187.34434727 103.56058006 187.34434727 106.5546875 189.23828125 C99.8046875 189.36328125 99.8046875 189.36328125 97.5546875 188.23828125 C95.20415057 187.91867796 92.84905723 187.63223335 90.4921875 187.36328125 C84.51006992 186.63873906 79.20735124 185.31092462 73.5546875 183.23828125 C72.5646875 183.23828125 71.5746875 183.23828125 70.5546875 183.23828125 C70.66077835 181.84935669 70.66077835 181.84935669 70.76901245 180.43237305 C71.45076499 171.49782285 72.12682751 162.56285591 72.79797173 153.62750244 C73.14278091 149.03906037 73.48927458 144.45076156 73.84033203 139.86279297 C77.60872375 91.81080898 77.60872375 91.81080898 78.92529297 43.64453125 C78.92991173 41.37826053 78.96740435 39.11361836 79.00390625 36.84765625 C79.08318237 26.39377833 78.06010852 15.88030042 71.5546875 7.23828125 C69.12460926 6.23785547 69.12460926 6.23785547 66.28515625 5.99609375 C65.21442871 5.85848633 64.14370117 5.72087891 63.04052734 5.57910156 C56.98688564 4.98722008 50.93761883 4.49760539 44.8671875 4.11328125 C43.61357422 4.02691406 42.35996094 3.94054687 41.06835938 3.8515625 C37.56476621 3.61934118 34.06099464 3.42415587 30.5546875 3.23828125 C29.66177002 3.1705249 28.76885254 3.10276855 27.84887695 3.03295898 C23.99776368 2.83802164 21.86877342 3.04295011 18.55859375 5.1015625 C17.75292969 5.90980469 16.94726562 6.71804687 16.1171875 7.55078125 C15.29347656 8.35128906 14.46976563 9.15179688 13.62109375 9.9765625 C11.43258304 12.25708359 11.43258304 12.25708359 9.5546875 15.23828125 C9.2246875 11.27828125 8.8946875 7.31828125 8.5546875 3.23828125 C-0.35091255 2.99289158 -9.15220859 3.91830094 -18.0078125 4.73828125 Z " fill="#FDE5DE" transform="translate(465.4453125,154.76171875)"/>
<path d="M0 0 C307.56 0 615.12 0 932 0 C933.15276303 2.30552605 933.12551834 3.59925105 933.12649983 6.16384554 C933.12925958 7.04364559 933.13201932 7.92344563 933.13486269 8.82990628 C933.13280737 9.80433563 933.13075205 10.77876497 933.12863445 11.78272247 C933.13038749 12.81602729 933.13214053 13.84933211 933.13394669 14.91394919 C933.13864188 18.41697036 933.13613221 21.91995065 933.13371277 25.42297363 C933.13557897 27.94352773 933.1378789 30.46408153 933.14057809 32.98463488 C933.14543875 38.48571724 933.14714719 43.986787 933.14612198 49.48787117 C933.1446012 57.66795899 933.14874955 65.84803702 933.1539966 74.02812295 C933.16368384 89.48496489 933.16648135 104.94180352 933.16705366 120.39864814 C933.16751259 132.33079388 933.16956771 144.26293831 933.17275429 156.19508362 C933.17365178 159.62537972 933.17454159 163.05567582 933.17542917 166.48597193 C933.17565021 167.33866444 933.17587126 168.19135695 933.17609901 169.06988862 C933.18225589 193.06464598 933.18619929 217.05940289 933.18575573 241.05416107 C933.18574015 241.95940622 933.18572457 242.86465137 933.18570852 243.79732819 C933.18562541 248.38586222 933.18552637 252.97439625 933.18542381 257.56293029 C933.1853939 258.92996888 933.1853939 258.92996888 933.18536337 260.32462441 C933.18532294 262.16761489 933.18528114 264.01060538 933.18523798 265.85359586 C933.18462497 294.53960934 933.19213547 323.225611 933.20581055 351.91162109 C933.22115472 384.11242471 933.22977779 416.31322057 933.22884732 448.51402807 C933.22877269 451.94432418 933.22872399 455.37462028 933.22869301 458.80491638 C933.22867553 460.07193203 933.22867553 460.07193203 933.22865769 461.36454395 C933.22862686 474.98609883 933.23502579 488.6076435 933.24362527 502.22919534 C933.25208182 515.90672354 933.25310744 529.58423672 933.24651595 543.26176608 C933.24280702 551.39754909 933.24469246 559.53328661 933.25445829 567.66906484 C933.26112045 573.72884481 933.25744163 579.78857041 933.24958507 585.84835094 C933.24803484 588.31129864 933.24992263 590.77425118 933.25544515 593.23719317 C933.26241528 596.56397136 933.25728324 599.89050808 933.24888897 603.21727753 C933.25385715 604.19170687 933.25882533 605.16613621 933.26394406 606.17009372 C933.25681784 607.48979378 933.25681784 607.48979378 933.24954766 608.83615446 C933.24963588 609.59782831 933.2497241 610.35950216 933.249815 611.14425704 C933 613 933 613 931 615 C928.30506986 615.25028767 928.30506986 615.25028767 924.79071712 615.25069833 C924.142592 615.25350296 923.49446688 615.2563076 922.82670161 615.25919722 C920.62948677 615.26622132 918.43254752 615.25885112 916.2353363 615.25168228 C914.6475612 615.25376636 913.05978704 615.25672721 911.47201502 615.26049101 C907.0727832 615.26833609 902.67363823 615.26358959 898.2744077 615.25693511 C893.50208567 615.2518909 888.72977763 615.25836987 883.95745754 615.26342177 C875.58142099 615.27066925 867.20541017 615.2704113 858.82937241 615.26532745 C846.37428079 615.25778822 833.91921104 615.26161652 821.46411958 615.26774407 C799.22430817 615.2782974 776.98450821 615.27735409 754.74469569 615.27158624 C735.28274796 615.26656335 715.82080445 615.26523788 696.3588562 615.26763153 C695.06998142 615.2677843 693.78110665 615.26793707 692.45317506 615.26809447 C687.22175917 615.26871711 681.99034329 615.2693539 676.7589274 615.270014 C662.13381521 615.27183743 647.50870299 615.27298928 632.8835907 615.27358627 C632.21752821 615.27361356 631.55146572 615.27364086 630.86521952 615.27366897 C609.63299015 615.27448786 588.40076224 615.27223206 567.16853333 615.26788712 C566.47961151 615.26774662 565.79068969 615.26760612 565.08089145 615.26746136 C553.89236223 615.26517131 542.70383304 615.26273246 531.51530385 615.26028102 C487.13682613 615.25056791 442.75836048 615.25101873 398.37988281 615.26074219 C387.19707745 615.26318445 376.01427208 615.26560651 364.83146667 615.26788712 C363.79869914 615.26809846 363.79869914 615.26809846 362.74506762 615.26831407 C341.53551465 615.27262469 320.32596269 615.27445532 299.1164093 615.27358627 C298.45083231 615.2735591 297.78525533 615.27353194 297.09950934 615.27350394 C281.83550103 615.27285103 266.57149283 615.27144366 251.30748463 615.26951766 C246.08537102 615.26887619 240.86325741 615.26825051 235.6411438 615.26763153 C234.3552417 615.26747338 233.0693396 615.26731522 231.74447077 615.26715227 C212.29049136 615.26487334 192.83651661 615.26754529 173.38253784 615.27259064 C151.27171041 615.2782963 129.16089628 615.27690704 107.05007052 615.26602915 C94.66179801 615.26013622 82.27355426 615.25980242 69.88528247 615.2673215 C61.62512389 615.27178386 53.36498853 615.26905603 45.10483341 615.26031196 C40.3886679 615.25552404 35.67255982 615.25399003 30.95639598 615.26112393 C26.67470462 615.26753503 22.39312217 615.26491231 18.11143892 615.2547626 C16.56374174 615.25273113 15.01603575 615.25412483 13.46834548 615.25917448 C11.38185592 615.26550446 9.29575384 615.25972712 7.20928288 615.25069833 C5.46967827 615.25049505 5.46967827 615.25049505 3.69493014 615.25028767 C1 615 1 615 -1 613 C-1.249815 611.14425704 -1.249815 611.14425704 -1.24954766 608.83615446 C-1.25429847 607.95635441 -1.25904928 607.07655437 -1.26394406 606.17009372 C-1.25649179 604.7084497 -1.25649179 604.7084497 -1.24888897 603.21727753 C-1.25149625 602.18397271 -1.25410354 601.15066789 -1.25678983 600.08605081 C-1.26314473 596.58298247 -1.25509288 593.08008968 -1.24723816 589.57702637 C-1.24882465 587.05647194 -1.25128665 584.53591793 -1.25455457 582.01536512 C-1.25965004 576.51426711 -1.25847247 571.01322429 -1.2518692 565.51212883 C-1.24207712 557.33203596 -1.24367734 549.15197341 -1.2476195 540.97187705 C-1.25390467 527.21289887 -1.25071161 513.4539378 -1.24202538 499.69496155 C-1.23342225 486.06494488 -1.22850495 472.43493589 -1.22869301 458.80491638 C-1.22870065 457.95828623 -1.2287083 457.11165607 -1.22871618 456.23937046 C-1.22875708 452.80295077 -1.22882269 449.36653107 -1.22892199 445.93011138 C-1.22982882 413.66887037 -1.21987177 381.40764108 -1.20449232 349.14640414 C-1.19086766 320.46039402 -1.184631 291.77439223 -1.18530273 263.08837891 C-1.18534315 261.2465627 -1.18538351 259.40474649 -1.18542381 257.56293029 C-1.18544416 256.65238798 -1.18546452 255.74184566 -1.18548548 254.80371116 C-1.18558627 250.2205278 -1.18567686 245.63734444 -1.18575573 241.05416107 C-1.18577244 240.15004451 -1.18578916 239.24592795 -1.18580638 238.31441392 C-1.18617126 214.37159928 -1.18163599 190.42878569 -1.17542917 166.48597193 C-1.17509876 165.20900878 -1.17509876 165.20900878 -1.17476168 163.9062484 C-1.1738734 160.48265095 -1.17298502 157.0590535 -1.17207072 153.63545605 C-1.16890662 141.70638238 -1.16740092 129.77730953 -1.16695923 117.84823547 C-1.16636304 102.47823168 -1.16238675 87.10823477 -1.15252777 71.73823392 C-1.14739971 63.60246481 -1.14500774 55.46670581 -1.14652396 47.33093516 C-1.14734096 41.27116685 -1.14296269 35.21141445 -1.13647345 29.15164906 C-1.13464991 26.68870232 -1.13453965 24.22575365 -1.13624074 21.76280683 C-1.13828536 18.43608918 -1.13427833 15.1094346 -1.12863445 11.78272247 C-1.13171743 10.32107846 -1.13171743 10.32107846 -1.13486269 8.82990628 C-1.13210295 7.95010624 -1.1293432 7.07030619 -1.12649983 6.16384554 C-1.12620833 5.40217169 -1.12591683 4.64049784 -1.1256165 3.85574296 C-1 2 -1 2 0 0 Z M4 6 C4 205.32 4 404.64 4 610 C308.59 610 613.18 610 927 610 C927 410.68 927 211.36 927 6 C622.41 6 317.82 6 4 6 Z " fill="#371C17" transform="translate(17,11)"/>
<path d="M0 0 C5.62146591 2.24858637 5.62146591 2.24858637 8.3828125 4.13671875 C9.29933594 4.75643555 9.29933594 4.75643555 10.234375 5.38867188 C10.85828125 5.81728516 11.4821875 6.24589844 12.125 6.6875 C13.35583936 7.52610836 14.58763747 8.36331099 15.8203125 9.19921875 C16.43160802 9.6380907 17.04290354 10.07696264 17.67272317 10.52913374 C19.99157512 12.09670197 19.99157512 12.09670197 22.76531565 13.08703953 C26.28708723 14.67568583 28.42746905 16.09163205 31 19 C33.18979463 25.42718313 32.48269681 32.72632311 32.39682007 39.41526794 C32.40949372 41.54816236 32.42696356 43.68103277 32.44881976 45.81385285 C32.49481215 51.67785845 32.47201477 57.53989928 32.43797135 63.40391266 C32.41312177 69.72656499 32.45147935 76.04887521 32.48175049 82.37145996 C32.52788568 94.04262308 32.52381995 105.71298865 32.49372434 117.3841718 C32.46605737 128.16642515 32.45882737 138.9484485 32.47197342 149.73073006 C32.47323377 150.80337872 32.47323377 150.80337872 32.47451959 151.89769706 C32.4779443 154.80049981 32.4814467 157.70330245 32.48507699 160.60610496 C32.51873045 187.84009147 32.48821196 215.07367836 32.42901112 242.3076032 C32.37681417 266.5035414 32.38147476 290.69884277 32.43408203 314.89477539 C32.49298514 342.07726519 32.51633822 369.2594018 32.48234713 396.44194657 C32.47881923 399.33978236 32.47537799 402.23761824 32.47197342 405.13545418 C32.47110357 405.84897809 32.47023372 406.562502 32.46933751 407.29764785 C32.45682546 418.0724702 32.47145785 428.84703727 32.4992485 439.62182426 C32.53069293 451.87433499 32.52179686 464.12590289 32.46316032 476.37836342 C32.43422096 482.63183504 32.42297747 488.8840135 32.45930099 495.13747597 C32.49204182 500.86064646 32.47413953 506.58132353 32.41554792 512.30426718 C32.40324335 514.37616684 32.40955193 516.44827646 32.43618159 518.52004152 C32.62000169 534.00709695 32.62000169 534.00709695 28.61399579 538.93522847 C25.81819256 541.00756844 23.14270173 542.52348239 20 544 C18.50901186 544.94576734 17.02807015 545.9079527 15.56640625 546.8984375 C14.23440807 547.72820686 12.89983182 548.5538545 11.5625 549.375 C10.88251953 549.79910156 10.20253906 550.22320313 9.50195312 550.66015625 C6.37118652 552.60043584 3.30521587 554.34739207 0 556 C0 372.52 0 189.04 0 0 Z " fill="#FCD7D2" transform="translate(45,40)"/>
<path d="M0 0 C0 182.49 0 364.98 0 553 C-3.72313669 551.51074532 -6.5998651 550.14466995 -9.94140625 548.06640625 C-11.31135742 547.2165918 -11.31135742 547.2165918 -12.70898438 546.34960938 C-13.65064453 545.75986328 -14.59230469 545.17011719 -15.5625 544.5625 C-16.50802734 543.97662109 -17.45355469 543.39074219 -18.42773438 542.78710938 C-23.56762048 539.58694001 -23.56762048 539.58694001 -26 538 C-26.69606995 537.64735417 -27.3921399 537.29470834 -28.10930288 536.93137628 C-31.048395 533.92904833 -30.57417154 530.57321706 -30.55364418 526.59578228 C-30.56485068 525.7236259 -30.57605718 524.85146953 -30.58760327 523.95288417 C-30.62048253 521.00380644 -30.62465814 518.05537306 -30.62905884 515.10612488 C-30.64654287 512.98097743 -30.66572007 510.85584334 -30.68645322 508.73072511 C-30.73829938 502.86993881 -30.76468685 497.00926824 -30.78676152 491.1483041 C-30.81465518 484.8350499 -30.86516911 478.52196786 -30.91207886 472.20883179 C-31.01978179 456.9500625 -31.08741727 441.69123298 -31.14698368 426.43221113 C-31.16385889 422.12316494 -31.18188238 417.81412402 -31.20009947 413.50508332 C-31.31272782 386.7546852 -31.41005535 360.00426327 -31.46839333 333.25368786 C-31.48211039 327.05462275 -31.49606911 320.8555582 -31.51025391 314.65649414 C-31.51199906 313.88633975 -31.51374421 313.11618537 -31.51554225 312.32269297 C-31.57266215 287.36450115 -31.71141426 262.40765059 -31.89667116 237.45010473 C-32.08679739 211.78972962 -32.20551916 186.13006584 -32.23049782 160.46896993 C-32.23403578 156.84250021 -32.23832977 153.21603173 -32.24305344 149.58956337 C-32.24395074 148.87585799 -32.24484805 148.16215262 -32.24577254 147.42681981 C-32.26217439 135.95202914 -32.35256764 124.47896765 -32.47014957 113.00481817 C-32.58667281 101.46276036 -32.62003359 89.92340609 -32.57508309 78.38069763 C-32.55305257 72.12891195 -32.56652176 65.88256778 -32.67635345 59.63158989 C-33.28610592 23.02798449 -33.28610592 23.02798449 -27.81500578 14.65679765 C-22.76057569 9.68103722 -17.22370333 6.95742931 -10.50853801 4.85301554 C-6.9203233 3.63286145 -3.64551575 0 0 0 Z " fill="#FDD8D3" transform="translate(919,42)"/>
<path d="M0 0 C1.38060102 -0.00825492 2.76119041 -0.01868939 4.14176032 -0.03110051 C7.94270556 -0.05889858 11.74308681 -0.05557882 15.54410112 -0.04721256 C19.67681074 -0.04355506 23.80936187 -0.06867649 27.94200379 -0.09008765 C36.1420941 -0.12798391 44.34202164 -0.13895274 52.54219038 -0.14173293 C62.36354824 -0.14630171 72.18475555 -0.17964164 82.00604863 -0.21346705 C105.74799328 -0.2937838 129.48992192 -0.32328795 153.23197801 -0.34721079 C164.46712024 -0.35889162 175.70224969 -0.37690529 186.93738196 -0.39568768 C225.40630117 -0.45987463 263.87521328 -0.51346349 302.34418488 -0.53070068 C304.7593507 -0.53180884 307.17451652 -0.53291776 309.58968234 -0.53402744 C312.01065729 -0.53513064 314.43163224 -0.53623305 316.85260719 -0.53733468 C321.70942431 -0.53954743 326.56624141 -0.54178301 331.42305851 -0.54403305 C332.62726783 -0.54458 333.83147714 -0.54512696 335.07217765 -0.54569049 C374.09581978 -0.5638331 413.11899687 -0.64338927 452.14246097 -0.75998487 C493.41171945 -0.88306465 534.68071228 -0.95156922 575.95015961 -0.95754027 C580.48394786 -0.95839752 585.017736 -0.95947465 589.55152416 -0.96071243 C590.66784925 -0.96099128 591.78417433 -0.96127012 592.93432745 -0.96155741 C610.87426563 -0.96730291 628.81372564 -1.02235345 646.75350254 -1.09514771 C664.80089462 -1.1671097 682.84767606 -1.18308151 700.89517229 -1.14294782 C711.60657622 -1.12072718 722.31600427 -1.13971539 733.02714708 -1.21914035 C740.19741759 -1.26812559 747.36631393 -1.26178102 754.53657379 -1.21195921 C758.61319915 -1.18515704 762.68605104 -1.18088696 766.76235359 -1.24450281 C787.79899013 -1.55267154 803.05462593 1.65045815 819.57125187 15.65713882 C820.89125187 16.97713882 822.21125187 18.29713882 823.57125187 19.65713882 C538.45125187 19.65713882 253.33125187 19.65713882 -40.42874813 19.65713882 C-35.93246184 15.16085253 -35.93246184 15.16085253 -32.78421688 13.25479507 C-32.10681454 12.83907242 -31.42941219 12.42334976 -30.73148251 11.99502945 C-30.03345516 11.57415054 -29.33542782 11.15327164 -28.61624813 10.71963882 C-27.23333173 9.87950088 -25.85180968 9.03706332 -24.47171688 8.19229507 C-23.86352108 7.82499283 -23.25532528 7.45769058 -22.6286993 7.07925797 C-20.22188579 5.60867015 -20.22188579 5.60867015 -17.63054794 3.10932755 C-12.27893038 -0.6823575 -6.32370825 -0.04396133 0 0 Z " fill="#F8D3CE" transform="translate(90.42874813079834,578.3428611755371)"/>
<path d="M0 0 C284.79 0 569.58 0 863 0 C848.2251185 14.7748815 833.36514457 19.9825399 812.88398945 19.98750269 C810.57505571 19.96602419 808.26640116 19.93510922 805.95760372 19.90220787 C801.8051423 19.86000413 797.65341037 19.90608639 793.50100219 19.94019449 C786.24529346 19.98791709 778.99131049 19.98069393 771.73560524 19.93612289 C760.94638842 19.87002923 750.15850752 19.89056068 739.36921347 19.92758223 C720.09563874 19.99091484 700.82287033 19.96949131 681.54931841 19.91223239 C664.68620038 19.86246321 647.82336053 19.8424275 630.96017075 19.85148239 C629.83989164 19.85204767 628.71961253 19.85261295 627.56538558 19.85319535 C623.01742254 19.85553849 618.46945963 19.85802977 613.9214968 19.86073695 C571.29909579 19.88574845 528.67718483 19.82667061 486.05491166 19.72734001 C448.2083353 19.63959544 410.36228303 19.61766299 372.515625 19.65380859 C362.81987085 19.66299664 353.12411668 19.67212702 343.42836189 19.68062782 C342.23460207 19.68167725 341.04084224 19.68272667 339.81090788 19.68380789 C308.15718783 19.7106524 276.50351205 19.68592192 244.84981334 19.64502847 C241.44331926 19.64067815 238.03682515 19.63634296 234.63033101 19.63203277 C232.37069446 19.62916593 230.11105796 19.62626037 227.85142151 19.62331583 C212.11288397 19.60326155 196.37446427 19.60371396 180.63592286 19.61838877 C160.35605674 19.63729447 140.0767565 19.62069528 119.7970192 19.54121311 C109.07782814 19.50025782 98.35961243 19.48917304 87.64038685 19.52172106 C80.47426201 19.54039887 73.30897439 19.51885019 66.14302962 19.46501245 C62.0639491 19.43545791 57.98683779 19.42274806 53.90776516 19.45889671 C23.43777056 19.7075369 23.43777056 19.7075369 10.51813911 8.30216269 C8.3140962 6.41167556 5.89950534 4.90528706 3.4375 3.375 C2.27195179 2.61265656 1.11608125 1.83308629 0 1 C0 0.67 0 0.34 0 0 Z " fill="#F7D1CD" transform="translate(52,39)"/>
<path d="M0 0 C1.30453125 0.00064453 2.6090625 0.00128906 3.953125 0.00195312 C4.97019531 0.01440063 4.97019531 0.01440063 6.0078125 0.02709961 C8.05769743 0.05054759 10.10626621 0.04767462 12.15625 0.04101562 C28.47365478 0.12934803 28.47365478 0.12934803 34.203125 4.61328125 C38.3972681 10.04099585 38.8154833 16.14195796 39.4765625 22.75390625 C39.62279053 24.13604813 39.62279053 24.13604813 39.77197266 25.54611206 C40.08953806 28.5678036 40.39687822 31.59042306 40.703125 34.61328125 C40.91982976 36.71600936 41.13679251 38.81871089 41.35400391 40.92138672 C41.79951481 45.25211831 42.23955515 49.58336275 42.67578125 53.91503906 C43.19749788 59.09196862 43.7337818 64.26724166 44.27523804 69.44213867 C44.66865129 73.22619945 45.05144861 77.01127583 45.43096924 80.79675293 C45.61020604 82.56934417 45.79301777 84.34157813 45.97967529 86.11340332 C48.51458266 110.29580743 48.51458266 110.29580743 45.12841797 118.14379883 C43.328125 120.36328125 43.328125 120.36328125 40.77539062 121.20629883 C39.27008789 121.3555481 39.27008789 121.3555481 37.734375 121.5078125 C36.620625 121.62705078 35.506875 121.74628906 34.359375 121.86914062 C33.1940625 121.97033203 32.02875 122.07152344 30.828125 122.17578125 C29.69375 122.29630859 28.559375 122.41683594 27.390625 122.54101562 C20.34011662 123.2484921 13.41157377 123.47618857 6.328125 123.36328125 C5.008125 117.09328125 3.688125 110.82328125 2.328125 104.36328125 C1.296875 106.36390625 0.265625 108.36453125 -0.796875 110.42578125 C-2.02973176 112.81752337 -3.26580246 115.08070402 -4.671875 117.36328125 C-5.05657959 118.01530518 -5.44128418 118.6673291 -5.83764648 119.33911133 C-7.95469659 122.38084998 -9.50356137 124.0925274 -13.18652344 124.94604492 C-16.31527996 125.1319773 -19.35349873 125.07230635 -22.484375 124.92578125 C-23.61770264 124.89790527 -24.75103027 124.8700293 -25.91870117 124.84130859 C-29.50734057 124.73273471 -33.08705039 124.56023368 -36.671875 124.36328125 C-37.85265625 124.29898926 -39.0334375 124.23469727 -40.25 124.16845703 C-45.71468001 123.84588911 -51.17490767 123.46678437 -56.62890625 122.99609375 C-57.91244995 122.88612061 -57.91244995 122.88612061 -59.22192383 122.77392578 C-61.94687914 122.31718688 -64.18253249 121.55852899 -66.671875 120.36328125 C-77.48847925 104.5341043 -79.82301585 78.97472486 -76.42578125 60.515625 C-74.26869681 51.49610612 -71.01519992 43.22474904 -64.671875 36.36328125 C-63.92164063 35.53376953 -63.92164063 35.53376953 -63.15625 34.6875 C-54.69238833 26.40852852 -41.60913784 24.97176074 -30.30859375 25.08984375 C-20.4342039 25.83227908 -14.1604196 30.3034654 -6.671875 36.36328125 C-6.79304688 35.61232178 -6.91421875 34.8613623 -7.0390625 34.08764648 C-7.58895133 30.65956548 -8.13048191 27.2302138 -8.671875 23.80078125 C-8.86265625 22.61935547 -9.0534375 21.43792969 -9.25 20.22070312 C-11.22976091 7.59972735 -11.22976091 7.59972735 -10.671875 3.36328125 C-7.39708881 -0.01104252 -4.56296172 -0.01147876 0 0 Z " fill="#FEF8F0" transform="translate(498.671875,360.63671875)"/>
<path d="M0 0 C2.3125 0.0625 2.3125 0.0625 5 1 C7.52321011 5.86751291 8.52033322 10.13902319 9.125 15.625 C9.24174072 16.67856689 9.24174072 16.67856689 9.36083984 17.75341797 C9.58599436 19.83456315 9.79415714 21.91687022 10 24 C10.1134375 25.0415625 10.226875 26.083125 10.34375 27.15625 C11.83286906 42.87472891 11.07113579 58.81246524 10.5625 74.5625 C10.52334473 75.81740234 10.48418945 77.07230469 10.44384766 78.36523438 C10.40179199 79.54537109 10.35973633 80.72550781 10.31640625 81.94140625 C10.27974854 82.99013916 10.24309082 84.03887207 10.20532227 85.11938477 C10.01232012 87.82715204 9.59868443 90.35537923 9 93 C3.72818386 91.57293807 -1.33806505 89.82519562 -6.4375 87.875 C-7.53481445 87.45927734 -7.53481445 87.45927734 -8.65429688 87.03515625 C-10.43715878 86.3593001 -12.218718 85.68000921 -14 85 C-14.10052895 78.81514984 -14.17223359 72.63079771 -14.21972656 66.4453125 C-14.2395704 64.35082697 -14.26665436 62.25639473 -14.30175781 60.16210938 C-14.60132522 41.80038949 -14.53036269 17.28484335 -2.1875 2.1875 C-1.1046875 1.1046875 -1.1046875 1.1046875 0 0 Z " fill="#FDE5DE" transform="translate(488,230)"/>
<path d="M0 0 C5.02026224 2.64958285 7.86489131 5.62167704 10.3125 10.75 C11.21624139 15.02223204 11.14645135 18.77496601 10 23 C7.9375 25.5625 7.9375 25.5625 6 27 C-0.55091068 21.35266321 -1.35522113 14.97511221 -2.08203125 6.76953125 C-1.99732197 3.90958465 -1.48786921 2.40701621 0 0 Z " fill="#FDE5DE" transform="translate(375,221)"/>
<path d="M0 0 C10.71428571 -0.14285714 10.71428571 -0.14285714 15 1 C13.87563746 4.37308761 12.92657267 5.15123097 10.25 7.375 C6.95244008 10.13135734 4.07460872 12.92539128 1 16 C0.67 10.72 0.34 5.44 0 0 Z " fill="#FDE5DE" transform="translate(403,304)"/>
<path d="M0 0 C1.9375 1.6875 1.9375 1.6875 3 4 C2.91833317 7.26667311 2.18977831 8.74244372 0.25 11.375 C-2 13 -2 13 -4.625 12.875 C-7 12 -7 12 -9 10 C-9.55021834 3.94759825 -9.55021834 3.94759825 -7.875 1.0625 C-5.07837528 -0.52225401 -3.1506804 -0.45947423 0 0 Z " fill="#FDE5DE" transform="translate(466,435)"/>
<path d="M0 0 C2.8125 1.25 2.8125 1.25 3.8125 2.25 C4.10428308 5.02193929 4.17616316 6.66409825 2.6875 9.0625 C-0.02195834 10.77849028 -2.05045684 10.583728 -5.1875 10.25 C-7.1875 8.25 -7.1875 8.25 -7.5625 5.3125 C-7.1875 2.25 -7.1875 2.25 -5.5625 0.25 C-3.1875 -0.75 -3.1875 -0.75 0 0 Z " fill="#FDE5DE" transform="translate(286.1875,263.75)"/>
<path d="M0 0 C1.32 0.33 2.64 0.66 4 1 C3.67 2.32 3.34 3.64 3 5 C1.35 5 -0.3 5 -2 5 C-1.34 3.35 -0.68 1.7 0 0 Z " fill="#FDE5DE" transform="translate(679,346)"/>
</svg>
