<?xml version="1.0" encoding="UTF-8"?>
<svg version="1.1" xmlns="http://www.w3.org/2000/svg" width="960" height="640">
<path d="M0 0 C307.56 0 615.12 0 932 0 C933.15276303 2.30552605 933.12551834 3.59925105 933.12649983 6.16384554 C933.12925958 7.04364559 933.13201932 7.92344563 933.13486269 8.82990628 C933.13280737 9.80433563 933.13075205 10.77876497 933.12863445 11.78272247 C933.13038749 12.81602729 933.13214053 13.84933211 933.13394669 14.91394919 C933.13864188 18.41697036 933.13613221 21.91995065 933.13371277 25.42297363 C933.13557897 27.94352773 933.1378789 30.46408153 933.14057809 32.98463488 C933.14543875 38.48571724 933.14714719 43.986787 933.14612198 49.48787117 C933.1446012 57.66795899 933.14874955 65.84803702 933.1539966 74.02812295 C933.16368384 89.48496489 933.16648135 104.94180352 933.16705366 120.39864814 C933.16751259 132.33079388 933.16956771 144.26293831 933.17275429 156.19508362 C933.17365178 159.62537972 933.17454159 163.05567582 933.17542917 166.48597193 C933.17565021 167.33866444 933.17587126 168.19135695 933.17609901 169.06988862 C933.18225589 193.06464598 933.18619929 217.05940289 933.18575573 241.05416107 C933.18574015 241.95940622 933.18572457 242.86465137 933.18570852 243.79732819 C933.18562541 248.38586222 933.18552637 252.97439625 933.18542381 257.56293029 C933.1853939 258.92996888 933.1853939 258.92996888 933.18536337 260.32462441 C933.18532294 262.16761489 933.18528114 264.01060538 933.18523798 265.85359586 C933.18462497 294.53960934 933.19213547 323.225611 933.20581055 351.91162109 C933.22115472 384.11242471 933.22977779 416.31322057 933.22884732 448.51402807 C933.22877269 451.94432418 933.22872399 455.37462028 933.22869301 458.80491638 C933.22867553 460.07193203 933.22867553 460.07193203 933.22865769 461.36454395 C933.22862686 474.98609883 933.23502579 488.6076435 933.24362527 502.22919534 C933.25208182 515.90672354 933.25310744 529.58423672 933.24651595 543.26176608 C933.24280702 551.39754909 933.24469246 559.53328661 933.25445829 567.66906484 C933.26112045 573.72884481 933.25744163 579.78857041 933.24958507 585.84835094 C933.24803484 588.31129864 933.24992263 590.77425118 933.25544515 593.23719317 C933.26241528 596.56397136 933.25728324 599.89050808 933.24888897 603.21727753 C933.25385715 604.19170687 933.25882533 605.16613621 933.26394406 606.17009372 C933.25681784 607.48979378 933.25681784 607.48979378 933.24954766 608.83615446 C933.24963588 609.59782831 933.2497241 610.35950216 933.249815 611.14425704 C933 613 933 613 931 615 C928.30506986 615.25028767 928.30506986 615.25028767 924.79071712 615.25069833 C924.142592 615.25350296 923.49446688 615.2563076 922.82670161 615.25919722 C920.62948677 615.26622132 918.43254752 615.25885112 916.2353363 615.25168228 C914.6475612 615.25376636 913.05978704 615.25672721 911.47201502 615.26049101 C907.0727832 615.26833609 902.67363823 615.26358959 898.2744077 615.25693511 C893.50208567 615.2518909 888.72977763 615.25836987 883.95745754 615.26342177 C875.58142099 615.27066925 867.20541017 615.2704113 858.82937241 615.26532745 C846.37428079 615.25778822 833.91921104 615.26161652 821.46411958 615.26774407 C799.22430817 615.2782974 776.98450821 615.27735409 754.74469569 615.27158624 C735.28274796 615.26656335 715.82080445 615.26523788 696.3588562 615.26763153 C695.06998142 615.2677843 693.78110665 615.26793707 692.45317506 615.26809447 C687.22175917 615.26871711 681.99034329 615.2693539 676.7589274 615.270014 C662.13381521 615.27183743 647.50870299 615.27298928 632.8835907 615.27358627 C632.21752821 615.27361356 631.55146572 615.27364086 630.86521952 615.27366897 C609.63299015 615.27448786 588.40076224 615.27223206 567.16853333 615.26788712 C566.47961151 615.26774662 565.79068969 615.26760612 565.08089145 615.26746136 C553.89236223 615.26517131 542.70383304 615.26273246 531.51530385 615.26028102 C487.13682613 615.25056791 442.75836048 615.25101873 398.37988281 615.26074219 C387.19707745 615.26318445 376.01427208 615.26560651 364.83146667 615.26788712 C363.79869914 615.26809846 363.79869914 615.26809846 362.74506762 615.26831407 C341.53551465 615.27262469 320.32596269 615.27445532 299.1164093 615.27358627 C298.45083231 615.2735591 297.78525533 615.27353194 297.09950934 615.27350394 C281.83550103 615.27285103 266.57149283 615.27144366 251.30748463 615.26951766 C246.08537102 615.26887619 240.86325741 615.26825051 235.6411438 615.26763153 C234.3552417 615.26747338 233.0693396 615.26731522 231.74447077 615.26715227 C212.29049136 615.26487334 192.83651661 615.26754529 173.38253784 615.27259064 C151.27171041 615.2782963 129.16089628 615.27690704 107.05007052 615.26602915 C94.66179801 615.26013622 82.27355426 615.25980242 69.88528247 615.2673215 C61.62512389 615.27178386 53.36498853 615.26905603 45.10483341 615.26031196 C40.3886679 615.25552404 35.67255982 615.25399003 30.95639598 615.26112393 C26.67470462 615.26753503 22.39312217 615.26491231 18.11143892 615.2547626 C16.56374174 615.25273113 15.01603575 615.25412483 13.46834548 615.25917448 C11.38185592 615.26550446 9.29575384 615.25972712 7.20928288 615.25069833 C5.46967827 615.25049505 5.46967827 615.25049505 3.69493014 615.25028767 C1 615 1 615 -1 613 C-1.249815 611.14425704 -1.249815 611.14425704 -1.24954766 608.83615446 C-1.25429847 607.95635441 -1.25904928 607.07655437 -1.26394406 606.17009372 C-1.25649179 604.7084497 -1.25649179 604.7084497 -1.24888897 603.21727753 C-1.25149625 602.18397271 -1.25410354 601.15066789 -1.25678983 600.08605081 C-1.26314473 596.58298247 -1.25509288 593.08008968 -1.24723816 589.57702637 C-1.24882465 587.05647194 -1.25128665 584.53591793 -1.25455457 582.01536512 C-1.25965004 576.51426711 -1.25847247 571.01322429 -1.2518692 565.51212883 C-1.24207712 557.33203596 -1.24367734 549.15197341 -1.2476195 540.97187705 C-1.25390467 527.21289887 -1.25071161 513.4539378 -1.24202538 499.69496155 C-1.23342225 486.06494488 -1.22850495 472.43493589 -1.22869301 458.80491638 C-1.22870065 457.95828623 -1.2287083 457.11165607 -1.22871618 456.23937046 C-1.22875708 452.80295077 -1.22882269 449.36653107 -1.22892199 445.93011138 C-1.22982882 413.66887037 -1.21987177 381.40764108 -1.20449232 349.14640414 C-1.19086766 320.46039402 -1.184631 291.77439223 -1.18530273 263.08837891 C-1.18534315 261.2465627 -1.18538351 259.40474649 -1.18542381 257.56293029 C-1.18544416 256.65238798 -1.18546452 255.74184566 -1.18548548 254.80371116 C-1.18558627 250.2205278 -1.18567686 245.63734444 -1.18575573 241.05416107 C-1.18577244 240.15004451 -1.18578916 239.24592795 -1.18580638 238.31441392 C-1.18617126 214.37159928 -1.18163599 190.42878569 -1.17542917 166.48597193 C-1.17509876 165.20900878 -1.17509876 165.20900878 -1.17476168 163.9062484 C-1.1738734 160.48265095 -1.17298502 157.0590535 -1.17207072 153.63545605 C-1.16890662 141.70638238 -1.16740092 129.77730953 -1.16695923 117.84823547 C-1.16636304 102.47823168 -1.16238675 87.10823477 -1.15252777 71.73823392 C-1.14739971 63.60246481 -1.14500774 55.46670581 -1.14652396 47.33093516 C-1.14734096 41.27116685 -1.14296269 35.21141445 -1.13647345 29.15164906 C-1.13464991 26.68870232 -1.13453965 24.22575365 -1.13624074 21.76280683 C-1.13828536 18.43608918 -1.13427833 15.1094346 -1.12863445 11.78272247 C-1.13171743 10.32107846 -1.13171743 10.32107846 -1.13486269 8.82990628 C-1.13210295 7.95010624 -1.1293432 7.07030619 -1.12649983 6.16384554 C-1.12620833 5.40217169 -1.12591683 4.64049784 -1.1256165 3.85574296 C-1 2 -1 2 0 0 Z " fill="#F59492" transform="translate(17,11)"/>
<path d="M0 0 C1.2566748 0.0717041 2.51334961 0.1434082 3.80810547 0.21728516 C7.50250397 0.45149428 11.18678814 0.74643206 14.875 1.0625 C16.60254517 1.17029785 16.60254517 1.17029785 18.36499023 1.28027344 C26.06585094 2.03180252 26.06585094 2.03180252 28.56738281 4.62451172 C29.68990609 6.72808537 30.37346578 8.70228007 31 11 C31.40605469 12.17433594 31.81210937 13.34867188 32.23046875 14.55859375 C33.62914833 20.94749065 33.34502272 27.55679686 33.3125 34.0625 C33.31067719 34.82785065 33.30885437 35.59320129 33.30697632 36.38174438 C33.12703831 82.6398781 28.72671034 128.91812208 25 175 C18.68717975 173.44987386 12.39202886 171.90012038 6.17578125 169.9921875 C5.04591797 169.64542969 3.91605469 169.29867187 2.75195312 168.94140625 C1.61693359 168.58949219 0.48191406 168.23757813 -0.6875 167.875 C-1.86505859 167.51535156 -3.04261719 167.15570313 -4.25585938 166.78515625 C-5.37154297 166.44097656 -6.48722656 166.09679687 -7.63671875 165.7421875 C-8.64436279 165.4313623 -9.65200684 165.12053711 -10.69018555 164.80029297 C-13 164 -13 164 -14 163 C-14.01706996 160.66103187 -13.97038924 158.35505524 -13.87890625 156.01953125 C-13.8551593 155.3036937 -13.83141235 154.58785614 -13.8069458 153.85032654 C-13.75571952 152.30831357 -13.70244793 150.76636749 -13.64736938 149.2244873 C-13.50551813 145.1930756 -13.38601855 141.16100687 -13.265625 137.12890625 C-13.24164139 136.33217499 -13.21765778 135.53544373 -13.19294739 134.71456909 C-12.01991595 102.47992064 -12.01991595 102.47992064 -18 71 C-19.65 70.67 -21.3 70.34 -23 70 C-36.8040919 86.11452254 -36.61063395 111.73638676 -36.75 131.75 C-36.77825421 133.82684665 -36.8081942 135.90367107 -36.83984375 137.98046875 C-36.91256683 142.9869375 -36.96281722 147.99314642 -37 153 C-37.75128174 152.86287598 -38.50256348 152.72575195 -39.27661133 152.58447266 C-40.2642749 152.4044873 -41.25193848 152.22450195 -42.26953125 152.0390625 C-43.24768799 151.86068848 -44.22584473 151.68231445 -45.23364258 151.49853516 C-48.15165054 150.97267051 -51.07321935 150.47461308 -54 150 C-53.59007812 150.60328125 -53.18015625 151.2065625 -52.7578125 151.828125 C-52.21898437 152.62734375 -51.68015625 153.4265625 -51.125 154.25 C-50.59132813 155.03890625 -50.05765625 155.8278125 -49.5078125 156.640625 C-46.69340247 161.04452048 -45.78201642 163.53714162 -46.02734375 168.90234375 C-46.06720216 171.05183207 -46.06720216 171.05183207 -45.51098633 173.3125 C-42.76516641 187.75396471 -43.6035322 206.51063033 -52 219 C-54.74583015 221.8942534 -56.54886957 222.86633173 -60.375 224 C-64.86638322 224 -67.60413711 222.79435354 -71 220 C-72.77070544 218.06045986 -74.43584462 216.051713 -76.11328125 214.03125 C-81.48898752 208.24374015 -88.29604005 204.56447519 -96.125 203.625 C-99.72231021 204.09421438 -100.77932381 205.20359295 -103 208 C-104.23830831 210.47661662 -104.12932716 212.14204804 -104.1328125 214.91015625 C-104.13410156 215.90080078 -104.13539063 216.89144531 -104.13671875 217.91210938 C-104.13285156 218.95173828 -104.12898438 219.99136719 -104.125 221.0625 C-104.12886719 222.07505859 -104.13273437 223.08761719 -104.13671875 224.13085938 C-104.13542969 225.13052734 -104.13414062 226.13019531 -104.1328125 227.16015625 C-104.13112061 228.51572632 -104.13112061 228.51572632 -104.12939453 229.89868164 C-104.02613873 232.37350892 -103.81446435 234.74741743 -103.52075195 237.20214844 C-102.92177794 242.33132252 -102.71353025 247.4468548 -102.53515625 252.60546875 C-102.45651233 254.66341651 -102.37773165 256.72135905 -102.29882812 258.77929688 C-102.1805453 261.96176052 -102.06404308 265.14427011 -101.95043945 268.3269043 C-101.50962867 280.53286875 -100.89599898 292.67048697 -99.65724182 304.82475281 C-99.17786112 309.58222713 -98.90318443 314.21795909 -99 319 C-106.28746299 319.49327655 -112.99422935 317.86941993 -120.03637695 316.17407227 C-122.05881011 315.68838613 -124.08456809 315.21921415 -126.11132812 314.75195312 C-132.36596826 313.27804553 -138.11764165 311.57507672 -144 309 C-143.99333817 308.02108795 -143.98667633 307.0421759 -143.97981262 306.03359985 C-143.44524037 240.15237893 -143.44524037 240.15237893 -146.8067627 174.38305664 C-147.22756993 169.19354385 -147.59959473 164.00032403 -147.97509766 158.80737305 C-148.14996057 156.4252929 -148.33355428 154.04382553 -148.52880859 151.66333008 C-148.60695801 150.67228271 -148.68510742 149.68123535 -148.765625 148.66015625 C-148.83555664 147.82105713 -148.90548828 146.98195801 -148.97753906 146.11743164 C-149 144 -149 144 -148 141 C-144.96826719 139.80506026 -141.97540573 139.89506045 -138.75 139.9375 C-137.85796875 139.94652344 -136.9659375 139.95554687 -136.046875 139.96484375 C-135.03367187 139.98224609 -135.03367187 139.98224609 -134 140 C-133.67 139.34 -133.34 138.68 -133 138 C-133.969375 137.95875 -134.93875 137.9175 -135.9375 137.875 C-143.47294784 136.76371173 -149.56310902 131.15355049 -154.24609375 125.44921875 C-170.74074287 102.41548824 -176.85494925 71.96234924 -173 44 C-172.01970219 39.49160065 -170.71359932 35.28109389 -169 31 C-168.65066406 30.12214844 -168.30132812 29.24429688 -167.94140625 28.33984375 C-165.44613989 23.02984786 -162.86376457 20.75450283 -157.359375 18.7578125 C-156.58078125 18.50773437 -155.8021875 18.25765625 -155 18 C-154.34515625 17.74992187 -153.6903125 17.49984375 -153.015625 17.2421875 C-147.91892143 15.36549432 -142.638698 14.0659245 -137.375 12.75 C-136.29992187 12.46866211 -136.29992187 12.46866211 -135.203125 12.18164062 C-129.52065581 10.81344463 -124.67402849 10.45527464 -119.41015625 13.49609375 C-101.70337471 28.1388066 -94.78803345 46.72762876 -92 69 C-91.87726485 71.63584319 -91.78999525 74.24664097 -91.76171875 76.8828125 C-91.753647 77.61893768 -91.74557526 78.35506287 -91.73725891 79.11349487 C-91.72350748 80.66483266 -91.71274589 82.21619957 -91.70483398 83.76757812 C-91.6933563 85.32854304 -91.67297154 86.88947002 -91.64331055 88.45019531 C-91.3368446 104.63296724 -94.18357335 118.18604089 -105.34765625 130.61328125 C-108.42431033 133.74996761 -111.33866524 136.55911016 -115 139 C-114.030625 139.309375 -113.06125 139.61875 -112.0625 139.9375 C-109 141 -109 141 -108 142 C-107.60006314 144.68862664 -107.24865457 147.36352217 -106.9375 150.0625 C-106.80118164 151.20041992 -106.80118164 151.20041992 -106.66210938 152.36132812 C-106.4375626 154.2404301 -106.21829022 156.12016095 -106 158 C-105.5875 157.49210938 -105.175 156.98421875 -104.75 156.4609375 C-97.94357221 148.34791866 -91.56352494 143.13897308 -81 141 C-80.01 141 -79.02 141 -78 141 C-78.15352432 139.89415054 -78.30704865 138.78830109 -78.46522522 137.64894104 C-79.0870519 132.64681642 -79.34616823 127.65113053 -79.55639648 122.61694336 C-79.59857772 121.61798255 -79.64075895 120.61902174 -79.68421841 119.58978939 C-80.14107921 107.7703816 -80.12542812 95.95525361 -80.09765625 84.12890625 C-80.09578476 81.74039235 -80.09436432 79.35187807 -80.09336853 76.96336365 C-80.08960083 70.76090381 -80.07982166 64.55846843 -80.06866455 58.35601807 C-80.05832484 51.99320812 -80.05384436 45.63039411 -80.04882812 39.26757812 C-80.03819255 26.8450415 -80.02118778 14.42252281 -80 2 C-76.81260216 1.66650821 -73.62462848 1.33886327 -70.43652344 1.01220703 C-69.54113861 0.91845291 -68.64575378 0.82469879 -67.72323608 0.72810364 C-60.88103296 0.03127422 -54.1287753 -0.24902785 -47.25 -0.125 C-45.73986328 -0.11146484 -45.73986328 -0.11146484 -44.19921875 -0.09765625 C-41.79936723 -0.07480052 -39.39964372 -0.03898338 -37 0 C-36.67 2.97 -36.34 5.94 -36 9 C-35.16855469 8.04287109 -35.16855469 8.04287109 -34.3203125 7.06640625 C-33.59585938 6.24011719 -32.87140625 5.41382813 -32.125 4.5625 C-31.04605469 3.32693359 -31.04605469 3.32693359 -29.9453125 2.06640625 C-23.80397858 -4.45721954 -8.21796915 -0.48078781 0 0 Z " fill="#FEF8F0" transform="translate(511,161)"/>
<path d="M0 0 C2.07418463 0.31056 4.14800916 0.62352561 6.22167969 0.9375 C7.37657898 1.11152344 8.53147827 1.28554687 9.72137451 1.46484375 C13.64756154 2.10569875 17.40328687 2.98687391 21.25 4 C25.40567549 5.08556421 29.55052076 6.13828321 33.74511719 7.0625 C34.54504089 7.23910156 35.3449646 7.41570312 36.16912842 7.59765625 C36.77331604 7.73042969 37.37750366 7.86320313 38 8 C37.99777939 8.92024963 37.99555878 9.84049927 37.99327087 10.78863525 C37.97305341 19.55322565 37.95791816 28.31780798 37.94818783 37.08241653 C37.94301689 41.58604189 37.93602748 46.08964764 37.92456055 50.59326172 C34.91078069 88.76739431 34.91078069 88.76739431 44 124 C44.99 124.33 45.98 124.66 47 125 C50.25652011 112.56741552 50.62570921 100.23630598 50.96710205 87.44287109 C51.12822676 81.41682765 51.32860478 75.39208927 51.52734375 69.3671875 C51.56516968 68.19508728 51.60299561 67.02298706 51.64196777 65.81536865 C51.97774787 55.78691397 52.55993677 45.80047631 53.39086914 35.80029297 C54.0072559 28.18844522 54.088948 20.63540926 54 13 C67.45343037 17.38931548 80.200496 22.98153642 93 29 C93.65687673 58.30882921 92.44227229 86.66878444 88.32281494 115.69812012 C88.01630269 117.88375123 87.72239559 120.07056287 87.43505859 122.25878906 C84.86495483 141.82458375 81.67768706 160.98540668 71 178 C72.65 178.66 74.3 179.32 76 180 C75.57328969 198.77525344 53.03202018 221.71494823 42 236 C45.40397988 236 48.07319482 235.2750989 51.36328125 234.390625 C52.30593086 234.1385025 52.30593086 234.1385025 53.2676239 233.88128662 C54.60377055 233.52318739 55.93943806 233.16329632 57.2746582 232.80175781 C59.26611197 232.26255984 61.25885441 231.72839382 63.25195312 231.1953125 C70.87512575 229.14937442 78.46643932 227.01950217 86.03735352 224.78662109 C90.08396035 223.71219446 92.86139664 223.23359197 97 224 C100.2520617 228.09587317 101.87505521 232.0892788 103.375 237.0625 C104.98587639 242.28005746 106.91021289 247.04215893 109.375 251.9375 C111.95209571 257.39880644 112.95859097 260.22215665 111 266 C105.28711776 275.88543104 96.93229665 282.70881423 86.625 287.25 C85.74328125 287.65734375 84.8615625 288.0646875 83.953125 288.484375 C74.9690386 292.59439693 65.98385692 296.14645848 56.47290039 298.84228516 C51.68642826 300.20808951 46.92834394 301.63992824 42.1796875 303.1328125 C40.98529053 303.50245117 39.79089355 303.87208984 38.56030273 304.25292969 C36.18368436 304.98902633 33.81061401 305.736699 31.44165039 306.49707031 C22.91545853 309.10790217 16.91239519 309.89524223 8.6875 305.75 C7.86636719 305.35296875 7.04523437 304.9559375 6.19921875 304.546875 C2.31338478 301.81367739 1.16281862 298.77814869 0.20043945 294.17871094 C-0.00733504 292.69890823 -0.20238868 291.2172805 -0.38671875 289.734375 C-0.49345413 288.94154114 -0.60018951 288.14870728 -0.7101593 287.33184814 C-0.93304941 285.65830661 -1.15040297 283.98401947 -1.36254883 282.30908203 C-1.68489254 279.77053451 -2.02550719 277.23496256 -2.36914062 274.69921875 C-2.58442426 273.06524753 -2.79865075 271.43113661 -3.01171875 269.796875 C-3.11167648 269.04968201 -3.21163422 268.30248901 -3.31462097 267.53265381 C-4.62990717 257.00186763 -4.62990717 257.00186763 -4 252 C-1.89453125 249.44921875 -1.89453125 249.44921875 1 247 C3.20248114 244.34657212 5.24489247 241.57185172 7.3125 238.8125 C8.45746946 237.29882533 9.60330113 235.78580246 10.75 234.2734375 C11.30300781 233.54350586 11.85601563 232.81357422 12.42578125 232.06152344 C15.54188567 227.98081846 18.76052562 223.98328119 22 220 C21.11957031 220.28875 20.23914063 220.5775 19.33203125 220.875 C18.17058594 221.24625 17.00914062 221.6175 15.8125 222 C14.66394531 222.37125 13.51539063 222.7425 12.33203125 223.125 C7.06488203 224.50816697 7.06488203 224.50816697 4 224 C2.17578125 222.53515625 2.17578125 222.53515625 1 220 C0.88988361 217.04471407 0.94860533 214.36573371 1.1875 211.4375 C1.24357422 210.60992187 1.29964844 209.78234375 1.35742188 208.9296875 C3.09150982 184.72547055 3.09150982 184.72547055 5 179 C10.50016964 177.69732824 15.47032059 178.28966569 21 179 C20.49210938 178.64808594 19.98421875 178.29617188 19.4609375 177.93359375 C7.17545209 169.12209391 3.40359745 159.61423086 0.95043945 145.03588867 C-3.01176039 119.41213283 -2.18901784 92.82573462 -2.18530273 66.94580078 C-2.18522132 63.98187174 -2.19221506 61.0180968 -2.20581055 58.05419922 C-2.2937064 38.5976867 -1.73176536 19.39483575 0 0 Z " fill="#FEF8F0" transform="translate(554,167)"/>
<path d="M0 0 C2.6538326 14.57843412 4.38602817 29.21211364 6 43.9375 C6.26281586 46.30782075 6.5260015 48.67810053 6.78955078 51.04833984 C7.1775366 54.5406641 7.5649121 58.03304872 7.94998169 61.5256958 C8.63195122 67.71094818 9.32857873 73.89399826 10.0546875 80.07421875 C10.19777344 81.30599854 10.34085937 82.53777832 10.48828125 83.80688477 C10.73378734 85.91337041 10.98331439 88.01939439 11.23828125 90.12475586 C12.2766606 99.17612275 12.36084309 107.9844145 11 117 C11.721875 117.20625 12.44375 117.4125 13.1875 117.625 C19.90628645 120.90974004 23.2498217 128.15487362 25.69140625 134.9140625 C28.38534077 144.67251062 28.89813098 158.04824338 24 167 C22.01312521 169.82411134 20.15137359 172.4243132 17 174 C7.65685779 175.05487089 1.06658172 171.18952684 -6.69921875 166.30078125 C-8.93127378 164.78980895 -8.93127378 164.78980895 -11.5625 165 C-14.87536577 166.35912442 -16.06984121 168.00492602 -18 171 C-19.89186043 175.64181469 -20.35126951 179.91191537 -20.3125 184.875 C-20.30976074 185.57955322 -20.30702148 186.28410645 -20.30419922 187.01000977 C-20.19678465 192.34802009 -19.49317112 196.30133136 -17 201 C-13.48138592 202.75930704 -9.7533901 201.76278573 -6 201 C-0.80535862 199.22073307 3.20112937 196.09553982 7.5 192.75 C13.32301807 188.43307374 13.32301807 188.43307374 17.3125 188.25 C23.41063258 189.49029815 26.58950589 192.12962355 30.1875 197.0625 C35.15854032 204.99528875 37.36363123 214.12502588 35.53125 223.36328125 C32.42126687 235.26637145 25.5556659 244.5632613 15.3125 251.25 C7.90198113 255.47489948 -0.46314433 257.71290867 -9 257 C-12.11576087 255.99423107 -15.0032918 254.63230677 -17.9375 253.1875 C-18.76072754 252.79022705 -19.58395508 252.3929541 -20.43212891 251.98364258 C-30.77513074 246.83400847 -40.00314428 240.20066367 -49 233 C-50.2375 232.2575 -50.2375 232.2575 -51.5 231.5 C-57.31979979 228.00812013 -60.22926194 224.56340958 -63.125 218.5625 C-63.47119385 217.85673828 -63.8173877 217.15097656 -64.17407227 216.42382812 C-73.41259587 196.86869648 -73.38032579 173.41044305 -66.78540039 153.11889648 C-64.8186561 147.81290528 -62.42327228 142.99426028 -58.5625 138.8125 C-57.964375 138.15894531 -57.36625 137.50539063 -56.75 136.83203125 C-54.53568985 134.51392531 -52.30150393 132.23176139 -50 130 C-50.75023437 129.8040625 -51.50046875 129.608125 -52.2734375 129.40625 C-65.84580528 125.44052037 -73.69149733 117.59001981 -80.43359375 105.41015625 C-87.80646714 90.51126373 -88.81439944 75.50723728 -83.72314453 59.85058594 C-81.85284442 55.06433514 -78.55625802 51.60375395 -75 48 C-73.67162109 46.59427734 -73.67162109 46.59427734 -72.31640625 45.16015625 C-69.62676122 42.35075228 -66.83452709 39.66362178 -64 37 C-63.3090625 36.33097656 -62.618125 35.66195312 -61.90625 34.97265625 C-57.21232618 30.8847103 -53.48226049 30.40819694 -47.3203125 30.69140625 C-45 31 -45 31 -43 32 C-43.495 26.555 -43.495 26.555 -44 21 C-43.09121094 20.45472656 -42.18242187 19.90945312 -41.24609375 19.34765625 C-40.64603516 18.98752441 -40.04597656 18.62739258 -39.42773438 18.25634766 C-38.08693212 17.45206367 -36.74577896 16.64836442 -35.40429688 15.84521484 C-31.8979217 13.74482096 -28.3975038 11.63576555 -24.91015625 9.50390625 C-24.254104 9.10486084 -23.59805176 8.70581543 -22.92211914 8.29467773 C-21.6755881 7.53611934 -20.43114485 6.77411524 -19.18920898 6.00805664 C-15.22794585 3.60479832 -11.27379822 1.74932427 -7 0 C-4.3333581 -1.33332095 -2.83319697 -0.67102033 0 0 Z " fill="#FEF8F0" transform="translate(325,194)"/>
<path d="M0 0 C307.56 0 615.12 0 932 0 C933.15276303 2.30552605 933.12551834 3.59925105 933.12649983 6.16384554 C933.12925958 7.04364559 933.13201932 7.92344563 933.13486269 8.82990628 C933.13280737 9.80433563 933.13075205 10.77876497 933.12863445 11.78272247 C933.13038749 12.81602729 933.13214053 13.84933211 933.13394669 14.91394919 C933.13864188 18.41697036 933.13613221 21.91995065 933.13371277 25.42297363 C933.13557897 27.94352773 933.1378789 30.46408153 933.14057809 32.98463488 C933.14543875 38.48571724 933.14714719 43.986787 933.14612198 49.48787117 C933.1446012 57.66795899 933.14874955 65.84803702 933.1539966 74.02812295 C933.16368384 89.48496489 933.16648135 104.94180352 933.16705366 120.39864814 C933.16751259 132.33079388 933.16956771 144.26293831 933.17275429 156.19508362 C933.17365178 159.62537972 933.17454159 163.05567582 933.17542917 166.48597193 C933.17565021 167.33866444 933.17587126 168.19135695 933.17609901 169.06988862 C933.18225589 193.06464598 933.18619929 217.05940289 933.18575573 241.05416107 C933.18574015 241.95940622 933.18572457 242.86465137 933.18570852 243.79732819 C933.18562541 248.38586222 933.18552637 252.97439625 933.18542381 257.56293029 C933.1853939 258.92996888 933.1853939 258.92996888 933.18536337 260.32462441 C933.18532294 262.16761489 933.18528114 264.01060538 933.18523798 265.85359586 C933.18462497 294.53960934 933.19213547 323.225611 933.20581055 351.91162109 C933.22115472 384.11242471 933.22977779 416.31322057 933.22884732 448.51402807 C933.22877269 451.94432418 933.22872399 455.37462028 933.22869301 458.80491638 C933.22867553 460.07193203 933.22867553 460.07193203 933.22865769 461.36454395 C933.22862686 474.98609883 933.23502579 488.6076435 933.24362527 502.22919534 C933.25208182 515.90672354 933.25310744 529.58423672 933.24651595 543.26176608 C933.24280702 551.39754909 933.24469246 559.53328661 933.25445829 567.66906484 C933.26112045 573.72884481 933.25744163 579.78857041 933.24958507 585.84835094 C933.24803484 588.31129864 933.24992263 590.77425118 933.25544515 593.23719317 C933.26241528 596.56397136 933.25728324 599.89050808 933.24888897 603.21727753 C933.25385715 604.19170687 933.25882533 605.16613621 933.26394406 606.17009372 C933.25681784 607.48979378 933.25681784 607.48979378 933.24954766 608.83615446 C933.24963588 609.59782831 933.2497241 610.35950216 933.249815 611.14425704 C933 613 933 613 931 615 C928.30506986 615.25028767 928.30506986 615.25028767 924.79071712 615.25069833 C924.142592 615.25350296 923.49446688 615.2563076 922.82670161 615.25919722 C920.62948677 615.26622132 918.43254752 615.25885112 916.2353363 615.25168228 C914.6475612 615.25376636 913.05978704 615.25672721 911.47201502 615.26049101 C907.0727832 615.26833609 902.67363823 615.26358959 898.2744077 615.25693511 C893.50208567 615.2518909 888.72977763 615.25836987 883.95745754 615.26342177 C875.58142099 615.27066925 867.20541017 615.2704113 858.82937241 615.26532745 C846.37428079 615.25778822 833.91921104 615.26161652 821.46411958 615.26774407 C799.22430817 615.2782974 776.98450821 615.27735409 754.74469569 615.27158624 C735.28274796 615.26656335 715.82080445 615.26523788 696.3588562 615.26763153 C695.06998142 615.2677843 693.78110665 615.26793707 692.45317506 615.26809447 C687.22175917 615.26871711 681.99034329 615.2693539 676.7589274 615.270014 C662.13381521 615.27183743 647.50870299 615.27298928 632.8835907 615.27358627 C632.21752821 615.27361356 631.55146572 615.27364086 630.86521952 615.27366897 C609.63299015 615.27448786 588.40076224 615.27223206 567.16853333 615.26788712 C566.47961151 615.26774662 565.79068969 615.26760612 565.08089145 615.26746136 C553.89236223 615.26517131 542.70383304 615.26273246 531.51530385 615.26028102 C487.13682613 615.25056791 442.75836048 615.25101873 398.37988281 615.26074219 C387.19707745 615.26318445 376.01427208 615.26560651 364.83146667 615.26788712 C363.79869914 615.26809846 363.79869914 615.26809846 362.74506762 615.26831407 C341.53551465 615.27262469 320.32596269 615.27445532 299.1164093 615.27358627 C298.45083231 615.2735591 297.78525533 615.27353194 297.09950934 615.27350394 C281.83550103 615.27285103 266.57149283 615.27144366 251.30748463 615.26951766 C246.08537102 615.26887619 240.86325741 615.26825051 235.6411438 615.26763153 C234.3552417 615.26747338 233.0693396 615.26731522 231.74447077 615.26715227 C212.29049136 615.26487334 192.83651661 615.26754529 173.38253784 615.27259064 C151.27171041 615.2782963 129.16089628 615.27690704 107.05007052 615.26602915 C94.66179801 615.26013622 82.27355426 615.25980242 69.88528247 615.2673215 C61.62512389 615.27178386 53.36498853 615.26905603 45.10483341 615.26031196 C40.3886679 615.25552404 35.67255982 615.25399003 30.95639598 615.26112393 C26.67470462 615.26753503 22.39312217 615.26491231 18.11143892 615.2547626 C16.56374174 615.25273113 15.01603575 615.25412483 13.46834548 615.25917448 C11.38185592 615.26550446 9.29575384 615.25972712 7.20928288 615.25069833 C5.46967827 615.25049505 5.46967827 615.25049505 3.69493014 615.25028767 C1 615 1 615 -1 613 C-1.249815 611.14425704 -1.249815 611.14425704 -1.24954766 608.83615446 C-1.25429847 607.95635441 -1.25904928 607.07655437 -1.26394406 606.17009372 C-1.25649179 604.7084497 -1.25649179 604.7084497 -1.24888897 603.21727753 C-1.25149625 602.18397271 -1.25410354 601.15066789 -1.25678983 600.08605081 C-1.26314473 596.58298247 -1.25509288 593.08008968 -1.24723816 589.57702637 C-1.24882465 587.05647194 -1.25128665 584.53591793 -1.25455457 582.01536512 C-1.25965004 576.51426711 -1.25847247 571.01322429 -1.2518692 565.51212883 C-1.24207712 557.33203596 -1.24367734 549.15197341 -1.2476195 540.97187705 C-1.25390467 527.21289887 -1.25071161 513.4539378 -1.24202538 499.69496155 C-1.23342225 486.06494488 -1.22850495 472.43493589 -1.22869301 458.80491638 C-1.22870065 457.95828623 -1.2287083 457.11165607 -1.22871618 456.23937046 C-1.22875708 452.80295077 -1.22882269 449.36653107 -1.22892199 445.93011138 C-1.22982882 413.66887037 -1.21987177 381.40764108 -1.20449232 349.14640414 C-1.19086766 320.46039402 -1.184631 291.77439223 -1.18530273 263.08837891 C-1.18534315 261.2465627 -1.18538351 259.40474649 -1.18542381 257.56293029 C-1.18544416 256.65238798 -1.18546452 255.74184566 -1.18548548 254.80371116 C-1.18558627 250.2205278 -1.18567686 245.63734444 -1.18575573 241.05416107 C-1.18577244 240.15004451 -1.18578916 239.24592795 -1.18580638 238.31441392 C-1.18617126 214.37159928 -1.18163599 190.42878569 -1.17542917 166.48597193 C-1.17509876 165.20900878 -1.17509876 165.20900878 -1.17476168 163.9062484 C-1.1738734 160.48265095 -1.17298502 157.0590535 -1.17207072 153.63545605 C-1.16890662 141.70638238 -1.16740092 129.77730953 -1.16695923 117.84823547 C-1.16636304 102.47823168 -1.16238675 87.10823477 -1.15252777 71.73823392 C-1.14739971 63.60246481 -1.14500774 55.46670581 -1.14652396 47.33093516 C-1.14734096 41.27116685 -1.14296269 35.21141445 -1.13647345 29.15164906 C-1.13464991 26.68870232 -1.13453965 24.22575365 -1.13624074 21.76280683 C-1.13828536 18.43608918 -1.13427833 15.1094346 -1.12863445 11.78272247 C-1.13171743 10.32107846 -1.13171743 10.32107846 -1.13486269 8.82990628 C-1.13210295 7.95010624 -1.1293432 7.07030619 -1.12649983 6.16384554 C-1.12620833 5.40217169 -1.12591683 4.64049784 -1.1256165 3.85574296 C-1 2 -1 2 0 0 Z M4 6 C4 205.32 4 404.64 4 610 C308.59 610 613.18 610 927 610 C927 410.68 927 211.36 927 6 C622.41 6 317.82 6 4 6 Z " fill="#381D18" transform="translate(17,11)"/>
<path d="M0 0 C1.25490234 0.00386719 2.50980469 0.00773437 3.80273438 0.01171875 C5.11177734 0.03621094 6.42082031 0.06070312 7.76953125 0.0859375 C9.7040918 0.08787109 9.7040918 0.08787109 11.67773438 0.08984375 C28.69073169 0.24632507 28.69073169 0.24632507 34.51953125 4.7109375 C38.62183593 10.18067707 39.07064996 16.25160491 39.73046875 22.8515625 C39.82790878 23.77326233 39.92534882 24.69496216 40.02574158 25.64459229 C40.34310069 28.66603118 40.65038649 31.68839387 40.95703125 34.7109375 C41.17437719 36.80928067 41.39207338 38.90758759 41.61010742 41.00585938 C42.28024942 47.48961057 42.93380296 53.97496244 43.58203125 60.4609375 C43.68553894 61.49532959 43.78904663 62.52972168 43.89569092 63.59545898 C44.57332686 70.38286759 45.23817186 77.17144086 45.89453125 83.9609375 C45.98152283 84.8528479 46.0685144 85.7447583 46.15814209 86.66369629 C46.40343311 89.18951975 46.6439577 91.71574822 46.8828125 94.2421875 C46.99024025 95.34231171 46.99024025 95.34231171 47.09983826 96.46466064 C47.68017121 102.71131594 48.12537084 108.64410781 46.33203125 114.7109375 C46.1 115.54109375 45.86796875 116.37125 45.62890625 117.2265625 C44.32869262 120.00164533 43.19742486 120.8724486 40.58203125 122.4609375 C37.74462891 122.98510742 37.74462891 122.98510742 34.49609375 123.19140625 C33.31789063 123.27197266 32.1396875 123.35253906 30.92578125 123.43554688 C29.69859375 123.50580078 28.47140625 123.57605469 27.20703125 123.6484375 C25.98757813 123.73029297 24.768125 123.81214844 23.51171875 123.89648438 C18.19125043 124.24208248 12.91512417 124.50345419 7.58203125 124.4609375 C6.02027764 120.04728598 4.90814495 115.66857623 3.95703125 111.0859375 C3.69664062 109.84070313 3.43625 108.59546875 3.16796875 107.3125 C2.97460938 106.37148438 2.78125 105.43046875 2.58203125 104.4609375 C0.87636589 107.01943555 -0.32856794 109.3723767 -1.60546875 112.1484375 C-2.52962809 113.92626945 -3.46724723 115.69716724 -4.41796875 117.4609375 C-4.80726563 118.26402344 -5.1965625 119.06710937 -5.59765625 119.89453125 C-7.31336357 122.61349115 -8.59138134 123.88966233 -11.41796875 125.4609375 C-17.02901868 126.2973673 -22.42342237 126.02948838 -28.06982422 125.66259766 C-31.22397986 125.47262153 -34.37628721 125.34543674 -37.53419495 125.23742676 C-40.43802555 125.13397461 -43.34040299 125.00543507 -46.24295044 124.87103271 C-47.68838037 124.80617485 -49.13410548 124.74758069 -50.58004761 124.69537354 C-52.63219153 124.61641426 -54.68030126 124.50565659 -56.73046875 124.38671875 C-58.51904297 124.30031128 -58.51904297 124.30031128 -60.34375 124.2121582 C-64.25645555 123.25604361 -65.28068528 121.79558831 -67.41796875 118.4609375 C-73.39628171 107.26897951 -76.857564 93.12608482 -77.41796875 80.4609375 C-77.48113281 79.51605469 -77.54429687 78.57117188 -77.609375 77.59765625 C-78.13953596 63.5911457 -74.4196826 48.53845357 -65.7578125 37.30859375 C-58.18535682 29.14966087 -47.77359022 26.14307893 -36.921875 25.13671875 C-26.31006581 24.79965143 -18.29379202 26.62727032 -10.23046875 33.7109375 C-8.94437311 34.94522894 -7.66758306 36.18972492 -6.41796875 37.4609375 C-7.55034233 29.42590366 -8.72335373 21.40384654 -10.05078125 13.3984375 C-11.06109624 5.31591761 -11.06109624 5.31591761 -8.80004883 2.31005859 C-5.6964852 -0.09912362 -3.90026127 -0.02819666 0 0 Z " fill="#FEF8F0" transform="translate(498.41796875,360.5390625)"/>
<path d="M0 0 C9.69276024 7.70156746 17.30491667 17.26948345 19.32617188 29.76757812 C19.99028879 38.82539488 19.77838876 47.21923155 16.32617188 55.76757812 C15.76929688 55.00445313 15.21242188 54.24132812 14.63867188 53.45507812 C12.35374542 50.79962306 10.31261068 49.50966743 7.32617188 47.76757812 C7.32617188 47.10757813 7.32617188 46.44757813 7.32617188 45.76757812 C0.53028524 46.00962446 0.53028524 46.00962446 -5.67382812 48.51757812 C-7.7583595 50.86267593 -8.76140769 52.78147488 -9.67382812 55.76757812 C-11.15882813 55.27257812 -11.15882813 55.27257812 -12.67382812 54.76757812 C-12.67382812 54.10757813 -12.67382812 53.44757813 -12.67382812 52.76757812 C-17.94472585 52.78804763 -21.55323417 52.85280755 -25.73632812 56.26757812 C-28.36358234 60.06044512 -28.56376288 64.26490919 -28.67382812 68.76757812 C-29.72570312 68.99445313 -30.77757812 69.22132813 -31.86132812 69.45507812 C-35.97183751 70.69157282 -38.21386594 72.114907 -40.67382812 75.76757812 C-41.50991047 80.22668398 -41.85604538 84.70481284 -39.54101562 88.74414062 C-38.04373029 90.52721786 -38.04373029 90.52721786 -35.67382812 92.76757812 C-35.67382812 93.42757812 -35.67382812 94.08757812 -35.67382812 94.76757812 C-33.69382812 95.09757813 -31.71382812 95.42757812 -29.67382812 95.76757812 C-32.5320804 98.6258304 -35.90885556 98.97329654 -39.73632812 99.83007812 C-40.50984619 100.00635742 -41.28336426 100.18263672 -42.08032227 100.36425781 C-47.26167928 101.51797258 -52.35933241 102.53114988 -57.67382812 102.76757812 C-58.43308594 102.80753906 -59.19234375 102.8475 -59.97460938 102.88867188 C-78.30080457 103.38555436 -96.53509876 98.02956778 -110.48632812 86.01757812 C-117.78335668 79.07447107 -122.07837331 71.452111 -124.67382812 61.76757812 C-124.90070312 60.92195312 -125.12757813 60.07632813 -125.36132812 59.20507812 C-127.15629259 45.20435528 -122.96597933 31.37418186 -114.46923828 20.18066406 C-88.70663077 -11.66519214 -34.84150942 -25.65343342 0 0 Z " fill="#FEF8F0" transform="translate(815.673828125,460.232421875)"/>
<path d="M0 0 C5.88518411 3.65660336 11.69211183 7.32426571 17.140625 11.61328125 C18.97908295 13.04322325 18.97908295 13.04322325 21.046875 14.16796875 C23.01130985 15.31912757 24.50392544 16.28042649 26 18 C26.70161301 21.092944 26.42539142 23.87869042 26 27 C25.9175 27.70511719 25.835 28.41023438 25.75 29.13671875 C25.53883783 30.76332733 25.27523415 32.38299935 25 34 C26.08667969 34.05607422 26.08667969 34.05607422 27.1953125 34.11328125 C38.90987124 34.90987124 38.90987124 34.90987124 43 39 C44.12146635 57.98668612 44.12146635 57.98668612 39.66015625 63.72265625 C36.81997481 65.90792526 33.40542202 65.29711736 30 65 C27.66476815 64.68023796 25.33102787 64.34909113 23 64 C23.14188985 66.54194161 23.28839155 69.08347993 23.4375 71.625 C23.47681641 72.33785156 23.51613281 73.05070312 23.55664062 73.78515625 C23.80309681 77.91803682 24.23470053 81.92269024 25 86 C26.98 85.505 26.98 85.505 29 85 C29.01417969 84.25234375 29.02835938 83.5046875 29.04296875 82.734375 C29.09066406 81.74953125 29.13835938 80.7646875 29.1875 79.75 C29.22230469 78.77546875 29.25710938 77.8009375 29.29296875 76.796875 C30 74 30 74 32.046875 71.6953125 C35.70969512 69.59258243 38.93637821 69.26115067 43.0625 69.125 C43.76955078 69.07859375 44.47660156 69.0321875 45.20507812 68.984375 C48.96950993 68.80057176 51.87966723 68.74340024 55 71 C57.57461557 76.14923114 56.36895716 83.52309893 55 88.9375 C49.90933249 103.90025637 38.71199998 113.23370468 25 120 C25.74443359 120.4021875 25.74443359 120.4021875 26.50390625 120.8125 C32.47566219 124.25730798 37.86060205 128.7212041 41 135 C41.38292891 138.44636019 41.38121228 140.37394406 39.55859375 143.3671875 C36.07389011 146.95297415 32.1447349 148.99496402 27.75 151.3125 C26.90953125 151.76689453 26.0690625 152.22128906 25.203125 152.68945312 C23.1406507 153.8027205 21.07101511 154.9027029 19 156 C19 158.97 19 161.94 19 165 C20.29244623 164.00100775 21.58389161 163.00072069 22.875 162 C23.69742188 161.36449219 24.51984375 160.72898437 25.3671875 160.07421875 C27.10195537 158.70750994 28.81641774 157.31456517 30.5078125 155.89453125 C36.45519088 150.92595339 42.27369793 146.08917551 50.3125 145.9375 C54.68414471 147.66582465 56.28157163 150.49130043 58.25 154.625 C60.00699496 162.5314773 59.89071225 170.77439153 56 178 C52.65432755 182.95997482 48.94326733 187.50555984 45 192 C44.39978027 192.68626465 43.79956055 193.3725293 43.18115234 194.07958984 C41.30012458 196.19118579 39.37919925 198.25667033 37.4375 200.3125 C36.84936523 200.96492676 36.26123047 201.61735352 35.65527344 202.28955078 C31.49573891 206.54129174 28.26515675 207.88900085 22.30444336 208.09790039 C11.97212057 207.65894908 2.63720516 200.83470112 -4.29296875 193.609375 C-15.59544858 180.12273866 -19.33764236 164.39222105 -18.21582031 147.03222656 C-17.36761789 139.04530691 -15.01960497 131.45964172 -9 126 C-6.71462182 124.49069816 -4.44807626 123.24803888 -2 122 C-2.763125 121.195625 -3.52625 120.39125 -4.3125 119.5625 C-10.61146002 111.8703086 -10.4508165 102.91115454 -10.3125 93.375 C-10.30412109 92.13911133 -10.29574219 90.90322266 -10.28710938 89.62988281 C-10.1730838 80.95253657 -9.62476024 72.52999129 -8 64 C-9.62808594 64.03673828 -9.62808594 64.03673828 -11.2890625 64.07421875 C-15.44500256 63.99109995 -17.59020578 63.35438172 -21 61 C-22.51438304 55.84347129 -21.76195849 50.89085873 -21.25 45.625 C-21.17523437 44.70460937 -21.10046875 43.78421875 -21.0234375 42.8359375 C-20.50485473 37.33581725 -19.67375157 32.86911132 -17 28 C-12.29509615 26.18219624 -8.65267877 27.41808922 -4 29 C-3.95101562 28.15179688 -3.90203125 27.30359375 -3.8515625 26.4296875 C-2.31455399 2.31455399 -2.31455399 2.31455399 0 0 Z " fill="#FEF8F0" transform="translate(670,209)"/>
<path d="M0 0 C3.6054643 0.94428827 4.36921236 3.05014967 6.20703125 6.12719727 C8.98942847 11.15112971 11.46528078 16.31825254 13.9375 21.5 C14.48728516 22.63115234 15.03707031 23.76230469 15.60351562 24.92773438 C16.12236328 26.00990234 16.64121094 27.09207031 17.17578125 28.20703125 C17.64669189 29.18776611 18.11760254 30.16850098 18.6027832 31.17895508 C19.625 33.6875 19.625 33.6875 19.625 36.6875 C23.2921255 35.89794911 26.95861312 35.1054731 30.625 34.3125 C31.65496094 34.09078125 32.68492187 33.8690625 33.74609375 33.640625 C38.23718436 32.66803213 42.71667167 31.68533703 47.16796875 30.54296875 C54.83205137 28.64643305 54.83205137 28.64643305 58.5625 30.8125 C60.21338202 33.7258212 59.49483301 35.51222465 58.625 38.6875 C56.40234375 41.43359375 56.40234375 41.43359375 53.5625 44.125 C53.07096436 44.59655518 52.57942871 45.06811035 52.07299805 45.55395508 C48.03947923 49.39349801 43.88984208 53.10698788 39.625 56.6875 C43.29334414 64.39935983 47.33894401 71.63064823 51.98828125 78.77734375 C53.55128587 81.55643311 54.37455798 83.52430837 54.625 86.6875 C53.1875 89.0625 53.1875 89.0625 50.625 90.6875 C44.12469094 90.26992126 38.46362103 88.48660302 32.36132812 86.328125 C26.9621057 84.4710748 26.9621057 84.4710748 21.625 85.6875 C19.78959175 87.83569487 18.28333935 89.84264232 16.75 92.1875 C15.87326502 93.46153607 14.9956583 94.73497269 14.1171875 96.0078125 C13.28542174 97.23367229 12.45462594 98.46019102 11.625 99.6875 C5.66514273 108.45199599 5.66514273 108.45199599 1.3125 109.4375 C-1.375 108.6875 -1.375 108.6875 -3.375 105.6875 C-4.45889567 101.72860848 -4.49067186 97.94501284 -4.47265625 93.85546875 C-4.46943359 92.56318359 -4.46621094 91.27089844 -4.46289062 89.93945312 C-4.45453665 88.58463474 -4.44607172 87.22981703 -4.4375 85.875 C-4.43248 84.50065265 -4.42791797 83.12630355 -4.42382812 81.75195312 C-4.41205668 78.39709076 -4.39561283 75.04231779 -4.375 71.6875 C-4.95290283 71.63634033 -5.53080566 71.58518066 -6.1262207 71.5324707 C-14.94324755 70.66762745 -24.58500474 68.74344172 -31.375 62.6875 C-32.5625 60.25 -32.5625 60.25 -32.375 57.6875 C-29.27408935 53.2428614 -26.13963103 52.00415997 -21.046875 51.046875 C-17.16381714 50.52459236 -13.27071489 50.10346522 -9.375 49.6875 C-8.88917395 45.20903393 -8.41163893 40.72971572 -7.9375 36.25 C-7.83187744 35.25966766 -7.83187744 35.25966766 -7.72412109 34.24932861 C-6.74865143 25.06057255 -6.00433326 15.91905261 -5.78125 6.6796875 C-5.375 3.6875 -5.375 3.6875 -3.9921875 1.80078125 C-2.375 0.6875 -2.375 0.6875 0 0 Z " fill="#FEF8F0" transform="translate(163.375,112.3125)"/>
<path d="M0 0 C2.875 1.5 2.875 1.5 5 4 C6.12180186 8.72759354 6.12180186 8.72759354 5 12 C2.93576998 14.42208808 0.6847162 16.49131345 -1.66796875 18.6328125 C-7.32538275 24.37551415 -9.76298312 31.57568488 -10.1875 39.5 C-10.00245993 42.9540813 -9.73456585 45.02645854 -8 48 C-5.48635244 49.82619087 -5.48635244 49.82619087 -3 51 C-2.90203125 50.35933594 -2.8040625 49.71867188 -2.703125 49.05859375 C-1.45203165 41.82166586 0.09120439 36.70102449 5.625 31.5625 C10.72609032 29.20088411 15.68239669 28.87944328 21.05859375 30.6953125 C25.3918107 32.91317408 27.94569573 35.64487494 30 40 C31.26232535 46.20444819 29.60321593 51.22593975 26.64453125 56.69140625 C24.04935518 60.33451565 20.78719523 62.68821333 17 65 C18.36640159 68.17951138 18.86024004 68.91847336 22 70.75 C27.71759432 72.92244711 33.56696107 72.82631511 39.3125 70.875 C42.59378536 68.58573115 44.52640286 66.14213691 47 63 C50.6441774 60.5705484 52.71241272 60.83820425 57 61 C57 61.66 57 62.32 57 63 C58.485 63.495 58.485 63.495 60 64 C61.5547669 67.10953379 61.28644437 69.56266761 61 73 C57.43864251 80.12271499 51.21811569 85.37140738 43.9375 88.4375 C34.29005321 91.52842955 23.77358057 91.28945994 14.43359375 87.3203125 C8.4870318 84.09408788 4.54118205 80.52612803 1.8125 74.3125 C0.2256149 71.11713953 -0.58110837 70.17968542 -3.9140625 68.75 C-6.19294829 68.12134185 -8.47840957 67.51608231 -10.76953125 66.93359375 C-16.47385357 65.28506529 -20.31915745 62.58655972 -23.55859375 57.6015625 C-25.90198868 53.18031315 -27.68508287 49.03867401 -28 44 C-28.05027344 43.28585937 -28.10054687 42.57171875 -28.15234375 41.8359375 C-28.64011763 29.54403571 -24.79530456 17.74106607 -16.75 8.3828125 C-7.69327982 -0.94203426 -7.69327982 -0.94203426 0 0 Z " fill="#FEF8F0" transform="translate(172,472)"/>
<path d="M0 0 C6.39232513 6.24366641 8.19865056 16.34542605 9 25 C8.6875 27.625 8.6875 27.625 7.625 29.5625 C5.6875 30.625 5.6875 30.625 2.1875 30.75 C-1.3125 29.625 -1.3125 29.625 -3.125 26.8125 C-4.89104332 21.60158207 -5.55449527 16.05588097 -6.3125 10.625 C-6.9725 10.955 -7.6325 11.285 -8.3125 11.625 C-8.34988281 12.81738281 -8.38726563 14.00976562 -8.42578125 15.23828125 C-8.49144032 16.804719 -8.55788768 18.37112384 -8.625 19.9375 C-8.64755859 20.72318359 -8.67011719 21.50886719 -8.69335938 22.31835938 C-8.72880859 23.07568359 -8.76425781 23.83300781 -8.80078125 24.61328125 C-8.82696533 25.30977783 -8.85314941 26.00627441 -8.88012695 26.72387695 C-9.44225616 29.19553146 -10.2881339 30.12569745 -12.3125 31.625 C-15.8125 31.625 -15.8125 31.625 -19.3125 30.625 C-21.25 28.0625 -21.25 28.0625 -22.3125 25.625 C-22.60125 26.90375 -22.89 28.1825 -23.1875 29.5 C-23.85352483 32.44953855 -24.11452597 33.42702597 -26.3125 35.625 C-31.48591641 36.17536345 -31.48591641 36.17536345 -33.8671875 34.58984375 C-36.03092268 31.64833349 -36.68020404 28.37109482 -37.5 24.875 C-37.67724609 24.1840625 -37.85449219 23.493125 -38.03710938 22.78125 C-40.68809997 11.89069406 -40.68809997 11.89069406 -38.25 7.875 C-32.43684102 4.12457485 -28.1249009 3.17083994 -21.3125 3.625 C-20.3225 3.955 -19.3325 4.285 -18.3125 4.625 C-18.065 4.00625 -17.8175 3.3875 -17.5625 2.75 C-13.96001576 -3.37422321 -5.69334479 -2.3632752 0 0 Z " fill="#FEF8F0" transform="translate(806.3125,92.375)"/>
<path d="M0 0 C5.17755262 7.76632893 5.28987239 19.47567415 5.375 28.625 C5.38869629 29.37015869 5.40239258 30.11531738 5.41650391 30.88305664 C5.37647049 35.66055748 4.53798889 38.95489182 2 43 C-2.55463783 46.91910697 -6.15539966 47.81146451 -12 48 C-14.4375 47.5 -14.4375 47.5 -16 46 C-17.60150376 40.12781955 -17.60150376 40.12781955 -16 37.125 C-13.1035018 35.49571976 -10.27425012 35.30889152 -7 35 C-7.33 32.36 -7.66 29.72 -8 27 C-9.051875 26.938125 -10.10375 26.87625 -11.1875 26.8125 C-15.77683376 25.83444526 -17.1345398 24.66142136 -20 21 C-22.57452173 16.20606299 -23.6277551 12.44054416 -23 7 C-21.9375 5 -21.9375 5 -20 4 C-16.4375 4.0625 -16.4375 4.0625 -13 5 C-11.5625 7.0625 -11.5625 7.0625 -11 9 C-10.896875 7.906875 -10.79375 6.81375 -10.6875 5.6875 C-10 2 -10 2 -8.875 0 C-5.75687573 -1.66299961 -3.31216241 -0.84309589 0 0 Z " fill="#FEF7EF" transform="translate(731,103)"/>
<path d="M0 0 C3.8033337 2.11296316 5.87206807 4.63982671 7.43359375 8.7265625 C8.6699888 13.68919643 9.14998935 18.89321958 9 24 C7 26 7 26 4.5625 26.3125 C2 26 2 26 0.3125 24.9375 C-2.76845264 20.38942705 -3.26175362 15.36594924 -3 10 C-3.99 10.495 -3.99 10.495 -5 11 C-5.25635503 13.30428213 -5.40592533 15.62091113 -5.5 17.9375 C-5.77836691 24.77836691 -5.77836691 24.77836691 -8 27 C-10.4375 27.3125 -10.4375 27.3125 -13 27 C-14.8125 25.5 -14.8125 25.5 -16 24 C-16.99 25.98 -17.98 27.96 -19 30 C-21.8125 30.3125 -21.8125 30.3125 -25 30 C-29.19297691 25.34113677 -30.70933035 17.6644718 -31.375 11.5625 C-31 9 -31 9 -29.875 7.25 C-25.98518327 4.65678885 -22.01152688 3.95064538 -17.4375 3.5625 C-14.40154479 3.28926403 -13.10109587 3.06164382 -10.4375 1.4375 C-6.95979796 -0.61345248 -3.94262343 -0.70375428 0 0 Z " fill="#FEF5ED" transform="translate(842,129)"/>
<path d="M0 0 C2.5 -0.375 2.5 -0.375 5 0 C7.42130331 3.63195496 7.21022785 5.38349348 7.125 9.6875 C7.10695312 10.86699219 7.08890625 12.04648438 7.0703125 13.26171875 C7.04710937 14.16535156 7.02390625 15.06898437 7 16 C7.639375 16.28875 8.27875 16.5775 8.9375 16.875 C11 18 11 18 12 20 C14.06102235 20.39138678 14.06102235 20.39138678 16.4375 20.5 C20.7787307 20.7787307 20.7787307 20.7787307 23 23 C22.625 25.625 22.625 25.625 22 28 C20.453125 28.433125 20.453125 28.433125 18.875 28.875 C12.98807891 30.14266733 12.98807891 30.14266733 8 33 C7.78619142 34.3880854 7.62975151 35.78514471 7.5 37.18359375 C7.4175 38.02857422 7.335 38.87355469 7.25 39.74414062 C7.1675 40.63294922 7.085 41.52175781 7 42.4375 C6.83694327 44.18653822 6.67043929 45.93525951 6.5 47.68359375 C6.4278125 48.46275146 6.355625 49.24190918 6.28125 50.04467773 C6 52 6 52 5 54 C3.00045254 54.04254356 0.99958364 54.04080783 -1 54 C-2.57615301 52.42384699 -2.18230442 50.78346103 -2.24609375 48.59765625 C-2.27896484 47.70755859 -2.31183594 46.81746094 -2.34570312 45.90039062 C-2.40677086 44.01248816 -2.46407887 42.12446023 -2.51757812 40.23632812 C-2.56881836 38.89924805 -2.56881836 38.89924805 -2.62109375 37.53515625 C-2.6461499 36.714104 -2.67120605 35.89305176 -2.69702148 35.04711914 C-2.82513388 32.77755847 -2.82513388 32.77755847 -5 31 C-7.59706093 30.61195187 -7.59706093 30.61195187 -10.5 30.5 C-15.77777778 30.22222222 -15.77777778 30.22222222 -18 28 C-17.9375 25.5 -17.9375 25.5 -17 23 C-13.38684234 20.83210541 -10.14058636 20.80741459 -6 21 C-5.690625 20.360625 -5.38125 19.72125 -5.0625 19.0625 C-4 17 -4 17 -3 16 C-2.71390984 12.70315145 -2.55109853 9.40618875 -2.37890625 6.1015625 C-2 3 -2 3 0 0 Z " fill="#FEF7EF" transform="translate(240,57)"/>
<path d="M0 0 C4.55555556 0.55555556 4.55555556 0.55555556 6 2 C6.13577734 5.33785958 6.24796729 8.669099 6.25390625 12.00976562 C6.39069504 15.94424314 6.59375474 17.6097235 9.484375 20.38671875 C10.31453125 20.91910156 11.1446875 21.45148438 12 22 C12.33 22.66 12.66 23.32 13 24 C15.35599235 24.46751788 15.35599235 24.46751788 18.0625 24.625 C18.98160156 24.69976562 19.90070312 24.77453125 20.84765625 24.8515625 C21.55792969 24.90054687 22.26820313 24.94953125 23 25 C23.495 27.475 23.495 27.475 24 30 C20.98111014 32.01259324 20.06143424 32.26543111 16.625 32.5 C13.08633345 32.81749863 10.23286312 33.43571139 7 35 C7.165 36.11375 7.33 37.2275 7.5 38.375 C8.09440124 43.19912604 8.53125516 48.15567333 8 53 C7.34 53.66 6.68 54.32 6 55 C3.4375 54.75 3.4375 54.75 1 54 C-0.65497356 50.69005287 -0.10084335 47.00877 -0.0625 43.375 C-0.05798828 42.57320313 -0.05347656 41.77140625 -0.04882812 40.9453125 C-0.03703168 38.96350994 -0.01909605 36.98174567 0 35 C-1.58941406 34.81824219 -1.58941406 34.81824219 -3.2109375 34.6328125 C-4.59901324 34.46399248 -5.98703119 34.29469692 -7.375 34.125 C-8.07367187 34.04636719 -8.77234375 33.96773438 -9.4921875 33.88671875 C-14.7734375 33.2265625 -14.7734375 33.2265625 -17 31 C-16.625 28.375 -16.625 28.375 -16 26 C-15.32453125 25.91363281 -14.6490625 25.82726562 -13.953125 25.73828125 C-13.06109375 25.59777344 -12.1690625 25.45726562 -11.25 25.3125 C-10.36828125 25.18488281 -9.4865625 25.05726563 -8.578125 24.92578125 C-5.00206719 23.6416514 -3.87383436 22.30317778 -2 19 C-1.58866382 16.07973035 -1.71052505 13.25062066 -1.875 10.3125 C-2.00079715 7.5239966 -2.04089665 4.79557841 -2 2 C-1.34 1.34 -0.68 0.68 0 0 Z " fill="#FEF7EF" transform="translate(838,384)"/>
<path d="M0 0 C4.14614352 1.50768855 7.00074732 3.00149463 9 7 C10.52030135 13.06942011 10.24639128 17.48113482 7 23 C2.69046367 27.1990354 -0.08079872 27.87814595 -5.9375 28.25 C-11.02408726 28.16506626 -13.61665865 26.27117854 -17.3125 22.875 C-19.68702497 18.82951301 -19.89173979 15.58064628 -19 11 C-14.98410848 1.84122764 -9.84039325 -1.15037773 0 0 Z " fill="#FEF8F0" transform="translate(271,492)"/>
<path d="M0 0 C3.35908763 0.48986695 3.97702609 0.83734991 6 3.4375 C6.6953125 5.7421875 6.6953125 5.7421875 7.125 8.3125 C7.27195312 9.15554687 7.41890625 9.99859375 7.5703125 10.8671875 C7.71210937 11.71539062 7.85390625 12.56359375 8 13.4375 C8.26683594 14.69046875 8.26683594 14.69046875 8.5390625 15.96875 C8.98788911 18.37263489 9.19963096 20.61960158 9.25 23.0625 C9.27578125 23.81789063 9.3015625 24.57328125 9.328125 25.3515625 C9 27.4375 9 27.4375 7.875 29.1484375 C3.64152483 32.05895168 -2.04056884 31.72465645 -7 31.4375 C-11.46975594 29.83731199 -13.94911061 26.84385791 -16.375 22.875 C-18.77432383 17.79950728 -19.4129796 14.11596956 -19 8.4375 C-17.9375 6.4375 -17.9375 6.4375 -16 5.4375 C-12.3125 5.75 -12.3125 5.75 -9 6.4375 C-8.01 9.0775 -7.02 11.7175 -6 14.4375 C-6.03480469 13.76203125 -6.06960938 13.0865625 -6.10546875 12.390625 C-6.13253906 11.49859375 -6.15960937 10.6065625 -6.1875 9.6875 C-6.23970703 8.36492187 -6.23970703 8.36492187 -6.29296875 7.015625 C-5.79979699 2.67571348 -4.34848767 0.63415445 0 0 Z " fill="#FEF7EF" transform="translate(758,101.5625)"/>
<path d="M0 0 C5.67414181 5.67414181 4.24774923 19.23641073 4.36328125 26.84375 C3.83252411 31.45505934 2.35340214 34.83994102 -1.1875 37.875 C-5.10629867 39.44251947 -7.78722288 39.41437152 -12 39 C-14.14915785 35.77626323 -14.38286803 34.73296326 -14 31 C-11.4345406 28.4345406 -9.52313332 28.45953913 -6 28 C-6 26.02 -6 24.04 -6 22 C-7.0725 21.9175 -8.145 21.835 -9.25 21.75 C-13.38026725 20.92394655 -14.55823172 20.3461269 -17 17 C-18.77421438 12.91930694 -19.40360289 9.43963178 -19 5 C-17 3 -17 3 -14.5625 2.625 C-12 3 -12 3 -10.1875 5 C-9.795625 5.66 -9.40375 6.32 -9 7 C-8.67 4.69 -8.34 2.38 -8 0 C-4.67679974 -1.10773342 -3.30835256 -0.93312508 0 0 Z " fill="#FEF5ED" transform="translate(782,139)"/>
<path d="M0 0 C3.07921132 -0.25660094 5.21136993 -0.39431504 8 1 C10.16824224 7.7732705 11.78994382 14.89050561 11 22 C9.84375 23.6796875 9.84375 23.6796875 8 25 C2.60665922 25.92193859 -2.38672272 26.07551818 -7 23 C-13.08888889 13.86666667 -13.08888889 13.86666667 -12.8125 8.0625 C-12 5 -12 5 -11 4 C-8.625 3.6875 -8.625 3.6875 -6 4 C-3.80137805 6.27714416 -3.00692101 7.97923697 -2 11 C-2.061875 9.1128125 -2.061875 9.1128125 -2.125 7.1875 C-2.2390374 3.70935927 -2.05925681 3.08888522 0 0 Z " fill="#FEF4EC" transform="translate(801,138)"/>
<path d="M0 0 C3.0625 0.3125 3.0625 0.3125 4.62109375 1.39453125 C9.40966954 7.7663218 11.65224984 21.43512717 11.0625 29.3125 C9.4375 32.0625 9.4375 32.0625 7.0625 33.3125 C4.5 33.3125 4.5 33.3125 2.0625 32.3125 C-1.50827485 28.74172515 -2.12397661 24.33001994 -3.125 19.5625 C-3.30224609 18.7890625 -3.47949219 18.015625 -3.66210938 17.21875 C-4.76290234 12.15255228 -5.28583539 7.49755789 -4.9375 2.3125 C-2.9375 0.3125 -2.9375 0.3125 0 0 Z " fill="#FEF8F0" transform="translate(824.9375,62.6875)"/>
<path d="M0 0 C3.22268106 2.65871188 3.8899365 4.32738971 4.5625 8.4375 C3.82867489 13.08505904 2.53288781 14.90872317 -1 18 C-3.77105953 19.12094195 -6.03924377 19.42708764 -9 19 C-11.99301033 17.72180108 -12.82256785 16.66735438 -15 14 C-15.79759824 11.14815592 -15.78971788 8.85336023 -15 6 C-10.720724 0.70721127 -6.82686602 -1.17378922 0 0 Z " fill="#FEF7EF" transform="translate(302,531)"/>
<path d="M0 0 C0.53625 0.474375 1.0725 0.94875 1.625 1.4375 C1.25765306 7.80484694 1.25765306 7.80484694 -1.75 10.8125 C-6.18208979 13.55617463 -10.26123243 13.9647951 -15.375 13.4375 C-18.375 12.375 -18.375 12.375 -20.375 10.4375 C-21 7 -21 7 -20.375 3.4375 C-15.11294132 -2.46238398 -6.76780292 -4.45250192 0 0 Z " fill="#F59694" transform="translate(772.375,499.5625)"/>
<path d="M0 0 C2.55746092 1.23748109 2.8772462 2.32972681 3.9375 4.9375 C5.14603933 11.97211098 5.67685837 19.83214077 4.9375 26.9375 C4.2775 27.5975 3.6175 28.2575 2.9375 28.9375 C0.3125 28.5625 0.3125 28.5625 -2.0625 27.9375 C-4.95325102 20.42154735 -6.27787479 10.95318609 -5.0625 2.9375 C-2.72667236 -0.08262644 -2.72667236 -0.08262644 0 0 Z " fill="#FEF7EF" transform="translate(851.0625,72.0625)"/>
<path d="M0 0 C4.74927324 2.30678986 7.71284652 5.28494514 10 10 C11.30514028 15.02956499 11.48991931 18.76455132 9.5625 23.625 C9.046875 24.40875 8.53125 25.1925 8 26 C6.68 26 5.36 26 4 26 C-0.50275577 18.63940662 -2.4753471 11.69032009 -2 3 C-1.34 2.01 -0.68 1.02 0 0 Z " fill="#F59694" transform="translate(375,221)"/>
<path d="M0 0 C1.9375 1.625 1.9375 1.625 3 4 C2.92818703 7.51883536 2.62670668 9.30614617 0.25 11.9375 C-2.63758514 13.30108187 -4.01416183 13.02147095 -7 12 C-9 10 -9 10 -9.3125 6.5625 C-9 3 -9 3 -7.875 1.0625 C-5.07837528 -0.52225401 -3.1506804 -0.45947423 0 0 Z " fill="#F59694" transform="translate(466,435)"/>
<path d="M0 0 C1.32850242 6.40096618 1.32850242 6.40096618 -0.0625 8.9375 C-2.82668977 10.45334601 -4.90228335 10.32954432 -8 10 C-10 8 -10 8 -10.3125 5.0625 C-10 2 -10 2 -8.9375 0.0625 C-5.87530347 -1.61676907 -3.30629059 -0.68621125 0 0 Z " fill="#F59694" transform="translate(289,264)"/>
<path d="M0 0 C3 0.25 3 0.25 5 2.25 C5.25 5.25 5.25 5.25 5 8.25 C3 10.25 3 10.25 0 10.4375 C-3 10.25 -3 10.25 -5 9.25 C-5.125 5.875 -5.125 5.875 -5 2.25 C-3 0.25 -3 0.25 0 0 Z " fill="#FDE9E2" transform="translate(835,103.75)"/>
<path d="M0 0 C3.41021743 0.78697325 6.68885166 1.87119943 10 3 C9.1875 4.9375 9.1875 4.9375 8 7 C5.11788698 7.96070434 3.30149956 8.10581883 0.3125 8.0625 C-0.89986328 8.04896484 -0.89986328 8.04896484 -2.13671875 8.03515625 C-3.05904297 8.01775391 -3.05904297 8.01775391 -4 8 C-2.87548273 5.0280615 -1.77706209 2.66559313 0 0 Z " fill="#F59694" transform="translate(309,305)"/>
<path d="M0 0 C2.125 0.375 2.125 0.375 4 1 C4.625 3.375 4.625 3.375 5 6 C4.34 6.66 3.68 7.32 3 8 C0.875 7.625 0.875 7.625 -1 7 C-1.625 4.625 -1.625 4.625 -2 2 C-1.34 1.34 -0.68 0.68 0 0 Z " fill="#FDE6DF" transform="translate(853,108)"/>
<path d="M0 0 C0.66 0 1.32 0 2 0 C2.6700834 2.12392506 3.33596797 4.24917524 4 6.375 C4.37125 7.55835938 4.7425 8.74171875 5.125 9.9609375 C6 13 6 13 6 15 C5.34 15 4.68 15 4 15 C3.67 15.99 3.34 16.98 3 18 C2.01 12.06 1.02 6.12 0 0 Z " fill="#F59D9A" transform="translate(809,141)"/>
<path d="M0 0 C1.32 0.33 2.64 0.66 4 1 C3.67 2.32 3.34 3.64 3 5 C1.35 5 -0.3 5 -2 5 C-1.34 3.35 -0.68 1.7 0 0 Z " fill="#F59896" transform="translate(679,346)"/>
</svg>
