<?xml version="1.0" encoding="UTF-8"?>
<svg version="1.1" xmlns="http://www.w3.org/2000/svg" width="1280" height="1280">
<path d="M0 0 C422.4 0 844.8 0 1280 0 C1280 422.4 1280 844.8 1280 1280 C1271 1280 1271 1280 1267.9609375 1277.65625 C1267.07281812 1276.62613768 1266.21130571 1275.57260439 1265.375 1274.5 C1264.67818115 1273.67459717 1264.67818115 1273.67459717 1263.96728516 1272.83251953 C1263.04304517 1271.73480384 1262.12909567 1270.62832659 1261.2265625 1269.51269531 C1259.66319203 1267.58462138 1258.02395296 1265.73007208 1256.375 1263.875 C1255.83359375 1263.24980469 1255.2921875 1262.62460938 1254.734375 1261.98046875 C1252.72735462 1259.68866845 1250.67597149 1257.44003248 1248.625 1255.1875 C1244.61063671 1250.74913241 1240.84122825 1246.14615943 1237.0859375 1241.48828125 C1235.28809022 1239.34365818 1233.44912089 1237.37828917 1231.4375 1235.4375 C1230.633125 1234.633125 1229.82875 1233.82875 1229 1233 C1229 1232.34 1229 1231.68 1229 1231 C1228.44957031 1230.78601562 1227.89914062 1230.57203125 1227.33203125 1230.3515625 C1224.20913922 1228.54164518 1222.05185142 1226.04903252 1219.6875 1223.375 C1219.20692139 1222.83955566 1218.72634277 1222.30411133 1218.23120117 1221.75244141 C1217.26694945 1220.67595472 1216.30539237 1219.59704765 1215.34667969 1218.515625 C1214.14964961 1217.16842364 1212.93904355 1215.8333125 1211.7265625 1214.5 C1211.09492187 1213.79875 1210.46328125 1213.0975 1209.8125 1212.375 C1209.26207031 1211.76398438 1208.71164062 1211.15296875 1208.14453125 1210.5234375 C1207 1209 1207 1209 1207 1207 C1202.08346384 1209.54172328 1198.62083531 1213.13962934 1194.79296875 1217.046875 C1194.10874344 1217.73630188 1193.42451813 1218.42572876 1192.71955872 1219.13604736 C1190.53738039 1221.33598213 1188.3620031 1223.5424805 1186.1875 1225.75 C1184.02289268 1227.94239897 1181.85678206 1230.13325637 1179.68757629 1232.32110596 C1178.34119251 1233.6795571 1176.99748667 1235.04066995 1175.6570282 1236.40496826 C1171.87758334 1240.22397457 1167.97223626 1243.81170985 1163.90483093 1247.32125854 C1161.04878972 1249.83830859 1158.37615191 1252.51806605 1155.70703125 1255.23046875 C1155.15311203 1255.78817459 1154.59919281 1256.34588043 1154.02848816 1256.92048645 C1152.28732095 1258.67369614 1150.54949258 1260.43015488 1148.8125 1262.1875 C1146.5094642 1264.51727457 1144.20302912 1266.84360767 1141.89453125 1269.16796875 C1141.37671585 1269.69408249 1140.85890045 1270.22019623 1140.32539368 1270.76225281 C1132.52964876 1278.61008953 1132.52964876 1278.61008953 1127.8125 1279.8125 C1121.72063067 1278.51423276 1118.34156367 1274.27617867 1114 1270 C1112.40358472 1268.55389655 1110.79944642 1267.11627069 1109.1875 1265.6875 C1104.18179744 1261.18315106 1099.23620805 1256.6155375 1094.29296875 1252.04296875 C1089.7073279 1247.80209267 1085.09955083 1243.58545151 1080.49267578 1239.36767578 C1078.97185124 1237.97420848 1077.45252676 1236.57912249 1075.93359375 1235.18359375 C1072.95954461 1232.45154128 1069.98049297 1229.72502214 1067 1227 C1066.14535156 1226.21625 1065.29070312 1225.4325 1064.41015625 1224.625 C1060.04643862 1220.65422377 1055.62265658 1216.75604022 1051.125 1212.9375 C1050.24070312 1212.18339844 1049.35640625 1211.42929688 1048.4453125 1210.65234375 C1045.93949106 1208.62674535 1045.93949106 1208.62674535 1042 1209 C1040.29319053 1210.62553283 1038.62339805 1212.29115995 1037 1214 C1036.34 1214 1035.68 1214 1035 1214 C1035 1214.66 1035 1215.32 1035 1216 C1033.51339722 1217.46412659 1033.51339722 1217.46412659 1031.46826172 1219.15844727 C1027.26372901 1222.73563169 1023.37407349 1226.52846282 1019.5078125 1230.46484375 C1018.13033556 1231.85494379 1016.75272777 1233.24491418 1015.375 1234.63476562 C1013.23346234 1236.80129119 1011.09357827 1238.96940629 1008.95605469 1241.13989258 C1006.8734444 1243.25251779 1004.78481011 1245.35903353 1002.6953125 1247.46484375 C1002.05264435 1248.12097153 1001.4099762 1248.7770993 1000.74783325 1249.45310974 C1000.15316254 1250.05115921 999.55849182 1250.64920868 998.94580078 1251.26538086 C998.42365997 1251.7949791 997.90151917 1252.32457733 997.36355591 1252.870224 C996 1254 996 1254 994 1254 C993.67 1254.99 993.34 1255.98 993 1257 C991.6796875 1258.296875 991.6796875 1258.296875 989.875 1259.75 C986.84790902 1262.26893311 984.0968107 1264.91739364 981.4140625 1267.79296875 C980.77098145 1268.47198242 980.12790039 1269.15099609 979.46533203 1269.85058594 C978.17096636 1271.22502541 976.89269218 1272.61482684 975.63232422 1274.02050781 C972.72277186 1277.07665065 970.38126465 1279.4566045 966.0546875 1279.90625 C960.56478212 1279.36803703 957.2791814 1275.33702494 953.625 1271.5625 C952.1269776 1270.08264921 950.62828366 1268.60347789 949.12890625 1267.125 C948.41621582 1266.40957031 947.70352539 1265.69414063 946.96923828 1264.95703125 C944.56844165 1262.57111682 942.09390517 1260.30907194 939.5625 1258.0625 C938.80066406 1257.38316406 938.03882813 1256.70382812 937.25390625 1256.00390625 C936.51011719 1255.34261719 935.76632812 1254.68132812 935 1254 C933.33241669 1252.50101911 931.66577024 1251.00099544 930 1249.5 C927.52497766 1247.27170886 925.04928246 1245.0442116 922.5703125 1242.8203125 C917.97969297 1238.69902148 913.41558619 1234.55120059 908.875 1230.375 C904.96678601 1226.78200428 901.03314695 1223.22677118 897.00390625 1219.76953125 C895.4595383 1218.40579113 893.95345778 1216.99860906 892.46484375 1215.57421875 C891.58957031 1214.74535156 890.71429687 1213.91648437 889.8125 1213.0625 C889.01457031 1212.29035156 888.21664062 1211.51820312 887.39453125 1210.72265625 C884.61563459 1208.72348263 883.34624751 1208.54825659 880 1209 C877.74867483 1209.91568906 877.74867483 1209.91568906 876 1211 C876 1211.66 876 1212.32 876 1213 C874.63671875 1214.33984375 874.63671875 1214.33984375 872.6875 1215.9375 C868.59520353 1219.40689825 864.83695919 1223.13029463 861.07128906 1226.94873047 C857.84764481 1230.19803002 854.50747387 1233.22368792 851.02734375 1236.19140625 C847.68256946 1239.17528004 844.58664843 1242.40619732 841.4375 1245.59375 C838.74716094 1248.24959753 835.93426475 1250.70135432 833.0625 1253.15625 C829.71511346 1256.1486107 826.61141114 1259.38107536 823.45703125 1262.57421875 C820.65041839 1265.34513542 817.73886666 1267.93566852 814.7109375 1270.4609375 C812.77525747 1272.10061034 812.77525747 1272.10061034 810.8125 1274.9375 C806.1057062 1278.38914878 800.63949309 1277.3715625 795 1277 C795.06944824 1276.25073242 795.13889648 1275.50146484 795.21044922 1274.72949219 C794.94766056 1271.32116601 794.13044821 1270.58809749 791.6328125 1268.328125 C790.91681885 1267.66820557 790.2008252 1267.00828613 789.46313477 1266.32836914 C788.69155029 1265.64250732 787.91996582 1264.95664551 787.125 1264.25 C786.34503662 1263.5377124 785.56507324 1262.8254248 784.76147461 1262.09155273 C782.5188258 1260.04822979 780.26142421 1258.02249319 778 1256 C776.99765401 1255.09099353 775.99616591 1254.18103875 774.99609375 1253.26953125 C772.67620583 1251.16562006 770.34118965 1249.08015108 768 1247 C760.82096699 1240.57914869 753.72805659 1234.07047127 746.65673828 1227.53173828 C743.96102209 1225.0394124 741.26375897 1222.54881825 738.5625 1220.0625 C737.63566406 1219.20785156 736.70882812 1218.35320312 735.75390625 1217.47265625 C734.39072266 1216.24869141 734.39072266 1216.24869141 733 1215 C732.52675293 1214.52933105 732.05350586 1214.05866211 731.56591797 1213.57373047 C728.9089692 1211.07147008 727.28604845 1210.03567564 723.63500977 1209.58032227 C719.12852635 1210.10061543 717.86795296 1211.30091683 714.75 1214.53125 C714.05729004 1215.2352594 714.05729004 1215.2352594 713.35058594 1215.95349121 C711.88314845 1217.45329864 710.44204265 1218.97580344 709 1220.5 C708.03284 1221.49373745 707.06410133 1222.48594103 706.09375 1223.4765625 C701.41297032 1228.28218758 696.90846097 1233.21166077 692.52929688 1238.29248047 C690.25525956 1240.83153172 687.79958867 1243.04815536 685.25 1245.3125 C681.06982153 1249.07386288 676.98163527 1252.90354273 673 1256.875 C672.13375 1257.73867187 671.2675 1258.60234375 670.375 1259.4921875 C667.96568464 1261.96599701 667.96568464 1261.96599701 665.85546875 1264.68359375 C663.82201902 1267.2221952 661.55157537 1269.00011661 659 1271 C658.67 1271.66 658.34 1272.32 658 1273 C657.34 1273 656.68 1273 656 1273 C655.67 1273.99 655.34 1274.98 655 1276 C654.34 1276 653.68 1276 653 1276 C652.67 1276.99 652.34 1277.98 652 1279 C648.40017532 1280.79991234 644.90493995 1280.84708703 641 1280 C637.66674996 1277.74996373 635.11420918 1274.9201188 632.4375 1271.9375 C631.02203708 1270.42343472 629.60408255 1268.91169478 628.18359375 1267.40234375 C627.48943359 1266.65662109 626.79527344 1265.91089844 626.08007812 1265.14257812 C623.50521389 1262.49034707 620.75822511 1260.10608462 617.94848633 1257.70825195 C614.67955619 1254.84235743 611.66426312 1251.73047801 608.625 1248.625 C607.41118271 1247.38573581 606.19514371 1246.14864259 604.9765625 1244.9140625 C604.18886475 1244.1089624 604.18886475 1244.1089624 603.38525391 1243.28759766 C602.0089621 1241.88723997 602.0089621 1241.88723997 600 1241 C600 1240.34 600 1239.68 600 1239 C599.41895508 1238.74565186 598.83791016 1238.49130371 598.23925781 1238.22924805 C595.75820358 1236.86726505 594.14481897 1235.3568556 592.171875 1233.33203125 C591.45386719 1232.60306641 590.73585938 1231.87410156 589.99609375 1231.12304688 C588.88427734 1229.97932617 588.88427734 1229.97932617 587.75 1228.8125 C582.90377398 1223.85006785 578.02183042 1219.05047533 572.75878906 1214.52954102 C570.57606362 1212.63132129 568.5268151 1210.62550823 566.5 1208.5625 C565.8296875 1207.88316406 565.159375 1207.20382812 564.46875 1206.50390625 C563.9840625 1206.00761719 563.499375 1205.51132813 563 1205 C562.46890625 1205.40992188 561.9378125 1205.81984375 561.390625 1206.2421875 C560.68421875 1206.78101563 559.9778125 1207.31984375 559.25 1207.875 C558.55390625 1208.40867187 557.8578125 1208.94234375 557.140625 1209.4921875 C555.15277397 1210.89238914 553.20156614 1211.97855265 551 1213 C551 1213.66 551 1214.32 551 1215 C549.7421875 1216.234375 549.7421875 1216.234375 547.875 1217.75 C542.85385937 1221.98545856 538.31293511 1226.65929058 533.74951172 1231.37597656 C533.16443848 1231.97249023 532.57936523 1232.56900391 531.9765625 1233.18359375 C531.45143066 1233.72556396 530.92629883 1234.26753418 530.38525391 1234.82592773 C529 1236 529 1236 527 1236 C527 1236.66 527 1237.32 527 1238 C525.53125 1239.4453125 525.53125 1239.4453125 523.5 1241.125 C519.09641089 1244.8696013 515.04548565 1248.87550096 511 1253 C506.43463705 1257.6545302 501.79600836 1262.09656773 496.85253906 1266.34814453 C493.21516394 1269.59148666 490.00393983 1273.25230602 486.7109375 1276.83984375 C484 1279 484 1279 480.875 1279.46484375 C476.53839288 1278.76368037 475.0731896 1277.0731896 472 1274 C472 1273.34 472 1272.68 472 1272 C471.1352002 1271.62524536 471.1352002 1271.62524536 470.25292969 1271.24291992 C467.68536649 1269.82641968 466.00010232 1268.21078033 463.953125 1266.11328125 C463.19 1265.33919922 462.426875 1264.56511719 461.640625 1263.76757812 C460.85171875 1262.95740234 460.0628125 1262.14722656 459.25 1261.3125 C454.24947465 1256.19946283 449.22878785 1251.23327764 443.79980469 1246.57495117 C441.23595624 1244.33140989 438.88044143 1241.93780146 436.5 1239.5 C432.83359254 1235.77804091 429.06876108 1232.25992763 425.08984375 1228.875 C422.46949532 1226.52403318 420.02324291 1224.01492751 417.5625 1221.5 C412.99929007 1216.87943129 408.25827972 1212.80413817 403 1209 C396.76102321 1213.28165074 391.61223727 1218.23826053 386.39379883 1223.68041992 C384.96387837 1225.15472532 383.48555927 1226.58177486 382 1228 C381.34 1228 380.68 1228 380 1228 C380 1228.66 380 1229.32 380 1230 C378.33333333 1231 376.66666667 1232 375 1233 C373.30562217 1234.6384869 371.64432984 1236.31129194 370 1238 C368.9113458 1239.10273813 367.82143326 1240.20423497 366.73046875 1241.3046875 C366.15586914 1241.88444336 365.58126953 1242.46419922 364.98925781 1243.06152344 C360.10049336 1247.98208473 355.22018288 1252.81369141 349.921875 1257.296875 C346.61460474 1260.22770799 343.56919806 1263.42378563 340.46484375 1266.56640625 C337.64368317 1269.35179935 334.71153259 1271.96118212 331.69140625 1274.52734375 C329.96749643 1275.97309027 329.96749643 1275.97309027 328.46484375 1277.671875 C327 1279 327 1279 324 1279.3125 C321 1279 321 1279 318 1277 C318 1276.34 318 1275.68 318 1275 C317.42765625 1274.75636719 316.8553125 1274.51273438 316.265625 1274.26171875 C313.59566462 1272.77482702 311.86170993 1271.01916092 309.75 1268.8125 C306.26695843 1265.24380987 302.68118787 1261.9241809 298.8984375 1258.6796875 C296.41040974 1256.47834607 294.10805923 1254.11911485 291.78125 1251.75 C289.91610326 1249.91757513 287.98072254 1248.20646865 286 1246.5 C283.39352391 1244.2544206 280.91065479 1241.95448488 278.5 1239.5 C273.95928323 1234.8867147 269.12619615 1230.63894287 264 1226.6875 C263.34 1226.130625 262.68 1225.57375 262 1225 C262 1224.34 262 1223.68 262 1223 C261.42765625 1222.75636719 260.8553125 1222.51273438 260.265625 1222.26171875 C257.59566462 1220.77482702 255.86170993 1219.01916092 253.75 1216.8125 C249.3056997 1212.2870465 249.3056997 1212.2870465 244.75 1207.875 C244.14671875 1207.29492188 243.5434375 1206.71484375 242.921875 1206.1171875 C241.02356358 1204.76480074 241.02356358 1204.76480074 238.61376953 1205.22290039 C235.63821059 1206.10756358 234.4107167 1207.11114037 232.2578125 1209.31640625 C231.24654297 1210.34024414 231.24654297 1210.34024414 230.21484375 1211.38476562 C229.52519531 1212.10341797 228.83554688 1212.82207031 228.125 1213.5625 C227.44308594 1214.25408203 226.76117188 1214.94566406 226.05859375 1215.65820312 C222.1159232 1219.68723693 218.36248146 1223.84275782 214.67480469 1228.10473633 C212.08281305 1231.0379187 209.34133872 1233.80730378 206.5625 1236.5625 C205.99611816 1237.12694824 205.42973633 1237.69139648 204.84619141 1238.27294922 C201.35821908 1241.72505551 197.77677212 1245.00647054 194.0390625 1248.1875 C187.88726791 1253.65576186 182.08120619 1259.52502882 177 1266 C175.35697047 1267.68997323 173.68528688 1269.35216394 172 1271 C171.3503125 1271.76441406 170.700625 1272.52882813 170.03125 1273.31640625 C169.2990625 1274.14011719 168.566875 1274.96382812 167.8125 1275.8125 C167.13832031 1276.60269531 166.46414062 1277.39289063 165.76953125 1278.20703125 C161.62025654 1280.89323307 157.81578234 1280.86925769 153 1280 C149.88215258 1278.23951262 147.61433611 1275.88584842 145.16357422 1273.29882812 C144.09336784 1272.23081215 144.09336784 1272.23081215 143.00154114 1271.14122009 C140.66141775 1268.79415866 138.35866451 1266.41375865 136.0546875 1264.03125 C134.43449738 1262.39239849 132.8120774 1260.7557487 131.18753052 1259.12121582 C126.92694251 1254.8225279 122.6972416 1250.49466193 118.47332764 1246.15997314 C114.15415744 1241.73833033 109.80637937 1237.34501801 105.4609375 1232.94921875 C96.94575555 1224.3269329 88.46294243 1215.67354416 80 1207 C78.87295216 1207.95956558 77.7468139 1208.92019956 76.62106323 1209.88128662 C75.99384809 1210.41612545 75.36663296 1210.95096428 74.7204113 1211.50201035 C72.89784979 1213.08894382 71.20980136 1214.74045061 69.5703125 1216.515625 C69.00763672 1217.12148437 68.44496094 1217.72734375 67.86523438 1218.3515625 C67.29095703 1218.97804688 66.71667969 1219.60453125 66.125 1220.25 C65.20557617 1221.24386719 65.20557617 1221.24386719 64.26757812 1222.2578125 C60.27374564 1226.58411365 56.32884369 1230.95278691 52.40625 1235.34375 C49.30779568 1238.76412165 46.15473077 1242.13158724 43 1245.5 C33.43973554 1255.59918314 33.43973554 1255.59918314 24.4375 1266.1875 C21.7850787 1269.24798612 18.93285832 1271.79214916 15.83203125 1274.38671875 C13.8634064 1276.01624607 13.8634064 1276.01624607 12.125 1278.4375 C10 1280 10 1280 0 1280 C0 857.6 0 435.2 0 0 Z " fill="#E8E8E8" transform="translate(0,0)"/>
<path d="M0 0 C422.4 0 844.8 0 1280 0 C1280 422.4 1280 844.8 1280 1280 C1271 1280 1271 1280 1267.9609375 1277.65625 C1267.07281812 1276.62613768 1266.21130571 1275.57260439 1265.375 1274.5 C1264.67818115 1273.67459717 1264.67818115 1273.67459717 1263.96728516 1272.83251953 C1263.04304517 1271.73480384 1262.12909567 1270.62832659 1261.2265625 1269.51269531 C1259.66319203 1267.58462138 1258.02395296 1265.73007208 1256.375 1263.875 C1255.83359375 1263.24980469 1255.2921875 1262.62460938 1254.734375 1261.98046875 C1252.72735462 1259.68866845 1250.67597149 1257.44003248 1248.625 1255.1875 C1244.61063671 1250.74913241 1240.84122825 1246.14615943 1237.0859375 1241.48828125 C1235.28809022 1239.34365818 1233.44912089 1237.37828917 1231.4375 1235.4375 C1230.633125 1234.633125 1229.82875 1233.82875 1229 1233 C1229 1232.34 1229 1231.68 1229 1231 C1228.44957031 1230.78601562 1227.89914062 1230.57203125 1227.33203125 1230.3515625 C1224.20913922 1228.54164518 1222.05185142 1226.04903252 1219.6875 1223.375 C1219.20692139 1222.83955566 1218.72634277 1222.30411133 1218.23120117 1221.75244141 C1217.26694945 1220.67595472 1216.30539237 1219.59704765 1215.34667969 1218.515625 C1214.14964961 1217.16842364 1212.93904355 1215.8333125 1211.7265625 1214.5 C1211.09492187 1213.79875 1210.46328125 1213.0975 1209.8125 1212.375 C1209.26207031 1211.76398438 1208.71164062 1211.15296875 1208.14453125 1210.5234375 C1207 1209 1207 1209 1207 1207 C1202.08346384 1209.54172328 1198.62083531 1213.13962934 1194.79296875 1217.046875 C1194.10874344 1217.73630188 1193.42451813 1218.42572876 1192.71955872 1219.13604736 C1190.53738039 1221.33598213 1188.3620031 1223.5424805 1186.1875 1225.75 C1184.02289268 1227.94239897 1181.85678206 1230.13325637 1179.68757629 1232.32110596 C1178.34119251 1233.6795571 1176.99748667 1235.04066995 1175.6570282 1236.40496826 C1171.87758334 1240.22397457 1167.97223626 1243.81170985 1163.90483093 1247.32125854 C1161.04878972 1249.83830859 1158.37615191 1252.51806605 1155.70703125 1255.23046875 C1155.15311203 1255.78817459 1154.59919281 1256.34588043 1154.02848816 1256.92048645 C1152.28732095 1258.67369614 1150.54949258 1260.43015488 1148.8125 1262.1875 C1146.5094642 1264.51727457 1144.20302912 1266.84360767 1141.89453125 1269.16796875 C1141.37671585 1269.69408249 1140.85890045 1270.22019623 1140.32539368 1270.76225281 C1132.52964876 1278.61008953 1132.52964876 1278.61008953 1127.8125 1279.8125 C1121.72063067 1278.51423276 1118.34156367 1274.27617867 1114 1270 C1112.40358472 1268.55389655 1110.79944642 1267.11627069 1109.1875 1265.6875 C1104.18179744 1261.18315106 1099.23620805 1256.6155375 1094.29296875 1252.04296875 C1089.7073279 1247.80209267 1085.09955083 1243.58545151 1080.49267578 1239.36767578 C1078.97185124 1237.97420848 1077.45252676 1236.57912249 1075.93359375 1235.18359375 C1072.95954461 1232.45154128 1069.98049297 1229.72502214 1067 1227 C1066.14535156 1226.21625 1065.29070312 1225.4325 1064.41015625 1224.625 C1060.04643862 1220.65422377 1055.62265658 1216.75604022 1051.125 1212.9375 C1050.24070312 1212.18339844 1049.35640625 1211.42929688 1048.4453125 1210.65234375 C1045.93949106 1208.62674535 1045.93949106 1208.62674535 1042 1209 C1040.29319053 1210.62553283 1038.62339805 1212.29115995 1037 1214 C1036.34 1214 1035.68 1214 1035 1214 C1035 1214.66 1035 1215.32 1035 1216 C1033.51339722 1217.46412659 1033.51339722 1217.46412659 1031.46826172 1219.15844727 C1027.26372901 1222.73563169 1023.37407349 1226.52846282 1019.5078125 1230.46484375 C1018.13033556 1231.85494379 1016.75272777 1233.24491418 1015.375 1234.63476562 C1013.23346234 1236.80129119 1011.09357827 1238.96940629 1008.95605469 1241.13989258 C1006.8734444 1243.25251779 1004.78481011 1245.35903353 1002.6953125 1247.46484375 C1002.05264435 1248.12097153 1001.4099762 1248.7770993 1000.74783325 1249.45310974 C1000.15316254 1250.05115921 999.55849182 1250.64920868 998.94580078 1251.26538086 C998.42365997 1251.7949791 997.90151917 1252.32457733 997.36355591 1252.870224 C996 1254 996 1254 994 1254 C993.67 1254.99 993.34 1255.98 993 1257 C991.6796875 1258.296875 991.6796875 1258.296875 989.875 1259.75 C986.84790902 1262.26893311 984.0968107 1264.91739364 981.4140625 1267.79296875 C980.77098145 1268.47198242 980.12790039 1269.15099609 979.46533203 1269.85058594 C978.17096636 1271.22502541 976.89269218 1272.61482684 975.63232422 1274.02050781 C972.72277186 1277.07665065 970.38126465 1279.4566045 966.0546875 1279.90625 C960.56478212 1279.36803703 957.2791814 1275.33702494 953.625 1271.5625 C952.1269776 1270.08264921 950.62828366 1268.60347789 949.12890625 1267.125 C948.41621582 1266.40957031 947.70352539 1265.69414063 946.96923828 1264.95703125 C944.56844165 1262.57111682 942.09390517 1260.30907194 939.5625 1258.0625 C938.80066406 1257.38316406 938.03882813 1256.70382812 937.25390625 1256.00390625 C936.51011719 1255.34261719 935.76632812 1254.68132812 935 1254 C933.33241669 1252.50101911 931.66577024 1251.00099544 930 1249.5 C927.52497766 1247.27170886 925.04928246 1245.0442116 922.5703125 1242.8203125 C917.97969297 1238.69902148 913.41558619 1234.55120059 908.875 1230.375 C904.96678601 1226.78200428 901.03314695 1223.22677118 897.00390625 1219.76953125 C895.4595383 1218.40579113 893.95345778 1216.99860906 892.46484375 1215.57421875 C891.58957031 1214.74535156 890.71429687 1213.91648437 889.8125 1213.0625 C889.01457031 1212.29035156 888.21664062 1211.51820312 887.39453125 1210.72265625 C884.61563459 1208.72348263 883.34624751 1208.54825659 880 1209 C877.74867483 1209.91568906 877.74867483 1209.91568906 876 1211 C876 1211.66 876 1212.32 876 1213 C874.63671875 1214.33984375 874.63671875 1214.33984375 872.6875 1215.9375 C868.59520353 1219.40689825 864.83695919 1223.13029463 861.07128906 1226.94873047 C857.84764481 1230.19803002 854.50747387 1233.22368792 851.02734375 1236.19140625 C847.68256946 1239.17528004 844.58664843 1242.40619732 841.4375 1245.59375 C838.74716094 1248.24959753 835.93426475 1250.70135432 833.0625 1253.15625 C829.71511346 1256.1486107 826.61141114 1259.38107536 823.45703125 1262.57421875 C820.65041839 1265.34513542 817.73886666 1267.93566852 814.7109375 1270.4609375 C812.77525747 1272.10061034 812.77525747 1272.10061034 810.8125 1274.9375 C806.1057062 1278.38914878 800.63949309 1277.3715625 795 1277 C795.06944824 1276.25073242 795.13889648 1275.50146484 795.21044922 1274.72949219 C794.94766056 1271.32116601 794.13044821 1270.58809749 791.6328125 1268.328125 C790.91681885 1267.66820557 790.2008252 1267.00828613 789.46313477 1266.32836914 C788.69155029 1265.64250732 787.91996582 1264.95664551 787.125 1264.25 C786.34503662 1263.5377124 785.56507324 1262.8254248 784.76147461 1262.09155273 C782.5188258 1260.04822979 780.26142421 1258.02249319 778 1256 C776.99765401 1255.09099353 775.99616591 1254.18103875 774.99609375 1253.26953125 C772.67620583 1251.16562006 770.34118965 1249.08015108 768 1247 C760.82096699 1240.57914869 753.72805659 1234.07047127 746.65673828 1227.53173828 C743.96102209 1225.0394124 741.26375897 1222.54881825 738.5625 1220.0625 C737.63566406 1219.20785156 736.70882812 1218.35320312 735.75390625 1217.47265625 C734.39072266 1216.24869141 734.39072266 1216.24869141 733 1215 C732.52675293 1214.52933105 732.05350586 1214.05866211 731.56591797 1213.57373047 C728.9089692 1211.07147008 727.28604845 1210.03567564 723.63500977 1209.58032227 C719.12852635 1210.10061543 717.86795296 1211.30091683 714.75 1214.53125 C714.05729004 1215.2352594 714.05729004 1215.2352594 713.35058594 1215.95349121 C711.88314845 1217.45329864 710.44204265 1218.97580344 709 1220.5 C708.03284 1221.49373745 707.06410133 1222.48594103 706.09375 1223.4765625 C701.41297032 1228.28218758 696.90846097 1233.21166077 692.52929688 1238.29248047 C690.25525956 1240.83153172 687.79958867 1243.04815536 685.25 1245.3125 C681.06982153 1249.07386288 676.98163527 1252.90354273 673 1256.875 C672.13375 1257.73867187 671.2675 1258.60234375 670.375 1259.4921875 C667.96568464 1261.96599701 667.96568464 1261.96599701 665.85546875 1264.68359375 C663.82201902 1267.2221952 661.55157537 1269.00011661 659 1271 C658.67 1271.66 658.34 1272.32 658 1273 C657.34 1273 656.68 1273 656 1273 C655.67 1273.99 655.34 1274.98 655 1276 C654.34 1276 653.68 1276 653 1276 C652.67 1276.99 652.34 1277.98 652 1279 C648.40017532 1280.79991234 644.90493995 1280.84708703 641 1280 C637.66674996 1277.74996373 635.11420918 1274.9201188 632.4375 1271.9375 C631.02203708 1270.42343472 629.60408255 1268.91169478 628.18359375 1267.40234375 C627.48943359 1266.65662109 626.79527344 1265.91089844 626.08007812 1265.14257812 C623.50521389 1262.49034707 620.75822511 1260.10608462 617.94848633 1257.70825195 C614.67955619 1254.84235743 611.66426312 1251.73047801 608.625 1248.625 C607.41118271 1247.38573581 606.19514371 1246.14864259 604.9765625 1244.9140625 C604.18886475 1244.1089624 604.18886475 1244.1089624 603.38525391 1243.28759766 C602.0089621 1241.88723997 602.0089621 1241.88723997 600 1241 C600 1240.34 600 1239.68 600 1239 C599.41895508 1238.74565186 598.83791016 1238.49130371 598.23925781 1238.22924805 C595.75820358 1236.86726505 594.14481897 1235.3568556 592.171875 1233.33203125 C591.45386719 1232.60306641 590.73585938 1231.87410156 589.99609375 1231.12304688 C588.88427734 1229.97932617 588.88427734 1229.97932617 587.75 1228.8125 C582.90377398 1223.85006785 578.02183042 1219.05047533 572.75878906 1214.52954102 C570.57606362 1212.63132129 568.5268151 1210.62550823 566.5 1208.5625 C565.8296875 1207.88316406 565.159375 1207.20382812 564.46875 1206.50390625 C563.9840625 1206.00761719 563.499375 1205.51132813 563 1205 C562.46890625 1205.40992188 561.9378125 1205.81984375 561.390625 1206.2421875 C560.68421875 1206.78101563 559.9778125 1207.31984375 559.25 1207.875 C558.55390625 1208.40867187 557.8578125 1208.94234375 557.140625 1209.4921875 C555.15277397 1210.89238914 553.20156614 1211.97855265 551 1213 C551 1213.66 551 1214.32 551 1215 C549.7421875 1216.234375 549.7421875 1216.234375 547.875 1217.75 C542.85385937 1221.98545856 538.31293511 1226.65929058 533.74951172 1231.37597656 C533.16443848 1231.97249023 532.57936523 1232.56900391 531.9765625 1233.18359375 C531.45143066 1233.72556396 530.92629883 1234.26753418 530.38525391 1234.82592773 C529 1236 529 1236 527 1236 C527 1236.66 527 1237.32 527 1238 C525.53125 1239.4453125 525.53125 1239.4453125 523.5 1241.125 C519.09641089 1244.8696013 515.04548565 1248.87550096 511 1253 C506.43463705 1257.6545302 501.79600836 1262.09656773 496.85253906 1266.34814453 C493.21516394 1269.59148666 490.00393983 1273.25230602 486.7109375 1276.83984375 C484 1279 484 1279 480.875 1279.46484375 C476.53839288 1278.76368037 475.0731896 1277.0731896 472 1274 C472 1273.34 472 1272.68 472 1272 C471.1352002 1271.62524536 471.1352002 1271.62524536 470.25292969 1271.24291992 C467.68536649 1269.82641968 466.00010232 1268.21078033 463.953125 1266.11328125 C463.19 1265.33919922 462.426875 1264.56511719 461.640625 1263.76757812 C460.85171875 1262.95740234 460.0628125 1262.14722656 459.25 1261.3125 C454.24947465 1256.19946283 449.22878785 1251.23327764 443.79980469 1246.57495117 C441.23595624 1244.33140989 438.88044143 1241.93780146 436.5 1239.5 C432.83359254 1235.77804091 429.06876108 1232.25992763 425.08984375 1228.875 C422.46949532 1226.52403318 420.02324291 1224.01492751 417.5625 1221.5 C412.99929007 1216.87943129 408.25827972 1212.80413817 403 1209 C396.76102321 1213.28165074 391.61223727 1218.23826053 386.39379883 1223.68041992 C384.96387837 1225.15472532 383.48555927 1226.58177486 382 1228 C381.34 1228 380.68 1228 380 1228 C380 1228.66 380 1229.32 380 1230 C378.33333333 1231 376.66666667 1232 375 1233 C373.30562217 1234.6384869 371.64432984 1236.31129194 370 1238 C368.9113458 1239.10273813 367.82143326 1240.20423497 366.73046875 1241.3046875 C366.15586914 1241.88444336 365.58126953 1242.46419922 364.98925781 1243.06152344 C360.10049336 1247.98208473 355.22018288 1252.81369141 349.921875 1257.296875 C346.61460474 1260.22770799 343.56919806 1263.42378563 340.46484375 1266.56640625 C337.64368317 1269.35179935 334.71153259 1271.96118212 331.69140625 1274.52734375 C329.96749643 1275.97309027 329.96749643 1275.97309027 328.46484375 1277.671875 C327 1279 327 1279 324 1279.3125 C321 1279 321 1279 318 1277 C318 1276.34 318 1275.68 318 1275 C317.42765625 1274.75636719 316.8553125 1274.51273438 316.265625 1274.26171875 C313.59566462 1272.77482702 311.86170993 1271.01916092 309.75 1268.8125 C306.26695843 1265.24380987 302.68118787 1261.9241809 298.8984375 1258.6796875 C296.41040974 1256.47834607 294.10805923 1254.11911485 291.78125 1251.75 C289.91610326 1249.91757513 287.98072254 1248.20646865 286 1246.5 C283.39352391 1244.2544206 280.91065479 1241.95448488 278.5 1239.5 C273.95928323 1234.8867147 269.12619615 1230.63894287 264 1226.6875 C263.34 1226.130625 262.68 1225.57375 262 1225 C262 1224.34 262 1223.68 262 1223 C261.42765625 1222.75636719 260.8553125 1222.51273438 260.265625 1222.26171875 C257.59566462 1220.77482702 255.86170993 1219.01916092 253.75 1216.8125 C249.3056997 1212.2870465 249.3056997 1212.2870465 244.75 1207.875 C244.14671875 1207.29492188 243.5434375 1206.71484375 242.921875 1206.1171875 C241.02356358 1204.76480074 241.02356358 1204.76480074 238.61376953 1205.22290039 C235.63821059 1206.10756358 234.4107167 1207.11114037 232.2578125 1209.31640625 C231.24654297 1210.34024414 231.24654297 1210.34024414 230.21484375 1211.38476562 C229.52519531 1212.10341797 228.83554688 1212.82207031 228.125 1213.5625 C227.44308594 1214.25408203 226.76117188 1214.94566406 226.05859375 1215.65820312 C222.1159232 1219.68723693 218.36248146 1223.84275782 214.67480469 1228.10473633 C212.08281305 1231.0379187 209.34133872 1233.80730378 206.5625 1236.5625 C205.99611816 1237.12694824 205.42973633 1237.69139648 204.84619141 1238.27294922 C201.35821908 1241.72505551 197.77677212 1245.00647054 194.0390625 1248.1875 C187.88726791 1253.65576186 182.08120619 1259.52502882 177 1266 C175.35697047 1267.68997323 173.68528688 1269.35216394 172 1271 C171.3503125 1271.76441406 170.700625 1272.52882813 170.03125 1273.31640625 C169.2990625 1274.14011719 168.566875 1274.96382812 167.8125 1275.8125 C167.13832031 1276.60269531 166.46414062 1277.39289063 165.76953125 1278.20703125 C161.62025654 1280.89323307 157.81578234 1280.86925769 153 1280 C149.88215258 1278.23951262 147.61433611 1275.88584842 145.16357422 1273.29882812 C144.09336784 1272.23081215 144.09336784 1272.23081215 143.00154114 1271.14122009 C140.66141775 1268.79415866 138.35866451 1266.41375865 136.0546875 1264.03125 C134.43449738 1262.39239849 132.8120774 1260.7557487 131.18753052 1259.12121582 C126.92694251 1254.8225279 122.6972416 1250.49466193 118.47332764 1246.15997314 C114.15415744 1241.73833033 109.80637937 1237.34501801 105.4609375 1232.94921875 C96.94575555 1224.3269329 88.46294243 1215.67354416 80 1207 C78.87295216 1207.95956558 77.7468139 1208.92019956 76.62106323 1209.88128662 C75.99384809 1210.41612545 75.36663296 1210.95096428 74.7204113 1211.50201035 C72.89784979 1213.08894382 71.20980136 1214.74045061 69.5703125 1216.515625 C69.00763672 1217.12148437 68.44496094 1217.72734375 67.86523438 1218.3515625 C67.29095703 1218.97804688 66.71667969 1219.60453125 66.125 1220.25 C65.20557617 1221.24386719 65.20557617 1221.24386719 64.26757812 1222.2578125 C60.27374564 1226.58411365 56.32884369 1230.95278691 52.40625 1235.34375 C49.30779568 1238.76412165 46.15473077 1242.13158724 43 1245.5 C33.43973554 1255.59918314 33.43973554 1255.59918314 24.4375 1266.1875 C21.7850787 1269.24798612 18.93285832 1271.79214916 15.83203125 1274.38671875 C13.8634064 1276.01624607 13.8634064 1276.01624607 12.125 1278.4375 C10 1280 10 1280 0 1280 C0 857.6 0 435.2 0 0 Z M9 9 C9 425.46 9 841.92 9 1271 C14.52703079 1266.33127538 14.52703079 1266.33127538 19.578125 1261.3359375 C20.17592773 1260.69495117 20.77373047 1260.05396484 21.38964844 1259.39355469 C22.00356445 1258.72743164 22.61748047 1258.06130859 23.25 1257.375 C23.90258789 1256.6727832 24.55517578 1255.97056641 25.22753906 1255.24707031 C27.15626787 1253.16888631 29.07926624 1251.08557285 31 1249 C31.52207031 1248.4337793 32.04414062 1247.86755859 32.58203125 1247.28417969 C34.8466543 1244.82575129 37.10418431 1242.36129997 39.35546875 1239.890625 C41.24316454 1237.82726475 43.13992352 1235.77599783 45.05078125 1233.734375 C45.55448242 1233.19329102 46.05818359 1232.65220703 46.57714844 1232.09472656 C47.97701205 1230.59178292 49.38095368 1229.09264055 50.78515625 1227.59375 C52.6497123 1225.41021346 53.90370007 1223.62616479 55 1221 C55.66 1221 56.32 1221 57 1221 C58.36657834 1219.68765591 58.36657834 1219.68765591 59.8125 1217.875 C61.20831165 1216.24998138 62.60414942 1214.62498518 64 1213 C64.50096191 1212.41621582 65.00192383 1211.83243164 65.51806641 1211.23095703 C67.20355465 1209.28432982 68.9122162 1207.36012577 70.625 1205.4375 C71.17518799 1204.79345215 71.72537598 1204.1494043 72.29223633 1203.48583984 C72.82743896 1202.89109863 73.3626416 1202.29635742 73.9140625 1201.68359375 C74.3879541 1201.14275146 74.8618457 1200.60190918 75.35009766 1200.04467773 C77 1199 77 1199 79.3518219 1199.21080017 C82.4627504 1200.13790709 83.75705516 1201.27786317 86.02075195 1203.58251953 C86.77536209 1204.34065948 87.52997223 1205.09879944 88.30744934 1205.87991333 C89.10962387 1206.70587006 89.9117984 1207.53182678 90.73828125 1208.3828125 C91.57787888 1209.23044159 92.4174765 1210.07807068 93.28251648 1210.9513855 C95.96877113 1213.66664864 98.64108119 1216.39514616 101.3125 1219.125 C103.97568025 1221.83086638 106.64171156 1224.53385979 109.31034851 1227.23434448 C110.9692145 1228.91467641 112.62454395 1230.59850969 114.27571106 1232.28640747 C118.4093348 1236.49028748 122.62594014 1240.48716109 127.09757996 1244.32836914 C130.24261663 1247.09187049 133.17853465 1250.05523542 136.125 1253.02734375 C137.07354858 1253.97801476 137.07354858 1253.97801476 138.04125977 1254.94789124 C140.02989986 1256.94205978 142.01500527 1258.93970353 144 1260.9375 C145.36044318 1262.30296745 146.72111831 1263.66820386 148.08203125 1265.03320312 C151.3907031 1268.35280886 154.69621322 1271.67553273 158 1275 C161.8290066 1271.76279038 165.60521969 1268.5212452 169.15625 1264.9765625 C169.86910156 1264.265 170.58195313 1263.5534375 171.31640625 1262.8203125 C172.03699219 1262.09585937 172.75757813 1261.37140625 173.5 1260.625 C174.22058594 1259.90828125 174.94117188 1259.1915625 175.68359375 1258.453125 C176.39644531 1257.73898437 177.10929688 1257.02484375 177.84375 1256.2890625 C178.47474609 1255.65693848 179.10574219 1255.02481445 179.75585938 1254.37353516 C181.5900266 1252.43361199 183.33271096 1250.46264379 185.07177734 1248.43920898 C192.85054703 1239.5037478 201.41691295 1231.23813752 209.76123047 1222.83374023 C212.01558098 1220.56144212 214.26106503 1218.28088475 216.49951172 1215.99291992 C219.2176321 1213.21478589 221.95002886 1210.45149904 224.69344711 1207.69835091 C225.73280753 1206.65042523 226.7670205 1205.59736793 227.79590225 1204.53915215 C229.22933681 1203.06699982 230.68036516 1201.61471107 232.13720703 1200.16577148 C233.36795456 1198.91956276 233.36795456 1198.91956276 234.62356567 1197.6481781 C237 1196 237 1196 239.68161011 1196.13954163 C242.47899606 1197.1777769 243.8012392 1198.43166717 245.8125 1200.625 C248.46452339 1203.42158858 251.13217133 1206.0580912 254.0625 1208.5625 C256.59923134 1210.74035268 258.9905689 1212.97014279 261.3125 1215.375 C264.12399391 1218.24387134 267.10935151 1220.74639085 270.25 1223.25 C275.33094264 1227.33426939 279.88221448 1231.78119487 284.43359375 1236.4296875 C287.23397874 1239.23433488 290.15962253 1241.81918996 293.171875 1244.390625 C295.02937988 1246.02586434 296.76606009 1247.73481793 298.5 1249.5 C301.41153985 1252.45723666 304.4588871 1255.18270707 307.6015625 1257.890625 C312.82901466 1262.48805849 317.89839342 1267.26390487 323 1272 C327.15342085 1270.33256827 330.11116768 1267.33667256 333.3125 1264.3125 C334.18297974 1263.50002808 334.18297974 1263.50002808 335.07104492 1262.67114258 C338.59207177 1259.37125972 342.03104759 1256.00379745 345.41015625 1252.55859375 C347.12867317 1250.87385603 348.92107285 1249.31397191 350.75 1247.75 C354.15838458 1244.81720396 357.34399514 1241.69927485 360.5 1238.5 C364.18993485 1234.75968201 367.97503693 1231.21760655 371.97265625 1227.80859375 C375.31469286 1224.82716225 378.4081759 1221.59906354 381.5546875 1218.4140625 C384.28545196 1215.71819599 387.13117521 1213.21623755 390.05859375 1210.73828125 C392.91581623 1208.18000358 395.47658709 1205.35123916 398.04296875 1202.50390625 C400.58391788 1200.55128067 401.85009535 1200.66731145 405 1201 C406.86181641 1202.20239258 406.86181641 1202.20239258 408.6015625 1203.89453125 C409.25125 1204.51521484 409.9009375 1205.13589844 410.5703125 1205.77539062 C411.24835938 1206.44763672 411.92640625 1207.11988281 412.625 1207.8125 C413.33140625 1208.49376953 414.0378125 1209.17503906 414.765625 1209.87695312 C419.70483136 1214.65900291 424.57731001 1219.51355501 429.375 1224.4375 C432.11685077 1227.11406861 434.96930523 1229.61242881 437.86328125 1232.12158203 C441.48846178 1235.30852661 444.99116927 1238.62360431 448.5 1241.9375 C449.20769531 1242.60201172 449.91539062 1243.26652344 450.64453125 1243.95117188 C454.89252707 1247.95453905 459.05692767 1252.02584624 463.15209961 1256.18554688 C465.67756458 1258.66530056 468.3520027 1260.9518944 471.03515625 1263.2578125 C474.16363209 1266.03176921 477.08580113 1269.00383929 480 1272 C483.93214301 1270.41060574 486.33020346 1267.83657498 489.25 1264.8125 C492.36065978 1261.62780138 495.47130814 1258.50003334 498.875 1255.625 C503.18629664 1251.95241398 507.12637923 1247.92931549 511.08154297 1243.88134766 C513.90635649 1241.01098676 516.78880101 1238.28169131 519.84375 1235.65625 C524.46288507 1231.66478688 528.72201361 1227.35098958 533 1223 C537.93058918 1217.98527107 542.89999606 1213.13249224 548.23632812 1208.54980469 C551.32866724 1205.83245022 554.10121879 1202.81345488 556.921875 1199.8203125 C559.06795253 1197.94047767 560.15629521 1197.11991526 563 1197 C564.6484375 1197.94140625 564.6484375 1197.94140625 566.375 1199.5625 C567.40753906 1200.52349609 567.40753906 1200.52349609 568.4609375 1201.50390625 C572.28688574 1205.26510767 576.07874523 1209.059768 579.85375977 1212.87207031 C583.49197804 1216.53623739 587.20183126 1220.02585717 591.14453125 1223.36328125 C594.17511983 1226.03657939 596.95985733 1228.95250845 599.796875 1231.828125 C601.72374788 1233.72766635 603.68838914 1235.50022944 605.75 1237.25 C609.52735683 1240.48341744 613.00654927 1243.96724111 616.5 1247.5 C620.46421415 1251.50407525 624.44788252 1255.38678257 628.74609375 1259.03515625 C632.0656517 1261.92898233 635.27755035 1264.9363603 638.5 1267.9375 C639.13671631 1268.53046875 639.77343262 1269.1234375 640.42944336 1269.734375 C641.95379555 1271.1553566 643.47701702 1272.57755101 645 1274 C648.79319535 1272.44067258 651.11373748 1270.05753612 653.9375 1267.125 C656.48158652 1264.49047455 658.92568121 1262.05792949 661.81640625 1259.8046875 C662.53699219 1259.20914062 663.25757813 1258.61359375 664 1258 C664 1257.34 664 1256.68 664 1256 C664.99 1255.67 665.98 1255.34 667 1255 C668.51799508 1253.51301497 668.51799508 1253.51301497 670.01318359 1251.62890625 C674.6751105 1246.13973302 679.72442371 1241.05246537 684.7890625 1235.9375 C685.29493267 1235.42630615 685.80080284 1234.9151123 686.32200241 1234.38842773 C688.98950296 1231.69443878 691.66050252 1229.0039704 694.33398438 1226.31591797 C696.53863309 1224.09783476 698.73574358 1221.87266431 700.92675781 1219.64111328 C703.588675 1216.92998492 706.26256107 1214.23123934 708.94562912 1211.54104614 C709.96176766 1210.51819538 710.97364703 1209.49109474 711.98109818 1208.45968628 C713.38526824 1207.02398913 714.8067768 1205.60531166 716.22900391 1204.1875 C717.03173737 1203.37667969 717.83447083 1202.56585937 718.66152954 1201.73046875 C721 1200 721 1200 723.66220093 1199.63061523 C726.95172902 1200.15037828 728.08833333 1201.62689519 730.3125 1204.0625 C732.9998798 1206.90382136 735.64423053 1209.65482006 738.625 1212.1875 C742.69369174 1215.67611722 746.59288465 1219.33305073 750.5 1223 C754.93333 1227.15729349 759.38236218 1231.27179563 763.98828125 1235.23828125 C767.18957021 1238.04174012 770.30925762 1240.93428259 773.44042969 1243.81542969 C777.38163718 1247.4399551 781.35488202 1251.02646035 785.3515625 1254.58984375 C787.37600081 1256.43214233 789.36244323 1258.29579832 791.3359375 1260.19140625 C791.912229 1260.73933838 792.48852051 1261.28727051 793.08227539 1261.85180664 C794.21158457 1262.92757442 795.33356547 1264.01110335 796.44702148 1265.10327148 C798.65600759 1267.19702403 800.75257534 1268.87900236 803.4921875 1270.21875 C807.59671296 1269.86072286 809.68042885 1266.89264154 812.3125 1264 C813.46815323 1262.78464992 814.62569547 1261.57109316 815.78515625 1260.359375 C816.61684326 1259.48055664 816.61684326 1259.48055664 817.46533203 1258.58398438 C819.30159523 1256.68871304 821.23490447 1254.95289763 823.25 1253.25 C826.88618015 1250.16383029 830.21138124 1246.82826856 833.53125 1243.40625 C836.21504423 1240.79039993 839.01614973 1238.35174782 841.84570312 1235.89599609 C845.47532484 1232.70156701 848.9851378 1229.38209208 852.5 1226.0625 C853.20769531 1225.39798828 853.91539062 1224.73347656 854.64453125 1224.04882812 C858.23810359 1220.66219826 861.78092211 1217.2370151 865.26171875 1213.734375 C867.86638273 1211.11400483 870.49686972 1208.583409 873.3125 1206.1875 C876.02852156 1203.87292456 876.02852156 1203.87292456 878.41796875 1201.23828125 C880 1200 880 1200 882.33203125 1200 C885.8115619 1201.30418718 888.07968112 1203.44688463 890.6875 1206 C891.75086256 1207.00827624 892.81467116 1208.01608226 893.87890625 1209.0234375 C894.6680542 1209.77898926 894.6680542 1209.77898926 895.47314453 1210.54980469 C897.6514815 1212.618772 899.88553931 1214.62257544 902.125 1216.625 C905.46261934 1219.62029941 908.79567296 1222.62048536 912.125 1225.625 C915.02101428 1228.23321162 917.93142136 1230.8206549 920.875 1233.375 C924.18191264 1236.25201399 927.40717892 1239.21181303 930.625 1242.1875 C935.09624574 1246.32043944 939.66849045 1250.31255306 944.3125 1254.25 C948.56901564 1257.85970908 952.65099784 1261.52932902 956.55078125 1265.52734375 C958.92691454 1267.94190507 961.22995657 1270.03019134 964 1272 C967.18414437 1271.66459927 968.89509423 1270.50122309 971.1796875 1268.33203125 C972.06805298 1267.4968396 972.06805298 1267.4968396 972.97436523 1266.64477539 C973.60157471 1266.04012451 974.22878418 1265.43547363 974.875 1264.8125 C975.53121338 1264.19044678 976.18742676 1263.56839355 976.86352539 1262.92749023 C982.02736136 1258.00604724 987.09109654 1252.9830358 992.07958984 1247.8840332 C994.86582827 1245.05241768 997.70365547 1242.360565 1000.72265625 1239.77734375 C1006.0930114 1235.13735176 1011.02087863 1230.05020332 1016 1225 C1021.63418288 1219.28538351 1027.26613786 1213.64157634 1033.37353516 1208.42578125 C1035.89692226 1206.21374572 1038.0652359 1203.71645296 1040.26171875 1201.1875 C1042 1200 1042 1200 1044.34375 1199.9921875 C1047.86012326 1201.32634088 1050.1726297 1203.53962146 1052.8125 1206.125 C1053.88215842 1207.14001265 1054.95247037 1208.15433705 1056.0234375 1209.16796875 C1056.53745117 1209.65958496 1057.05146484 1210.15120117 1057.58105469 1210.65771484 C1059.3220965 1212.30469486 1061.11826695 1213.87760443 1062.9375 1215.4375 C1068.18036165 1219.98565534 1073.23775726 1224.73714943 1078.32861328 1229.45361328 C1084.49311365 1235.15708178 1090.68507875 1240.83048997 1096.9375 1246.4375 C1100.25603077 1249.41512231 1103.54834364 1252.41850082 1106.82055664 1255.44677734 C1107.93383656 1256.4763873 1109.04889107 1257.50408199 1110.16577148 1258.52978516 C1112.76872441 1260.92164612 1115.34859142 1263.32803246 1117.875 1265.80078125 C1118.74125 1266.62964844 1119.6075 1267.45851563 1120.5 1268.3125 C1121.2528125 1269.05113281 1122.005625 1269.78976562 1122.78125 1270.55078125 C1124.89239512 1272.24940864 1124.89239512 1272.24940864 1127.37963867 1271.82739258 C1130.5200728 1270.83578434 1131.87103065 1269.57615733 1134.14453125 1267.2109375 C1134.90443359 1266.43363281 1135.66433594 1265.65632813 1136.44726562 1264.85546875 C1137.61805664 1263.62763672 1137.61805664 1263.62763672 1138.8125 1262.375 C1143.74698859 1257.27092714 1148.67947144 1252.31695239 1154.07299805 1247.69775391 C1157.37284994 1244.79047276 1160.42416127 1241.64059323 1163.5 1238.5 C1167.15945232 1234.76350658 1170.82170785 1231.10551312 1174.796875 1227.703125 C1180.56532299 1222.72993877 1185.82242617 1217.23447556 1191.16552734 1211.81396484 C1192.54057423 1210.42080642 1193.91868737 1209.03067651 1195.296875 1207.640625 C1196.50875488 1206.41134277 1196.50875488 1206.41134277 1197.74511719 1205.15722656 C1199.75566657 1203.23375164 1201.66353869 1201.50927074 1204 1200 C1209.22168632 1200.21081342 1211.42404577 1202.98237768 1214.84765625 1206.578125 C1217.83510539 1209.93968301 1220.63616515 1213.43749782 1223.44921875 1216.9453125 C1226.34856767 1220.41742714 1229.39853216 1223.7092764 1232.5 1227 C1236.30277698 1231.03759029 1239.97525978 1235.09841682 1243.4375 1239.4375 C1247.69250382 1244.7542885 1252.29444984 1249.68954162 1256.96606445 1254.63745117 C1260.61105567 1258.49893701 1264.1696261 1262.40355132 1267.5703125 1266.484375 C1269.29401426 1268.39783713 1269.29401426 1268.39783713 1273 1271 C1273 854.54 1273 438.08 1273 9 C855.88 9 438.76 9 9 9 Z " fill="#3D2520" transform="translate(0,0)"/>
<path d="M0 0 C10.56 0 21.12 0 32 0 C32 416.46 32 832.92 32 1262 C27.40305564 1258.05976198 23.48682595 1254.54568642 19.5 1250.125 C19.02933105 1249.60397705 18.55866211 1249.0829541 18.07373047 1248.54614258 C16.71141816 1247.03471798 15.35554812 1245.51749413 14 1244 C13.31164063 1243.23816406 12.62328125 1242.47632813 11.9140625 1241.69140625 C10.23910295 1239.81530527 8.58505623 1237.95288029 7 1236 C6.5933402 1235.52034289 6.1866804 1235.04068578 5.76769757 1234.54649361 C2.32936947 1230.19950395 1.28335949 1226.76715981 1.40545654 1221.20051861 C1.40189158 1220.44067359 1.39832661 1219.68082858 1.39465362 1218.89795796 C1.38876899 1216.3482351 1.41864745 1213.80019583 1.44824219 1211.25065613 C1.45127525 1209.39597857 1.45206658 1207.54129622 1.45081997 1205.6866166 C1.45303819 1201.63622069 1.47137858 1197.58631512 1.50176048 1193.53603339 C1.55153221 1186.88380615 1.5659016 1180.23175098 1.57673645 1173.57936287 C1.5963374 1163.76547049 1.6329746 1153.95176071 1.6802063 1144.13796425 C1.75651513 1128.09756397 1.79435817 1112.05718376 1.82397461 1096.01664734 C1.82658342 1094.62321263 1.82919471 1093.22977793 1.83180845 1091.83634324 C1.84240382 1086.1619406 1.85285171 1080.48753773 1.86281341 1074.81313394 C1.87573614 1067.4842242 1.88973316 1060.15531901 1.90612602 1052.82641613 C2.01152265 1005.66057106 1.9776621 958.4962973 1.83203125 911.33056641 C1.82953744 910.52137415 1.82704363 909.7121819 1.82447425 908.87846867 C1.76274614 888.90866747 1.69498993 868.93888817 1.62471484 848.96911541 C1.5795309 836.12676365 1.53619289 823.28440699 1.49453735 810.4420433 C1.49175501 809.58427703 1.48897267 808.72651075 1.48610602 807.84275156 C1.47201881 803.49636479 1.4579646 799.14997792 1.44392502 794.803591 C1.34707451 764.8323493 1.24748397 734.86111726 1.14550781 704.88989258 C1.14102172 703.57108923 1.14102172 703.57108923 1.136445 702.22564339 C1.06725098 681.8888099 0.99746032 661.5519785 0.92712402 641.21514893 C0.76366474 593.9424227 0.6041266 546.66968605 0.45408535 499.39691514 C0.44305624 495.92229122 0.43198826 492.44766742 0.42088413 488.97304374 C0.13217304 398.6041595 -0.04916585 308.23580121 0 0 Z " fill="#C7C7C7" transform="translate(1241,9)"/>
<path d="M0 0 C422.4 0 844.8 0 1280 0 C1280 422.07 1280 844.14 1280 1279 C1277.40967669 1276.40967669 1277.75676658 1274.64643097 1277.73198339 1271.11698731 C1277.73634189 1270.28278112 1277.7407004 1269.44857492 1277.74519098 1268.58908975 C1277.7419404 1267.70257688 1277.73868983 1266.81606401 1277.73534076 1265.90268711 C1277.7267915 1262.89272577 1277.73264963 1259.88295749 1277.73828697 1256.87299156 C1277.73510277 1254.69885284 1277.73104149 1252.52471526 1277.72617642 1250.35057966 C1277.71527304 1244.32514933 1277.71695147 1238.2997758 1277.72052653 1232.27433904 C1277.72204961 1226.42469647 1277.7141941 1220.57507171 1277.7065648 1214.72543503 C1277.69108358 1202.59667382 1277.68514261 1190.4679243 1277.68425441 1178.33915401 C1277.68330346 1165.90755596 1277.67788866 1153.4759712 1277.66723371 1141.04437757 C1277.66655914 1140.25428578 1277.66588457 1139.46419399 1277.66518957 1138.65016003 C1277.66172974 1134.6212319 1277.65819906 1130.59230383 1277.65464286 1126.56337578 C1277.62925917 1097.64581954 1277.61331068 1068.72826458 1277.60269165 1039.81069946 C1277.58829855 1000.71013302 1277.56144927 961.60959518 1277.5324707 922.5090332 C1277.46910039 828.46436217 1277.42312406 734.41968007 1277.375 640.375 C1277.25125 430.37125 1277.1275 220.3675 1277 4 C856.91 4 436.82 4 4 4 C3.67 425.08 3.34 846.16 3 1280 C2.01 1280 1.02 1280 0 1280 C0 857.6 0 435.2 0 0 Z " fill="#FEF1DF" transform="translate(0,0)"/>
<path d="M0 0 C12.54 0 25.08 0 38 0 C38 422.07 38 844.14 38 1279 C35.40968038 1276.40968038 35.75676673 1274.64644276 35.7319834 1271.11700391 C35.7363419 1270.28279224 35.7407004 1269.44858056 35.74519098 1268.58908975 C35.74194038 1267.7025276 35.73868978 1266.81596544 35.73534068 1265.90253777 C35.72679184 1262.8926262 35.73264903 1259.88290771 35.73828697 1256.87299156 C35.73510324 1254.69964935 35.73104243 1252.52630827 35.72617769 1250.35296917 C35.71527264 1244.32791497 35.71695583 1238.30291756 35.72052841 1232.27785693 C35.72205042 1226.41598266 35.71418052 1220.55412611 35.70654711 1214.69225772 C35.69107007 1202.54906748 35.68509786 1190.40588892 35.68421364 1178.26268959 C35.68327853 1165.95003618 35.67800561 1153.63739608 35.66738319 1141.32474709 C35.66638221 1140.15997898 35.66638221 1140.15997898 35.665361 1138.9716802 C35.66193841 1135.01252432 35.65844471 1131.05336851 35.6549259 1127.09421272 C35.62957537 1098.40752108 35.61391042 1069.72083065 35.60334396 1041.0341301 C35.59284849 1012.61693295 35.57823114 984.19974281 35.55806351 955.78255081 C35.55712753 954.45973929 35.55712753 954.45973929 35.55617265 953.1102043 C35.55047149 945.0558781 35.54471938 937.00155194 35.53890612 928.94722582 C35.52445433 908.92327618 35.51064183 888.89932613 35.49726295 868.87537575 C35.49665313 867.9634353 35.49604331 867.05149486 35.49541502 866.11191985 C35.46579209 821.72956374 35.44353396 777.34720434 35.421875 732.96484375 C35.41435288 717.55930579 35.40679824 702.15376785 35.39910889 686.74822998 C35.39863204 685.7928031 35.39815519 684.83737622 35.39766389 683.85299701 C35.37546257 639.4591215 35.34801706 595.0652497 35.31925865 550.67137802 C35.31737831 547.76746392 35.31550143 544.86354983 35.31362569 541.95963573 C35.29407668 511.6973915 35.27427537 481.43514742 35.25436461 451.17290342 C35.25379579 450.3083347 35.25322698 449.44376597 35.25264092 448.5529982 C35.25160578 446.97988472 35.25057036 445.40677124 35.2495345 443.83365776 C35.15304813 297.22244428 35.07817071 150.61122654 35 4 C-384.76 3.67 -804.52 3.34 -1237 3 C-1237 2.67 -1237 2.34 -1237 2 C-828.79 2 -420.58 2 0 2 C0 1.34 0 0.68 0 0 Z " fill="#C7BEB6" transform="translate(1242,0)"/>
<path d="M0 0 C2.25888674 0.83490515 3.45475083 1.75069378 5.18383789 3.41186523 C5.74393555 3.94102539 6.3040332 4.47018555 6.88110352 5.01538086 C7.4540918 5.57032227 8.02708008 6.12526367 8.61743164 6.69702148 C9.7628608 7.79125828 10.90993872 8.88377236 12.05883789 9.97436523 C12.56229736 10.46026123 13.06575684 10.94615723 13.58447266 11.44677734 C15.22985613 12.97748348 15.22985613 12.97748348 18.05493164 14.75952148 C16.46077661 18.67161457 13.91599832 21.13170234 10.92993164 24.07202148 C10.01985352 24.9756543 9.10977539 25.87928711 8.17211914 26.81030273 C5.97159879 28.93279553 3.69768533 30.93961796 1.37524414 32.92749023 C-4.00214148 37.59363209 -8.95003137 42.69317534 -13.94506836 47.75952148 C-19.4826313 53.37613869 -25.01674494 58.92142444 -31.01489258 64.05200195 C-34.68413675 67.2979789 -38.07616413 70.8285104 -41.50756836 74.32202148 C-45.51182699 78.39836398 -49.52331559 82.47250154 -53.72241211 86.34936523 C-54.24955811 86.84170654 -54.7767041 87.33404785 -55.31982422 87.84130859 C-56.94506836 88.75952148 -56.94506836 88.75952148 -58.95532227 88.56933594 C-62.35272116 87.18661543 -64.77294914 84.51475594 -67.38256836 82.00952148 C-67.94266602 81.48358398 -68.50276367 80.95764648 -69.07983398 80.41577148 C-72.42987416 77.25727386 -75.70471278 74.03016076 -78.94506836 70.75952148 C-78.31342773 70.27225586 -77.68178711 69.78499023 -77.03100586 69.28295898 C-70.55536792 64.15096927 -64.71968568 58.66451234 -58.93334961 52.77905273 C-55.41592167 49.20739132 -51.82918931 45.83322032 -47.99975586 42.59545898 C-44.64516062 39.59800697 -41.52907515 36.36315357 -38.36865234 33.16357422 C-35.03892502 29.80858581 -31.60557616 26.66211543 -28.00366211 23.59936523 C-25.38006933 21.2545603 -22.91536335 18.76303406 -20.44506836 16.25952148 C-16.11426717 11.87587841 -11.65737071 7.72947483 -6.94506836 3.75952148 C-6.03756836 2.93452148 -5.13006836 2.10952148 -4.19506836 1.25952148 C-1.94506836 -0.24047852 -1.94506836 -0.24047852 0 0 Z " fill="#C6C6C6" transform="translate(1023.945068359375,1183.240478515625)"/>
<path d="M0 0 C3.51582878 1.488492 6.59232902 3.41110547 9.76171875 5.52734375 C10.39013672 5.93533203 11.01855469 6.34332031 11.66601562 6.76367188 C14.16654017 8.40305321 16.45462698 9.97025198 18.57421875 12.08984375 C16.57747539 14.11398145 14.5769475 16.13414138 12.57421875 18.15234375 C12.02121094 18.71373047 11.46820312 19.27511719 10.8984375 19.85351562 C7.92449348 22.84455127 4.89864458 25.71143093 1.69921875 28.4609375 C-2.90938222 32.44295966 -7.15771449 36.74894309 -11.42578125 41.08984375 C-16.32249247 46.07011659 -21.25697841 50.88852358 -26.5546875 55.44140625 C-29.48390168 58.02205005 -32.19884736 60.79888546 -34.92578125 63.58984375 C-39.02932475 67.74543565 -43.18168454 71.74139782 -47.63671875 75.5234375 C-50.71942112 78.22248477 -53.57029692 81.15404893 -56.42578125 84.08984375 C-60.41824844 82.49474456 -63.05778211 79.68566742 -65.98828125 76.65234375 C-66.46974609 76.16185547 -66.95121094 75.67136719 -67.44726562 75.16601562 C-68.77694816 73.8107271 -70.10155347 72.45046252 -71.42578125 71.08984375 C-72.4244584 70.08852265 -73.42414027 69.08820007 -74.42578125 68.08984375 C-73.69113647 67.45369141 -73.69113647 67.45369141 -72.94165039 66.8046875 C-68.16653322 62.65092325 -63.4784599 58.42036528 -58.86328125 54.08984375 C-58.18072266 53.45046875 -57.49816406 52.81109375 -56.79492188 52.15234375 C-51.2979643 46.97397709 -45.93492981 41.67184828 -40.65014648 36.27734375 C-37.72456776 33.30827278 -34.75325526 30.46956851 -31.58984375 27.75390625 C-26.74393741 23.57124685 -22.28911903 19.02442499 -17.80078125 14.46484375 C-14.69953508 11.31483585 -11.58324535 8.18354997 -8.42578125 5.08984375 C-7.84989258 4.51782227 -7.27400391 3.94580078 -6.68066406 3.35644531 C-4.46541351 1.30539224 -3.07511902 0.1138933 0 0 Z " fill="#C6C6C6" transform="translate(538.42578125,1187.91015625)"/>
<path d="M0 0 C0.71285156 0.45890625 1.42570313 0.9178125 2.16015625 1.390625 C7.37254796 4.72992305 12.58843574 7.99357541 18 11 C14.75181262 15.16174008 11.31911206 18.53317068 7.3046875 21.94921875 C3.67012075 25.18336713 0.30356849 28.67706841 -3.09375 32.15625 C-5.91039414 34.97689576 -8.90856484 37.56546948 -11.92041016 40.17431641 C-15.34007879 43.17646269 -18.63507798 46.30760722 -21.9375 49.4375 C-23.41920878 50.83730528 -24.90098161 52.23704275 -26.3828125 53.63671875 C-27.13852539 54.35134277 -27.89423828 55.0659668 -28.67285156 55.80224609 C-31.0257453 58.0243138 -33.38315325 60.24148465 -35.7421875 62.45703125 C-36.50797119 63.17640869 -37.27375488 63.89578613 -38.06274414 64.63696289 C-39.53036272 66.01539358 -40.99828475 67.39350129 -42.46655273 68.77124023 C-43.46730835 69.71205444 -43.46730835 69.71205444 -44.48828125 70.671875 C-45.10566162 71.25155029 -45.72304199 71.83122559 -46.35913086 72.4284668 C-47.71919391 73.73105954 -49.03401515 75.08070145 -50.3359375 76.44140625 C-52 78 -52 78 -54.3125 78.1875 C-57.68738209 76.69627303 -59.59284167 74.64190067 -62.09765625 71.97265625 C-64.63660537 69.33986506 -67.40198563 67.02313605 -70.203125 64.67578125 C-72.07674426 62.92842764 -73.52511967 61.0894138 -75 59 C-73.45505859 58.16662109 -73.45505859 58.16662109 -71.87890625 57.31640625 C-68.22797398 55.22740935 -65.08204496 52.71844446 -61.9375 49.9375 C-57.38447292 45.99543921 -52.76002762 42.18943547 -48 38.5 C-43.40867561 34.93333798 -38.91584301 31.28174569 -34.5 27.5 C-29.47366198 23.19718486 -24.33477855 19.06828387 -19.11401367 15.00415039 C-14.41118092 11.34021555 -9.79670889 7.58257874 -5.20703125 3.77734375 C-3 2 -3 2 0 0 Z " fill="#C6C6C6" transform="translate(858,1192)"/>
<path d="M0 0 C2.01171875 2.1171875 2.01171875 2.1171875 3.6875 4.875 C6.23497276 8.99086823 6.23497276 8.99086823 10 12 C9.54431641 12.38349609 9.08863281 12.76699219 8.61914062 13.16210938 C2.60649967 18.3132376 -2.944059 23.86434679 -8.5 29.5 C-13.89452733 34.97192371 -19.28171001 40.34250089 -25.11914062 45.34179688 C-28.40262519 48.23658234 -31.43672189 51.37594415 -34.5 54.5 C-38.8575148 58.90457105 -43.21089412 63.20046745 -47.96875 67.17578125 C-49.71613321 68.74506579 -51.33952835 70.35402939 -52.96875 72.04296875 C-53.49960205 72.59057861 -54.0304541 73.13818848 -54.57739258 73.70239258 C-55.62800893 74.793791 -56.66999309 75.89358479 -57.7019043 77.00268555 C-59.89403687 79.27658959 -61.69653378 80.88129116 -64.65625 82.0390625 C-67 82 -67 82 -68.73828125 80.8125 C-69.25777344 80.214375 -69.77726562 79.61625 -70.3125 79 C-73.44292173 75.56752003 -76.74704463 72.56633576 -80.30078125 69.578125 C-82 68 -82 68 -84 65 C-82.92105469 64.40058594 -82.92105469 64.40058594 -81.8203125 63.7890625 C-78.83275 61.89390512 -76.45097959 59.79718976 -73.875 57.375 C-70.19498869 53.97086638 -66.47084622 50.70162033 -62.5625 47.5625 C-58.02683557 43.90428985 -53.7429883 40.05257035 -49.48071289 36.08618164 C-45.39338994 32.30509442 -41.11956756 28.80310034 -36.78125 25.3125 C-33.75977665 22.80026373 -30.87594304 20.1756401 -28 17.5 C-7.74388429 -1.30619735 -7.74388429 -1.30619735 0 0 Z " fill="#C6C6C6" transform="translate(1192,1190)"/>
<path d="M0 0 C4.10110762 1.40398279 6.98089159 3.37087038 10.3125 6.125 C11.63701172 7.21167969 11.63701172 7.21167969 12.98828125 8.3203125 C13.65214844 8.87460938 14.31601562 9.42890625 15 10 C13.48688271 13.559604 11.41021806 15.826829 8.67382812 18.53735352 C7.77950073 19.42830215 6.88517334 20.31925079 5.96374512 21.23719788 C4.98627709 22.20113144 4.00877797 23.16503348 3.03125 24.12890625 C2.02948004 25.12440202 1.028226 26.12041722 0.02746582 27.1169281 C-2.60448247 29.73559257 -5.24194238 32.34862844 -7.88104248 34.96008301 C-12.10623153 39.14210425 -16.32469784 43.33087971 -20.53993225 47.52293205 C-22.01216488 48.9849535 -23.48776942 50.44350734 -24.96374512 51.90174866 C-25.85807251 52.78954514 -26.7523999 53.67734161 -27.67382812 54.59204102 C-28.46277466 55.37273453 -29.25172119 56.15342804 -30.0645752 56.95777893 C-32.1532401 59.04598896 -32.1532401 59.04598896 -34 62 C-34.66 62 -35.32 62 -36 62 C-36.23074219 62.56847656 -36.46148438 63.13695312 -36.69921875 63.72265625 C-38.33121205 66.57986975 -40.32679067 68.28719372 -42.8125 70.4375 C-46.3349544 73.52665683 -49.74285298 76.63428141 -53 80 C-57.90904208 77.79447845 -61.36587365 74.20987307 -65.25 70.5625 C-65.99507812 69.88123047 -66.74015625 69.19996094 -67.5078125 68.49804688 C-68.21164062 67.83998047 -68.91546875 67.18191406 -69.640625 66.50390625 C-70.60790527 65.60393921 -70.60790527 65.60393921 -71.59472656 64.68579102 C-73 63 -73 63 -73 60 C-70.99896688 58.22704817 -69.01898467 56.64571557 -66.875 55.0625 C-65.57862022 54.0769868 -64.2844089 53.08861572 -62.9921875 52.09765625 C-61.99396973 51.33219482 -61.99396973 51.33219482 -60.97558594 50.55126953 C-57.89665375 48.13363049 -54.94937139 45.57284699 -52 43 C-46.87187146 38.54496521 -41.61974692 34.3036879 -36.25 30.14453125 C-31.4577585 26.41128954 -26.85863633 22.48417074 -22.27416992 18.50024414 C-17.48276041 14.35886085 -12.54680171 10.42787689 -7.52929688 6.56445312 C-4.86401823 4.5053457 -2.29454348 2.47291789 0 0 Z " fill="#C7C7C7" transform="translate(700,1194)"/>
<path d="M0 0 C2.51591795 1.22541014 4.90988409 2.6298382 7.3125 4.0625 C8.28026367 4.62807617 8.28026367 4.62807617 9.26757812 5.20507812 C10.84878152 6.13037493 12.4249146 7.06432681 14 8 C14 11 14 11 12.26280212 13.0912323 C11.04204735 14.29747002 11.04204735 14.29747002 9.79663086 15.52807617 C8.41905861 16.900467 8.41905861 16.900467 7.01365662 18.30058289 C5.99745982 19.29812039 4.9811869 20.29558036 3.96484375 21.29296875 C2.92713537 22.32253623 1.89016351 23.35284655 0.85389709 24.38386536 C-1.88415984 27.10477081 -4.63063579 29.81701086 -7.37939453 32.52709961 C-11.75588117 36.84454748 -16.12007879 41.1744019 -20.48330498 45.5052433 C-21.9997669 47.00790153 -23.52007561 48.50657618 -25.04103088 50.00468445 C-29.7257641 54.63305847 -34.26944817 59.31734409 -38.55226135 64.32270813 C-40.41167638 66.47695172 -42.38275114 68.49606315 -44.40234375 70.5 C-45.14677734 71.24121094 -45.89121094 71.98242188 -46.65820312 72.74609375 C-47.41037109 73.48988281 -48.16253906 74.23367188 -48.9375 75 C-49.71673828 75.77472656 -50.49597656 76.54945312 -51.29882812 77.34765625 C-53.1969242 79.23410757 -55.09733149 81.11816245 -57 83 C-61.1413833 79.5191826 -65.13790851 75.98304674 -68.9375 72.125 C-69.70964844 71.34382813 -70.48179687 70.56265625 -71.27734375 69.7578125 C-71.84582031 69.17773438 -72.41429687 68.59765625 -73 68 C-67.43312161 61.27824246 -61.2914864 55.2329006 -55.07617188 49.11523438 C-54.26857422 48.31537109 -53.46097656 47.51550781 -52.62890625 46.69140625 C-51.5471814 45.62708374 -51.5471814 45.62708374 -50.44360352 44.54125977 C-48.45942249 42.47778287 -46.58281212 40.38366695 -44.71386719 38.21826172 C-40.96570965 33.90345023 -36.99523353 29.85074271 -32.94921875 25.81640625 C-32.2092012 25.07543198 -31.46918365 24.3344577 -30.70674133 23.57102966 C-29.1575284 22.02114141 -27.60707273 20.47249442 -26.05541992 18.92504883 C-23.67314495 16.54817751 -21.29631503 14.16595354 -18.91992188 11.78320312 C-17.4091751 10.27311635 -15.89811859 8.76333938 -14.38671875 7.25390625 C-13.67529221 6.54045547 -12.96386566 5.8270047 -12.23088074 5.0919342 C-11.57292007 4.4371257 -10.91495941 3.7823172 -10.23706055 3.10766602 C-9.65860886 2.53000992 -9.08015717 1.95235382 -8.48417664 1.35719299 C-5.46910649 -1.39991285 -3.81929473 -1.10101048 0 0 Z " fill="#C6C6C6" transform="translate(216,1192)"/>
<path d="M0 0 C5.277967 2.80055392 9.56943732 6.00774272 14 10 C9.81319719 15.05770941 5.41141755 19.58023385 0.5625 24 C-3.88043142 28.07458194 -8.2307065 32.2045906 -12.47485352 36.48632812 C-14.16509479 38.16385268 -15.92218953 39.72402979 -17.75 41.25 C-21.15838437 44.18279585 -24.34399864 47.30072128 -27.5 50.5 C-31.21011483 54.26085145 -35.01546742 57.82607345 -39.03515625 61.25390625 C-42.10035386 63.97784925 -44.93400767 66.92527861 -47.8125 69.84375 C-50.74550881 72.73485869 -53.83154573 75.37085709 -57 78 C-60.05160609 76.62736637 -62.24826932 75.04043427 -64.671875 72.7421875 C-65.66767578 71.80439453 -65.66767578 71.80439453 -66.68359375 70.84765625 C-67.36550781 70.19667969 -68.04742187 69.54570313 -68.75 68.875 C-69.44738281 68.21628906 -70.14476562 67.55757812 -70.86328125 66.87890625 C-72.57950489 65.25672226 -74.29153435 63.63034621 -76 62 C-75.26136719 61.41734375 -74.52273438 60.8346875 -73.76171875 60.234375 C-71.37294027 58.3017282 -69.08629024 56.31475512 -66.8125 54.25 C-62.95306441 50.80181574 -58.98746127 47.5389491 -54.9296875 44.328125 C-51.28579204 41.43244274 -47.67328769 38.49929648 -44.0625 35.5625 C-43.36697021 34.99700439 -42.67144043 34.43150879 -41.95483398 33.84887695 C-38.13152821 30.73870336 -34.31297135 27.62284079 -30.5 24.5 C-8.59372609 6.56465187 -8.59372609 6.56465187 0 0 Z " fill="#C6C6C6" transform="translate(382,1194)"/>
<path d="M0 0 C1.11137103 1.11137103 2.21798637 2.22777617 3.3046875 3.36328125 C7.78106135 7.68494172 12.82775442 11.55183628 18 15 C16.53417985 18.42280517 14.61937745 20.56480483 11.9375 23.125 C9.08428067 25.77905 9.08428067 25.77905 7 29 C6.34 29 5.68 29 5 29 C4.61908203 29.87398437 4.61908203 29.87398437 4.23046875 30.765625 C2.86679667 33.24188033 1.35774797 34.80520626 -0.6875 36.75 C-3.27921381 39.27703646 -5.77086051 41.81300884 -8.125 44.5625 C-12.14457359 49.2336483 -16.3660254 53.70940234 -20.58203125 58.20239258 C-23.47993409 61.29299978 -26.36707978 64.39075003 -29.2109375 67.53125 C-29.9519873 68.34867676 -29.9519873 68.34867676 -30.70800781 69.18261719 C-32.03980883 70.65576717 -33.36769634 72.13245247 -34.6953125 73.609375 C-36.70180225 75.69068302 -38.67412679 77.30745454 -41 79 C-43.95285659 42.76671269 -43.95285659 42.76671269 -37.4609375 33.90625 C-34.05231339 30.28271874 -30.24827684 27.38158199 -26.14086914 24.59423828 C-23.22089162 22.41982236 -21.0552429 19.8412132 -18.73510742 17.05444336 C-15.74657283 13.5158872 -12.45906176 10.27481704 -9.1875 7 C-8.52041016 6.32066406 -7.85332031 5.64132812 -7.16601562 4.94140625 C-6.52728516 4.30074219 -5.88855469 3.66007812 -5.23046875 3 C-4.65707764 2.4225 -4.08368652 1.845 -3.49291992 1.25 C-2 0 -2 0 0 0 Z " fill="#C7C7C7" transform="translate(50,1192)"/>
<path d="M0 0 C4.83540096 2.61111652 8.87103901 5.37457083 13 9 C9.87493295 12.12506705 6.07400597 12.0375483 1.8125 12.6875 C0.97396484 12.82994141 0.13542969 12.97238281 -0.72851562 13.11914062 C-5.79150464 13.91356747 -9.97126133 14.01391348 -15 13 C-10.43369266 8.12927217 -5.25023461 4.10843602 0 0 Z " fill="#DECAB2" transform="translate(382,1194)"/>
<path d="M0 0 C0.33 0 0.66 0 1 0 C1 13.2 1 26.4 1 40 C0.01 40 -0.98 40 -2 40 C-2.04935509 34.62485095 -2.08569802 29.24983315 -2.10986328 23.87451172 C-2.11993484 22.04506127 -2.13359276 20.21562697 -2.15087891 18.38623047 C-2.17507677 15.76005066 -2.18647132 13.13408325 -2.1953125 10.5078125 C-2.20563507 9.68693146 -2.21595764 8.86605042 -2.22659302 8.02029419 C-2.22699184 6.01210858 -2.1224954 4.00444618 -2 2 C-1.34 1.34 -0.68 0.68 0 0 Z " fill="#C8C8C8" transform="translate(2,1240)"/>
<path d="M0 0 C12.21 0 24.42 0 37 0 C37 1.65 37 3.3 37 5 C36.01 4.34 35.02 3.68 34 3 C31.39206609 2.7597883 28.88112855 2.62736305 26.26953125 2.5859375 C25.51911057 2.56657135 24.76868988 2.5472052 23.99552917 2.5272522 C21.60130133 2.46752541 19.20702523 2.42109935 16.8125 2.375 C15.1881302 2.3368138 13.56378052 2.29776169 11.93945312 2.2578125 C7.95979895 2.16182975 3.98004999 2.07777364 0 2 C0 1.34 0 0.68 0 0 Z " fill="#C8C8C7" transform="translate(1242,0)"/>
<path d="M0 0 C4.87072783 4.56630734 8.89156398 9.74976539 13 15 C12.01 15.495 12.01 15.495 11 16 C6.62100093 13.9242407 1.85681591 10.92812187 -1 7 C-1.3125 3.8125 -1.3125 3.8125 -1 1 C-0.67 0.67 -0.34 0.34 0 0 Z " fill="#FFF2E0" transform="translate(91,1235)"/>
<path d="M0 0 C3.66161578 1.22053859 4.16270474 2.36782304 6.1875 5.5625 C6.71730469 6.38878906 7.24710938 7.21507812 7.79296875 8.06640625 C8.19128906 8.70449219 8.58960938 9.34257813 9 10 C4.18202778 8.33807923 2.51868209 6.47765705 0 2 C0 1.34 0 0.68 0 0 Z " fill="#FFF2E0" transform="translate(559,1234)"/>
<path d="M0 0 C3.23861303 1.44424635 5.61969163 3.25772247 8.25 5.625 C8.95640625 6.25664063 9.6628125 6.88828125 10.390625 7.5390625 C10.92171875 8.02117187 11.4528125 8.50328125 12 9 C11.01 9.33 10.02 9.66 9 10 C7.49702124 8.52386015 5.99768715 7.04400843 4.5 5.5625 C3.6646875 4.73878906 2.829375 3.91507813 1.96875 3.06640625 C0 1 0 1 0 0 Z " fill="#968377" transform="translate(412,1215)"/>
<path d="M0 0 C3.62613199 0.56959153 5.25517741 1.92374534 7.75 4.5625 C8.36359375 5.20316406 8.9771875 5.84382813 9.609375 6.50390625 C10.06828125 6.99761719 10.5271875 7.49132813 11 8 C6.71464033 8 5.15057301 5.7483722 2 3 C1.34 2.67 0.68 2.34 0 2 C0 1.34 0 0.68 0 0 Z " fill="#E9DBCA" transform="translate(401,1206)"/>
<path d="M0 0 C1.65 1.65 3.3 3.3 5 5 C3.02 5.33 1.04 5.66 -1 6 C-0.67 4.02 -0.34 2.04 0 0 Z " fill="#BDBBBB" transform="translate(796,1271)"/>
<path d="M0 0 C1.68496298 0.96885372 3.35178756 1.96986723 5 3 C5 3.33 5 3.66 5 4 C2.36 4 -0.28 4 -3 4 C-2.01 2.68 -1.02 1.36 0 0 Z " fill="#ECDFCE" transform="translate(723,1205)"/>
<path d="M0 0 C3.875 1.75 3.875 1.75 5 4 C3.35 3.67 1.7 3.34 0 3 C0 2.01 0 1.02 0 0 Z " fill="#FFF2E0" transform="translate(240,1249)"/>
<path d="M0 0 C2.475 0.99 2.475 0.99 5 2 C4.67 2.66 4.34 3.32 4 4 C2.68 3.34 1.36 2.68 0 2 C0 1.34 0 0.68 0 0 Z " fill="#FFF2E0" transform="translate(912,1261)"/>
<path d="M0 0 C1.9375 0.375 1.9375 0.375 4 1 C4.33 1.66 4.66 2.32 5 3 C3.35 2.67 1.7 2.34 0 2 C0 1.34 0 0.68 0 0 Z " fill="#FFF2E0" transform="translate(880,1249)"/>
<path d="M0 0 C0.99 0.33 1.98 0.66 3 1 C2.34 1.66 1.68 2.32 1 3 C0.34 2.34 -0.32 1.68 -1 1 C-0.67 0.67 -0.34 0.34 0 0 Z " fill="#FFF2E0" transform="translate(233,1239)"/>
<path d="M0 0 C0.99 0.495 0.99 0.495 2 1 C2 1.66 2 2.32 2 3 C1.34 3 0.68 3 0 3 C0 2.01 0 1.02 0 0 Z " fill="#FFF2E0" transform="translate(1071,1260)"/>
<path d="M0 0 C0.99 0 1.98 0 3 0 C2.67 0.66 2.34 1.32 2 2 C1.34 1.34 0.68 0.68 0 0 Z " fill="#FFF2E0" transform="translate(70,1278)"/>
<path d="M0 0 C0.66 0 1.32 0 2 0 C2 0.66 2 1.32 2 2 C1.34 2 0.68 2 0 2 C0 1.34 0 0.68 0 0 Z " fill="#FFF2E0" transform="translate(1203,1234)"/>
<path d="" fill="#FFF2E0" transform="translate(0,0)"/>
</svg>
