<?xml version="1.0" encoding="UTF-8"?>
<svg version="1.1" xmlns="http://www.w3.org/2000/svg" width="320" height="320">
<path d="M0 0 C2.29961495 0.81065393 4.6150656 1.52627352 6.94555664 2.2421875 C11.71711715 3.82713179 15.81262751 6.17242262 20.05883789 8.8359375 C20.83195313 9.31579102 21.60506836 9.79564453 22.40161133 10.29003906 C31.50875434 16.04527353 41.51839192 22.40798978 47.96508789 31.203125 C49.49260776 33.07352694 49.49260776 33.07352694 52.22290039 35.15625 C61.25597645 42.54016813 67.55426292 53.89355432 73.37133789 63.8359375 C73.85473633 64.61453125 74.33813477 65.393125 74.83618164 66.1953125 C78.55597491 72.39119917 80.43726266 78.90671308 82.37133789 85.8359375 C82.79975014 87.29594772 83.22950232 88.75556525 83.66040039 90.21484375 C84.10667957 91.75492854 84.55199937 93.29529168 84.99633789 94.8359375 C85.20258789 95.53452881 85.40883789 96.23312012 85.62133789 96.95288086 C95.0752915 130.47528051 89.6769149 169.83526958 73.58129883 200.5078125 C72.3899716 202.80008378 71.31537607 205.11641776 70.26586914 207.4765625 C65.61518467 217.83208658 60.40078745 226.92868326 53.37133789 235.8359375 C52.94723633 236.3834668 52.52313477 236.93099609 52.08618164 237.49511719 C46.94526281 244.11778403 46.94526281 244.11778403 44.37133789 246.8359375 C43.71133789 246.8359375 43.05133789 246.8359375 42.37133789 246.8359375 C42.37133789 247.4959375 42.37133789 248.1559375 42.37133789 248.8359375 C19.78256526 272.81989903 -15.26086752 285.75084572 -47.62866211 286.8359375 C-84.48386243 287.38911124 -119.25179335 274.18320185 -145.87866211 248.625 C-150.15496768 244.28795145 -153.95291888 239.68677213 -157.62866211 234.8359375 C-158.19713867 234.11792969 -158.76561523 233.39992188 -159.35131836 232.66015625 C-167.383469 221.9696106 -173.5512777 209.18216099 -178.62866211 196.8359375 C-178.94448242 196.09730469 -179.26030273 195.35867187 -179.58569336 194.59765625 C-195.21507486 156.70175864 -197.26133995 118.85708222 -183.46435547 80.23925781 C-182.92058509 78.67546125 -182.40413755 77.10180485 -181.91992188 75.51855469 C-180.18198347 69.85389095 -177.71694 65.09290218 -174.56616211 60.0859375 C-174.08300537 59.30951904 -173.59984863 58.53310059 -173.10205078 57.7331543 C-167.31557351 48.5716252 -161.26898797 39.29636682 -152.61303711 32.59375 C-150.78619694 30.97548607 -149.35947306 29.34731363 -147.81225586 27.46875 C-144.84762712 23.95569726 -141.67082126 21.25237456 -137.94116211 18.5859375 C-137.3032373 18.12630615 -136.6653125 17.6666748 -136.00805664 17.19311523 C-124.04769035 8.7532829 -111.93511094 1.35446088 -97.62866211 -2.1640625 C-96.19191498 -2.57958899 -94.75712966 -3.00193619 -93.32397461 -3.4296875 C-61.96902417 -12.7236301 -30.58094013 -11.0946804 0 0 Z " fill="#4F2B08" transform="translate(211.628662109375,25.1640625)"/>
<path d="M0 0 C2.29961495 0.81065393 4.6150656 1.52627352 6.94555664 2.2421875 C11.71711715 3.82713179 15.81262751 6.17242262 20.05883789 8.8359375 C20.83195313 9.31579102 21.60506836 9.79564453 22.40161133 10.29003906 C31.50875434 16.04527353 41.51839192 22.40798978 47.96508789 31.203125 C49.49260776 33.07352694 49.49260776 33.07352694 52.22290039 35.15625 C61.25597645 42.54016813 67.55426292 53.89355432 73.37133789 63.8359375 C73.85473633 64.61453125 74.33813477 65.393125 74.83618164 66.1953125 C78.55597491 72.39119917 80.43726266 78.90671308 82.37133789 85.8359375 C82.79975014 87.29594772 83.22950232 88.75556525 83.66040039 90.21484375 C84.10667957 91.75492854 84.55199937 93.29529168 84.99633789 94.8359375 C85.20258789 95.53452881 85.40883789 96.23312012 85.62133789 96.95288086 C95.0752915 130.47528051 89.6769149 169.83526958 73.58129883 200.5078125 C72.3899716 202.80008378 71.31537607 205.11641776 70.26586914 207.4765625 C65.61518467 217.83208658 60.40078745 226.92868326 53.37133789 235.8359375 C52.94723633 236.3834668 52.52313477 236.93099609 52.08618164 237.49511719 C46.94526281 244.11778403 46.94526281 244.11778403 44.37133789 246.8359375 C43.71133789 246.8359375 43.05133789 246.8359375 42.37133789 246.8359375 C42.37133789 247.4959375 42.37133789 248.1559375 42.37133789 248.8359375 C19.78256526 272.81989903 -15.26086752 285.75084572 -47.62866211 286.8359375 C-84.48386243 287.38911124 -119.25179335 274.18320185 -145.87866211 248.625 C-150.15496768 244.28795145 -153.95291888 239.68677213 -157.62866211 234.8359375 C-158.19713867 234.11792969 -158.76561523 233.39992188 -159.35131836 232.66015625 C-167.383469 221.9696106 -173.5512777 209.18216099 -178.62866211 196.8359375 C-178.94448242 196.09730469 -179.26030273 195.35867187 -179.58569336 194.59765625 C-195.21507486 156.70175864 -197.26133995 118.85708222 -183.46435547 80.23925781 C-182.92058509 78.67546125 -182.40413755 77.10180485 -181.91992188 75.51855469 C-180.18198347 69.85389095 -177.71694 65.09290218 -174.56616211 60.0859375 C-174.08300537 59.30951904 -173.59984863 58.53310059 -173.10205078 57.7331543 C-167.31557351 48.5716252 -161.26898797 39.29636682 -152.61303711 32.59375 C-150.78619694 30.97548607 -149.35947306 29.34731363 -147.81225586 27.46875 C-144.84762712 23.95569726 -141.67082126 21.25237456 -137.94116211 18.5859375 C-137.3032373 18.12630615 -136.6653125 17.6666748 -136.00805664 17.19311523 C-124.04769035 8.7532829 -111.93511094 1.35446088 -97.62866211 -2.1640625 C-96.19191498 -2.57958899 -94.75712966 -3.00193619 -93.32397461 -3.4296875 C-61.96902417 -12.7236301 -30.58094013 -11.0946804 0 0 Z M-106.73901367 14.87158203 C-108.50377517 15.77220321 -110.33344483 16.54233918 -112.16381836 17.30078125 C-116.05312112 19.02400108 -119.50563904 21.08880719 -123.06616211 23.3984375 C-123.70231445 23.79740234 -124.3384668 24.19636719 -124.99389648 24.60742188 C-126.57727898 25.62616099 -128.10862335 26.72489669 -129.62866211 27.8359375 C-129.62866211 28.4959375 -129.62866211 29.1559375 -129.62866211 29.8359375 C-130.61866211 29.8359375 -131.60866211 29.8359375 -132.62866211 29.8359375 C-135.08738616 32.04340254 -135.08738616 32.04340254 -137.62866211 34.8359375 C-148.62866211 45.8359375 -148.62866211 45.8359375 -151.47241211 48.4921875 C-153.96719037 50.67311276 -153.96719037 50.67311276 -153.62866211 53.8359375 C-155.11366211 54.3309375 -155.11366211 54.3309375 -156.62866211 54.8359375 C-157.97299356 56.41749283 -157.97299356 56.41749283 -159.15209961 58.4140625 C-159.61342285 59.1560791 -160.07474609 59.8980957 -160.55004883 60.66259766 C-161.02974121 61.4622998 -161.50943359 62.26200195 -162.00366211 63.0859375 C-162.49753418 63.90497559 -162.99140625 64.72401367 -163.50024414 65.56787109 C-167.3555228 72.10074627 -170.30286104 78.6068618 -172.62866211 85.8359375 C-173.05663086 87.06441406 -173.48459961 88.29289062 -173.92553711 89.55859375 C-184.25024092 119.84187491 -184.17652823 155.63858658 -169.87768555 184.75488281 C-168.99815453 186.47450811 -168.08974538 188.17927612 -167.17944336 189.8828125 C-165.80789027 192.49463651 -164.66560691 195.07756218 -163.62866211 197.8359375 C-162.96866211 197.8359375 -162.30866211 197.8359375 -161.62866211 197.8359375 C-161.62866211 199.1559375 -161.62866211 200.4759375 -161.62866211 201.8359375 C-160.96866211 201.8359375 -160.30866211 201.8359375 -159.62866211 201.8359375 C-159.62866211 202.8259375 -159.62866211 203.8159375 -159.62866211 204.8359375 C-158.96866211 204.8359375 -158.30866211 204.8359375 -157.62866211 204.8359375 C-157.62866211 205.8259375 -157.62866211 206.8159375 -157.62866211 207.8359375 C-156.0066084 209.54605367 -154.33215401 211.20692832 -152.62866211 212.8359375 C-151.17051716 214.61084285 -149.733045 216.40292241 -148.31616211 218.2109375 C-144.99564772 222.31210263 -141.63380547 225.88174708 -137.56616211 229.234375 C-136.30066143 230.28045419 -135.06849439 231.36859698 -133.87866211 232.5 C-120.38679387 245.23585839 -101.67009002 253.69252361 -83.64819336 257.4140625 C-81.67665058 257.82591283 -79.71484279 258.28352428 -77.75366211 258.7421875 C-59.54332919 262.74045521 -39.69801135 262.39329059 -21.62866211 257.8359375 C-20.93514648 257.66433105 -20.24163086 257.49272461 -19.52709961 257.31591797 C-6.14355864 253.91224016 6.45679823 248.83458098 18.37133789 241.8359375 C18.37133789 241.1759375 18.37133789 240.5159375 18.37133789 239.8359375 C19.36133789 239.8359375 20.35133789 239.8359375 21.37133789 239.8359375 C21.37133789 239.1759375 21.37133789 238.5159375 21.37133789 237.8359375 C22.36133789 237.8359375 23.35133789 237.8359375 24.37133789 237.8359375 C26.09348888 236.226667 27.75142365 234.54808043 29.37133789 232.8359375 C30.80146756 231.53402635 32.23182759 230.23231059 33.67211914 228.94165039 C38.6521458 224.4755509 43.30553852 219.90875036 47.65258789 214.80859375 C49.37133789 212.8359375 49.37133789 212.8359375 51.54321289 210.72265625 C53.48648646 208.71709827 53.98236556 207.55874379 54.37133789 204.8359375 C55.03133789 204.8359375 55.69133789 204.8359375 56.37133789 204.8359375 C60.04834783 200.35849002 62.25156807 195.01890916 64.27368164 189.6484375 C65.52393951 186.44492978 66.95134585 183.34274952 68.37133789 180.2109375 C82.58672314 147.11350013 78.41205123 112.95807752 67.37133789 79.8359375 C66.71133789 79.8359375 66.05133789 79.8359375 65.37133789 79.8359375 C65.25918945 78.34126953 65.25918945 78.34126953 65.14477539 76.81640625 C64.49391515 72.27979617 62.42919781 68.96325424 59.99633789 65.1484375 C59.59672852 64.49810547 59.19711914 63.84777344 58.78540039 63.17773438 C55.82114102 58.33148805 55.82114102 58.33148805 52.37133789 53.8359375 C51.71133789 53.8359375 51.05133789 53.8359375 50.37133789 53.8359375 C50.37133789 52.8459375 50.37133789 51.8559375 50.37133789 50.8359375 C48.71942298 49.48437075 47.04839697 48.1561755 45.37133789 46.8359375 C44.26645753 45.60494176 43.18490553 44.35279779 42.12133789 43.0859375 C38.27458605 38.58819689 34.07645005 34.43903765 29.37133789 30.8359375 C28.71133789 30.8359375 28.05133789 30.8359375 27.37133789 30.8359375 C27.1715332 30.25972656 26.97172852 29.68351562 26.76586914 29.08984375 C24.84226911 25.98083194 22.1498689 24.5539537 19.05883789 22.7734375 C17.92833008 22.10183594 16.79782227 21.43023437 15.63305664 20.73828125 C14.55668945 20.11050781 13.48032227 19.48273437 12.37133789 18.8359375 C11.49477539 18.289375 10.61821289 17.7428125 9.71508789 17.1796875 C7.53005472 15.92693515 5.58531758 15.12383756 3.18383789 14.3984375 C-0.03162487 13.38635742 -3.09617432 12.23230429 -6.19116211 10.8984375 C-37.1129924 -1.5947478 -76.98259467 -0.74573376 -106.73901367 14.87158203 Z " fill="#CBC5C5" transform="translate(211.628662109375,25.1640625)"/>
<path d="M0 0 C2.29961495 0.81065393 4.6150656 1.52627352 6.94555664 2.2421875 C11.71711715 3.82713179 15.81262751 6.17242262 20.05883789 8.8359375 C20.83195313 9.31579102 21.60506836 9.79564453 22.40161133 10.29003906 C31.50875434 16.04527353 41.51839192 22.40798978 47.96508789 31.203125 C49.49260776 33.07352694 49.49260776 33.07352694 52.22290039 35.15625 C61.25597645 42.54016813 67.55426292 53.89355432 73.37133789 63.8359375 C73.85473633 64.61453125 74.33813477 65.393125 74.83618164 66.1953125 C78.55597491 72.39119917 80.43726266 78.90671308 82.37133789 85.8359375 C82.79975014 87.29594772 83.22950232 88.75556525 83.66040039 90.21484375 C84.10667957 91.75492854 84.55199937 93.29529168 84.99633789 94.8359375 C85.20258789 95.53452881 85.40883789 96.23312012 85.62133789 96.95288086 C95.0752915 130.47528051 89.6769149 169.83526958 73.58129883 200.5078125 C72.3899716 202.80008378 71.31537607 205.11641776 70.26586914 207.4765625 C65.61518467 217.83208658 60.40078745 226.92868326 53.37133789 235.8359375 C52.94723633 236.3834668 52.52313477 236.93099609 52.08618164 237.49511719 C46.94526281 244.11778403 46.94526281 244.11778403 44.37133789 246.8359375 C43.71133789 246.8359375 43.05133789 246.8359375 42.37133789 246.8359375 C42.37133789 247.4959375 42.37133789 248.1559375 42.37133789 248.8359375 C19.78256526 272.81989903 -15.26086752 285.75084572 -47.62866211 286.8359375 C-84.48386243 287.38911124 -119.25179335 274.18320185 -145.87866211 248.625 C-150.15496768 244.28795145 -153.95291888 239.68677213 -157.62866211 234.8359375 C-158.19713867 234.11792969 -158.76561523 233.39992188 -159.35131836 232.66015625 C-167.383469 221.9696106 -173.5512777 209.18216099 -178.62866211 196.8359375 C-178.94448242 196.09730469 -179.26030273 195.35867187 -179.58569336 194.59765625 C-195.21507486 156.70175864 -197.26133995 118.85708222 -183.46435547 80.23925781 C-182.92058509 78.67546125 -182.40413755 77.10180485 -181.91992188 75.51855469 C-180.18198347 69.85389095 -177.71694 65.09290218 -174.56616211 60.0859375 C-174.08300537 59.30951904 -173.59984863 58.53310059 -173.10205078 57.7331543 C-167.31557351 48.5716252 -161.26898797 39.29636682 -152.61303711 32.59375 C-150.78619694 30.97548607 -149.35947306 29.34731363 -147.81225586 27.46875 C-144.84762712 23.95569726 -141.67082126 21.25237456 -137.94116211 18.5859375 C-137.3032373 18.12630615 -136.6653125 17.6666748 -136.00805664 17.19311523 C-124.04769035 8.7532829 -111.93511094 1.35446088 -97.62866211 -2.1640625 C-96.19191498 -2.57958899 -94.75712966 -3.00193619 -93.32397461 -3.4296875 C-61.96902417 -12.7236301 -30.58094013 -11.0946804 0 0 Z M-81.62866211 -4.1640625 C-82.30348633 -4.01372559 -82.97831055 -3.86338867 -83.67358398 -3.70849609 C-106.99946625 1.68603431 -129.53564833 14.14925527 -146.62866211 30.8359375 C-147.6272467 31.78397355 -148.62595071 32.73188382 -149.62475586 33.6796875 C-169.58238795 52.8533813 -183.2938147 78.69646995 -188.62866211 105.8359375 C-188.89247681 107.16564575 -188.89247681 107.16564575 -189.16162109 108.5222168 C-193.6798015 133.13648669 -191.46542362 161.04944979 -180.62866211 183.8359375 C-180.18151855 184.78388184 -180.18151855 184.78388184 -179.7253418 185.75097656 C-163.80238707 219.26379554 -141.1374636 243.16275337 -107.44946289 258.98095703 C-105.85527388 259.72952902 -104.2704226 260.49792143 -102.68725586 261.26953125 C-76.4999248 273.22704657 -44.15175546 274.31273548 -16.62866211 266.8359375 C-14.85749023 266.38541016 -14.85749023 266.38541016 -13.05053711 265.92578125 C20.4452711 256.58093621 49.87055262 232.91884484 67.46508789 203.24609375 C84.81915572 172.20080438 93.07380034 137.04175375 84.37133789 101.8359375 C84.22100098 101.17964355 84.07066406 100.52334961 83.91577148 99.84716797 C78.15364353 75.15318865 64.97208731 52.84305342 47.37133789 34.8359375 C46.17057617 33.54236328 46.17057617 33.54236328 44.94555664 32.22265625 C24.61179541 10.82395171 -3.99157955 -1.1538477 -32.62866211 -6.1640625 C-33.73467773 -6.35871094 -34.84069336 -6.55335937 -35.98022461 -6.75390625 C-51.20215508 -8.46515111 -66.72580521 -7.61741898 -81.62866211 -4.1640625 Z " fill="#464646" transform="translate(211.628662109375,25.1640625)"/>
<path d="M0 0 C2.32108669 0.70812814 4.65377147 1.38024152 7 2 C7 2.66 7 3.32 7 4 C8.65 4.33 10.3 4.66 12 5 C12 5.66 12 6.32 12 7 C13.65 7.33 15.3 7.66 17 8 C17 8.66 17 9.32 17 10 C18.08861328 10.11988281 18.08861328 10.11988281 19.19921875 10.2421875 C22.66629794 11.18028145 24.22262092 12.65645612 26.8125 15.125 C27.6890625 15.94871094 28.565625 16.77242187 29.46875 17.62109375 C30.3040625 18.40613281 31.139375 19.19117187 32 20 C33.26634255 21.06784838 34.53686144 22.13077399 35.8125 23.1875 C47.5346388 33.48300933 59.07250081 45.54151797 63 61 C63.66 61 64.32 61 65 61 C71.51131584 78.52202409 76.44625658 95.22809797 77 114 C76.67 114 76.34 114 76 114 C75.86013672 113.42781738 75.72027344 112.85563477 75.57617188 112.26611328 C72.41624103 99.54256537 68.58438971 87.70846122 62.89038086 75.89379883 C62.0170803 74.03632901 61.21653677 72.16109005 60.4296875 70.265625 C59.22779444 67.52031735 57.96874218 65.16937643 56.3125 62.6875 C54 59.21533923 54 59.21533923 54 57 C53.01 56.67 52.02 56.34 51 56 C51 55.01 51 54.02 51 53 C50.01 52.67 49.02 52.34 48 52 C47.7834375 51.0409375 47.7834375 51.0409375 47.5625 50.0625 C47.376875 49.381875 47.19125 48.70125 47 48 C46.44054687 47.7421875 45.88109375 47.484375 45.3046875 47.21875 C42.13085777 45.5403858 39.98939519 43.02434417 37.5625 40.4375 C31.2620687 33.9087349 24.16517476 28.08258738 16 24 C16 23.34 16 22.68 16 22 C15.319375 21.90589844 14.63875 21.81179687 13.9375 21.71484375 C10.33762417 20.83881014 7.25822209 19.2716742 4 17.5625 C-15.79227027 7.30688987 -38.06533357 6.07306757 -60 7 C-61.36976416 7.03494922 -62.73955326 7.0689477 -64.109375 7.1015625 C-77.4210358 7.67378321 -89.97495136 11.37454806 -102 17 C-102.84949219 17.39058594 -103.69898437 17.78117187 -104.57421875 18.18359375 C-126.53038198 28.69635636 -144.58253803 45.16597724 -157 66 C-157.42265137 66.69077637 -157.84530273 67.38155273 -158.28076172 68.09326172 C-167.00798007 82.44548317 -173.03309306 97.43767831 -176 114 C-176.33 114 -176.66 114 -177 114 C-176.72412173 96.26855102 -172.49619565 79.44781451 -166 63 C-165.34 63 -164.68 63 -164 63 C-163.71125 62.113125 -163.4225 61.22625 -163.125 60.3125 C-162.16851252 57.49617576 -161.13201054 54.74916844 -160 52 C-159.34 52 -158.68 52 -158 52 C-157.89300781 51.2575 -157.78601563 50.515 -157.67578125 49.75 C-154.97392082 38.75514599 -140.18712022 26.52964167 -131.671875 19.421875 C-129.76748077 17.84642563 -129.76748077 17.84642563 -127.3125 15.25 C-124.07989131 12.10475912 -121.59263475 10 -117 10 C-117 9.34 -117 8.68 -117 8 C-116.01 8 -115.02 8 -114 8 C-114 7.34 -114 6.68 -114 6 C-112.35980399 5.05267184 -110.7124573 4.11772284 -109.0625 3.1875 C-108.14597656 2.66542969 -107.22945313 2.14335938 -106.28515625 1.60546875 C-102.28596812 -0.34895018 -98.24587539 -1.68833925 -94 -3 C-93.19280518 -3.25257568 -92.38561035 -3.50515137 -91.55395508 -3.76538086 C-64.22179264 -12.18369757 -25.64080991 -17.09387327 0 0 Z " fill="#7E7D7C" transform="translate(210,41)"/>
<path d="M0 0 C3.71228389 3.59979044 7.10516412 7.38347519 10.44921875 11.328125 C11.91350467 13.10326363 11.91350467 13.10326363 14 14 C14 14.66 14 15.32 14 16 C14.5775 16.25007813 15.155 16.50015625 15.75 16.7578125 C18.30383246 18.16774084 19.94121983 19.80865078 22 21.875 C46.21891373 43.93087751 80.21030035 54.22296429 112.375 54.25 C113.45263107 54.25101212 113.45263107 54.25101212 114.55203247 54.25204468 C125.34146882 54.23593138 135.50839251 53.72737805 146 51 C147.02722168 50.75056641 147.02722168 50.75056641 148.07519531 50.49609375 C158.51079355 47.93811688 167.80813074 44.05151454 177.24414062 38.94482422 C178.8010553 38.10705173 180.37596655 37.30291642 181.953125 36.50390625 C187.35441383 33.716399 192.35327059 30.4984115 197.3125 27 C197.88758301 26.59668457 198.46266602 26.19336914 199.05517578 25.77783203 C202.05848253 23.60921279 204.71309549 21.35099836 207.29296875 18.6875 C210 16 210 16 212 16 C212.33 15.01 212.66 14.02 213 13 C213.66 13 214.32 13 215 13 C215.24492187 12.43796875 215.48984375 11.8759375 215.7421875 11.296875 C217.22926539 8.58134146 219.04062782 6.53608562 221.125 4.25 C221.84945312 3.45078125 222.57390625 2.6515625 223.3203125 1.828125 C224.15175781 0.92320312 224.15175781 0.92320312 225 0 C225.33 0.66 225.66 1.32 226 2 C205.11974166 33.50083419 176.43138096 56.26859592 138.96850586 64.42333984 C103.94038354 71.34816025 68.41843502 63.34004296 38.71484375 43.84375 C23.36913616 32.68323539 9.09689724 18.80817437 0 2 C0 1.34 0 0.68 0 0 Z " fill="#7F7F7F" transform="translate(47,243)"/>
<path d="M0 0 C0.86625 0.268125 1.7325 0.53625 2.625 0.8125 C10.56545746 3.60636466 18.86213927 8.16111816 25 14 C25 14.66 25 15.32 25 16 C25.56074219 16.24492188 26.12148437 16.48984375 26.69921875 16.7421875 C33.77200701 20.60880519 39.54441558 27.31342657 44.625 33.46875 C45.94220755 35.12389654 45.94220755 35.12389654 48 36 C48 36.99 48 37.98 48 39 C48.99 39.33 49.98 39.66 51 40 C52.4451135 42.06278298 53.73742659 44.08084192 55 46.25 C55.51433594 47.11044922 55.51433594 47.11044922 56.0390625 47.98828125 C57.03345241 49.65445365 58.01689868 51.32714211 59 53 C59.84498047 54.32837891 59.84498047 54.32837891 60.70703125 55.68359375 C62.40498972 58.72555559 62.66307182 61.56333259 63 65 C63.66 65 64.32 65 65 65 C77.35589368 102.50753486 79.29872494 138.45849306 61.6484375 174.59765625 C59.98588438 178.02913437 58.47727613 181.48587345 57 185 C56.30859375 183.3828125 56.30859375 183.3828125 56 181 C57.22265625 178.2421875 57.22265625 178.2421875 59.0625 174.875 C70.16961293 152.31446873 69.8061085 128.48502899 69 104 C69.99 105.485 69.99 105.485 71 107 C71.33 107.33 71.66 107.66 72 108 C70.37824357 95.86978933 68.00573027 84.56346732 64 73 C61 64.13043478 61 64.13043478 61 62 C60.34 62 59.68 62 59 62 C58.57589844 61.09378906 58.15179688 60.18757813 57.71484375 59.25390625 C48.95804997 40.8987567 32.1634551 19.16221236 13 11 C13 10.34 13 9.68 13 9 C11.35 8.67 9.7 8.34 8 8 C8 7.34 8 6.68 8 6 C6.35 5.67 4.7 5.34 3 5 C3 4.34 3 3.68 3 3 C2.030625 2.9175 1.06125 2.835 0.0625 2.75 C-2.86222408 2.33465457 -5.11132339 1.56140641 -7.75 0.25 C-37.50243573 -13.68532887 -70.91806993 -10.49400663 -101 0 C-105.06852554 1.51354013 -109.03821915 3.22779333 -113 5 C-114.66378666 5.67382206 -116.32964976 6.34261708 -118 7 C-118 7.66 -118 8.32 -118 9 C-118.99 9 -119.98 9 -121 9 C-121 9.66 -121 10.32 -121 11 C-129 15 -129 15 -131.140625 15.8828125 C-133.45871977 17.27561734 -133.87439511 18.58339521 -135 21 C-136.48828125 22.4296875 -136.48828125 22.4296875 -138.3125 23.875 C-142.37856297 27.32296182 -146.04441007 31.05449549 -149.6875 34.9375 C-150.2338208 35.51032715 -150.7801416 36.0831543 -151.34301758 36.67333984 C-155.83881049 41.51286035 -159.89237301 46.67711904 -162 53 C-162.66 53 -163.32 53 -164 53 C-164.103125 53.70125 -164.20625 54.4025 -164.3125 55.125 C-165.09359003 58.39137647 -166.42058743 61.0471852 -168 64 C-168.66 64 -169.32 64 -170 64 C-170.11601562 64.845625 -170.23203125 65.69125 -170.3515625 66.5625 C-171.04071792 70.21585403 -172.12980541 73.49836188 -173.375 77 C-177.0817813 87.77801489 -179.32581277 98.60856061 -180 110 C-179.66226563 108.83082031 -179.32453125 107.66164063 -178.9765625 106.45703125 C-178.52617263 104.90881606 -178.0756445 103.36064109 -177.625 101.8125 C-177.40328125 101.04357422 -177.1815625 100.27464844 -176.953125 99.48242188 C-175.8101093 95.56591221 -174.61097806 91.75643949 -173 88 C-171.86697108 91.34585721 -172.15122106 93.197785 -173.3125 96.5 C-181.03428928 120.2460391 -178.92771258 150.25018706 -168.015625 172.73046875 C-166.93500892 175.14523006 -166.42547935 177.39625138 -166 180 C-165.34 180 -164.68 180 -164 180 C-160.92307692 185.41538462 -160.92307692 185.41538462 -161.3125 188.375 C-161.6528125 189.179375 -161.6528125 189.179375 -162 190 C-162 189.01 -162 188.02 -162 187 C-162.66 187 -163.32 187 -164 187 C-164 185.68 -164 184.36 -164 183 C-164.99 182.67 -165.98 182.34 -167 182 C-167.9921875 180.1015625 -167.9921875 180.1015625 -168.875 177.625 C-170.22265815 173.98171123 -171.70312351 170.5366899 -173.4375 167.0625 C-177.10834432 159.07501467 -179.03904795 150.53602046 -181 142 C-181.25007813 140.92105469 -181.50015625 139.84210938 -181.7578125 138.73046875 C-186.2408388 115.14722474 -182.51725998 90.21322433 -174 68 C-173.64421875 67.00355469 -173.2884375 66.00710937 -172.921875 64.98046875 C-170.53132793 58.69265658 -167.38782598 53.02662093 -163.875 47.3125 C-163.44292236 46.60424072 -163.01084473 45.89598145 -162.56567383 45.16625977 C-159.37118384 40.12372795 -159.37118384 40.12372795 -156 39 C-156 38.01 -156 37.02 -156 36 C-153.84375 33.65625 -153.84375 33.65625 -151 31 C-150.1028125 30.1028125 -149.205625 29.205625 -148.28125 28.28125 C-145.52083333 25.52083333 -142.76041667 22.76041667 -140 20 C-139.1234375 19.0615625 -138.246875 18.123125 -137.34375 17.15625 C-135 15 -135 15 -132 15 C-131.505 13.515 -131.505 13.515 -131 12 C-124.19295851 7.06692082 -116.77417227 3.15783934 -109 0 C-108.15824219 -0.38671875 -107.31648438 -0.7734375 -106.44921875 -1.171875 C-76.0258348 -14.80559063 -29.41322298 -19.11585628 0 0 Z " fill="#4B4B4B" transform="translate(214,40)"/>
<path d="M0 0 C2.70788904 2.39544031 4.60944012 4.8947054 6.5 7.9375 C19.54790781 27.88732379 39.97618559 41.18914264 61.17919922 51.14501953 C62.77338823 51.89359152 64.35823951 52.66198393 65.94140625 53.43359375 C92.12873731 65.39110907 124.47690665 66.47679798 152 59 C153.18078125 58.69964844 154.3615625 58.39929688 155.578125 58.08984375 C185.21257028 49.822263 210.76813087 30.28916776 229 6 C230.32676353 4.32809866 231.65759161 2.65936593 233 1 C233.99 2.485 233.99 2.485 235 4 C232.44581502 8.82457162 229.98099485 12.2041677 226 16 C224.88739452 17.28440486 223.78391402 18.57674613 222.6875 19.875 C219.68847675 23.3349121 216.50288407 26.34896959 213.00390625 29.296875 C211.73222206 30.37768262 210.48587893 31.48963911 209.27734375 32.640625 C193.68527857 47.30744675 171.0192129 58.00401803 150.3125 62.6875 C148.96575195 63.00557617 148.96575195 63.00557617 147.59179688 63.33007812 C137.56312634 65.65908073 127.88310637 66.24137655 117.625 66.25 C116.90691162 66.25067474 116.18882324 66.25134949 115.44897461 66.25204468 C104.67086394 66.23593952 94.47293076 65.77257652 84 63 C82.08767578 62.50693359 82.08767578 62.50693359 80.13671875 62.00390625 C58.62940786 56.05291895 38.08002121 45.45913503 22.00390625 29.8984375 C20.14094676 27.94943938 20.14094676 27.94943938 18 27 C18 26.34 18 25.68 18 25 C17.01 24.67 16.02 24.34 15 24 C13.421875 22.43359375 13.421875 22.43359375 11.75 20.4375 C9.27921189 17.51032428 6.76656847 14.64462947 4.1875 11.8125 C1.76219077 9.03293212 -0.15970992 6.67626908 -1 3 C-0.67 2.01 -0.34 1.02 0 0 Z " fill="#4D4D4D" transform="translate(43,232)"/>
<path d="M0 0 C1.14408938 3.43226813 0.85613696 4.10980928 -0.328125 7.39453125 C-0.63218262 8.26094238 -0.93624023 9.12735352 -1.24951172 10.02001953 C-1.57967285 10.94153809 -1.90983398 11.86305664 -2.25 12.8125 C-6.3788132 24.76668853 -9.24917817 36.31370017 -10 49 C-9.66226563 47.83082031 -9.32453125 46.66164062 -8.9765625 45.45703125 C-8.52617263 43.90881606 -8.0756445 42.36064109 -7.625 40.8125 C-7.40328125 40.04357422 -7.1815625 39.27464844 -6.953125 38.48242188 C-5.8101093 34.56591221 -4.61097806 30.75643949 -3 27 C-1.86697108 30.34585721 -2.15122106 32.197785 -3.3125 35.5 C-11.03428928 59.2460391 -8.92771258 89.25018706 1.984375 111.73046875 C3.06499108 114.14523006 3.57452065 116.39625138 4 119 C4.66 119 5.32 119 6 119 C9.07692308 124.41538462 9.07692308 124.41538462 8.6875 127.375 C8.3471875 128.179375 8.3471875 128.179375 8 129 C8 128.01 8 127.02 8 126 C7.34 126 6.68 126 6 126 C6 124.68 6 123.36 6 122 C4.515 121.505 4.515 121.505 3 121 C2.0078125 119.1015625 2.0078125 119.1015625 1.125 116.625 C-0.22265815 112.98171123 -1.70312351 109.5366899 -3.4375 106.0625 C-7.10834432 98.07501467 -9.03904795 89.53602046 -11 81 C-11.25007813 79.92105469 -11.50015625 78.84210938 -11.7578125 77.73046875 C-16.3543997 53.54983045 -13.8758511 21.07073686 0 0 Z " fill="#494848" transform="translate(44,101)"/>
<path d="M0 0 C0.66 0 1.32 0 2 0 C2.33 1.65 2.66 3.3 3 5 C3.66 5 4.32 5 5 5 C17.35589368 42.50753486 19.29872494 78.45849306 1.6484375 114.59765625 C-0.01411562 118.02913437 -1.52272387 121.48587345 -3 125 C-3.69140625 123.3828125 -3.69140625 123.3828125 -4 121 C-2.77734375 118.2421875 -2.77734375 118.2421875 -0.9375 114.875 C10.16961293 92.31446873 9.8061085 68.48502899 9 44 C9.66 44.99 10.32 45.98 11 47 C11.33 47.33 11.66 47.66 12 48 C9.93343789 32.54278751 6.26917904 18.61342499 0.69921875 4.0390625 C0 2 0 2 0 0 Z " fill="#4C4947" transform="translate(274,100)"/>
<path d="M0 0 C0.66 0.33 1.32 0.66 2 1 C2 1.99 2 2.98 2 4 C1.01 4 0.02 4 -1 4 C-1 4.66 -1 5.32 -1 6 C-9 10 -9 10 -11.140625 10.8828125 C-13.45871977 12.27561734 -13.87439511 13.58339521 -15 16 C-16.48828125 17.4296875 -16.48828125 17.4296875 -18.3125 18.875 C-22.37856297 22.32296182 -26.04441007 26.05449549 -29.6875 29.9375 C-30.2338208 30.51032715 -30.7801416 31.0831543 -31.34301758 31.67333984 C-35.83881049 36.51286035 -39.89237301 41.67711904 -42 48 C-42.66 48 -43.32 48 -44 48 C-44.103125 48.70125 -44.20625 49.4025 -44.3125 50.125 C-45.09359003 53.39137647 -46.42058743 56.0471852 -48 59 C-48.99 58.34 -49.98 57.68 -51 57 C-49.50529657 51.63764587 -47.00279268 47.3503884 -44.0625 42.6875 C-43.61970703 41.95982422 -43.17691406 41.23214844 -42.72070312 40.48242188 C-42.07198242 39.44504883 -42.07198242 39.44504883 -41.41015625 38.38671875 C-41.01965088 37.75983154 -40.62914551 37.13294434 -40.22680664 36.48706055 C-39 35 -39 35 -36 34 C-36 33.01 -36 32.02 -36 31 C-33.84375 28.65625 -33.84375 28.65625 -31 26 C-30.1028125 25.1028125 -29.205625 24.205625 -28.28125 23.28125 C-25.52083333 20.52083333 -22.76041667 17.76041667 -20 15 C-18.68515625 13.59234375 -18.68515625 13.59234375 -17.34375 12.15625 C-15 10 -15 10 -12 10 C-11.67 9.01 -11.34 8.02 -11 7 C-8.56640625 5.140625 -8.56640625 5.140625 -5.5625 3.25 C-4.57378906 2.61578125 -3.58507812 1.9815625 -2.56640625 1.328125 C-1.71949219 0.88984375 -0.87257812 0.4515625 0 0 Z " fill="#4E4D4D" transform="translate(94,45)"/>
<path d="M0 0 C1.13302892 3.34585721 0.84877894 5.197785 -0.3125 8.5 C-4.00763227 20.10845205 -4.48993097 31.9194176 -5 44 C-5.33 44 -5.66 44 -6 44 C-6 41.69 -6 39.38 -6 37 C-6.66 37 -7.32 37 -8 37 C-9.09711404 24.32223777 -4.63544668 11.63792995 0 0 Z " fill="#49443E" transform="translate(41,128)"/>
<path d="M0 0 C3.90604716 1.45040722 7.40406072 3.27431098 11 5.375 C12.010625 5.96023437 13.02125 6.54546875 14.0625 7.1484375 C16.90374922 8.93933129 19.49506796 10.76213792 22 13 C22 13.66 22 14.32 22 15 C22.66 15.33 23.32 15.66 24 16 C23.01 16.33 22.02 16.66 21 17 C19.0625 15.8203125 19.0625 15.8203125 17 14.125 C14.54331047 12.12428693 13.04638646 11.01546215 10 10 C10 9.34 10 8.68 10 8 C8.35 7.67 6.7 7.34 5 7 C5 6.34 5 5.68 5 5 C3.35 4.67 1.7 4.34 0 4 C0 2.68 0 1.36 0 0 Z " fill="#5E5D5D" transform="translate(217,41)"/>
<path d="M0 0 C2.2421875 0.109375 2.2421875 0.109375 5 1 C6.61471991 3.09381263 7.85953549 4.96416094 9.125 7.25 C9.78757812 8.38953125 10.45015625 9.5290625 11.1328125 10.703125 C11.74898438 11.79109375 12.36515625 12.8790625 13 14 C13.57492187 14.92296875 14.14984375 15.8459375 14.7421875 16.796875 C16 19 16 19 16 21 C15.34 21 14.68 21 14 21 C13.67 21.66 13.34 22.32 13 23 C12.56429688 22.09378906 12.12859375 21.18757813 11.6796875 20.25390625 C8.22453162 13.15635489 4.63684802 6.4202511 0 0 Z " fill="#5C5C5C" transform="translate(260,79)"/>
<path d="M0 0 C2 1 2 1 2.62255859 2.73071289 C2.79609863 3.4705542 2.96963867 4.21039551 3.1484375 4.97265625 C3.34953125 5.79056641 3.550625 6.60847656 3.7578125 7.45117188 C4.16273684 9.16441187 4.56642484 10.87794464 4.96875 12.59179688 C6.19120769 17.55512984 7.70692655 21.84256689 10.21728516 26.30639648 C11 28 11 28 11 31 C11.66 31 12.32 31 13 31 C16.07692308 36.41538462 16.07692308 36.41538462 15.6875 39.375 C15.460625 39.91125 15.23375 40.4475 15 41 C15 40.01 15 39.02 15 38 C14.34 38 13.68 38 13 38 C13 36.68 13 35.36 13 34 C12.01 33.67 11.02 33.34 10 33 C9.0078125 31.1015625 9.0078125 31.1015625 8.125 28.625 C6.723703 24.81606915 5.13957649 21.24756087 3.3125 17.625 C0.61333099 11.83751798 0.12149845 6.32896476 0 0 Z " fill="#4B443D" transform="translate(37,189)"/>
<path d="M0 0 C0.33 0 0.66 0 1 0 C0.54177532 3.46941546 0.10868317 6.67395049 -1 10 C-1.66 10 -2.32 10 -3 10 C-3.103125 10.70125 -3.20625 11.4025 -3.3125 12.125 C-4.09359003 15.39137647 -5.42058743 18.0471852 -7 21 C-7.99 20.34 -8.98 19.68 -10 19 C-8.62309544 14.25652774 -6.56160559 10.27474838 -3.9375 6.125 C-3.57333984 5.53203125 -3.20917969 4.9390625 -2.83398438 4.328125 C-1.9218371 2.86464287 -0.96486632 1.4292745 0 0 Z " fill="#5E5D5D" transform="translate(53,83)"/>
<path d="M0 0 C0.33 0 0.66 0 1 0 C1 5.61 1 11.22 1 17 C1.66 17 2.32 17 3 17 C3.91657981 22.38490641 4.11138159 27.54230189 4 33 C3.67 33 3.34 33 3 33 C3 31.02 3 29.04 3 27 C2.34 27 1.68 27 1 27 C1 25.02 1 23.04 1 21 C0.34 21 -0.32 21 -1 21 C-0.67 14.07 -0.34 7.14 0 0 Z " fill="#575656" transform="translate(32,148)"/>
<path d="M0 0 C3.66379303 1.57508859 6.29851305 3.84193573 9.25 6.5 C10.14203125 7.2940625 11.0340625 8.088125 11.953125 8.90625 C14 11 14 11 14 13 C10.66864109 12.40300869 8.78724333 11.27987719 6.25 9.0625 C5.63640625 8.53785156 5.0228125 8.01320313 4.390625 7.47265625 C3 6 3 6 3 4 C2.01 3.67 1.02 3.34 0 3 C0 2.01 0 1.02 0 0 Z " fill="#494949" transform="translate(58,253)"/>
<path d="M0 0 C1.13981296 3.41943888 0.95843717 3.71121525 -0.546875 6.765625 C-0.8975 7.49136719 -1.248125 8.21710938 -1.609375 8.96484375 C-1.98578125 9.71894531 -2.3621875 10.47304687 -2.75 11.25 C-3.47508118 12.73382684 -4.19905266 14.21819649 -4.921875 15.703125 C-5.27314453 16.42048828 -5.62441406 17.13785156 -5.98632812 17.87695312 C-7.42030483 20.88029162 -8.71660488 23.92959901 -10 27 C-10.703125 25.45703125 -10.703125 25.45703125 -11 23 C-10.01156155 20.45041022 -8.97744963 18.11592485 -7.75 15.6875 C-7.11872169 14.40026377 -6.4885077 13.11250501 -5.859375 11.82421875 C-5.54806641 11.19435059 -5.23675781 10.56448242 -4.91601562 9.91552734 C-3.99598585 7.9916058 -3.15336894 6.04826027 -2.328125 4.08203125 C-1 1 -1 1 0 0 Z " fill="#484645" transform="translate(281,198)"/>
<path d="M0 0 C0.33 0.99 0.66 1.98 1 3 C-1.97 6.3 -4.94 9.6 -8 13 C-8.33 11.68 -8.66 10.36 -9 9 C-8.34 8.01 -7.68 7.02 -7 6 C-6.34 6 -5.68 6 -5 6 C-5 5.01 -5 4.02 -5 3 C-2.5 1.3125 -2.5 1.3125 0 0 Z " fill="#515050" transform="translate(63,73)"/>
<path d="M0 0 C4.38462134 0.50109958 6.8000997 1.98295115 10 5 C10 5.66 10 6.32 10 7 C10.66 7.33 11.32 7.66 12 8 C11.01 8.33 10.02 8.66 9 9 C6.73828125 7.63671875 6.73828125 7.63671875 4.3125 5.6875 C3.50425781 5.05199219 2.69601563 4.41648437 1.86328125 3.76171875 C1.24839844 3.18035156 0.63351563 2.59898438 0 2 C0 1.34 0 0.68 0 0 Z " fill="#555454" transform="translate(229,49)"/>
<path d="M0 0 C2.25 0.125 2.25 0.125 5 1 C9 5.97297297 9 5.97297297 9 10 C5.52867905 8.59070303 4.11906726 7.09394917 2.25 3.875 C1.60804688 2.78832031 1.60804688 2.78832031 0.953125 1.6796875 C0.63859375 1.12539062 0.3240625 0.57109375 0 0 Z " fill="#565555" transform="translate(260,79)"/>
<path d="M0 0 C0.99 0.99 1.98 1.98 3 3 C1.68 5.31 0.36 7.62 -1 10 C-1.66 10 -2.32 10 -3 10 C-3.75 8.375 -3.75 8.375 -4 6 C-2.0625 2.75 -2.0625 2.75 0 0 Z " fill="#5A5A5A" transform="translate(275,233)"/>
<path d="M0 0 C3.05740483 2.75166435 4.84750161 5.01864192 6 9 C5.67 9.66 5.34 10.32 5 11 C4.34 11 3.68 11 3 11 C2.30034557 9.73581754 1.61565237 8.46334598 0.9375 7.1875 C0.55464844 6.47980469 0.17179687 5.77210938 -0.22265625 5.04296875 C-1 3 -1 3 0 0 Z " fill="#5B5A5A" transform="translate(43,232)"/>
<path d="M0 0 C3.62279384 1.20759795 3.91160831 2.05403206 5.6875 5.3125 C6.12449219 6.09238281 6.56148438 6.87226562 7.01171875 7.67578125 C8 10 8 10 8 14 C7.34 14 6.68 14 6 14 C4.02 9.38 2.04 4.76 0 0 Z " fill="#422406" transform="translate(259,103)"/>
<path d="M0 0 C0.89234179 2.48946307 1.08442558 3.72666635 0.29296875 6.2890625 C-0.25423828 7.44535156 -0.25423828 7.44535156 -0.8125 8.625 C-1.34810547 9.78902344 -1.34810547 9.78902344 -1.89453125 10.9765625 C-3 13 -3 13 -5 15 C-4.43174347 9.45949887 -2.37113483 4.96284034 0 0 Z " fill="#514D4B" transform="translate(275,210)"/>
<path d="M0 0 C0.66 0.33 1.32 0.66 2 1 C2 1.99 2 2.98 2 4 C1.01 4 0.02 4 -1 4 C-1 4.66 -1 5.32 -1 6 C-1.66 6 -2.32 6 -3 6 C-3 5.34 -3 4.68 -3 4 C-3.66 3.67 -4.32 3.34 -5 3 C-2.625 1.4375 -2.625 1.4375 0 0 Z " fill="#636262" transform="translate(94,45)"/>
<path d="M0 0 C0.66 0 1.32 0 2 0 C1.43628586 3.26954202 0.50037734 4.82575883 -2 7 C-2.33 6.01 -2.66 5.02 -3 4 C-1.6875 1.8125 -1.6875 1.8125 0 0 Z " fill="#4F4F4F" transform="translate(270,241)"/>
<path d="M0 0 C-0.33 0.66 -0.66 1.32 -1 2 C-3.64 2 -6.28 2 -9 2 C-5.96271914 -1.03728086 -4.06215635 -1.35405212 0 0 Z " fill="#464646" transform="translate(134,32)"/>
</svg>
