<?xml version="1.0" encoding="UTF-8"?>
<svg version="1.1" xmlns="http://www.w3.org/2000/svg" width="320" height="320">
<path d="M0 0 C2.29961495 0.81065393 4.6150656 1.52627352 6.94555664 2.2421875 C11.71711715 3.82713179 15.81262751 6.17242262 20.05883789 8.8359375 C20.83195313 9.31579102 21.60506836 9.79564453 22.40161133 10.29003906 C31.50875434 16.04527353 41.51839192 22.40798978 47.96508789 31.203125 C49.49260776 33.07352694 49.49260776 33.07352694 52.22290039 35.15625 C61.25597645 42.54016813 67.55426292 53.89355432 73.37133789 63.8359375 C73.85473633 64.61453125 74.33813477 65.393125 74.83618164 66.1953125 C78.55597491 72.39119917 80.43726266 78.90671308 82.37133789 85.8359375 C82.79975014 87.29594772 83.22950232 88.75556525 83.66040039 90.21484375 C84.10667957 91.75492854 84.55199937 93.29529168 84.99633789 94.8359375 C85.20258789 95.53452881 85.40883789 96.23312012 85.62133789 96.95288086 C95.0752915 130.47528051 89.6769149 169.83526958 73.58129883 200.5078125 C72.3899716 202.80008378 71.31537607 205.11641776 70.26586914 207.4765625 C65.61518467 217.83208658 60.40078745 226.92868326 53.37133789 235.8359375 C52.94723633 236.3834668 52.52313477 236.93099609 52.08618164 237.49511719 C46.94526281 244.11778403 46.94526281 244.11778403 44.37133789 246.8359375 C43.71133789 246.8359375 43.05133789 246.8359375 42.37133789 246.8359375 C42.37133789 247.4959375 42.37133789 248.1559375 42.37133789 248.8359375 C19.78256526 272.81989903 -15.26086752 285.75084572 -47.62866211 286.8359375 C-84.48386243 287.38911124 -119.25179335 274.18320185 -145.87866211 248.625 C-150.15496768 244.28795145 -153.95291888 239.68677213 -157.62866211 234.8359375 C-158.19713867 234.11792969 -158.76561523 233.39992188 -159.35131836 232.66015625 C-167.383469 221.9696106 -173.5512777 209.18216099 -178.62866211 196.8359375 C-178.94448242 196.09730469 -179.26030273 195.35867187 -179.58569336 194.59765625 C-195.21507486 156.70175864 -197.26133995 118.85708222 -183.46435547 80.23925781 C-182.92058509 78.67546125 -182.40413755 77.10180485 -181.91992188 75.51855469 C-180.18198347 69.85389095 -177.71694 65.09290218 -174.56616211 60.0859375 C-174.08300537 59.30951904 -173.59984863 58.53310059 -173.10205078 57.7331543 C-167.31557351 48.5716252 -161.26898797 39.29636682 -152.61303711 32.59375 C-150.78619694 30.97548607 -149.35947306 29.34731363 -147.81225586 27.46875 C-144.84762712 23.95569726 -141.67082126 21.25237456 -137.94116211 18.5859375 C-137.3032373 18.12630615 -136.6653125 17.6666748 -136.00805664 17.19311523 C-124.04769035 8.7532829 -111.93511094 1.35446088 -97.62866211 -2.1640625 C-96.19191498 -2.57958899 -94.75712966 -3.00193619 -93.32397461 -3.4296875 C-61.96902417 -12.7236301 -30.58094013 -11.0946804 0 0 Z " fill="#D27D9F" transform="translate(211.628662109375,25.1640625)"/>
<path d="M0 0 C2.29961495 0.81065393 4.6150656 1.52627352 6.94555664 2.2421875 C11.71711715 3.82713179 15.81262751 6.17242262 20.05883789 8.8359375 C20.83195313 9.31579102 21.60506836 9.79564453 22.40161133 10.29003906 C31.50875434 16.04527353 41.51839192 22.40798978 47.96508789 31.203125 C49.49260776 33.07352694 49.49260776 33.07352694 52.22290039 35.15625 C61.25597645 42.54016813 67.55426292 53.89355432 73.37133789 63.8359375 C73.85473633 64.61453125 74.33813477 65.393125 74.83618164 66.1953125 C78.55597491 72.39119917 80.43726266 78.90671308 82.37133789 85.8359375 C82.79975014 87.29594772 83.22950232 88.75556525 83.66040039 90.21484375 C84.10667957 91.75492854 84.55199937 93.29529168 84.99633789 94.8359375 C85.20258789 95.53452881 85.40883789 96.23312012 85.62133789 96.95288086 C95.0752915 130.47528051 89.6769149 169.83526958 73.58129883 200.5078125 C72.3899716 202.80008378 71.31537607 205.11641776 70.26586914 207.4765625 C65.61518467 217.83208658 60.40078745 226.92868326 53.37133789 235.8359375 C52.94723633 236.3834668 52.52313477 236.93099609 52.08618164 237.49511719 C46.94526281 244.11778403 46.94526281 244.11778403 44.37133789 246.8359375 C43.71133789 246.8359375 43.05133789 246.8359375 42.37133789 246.8359375 C42.37133789 247.4959375 42.37133789 248.1559375 42.37133789 248.8359375 C19.78256526 272.81989903 -15.26086752 285.75084572 -47.62866211 286.8359375 C-84.48386243 287.38911124 -119.25179335 274.18320185 -145.87866211 248.625 C-150.15496768 244.28795145 -153.95291888 239.68677213 -157.62866211 234.8359375 C-158.19713867 234.11792969 -158.76561523 233.39992188 -159.35131836 232.66015625 C-167.383469 221.9696106 -173.5512777 209.18216099 -178.62866211 196.8359375 C-178.94448242 196.09730469 -179.26030273 195.35867187 -179.58569336 194.59765625 C-195.21507486 156.70175864 -197.26133995 118.85708222 -183.46435547 80.23925781 C-182.92058509 78.67546125 -182.40413755 77.10180485 -181.91992188 75.51855469 C-180.18198347 69.85389095 -177.71694 65.09290218 -174.56616211 60.0859375 C-174.08300537 59.30951904 -173.59984863 58.53310059 -173.10205078 57.7331543 C-167.31557351 48.5716252 -161.26898797 39.29636682 -152.61303711 32.59375 C-150.78619694 30.97548607 -149.35947306 29.34731363 -147.81225586 27.46875 C-144.84762712 23.95569726 -141.67082126 21.25237456 -137.94116211 18.5859375 C-137.3032373 18.12630615 -136.6653125 17.6666748 -136.00805664 17.19311523 C-124.04769035 8.7532829 -111.93511094 1.35446088 -97.62866211 -2.1640625 C-96.19191498 -2.57958899 -94.75712966 -3.00193619 -93.32397461 -3.4296875 C-61.96902417 -12.7236301 -30.58094013 -11.0946804 0 0 Z M-79.62866211 23.8359375 C-80.94758897 24.14098649 -82.26660074 24.44566857 -83.58569336 24.75 C-90.20539502 26.33882663 -96.30857955 28.28770348 -102.28491211 31.58984375 C-104.62866211 32.8359375 -104.62866211 32.8359375 -107.92163086 34.19921875 C-111.99674384 35.91968837 -115.69784967 38.1156423 -119.44116211 40.4609375 C-120.14039795 40.89825195 -120.83963379 41.33556641 -121.56005859 41.78613281 C-126.65326153 45.04719339 -131.16529279 48.64433895 -135.53881836 52.8359375 C-137.33692501 54.55674237 -139.16617122 56.06308083 -141.12866211 57.5859375 C-146.50262144 62.14681551 -150.49554195 68.1761074 -154.62866211 73.8359375 C-155.18682617 74.57714844 -155.74499023 75.31835938 -156.32006836 76.08203125 C-163.87438263 86.64160405 -168.6360994 98.77484285 -172.06616211 111.2109375 C-172.31301758 112.10127686 -172.55987305 112.99161621 -172.81420898 113.90893555 C-175.14566354 122.8802199 -175.77594395 131.78221727 -175.69116211 141.0234375 C-175.68213867 142.31636719 -175.67311523 143.60929687 -175.66381836 144.94140625 C-175.6522168 145.89660156 -175.64061523 146.85179687 -175.62866211 147.8359375 C-173.4243553 145.6316307 -173.22846286 144.83607123 -172.62866211 141.87890625 C-172.46366211 141.09580078 -172.29866211 140.31269531 -172.12866211 139.50585938 C-171.96366211 138.68666016 -171.79866211 137.86746094 -171.62866211 137.0234375 C-170.61773905 132.07544301 -169.53807874 127.5226874 -167.62866211 122.8359375 C-167.20293105 120.74144581 -166.82865717 118.63590539 -166.50366211 116.5234375 C-166.33608398 115.45480469 -166.16850586 114.38617188 -165.99584961 113.28515625 C-165.87467773 112.47691406 -165.75350586 111.66867188 -165.62866211 110.8359375 C-164.96866211 110.8359375 -164.30866211 110.8359375 -163.62866211 110.8359375 C-163.36053711 110.05992187 -163.09241211 109.28390625 -162.81616211 108.484375 C-159.61325193 99.65530024 -155.47317384 91.85402515 -150.62866211 83.8359375 C-151.25843486 86.7213249 -152.19572704 89.13221978 -153.50366211 91.7734375 C-163.09253263 112.93868987 -163.10589009 143.74252473 -155.55786133 165.39404297 C-150.86051389 177.73846469 -145.22192296 189.71724573 -136.62866211 199.8359375 C-135.94416992 200.65707031 -135.25967773 201.47820312 -134.55444336 202.32421875 C-122.53372475 216.20091905 -109.37897037 226.18965557 -92.62866211 233.8359375 C-91.85393555 234.19429687 -91.07920898 234.55265625 -90.28100586 234.921875 C-83.29573004 237.94314877 -76.08973103 239.44803724 -68.62866211 240.8359375 C-67.25967773 241.11824219 -67.25967773 241.11824219 -65.86303711 241.40625 C-61.28049105 242.01504235 -56.74692834 242.02738002 -52.12866211 242.0234375 C-51.15268066 242.02263184 -50.17669922 242.02182617 -49.17114258 242.02099609 C-19.05077323 241.76729852 7.03281752 230.34977661 29.15649414 210.2109375 C30.59204269 208.89193563 30.59204269 208.89193563 30.37133789 206.8359375 C31.03133789 206.8359375 31.69133789 206.8359375 32.37133789 206.8359375 C34.01321445 204.99874477 35.51114971 203.1699794 36.99633789 201.2109375 C37.43929199 200.62989258 37.88224609 200.04884766 38.33862305 199.45019531 C44.91807527 190.62565552 50.20353924 181.01969892 54.37133789 170.8359375 C54.7077832 170.11921875 55.04422852 169.4025 55.39086914 168.6640625 C66.37793549 144.13862601 62.75987708 114.51242131 53.57836914 90.1875 C52.37133789 86.8359375 52.37133789 86.8359375 52.37133789 84.8359375 C61.31980935 101.87611188 66.8527954 119.14560263 71.37133789 137.8359375 C71.70133789 137.8359375 72.03133789 137.8359375 72.37133789 137.8359375 C73.33106139 123.56804819 70.66898298 109.57749296 64.25024414 96.71484375 C63.31635517 94.71839667 62.76585662 92.77222769 62.18383789 90.6484375 C59.28069865 81.55618823 51.94603234 70.77709033 45.37133789 63.8359375 C44.71133789 63.8359375 44.05133789 63.8359375 43.37133789 63.8359375 C43.11610352 63.25972656 42.86086914 62.68351562 42.59790039 62.08984375 C34.10288765 46.47958148 8.96563712 33.16485754 -7.56616211 28.0234375 C-10.24061274 27.23887902 -12.92761353 26.52289113 -15.62866211 25.8359375 C-16.36890625 25.64660645 -17.10915039 25.45727539 -17.87182617 25.26220703 C-38.42329047 20.08281843 -58.90746907 18.68316474 -79.62866211 23.8359375 Z " fill="#CCC6C6" transform="translate(211.628662109375,25.1640625)"/>
<path d="M0 0 C0.86625 0.268125 1.7325 0.53625 2.625 0.8125 C10.56545746 3.60636466 18.86213927 8.16111816 25 14 C25 14.66 25 15.32 25 16 C25.56074219 16.24492188 26.12148437 16.48984375 26.69921875 16.7421875 C33.77200701 20.60880519 39.54441558 27.31342657 44.625 33.46875 C45.94220755 35.12389654 45.94220755 35.12389654 48 36 C48 36.99 48 37.98 48 39 C48.99 39.33 49.98 39.66 51 40 C52.4451135 42.06278298 53.73742659 44.08084192 55 46.25 C55.51433594 47.11044922 55.51433594 47.11044922 56.0390625 47.98828125 C57.03345241 49.65445365 58.01689868 51.32714211 59 53 C59.84498047 54.32837891 59.84498047 54.32837891 60.70703125 55.68359375 C62.40498972 58.72555559 62.66307182 61.56333259 63 65 C63.66 65 64.32 65 65 65 C75.96743945 98.292745 78.84025853 129.49383557 67 163 C66.61972656 164.11890625 66.23945313 165.2378125 65.84765625 166.390625 C61.35871853 178.90523925 54.81143063 190.03107438 46 200 C45.50226074 200.5686377 45.00452148 201.13727539 44.49169922 201.72314453 C32.82349218 214.96412793 20.54387438 224.80925815 4.89599609 233.00170898 C3.66302368 233.65090087 2.44095215 234.32138686 1.23291016 235.01586914 C-5.12577532 238.51441282 -11.98531625 240.00353565 -19 241.6875 C-20.84851563 242.14866211 -20.84851563 242.14866211 -22.734375 242.61914062 C-49.72601831 249.23672699 -81.7617415 248.52173795 -107 236 C-107.68497559 235.66838867 -108.36995117 235.33677734 -109.07568359 234.99511719 C-123.05017576 228.18423001 -134.65416566 219.66906528 -146 209 C-146.88558594 208.21109375 -146.88558594 208.21109375 -147.7890625 207.40625 C-169.41678035 187.31604764 -181.50904974 155.51231794 -183.14233398 126.46899414 C-183.85846065 106.11678367 -181.30188625 87.04349962 -174 68 C-173.64421875 67.00355469 -173.2884375 66.00710937 -172.921875 64.98046875 C-170.53132793 58.69265658 -167.38782598 53.02662093 -163.875 47.3125 C-163.44292236 46.60424072 -163.01084473 45.89598145 -162.56567383 45.16625977 C-159.37118384 40.12372795 -159.37118384 40.12372795 -156 39 C-156 38.01 -156 37.02 -156 36 C-153.84375 33.65625 -153.84375 33.65625 -151 31 C-150.1028125 30.1028125 -149.205625 29.205625 -148.28125 28.28125 C-145.52083333 25.52083333 -142.76041667 22.76041667 -140 20 C-139.1234375 19.0615625 -138.246875 18.123125 -137.34375 17.15625 C-135 15 -135 15 -132 15 C-131.505 13.515 -131.505 13.515 -131 12 C-124.19295851 7.06692082 -116.77417227 3.15783934 -109 0 C-108.15824219 -0.38671875 -107.31648438 -0.7734375 -106.44921875 -1.171875 C-76.0258348 -14.80559063 -29.41322298 -19.11585628 0 0 Z M-82 9 C-83.31892686 9.30504899 -84.63793863 9.60973107 -85.95703125 9.9140625 C-92.57673291 11.50288913 -98.67991744 13.45176598 -104.65625 16.75390625 C-107 18 -107 18 -110.29296875 19.36328125 C-114.36808173 21.08375087 -118.06918756 23.2797048 -121.8125 25.625 C-122.51173584 26.06231445 -123.21097168 26.49962891 -123.93139648 26.95019531 C-129.02459942 30.21125589 -133.53663068 33.80840145 -137.91015625 38 C-139.7082629 39.72080487 -141.53750911 41.22714333 -143.5 42.75 C-148.87395933 47.31087801 -152.86687984 53.3401699 -157 59 C-157.55816406 59.74121094 -158.11632812 60.48242188 -158.69140625 61.24609375 C-166.24572052 71.80566655 -171.00743729 83.93890535 -174.4375 96.375 C-174.68435547 97.26533936 -174.93121094 98.15567871 -175.18554688 99.07299805 C-177.51700143 108.0442824 -178.14728184 116.94627977 -178.0625 126.1875 C-178.05347656 127.48042969 -178.04445313 128.77335937 -178.03515625 130.10546875 C-178.02355469 131.06066406 -178.01195312 132.01585937 -178 133 C-175.7956932 130.7956932 -175.59980075 130.00013373 -175 127.04296875 C-174.835 126.25986328 -174.67 125.47675781 -174.5 124.66992188 C-174.335 123.85072266 -174.17 123.03152344 -174 122.1875 C-172.98907694 117.23950551 -171.90941663 112.6867499 -170 108 C-169.57426894 105.90550831 -169.19999506 103.79996789 -168.875 101.6875 C-168.70742187 100.61886719 -168.53984375 99.55023438 -168.3671875 98.44921875 C-168.24601562 97.64097656 -168.12484375 96.83273438 -168 96 C-167.34 96 -166.68 96 -166 96 C-165.731875 95.22398437 -165.46375 94.44796875 -165.1875 93.6484375 C-161.98458983 84.81936274 -157.84451173 77.01808765 -153 69 C-153.62977275 71.8853874 -154.56706493 74.29628228 -155.875 76.9375 C-165.46387052 98.10275237 -165.47722798 128.90658723 -157.92919922 150.55810547 C-153.23185178 162.90252719 -147.59326085 174.88130823 -139 185 C-138.31550781 185.82113281 -137.63101563 186.64226562 -136.92578125 187.48828125 C-124.90506264 201.36498155 -111.75030826 211.35371807 -95 219 C-94.22527344 219.35835937 -93.45054688 219.71671875 -92.65234375 220.0859375 C-85.66706793 223.10721127 -78.46106892 224.61209974 -71 226 C-69.63101563 226.28230469 -69.63101563 226.28230469 -68.234375 226.5703125 C-63.65182894 227.17910485 -59.11826623 227.19144252 -54.5 227.1875 C-53.52401855 227.18669434 -52.54803711 227.18588867 -51.54248047 227.18505859 C-21.42211112 226.93136102 4.66147963 215.51383911 26.78515625 195.375 C28.2207048 194.05599813 28.2207048 194.05599813 28 192 C28.66 192 29.32 192 30 192 C31.64187656 190.16280727 33.13981182 188.3340419 34.625 186.375 C35.0679541 185.79395508 35.5109082 185.21291016 35.96728516 184.61425781 C42.54673738 175.78971802 47.83220135 166.18376142 52 156 C52.33644531 155.28328125 52.67289063 154.5665625 53.01953125 153.828125 C64.0065976 129.30268851 60.38853919 99.67648381 51.20703125 75.3515625 C50 72 50 72 50 70 C58.94847146 87.04017438 64.4814575 104.30966513 69 123 C69.33 123 69.66 123 70 123 C70.9597235 108.73211069 68.29764509 94.74155546 61.87890625 81.87890625 C60.94501728 79.88245917 60.39451873 77.93629019 59.8125 75.8125 C56.90936076 66.72025073 49.57469445 55.94115283 43 49 C42.34 49 41.68 49 41 49 C40.74476563 48.42378906 40.48953125 47.84757812 40.2265625 47.25390625 C31.73154976 31.64364398 6.59429923 18.32892004 -9.9375 13.1875 C-12.61195063 12.40294152 -15.29895143 11.68695363 -18 11 C-18.74024414 10.81066895 -19.48048828 10.62133789 -20.24316406 10.42626953 C-40.79462836 5.24688093 -61.27880696 3.84722724 -82 9 Z " fill="#CC6990" transform="translate(214,40)"/>
<path d="M0 0 C0.86625 0.268125 1.7325 0.53625 2.625 0.8125 C10.56545746 3.60636466 18.86213927 8.16111816 25 14 C25 14.66 25 15.32 25 16 C25.56074219 16.24492188 26.12148437 16.48984375 26.69921875 16.7421875 C33.77200701 20.60880519 39.54441558 27.31342657 44.625 33.46875 C45.94220755 35.12389654 45.94220755 35.12389654 48 36 C48 36.99 48 37.98 48 39 C48.99 39.33 49.98 39.66 51 40 C52.4451135 42.06278298 53.73742659 44.08084192 55 46.25 C55.51433594 47.11044922 55.51433594 47.11044922 56.0390625 47.98828125 C57.03345241 49.65445365 58.01689868 51.32714211 59 53 C59.84498047 54.32837891 59.84498047 54.32837891 60.70703125 55.68359375 C62.40498972 58.72555559 62.66307182 61.56333259 63 65 C63.66 65 64.32 65 65 65 C75.96743945 98.292745 78.84025853 129.49383557 67 163 C66.61972656 164.11890625 66.23945313 165.2378125 65.84765625 166.390625 C60.62791004 180.94264473 52.54924142 195.58806894 40 205 C41.35385414 201.88315998 43.18684046 199.41684312 45.32519531 196.78955078 C51.34057193 189.37540702 55.91420869 181.61055193 60 173 C60.54527344 171.86433594 61.09054687 170.72867188 61.65234375 169.55859375 C74.11858654 141.16854974 72.89462394 111.64470853 62 83 C61.34 82.01 60.68 81.02 60 80 C59.649375 78.741875 59.29875 77.48375 58.9375 76.1875 C56.66828435 69.07729097 52.16444267 63.11422589 48 57 C47.49726563 56.24847656 46.99453125 55.49695313 46.4765625 54.72265625 C43.97298319 51.07891184 41.19416428 48.0455985 38 45 C37.4946875 44.43925781 36.989375 43.87851563 36.46875 43.30078125 C22.42590655 28.11849656 1.88435926 17.05715922 -18 12 C-18.74024414 11.81066895 -19.48048828 11.62133789 -20.24316406 11.42626953 C-40.79462836 6.24688093 -61.27880696 4.84722724 -82 10 C-83.31892686 10.30504899 -84.63793863 10.60973107 -85.95703125 10.9140625 C-92.57673291 12.50288913 -98.67991744 14.45176598 -104.65625 17.75390625 C-107 19 -107 19 -110.29296875 20.36328125 C-114.36810552 22.08376091 -118.06909667 24.27981722 -121.8125 26.625 C-122.51101074 27.06158936 -123.20952148 27.49817871 -123.92919922 27.94799805 C-128.97541408 31.17750562 -133.46354793 34.73298023 -137.7890625 38.89453125 C-140 41 -140 41 -142.9609375 43.37109375 C-146.10952746 45.96870536 -148.5755229 48.98184749 -151 52.25 C-151.6494458 53.1157666 -151.6494458 53.1157666 -152.31201172 53.99902344 C-153.54997778 55.65983388 -154.77544707 57.32929213 -156 59 C-156.55945313 59.7425 -157.11890625 60.485 -157.6953125 61.25 C-169.68477924 78.0221502 -176.68060999 100.64640486 -178.625 121.0625 C-178.74875 122.361875 -178.8725 123.66125 -179 125 C-179.66 125 -180.32 125 -181 125 C-176.29653671 150.86038928 -176.29653671 150.86038928 -166.82421875 175.2421875 C-166 177 -166 177 -166 180 C-166.66 180 -167.32 180 -168 180 C-184.6030577 151.4221706 -186.86806522 114.47858569 -179 83 C-177.61562326 77.88524653 -175.89767711 72.94918877 -174 68 C-173.64421875 67.00355469 -173.2884375 66.00710937 -172.921875 64.98046875 C-170.53132793 58.69265658 -167.38782598 53.02662093 -163.875 47.3125 C-163.44292236 46.60424072 -163.01084473 45.89598145 -162.56567383 45.16625977 C-159.37118384 40.12372795 -159.37118384 40.12372795 -156 39 C-156 38.01 -156 37.02 -156 36 C-153.84375 33.65625 -153.84375 33.65625 -151 31 C-150.1028125 30.1028125 -149.205625 29.205625 -148.28125 28.28125 C-145.52083333 25.52083333 -142.76041667 22.76041667 -140 20 C-139.1234375 19.0615625 -138.246875 18.123125 -137.34375 17.15625 C-135 15 -135 15 -132 15 C-131.505 13.515 -131.505 13.515 -131 12 C-124.19295851 7.06692082 -116.77417227 3.15783934 -109 0 C-108.15824219 -0.38671875 -107.31648438 -0.7734375 -106.44921875 -1.171875 C-76.0258348 -14.80559063 -29.41322298 -19.11585628 0 0 Z " fill="#807F7F" transform="translate(214,40)"/>
<path d="M0 0 C2.29961495 0.81065393 4.6150656 1.52627352 6.94555664 2.2421875 C11.71711715 3.82713179 15.81262751 6.17242262 20.05883789 8.8359375 C20.83195313 9.31579102 21.60506836 9.79564453 22.40161133 10.29003906 C31.50875434 16.04527353 41.51839192 22.40798978 47.96508789 31.203125 C49.49260776 33.07352694 49.49260776 33.07352694 52.22290039 35.15625 C61.25597645 42.54016813 67.55426292 53.89355432 73.37133789 63.8359375 C73.85473633 64.61453125 74.33813477 65.393125 74.83618164 66.1953125 C78.55597491 72.39119917 80.43726266 78.90671308 82.37133789 85.8359375 C82.79975014 87.29594772 83.22950232 88.75556525 83.66040039 90.21484375 C84.10667957 91.75492854 84.55199937 93.29529168 84.99633789 94.8359375 C85.20258789 95.53452881 85.40883789 96.23312012 85.62133789 96.95288086 C95.0752915 130.47528051 89.6769149 169.83526958 73.58129883 200.5078125 C72.3899716 202.80008378 71.31537607 205.11641776 70.26586914 207.4765625 C65.61518467 217.83208658 60.40078745 226.92868326 53.37133789 235.8359375 C52.94723633 236.3834668 52.52313477 236.93099609 52.08618164 237.49511719 C46.94526281 244.11778403 46.94526281 244.11778403 44.37133789 246.8359375 C43.71133789 246.8359375 43.05133789 246.8359375 42.37133789 246.8359375 C42.37133789 247.4959375 42.37133789 248.1559375 42.37133789 248.8359375 C19.78256526 272.81989903 -15.26086752 285.75084572 -47.62866211 286.8359375 C-84.48386243 287.38911124 -119.25179335 274.18320185 -145.87866211 248.625 C-150.15496768 244.28795145 -153.95291888 239.68677213 -157.62866211 234.8359375 C-158.19713867 234.11792969 -158.76561523 233.39992188 -159.35131836 232.66015625 C-167.383469 221.9696106 -173.5512777 209.18216099 -178.62866211 196.8359375 C-178.94448242 196.09730469 -179.26030273 195.35867187 -179.58569336 194.59765625 C-195.21507486 156.70175864 -197.26133995 118.85708222 -183.46435547 80.23925781 C-182.92058509 78.67546125 -182.40413755 77.10180485 -181.91992188 75.51855469 C-180.18198347 69.85389095 -177.71694 65.09290218 -174.56616211 60.0859375 C-174.08300537 59.30951904 -173.59984863 58.53310059 -173.10205078 57.7331543 C-167.31557351 48.5716252 -161.26898797 39.29636682 -152.61303711 32.59375 C-150.78619694 30.97548607 -149.35947306 29.34731363 -147.81225586 27.46875 C-144.84762712 23.95569726 -141.67082126 21.25237456 -137.94116211 18.5859375 C-137.3032373 18.12630615 -136.6653125 17.6666748 -136.00805664 17.19311523 C-124.04769035 8.7532829 -111.93511094 1.35446088 -97.62866211 -2.1640625 C-96.19191498 -2.57958899 -94.75712966 -3.00193619 -93.32397461 -3.4296875 C-61.96902417 -12.7236301 -30.58094013 -11.0946804 0 0 Z M-81.62866211 -4.1640625 C-82.30348633 -4.01372559 -82.97831055 -3.86338867 -83.67358398 -3.70849609 C-106.99946625 1.68603431 -129.53564833 14.14925527 -146.62866211 30.8359375 C-147.6272467 31.78397355 -148.62595071 32.73188382 -149.62475586 33.6796875 C-169.58238795 52.8533813 -183.2938147 78.69646995 -188.62866211 105.8359375 C-188.89247681 107.16564575 -188.89247681 107.16564575 -189.16162109 108.5222168 C-193.6798015 133.13648669 -191.46542362 161.04944979 -180.62866211 183.8359375 C-180.18151855 184.78388184 -180.18151855 184.78388184 -179.7253418 185.75097656 C-163.80238707 219.26379554 -141.1374636 243.16275337 -107.44946289 258.98095703 C-105.85527388 259.72952902 -104.2704226 260.49792143 -102.68725586 261.26953125 C-76.4999248 273.22704657 -44.15175546 274.31273548 -16.62866211 266.8359375 C-14.85749023 266.38541016 -14.85749023 266.38541016 -13.05053711 265.92578125 C20.4452711 256.58093621 49.87055262 232.91884484 67.46508789 203.24609375 C84.81915572 172.20080438 93.07380034 137.04175375 84.37133789 101.8359375 C84.22100098 101.17964355 84.07066406 100.52334961 83.91577148 99.84716797 C78.15364353 75.15318865 64.97208731 52.84305342 47.37133789 34.8359375 C46.17057617 33.54236328 46.17057617 33.54236328 44.94555664 32.22265625 C24.61179541 10.82395171 -3.99157955 -1.1538477 -32.62866211 -6.1640625 C-33.73467773 -6.35871094 -34.84069336 -6.55335937 -35.98022461 -6.75390625 C-51.20215508 -8.46515111 -66.72580521 -7.61741898 -81.62866211 -4.1640625 Z " fill="#464646" transform="translate(211.628662109375,25.1640625)"/>
<path d="M0 0 C3.71228389 3.59979044 7.10516412 7.38347519 10.44921875 11.328125 C11.91350467 13.10326363 11.91350467 13.10326363 14 14 C14 14.66 14 15.32 14 16 C14.5775 16.25007813 15.155 16.50015625 15.75 16.7578125 C18.30383246 18.16774084 19.94121983 19.80865078 22 21.875 C46.21891373 43.93087751 80.21030035 54.22296429 112.375 54.25 C113.45263107 54.25101212 113.45263107 54.25101212 114.55203247 54.25204468 C125.34146882 54.23593138 135.50839251 53.72737805 146 51 C147.02722168 50.75056641 147.02722168 50.75056641 148.07519531 50.49609375 C158.51079355 47.93811688 167.80813074 44.05151454 177.24414062 38.94482422 C178.8010553 38.10705173 180.37596655 37.30291642 181.953125 36.50390625 C187.35441383 33.716399 192.35327059 30.4984115 197.3125 27 C197.88758301 26.59668457 198.46266602 26.19336914 199.05517578 25.77783203 C202.05848253 23.60921279 204.71309549 21.35099836 207.29296875 18.6875 C210 16 210 16 212 16 C212.33 15.01 212.66 14.02 213 13 C213.66 13 214.32 13 215 13 C215.24492187 12.43796875 215.48984375 11.8759375 215.7421875 11.296875 C217.22926539 8.58134146 219.04062782 6.53608562 221.125 4.25 C221.84945312 3.45078125 222.57390625 2.6515625 223.3203125 1.828125 C224.15175781 0.92320312 224.15175781 0.92320312 225 0 C225.33 0.66 225.66 1.32 226 2 C205.11974166 33.50083419 176.43138096 56.26859592 138.96850586 64.42333984 C103.94038354 71.34816025 68.41843502 63.34004296 38.71484375 43.84375 C23.36913616 32.68323539 9.09689724 18.80817437 0 2 C0 1.34 0 0.68 0 0 Z " fill="#7F7F7F" transform="translate(47,243)"/>
<path d="M0 0 C2.06978086 0.51071922 4.14426003 0.97234317 6.22802734 1.421875 C27.7225239 6.45297973 51.01097414 20.6433206 65.21630859 37.546875 C65.21630859 38.206875 65.21630859 38.866875 65.21630859 39.546875 C66.20630859 39.876875 67.19630859 40.206875 68.21630859 40.546875 C70.84476716 43.66109932 72.99113598 47.13698376 75.21630859 50.546875 C75.58578613 51.11212891 75.95526367 51.67738281 76.3359375 52.25976562 C77.4750388 54.01461043 78.59852385 55.77838779 79.71630859 57.546875 C80.40724609 58.64 81.09818359 59.733125 81.81005859 60.859375 C82.27412109 61.74625 82.73818359 62.633125 83.21630859 63.546875 C82.88630859 64.206875 82.55630859 64.866875 82.21630859 65.546875 C77.34130859 60.921875 77.34130859 60.921875 76.21630859 57.546875 C75.61818359 57.258125 75.02005859 56.969375 74.40380859 56.671875 C71.49284705 55.17480906 70.07618139 53.20383613 68.21630859 50.546875 C68.21630859 49.886875 68.21630859 49.226875 68.21630859 48.546875 C67.55630859 48.546875 66.89630859 48.546875 66.21630859 48.546875 C65.88630859 47.886875 65.55630859 47.226875 65.21630859 46.546875 C64.22630859 46.216875 63.23630859 45.886875 62.21630859 45.546875 C62.21630859 44.886875 62.21630859 44.226875 62.21630859 43.546875 C61.55630859 43.546875 60.89630859 43.546875 60.21630859 43.546875 C60.21630859 42.556875 60.21630859 41.566875 60.21630859 40.546875 C58.56630859 40.216875 56.91630859 39.886875 55.21630859 39.546875 C55.21630859 38.556875 55.21630859 37.566875 55.21630859 36.546875 C54.51505859 36.464375 53.81380859 36.381875 53.09130859 36.296875 C49.52596339 35.36678495 47.12615288 33.78001131 44.21630859 31.546875 C44.21630859 30.886875 44.21630859 30.226875 44.21630859 29.546875 C42.96914063 29.17175781 42.96914063 29.17175781 41.69677734 28.7890625 C37.77098121 27.38793661 34.21860487 25.59234194 30.52880859 23.671875 C5.26090064 10.88194628 -26.88452254 4.43117605 -55.02197266 10.04296875 C-58.86412885 10.74401281 -62.70860343 10.97730468 -66.60400391 11.203125 C-68.9892874 11.3602573 -68.9892874 11.3602573 -70.78369141 13.546875 C-72.4467878 14.04580392 -74.112485 14.53807165 -75.79150391 14.98046875 C-78.53585221 15.76072464 -81.15727842 16.80353765 -83.81494141 17.8359375 C-85.78369141 18.546875 -85.78369141 18.546875 -89.28369141 19.421875 C-92.92885024 20.5935332 -95.5194131 22.16748801 -98.68212891 24.26171875 C-100.82969175 25.57500532 -102.95726178 26.52901988 -105.28369141 27.484375 C-110.01152737 29.48239959 -113.82676822 32.31233289 -117.78369141 35.546875 C-118.44369141 35.216875 -119.10369141 34.886875 -119.78369141 34.546875 C-118.14201499 32.85047603 -116.47198949 31.19653926 -114.78369141 29.546875 C-114.14818359 28.90363281 -113.51267578 28.26039062 -112.85791016 27.59765625 C-103.43205406 18.52995013 -91.42297825 10.62527195 -79.02197266 6.328125 C-76.60367579 5.52360501 -76.60367579 5.52360501 -73.67041016 4.1171875 C-69.03251449 2.10778459 -64.19653304 1.04758977 -59.28369141 -0.078125 C-58.37232422 -0.2946875 -57.46095703 -0.51125 -56.52197266 -0.734375 C-37.68569709 -5.1376602 -18.73449071 -4.65511794 0 0 Z " fill="#CE93AA" transform="translate(189.78369140625,49.453125)"/>
<path d="M0 0 C0.86625 0.268125 1.7325 0.53625 2.625 0.8125 C10.56545746 3.60636466 18.86213927 8.16111816 25 14 C25 14.66 25 15.32 25 16 C25.56074219 16.24492188 26.12148437 16.48984375 26.69921875 16.7421875 C33.77200701 20.60880519 39.54441558 27.31342657 44.625 33.46875 C45.94220755 35.12389654 45.94220755 35.12389654 48 36 C48 36.99 48 37.98 48 39 C48.99 39.33 49.98 39.66 51 40 C52.4451135 42.06278298 53.73742659 44.08084192 55 46.25 C55.51433594 47.11044922 55.51433594 47.11044922 56.0390625 47.98828125 C57.03345241 49.65445365 58.01689868 51.32714211 59 53 C59.84498047 54.32837891 59.84498047 54.32837891 60.70703125 55.68359375 C62.40498972 58.72555559 62.66307182 61.56333259 63 65 C63.66 65 64.32 65 65 65 C75.96743945 98.292745 78.84025853 129.49383557 67 163 C66.61972656 164.11890625 66.23945313 165.2378125 65.84765625 166.390625 C60.62791004 180.94264473 52.54924142 195.58806894 40 205 C41.35385414 201.88315998 43.18684046 199.41684312 45.32519531 196.78955078 C51.34057193 189.37540702 55.91420869 181.61055193 60 173 C60.54527344 171.86433594 61.09054687 170.72867188 61.65234375 169.55859375 C69.80292555 150.99683622 73.11036491 130.71428245 69.33984375 110.77734375 C69.0152949 108.12499624 69.1427459 106.4998249 70 104 C70.66 105.32 71.32 106.64 72 108 C70.37824357 95.86978933 68.00573027 84.56346732 64 73 C61 64.13043478 61 64.13043478 61 62 C60.34 62 59.68 62 59 62 C58.57589844 61.09378906 58.15179688 60.18757813 57.71484375 59.25390625 C48.95804997 40.8987567 32.1634551 19.16221236 13 11 C13 10.34 13 9.68 13 9 C11.35 8.67 9.7 8.34 8 8 C8 7.34 8 6.68 8 6 C6.35 5.67 4.7 5.34 3 5 C3 4.34 3 3.68 3 3 C2.030625 2.9175 1.06125 2.835 0.0625 2.75 C-2.86222408 2.33465457 -5.11132339 1.56140641 -7.75 0.25 C-37.15889575 -13.52442297 -69.22516681 -10.18728352 -99.125 -0.73022461 C-101.28091968 0.03205176 -101.28091968 0.03205176 -104 2 C-105.44372958 2.54072269 -106.90413666 3.03815895 -108.375 3.5 C-111.64143983 4.54973678 -114.83346782 5.67209941 -118 7 C-118 7.66 -118 8.32 -118 9 C-118.99 9 -119.98 9 -121 9 C-121 9.66 -121 10.32 -121 11 C-129 15 -129 15 -131.140625 15.8828125 C-133.45871977 17.27561734 -133.87439511 18.58339521 -135 21 C-136.48828125 22.4296875 -136.48828125 22.4296875 -138.3125 23.875 C-142.37856297 27.32296182 -146.04441007 31.05449549 -149.6875 34.9375 C-150.2338208 35.51032715 -150.7801416 36.0831543 -151.34301758 36.67333984 C-155.83881049 41.51286035 -159.89237301 46.67711904 -162 53 C-162.66 53 -163.32 53 -164 53 C-164.103125 53.70125 -164.20625 54.4025 -164.3125 55.125 C-165.09359003 58.39137647 -166.42058743 61.0471852 -168 64 C-168.66 64 -169.32 64 -170 64 C-170.11601562 64.845625 -170.23203125 65.69125 -170.3515625 66.5625 C-171.04071792 70.21585403 -172.12980541 73.49836188 -173.375 77 C-177.0817813 87.77801489 -179.32581277 98.60856061 -180 110 C-179.66226563 108.83082031 -179.32453125 107.66164063 -178.9765625 106.45703125 C-178.52617263 104.90881606 -178.0756445 103.36064109 -177.625 101.8125 C-177.40328125 101.04357422 -177.1815625 100.27464844 -176.953125 99.48242188 C-175.8101093 95.56591221 -174.61097806 91.75643949 -173 88 C-171.81979376 91.54061872 -172.26320004 92.87673578 -173.1796875 96.4453125 C-173.44910156 97.52296875 -173.71851563 98.600625 -173.99609375 99.7109375 C-174.28613281 100.83757812 -174.57617188 101.96421875 -174.875 103.125 C-176.74376657 110.42940266 -178.37962617 117.47597889 -179 125 C-179.66 125 -180.32 125 -181 125 C-176.29653671 150.86038928 -176.29653671 150.86038928 -166.82421875 175.2421875 C-166 177 -166 177 -166 180 C-166.66 180 -167.32 180 -168 180 C-184.6030577 151.4221706 -186.86806522 114.47858569 -179 83 C-177.61562326 77.88524653 -175.89767711 72.94918877 -174 68 C-173.64421875 67.00355469 -173.2884375 66.00710937 -172.921875 64.98046875 C-170.53132793 58.69265658 -167.38782598 53.02662093 -163.875 47.3125 C-163.44292236 46.60424072 -163.01084473 45.89598145 -162.56567383 45.16625977 C-159.37118384 40.12372795 -159.37118384 40.12372795 -156 39 C-156 38.01 -156 37.02 -156 36 C-153.84375 33.65625 -153.84375 33.65625 -151 31 C-150.1028125 30.1028125 -149.205625 29.205625 -148.28125 28.28125 C-145.52083333 25.52083333 -142.76041667 22.76041667 -140 20 C-139.1234375 19.0615625 -138.246875 18.123125 -137.34375 17.15625 C-135 15 -135 15 -132 15 C-131.505 13.515 -131.505 13.515 -131 12 C-124.19295851 7.06692082 -116.77417227 3.15783934 -109 0 C-108.15824219 -0.38671875 -107.31648438 -0.7734375 -106.44921875 -1.171875 C-76.0258348 -14.80559063 -29.41322298 -19.11585628 0 0 Z " fill="#4A4949" transform="translate(214,40)"/>
<path d="M0 0 C2.70788904 2.39544031 4.60944012 4.8947054 6.5 7.9375 C19.54790781 27.88732379 39.97618559 41.18914264 61.17919922 51.14501953 C62.77338823 51.89359152 64.35823951 52.66198393 65.94140625 53.43359375 C92.12873731 65.39110907 124.47690665 66.47679798 152 59 C153.18078125 58.69964844 154.3615625 58.39929688 155.578125 58.08984375 C185.21257028 49.822263 210.76813087 30.28916776 229 6 C230.32676353 4.32809866 231.65759161 2.65936593 233 1 C233.99 2.485 233.99 2.485 235 4 C232.44581502 8.82457162 229.98099485 12.2041677 226 16 C224.88739452 17.28440486 223.78391402 18.57674613 222.6875 19.875 C219.68847675 23.3349121 216.50288407 26.34896959 213.00390625 29.296875 C211.73222206 30.37768262 210.48587893 31.48963911 209.27734375 32.640625 C193.68527857 47.30744675 171.0192129 58.00401803 150.3125 62.6875 C148.96575195 63.00557617 148.96575195 63.00557617 147.59179688 63.33007812 C137.56312634 65.65908073 127.88310637 66.24137655 117.625 66.25 C116.90691162 66.25067474 116.18882324 66.25134949 115.44897461 66.25204468 C104.67086394 66.23593952 94.47293076 65.77257652 84 63 C82.08767578 62.50693359 82.08767578 62.50693359 80.13671875 62.00390625 C58.62940786 56.05291895 38.08002121 45.45913503 22.00390625 29.8984375 C20.14094676 27.94943938 20.14094676 27.94943938 18 27 C18 26.34 18 25.68 18 25 C17.01 24.67 16.02 24.34 15 24 C13.421875 22.43359375 13.421875 22.43359375 11.75 20.4375 C9.27921189 17.51032428 6.76656847 14.64462947 4.1875 11.8125 C1.76219077 9.03293212 -0.15970992 6.67626908 -1 3 C-0.67 2.01 -0.34 1.02 0 0 Z " fill="#4D4D4D" transform="translate(43,232)"/>
<path d="M0 0 C0.66 0.33 1.32 0.66 2 1 C2 1.99 2 2.98 2 4 C1.01 4 0.02 4 -1 4 C-1 4.66 -1 5.32 -1 6 C-9 10 -9 10 -11.140625 10.8828125 C-13.45871977 12.27561734 -13.87439511 13.58339521 -15 16 C-16.48828125 17.4296875 -16.48828125 17.4296875 -18.3125 18.875 C-22.37856297 22.32296182 -26.04441007 26.05449549 -29.6875 29.9375 C-30.2338208 30.51032715 -30.7801416 31.0831543 -31.34301758 31.67333984 C-35.83881049 36.51286035 -39.89237301 41.67711904 -42 48 C-42.66 48 -43.32 48 -44 48 C-44.103125 48.70125 -44.20625 49.4025 -44.3125 50.125 C-45.09359003 53.39137647 -46.42058743 56.0471852 -48 59 C-48.99 58.34 -49.98 57.68 -51 57 C-49.50529657 51.63764587 -47.00279268 47.3503884 -44.0625 42.6875 C-43.61970703 41.95982422 -43.17691406 41.23214844 -42.72070312 40.48242188 C-42.07198242 39.44504883 -42.07198242 39.44504883 -41.41015625 38.38671875 C-41.01965088 37.75983154 -40.62914551 37.13294434 -40.22680664 36.48706055 C-39 35 -39 35 -36 34 C-36 33.01 -36 32.02 -36 31 C-33.84375 28.65625 -33.84375 28.65625 -31 26 C-30.1028125 25.1028125 -29.205625 24.205625 -28.28125 23.28125 C-25.52083333 20.52083333 -22.76041667 17.76041667 -20 15 C-18.68515625 13.59234375 -18.68515625 13.59234375 -17.34375 12.15625 C-15 10 -15 10 -12 10 C-11.67 9.01 -11.34 8.02 -11 7 C-8.56640625 5.140625 -8.56640625 5.140625 -5.5625 3.25 C-4.57378906 2.61578125 -3.58507812 1.9815625 -2.56640625 1.328125 C-1.71949219 0.88984375 -0.87257812 0.4515625 0 0 Z " fill="#4E4D4D" transform="translate(94,45)"/>
<path d="M0 0 C0.33 0 0.66 0 1 0 C1 1.98 1 3.96 1 6 C1.66 6 2.32 6 3 6 C3.12004395 6.58265625 3.24008789 7.1653125 3.36376953 7.765625 C7.49742614 27.57899505 7.49742614 27.57899505 15.17578125 46.2421875 C16 48 16 48 16 51 C15.34 51 14.68 51 14 51 C5.75867165 36.81470475 -0.9900156 16.50025993 0 0 Z " fill="#474646" transform="translate(32,169)"/>
<path d="M0 0 C0.66 0 1.32 0 2 0 C2.33 1.65 2.66 3.3 3 5 C3.66 5 4.32 5 5 5 C9.55964813 18.84126196 13.74151493 32.40157324 15 47 C13.515 47.495 13.515 47.495 12 48 C11.84144531 46.8140625 11.68289063 45.628125 11.51953125 44.40625 C9.51860498 30.23633505 5.80765587 17.40580312 0.69921875 4.0390625 C0 2 0 2 0 0 Z " fill="#4B4B4B" transform="translate(274,100)"/>
<path d="M0 0 C0.66 0.99 1.32 1.98 2 3 C-1.57901776 17.27076702 -12.25624326 33.12057417 -24 42 C-22.64598169 38.88278203 -20.81236469 36.41632999 -18.67431641 33.78833008 C-10.42074555 23.61947174 -4.41428573 12.34257522 0 0 Z " fill="#696063" transform="translate(278,203)"/>
<path d="M0 0 C3.90604716 1.45040722 7.40406072 3.27431098 11 5.375 C12.010625 5.96023437 13.02125 6.54546875 14.0625 7.1484375 C16.90374922 8.93933129 19.49506796 10.76213792 22 13 C22 13.66 22 14.32 22 15 C22.66 15.33 23.32 15.66 24 16 C23.01 16.33 22.02 16.66 21 17 C19.0625 15.8203125 19.0625 15.8203125 17 14.125 C14.54331047 12.12428693 13.04638646 11.01546215 10 10 C10 9.34 10 8.68 10 8 C8.35 7.67 6.7 7.34 5 7 C5 6.34 5 5.68 5 5 C3.35 4.67 1.7 4.34 0 4 C0 2.68 0 1.36 0 0 Z " fill="#5E5D5D" transform="translate(217,41)"/>
<path d="M0 0 C2.64425028 3.05105801 4.74161173 6.20300123 6.75 9.6875 C12.74045482 19.78612209 20.61892314 27.89623819 29 36 C25.2509896 36 24.26118617 34.67319877 21.67138672 32.13867188 C21.1198291 31.57728516 20.56827148 31.01589844 20 30.4375 C19.42910645 29.86193359 18.85821289 29.28636719 18.27001953 28.69335938 C12.12578906 22.33972455 6.92193455 15.32691986 2 8 C1.38382813 7.0925 0.76765625 6.185 0.1328125 5.25 C-0.24101563 4.5075 -0.61484375 3.765 -1 3 C-0.67 2.01 -0.34 1.02 0 0 Z " fill="#926E7C" transform="translate(48,219)"/>
<path d="M0 0 C2.2421875 0.109375 2.2421875 0.109375 5 1 C6.61471991 3.09381263 7.85953549 4.96416094 9.125 7.25 C9.78757812 8.38953125 10.45015625 9.5290625 11.1328125 10.703125 C11.74898438 11.79109375 12.36515625 12.8790625 13 14 C13.57492187 14.92296875 14.14984375 15.8459375 14.7421875 16.796875 C16 19 16 19 16 21 C15.34 21 14.68 21 14 21 C13.67 21.66 13.34 22.32 13 23 C12.56429688 22.09378906 12.12859375 21.18757813 11.6796875 20.25390625 C8.22453162 13.15635489 4.63684802 6.4202511 0 0 Z " fill="#5C5C5C" transform="translate(260,79)"/>
<path d="M0 0 C-5.8470468 3.8980312 -12.32204359 6.16379125 -18.98828125 8.26953125 C-21.53136352 9.19294171 -23.69344898 10.60209029 -26 12 C-26.66 11.67 -27.32 11.34 -28 11 C-24.21814415 6.30528239 -20.39449593 4.78699799 -14.71875 2.91796875 C-12.41132219 2.13888034 -10.31095742 1.24692235 -8.125 0.1875 C-4.80480977 -1.07417229 -3.32201335 -1.10733778 0 0 Z " fill="#4F4F4F" transform="translate(122,36)"/>
<path d="M0 0 C0.33 0 0.66 0 1 0 C0.54177532 3.46941546 0.10868317 6.67395049 -1 10 C-1.66 10 -2.32 10 -3 10 C-3.103125 10.70125 -3.20625 11.4025 -3.3125 12.125 C-4.09359003 15.39137647 -5.42058743 18.0471852 -7 21 C-7.99 20.34 -8.98 19.68 -10 19 C-8.62309544 14.25652774 -6.56160559 10.27474838 -3.9375 6.125 C-3.57333984 5.53203125 -3.20917969 4.9390625 -2.83398438 4.328125 C-1.9218371 2.86464287 -0.96486632 1.4292745 0 0 Z " fill="#5E5D5D" transform="translate(53,83)"/>
<path d="M0 0 C0.33 0 0.66 0 1 0 C1 11.22 1 22.44 1 34 C-1.08309126 29.83381749 -1.63579694 26.28916286 -2.125 21.75 C-2.21136719 21.00492188 -2.29773437 20.25984375 -2.38671875 19.4921875 C-2.59786867 17.66222154 -2.79984545 15.83120121 -3 14 C-2.34 14 -1.68 14 -1 14 C-1.01160156 13.40832031 -1.02320313 12.81664062 -1.03515625 12.20703125 C-1.08322386 7.99768215 -1.06006883 4.1077667 0 0 Z " fill="#826C74" transform="translate(36,151)"/>
<path d="M0 0 C3.66379303 1.57508859 6.29851305 3.84193573 9.25 6.5 C10.14203125 7.2940625 11.0340625 8.088125 11.953125 8.90625 C14 11 14 11 14 13 C10.66864109 12.40300869 8.78724333 11.27987719 6.25 9.0625 C5.63640625 8.53785156 5.0228125 8.01320313 4.390625 7.47265625 C3 6 3 6 3 4 C2.01 3.67 1.02 3.34 0 3 C0 2.01 0 1.02 0 0 Z " fill="#494949" transform="translate(58,253)"/>
<path d="M0 0 C0.33 0.99 0.66 1.98 1 3 C-1.97 6.3 -4.94 9.6 -8 13 C-8.33 11.68 -8.66 10.36 -9 9 C-8.34 8.01 -7.68 7.02 -7 6 C-6.34 6 -5.68 6 -5 6 C-5 5.01 -5 4.02 -5 3 C-2.5 1.3125 -2.5 1.3125 0 0 Z " fill="#515050" transform="translate(63,73)"/>
<path d="M0 0 C1.85811 2.787165 3.22897347 5.46303 4.625 8.5 C5.07101563 9.4590625 5.51703125 10.418125 5.9765625 11.40625 C7 14 7 14 7 17 C6.34 17 5.68 17 5 17 C4.17988688 15.44148245 3.36923787 13.87798284 2.5625 12.3125 C2.11003906 11.44238281 1.65757813 10.57226562 1.19140625 9.67578125 C0.02851551 7.06404304 -0.65729129 4.83338049 -1 2 C-0.67 1.34 -0.34 0.68 0 0 Z " fill="#675D60" transform="translate(41,203)"/>
<path d="M0 0 C4.38462134 0.50109958 6.8000997 1.98295115 10 5 C10 5.66 10 6.32 10 7 C10.66 7.33 11.32 7.66 12 8 C11.01 8.33 10.02 8.66 9 9 C6.73828125 7.63671875 6.73828125 7.63671875 4.3125 5.6875 C3.50425781 5.05199219 2.69601563 4.41648437 1.86328125 3.76171875 C1.24839844 3.18035156 0.63351563 2.59898438 0 2 C0 1.34 0 0.68 0 0 Z " fill="#555454" transform="translate(229,49)"/>
<path d="M0 0 C0.66 0.66 1.32 1.32 2 2 C-1.93030788 7.33731159 -5.69898077 11.99191229 -11 16 C-9.32076975 12.19866558 -6.88537166 9.02917298 -4.375 5.75 C-3.95476562 5.19570312 -3.53453125 4.64140625 -3.1015625 4.0703125 C-2.07061281 2.71133337 -1.03570089 1.35536165 0 0 Z " fill="#7A626B" transform="translate(265,229)"/>
<path d="M0 0 C2.25 0.125 2.25 0.125 5 1 C9 5.97297297 9 5.97297297 9 10 C5.52867905 8.59070303 4.11906726 7.09394917 2.25 3.875 C1.60804688 2.78832031 1.60804688 2.78832031 0.953125 1.6796875 C0.63859375 1.12539062 0.3240625 0.57109375 0 0 Z " fill="#565555" transform="translate(260,79)"/>
<path d="M0 0 C0.99 0.99 1.98 1.98 3 3 C1.68 5.31 0.36 7.62 -1 10 C-1.66 10 -2.32 10 -3 10 C-3.75 8.375 -3.75 8.375 -4 6 C-2.0625 2.75 -2.0625 2.75 0 0 Z " fill="#5A5A5A" transform="translate(275,233)"/>
<path d="M0 0 C3.05740483 2.75166435 4.84750161 5.01864192 6 9 C5.67 9.66 5.34 10.32 5 11 C4.34 11 3.68 11 3 11 C2.30034557 9.73581754 1.61565237 8.46334598 0.9375 7.1875 C0.55464844 6.47980469 0.17179687 5.77210938 -0.22265625 5.04296875 C-1 3 -1 3 0 0 Z " fill="#5B5A5A" transform="translate(43,232)"/>
<path d="M0 0 C0.66 0.66 1.32 1.32 2 2 C1.86328125 4.2421875 1.86328125 4.2421875 1.3125 6.875 C1.14363281 7.73867187 0.97476562 8.60234375 0.80078125 9.4921875 C-0.05432912 12.17014289 -1.19745162 13.86474985 -3 16 C-2.30834212 10.58201328 -1.24200752 5.3177215 0 0 Z " fill="#4F4A4C" transform="translate(282,189)"/>
<path d="M0 0 C2.80041057 5.00073317 4.34821126 10.25451416 4 16 C2 15 2 15 1.11328125 12.63671875 C0.84902344 11.66347656 0.58476563 10.69023437 0.3125 9.6875 C-0.09548828 8.23923828 -0.09548828 8.23923828 -0.51171875 6.76171875 C-0.99152353 4.04794289 -0.90721887 2.56334995 0 0 Z " fill="#544C4F" transform="translate(37,189)"/>
<path d="M0 0 C0.66 0.99 1.32 1.98 2 3 C1.3203125 5.48046875 1.3203125 5.48046875 0.125 8.1875 C-0.26429688 9.08855469 -0.65359375 9.98960937 -1.0546875 10.91796875 C-1.36664063 11.60503906 -1.67859375 12.29210937 -2 13 C-2.66 13 -3.32 13 -4 13 C-3.40895235 8.15340923 -2.02055843 4.39251833 0 0 Z " fill="#61585B" transform="translate(278,203)"/>
<path d="M0 0 C0.66 0.33 1.32 0.66 2 1 C2 1.99 2 2.98 2 4 C1.01 4 0.02 4 -1 4 C-1 4.66 -1 5.32 -1 6 C-1.66 6 -2.32 6 -3 6 C-3 5.34 -3 4.68 -3 4 C-3.66 3.67 -4.32 3.34 -5 3 C-2.625 1.4375 -2.625 1.4375 0 0 Z " fill="#636262" transform="translate(94,45)"/>
<path d="M0 0 C0.66 0 1.32 0 2 0 C1.43628586 3.26954202 0.50037734 4.82575883 -2 7 C-2.33 6.01 -2.66 5.02 -3 4 C-1.6875 1.8125 -1.6875 1.8125 0 0 Z " fill="#4F4F4F" transform="translate(270,241)"/>
<path d="M0 0 C2.89932357 2.39509338 3.50168276 4.31245243 4 8 C3.34 8 2.68 8 2 8 C0.23537317 4.91190305 0 3.76687864 0 0 Z " fill="#706066" transform="translate(44,212)"/>
</svg>
