<?xml version="1.0" encoding="UTF-8"?>
<svg version="1.1" xmlns="http://www.w3.org/2000/svg" width="320" height="320">
<path d="M0 0 C2.29961495 0.81065393 4.6150656 1.52627352 6.94555664 2.2421875 C11.71711715 3.82713179 15.81262751 6.17242262 20.05883789 8.8359375 C20.83195313 9.31579102 21.60506836 9.79564453 22.40161133 10.29003906 C31.50875434 16.04527353 41.51839192 22.40798978 47.96508789 31.203125 C49.49260776 33.07352694 49.49260776 33.07352694 52.22290039 35.15625 C61.25597645 42.54016813 67.55426292 53.89355432 73.37133789 63.8359375 C73.85473633 64.61453125 74.33813477 65.393125 74.83618164 66.1953125 C78.55597491 72.39119917 80.43726266 78.90671308 82.37133789 85.8359375 C82.79975014 87.29594772 83.22950232 88.75556525 83.66040039 90.21484375 C84.10667957 91.75492854 84.55199937 93.29529168 84.99633789 94.8359375 C85.20258789 95.53452881 85.40883789 96.23312012 85.62133789 96.95288086 C95.0752915 130.47528051 89.6769149 169.83526958 73.58129883 200.5078125 C72.3899716 202.80008378 71.31537607 205.11641776 70.26586914 207.4765625 C65.61518467 217.83208658 60.40078745 226.92868326 53.37133789 235.8359375 C52.94723633 236.3834668 52.52313477 236.93099609 52.08618164 237.49511719 C46.94526281 244.11778403 46.94526281 244.11778403 44.37133789 246.8359375 C43.71133789 246.8359375 43.05133789 246.8359375 42.37133789 246.8359375 C42.37133789 247.4959375 42.37133789 248.1559375 42.37133789 248.8359375 C19.78256526 272.81989903 -15.26086752 285.75084572 -47.62866211 286.8359375 C-84.48386243 287.38911124 -119.25179335 274.18320185 -145.87866211 248.625 C-150.15496768 244.28795145 -153.95291888 239.68677213 -157.62866211 234.8359375 C-158.19713867 234.11792969 -158.76561523 233.39992188 -159.35131836 232.66015625 C-167.383469 221.9696106 -173.5512777 209.18216099 -178.62866211 196.8359375 C-178.94448242 196.09730469 -179.26030273 195.35867187 -179.58569336 194.59765625 C-195.21507486 156.70175864 -197.26133995 118.85708222 -183.46435547 80.23925781 C-182.92058509 78.67546125 -182.40413755 77.10180485 -181.91992188 75.51855469 C-180.18198347 69.85389095 -177.71694 65.09290218 -174.56616211 60.0859375 C-174.08300537 59.30951904 -173.59984863 58.53310059 -173.10205078 57.7331543 C-167.31557351 48.5716252 -161.26898797 39.29636682 -152.61303711 32.59375 C-150.78619694 30.97548607 -149.35947306 29.34731363 -147.81225586 27.46875 C-144.84762712 23.95569726 -141.67082126 21.25237456 -137.94116211 18.5859375 C-137.3032373 18.12630615 -136.6653125 17.6666748 -136.00805664 17.19311523 C-124.04769035 8.7532829 -111.93511094 1.35446088 -97.62866211 -2.1640625 C-96.19191498 -2.57958899 -94.75712966 -3.00193619 -93.32397461 -3.4296875 C-61.96902417 -12.7236301 -30.58094013 -11.0946804 0 0 Z " fill="#F9F6DD" transform="translate(211.628662109375,25.1640625)"/>
<path d="M0 0 C2.29961495 0.81065393 4.6150656 1.52627352 6.94555664 2.2421875 C11.71711715 3.82713179 15.81262751 6.17242262 20.05883789 8.8359375 C20.83195313 9.31579102 21.60506836 9.79564453 22.40161133 10.29003906 C31.50875434 16.04527353 41.51839192 22.40798978 47.96508789 31.203125 C49.49260776 33.07352694 49.49260776 33.07352694 52.22290039 35.15625 C61.25597645 42.54016813 67.55426292 53.89355432 73.37133789 63.8359375 C73.85473633 64.61453125 74.33813477 65.393125 74.83618164 66.1953125 C78.55597491 72.39119917 80.43726266 78.90671308 82.37133789 85.8359375 C82.79975014 87.29594772 83.22950232 88.75556525 83.66040039 90.21484375 C84.10667957 91.75492854 84.55199937 93.29529168 84.99633789 94.8359375 C85.20258789 95.53452881 85.40883789 96.23312012 85.62133789 96.95288086 C95.0752915 130.47528051 89.6769149 169.83526958 73.58129883 200.5078125 C72.3899716 202.80008378 71.31537607 205.11641776 70.26586914 207.4765625 C65.61518467 217.83208658 60.40078745 226.92868326 53.37133789 235.8359375 C52.94723633 236.3834668 52.52313477 236.93099609 52.08618164 237.49511719 C46.94526281 244.11778403 46.94526281 244.11778403 44.37133789 246.8359375 C43.71133789 246.8359375 43.05133789 246.8359375 42.37133789 246.8359375 C42.37133789 247.4959375 42.37133789 248.1559375 42.37133789 248.8359375 C19.78256526 272.81989903 -15.26086752 285.75084572 -47.62866211 286.8359375 C-84.48386243 287.38911124 -119.25179335 274.18320185 -145.87866211 248.625 C-150.15496768 244.28795145 -153.95291888 239.68677213 -157.62866211 234.8359375 C-158.19713867 234.11792969 -158.76561523 233.39992188 -159.35131836 232.66015625 C-167.383469 221.9696106 -173.5512777 209.18216099 -178.62866211 196.8359375 C-178.94448242 196.09730469 -179.26030273 195.35867187 -179.58569336 194.59765625 C-195.21507486 156.70175864 -197.26133995 118.85708222 -183.46435547 80.23925781 C-182.92058509 78.67546125 -182.40413755 77.10180485 -181.91992188 75.51855469 C-180.18198347 69.85389095 -177.71694 65.09290218 -174.56616211 60.0859375 C-174.08300537 59.30951904 -173.59984863 58.53310059 -173.10205078 57.7331543 C-167.31557351 48.5716252 -161.26898797 39.29636682 -152.61303711 32.59375 C-150.78619694 30.97548607 -149.35947306 29.34731363 -147.81225586 27.46875 C-144.84762712 23.95569726 -141.67082126 21.25237456 -137.94116211 18.5859375 C-137.3032373 18.12630615 -136.6653125 17.6666748 -136.00805664 17.19311523 C-124.04769035 8.7532829 -111.93511094 1.35446088 -97.62866211 -2.1640625 C-96.19191498 -2.57958899 -94.75712966 -3.00193619 -93.32397461 -3.4296875 C-61.96902417 -12.7236301 -30.58094013 -11.0946804 0 0 Z M-65.02075195 21.91650391 C-87.09630391 22.93827761 -110.55821147 33.18915368 -127.62866211 46.8359375 C-128.15347168 47.25391602 -128.67828125 47.67189453 -129.21899414 48.10253906 C-145.39817059 61.08577018 -157.09240713 76.29613703 -165.81665039 95.08935547 C-166.48425017 96.52531723 -167.17621583 97.9499261 -167.87475586 99.37109375 C-173.25245869 111.23551984 -175.17076347 125.92319595 -175.62866211 138.8359375 C-175.69182617 139.79628906 -175.75499023 140.75664062 -175.82006836 141.74609375 C-176.68025382 163.69469689 -168.88600942 185.39252753 -157.62866211 203.8359375 C-156.96866211 203.8359375 -156.30866211 203.8359375 -155.62866211 203.8359375 C-155.62866211 204.8259375 -155.62866211 205.8159375 -155.62866211 206.8359375 C-154.96866211 206.8359375 -154.30866211 206.8359375 -153.62866211 206.8359375 C-153.56678711 207.5371875 -153.50491211 208.2384375 -153.44116211 208.9609375 C-151.68270701 215.18316323 -146.42960861 218.94667507 -141.67163086 222.97265625 C-139.59580446 224.86590518 -137.85344415 226.85861723 -136.06616211 229.0234375 C-133.52616132 232.00865192 -131.19627434 233.9189069 -127.65209961 235.70703125 C-123.96064609 237.76654876 -120.65960161 240.40883223 -117.27709961 242.93359375 C-112.23464403 246.55553456 -107.40370457 248.79179683 -101.56616211 250.7734375 C-100.8073877 251.03358643 -100.04861328 251.29373535 -99.2668457 251.56176758 C-97.74566443 252.0827311 -96.22386582 252.60189595 -94.70141602 253.11914062 C-92.96270003 253.72042097 -91.23718989 254.35970371 -89.51538086 255.0078125 C-63.27777546 264.65671972 -34.50915181 262.18440336 -8.62866211 252.8359375 C-7.97881348 252.60503418 -7.32896484 252.37413086 -6.65942383 252.13623047 C2.04238178 249.00151218 9.73373566 245.10407888 17.37133789 239.8359375 C18.52182617 239.11277344 18.52182617 239.11277344 19.69555664 238.375 C29.90592183 231.92447261 38.81642566 223.23939208 46.37133789 213.8359375 C46.37133789 213.1759375 46.37133789 212.5159375 46.37133789 211.8359375 C47.36133789 211.5059375 48.35133789 211.1759375 49.37133789 210.8359375 C50.95416896 208.75810121 52.36297512 206.72811754 53.74633789 204.5234375 C54.14481934 203.89550293 54.54330078 203.26756836 54.95385742 202.62060547 C58.46311046 196.9500528 61.06283561 191.09004725 63.37133789 184.8359375 C63.64333008 184.165625 63.91532227 183.4953125 64.19555664 182.8046875 C74.69005424 156.59620673 76.24908943 124.99131372 65.09399414 98.66796875 C64.52462833 97.38845447 63.95032387 96.11112747 63.37133789 94.8359375 C63.07598145 94.17255371 62.780625 93.50916992 62.47631836 92.82568359 C49.58504138 64.27632138 26.34998795 41.42788777 -2.97924805 29.91308594 C-8.4522724 27.93081865 -14.00104967 26.31461824 -19.62866211 24.8359375 C-20.88549805 24.495625 -22.14233398 24.1553125 -23.43725586 23.8046875 C-37.08948619 20.68417771 -51.11757019 21.44823998 -65.02075195 21.91650391 Z " fill="#CBC5C5" transform="translate(211.628662109375,25.1640625)"/>
<path d="M0 0 C2.1875 0 2.1875 0 5 1 C6.96188534 3.50803179 8.49921743 6.19641043 10 9 C10.66 8.67 11.32 8.34 12 8 C13.44501978 11.14243092 14.87958616 14.28953269 16.3125 17.4375 C16.91868164 18.75524414 16.91868164 18.75524414 17.53710938 20.09960938 C21.57275524 28.99115433 24.37025809 37.37200839 25.6875 47.0625 C25.8127002 47.9807959 25.93790039 48.8990918 26.06689453 49.84521484 C29.09744605 73.54948789 25.69017992 98.91107078 14 120 C13.3713868 121.33163367 12.74627223 122.66492562 12.125 124 C9.63813091 128.97373817 6.55643968 133.72526462 3 138 C2.34 138 1.68 138 1 138 C0.66162109 138.81210937 0.66162109 138.81210937 0.31640625 139.640625 C-1.40513233 142.72611254 -3.66870064 145.18160178 -6.0625 147.75 C-6.55202148 148.27787109 -7.04154297 148.80574219 -7.54589844 149.34960938 C-13.13071547 155.30046568 -18.78195583 161.17128755 -26.10546875 164.95703125 C-28.09081661 166.00728865 -28.09081661 166.00728865 -30.17578125 167.51171875 C-55.2822985 184.8871467 -89.10004785 190.36854716 -118.87890625 185.48486328 C-126.8516484 184.01697541 -134.40974001 181.53591698 -141.99853516 178.72460938 C-143.78863075 178.07652402 -145.6023494 177.49457322 -147.41796875 176.921875 C-156.83521836 173.78669128 -164.26942545 168.23811162 -172.13842773 162.35498047 C-173.78795245 161.15434281 -175.49999743 160.04065699 -177.21875 158.94140625 C-180.15996705 156.8883376 -182.240722 154.72466256 -184.5625 152 C-187.49579864 148.5699752 -190.47527356 145.80715184 -194 143 C-195.58203125 141.18359375 -195.58203125 141.18359375 -196.8125 139.4375 C-197.23144531 138.85871094 -197.65039062 138.27992188 -198.08203125 137.68359375 C-199 136 -199 136 -199 133 C-199.66 133 -200.32 133 -201 133 C-201 132.01 -201 131.02 -201 130 C-201.66 130 -202.32 130 -203 130 C-214.08166574 112.91262426 -221.57233816 91.32755547 -221.125 70.75 C-221.10695312 69.65171875 -221.08890625 68.5534375 -221.0703125 67.421875 C-221.04710937 66.62265625 -221.02390625 65.8234375 -221 65 C-220.67 65.66 -220.34 66.32 -220 67 C-219.34 67 -218.68 67 -218 67 C-217.855625 65.824375 -217.71125 64.64875 -217.5625 63.4375 C-217.08589824 59.61787728 -216.55546456 55.80889981 -216 52 C-215.34 52 -214.68 52 -214 52 C-213.814375 50.2675 -213.814375 50.2675 -213.625 48.5 C-213.09721115 44.21649625 -212.11601963 40.16647328 -211 36 C-210.34 36 -209.68 36 -209 36 C-209.103125 34.7625 -209.20625 33.525 -209.3125 32.25 C-209.29878598 23.54159523 -204.91018024 15.19209578 -199.55859375 8.4921875 C-197.30347237 6.33314898 -195.02744514 5.57665622 -192 5 C-192.44475173 10.55939663 -193.83574144 13.47963062 -197 18 C-199.34367344 22.61359493 -201.03449569 26.91571495 -202 32 C-202.17297607 32.87366211 -202.34595215 33.74732422 -202.52416992 34.64746094 C-203.90991589 42.22504597 -204.35000459 49.55438956 -204.3125 57.25 C-204.30831055 58.43150635 -204.30412109 59.6130127 -204.29980469 60.83032227 C-204.10699372 75.8029147 -201.91096444 91.0106415 -194 104 C-193.16347754 105.80153897 -192.35117148 107.61450527 -191.5625 109.4375 C-190.12943792 112.65971838 -188.7003657 115.66454442 -186.6875 118.5625 C-185 121 -185 121 -185 123 C-184.34 123 -183.68 123 -183 123 C-182.8453125 123.9590625 -182.8453125 123.9590625 -182.6875 124.9375 C-182.460625 125.618125 -182.23375 126.29875 -182 127 C-181.01 127.33 -180.02 127.66 -179 128 C-176 131.44444444 -176 131.44444444 -176 134 C-175.34 134 -174.68 134 -174 134 C-174 134.66 -174 135.32 -174 136 C-173.01 136 -172.02 136 -171 136 C-169.64613064 137.65002828 -168.31321858 139.3174387 -167 141 C-166.01 141.33 -165.02 141.66 -164 142 C-161.8125 143.9375 -161.8125 143.9375 -160 146 C-160 146.66 -160 147.32 -160 148 C-158.95392578 148.37898438 -158.95392578 148.37898438 -157.88671875 148.765625 C-154.6430036 150.1526534 -151.81543313 151.89872939 -148.8125 153.75 C-137.80377161 160.24282135 -125.63197972 164.0673909 -112.96484375 165.6328125 C-109.98204 166.0022243 -107.0725719 166.54108481 -104.125 167.125 C-97.48631578 168.34690275 -91.65110179 167.97401072 -85 167 C-83.845 166.84660156 -82.69 166.69320312 -81.5 166.53515625 C-75.51388318 165.72676324 -69.74908706 164.91636235 -64 163 C-63.03126953 162.71189453 -63.03126953 162.71189453 -62.04296875 162.41796875 C-47.16070941 157.83262398 -32.73466458 150.0304067 -21.453125 139.21484375 C-20 138 -20 138 -18 138 C-17.67 137.01 -17.34 136.02 -17 135 C-16.34 135 -15.68 135 -15 135 C-14.7525 134.4225 -14.505 133.845 -14.25 133.25 C-12.83400344 130.70120619 -11.05276785 129.05276785 -9 127 C-8.67 126.01 -8.34 125.02 -8 124 C-7.40058594 123.41089844 -6.80117187 122.82179688 -6.18359375 122.21484375 C0.79479218 115.13658825 4.79791581 104.70813915 7.9921875 95.44921875 C9 93 9 93 11 92 C11.62833018 89.43504273 11.62833018 89.43504273 12 86.3125 C12.16242188 85.12914062 12.32484375 83.94578125 12.4921875 82.7265625 C12.74355469 80.88191406 12.74355469 80.88191406 13 79 C13.18820312 77.87335938 13.37640625 76.74671875 13.5703125 75.5859375 C16.53960542 57.39379074 17.044856 31.42532437 6.2578125 15.4140625 C5.07089463 13.89224664 3.85054969 12.39539353 2.5859375 10.9375 C1.00733605 9.00896227 -0.07866826 7.31273069 -1 5 C-0.625 2.25 -0.625 2.25 0 0 Z " fill="#FBF4C8" transform="translate(257,99)"/>
<path d="M0 0 C0.86625 0.268125 1.7325 0.53625 2.625 0.8125 C10.56545746 3.60636466 18.86213927 8.16111816 25 14 C25 14.66 25 15.32 25 16 C25.56074219 16.24492188 26.12148437 16.48984375 26.69921875 16.7421875 C33.77200701 20.60880519 39.54441558 27.31342657 44.625 33.46875 C45.94220755 35.12389654 45.94220755 35.12389654 48 36 C48 36.99 48 37.98 48 39 C48.99 39.33 49.98 39.66 51 40 C52.4451135 42.06278298 53.73742659 44.08084192 55 46.25 C55.51433594 47.11044922 55.51433594 47.11044922 56.0390625 47.98828125 C57.03345241 49.65445365 58.01689868 51.32714211 59 53 C59.84498047 54.32837891 59.84498047 54.32837891 60.70703125 55.68359375 C62.40498972 58.72555559 62.66307182 61.56333259 63 65 C63.66 65 64.32 65 65 65 C75.91891441 98.14544246 79.02564861 129.64920757 67 163 C66.66162109 163.9588208 66.66162109 163.9588208 66.31640625 164.93701172 C58.99313161 185.42252785 45.75880926 203.18744643 29 217 C28.28714844 217.62390625 27.57429687 218.2478125 26.83984375 218.890625 C19.54627611 225.07615482 11.42833326 229.5677518 3 234 C2.30229492 234.3722168 1.60458984 234.74443359 0.88574219 235.12792969 C-3.91300659 237.6245307 -7.59158907 238.61368493 -13 239 C-13 239.66 -13 240.32 -13 241 C-14.98 241 -16.96 241 -19 241 C-16.46932817 239.31288545 -14.52055908 238.34425706 -11.71875 237.30078125 C-2.13852575 233.65389508 6.60074322 229.97913195 15 224 C16.5205785 223.04126237 18.04140656 222.08292043 19.5625 221.125 C37.84284842 208.80775989 52.03691327 190.36552494 60 170 C60.27714844 169.32195312 60.55429687 168.64390625 60.83984375 167.9453125 C71.26378551 141.68824839 72.89232375 110.18976314 61.72265625 83.83203125 C61.15329044 82.55251697 60.57898598 81.27518997 60 80 C59.70464355 79.33661621 59.40928711 78.67323242 59.10498047 77.98974609 C46.35363906 49.75028889 23.66190868 27.46759605 -5.35058594 16.07714844 C-10.82361029 14.09488115 -16.37238756 12.47868074 -22 11 C-23.25683594 10.6596875 -24.51367188 10.319375 -25.80859375 9.96875 C-38.67927752 7.02687942 -51.88115753 7.53500173 -65 8 C-66.18408447 8.03988037 -66.18408447 8.03988037 -67.39208984 8.08056641 C-89.48343619 9.10307116 -112.9074136 19.36434119 -130 33 C-130.51949219 33.40734375 -131.03898437 33.8146875 -131.57421875 34.234375 C-139.82131186 40.73802087 -146.60594006 47.62196756 -153 56 C-153.93585938 57.19689453 -153.93585938 57.19689453 -154.890625 58.41796875 C-159.91986577 65.1802587 -163.58306933 72.60360496 -167.15576172 80.20507812 C-167.83989905 81.65961186 -168.54391905 83.10478261 -169.25390625 84.546875 C-174.61991927 96.41523322 -176.54211037 111.08751254 -177 124 C-177.09474609 125.44052734 -177.09474609 125.44052734 -177.19140625 126.91015625 C-177.95927627 146.50322681 -171.83738691 167.71700217 -161.57421875 184.3046875 C-160 187 -160 187 -160 189 C-159.34 189 -158.68 189 -158 189 C-158 189.99 -158 190.98 -158 192 C-157.34 192 -156.68 192 -156 192 C-155.608125 192.886875 -155.21625 193.77375 -154.8125 194.6875 C-152.89566592 198.19067953 -150.8666473 200.24059418 -148 203 C-146.24753359 204.70580311 -144.49750741 206.414117 -142.75 208.125 C-141.87859375 208.97320312 -141.0071875 209.82140625 -140.109375 210.6953125 C-138 213 -138 213 -137 216 C-153.34164256 209.31653862 -166.38391917 185.33833031 -173 170 C-185.82201209 136.79637379 -186.78447035 101.34221434 -174 68 C-173.64421875 67.00355469 -173.2884375 66.00710937 -172.921875 64.98046875 C-170.53132793 58.69265658 -167.38782598 53.02662093 -163.875 47.3125 C-163.44292236 46.60424072 -163.01084473 45.89598145 -162.56567383 45.16625977 C-159.37118384 40.12372795 -159.37118384 40.12372795 -156 39 C-156 38.01 -156 37.02 -156 36 C-153.84375 33.65625 -153.84375 33.65625 -151 31 C-150.1028125 30.1028125 -149.205625 29.205625 -148.28125 28.28125 C-145.52083333 25.52083333 -142.76041667 22.76041667 -140 20 C-139.1234375 19.0615625 -138.246875 18.123125 -137.34375 17.15625 C-135 15 -135 15 -132 15 C-131.505 13.515 -131.505 13.515 -131 12 C-124.19295851 7.06692082 -116.77417227 3.15783934 -109 0 C-108.15824219 -0.38671875 -107.31648438 -0.7734375 -106.44921875 -1.171875 C-76.0258348 -14.80559063 -29.41322298 -19.11585628 0 0 Z " fill="#81817F" transform="translate(214,40)"/>
<path d="M0 0 C2.29961495 0.81065393 4.6150656 1.52627352 6.94555664 2.2421875 C11.71711715 3.82713179 15.81262751 6.17242262 20.05883789 8.8359375 C20.83195313 9.31579102 21.60506836 9.79564453 22.40161133 10.29003906 C31.50875434 16.04527353 41.51839192 22.40798978 47.96508789 31.203125 C49.49260776 33.07352694 49.49260776 33.07352694 52.22290039 35.15625 C61.25597645 42.54016813 67.55426292 53.89355432 73.37133789 63.8359375 C73.85473633 64.61453125 74.33813477 65.393125 74.83618164 66.1953125 C78.55597491 72.39119917 80.43726266 78.90671308 82.37133789 85.8359375 C82.79975014 87.29594772 83.22950232 88.75556525 83.66040039 90.21484375 C84.10667957 91.75492854 84.55199937 93.29529168 84.99633789 94.8359375 C85.20258789 95.53452881 85.40883789 96.23312012 85.62133789 96.95288086 C95.0752915 130.47528051 89.6769149 169.83526958 73.58129883 200.5078125 C72.3899716 202.80008378 71.31537607 205.11641776 70.26586914 207.4765625 C65.61518467 217.83208658 60.40078745 226.92868326 53.37133789 235.8359375 C52.94723633 236.3834668 52.52313477 236.93099609 52.08618164 237.49511719 C46.94526281 244.11778403 46.94526281 244.11778403 44.37133789 246.8359375 C43.71133789 246.8359375 43.05133789 246.8359375 42.37133789 246.8359375 C42.37133789 247.4959375 42.37133789 248.1559375 42.37133789 248.8359375 C19.78256526 272.81989903 -15.26086752 285.75084572 -47.62866211 286.8359375 C-84.48386243 287.38911124 -119.25179335 274.18320185 -145.87866211 248.625 C-150.15496768 244.28795145 -153.95291888 239.68677213 -157.62866211 234.8359375 C-158.19713867 234.11792969 -158.76561523 233.39992188 -159.35131836 232.66015625 C-167.383469 221.9696106 -173.5512777 209.18216099 -178.62866211 196.8359375 C-178.94448242 196.09730469 -179.26030273 195.35867187 -179.58569336 194.59765625 C-195.21507486 156.70175864 -197.26133995 118.85708222 -183.46435547 80.23925781 C-182.92058509 78.67546125 -182.40413755 77.10180485 -181.91992188 75.51855469 C-180.18198347 69.85389095 -177.71694 65.09290218 -174.56616211 60.0859375 C-174.08300537 59.30951904 -173.59984863 58.53310059 -173.10205078 57.7331543 C-167.31557351 48.5716252 -161.26898797 39.29636682 -152.61303711 32.59375 C-150.78619694 30.97548607 -149.35947306 29.34731363 -147.81225586 27.46875 C-144.84762712 23.95569726 -141.67082126 21.25237456 -137.94116211 18.5859375 C-137.3032373 18.12630615 -136.6653125 17.6666748 -136.00805664 17.19311523 C-124.04769035 8.7532829 -111.93511094 1.35446088 -97.62866211 -2.1640625 C-96.19191498 -2.57958899 -94.75712966 -3.00193619 -93.32397461 -3.4296875 C-61.96902417 -12.7236301 -30.58094013 -11.0946804 0 0 Z M-81.62866211 -4.1640625 C-82.30348633 -4.01372559 -82.97831055 -3.86338867 -83.67358398 -3.70849609 C-106.99946625 1.68603431 -129.53564833 14.14925527 -146.62866211 30.8359375 C-147.6272467 31.78397355 -148.62595071 32.73188382 -149.62475586 33.6796875 C-169.58238795 52.8533813 -183.2938147 78.69646995 -188.62866211 105.8359375 C-188.89247681 107.16564575 -188.89247681 107.16564575 -189.16162109 108.5222168 C-193.6798015 133.13648669 -191.46542362 161.04944979 -180.62866211 183.8359375 C-180.18151855 184.78388184 -180.18151855 184.78388184 -179.7253418 185.75097656 C-163.80238707 219.26379554 -141.1374636 243.16275337 -107.44946289 258.98095703 C-105.85527388 259.72952902 -104.2704226 260.49792143 -102.68725586 261.26953125 C-76.4999248 273.22704657 -44.15175546 274.31273548 -16.62866211 266.8359375 C-14.85749023 266.38541016 -14.85749023 266.38541016 -13.05053711 265.92578125 C20.4452711 256.58093621 49.87055262 232.91884484 67.46508789 203.24609375 C84.81915572 172.20080438 93.07380034 137.04175375 84.37133789 101.8359375 C84.22100098 101.17964355 84.07066406 100.52334961 83.91577148 99.84716797 C78.15364353 75.15318865 64.97208731 52.84305342 47.37133789 34.8359375 C46.17057617 33.54236328 46.17057617 33.54236328 44.94555664 32.22265625 C24.61179541 10.82395171 -3.99157955 -1.1538477 -32.62866211 -6.1640625 C-33.73467773 -6.35871094 -34.84069336 -6.55335937 -35.98022461 -6.75390625 C-51.20215508 -8.46515111 -66.72580521 -7.61741898 -81.62866211 -4.1640625 Z " fill="#464646" transform="translate(211.628662109375,25.1640625)"/>
<path d="M0 0 C3.71228389 3.59979044 7.10516412 7.38347519 10.44921875 11.328125 C11.91350467 13.10326363 11.91350467 13.10326363 14 14 C14 14.66 14 15.32 14 16 C14.5775 16.25007813 15.155 16.50015625 15.75 16.7578125 C18.30383246 18.16774084 19.94121983 19.80865078 22 21.875 C46.21891373 43.93087751 80.21030035 54.22296429 112.375 54.25 C113.45263107 54.25101212 113.45263107 54.25101212 114.55203247 54.25204468 C125.34146882 54.23593138 135.50839251 53.72737805 146 51 C147.02722168 50.75056641 147.02722168 50.75056641 148.07519531 50.49609375 C158.51079355 47.93811688 167.80813074 44.05151454 177.24414062 38.94482422 C178.8010553 38.10705173 180.37596655 37.30291642 181.953125 36.50390625 C187.35441383 33.716399 192.35327059 30.4984115 197.3125 27 C197.88758301 26.59668457 198.46266602 26.19336914 199.05517578 25.77783203 C202.05848253 23.60921279 204.71309549 21.35099836 207.29296875 18.6875 C210 16 210 16 212 16 C212.33 15.01 212.66 14.02 213 13 C213.66 13 214.32 13 215 13 C215.24492187 12.43796875 215.48984375 11.8759375 215.7421875 11.296875 C217.22926539 8.58134146 219.04062782 6.53608562 221.125 4.25 C221.84945312 3.45078125 222.57390625 2.6515625 223.3203125 1.828125 C224.15175781 0.92320312 224.15175781 0.92320312 225 0 C225.33 0.66 225.66 1.32 226 2 C205.11974166 33.50083419 176.43138096 56.26859592 138.96850586 64.42333984 C103.94038354 71.34816025 68.41843502 63.34004296 38.71484375 43.84375 C23.36913616 32.68323539 9.09689724 18.80817437 0 2 C0 1.34 0 0.68 0 0 Z " fill="#7F7F7F" transform="translate(47,243)"/>
<path d="M0 0 C0.86625 0.268125 1.7325 0.53625 2.625 0.8125 C10.56545746 3.60636466 18.86213927 8.16111816 25 14 C25 14.66 25 15.32 25 16 C25.56074219 16.24492188 26.12148437 16.48984375 26.69921875 16.7421875 C33.77200701 20.60880519 39.54441558 27.31342657 44.625 33.46875 C45.94220755 35.12389654 45.94220755 35.12389654 48 36 C48 36.99 48 37.98 48 39 C48.99 39.33 49.98 39.66 51 40 C52.4451135 42.06278298 53.73742659 44.08084192 55 46.25 C55.51433594 47.11044922 55.51433594 47.11044922 56.0390625 47.98828125 C57.03345241 49.65445365 58.01689868 51.32714211 59 53 C59.84498047 54.32837891 59.84498047 54.32837891 60.70703125 55.68359375 C62.40498972 58.72555559 62.66307182 61.56333259 63 65 C63.66 65 64.32 65 65 65 C75.91891441 98.14544246 79.02564861 129.64920757 67 163 C66.66162109 163.9588208 66.66162109 163.9588208 66.31640625 164.93701172 C58.99313161 185.42252785 45.75880926 203.18744643 29 217 C28.28714844 217.62390625 27.57429687 218.2478125 26.83984375 218.890625 C19.54627611 225.07615482 11.42833326 229.5677518 3 234 C2.30229492 234.3722168 1.60458984 234.74443359 0.88574219 235.12792969 C-3.91300659 237.6245307 -7.59158907 238.61368493 -13 239 C-13 239.66 -13 240.32 -13 241 C-14.98 241 -16.96 241 -19 241 C-16.46932817 239.31288545 -14.52055908 238.34425706 -11.71875 237.30078125 C-2.13852575 233.65389508 6.60074322 229.97913195 15 224 C16.5205785 223.04126237 18.04140656 222.08292043 19.5625 221.125 C37.84284842 208.80775989 52.03691327 190.36552494 60 170 C60.27714844 169.32195312 60.55429687 168.64390625 60.83984375 167.9453125 C68.7236774 148.08657477 69.41120173 128.06509597 70 107 C70.99 108.485 70.99 108.485 72 110 C70.49580789 97.15723399 68.31172026 85.19561005 64 73 C61 64.1541502 61 64.1541502 61 62 C60.34 62 59.68 62 59 62 C58.57589844 61.09378906 58.15179688 60.18757813 57.71484375 59.25390625 C48.95804997 40.8987567 32.1634551 19.16221236 13 11 C13 10.34 13 9.68 13 9 C11.35 8.67 9.7 8.34 8 8 C8 7.34 8 6.68 8 6 C6.35 5.67 4.7 5.34 3 5 C3 4.34 3 3.68 3 3 C2.030625 2.9175 1.06125 2.835 0.0625 2.75 C-2.86222408 2.33465457 -5.11132339 1.56140641 -7.75 0.25 C-37.15889575 -13.52442297 -69.22516681 -10.18728352 -99.125 -0.73022461 C-101.28091968 0.03205176 -101.28091968 0.03205176 -104 2 C-105.44372958 2.54072269 -106.90413666 3.03815895 -108.375 3.5 C-111.64143983 4.54973678 -114.83346782 5.67209941 -118 7 C-118 7.66 -118 8.32 -118 9 C-118.99 9 -119.98 9 -121 9 C-121 9.66 -121 10.32 -121 11 C-129 15 -129 15 -131.140625 15.8828125 C-133.45871977 17.27561734 -133.87439511 18.58339521 -135 21 C-136.48828125 22.4296875 -136.48828125 22.4296875 -138.3125 23.875 C-142.37856297 27.32296182 -146.04441007 31.05449549 -149.6875 34.9375 C-150.2338208 35.51032715 -150.7801416 36.0831543 -151.34301758 36.67333984 C-155.83881049 41.51286035 -159.89237301 46.67711904 -162 53 C-162.66 53 -163.32 53 -164 53 C-164.103125 53.70125 -164.20625 54.4025 -164.3125 55.125 C-165.09359003 58.39137647 -166.42058743 61.0471852 -168 64 C-168.66 64 -169.32 64 -170 64 C-170.11601562 64.845625 -170.23203125 65.69125 -170.3515625 66.5625 C-171.04071792 70.21585403 -172.12980541 73.49836188 -173.375 77 C-177.09280019 87.81005394 -179.22900639 98.58929453 -180 110 C-178.35 104.39 -176.7 98.78 -175 93 C-174.67 93 -174.34 93 -174 93 C-174.44232806 99.58836012 -174.99449171 106.13685165 -175.78710938 112.69140625 C-178.75735846 137.59094117 -174.91026094 162.75051748 -161.57421875 184.3046875 C-160 187 -160 187 -160 189 C-159.34 189 -158.68 189 -158 189 C-158 189.99 -158 190.98 -158 192 C-157.34 192 -156.68 192 -156 192 C-155.608125 192.886875 -155.21625 193.77375 -154.8125 194.6875 C-152.89566592 198.19067953 -150.8666473 200.24059418 -148 203 C-146.24753359 204.70580311 -144.49750741 206.414117 -142.75 208.125 C-141.87859375 208.97320312 -141.0071875 209.82140625 -140.109375 210.6953125 C-138 213 -138 213 -137 216 C-153.34164256 209.31653862 -166.38391917 185.33833031 -173 170 C-185.82201209 136.79637379 -186.78447035 101.34221434 -174 68 C-173.64421875 67.00355469 -173.2884375 66.00710937 -172.921875 64.98046875 C-170.53132793 58.69265658 -167.38782598 53.02662093 -163.875 47.3125 C-163.44292236 46.60424072 -163.01084473 45.89598145 -162.56567383 45.16625977 C-159.37118384 40.12372795 -159.37118384 40.12372795 -156 39 C-156 38.01 -156 37.02 -156 36 C-153.84375 33.65625 -153.84375 33.65625 -151 31 C-150.1028125 30.1028125 -149.205625 29.205625 -148.28125 28.28125 C-145.52083333 25.52083333 -142.76041667 22.76041667 -140 20 C-139.1234375 19.0615625 -138.246875 18.123125 -137.34375 17.15625 C-135 15 -135 15 -132 15 C-131.505 13.515 -131.505 13.515 -131 12 C-124.19295851 7.06692082 -116.77417227 3.15783934 -109 0 C-108.15824219 -0.38671875 -107.31648438 -0.7734375 -106.44921875 -1.171875 C-76.0258348 -14.80559063 -29.41322298 -19.11585628 0 0 Z " fill="#4A4A4A" transform="translate(214,40)"/>
<path d="M0 0 C2.70788904 2.39544031 4.60944012 4.8947054 6.5 7.9375 C19.54790781 27.88732379 39.97618559 41.18914264 61.17919922 51.14501953 C62.77338823 51.89359152 64.35823951 52.66198393 65.94140625 53.43359375 C92.12873731 65.39110907 124.47690665 66.47679798 152 59 C153.18078125 58.69964844 154.3615625 58.39929688 155.578125 58.08984375 C185.21257028 49.822263 210.76813087 30.28916776 229 6 C230.32676353 4.32809866 231.65759161 2.65936593 233 1 C233.99 2.485 233.99 2.485 235 4 C232.44581502 8.82457162 229.98099485 12.2041677 226 16 C224.88739452 17.28440486 223.78391402 18.57674613 222.6875 19.875 C219.68847675 23.3349121 216.50288407 26.34896959 213.00390625 29.296875 C211.73222206 30.37768262 210.48587893 31.48963911 209.27734375 32.640625 C193.68527857 47.30744675 171.0192129 58.00401803 150.3125 62.6875 C148.96575195 63.00557617 148.96575195 63.00557617 147.59179688 63.33007812 C137.56312634 65.65908073 127.88310637 66.24137655 117.625 66.25 C116.90691162 66.25067474 116.18882324 66.25134949 115.44897461 66.25204468 C104.67086394 66.23593952 94.47293076 65.77257652 84 63 C82.08767578 62.50693359 82.08767578 62.50693359 80.13671875 62.00390625 C58.62940786 56.05291895 38.08002121 45.45913503 22.00390625 29.8984375 C20.14094676 27.94943938 20.14094676 27.94943938 18 27 C18 26.34 18 25.68 18 25 C17.01 24.67 16.02 24.34 15 24 C13.421875 22.43359375 13.421875 22.43359375 11.75 20.4375 C9.27921189 17.51032428 6.76656847 14.64462947 4.1875 11.8125 C1.76219077 9.03293212 -0.15970992 6.67626908 -1 3 C-0.67 2.01 -0.34 1.02 0 0 Z " fill="#4D4D4D" transform="translate(43,232)"/>
<path d="M0 0 C1.14408938 3.43226813 0.85613696 4.10980928 -0.328125 7.39453125 C-0.63218262 8.26094238 -0.93624023 9.12735352 -1.24951172 10.02001953 C-1.57967285 10.94153809 -1.90983398 11.86305664 -2.25 12.8125 C-6.39286347 24.8073684 -9.14099098 36.28666653 -10 49 C-8.35 43.39 -6.7 37.78 -5 32 C-4.67 32 -4.34 32 -4 32 C-4.44232806 38.58836012 -4.99449171 45.13685165 -5.78710938 51.69140625 C-8.75735846 76.59094117 -4.91026094 101.75051748 8.42578125 123.3046875 C10 126 10 126 10 128 C10.66 128 11.32 128 12 128 C12 128.99 12 129.98 12 131 C12.66 131 13.32 131 14 131 C14.391875 131.886875 14.78375 132.77375 15.1875 133.6875 C17.10433408 137.19067953 19.1333527 139.24059418 22 142 C23.75246641 143.70580311 25.50249259 145.414117 27.25 147.125 C28.12140625 147.97320312 28.9928125 148.82140625 29.890625 149.6953125 C32 152 32 152 33 155 C16.65835744 148.31653862 3.61608083 124.33833031 -3 109 C-15.63185941 76.28878937 -17.39734842 39.79603274 -4 7 C-2.78820832 4.52151345 -1.51903902 2.30668888 0 0 Z " fill="#484848" transform="translate(44,101)"/>
<path d="M0 0 C4.44648341 7.32258181 2.10279615 17.51549497 0.4296875 25.45703125 C0.01802031 27.89335251 -0.00739155 29.97943017 0.125 32.4375 C0.26222158 38.36969447 -1.89909533 43.53075966 -4 49 C-4.54333984 50.47339844 -4.54333984 50.47339844 -5.09765625 51.9765625 C-12.38538451 70.70231851 -25.56151407 87.27565243 -41 100 C-41.71285156 100.62390625 -42.42570312 101.2478125 -43.16015625 101.890625 C-50.45372389 108.07615482 -58.57166674 112.5677518 -67 117 C-67.69770508 117.3722168 -68.39541016 117.74443359 -69.11425781 118.12792969 C-73.91300659 120.6245307 -77.59158907 121.61368493 -83 122 C-83 122.66 -83 123.32 -83 124 C-84.98 124 -86.96 124 -89 124 C-86.46932817 122.31288545 -84.52055908 121.34425706 -81.71875 120.30078125 C-72.13852575 116.65389508 -63.39925678 112.97913195 -55 107 C-53.4794215 106.04126237 -51.95859344 105.08292043 -50.4375 104.125 C-32.15715158 91.80775989 -17.96308673 73.36552494 -10 53 C-9.58427734 51.98292969 -9.58427734 51.98292969 -9.16015625 50.9453125 C-2.61448632 34.45730067 -0.87596941 17.54244002 0 0 Z " fill="#78756C" transform="translate(284,157)"/>
<path d="M0 0 C0.66 0 1.32 0 2 0 C2.33 1.65 2.66 3.3 3 5 C3.66 5 4.32 5 5 5 C14.45652162 33.70620478 18.64461358 61.22103627 11 91 C10.34 91 9.68 91 9 91 C9.14288854 89.29141784 9.28946089 87.5831436 9.4375 85.875 C9.51871094 84.92367187 9.59992188 83.97234375 9.68359375 82.9921875 C10 80 10 80 10.52734375 77.046875 C11.03433292 73.77868034 11.13274204 70.68085158 11.125 67.375 C11.12757813 66.26898438 11.13015625 65.16296875 11.1328125 64.0234375 C11.01986468 61.45221352 10.63294553 59.46200861 10 57 C9.93375493 55.25113019 9.91447405 53.49997252 9.9375 51.75 C9.94652344 50.85796875 9.95554687 49.9659375 9.96484375 49.046875 C9.97644531 48.37140625 9.98804688 47.6959375 10 47 C10.66 47.99 11.32 48.98 12 50 C10.09498419 33.73500823 6.54338103 19.33090215 0.69921875 4.0390625 C0 2 0 2 0 0 Z " fill="#494949" transform="translate(274,100)"/>
<path d="M0 0 C0.66 0.33 1.32 0.66 2 1 C2 1.99 2 2.98 2 4 C1.01 4 0.02 4 -1 4 C-1 4.66 -1 5.32 -1 6 C-9 10 -9 10 -11.140625 10.8828125 C-13.45871977 12.27561734 -13.87439511 13.58339521 -15 16 C-16.48828125 17.4296875 -16.48828125 17.4296875 -18.3125 18.875 C-22.37856297 22.32296182 -26.04441007 26.05449549 -29.6875 29.9375 C-30.2338208 30.51032715 -30.7801416 31.0831543 -31.34301758 31.67333984 C-35.83881049 36.51286035 -39.89237301 41.67711904 -42 48 C-42.66 48 -43.32 48 -44 48 C-44.103125 48.70125 -44.20625 49.4025 -44.3125 50.125 C-45.09359003 53.39137647 -46.42058743 56.0471852 -48 59 C-48.99 58.34 -49.98 57.68 -51 57 C-49.50529657 51.63764587 -47.00279268 47.3503884 -44.0625 42.6875 C-43.61970703 41.95982422 -43.17691406 41.23214844 -42.72070312 40.48242188 C-42.07198242 39.44504883 -42.07198242 39.44504883 -41.41015625 38.38671875 C-41.01965088 37.75983154 -40.62914551 37.13294434 -40.22680664 36.48706055 C-39 35 -39 35 -36 34 C-36 33.01 -36 32.02 -36 31 C-33.84375 28.65625 -33.84375 28.65625 -31 26 C-30.1028125 25.1028125 -29.205625 24.205625 -28.28125 23.28125 C-25.52083333 20.52083333 -22.76041667 17.76041667 -20 15 C-18.68515625 13.59234375 -18.68515625 13.59234375 -17.34375 12.15625 C-15 10 -15 10 -12 10 C-11.67 9.01 -11.34 8.02 -11 7 C-8.56640625 5.140625 -8.56640625 5.140625 -5.5625 3.25 C-4.57378906 2.61578125 -3.58507812 1.9815625 -2.56640625 1.328125 C-1.71949219 0.88984375 -0.87257812 0.4515625 0 0 Z " fill="#4E4D4D" transform="translate(94,45)"/>
<path d="M0 0 C0.99 0 1.98 0 3 0 C9.95652649 15.53306599 15.69279569 29.60313041 15 47 C14.34 46.67 13.68 46.34 13 46 C12.62649162 44.03463448 12.3522856 42.05008934 12.125 40.0625 C11.23586378 33.79782267 9.56669944 28.74191729 7 23 C5.73068036 20.09135082 4.48809789 17.1720482 3.25 14.25 C2.93200439 13.52844727 2.61400879 12.80689453 2.28637695 12.06347656 C0.50540578 7.86758809 -0.38019718 4.650104 0 0 Z " fill="#F8F4DA" transform="translate(268,111)"/>
<path d="M0 0 C1.68696713 2.99398672 2.62580609 6.03163825 3.5480957 9.33154297 C5.82531437 17.39769627 9.03060006 24.18757461 13.42578125 31.3046875 C15 34 15 34 15 36 C15.66 36 16.32 36 17 36 C17 36.99 17 37.98 17 39 C17.66 39 18.32 39 19 39 C19.391875 39.886875 19.78375 40.77375 20.1875 41.6875 C22.10433408 45.19067953 24.1333527 47.24059418 27 50 C28.75246641 51.70580311 30.50249259 53.414117 32.25 55.125 C33.12140625 55.97320312 33.9928125 56.82140625 34.890625 57.6953125 C37 60 37 60 38 63 C23.78572886 57.18659833 12.82012865 37.81206861 5.8125 25 C5.23205933 23.95936401 5.23205933 23.95936401 4.63989258 22.89770508 C2.28467737 18.39436836 1.71243065 15.17624826 2 10 C1.36096883 8.32254318 0.69658363 6.65438613 0 5 C-0.125 2.1875 -0.125 2.1875 0 0 Z " fill="#838071" transform="translate(39,193)"/>
<path d="M0 0 C1.63977964 3.27955929 0.52392107 6.77829509 0.0625 10.3125 C-1.93884153 27.31971608 -1.15512277 44.5484343 4 61 C3.01 61.495 3.01 61.495 2 62 C-8.64901561 31.94704684 -8.64901561 31.94704684 -5 21 C-4.34 21 -3.68 21 -3 21 C-3.04125 19.741875 -3.0825 18.48375 -3.125 17.1875 C-3.13375722 11.67920593 -2.30810824 6.3470118 -1 1 C-0.67 0.67 -0.34 0.34 0 0 Z " fill="#474746" transform="translate(38,144)"/>
<path d="M0 0 C4.44648341 7.32258181 2.10279615 17.51549497 0.4296875 25.45703125 C0.01802031 27.89335251 -0.00739155 29.97943017 0.125 32.4375 C0.33726797 40.30556625 -3.23069342 48.21524816 -7 55 C-7.33 55 -7.66 55 -8 55 C-8.27391035 49.46412762 -7.36084825 45.22878765 -5.625 40 C-1.55012761 26.91624015 -0.67957496 13.60938272 0 0 Z " fill="#67655C" transform="translate(284,157)"/>
<path d="M0 0 C3.90604716 1.45040722 7.40406072 3.27431098 11 5.375 C12.010625 5.96023437 13.02125 6.54546875 14.0625 7.1484375 C16.90374922 8.93933129 19.49506796 10.76213792 22 13 C22 13.66 22 14.32 22 15 C22.66 15.33 23.32 15.66 24 16 C23.01 16.33 22.02 16.66 21 17 C19.0625 15.8203125 19.0625 15.8203125 17 14.125 C14.54331047 12.12428693 13.04638646 11.01546215 10 10 C10 9.34 10 8.68 10 8 C8.35 7.67 6.7 7.34 5 7 C5 6.34 5 5.68 5 5 C3.35 4.67 1.7 4.34 0 4 C0 2.68 0 1.36 0 0 Z " fill="#5E5D5D" transform="translate(217,41)"/>
<path d="M0 0 C2.2421875 0.109375 2.2421875 0.109375 5 1 C6.61471991 3.09381263 7.85953549 4.96416094 9.125 7.25 C9.78757812 8.38953125 10.45015625 9.5290625 11.1328125 10.703125 C11.74898438 11.79109375 12.36515625 12.8790625 13 14 C13.57492187 14.92296875 14.14984375 15.8459375 14.7421875 16.796875 C16 19 16 19 16 21 C15.34 21 14.68 21 14 21 C13.67 21.66 13.34 22.32 13 23 C12.56429688 22.09378906 12.12859375 21.18757813 11.6796875 20.25390625 C8.22453162 13.15635489 4.63684802 6.4202511 0 0 Z " fill="#5C5C5C" transform="translate(260,79)"/>
<path d="M0 0 C0.66 0.66 1.32 1.32 2 2 C-20.99875312 16.61533666 -20.99875312 16.61533666 -31 17 C-31 17.66 -31 18.32 -31 19 C-32.98 19 -34.96 19 -37 19 C-34.46932817 17.31288545 -32.52055908 16.34425706 -29.71875 15.30078125 C-20.1204516 11.64543004 -11.36219917 8.05482132 -3 2 C-2.01 1.34 -1.02 0.68 0 0 Z " fill="#938F80" transform="translate(232,262)"/>
<path d="M0 0 C1.639561 3.27912201 0.52500911 6.77871448 0.0625 10.3125 C-1.34659451 22.01507059 -1.18338954 33.27176435 0 45 C-1.50830081 42.23776371 -2.35526549 39.84560561 -2.8515625 36.7421875 C-2.98046875 35.95199219 -3.109375 35.16179687 -3.2421875 34.34765625 C-3.36851563 33.53167969 -3.49484375 32.71570313 -3.625 31.875 C-3.7590625 31.05128906 -3.893125 30.22757813 -4.03125 29.37890625 C-5 23.33904656 -5 23.33904656 -5 21 C-4.34 21 -3.68 21 -3 21 C-3.061875 19.1128125 -3.061875 19.1128125 -3.125 17.1875 C-3.13375722 11.67920593 -2.30810824 6.3470118 -1 1 C-0.67 0.67 -0.34 0.34 0 0 Z " fill="#848175" transform="translate(38,144)"/>
<path d="M0 0 C0.66 0.99 1.32 1.98 2 3 C-3.33646924 9.13941022 -8.76502852 14.78090982 -15 20 C-15.96486328 20.87205078 -15.96486328 20.87205078 -16.94921875 21.76171875 C-17.56410156 22.31472656 -18.17898437 22.86773437 -18.8125 23.4375 C-19.35519531 23.93121094 -19.89789063 24.42492187 -20.45703125 24.93359375 C-22 26 -22 26 -25 26 C-25 25.34 -25 24.68 -25 24 C-23.3498181 22.97302509 -21.67956464 21.9781822 -20 21 C-8.53740471 11.75182716 -8.53740471 11.75182716 0 0 Z " fill="#817E72" transform="translate(258,237)"/>
<path d="M0 0 C-5.8470468 3.8980312 -12.32204359 6.16379125 -18.98828125 8.26953125 C-21.53136352 9.19294171 -23.69344898 10.60209029 -26 12 C-26.66 11.67 -27.32 11.34 -28 11 C-24.21814415 6.30528239 -20.39449593 4.78699799 -14.71875 2.91796875 C-12.41132219 2.13888034 -10.31095742 1.24692235 -8.125 0.1875 C-4.80480977 -1.07417229 -3.32201335 -1.10733778 0 0 Z " fill="#4F4F4F" transform="translate(122,36)"/>
<path d="M0 0 C0.33 0 0.66 0 1 0 C0.54177532 3.46941546 0.10868317 6.67395049 -1 10 C-1.66 10 -2.32 10 -3 10 C-3.103125 10.70125 -3.20625 11.4025 -3.3125 12.125 C-4.09359003 15.39137647 -5.42058743 18.0471852 -7 21 C-7.99 20.34 -8.98 19.68 -10 19 C-8.62309544 14.25652774 -6.56160559 10.27474838 -3.9375 6.125 C-3.57333984 5.53203125 -3.20917969 4.9390625 -2.83398438 4.328125 C-1.9218371 2.86464287 -0.96486632 1.4292745 0 0 Z " fill="#5E5D5D" transform="translate(53,83)"/>
<path d="M0 0 C5.94635617 10.03744921 0.64210379 24.49056037 -2 35 C-3.1165207 31.11581041 -2.75347167 28.26188763 -2.125 24.25 C-0.92689983 16.18648379 -0.40630965 8.13688538 0 0 Z " fill="#858276" transform="translate(284,157)"/>
<path d="M0 0 C1.38463022 2.07694533 2.75896838 4.16077517 4.125 6.25 C6.676961 9.83633573 9.7016671 12.47563799 13.0625 15.2890625 C15.71883396 17.63477677 17.82267411 20.2103012 20 23 C17 23 17 23 14.0390625 20.40234375 C12.89321327 19.25516214 11.75549172 18.09981862 10.625 16.9375 C10.06039062 16.37611328 9.49578125 15.81472656 8.9140625 15.23632812 C5.14651195 11.42081107 1.83670911 7.56173491 -1 3 C-0.67 2.01 -0.34 1.02 0 0 Z " fill="#999483" transform="translate(57,232)"/>
<path d="M0 0 C3.66379303 1.57508859 6.29851305 3.84193573 9.25 6.5 C10.14203125 7.2940625 11.0340625 8.088125 11.953125 8.90625 C14 11 14 11 14 13 C10.66864109 12.40300869 8.78724333 11.27987719 6.25 9.0625 C5.63640625 8.53785156 5.0228125 8.01320313 4.390625 7.47265625 C3 6 3 6 3 4 C2.01 3.67 1.02 3.34 0 3 C0 2.01 0 1.02 0 0 Z " fill="#494949" transform="translate(58,253)"/>
<path d="M0 0 C0.33 0.99 0.66 1.98 1 3 C-1.97 6.3 -4.94 9.6 -8 13 C-8.33 11.68 -8.66 10.36 -9 9 C-8.34 8.01 -7.68 7.02 -7 6 C-6.34 6 -5.68 6 -5 6 C-5 5.01 -5 4.02 -5 3 C-2.5 1.3125 -2.5 1.3125 0 0 Z " fill="#515050" transform="translate(63,73)"/>
<path d="M0 0 C0.66 0 1.32 0 2 0 C2.13277344 0.81984375 2.26554687 1.6396875 2.40234375 2.484375 C2.57894531 3.56203125 2.75554688 4.6396875 2.9375 5.75 C3.11152344 6.81734375 3.28554688 7.8846875 3.46484375 8.984375 C3.88704171 11.36347593 4.37202884 13.66915211 5 16 C4.34 16.33 3.68 16.66 3 17 C-1.77676538 5.47835991 -1.77676538 5.47835991 0 0 Z " fill="#5B5A55" transform="translate(37,189)"/>
<path d="M0 0 C0.66 0.99 1.32 1.98 2 3 C-0.97 6.3 -3.94 9.6 -7 13 C-7.66 12.34 -8.32 11.68 -9 11 C-6.03 7.37 -3.06 3.74 0 0 Z " fill="#8C887B" transform="translate(258,237)"/>
<path d="M0 0 C4.38462134 0.50109958 6.8000997 1.98295115 10 5 C10 5.66 10 6.32 10 7 C10.66 7.33 11.32 7.66 12 8 C11.01 8.33 10.02 8.66 9 9 C6.73828125 7.63671875 6.73828125 7.63671875 4.3125 5.6875 C3.50425781 5.05199219 2.69601563 4.41648437 1.86328125 3.76171875 C1.24839844 3.18035156 0.63351563 2.59898438 0 2 C0 1.34 0 0.68 0 0 Z " fill="#555454" transform="translate(229,49)"/>
<path d="M0 0 C2.32472205 2.85306797 3.7508258 5.54074837 5 9 C5.66 9 6.32 9 7 9 C7.33 10.65 7.66 12.3 8 14 C4.23617813 12.74539271 3.74958162 11.47381388 1.75 8.125 C1.20859375 7.24070313 0.6671875 6.35640625 0.109375 5.4453125 C-1 3 -1 3 0 0 Z " fill="#858275" transform="translate(49,220)"/>
<path d="M0 0 C0.33 0 0.66 0 1 0 C1.18153682 4.62918896 0.84000043 7.77882254 -1 12 C-1.37593066 13.9924325 -1.71979545 15.9918674 -2 18 C-2.66 17.34 -3.32 16.68 -4 16 C-3.65428657 10.35334727 -1.90939746 5.29587597 0 0 Z " fill="#54534E" transform="translate(39,133)"/>
<path d="M0 0 C2.25 0.125 2.25 0.125 5 1 C9 5.97297297 9 5.97297297 9 10 C5.52867905 8.59070303 4.11906726 7.09394917 2.25 3.875 C1.60804688 2.78832031 1.60804688 2.78832031 0.953125 1.6796875 C0.63859375 1.12539062 0.3240625 0.57109375 0 0 Z " fill="#565555" transform="translate(260,79)"/>
<path d="M0 0 C0.99 0.99 1.98 1.98 3 3 C1.68 5.31 0.36 7.62 -1 10 C-1.66 10 -2.32 10 -3 10 C-3.75 8.375 -3.75 8.375 -4 6 C-2.0625 2.75 -2.0625 2.75 0 0 Z " fill="#5A5A5A" transform="translate(275,233)"/>
<path d="M0 0 C3.05740483 2.75166435 4.84750161 5.01864192 6 9 C5.67 9.66 5.34 10.32 5 11 C4.34 11 3.68 11 3 11 C2.30034557 9.73581754 1.61565237 8.46334598 0.9375 7.1875 C0.55464844 6.47980469 0.17179687 5.77210938 -0.22265625 5.04296875 C-1 3 -1 3 0 0 Z " fill="#5B5A5A" transform="translate(43,232)"/>
<path d="M0 0 C-3.00617269 3.00617269 -5.82381598 2.59585316 -10 3 C-10 3.66 -10 4.32 -10 5 C-11.98 5 -13.96 5 -16 5 C-13.32975467 3.21983645 -10.94969139 2.02836981 -8 0.8125 C-7.13375 0.44769531 -6.2675 0.08289063 -5.375 -0.29296875 C-3 -1 -3 -1 0 0 Z " fill="#9F9B88" transform="translate(211,276)"/>
<path d="M0 0 C3.67230705 3.07999946 4.56802365 5.2482602 5 10 C4.34 10 3.68 10 3 10 C0.96564469 6.27034861 0 4.33094958 0 0 Z " fill="#78756C" transform="translate(44,212)"/>
<path d="M0 0 C0.66 0.33 1.32 0.66 2 1 C2 1.99 2 2.98 2 4 C1.01 4 0.02 4 -1 4 C-1 4.66 -1 5.32 -1 6 C-1.66 6 -2.32 6 -3 6 C-3 5.34 -3 4.68 -3 4 C-3.66 3.67 -4.32 3.34 -5 3 C-2.625 1.4375 -2.625 1.4375 0 0 Z " fill="#636262" transform="translate(94,45)"/>
<path d="M0 0 C4.875 3.625 4.875 3.625 6 7 C2.63279613 5.60667426 1.0140476 4.0210714 -1 1 C-0.67 0.67 -0.34 0.34 0 0 Z " fill="#A7A18C" transform="translate(71,249)"/>
<path d="M0 0 C0.66 0 1.32 0 2 0 C1.43628586 3.26954202 0.50037734 4.82575883 -2 7 C-2.33 6.01 -2.66 5.02 -3 4 C-1.6875 1.8125 -1.6875 1.8125 0 0 Z " fill="#4F4F4F" transform="translate(270,241)"/>
</svg>
