<?xml version="1.0" encoding="UTF-8"?>
<svg version="1.1" xmlns="http://www.w3.org/2000/svg" width="960" height="320">
<path d="M0 0 C316.8 0 633.6 0 960 0 C960 105.6 960 211.2 960 320 C643.2 320 326.4 320 0 320 C0 214.4 0 108.8 0 0 Z " fill="#FEF1DF" transform="translate(0,0)"/>
<path d="M0 0 C316.8 0 633.6 0 960 0 C960 105.6 960 211.2 960 320 C643.2 320 326.4 320 0 320 C0 214.4 0 108.8 0 0 Z M5 6 C5 107.64 5 209.28 5 314 C318.5 314 632 314 955 314 C955 212.36 955 110.72 955 6 C641.5 6 328 6 5 6 Z " fill="#A88152" transform="translate(0,0)"/>
</svg>
