<?xml version="1.0" encoding="UTF-8"?>
<svg version="1.1" xmlns="http://www.w3.org/2000/svg" width="1920" height="960">
<path d="M0 0 C633.6 0 1267.2 0 1920 0 C1920 316.8 1920 633.6 1920 960 C1286.4 960 652.8 960 0 960 C0 643.2 0 326.4 0 0 Z " fill="#FEF1DF" transform="translate(0,0)"/>
<path d="M0 0 C633.6 0 1267.2 0 1920 0 C1920 316.8 1920 633.6 1920 960 C1286.4 960 652.8 960 0 960 C0 643.2 0 326.4 0 0 Z M10 4 C10 307.27 10 610.54 10 923 C637.33 923 1264.66 923 1911 923 C1911 619.73 1911 316.46 1911 4 C1283.67 4 656.34 4 10 4 Z " fill="#E0C9AD" transform="translate(0,0)"/>
<path d="M0 0 C58.56111652 -0.00550041 117.12223306 -0.01076987 175.68334961 -0.01586914 C177.40215941 -0.01601884 177.40215941 -0.01601884 179.15569263 -0.01617156 C280.98574902 -0.02503516 382.81580544 -0.03345437 545.34219302 -0.042239 C547.38393004 -0.04234323 549.42566706 -0.04244766 551.46740408 -0.04255217 C609.31911695 -0.04551292 667.17082984 -0.04827977 725.02254273 -0.05078693 C727.16362849 -0.05087972 729.30471425 -0.05097252 731.4458 -0.05106533 C732.15296304 -0.05109598 732.86012608 -0.05112663 733.5887183 -0.05115821 C760.17942521 -0.05231126 786.77013211 -0.05350863 813.360839 -0.05473244 C816.2499978 -0.05486537 819.13915659 -0.05499779 822.02831538 -0.05512976 C890.2434254 -0.05824591 958.45853523 -0.06215981 1026.67364502 -0.06866455 C1027.75103729 -0.0687672 1027.75103729 -0.0687672 1028.85019506 -0.06887193 C1052.73631675 -0.07114901 1076.62243843 -0.0735034 1100.50856011 -0.07586844 C1122.09038507 -0.07800509 1143.67221003 -0.08011399 1165.254035 -0.08213139 C1166.31745684 -0.08223081 1166.31745684 -0.08223081 1167.40236196 -0.08233224 C1211.78600282 -0.08647453 1256.16964363 -0.08941533 1300.55328465 -0.09113979 C1301.23854317 -0.09116658 1301.92380169 -0.09119336 1302.62982563 -0.09122096 C1332.72149484 -0.09239615 1362.81316405 -0.09332053 1392.90483328 -0.0939579 C1405.00997679 -0.09421546 1417.11512029 -0.09451019 1429.22026379 -0.09482527 C1431.22742571 -0.09487721 1433.23458764 -0.09492794 1435.24174956 -0.09497854 C1465.96327428 -0.09576164 1496.68479872 -0.09737657 1527.40632319 -0.10139394 C1528.06942791 -0.10148064 1528.73253263 -0.10156734 1529.41573143 -0.10165666 C1540.74614303 -0.10314348 1552.07655462 -0.10470941 1563.40696621 -0.10628221 C1606.41575108 -0.11223788 1649.42453495 -0.11510176 1692.43332025 -0.11362399 C1698.36705666 -0.11342089 1704.30079308 -0.11325351 1710.2345295 -0.11310768 C1711.39778374 -0.1130778 1712.56103799 -0.11304792 1713.75954237 -0.11301713 C1732.2320242 -0.11263542 1750.70450392 -0.11563019 1769.17698517 -0.12000986 C1787.30958684 -0.12424035 1805.44218574 -0.12495084 1823.57478767 -0.12183181 C1834.22596544 -0.12010808 1844.87713446 -0.12116972 1855.52831122 -0.126217 C1862.58283001 -0.12929098 1869.63734248 -0.12880562 1876.69186107 -0.12530107 C1880.70329382 -0.1234117 1884.71470942 -0.12314819 1888.72614092 -0.12723524 C1892.35642656 -0.13090559 1895.98668068 -0.13008254 1899.616965 -0.12547626 C1901.5510587 -0.12423203 1903.48515359 -0.12794791 1905.41924386 -0.13180115 C1906.54816129 -0.12944826 1907.67707873 -0.12709536 1908.84020578 -0.12467116 C1909.82021054 -0.12473517 1910.80021529 -0.12479918 1911.80991716 -0.12486512 C1914 -0 1914 -0 1915 1 C1915.09901836 3.01491682 1915.1259899 5.0333746 1915.12649983 7.0507229 C1915.12802638 7.69384933 1915.12955293 8.33697577 1915.13112573 8.99959089 C1915.13506712 11.18573039 1915.13179318 13.37180239 1915.12863445 15.55794239 C1915.12997925 17.13541869 1915.13176207 18.71289466 1915.13394669 20.29037002 C1915.13870982 24.66566231 1915.13716441 29.04093399 1915.13466892 33.41622735 C1915.13304504 38.16091125 1915.13716895 42.90559056 1915.14057809 47.65027303 C1915.14574846 55.97939299 1915.14714647 64.30850714 1915.14612198 72.63762856 C1915.14460224 85.02308426 1915.14874725 97.40853348 1915.1539966 109.79398793 C1915.16368803 133.1974155 1915.16648151 156.60084089 1915.16705366 180.00427023 C1915.16751249 198.07200703 1915.16956708 216.13974296 1915.17275429 234.20747948 C1915.17365178 239.40061655 1915.17454159 244.59375362 1915.17542917 249.78689069 C1915.17565021 251.07777261 1915.17587126 252.36865453 1915.17609901 253.69865409 C1915.18225674 290.02908733 1915.1862051 326.35952006 1915.18575573 362.6899538 C1915.18573995 364.07467992 1915.18572422 365.45940603 1915.18570852 366.84413214 C1915.18563514 373.09636572 1915.18554696 379.3485993 1915.18545464 385.60083288 C1915.18541351 388.38898859 1915.18537337 391.1771443 1915.18533332 393.96530001 C1915.18531293 395.36082416 1915.18529191 396.75634832 1915.18527026 398.15187248 C1915.18458994 442.28476411 1915.19190776 486.41764772 1915.20581055 530.55053711 C1915.20931141 541.66976322 1915.21278081 552.78898935 1915.21607494 563.90821552 C1915.21637925 564.9351231 1915.21637925 564.9351231 1915.21668971 565.98277628 C1915.22290227 587.07449913 1915.22666981 608.16622133 1915.22793293 629.25794506 C1915.22797288 629.91990243 1915.22801283 630.5818598 1915.22805399 631.26387648 C1915.22894544 646.4455286 1915.22913704 661.62718068 1915.22884732 676.80883282 C1915.22877269 682.00291296 1915.22872399 687.19699309 1915.22869301 692.39107323 C1915.22868135 693.67007123 1915.2286697 694.94906923 1915.22865769 696.26682475 C1915.22862686 716.89061141 1915.23502532 737.51439133 1915.24362527 758.13817599 C1915.25208342 778.8496419 1915.25310619 799.56109789 1915.24651595 820.27256457 C1915.24280794 832.59153732 1915.24468976 844.91048003 1915.25445829 857.22944964 C1915.2604256 865.44600109 1915.25919933 873.66253062 1915.25198779 881.87908104 C1915.24807858 886.56871916 1915.24740942 891.25829883 1915.25544515 895.947933 C1915.26268117 900.20790509 1915.26083856 904.46776963 1915.25152128 908.7277368 C1915.24978924 910.26533235 1915.25146285 911.80293614 1915.25682249 913.34052332 C1915.26358403 915.41822495 1915.2581507 917.49554324 1915.24954766 919.57322961 C1915.24963588 920.72663857 1915.2497241 921.88004753 1915.249815 923.06840827 C1915.00636498 925.92530665 1914.48861998 927.58300145 1913 930 C1913.99 930.33 1914.98 930.66 1916 931 C1916 940.24 1916 949.48 1916 959 C1890.59 959 1865.18 959 1839 959 C1843.49230769 954.50769231 1843.49230769 954.50769231 1846.75 953.4375 C1847.43835937 953.19902344 1848.12671875 952.96054687 1848.8359375 952.71484375 C1849.55007813 952.47894531 1850.26421875 952.24304688 1851 952 C1856.83286785 950.24552839 1856.83286785 950.24552839 1861 946 C1862.99389648 945.02758789 1862.99389648 945.02758789 1865.43359375 944.16015625 C1872.1821138 941.6108231 1878.47972542 938.29477454 1884.87695312 934.97851562 C1890.49382829 932.11292387 1895.96423928 929.83482184 1902 928 C1902 927.34 1902 926.68 1902 926 C1279.62 926 657.24 926 16 926 C16.33 926.66 16.66 927.32 17 928 C17.99 928.33 18.98 928.66 20 929 C21.1875 931.5625 21.1875 931.5625 22 934 C20.41531323 933.54636829 18.83230076 933.08688548 17.25 932.625 C16.36828125 932.36976563 15.4865625 932.11453125 14.578125 931.8515625 C12.23919428 931.0790066 10.16557438 930.16374324 8 929 C8 928.34 8 927.68 8 927 C7.236875 926.87625 6.47375 926.7525 5.6875 926.625 C3 926 3 926 0 924 C-0.37401349 921.31990861 -0.37401349 921.31990861 -0.37259549 917.82688797 C-0.37642975 917.18268095 -0.38026401 916.53847393 -0.38421445 915.87474548 C-0.39348799 913.69076257 -0.38116433 911.50741628 -0.36914349 909.3234539 C-0.37136026 907.74530515 -0.37489372 906.16715778 -0.37963298 904.58901459 C-0.38889329 900.21648228 -0.37927108 895.84415719 -0.36679858 891.47164022 C-0.35654118 886.7283384 -0.36359969 881.98505869 -0.36853105 877.24175274 C-0.37476843 868.9167141 -0.36979353 860.59173959 -0.35761642 852.26670837 C-0.33955945 839.88757744 -0.33860452 827.50848721 -0.34124239 815.1293455 C-0.34519027 794.30872046 -0.33513648 773.48812392 -0.31719017 752.66750717 C-0.29945836 732.04302708 -0.28789623 711.41855885 -0.28463173 690.7940712 C-0.2843224 688.87280078 -0.2843224 688.87280078 -0.28400682 686.91271682 C-0.28299187 680.40833325 -0.2820877 673.90394966 -0.2812262 667.39956607 C-0.2794169 654.17138681 -0.27663145 640.94320776 -0.27341938 627.71502876 C-0.27325943 627.05313108 -0.27309948 626.39123339 -0.27293468 625.7092782 C-0.26506665 593.49742453 -0.24614255 561.28557862 -0.22631836 529.07373047 C-0.21944349 517.8929444 -0.21261745 506.7121583 -0.20599365 495.53137207 C-0.2055828 494.83795585 -0.20517196 494.14453963 -0.20474866 493.4301108 C-0.18572284 461.20594587 -0.17454172 428.98177962 -0.16538927 396.75761056 C-0.16479507 394.66606301 -0.1641975 392.57451546 -0.16359923 390.48296792 C-0.15963995 376.62238566 -0.15581599 362.76180337 -0.15208265 348.90122105 C-0.14447573 320.66389364 -0.1360096 292.42656651 -0.12702942 264.1892395 C-0.12661755 262.89084232 -0.12620568 261.59244513 -0.12578133 260.25470258 C-0.09816453 173.5031286 -0.05062722 86.75156322 0 0 Z M6 3 C6 306.27 6 609.54 6 922 C633.33 922 1260.66 922 1907 922 C1907 618.73 1907 315.46 1907 3 C1279.67 3 652.34 3 6 3 Z " fill="#48312A" transform="translate(4,1)"/>
<path d="M0 0 C633.6 0 1267.2 0 1920 0 C1920 307.56 1920 615.12 1920 932 C1918.68 931.67 1917.36 931.34 1916 931 C1916.66 929.68 1917.32 928.36 1918 927 C1918 621.75 1918 316.5 1918 2 C1286.38 1.67 654.76 1.34 4 1 C4.33 305.92 4.66 610.84 5 925 C8.465 926.485 8.465 926.485 12 928 C12 928.66 12 929.32 12 930 C12.59167969 930.19335938 13.18335938 930.38671875 13.79296875 930.5859375 C17.9146645 931.94414719 21.9950524 933.32050585 26 935 C25.29660434 932.49034386 25.29660434 932.49034386 24 930 C21.95894361 929.11306697 21.95894361 929.11306697 20 929 C20 928.34 20 927.68 20 927 C642.38 927 1264.76 927 1906 927 C1906 927.66 1906 928.32 1906 929 C1902.44239635 931.61588503 1899.35522853 932.49357808 1895 933 C1895.33 932.34 1895.66 931.68 1896 931 C1896.99 931 1897.98 931 1899 931 C1899 930.34 1899 929.68 1899 929 C1281.24 929 663.48 929 27 929 C30.60590001 934.96785624 30.60590001 934.96785624 36 937 C44.38899049 940.35498341 52.46124211 944.12963164 60.5 948.25 C62.59184621 949.32143342 64.68552229 950.38930382 66.78125 951.453125 C67.68939453 951.91879883 68.59753906 952.38447266 69.53320312 952.86425781 C71.91159647 954.05816418 71.91159647 954.05816418 74.26367188 954.53417969 C74.83666016 954.68790039 75.40964844 954.84162109 76 955 C76.33 955.66 76.66 956.32 77 957 C78.97888961 957.72693904 80.97954558 958.39816251 83 959 C83 959.33 83 959.66 83 960 C55.61 960 28.22 960 0 960 C0 643.2 0 326.4 0 0 Z " fill="#9C8A7E" transform="translate(0,0)"/>
<path d="M0 0 C627.33 0 1254.66 0 1901 0 C1901 303.27 1901 606.54 1901 919 C1273.67 919 646.34 919 0 919 C0 615.73 0 312.46 0 0 Z M2 2 C2 304.28 2 606.56 2 918 C627.68 918 1253.36 918 1898 918 C1898 615.72 1898 313.44 1898 2 C1272.32 2 646.64 2 2 2 Z " fill="#DFD0C0" transform="translate(10,4)"/>
<path d="M0 0 C631.62 0 1263.24 0 1914 0 C1913.67 0.66 1913.34 1.32 1913 2 C968.54 2.495 968.54 2.495 5 3 C5 2.34 5 1.68 5 1 C3.35 1 1.7 1 0 1 C0 0.67 0 0.34 0 0 Z " fill="#3C231E" transform="translate(4,1)"/>
<path d="M0 0 C622.38 0 1244.76 0 1886 0 C1886 0.66 1886 1.32 1886 2 C1882.44239635 4.61588503 1879.35522853 5.49357808 1875 6 C1875.33 5.34 1875.66 4.68 1876 4 C1876.99 4 1877.98 4 1879 4 C1879 3.34 1879 2.68 1879 2 C1261.24 2 643.48 2 7 2 C7.66 3.32 8.32 4.64 9 6 C5.9168649 4.80100302 2.93720508 3.52299523 0 2 C0 1.34 0 0.68 0 0 Z " fill="#BAA38D" transform="translate(20,927)"/>
<path d="M0 0 C0.66 0 1.32 0 2 0 C2.33 304.92 2.66 609.84 3 924 C6.465 925.485 6.465 925.485 10 927 C10 927.66 10 928.32 10 929 C10.59167969 929.19335938 11.18335938 929.38671875 11.79296875 929.5859375 C15.9146645 930.94414719 19.9950524 932.32050585 24 934 C23.34 932.68 22.68 931.36 22 930 C24.91517292 931.07401108 26.77810176 931.77810176 29 934 C30.64768025 934.7123005 32.31809921 935.37275846 34 936 C42.38899049 939.35498341 50.46124211 943.12963164 58.5 947.25 C60.59184621 948.32143342 62.68552229 949.38930382 64.78125 950.453125 C65.68939453 950.91879883 66.59753906 951.38447266 67.53320312 951.86425781 C69.91159647 953.05816418 69.91159647 953.05816418 72.26367188 953.53417969 C72.83666016 953.68790039 73.40964844 953.84162109 74 954 C74.33 954.66 74.66 955.32 75 956 C76.97888961 956.72693904 78.97954558 957.39816251 81 958 C81 958.33 81 958.66 81 959 C53.61 959 26.22 959 -2 959 C-2 947.45 -2 935.9 -2 924 C-1.34 924 -0.68 924 0 924 C0 619.08 0 314.16 0 0 Z " fill="#69534B" transform="translate(2,1)"/>
<path d="M0 0 C0.99 0 1.98 0 3 0 C3 307.56 3 615.12 3 932 C1.68 931.67 0.36 931.34 -1 931 C-0.67514692 930.47252841 -0.35029384 929.94505681 -0.01559673 929.40160123 C1.28477131 926.32659576 1.24980316 923.91412587 1.24954766 920.57438028 C1.25356827 919.60356654 1.25356827 919.60356654 1.25767009 918.61314041 C1.26424437 916.43110612 1.25649643 914.24935515 1.24888897 912.0673275 C1.2506709 910.48574869 1.25332999 908.90417067 1.25678983 907.32259464 C1.26378465 902.94988884 1.25822783 898.57727306 1.25073375 894.20457135 C1.24478343 889.45753078 1.25038739 884.71050203 1.25455457 879.96346152 C1.26025292 871.6349111 1.25847467 863.30638789 1.2518692 854.97783852 C1.24207392 842.59339328 1.24367816 830.20896808 1.2476195 817.82452054 C1.25390344 796.99367005 1.25071304 776.16283087 1.24202538 755.33198166 C1.2334215 734.69799062 1.22850497 714.06400466 1.22869301 693.43001175 C1.22870065 692.14820619 1.2287083 690.86640062 1.22871618 689.54575247 C1.22875708 684.34297395 1.22882269 679.14019543 1.22892199 673.93741692 C1.22919202 659.39281072 1.22881082 644.84820458 1.22793293 630.3035984 C1.22789326 629.64122482 1.22785359 628.97885124 1.22781271 628.29640573 C1.2265044 607.18427889 1.22233182 586.07215364 1.21607494 564.96002769 C1.215872 564.27507724 1.21566907 563.59012678 1.21545998 562.88442024 C1.21215106 551.76055871 1.20865584 540.63669723 1.20515126 529.51283575 C1.19126057 485.38648567 1.1846182 441.26014133 1.18530273 397.13378906 C1.18532312 395.73893099 1.18534334 394.34407293 1.18536337 392.94921486 C1.18540356 390.1628286 1.18544433 387.37644235 1.18548548 384.59005609 C1.1855769 378.34274353 1.18566125 372.09543096 1.18573207 365.84811839 C1.18574784 364.46450736 1.18576428 363.08089632 1.1857814 361.69728529 C1.18622641 324.75851609 1.18175477 287.81974783 1.17542917 250.88097918 C1.17520889 249.59224694 1.17498862 248.30351469 1.17476168 246.97572996 C1.1738734 241.7929961 1.17298502 236.61026225 1.17207072 231.4275284 C1.16890629 213.36706978 1.16740088 195.30661171 1.16695923 177.24615283 C1.16636314 153.97806408 1.16238885 130.70997989 1.15252777 107.44189309 C1.14739835 95.12471539 1.14500819 82.80754437 1.14652396 70.49036566 C1.14725514 62.27766851 1.14437907 54.06497789 1.13848015 45.85228283 C1.13521177 41.1632722 1.13356377 36.47427563 1.13624074 31.7852643 C1.13863595 27.52825199 1.13651217 23.27126795 1.13062263 19.01425926 C1.12931145 17.47549007 1.12971181 15.93671834 1.13193924 14.3979502 C1.13470254 12.32357236 1.13141387 10.24929308 1.12649983 8.17492139 C1.12620833 7.02187169 1.12591683 5.86882199 1.1256165 4.6808314 C1.18259307 2.02780369 1.18259307 2.02780369 0 0 Z " fill="#A79588" transform="translate(1917,0)"/>
<path d="M0 0 C0.33 0 0.66 0 1 0 C1.03426408 88.1301861 1.06606507 176.26037301 1.08468628 264.39056396 C1.08496239 265.69401896 1.08523851 266.99747396 1.08552299 268.3404276 C1.09136245 295.97530547 1.09680154 323.61018341 1.10175936 351.24506145 C1.10425019 365.12651817 1.10682014 379.00797487 1.10946488 392.88943156 C1.10986338 394.9834259 1.11025962 397.07742023 1.11065576 399.17141457 C1.11677733 431.42443782 1.12459796 463.67745957 1.1373291 495.93048096 C1.1376029 496.62420138 1.1378767 497.3179218 1.13815879 498.03266406 C1.14258366 509.21783105 1.14715083 520.40299798 1.15173688 531.58816491 C1.1649404 563.79620675 1.17709549 596.00424744 1.18227959 628.21229172 C1.18238666 628.87431621 1.18249373 629.53634069 1.18260404 630.21842653 C1.18483064 644.09736194 1.18660569 657.97629737 1.18782998 671.8552329 C1.18840633 678.35420018 1.1890576 684.85316744 1.18975449 691.3521347 C1.18988933 692.63127921 1.19002418 693.91042371 1.19016311 695.22833017 C1.19253053 715.8549624 1.20181735 736.48158605 1.21366407 757.10821478 C1.22541484 777.82316209 1.22994192 798.53810085 1.22700275 819.25305137 C1.2254766 831.57424199 1.2295815 843.89540142 1.24159509 856.21658643 C1.24906364 864.43464963 1.24934945 872.65269229 1.24366363 880.87075687 C1.24062792 885.56127779 1.24083935 890.25173951 1.24976636 894.94225422 C1.25781437 899.20303716 1.256784 903.4637143 1.24827995 907.72449548 C1.2468427 909.26238814 1.24881272 910.8002884 1.25447049 912.33817133 C1.26163543 914.41627168 1.25660132 916.49399089 1.24839699 918.57207894 C1.24870895 919.72571164 1.24902092 920.87934434 1.24934233 922.0679356 C1.00634771 924.92535609 0.48898467 926.5826947 -1 929 C-2.32 928.34 -3.64 927.68 -5 927 C-3.68 926.67 -2.36 926.34 -1 926 C-0.67 620.42 -0.34 314.84 0 0 Z " fill="#553E36" transform="translate(1918,2)"/>
<path d="M0 0 C1.29349365 0.00523682 2.5869873 0.01047363 3.91967773 0.01586914 C4.9496714 0.01799156 4.9496714 0.01799156 6.00047302 0.02015686 C8.20144949 0.0257706 10.40232557 0.03832532 12.60327148 0.05102539 C14.09220231 0.05603863 15.58113473 0.06060184 17.07006836 0.06469727 C20.72703954 0.07489518 24.38379265 0.0944676 28.04077148 0.11352539 C28.04077148 6.38352539 28.04077148 12.65352539 28.04077148 19.11352539 C5.93077148 19.11352539 -16.17922852 19.11352539 -38.95922852 19.11352539 C-33.58236262 15.52894813 -28.0096224 12.40286362 -21.95922852 10.11352539 C-19.95469351 9.12264729 -17.95537504 8.12119551 -15.95922852 7.11352539 C-14.9112207 6.59532227 -13.86321289 6.07711914 -12.78344727 5.54321289 C-11.74833008 5.03016602 -10.71321289 4.51711914 -9.64672852 3.98852539 C-8.5987207 3.47032227 -7.55071289 2.95211914 -6.47094727 2.41821289 C-1.96030335 0.07520345 -1.96030335 0.07520345 0 0 Z " fill="#FAEDDB" transform="translate(1891.959228515625,940.886474609375)"/>
<path d="M0 0 C2.80410246 0.12591479 4.36518825 0.58203907 6.82617188 1.87304688 C7.52871094 2.23398437 8.23125 2.59492187 8.95507812 2.96679688 C10.02435547 3.53914062 10.02435547 3.53914062 11.11523438 4.12304688 C11.85128906 4.50460937 12.58734375 4.88617187 13.34570312 5.27929688 C15.14955778 6.21636423 16.94570696 7.16823894 18.74023438 8.12304688 C18.74023438 8.78304687 18.74023438 9.44304688 18.74023438 10.12304688 C20.31804688 10.49429688 20.31804688 10.49429688 21.92773438 10.87304688 C25.9844268 11.82756274 27.0317727 13.15627754 30.74023438 16.12304688 C7.97023438 16.12304688 -14.79976562 16.12304688 -38.25976562 16.12304688 C-38.25976562 11.17304687 -38.25976562 6.22304688 -38.25976562 1.12304688 C-33.38511243 0.97982517 -28.51044954 0.83713845 -23.63574219 0.69580078 C-21.97915755 0.6476104 -20.32258185 0.59911187 -18.66601562 0.55029297 C-16.27801792 0.47997332 -13.88998975 0.41078036 -11.50195312 0.34179688 C-10.76733856 0.3199231 -10.032724 0.29804932 -9.27584839 0.2755127 C-4.63750704 0.15189994 -4.63750704 0.15189994 0 0 Z " fill="#FCEFDD" transform="translate(38.259765625,943.876953125)"/>
<path d="M0 0 C0 0.66 0 1.32 0 2 C-0.66 2.33 -1.32 2.66 -2 3 C0.31 3 2.62 3 5 3 C4 6 4 6 2 7 C8.27 7.33 14.54 7.66 21 8 C21 8.33 21 8.66 21 9 C20.1028125 9.00410889 19.205625 9.00821777 18.28125 9.01245117 C14.91832687 9.03959253 11.55717779 9.08884123 8.19482422 9.15258789 C6.74604347 9.17563301 5.2970984 9.19013169 3.84814453 9.19555664 C-4.62057214 9.23349369 -11.17172206 9.44293173 -18 15 C-19.64991582 15.70710678 -21.31562256 16.37943989 -23 17 C-25.00634699 17.98720402 -27.00522048 18.98962647 -29 20 C-31.39525063 21.20950914 -33.79107061 22.41783386 -36.1875 23.625 C-36.80302734 23.93695312 -37.41855469 24.24890625 -38.05273438 24.5703125 C-42.66028821 26.88656925 -46.03184179 28.1294566 -51.1875 28.0625 C-52.53908203 28.04896484 -52.53908203 28.04896484 -53.91796875 28.03515625 C-54.60503906 28.02355469 -55.29210938 28.01195312 -56 28 C-52.56962704 23.854966 -48.93919397 22.6315388 -44 21 C-38.16713215 19.24552839 -38.16713215 19.24552839 -34 15 C-32.02148438 14.03417969 -32.02148438 14.03417969 -29.59375 13.171875 C-23.67389199 10.93595741 -18.12433048 8.13796484 -12.5 5.25 C-10.55394674 4.25156797 -8.60611846 3.25658554 -6.65625 2.265625 C-5.38491211 1.61255371 -5.38491211 1.61255371 -4.08789062 0.94628906 C-2 0 -2 0 0 0 Z " fill="#3F2721" transform="translate(1899,932)"/>
<path d="M0 0 C7.75 3.75 7.75 3.75 10 6 C11.66253323 6.67690876 13.32986582 7.34206835 15 8 C16.79071258 8.98554546 18.56207352 10.00705766 20.3125 11.0625 C21.19550781 11.58972656 22.07851563 12.11695313 22.98828125 12.66015625 C23.98408203 13.32337891 23.98408203 13.32337891 25 14 C25 14.33 25 14.66 25 15 C16.75 15 8.5 15 0 15 C0 10.05 0 5.1 0 0 Z " fill="#341B16" transform="translate(0,925)"/>
<path d="M0 0 C4.23322844 0.62045463 7.52290295 2.10523559 11.3125 4.0625 C12.91544922 4.88427734 12.91544922 4.88427734 14.55078125 5.72265625 C15.35902344 6.14417969 16.16726562 6.56570313 17 7 C13.19717566 9.50916948 9.33837961 9.25607884 4.953125 9.1953125 C3.79632233 9.19106766 3.79632233 9.19106766 2.6161499 9.18673706 C0.16060668 9.17557013 -2.2945676 9.15047229 -4.75 9.125 C-6.41796347 9.11496568 -8.08593268 9.10584061 -9.75390625 9.09765625 C-13.83607897 9.07564225 -17.917977 9.04113667 -22 9 C-22 7.35 -22 5.7 -22 4 C-14.08 3.67 -6.16 3.34 2 3 C1.34 2.01 0.68 1.02 0 0 Z " fill="#574038" transform="translate(22,936)"/>
<path d="M0 0 C0 0.66 0 1.32 0 2 C-0.99 2.495 -0.99 2.495 -2 3 C0.31 3 2.62 3 5 3 C4 6 4 6 2 7 C8.27 7.33 14.54 7.66 21 8 C21 8.33 21 8.66 21 9 C19.6385083 9.01401855 19.6385083 9.01401855 18.24951172 9.02832031 C14.86073186 9.07250484 11.47318774 9.13419111 8.08496094 9.20751953 C6.62251295 9.2356311 5.1599158 9.25689431 3.69726562 9.27099609 C1.58646831 9.29256419 -0.52255429 9.33927656 -2.6328125 9.390625 C-3.90012207 9.41157227 -5.16743164 9.43251953 -6.47314453 9.45410156 C-10.73872184 10.11434183 -12.62824789 11.39517401 -16 14 C-16.66 13.67 -17.32 13.34 -18 13 C-17.34 12.01 -16.68 11.02 -16 10 C-16.5775 10.350625 -17.155 10.70125 -17.75 11.0625 C-20.39786506 12.16577711 -21.33185326 11.80156509 -24 11 C-20.3782427 9.16020779 -16.75208102 7.32927134 -13.125 5.5 C-12.09246094 4.97535156 -11.05992188 4.45070313 -9.99609375 3.91015625 C-8.51689453 3.16572266 -8.51689453 3.16572266 -7.0078125 2.40625 C-6.09660645 1.94541016 -5.18540039 1.48457031 -4.24658203 1.00976562 C-2 0 -2 0 0 0 Z " fill="#553E36" transform="translate(1899,932)"/>
<path d="M0 0 C3.49177639 0.12507094 5.55076939 1.34188521 8.546875 3.09570312 C9.51367188 3.65257812 10.48046875 4.20945312 11.4765625 4.78320312 C12.20101562 5.21632813 12.92546875 5.64945313 13.671875 6.09570312 C10.37202269 7.74562928 7.02904993 6.17886711 3.671875 5.09570312 C3.14867676 4.76046631 2.62547852 4.42522949 2.08642578 4.07983398 C-1.53265571 2.60475638 -5.17796429 2.73655351 -9.03125 2.68164062 C-9.86903992 2.66227448 -10.70682983 2.64290833 -11.57000732 2.62295532 C-14.23927713 2.56329588 -16.90859039 2.51682899 -19.578125 2.47070312 C-21.39064354 2.43251077 -23.20314418 2.3934583 -25.015625 2.35351562 C-29.45297915 2.2576056 -33.89041825 2.17352433 -38.328125 2.09570312 C-38.328125 1.76570312 -38.328125 1.43570313 -38.328125 1.09570312 C-33.45348245 0.9521741 -28.57880814 0.80979468 -23.70410156 0.66845703 C-22.04751693 0.62026665 -20.39094123 0.57176812 -18.734375 0.52294922 C-16.3463773 0.45262957 -13.95834913 0.38343661 -11.5703125 0.31445312 C-10.83569794 0.29257935 -10.10108337 0.27070557 -9.34420776 0.24816895 C-6.22960357 0.15912266 -3.1146091 0.08956329 0 0 Z " fill="#B8A699" transform="translate(38.328125,943.904296875)"/>
<path d="M0 0 C1.4540625 0.0309375 1.4540625 0.0309375 2.9375 0.0625 C1.44202468 3.13653261 0.18557656 4.88703122 -2.625 6.875 C-7.18213242 8.44928211 -11.29007616 8.31715503 -16.0625 8.0625 C-13.05017965 4.42261291 -10.12921628 3.12361728 -5.76953125 1.67578125 C-1.17165105 0.02391125 -1.17165105 0.02391125 0 0 Z " fill="#4F372F" transform="translate(1859.0625,951.9375)"/>
<path d="M0 0 C4.31392226 0.4793247 6.16569547 1.7457985 9 5 C6.10352978 6.44823511 3.68835083 6.00519634 0.4609375 5.87890625 C-1.49199219 5.80639648 -1.49199219 5.80639648 -3.484375 5.73242188 C-4.86458804 5.67589606 -6.24479632 5.61925392 -7.625 5.5625 C-9.01300219 5.50927707 -10.40102297 5.45653668 -11.7890625 5.40429688 C-15.19292141 5.27428837 -18.59651117 5.13931117 -22 5 C-22 4.67 -22 4.34 -22 4 C-14.08 3.67 -6.16 3.34 2 3 C1.34 2.01 0.68 1.02 0 0 Z " fill="#776259" transform="translate(22,936)"/>
<path d="M0 0 C1.32 0 2.64 0 4 0 C4 0.66 4 1.32 4 2 C10.27 2.33 16.54 2.66 23 3 C23 3.33 23 3.66 23 4 C14.09 4 5.18 4 -4 4 C-2.68 2.68 -1.36 1.36 0 0 Z " fill="#A49286" transform="translate(1897,937)"/>
<path d="M0 0 C0 0.66 0 1.32 0 2 C0.66 2.66 1.32 3.32 2 4 C-0.49505962 6.49505962 -1.67328888 6.35948376 -5.125 6.625 C-6.03507812 6.69976563 -6.94515625 6.77453125 -7.8828125 6.8515625 C-8.93082031 6.92503906 -8.93082031 6.92503906 -10 7 C-9.67 6.34 -9.34 5.68 -9 5 C-8.34 5 -7.68 5 -7 5 C-7 4.34 -7 3.68 -7 3 C-2.61538462 0 -2.61538462 0 0 0 Z " fill="#462E27" transform="translate(1906,929)"/>
<path d="M0 0 C-0.66 1.32 -1.32 2.64 -2 4 C-5.3 4 -8.6 4 -12 4 C-8.41084094 -0.78554541 -5.58334594 -0.37222306 0 0 Z " fill="#574037" transform="translate(1855,956)"/>
<path d="M0 0 C0 0.66 0 1.32 0 2 C-0.99 2.66 -1.98 3.32 -3 4 C-4.05104383 5.63495707 -5.05988318 7.29883624 -6 9 C-6.66 8.67 -7.32 8.34 -8 8 C-7.34 7.01 -6.68 6.02 -6 5 C-6.5775 5.350625 -7.155 5.70125 -7.75 6.0625 C-10.39786506 7.16577711 -11.33185326 6.80156509 -14 6 C-12.04414675 4.99515796 -10.08523763 3.99626195 -8.125 3 C-6.48917969 2.1646875 -6.48917969 2.1646875 -4.8203125 1.3125 C-2 0 -2 0 0 0 Z " fill="#5B443B" transform="translate(1889,937)"/>
<path d="M0 0 C4.22857145 1.30884354 8.20160565 2.70329644 12 5 C12.875 7.1875 12.875 7.1875 13 9 C10.74378837 7.91367588 8.62646456 6.76654035 6.5 5.4375 C4.2578444 4.14826053 2.51921187 3.46652072 0 3 C0 2.01 0 1.02 0 0 Z " fill="#58413A" transform="translate(10,929)"/>
<path d="M0 0 C6.15222436 0.43173504 9.81917949 1.65405342 15 5 C11.66979087 6.66510457 8.36890652 5.11438017 5 4 C2 2.4375 2 2.4375 0 1 C0 0.67 0 0.34 0 0 Z " fill="#CABAAB" transform="translate(37,945)"/>
<path d="M0 0 C0.86625 0.3403125 0.86625 0.3403125 1.75 0.6875 C0.75 3.6875 0.75 3.6875 -1.6875 5.4375 C-2.9559375 6.05625 -2.9559375 6.05625 -4.25 6.6875 C-4.91 6.3575 -5.57 6.0275 -6.25 5.6875 C-6.25 4.6975 -6.25 3.7075 -6.25 2.6875 C-4.08146295 0.51896295 -3.10906228 -0.43181421 0 0 Z " fill="#432A24" transform="translate(1866.25,949.3125)"/>
<path d="M0 0 C0.99 0.33 1.98 0.66 3 1 C3.33 1.99 3.66 2.98 4 4 C1.36 4.99 -1.28 5.98 -4 7 C-3.67 5.68 -3.34 4.36 -3 3 C-2.01 2.67 -1.02 2.34 0 2 C0 1.34 0 0.68 0 0 Z " fill="#432A24" transform="translate(1889,937)"/>
<path d="M0 0 C0.66 0.33 1.32 0.66 2 1 C1 3 1 3 -1 5 C-3.75372909 5.36933645 -6.20365661 5.18336678 -9 5 C-6.06626269 3.04417512 -3.21783702 1.43775696 0 0 Z " fill="#C3B3A5" transform="translate(1862,955)"/>
<path d="M0 0 C0 4 0 4 -2 7 C-2.66 7 -3.32 7 -4 7 C-4 6.01 -4 5.02 -4 4 C-4.99 3.34 -5.98 2.68 -7 2 C-2.25 0 -2.25 0 0 0 Z " fill="#614940" transform="translate(1871,946)"/>
<path d="M0 0 C0 2 0 4 0 6 C-1.98 6 -3.96 6 -6 6 C-3.84615385 0 -3.84615385 0 0 0 Z " fill="#4D352E" transform="translate(1875,944)"/>
<path d="M0 0 C3.9492568 0.55105909 7.34920174 1.38935371 11 3 C10.01 3.495 10.01 3.495 9 4 C8.67 4.66 8.34 5.32 8 6 C6.66402348 5.19185349 5.331275 4.37836819 4 3.5625 C3.2575 3.11003906 2.515 2.65757812 1.75 2.19140625 C1.1725 1.79824219 0.595 1.40507813 0 1 C0 0.67 0 0.34 0 0 Z " fill="#452D27" transform="translate(1,925)"/>
<path d="M0 0 C1.32 0 2.64 0 4 0 C4 0.66 4 1.32 4 2 C1 4 1 4 -1.1875 3.625 C-1.785625 3.41875 -2.38375 3.2125 -3 3 C-2.01 2.67 -1.02 2.34 0 2 C0 1.34 0 0.68 0 0 Z " fill="#381F1A" transform="translate(1899,932)"/>
</svg>
