<?xml version="1.0" encoding="UTF-8"?>
<svg version="1.1" xmlns="http://www.w3.org/2000/svg" width="640" height="1280">
<path d="M0 0 C1.28221862 -0.00712622 1.28221862 -0.00712622 2.59034064 -0.0143964 C4.00232029 -0.00694413 4.00232029 -0.00694413 5.44282478 0.00065869 C6.44520434 -0.00194859 7.4475839 -0.00455588 8.4803386 -0.00724217 C11.87218787 -0.0135876 15.26385518 -0.00555097 18.65569919 0.0023095 C21.09874549 0.00072271 23.54179135 -0.00173958 25.98483598 -0.00500691 C31.31348699 -0.01009935 36.64208288 -0.00892856 41.97072834 -0.00232154 C49.89437831 0.00747606 57.817997 0.0058689 65.74165057 0.00192816 C79.0697171 -0.00435502 92.39776596 -0.00116624 105.7258305 0.00752228 C118.92798441 0.01612702 132.1301304 0.02104267 145.33228725 0.02085465 C146.15250808 0.02084701 146.9727289 0.02083936 147.8178049 0.02083148 C151.14706128 0.02079058 154.47631766 0.02072497 157.80557404 0.02062567 C189.0564615 0.01971897 220.30733686 0.02967404 251.55822012 0.04505534 C279.34481952 0.05868113 307.13141032 0.0649166 334.91801304 0.06424493 C336.70223769 0.06420451 338.48646234 0.06416415 340.27068699 0.06412385 C341.1527587 0.0641035 342.0348304 0.06408315 342.94363155 0.06406218 C347.38352529 0.06396139 351.82341902 0.0638708 356.26331276 0.06379193 C357.13916664 0.06377522 358.01502052 0.0637585 358.91741542 0.06374128 C382.1116473 0.0633764 405.3058781 0.06791161 428.50010908 0.07411849 C429.32479184 0.07433877 430.14947461 0.07455904 430.99914776 0.07478599 C434.31564692 0.07567425 437.63214609 0.07656264 440.94864524 0.07747694 C452.50397309 0.08064091 464.05930009 0.08214672 475.61462835 0.08258843 C490.5023682 0.08318462 505.39010095 0.08716095 520.27783776 0.09701989 C528.15810682 0.1021478 536.03836543 0.10453997 543.91863608 0.10302371 C549.788166 0.10220667 555.65768428 0.10658517 561.52721094 0.11307421 C563.91273931 0.11489767 566.29826968 0.11500809 568.68379814 0.11330692 C571.90608416 0.11126212 575.12830508 0.11526966 578.3505854 0.12091321 C579.29424633 0.11885789 580.23790726 0.11680257 581.21016398 0.11468497 C582.06247287 0.11744471 582.91478177 0.12020446 583.79291821 0.12304783 C584.53065926 0.12333933 585.26840032 0.12363083 586.02849716 0.12393116 C587.83378452 0.24954766 587.83378452 0.24954766 589.83378452 1.24954766 C589.95785854 38.31203621 590.07807963 75.37453702 590.19535679 112.43704766 C590.19765208 113.16231151 590.19994737 113.88757536 590.20231222 114.63481691 C590.448167 192.35283487 590.66909628 270.07087634 590.83962864 347.78909844 C590.84342327 349.51557568 590.84721793 351.24205291 590.8510126 352.96853015 C590.93058915 389.20834186 591.00666062 425.44816025 591.07868346 461.68798775 C591.11486707 479.89265701 591.15172415 498.09732486 591.18921804 516.30199147 C591.19486991 519.04808381 591.20050256 521.79417619 591.2061344 524.54026857 C591.29301866 566.82247155 591.39433986 609.10457931 591.53751987 651.38663262 C591.54059771 652.29562211 591.54367555 653.20461159 591.54684666 654.14114621 C591.59655781 668.79659704 591.64748143 683.45204365 591.698566 698.10748974 C591.84570041 740.32360059 591.9838579 782.53965468 592.06270355 824.75595635 C592.06432958 825.62424324 592.06595561 826.49253014 592.06763091 827.38712875 C592.10316667 846.44890986 592.13409226 865.51069557 592.16065375 884.57249121 C592.17142269 892.24251341 592.18285518 899.91253459 592.19451565 907.58255547 C592.19577582 908.42200172 592.19703599 909.26144796 592.19833435 910.12633197 C592.23925618 937.16597439 592.33417441 964.20509594 592.45746464 991.24447829 C592.58143025 1018.4862585 592.65233704 1045.72762036 592.64969061 1072.96969881 C592.64933802 1076.73595677 592.64959263 1080.50221446 592.65021366 1084.26847237 C592.65036332 1085.37589357 592.65036332 1085.37589357 592.65051601 1086.5056869 C592.65366686 1098.18693414 592.7140137 1109.86715533 592.79834978 1121.54806905 C592.88014344 1133.04022059 592.89966925 1144.53071508 592.8577449 1156.02317284 C592.83709313 1162.16944157 592.84337247 1168.31242351 592.9248438 1174.45825928 C592.99850431 1180.05476587 592.99322699 1185.64553973 592.92602471 1191.24207695 C592.91556526 1193.2494292 592.9334091 1195.25718898 592.98364543 1197.26393978 C593.18623965 1205.88824389 593.15809719 1213.110755 587.19173311 1219.81476778 C583.68377036 1223.29880314 579.93134264 1226.39882709 576.03861145 1229.44028611 C573.03832145 1231.90229764 570.35837259 1234.62313542 567.66256522 1237.41059398 C565.79344599 1239.29011058 563.84667984 1241.02591536 561.83378452 1242.74954766 C558.32797355 1245.76235396 555.09095472 1248.9725795 551.84940952 1252.26517266 C549.23462824 1254.83941469 546.4863719 1257.23122948 543.69315952 1259.60892266 C541.75958714 1261.21183091 541.75958714 1261.21183091 540.22849828 1263.32010269 C536.86686261 1266.02860637 533.79268553 1265.80645075 529.65898937 1265.76129216 C528.40621033 1265.77136099 528.40621033 1265.77136099 527.12812263 1265.78163323 C524.31079834 1265.79933235 521.49430408 1265.78837478 518.67695469 1265.77766961 C516.64424573 1265.78442256 514.61154192 1265.79291123 512.57884675 1265.80299282 C506.97842029 1265.82559155 501.37824028 1265.82304397 495.77778238 1265.81642348 C489.74356528 1265.81355745 483.70941826 1265.83358063 477.67523044 1265.8505761 C465.84788832 1265.87998257 454.02062899 1265.88725599 442.19326206 1265.8860006 C432.58288967 1265.8850878 422.97254365 1265.89095618 413.36217731 1265.90162629 C411.98240076 1265.90312455 410.6026242 1265.90461858 409.22284763 1265.90610841 C408.5379519 1265.90684824 407.85305616 1265.90758806 407.147406 1265.90835031 C406.46126989 1265.90909072 405.77513377 1265.90983114 405.06820565 1265.91059399 C404.03730304 1265.91171155 404.03730304 1265.91171155 402.98557411 1265.91285168 C383.64987592 1265.93359494 364.31418731 1265.94581596 344.9784779 1265.94075841 C343.8846258 1265.94047711 343.8846258 1265.94047711 342.76867567 1265.94019012 C339.07246794 1265.9392181 335.37626024 1265.93817425 331.68005253 1265.93710741 C330.57889847 1265.93679094 330.57889847 1265.93679094 329.45549886 1265.93646808 C327.97096401 1265.93604055 326.48642916 1265.93560842 325.00189431 1265.93517171 C301.90085651 1265.92858839 278.80001023 1265.95153534 255.6990189 1265.99735039 C229.7556168 1266.04876551 203.81233737 1266.07672881 177.86888105 1266.07084846 C175.10359513 1266.07030384 172.3383092 1266.06984489 169.57302326 1266.06944245 C168.89212061 1266.06932841 168.21121796 1266.06921437 167.5096819 1266.06909687 C157.22222783 1266.06787219 146.93491003 1266.08517725 136.64749378 1266.11191911 C124.94994127 1266.14231799 113.25261897 1266.14786006 101.55503292 1266.12211009 C95.58357297 1266.10965255 89.61267639 1266.10859832 83.64126247 1266.13781899 C78.17830627 1266.16426267 72.71637423 1266.15860489 67.25345419 1266.12698904 C65.27366626 1266.12123612 63.29380182 1266.12739488 61.31409718 1266.14644506 C58.62823569 1266.17055117 55.94598827 1266.15177903 53.26026195 1266.12205571 C52.09920671 1266.14792427 52.09920671 1266.14792427 50.9146958 1266.17431542 C47.76829316 1266.10100362 45.45828281 1265.79302056 43.04723905 1263.69479714 C41.53807096 1261.93708283 40.18335539 1260.13061851 38.83378452 1258.24954766 C37.68026569 1257.17037204 36.49751723 1256.12032828 35.27128452 1255.12454766 C31.41888754 1251.85629533 27.88018879 1248.34109998 24.33378452 1244.74954766 C20.30622542 1240.67558943 16.23781908 1236.76779729 11.86503452 1233.06204766 C8.25969867 1229.84497875 4.92025514 1226.35270968 1.54472202 1222.89798516 C-1.09659145 1220.16575874 -1.09659145 1220.16575874 -4.28885889 1218.10880048 C-7.05818291 1215.79652609 -7.16112268 1215.27546154 -7.91566047 1211.43612136 C-7.94604792 1209.90873814 -7.94339004 1208.38048403 -7.91485846 1206.85306501 C-7.92289967 1206.0045827 -7.93094088 1205.15610039 -7.93922576 1204.28190649 C-7.95896034 1201.41928364 -7.93570418 1198.55860206 -7.91288239 1195.6960246 C-7.91822791 1193.62211006 -7.926205 1191.54820093 -7.93658498 1189.47430548 C-7.9575741 1183.73910882 -7.94089694 1178.00452973 -7.91841672 1172.26936116 C-7.90056827 1166.043795 -7.91737689 1159.81831 -7.92987919 1153.59274423 C-7.94697558 1142.66977357 -7.94183722 1131.74702075 -7.92182308 1120.82406205 C-7.9004518 1109.10122946 -7.89210407 1097.37849588 -7.89974171 1085.65564507 C-7.9002153 1084.91584433 -7.9006889 1084.17604359 -7.90117684 1083.41382465 C-7.90364879 1079.64172223 -7.90632741 1075.86961999 -7.90907397 1072.09751776 C-7.92849967 1044.7781089 -7.91842028 1017.45877344 -7.89229161 990.13937348 C-7.86645633 963.07832981 -7.85169595 936.01732078 -7.8522945 908.9562642 C-7.85231827 907.25827966 -7.85234144 905.56029511 -7.85236401 903.86231057 C-7.85247613 897.03922255 -7.85267539 890.21613452 -7.85298145 883.3930465 C-7.8538144 864.31878356 -7.85264794 845.244521 -7.85001427 826.17025822 C-7.84989525 825.30159895 -7.84977624 824.43293968 -7.84965362 823.5379574 C-7.84572864 795.85057675 -7.83321078 768.16320706 -7.81444031 740.47583264 C-7.81383149 739.57755049 -7.81322268 738.67926833 -7.81259541 737.7537655 C-7.80266865 723.16527549 -7.792183 708.57678588 -7.78166926 693.98829628 C-7.73999643 636.11728274 -7.7200701 578.24630864 -7.72212368 520.37528008 C-7.72218485 518.54592042 -7.72224549 516.71656076 -7.7223056 514.8872011 C-7.72242614 511.2328506 -7.72254846 507.5785001 -7.72267193 503.9241496 C-7.72294617 495.73081233 -7.72319923 487.53747505 -7.72341169 479.34413777 C-7.72345899 477.52953997 -7.72350832 475.71494218 -7.72355967 473.90034438 C-7.72489465 425.45734232 -7.71150004 377.01434564 -7.69250298 328.57134759 C-7.69217246 327.72596104 -7.69184195 326.88057448 -7.69150142 326.00957015 C-7.68547251 310.59208136 -7.68547251 310.59208136 -7.68242764 303.0598863 C-7.67493485 284.44914637 -7.66911627 265.83840829 -7.66798669 247.2276668 C-7.6679341 246.38811309 -7.66788151 245.54855938 -7.66782733 244.68356465 C-7.66761971 241.29975796 -7.66742395 237.91595128 -7.66723488 234.5321446 C-7.66547892 203.17309033 -7.6542249 171.81406837 -7.6237988 140.45502768 C-7.62092588 137.45310084 -7.6180959 134.45117397 -7.61529881 131.44924706 C-7.61460721 130.71249397 -7.61391561 129.97574088 -7.61320305 129.21666194 C-7.60248426 117.52093014 -7.60180314 105.82522007 -7.6052063 94.12948476 C-7.60832832 82.64679007 -7.60052666 71.16415831 -7.58165592 59.68147581 C-7.57184822 53.53166086 -7.56690955 47.3819425 -7.57493771 41.23212276 C-7.58211999 35.64957975 -7.57576003 30.06723082 -7.55808337 24.48471268 C-7.55414769 22.46613315 -7.55535464 20.44753619 -7.56203319 18.42896387 C-7.570315 15.70906335 -7.56046843 12.98984089 -7.54571497 10.26998281 C-7.5525328 9.47591702 -7.55935062 8.68185122 -7.56637504 7.86372282 C-7.54306499 5.68754246 -7.54306499 5.68754246 -7.16621548 2.24954766 C-4.08599947 0.19607032 -3.4723862 -0.0004152 0 0 Z " fill="#766F6E" transform="translate(29.166215479373932,8.7504523396492)"/>
<path d="M0 0 C1.28221862 -0.00712622 1.28221862 -0.00712622 2.59034064 -0.0143964 C4.00232029 -0.00694413 4.00232029 -0.00694413 5.44282478 0.00065869 C6.44520434 -0.00194859 7.4475839 -0.00455588 8.4803386 -0.00724217 C11.87218787 -0.0135876 15.26385518 -0.00555097 18.65569919 0.0023095 C21.09874549 0.00072271 23.54179135 -0.00173958 25.98483598 -0.00500691 C31.31348699 -0.01009935 36.64208288 -0.00892856 41.97072834 -0.00232154 C49.89437831 0.00747606 57.817997 0.0058689 65.74165057 0.00192816 C79.0697171 -0.00435502 92.39776596 -0.00116624 105.7258305 0.00752228 C118.92798441 0.01612702 132.1301304 0.02104267 145.33228725 0.02085465 C146.15250808 0.02084701 146.9727289 0.02083936 147.8178049 0.02083148 C151.14706128 0.02079058 154.47631766 0.02072497 157.80557404 0.02062567 C189.0564615 0.01971897 220.30733686 0.02967404 251.55822012 0.04505534 C279.34481952 0.05868113 307.13141032 0.0649166 334.91801304 0.06424493 C336.70223769 0.06420451 338.48646234 0.06416415 340.27068699 0.06412385 C341.1527587 0.0641035 342.0348304 0.06408315 342.94363155 0.06406218 C347.38352529 0.06396139 351.82341902 0.0638708 356.26331276 0.06379193 C357.13916664 0.06377522 358.01502052 0.0637585 358.91741542 0.06374128 C382.1116473 0.0633764 405.3058781 0.06791161 428.50010908 0.07411849 C429.32479184 0.07433877 430.14947461 0.07455904 430.99914776 0.07478599 C434.31564692 0.07567425 437.63214609 0.07656264 440.94864524 0.07747694 C452.50397309 0.08064091 464.05930009 0.08214672 475.61462835 0.08258843 C490.5023682 0.08318462 505.39010095 0.08716095 520.27783776 0.09701989 C528.15810682 0.1021478 536.03836543 0.10453997 543.91863608 0.10302371 C549.788166 0.10220667 555.65768428 0.10658517 561.52721094 0.11307421 C563.91273931 0.11489767 566.29826968 0.11500809 568.68379814 0.11330692 C571.90608416 0.11126212 575.12830508 0.11526966 578.3505854 0.12091321 C579.29424633 0.11885789 580.23790726 0.11680257 581.21016398 0.11468497 C582.06247287 0.11744471 582.91478177 0.12020446 583.79291821 0.12304783 C584.53065926 0.12333933 585.26840032 0.12363083 586.02849716 0.12393116 C587.83378452 0.24954766 587.83378452 0.24954766 589.83378452 1.24954766 C589.95785854 38.31203621 590.07807963 75.37453702 590.19535679 112.43704766 C590.19765208 113.16231151 590.19994737 113.88757536 590.20231222 114.63481691 C590.448167 192.35283487 590.66909628 270.07087634 590.83962864 347.78909844 C590.84342327 349.51557568 590.84721793 351.24205291 590.8510126 352.96853015 C590.93058915 389.20834186 591.00666062 425.44816025 591.07868346 461.68798775 C591.11486707 479.89265701 591.15172415 498.09732486 591.18921804 516.30199147 C591.19486991 519.04808381 591.20050256 521.79417619 591.2061344 524.54026857 C591.29301866 566.82247155 591.39433986 609.10457931 591.53751987 651.38663262 C591.54059771 652.29562211 591.54367555 653.20461159 591.54684666 654.14114621 C591.59655781 668.79659704 591.64748143 683.45204365 591.698566 698.10748974 C591.84570041 740.32360059 591.9838579 782.53965468 592.06270355 824.75595635 C592.06432958 825.62424324 592.06595561 826.49253014 592.06763091 827.38712875 C592.10316667 846.44890986 592.13409226 865.51069557 592.16065375 884.57249121 C592.17142269 892.24251341 592.18285518 899.91253459 592.19451565 907.58255547 C592.19577582 908.42200172 592.19703599 909.26144796 592.19833435 910.12633197 C592.23925618 937.16597439 592.33417441 964.20509594 592.45746464 991.24447829 C592.58143025 1018.4862585 592.65233704 1045.72762036 592.64969061 1072.96969881 C592.64933802 1076.73595677 592.64959263 1080.50221446 592.65021366 1084.26847237 C592.65036332 1085.37589357 592.65036332 1085.37589357 592.65051601 1086.5056869 C592.65366686 1098.18693414 592.7140137 1109.86715533 592.79834978 1121.54806905 C592.88014344 1133.04022059 592.89966925 1144.53071508 592.8577449 1156.02317284 C592.83709313 1162.16944157 592.84337247 1168.31242351 592.9248438 1174.45825928 C592.99850431 1180.05476587 592.99322699 1185.64553973 592.92602471 1191.24207695 C592.91556526 1193.2494292 592.9334091 1195.25718898 592.98364543 1197.26393978 C593.18623965 1205.88824389 593.15809719 1213.110755 587.19173311 1219.81476778 C583.68377036 1223.29880314 579.93134264 1226.39882709 576.03861145 1229.44028611 C573.03832145 1231.90229764 570.35837259 1234.62313542 567.66256522 1237.41059398 C565.79344599 1239.29011058 563.84667984 1241.02591536 561.83378452 1242.74954766 C558.32797355 1245.76235396 555.09095472 1248.9725795 551.84940952 1252.26517266 C549.23462824 1254.83941469 546.4863719 1257.23122948 543.69315952 1259.60892266 C541.75958714 1261.21183091 541.75958714 1261.21183091 540.22849828 1263.32010269 C536.86686261 1266.02860637 533.79268553 1265.80645075 529.65898937 1265.76129216 C528.40621033 1265.77136099 528.40621033 1265.77136099 527.12812263 1265.78163323 C524.31079834 1265.79933235 521.49430408 1265.78837478 518.67695469 1265.77766961 C516.64424573 1265.78442256 514.61154192 1265.79291123 512.57884675 1265.80299282 C506.97842029 1265.82559155 501.37824028 1265.82304397 495.77778238 1265.81642348 C489.74356528 1265.81355745 483.70941826 1265.83358063 477.67523044 1265.8505761 C465.84788832 1265.87998257 454.02062899 1265.88725599 442.19326206 1265.8860006 C432.58288967 1265.8850878 422.97254365 1265.89095618 413.36217731 1265.90162629 C411.98240076 1265.90312455 410.6026242 1265.90461858 409.22284763 1265.90610841 C408.5379519 1265.90684824 407.85305616 1265.90758806 407.147406 1265.90835031 C406.46126989 1265.90909072 405.77513377 1265.90983114 405.06820565 1265.91059399 C404.03730304 1265.91171155 404.03730304 1265.91171155 402.98557411 1265.91285168 C383.64987592 1265.93359494 364.31418731 1265.94581596 344.9784779 1265.94075841 C343.8846258 1265.94047711 343.8846258 1265.94047711 342.76867567 1265.94019012 C339.07246794 1265.9392181 335.37626024 1265.93817425 331.68005253 1265.93710741 C330.57889847 1265.93679094 330.57889847 1265.93679094 329.45549886 1265.93646808 C327.97096401 1265.93604055 326.48642916 1265.93560842 325.00189431 1265.93517171 C301.90085651 1265.92858839 278.80001023 1265.95153534 255.6990189 1265.99735039 C229.7556168 1266.04876551 203.81233737 1266.07672881 177.86888105 1266.07084846 C175.10359513 1266.07030384 172.3383092 1266.06984489 169.57302326 1266.06944245 C168.89212061 1266.06932841 168.21121796 1266.06921437 167.5096819 1266.06909687 C157.22222783 1266.06787219 146.93491003 1266.08517725 136.64749378 1266.11191911 C124.94994127 1266.14231799 113.25261897 1266.14786006 101.55503292 1266.12211009 C95.58357297 1266.10965255 89.61267639 1266.10859832 83.64126247 1266.13781899 C78.17830627 1266.16426267 72.71637423 1266.15860489 67.25345419 1266.12698904 C65.27366626 1266.12123612 63.29380182 1266.12739488 61.31409718 1266.14644506 C58.62823569 1266.17055117 55.94598827 1266.15177903 53.26026195 1266.12205571 C52.09920671 1266.14792427 52.09920671 1266.14792427 50.9146958 1266.17431542 C47.76829316 1266.10100362 45.45828281 1265.79302056 43.04723905 1263.69479714 C41.53807096 1261.93708283 40.18335539 1260.13061851 38.83378452 1258.24954766 C37.68026569 1257.17037204 36.49751723 1256.12032828 35.27128452 1255.12454766 C31.41888754 1251.85629533 27.88018879 1248.34109998 24.33378452 1244.74954766 C20.30622542 1240.67558943 16.23781908 1236.76779729 11.86503452 1233.06204766 C8.25969867 1229.84497875 4.92025514 1226.35270968 1.54472202 1222.89798516 C-1.09659145 1220.16575874 -1.09659145 1220.16575874 -4.28885889 1218.10880048 C-7.05818291 1215.79652609 -7.16112268 1215.27546154 -7.91566047 1211.43612136 C-7.94604792 1209.90873814 -7.94339004 1208.38048403 -7.91485846 1206.85306501 C-7.92289967 1206.0045827 -7.93094088 1205.15610039 -7.93922576 1204.28190649 C-7.95896034 1201.41928364 -7.93570418 1198.55860206 -7.91288239 1195.6960246 C-7.91822791 1193.62211006 -7.926205 1191.54820093 -7.93658498 1189.47430548 C-7.9575741 1183.73910882 -7.94089694 1178.00452973 -7.91841672 1172.26936116 C-7.90056827 1166.043795 -7.91737689 1159.81831 -7.92987919 1153.59274423 C-7.94697558 1142.66977357 -7.94183722 1131.74702075 -7.92182308 1120.82406205 C-7.9004518 1109.10122946 -7.89210407 1097.37849588 -7.89974171 1085.65564507 C-7.9002153 1084.91584433 -7.9006889 1084.17604359 -7.90117684 1083.41382465 C-7.90364879 1079.64172223 -7.90632741 1075.86961999 -7.90907397 1072.09751776 C-7.92849967 1044.7781089 -7.91842028 1017.45877344 -7.89229161 990.13937348 C-7.86645633 963.07832981 -7.85169595 936.01732078 -7.8522945 908.9562642 C-7.85231827 907.25827966 -7.85234144 905.56029511 -7.85236401 903.86231057 C-7.85247613 897.03922255 -7.85267539 890.21613452 -7.85298145 883.3930465 C-7.8538144 864.31878356 -7.85264794 845.244521 -7.85001427 826.17025822 C-7.84989525 825.30159895 -7.84977624 824.43293968 -7.84965362 823.5379574 C-7.84572864 795.85057675 -7.83321078 768.16320706 -7.81444031 740.47583264 C-7.81383149 739.57755049 -7.81322268 738.67926833 -7.81259541 737.7537655 C-7.80266865 723.16527549 -7.792183 708.57678588 -7.78166926 693.98829628 C-7.73999643 636.11728274 -7.7200701 578.24630864 -7.72212368 520.37528008 C-7.72218485 518.54592042 -7.72224549 516.71656076 -7.7223056 514.8872011 C-7.72242614 511.2328506 -7.72254846 507.5785001 -7.72267193 503.9241496 C-7.72294617 495.73081233 -7.72319923 487.53747505 -7.72341169 479.34413777 C-7.72345899 477.52953997 -7.72350832 475.71494218 -7.72355967 473.90034438 C-7.72489465 425.45734232 -7.71150004 377.01434564 -7.69250298 328.57134759 C-7.69217246 327.72596104 -7.69184195 326.88057448 -7.69150142 326.00957015 C-7.68547251 310.59208136 -7.68547251 310.59208136 -7.68242764 303.0598863 C-7.67493485 284.44914637 -7.66911627 265.83840829 -7.66798669 247.2276668 C-7.6679341 246.38811309 -7.66788151 245.54855938 -7.66782733 244.68356465 C-7.66761971 241.29975796 -7.66742395 237.91595128 -7.66723488 234.5321446 C-7.66547892 203.17309033 -7.6542249 171.81406837 -7.6237988 140.45502768 C-7.62092588 137.45310084 -7.6180959 134.45117397 -7.61529881 131.44924706 C-7.61460721 130.71249397 -7.61391561 129.97574088 -7.61320305 129.21666194 C-7.60248426 117.52093014 -7.60180314 105.82522007 -7.6052063 94.12948476 C-7.60832832 82.64679007 -7.60052666 71.16415831 -7.58165592 59.68147581 C-7.57184822 53.53166086 -7.56690955 47.3819425 -7.57493771 41.23212276 C-7.58211999 35.64957975 -7.57576003 30.06723082 -7.55808337 24.48471268 C-7.55414769 22.46613315 -7.55535464 20.44753619 -7.56203319 18.42896387 C-7.570315 15.70906335 -7.56046843 12.98984089 -7.54571497 10.26998281 C-7.5525328 9.47591702 -7.55935062 8.68185122 -7.56637504 7.86372282 C-7.54306499 5.68754246 -7.54306499 5.68754246 -7.16621548 2.24954766 C-4.08599947 0.19607032 -3.4723862 -0.0004152 0 0 Z M35.83378452 41.24954766 C33.78098772 43.30234446 34.57407241 47.62865335 34.51814216 50.45231599 C34.49736869 51.35741209 34.47659521 52.26250819 34.45519223 53.19503145 C34.38665634 56.37029445 34.32856562 59.54562611 34.27264255 62.7211358 C34.25154614 63.87261076 34.23044972 65.02408573 34.20871402 66.21045388 C33.483217 107.52846245 33.7406173 148.86135607 33.79711867 190.18369245 C33.81486575 203.32665129 33.82630531 216.46961466 33.83761623 229.61258023 C33.85855536 253.85537846 33.88451182 278.09816913 33.91325039 302.34095925 C33.94164369 326.30525411 33.96781501 350.26954978 33.99108928 374.23385018 C33.9918165 374.981609 33.99254372 375.72936781 33.99329298 376.49978599 C33.99993509 383.33068946 34.00655035 390.16159297 34.01313343 396.9924965 C34.02948925 413.96368683 34.04618115 430.93487682 34.06310219 447.9060666 C34.06387196 448.67839165 34.06464173 449.4507167 34.06543483 450.24644554 C34.10279274 487.69881718 34.14402559 525.15118441 34.18559116 562.60355157 C34.19999007 575.57954437 34.21437172 588.55553718 34.22868198 601.53153008 C34.22956968 602.33644295 34.23045737 603.14135582 34.23137197 603.97065999 C34.27270986 641.47501853 34.31126186 678.97937978 34.34913068 716.48374196 C34.35161266 718.94139486 34.35409645 721.39904775 34.35658085 723.85670064 C34.38247531 749.47324792 34.40823662 775.08979532 34.43394025 800.70634279 C34.43467471 801.43830454 34.43540917 802.1702663 34.43616588 802.92440872 C34.43814252 804.89445066 34.44011886 806.8644926 34.44209517 808.83453454 C34.56573602 931.97288021 34.70061991 1055.11121118 34.83378452 1178.24954766 C204.12378452 1178.24954766 373.41378452 1178.24954766 547.83378452 1178.24954766 C547.83378452 803.03954766 547.83378452 427.82954766 547.83378452 41.24954766 C378.87378452 41.24954766 209.91378452 41.24954766 35.83378452 41.24954766 Z " fill="#E4D4D2" transform="translate(29.166215479373932,8.7504523396492)"/>
<path d="M0 0 C1.28221862 -0.00712622 1.28221862 -0.00712622 2.59034064 -0.0143964 C4.00232029 -0.00694413 4.00232029 -0.00694413 5.44282478 0.00065869 C6.44520434 -0.00194859 7.4475839 -0.00455588 8.4803386 -0.00724217 C11.87218787 -0.0135876 15.26385518 -0.00555097 18.65569919 0.0023095 C21.09874549 0.00072271 23.54179135 -0.00173958 25.98483598 -0.00500691 C31.31348699 -0.01009935 36.64208288 -0.00892856 41.97072834 -0.00232154 C49.89437831 0.00747606 57.817997 0.0058689 65.74165057 0.00192816 C79.0697171 -0.00435502 92.39776596 -0.00116624 105.7258305 0.00752228 C118.92798441 0.01612702 132.1301304 0.02104267 145.33228725 0.02085465 C146.15250808 0.02084701 146.9727289 0.02083936 147.8178049 0.02083148 C151.14706128 0.02079058 154.47631766 0.02072497 157.80557404 0.02062567 C189.0564615 0.01971897 220.30733686 0.02967404 251.55822012 0.04505534 C279.34481952 0.05868113 307.13141032 0.0649166 334.91801304 0.06424493 C336.70223769 0.06420451 338.48646234 0.06416415 340.27068699 0.06412385 C341.1527587 0.0641035 342.0348304 0.06408315 342.94363155 0.06406218 C347.38352529 0.06396139 351.82341902 0.0638708 356.26331276 0.06379193 C357.13916664 0.06377522 358.01502052 0.0637585 358.91741542 0.06374128 C382.1116473 0.0633764 405.3058781 0.06791161 428.50010908 0.07411849 C429.32479184 0.07433877 430.14947461 0.07455904 430.99914776 0.07478599 C434.31564692 0.07567425 437.63214609 0.07656264 440.94864524 0.07747694 C452.50397309 0.08064091 464.05930009 0.08214672 475.61462835 0.08258843 C490.5023682 0.08318462 505.39010095 0.08716095 520.27783776 0.09701989 C528.15810682 0.1021478 536.03836543 0.10453997 543.91863608 0.10302371 C549.788166 0.10220667 555.65768428 0.10658517 561.52721094 0.11307421 C563.91273931 0.11489767 566.29826968 0.11500809 568.68379814 0.11330692 C571.90608416 0.11126212 575.12830508 0.11526966 578.3505854 0.12091321 C579.29424633 0.11885789 580.23790726 0.11680257 581.21016398 0.11468497 C582.06247287 0.11744471 582.91478177 0.12020446 583.79291821 0.12304783 C584.53065926 0.12333933 585.26840032 0.12363083 586.02849716 0.12393116 C587.83378452 0.24954766 587.83378452 0.24954766 589.83378452 1.24954766 C589.95785854 38.31203621 590.07807963 75.37453702 590.19535679 112.43704766 C590.19765208 113.16231151 590.19994737 113.88757536 590.20231222 114.63481691 C590.448167 192.35283487 590.66909628 270.07087634 590.83962864 347.78909844 C590.84342327 349.51557568 590.84721793 351.24205291 590.8510126 352.96853015 C590.93058915 389.20834186 591.00666062 425.44816025 591.07868346 461.68798775 C591.11486707 479.89265701 591.15172415 498.09732486 591.18921804 516.30199147 C591.19486991 519.04808381 591.20050256 521.79417619 591.2061344 524.54026857 C591.29301866 566.82247155 591.39433986 609.10457931 591.53751987 651.38663262 C591.54059771 652.29562211 591.54367555 653.20461159 591.54684666 654.14114621 C591.59655781 668.79659704 591.64748143 683.45204365 591.698566 698.10748974 C591.84570041 740.32360059 591.9838579 782.53965468 592.06270355 824.75595635 C592.06432958 825.62424324 592.06595561 826.49253014 592.06763091 827.38712875 C592.10316667 846.44890986 592.13409226 865.51069557 592.16065375 884.57249121 C592.17142269 892.24251341 592.18285518 899.91253459 592.19451565 907.58255547 C592.19577582 908.42200172 592.19703599 909.26144796 592.19833435 910.12633197 C592.23925618 937.16597439 592.33417441 964.20509594 592.45746464 991.24447829 C592.58143025 1018.4862585 592.65233704 1045.72762036 592.64969061 1072.96969881 C592.64933802 1076.73595677 592.64959263 1080.50221446 592.65021366 1084.26847237 C592.65036332 1085.37589357 592.65036332 1085.37589357 592.65051601 1086.5056869 C592.65366686 1098.18693414 592.7140137 1109.86715533 592.79834978 1121.54806905 C592.88014344 1133.04022059 592.89966925 1144.53071508 592.8577449 1156.02317284 C592.83709313 1162.16944157 592.84337247 1168.31242351 592.9248438 1174.45825928 C592.99850431 1180.05476587 592.99322699 1185.64553973 592.92602471 1191.24207695 C592.91556526 1193.2494292 592.9334091 1195.25718898 592.98364543 1197.26393978 C593.18623965 1205.88824389 593.15809719 1213.110755 587.19173311 1219.81476778 C583.68377036 1223.29880314 579.93134264 1226.39882709 576.03861145 1229.44028611 C573.03832145 1231.90229764 570.35837259 1234.62313542 567.66256522 1237.41059398 C565.79344599 1239.29011058 563.84667984 1241.02591536 561.83378452 1242.74954766 C558.32797355 1245.76235396 555.09095472 1248.9725795 551.84940952 1252.26517266 C549.23462824 1254.83941469 546.4863719 1257.23122948 543.69315952 1259.60892266 C541.75958714 1261.21183091 541.75958714 1261.21183091 540.22849828 1263.32010269 C536.86686261 1266.02860637 533.79268553 1265.80645075 529.65898937 1265.76129216 C528.40621033 1265.77136099 528.40621033 1265.77136099 527.12812263 1265.78163323 C524.31079834 1265.79933235 521.49430408 1265.78837478 518.67695469 1265.77766961 C516.64424573 1265.78442256 514.61154192 1265.79291123 512.57884675 1265.80299282 C506.97842029 1265.82559155 501.37824028 1265.82304397 495.77778238 1265.81642348 C489.74356528 1265.81355745 483.70941826 1265.83358063 477.67523044 1265.8505761 C465.84788832 1265.87998257 454.02062899 1265.88725599 442.19326206 1265.8860006 C432.58288967 1265.8850878 422.97254365 1265.89095618 413.36217731 1265.90162629 C411.98240076 1265.90312455 410.6026242 1265.90461858 409.22284763 1265.90610841 C408.5379519 1265.90684824 407.85305616 1265.90758806 407.147406 1265.90835031 C406.46126989 1265.90909072 405.77513377 1265.90983114 405.06820565 1265.91059399 C404.03730304 1265.91171155 404.03730304 1265.91171155 402.98557411 1265.91285168 C383.64987592 1265.93359494 364.31418731 1265.94581596 344.9784779 1265.94075841 C343.8846258 1265.94047711 343.8846258 1265.94047711 342.76867567 1265.94019012 C339.07246794 1265.9392181 335.37626024 1265.93817425 331.68005253 1265.93710741 C330.57889847 1265.93679094 330.57889847 1265.93679094 329.45549886 1265.93646808 C327.97096401 1265.93604055 326.48642916 1265.93560842 325.00189431 1265.93517171 C301.90085651 1265.92858839 278.80001023 1265.95153534 255.6990189 1265.99735039 C229.7556168 1266.04876551 203.81233737 1266.07672881 177.86888105 1266.07084846 C175.10359513 1266.07030384 172.3383092 1266.06984489 169.57302326 1266.06944245 C168.89212061 1266.06932841 168.21121796 1266.06921437 167.5096819 1266.06909687 C157.22222783 1266.06787219 146.93491003 1266.08517725 136.64749378 1266.11191911 C124.94994127 1266.14231799 113.25261897 1266.14786006 101.55503292 1266.12211009 C95.58357297 1266.10965255 89.61267639 1266.10859832 83.64126247 1266.13781899 C78.17830627 1266.16426267 72.71637423 1266.15860489 67.25345419 1266.12698904 C65.27366626 1266.12123612 63.29380182 1266.12739488 61.31409718 1266.14644506 C58.62823569 1266.17055117 55.94598827 1266.15177903 53.26026195 1266.12205571 C52.09920671 1266.14792427 52.09920671 1266.14792427 50.9146958 1266.17431542 C47.76829316 1266.10100362 45.45828281 1265.79302056 43.04723905 1263.69479714 C41.53807096 1261.93708283 40.18335539 1260.13061851 38.83378452 1258.24954766 C37.68026569 1257.17037204 36.49751723 1256.12032828 35.27128452 1255.12454766 C31.41888754 1251.85629533 27.88018879 1248.34109998 24.33378452 1244.74954766 C20.30622542 1240.67558943 16.23781908 1236.76779729 11.86503452 1233.06204766 C8.25969867 1229.84497875 4.92025514 1226.35270968 1.54472202 1222.89798516 C-1.09659145 1220.16575874 -1.09659145 1220.16575874 -4.28885889 1218.10880048 C-7.05818291 1215.79652609 -7.16112268 1215.27546154 -7.91566047 1211.43612136 C-7.94604792 1209.90873814 -7.94339004 1208.38048403 -7.91485846 1206.85306501 C-7.92289967 1206.0045827 -7.93094088 1205.15610039 -7.93922576 1204.28190649 C-7.95896034 1201.41928364 -7.93570418 1198.55860206 -7.91288239 1195.6960246 C-7.91822791 1193.62211006 -7.926205 1191.54820093 -7.93658498 1189.47430548 C-7.9575741 1183.73910882 -7.94089694 1178.00452973 -7.91841672 1172.26936116 C-7.90056827 1166.043795 -7.91737689 1159.81831 -7.92987919 1153.59274423 C-7.94697558 1142.66977357 -7.94183722 1131.74702075 -7.92182308 1120.82406205 C-7.9004518 1109.10122946 -7.89210407 1097.37849588 -7.89974171 1085.65564507 C-7.9002153 1084.91584433 -7.9006889 1084.17604359 -7.90117684 1083.41382465 C-7.90364879 1079.64172223 -7.90632741 1075.86961999 -7.90907397 1072.09751776 C-7.92849967 1044.7781089 -7.91842028 1017.45877344 -7.89229161 990.13937348 C-7.86645633 963.07832981 -7.85169595 936.01732078 -7.8522945 908.9562642 C-7.85231827 907.25827966 -7.85234144 905.56029511 -7.85236401 903.86231057 C-7.85247613 897.03922255 -7.85267539 890.21613452 -7.85298145 883.3930465 C-7.8538144 864.31878356 -7.85264794 845.244521 -7.85001427 826.17025822 C-7.84989525 825.30159895 -7.84977624 824.43293968 -7.84965362 823.5379574 C-7.84572864 795.85057675 -7.83321078 768.16320706 -7.81444031 740.47583264 C-7.81383149 739.57755049 -7.81322268 738.67926833 -7.81259541 737.7537655 C-7.80266865 723.16527549 -7.792183 708.57678588 -7.78166926 693.98829628 C-7.73999643 636.11728274 -7.7200701 578.24630864 -7.72212368 520.37528008 C-7.72218485 518.54592042 -7.72224549 516.71656076 -7.7223056 514.8872011 C-7.72242614 511.2328506 -7.72254846 507.5785001 -7.72267193 503.9241496 C-7.72294617 495.73081233 -7.72319923 487.53747505 -7.72341169 479.34413777 C-7.72345899 477.52953997 -7.72350832 475.71494218 -7.72355967 473.90034438 C-7.72489465 425.45734232 -7.71150004 377.01434564 -7.69250298 328.57134759 C-7.69217246 327.72596104 -7.69184195 326.88057448 -7.69150142 326.00957015 C-7.68547251 310.59208136 -7.68547251 310.59208136 -7.68242764 303.0598863 C-7.67493485 284.44914637 -7.66911627 265.83840829 -7.66798669 247.2276668 C-7.6679341 246.38811309 -7.66788151 245.54855938 -7.66782733 244.68356465 C-7.66761971 241.29975796 -7.66742395 237.91595128 -7.66723488 234.5321446 C-7.66547892 203.17309033 -7.6542249 171.81406837 -7.6237988 140.45502768 C-7.62092588 137.45310084 -7.6180959 134.45117397 -7.61529881 131.44924706 C-7.61460721 130.71249397 -7.61391561 129.97574088 -7.61320305 129.21666194 C-7.60248426 117.52093014 -7.60180314 105.82522007 -7.6052063 94.12948476 C-7.60832832 82.64679007 -7.60052666 71.16415831 -7.58165592 59.68147581 C-7.57184822 53.53166086 -7.56690955 47.3819425 -7.57493771 41.23212276 C-7.58211999 35.64957975 -7.57576003 30.06723082 -7.55808337 24.48471268 C-7.55414769 22.46613315 -7.55535464 20.44753619 -7.56203319 18.42896387 C-7.570315 15.70906335 -7.56046843 12.98984089 -7.54571497 10.26998281 C-7.5525328 9.47591702 -7.55935062 8.68185122 -7.56637504 7.86372282 C-7.54306499 5.68754246 -7.54306499 5.68754246 -7.16621548 2.24954766 C-4.08599947 0.19607032 -3.4723862 -0.0004152 0 0 Z M-0.16621548 7.24954766 C-0.16621548 403.90954766 -0.16621548 800.56954766 -0.16621548 1209.24954766 C192.55378452 1209.24954766 385.27378452 1209.24954766 583.83378452 1209.24954766 C583.83378452 812.58954766 583.83378452 415.92954766 583.83378452 7.24954766 C391.11378452 7.24954766 198.39378452 7.24954766 -0.16621548 7.24954766 Z " fill="#3C241F" transform="translate(29.166215479373932,8.7504523396492)"/>
<path d="M0 0 C190.08 0 380.16 0 576 0 C569.28229665 7.83732057 569.28229665 7.83732057 565.4375 11.125 C561.19618309 14.76905482 557.29447629 18.67059032 553.39453125 22.67578125 C552.11642578 23.98095703 552.11642578 23.98095703 550.8125 25.3125 C549.95269531 26.19550781 549.09289062 27.07851562 548.20703125 27.98828125 C546 30 546 30 544 30 C543.67 30.99 543.34 31.98 543 33 C541.29296875 34.6484375 541.29296875 34.6484375 539.1875 36.375 C536.76819851 38.36309391 535.05485317 39.91300839 533.3733018 42.5797798 C530.63993681 45.36718136 529.08457934 45.59824806 525.2514213 45.67045924 C524.48261406 45.65961095 523.71380682 45.64876266 522.92170238 45.63758564 C522.0969462 45.64575163 521.27219001 45.65391763 520.42244121 45.66233107 C517.64042389 45.68369855 514.85972987 45.66924399 512.0776825 45.65510559 C510.07043192 45.66301013 508.0631889 45.67308657 506.05595905 45.68515605 C500.52582508 45.71194373 494.99608897 45.7073118 489.46591485 45.69760048 C483.5073291 45.69247889 477.54884719 45.7159842 471.59030151 45.73573303 C459.91101049 45.76959488 448.23182906 45.77588802 436.55250057 45.77174488 C427.06179179 45.76854138 417.57112506 45.77410846 408.08042336 45.78589439 C406.71775881 45.78754712 405.35509426 45.78919593 403.99242971 45.79084086 C401.93910813 45.79332464 399.88578655 45.79580942 397.83246499 45.79831102 C378.73611385 45.82133116 359.63977833 45.83393821 340.54341412 45.8251543 C339.82320176 45.82482597 339.10298941 45.82449764 338.36095244 45.82415936 C334.71049195 45.82246465 331.0600315 45.82067406 327.40957107 45.81884805 C326.6845572 45.81848593 325.95954332 45.81812381 325.21255933 45.81775072 C323.74640394 45.81701697 322.28024857 45.81627811 320.81409319 45.81553415 C298.00168746 45.80420739 275.18954707 45.82757072 252.37719727 45.87817383 C226.75642727 45.93495155 201.13582406 45.9650292 175.51498729 45.95605963 C172.78366619 45.95519429 170.05234508 45.9544225 167.32102394 45.95371056 C166.64848762 45.95351744 165.9759513 45.95332432 165.28303509 45.95312535 C155.12470415 45.95076326 144.96654871 45.96939329 134.80826378 45.99866676 C123.25598088 46.03193448 111.70406608 46.03664869 100.15176853 46.00557701 C94.25505715 45.99049366 88.35908833 45.98839484 82.46243095 46.02093506 C77.06653564 46.05037687 71.67199957 46.04304729 66.27616177 46.00612756 C64.32192927 45.99926101 62.36759331 46.00597088 60.41346689 46.02745936 C45.77127157 46.17745577 45.77127157 46.17745577 41.33949625 43.23142564 C39.56719358 41.23056487 38.28804909 39.3304374 37 37 C35.12873864 35.10563665 33.21992202 33.27377246 31.28515625 31.4453125 C30 30 30 30 30 28 C29.46246094 27.77957031 28.92492187 27.55914063 28.37109375 27.33203125 C25.19806038 25.54948697 22.69695486 23.1640849 20.0625 20.6875 C19.55009766 20.21376953 19.03769531 19.74003906 18.50976562 19.25195312 C15.26615252 16.23914349 12.11727809 13.14396712 9 10 C8.154375 9.175 7.30875 8.35 6.4375 7.5 C4 5 4 5 0 0 Z " fill="#8F8786" transform="translate(33,1224)"/>
<path d="M0 0 C166.65 0 333.3 0 505 0 C505 15.18 505 30.36 505 46 C338.35 46 171.7 46 0 46 C0 30.82 0 15.64 0 0 Z " fill="#8F8785" transform="translate(68,55)"/>
<path d="M0 0 C168.96 0 337.92 0 512 0 C512 375.21 512 750.42 512 1137 C342.71 1137 173.42 1137 -1 1137 C-1.29162353 866.45860906 -1.29162353 866.45860906 -1.39547622 762.62369788 C-1.39693219 761.16821935 -1.39838821 759.71274083 -1.39984427 758.2572623 C-1.40057435 757.52747194 -1.40130442 756.79768157 -1.40205662 756.04577635 C-1.42784956 730.26575189 -1.45371109 704.4857275 -1.47969284 678.70570322 C-1.48217176 676.24542724 -1.48464889 673.78515126 -1.48712557 671.32487527 C-1.52500255 633.70547352 -1.5637509 596.08607292 -1.60510254 558.4666748 C-1.60599 557.65929902 -1.60687746 556.85192324 -1.60779181 556.02008152 C-1.6221033 543.00497887 -1.63648988 529.98987631 -1.65088643 516.97477375 C-1.69241365 479.43134138 -1.73337454 441.88790877 -1.77068233 404.34447193 C-1.7714518 403.57041421 -1.77222127 402.79635648 -1.77301406 401.99884247 C-1.78990657 384.99558389 -1.80651435 367.99232505 -1.8228535 350.98906593 C-1.82943547 344.14478286 -1.83605832 337.30049983 -1.84269524 330.45621681 C-1.84342058 329.70719716 -1.84414591 328.9581775 -1.84489323 328.18646028 C-1.86818173 304.15856959 -1.89478191 280.130684 -1.92316478 256.10279883 C-1.95180309 231.84559193 -1.97710012 207.58838393 -1.99792229 183.331169 C-2.01081786 168.31243729 -2.02645349 153.29371429 -2.04695946 138.27499079 C-2.05980376 128.65139915 -2.06871326 119.02780865 -2.07465136 109.4042103 C-2.07812305 103.94947509 -2.08308681 98.4947551 -2.09292836 93.04002734 C-2.13342841 69.88997195 -1.98128146 46.75136789 -1.55735683 23.60476398 C-1.53786005 22.4678249 -1.51836326 21.33088581 -1.49827566 20.15949403 C-1.44221073 16.96958603 -1.37917769 13.77990286 -1.31351322 10.59017974 C-1.29705685 9.63017748 -1.28060048 8.67017521 -1.26364543 7.68108197 C-1.24396785 6.81090378 -1.22429026 5.94072558 -1.20401638 5.04417836 C-1.18872031 4.28312765 -1.17342423 3.52207694 -1.15766464 2.73796409 C-1 1 -1 1 0 0 Z M3 5 C3 20.18 3 35.36 3 51 C169.65 51 336.3 51 508 51 C508 35.82 508 20.64 508 5 C341.35 5 174.7 5 3 5 Z M3 56 C3 411.41 3 766.82 3 1133 C169.65 1133 336.3 1133 508 1133 C508 777.59 508 422.18 508 56 C341.35 56 174.7 56 3 56 Z " fill="#361E19" transform="translate(65,50)"/>
<path d="M0 0 C9.70181939 -0.11639269 19.40339454 -0.20496611 29.10576248 -0.25906086 C33.61210224 -0.28503763 38.11796063 -0.32021438 42.62402344 -0.37719727 C46.98127654 -0.43194686 51.33806975 -0.46150993 55.69564056 -0.47438622 C57.34928364 -0.48354975 59.00290456 -0.50144202 60.65634918 -0.52865028 C70.92286567 -0.6907094 78.71307738 0.1096998 88 5 C89.39567661 5.66410898 90.79185925 6.32715634 92.1887207 6.98876953 C93.4364586 7.61605394 94.68215553 8.24741446 95.92578125 8.8828125 C96.6024736 9.22375946 97.27916595 9.56470642 97.97636414 9.91598511 C100.09041572 10.98174173 102.20164831 12.05292169 104.3125 13.125 C106.4415732 14.20345923 108.57126823 15.28064431 110.70219421 16.35543823 C112.01456133 17.01763596 113.32585621 17.68196511 114.63581848 18.34890747 C121.44627332 21.79111383 128.49189753 24.62656128 135.546875 27.5234375 C141.98494773 30.27636905 148.36547904 33.11100405 154.53894043 36.41871643 C175.16197622 46.56728844 198.77238048 44.26411339 221.13866615 44.11013484 C227.30236204 44.07579984 233.46599647 44.0885428 239.62976074 44.09437561 C249.96501359 44.09701077 260.29967093 44.06405961 270.63476562 44.00854492 C282.5457969 43.94492744 294.45596005 43.93454891 306.36712694 43.9532308 C317.88743967 43.97036684 329.40745002 43.95331892 340.92771912 43.91971016 C345.80453645 43.90585848 350.68116713 43.90311261 355.55799866 43.9094677 C361.30415455 43.91515676 367.04943796 43.89050039 372.7953949 43.84328651 C374.89143258 43.83066286 376.98755939 43.8279349 379.08361816 43.83635712 C392.0415915 43.88049217 402.19471373 42.39807054 414 37 C415.86689334 36.25848618 417.73731715 35.52566663 419.61401367 34.80932617 C421.29939396 34.13903611 422.98404358 33.46690604 424.66796875 32.79296875 C425.59434647 32.42327469 426.52072418 32.05358063 427.47517395 31.67268372 C429.41030977 30.89976297 431.34509896 30.12597381 433.27954102 29.35131836 C436.16492323 28.19653563 439.05211328 27.04636213 441.93945312 25.89648438 C452.29191498 21.76217303 462.58921881 17.52364705 472.81498718 13.08427429 C477.73665732 10.9502071 482.68308756 8.90646288 487.67741394 6.94792175 C490.83822538 5.65789338 493.91485217 4.21058752 496.9921875 2.734375 C499 2 499 2 503 2 C503 1.34 503 0.68 503 0 C527.09 0 551.18 0 576 0 C569.28229665 7.83732057 569.28229665 7.83732057 565.4375 11.125 C561.19618309 14.76905482 557.29447629 18.67059032 553.39453125 22.67578125 C552.11642578 23.98095703 552.11642578 23.98095703 550.8125 25.3125 C549.95269531 26.19550781 549.09289062 27.07851562 548.20703125 27.98828125 C546 30 546 30 544 30 C543.67 30.99 543.34 31.98 543 33 C541.29296875 34.6484375 541.29296875 34.6484375 539.1875 36.375 C536.76819851 38.36309391 535.05485317 39.91300839 533.3733018 42.5797798 C530.63993681 45.36718136 529.08457934 45.59824806 525.2514213 45.67045924 C524.48261406 45.65961095 523.71380682 45.64876266 522.92170238 45.63758564 C522.0969462 45.64575163 521.27219001 45.65391763 520.42244121 45.66233107 C517.64042389 45.68369855 514.85972987 45.66924399 512.0776825 45.65510559 C510.07043192 45.66301013 508.0631889 45.67308657 506.05595905 45.68515605 C500.52582508 45.71194373 494.99608897 45.7073118 489.46591485 45.69760048 C483.5073291 45.69247889 477.54884719 45.7159842 471.59030151 45.73573303 C459.91101049 45.76959488 448.23182906 45.77588802 436.55250057 45.77174488 C427.06179179 45.76854138 417.57112506 45.77410846 408.08042336 45.78589439 C406.71775881 45.78754712 405.35509426 45.78919593 403.99242971 45.79084086 C401.93910813 45.79332464 399.88578655 45.79580942 397.83246499 45.79831102 C378.73611385 45.82133116 359.63977833 45.83393821 340.54341412 45.8251543 C339.82320176 45.82482597 339.10298941 45.82449764 338.36095244 45.82415936 C334.71049195 45.82246465 331.0600315 45.82067406 327.40957107 45.81884805 C326.6845572 45.81848593 325.95954332 45.81812381 325.21255933 45.81775072 C323.74640394 45.81701697 322.28024857 45.81627811 320.81409319 45.81553415 C298.00168746 45.80420739 275.18954707 45.82757072 252.37719727 45.87817383 C226.75642727 45.93495155 201.13582406 45.9650292 175.51498729 45.95605963 C172.78366619 45.95519429 170.05234508 45.9544225 167.32102394 45.95371056 C166.64848762 45.95351744 165.9759513 45.95332432 165.28303509 45.95312535 C155.12470415 45.95076326 144.96654871 45.96939329 134.80826378 45.99866676 C123.25598088 46.03193448 111.70406608 46.03664869 100.15176853 46.00557701 C94.25505715 45.99049366 88.35908833 45.98839484 82.46243095 46.02093506 C77.06653564 46.05037687 71.67199957 46.04304729 66.27616177 46.00612756 C64.32192927 45.99926101 62.36759331 46.00597088 60.41346689 46.02745936 C45.77127157 46.17745577 45.77127157 46.17745577 41.33949625 43.23142564 C39.56719358 41.23056487 38.28804909 39.3304374 37 37 C35.12873864 35.10563665 33.21992202 33.27377246 31.28515625 31.4453125 C30 30 30 30 30 28 C29.46246094 27.77957031 28.92492187 27.55914063 28.37109375 27.33203125 C25.19806038 25.54948697 22.69695486 23.1640849 20.0625 20.6875 C19.55009766 20.21376953 19.03769531 19.74003906 18.50976562 19.25195312 C15.26615252 16.23914349 12.11727809 13.14396712 9 10 C8.154375 9.175 7.30875 8.35 6.4375 7.5 C4.10726935 5.11001985 2.06457822 2.61891529 0 0 Z " fill="#716C6B" transform="translate(33,1224)"/>
</svg>
