<?xml version="1.0" encoding="UTF-8"?>
<svg version="1.1" xmlns="http://www.w3.org/2000/svg" width="1280" height="1280">
<path d="M0 0 C422.4 0 844.8 0 1280 0 C1280 422.4 1280 844.8 1280 1280 C857.6 1280 435.2 1280 0 1280 C0 857.6 0 435.2 0 0 Z " fill="#FEF1DF" transform="translate(0,0)"/>
<path d="M0 0 C422.4 0 844.8 0 1280 0 C1280 422.4 1280 844.8 1280 1280 C857.6 1280 435.2 1280 0 1280 C0 857.6 0 435.2 0 0 Z M5 6 C4.97129901 225.99759948 4.97129901 225.99759948 4.95183504 445.99519932 C4.95172566 447.70122966 4.95161624 449.40725999 4.95150678 451.11329032 C4.9514519 451.9687104 4.95139703 452.82413048 4.95134049 453.70547238 C4.94939888 483.92835889 4.94739198 514.15124539 4.94527074 544.37413189 C4.94506885 547.25884607 4.94486867 550.14356025 4.94466891 553.02827442 C4.94160244 597.21827202 4.93769865 641.40826934 4.93133545 685.5982666 C4.93119855 686.54908925 4.93106165 687.49991189 4.9309206 688.47954735 C4.92870814 703.81033892 4.92642457 719.14113048 4.92413156 734.47192204 C4.91753081 778.61103471 4.91145291 822.75014717 4.90886021 866.88926029 C4.90880667 867.79629469 4.90875314 868.7033291 4.90869798 869.63784939 C4.90753241 889.54594687 4.90663747 909.45404435 4.90599902 929.36214185 C4.90573738 937.37160127 4.90543676 945.38106068 4.90512276 953.3905201 C4.90508933 954.26713908 4.9050559 955.14375807 4.90502146 956.04694126 C4.90392372 984.32594165 4.89964824 1012.60494047 4.89371779 1040.88394023 C4.88776187 1069.35340072 4.88489831 1097.82285968 4.88637601 1126.29232081 C4.88657911 1130.22030168 4.88674649 1134.14828255 4.88689232 1138.07626343 C4.8869222 1138.84630651 4.88695208 1139.6163496 4.88698287 1140.40972732 C4.88736455 1152.63706685 4.88437006 1164.86440316 4.87999014 1177.09174181 C4.87575922 1189.09467533 4.87504948 1201.09760465 4.87816819 1213.10053856 C4.87968872 1219.52981423 4.87956962 1225.95907909 4.87511682 1232.38835364 C4.871106 1238.22332257 4.87159492 1244.05827215 4.87586002 1249.89324075 C4.87658133 1252.00435835 4.87558291 1254.11547733 4.87276476 1256.22659318 C4.86920823 1259.06833996 4.87167947 1261.91001603 4.8758015 1264.75176042 C4.87329263 1265.58452545 4.87078375 1266.41729048 4.86819885 1267.27529081 C4.53153715 1270.93791274 4.53153715 1270.93791274 6 1274 C8.75332005 1274.099424 11.48158748 1274.13250818 14.23541552 1274.1241985 C15.55493502 1274.12611563 15.55493502 1274.12611563 16.90111149 1274.1280715 C19.89376584 1274.13117116 22.88636892 1274.12704874 25.87902164 1274.12304783 C28.03834531 1274.12378642 30.19766885 1274.12496389 32.35699206 1274.12654402 C38.34595386 1274.12963381 44.33489889 1274.12642129 50.32385945 1274.12226575 C56.80349225 1274.11885483 63.28312321 1274.12120126 69.76275635 1274.12284851 C81.14954212 1274.12511049 92.53632308 1274.12329803 103.92310822 1274.11921513 C116.2785981 1274.11480518 128.63408553 1274.11262715 140.98957622 1274.11307228 C142.1672261 1274.11311274 142.1672261 1274.11311274 143.36866689 1274.11315403 C147.37210245 1274.1133016 151.375538 1274.11348463 155.37897355 1274.11368043 C184.11747238 1274.11501547 212.85596902 1274.11162814 241.59446716 1274.10557556 C280.45291237 1274.09740899 319.31135284 1274.09547359 358.1697998 1274.09460449 C451.63403367 1274.08934701 545.09826688 1274.075386 638.5625 1274.0625 C847.266875 1274.041875 1055.97125 1274.02125 1271 1274 C1271 855.56 1271 437.12 1271 6 C853.22 6 435.44 6 5 6 Z " fill="#3D251F" transform="translate(0,0)"/>
<path d="M0 0 C422.4 0 844.8 0 1280 0 C1280 422.4 1280 844.8 1280 1280 C1279.34 1280 1278.68 1280 1278 1280 C1276.37160335 1276.7432067 1276.86211079 1273.15609729 1276.87054014 1269.57741636 C1276.86869186 1268.68958958 1276.86684358 1267.8017628 1276.86493929 1266.88703218 C1276.8599066 1263.87285704 1276.86207252 1260.85872821 1276.86412811 1257.84455013 C1276.86198627 1255.66810064 1276.85940577 1253.49165154 1276.8564232 1251.31520304 C1276.84944283 1245.28152562 1276.84874951 1239.24786074 1276.84899596 1233.21417988 C1276.84825649 1227.3438991 1276.8428176 1221.47362396 1276.83749172 1215.60334583 C1276.82662443 1203.44269704 1276.82048771 1191.28204993 1276.81687737 1179.12139702 C1276.81319487 1166.79100845 1276.80733461 1154.46062377 1276.79878426 1142.13023758 C1276.7982461 1141.3526061 1276.79770795 1140.57497463 1276.79715349 1139.77377856 C1276.7943985 1135.808912 1276.79160573 1131.84404547 1276.78879793 1127.87917894 C1276.7691397 1100.03378165 1276.75373904 1072.18838347 1276.74086403 1044.34298228 C1276.72729633 1015.00102789 1276.71135451 985.65907642 1276.69187927 956.31712532 C1276.69129362 955.4339381 1276.69070797 954.55075088 1276.69010457 953.64080042 C1276.68355489 943.77301895 1276.6769263 933.90523755 1276.67026538 924.03745616 C1276.65794749 905.785009 1276.64596143 887.53256161 1276.63405609 869.28011417 C1276.63345992 868.36680778 1276.63286374 867.45350139 1276.6322495 866.51251905 C1276.60387906 823.02532397 1276.57853282 779.53812726 1276.55388199 736.05092994 C1276.55224569 733.16457507 1276.55060788 730.27822019 1276.54896974 727.39186532 C1276.5319734 697.43897724 1276.5151584 667.48608906 1276.49837239 637.53320086 C1276.48213073 608.55242408 1276.46583837 579.57164732 1276.44939168 550.59087065 C1276.44775433 547.70508438 1276.44611848 544.81929812 1276.4444828 541.93351185 C1276.41984442 498.48337112 1276.39430705 455.03323116 1276.36594391 411.58309269 C1276.36534863 410.67046506 1276.36475335 409.75783743 1276.36414003 408.81755441 C1276.35224415 390.58631895 1276.34021662 372.35508358 1276.32790967 354.12384839 C1276.32125587 344.26558527 1276.31465814 334.40732211 1276.30812073 324.54905891 C1276.30753528 323.66705071 1276.30694984 322.78504251 1276.30634665 321.87630679 C1276.2869126 292.54297131 1276.27147521 263.20963514 1276.25791349 233.87629641 C1276.24505954 206.11541359 1276.22916986 178.3545341 1276.20950691 150.59365523 C1276.20670994 146.64189063 1276.20395098 142.690126 1276.20121574 138.73836136 C1276.20067844 137.96365696 1276.20014115 137.18895257 1276.19958756 136.39077229 C1276.19115163 124.08943429 1276.18610336 111.78809727 1276.18245206 99.48675702 C1276.17880145 87.41125332 1276.17164805 75.33575604 1276.1606881 63.26025671 C1276.15496941 56.79214463 1276.15089517 50.32404224 1276.15115923 43.8559274 C1276.15137087 37.98573961 1276.14708943 32.11557391 1276.13903805 26.2453918 C1276.13694696 24.12153183 1276.13657481 21.99766939 1276.13802151 19.87380889 C1276.1397328 17.01492363 1276.1354209 14.15611242 1276.12945986 11.29723448 C1276.1324115 10.0405303 1276.1324115 10.0405303 1276.13542276 8.75843816 C1276.47240744 5.07794381 1276.47240744 5.07794381 1275 2 C1272.22963237 1.90056652 1269.48416209 1.86749308 1266.71328825 1.8758015 C1265.82805347 1.87452341 1264.94281869 1.87324532 1264.03075862 1.8719285 C1261.01916802 1.86882881 1258.00762837 1.87295128 1254.99603939 1.87695217 C1252.8230673 1.87621358 1250.65009532 1.87503611 1248.47712368 1.87345598 C1242.45027808 1.87036618 1236.42344915 1.87357872 1230.39660478 1.87773425 C1224.54699875 1.88079416 1218.69739534 1.8791647 1212.84778898 1.87764605 C1200.71798057 1.87466596 1188.58817695 1.87646289 1176.45836914 1.88078487 C1164.02472882 1.88519482 1151.59109096 1.88737285 1139.15744984 1.88692772 C1137.97235263 1.88688726 1137.97235263 1.88688726 1136.76331405 1.88684597 C1132.73456144 1.8866984 1128.70580883 1.88651537 1124.67705621 1.88631957 C1095.75679486 1.88498453 1066.83653569 1.88837186 1037.91627502 1.89442444 C998.8120616 1.90259101 959.70785288 1.9045264 920.6036377 1.90539551 C826.548258 1.91065299 732.49287896 1.924614 638.4375 1.9375 C428.413125 1.958125 218.38875 1.97875 2 2 C1.67 422.09 1.34 842.18 1 1275 C0.67 1275 0.34 1275 0 1275 C0 854.25 0 433.5 0 0 Z " fill="#EEE0CF" transform="translate(0,0)"/>
</svg>
