<?xml version="1.0" encoding="UTF-8"?>
<svg version="1.1" xmlns="http://www.w3.org/2000/svg" width="320" height="320">
<path d="M0 0 C1.08193811 0.85593326 2.16502217 1.71042317 3.25 2.5625 C6.86493211 5.76664437 9.91101201 9.29452609 13 13 C13.61746094 13.71800781 14.23492187 14.43601563 14.87109375 15.17578125 C38.68355569 43.68365822 48.75749065 79.74323076 45.79345703 116.56591797 C43.81303033 135.19840131 38.07555579 152.6676739 29 169 C28.50757813 169.90878906 28.01515625 170.81757813 27.5078125 171.75390625 C10.13268658 202.33216457 -20.08469258 225.10458774 -53.85791016 234.45068359 C-59.85126618 235.9876167 -65.88247555 237.09319881 -72 238 C-72.8765625 238.13148438 -73.753125 238.26296875 -74.65625 238.3984375 C-107.63427482 242.46572723 -144.37803261 233.40544445 -170.8125 213.0625 C-176.43094296 208.62406618 -181.78288663 203.90092468 -187 199 C-187.58910156 198.47535156 -188.17820313 197.95070313 -188.78515625 197.41015625 C-213.09723845 174.8223352 -225.37830058 139.58686801 -226.87646484 107.2722168 C-228.04447395 70.84130308 -215.0703356 35.88006201 -190.17211914 9.26367188 C-167.99961569 -13.86745373 -140.63616083 -28.30537591 -109 -33 C-108.13503906 -33.13148437 -107.27007812 -33.26296875 -106.37890625 -33.3984375 C-67.49565143 -38.25064805 -29.32429268 -25.36703519 0 0 Z M-117 67 C-117.9075 67.5775 -118.815 68.155 -119.75 68.75 C-129.4965545 78.4965545 -134.28704739 90.37946836 -134.31689453 104.00634766 C-134.11563426 114.35013182 -130.37422421 122.98181529 -124 131 C-123.52175781 131.61488281 -123.04351562 132.22976562 -122.55078125 132.86328125 C-115.27453197 141.12924706 -103.91104655 145.72821747 -93.1640625 146.91796875 C-80.83455802 147.23762257 -69.47270241 142.81021716 -60 135 C-51.60253126 126.07251351 -46.3903384 115.14507104 -45.86328125 102.796875 C-46.40061545 90.085083 -50.97689427 79.0072479 -60 70 C-76.89114279 55.18820531 -98.52628809 55.09897316 -117 67 Z " fill="#E7A870" transform="translate(250,59)"/>
<path d="M0 0 C0 0.33 0 0.66 0 1 C-5.06937957 0.88478683 -8.17761988 -0.53566138 -12.5 -3.1875 C-38.55648828 -19.00288095 -73.15292838 -23.41448765 -102.69287109 -16.58203125 C-123.23382803 -11.40005862 -141.83620605 -2.77897189 -158 11 C-158.90234375 11.763125 -159.8046875 12.52625 -160.734375 13.3125 C-180.25915494 30.35230795 -198.38884223 57.54783647 -201 84 C-202.91270847 115.93643539 -193.86100385 144.71521397 -173 169 C-151.94907627 192.62275604 -120.47240193 207.38427083 -89 210 C-73.49176355 210.65902994 -58.14230022 210.6379431 -43 207 C-42.3203418 206.8443457 -41.64068359 206.68869141 -40.94042969 206.52832031 C-17.88570407 201.08770913 1.96675955 189.23240093 19 173 C19.89912109 172.21302734 19.89912109 172.21302734 20.81640625 171.41015625 C35.60099252 157.92908339 44.3702722 137.04377873 49 118 C49.24621094 117.03320312 49.49242187 116.06640625 49.74609375 115.0703125 C52.69076424 101.05774257 51.70567803 85.16321933 50 71 C51.485 70.505 51.485 70.505 53 70 C63.24834736 107.85918613 60.38096412 145.53671902 40.7565918 179.89770508 C36.46833001 187.15398063 31.55843453 193.65320581 26 200 C25.03126953 201.16789062 25.03126953 201.16789062 24.04296875 202.359375 C2.84985297 227.39401279 -30.54290632 242.25651138 -62.75 245.75 C-64.4987252 245.85679238 -66.24907891 245.93901001 -68 246 C-69.59521484 246.07734375 -69.59521484 246.07734375 -71.22265625 246.15625 C-108.59286217 247.13218574 -143.08304931 232.91605766 -170.04321289 207.35986328 C-195.08708165 182.84029823 -209.22079381 148.80142688 -210.03125 113.84375 C-210.10498986 91.24248185 -205.18982233 70.13931865 -195 50 C-194.52240234 49.05302246 -194.52240234 49.05302246 -194.03515625 48.08691406 C-183.39439035 27.41247991 -167.20661221 10.85282817 -148 -2 C-146.55753906 -2.96873047 -146.55753906 -2.96873047 -145.0859375 -3.95703125 C-104.08086248 -29.54188791 -38.79767825 -31.94452711 0 0 Z " fill="#FEBB7F" transform="translate(235,50)"/>
<path d="M0 0 C3.53728251 2.81466623 6.80190526 5.80746717 10 9 C10.64839844 9.63679688 11.29679687 10.27359375 11.96484375 10.9296875 C21.96220043 21.47394553 26.59643131 35.49732958 26.4375 49.8125 C26.42992676 50.77518799 26.42235352 51.73787598 26.41455078 52.72973633 C26.23883234 60.355532 25.11741232 66.98337916 22 74 C21.59910156 74.92554688 21.19820313 75.85109375 20.78515625 76.8046875 C13.071297 92.59015021 -0.65186287 103.27479739 -17 109 C-30.93734241 113.75305461 -47.03350221 111.50021005 -60.18359375 105.5625 C-76.41055828 96.78432413 -86.97550719 83.37642967 -93 66 C-96.76220236 49.53443325 -94.34980061 32.76947768 -85.875 18.25 C-79.31483987 8.62555454 -70.30466258 -0.26780706 -59.6875 -5.125 C-58.61886719 -5.62257813 -57.55023438 -6.12015625 -56.44921875 -6.6328125 C-37.68828709 -14.06919538 -16.41695019 -11.34700969 0 0 Z M-61 25 C-61.9075 25.5775 -62.815 26.155 -63.75 26.75 C-73.4965545 36.4965545 -78.28704739 48.37946836 -78.31689453 62.00634766 C-78.11563426 72.35013182 -74.37422421 80.98181529 -68 89 C-67.52175781 89.61488281 -67.04351562 90.22976562 -66.55078125 90.86328125 C-59.27453197 99.12924706 -47.91104655 103.72821747 -37.1640625 104.91796875 C-24.83455802 105.23762257 -13.47270241 100.81021716 -4 93 C4.39746874 84.07251351 9.6096616 73.14507104 10.13671875 60.796875 C9.59938455 48.085083 5.02310573 37.0072479 -4 28 C-20.89114279 13.18820531 -42.52628809 13.09897316 -61 25 Z " fill="#FCC186" transform="translate(194,101)"/>
<path d="M0 0 C1.08193811 0.85593326 2.16502217 1.71042317 3.25 2.5625 C6.86493211 5.76664437 9.91101201 9.29452609 13 13 C13.61746094 13.71800781 14.23492187 14.43601563 14.87109375 15.17578125 C38.68355569 43.68365822 48.75749065 79.74323076 45.79345703 116.56591797 C43.81303033 135.19840131 38.07555579 152.6676739 29 169 C28.50757813 169.90878906 28.01515625 170.81757813 27.5078125 171.75390625 C10.13268658 202.33216457 -20.08469258 225.10458774 -53.85791016 234.45068359 C-59.85126618 235.9876167 -65.88247555 237.09319881 -72 238 C-72.8765625 238.13148438 -73.753125 238.26296875 -74.65625 238.3984375 C-107.63427482 242.46572723 -144.37803261 233.40544445 -170.8125 213.0625 C-176.43094296 208.62406618 -181.78288663 203.90092468 -187 199 C-187.58910156 198.47535156 -188.17820313 197.95070313 -188.78515625 197.41015625 C-213.09723845 174.8223352 -225.37830058 139.58686801 -226.87646484 107.2722168 C-228.04447395 70.84130308 -215.0703356 35.88006201 -190.17211914 9.26367188 C-167.99961569 -13.86745373 -140.63616083 -28.30537591 -109 -33 C-108.13503906 -33.13148437 -107.27007812 -33.26296875 -106.37890625 -33.3984375 C-67.49565143 -38.25064805 -29.32429268 -25.36703519 0 0 Z M-191.47265625 13.27441406 C-214.87301728 39.71203423 -226.57166989 75.03242456 -224.78125 110.15625 C-223.47163667 129.33781475 -218.67071971 146.86305869 -210 164 C-209.68160156 164.63131836 -209.36320312 165.26263672 -209.03515625 165.91308594 C-192.88974151 197.28275586 -164.20830494 219.96944778 -131 231 C-96.10969634 241.97718326 -58.63786939 237.78081601 -26.28515625 221.125 C-11.47864438 213.17357948 2.43437776 202.08124658 13 189 C13.69867188 188.13890625 14.39734375 187.2778125 15.1171875 186.390625 C37.33909256 157.94043513 47.34293076 122.69942751 43.5 86.7734375 C42.15573414 76.11990194 39.66037401 66.08246734 36 56 C35.63132812 54.9790625 35.26265625 53.958125 34.8828125 52.90625 C29.44157384 38.94665842 21.56484357 26.46298307 12 15 C11.22011719 14.05511719 10.44023437 13.11023438 9.63671875 12.13671875 C-13.4207821 -14.54356455 -47.34855105 -29.04484619 -82 -32 C-123.68049104 -34.79902234 -163.46127225 -17.19931728 -191.47265625 13.27441406 Z " fill="#563729" transform="translate(250,59)"/>
<path d="M0 0 C0 0.33 0 0.66 0 1 C-5.06937957 0.88478683 -8.17761988 -0.53566138 -12.5 -3.1875 C-38.55648828 -19.00288095 -73.15292838 -23.41448765 -102.69287109 -16.58203125 C-123.23382803 -11.40005862 -141.83620605 -2.77897189 -158 11 C-158.90234375 11.763125 -159.8046875 12.52625 -160.734375 13.3125 C-178.5116821 28.82724074 -191.01546946 48.99372157 -197.92285156 71.50537109 C-199.2103695 75.52430749 -200.24203143 77.90420984 -204 80 C-204.66 79.67 -205.32 79.34 -206 79 C-196.05123677 42.75450583 -174.1055362 14.13270028 -142.3125 -5.6875 C-100.90021074 -28.87392306 -38.45175951 -31.65971082 0 0 Z " fill="#FCCC90" transform="translate(235,50)"/>
<path d="M0 0 C5.0384245 1.4197092 8.90392655 3.59895849 13.1875 6.5 C13.84024902 6.93852295 14.49299805 7.3770459 15.16552734 7.82885742 C45.80242069 28.87719063 65.04109833 60.6904228 72.45703125 96.69140625 C77.58091878 127.91394393 72.34672587 159.38210667 57 187 C56.50757813 187.90878906 56.01515625 188.81757813 55.5078125 189.75390625 C42.53029622 212.59286851 22.97348627 229.79846552 0.0625 242.0625 C-1.27010864 242.77950073 -1.27010864 242.77950073 -2.62963867 243.51098633 C-7.49653615 246.02739616 -11.51651182 247.63443412 -17 248 C-15.28839495 244.57678991 -11.21544051 243.84941697 -7.8125 242.4375 C4.79755897 237.01317305 15.49983808 229.85715097 26 221 C26.63421875 220.48824219 27.2684375 219.97648438 27.921875 219.44921875 C52.49101009 199.28295964 67.06545743 166.1249732 70.68359375 135.09375 C72.505291 114.12606656 70.18032688 93.77814591 63 74 C62.63132812 72.9790625 62.26265625 71.958125 61.8828125 70.90625 C56.43679088 56.93438763 48.54545566 44.49102624 39 33 C38.29359375 32.12859375 37.5871875 31.2571875 36.859375 30.359375 C27.07853203 18.8397155 13.52916255 8.76458127 0 2 C0 1.34 0 0.68 0 0 Z " fill="#523326" transform="translate(222,41)"/>
<path d="M0 0 C5.71689119 1.4292228 9.56003458 4.29427011 14 8 C14.60070312 8.48082031 15.20140625 8.96164063 15.8203125 9.45703125 C21.98064914 14.91293478 28.43408211 25.59927355 29.17700195 34.00195312 C29.63781005 51.14181126 27.24671026 63.18280495 15.375 76.1875 C6.36743612 84.84928408 -5.46928536 88.4304377 -17.72705078 88.36352539 C-30.20826114 88.04199203 -40.30941445 83.4470807 -49.25390625 74.828125 C-53.52994335 70.26071888 -56.65569251 65.80980553 -59 60 C-58.67 59.34 -58.34 58.68 -58 58 C-57.57589844 58.6290625 -57.15179688 59.258125 -56.71484375 59.90625 C-47.69442046 73.07012048 -38.90797283 81.9544585 -22.859375 85.46875 C-10.17170834 87.4768699 1.6535087 82.82060721 11.9296875 75.6953125 C20.7686787 68.45734612 25.34479467 57.03470218 27 46 C27.53590572 33.44449449 23.54310433 21.85749129 15.3984375 12.29296875 C11.76860886 8.82275798 7.71641106 6.2047667 3.44140625 3.59375 C1 2 1 2 0 0 Z " fill="#8B6145" transform="translate(176,119)"/>
<path d="M0 0 C-0.33 0.66 -0.66 1.32 -1 2 C-4.40316366 0.90709211 -7.74987421 -0.27594979 -11.07421875 -1.5859375 C-31.09748262 -9.40531282 -49.98404082 -12.27645476 -71.42578125 -11.87304688 C-72.50214844 -11.86208984 -73.57851562 -11.85113281 -74.6875 -11.83984375 C-76.14736328 -11.81458618 -76.14736328 -11.81458618 -77.63671875 -11.78881836 C-80 -12 -80 -12 -82 -14 C-53.19177139 -17.65818776 -26.09451168 -12.18680424 0 0 Z " fill="#6C4E3A" transform="translate(223,40)"/>
<path d="M0 0 C0.75410156 0.00322266 1.50820312 0.00644531 2.28515625 0.00976562 C3.06246094 0.01814453 3.83976562 0.02652344 4.640625 0.03515625 C5.43339844 0.03966797 6.22617188 0.04417969 7.04296875 0.04882812 C8.99222008 0.0605706 10.94143238 0.07850479 12.890625 0.09765625 C12.890625 0.42765625 12.890625 0.75765625 12.890625 1.09765625 C11.60929687 1.23300781 10.32796875 1.36835937 9.0078125 1.5078125 C-3.17959189 2.96260198 -15.14357727 4.93634268 -24.109375 14.09765625 C-24.769375 14.09765625 -25.429375 14.09765625 -26.109375 14.09765625 C-26.38007812 14.66742188 -26.65078125 15.2371875 -26.9296875 15.82421875 C-28.14166631 18.15988653 -29.53739436 20.27594471 -30.984375 22.47265625 C-36.23407257 31.16225345 -38.41629815 41.04804198 -39.109375 51.09765625 C-39.439375 51.09765625 -39.769375 51.09765625 -40.109375 51.09765625 C-40.74314746 36.12184775 -37.44156153 23.65928797 -27.109375 12.34765625 C-20.09889378 5.70740487 -9.83330411 -0.07449473 0 0 Z " fill="#704B36" transform="translate(154.109375,115.90234375)"/>
<path d="M0 0 C0.66 0 1.32 0 2 0 C-3.98609077 14.68680409 -23.79161476 25.04473744 -36.9375 32.0625 C-37.8255835 32.54017822 -38.71366699 33.01785645 -39.62866211 33.51000977 C-44.49567607 36.02736741 -48.51603936 37.63440262 -54 38 C-52.28839495 34.57678991 -48.21544051 33.84941697 -44.8125 32.4375 C-32.20508745 27.01431143 -21.49415858 19.86089955 -11 11 C-9.99646484 10.18015625 -9.99646484 10.18015625 -8.97265625 9.34375 C-5.51595519 6.47899986 -2.80160915 3.52795226 0 0 Z " fill="#503125" transform="translate(259,251)"/>
<path d="M0 0 C0.99 0.33 1.98 0.66 3 1 C2.49210937 1.88558594 1.98421875 2.77117187 1.4609375 3.68359375 C-5.94956003 16.89958348 -10.61932407 30.51577417 -14.140625 45.21875 C-14.42421875 46.1365625 -14.7078125 47.054375 -15 48 C-15.99 48.495 -15.99 48.495 -17 49 C-15.25581812 31.97919063 -8.99915084 16.96738486 -1 2 C-0.67 1.34 -0.34 0.68 0 0 Z " fill="#5E4030" transform="translate(42,92)"/>
<path d="M0 0 C5.71689119 1.4292228 9.56003458 4.29427011 14 8 C14.60070312 8.48082031 15.20140625 8.96164063 15.8203125 9.45703125 C22.31904052 15.21263118 26.28182561 23.84547684 29 32 C29.0806622 33.48123547 29.10761193 34.96582204 29.09765625 36.44921875 C29.09443359 37.29677734 29.09121094 38.14433594 29.08789062 39.01757812 C29.07951172 39.89865234 29.07113281 40.77972656 29.0625 41.6875 C29.05798828 42.58017578 29.05347656 43.47285156 29.04882812 44.39257812 C29.03704983 46.59511987 29.02060164 48.79752599 29 51 C28.67 51 28.34 51 28 51 C27.91363281 49.85144531 27.82726562 48.70289063 27.73828125 47.51953125 C26.51075722 33.20975487 23.8055869 20.33042265 13 10 C9.89053237 7.70454933 6.73929185 5.607978 3.44140625 3.59375 C1 2 1 2 0 0 Z " fill="#7D563E" transform="translate(176,119)"/>
<path d="M0 0 C-25.75808711 7.42422313 -25.75808711 7.42422313 -37 7 C-36.67 6.34 -36.34 5.68 -36 5 C-34.02563477 4.45336914 -34.02563477 4.45336914 -31.44140625 4.03515625 C-30.49716797 3.87466797 -29.55292969 3.71417969 -28.58007812 3.54882812 C-27.58427734 3.38833984 -26.58847656 3.22785156 -25.5625 3.0625 C-18.86902073 1.97161102 -12.55883894 0.71387721 -6.17163086 -1.61157227 C-3.4526084 -2.09790894 -2.29676362 -1.44180455 0 0 Z " fill="#4F3124" transform="translate(207,290)"/>
<path d="M0 0 C0.33 0 0.66 0 1 0 C0.96970703 0.66942627 0.93941406 1.33885254 0.90820312 2.02856445 C0.76961388 5.12310249 0.63479001 8.21779424 0.5 11.3125 C0.45230469 12.36501953 0.40460937 13.41753906 0.35546875 14.50195312 C0.06091713 21.33975864 -0.06137276 28.15608461 0 35 C-0.99 35.495 -0.99 35.495 -2 36 C-4.13777778 6.992 -4.13777778 6.992 0 0 Z " fill="#543426" transform="translate(26,140)"/>
<path d="M0 0 C0.66 0 1.32 0 2 0 C0.96241625 2.62758477 -0.10196463 5.23693703 -1.21875 7.83203125 C-4.97475244 16.56931742 -7.1659478 24.5181434 -8 34 C-8.33 34 -8.66 34 -9 34 C-9.57349343 20.44856265 -6.83213795 11.63011185 0 0 Z " fill="#7C553D" transform="translate(123,133)"/>
<path d="M0 0 C9.57 0 19.14 0 29 0 C25.74874934 3.25125066 24.9302332 3.36097196 20.55273438 3.36523438 C19.85470703 3.34783203 19.15667969 3.33042969 18.4375 3.3125 C17.72529297 3.30412109 17.01308594 3.29574219 16.27929688 3.28710938 C10.70350915 3.16096033 5.39549639 2.45263364 0 1 C0 0.67 0 0.34 0 0 Z " fill="#6E4834" transform="translate(142,295)"/>
<path d="M0 0 C0 0.66 0 1.32 0 2 C-4.12426536 2.22512171 -8.24933849 2.42725588 -12.375 2.625 C-13.550625 2.68945312 -14.72625 2.75390625 -15.9375 2.8203125 C-17.61972656 2.89765625 -17.61972656 2.89765625 -19.3359375 2.9765625 C-20.37282715 3.02893066 -21.4097168 3.08129883 -22.47802734 3.13525391 C-25 3 -25 3 -27 1 C-17.98185679 -0.14516104 -9.0719352 -0.09471858 0 0 Z " fill="#7F5F46" transform="translate(168,25)"/>
<path d="M0 0 C-2.24801871 2.24801871 -3.14035425 2.42807085 -6.17578125 3.03515625 C-7.00400391 3.20466797 -7.83222656 3.37417969 -8.68554688 3.54882812 C-9.55244141 3.71833984 -10.41933594 3.88785156 -11.3125 4.0625 C-12.59543945 4.32256836 -12.59543945 4.32256836 -13.90429688 4.58789062 C-16.26816839 5.06579184 -18.63367376 5.53443186 -21 6 C-22.02480469 6.20496094 -23.04960938 6.40992188 -24.10546875 6.62109375 C-24.73066406 6.74613281 -25.35585937 6.87117188 -26 7 C-23.39747144 3.09620716 -20.70121654 2.82142709 -16.375 1.8125 C-15.68792969 1.63525391 -15.00085938 1.45800781 -14.29296875 1.27539062 C-9.42465937 0.09256499 -5.00585681 -0.16311219 0 0 Z " fill="#503427" transform="translate(143,27)"/>
<path d="M0 0 C0.99 0.33 1.98 0.66 3 1 C-0.96 9.91 -0.96 9.91 -5 19 C-5.66 18.01 -6.32 17.02 -7 16 C-6.58447266 14.19067383 -6.58447266 14.19067383 -5.6640625 12.20703125 C-5.18066406 11.1387207 -5.18066406 11.1387207 -4.6875 10.04882812 C-4.336875 9.31083984 -3.98625 8.57285156 -3.625 7.8125 C-3.28210938 7.06291016 -2.93921875 6.31332031 -2.5859375 5.54101562 C-1.73628745 3.68830649 -0.86971641 1.84337454 0 0 Z " fill="#603E2D" transform="translate(285,208)"/>
<path d="M0 0 C3.59277357 3.17822277 5.9838094 6.86577977 8.53515625 10.87890625 C9.88230343 12.82957536 11.26799667 14.39134409 13 16 C12.67 16.99 12.34 17.98 12 19 C0 6.41747573 0 6.41747573 0 0 Z " fill="#835B41" transform="translate(117,177)"/>
<path d="M0 0 C4.01771353 0.57705042 6.76367841 1.84521969 10.1875 4 C13.53293588 6.10889403 13.53293588 6.10889403 17 8 C16.67 8.99 16.34 9.98 16 11 C13.70325618 9.73769041 11.41285291 8.46574267 9.125 7.1875 C8.47402344 6.83107422 7.82304688 6.47464844 7.15234375 6.10742188 C3.93402097 4.29918897 2.0803217 3.12048255 0 0 Z " fill="#603E2D" transform="translate(81,272)"/>
<path d="M0 0 C6.95041086 -0.26618595 13.23514355 0.3879491 20 2 C20 2.66 20 3.32 20 4 C13.4 3.34 6.8 2.68 0 2 C0 1.34 0 0.68 0 0 Z " fill="#492E24" transform="translate(168,26)"/>
<path d="M0 0 C-3.64937023 2.30878525 -7.31433729 4.0618734 -11.3125 5.6875 C-12.91544922 6.34298828 -12.91544922 6.34298828 -14.55078125 7.01171875 C-15.35902344 7.33785156 -16.16726562 7.66398437 -17 8 C-17 7.01 -17 6.02 -17 5 C-14.73392948 3.96724659 -12.46318061 2.94866449 -10.1875 1.9375 C-9.22360352 1.49567383 -9.22360352 1.49567383 -8.24023438 1.04492188 C-3.33984375 -1.11328125 -3.33984375 -1.11328125 0 0 Z " fill="#634534" transform="translate(118,33)"/>
<path d="M0 0 C0.99 0.33 1.98 0.66 3 1 C4.04004769 3.5342007 4.89978397 5.95185202 5.6875 8.5625 C5.91244141 9.27341797 6.13738281 9.98433594 6.36914062 10.71679688 C6.92358017 12.47448819 7.46320189 14.23684098 8 16 C7.01 16 6.02 16 5 16 C4.16280617 13.70967689 3.3301071 11.41789043 2.5 9.125 C2.14228516 8.14853516 2.14228516 8.14853516 1.77734375 7.15234375 C0 2.2265625 0 2.2265625 0 0 Z " fill="#63402E" transform="translate(28,197)"/>
<path d="M0 0 C6.22987798 0.50512524 11.45474233 3.32604123 17 6 C16.67 6.66 16.34 7.32 16 8 C10.55123997 6.27933894 5.28830549 4.15294651 0 2 C0 1.34 0 0.68 0 0 Z " fill="#5B3E2E" transform="translate(206,34)"/>
<path d="M0 0 C2.2798997 2.2798997 2.93842768 3.86932037 3.11352539 7.0847168 C3.10828857 7.86500244 3.10305176 8.64528809 3.09765625 9.44921875 C3.09443359 10.29677734 3.09121094 11.14433594 3.08789062 12.01757812 C3.07951172 12.89865234 3.07113281 13.77972656 3.0625 14.6875 C3.05798828 15.58017578 3.05347656 16.47285156 3.04882812 17.39257812 C3.03704983 19.59511987 3.02060164 21.79752599 3 24 C2.67 24 2.34 24 2 24 C1.66252452 21.12543208 1.32989537 18.25043941 1 15.375 C0.90460938 14.56675781 0.80921875 13.75851563 0.7109375 12.92578125 C0.21746383 8.59026261 -0.11320717 4.37262689 0 0 Z " fill="#6E4A35" transform="translate(202,146)"/>
<path d="M0 0 C0.66 0 1.32 0 2 0 C2.67812114 1.8708878 3.3419946 3.74694293 4 5.625 C4.37125 6.66914062 4.7425 7.71328125 5.125 8.7890625 C6.00483564 12.01774506 6.15988262 14.67244294 6 18 C3.13367056 15.13367056 2.7684332 11.70683574 1.875 7.875 C1.69324219 7.12089844 1.51148438 6.36679688 1.32421875 5.58984375 C0.87645291 3.72808054 0.43739278 1.86422747 0 0 Z " fill="#4C2E23" transform="translate(286,115)"/>
<path d="M0 0 C0.33 0 0.66 0 1 0 C0.58411954 6.19518473 -0.60251894 11.26689311 -3 17 C-3.66 17 -4.32 17 -5 17 C-4.35841048 14.35307023 -3.71195217 11.70750071 -3.0625 9.0625 C-2.88009766 8.30775391 -2.69769531 7.55300781 -2.50976562 6.77539062 C-1.11328125 1.11328125 -1.11328125 1.11328125 0 0 Z " fill="#4F3024" transform="translate(291,191)"/>
<path d="M0 0 C1.796875 0.12109375 1.796875 0.12109375 4 1 C5.703125 3.72265625 5.703125 3.72265625 7.25 7.0625 C7.77078125 8.16722656 8.2915625 9.27195313 8.828125 10.41015625 C9.21484375 11.26480469 9.6015625 12.11945313 10 13 C9.34 13.66 8.68 14.32 8 15 C7.59007812 14.16855469 7.18015625 13.33710938 6.7578125 12.48046875 C6.21898437 11.39378906 5.68015625 10.30710938 5.125 9.1875 C4.59132812 8.10855469 4.05765625 7.02960938 3.5078125 5.91796875 C2.02778861 2.92161735 2.02778861 2.92161735 0 0 Z " fill="#94684A" transform="translate(193,133)"/>
<path d="M0 0 C-2.12209776 0.69640673 -4.24778527 1.38188357 -6.375 2.0625 C-8.15003906 2.63677734 -8.15003906 2.63677734 -9.9609375 3.22265625 C-13 4 -13 4 -15 3 C-14 1 -14 1 -11.85546875 0.078125 C-10.97503906 -0.19515625 -10.09460938 -0.4684375 -9.1875 -0.75 C-8.31480469 -1.03359375 -7.44210938 -1.3171875 -6.54296875 -1.609375 C-3.59945308 -2.06152794 -2.46323577 -1.58473909 0 0 Z " fill="#664330" transform="translate(207,290)"/>
<path d="M0 0 C0.66 0 1.32 0 2 0 C2.84069415 1.60032137 3.67231505 3.20541171 4.5 4.8125 C4.9640625 5.70582031 5.428125 6.59914062 5.90625 7.51953125 C7 10 7 10 7 13 C6.34 13 5.68 13 5 13 C4.16209211 11.21046815 3.32980604 9.41830305 2.5 7.625 C1.80390625 6.12839844 1.80390625 6.12839844 1.09375 4.6015625 C0 2 0 2 0 0 Z " fill="#573728" transform="translate(34,213)"/>
<path d="M0 0 C0.66 0 1.32 0 2 0 C0.52278578 3.45201639 -1.43794001 5.64961936 -4.125 8.25 C-4.84945312 8.95640625 -5.57390625 9.6628125 -6.3203125 10.390625 C-6.87460938 10.92171875 -7.42890625 11.4528125 -8 12 C-8.66 11.34 -9.32 10.68 -10 10 C-9.0925 9.278125 -8.185 8.55625 -7.25 7.8125 C-5.07692682 6.01868959 -3.53916537 4.42395671 -1.75 2.1875 C-1.1725 1.465625 -0.595 0.74375 0 0 Z " fill="#44281E" transform="translate(259,251)"/>
<path d="M0 0 C0.66 0.33 1.32 0.66 2 1 C-0.26949088 3.58227328 -2.25388153 4.71422992 -5.5 5.8125 C-6.2734375 6.08707031 -7.046875 6.36164063 -7.84375 6.64453125 C-10 7 -10 7 -13 5 C-12.14535156 4.72285156 -11.29070312 4.44570312 -10.41015625 4.16015625 C-9.30542969 3.79792969 -8.20070312 3.43570313 -7.0625 3.0625 C-5.96035156 2.70285156 -4.85820312 2.34320313 -3.72265625 1.97265625 C-1.11876525 1.26143332 -1.11876525 1.26143332 0 0 Z " fill="#976A4A" transform="translate(181,199)"/>
<path d="M0 0 C0.66 0.33 1.32 0.66 2 1 C-5.11389522 8.66742597 -5.11389522 8.66742597 -10 10 C-8.78934835 6.36804504 -7.46308874 5.57103808 -4.4375 3.3125 C-3.61121094 2.68988281 -2.78492188 2.06726563 -1.93359375 1.42578125 C-1.29550781 0.95527344 -0.65742188 0.48476562 0 0 Z " fill="#76503A" transform="translate(192,191)"/>
<path d="M0 0 C1.67110042 2.96178773 2.32682752 5.37071192 2.625 8.75 C2.69976562 9.54921875 2.77453125 10.3484375 2.8515625 11.171875 C2.90054687 11.77515625 2.94953125 12.3784375 3 13 C2.67 12.34 2.34 11.68 2 11 C1.34 11 0.68 11 0 11 C-0.19491452 9.54263913 -0.38069358 8.08405407 -0.5625 6.625 C-0.66691406 5.81289062 -0.77132813 5.00078125 -0.87890625 4.1640625 C-1 2 -1 2 0 0 Z " fill="#6B4632" transform="translate(292,131)"/>
<path d="M0 0 C4.92980953 2.00844092 8.09403383 5.64105074 11 10 C8 10 8 10 6.46484375 8.50390625 C5.96082031 7.86324219 5.45679688 7.22257812 4.9375 6.5625 C2.8328667 3.84124807 2.8328667 3.84124807 0 2 C0 1.34 0 0.68 0 0 Z " fill="#3C211A" transform="translate(250,61)"/>
<path d="M0 0 C-0.8125 1.9375 -0.8125 1.9375 -2 4 C-2.99 4.33 -3.98 4.66 -5 5 C-6.20882096 7.00016466 -6.20882096 7.00016466 -7 9 C-7.66 8.34 -8.32 7.68 -9 7 C-7.88121617 5.82737096 -6.75476949 4.66204862 -5.625 3.5 C-4.68527344 2.52546875 -4.68527344 2.52546875 -3.7265625 1.53125 C-2 0 -2 0 0 0 Z " fill="#674331" transform="translate(133,125)"/>
<path d="M0 0 C1.66832577 2.50248865 2.62381674 4.41149187 3.625 7.1875 C3.88539063 7.90292969 4.14578125 8.61835937 4.4140625 9.35546875 C4.60742188 9.89816406 4.80078125 10.44085938 5 11 C4.01 11 3.02 11 2 11 C1.47007308 9.54494642 0.9513211 8.08581873 0.4375 6.625 C0.14746094 5.81289062 -0.14257812 5.00078125 -0.44140625 4.1640625 C-1 2 -1 2 0 0 Z " fill="#5F3E2D" transform="translate(283,104)"/>
<path d="M0 0 C4.20626034 1.50223584 5.73900021 4.28550034 8 8 C4.82461668 7.65978036 3.97723135 6.97533396 1.75 4.5625 C0 2 0 2 0 0 Z " fill="#563D30" transform="translate(49,240)"/>
<path d="M0 0 C0.66 0 1.32 0 2 0 C0.7580393 3.43927579 -0.55740284 6.25207819 -3 9 C-3.66 9 -4.32 9 -5 9 C-3.7580393 5.56072421 -2.44259716 2.74792181 0 0 Z " fill="#4B3025" transform="translate(48,83)"/>
<path d="M0 0 C1.31471568 0.28151087 2.62675767 0.57553339 3.9375 0.875 C4.66839844 1.03742187 5.39929688 1.19984375 6.15234375 1.3671875 C8 2 8 2 9 4 C6.36 3.67 3.72 3.34 1 3 C0.67 2.01 0.34 1.02 0 0 Z " fill="#5E4131" transform="translate(188,28)"/>
<path d="M0 0 C-1.45255699 3.82946843 -3.42895561 5.12050295 -7 7 C-7 6.01 -7 5.02 -7 4 C-2.65714286 0 -2.65714286 0 0 0 Z " fill="#583829" transform="translate(250,262)"/>
<path d="M0 0 C0.99 0.495 0.99 0.495 2 1 C2.59355614 3.64860427 2.74209269 6.29197322 3 9 C1.5 7.875 1.5 7.875 0 6 C-0.1875 2.8125 -0.1875 2.8125 0 0 Z " fill="#492C21" transform="translate(27,189)"/>
<path d="M0 0 C3.26460973 1.80412643 4.88929795 2.83394693 7 6 C4 6 4 6 1.8125 4.125 C0 2 0 2 0 0 Z " fill="#4E2F23" transform="translate(244,55)"/>
</svg>
