<?xml version="1.0" encoding="UTF-8"?>
<svg version="1.1" xmlns="http://www.w3.org/2000/svg" width="1280" height="640">
<path d="M0 0 C422.4 0 844.8 0 1280 0 C1280 202.95 1280 405.9 1280 615 C1277.69 615 1275.38 615 1273 615 C1270.49830757 615.958403 1268.33873702 616.93354093 1266 618.1875 C1265.33882933 618.51824899 1264.67765865 618.84899798 1263.9964525 619.18976966 C1259.95490209 621.25928141 1256.33211058 623.43690104 1252.76769745 626.25592178 C1234.02200489 640.16908912 1212.05335451 637.84153707 1189.81032807 637.66387684 C1183.72637628 637.6297769 1177.64284321 637.6715743 1171.55894387 637.70337433 C1160.91192669 637.74865458 1150.26588182 637.74636298 1139.61890793 637.7111702 C1128.20504189 637.67366588 1116.791675 637.66469765 1105.37776947 637.68992043 C1104.29303015 637.69228857 1104.29303015 637.69228857 1103.1863769 637.69470456 C1100.24065803 637.70122932 1097.2949397 637.70795564 1094.34922188 637.71493723 C1066.96515227 637.77980044 1039.58142723 637.78104744 1012.19732285 637.74127388 C985.81260664 637.70298201 959.42805104 637.68644135 933.04330826 637.70066643 C931.38436751 637.70152663 929.72542676 637.70238307 928.06648601 637.70323577 C921.39944882 637.70668845 914.73241171 637.71026022 908.06537468 637.71399898 C889.42993215 637.7243622 870.79448951 637.73025128 852.15904427 637.73265743 C850.88627044 637.73282308 850.88627044 637.73282308 849.58778401 637.73299207 C822.56221277 637.7361848 795.5366907 637.71963184 768.51113701 637.68945408 C767.63495955 637.6884784 766.7587821 637.68750272 765.85605381 637.68649748 C751.62863088 637.67059543 737.40120914 637.65368552 723.17378747 637.63669685 C666.74546154 637.56938542 610.31749896 637.56523021 553.88916016 637.61938477 C539.66643237 637.63298101 525.44370452 637.64646651 511.22097588 637.65913486 C510.34516748 637.65991827 509.46935908 637.66070167 508.56701103 637.6615088 C481.56712376 637.68548913 454.56726656 637.69451253 427.56736946 637.68717098 C426.29557767 637.68682579 426.29557767 637.68682579 424.99809311 637.68647362 C406.38437606 637.68124517 387.77066235 637.67211226 369.15694891 637.65947326 C362.49660108 637.65496199 355.83625313 637.65063087 349.17590515 637.64634203 C347.51906847 637.6452665 345.86223179 637.64417448 344.20539512 637.64306591 C319.46533795 637.62653701 294.72540851 637.63607898 269.9853631 637.66339929 C269.17512183 637.66429352 268.36488056 637.66518776 267.53008652 637.66610909 C266.7213478 637.66700175 265.91260907 637.66789441 265.07936312 637.66881412 C237.77444245 637.69857052 210.46987216 637.68267942 183.16501342 637.61568809 C180.2298188 637.60865498 177.2946238 637.60180786 174.35942841 637.59510612 C173.63910709 637.59344332 172.91878577 637.59178051 172.17663654 637.59006731 C160.79533322 637.56485917 149.41445318 637.57962413 138.03318064 637.61120102 C126.82766066 637.64142903 115.62286127 637.62741732 104.41738637 637.57019593 C98.42912846 637.54082162 92.44248368 637.53005545 86.45426689 637.57242233 C41.76682502 637.86551043 41.76682502 637.86551043 26.77105428 625.38733875 C24.04094102 623.24873015 21.13123957 621.90988058 17.98828125 620.45703125 C17.02728516 620.00392578 16.06628906 619.55082031 15.07617188 619.08398438 C14.16416016 618.66439453 13.25214844 618.24480469 12.3125 617.8125 C11.32701172 617.35037109 10.34152344 616.88824219 9.32617188 616.41210938 C7.55436205 615.58168784 5.78094152 614.75468407 4.00512695 613.93286133 C2.66108631 613.3075625 1.32587899 612.66293949 0 612 C0 410.04 0 208.08 0 0 Z " fill="#FEF1DF" transform="translate(0,0)"/>
<path d="M0 0 C422.4 0 844.8 0 1280 0 C1280 202.95 1280 405.9 1280 615 C1277.69 615 1275.38 615 1273 615 C1270.49830757 615.958403 1268.33873702 616.93354093 1266 618.1875 C1265.33882933 618.51824899 1264.67765865 618.84899798 1263.9964525 619.18976966 C1259.95490209 621.25928141 1256.33211058 623.43690104 1252.76769745 626.25592178 C1234.02200489 640.16908912 1212.05335451 637.84153707 1189.81032807 637.66387684 C1183.72637628 637.6297769 1177.64284321 637.6715743 1171.55894387 637.70337433 C1160.91192669 637.74865458 1150.26588182 637.74636298 1139.61890793 637.7111702 C1128.20504189 637.67366588 1116.791675 637.66469765 1105.37776947 637.68992043 C1104.29303015 637.69228857 1104.29303015 637.69228857 1103.1863769 637.69470456 C1100.24065803 637.70122932 1097.2949397 637.70795564 1094.34922188 637.71493723 C1066.96515227 637.77980044 1039.58142723 637.78104744 1012.19732285 637.74127388 C985.81260664 637.70298201 959.42805104 637.68644135 933.04330826 637.70066643 C931.38436751 637.70152663 929.72542676 637.70238307 928.06648601 637.70323577 C921.39944882 637.70668845 914.73241171 637.71026022 908.06537468 637.71399898 C889.42993215 637.7243622 870.79448951 637.73025128 852.15904427 637.73265743 C850.88627044 637.73282308 850.88627044 637.73282308 849.58778401 637.73299207 C822.56221277 637.7361848 795.5366907 637.71963184 768.51113701 637.68945408 C767.63495955 637.6884784 766.7587821 637.68750272 765.85605381 637.68649748 C751.62863088 637.67059543 737.40120914 637.65368552 723.17378747 637.63669685 C666.74546154 637.56938542 610.31749896 637.56523021 553.88916016 637.61938477 C539.66643237 637.63298101 525.44370452 637.64646651 511.22097588 637.65913486 C510.34516748 637.65991827 509.46935908 637.66070167 508.56701103 637.6615088 C481.56712376 637.68548913 454.56726656 637.69451253 427.56736946 637.68717098 C426.29557767 637.68682579 426.29557767 637.68682579 424.99809311 637.68647362 C406.38437606 637.68124517 387.77066235 637.67211226 369.15694891 637.65947326 C362.49660108 637.65496199 355.83625313 637.65063087 349.17590515 637.64634203 C347.51906847 637.6452665 345.86223179 637.64417448 344.20539512 637.64306591 C319.46533795 637.62653701 294.72540851 637.63607898 269.9853631 637.66339929 C269.17512183 637.66429352 268.36488056 637.66518776 267.53008652 637.66610909 C266.7213478 637.66700175 265.91260907 637.66789441 265.07936312 637.66881412 C237.77444245 637.69857052 210.46987216 637.68267942 183.16501342 637.61568809 C180.2298188 637.60865498 177.2946238 637.60180786 174.35942841 637.59510612 C173.63910709 637.59344332 172.91878577 637.59178051 172.17663654 637.59006731 C160.79533322 637.56485917 149.41445318 637.57962413 138.03318064 637.61120102 C126.82766066 637.64142903 115.62286127 637.62741732 104.41738637 637.57019593 C98.42912846 637.54082162 92.44248368 637.53005545 86.45426689 637.57242233 C41.76682502 637.86551043 41.76682502 637.86551043 26.77105428 625.38733875 C24.04094102 623.24873015 21.13123957 621.90988058 17.98828125 620.45703125 C17.02728516 620.00392578 16.06628906 619.55082031 15.07617188 619.08398438 C14.16416016 618.66439453 13.25214844 618.24480469 12.3125 617.8125 C11.32701172 617.35037109 10.34152344 616.88824219 9.32617188 616.41210938 C7.55436205 615.58168784 5.78094152 614.75468407 4.00512695 613.93286133 C2.66108631 613.3075625 1.32587899 612.66293949 0 612 C0 410.04 0 208.08 0 0 Z M6 4 C6 203.32 6 402.64 6 608 C423.45 608 840.9 608 1271 608 C1271 408.68 1271 209.36 1271 4 C853.55 4 436.1 4 6 4 Z " fill="#DEC7AC" transform="translate(0,0)"/>
<path d="M0 0 C422.4 0 844.8 0 1280 0 C1280 202.95 1280 405.9 1280 615 C1277.69 615 1275.38 615 1273 615 C1270.49830757 615.958403 1268.33873702 616.93354093 1266 618.1875 C1265.33882933 618.51824899 1264.67765865 618.84899798 1263.9964525 619.18976966 C1259.95490209 621.25928141 1256.33211058 623.43690104 1252.76769745 626.25592178 C1234.02200489 640.16908912 1212.05335451 637.84153707 1189.81032807 637.66387684 C1183.72637628 637.6297769 1177.64284321 637.6715743 1171.55894387 637.70337433 C1160.91192669 637.74865458 1150.26588182 637.74636298 1139.61890793 637.7111702 C1128.20504189 637.67366588 1116.791675 637.66469765 1105.37776947 637.68992043 C1104.29303015 637.69228857 1104.29303015 637.69228857 1103.1863769 637.69470456 C1100.24065803 637.70122932 1097.2949397 637.70795564 1094.34922188 637.71493723 C1066.96515227 637.77980044 1039.58142723 637.78104744 1012.19732285 637.74127388 C985.81260664 637.70298201 959.42805104 637.68644135 933.04330826 637.70066643 C931.38436751 637.70152663 929.72542676 637.70238307 928.06648601 637.70323577 C921.39944882 637.70668845 914.73241171 637.71026022 908.06537468 637.71399898 C889.42993215 637.7243622 870.79448951 637.73025128 852.15904427 637.73265743 C850.88627044 637.73282308 850.88627044 637.73282308 849.58778401 637.73299207 C822.56221277 637.7361848 795.5366907 637.71963184 768.51113701 637.68945408 C767.63495955 637.6884784 766.7587821 637.68750272 765.85605381 637.68649748 C751.62863088 637.67059543 737.40120914 637.65368552 723.17378747 637.63669685 C666.74546154 637.56938542 610.31749896 637.56523021 553.88916016 637.61938477 C539.66643237 637.63298101 525.44370452 637.64646651 511.22097588 637.65913486 C510.34516748 637.65991827 509.46935908 637.66070167 508.56701103 637.6615088 C481.56712376 637.68548913 454.56726656 637.69451253 427.56736946 637.68717098 C426.29557767 637.68682579 426.29557767 637.68682579 424.99809311 637.68647362 C406.38437606 637.68124517 387.77066235 637.67211226 369.15694891 637.65947326 C362.49660108 637.65496199 355.83625313 637.65063087 349.17590515 637.64634203 C347.51906847 637.6452665 345.86223179 637.64417448 344.20539512 637.64306591 C319.46533795 637.62653701 294.72540851 637.63607898 269.9853631 637.66339929 C269.17512183 637.66429352 268.36488056 637.66518776 267.53008652 637.66610909 C266.7213478 637.66700175 265.91260907 637.66789441 265.07936312 637.66881412 C237.77444245 637.69857052 210.46987216 637.68267942 183.16501342 637.61568809 C180.2298188 637.60865498 177.2946238 637.60180786 174.35942841 637.59510612 C173.63910709 637.59344332 172.91878577 637.59178051 172.17663654 637.59006731 C160.79533322 637.56485917 149.41445318 637.57962413 138.03318064 637.61120102 C126.82766066 637.64142903 115.62286127 637.62741732 104.41738637 637.57019593 C98.42912846 637.54082162 92.44248368 637.53005545 86.45426689 637.57242233 C41.76682502 637.86551043 41.76682502 637.86551043 26.77105428 625.38733875 C24.04094102 623.24873015 21.13123957 621.90988058 17.98828125 620.45703125 C17.02728516 620.00392578 16.06628906 619.55082031 15.07617188 619.08398438 C14.16416016 618.66439453 13.25214844 618.24480469 12.3125 617.8125 C11.32701172 617.35037109 10.34152344 616.88824219 9.32617188 616.41210938 C7.55436205 615.58168784 5.78094152 614.75468407 4.00512695 613.93286133 C2.66108631 613.3075625 1.32587899 612.66293949 0 612 C0 410.04 0 208.08 0 0 Z M6 4 C6 203.32 6 402.64 6 608 C423.45 608 840.9 608 1271 608 C1271 408.68 1271 209.36 1271 4 C853.55 4 436.1 4 6 4 Z M12 611 C14.93922466 613.93922466 17.12569597 615.24341331 20.8046875 617.06640625 C21.94550781 617.63423828 23.08632813 618.20207031 24.26171875 618.78710938 C24.8551709 619.0786792 25.44862305 619.37024902 26.06005859 619.6706543 C27.8647775 620.55747676 29.66511986 621.45270022 31.46484375 622.34960938 C37.36796689 625.33275012 37.36796689 625.33275012 43.44189453 627.93334961 C46 629 46 629 49.13708619 631.03496877 C53.12536979 633.32147907 56.8383649 633.56107805 61.36472642 633.50714999 C62.59578168 633.51649563 62.59578168 633.51649563 63.85170673 633.52603006 C66.60722763 633.54205983 69.36187727 633.52960482 72.11740685 633.51733112 C74.11918787 633.52302032 76.12096455 633.53045803 78.12273329 633.53948793 C83.6482997 633.55928472 89.17360705 633.5540554 94.69919097 633.54487702 C100.70135904 633.53925836 106.70346668 633.55668085 112.70561373 633.57117957 C123.23363404 633.59336686 133.76159397 633.60067145 144.28963089 633.59794617 C155.58752817 633.59507642 166.88537156 633.60081914 178.18325806 633.61707115 C178.8966014 633.61809024 179.60994474 633.61910934 180.34490455 633.62015931 C183.2502172 633.6243342 186.15552976 633.62856392 189.06084223 633.63286499 C219.37982934 633.67767937 249.69879043 633.69394447 280.01780705 633.69997636 C283.28214378 633.70062956 286.54648051 633.70129128 289.81081724 633.70195985 C290.6208654 633.70212292 291.43091356 633.70228599 292.26550864 633.702454 C310.2125536 633.70617584 328.15959255 633.71671347 346.10663387 633.72836885 C353.49570492 633.73314904 360.88477608 633.73776014 368.27384722 633.742387 C369.49848621 633.74315513 369.49848621 633.74315513 370.74786538 633.74393879 C417.53977043 633.77321371 464.3316721 633.79331733 511.12358665 633.79483509 C512.87502241 633.79489816 514.62645817 633.7949617 516.37789392 633.79502571 C524.28553913 633.79530668 532.19318434 633.79553572 540.10082955 633.7957563 C543.62706834 633.79585565 547.15330714 633.79596025 550.67954593 633.79606574 C552.44449349 633.79611697 554.20944104 633.79616533 555.9743886 633.79621081 C611.77285556 633.79766446 667.57120043 633.83401549 723.36962891 633.89868164 C737.42541146 633.91496564 751.48119414 633.93110193 765.53697777 633.94643116 C766.40245546 633.94737508 767.26793315 633.948319 768.15963744 633.94929153 C794.83777519 633.97821357 821.515903 633.99612475 848.19405556 634.00287151 C849.03174987 634.00308485 849.86944417 634.00329819 850.73252316 634.00351799 C869.12278487 634.00809706 887.51304603 634.01003647 905.90330828 634.00953545 C912.4839209 634.00938217 919.06453351 634.00943503 925.64514612 634.00959251 C927.2822337 634.00963033 928.91932129 634.00965804 930.55640887 634.00967559 C956.63479692 634.01006631 982.71307191 634.03711939 1008.79142591 634.07759453 C1035.06257031 634.11817741 1061.33356446 634.12976297 1087.60473008 634.10189102 C1091.23739691 634.0980389 1094.87006399 634.09449837 1098.50273132 634.09114265 C1099.57085596 634.09013731 1099.57085596 634.09013731 1100.66055887 634.08911166 C1111.9224569 634.07933012 1123.18408869 634.0997048 1134.44593402 634.13272958 C1145.52793507 634.16459414 1156.60962348 634.16343445 1167.69164142 634.12978299 C1173.61665674 634.11271465 1179.54073638 634.10979963 1185.46568255 634.14666376 C1190.86202411 634.17994958 1196.25666091 634.1713855 1201.65293338 634.13022509 C1203.5871003 634.12266002 1205.52140158 634.1299872 1207.45542764 634.15452519 C1220.43354501 634.30815257 1229.13501054 631.93891854 1240.16565211 625.06920917 C1243.00263233 623.41558323 1245.95709449 622.2291102 1249 621 C1251.79491128 619.69350663 1254.552574 618.31618407 1257.3125 616.9375 C1258.02728516 616.58623047 1258.74207031 616.23496094 1259.47851562 615.87304688 C1263.52969663 613.85889867 1263.52969663 613.85889867 1267 611 C852.85 611 438.7 611 12 611 Z " fill="#4E362F" transform="translate(0,0)"/>
<path d="M0 0 C419.1 0 838.2 0 1270 0 C1270 0.33 1270 0.66 1270 1 C852.55 1 435.1 1 5 1 C5 200.98 5 400.96 5 607 C421.79 607 838.58 607 1268 607 C1268 607.33 1268 607.66 1268 608 C852.86 608 437.72 608 10 608 C10 608.66 10 609.32 10 610 C10.85851563 610.26554688 11.71703125 610.53109375 12.6015625 610.8046875 C16.02910808 612.01023801 19.14173798 613.47244386 22.375 615.125 C23.96441406 615.93324219 23.96441406 615.93324219 25.5859375 616.7578125 C26.38257812 617.16773438 27.17921875 617.57765625 28 618 C28 618.66 28 619.32 28 620 C21.73455137 621.53572926 18.47792598 620.32860016 12.9375 617.25 C12.25623047 616.8890625 11.57496094 616.528125 10.87304688 616.15625 C9.59048783 615.47616105 8.31180635 614.78866001 7.03881836 614.09082031 C4.38779117 612.67245251 1.68919503 611.34459751 -1 610 C-0.505 308.05 -0.505 308.05 0 0 Z " fill="#3C241E" transform="translate(1,2)"/>
<path d="M0 0 C422.4 0 844.8 0 1280 0 C1280 202.95 1280 405.9 1280 615 C1278.35 614.67 1276.7 614.34 1275 614 C1275.33 612.68 1275.66 611.36 1276 610 C1276 409.69 1276 209.38 1276 3 C855.25 2.67 434.5 2.34 1 2 C1 202.31 1 402.62 1 609 C0.67 609 0.34 609 0 609 C0 408.03 0 207.06 0 0 Z " fill="#C9B8AA" transform="translate(0,0)"/>
<path d="M0 0 C0 0.66 0 1.32 0 2 C0.99 2.33 1.98 2.66 3 3 C1.34089436 6.31821128 -2.0233862 7.2884492 -5.24394589 8.94878843 C-8.0110458 10.41640048 -10.64932617 12.02398331 -13.29154758 13.70528886 C-25.76396093 21.43382669 -35.43609553 23.59510474 -49.95014668 23.38983917 C-51.99257756 23.40195221 -54.03498446 23.41887336 -56.07734093 23.44010293 C-61.65575277 23.48430424 -67.23207232 23.46078986 -72.81047063 23.42554582 C-78.89204074 23.39932375 -84.97328153 23.43712719 -91.05479068 23.46655416 C-101.70227428 23.50927607 -112.34907847 23.51163616 -122.99655914 23.4862175 C-134.41326608 23.45914392 -145.82960693 23.45611633 -157.24632072 23.48199844 C-157.96919324 23.4836203 -158.69206575 23.48524216 -159.43684349 23.48691317 C-162.38131897 23.49359639 -165.325794 23.5004462 -168.27026859 23.50750803 C-197.29357622 23.57705153 -226.31661225 23.5815961 -255.33997616 23.55605655 C-260.28072216 23.55170919 -265.22146825 23.54747884 -270.16221452 23.54344368 C-270.98053934 23.54277526 -271.79886416 23.54210683 -272.6419867 23.54141816 C-291.62606334 23.52644276 -310.61010841 23.53637466 -329.59418297 23.54985046 C-331.25303884 23.55099681 -332.91189471 23.55213871 -334.57075058 23.55327618 C-341.23739922 23.55785863 -347.90404781 23.5625058 -354.57069633 23.56726101 C-373.20587257 23.58045963 -391.84104981 23.58979687 -410.47622967 23.59603119 C-411.32477158 23.59631522 -412.17331349 23.59659925 -413.04756879 23.59689189 C-440.0780074 23.60564443 -467.10841266 23.59709173 -494.13884449 23.57700348 C-495.01529513 23.57635562 -495.89174578 23.57570777 -496.79475553 23.57504028 C-511.02681101 23.56448412 -525.25886592 23.55318251 -539.49092076 23.5418051 C-595.92579761 23.4967449 -652.3603184 23.51340095 -708.79516602 23.58496094 C-723.01655177 23.6029545 -737.23793767 23.62079321 -751.45932484 23.63764191 C-752.77291906 23.63920158 -752.77291906 23.63920158 -754.11305053 23.64079276 C-781.11316762 23.672641 -808.11325498 23.68838717 -835.11339092 23.68700409 C-835.96134641 23.68696173 -836.80930189 23.68691937 -837.682953 23.68687573 C-856.29943837 23.68576977 -874.91592093 23.68058847 -893.53240417 23.67171094 C-900.19396004 23.66855586 -906.85551602 23.66563401 -913.51707204 23.66279708 C-915.17421345 23.66208475 -916.83135484 23.66135577 -918.48849623 23.66061007 C-944.8648331 23.64881819 -971.2409797 23.67301765 -997.61728148 23.714569 C-1024.92814201 23.7572268 -1052.23861358 23.75112375 -1079.54944424 23.69016308 C-1082.48612114 23.68379331 -1085.42279841 23.67762937 -1088.35947609 23.67162704 C-1089.08015815 23.67013501 -1089.8008402 23.66864297 -1090.54336111 23.66710572 C-1101.92487378 23.64470508 -1113.30586947 23.66564592 -1124.68731902 23.70489047 C-1135.89648335 23.74261309 -1147.10482388 23.73234305 -1158.3139775 23.67537941 C-1164.30295828 23.64625656 -1170.29003386 23.63721976 -1176.2789304 23.68594795 C-1222.56046052 24.03741457 -1222.56046052 24.03741457 -1240 9 C-1240 8.67 -1240 8.34 -1240 8 C-1233.50080888 6.43537992 -1230.183453 7.41191422 -1224.39453125 10.67578125 C-1222.05533321 12.03936726 -1222.05533321 12.03936726 -1219.63671875 12.91796875 C-1217 14 -1217 14 -1213.85800048 16.03593008 C-1209.8719182 18.32290082 -1206.15979155 18.56105609 -1201.63527358 18.50714999 C-1200.40421832 18.51649563 -1200.40421832 18.51649563 -1199.14829327 18.52603006 C-1196.39277237 18.54205983 -1193.63812273 18.52960482 -1190.88259315 18.51733112 C-1188.88081213 18.52302032 -1186.87903545 18.53045803 -1184.87726671 18.53948793 C-1179.3517003 18.55928472 -1173.82639295 18.5540554 -1168.30080903 18.54487702 C-1162.29864096 18.53925836 -1156.29653332 18.55668085 -1150.29438627 18.57117957 C-1139.76636596 18.59336686 -1129.23840603 18.60067145 -1118.71036911 18.59794617 C-1107.41247183 18.59507642 -1096.11462844 18.60081914 -1084.81674194 18.61707115 C-1084.1033986 18.61809024 -1083.39005526 18.61910934 -1082.65509545 18.62015931 C-1079.7497828 18.6243342 -1076.84447024 18.62856392 -1073.93915777 18.63286499 C-1043.62017066 18.67767937 -1013.30120957 18.69394447 -982.98219295 18.69997636 C-979.71785622 18.70062956 -976.45351949 18.70129128 -973.18918276 18.70195985 C-972.3791346 18.70212292 -971.56908644 18.70228599 -970.73449136 18.702454 C-952.7874464 18.70617584 -934.84040745 18.71671347 -916.89336613 18.72836885 C-909.50429508 18.73314904 -902.11522392 18.73776014 -894.72615278 18.742387 C-893.50151379 18.74315513 -893.50151379 18.74315513 -892.25213462 18.74393879 C-845.46022957 18.77321371 -798.6683279 18.79331733 -751.87641335 18.79483509 C-750.12497759 18.79489816 -748.37354183 18.7949617 -746.62210608 18.79502571 C-738.71446087 18.79530668 -730.80681566 18.79553572 -722.89917045 18.7957563 C-719.37293166 18.79585565 -715.84669286 18.79596025 -712.32045407 18.79606574 C-710.55550651 18.79611697 -708.79055896 18.79616533 -707.0256114 18.79621081 C-651.22714444 18.79766446 -595.42879957 18.83401549 -539.63037109 18.89868164 C-525.57458854 18.91496564 -511.51880586 18.93110193 -497.46302223 18.94643116 C-496.59754454 18.94737508 -495.73206685 18.948319 -494.84036256 18.94929153 C-468.16222481 18.97821357 -441.484097 18.99612475 -414.80594444 19.00287151 C-413.96825013 19.00308485 -413.13055583 19.00329819 -412.26747684 19.00351799 C-393.87721513 19.00809706 -375.48695397 19.01003647 -357.09669172 19.00953545 C-350.5160791 19.00938217 -343.93546649 19.00943503 -337.35485388 19.00959251 C-335.7177663 19.00963033 -334.08067871 19.00965804 -332.44359113 19.00967559 C-306.36520308 19.01006631 -280.28692809 19.03711939 -254.20857409 19.07759453 C-227.93742969 19.11817741 -201.66643554 19.12976297 -175.39526992 19.10189102 C-171.76260309 19.0980389 -168.12993601 19.09449837 -164.49726868 19.09114265 C-163.42914404 19.09013731 -163.42914404 19.09013731 -162.33944113 19.08911166 C-151.0775431 19.07933012 -139.81591131 19.0997048 -128.55406598 19.13272958 C-117.47206493 19.16459414 -106.39037652 19.16343445 -95.30835858 19.12978299 C-89.38334326 19.11271465 -83.45926362 19.10979963 -77.53431745 19.14666376 C-72.13797589 19.17994958 -66.74333909 19.1713855 -61.34706662 19.13022509 C-59.4128997 19.12266002 -57.47859842 19.1299872 -55.54457236 19.15452519 C-42.56396557 19.30818204 -33.86340875 16.93668541 -22.83041589 10.06701286 C-19.99572251 8.41457185 -17.0376246 7.23614557 -14 6 C-10.8409567 4.43381568 -7.70798704 2.82306483 -4.57421875 1.20703125 C-2 0 -2 0 0 0 Z " fill="#483029" transform="translate(1263,614)"/>
<path d="M0 0 C0.99 0 1.98 0 3 0 C3 202.95 3 405.9 3 615 C1.35 614.67 -0.3 614.34 -2 614 C-1.75654076 613.14637658 -1.75654076 613.14637658 -1.50816316 612.27550824 C-0.99215618 609.9648761 -0.87278359 607.95611046 -0.86938947 605.59186816 C-0.86386841 604.26680766 -0.86386841 604.26680766 -0.85823581 602.91497827 C-0.85925847 601.9468356 -0.86028114 600.97869294 -0.8613348 599.98121262 C-0.85849258 598.94668929 -0.85565036 597.91216597 -0.85272202 596.84629345 C-0.84434563 593.35119537 -0.8431045 589.85613031 -0.84178162 586.36102295 C-0.83721827 583.8414417 -0.83221859 581.32186121 -0.82681805 578.80228162 C-0.81605045 573.30957971 -0.80838553 567.81688677 -0.80341911 562.32417679 C-0.79601755 554.15668007 -0.78293543 545.98919942 -0.76867336 537.82171216 C-0.74484566 524.08366817 -0.7256487 510.34562133 -0.70907402 496.60756683 C-0.69264354 483.00152953 -0.67416523 469.39549756 -0.65294075 455.78946686 C-0.65162314 454.94407028 -0.65030554 454.0986737 -0.648948 453.22765905 C-0.64224609 448.93446744 -0.63550748 444.64127589 -0.62875474 440.34808436 C-0.58096812 409.92476974 -0.53778987 379.50145015 -0.49731445 349.078125 C-0.45797808 319.51887653 -0.41655884 289.95963218 -0.37231445 260.40039062 C-0.37095192 259.48954262 -0.36958939 258.57869462 -0.36818558 257.64024517 C-0.35450042 248.49328963 -0.34077286 239.34633416 -0.32701423 230.19937874 C-0.29898629 211.56531292 -0.2712414 192.93124668 -0.2436676 174.29718018 C-0.2423994 173.44038109 -0.2411312 172.58358201 -0.23982458 171.70081932 C-0.15514219 114.46721957 -0.07707887 57.23361043 0 0 Z " fill="#FEF1DF" transform="translate(1277,0)"/>
<path d="M0 0 C-2.64500163 1.56392174 -5.29097447 3.12616067 -7.9375 4.6875 C-9.04061523 5.34008789 -9.04061523 5.34008789 -10.16601562 6.00585938 C-10.90400391 6.44091797 -11.64199219 6.87597656 -12.40234375 7.32421875 C-13.06741943 7.71697998 -13.73249512 8.10974121 -14.41772461 8.5144043 C-15.69595093 9.24977417 -15.69595093 9.24977417 -17 10 C-17.75833091 10.60188118 -17.75833091 10.60188118 -18.53198164 11.21592157 C-26.6009635 16.87679515 -36.17962512 15.70095528 -45.59662056 15.6515522 C-47.62620723 15.65919775 -49.65578664 15.66902597 -51.68535334 15.68083698 C-57.2788684 15.70700029 -62.87199115 15.70197502 -68.4655425 15.69194866 C-74.54491129 15.68649311 -80.62418015 15.70983563 -86.70351017 15.72949207 C-97.36413662 15.75990787 -108.02464122 15.77173536 -118.68529892 15.77098465 C-130.12428072 15.77024328 -141.56317689 15.78025646 -153.00213623 15.80335236 C-153.72469313 15.80480206 -154.44725002 15.80625177 -155.19170259 15.80774541 C-158.13460345 15.81367873 -161.07750417 15.81967811 -164.02040473 15.8257641 C-195.5489775 15.89085638 -227.07751701 15.91731233 -258.60614831 15.9316815 C-260.25881991 15.93243476 -261.91149151 15.93318938 -263.56416311 15.93394536 C-265.22024987 15.93470225 -266.87633663 15.9354544 -268.5324234 15.93620181 C-286.71017205 15.94451092 -304.88791081 15.96079708 -323.06565267 15.97821614 C-330.55127812 15.98535829 -338.0369038 15.99226144 -345.52252948 15.99915683 C-346.76320126 16.00030006 -346.76320126 16.00030006 -348.02893712 16.00146638 C-395.431086 16.04501388 -442.83323044 16.07645809 -490.23539925 16.08421516 C-492.00950411 16.08451482 -493.78360898 16.08481559 -495.55771385 16.08511747 C-502.67562038 16.08632301 -509.79352691 16.08748759 -516.91143344 16.08864945 C-521.37515575 16.08937841 -525.83887806 16.09011815 -530.30260036 16.09086394 C-532.0903344 16.09116041 -533.87806844 16.09145263 -535.66580248 16.09174059 C-592.17428158 16.10086062 -648.68252296 16.15870007 -705.19091797 16.25537109 C-747.33100744 16.32745175 -789.47105086 16.39530594 -831.61120415 16.41308403 C-832.88424484 16.41362457 -832.88424484 16.41362457 -834.18300353 16.41417603 C-852.81623748 16.42194064 -871.44947051 16.4259303 -890.08270601 16.42642103 C-896.75057853 16.42663657 -903.41845102 16.42715946 -910.08632351 16.42784333 C-911.74508472 16.42801218 -913.40384594 16.42816674 -915.06260716 16.42830693 C-941.46997046 16.43071152 -967.87709377 16.47196894 -994.28438119 16.53298702 C-1020.89347008 16.59420631 -1047.50225388 16.61359437 -1074.1113965 16.57620575 C-1077.79368017 16.57103549 -1081.47596429 16.56631683 -1085.1582489 16.56186676 C-1085.88003455 16.56097668 -1086.60182019 16.5600866 -1087.34547813 16.55916955 C-1098.74472794 16.54629484 -1110.14342265 16.5769093 -1121.54255676 16.62592924 C-1132.76941191 16.67329239 -1143.99548562 16.67269476 -1155.22241167 16.62543441 C-1161.22112312 16.60151294 -1167.2179056 16.59774522 -1173.21646382 16.65187527 C-1219.57613464 17.04519884 -1219.57613464 17.04519884 -1237 2 C-1233.30297083 0.76765694 -1232.68558346 1.34034126 -1229.2890625 3.01953125 C-1227.91621094 3.68758789 -1227.91621094 3.68758789 -1226.515625 4.36914062 C-1225.56171875 4.84544922 -1224.6078125 5.32175781 -1223.625 5.8125 C-1221.74280269 6.7369307 -1219.86000874 7.6601478 -1217.9765625 8.58203125 C-1217.14205566 8.99686768 -1216.30754883 9.4117041 -1215.44775391 9.83911133 C-1214.63999512 10.22220459 -1213.83223633 10.60529785 -1213 11 C-1212.29337581 11.34882014 -1211.58675162 11.69764028 -1210.85871457 12.05703073 C-1207.15528358 13.27863629 -1203.66739957 13.27366746 -1199.81281298 13.24839699 C-1198.98699831 13.25095317 -1198.16118364 13.25350934 -1197.31034428 13.25614297 C-1194.52557352 13.26229911 -1191.74102696 13.25412547 -1188.95626354 13.24609566 C-1186.93803024 13.24757427 -1184.91979743 13.24993073 -1182.90156606 13.25308865 C-1177.32115298 13.25924993 -1171.74081232 13.25285727 -1166.16040461 13.24453239 C-1160.10247603 13.23768414 -1154.04455504 13.24240172 -1147.98662502 13.24568737 C-1137.35806912 13.24984246 -1126.72953811 13.24659961 -1116.10098648 13.23841095 C-1104.69424133 13.22966139 -1093.28750689 13.22526501 -1081.88075829 13.22621536 C-1080.80094781 13.22630144 -1080.80094781 13.22630144 -1079.69932298 13.22638925 C-1076.02882658 13.226702 -1072.35833019 13.22708589 -1068.6878338 13.22749493 C-1042.10527196 13.23031159 -1015.52271966 13.22344248 -988.94016075 13.21146011 C-962.61038859 13.19962002 -936.28062052 13.1919109 -909.95084572 13.18975449 C-909.13350565 13.18968566 -908.31616557 13.18961684 -907.47405762 13.18954593 C-900.00904625 13.18891954 -892.54403489 13.18834416 -885.07902351 13.18782998 C-866.52084894 13.1865511 -847.96267447 13.18463239 -829.40450001 13.18227959 C-828.55934982 13.18217295 -827.71419963 13.18206632 -826.84343883 13.18195645 C-785.71976172 13.1767119 -744.5960873 13.16409616 -703.47241211 13.15087891 C-689.19944257 13.14629563 -674.92647301 13.14174493 -660.65350342 13.1373291 C-659.32570856 13.13691825 -659.32570856 13.13691825 -657.97108956 13.13649911 C-616.82971229 13.12381374 -575.68833456 13.11636067 -534.54695585 13.11025951 C-531.8764184 13.10986338 -529.20588095 13.109465 -526.5353435 13.10906615 C-508.8377297 13.10642662 -491.14011589 13.10387731 -473.44250206 13.10138843 C-438.22786861 13.09643528 -403.01323525 13.0909519 -367.79860194 13.08510434 C-366.12154404 13.08482586 -364.44448614 13.08454775 -362.76742825 13.08427001 C-287.25860643 13.07176194 -211.74978659 13.05308546 -136.2409668 13.03173828 C-135.1802896 13.03143848 -135.1802896 13.03143848 -134.09818458 13.03113261 C-98.73212294 13.02113145 -63.36606141 13.01077839 -28 13 C-28 12.34 -28 11.68 -28 11 C-23.90359442 8.96314521 -19.79674427 6.94831116 -15.6875 4.9375 C-13.93663086 4.06641602 -13.93663086 4.06641602 -12.15039062 3.17773438 C-11.03212891 2.63310547 -9.91386719 2.08847656 -8.76171875 1.52734375 C-7.73006592 1.01937256 -6.69841309 0.51140137 -5.63549805 -0.01196289 C-3 -1 -3 -1 0 0 Z " fill="#978479" transform="translate(1260,621)"/>
<path d="M0 0 C414.15 0 828.3 0 1255 0 C1253.68 0.99 1252.36 1.98 1251 3 C1251 2.34 1251 1.68 1251 1 C840.15 1 429.3 1 6 1 C6.33 1.99 6.66 2.98 7 4 C4.97954558 3.39816251 2.97888961 2.72693904 1 2 C0.67 1.34 0.34 0.68 0 0 Z " fill="#D1BBA1" transform="translate(12,611)"/>
<path d="M0 0 C0 0.66 0 1.32 0 2 C0.99 2.33 1.98 2.66 3 3 C1.58219707 5.83560586 -0.04785458 5.99358679 -3 7 C-4.16752808 7.20580688 -4.16752808 7.20580688 -5.35864258 7.41577148 C-8.1796818 8.03974291 -10.42220491 9.01111643 -13.01171875 10.28515625 C-13.93404297 10.73310547 -14.85636719 11.18105469 -15.80664062 11.64257812 C-17.23266602 12.34543945 -17.23266602 12.34543945 -18.6875 13.0625 C-20.58553907 13.99435709 -22.48520107 14.92291818 -24.38671875 15.84765625 C-25.22420654 16.26023682 -26.06169434 16.67281738 -26.92456055 17.09790039 C-29 18 -29 18 -31 18 C-31 18.66 -31 19.32 -31 20 C-33.31 19.67 -35.62 19.34 -38 19 C-36.32448731 15.64897463 -32.63108415 14.6441095 -29.375 13.0625 C-28.32505859 12.54139648 -28.32505859 12.54139648 -27.25390625 12.00976562 C-23.98860266 10.40134614 -20.71821914 8.87928011 -17.37109375 7.4453125 C-12.99539648 5.56928934 -8.80379082 3.38815311 -4.57421875 1.20703125 C-2 0 -2 0 0 0 Z " fill="#4D352E" transform="translate(1263,614)"/>
<path d="M0 0 C-4.9704711 2.9389123 -9.94760899 5.86588857 -14.93164062 8.78173828 C-16.60332587 9.76635931 -18.26434005 10.76908385 -19.921875 11.77734375 C-24.11830836 14.27349808 -26.94734822 15.64777587 -32 15 C-32 14.34 -32 13.68 -32 13 C-30.68 13 -29.36 13 -28 13 C-28 12.34 -28 11.68 -28 11 C-23.90359442 8.96314521 -19.79674427 6.94831116 -15.6875 4.9375 C-14.52025391 4.35677734 -13.35300781 3.77605469 -12.15039062 3.17773438 C-11.03212891 2.63310547 -9.91386719 2.08847656 -8.76171875 1.52734375 C-7.73006592 1.01937256 -6.69841309 0.51140137 -5.63549805 -0.01196289 C-3 -1 -3 -1 0 0 Z " fill="#E6D7C7" transform="translate(1260,621)"/>
<path d="M0 0 C7.63300569 1.71742628 16.26278242 5.6584526 22 11 C21.67 11.66 21.34 12.32 21 13 C15.54406329 11.39323547 10.6697853 8.94969106 5.625 6.375 C4.79355469 5.95476563 3.96210937 5.53453125 3.10546875 5.1015625 C1.06843641 4.07133925 -0.96662189 3.03741179 -3 2 C-2.01 1.34 -1.02 0.68 0 0 Z " fill="#4A332C" transform="translate(29,621)"/>
<path d="M0 0 C5.32533459 0.91129034 9.71485449 3.00497643 14.5625 5.3125 C15.41263672 5.70373047 16.26277344 6.09496094 17.13867188 6.49804688 C21.41273267 8.51942621 24.92694228 10.27998276 28 14 C20.97642261 13.6980154 15.99835961 10.48765527 10.0625 6.9375 C9.09248047 6.36966797 8.12246094 5.80183594 7.12304688 5.21679688 C4.74249178 3.82129906 2.36864614 2.41558519 0 1 C0 0.67 0 0.34 0 0 Z " fill="#EBDDCC" transform="translate(23,622)"/>
<path d="M0 0 C4.9248899 1.46601374 9.20353093 3.5517795 13.6875 6 C14.68233398 6.53367187 14.68233398 6.53367187 15.69726562 7.078125 C18.5518451 8.61896548 21.29912532 10.19941688 24 12 C20.8066604 13.07121707 19.25958487 13.01190729 16.25 11.5234375 C15.5590625 11.18183594 14.868125 10.84023438 14.15625 10.48828125 C13.4446875 10.12089844 12.733125 9.75351562 12 9.375 C11.2884375 9.03082031 10.576875 8.68664062 9.84375 8.33203125 C5.53737834 6.15474259 2.75878245 4.0950677 0 0 Z " fill="#462F28" transform="translate(2,610)"/>
<path d="M0 0 C5.68502535 1.64566523 10.76681636 4.29032784 16 7 C16 7.66 16 8.32 16 9 C11.40191871 8.46105575 8.13215631 7.23428472 4.125 4.9375 C3.15820312 4.38964844 2.19140625 3.84179688 1.1953125 3.27734375 C0.47085937 2.85582031 -0.25359375 2.43429687 -1 2 C-0.67 1.34 -0.34 0.68 0 0 Z " fill="#3E2620" transform="translate(13,613)"/>
<path d="M0 0 C2.95409701 1.37154504 5.44008376 2.98863724 8 5 C7.67 5.66 7.34 6.32 7 7 C3.08788267 5.84414715 0.1254959 4.64465038 -3 2 C-2.01 2 -1.02 2 0 2 C0 1.34 0 0.68 0 0 Z " fill="#563F37" transform="translate(43,627)"/>
<path d="M0 0 C-1.2363168 0.89422914 -2.48971562 1.76487891 -3.75 2.625 C-4.44609375 3.11226562 -5.1421875 3.59953125 -5.859375 4.1015625 C-8 5 -8 5 -10.265625 4.1484375 C-10.83796875 3.76945313 -11.4103125 3.39046875 -12 3 C-10.5682384 2.30062798 -9.12932968 1.61587282 -7.6875 0.9375 C-6.48673828 0.36322266 -6.48673828 0.36322266 -5.26171875 -0.22265625 C-3 -1 -3 -1 0 0 Z " fill="#DCCDBD" transform="translate(1260,621)"/>
<path d="M0 0 C4.47238653 1.41807378 8.71146306 3.11304374 13 5 C11.26171875 6.10546875 11.26171875 6.10546875 9 7 C6.89453125 6.42578125 6.89453125 6.42578125 4.8125 5.3125 C4.11769531 4.95800781 3.42289063 4.60351562 2.70703125 4.23828125 C1 3 1 3 0 0 Z " fill="#705B52" transform="translate(13,616)"/>
<path d="M0 0 C0 0.66 0 1.32 0 2 C0.99 2.33 1.98 2.66 3 3 C1.60804085 5.7839183 -0.15575779 5.97898997 -3 7 C-3.66 6.34 -4.32 5.68 -5 5 C-3.68 4.67 -2.36 4.34 -1 4 C-1 3.34 -1 2.68 -1 2 C-1.99 1.67 -2.98 1.34 -4 1 C-2 0 -2 0 0 0 Z " fill="#725C53" transform="translate(1263,614)"/>
<path d="M0 0 C0 0.66 0 1.32 0 2 C0.66 2.33 1.32 2.66 2 3 C1.34 3 0.68 3 0 3 C0 3.66 0 4.32 0 5 C-2.31 4.67 -4.62 4.34 -7 4 C-5.53303752 1.06607504 -3.25996861 0 0 0 Z " fill="#664F45" transform="translate(1232,629)"/>
<path d="M0 0 C0.33 0.99 0.66 1.98 1 3 C0.34 3 -0.32 3 -1 3 C-0.67 2.01 -0.34 1.02 0 0 Z " fill="#FFF2E0" transform="translate(1279,629)"/>
</svg>
