<svg width="640" height="320" version="1.1" xmlns="http://www.w3.org/2000/svg" desc="Created with imagetracer.js version 1.2.6" ><path fill="rgb(194,181,179)" stroke="rgb(194,181,179)" stroke-width="1" opacity="0.996078431372549" d="M 7 6 L 633 6 L 633 288 L 630.5 289 L 92.5 289 L 91.5 288 L 77.5 288 L 76.5 289 L 24.5 289 L 23.5 288 L 7 288 L 7 6 Z M 26 23 L 24 25 L 24 271 L 26 272 L 617 272 L 617 23 L 26 23 Z " /><path fill="rgb(109,101,99)" stroke="rgb(109,101,99)" stroke-width="1" opacity="0.9490196078431372" d="M 0 0 L 640 0 L 640 320 L 0 320 L 0 0 Z M 8 6 L 6 8 L 6 288 L 18 288 L 19 289 L 632 289 L 633 288 L 633 6 L 8 6 Z M 13 292 L 33 314 L 606 314 L 627 293 L 13 292 Z " /><path fill="rgb(109,101,99)" stroke="rgb(109,101,99)" stroke-width="1" opacity="0.9490196078431372" d="M 25 23 L 615.5 23 L 617 24.5 L 617 270.5 L 615.5 272 L 25.5 272 L 25 270.5 L 24 269.5 L 24 25.5 L 25 23 Z M 47 25 L 46 26 L 27 26 L 27 50 L 614 50 L 614 50 L 614 26 L 57 26 L 56 25 L 53 26 L 47 25 Z M 28 54 L 28 269 L 613 269 L 614 268 L 614 54 L 28 54 Z " /><path fill="rgb(119,112,111)" stroke="rgb(119,112,111)" stroke-width="1" opacity="1" d="M 6.5 7 L 7 287.5 L 6 287.5 L 6.5 7 Z " /><path fill="rgb(119,112,111)" stroke="rgb(119,112,111)" stroke-width="1" opacity="1" d="M 46.5 25 L 52.5 26 L 55.5 25 L 56.5 26 L 614 26 L 614 49.5 L 613.5 50 L 27 50 L 27 26 L 45.5 26 L 46.5 25 Z " /><path fill="rgb(119,112,111)" stroke="rgb(119,112,111)" stroke-width="1" opacity="1" d="M 28 54 L 614 54 L 614 267.5 L 612.5 269 L 28 269 L 28 54 Z " /><path fill="rgb(119,112,111)" stroke="rgb(119,112,111)" stroke-width="1" opacity="1" d="M 18.5 288 L 24 288.5 L 18.5 289 L 18.5 288 Z " /><path fill="rgb(119,112,111)" stroke="rgb(119,112,111)" stroke-width="1" opacity="1" d="M 77.5 288 L 92 288.5 L 77.5 289 L 77.5 288 Z " /><path fill="rgb(119,112,111)" stroke="rgb(119,112,111)" stroke-width="1" opacity="1" d="M 12.5 292 L 627 292.5 L 605.5 314 L 32.5 314 L 12.5 292 Z " /></svg>