<?xml version="1.0" encoding="UTF-8"?>
<svg version="1.1" xmlns="http://www.w3.org/2000/svg" width="1280" height="960">
<path d="M0 0 C422.4 0 844.8 0 1280 0 C1280 305.25 1280 610.5 1280 925 C1278.02 924.67 1276.04 924.34 1274 924 C1271.71392779 925.01116054 1271.71392779 925.01116054 1269.765625 926.74609375 C1269.02699219 927.33583984 1268.28835938 927.92558594 1267.52734375 928.53320312 C1266.40005859 929.47583008 1266.40005859 929.47583008 1265.25 930.4375 C1263.73744868 931.66914893 1262.22196731 932.89721115 1260.703125 934.12109375 C1260.03958008 934.6720874 1259.37603516 935.22308105 1258.69238281 935.79077148 C1257 937 1257 937 1255 937 C1254.67 937.99 1254.34 938.98 1254 940 C1250.55555556 943 1250.55555556 943 1248 943 C1247.67 943.99 1247.34 944.98 1247 946 C1245.01399663 947.3540932 1243.01182457 948.68457624 1241 950 C1239.31384218 951.64694485 1237.64429829 953.31126121 1236 955 C1232.26074571 957.49283619 1229.36724874 957.28237188 1225.03884715 957.262205 C1224.21316132 957.26625195 1223.38747549 957.27029889 1222.53676887 957.27446847 C1219.74037429 957.28569337 1216.94417442 957.28256262 1214.14776134 957.2796154 C1212.12586168 957.28473115 1210.10396406 957.29071823 1208.08206931 957.29750282 C1202.48207676 957.3136996 1196.88213399 957.31730097 1191.28212082 957.31894872 C1185.20620729 957.32287569 1179.1303211 957.33822191 1173.05442363 957.35209382 C1162.39080425 957.37478442 1151.72719734 957.38989961 1141.06356049 957.39990997 C1129.61725442 957.41066366 1118.17096591 957.42563169 1106.72467232 957.44573593 C1105.64156854 957.44763066 1105.64156854 957.44763066 1104.53658387 957.44956366 C1101.59584707 957.45471369 1098.6551103 957.45988088 1095.71437357 957.46507336 C1057.55066191 957.53231581 1019.38693171 957.57329037 981.22318035 957.60995331 C972.96893394 957.6179056 964.71468798 957.62627747 956.46044201 957.63466413 C895.05089462 957.69698115 833.64134172 957.7511502 772.23177133 957.78455768 C757.99117488 957.79233129 743.75057857 957.80037149 729.50998233 957.80852618 C727.72236009 957.80954791 725.93473785 957.81056537 724.1471156 957.81157857 C666.74020227 957.84411649 609.33345743 957.9180975 551.92662737 958.01988617 C510.68494137 958.09299216 469.44329067 958.16040328 428.20154285 958.18498421 C427.35339639 958.18549239 426.50524993 958.18600057 425.63140206 958.18652415 C407.01236227 958.19755691 388.39332256 958.20523808 369.77428009 958.2097751 C362.2826286 958.21165106 354.79097726 958.21396333 347.29932594 958.21640396 C346.4794055 958.21665901 345.65948505 958.21691405 344.81471853 958.21717683 C318.40118489 958.22559412 291.98787675 958.27115478 265.57442606 958.33591383 C238.96739309 958.40094282 212.36060587 958.42812938 185.7534969 958.40312542 C182.07591133 958.39967622 178.39832551 958.39665059 174.72073936 958.39387894 C173.99983618 958.39331972 173.27893299 958.3927605 172.53618425 958.39218433 C161.12562455 958.38443597 149.71555117 958.41700901 138.3051109 958.46643876 C127.08211678 958.51422136 115.85977287 958.51813944 104.6366861 958.4786301 C98.63377037 958.45874149 92.63251037 958.45790722 86.62975057 958.50995575 C81.16600593 958.55695411 75.70523423 958.54848157 70.24156359 958.49616236 C68.27976501 958.48702158 66.317742 958.4979074 64.35621021 958.53152693 C54.17380183 958.69475234 46.92315025 958.24361337 39.12193805 951.21205246 C37.53958636 949.67035535 36.00266476 948.09903782 34.48469948 946.49404661 C32.11389229 944.10831368 29.49421875 942.1526959 26.8125 940.125 C25.77222656 939.33480469 24.73195313 938.54460938 23.66015625 937.73046875 C18.19397898 933.6374525 12.69181391 929.59231224 7.18286133 925.55712891 C6.39548584 924.9801123 5.60811035 924.4030957 4.796875 923.80859375 C4.08885742 923.29095459 3.38083984 922.77331543 2.65136719 922.23999023 C1 921 1 921 0 920 C-0.09826034 917.99422346 -0.12447138 915.98491648 -0.1241985 913.97673458 C-0.12547659 913.33661898 -0.12675468 912.69650337 -0.1280715 912.03699033 C-0.13116933 909.86095966 -0.12704992 907.68499962 -0.12304783 905.50897121 C-0.12378648 903.93823605 -0.124964 902.36750104 -0.12654402 900.79676649 C-0.12963294 896.44154295 -0.126422 892.08634249 -0.12226575 887.73112065 C-0.11885412 883.01860713 -0.1212014 878.30609613 -0.12284851 873.59358215 C-0.12493379 865.31261237 -0.12326646 857.03164976 -0.11921513 848.7506808 C-0.11313254 836.27703374 -0.1128436 823.80339104 -0.11368043 811.32974275 C-0.11492481 790.42975248 -0.11161959 769.52976534 -0.10557556 748.629776 C-0.09741757 720.37008553 -0.09547357 692.11040042 -0.09460449 663.85070801 C-0.08934713 595.87963803 -0.07538612 527.90856896 -0.0625 459.9375 C-0.041875 308.158125 -0.02125 156.37875 0 0 Z " fill="#FEF1DF" transform="translate(0,3)"/>
<path d="M0 0 C422.4 0 844.8 0 1280 0 C1280 305.25 1280 610.5 1280 925 C1278.02 924.67 1276.04 924.34 1274 924 C1271.71392779 925.01116054 1271.71392779 925.01116054 1269.765625 926.74609375 C1269.02699219 927.33583984 1268.28835938 927.92558594 1267.52734375 928.53320312 C1266.40005859 929.47583008 1266.40005859 929.47583008 1265.25 930.4375 C1263.73744868 931.66914893 1262.22196731 932.89721115 1260.703125 934.12109375 C1260.03958008 934.6720874 1259.37603516 935.22308105 1258.69238281 935.79077148 C1257 937 1257 937 1255 937 C1254.67 937.99 1254.34 938.98 1254 940 C1250.55555556 943 1250.55555556 943 1248 943 C1247.67 943.99 1247.34 944.98 1247 946 C1245.01399663 947.3540932 1243.01182457 948.68457624 1241 950 C1239.31384218 951.64694485 1237.64429829 953.31126121 1236 955 C1232.26074571 957.49283619 1229.36724874 957.28237188 1225.03884715 957.262205 C1224.21316132 957.26625195 1223.38747549 957.27029889 1222.53676887 957.27446847 C1219.74037429 957.28569337 1216.94417442 957.28256262 1214.14776134 957.2796154 C1212.12586168 957.28473115 1210.10396406 957.29071823 1208.08206931 957.29750282 C1202.48207676 957.3136996 1196.88213399 957.31730097 1191.28212082 957.31894872 C1185.20620729 957.32287569 1179.1303211 957.33822191 1173.05442363 957.35209382 C1162.39080425 957.37478442 1151.72719734 957.38989961 1141.06356049 957.39990997 C1129.61725442 957.41066366 1118.17096591 957.42563169 1106.72467232 957.44573593 C1105.64156854 957.44763066 1105.64156854 957.44763066 1104.53658387 957.44956366 C1101.59584707 957.45471369 1098.6551103 957.45988088 1095.71437357 957.46507336 C1057.55066191 957.53231581 1019.38693171 957.57329037 981.22318035 957.60995331 C972.96893394 957.6179056 964.71468798 957.62627747 956.46044201 957.63466413 C895.05089462 957.69698115 833.64134172 957.7511502 772.23177133 957.78455768 C757.99117488 957.79233129 743.75057857 957.80037149 729.50998233 957.80852618 C727.72236009 957.80954791 725.93473785 957.81056537 724.1471156 957.81157857 C666.74020227 957.84411649 609.33345743 957.9180975 551.92662737 958.01988617 C510.68494137 958.09299216 469.44329067 958.16040328 428.20154285 958.18498421 C427.35339639 958.18549239 426.50524993 958.18600057 425.63140206 958.18652415 C407.01236227 958.19755691 388.39332256 958.20523808 369.77428009 958.2097751 C362.2826286 958.21165106 354.79097726 958.21396333 347.29932594 958.21640396 C346.4794055 958.21665901 345.65948505 958.21691405 344.81471853 958.21717683 C318.40118489 958.22559412 291.98787675 958.27115478 265.57442606 958.33591383 C238.96739309 958.40094282 212.36060587 958.42812938 185.7534969 958.40312542 C182.07591133 958.39967622 178.39832551 958.39665059 174.72073936 958.39387894 C173.99983618 958.39331972 173.27893299 958.3927605 172.53618425 958.39218433 C161.12562455 958.38443597 149.71555117 958.41700901 138.3051109 958.46643876 C127.08211678 958.51422136 115.85977287 958.51813944 104.6366861 958.4786301 C98.63377037 958.45874149 92.63251037 958.45790722 86.62975057 958.50995575 C81.16600593 958.55695411 75.70523423 958.54848157 70.24156359 958.49616236 C68.27976501 958.48702158 66.317742 958.4979074 64.35621021 958.53152693 C54.17380183 958.69475234 46.92315025 958.24361337 39.12193805 951.21205246 C37.53958636 949.67035535 36.00266476 948.09903782 34.48469948 946.49404661 C32.11389229 944.10831368 29.49421875 942.1526959 26.8125 940.125 C25.77222656 939.33480469 24.73195313 938.54460938 23.66015625 937.73046875 C18.19397898 933.6374525 12.69181391 929.59231224 7.18286133 925.55712891 C6.39548584 924.9801123 5.60811035 924.4030957 4.796875 923.80859375 C4.08885742 923.29095459 3.38083984 922.77331543 2.65136719 922.23999023 C1 921 1 921 0 920 C-0.09826034 917.99422346 -0.12447138 915.98491648 -0.1241985 913.97673458 C-0.12547659 913.33661898 -0.12675468 912.69650337 -0.1280715 912.03699033 C-0.13116933 909.86095966 -0.12704992 907.68499962 -0.12304783 905.50897121 C-0.12378648 903.93823605 -0.124964 902.36750104 -0.12654402 900.79676649 C-0.12963294 896.44154295 -0.126422 892.08634249 -0.12226575 887.73112065 C-0.11885412 883.01860713 -0.1212014 878.30609613 -0.12284851 873.59358215 C-0.12493379 865.31261237 -0.12326646 857.03164976 -0.11921513 848.7506808 C-0.11313254 836.27703374 -0.1128436 823.80339104 -0.11368043 811.32974275 C-0.11492481 790.42975248 -0.11161959 769.52976534 -0.10557556 748.629776 C-0.09741757 720.37008553 -0.09547357 692.11040042 -0.09460449 663.85070801 C-0.08934713 595.87963803 -0.07538612 527.90856896 -0.0625 459.9375 C-0.041875 308.158125 -0.02125 156.37875 0 0 Z M5 5 C5 305.3 5 605.6 5 915 C422.78 915 840.56 915 1271 915 C1271 614.7 1271 314.4 1271 5 C853.22 5 435.44 5 5 5 Z " fill="#DCC5AA" transform="translate(0,3)"/>
<path d="M0 0 C422.4 0 844.8 0 1280 0 C1280 305.25 1280 610.5 1280 925 C1278.02 924.67 1276.04 924.34 1274 924 C1271.71392779 925.01116054 1271.71392779 925.01116054 1269.765625 926.74609375 C1269.02699219 927.33583984 1268.28835938 927.92558594 1267.52734375 928.53320312 C1266.40005859 929.47583008 1266.40005859 929.47583008 1265.25 930.4375 C1263.73744868 931.66914893 1262.22196731 932.89721115 1260.703125 934.12109375 C1260.03958008 934.6720874 1259.37603516 935.22308105 1258.69238281 935.79077148 C1257 937 1257 937 1255 937 C1254.67 937.99 1254.34 938.98 1254 940 C1250.55555556 943 1250.55555556 943 1248 943 C1247.67 943.99 1247.34 944.98 1247 946 C1245.01399663 947.3540932 1243.01182457 948.68457624 1241 950 C1239.31384218 951.64694485 1237.64429829 953.31126121 1236 955 C1232.26074571 957.49283619 1229.36724874 957.28237188 1225.03884715 957.262205 C1224.21316132 957.26625195 1223.38747549 957.27029889 1222.53676887 957.27446847 C1219.74037429 957.28569337 1216.94417442 957.28256262 1214.14776134 957.2796154 C1212.12586168 957.28473115 1210.10396406 957.29071823 1208.08206931 957.29750282 C1202.48207676 957.3136996 1196.88213399 957.31730097 1191.28212082 957.31894872 C1185.20620729 957.32287569 1179.1303211 957.33822191 1173.05442363 957.35209382 C1162.39080425 957.37478442 1151.72719734 957.38989961 1141.06356049 957.39990997 C1129.61725442 957.41066366 1118.17096591 957.42563169 1106.72467232 957.44573593 C1105.64156854 957.44763066 1105.64156854 957.44763066 1104.53658387 957.44956366 C1101.59584707 957.45471369 1098.6551103 957.45988088 1095.71437357 957.46507336 C1057.55066191 957.53231581 1019.38693171 957.57329037 981.22318035 957.60995331 C972.96893394 957.6179056 964.71468798 957.62627747 956.46044201 957.63466413 C895.05089462 957.69698115 833.64134172 957.7511502 772.23177133 957.78455768 C757.99117488 957.79233129 743.75057857 957.80037149 729.50998233 957.80852618 C727.72236009 957.80954791 725.93473785 957.81056537 724.1471156 957.81157857 C666.74020227 957.84411649 609.33345743 957.9180975 551.92662737 958.01988617 C510.68494137 958.09299216 469.44329067 958.16040328 428.20154285 958.18498421 C427.35339639 958.18549239 426.50524993 958.18600057 425.63140206 958.18652415 C407.01236227 958.19755691 388.39332256 958.20523808 369.77428009 958.2097751 C362.2826286 958.21165106 354.79097726 958.21396333 347.29932594 958.21640396 C346.4794055 958.21665901 345.65948505 958.21691405 344.81471853 958.21717683 C318.40118489 958.22559412 291.98787675 958.27115478 265.57442606 958.33591383 C238.96739309 958.40094282 212.36060587 958.42812938 185.7534969 958.40312542 C182.07591133 958.39967622 178.39832551 958.39665059 174.72073936 958.39387894 C173.99983618 958.39331972 173.27893299 958.3927605 172.53618425 958.39218433 C161.12562455 958.38443597 149.71555117 958.41700901 138.3051109 958.46643876 C127.08211678 958.51422136 115.85977287 958.51813944 104.6366861 958.4786301 C98.63377037 958.45874149 92.63251037 958.45790722 86.62975057 958.50995575 C81.16600593 958.55695411 75.70523423 958.54848157 70.24156359 958.49616236 C68.27976501 958.48702158 66.317742 958.4979074 64.35621021 958.53152693 C54.17380183 958.69475234 46.92315025 958.24361337 39.12193805 951.21205246 C37.53958636 949.67035535 36.00266476 948.09903782 34.48469948 946.49404661 C32.11389229 944.10831368 29.49421875 942.1526959 26.8125 940.125 C25.77222656 939.33480469 24.73195313 938.54460938 23.66015625 937.73046875 C18.19397898 933.6374525 12.69181391 929.59231224 7.18286133 925.55712891 C6.39548584 924.9801123 5.60811035 924.4030957 4.796875 923.80859375 C4.08885742 923.29095459 3.38083984 922.77331543 2.65136719 922.23999023 C1 921 1 921 0 920 C-0.09826034 917.99422346 -0.12447138 915.98491648 -0.1241985 913.97673458 C-0.12547659 913.33661898 -0.12675468 912.69650337 -0.1280715 912.03699033 C-0.13116933 909.86095966 -0.12704992 907.68499962 -0.12304783 905.50897121 C-0.12378648 903.93823605 -0.124964 902.36750104 -0.12654402 900.79676649 C-0.12963294 896.44154295 -0.126422 892.08634249 -0.12226575 887.73112065 C-0.11885412 883.01860713 -0.1212014 878.30609613 -0.12284851 873.59358215 C-0.12493379 865.31261237 -0.12326646 857.03164976 -0.11921513 848.7506808 C-0.11313254 836.27703374 -0.1128436 823.80339104 -0.11368043 811.32974275 C-0.11492481 790.42975248 -0.11161959 769.52976534 -0.10557556 748.629776 C-0.09741757 720.37008553 -0.09547357 692.11040042 -0.09460449 663.85070801 C-0.08934713 595.87963803 -0.07538612 527.90856896 -0.0625 459.9375 C-0.041875 308.158125 -0.02125 156.37875 0 0 Z M5 5 C5 305.3 5 605.6 5 915 C422.78 915 840.56 915 1271 915 C1271 614.7 1271 314.4 1271 5 C853.22 5 435.44 5 5 5 Z M11 919 C12.21020196 922.63060587 13.24476167 923.10890326 16.375 925.1875 C17.74398438 926.115625 17.74398438 926.115625 19.140625 927.0625 C20.08421875 927.701875 21.0278125 928.34125 22 929 C28.53246386 933.64886999 34.95741204 938.44447858 41.375 943.25 C42.05320801 943.75748779 42.73141602 944.26497559 43.43017578 944.7878418 C44.07970215 945.27551025 44.72922852 945.76317871 45.3984375 946.265625 C45.97255371 946.69649414 46.54666992 947.12736328 47.13818359 947.57128906 C49 949 49 949 51.1082711 951.05824481 C54.80657406 953.54160311 57.82751265 953.5536416 62.12947875 953.49679399 C63.35882599 953.5044625 63.35882599 953.5044625 64.61300853 953.51228594 C67.37671015 953.52459846 70.1395081 953.50825269 72.90318012 953.49219131 C74.90606701 953.49514857 76.90895194 953.49986151 78.91183105 953.50617731 C84.44970605 953.51849966 89.98728918 953.50571504 95.52514252 953.48906477 C101.53688014 953.47536795 107.54858714 953.4848035 113.56033057 953.49137473 C124.10779692 953.49968484 134.65518426 953.49319941 145.20263481 953.4768219 C156.5223092 953.45932264 167.8419404 953.45053003 179.16162872 953.45243073 C179.87601291 953.45254549 180.59039709 953.45266026 181.32642928 953.45277851 C184.96893742 953.45340399 188.61144551 953.45417179 192.25395361 953.45498985 C218.63367781 953.46062315 245.01336355 953.44688509 271.39307594 953.42292023 C297.5218913 953.39923995 323.6506902 953.38382179 349.77951622 953.37950897 C350.59062103 953.37937132 351.40172584 953.37923368 352.23740958 953.37909186 C359.6454735 953.37783908 367.05353744 953.37668832 374.46160139 953.37565996 C392.87819549 953.37310219 411.2947892 953.36926479 429.71138287 953.36455917 C430.55008496 953.3643459 431.38878705 953.36413263 432.25290436 953.3639129 C473.06273346 953.35342382 513.87255169 953.32819235 554.68237305 953.30175781 C568.84639477 953.29259127 583.01041654 953.28348986 597.17443848 953.2746582 C598.05287833 953.27411041 598.93131818 953.27356261 599.83637742 953.27299821 C640.66379582 953.24762744 681.49121608 953.23272132 722.31864029 953.22051902 C724.96880165 953.21972677 727.61896301 953.21893 730.26912437 953.21813231 C747.83170753 953.21285323 765.39429075 953.20775463 782.956874 953.20277687 C817.90281799 953.19287056 852.84876163 953.18190381 887.79470507 953.17020868 C889.45896654 953.16965172 891.12322801 953.1690955 892.78748949 953.16854003 C967.72006673 953.14352391 1042.65263599 953.10617096 1117.58520508 953.06347656 C1118.28692613 953.06307682 1118.98864717 953.06267708 1119.7116325 953.06226522 C1154.80775545 953.04226289 1189.90387797 953.02155679 1225 953 C1225 952.34 1225 951.68 1225 951 C1225.87350098 950.58596924 1225.87350098 950.58596924 1226.76464844 950.16357422 C1228.92112098 949.04105913 1230.79942118 947.8085361 1232.765625 946.3828125 C1233.48339111 945.86380371 1234.20115723 945.34479492 1234.94067383 944.81005859 C1235.70275146 944.25398926 1236.4648291 943.69791992 1237.25 943.125 C1238.43468872 942.26575928 1238.43468872 942.26575928 1239.64331055 941.38916016 C1245.74224781 936.95235219 1251.78674295 932.44466468 1257.78417969 927.87158203 C1260.45851862 925.84371716 1263.03980057 923.9769104 1265.94921875 922.2890625 C1266.96435547 921.65097656 1266.96435547 921.65097656 1268 921 C1268 920.34 1268 919.68 1268 919 C853.19 919 438.38 919 11 919 Z " fill="#432B25" transform="translate(0,3)"/>
<path d="M0 0 C422.4 0 844.8 0 1280 0 C1280 305.25 1280 610.5 1280 925 C1278.35 924.34 1276.7 923.68 1275 923 C1275.16241467 922.47136191 1275.32482935 921.94272381 1275.49216568 921.39806638 C1276.12146427 918.42642835 1276.12516884 915.67048005 1276.12534916 912.63093787 C1276.12675148 911.98985433 1276.1281538 911.34877079 1276.12959861 910.68826048 C1276.1330949 908.5271799 1276.12943332 906.36617011 1276.12584114 904.20509052 C1276.12688375 902.63855879 1276.12836461 901.0720273 1276.13024551 899.50549635 C1276.13415975 895.1745977 1276.13179905 890.84372117 1276.12846755 886.51282285 C1276.12594152 881.81109348 1276.12918651 877.10936761 1276.13171089 872.40763873 C1276.13533168 864.15867673 1276.13520743 855.90972127 1276.13266373 847.66075897 C1276.1288915 835.39470697 1276.13080962 823.12866052 1276.13387203 810.86260856 C1276.13914649 788.96019466 1276.13867796 767.05778367 1276.13579312 745.15536949 C1276.13328113 725.99048311 1276.1326192 706.8255978 1276.13381577 687.66071129 C1276.13389215 686.39123772 1276.13396854 685.12176415 1276.13404724 683.81382169 C1276.13435855 678.66111446 1276.13467695 673.50840723 1276.135007 668.35570001 C1276.13728393 632.37999258 1276.13768198 596.40428566 1276.13394356 560.42857838 C1276.13387331 559.75023624 1276.13380306 559.0718941 1276.13373068 558.37299614 C1276.13258567 547.35643147 1276.13136624 536.3398668 1276.13014051 525.32330213 C1276.12528315 481.61991199 1276.12551018 437.9165249 1276.13037109 394.21313477 C1276.13159223 383.19862016 1276.13280325 372.18410556 1276.13394356 361.16959095 C1276.13401401 360.49144134 1276.13408445 359.81329172 1276.13415704 359.11459212 C1276.13793139 322.53159272 1276.13710253 285.9485936 1276.13475883 249.36559409 C1276.13443809 244.22300986 1276.13412525 239.08042564 1276.13381577 233.93784142 C1276.13373669 232.671529 1276.13365761 231.40521658 1276.13357614 230.10053106 C1276.13243658 210.94133171 1276.1337728 191.78213353 1276.13629532 172.62293434 C1276.13914762 150.84992824 1276.13845463 129.07692551 1276.13301457 107.30391983 C1276.13006738 95.10428586 1276.12990226 82.90465919 1276.13366075 70.7050254 C1276.13589102 62.571957 1276.13452969 54.43889449 1276.13015598 46.30582697 C1276.12776077 41.66147554 1276.12699757 37.0171387 1276.13056196 32.37278769 C1276.13376435 28.15747011 1276.13246082 23.94218021 1276.1273813 19.72686469 C1276.12636443 18.20206684 1276.12706528 16.67726675 1276.12958724 15.15247064 C1276.13274519 13.09932058 1276.12926026 11.0461634 1276.12534916 8.99301463 C1276.1252814 7.85103956 1276.12521365 6.70906448 1276.12514383 5.5324841 C1276.28718715 3.06340528 1276.28718715 3.06340528 1275 2 C1272.22963224 1.90056652 1269.48416221 1.86749314 1266.71328825 1.8758015 C1265.38536215 1.87388437 1265.38536215 1.87388437 1264.03060925 1.87192852 C1261.01906844 1.86882902 1258.00757858 1.87295101 1254.99603939 1.87695217 C1252.82386391 1.8762135 1250.65168853 1.87503596 1248.4795135 1.87345567 C1242.45304407 1.87036489 1236.42659132 1.87357967 1230.40012312 1.87773381 C1224.53828382 1.88079799 1218.67644711 1.87916614 1212.81460748 1.87765024 C1200.67036821 1.87467792 1188.52613374 1.87646488 1176.38189507 1.88079453 C1164.06721441 1.88516565 1151.75253623 1.88736792 1139.43785477 1.88689232 C1138.66137139 1.88686363 1137.884888 1.88683493 1137.08487482 1.88680537 C1133.12590328 1.88664901 1129.16693173 1.88645706 1125.20796019 1.88625254 C1096.51859255 1.88484332 1067.82922712 1.8882818 1039.13986015 1.89426994 C1010.71904934 1.90018788 982.29823948 1.90404413 953.87742805 1.90512276 C952.55456491 1.90517437 952.55456491 1.90517437 951.20497727 1.90522704 C943.15036511 1.90554022 935.09575296 1.90582792 927.04114081 1.90608501 C907.0162657 1.90672449 886.99139062 1.90768387 866.96651554 1.90886021 C866.05452178 1.90891352 865.14252802 1.90896684 864.20289808 1.90902177 C819.81535943 1.91164472 775.42782141 1.91795286 731.0402832 1.92456055 C715.63248698 1.92685216 700.22469076 1.9291275 684.81689453 1.93133545 C683.38354879 1.93154087 683.38354879 1.93154087 681.92124656 1.93175045 C637.5230011 1.9380912 593.12475554 1.94180827 548.72650975 1.94486827 C545.82239374 1.94506884 542.91827773 1.94527114 540.01416173 1.94547401 C509.74990671 1.94758734 479.48565167 1.94957444 449.22139664 1.95150678 C447.92446073 1.9515896 447.92446073 1.9515896 446.6013241 1.95167409 C445.02811041 1.95177448 443.45489671 1.95187472 441.88168301 1.95197475 C295.25445417 1.96132425 148.62722851 1.9814862 2 2 C1.67 303.95 1.34 605.9 1 917 C0.67 917 0.34 917 0 917 C0 614.39 0 311.78 0 0 Z " fill="#F0E2D1" transform="translate(0,3)"/>
<path d="M0 0 C0.66 0.33 1.32 0.66 2 1 C-0.87444093 4.03413209 -3.29141347 6.14570673 -7 8 C-7.33 8.99 -7.66 9.98 -8 11 C-11.44444444 14 -11.44444444 14 -14 14 C-14.33 14.99 -14.66 15.98 -15 17 C-16.98600337 18.3540932 -18.98817543 19.68457624 -21 21 C-22.68615782 22.64694485 -24.35570171 24.31126121 -26 26 C-29.73925429 28.49283619 -32.63275126 28.28237188 -36.96115285 28.262205 C-37.78683868 28.26625195 -38.61252451 28.27029889 -39.46323113 28.27446847 C-42.25962571 28.28569337 -45.05582558 28.28256262 -47.85223866 28.2796154 C-49.87413832 28.28473115 -51.89603594 28.29071823 -53.91793069 28.29750282 C-59.51792324 28.3136996 -65.11786601 28.31730097 -70.71787918 28.31894872 C-76.79379271 28.32287569 -82.8696789 28.33822191 -88.94557637 28.35209382 C-99.60919575 28.37478442 -110.27280266 28.38989961 -120.93643951 28.39990997 C-132.38274558 28.41066366 -143.82903409 28.42563169 -155.27532768 28.44573593 C-155.99739687 28.44699908 -156.71946606 28.44826223 -157.46341613 28.44956366 C-160.40415293 28.45471369 -163.3448897 28.45988088 -166.28562643 28.46507336 C-204.44933809 28.53231581 -242.61306829 28.57329037 -280.77681965 28.60995331 C-289.03106606 28.6179056 -297.28531202 28.62627747 -305.53955799 28.63466413 C-366.94910538 28.69698115 -428.35865828 28.7511502 -489.76822867 28.78455768 C-504.00882512 28.79233129 -518.24942143 28.80037149 -532.49001767 28.80852618 C-534.27763991 28.80954791 -536.06526215 28.81056537 -537.8528844 28.81157857 C-595.25979773 28.84411649 -652.66654257 28.9180975 -710.07337263 29.01988617 C-751.31505863 29.09299216 -792.55670933 29.16040328 -833.79845715 29.18498421 C-835.07067684 29.18574648 -835.07067684 29.18574648 -836.36859794 29.18652415 C-854.98763773 29.19755691 -873.60667744 29.20523808 -892.22571991 29.2097751 C-899.7173714 29.21165106 -907.20902274 29.21396333 -914.70067406 29.21640396 C-915.5205945 29.21665901 -916.34051495 29.21691405 -917.18528147 29.21717683 C-943.59881511 29.22559412 -970.01212325 29.27115478 -996.42557394 29.33591383 C-1023.03260691 29.40094282 -1049.63939413 29.42812938 -1076.2465031 29.40312542 C-1079.92408867 29.39967622 -1083.60167449 29.39665059 -1087.27926064 29.39387894 C-1088.00016382 29.39331972 -1088.72106701 29.3927605 -1089.46381575 29.39218433 C-1100.87437545 29.38443597 -1112.28444883 29.41700901 -1123.6948891 29.46643876 C-1134.91788322 29.51422136 -1146.14022713 29.51813944 -1157.3633139 29.4786301 C-1163.36622963 29.45874149 -1169.36748963 29.45790722 -1175.37024943 29.50995575 C-1180.83399407 29.55695411 -1186.29476577 29.54848157 -1191.75843641 29.49616236 C-1193.72023499 29.48702158 -1195.682258 29.4979074 -1197.64378979 29.53152693 C-1207.76859702 29.69382899 -1215.05717948 29.26267166 -1222.8272807 22.28236496 C-1224.40426082 20.7541842 -1225.93102116 19.19530188 -1227.43593956 17.59623472 C-1230.11333634 14.86376123 -1233.05950517 12.44243672 -1236 10 C-1235.34 9.67 -1234.68 9.34 -1234 9 C-1230.8729549 11.28888644 -1227.7487204 13.58157885 -1224.625 15.875 C-1223.73554687 16.52597656 -1222.84609375 17.17695312 -1221.9296875 17.84765625 C-1220.65351562 18.78544922 -1220.65351562 18.78544922 -1219.3515625 19.7421875 C-1218.17327881 20.60626221 -1218.17327881 20.60626221 -1216.97119141 21.48779297 C-1215 23 -1215 23 -1213 25 C-1210.41645782 25.16687448 -1210.41645782 25.16687448 -1208 25 C-1208 24.67 -1208 24.34 -1208 24 C-821.57 24 -435.14 24 -37 24 C-37 23.34 -37 22.68 -37 22 C-35.03125 20.2734375 -35.03125 20.2734375 -32.5 18.375 C-31.6646875 17.74335937 -30.829375 17.11171875 -29.96875 16.4609375 C-28.99421875 15.73777344 -28.99421875 15.73777344 -28 15 C-27.34 15.33 -26.68 15.66 -26 16 C-27.485 17.98 -27.485 17.98 -29 20 C-25.89923812 19.39748835 -23.92711493 18.43696287 -21.42578125 16.5234375 C-20.42998047 15.76885254 -20.42998047 15.76885254 -19.4140625 14.99902344 C-18.72054688 14.4630957 -18.02703125 13.92716797 -17.3125 13.375 C-16.60222656 12.83391602 -15.89195313 12.29283203 -15.16015625 11.73535156 C-13.10125012 10.16393279 -11.04939805 8.58379056 -9 7 C-7.99324219 6.22398437 -6.98648437 5.44796875 -5.94921875 4.6484375 C-3.95999094 3.106548 -1.97596986 1.55882066 0 0 Z " fill="#442C26" transform="translate(1262,932)"/>
<path d="M0 0 C0.66 0.33 1.32 0.66 2 1 C-0.87444093 4.03413209 -3.29141347 6.14570673 -7 8 C-7.33 8.99 -7.66 9.98 -8 11 C-11.44444444 14 -11.44444444 14 -14 14 C-14.33 14.99 -14.66 15.98 -15 17 C-16.98600337 18.3540932 -18.98817543 19.68457624 -21 21 C-22.68615782 22.64694485 -24.35570171 24.31126121 -26 26 C-29.73925429 28.49283619 -32.63275126 28.28237188 -36.96115285 28.262205 C-37.78683868 28.26625195 -38.61252451 28.27029889 -39.46323113 28.27446847 C-42.25962571 28.28569337 -45.05582558 28.28256262 -47.85223866 28.2796154 C-49.87413832 28.28473115 -51.89603594 28.29071823 -53.91793069 28.29750282 C-59.51792324 28.3136996 -65.11786601 28.31730097 -70.71787918 28.31894872 C-76.79379271 28.32287569 -82.8696789 28.33822191 -88.94557637 28.35209382 C-99.60919575 28.37478442 -110.27280266 28.38989961 -120.93643951 28.39990997 C-132.38274558 28.41066366 -143.82903409 28.42563169 -155.27532768 28.44573593 C-155.99739687 28.44699908 -156.71946606 28.44826223 -157.46341613 28.44956366 C-160.40415293 28.45471369 -163.3448897 28.45988088 -166.28562643 28.46507336 C-204.44933809 28.53231581 -242.61306829 28.57329037 -280.77681965 28.60995331 C-289.03106606 28.6179056 -297.28531202 28.62627747 -305.53955799 28.63466413 C-366.94910538 28.69698115 -428.35865828 28.7511502 -489.76822867 28.78455768 C-504.00882512 28.79233129 -518.24942143 28.80037149 -532.49001767 28.80852618 C-534.27763991 28.80954791 -536.06526215 28.81056537 -537.8528844 28.81157857 C-595.25979773 28.84411649 -652.66654257 28.9180975 -710.07337263 29.01988617 C-751.31505863 29.09299216 -792.55670933 29.16040328 -833.79845715 29.18498421 C-835.07067684 29.18574648 -835.07067684 29.18574648 -836.36859794 29.18652415 C-854.98763773 29.19755691 -873.60667744 29.20523808 -892.22571991 29.2097751 C-899.7173714 29.21165106 -907.20902274 29.21396333 -914.70067406 29.21640396 C-915.5205945 29.21665901 -916.34051495 29.21691405 -917.18528147 29.21717683 C-943.59881511 29.22559412 -970.01212325 29.27115478 -996.42557394 29.33591383 C-1023.03260691 29.40094282 -1049.63939413 29.42812938 -1076.2465031 29.40312542 C-1079.92408867 29.39967622 -1083.60167449 29.39665059 -1087.27926064 29.39387894 C-1088.00016382 29.39331972 -1088.72106701 29.3927605 -1089.46381575 29.39218433 C-1100.87437545 29.38443597 -1112.28444883 29.41700901 -1123.6948891 29.46643876 C-1134.91788322 29.51422136 -1146.14022713 29.51813944 -1157.3633139 29.4786301 C-1163.36622963 29.45874149 -1169.36748963 29.45790722 -1175.37024943 29.50995575 C-1180.83399407 29.55695411 -1186.29476577 29.54848157 -1191.75843641 29.49616236 C-1193.72023499 29.48702158 -1195.682258 29.4979074 -1197.64378979 29.53152693 C-1207.76859702 29.69382899 -1215.05717948 29.26267166 -1222.8272807 22.28236496 C-1224.40426082 20.7541842 -1225.93102116 19.19530188 -1227.43593956 17.59623472 C-1230.11333634 14.86376123 -1233.05950517 12.44243672 -1236 10 C-1235.34 9.67 -1234.68 9.34 -1234 9 C-1230.91645852 11.27055081 -1227.83320344 13.54149021 -1224.75 15.8125 C-1223.87730469 16.45509766 -1223.00460937 17.09769531 -1222.10546875 17.75976562 C-1221.26113281 18.38173828 -1220.41679688 19.00371094 -1219.546875 19.64453125 C-1218.77182617 20.21534424 -1217.99677734 20.78615723 -1217.19824219 21.37426758 C-1215 23 -1215 23 -1213.36404989 24.57731422 C-1209.99301453 26.60600409 -1206.79730161 26.41807966 -1202.97695959 26.38870484 C-1202.15674244 26.39427833 -1201.33652529 26.39985182 -1200.49145308 26.4055942 C-1197.71964037 26.42072285 -1194.94828464 26.41436585 -1192.1764431 26.40824986 C-1190.1699351 26.4147123 -1188.16343096 26.42248299 -1186.15693259 26.4314495 C-1180.60429584 26.45238557 -1175.05178331 26.4544679 -1169.49911293 26.45361764 C-1163.47274642 26.45592047 -1157.44643198 26.47539663 -1151.42009318 26.49267191 C-1140.84491564 26.5205215 -1130.26977269 26.53707875 -1119.69456673 26.54603195 C-1108.34380922 26.55566465 -1096.99308816 26.57166401 -1085.64235115 26.59543037 C-1084.56804142 26.59766958 -1084.56804142 26.59766958 -1083.47202846 26.59995402 C-1080.55513223 26.6060457 -1077.63823608 26.61216859 -1074.72134001 26.61833491 C-1039.34158502 26.6929763 -1003.96181454 26.73495597 -968.58200154 26.77013692 C-957.10849335 26.78156921 -945.63498672 26.7940743 -934.16148043 26.80727077 C-930.88899579 26.81102777 -927.61651114 26.81478267 -924.3440265 26.81853561 C-923.12761675 26.8199308 -923.12761675 26.8199308 -921.88663306 26.82135417 C-865.87639917 26.88546399 -809.86615972 26.9401531 -753.85589659 26.97033908 C-749.45546114 26.9727178 -745.05502571 26.97514447 -740.65459029 26.97757217 C-739.78168078 26.97805351 -738.90877127 26.97853486 -738.00940995 26.97903079 C-729.16556719 26.98391354 -720.32172446 26.98885401 -711.47788177 26.9938595 C-709.70466118 26.99486084 -707.9314406 26.99585728 -706.15822001 26.99684884 C-649.22220497 27.02869117 -592.28643334 27.11043426 -535.35053058 27.22635549 C-494.44580847 27.30961152 -453.54113588 27.38641505 -412.63633156 27.41291714 C-411.37419886 27.41373934 -411.37419886 27.41373934 -410.08656853 27.41457815 C-391.61407169 27.42646486 -373.14157517 27.43440678 -354.66907505 27.43865871 C-347.23613603 27.44042615 -339.80319717 27.44269208 -332.37025833 27.44509697 C-331.1500286 27.44547026 -331.1500286 27.44547026 -329.90514776 27.44585109 C-303.71037281 27.45408846 -277.5159011 27.50532547 -251.32123441 27.57874191 C-224.92969379 27.65246098 -198.53849474 27.68177951 -172.14685876 27.65019218 C-168.49699416 27.64583085 -164.84712918 27.64196189 -161.19726372 27.63838768 C-160.48181104 27.63766837 -159.76635836 27.63694907 -159.0292253 27.63620797 C-147.71639904 27.62611733 -136.40423695 27.66299253 -125.09156849 27.71961869 C-113.95780771 27.77437087 -102.82494359 27.77773079 -91.69106515 27.73061789 C-85.73855539 27.70687487 -79.78831362 27.70512874 -73.8360111 27.76540089 C-68.41315545 27.81986842 -62.99437348 27.80908045 -57.57162757 27.74768364 C-55.62925284 27.73686433 -53.68656473 27.74917813 -51.74455488 27.78834942 C-36.85938474 28.06894999 -28.92937448 23.69484413 -18.0027754 13.74987811 C-14.84878008 10.99414855 -11.44585724 8.62305871 -8 6.25 C-3.80978167 3.36220438 -3.80978167 3.36220438 0 0 Z " fill="#A49286" transform="translate(1262,932)"/>
<path d="M0 0 C0.66 0.33 1.32 0.66 2 1 C-0.87444093 4.03413209 -3.29141347 6.14570673 -7 8 C-7.33 8.99 -7.66 9.98 -8 11 C-11.44444444 14 -11.44444444 14 -14 14 C-14.33 14.99 -14.66 15.98 -15 17 C-16.98600337 18.3540932 -18.98817543 19.68457624 -21 21 C-22.68615782 22.64694485 -24.35570171 24.31126121 -26 26 C-29.22791555 28.1519437 -30.28400809 28.20086443 -34 28 C-32.82923864 24.48771591 -31.87466613 23.8906944 -28.94921875 21.7421875 C-28.11044189 21.12037598 -27.27166504 20.49856445 -26.4074707 19.85791016 C-25.50988037 19.2035498 -24.61229004 18.54918945 -23.6875 17.875 C-22.33047974 16.87218994 -22.33047974 16.87218994 -20.94604492 15.84912109 C-19.1363109 14.51189194 -17.32456998 13.17737416 -15.51074219 11.84570312 C-12.26318945 9.45835397 -9.03544485 7.04540144 -5.8125 4.625 C-4.89082031 3.93664062 -3.96914062 3.24828125 -3.01953125 2.5390625 C-1.11177183 1.15637263 -1.11177183 1.15637263 0 0 Z " fill="#E7D8C8" transform="translate(1262,932)"/>
<path d="M0 0 C5.30324234 1.6236567 9.25484242 5.01761538 13.5625 8.375 C14.31724609 8.9525 15.07199219 9.53 15.84960938 10.125 C19.44968235 12.90355852 22.89613556 15.65737675 26 19 C23.40636174 19.44042914 21.63851201 19.40723994 19.38769531 17.97167969 C17.57984318 16.49138991 15.84663478 14.95472129 14.125 13.375 C13.53847656 12.85292969 12.95195313 12.33085938 12.34765625 11.79296875 C11.16373534 10.73914904 9.98434391 9.68021831 8.80957031 8.61621094 C6.34688136 6.41666953 3.81740246 4.29955333 1.28076172 2.18603516 C0.85811035 1.79464355 0.43545898 1.40325195 0 1 C0 0.67 0 0.34 0 0 Z " fill="#F1E3D2" transform="translate(26,941)"/>
<path d="M0 0 C0.66 0.33 1.32 0.66 2 1 C-0.87444093 4.03413209 -3.29141347 6.14570673 -7 8 C-7.33 8.99 -7.66 9.98 -8 11 C-10.32363416 13.24064723 -11.49490144 13.96556146 -14.75 14.1875 C-15.4925 14.125625 -16.235 14.06375 -17 14 C-12.93869687 9.51856206 -8.24756237 6.17072618 -3.328125 2.671875 C-1.1463387 1.20030473 -1.1463387 1.20030473 0 0 Z " fill="#C6B6A7" transform="translate(1262,932)"/>
<path d="M0 0 C0.66 0.33 1.32 0.66 2 1 C1.505 1.598125 1.01 2.19625 0.5 2.8125 C-1.28276418 4.97029994 -1.28276418 4.97029994 -1 8 C-2.75 9.75 -2.75 9.75 -5 11 C-7.25 10.6875 -7.25 10.6875 -9 10 C-9 9.01 -9 8.02 -9 7 C-7.03125 5.17578125 -7.03125 5.17578125 -4.5 3.3125 C-3.6646875 2.68988281 -2.829375 2.06726563 -1.96875 1.42578125 C-0.99421875 0.72001953 -0.99421875 0.72001953 0 0 Z " fill="#4F372F" transform="translate(1234,947)"/>
<path d="M0 0 C3.83663072 1.34929464 6.65172569 3.07751025 9.8125 5.625 C10.99779297 6.57246094 10.99779297 6.57246094 12.20703125 7.5390625 C12.79871094 8.02117188 13.39039063 8.50328125 14 9 C13.67 9.66 13.34 10.32 13 11 C9.54691313 9.48729451 7.04375621 7.45279358 4.25 4.9375 C3.45078125 4.22464844 2.6515625 3.51179687 1.828125 2.77734375 C1.22484375 2.19082031 0.6215625 1.60429688 0 1 C0 0.67 0 0.34 0 0 Z " fill="#E9DACA" transform="translate(26,941)"/>
<path d="M0 0 C2.66666667 1.33333333 5.33333333 2.66666667 8 4 C8 4.66 8 5.32 8 6 C8.99 6 9.98 6 11 6 C10.67 6.66 10.34 7.32 10 8 C5.74508335 7.52723148 3.77457155 5.07452523 1 2 C0.67 1.34 0.34 0.68 0 0 Z " fill="#7F6B61" transform="translate(18,934)"/>
<path d="M0 0 C0.33 0.99 0.66 1.98 1 3 C-0.65 4.32 -2.3 5.64 -4 7 C-4.66 6.67 -5.32 6.34 -6 6 C-3.375 1.125 -3.375 1.125 0 0 Z " fill="#FBEEDC" transform="translate(1247,945)"/>
<path d="M0 0 C-0.33 1.32 -0.66 2.64 -1 4 C-4.75 5.125 -4.75 5.125 -7 4 C-2.25 0 -2.25 0 0 0 Z " fill="#DBCCBD" transform="translate(1252,941)"/>
<path d="M0 0 C0 3 0 3 0 3 Z " fill="#FFF2E0" transform="translate(1279,951)"/>
</svg>
