<?xml version="1.0" encoding="UTF-8"?>
<svg version="1.1" xmlns="http://www.w3.org/2000/svg" width="320" height="320">
<path d="M0 0 C1.67426681 1.42864084 3.34160303 2.86546735 5 4.3125 C5.72703125 4.91835938 6.4540625 5.52421875 7.203125 6.1484375 C11.96537266 10.16544793 16.06075894 14.49158075 20 19.3125 C21.14275391 20.68148437 21.14275391 20.68148437 22.30859375 22.078125 C42.47727522 47.12378873 53.04293062 78.15995636 53.203125 110.24609375 C53.20882507 111.16350845 53.21452515 112.08092316 53.22039795 113.02613831 C53.22977997 114.9580879 53.2363546 116.89005301 53.24023438 118.82202148 C53.24987235 121.71172634 53.28093384 124.6006977 53.3125 127.49023438 C53.40150546 143.00090891 52.08442958 158.30487972 47.4375 173.1875 C47.06395386 174.40095093 47.06395386 174.40095093 46.68286133 175.63891602 C35.21139533 211.08720835 10.07943669 240.60229349 -22.68603516 258.13525391 C-26.63590232 260.14477695 -30.65476631 261.93348158 -34.75 263.625 C-35.46164307 263.92615723 -36.17328613 264.22731445 -36.90649414 264.53759766 C-53.25759682 270.94834359 -69.64301167 273.12436627 -87.10327148 272.90942383 C-90.19672027 272.87489709 -93.287326 272.8889128 -96.38085938 272.90820312 C-112.19821566 272.89765985 -126.85733262 270.8001685 -141.6875 265.0625 C-142.86155396 264.61644409 -142.86155396 264.61644409 -144.05932617 264.16137695 C-161.45445581 257.36212175 -176.53261904 247.21420745 -190 234.3125 C-191.30517578 233.11947266 -191.30517578 233.11947266 -192.63671875 231.90234375 C-215.99264512 209.81250184 -231.70969063 176.06807782 -233.10714722 143.84159851 C-233.16428036 141.05420195 -233.19092166 138.26842667 -233.203125 135.48046875 C-233.20882507 134.44924393 -233.21452515 133.4180191 -233.22039795 132.35554504 C-233.22980967 130.17624931 -233.23636663 127.99693958 -233.24023438 125.81762695 C-233.24985849 122.54807287 -233.2808853 119.2791704 -233.3125 116.00976562 C-233.51220242 76.69209185 -220.83076072 40.03426816 -193.1796875 11.46875 C-142.25249455 -39.67890699 -56.56012302 -45.74601421 0 0 Z M-126.94335938 7.70410156 C-128.72105257 8.22998136 -130.50825428 8.72351716 -132.296875 9.2109375 C-141.25984987 11.85138145 -149.03771943 16.53804672 -157 21.3125 C-158.0621875 21.93769531 -159.124375 22.56289063 -160.21875 23.20703125 C-165.18066363 26.22643748 -169.36786171 29.32756682 -173.33203125 33.57421875 C-175.08441073 35.40046903 -176.93652118 36.9988105 -178.875 38.625 C-187.14594525 45.80808398 -193.45042604 53.91043161 -199 63.3125 C-199.99 64.91931641 -199.99 64.91931641 -201 66.55859375 C-214.31164059 88.51427976 -221.59738935 114.50766975 -215.70751953 139.83251953 C-214.42552619 144.99940855 -212.8774325 149.9981592 -210.91796875 154.953125 C-210.05965819 157.15916575 -209.40138189 159.35138677 -208.75 161.625 C-202.04965128 181.9445358 -184.97966143 201.82141976 -168 214.3125 C-167.24976563 214.88871094 -166.49953125 215.46492187 -165.7265625 216.05859375 C-139.78125794 235.22978295 -106.32603379 245.10948125 -74.12475586 240.49145508 C-64.7807332 238.96943902 -55.93852283 236.38572314 -47 233.3125 C-45.55753906 232.86970703 -45.55753906 232.86970703 -44.0859375 232.41796875 C-35.65108663 229.69343727 -28.43622372 225.02752045 -21 220.3125 C-20.14019531 219.78398437 -19.28039062 219.25546875 -18.39453125 218.7109375 C-10.37352994 213.62860393 -3.66269796 207.02749544 3 200.3125 C3.74378906 199.58933594 4.48757812 198.86617187 5.25390625 198.12109375 C13.53488515 189.61592591 19.28142033 179.65110732 25 169.3125 C25.36689941 168.65403076 25.73379883 167.99556152 26.11181641 167.31713867 C29.04658887 161.7820871 30.84475519 155.99060256 32.625 150 C32.9240625 149.03126953 33.223125 148.06253906 33.53125 147.06445312 C40.93953742 122.49581852 37.38068551 97.7136452 25.82421875 74.76953125 C23.71229644 70.84594689 21.39573521 67.06766593 19 63.3125 C18.64760254 62.74289551 18.29520508 62.17329102 17.93212891 61.58642578 C14.35308907 55.80438166 10.69206479 50.59616673 5.7109375 45.953125 C3.85325337 44.17178405 2.2215696 42.27936079 0.5625 40.3125 C-9.05547913 29.21647953 -21.35852159 22.42513136 -34 15.3125 C-34.58692627 14.96219727 -35.17385254 14.61189453 -35.77856445 14.25097656 C-41.60243642 10.79707142 -47.51468878 9.11358751 -54 7.3125 C-55.20785156 6.95929687 -56.41570312 6.60609375 -57.66015625 6.2421875 C-81.37855438 -0.2725302 -103.50349534 0.74571124 -126.94335938 7.70410156 Z " fill="#39211C" transform="translate(250,40.6875)"/>
<path d="M0 0 C1.67426681 1.42864084 3.34160303 2.86546735 5 4.3125 C5.72703125 4.91835938 6.4540625 5.52421875 7.203125 6.1484375 C11.96537266 10.16544793 16.06075894 14.49158075 20 19.3125 C21.14275391 20.68148437 21.14275391 20.68148437 22.30859375 22.078125 C42.47727522 47.12378873 53.04293062 78.15995636 53.203125 110.24609375 C53.20882507 111.16350845 53.21452515 112.08092316 53.22039795 113.02613831 C53.22977997 114.9580879 53.2363546 116.89005301 53.24023438 118.82202148 C53.24987235 121.71172634 53.28093384 124.6006977 53.3125 127.49023438 C53.40150546 143.00090891 52.08442958 158.30487972 47.4375 173.1875 C47.06395386 174.40095093 47.06395386 174.40095093 46.68286133 175.63891602 C35.21139533 211.08720835 10.07943669 240.60229349 -22.68603516 258.13525391 C-26.63590232 260.14477695 -30.65476631 261.93348158 -34.75 263.625 C-35.46164307 263.92615723 -36.17328613 264.22731445 -36.90649414 264.53759766 C-53.25759682 270.94834359 -69.64301167 273.12436627 -87.10327148 272.90942383 C-90.19672027 272.87489709 -93.287326 272.8889128 -96.38085938 272.90820312 C-112.19821566 272.89765985 -126.85733262 270.8001685 -141.6875 265.0625 C-142.86155396 264.61644409 -142.86155396 264.61644409 -144.05932617 264.16137695 C-161.45445581 257.36212175 -176.53261904 247.21420745 -190 234.3125 C-191.30517578 233.11947266 -191.30517578 233.11947266 -192.63671875 231.90234375 C-215.99264512 209.81250184 -231.70969063 176.06807782 -233.10714722 143.84159851 C-233.16428036 141.05420195 -233.19092166 138.26842667 -233.203125 135.48046875 C-233.20882507 134.44924393 -233.21452515 133.4180191 -233.22039795 132.35554504 C-233.22980967 130.17624931 -233.23636663 127.99693958 -233.24023438 125.81762695 C-233.24985849 122.54807287 -233.2808853 119.2791704 -233.3125 116.00976562 C-233.51220242 76.69209185 -220.83076072 40.03426816 -193.1796875 11.46875 C-142.25249455 -39.67890699 -56.56012302 -45.74601421 0 0 Z M-133 -19.6875 C-133.69963867 -19.46578125 -134.39927734 -19.2440625 -135.12011719 -19.015625 C-154.54258305 -12.67960958 -171.21586156 -1.69472854 -186 12.3125 C-187.32837891 13.54419922 -187.32837891 13.54419922 -188.68359375 14.80078125 C-213.51952715 38.57986642 -228.10954085 72.74906124 -229.203125 107.08203125 C-229.81123308 146.29531912 -216.4015703 181.84132192 -189.35864258 210.35620117 C-164.0469548 236.22106592 -129.04308893 250.85568994 -93.00878906 251.66625977 C-55.12899967 251.92822651 -21.97151228 238.55051778 6 213.3125 C6.78761719 212.60867187 7.57523438 211.90484375 8.38671875 211.1796875 C34.23372244 186.77120645 47.7348367 151.21833698 49.125 116.16015625 C49.82449284 77.99407812 35.53834902 42.60652514 9.23461914 15.14672852 C1.77052685 7.54733008 -5.96046253 0.94868604 -15 -4.6875 C-15.61810547 -5.07486328 -16.23621094 -5.46222656 -16.87304688 -5.86132812 C-51.84425995 -27.41211628 -93.91576885 -32.10066561 -133 -19.6875 Z " fill="#351D18" transform="translate(250,40.6875)"/>
<path d="M0 0 C2.1452049 1.99919452 4.2453297 4.03898746 6.32446289 6.10668945 C7.66123683 7.42582666 9.03352602 8.7087095 10.40844727 9.98803711 C34.32126929 32.6600995 48.63629339 66.71666849 49.76782227 99.53100586 C49.8077832 100.56612305 49.84774414 101.60124023 49.88891602 102.66772461 C50.53909207 136.20915977 39.62160605 169.87656402 17.76782227 195.53100586 C17.03950195 196.39854492 16.31118164 197.26608398 15.56079102 198.15991211 C-7.75471308 225.00424926 -41.56647806 242.84765898 -77.23217773 245.53100586 C-118.34528344 247.46847191 -154.13444718 235.53893423 -184.92895508 208.0144043 C-210.66103738 184.4784832 -226.52416362 149.91016828 -228.35766602 115.15209961 C-229.58210922 83.30427026 -221.52130478 51.28744255 -202.23217773 25.53100586 C-201.58120117 24.65831055 -200.93022461 23.78561523 -200.25952148 22.88647461 C-190.07261631 9.88150969 -178.23654688 -1.66895136 -164.23217773 -10.46899414 C-163.61793945 -10.85780762 -163.00370117 -11.24662109 -162.37084961 -11.6472168 C-113.28377034 -42.19448382 -43.82838829 -39.33089506 0 0 Z M-153.23217773 -10.46899414 C-154.0687793 -10.04875977 -154.90538086 -9.62852539 -155.76733398 -9.19555664 C-183.92315166 5.21449887 -205.6642374 33.45407601 -216.0534668 62.85522461 C-217.44861691 67.3546357 -218.37082514 71.89884303 -219.23217773 76.53100586 C-219.52608398 77.79944336 -219.81999023 79.06788086 -220.12280273 80.37475586 C-225.95538917 106.66819752 -223.53368534 137.43603435 -211.23217773 161.53100586 C-210.85786621 162.27431152 -210.48355469 163.01761719 -210.09790039 163.78344727 C-204.77830501 174.19780491 -198.76567291 183.58043844 -191.23217773 192.53100586 C-190.49225586 193.41143555 -189.75233398 194.29186523 -188.98999023 195.19897461 C-177.8716974 207.95929289 -165.2957827 217.8827322 -150.23217773 225.53100586 C-149.08749023 226.12139648 -147.94280273 226.71178711 -146.76342773 227.32006836 C-138.45685052 231.47998808 -130.28666429 234.21551771 -121.19995117 236.10913086 C-119.32889991 236.51026939 -117.47118844 236.97220404 -115.61499023 237.43725586 C-97.2579563 241.62871393 -77.48865821 240.82555473 -59.23217773 236.53100586 C-57.89155469 236.25888623 -56.55039779 235.98938449 -55.20874023 235.72241211 C-44.99702648 233.57504304 -36.31374353 229.5881999 -27.23217773 224.53100586 C-26.50788574 224.13574707 -25.78359375 223.74048828 -25.03735352 223.33325195 C-15.7779657 218.25422025 -7.82775157 212.94473354 -0.23217773 205.53100586 C1.09585702 204.42047198 2.42903156 203.31604913 3.76782227 202.21850586 C12.96918873 194.14875907 19.81467752 184.13407738 25.76782227 173.53100586 C26.1485791 172.85312012 26.52933594 172.17523438 26.92163086 171.47680664 C44.92397109 139.10770647 47.81860521 103.78010391 38.20532227 68.21850586 C27.9395844 32.77314894 4.12492689 6.25351534 -27.69067383 -11.56591797 C-65.97765955 -32.4447702 -115.3929334 -31.34285651 -153.23217773 -10.46899414 Z " fill="#DECECC" transform="translate(249.232177734375,46.468994140625)"/>
<path d="M0 0 C0.33 0 0.66 0 1 0 C-1.03877829 25.04350052 -14.55192779 52.2352979 -31 71 C-31.4419873 71.51062988 -31.88397461 72.02125977 -32.33935547 72.54736328 C-56.08619516 99.85159252 -89.55778542 118.25823119 -126 121 C-167.1131057 122.93746605 -202.90226945 111.00792837 -233.69677734 83.48339844 C-252.52368231 66.26331711 -267.36299939 41.99483239 -273 17 C-272.625 14.5625 -272.625 14.5625 -272 13 C-271.61070312 14.0415625 -271.22140625 15.083125 -270.8203125 16.15625 C-256.44980026 53.43799101 -228.20956931 80.13949785 -192.03515625 96.19848633 C-175.13775229 103.35164919 -157.09880078 106.39816158 -138.8125 106.3125 C-137.54092041 106.30686035 -136.26934082 106.3012207 -134.95922852 106.29541016 C-125.02557599 106.16790188 -115.63983763 105.40234328 -106 103 C-105.21399414 102.80664062 -104.42798828 102.61328125 -103.61816406 102.4140625 C-65.59028677 92.73152243 -35.02235646 69.360853 -14.83374023 35.86621094 C-8.2238344 24.59634519 -3.9348081 12.42936442 0 0 Z " fill="#8E8584" transform="translate(298,189)"/>
<path d="M0 0 C1.43740525 1.22387327 2.89948625 2.41870039 4.36767578 3.60546875 C14.10888336 11.69119383 22.92703069 23.27353208 28.73876953 34.48046875 C28.73876953 35.47046875 28.73876953 36.46046875 28.73876953 37.48046875 C29.39876953 37.48046875 30.05876953 37.48046875 30.73876953 37.48046875 C44.13982268 67.88154784 44.13982268 67.88154784 41.73876953 74.48046875 C41.45646484 73.65289062 41.17416016 72.8253125 40.88330078 71.97265625 C34.40920218 54.39196621 24.62991447 38.0877884 11.73876953 24.48046875 C10.94212891 23.60519531 10.14548828 22.72992188 9.32470703 21.828125 C0.35669472 12.34890678 -10.20369781 5.45355726 -21.51123047 -0.89453125 C-22.23117188 -1.29929687 -22.95111328 -1.7040625 -23.69287109 -2.12109375 C-32.22500065 -6.77921726 -40.92278647 -9.96737769 -50.38623047 -12.14453125 C-51.29783936 -12.3561792 -52.20944824 -12.56782715 -53.14868164 -12.78588867 C-73.5109924 -17.37324754 -92.84747519 -17.44281224 -113.26123047 -13.51953125 C-114.05432617 -13.36919434 -114.84742188 -13.21885742 -115.66455078 -13.06396484 C-128.62056932 -10.47652273 -139.60567622 -5.28476538 -151.05224609 1.22436523 C-152.40681226 1.99461755 -153.76866292 2.75242988 -155.14208984 3.48852539 C-159.95328813 6.09730932 -164.0573976 9.32601463 -168.26123047 12.79296875 C-168.93412109 13.33630859 -169.60701172 13.87964844 -170.30029297 14.43945312 C-177.10466219 20.00248472 -183.12402552 25.9356276 -188.38623047 32.98046875 C-188.78970703 33.51027344 -189.19318359 34.04007812 -189.60888672 34.5859375 C-190.42719562 35.66568695 -191.23910386 36.75031587 -192.04467773 37.83959961 C-192.847728 38.92274246 -193.66318394 39.99681025 -194.49145508 41.06079102 C-198.32670978 46.13050184 -200.91856613 51.66314589 -203.57373047 57.41796875 C-204.028125 58.38798828 -204.48251953 59.35800781 -204.95068359 60.35742188 C-206.06049857 62.72892124 -207.16381435 65.10321305 -208.26123047 67.48046875 C-210.32765877 61.28118384 -206.33379016 53.79100778 -203.69091797 48.09765625 C-202.65833559 46.06740973 -201.60674014 44.04664755 -200.53076172 42.0390625 C-199.42602112 39.8125853 -198.73491984 37.9059866 -198.26123047 35.48046875 C-197.60123047 35.48046875 -196.94123047 35.48046875 -196.26123047 35.48046875 C-196.17486328 34.76761719 -196.08849609 34.05476563 -195.99951172 33.3203125 C-194.50702713 27.57937973 -189.93747477 23.0433214 -186.26123047 18.48046875 C-185.79716797 17.89990723 -185.33310547 17.3193457 -184.85498047 16.72119141 C-163.61217634 -9.63749184 -133.9473508 -26.57393813 -100.26123047 -30.51953125 C-98.60414063 -30.73222656 -98.60414063 -30.73222656 -96.91357422 -30.94921875 C-61.1633254 -34.65531281 -27.10146508 -23.19637469 0 0 Z " fill="#8D8483" transform="translate(244.26123046875,55.51953125)"/>
<path d="M0 0 C1.25562744 0.01135986 1.25562744 0.01135986 2.53662109 0.02294922 C8.92719511 0.19324851 14.05722002 1.15393745 19.625 4.4375 C20.41132813 4.87320313 21.19765625 5.30890625 22.0078125 5.7578125 C30.35299638 10.79797306 36.31919408 18.82686102 39.15771484 28.19580078 C40.17155955 33.05950096 39.89630367 38.11344776 39.9375 43.0625 C39.98100586 44.76986328 39.98100586 44.76986328 40.02539062 46.51171875 C40.10861997 57.6644514 37.15389021 65.58194806 29.97265625 74.10546875 C20.66914065 83.34706411 10.95975662 85.89668897 -1.69067383 85.86914062 C-12.48386014 85.62533789 -20.58353 82.19022256 -28.40234375 74.68359375 C-36.88523106 65.02486067 -38.73647021 55.70255544 -38.75 43.1875 C-38.77449219 42.01058594 -38.79898438 40.83367187 -38.82421875 39.62109375 C-38.86589465 27.13221685 -35.10493744 18.38375448 -26.375 9.4375 C-18.40070388 2.8270451 -10.30179973 -0.13077038 0 0 Z M-23.74609375 29.1796875 C-27.8905102 34.92422637 -29.32522654 40.37331589 -28.375 47.4375 C-27.59701445 49.97592722 -26.59322075 52.04791315 -25.375 54.4375 C-25.08625 55.13875 -24.7975 55.84 -24.5 56.5625 C-20.62560337 63.01982771 -14.23908214 66.84444228 -7.125 68.75 C0.65389938 70.2367521 8.72758631 69.39712638 15.625 65.4375 C22.90985936 60.17621269 28.23921511 54.13736909 30.09765625 45.15234375 C30.53372645 38.81255393 28.18752662 33.57877972 24.625 28.4375 C19.03516619 22.27301037 13.25186704 18.00347762 4.79296875 16.96875 C-7.74476645 16.87031832 -15.60605063 19.21430138 -23.74609375 29.1796875 Z " fill="#DCCCCA" transform="translate(159.375,113.5625)"/>
<path d="M0 0 C7.48310447 4.91780642 12.37578913 11.42954353 15 20 C16.52691254 30.38716011 15.29272039 39.28101422 9 48 C2.91126958 55.05132971 -4.08826355 59.34691979 -13.39453125 60.375 C-23.19542109 60.7147925 -30.65999317 58.977459 -38.3125 52.75 C-44.41935223 46.98858588 -48.47459845 40.15626633 -49.3359375 31.703125 C-49.46018748 20.7194265 -47.57059461 12.85708101 -39.92578125 4.75390625 C-28.69634577 -5.47330781 -13.42961483 -7.19516655 0 0 Z M-41.37109375 17.7421875 C-45.5155102 23.48672637 -46.95022654 28.93581589 -46 36 C-45.22201445 38.53842722 -44.21822075 40.61041315 -43 43 C-42.71125 43.70125 -42.4225 44.4025 -42.125 45.125 C-38.25060337 51.58232771 -31.86408214 55.40694228 -24.75 57.3125 C-16.97110062 58.7992521 -8.89741369 57.95962638 -2 54 C5.28485936 48.73871269 10.61421511 42.69986909 12.47265625 33.71484375 C12.90872645 27.37505393 10.56252662 22.14127972 7 17 C1.41016619 10.83551037 -4.37313296 6.56597762 -12.83203125 5.53125 C-25.36976645 5.43281832 -33.23105063 7.77680138 -41.37109375 17.7421875 Z " fill="#837B7A" transform="translate(177,125)"/>
<path d="M0 0 C1.25562744 0.01135986 1.25562744 0.01135986 2.53662109 0.02294922 C8.92719511 0.19324851 14.05722002 1.15393745 19.625 4.4375 C20.41132813 4.87320313 21.19765625 5.30890625 22.0078125 5.7578125 C30.35299638 10.79797306 36.31919408 18.82686102 39.15771484 28.19580078 C40.17155955 33.05950096 39.89630367 38.11344776 39.9375 43.0625 C39.98100586 44.76986328 39.98100586 44.76986328 40.02539062 46.51171875 C40.10861997 57.6644514 37.15389021 65.58194806 29.97265625 74.10546875 C20.66914065 83.34706411 10.95975662 85.89668897 -1.69067383 85.86914062 C-12.48386014 85.62533789 -20.58353 82.19022256 -28.40234375 74.68359375 C-36.88523106 65.02486067 -38.73647021 55.70255544 -38.75 43.1875 C-38.77449219 42.01058594 -38.79898438 40.83367187 -38.82421875 39.62109375 C-38.86589465 27.13221685 -35.10493744 18.38375448 -26.375 9.4375 C-18.40070388 2.8270451 -10.30179973 -0.13077038 0 0 Z M-29.375 16.4375 C-31.36556536 19.32264886 -32.97014058 22.22973766 -34.375 25.4375 C-34.73722656 26.18386719 -35.09945312 26.93023437 -35.47265625 27.69921875 C-38.525775 36.96431072 -37.1159876 48.24340046 -32.921875 56.85546875 C-27.35714141 66.14407709 -19.01842767 73.68352598 -8.375 76.4375 C-5.02695967 76.76472166 -1.73458385 76.7256327 1.625 76.625 C2.49511719 76.61146484 3.36523438 76.59792969 4.26171875 76.58398438 C6.38308627 76.54901678 8.50412974 76.4952253 10.625 76.4375 C-0.4232219 78.4213413 -9.74850368 77.96782646 -19.59765625 72.1171875 C-25.97714485 67.61835739 -30.76448826 61.66792127 -35.375 55.4375 C-34.19597056 64.86973553 -28.54252577 71.57620557 -21.375 77.4375 C-11.42704809 83.65128005 -1.09230941 84.8446717 10.48046875 82.9765625 C20.67754196 80.28896181 28.47809886 73.09875787 33.984375 64.25390625 C35.28666692 61.91303421 35.28666692 61.91303421 36.625 58.4375 C36.295 57.4475 35.965 56.4575 35.625 55.4375 C35.29628906 55.994375 34.96757812 56.55125 34.62890625 57.125 C30.77904085 63.30147783 25.60965141 70.86159646 18.3515625 73.15625 C17.78179687 73.2490625 17.21203125 73.341875 16.625 73.4375 C17.12128906 73.15777344 17.61757812 72.87804687 18.12890625 72.58984375 C28.73606996 66.33020824 33.73686216 59.10191353 37.625 47.4375 C38.48820682 34.97052937 37.36344827 25.26646101 29.23828125 15.24609375 C22.54016794 7.73707084 14.85695228 3.20949009 4.71484375 1.953125 C-9.25168268 1.19668169 -20.08499477 5.93723721 -29.375 16.4375 Z " fill="#242222" transform="translate(159.375,113.5625)"/>
<path d="M0 0 C6.59960879 4.58221686 11.88260506 10.0551668 13.41088867 18.18603516 C13.60593988 20.45322448 13.65774452 22.66236218 13.625 24.9375 C13.61351929 26.12327637 13.61351929 26.12327637 13.60180664 27.33300781 C13.350035 33.94593674 11.75891258 38.26219125 7 43 C6.47019531 43.56847656 5.94039062 44.13695312 5.39453125 44.72265625 C-0.95406825 50.86013843 -8.28237137 53.21603816 -17 53.5 C-26.44410823 53.18246491 -33.36783784 50.4149641 -40.24609375 43.92578125 C-47.70141847 35.73986791 -49.34708794 27.83685675 -49 17 C-48.34 16.67 -47.68 16.34 -47 16 C-46.443125 14.80375 -45.88625 13.6075 -45.3125 12.375 C-41.63274117 4.7982272 -35.81229329 -0.00394525 -28 -3 C-18.77463058 -5.8877732 -8.40542019 -4.54071258 0 0 Z M-41.37109375 10.7421875 C-45.5155102 16.48672637 -46.95022654 21.93581589 -46 29 C-45.22201445 31.53842722 -44.21822075 33.61041315 -43 36 C-42.71125 36.70125 -42.4225 37.4025 -42.125 38.125 C-38.25060337 44.58232771 -31.86408214 48.40694228 -24.75 50.3125 C-16.97110062 51.7992521 -8.89741369 50.95962638 -2 47 C5.28485936 41.73871269 10.61421511 35.69986909 12.47265625 26.71484375 C12.90872645 20.37505393 10.56252662 15.14127972 7 10 C1.41016619 3.83551037 -4.37313296 -0.43402238 -12.83203125 -1.46875 C-25.36976645 -1.56718168 -33.23105063 0.77680138 -41.37109375 10.7421875 Z " fill="#232121" transform="translate(177,132)"/>
<path d="M0 0 C0.515625 0.66 1.03125 1.32 1.5625 2 C2.366875 2.99 3.17125 3.98 4 5 C4.49757812 5.62777344 4.99515625 6.25554687 5.5078125 6.90234375 C11.72180475 14.43139017 19.25712874 20.10555281 29 22 C36.09429411 22.63127193 42.55605731 22.22197135 49 19 C49.70125 18.938125 50.4025 18.87625 51.125 18.8125 C60.28941873 16.22255558 66.5789398 7.32575703 72 0 C70.47267983 9.17999805 65.10969743 16.1937471 58 22 C55.42635713 23.65518635 52.84848505 24.89322667 50 26 C48.96875 26.4125 47.9375 26.825 46.875 27.25 C36.74749372 29.21016251 25.99017407 29.03876724 16.890625 23.78125 C9.45683357 18.59488389 2.79357795 11.72993109 0 3 C0 2.01 0 1.02 0 0 Z " fill="#88807F" transform="translate(124,169)"/>
<path d="M0 0 C0.99 0.495 0.99 0.495 2 1 C2.75144266 13.14832304 0.22429668 21.31905908 -7.65234375 30.66796875 C-16.95585935 39.90956411 -26.66524338 42.45918897 -39.31567383 42.43164062 C-50.10886014 42.18783789 -58.20853 38.75272256 -66.02734375 31.24609375 C-73.93528062 22.24200722 -76.37646002 13.75391849 -76 2 C-75.67 2 -75.34 2 -75 2 C-74.84144531 2.82242188 -74.68289062 3.64484375 -74.51953125 4.4921875 C-72.08883576 16.12192395 -68.5980797 25.50150024 -59 33 C-48.97014339 39.14634505 -38.78184029 40.41758845 -27.14453125 38.5390625 C-18.22682772 36.18866002 -11.21696545 30.54103417 -6 23 C-4.80539946 20.69194159 -3.89896307 18.44717726 -3 16 C-3.54527344 16.65226562 -4.09054688 17.30453125 -4.65234375 17.9765625 C-9.39516402 23.47336958 -14.23429571 28.9975489 -21 32 C-21.99 31.67 -22.98 31.34 -24 31 C-23.35933594 30.64808594 -22.71867187 30.29617187 -22.05859375 29.93359375 C-10.29150194 23.217057 -4.51322542 15.91029607 -0.6875 2.8125 C-0.460625 1.884375 -0.23375 0.95625 0 0 Z " fill="#201E1E" transform="translate(197,157)"/>
<path d="M0 0 C0.66 0 1.32 0 2 0 C2 1.32 2 2.64 2 4 C2.66 4 3.32 4 4 4 C6.92813142 10.6201232 6.92813142 10.6201232 7.4375 13.3125 C7.85754903 15.2189945 7.85754903 15.2189945 10 16.0625 C10.66 16.371875 11.32 16.68125 12 17 C12.33 17.99 12.66 18.98 13 20 C14.73433657 20.56058477 14.73433657 20.56058477 17 21 C18.03125 21.495 19.0625 21.99 20.125 22.5 C27.73223268 25.7625499 35.23098349 25.44115895 43.1015625 23.1953125 C51.25829499 19.83148481 55.70919613 13.76125848 59.22265625 5.90625 C59.47917969 5.2771875 59.73570312 4.648125 60 4 C62 6 62 6 62 8.125 C59.1340356 16.36464764 52.55933944 21.79733706 45.203125 26.03515625 C37.45596254 29.59421593 27.53523576 29.26955972 19.625 26.4375 C11.81522395 22.7826787 5.57163705 16.89519769 2 9 C1.11483563 6.02473548 0.47553903 3.06616211 0 0 Z " fill="#3B3737" transform="translate(128,157)"/>
<path d="M0 0 C0.33 0 0.66 0 1 0 C1.15855469 0.82242188 1.31710938 1.64484375 1.48046875 2.4921875 C3.91380159 14.13454242 7.4073582 23.48325276 17 31 C22.70262373 34.56300656 28.43652138 36.6629951 35 38 C34.505 38.99 34.505 38.99 34 40 C23.67948556 39.42663809 14.90486702 34.67536721 8 27 C1.61571575 18.06200205 -0.34868253 10.88664352 0 0 Z " fill="#191818" transform="translate(121,159)"/>
<path d="M0 0 C1.8902783 2.83541745 3.12012965 5.52029171 4.5 8.625 C8.75669423 17.15905202 15.59991786 24.16592383 24.73046875 27.42578125 C32.69087864 28.82384607 40.95133715 28.28880104 49 28 C45.46286598 31.53713402 40.60613204 31.11390667 35.8125 31.3125 C24.86949434 31.17868607 16.32221445 26.35012817 8.765625 18.75390625 C2.67018312 12.17212593 2.67018312 12.17212593 2 8 C1.34 8 0.68 8 0 8 C0 5.36 0 2.72 0 0 Z " fill="#464141" transform="translate(123,161)"/>
<path d="M0 0 C3.24790781 1.38193918 4.97508798 2.85418609 7.0625 5.6875 C7.54847656 6.33074219 8.03445312 6.97398437 8.53515625 7.63671875 C12.23102774 13.59939142 13.45338202 18.45471243 13.25 25.3125 C13.24484375 26.02728516 13.2396875 26.74207031 13.234375 27.47851562 C13.15580965 32.68838071 13.15580965 32.68838071 12 35 C11.34 35 10.68 35 10 35 C10.02320313 34.01 10.04640625 33.02 10.0703125 32 C10.29090113 18.90566001 8.23020772 10.39605186 0 0 Z " fill="#6A6362" transform="translate(179,128)"/>
<path d="M0 0 C4.07064886 -0.08480518 6.05241126 0.17490029 9.17578125 2.89453125 C14.78002989 9.07252381 17.29648556 13.32396492 17.125 21.8125 C17.10695312 22.97394531 17.08890625 24.13539063 17.0703125 25.33203125 C17.04710937 26.21246094 17.02390625 27.09289062 17 28 C16.67 28 16.34 28 16 28 C15.92523438 27.23816406 15.85046875 26.47632813 15.7734375 25.69140625 C14.6851829 17.1454069 12.51031386 10.84512369 5.828125 5.1484375 C4.42275391 4.09690097 2.99444269 3.07490518 1.5390625 2.09375 C1.03117188 1.7328125 0.52328125 1.371875 0 1 C0 0.67 0 0.34 0 0 Z " fill="#242222" transform="translate(173,133)"/>
<path d="M0 0 C8.95767411 -0.46466321 15.9606364 -0.12506672 24 4 C24.75023437 4.37382813 25.50046875 4.74765625 26.2734375 5.1328125 C26.84320313 5.41898437 27.41296875 5.70515625 28 6 C27.67 6.99 27.34 7.98 27 9 C26.24074219 8.65066406 25.48148438 8.30132812 24.69921875 7.94140625 C23.70535156 7.48636719 22.71148437 7.03132813 21.6875 6.5625 C20.70136719 6.11003906 19.71523437 5.65757813 18.69921875 5.19140625 C14.45329671 3.31730173 10.92562914 2.75722182 6.3125 2.4375 C5.13300781 2.35371094 3.95351562 2.26992187 2.73828125 2.18359375 C1.83464844 2.12300781 0.93101562 2.06242187 0 2 C0 1.34 0 0.68 0 0 Z " fill="#363232" transform="translate(155,114)"/>
<path d="M0 0 C0.33 0 0.66 0 1 0 C1 2.64 1 5.28 1 8 C0.34 8 -0.32 8 -1 8 C-1.185625 8.66 -1.37125 9.32 -1.5625 10 C-4.99183047 17.15686359 -11.24035556 22.94138503 -18 27 C-21 27.875 -21 27.875 -23 28 C-20.91858163 25.75797836 -18.91788542 24.29050852 -16.25 22.8125 C-7.28934599 17.25525036 -3.51429183 9.71693594 0 0 Z " fill="#484443" transform="translate(196,161)"/>
<path d="M0 0 C-0.71285156 0.38929687 -1.42570312 0.77859375 -2.16015625 1.1796875 C-9.98183314 5.7484732 -15.96393605 10.80009356 -18.8671875 19.640625 C-19.34893601 21.7392007 -19.6906863 23.86917231 -20 26 C-20.66 25.67 -21.32 25.34 -22 25 C-20.34241944 14.31231637 -15.71291751 7.40910433 -7 1 C-3.47019424 -1.15673141 -3.47019424 -1.15673141 0 0 Z " fill="#625B5B" transform="translate(150,124)"/>
<path d="M0 0 C0.33 0 0.66 0 1 0 C0.4236726 6.13577824 -0.91599763 11.60349539 -2.875 17.4375 C-3.13152344 18.25154297 -3.38804687 19.06558594 -3.65234375 19.90429688 C-3.90886719 20.67708984 -4.16539062 21.44988281 -4.4296875 22.24609375 C-4.65897949 22.94404053 -4.88827148 23.6419873 -5.12451172 24.36108398 C-6 26 -6 26 -9 27 C-8.27929102 22.43550978 -6.72185725 18.34817807 -5.0625 14.0625 C-3.27432574 9.40280504 -1.53879862 4.75020444 0 0 Z " fill="#807574" transform="translate(298,189)"/>
<path d="M0 0 C0.66 0.33 1.32 0.66 2 1 C2.51345509 9.30085731 1.70721995 15.51935975 -2 23 C-2.66 22.67 -3.32 22.34 -4 22 C-3.79503906 21.41734375 -3.59007812 20.8346875 -3.37890625 20.234375 C-1.16422429 13.49496004 -0.35231122 7.07052165 0 0 Z " fill="#090909" transform="translate(197,157)"/>
<path d="M0 0 C0 0.99 0 1.98 0 3 C-4.70461323 4.86132673 -8.8757696 5.2509496 -13.875 5.125 C-14.56335938 5.11597656 -15.25171875 5.10695312 -15.9609375 5.09765625 C-17.64077838 5.07432513 -19.32043746 5.03846326 -21 5 C-20.67 4.34 -20.34 3.68 -20 3 C-17.52318728 2.54778956 -15.12242396 2.20441799 -12.625 1.9375 C-8.43837333 1.46138926 -4.10210837 0 0 0 Z " fill="#292727" transform="translate(176,194)"/>
<path d="M0 0 C2 2 2 2 2 4.125 C0.52386171 8.36889758 -2.1899239 11.53681753 -5 15 C-5.33 14.34 -5.66 13.68 -6 13 C-5.10333658 10.75689987 -4.10853317 8.55245679 -3.0625 6.375 C-2.49660156 5.18648437 -1.93070313 3.99796875 -1.34765625 2.7734375 C-0.90292969 1.85820312 -0.45820313 0.94296875 0 0 Z " fill="#3F3B3A" transform="translate(188,161)"/>
<path d="M0 0 C2.19858192 3.29787288 3.08315174 6.13806357 4.1875 9.9375 C4.55230469 11.16339844 4.91710937 12.38929687 5.29296875 13.65234375 C5.93853762 16.70898753 6.1197357 18.15430227 5 21 C-0.74031891 7.55125285 -0.74031891 7.55125285 0 0 Z " fill="#746765" transform="translate(281,109)"/>
<path d="M0 0 C2.37590142 3.70416126 2.20500286 6.92984573 2.125 11.25 C2.10695312 12.51328125 2.08890625 13.7765625 2.0703125 15.078125 C2.03550781 16.52445313 2.03550781 16.52445313 2 18 C1.34 17.67 0.68 17.34 0 17 C-0.3400005 14.30364823 -0.55958136 11.70722351 -0.6875 9 C-0.73455078 8.24976563 -0.78160156 7.49953125 -0.83007812 6.7265625 C-0.93505575 4.81975572 -0.97278125 2.90950034 -1 1 C-0.67 0.67 -0.34 0.34 0 0 Z " fill="#312E2D" transform="translate(197,140)"/>
<path d="M0 0 C0.33 0.66 0.66 1.32 1 2 C1.66 2.33 2.32 2.66 3 3 C1.02 7.29 -0.96 11.58 -3 16 C-4.31225809 12.06322574 -3.3393954 10.2205738 -2.0625 6.3125 C-1.68222656 5.13300781 -1.30195312 3.95351562 -0.91015625 2.73828125 C-0.60980469 1.83464844 -0.30945312 0.93101563 0 0 Z " fill="#817675" transform="translate(39,107)"/>
<path d="M0 0 C0.33 0 0.66 0 1 0 C1.50838564 2.03959477 2.00633886 4.08179138 2.5 6.125 C2.7784375 7.26195312 3.056875 8.39890625 3.34375 9.5703125 C3.96453765 12.81466698 4.12006768 15.70814457 4 19 C0.83351995 15.83351995 0.07068743 12.60593007 -0.125 8.16015625 C-0.125 5.43721157 -0.08716399 2.72145344 0 0 Z " fill="#000000" transform="translate(121,159)"/>
<path d="M0 0 C2.30115739 0.92046296 3.71516042 1.58065284 5.125 3.65625 C6.28941189 6.77521041 6.19138208 9.43089594 6.125 12.75 C6.10695312 13.92046875 6.08890625 15.0909375 6.0703125 16.296875 C6.03550781 17.63492188 6.03550781 17.63492188 6 19 C5.67 19 5.34 19 5 19 C4.89042969 18.19175781 4.78085938 17.38351563 4.66796875 16.55078125 C4.50941406 15.48214844 4.35085937 14.41351563 4.1875 13.3125 C4.03667969 12.25675781 3.88585937 11.20101562 3.73046875 10.11328125 C2.97427439 6.89035664 1.76897852 4.76736092 0 2 C0 1.34 0 0.68 0 0 Z " fill="#010101" transform="translate(184,142)"/>
<path d="M0 0 C-1.45449401 1.0055761 -2.91372443 2.00430435 -4.375 3 C-5.59316406 3.8353125 -5.59316406 3.8353125 -6.8359375 4.6875 C-9 6 -9 6 -11 6 C-8.99478859 0.71353355 -5.45752006 -1.70692649 0 0 Z " fill="#151313" transform="translate(187,190)"/>
<path d="M0 0 C-2.38457948 1.58971965 -4.6304124 2.86741593 -7.1875 4.125 C-7.90292969 4.47820312 -8.61835938 4.83140625 -9.35546875 5.1953125 C-9.89816406 5.46085938 -10.44085938 5.72640625 -11 6 C-11 4.68 -11 3.36 -11 2 C-7.36576791 -0.32590854 -4.22911669 -0.16265833 0 0 Z " fill="#1E1C1C" transform="translate(152,131)"/>
<path d="M0 0 C4.1666604 0.47348414 6.92884715 1.04696841 10 4 C10 4.66 10 5.32 10 6 C5.56909529 4.79157144 3.01887244 3.48331435 0 0 Z " fill="#121111" transform="translate(134,190)"/>
<path d="M0 0 C2.31 1.98 4.62 3.96 7 6 C5.68 6.33 4.36 6.66 3 7 C1.25 5.8125 1.25 5.8125 0 4 C0 2.68 0 1.36 0 0 Z " fill="#272524" transform="translate(130,183)"/>
<path d="M0 0 C0.53625 0.28875 1.0725 0.5775 1.625 0.875 C4.35280484 2.16711808 7.12612718 3.08558592 10 4 C9.34 4.66 8.68 5.32 8 6 C5.38419521 5.6730244 3.35921863 5.17960932 1 4 C0.375 1.9375 0.375 1.9375 0 0 Z " fill="#282525" transform="translate(142,177)"/>
<path d="M0 0 C0.33 0.66 0.66 1.32 1 2 C-0.125 4.625 -0.125 4.625 -2 7 C-4.6875 7.3125 -4.6875 7.3125 -7 7 C-4.66666667 4.66666667 -2.33333333 2.33333333 0 0 Z " fill="#2B2827" transform="translate(182,172)"/>
<path d="M0 0 C0.66 0 1.32 0 2 0 C2 3.3 2 6.6 2 10 C-0.5 5 -0.5 5 -1 2 C-0.67 1.34 -0.34 0.68 0 0 Z " fill="#5A5554" transform="translate(189,142)"/>
<path d="M0 0 C0 0.66 0 1.32 0 2 C-2.31 2.33 -4.62 2.66 -7 3 C-7.33 2.34 -7.66 1.68 -8 1 C-5.07175348 0.02391783 -3.04386724 -0.08226668 0 0 Z " fill="#171515" transform="translate(155,114)"/>
</svg>
