<?xml version="1.0" encoding="UTF-8"?>
<svg version="1.1" xmlns="http://www.w3.org/2000/svg" width="320" height="320">
<path d="M0 0 C0.84054495 -0.00226556 1.6810899 -0.00453111 2.54710591 -0.00686532 C5.36207589 -0.01319264 8.17699757 -0.01237677 10.99197388 -0.0115509 C13.01088524 -0.01454317 15.02979602 -0.01794586 17.04870605 -0.02172852 C22.53217923 -0.03056551 28.01563681 -0.0329065 33.49911642 -0.0335443 C38.07668381 -0.03449385 42.65424756 -0.03817266 47.23181355 -0.0417164 C58.03142616 -0.04985971 68.83103043 -0.05230073 79.63064575 -0.05158997 C90.77154524 -0.05098909 101.91239633 -0.06154313 113.05328357 -0.07733363 C122.6185974 -0.09040795 132.18389541 -0.09577391 141.74921811 -0.09513456 C147.46203953 -0.09487955 153.17481794 -0.09773222 158.88763046 -0.10831261 C164.26054419 -0.11799181 169.63337375 -0.11807395 175.00629044 -0.11079597 C176.97712578 -0.10974994 178.94796636 -0.11211415 180.91879272 -0.11815643 C183.61148813 -0.12587655 186.30389286 -0.12123138 188.99658203 -0.11352539 C189.77431689 -0.11866895 190.55205175 -0.12381252 191.35335433 -0.12911195 C196.70278641 -0.09533954 202.01947508 0.28165687 206.51589966 3.47746277 C207.91904679 5.57230215 208.15827217 7.12983788 208.37527466 9.63371277 C208.45261841 10.40715027 208.52996216 11.18058777 208.60964966 11.97746277 C208.62527466 14.13371277 208.62527466 14.13371277 207.62527466 17.13371277 C209.3284082 17.11014709 209.3284082 17.11014709 211.06594849 17.08610535 C215.27583735 17.03183245 219.48569525 16.9973724 223.6958313 16.96891785 C225.51847533 16.95382517 227.34108302 16.93334882 229.16360474 16.90739441 C231.78242966 16.87103174 234.40077473 16.85399153 237.01980591 16.84074402 C237.83552567 16.82526016 238.65124542 16.80977631 239.49168396 16.79382324 C245.17564794 16.79212983 245.17564794 16.79212983 247.33932495 18.43588257 C249.48459682 21.26826968 249.07240272 24.56263733 249.05886841 27.97746277 C249.06411026 28.74296448 249.06935211 29.50846619 249.07475281 30.29716492 C249.08117148 31.91438077 249.07983796 33.53164333 249.07131958 35.14884949 C249.06280422 37.62511624 249.09157744 40.09907996 249.12332153 42.57511902 C249.12493352 44.14673291 249.12435607 45.71835089 249.12136841 47.28996277 C249.13260239 48.03065002 249.14383636 48.77133728 249.15541077 49.5344696 C249.11387433 52.59322811 249.00703717 54.63208664 247.12454224 57.1056366 C243.48937701 58.60096538 240.00358937 58.50251579 236.14089966 58.42668152 C235.32530579 58.42243668 234.50971191 58.41819183 233.66940308 58.41381836 C231.07102082 58.39705992 228.47342147 58.35941374 225.87527466 58.32121277 C224.11096296 58.30616223 222.34663908 58.29247447 220.58230591 58.28019714 C216.26299501 58.24716578 211.94426746 58.19540363 207.62527466 58.13371277 C207.95527466 58.79371277 208.28527466 59.45371277 208.62527466 60.13371277 C208.90148488 63.79349819 208.86578932 66.4970563 207.56277466 69.94621277 C204.63587266 73.25077955 200.89372291 73.92909332 196.62260628 74.31435823 C194.39061753 74.39031099 192.16735933 74.40038613 189.93411255 74.38768005 C189.08369164 74.39080003 188.23327074 74.39392002 187.35707951 74.39713454 C184.52062517 74.40508237 181.68438667 74.39880346 178.84793091 74.39250183 C176.80901973 74.39521312 174.77010952 74.39877483 172.73120117 74.40312195 C167.20237191 74.41223179 161.67361738 74.40870745 156.14478683 74.40236378 C150.35581004 74.39729654 144.5668396 74.40199725 138.77786255 74.40513611 C129.05674085 74.40877363 119.33564955 74.40398223 109.61453247 74.39445496 C98.3792925 74.38357083 87.14412512 74.38709656 75.90888691 74.39810777 C66.25860377 74.4071867 56.60834248 74.40846294 46.95805645 74.40323043 C41.19608559 74.40011408 35.43414884 74.39969223 29.67218018 74.40630341 C24.25491059 74.41208502 18.8377345 74.40806494 13.42047501 74.39651489 C11.43351522 74.39387269 9.44654755 74.39462589 7.45959091 74.39904022 C4.74510032 74.4045144 2.03090839 74.39763877 -0.68356323 74.38768005 C-1.85979201 74.39437222 -1.85979201 74.39437222 -3.05978298 74.40119958 C-7.85924033 74.3671044 -11.84561685 73.7715356 -16.37472534 72.13371277 C-19.29571809 69.02426887 -19.5041598 66.54695233 -19.44113159 62.45011902 C-19.43154419 61.64131287 -19.42195679 60.83250671 -19.41207886 59.99919128 C-19.3997522 59.38358337 -19.38742554 58.76797546 -19.37472534 58.13371277 C-20.44432495 58.14942322 -21.51392456 58.16513367 -22.61593628 58.18132019 C-26.58916679 58.23567328 -30.56236451 58.27008228 -34.53585815 58.29850769 C-36.2546644 58.31358209 -37.97343225 58.33404506 -39.69210815 58.36003113 C-42.16453531 58.39647442 -44.63645335 58.41345235 -47.10910034 58.42668152 C-47.87591125 58.44216537 -48.64272217 58.45764923 -49.43276978 58.47360229 C-52.49895711 58.47456667 -55.01323336 58.28323076 -57.86032104 57.1056366 C-60.19177613 54.06982123 -59.92648734 50.96032419 -59.87081909 47.28996277 C-59.87227432 46.52446106 -59.87372955 45.75895935 -59.87522888 44.97026062 C-59.87357007 43.35299368 -59.86201057 41.73571094 -59.84127808 40.11857605 C-59.81232774 37.64247112 -59.82066672 35.16850776 -59.83370972 32.69230652 C-59.827472 31.12068152 -59.81908079 29.5490633 -59.80831909 27.97746277 C-59.81125473 27.23677551 -59.81419037 26.49608826 -59.81721497 25.73295593 C-59.76622004 22.95562518 -59.64339062 20.66195266 -58.37179565 18.16178894 C-55.06693082 16.46047038 -51.61493485 16.77000128 -47.98800659 16.84074402 C-46.76249336 16.84711128 -46.76249336 16.84711128 -45.51222229 16.85360718 C-42.90355428 16.87039586 -40.29565972 16.90804758 -37.68722534 16.94621277 C-35.91835629 16.9612594 -34.14947513 16.97494784 -32.38058472 16.98722839 C-28.04500038 17.0202999 -23.70999398 17.07208287 -19.37472534 17.13371277 C-19.39756592 16.2103009 -19.39756592 16.2103009 -19.42086792 15.26823425 C-19.43271118 14.4594281 -19.44455444 13.65062195 -19.45675659 12.81730652 C-19.47959717 11.61545715 -19.47959717 11.61545715 -19.50289917 10.389328 C-19.3268339 7.29091457 -18.322153 5.51390213 -16.37472534 3.13371277 C-11.21010835 -0.30936523 -6.04978148 -0.01197743 0 0 Z " fill="#E3C29E" transform="translate(65.37472534179688,123.86628723144531)"/>
<path d="M0 0 C0.84054495 -0.00226556 1.6810899 -0.00453111 2.54710591 -0.00686532 C5.36207589 -0.01319264 8.17699757 -0.01237677 10.99197388 -0.0115509 C13.01088524 -0.01454317 15.02979602 -0.01794586 17.04870605 -0.02172852 C22.53217923 -0.03056551 28.01563681 -0.0329065 33.49911642 -0.0335443 C38.07668381 -0.03449385 42.65424756 -0.03817266 47.23181355 -0.0417164 C58.03142616 -0.04985971 68.83103043 -0.05230073 79.63064575 -0.05158997 C90.77154524 -0.05098909 101.91239633 -0.06154313 113.05328357 -0.07733363 C122.6185974 -0.09040795 132.18389541 -0.09577391 141.74921811 -0.09513456 C147.46203953 -0.09487955 153.17481794 -0.09773222 158.88763046 -0.10831261 C164.26054419 -0.11799181 169.63337375 -0.11807395 175.00629044 -0.11079597 C176.97712578 -0.10974994 178.94796636 -0.11211415 180.91879272 -0.11815643 C183.61148813 -0.12587655 186.30389286 -0.12123138 188.99658203 -0.11352539 C189.77431689 -0.11866895 190.55205175 -0.12381252 191.35335433 -0.12911195 C196.70278641 -0.09533954 202.01947508 0.28165687 206.51589966 3.47746277 C207.91904679 5.57230215 208.15827217 7.12983788 208.37527466 9.63371277 C208.45261841 10.40715027 208.52996216 11.18058777 208.60964966 11.97746277 C208.62527466 14.13371277 208.62527466 14.13371277 207.62527466 17.13371277 C209.3284082 17.11014709 209.3284082 17.11014709 211.06594849 17.08610535 C215.27583735 17.03183245 219.48569525 16.9973724 223.6958313 16.96891785 C225.51847533 16.95382517 227.34108302 16.93334882 229.16360474 16.90739441 C231.78242966 16.87103174 234.40077473 16.85399153 237.01980591 16.84074402 C237.83552567 16.82526016 238.65124542 16.80977631 239.49168396 16.79382324 C245.17564794 16.79212983 245.17564794 16.79212983 247.33932495 18.43588257 C249.48459682 21.26826968 249.07240272 24.56263733 249.05886841 27.97746277 C249.06411026 28.74296448 249.06935211 29.50846619 249.07475281 30.29716492 C249.08117148 31.91438077 249.07983796 33.53164333 249.07131958 35.14884949 C249.06280422 37.62511624 249.09157744 40.09907996 249.12332153 42.57511902 C249.12493352 44.14673291 249.12435607 45.71835089 249.12136841 47.28996277 C249.13260239 48.03065002 249.14383636 48.77133728 249.15541077 49.5344696 C249.11387433 52.59322811 249.00703717 54.63208664 247.12454224 57.1056366 C243.48937701 58.60096538 240.00358937 58.50251579 236.14089966 58.42668152 C235.32530579 58.42243668 234.50971191 58.41819183 233.66940308 58.41381836 C231.07102082 58.39705992 228.47342147 58.35941374 225.87527466 58.32121277 C224.11096296 58.30616223 222.34663908 58.29247447 220.58230591 58.28019714 C216.26299501 58.24716578 211.94426746 58.19540363 207.62527466 58.13371277 C207.95527466 58.79371277 208.28527466 59.45371277 208.62527466 60.13371277 C208.90148488 63.79349819 208.86578932 66.4970563 207.56277466 69.94621277 C204.63587266 73.25077955 200.89372291 73.92909332 196.62260628 74.31435823 C194.39061753 74.39031099 192.16735933 74.40038613 189.93411255 74.38768005 C189.08369164 74.39080003 188.23327074 74.39392002 187.35707951 74.39713454 C184.52062517 74.40508237 181.68438667 74.39880346 178.84793091 74.39250183 C176.80901973 74.39521312 174.77010952 74.39877483 172.73120117 74.40312195 C167.20237191 74.41223179 161.67361738 74.40870745 156.14478683 74.40236378 C150.35581004 74.39729654 144.5668396 74.40199725 138.77786255 74.40513611 C129.05674085 74.40877363 119.33564955 74.40398223 109.61453247 74.39445496 C98.3792925 74.38357083 87.14412512 74.38709656 75.90888691 74.39810777 C66.25860377 74.4071867 56.60834248 74.40846294 46.95805645 74.40323043 C41.19608559 74.40011408 35.43414884 74.39969223 29.67218018 74.40630341 C24.25491059 74.41208502 18.8377345 74.40806494 13.42047501 74.39651489 C11.43351522 74.39387269 9.44654755 74.39462589 7.45959091 74.39904022 C4.74510032 74.4045144 2.03090839 74.39763877 -0.68356323 74.38768005 C-1.85979201 74.39437222 -1.85979201 74.39437222 -3.05978298 74.40119958 C-7.85924033 74.3671044 -11.84561685 73.7715356 -16.37472534 72.13371277 C-19.29571809 69.02426887 -19.5041598 66.54695233 -19.44113159 62.45011902 C-19.43154419 61.64131287 -19.42195679 60.83250671 -19.41207886 59.99919128 C-19.3997522 59.38358337 -19.38742554 58.76797546 -19.37472534 58.13371277 C-20.44432495 58.14942322 -21.51392456 58.16513367 -22.61593628 58.18132019 C-26.58916679 58.23567328 -30.56236451 58.27008228 -34.53585815 58.29850769 C-36.2546644 58.31358209 -37.97343225 58.33404506 -39.69210815 58.36003113 C-42.16453531 58.39647442 -44.63645335 58.41345235 -47.10910034 58.42668152 C-47.87591125 58.44216537 -48.64272217 58.45764923 -49.43276978 58.47360229 C-52.49895711 58.47456667 -55.01323336 58.28323076 -57.86032104 57.1056366 C-60.19177613 54.06982123 -59.92648734 50.96032419 -59.87081909 47.28996277 C-59.87227432 46.52446106 -59.87372955 45.75895935 -59.87522888 44.97026062 C-59.87357007 43.35299368 -59.86201057 41.73571094 -59.84127808 40.11857605 C-59.81232774 37.64247112 -59.82066672 35.16850776 -59.83370972 32.69230652 C-59.827472 31.12068152 -59.81908079 29.5490633 -59.80831909 27.97746277 C-59.81125473 27.23677551 -59.81419037 26.49608826 -59.81721497 25.73295593 C-59.76622004 22.95562518 -59.64339062 20.66195266 -58.37179565 18.16178894 C-55.06693082 16.46047038 -51.61493485 16.77000128 -47.98800659 16.84074402 C-46.76249336 16.84711128 -46.76249336 16.84711128 -45.51222229 16.85360718 C-42.90355428 16.87039586 -40.29565972 16.90804758 -37.68722534 16.94621277 C-35.91835629 16.9612594 -34.14947513 16.97494784 -32.38058472 16.98722839 C-28.04500038 17.0202999 -23.70999398 17.07208287 -19.37472534 17.13371277 C-19.39756592 16.2103009 -19.39756592 16.2103009 -19.42086792 15.26823425 C-19.43271118 14.4594281 -19.44455444 13.65062195 -19.45675659 12.81730652 C-19.47959717 11.61545715 -19.47959717 11.61545715 -19.50289917 10.389328 C-19.3268339 7.29091457 -18.322153 5.51390213 -16.37472534 3.13371277 C-11.21010835 -0.30936523 -6.04978148 -0.01197743 0 0 Z M-14.37472534 8.13371277 C-15.60478037 14.05158121 -15.52149562 20.01214767 -15.50753784 26.03996277 C-15.50897293 27.42616821 -15.50897293 27.42616821 -15.51043701 28.84037781 C-15.51111386 30.78337167 -15.50929435 32.72636786 -15.50509644 34.6693573 C-15.49974117 37.62497591 -15.50505835 40.58044258 -15.51144409 43.53605652 C-15.51078322 45.43319227 -15.50950188 47.33032792 -15.50753784 49.22746277 C-15.50956207 50.10164856 -15.5115863 50.97583435 -15.51367188 51.87651062 C-16.02776259 61.00568674 -16.02776259 61.00568674 -12.71089172 68.81427193 C-4.04006763 73.71145713 11.80815283 71.27598311 21.69949341 71.2631073 C23.47192419 71.26446563 25.24435469 71.26624797 27.01678467 71.26841736 C31.78947784 71.27294036 36.56214917 71.27122343 41.33484268 71.26803827 C46.35442408 71.26548796 51.37400373 71.2678596 56.39358521 71.26942444 C64.81945121 71.27123838 73.24530843 71.26886022 81.6711731 71.26408386 C91.38122227 71.25864275 101.09125043 71.26040595 110.8012991 71.26591027 C119.17200874 71.27046354 127.5427121 71.27108114 135.91342258 71.2684716 C140.89805508 71.26692098 145.88267773 71.26668149 150.86730957 71.27000809 C155.55582018 71.27291909 160.24430399 71.27085238 164.93281174 71.26511383 C166.64270356 71.26380343 168.35259768 71.26415069 170.06248856 71.2663765 C188.06166289 72.65115652 188.06166289 72.65115652 203.62527466 67.13371277 C204.23256314 64.47998442 204.23256314 64.47998442 204.14285278 61.42472839 C204.16176575 59.66775635 204.16176575 59.66775635 204.18106079 57.87528992 C204.17296387 56.60963196 204.16486694 55.343974 204.15652466 54.03996277 C204.16035156 52.74175598 204.16417847 51.44354919 204.16812134 50.10600281 C204.17401718 47.35869814 204.16545184 44.61191393 204.14675903 41.8646698 C204.12396802 38.34356004 204.13709084 34.82366969 204.16104889 31.30260468 C204.17898099 27.9441263 204.16642501 24.5859758 204.15652466 21.22746277 C204.16462158 19.96180481 204.17271851 18.69614685 204.18106079 17.39213562 C204.16845215 16.22082092 204.15584351 15.04950623 204.14285278 13.84269714 C204.13967041 12.81027893 204.13648804 11.77786072 204.13320923 10.7141571 C203.85030771 8.09272336 203.85030771 8.09272336 202.12018585 6.49624443 C198.55340542 4.54833892 195.16025679 4.71973537 191.19876099 4.75276184 C190.34061955 4.74808187 189.48247812 4.7434019 188.59833241 4.73858011 C185.71783384 4.72659743 182.83780815 4.73610013 179.95730591 4.74552917 C177.89426393 4.74146493 175.83122414 4.73612388 173.76818848 4.729599 C168.16084347 4.71590214 162.55366373 4.72123387 156.94631577 4.73073626 C151.08384499 4.73832056 145.22138856 4.73129067 139.35891724 4.72657776 C129.51310683 4.72111662 119.66736389 4.72832123 109.82156372 4.74259949 C98.43122228 4.75892665 87.04104192 4.7536384 75.65070438 4.73712027 C65.87907817 4.72351562 56.10750051 4.72158075 46.33586788 4.72943628 C40.49624427 4.7341184 34.65669641 4.73472281 28.81707764 4.72482681 C23.32758654 4.71617431 17.83830356 4.72214772 12.34883499 4.73950958 C10.33159354 4.7434836 8.31433463 4.74232481 6.29710007 4.73572159 C3.54842465 4.72755218 0.80042069 4.73777186 -1.94821167 4.75276184 C-2.75093097 4.74606968 -3.55365026 4.73937751 -4.38069439 4.73248255 C-8.59343749 4.77720011 -11.47476754 4.89119845 -14.37472534 8.13371277 Z " fill="#361D18" transform="translate(65.37472534179688,123.86628723144531)"/>
<path d="M0 0 C4.80573874 -0.04586601 9.61072082 -0.08570391 14.41650391 -0.10986328 C16.05194672 -0.11993254 17.68737149 -0.13358881 19.32275391 -0.15087891 C21.6709437 -0.17508705 24.01889588 -0.18647357 26.3671875 -0.1953125 C27.10057343 -0.20563507 27.83395935 -0.21595764 28.58956909 -0.22659302 C30.39462697 -0.22699368 32.1990783 -0.12212755 34 0 C36.79619132 2.79619132 36.25822389 4.55884713 36.265625 8.46875 C36.26949219 10.40814453 36.26949219 10.40814453 36.2734375 12.38671875 C36.26715332 13.39871338 36.26715332 13.39871338 36.26074219 14.43115234 C36.2500407 16.49216157 36.26063943 18.55229919 36.2734375 20.61328125 C36.27085937 21.90621094 36.26828125 23.19914062 36.265625 24.53125 C36.26336914 25.72298828 36.26111328 26.91472656 36.25878906 28.14257812 C36 31 36 31 34 33 C31.41896694 33.17502995 28.94691837 33.23162279 26.3671875 33.1953125 C25.23943405 33.19106766 25.23943405 33.19106766 24.08889771 33.18673706 C21.68410422 33.17552874 19.27968119 33.15042352 16.875 33.125 C15.24609912 33.11497102 13.61719242 33.10584503 11.98828125 33.09765625 C7.99192945 33.07728748 3.9963801 33.03814149 0 33 C0 22.11 0 11.22 0 0 Z " fill="#C3A284" transform="translate(274,145)"/>
<path d="M0 0 C1.4282618 0.00031703 2.85654759 0.01163717 4.28466797 0.03173828 C5.41242142 0.03598312 5.41242142 0.03598312 6.56295776 0.04031372 C8.96775125 0.05152204 11.37217428 0.07662726 13.77685547 0.10205078 C15.40575635 0.11207976 17.03466305 0.12120576 18.66357422 0.12939453 C22.65992602 0.1497633 26.65547537 0.1889093 30.65185547 0.22705078 C30.65185547 11.11705078 30.65185547 22.00705078 30.65185547 33.22705078 C25.84611673 33.27291679 21.04113465 33.31275469 16.23535156 33.33691406 C14.59990875 33.34698332 12.96448398 33.36063959 11.32910156 33.37792969 C8.98091177 33.40213783 6.63295959 33.41352436 4.28466797 33.42236328 C3.18458908 33.43784714 3.18458908 33.43784714 2.06228638 33.4536438 C0.2572285 33.45404447 -1.54722283 33.34917833 -3.34814453 33.22705078 C-6.14433585 30.43085946 -5.60636842 28.66820365 -5.61376953 24.75830078 C-5.61634766 23.46537109 -5.61892578 22.17244141 -5.62158203 20.84033203 C-5.61739258 20.16566895 -5.61320313 19.49100586 -5.60888672 18.79589844 C-5.59818523 16.73488921 -5.60878396 14.67475159 -5.62158203 12.61376953 C-5.61900391 11.32083984 -5.61642578 10.02791016 -5.61376953 8.69580078 C-5.61151367 7.5040625 -5.60925781 6.31232422 -5.60693359 5.08447266 C-5.21953224 0.80697699 -4.23357685 0.28709541 0 0 Z " fill="#BF9F82" transform="translate(15.34814453125,144.77294921875)"/>
</svg>
