<?xml version="1.0" encoding="UTF-8"?>
<svg version="1.1" xmlns="http://www.w3.org/2000/svg" width="1600" height="960">
<path d="M0 0 C395.13990855 -0.04040148 395.13990855 -0.04040148 545.92513311 -0.04816496 C548.04187585 -0.04827434 550.1586186 -0.04838376 552.27536134 -0.04849322 C553.86739422 -0.04857554 553.86739422 -0.04857554 555.49158937 -0.04865951 C592.99040127 -0.05060112 630.48921317 -0.05260802 667.98802506 -0.05472926 C671.5672136 -0.05493115 675.14640213 -0.05513133 678.72559067 -0.05533109 C733.55434495 -0.05839758 788.38309902 -0.0623014 843.21185303 -0.06866455 C844.98146821 -0.0688699 844.98146821 -0.0688699 846.78683319 -0.0690794 C865.80869157 -0.07129186 884.83054993 -0.07357543 903.8524083 -0.07586844 C958.61818396 -0.08246914 1013.38395944 -0.08854706 1068.14973545 -0.09113979 C1069.27512962 -0.09119333 1070.40052378 -0.09124686 1071.5600208 -0.09130202 C1096.26073401 -0.09246758 1120.96144722 -0.09336253 1145.66216045 -0.09400098 C1155.59977631 -0.09426262 1165.53739216 -0.09456324 1175.47500801 -0.09487724 C1176.56266013 -0.09491067 1177.65031226 -0.0949441 1178.77092353 -0.09497854 C1213.85832481 -0.0960763 1248.94572482 -0.10035185 1284.03312558 -0.10628221 C1319.35651796 -0.11223798 1354.67990911 -0.11510173 1390.003302 -0.11362399 C1394.87680905 -0.11342089 1399.75031611 -0.11325351 1404.62382317 -0.11310768 C1406.05693124 -0.11306286 1406.05693124 -0.11306286 1407.51899098 -0.11301713 C1422.69033109 -0.11263544 1437.86166861 -0.11563009 1453.033008 -0.12000986 C1467.92550683 -0.12424054 1482.81800229 -0.1249507 1497.71050143 -0.12183181 C1506.4582308 -0.12010819 1515.20594951 -0.12116934 1523.95367765 -0.126217 C1529.74772656 -0.1292913 1535.54176777 -0.12880528 1541.33581642 -0.12530107 C1544.63036121 -0.12341196 1547.92488075 -0.12369153 1551.2194248 -0.12723524 C1554.74500002 -0.13079065 1558.27051821 -0.12832139 1561.7960915 -0.1241985 C1562.82992878 -0.12670737 1563.86376606 -0.12921625 1564.92893174 -0.13180115 C1566.32036034 -0.12827181 1566.32036034 -0.12827181 1567.73989862 -0.12467116 C1568.54478137 -0.12473517 1569.34966412 -0.12479918 1570.17893725 -0.12486512 C1572 -0 1572 -0 1573 1 C1573.10176674 2.87812616 1573.13205823 4.76013398 1573.13570517 6.64101171 C1573.14051472 7.87655861 1573.14532426 9.1121055 1573.15027955 10.38509321 C1573.15060306 11.77675595 1573.15083337 13.16841871 1573.15098095 14.56008148 C1573.15475011 16.02860343 1573.15895384 17.49712431 1573.16355613 18.96564388 C1573.17501129 23.03844572 1573.18013776 27.11123553 1573.18427981 31.18405049 C1573.18982696 35.6009168 1573.20104745 40.01776922 1573.21151572 44.4346261 C1573.23136168 53.21184605 1573.24563649 61.9890673 1573.25817415 70.76630039 C1573.26874935 78.06637535 1573.28164837 85.36644314 1573.29604149 92.66651154 C1573.29811172 93.71802079 1573.30018195 94.76953004 1573.30231491 95.85290321 C1573.30654017 97.99722778 1573.31076626 100.14155235 1573.31499317 102.28587692 C1573.46575535 179.49846461 1573.53856931 256.71126403 1573.59730609 333.92397 C1573.60618877 345.57170937 1573.61540986 357.21944848 1573.62475586 368.8671875 C1573.62578056 370.15428218 1573.62680527 371.44137687 1573.62786102 372.76747442 C1573.66133611 414.50652066 1573.72984718 456.24541551 1573.81750528 497.98438042 C1573.90740871 540.87037453 1573.96485226 583.75628671 1573.98024191 626.64237563 C1573.98242322 632.69630171 1573.98496209 638.7502276 1573.98771095 644.80415344 C1573.98823868 645.99567585 1573.98876641 647.18719826 1573.98931013 648.4148274 C1573.99874172 667.61322149 1574.04226282 686.81139483 1574.09828154 706.00970317 C1574.1537979 725.29864344 1574.1728556 744.58734692 1574.15452697 763.87636083 C1574.14472849 775.34365098 1574.16291955 786.81010862 1574.22083864 798.27726092 C1574.25676478 805.93244853 1574.25653233 813.58707803 1574.2266423 821.2422903 C1574.21063722 825.6076642 1574.21057976 829.97145376 1574.2545106 834.33667105 C1574.29417284 838.30868582 1574.28775487 842.27786464 1574.24464108 846.2498191 C1574.23720802 847.67724765 1574.2465313 849.10488743 1574.27470445 850.53205729 C1574.47054193 861.13228937 1574.47054193 861.13228937 1570.81066135 865.78064227 C1568.30599512 868.05009724 1565.74286845 870.0305136 1563 872 C1561.84686068 873.07067918 1560.71013971 874.16009757 1559.60900879 875.28419495 C1558.8606929 876.03478432 1558.8606929 876.03478432 1558.09725952 876.80053711 C1557.34238754 877.56551514 1557.34238754 877.56551514 1556.57226562 878.34594727 C1555.72633347 879.19647926 1555.72633347 879.19647926 1554.86331177 880.06419373 C1553.661904 881.27265545 1552.46163871 882.48225397 1551.26246643 883.69293404 C1549.36526715 885.60777009 1547.46433427 887.51882937 1545.56237793 889.42893982 C1540.16353687 894.8520445 1534.77065488 900.28104842 1529.38183594 905.71411133 C1526.06773664 909.05490464 1522.74885249 912.39088112 1519.42692566 915.7238903 C1518.1650968 916.99193639 1516.90516979 918.26187791 1515.64717102 919.53372383 C1513.90011951 921.29987238 1512.14710401 923.05988465 1510.39257812 924.81860352 C1509.87313629 925.34680695 1509.35369446 925.87501038 1508.81851196 926.41921997 C1505.22790078 930 1505.22790078 930 1503 930 C1502.67 930.99 1502.34 931.98 1502 933 C1499.98379493 935.72917532 1498.38049731 937.68664998 1494.97004056 938.46076716 C1492.40112173 938.64615388 1489.87495564 938.66427632 1487.29940736 938.63249916 C1485.81482461 938.64394827 1485.81482461 938.64394827 1484.30025029 938.65562867 C1480.95648254 938.67524054 1477.61383034 938.65900571 1474.27005577 938.64317226 C1471.84925343 938.64990038 1469.42845635 938.6588169 1467.00766927 938.66973343 C1461.71370607 938.68851245 1456.42007073 938.69162204 1451.12610893 938.68120372 C1443.20082942 938.66569252 1435.27577586 938.67887393 1427.35051279 938.69769725 C1413.84488513 938.72891307 1400.33933753 938.73622089 1386.8336792 938.73060989 C1373.1419073 938.72499316 1359.45020341 938.73013869 1345.75844193 938.74847221 C1344.89450764 938.74962048 1344.03057335 938.75076874 1343.14045924 938.75195181 C1339.62193092 938.75665986 1336.1034027 938.76143828 1332.58487461 938.76630776 C1295.85223707 938.8170697 1259.11963761 938.83233917 1222.38696902 938.83526831 C1218.43125418 938.83559204 1214.47553934 938.83593174 1210.5198245 938.83628535 C1209.04744647 938.83641289 1209.04744647 938.83641289 1207.54532343 938.836543 C1185.80689033 938.83858407 1164.06846452 938.84952979 1142.33003528 938.86206458 C1133.38275718 938.86720627 1124.43547897 938.87215638 1115.48820078 938.87714583 C1114.4996415 938.87769877 1113.51108222 938.87825172 1112.4925666 938.87882142 C1055.83056315 938.91044912 999.16856446 938.93106623 942.50655174 938.92877865 C940.38535137 938.92869976 938.26415101 938.92862108 936.14295064 938.92854261 C926.56560831 938.92817568 916.98826598 938.92773483 907.41092366 938.92727319 C903.14002287 938.92706757 898.86912208 938.92686683 894.59822129 938.92666662 C892.4605564 938.92656464 890.32289151 938.92645954 888.18522663 938.92635132 C820.58680744 938.92294993 752.9885192 938.95953636 685.39013672 939.02905273 C668.35912807 939.04655738 651.32811929 939.06390448 634.2971096 939.08037472 C633.24848811 939.08138909 632.19986661 939.08240346 631.11946871 939.08344857 C598.80729604 939.11451662 566.49513414 939.13335005 534.18294716 939.13966465 C532.66154301 939.13996428 532.66154301 939.13996428 531.10940342 939.14026996 C508.84517856 939.14453607 486.58095439 939.14584241 464.3167292 939.14441808 C456.35040738 939.14393565 448.38408556 939.14367544 440.41776373 939.14352444 C438.43588885 939.14348487 436.45401396 939.14343384 434.47213908 939.14337132 C402.87414294 939.14248919 371.27625877 939.17100066 339.67829473 939.2141404 C307.8574111 939.25736365 276.03668263 939.26836926 244.21578201 939.23533379 C239.82050976 939.23077217 235.42523724 939.22655581 231.02996445 939.22254372 C230.16835466 939.22174328 229.30674487 939.22094284 228.4190257 939.22011815 C214.76541737 939.20834408 201.11207702 939.23016153 187.45851908 939.26589965 C174.03901315 939.30032439 160.61990373 939.29916821 147.20040664 939.25993897 C139.32882563 939.23799685 131.4584111 939.24346918 123.58692624 939.28927289 C117.74795548 939.32020164 111.90993293 939.29914619 106.07100172 939.25760639 C103.71995908 939.24897748 101.36878071 939.25721551 99.0178761 939.28411243 C79.34824523 939.49413745 79.34824523 939.49413745 72.36898005 933.19309622 C70.8925817 931.47915125 69.43516651 929.7486156 68 928 C66.23630431 926.51580165 64.44290497 925.06558467 62.61132812 923.66601562 C56.65338605 918.84533102 51.29990716 913.53056195 45.92808533 908.07841492 C44.17544904 906.29980739 42.41625096 904.52791501 40.65539551 902.75744629 C36.93118557 899.0106385 33.21504307 895.25589412 29.5 891.5 C25.16305308 887.1157551 20.82280969 882.73487529 16.47413635 878.36225891 C14.74224424 876.61741987 13.01648328 874.86666947 11.29089355 873.11560059 C10.23523924 872.05268587 9.17930574 870.99004833 8.12304688 869.92773438 C7.20358276 868.99779663 6.28411865 868.06785889 5.33679199 867.10974121 C3.10658704 864.8127404 3.10658704 864.8127404 0 864 C0 578.88 0 293.76 0 0 Z " fill="#ECBE6B" transform="translate(15,9)"/>
<path d="M0 0 C395.13990855 -0.04040148 395.13990855 -0.04040148 545.92513311 -0.04816496 C548.04187585 -0.04827434 550.1586186 -0.04838376 552.27536134 -0.04849322 C553.86739422 -0.04857554 553.86739422 -0.04857554 555.49158937 -0.04865951 C592.99040127 -0.05060112 630.48921317 -0.05260802 667.98802506 -0.05472926 C671.5672136 -0.05493115 675.14640213 -0.05513133 678.72559067 -0.05533109 C733.55434495 -0.05839758 788.38309902 -0.0623014 843.21185303 -0.06866455 C844.98146821 -0.0688699 844.98146821 -0.0688699 846.78683319 -0.0690794 C865.80869157 -0.07129186 884.83054993 -0.07357543 903.8524083 -0.07586844 C958.61818396 -0.08246914 1013.38395944 -0.08854706 1068.14973545 -0.09113979 C1069.27512962 -0.09119333 1070.40052378 -0.09124686 1071.5600208 -0.09130202 C1096.26073401 -0.09246758 1120.96144722 -0.09336253 1145.66216045 -0.09400098 C1155.59977631 -0.09426262 1165.53739216 -0.09456324 1175.47500801 -0.09487724 C1176.56266013 -0.09491067 1177.65031226 -0.0949441 1178.77092353 -0.09497854 C1213.85832481 -0.0960763 1248.94572482 -0.10035185 1284.03312558 -0.10628221 C1319.35651796 -0.11223798 1354.67990911 -0.11510173 1390.003302 -0.11362399 C1394.87680905 -0.11342089 1399.75031611 -0.11325351 1404.62382317 -0.11310768 C1406.05693124 -0.11306286 1406.05693124 -0.11306286 1407.51899098 -0.11301713 C1422.69033109 -0.11263544 1437.86166861 -0.11563009 1453.033008 -0.12000986 C1467.92550683 -0.12424054 1482.81800229 -0.1249507 1497.71050143 -0.12183181 C1506.4582308 -0.12010819 1515.20594951 -0.12116934 1523.95367765 -0.126217 C1529.74772656 -0.1292913 1535.54176777 -0.12880528 1541.33581642 -0.12530107 C1544.63036121 -0.12341196 1547.92488075 -0.12369153 1551.2194248 -0.12723524 C1554.74500002 -0.13079065 1558.27051821 -0.12832139 1561.7960915 -0.1241985 C1562.82992878 -0.12670737 1563.86376606 -0.12921625 1564.92893174 -0.13180115 C1566.32036034 -0.12827181 1566.32036034 -0.12827181 1567.73989862 -0.12467116 C1568.54478137 -0.12473517 1569.34966412 -0.12479918 1570.17893725 -0.12486512 C1572 -0 1572 -0 1573 1 C1573.10176674 2.87812616 1573.13205823 4.76013398 1573.13570517 6.64101171 C1573.14051472 7.87655861 1573.14532426 9.1121055 1573.15027955 10.38509321 C1573.15060306 11.77675595 1573.15083337 13.16841871 1573.15098095 14.56008148 C1573.15475011 16.02860343 1573.15895384 17.49712431 1573.16355613 18.96564388 C1573.17501129 23.03844572 1573.18013776 27.11123553 1573.18427981 31.18405049 C1573.18982696 35.6009168 1573.20104745 40.01776922 1573.21151572 44.4346261 C1573.23136168 53.21184605 1573.24563649 61.9890673 1573.25817415 70.76630039 C1573.26874935 78.06637535 1573.28164837 85.36644314 1573.29604149 92.66651154 C1573.29811172 93.71802079 1573.30018195 94.76953004 1573.30231491 95.85290321 C1573.30654017 97.99722778 1573.31076626 100.14155235 1573.31499317 102.28587692 C1573.46575535 179.49846461 1573.53856931 256.71126403 1573.59730609 333.92397 C1573.60618877 345.57170937 1573.61540986 357.21944848 1573.62475586 368.8671875 C1573.62578056 370.15428218 1573.62680527 371.44137687 1573.62786102 372.76747442 C1573.66133611 414.50652066 1573.72984718 456.24541551 1573.81750528 497.98438042 C1573.90740871 540.87037453 1573.96485226 583.75628671 1573.98024191 626.64237563 C1573.98242322 632.69630171 1573.98496209 638.7502276 1573.98771095 644.80415344 C1573.98823868 645.99567585 1573.98876641 647.18719826 1573.98931013 648.4148274 C1573.99874172 667.61322149 1574.04226282 686.81139483 1574.09828154 706.00970317 C1574.1537979 725.29864344 1574.1728556 744.58734692 1574.15452697 763.87636083 C1574.14472849 775.34365098 1574.16291955 786.81010862 1574.22083864 798.27726092 C1574.25676478 805.93244853 1574.25653233 813.58707803 1574.2266423 821.2422903 C1574.21063722 825.6076642 1574.21057976 829.97145376 1574.2545106 834.33667105 C1574.29417284 838.30868582 1574.28775487 842.27786464 1574.24464108 846.2498191 C1574.23720802 847.67724765 1574.2465313 849.10488743 1574.27470445 850.53205729 C1574.47054193 861.13228937 1574.47054193 861.13228937 1570.81066135 865.78064227 C1568.30599512 868.05009724 1565.74286845 870.0305136 1563 872 C1561.84686068 873.07067918 1560.71013971 874.16009757 1559.60900879 875.28419495 C1558.8606929 876.03478432 1558.8606929 876.03478432 1558.09725952 876.80053711 C1557.34238754 877.56551514 1557.34238754 877.56551514 1556.57226562 878.34594727 C1555.72633347 879.19647926 1555.72633347 879.19647926 1554.86331177 880.06419373 C1553.661904 881.27265545 1552.46163871 882.48225397 1551.26246643 883.69293404 C1549.36526715 885.60777009 1547.46433427 887.51882937 1545.56237793 889.42893982 C1540.16353687 894.8520445 1534.77065488 900.28104842 1529.38183594 905.71411133 C1526.06773664 909.05490464 1522.74885249 912.39088112 1519.42692566 915.7238903 C1518.1650968 916.99193639 1516.90516979 918.26187791 1515.64717102 919.53372383 C1513.90011951 921.29987238 1512.14710401 923.05988465 1510.39257812 924.81860352 C1509.87313629 925.34680695 1509.35369446 925.87501038 1508.81851196 926.41921997 C1505.22790078 930 1505.22790078 930 1503 930 C1502.67 930.99 1502.34 931.98 1502 933 C1499.98379493 935.72917532 1498.38049731 937.68664998 1494.97004056 938.46076716 C1492.40112173 938.64615388 1489.87495564 938.66427632 1487.29940736 938.63249916 C1485.81482461 938.64394827 1485.81482461 938.64394827 1484.30025029 938.65562867 C1480.95648254 938.67524054 1477.61383034 938.65900571 1474.27005577 938.64317226 C1471.84925343 938.64990038 1469.42845635 938.6588169 1467.00766927 938.66973343 C1461.71370607 938.68851245 1456.42007073 938.69162204 1451.12610893 938.68120372 C1443.20082942 938.66569252 1435.27577586 938.67887393 1427.35051279 938.69769725 C1413.84488513 938.72891307 1400.33933753 938.73622089 1386.8336792 938.73060989 C1373.1419073 938.72499316 1359.45020341 938.73013869 1345.75844193 938.74847221 C1344.89450764 938.74962048 1344.03057335 938.75076874 1343.14045924 938.75195181 C1339.62193092 938.75665986 1336.1034027 938.76143828 1332.58487461 938.76630776 C1295.85223707 938.8170697 1259.11963761 938.83233917 1222.38696902 938.83526831 C1218.43125418 938.83559204 1214.47553934 938.83593174 1210.5198245 938.83628535 C1209.04744647 938.83641289 1209.04744647 938.83641289 1207.54532343 938.836543 C1185.80689033 938.83858407 1164.06846452 938.84952979 1142.33003528 938.86206458 C1133.38275718 938.86720627 1124.43547897 938.87215638 1115.48820078 938.87714583 C1114.4996415 938.87769877 1113.51108222 938.87825172 1112.4925666 938.87882142 C1055.83056315 938.91044912 999.16856446 938.93106623 942.50655174 938.92877865 C940.38535137 938.92869976 938.26415101 938.92862108 936.14295064 938.92854261 C926.56560831 938.92817568 916.98826598 938.92773483 907.41092366 938.92727319 C903.14002287 938.92706757 898.86912208 938.92686683 894.59822129 938.92666662 C892.4605564 938.92656464 890.32289151 938.92645954 888.18522663 938.92635132 C820.58680744 938.92294993 752.9885192 938.95953636 685.39013672 939.02905273 C668.35912807 939.04655738 651.32811929 939.06390448 634.2971096 939.08037472 C633.24848811 939.08138909 632.19986661 939.08240346 631.11946871 939.08344857 C598.80729604 939.11451662 566.49513414 939.13335005 534.18294716 939.13966465 C532.66154301 939.13996428 532.66154301 939.13996428 531.10940342 939.14026996 C508.84517856 939.14453607 486.58095439 939.14584241 464.3167292 939.14441808 C456.35040738 939.14393565 448.38408556 939.14367544 440.41776373 939.14352444 C438.43588885 939.14348487 436.45401396 939.14343384 434.47213908 939.14337132 C402.87414294 939.14248919 371.27625877 939.17100066 339.67829473 939.2141404 C307.8574111 939.25736365 276.03668263 939.26836926 244.21578201 939.23533379 C239.82050976 939.23077217 235.42523724 939.22655581 231.02996445 939.22254372 C230.16835466 939.22174328 229.30674487 939.22094284 228.4190257 939.22011815 C214.76541737 939.20834408 201.11207702 939.23016153 187.45851908 939.26589965 C174.03901315 939.30032439 160.61990373 939.29916821 147.20040664 939.25993897 C139.32882563 939.23799685 131.4584111 939.24346918 123.58692624 939.28927289 C117.74795548 939.32020164 111.90993293 939.29914619 106.07100172 939.25760639 C103.71995908 939.24897748 101.36878071 939.25721551 99.0178761 939.28411243 C79.34824523 939.49413745 79.34824523 939.49413745 72.36898005 933.19309622 C70.8925817 931.47915125 69.43516651 929.7486156 68 928 C66.23630431 926.51580165 64.44290497 925.06558467 62.61132812 923.66601562 C56.65338605 918.84533102 51.29990716 913.53056195 45.92808533 908.07841492 C44.17544904 906.29980739 42.41625096 904.52791501 40.65539551 902.75744629 C36.93118557 899.0106385 33.21504307 895.25589412 29.5 891.5 C25.16305308 887.1157551 20.82280969 882.73487529 16.47413635 878.36225891 C14.74224424 876.61741987 13.01648328 874.86666947 11.29089355 873.11560059 C10.23523924 872.05268587 9.17930574 870.99004833 8.12304688 869.92773438 C7.20358276 868.99779663 6.28411865 868.06785889 5.33679199 867.10974121 C3.10658704 864.8127404 3.10658704 864.8127404 0 864 C0 578.88 0 293.76 0 0 Z M46 35 C44.71839055 37.5632189 44.87436211 39.36849187 44.87350017 42.23991579 C44.87074042 43.3602737 44.86798068 44.48063161 44.86513731 45.63493976 C44.86719263 46.87861329 44.86924795 48.12228682 44.87136555 49.40364742 C44.86961251 50.72029942 44.86785947 52.03695142 44.86605331 53.39350197 C44.86129693 57.07686596 44.86283344 60.76020541 44.86533108 64.44357066 C44.86695666 68.43991506 44.86282962 72.43625404 44.85942191 76.43259674 C44.85425435 83.44622694 44.85285304 90.45985022 44.85387802 97.47348213 C44.85539847 107.90275785 44.85125119 118.33202589 44.8460034 128.76130012 C44.83631479 148.46826804 44.8335186 168.17523337 44.83294634 187.88220339 C44.83248744 203.09571013 44.83043248 218.30921584 44.82724571 233.52272224 C44.82634822 237.89609418 44.82545841 242.26946612 44.82457083 246.64283806 C44.82434979 247.72995498 44.82412874 248.81707189 44.82390099 249.93713175 C44.81774382 280.53001735 44.81380073 311.12290259 44.81424427 341.71578884 C44.81425985 342.8700293 44.81427543 344.02426975 44.81429148 345.21348719 C44.81437459 351.06415354 44.81447363 356.91481989 44.81457619 362.76548623 C44.81459613 363.92752796 44.81461608 365.08956969 44.81463663 366.2868248 C44.81467706 368.63675739 44.81471886 370.98668997 44.81476202 373.33662256 C44.81537499 409.91069831 44.8078654 446.48476479 44.79418945 483.05883789 C44.77884462 524.11336064 44.77022225 565.16787731 44.77115268 606.22240311 C44.77122731 610.5960894 44.77127601 614.9697757 44.77130699 619.34346199 C44.77131865 620.42044095 44.7713303 621.4974199 44.77134231 622.60703458 C44.77137314 639.97375887 44.76497454 657.34047515 44.75637473 674.70719705 C44.74791734 692.1463982 44.74689322 709.58558756 44.75348405 727.02478962 C44.75719247 737.39769622 44.75530903 747.77056712 44.74554171 758.14346997 C44.73957549 765.06151663 44.74079943 771.97953724 44.74801221 778.89758266 C44.75192234 782.84637961 44.75258803 786.79510714 44.74455485 790.7438994 C44.73599968 794.9861589 44.74271961 799.22825172 44.75111103 803.47051144 C44.74365876 805.33250998 44.74365876 805.33250998 44.73605594 807.23212466 C44.74318216 808.9164168 44.74318216 808.9164168 44.75045234 810.63473505 C44.75036412 811.60589088 44.7502759 812.57704671 44.750185 813.5776315 C44.83650972 816.26005123 44.83650972 816.26005123 47 819 C48.91768045 819.45140875 48.91768045 819.45140875 51.1654807 819.3754315 C52.04638835 819.382807 52.92729599 819.39018251 53.83489781 819.39778151 C54.81127192 819.39060928 55.78764603 819.38343706 56.79360723 819.37604749 C57.82991723 819.38025444 58.86622722 819.38446139 59.93394055 819.38879583 C63.45434849 819.39934911 66.97437088 819.38826807 70.49477386 819.37752342 C73.03588375 819.38064891 75.57699231 819.3850897 78.11809784 819.39073652 C83.6851529 819.40004101 89.25208847 819.39989772 94.81914312 819.39168589 C103.1532125 819.37944779 111.48721004 819.38441686 119.82128097 819.39283381 C134.02202469 819.40666451 148.22273625 819.40616892 162.42348289 819.39799118 C176.82278789 819.38974949 191.22207169 819.38798666 205.62137794 819.39420319 C206.98346545 819.39478446 206.98346545 819.39478446 208.37306987 819.39537748 C212.07119435 819.39697722 215.76931881 819.39862333 219.46744324 819.40032831 C253.94731911 819.41621375 288.42718077 819.41726474 322.90705872 819.40888596 C324.44099327 819.40851338 324.44099327 819.40851338 326.0059164 819.40813327 C327.03016422 819.40788448 328.05441203 819.40763569 329.10969765 819.40737936 C360.27676203 819.39981875 391.44382052 819.39785148 422.61088562 819.4014473 C424.69557514 819.40167973 426.78026466 819.4019112 428.86495418 819.40214171 C437.24183362 819.40307306 445.61871305 819.40402905 453.99559248 819.405021 C477.4144378 819.40777242 500.83328314 819.40948393 524.2521286 819.41037941 C525.85196977 819.41044082 525.85196977 819.41044082 527.48413095 819.41050346 C561.48445988 819.41173183 595.48478676 819.40834784 629.48511505 819.40183067 C630.58836531 819.40161993 631.69161558 819.40140918 632.82829766 819.40119205 C650.74592092 819.39775694 668.66354412 819.39409867 686.58116733 819.39042152 C757.65063415 819.3758518 828.72008403 819.37652803 899.78955078 819.39111328 C917.69799549 819.39477666 935.6064402 819.39840973 953.51488495 819.40183067 C955.16877406 819.40214769 955.16877406 819.40214769 956.85607507 819.40247111 C990.82000745 819.40893678 1024.78393842 819.41168303 1058.7478714 819.41037941 C1059.8136553 819.41033866 1060.8794392 819.4102979 1061.97751958 819.41025592 C1085.37006769 819.4093186 1108.76261565 819.40741793 1132.15516361 819.4046479 C1140.52468745 819.40366042 1148.89421129 819.40272118 1157.26373514 819.40179577 C1159.34597663 819.4015636 1161.42821812 819.40132741 1163.51045961 819.40108718 C1194.67167009 819.39750201 1225.83287394 819.40056424 1256.9940836 819.40813327 C1258.01670663 819.40838166 1259.03932967 819.40863004 1260.09294128 819.40888596 C1261.11368926 819.409134 1262.13443724 819.40938205 1263.18611698 819.40963761 C1297.56369875 819.41790018 1331.94126345 819.41489312 1366.31884277 819.39904372 C1370.00543585 819.39738656 1373.69202894 819.39577646 1377.37862206 819.39420319 C1378.73580969 819.39361726 1378.73580969 819.39361726 1380.12041525 819.39301949 C1394.48505726 819.38708718 1408.84967814 819.39123808 1423.21431825 819.3995102 C1437.31665741 819.40741875 1451.41896069 819.40471052 1465.52129527 819.39046794 C1473.80370924 819.38242361 1482.08602517 819.38269555 1490.36843459 819.39491273 C1496.49521225 819.40304512 1502.62186432 819.39575875 1508.74863672 819.38214391 C1511.22821321 819.37909411 1513.70780206 819.38119381 1516.18736888 819.38876172 C1519.5272345 819.39824098 1522.86655353 819.38960573 1526.20639277 819.37604749 C1527.18276688 819.38321972 1528.15914099 819.39039194 1529.16510219 819.39778151 C1530.04600983 819.39040601 1530.92691748 819.3830305 1531.8345193 819.3754315 C1532.59665372 819.3753476 1533.35878815 819.3752637 1534.14401756 819.37517725 C1536.4139552 819.14351876 1536.4139552 819.14351876 1538 816 C1538.30018015 813.49227098 1538.30018015 813.49227098 1538.24954766 810.62717235 C1538.25667388 808.94034574 1538.25667388 808.94034574 1538.26394406 807.21944183 C1538.25897588 805.97621928 1538.2540077 804.73299672 1538.24888897 803.45210075 C1538.25067068 802.11867166 1538.25332959 800.78524349 1538.25678983 799.45181769 C1538.26378785 795.76344836 1538.25822578 792.0751857 1538.25073375 788.38682122 C1538.24478544 784.38337174 1538.25038682 780.3799363 1538.25455457 776.3764869 C1538.26025391 769.35198692 1538.25847368 762.32751921 1538.2518692 755.30302048 C1538.2420754 744.85771468 1538.24367777 734.41243263 1538.2476195 723.9671241 C1538.25390393 706.39826285 1538.2507125 688.829415 1538.24202538 671.26055527 C1538.23342207 653.85781607 1538.22850495 636.45508289 1538.22869301 619.05234146 C1538.22870065 617.97134232 1538.2287083 616.89034317 1538.22871618 615.77658648 C1538.22875708 611.38889277 1538.22882269 607.00119905 1538.22892199 602.61350534 C1538.22982877 561.42445395 1538.21987243 520.23541175 1538.20449232 479.04636354 C1538.19086579 442.41844024 1538.18463109 405.79052347 1538.18530273 369.16259766 C1538.18534315 366.81057445 1538.18538351 364.45855124 1538.18542381 362.10652803 C1538.18545434 360.36236917 1538.18545434 360.36236917 1538.18548548 358.58297478 C1538.18558627 352.73025281 1538.18567686 346.87753085 1538.18575573 341.02480888 C1538.1857808 339.29298961 1538.1857808 339.29298961 1538.18580638 337.5261841 C1538.1861712 306.9567164 1538.18163669 276.38724953 1538.17542917 245.81778252 C1538.17509876 244.18756879 1538.17509876 244.18756879 1538.17476168 242.52442145 C1538.1738734 238.15371376 1538.17298502 233.78300606 1538.17207072 229.41229837 C1538.16890596 214.17984325 1538.16740084 198.94738878 1538.16695923 183.71493336 C1538.16636322 164.09079455 1538.16239039 144.46666113 1538.15252777 124.84252463 C1538.14739726 114.45365079 1538.14500854 104.06478487 1538.14652396 93.67590982 C1538.1472549 86.74980646 1538.14438093 79.82371086 1538.13848015 72.89760999 C1538.13521032 68.9426048 1538.13356537 64.9876163 1538.13624074 61.03261028 C1538.13907111 56.78713007 1538.13428474 52.54169433 1538.12863445 48.29621696 C1538.13068977 47.04831208 1538.13274509 45.80040719 1538.13486269 44.514687 C1538.13210295 43.39514297 1538.1293432 42.27559893 1538.12649983 41.12212932 C1538.12606258 39.66339148 1538.12606258 39.66339148 1538.1256165 38.17518418 C1538.2431859 36.02146482 1538.2431859 36.02146482 1537 35 C1535.65384168 34.90304448 1534.30262912 34.87521568 1532.95298376 34.87532884 C1532.07304062 34.87297594 1531.19309748 34.87062304 1530.2864894 34.86819885 C1528.81583275 34.87196216 1528.81583275 34.87196216 1527.31546587 34.8758015 C1525.76046203 34.87388437 1525.76046203 34.87388437 1524.17404398 34.87192852 C1520.64649856 34.8688283 1517.11899663 34.87295146 1513.5914526 34.87695217 C1511.04749384 34.87621352 1508.50353519 34.875036 1505.95957682 34.87345567 C1500.38320405 34.8710137 1494.80684489 34.8717242 1489.23047286 34.87511682 C1480.88243723 34.88017589 1472.53440895 34.8794935 1464.18637235 34.87765024 C1449.96226512 34.87467778 1435.73816198 34.87646506 1421.51405525 34.88079453 C1407.09014972 34.88516553 1392.6662463 34.88736794 1378.24234009 34.88689232 C1377.3328896 34.88686363 1376.42343912 34.88683493 1375.48642953 34.88680537 C1370.84951955 34.88664901 1366.21260957 34.88645706 1361.5756996 34.88625254 C1327.97284857 34.8848433 1294.36999942 34.8882819 1260.76714897 34.89426994 C1227.47868274 34.90018781 1194.19021732 34.90404411 1160.90175056 34.90512276 C1159.8688099 34.90515717 1158.83586924 34.90519158 1157.77162734 34.90522704 C1148.33762179 34.90554022 1138.90361624 34.90582792 1129.46961069 34.90608501 C1106.01533698 34.90672449 1082.56106328 34.90768387 1059.10678959 34.90886021 C1057.50451819 34.90894018 1057.50451819 34.90894018 1055.86987768 34.90902177 C1003.88012974 34.91164474 951.89038233 34.91795289 899.90063477 34.92456055 C881.85388184 34.92685216 863.80712891 34.9291275 845.76037598 34.93133545 C844.64114933 34.9314724 843.52192268 34.93160935 842.36878007 34.93175045 C790.36095248 34.93809185 738.35312481 34.94181925 686.34529694 34.94487024 C682.96985678 34.94506831 679.59441661 34.9452675 676.21897645 34.94546692 C653.85018678 34.94678668 631.48139712 34.94806133 609.11260745 34.94930578 C564.60239658 34.95178243 520.09218572 34.95452412 475.58197488 34.95744783 C473.46217328 34.95758707 471.34237168 34.95772612 469.22257007 34.95786499 C373.76613695 34.9641199 278.30970421 34.97345841 182.85327148 34.98413086 C181.95925434 34.98423079 181.0652372 34.98433073 180.14412862 34.98443369 C135.42941906 34.98943439 90.71470952 34.99461093 46 35 Z " fill="#E5D5D3" transform="translate(15,9)"/>
<path d="M0 0 C395.13990855 -0.04040148 395.13990855 -0.04040148 545.92513311 -0.04816496 C548.04187585 -0.04827434 550.1586186 -0.04838376 552.27536134 -0.04849322 C553.86739422 -0.04857554 553.86739422 -0.04857554 555.49158937 -0.04865951 C592.99040127 -0.05060112 630.48921317 -0.05260802 667.98802506 -0.05472926 C671.5672136 -0.05493115 675.14640213 -0.05513133 678.72559067 -0.05533109 C733.55434495 -0.05839758 788.38309902 -0.0623014 843.21185303 -0.06866455 C844.98146821 -0.0688699 844.98146821 -0.0688699 846.78683319 -0.0690794 C865.80869157 -0.07129186 884.83054993 -0.07357543 903.8524083 -0.07586844 C958.61818396 -0.08246914 1013.38395944 -0.08854706 1068.14973545 -0.09113979 C1069.27512962 -0.09119333 1070.40052378 -0.09124686 1071.5600208 -0.09130202 C1096.26073401 -0.09246758 1120.96144722 -0.09336253 1145.66216045 -0.09400098 C1155.59977631 -0.09426262 1165.53739216 -0.09456324 1175.47500801 -0.09487724 C1176.56266013 -0.09491067 1177.65031226 -0.0949441 1178.77092353 -0.09497854 C1213.85832481 -0.0960763 1248.94572482 -0.10035185 1284.03312558 -0.10628221 C1319.35651796 -0.11223798 1354.67990911 -0.11510173 1390.003302 -0.11362399 C1394.87680905 -0.11342089 1399.75031611 -0.11325351 1404.62382317 -0.11310768 C1406.05693124 -0.11306286 1406.05693124 -0.11306286 1407.51899098 -0.11301713 C1422.69033109 -0.11263544 1437.86166861 -0.11563009 1453.033008 -0.12000986 C1467.92550683 -0.12424054 1482.81800229 -0.1249507 1497.71050143 -0.12183181 C1506.4582308 -0.12010819 1515.20594951 -0.12116934 1523.95367765 -0.126217 C1529.74772656 -0.1292913 1535.54176777 -0.12880528 1541.33581642 -0.12530107 C1544.63036121 -0.12341196 1547.92488075 -0.12369153 1551.2194248 -0.12723524 C1554.74500002 -0.13079065 1558.27051821 -0.12832139 1561.7960915 -0.1241985 C1562.82992878 -0.12670737 1563.86376606 -0.12921625 1564.92893174 -0.13180115 C1566.32036034 -0.12827181 1566.32036034 -0.12827181 1567.73989862 -0.12467116 C1568.54478137 -0.12473517 1569.34966412 -0.12479918 1570.17893725 -0.12486512 C1572 -0 1572 -0 1573 1 C1573.10176674 2.87812616 1573.13205823 4.76013398 1573.13570517 6.64101171 C1573.14051472 7.87655861 1573.14532426 9.1121055 1573.15027955 10.38509321 C1573.15060306 11.77675595 1573.15083337 13.16841871 1573.15098095 14.56008148 C1573.15475011 16.02860343 1573.15895384 17.49712431 1573.16355613 18.96564388 C1573.17501129 23.03844572 1573.18013776 27.11123553 1573.18427981 31.18405049 C1573.18982696 35.6009168 1573.20104745 40.01776922 1573.21151572 44.4346261 C1573.23136168 53.21184605 1573.24563649 61.9890673 1573.25817415 70.76630039 C1573.26874935 78.06637535 1573.28164837 85.36644314 1573.29604149 92.66651154 C1573.29811172 93.71802079 1573.30018195 94.76953004 1573.30231491 95.85290321 C1573.30654017 97.99722778 1573.31076626 100.14155235 1573.31499317 102.28587692 C1573.46575535 179.49846461 1573.53856931 256.71126403 1573.59730609 333.92397 C1573.60618877 345.57170937 1573.61540986 357.21944848 1573.62475586 368.8671875 C1573.62578056 370.15428218 1573.62680527 371.44137687 1573.62786102 372.76747442 C1573.66133611 414.50652066 1573.72984718 456.24541551 1573.81750528 497.98438042 C1573.90740871 540.87037453 1573.96485226 583.75628671 1573.98024191 626.64237563 C1573.98242322 632.69630171 1573.98496209 638.7502276 1573.98771095 644.80415344 C1573.98823868 645.99567585 1573.98876641 647.18719826 1573.98931013 648.4148274 C1573.99874172 667.61322149 1574.04226282 686.81139483 1574.09828154 706.00970317 C1574.1537979 725.29864344 1574.1728556 744.58734692 1574.15452697 763.87636083 C1574.14472849 775.34365098 1574.16291955 786.81010862 1574.22083864 798.27726092 C1574.25676478 805.93244853 1574.25653233 813.58707803 1574.2266423 821.2422903 C1574.21063722 825.6076642 1574.21057976 829.97145376 1574.2545106 834.33667105 C1574.29417284 838.30868582 1574.28775487 842.27786464 1574.24464108 846.2498191 C1574.23720802 847.67724765 1574.2465313 849.10488743 1574.27470445 850.53205729 C1574.47054193 861.13228937 1574.47054193 861.13228937 1570.81066135 865.78064227 C1568.30599512 868.05009724 1565.74286845 870.0305136 1563 872 C1561.84686068 873.07067918 1560.71013971 874.16009757 1559.60900879 875.28419495 C1558.8606929 876.03478432 1558.8606929 876.03478432 1558.09725952 876.80053711 C1557.34238754 877.56551514 1557.34238754 877.56551514 1556.57226562 878.34594727 C1555.72633347 879.19647926 1555.72633347 879.19647926 1554.86331177 880.06419373 C1553.661904 881.27265545 1552.46163871 882.48225397 1551.26246643 883.69293404 C1549.36526715 885.60777009 1547.46433427 887.51882937 1545.56237793 889.42893982 C1540.16353687 894.8520445 1534.77065488 900.28104842 1529.38183594 905.71411133 C1526.06773664 909.05490464 1522.74885249 912.39088112 1519.42692566 915.7238903 C1518.1650968 916.99193639 1516.90516979 918.26187791 1515.64717102 919.53372383 C1513.90011951 921.29987238 1512.14710401 923.05988465 1510.39257812 924.81860352 C1509.87313629 925.34680695 1509.35369446 925.87501038 1508.81851196 926.41921997 C1505.22790078 930 1505.22790078 930 1503 930 C1502.67 930.99 1502.34 931.98 1502 933 C1499.98379493 935.72917532 1498.38049731 937.68664998 1494.97004056 938.46076716 C1492.40112173 938.64615388 1489.87495564 938.66427632 1487.29940736 938.63249916 C1485.81482461 938.64394827 1485.81482461 938.64394827 1484.30025029 938.65562867 C1480.95648254 938.67524054 1477.61383034 938.65900571 1474.27005577 938.64317226 C1471.84925343 938.64990038 1469.42845635 938.6588169 1467.00766927 938.66973343 C1461.71370607 938.68851245 1456.42007073 938.69162204 1451.12610893 938.68120372 C1443.20082942 938.66569252 1435.27577586 938.67887393 1427.35051279 938.69769725 C1413.84488513 938.72891307 1400.33933753 938.73622089 1386.8336792 938.73060989 C1373.1419073 938.72499316 1359.45020341 938.73013869 1345.75844193 938.74847221 C1344.89450764 938.74962048 1344.03057335 938.75076874 1343.14045924 938.75195181 C1339.62193092 938.75665986 1336.1034027 938.76143828 1332.58487461 938.76630776 C1295.85223707 938.8170697 1259.11963761 938.83233917 1222.38696902 938.83526831 C1218.43125418 938.83559204 1214.47553934 938.83593174 1210.5198245 938.83628535 C1209.04744647 938.83641289 1209.04744647 938.83641289 1207.54532343 938.836543 C1185.80689033 938.83858407 1164.06846452 938.84952979 1142.33003528 938.86206458 C1133.38275718 938.86720627 1124.43547897 938.87215638 1115.48820078 938.87714583 C1114.4996415 938.87769877 1113.51108222 938.87825172 1112.4925666 938.87882142 C1055.83056315 938.91044912 999.16856446 938.93106623 942.50655174 938.92877865 C940.38535137 938.92869976 938.26415101 938.92862108 936.14295064 938.92854261 C926.56560831 938.92817568 916.98826598 938.92773483 907.41092366 938.92727319 C903.14002287 938.92706757 898.86912208 938.92686683 894.59822129 938.92666662 C892.4605564 938.92656464 890.32289151 938.92645954 888.18522663 938.92635132 C820.58680744 938.92294993 752.9885192 938.95953636 685.39013672 939.02905273 C668.35912807 939.04655738 651.32811929 939.06390448 634.2971096 939.08037472 C633.24848811 939.08138909 632.19986661 939.08240346 631.11946871 939.08344857 C598.80729604 939.11451662 566.49513414 939.13335005 534.18294716 939.13966465 C532.66154301 939.13996428 532.66154301 939.13996428 531.10940342 939.14026996 C508.84517856 939.14453607 486.58095439 939.14584241 464.3167292 939.14441808 C456.35040738 939.14393565 448.38408556 939.14367544 440.41776373 939.14352444 C438.43588885 939.14348487 436.45401396 939.14343384 434.47213908 939.14337132 C402.87414294 939.14248919 371.27625877 939.17100066 339.67829473 939.2141404 C307.8574111 939.25736365 276.03668263 939.26836926 244.21578201 939.23533379 C239.82050976 939.23077217 235.42523724 939.22655581 231.02996445 939.22254372 C230.16835466 939.22174328 229.30674487 939.22094284 228.4190257 939.22011815 C214.76541737 939.20834408 201.11207702 939.23016153 187.45851908 939.26589965 C174.03901315 939.30032439 160.61990373 939.29916821 147.20040664 939.25993897 C139.32882563 939.23799685 131.4584111 939.24346918 123.58692624 939.28927289 C117.74795548 939.32020164 111.90993293 939.29914619 106.07100172 939.25760639 C103.71995908 939.24897748 101.36878071 939.25721551 99.0178761 939.28411243 C79.34824523 939.49413745 79.34824523 939.49413745 72.36898005 933.19309622 C70.8925817 931.47915125 69.43516651 929.7486156 68 928 C66.23630431 926.51580165 64.44290497 925.06558467 62.61132812 923.66601562 C56.65338605 918.84533102 51.29990716 913.53056195 45.92808533 908.07841492 C44.17544904 906.29980739 42.41625096 904.52791501 40.65539551 902.75744629 C36.93118557 899.0106385 33.21504307 895.25589412 29.5 891.5 C25.16305308 887.1157551 20.82280969 882.73487529 16.47413635 878.36225891 C14.74224424 876.61741987 13.01648328 874.86666947 11.29089355 873.11560059 C10.23523924 872.05268587 9.17930574 870.99004833 8.12304688 869.92773438 C7.20358276 868.99779663 6.28411865 868.06785889 5.33679199 867.10974121 C3.10658704 864.8127404 3.10658704 864.8127404 0 864 C0 578.88 0 293.76 0 0 Z M7 7 C7 287.17 7 567.34 7 856 C521.14 856 1035.28 856 1565 856 C1565 575.83 1565 295.66 1565 7 C1050.86 7 536.72 7 7 7 Z " fill="#8F8786" transform="translate(15,9)"/>
<path d="M0 0 C45.61775714 -0.0054979 91.2355143 -0.01076988 136.85327148 -0.01586914 C138.19218584 -0.01601884 138.19218584 -0.01601884 139.55814898 -0.01617156 C235.17199034 -0.02685546 330.7858317 -0.03607946 426.39967346 -0.04234314 C428.52268419 -0.04248259 430.64569491 -0.04262204 432.76870564 -0.04276149 C477.32788278 -0.04568396 521.88705994 -0.0484007 566.44623711 -0.05087968 C588.82864068 -0.05212511 611.21104425 -0.05341008 633.59344782 -0.05473244 C636.96982154 -0.05493169 640.34619526 -0.05512981 643.72256898 -0.05532788 C695.73517149 -0.05838911 747.74777376 -0.06230026 799.76037598 -0.06866455 C801.43879811 -0.0688699 801.43879811 -0.0688699 803.15112777 -0.0690794 C821.19273562 -0.07129186 839.23434346 -0.07357543 857.2759513 -0.07586844 C909.21956399 -0.08246915 961.16317651 -0.08854707 1013.10678959 -0.09113979 C1014.17419313 -0.09119333 1015.24159667 -0.09124686 1016.34134577 -0.09130202 C1039.76926595 -0.09246758 1063.19718613 -0.09336253 1086.62510633 -0.09400098 C1096.05065441 -0.09426262 1105.47620249 -0.09456324 1114.90175056 -0.09487724 C1115.93335782 -0.09491067 1116.96496508 -0.0949441 1118.02783316 -0.09497854 C1151.30710173 -0.0960763 1184.58636898 -0.10035183 1217.86563701 -0.10628221 C1251.36880485 -0.11223802 1284.8719714 -0.11510172 1318.37513978 -0.11362399 C1322.99753988 -0.11342089 1327.61993998 -0.11325351 1332.24234009 -0.11310768 C1333.1485181 -0.1130778 1334.05469612 -0.11304792 1334.98833408 -0.11301713 C1349.37782484 -0.11263544 1363.76731287 -0.11563005 1378.15680288 -0.12000986 C1392.28190895 -0.12424059 1406.40701145 -0.12495066 1420.53211785 -0.12183181 C1428.82903054 -0.12010822 1437.12593199 -0.12116923 1445.42284338 -0.126217 C1451.55857169 -0.12964955 1457.69428666 -0.12795154 1463.83001524 -0.12413998 C1466.31455147 -0.12341858 1468.79908887 -0.12441745 1471.28362362 -0.12723524 C1474.62759175 -0.1307909 1477.97149977 -0.1283212 1481.31546587 -0.1241985 C1482.78612251 -0.12796181 1482.78612251 -0.12796181 1484.2864894 -0.13180115 C1485.60640411 -0.12827181 1485.60640411 -0.12827181 1486.95298376 -0.12467116 C1487.71639025 -0.12473517 1488.47979673 -0.12479918 1489.26633675 -0.12486512 C1491 0 1491 0 1492 1 C1492.09846669 2.7050562 1492.1259879 4.41423235 1492.12649983 6.12212932 C1492.12925958 7.24167336 1492.13201932 8.36121739 1492.13486269 9.514687 C1492.13280737 10.76259189 1492.13075205 12.01049678 1492.12863445 13.29621696 C1492.13126401 15.27199676 1492.13126401 15.27199676 1492.13394669 17.2876913 C1492.13870891 20.97721649 1492.1371647 24.66671722 1492.13466892 28.35624368 C1492.13304481 32.35752861 1492.13716914 36.3588081 1492.14057809 40.36009133 C1492.14574807 47.38394664 1492.14714654 54.40779505 1492.14612198 61.43165207 C1492.14460214 71.87614838 1492.14874745 82.32063701 1492.1539966 92.76513183 C1492.16368762 112.50082695 1492.1664815 132.23651949 1492.16705366 151.97221671 C1492.16751249 167.20815393 1492.16956712 182.44409012 1492.17275429 197.68002701 C1492.17365178 202.05927884 1492.17454159 206.43853068 1492.17542917 210.81778252 C1492.17565021 211.90635291 1492.17587126 212.99492329 1492.17609901 214.11648066 C1492.18225664 244.75258997 1492.18619922 275.38869893 1492.18575573 306.02480888 C1492.18574015 307.18079821 1492.18572457 308.33678755 1492.18570852 309.52780686 C1492.18562541 315.38738058 1492.18552637 321.2469543 1492.18542381 327.10652803 C1492.1853939 328.85225354 1492.1853939 328.85225354 1492.18536337 330.63324623 C1492.18532294 332.98676957 1492.18528114 335.34029291 1492.18523798 337.69381625 C1492.18462505 374.32143485 1492.19213369 410.9490442 1492.20581055 447.57666016 C1492.22115541 488.68867439 1492.22977773 529.80068254 1492.22884732 570.91269982 C1492.22877269 575.29258037 1492.22872399 579.67246091 1492.22869301 584.05234146 C1492.22868135 585.13085007 1492.2286697 586.20935867 1492.22865769 587.32054936 C1492.22862686 604.71243409 1492.23502566 622.10431083 1492.24362527 639.49619319 C1492.25208275 656.96128115 1492.25310672 674.42635735 1492.24651595 691.89144622 C1492.24280751 702.27990016 1492.24469101 712.66831848 1492.25445829 723.05676869 C1492.26042451 729.98521422 1492.25920057 736.91363374 1492.25198779 743.84207805 C1492.24807764 747.79683196 1492.24741202 751.75151656 1492.25544515 755.70626579 C1492.26267798 759.29825159 1492.26084246 762.89010978 1492.25152128 766.48208972 C1492.24896588 768.3945432 1492.25630155 770.30700192 1492.26394406 772.21944183 C1492.25681784 773.90626844 1492.25681784 773.90626844 1492.24954766 775.62717235 C1492.24963588 776.59979976 1492.2497241 777.57242718 1492.249815 778.57452815 C1492 781 1492 781 1490 784 C1488.14401756 784.37517725 1488.14401756 784.37517725 1485.8345193 784.3754315 C1484.95361165 784.382807 1484.07270401 784.39018251 1483.16510219 784.39778151 C1482.18872808 784.39060928 1481.21235397 784.38343706 1480.20639277 784.37604749 C1479.17008277 784.38025444 1478.13377278 784.38446139 1477.06605945 784.38879583 C1473.54565151 784.39934911 1470.02562912 784.38826807 1466.50522614 784.37752342 C1463.96411625 784.38064891 1461.42300769 784.3850897 1458.88190216 784.39073652 C1453.3148471 784.40004101 1447.74791153 784.39989772 1442.18085688 784.39168589 C1433.8467875 784.37944779 1425.51278996 784.38441686 1417.17871903 784.39283381 C1402.97797531 784.40666451 1388.77726375 784.40616892 1374.57651711 784.39799118 C1360.17721211 784.38974949 1345.77792831 784.38798666 1331.37862206 784.39420319 C1330.01653455 784.39478446 1330.01653455 784.39478446 1328.62693013 784.39537748 C1324.92880565 784.39697722 1321.23068119 784.39862333 1317.53255676 784.40032831 C1283.05268089 784.41621375 1248.57281923 784.41726474 1214.09294128 784.40888596 C1213.07031825 784.40863757 1212.04769521 784.40838918 1210.9940836 784.40813327 C1209.45771188 784.40776009 1209.45771188 784.40776009 1207.89030235 784.40737936 C1176.72323797 784.39981875 1145.55617948 784.39785148 1114.38911438 784.4014473 C1112.30442486 784.40167973 1110.21973534 784.4019112 1108.13504582 784.40214171 C1099.75816638 784.40307306 1091.38128695 784.40402905 1083.00440752 784.405021 C1059.5855622 784.40777242 1036.16671686 784.40948393 1012.7478714 784.41037941 C1011.68131062 784.41042035 1010.61474985 784.41046128 1009.51586905 784.41050346 C975.51554012 784.41173183 941.51521324 784.40834784 907.51488495 784.40183067 C906.41163469 784.40161993 905.30838442 784.40140918 904.17170234 784.40119205 C886.25407908 784.39775694 868.33645588 784.39409867 850.41883267 784.39042152 C779.34936585 784.3758518 708.27991597 784.37652803 637.21044922 784.39111328 C619.30200451 784.39477666 601.3935598 784.39840973 583.48511505 784.40183067 C581.83122594 784.40214769 581.83122594 784.40214769 580.14392493 784.40247111 C546.17999255 784.40893678 512.21606158 784.41168303 478.2521286 784.41037941 C476.65345275 784.41031828 476.65345275 784.41031828 475.02248042 784.41025592 C451.62993231 784.4093186 428.23738435 784.40741793 404.84483639 784.4046479 C396.47531255 784.40366042 388.10578871 784.40272118 379.73626486 784.40179577 C377.65402337 784.4015636 375.57178188 784.40132741 373.48954039 784.40108718 C342.32832991 784.39750201 311.16712606 784.40056424 280.0059164 784.40813327 C278.47198185 784.40850585 278.47198185 784.40850585 276.90705872 784.40888596 C275.37593675 784.40925803 275.37593675 784.40925803 273.81388302 784.40963761 C239.43630125 784.41790018 205.05873655 784.41489312 170.68115723 784.39904372 C166.99456415 784.39738656 163.30797106 784.39577646 159.62137794 784.39420319 C158.26419031 784.39361726 158.26419031 784.39361726 156.87958475 784.39301949 C142.51494274 784.38708718 128.15032186 784.39123808 113.78568175 784.3995102 C99.68334259 784.40741875 85.58103931 784.40471052 71.47870473 784.39046794 C63.19629076 784.38242361 54.91397483 784.38269555 46.63156541 784.39491273 C40.50478775 784.40304512 34.37813568 784.39575875 28.25136328 784.38214391 C25.77178679 784.37909411 23.29219794 784.38119381 20.81263112 784.38876172 C17.4727655 784.39824098 14.13344647 784.38960573 10.79360723 784.37604749 C9.81723312 784.38321972 8.84085901 784.39039194 7.83489781 784.39778151 C6.95399017 784.39040601 6.07308252 784.3830305 5.1654807 784.3754315 C4.40334628 784.3753476 3.64121185 784.3752637 2.85598244 784.37517725 C1 784 1 784 -1 781 C-1.249815 778.5776315 -1.249815 778.5776315 -1.24954766 775.63473505 C-1.25667388 773.9504429 -1.25667388 773.9504429 -1.26394406 772.23212466 C-1.25897588 770.99079229 -1.2540077 769.74945993 -1.24888897 768.47051144 C-1.25149625 767.152406 -1.25410354 765.83430056 -1.25678983 764.47625253 C-1.26378782 760.79345172 -1.2582258 757.11075774 -1.25073375 753.42796178 C-1.24478541 749.43053394 -1.25038684 745.43312015 -1.25455457 741.43569237 C-1.26025391 734.42173511 -1.25847368 727.40781016 -1.2518692 720.39385414 C-1.24207536 709.96417169 -1.24367779 699.53451303 -1.2476195 689.10482785 C-1.25390399 671.56198574 -1.2507124 654.01915705 -1.24202538 636.47631645 C-1.23342186 619.09869703 -1.22850496 601.72108364 -1.22869301 584.34346199 C-1.22870065 583.26399432 -1.2287083 582.18452664 -1.22871618 581.07234783 C-1.22875708 576.6908523 -1.22882269 572.30935678 -1.22892199 567.92786125 C-1.22982878 526.79639249 -1.21987239 485.66493292 -1.20449232 444.53346734 C-1.19086674 407.95924056 -1.18463105 371.38502031 -1.18530273 334.81079102 C-1.18534315 332.46235609 -1.18538351 330.11392116 -1.18542381 327.76548623 C-1.18544416 326.60448619 -1.18546452 325.44348615 -1.18548548 324.24730429 C-1.18558627 318.40346581 -1.18567686 312.55962733 -1.18575573 306.71578884 C-1.18577244 305.56298768 -1.18578916 304.41018653 -1.18580638 303.222452 C-1.18617124 272.69591352 -1.18163626 242.16937586 -1.17542917 211.64283806 C-1.17520889 210.55748395 -1.17498862 209.47212984 -1.17476168 208.35388621 C-1.1738734 203.9890539 -1.17298502 199.62422159 -1.17207072 195.25938928 C-1.1689064 180.04965825 -1.1674009 164.83992786 -1.16695923 149.63019653 C-1.1663631 130.03419371 -1.16238807 110.4381963 -1.15252777 90.8421958 C-1.14739885 80.46908472 -1.14500802 70.09598157 -1.14652396 59.72286928 C-1.14725526 52.80599656 -1.14437821 45.88913159 -1.13848015 38.97226136 C-1.13521243 35.02334849 -1.13356304 31.07445233 -1.13624074 27.12553864 C-1.13907469 22.88489248 -1.1342806 18.64429074 -1.12863445 14.40364742 C-1.13068977 13.15997389 -1.13274509 11.91630037 -1.13486269 10.63493976 C-1.13210295 9.51458185 -1.1293432 8.39422394 -1.12649983 7.23991579 C-1.12620833 6.26882772 -1.12591683 5.29773965 -1.1256165 4.29722467 C-1 2 -1 2 0 0 Z M8.14857488 59.37996665 C6.55663358 61.62535616 6.62412481 63.17986725 6.62280184 65.9205336 C6.61503506 66.94397679 6.60726828 67.96741998 6.59926614 69.0218766 C6.60600379 70.15193744 6.61274144 71.28199827 6.61968327 72.44630337 C6.61502335 73.64731183 6.61036343 74.84832029 6.6055623 76.08572295 C6.59562253 79.44026712 6.59923313 82.7943153 6.60839598 86.1488302 C6.61507511 89.79031584 6.60445517 93.43175647 6.59600013 97.07323271 C6.58359365 103.46228558 6.58243787 109.85126506 6.58855057 116.24032593 C6.59761603 125.74089505 6.58963029 135.24139592 6.57825933 144.74195979 C6.55855675 161.70716434 6.55625186 178.67233838 6.56145453 195.63755163 C6.56600551 210.48440609 6.56542027 225.33124844 6.55961418 240.17810249 C6.55885733 242.16693595 6.55810135 244.1557694 6.55734624 246.14460285 C6.55620109 249.14131712 6.55505121 252.13803139 6.55388699 255.13474566 C6.54317628 283.00871788 6.53846261 310.88268605 6.54635715 338.75665951 C6.54665433 339.80819137 6.5469515 340.85972323 6.54725768 341.9431197 C6.54970681 350.48319264 6.5523183 359.02326553 6.55494181 367.56333841 C6.56504579 400.88168159 6.5566883 434.19997439 6.53344727 467.51831055 C6.50739827 504.92296696 6.4945204 542.32759303 6.50163502 579.73225886 C6.50235112 583.71753315 6.5030255 587.70280744 6.50367546 591.68808174 C6.50384527 592.66940939 6.50401508 593.65073704 6.50419003 594.66180189 C6.50649687 609.50110283 6.49849775 624.34037569 6.48538399 639.17967033 C6.47050388 656.04816467 6.46958766 672.91659298 6.4874549 689.78508585 C6.49704974 699.23356623 6.49551846 708.68189285 6.47822021 718.13036311 C6.4677816 724.43346063 6.47175883 730.73644024 6.48770025 737.03952604 C6.49638667 740.63631585 6.49862503 744.23280293 6.48343093 747.82957792 C6.46725172 751.69582756 6.48169916 755.56160417 6.49942875 759.42785549 C6.48977824 760.55557516 6.48012773 761.68329482 6.47018477 762.84518781 C6.47994262 763.87113452 6.48970047 764.89708123 6.49975401 765.95411724 C6.49980131 766.83879204 6.4998486 767.72346685 6.49989733 768.63494998 C7.16427154 771.7768613 8.57023867 772.97246771 11 775 C13.29118759 776.1455938 14.55691711 776.12553009 17.10355704 776.12656184 C18.40413687 776.13072481 18.40413687 776.13072481 19.73099105 776.13497188 C20.69184793 776.13293555 21.6527048 776.13089921 22.64267856 776.12880117 C23.66264403 776.13057618 24.68260951 776.13235119 25.73348302 776.13417998 C29.19806643 776.13896234 32.66260896 776.13653681 36.1271944 776.13422108 C38.62817005 776.13617208 41.12914539 776.13856018 43.63012025 776.14134905 C49.1091322 776.14643289 54.58813178 776.14836431 60.0671458 776.1475983 C68.26949093 776.1464658 76.471826 776.15103463 84.67416887 776.15672914 C98.6506035 776.16625513 112.62703612 776.17095074 126.60347366 776.17303848 C140.7754055 776.17516474 154.94733424 776.17941916 169.1192646 776.1862812 C170.01299286 776.18671182 170.90672111 776.18714243 171.82753204 776.1875861 C175.46730395 776.18934438 179.10707587 776.19111402 182.74684777 776.19289912 C226.90642323 776.21451471 271.06599931 776.22537997 315.22557886 776.23437535 C329.54175289 776.23730797 343.85792677 776.24067767 358.17410064 776.24434257 C359.1836198 776.24460086 360.19313897 776.24485915 361.23324963 776.24512527 C365.31713688 776.24617145 369.40102414 776.24721987 373.4849114 776.24827109 C443.33800594 776.26623611 513.19110073 776.28161681 583.04419725 776.28903012 C588.53264122 776.2896141 594.02108519 776.29021136 599.50952915 776.29080774 C600.59828359 776.29092586 601.68703803 776.29104398 602.80878503 776.29116567 C613.83975823 776.29236309 624.87073143 776.29357185 635.90170463 776.29479821 C638.11348055 776.29504344 640.32525646 776.2952873 642.53703238 776.29552978 C713.59352707 776.30332198 784.65000525 776.32571059 855.70649272 776.3582062 C906.75265235 776.38154281 957.7988087 776.40309924 1008.84497356 776.41021252 C1009.89413038 776.41035954 1010.9432872 776.41050656 1012.02423665 776.41065803 C1035.05267528 776.41384242 1058.08111388 776.41589362 1081.1095527 776.41688558 C1090.37459141 776.41730034 1099.63963011 776.41785524 1108.90466881 776.41844749 C1109.91869848 776.41850816 1110.93272815 776.41856883 1111.97748599 776.41863134 C1144.67798978 776.42064956 1177.37847413 776.43490434 1210.07897113 776.4553925 C1243.00359431 776.47594799 1275.92819497 776.48388081 1308.85282392 776.47431473 C1313.39739332 776.47299618 1317.94196275 776.47181816 1322.48653221 776.47072411 C1323.37743547 776.47050426 1324.26833872 776.47028441 1325.18623904 776.4700579 C1339.32189165 776.46693741 1353.45750134 776.47729396 1367.59314399 776.49319966 C1381.47576526 776.50854343 1395.35832688 776.5097416 1409.24095017 776.49565142 C1417.39100155 776.48781045 1425.54087128 776.4910405 1433.69090472 776.51028858 C1439.72514996 776.52333114 1445.75917669 776.5157436 1451.79342298 776.49980123 C1454.23156395 776.49662889 1456.66972486 776.50028647 1459.10784305 776.51129298 C1462.3993214 776.52519402 1465.68983088 776.51477374 1468.98127395 776.49794465 C1469.9349586 776.50786203 1470.88864325 776.5177794 1471.87122744 776.5279973 C1475.96938291 776.4833934 1478.3917081 776.34833862 1482.00117038 774.28137846 C1485.42398049 770.3747297 1486.24944199 766.98652347 1486.25415033 761.87184292 C1486.25992604 760.8530181 1486.26570176 759.83419327 1486.27165249 758.78449497 C1486.2678277 757.66988593 1486.26400291 756.55527689 1486.26006222 755.40689182 C1486.26386789 754.21430511 1486.26767356 753.02171839 1486.27159455 751.79299268 C1486.28014752 748.4714789 1486.27971512 745.15018328 1486.27553919 741.82867538 C1486.27317773 738.21938611 1486.28233582 734.61012325 1486.29002339 731.00084394 C1486.30188326 724.67136724 1486.30623565 718.34191939 1486.30570221 712.0124321 C1486.30490985 702.60036249 1486.31544966 693.18832936 1486.32811778 683.77626948 C1486.35287331 665.01029233 1486.36164203 646.244324 1486.36665427 627.47833277 C1486.36691544 626.50622071 1486.36717662 625.53410865 1486.36744571 624.53253865 C1486.36770598 623.55851445 1486.36796626 622.58449024 1486.36823442 621.58095015 C1486.37131471 610.79500275 1486.37781868 600.00905781 1486.3844471 589.22311211 C1486.40409538 556.65861283 1486.42049998 524.09411622 1486.42332363 491.52961063 C1486.42341769 490.4877584 1486.42351175 489.44590617 1486.42360866 488.37248266 C1486.42398715 484.15015538 1486.42435115 479.9278281 1486.42471164 475.70550082 C1486.42498337 472.52738141 1486.42526004 469.34926199 1486.42553711 466.17114258 C1486.42562513 465.12097231 1486.42571315 464.07080204 1486.42580384 462.98880843 C1486.42871042 429.97892214 1486.45081592 396.96909436 1486.48706055 363.95922852 C1486.52775784 326.89294016 1486.55148197 289.82669167 1486.55178314 252.76037973 C1486.55187997 248.8104877 1486.5520467 244.86059568 1486.55226326 240.91070366 C1486.55230737 239.93810276 1486.55235149 238.96550186 1486.55239694 237.96342821 C1486.55351825 222.2906651 1486.57094792 206.61796047 1486.59408258 190.94521622 C1486.61688871 175.20342428 1486.62117389 159.46171163 1486.60653328 143.71990926 C1486.59836248 134.36067212 1486.60414091 125.00168417 1486.62971413 115.64247709 C1486.64540819 109.39639282 1486.64304768 103.15048639 1486.6258074 96.90440656 C1486.61649039 93.34179894 1486.61517867 89.77967294 1486.63577347 86.21710194 C1486.65774365 82.38414983 1486.64126894 78.5519229 1486.62082577 74.71894932 C1486.63338914 73.60668145 1486.64595251 72.49441358 1486.6588966 71.34844062 C1486.62391502 64.92767751 1486.62391502 64.92767751 1483.71119839 59.39256567 C1480.07125605 56.18040639 1477.52906975 54.75020323 1472.6607267 54.74923966 C1471.79201625 54.74421706 1470.9233058 54.73919445 1470.02827079 54.73401964 C1468.5996337 54.74101467 1468.5996337 54.74101467 1467.14213526 54.748151 C1466.12320998 54.74522214 1465.10428471 54.74229327 1464.0544829 54.73927566 C1460.60546035 54.73183959 1457.15661204 54.73877408 1453.7075901 54.74552441 C1451.21311263 54.74313686 1448.71863586 54.73987317 1446.22416055 54.73580781 C1440.7656032 54.72895168 1435.3070993 54.72837475 1429.84854074 54.73319729 C1421.67684669 54.74038131 1413.50518645 54.73608579 1405.33349332 54.72951594 C1391.40847562 54.71866321 1377.48347143 54.71736519 1363.5584507 54.72121429 C1349.44057047 54.72508559 1335.32270033 54.72464339 1321.20482063 54.7189045 C1320.31418518 54.71854567 1319.42354973 54.71818684 1318.50592532 54.71781714 C1314.87869405 54.71634229 1311.25146279 54.7148379 1307.62423154 54.71329568 C1270.76965873 54.69764438 1233.91509284 54.69498349 1197.06051731 54.69745174 C1191.96488142 54.69779017 1186.86924553 54.69811227 1181.77360964 54.69841743 C1180.25552315 54.69850899 1180.25552315 54.69850899 1178.70676825 54.69860241 C1156.29709836 54.69987327 1133.88742942 54.69727481 1111.4777598 54.69389136 C1106.36378016 54.69312062 1101.24980051 54.6923759 1096.13582086 54.69162634 C1094.08344163 54.69132465 1092.03106241 54.69102277 1089.97868318 54.6907207 C1088.96137046 54.69057102 1087.94405774 54.69042134 1086.89591736 54.69026713 C1084.83821747 54.6899636 1082.78051758 54.68965892 1080.72281769 54.68935308 C1022.31858199 54.68067718 963.91434712 54.67603823 905.51011086 54.68030071 C904.42812922 54.68037877 903.34614758 54.68045683 902.23137863 54.68053725 C890.1655534 54.68141008 878.09972818 54.68233935 866.03390296 54.68328788 C864.39978725 54.68341615 864.39978725 54.68341615 862.73265911 54.683547 C856.1241442 54.68406579 856.1241442 54.68406579 849.51562928 54.68458923 C779.82356535 54.69012579 710.13151466 54.68258182 640.43945312 54.66381836 C622.8788942 54.65909634 605.31833526 54.65441592 587.75777626 54.6499815 C586.13597927 54.64957152 586.13597927 54.64957152 584.48141871 54.64915325 C551.17180321 54.64078528 517.8621888 54.6361026 484.55257225 54.63527393 C483.50718287 54.63524757 482.4617935 54.6352212 481.38472565 54.63519404 C458.43879959 54.63465332 435.49287361 54.63502557 412.54694758 54.63623375 C404.33701805 54.6366594 396.12708853 54.63702451 387.917159 54.63736319 C385.87464988 54.63744849 383.83214077 54.63753743 381.78963165 54.63763001 C349.21014959 54.63908027 316.63067652 54.6319429 284.05119663 54.62062605 C250.33708925 54.6089909 216.62299795 54.60839596 182.9088905 54.62046947 C179.29192084 54.62172137 175.67495118 54.62292484 172.05798149 54.62409019 C171.17028773 54.62438049 170.28259398 54.62467078 169.36800041 54.62496987 C155.28616931 54.62930299 141.20436096 54.62355103 127.12253343 54.61365 C113.29112019 54.60413578 99.45974223 54.60525681 85.62833107 54.61785623 C77.50953579 54.62493082 69.39084167 54.62372624 61.27205349 54.61050784 C55.25917203 54.60162676 49.24641613 54.60823811 43.23353735 54.62109742 C40.80535747 54.6238435 38.37716554 54.62147882 35.94899692 54.61359027 C32.66866196 54.60365412 29.38887481 54.61199541 26.10856307 54.62510318 C25.16091983 54.61781281 24.21327659 54.61052245 23.23691689 54.60301117 C17.14144672 54.65373468 13.13683815 55.66194593 8.14857488 59.37996665 Z " fill="#8F8786" transform="translate(61,44)"/>
<path d="M0 0 C395.13990855 -0.04040148 395.13990855 -0.04040148 545.92513311 -0.04816496 C548.04187585 -0.04827434 550.1586186 -0.04838376 552.27536134 -0.04849322 C553.86739422 -0.04857554 553.86739422 -0.04857554 555.49158937 -0.04865951 C592.99040127 -0.05060112 630.48921317 -0.05260802 667.98802506 -0.05472926 C671.5672136 -0.05493115 675.14640213 -0.05513133 678.72559067 -0.05533109 C733.55434495 -0.05839758 788.38309902 -0.0623014 843.21185303 -0.06866455 C844.98146821 -0.0688699 844.98146821 -0.0688699 846.78683319 -0.0690794 C865.80869157 -0.07129186 884.83054993 -0.07357543 903.8524083 -0.07586844 C958.61818396 -0.08246914 1013.38395944 -0.08854706 1068.14973545 -0.09113979 C1069.27512962 -0.09119333 1070.40052378 -0.09124686 1071.5600208 -0.09130202 C1096.26073401 -0.09246758 1120.96144722 -0.09336253 1145.66216045 -0.09400098 C1155.59977631 -0.09426262 1165.53739216 -0.09456324 1175.47500801 -0.09487724 C1176.56266013 -0.09491067 1177.65031226 -0.0949441 1178.77092353 -0.09497854 C1213.85832481 -0.0960763 1248.94572482 -0.10035185 1284.03312558 -0.10628221 C1319.35651796 -0.11223798 1354.67990911 -0.11510173 1390.003302 -0.11362399 C1394.87680905 -0.11342089 1399.75031611 -0.11325351 1404.62382317 -0.11310768 C1406.05693124 -0.11306286 1406.05693124 -0.11306286 1407.51899098 -0.11301713 C1422.69033109 -0.11263544 1437.86166861 -0.11563009 1453.033008 -0.12000986 C1467.92550683 -0.12424054 1482.81800229 -0.1249507 1497.71050143 -0.12183181 C1506.4582308 -0.12010819 1515.20594951 -0.12116934 1523.95367765 -0.126217 C1529.74772656 -0.1292913 1535.54176777 -0.12880528 1541.33581642 -0.12530107 C1544.63036121 -0.12341196 1547.92488075 -0.12369153 1551.2194248 -0.12723524 C1554.74500002 -0.13079065 1558.27051821 -0.12832139 1561.7960915 -0.1241985 C1562.82992878 -0.12670737 1563.86376606 -0.12921625 1564.92893174 -0.13180115 C1566.32036034 -0.12827181 1566.32036034 -0.12827181 1567.73989862 -0.12467116 C1568.54478137 -0.12473517 1569.34966412 -0.12479918 1570.17893725 -0.12486512 C1572 -0 1572 -0 1573 1 C1573.10176674 2.87812616 1573.13205823 4.76013398 1573.13570517 6.64101171 C1573.14051472 7.87655861 1573.14532426 9.1121055 1573.15027955 10.38509321 C1573.15060306 11.77675595 1573.15083337 13.16841871 1573.15098095 14.56008148 C1573.15475011 16.02860343 1573.15895384 17.49712431 1573.16355613 18.96564388 C1573.17501129 23.03844572 1573.18013776 27.11123553 1573.18427981 31.18405049 C1573.18982696 35.6009168 1573.20104745 40.01776922 1573.21151572 44.4346261 C1573.23136168 53.21184605 1573.24563649 61.9890673 1573.25817415 70.76630039 C1573.26874935 78.06637535 1573.28164837 85.36644314 1573.29604149 92.66651154 C1573.29811172 93.71802079 1573.30018195 94.76953004 1573.30231491 95.85290321 C1573.30654017 97.99722778 1573.31076626 100.14155235 1573.31499317 102.28587692 C1573.46575535 179.49846461 1573.53856931 256.71126403 1573.59730609 333.92397 C1573.60618877 345.57170937 1573.61540986 357.21944848 1573.62475586 368.8671875 C1573.62578056 370.15428218 1573.62680527 371.44137687 1573.62786102 372.76747442 C1573.66133611 414.50652066 1573.72984718 456.24541551 1573.81750528 497.98438042 C1573.90740871 540.87037453 1573.96485226 583.75628671 1573.98024191 626.64237563 C1573.98242322 632.69630171 1573.98496209 638.7502276 1573.98771095 644.80415344 C1573.98823868 645.99567585 1573.98876641 647.18719826 1573.98931013 648.4148274 C1573.99874172 667.61322149 1574.04226282 686.81139483 1574.09828154 706.00970317 C1574.1537979 725.29864344 1574.1728556 744.58734692 1574.15452697 763.87636083 C1574.14472849 775.34365098 1574.16291955 786.81010862 1574.22083864 798.27726092 C1574.25676478 805.93244853 1574.25653233 813.58707803 1574.2266423 821.2422903 C1574.21063722 825.6076642 1574.21057976 829.97145376 1574.2545106 834.33667105 C1574.29417284 838.30868582 1574.28775487 842.27786464 1574.24464108 846.2498191 C1574.23720802 847.67724765 1574.2465313 849.10488743 1574.27470445 850.53205729 C1574.47054193 861.13228937 1574.47054193 861.13228937 1570.81066135 865.78064227 C1568.30599512 868.05009724 1565.74286845 870.0305136 1563 872 C1561.84686068 873.07067918 1560.71013971 874.16009757 1559.60900879 875.28419495 C1558.8606929 876.03478432 1558.8606929 876.03478432 1558.09725952 876.80053711 C1557.34238754 877.56551514 1557.34238754 877.56551514 1556.57226562 878.34594727 C1555.72633347 879.19647926 1555.72633347 879.19647926 1554.86331177 880.06419373 C1553.661904 881.27265545 1552.46163871 882.48225397 1551.26246643 883.69293404 C1549.36526715 885.60777009 1547.46433427 887.51882937 1545.56237793 889.42893982 C1540.16353687 894.8520445 1534.77065488 900.28104842 1529.38183594 905.71411133 C1526.06773664 909.05490464 1522.74885249 912.39088112 1519.42692566 915.7238903 C1518.1650968 916.99193639 1516.90516979 918.26187791 1515.64717102 919.53372383 C1513.90011951 921.29987238 1512.14710401 923.05988465 1510.39257812 924.81860352 C1509.87313629 925.34680695 1509.35369446 925.87501038 1508.81851196 926.41921997 C1505.22790078 930 1505.22790078 930 1503 930 C1502.67 930.99 1502.34 931.98 1502 933 C1499.98379493 935.72917532 1498.38049731 937.68664998 1494.97004056 938.46076716 C1492.40112173 938.64615388 1489.87495564 938.66427632 1487.29940736 938.63249916 C1485.81482461 938.64394827 1485.81482461 938.64394827 1484.30025029 938.65562867 C1480.95648254 938.67524054 1477.61383034 938.65900571 1474.27005577 938.64317226 C1471.84925343 938.64990038 1469.42845635 938.6588169 1467.00766927 938.66973343 C1461.71370607 938.68851245 1456.42007073 938.69162204 1451.12610893 938.68120372 C1443.20082942 938.66569252 1435.27577586 938.67887393 1427.35051279 938.69769725 C1413.84488513 938.72891307 1400.33933753 938.73622089 1386.8336792 938.73060989 C1373.1419073 938.72499316 1359.45020341 938.73013869 1345.75844193 938.74847221 C1344.89450764 938.74962048 1344.03057335 938.75076874 1343.14045924 938.75195181 C1339.62193092 938.75665986 1336.1034027 938.76143828 1332.58487461 938.76630776 C1295.85223707 938.8170697 1259.11963761 938.83233917 1222.38696902 938.83526831 C1218.43125418 938.83559204 1214.47553934 938.83593174 1210.5198245 938.83628535 C1209.04744647 938.83641289 1209.04744647 938.83641289 1207.54532343 938.836543 C1185.80689033 938.83858407 1164.06846452 938.84952979 1142.33003528 938.86206458 C1133.38275718 938.86720627 1124.43547897 938.87215638 1115.48820078 938.87714583 C1114.4996415 938.87769877 1113.51108222 938.87825172 1112.4925666 938.87882142 C1055.83056315 938.91044912 999.16856446 938.93106623 942.50655174 938.92877865 C940.38535137 938.92869976 938.26415101 938.92862108 936.14295064 938.92854261 C926.56560831 938.92817568 916.98826598 938.92773483 907.41092366 938.92727319 C903.14002287 938.92706757 898.86912208 938.92686683 894.59822129 938.92666662 C892.4605564 938.92656464 890.32289151 938.92645954 888.18522663 938.92635132 C820.58680744 938.92294993 752.9885192 938.95953636 685.39013672 939.02905273 C668.35912807 939.04655738 651.32811929 939.06390448 634.2971096 939.08037472 C633.24848811 939.08138909 632.19986661 939.08240346 631.11946871 939.08344857 C598.80729604 939.11451662 566.49513414 939.13335005 534.18294716 939.13966465 C532.66154301 939.13996428 532.66154301 939.13996428 531.10940342 939.14026996 C508.84517856 939.14453607 486.58095439 939.14584241 464.3167292 939.14441808 C456.35040738 939.14393565 448.38408556 939.14367544 440.41776373 939.14352444 C438.43588885 939.14348487 436.45401396 939.14343384 434.47213908 939.14337132 C402.87414294 939.14248919 371.27625877 939.17100066 339.67829473 939.2141404 C307.8574111 939.25736365 276.03668263 939.26836926 244.21578201 939.23533379 C239.82050976 939.23077217 235.42523724 939.22655581 231.02996445 939.22254372 C230.16835466 939.22174328 229.30674487 939.22094284 228.4190257 939.22011815 C214.76541737 939.20834408 201.11207702 939.23016153 187.45851908 939.26589965 C174.03901315 939.30032439 160.61990373 939.29916821 147.20040664 939.25993897 C139.32882563 939.23799685 131.4584111 939.24346918 123.58692624 939.28927289 C117.74795548 939.32020164 111.90993293 939.29914619 106.07100172 939.25760639 C103.71995908 939.24897748 101.36878071 939.25721551 99.0178761 939.28411243 C79.34824523 939.49413745 79.34824523 939.49413745 72.36898005 933.19309622 C70.8925817 931.47915125 69.43516651 929.7486156 68 928 C66.23630431 926.51580165 64.44290497 925.06558467 62.61132812 923.66601562 C56.65338605 918.84533102 51.29990716 913.53056195 45.92808533 908.07841492 C44.17544904 906.29980739 42.41625096 904.52791501 40.65539551 902.75744629 C36.93118557 899.0106385 33.21504307 895.25589412 29.5 891.5 C25.16305308 887.1157551 20.82280969 882.73487529 16.47413635 878.36225891 C14.74224424 876.61741987 13.01648328 874.86666947 11.29089355 873.11560059 C10.23523924 872.05268587 9.17930574 870.99004833 8.12304688 869.92773438 C7.20358276 868.99779663 6.28411865 868.06785889 5.33679199 867.10974121 C3.10658704 864.8127404 3.10658704 864.8127404 0 864 C0 578.88 0 293.76 0 0 Z M7 7 C7 287.17 7 567.34 7 856 C521.14 856 1035.28 856 1565 856 C1565 575.83 1565 295.66 1565 7 C1050.86 7 536.72 7 7 7 Z M15 864 C16.98 866.31 18.96 868.62 21 871 C22.3810532 873.03819882 23.72392495 875.10282927 25.02597308 877.19238257 C40.50789114 901.21809987 61.88627817 926.95187383 90.84304611 933.80941675 C107.61978219 937.16301553 124.70681044 937.89253809 141.76641846 938.269104 C142.4817803 938.28524132 143.19714214 938.30137863 143.93418161 938.31800495 C162.54857104 938.71985745 181.15002931 938.55722946 199.76379702 938.21462248 C212.47054026 937.98094196 225.17012668 937.89441428 237.87895203 937.93280792 C239.17218326 937.93659598 239.17218326 937.93659598 240.49154037 937.94046057 C244.88958325 937.95393745 249.28761607 937.96952562 253.6856492 937.98584438 C285.32537694 938.09883944 316.95804992 937.92350976 348.59592438 937.5883255 C379.88510165 937.25759443 411.17117584 937.04978581 442.46212006 937.00414276 C443.43771672 937.00266 444.41331339 937.00117724 445.4184736 936.99964954 C454.33057706 936.98613849 463.24268193 936.97402767 472.15478958 936.96363548 C494.29959902 936.93773889 516.4443462 936.89243433 538.58909225 936.83361435 C539.59699181 936.83095101 540.60489137 936.82828766 541.64333333 936.82554361 C590.54946278 936.69454737 639.4536155 936.33837714 688.35839844 935.96582031 C755.31841582 935.45601824 822.27685732 935.08581954 889.23861649 934.90787136 C892.42003471 934.89941636 895.60145276 934.89089655 898.78287077 934.88236235 C916.72342856 934.8343096 934.66398916 934.78732955 952.60455323 934.7416831 C1028.26477964 934.54884587 1103.92467661 934.2518292 1179.58439539 933.91657595 C1183.50486352 933.89921198 1187.42533217 933.88197462 1191.34580137 933.86485524 C1238.40911759 933.65932628 1285.47200919 933.42508517 1332.53452602 933.07880285 C1336.00765142 933.05331193 1339.4807772 933.02787363 1342.9539032 933.00246429 C1343.80625893 932.99620567 1344.65861465 932.98994705 1345.53679934 932.98349877 C1359.05077293 932.88482427 1372.56475188 932.81209372 1386.07893625 932.74969123 C1399.35491715 932.68770784 1412.63043737 932.59661679 1425.90600066 932.4741045 C1433.69500985 932.40299204 1441.4834412 932.35327985 1449.27275758 932.33497054 C1455.04517879 932.31893337 1460.81658517 932.26155206 1466.58852758 932.18759941 C1468.91625992 932.16419828 1471.24417381 932.15425177 1473.57201894 932.15900169 C1476.72353776 932.16347166 1479.87074027 932.11927774 1483.02166677 932.06262803 C1483.92537327 932.07561094 1484.82907978 932.08859385 1485.76017133 932.10197018 C1491.11245675 931.94234004 1493.73704274 930.8234321 1497.62364583 927.05858575 C1500.29368211 924.43053317 1500.29368211 924.43053317 1501 921 C1501.66 921 1502.32 921 1503 921 C1504.42621549 919.59198847 1504.42621549 919.59198847 1505.92602539 917.70288086 C1510.23568643 912.63913846 1514.91207432 907.97397397 1519.62951469 903.29532051 C1521.21615348 901.72161186 1522.7995005 900.14465405 1524.38209534 898.56687927 C1527.73106528 895.22923506 1531.08400527 891.89559707 1534.4375 888.5625 C1538.35009119 884.67351796 1542.26103436 880.78290684 1546.16783333 876.88810539 C1547.7302623 875.33217189 1549.2956614 873.77926872 1550.8611908 872.22645569 C1551.80921769 871.28205758 1552.75710656 870.3375209 1553.70483398 869.39282227 C1554.53643539 868.56645767 1555.3680368 867.74009308 1556.22483826 866.88868713 C1558.1141447 865.31055146 1558.1141447 865.31055146 1558 864 C1048.81 864 539.62 864 15 864 Z " fill="#040404" transform="translate(15,9)"/>
<path d="M0 0 C45.61775714 -0.0054979 91.2355143 -0.01076988 136.85327148 -0.01586914 C138.19218584 -0.01601884 138.19218584 -0.01601884 139.55814898 -0.01617156 C235.17199034 -0.02685546 330.7858317 -0.03607946 426.39967346 -0.04234314 C428.52268419 -0.04248259 430.64569491 -0.04262204 432.76870564 -0.04276149 C477.32788278 -0.04568396 521.88705994 -0.0484007 566.44623711 -0.05087968 C588.82864068 -0.05212511 611.21104425 -0.05341008 633.59344782 -0.05473244 C636.96982154 -0.05493169 640.34619526 -0.05512981 643.72256898 -0.05532788 C695.73517149 -0.05838911 747.74777376 -0.06230026 799.76037598 -0.06866455 C801.43879811 -0.0688699 801.43879811 -0.0688699 803.15112777 -0.0690794 C821.19273562 -0.07129186 839.23434346 -0.07357543 857.2759513 -0.07586844 C909.21956399 -0.08246915 961.16317651 -0.08854707 1013.10678959 -0.09113979 C1014.17419313 -0.09119333 1015.24159667 -0.09124686 1016.34134577 -0.09130202 C1039.76926595 -0.09246758 1063.19718613 -0.09336253 1086.62510633 -0.09400098 C1096.05065441 -0.09426262 1105.47620249 -0.09456324 1114.90175056 -0.09487724 C1115.93335782 -0.09491067 1116.96496508 -0.0949441 1118.02783316 -0.09497854 C1151.30710173 -0.0960763 1184.58636898 -0.10035183 1217.86563701 -0.10628221 C1251.36880485 -0.11223802 1284.8719714 -0.11510172 1318.37513978 -0.11362399 C1322.99753988 -0.11342089 1327.61993998 -0.11325351 1332.24234009 -0.11310768 C1333.1485181 -0.1130778 1334.05469612 -0.11304792 1334.98833408 -0.11301713 C1349.37782484 -0.11263544 1363.76731287 -0.11563005 1378.15680288 -0.12000986 C1392.28190895 -0.12424059 1406.40701145 -0.12495066 1420.53211785 -0.12183181 C1428.82903054 -0.12010822 1437.12593199 -0.12116923 1445.42284338 -0.126217 C1451.55857169 -0.12964955 1457.69428666 -0.12795154 1463.83001524 -0.12413998 C1466.31455147 -0.12341858 1468.79908887 -0.12441745 1471.28362362 -0.12723524 C1474.62759175 -0.1307909 1477.97149977 -0.1283212 1481.31546587 -0.1241985 C1482.78612251 -0.12796181 1482.78612251 -0.12796181 1484.2864894 -0.13180115 C1485.60640411 -0.12827181 1485.60640411 -0.12827181 1486.95298376 -0.12467116 C1487.71639025 -0.12473517 1488.47979673 -0.12479918 1489.26633675 -0.12486512 C1491 0 1491 0 1492 1 C1492.09846669 2.7050562 1492.1259879 4.41423235 1492.12649983 6.12212932 C1492.12925958 7.24167336 1492.13201932 8.36121739 1492.13486269 9.514687 C1492.13280737 10.76259189 1492.13075205 12.01049678 1492.12863445 13.29621696 C1492.13126401 15.27199676 1492.13126401 15.27199676 1492.13394669 17.2876913 C1492.13870891 20.97721649 1492.1371647 24.66671722 1492.13466892 28.35624368 C1492.13304481 32.35752861 1492.13716914 36.3588081 1492.14057809 40.36009133 C1492.14574807 47.38394664 1492.14714654 54.40779505 1492.14612198 61.43165207 C1492.14460214 71.87614838 1492.14874745 82.32063701 1492.1539966 92.76513183 C1492.16368762 112.50082695 1492.1664815 132.23651949 1492.16705366 151.97221671 C1492.16751249 167.20815393 1492.16956712 182.44409012 1492.17275429 197.68002701 C1492.17365178 202.05927884 1492.17454159 206.43853068 1492.17542917 210.81778252 C1492.17565021 211.90635291 1492.17587126 212.99492329 1492.17609901 214.11648066 C1492.18225664 244.75258997 1492.18619922 275.38869893 1492.18575573 306.02480888 C1492.18574015 307.18079821 1492.18572457 308.33678755 1492.18570852 309.52780686 C1492.18562541 315.38738058 1492.18552637 321.2469543 1492.18542381 327.10652803 C1492.1853939 328.85225354 1492.1853939 328.85225354 1492.18536337 330.63324623 C1492.18532294 332.98676957 1492.18528114 335.34029291 1492.18523798 337.69381625 C1492.18462505 374.32143485 1492.19213369 410.9490442 1492.20581055 447.57666016 C1492.22115541 488.68867439 1492.22977773 529.80068254 1492.22884732 570.91269982 C1492.22877269 575.29258037 1492.22872399 579.67246091 1492.22869301 584.05234146 C1492.22868135 585.13085007 1492.2286697 586.20935867 1492.22865769 587.32054936 C1492.22862686 604.71243409 1492.23502566 622.10431083 1492.24362527 639.49619319 C1492.25208275 656.96128115 1492.25310672 674.42635735 1492.24651595 691.89144622 C1492.24280751 702.27990016 1492.24469101 712.66831848 1492.25445829 723.05676869 C1492.26042451 729.98521422 1492.25920057 736.91363374 1492.25198779 743.84207805 C1492.24807764 747.79683196 1492.24741202 751.75151656 1492.25544515 755.70626579 C1492.26267798 759.29825159 1492.26084246 762.89010978 1492.25152128 766.48208972 C1492.24896588 768.3945432 1492.25630155 770.30700192 1492.26394406 772.21944183 C1492.25681784 773.90626844 1492.25681784 773.90626844 1492.24954766 775.62717235 C1492.24963588 776.59979976 1492.2497241 777.57242718 1492.249815 778.57452815 C1492 781 1492 781 1490 784 C1488.14401756 784.37517725 1488.14401756 784.37517725 1485.8345193 784.3754315 C1484.95361165 784.382807 1484.07270401 784.39018251 1483.16510219 784.39778151 C1482.18872808 784.39060928 1481.21235397 784.38343706 1480.20639277 784.37604749 C1479.17008277 784.38025444 1478.13377278 784.38446139 1477.06605945 784.38879583 C1473.54565151 784.39934911 1470.02562912 784.38826807 1466.50522614 784.37752342 C1463.96411625 784.38064891 1461.42300769 784.3850897 1458.88190216 784.39073652 C1453.3148471 784.40004101 1447.74791153 784.39989772 1442.18085688 784.39168589 C1433.8467875 784.37944779 1425.51278996 784.38441686 1417.17871903 784.39283381 C1402.97797531 784.40666451 1388.77726375 784.40616892 1374.57651711 784.39799118 C1360.17721211 784.38974949 1345.77792831 784.38798666 1331.37862206 784.39420319 C1330.01653455 784.39478446 1330.01653455 784.39478446 1328.62693013 784.39537748 C1324.92880565 784.39697722 1321.23068119 784.39862333 1317.53255676 784.40032831 C1283.05268089 784.41621375 1248.57281923 784.41726474 1214.09294128 784.40888596 C1213.07031825 784.40863757 1212.04769521 784.40838918 1210.9940836 784.40813327 C1209.45771188 784.40776009 1209.45771188 784.40776009 1207.89030235 784.40737936 C1176.72323797 784.39981875 1145.55617948 784.39785148 1114.38911438 784.4014473 C1112.30442486 784.40167973 1110.21973534 784.4019112 1108.13504582 784.40214171 C1099.75816638 784.40307306 1091.38128695 784.40402905 1083.00440752 784.405021 C1059.5855622 784.40777242 1036.16671686 784.40948393 1012.7478714 784.41037941 C1011.68131062 784.41042035 1010.61474985 784.41046128 1009.51586905 784.41050346 C975.51554012 784.41173183 941.51521324 784.40834784 907.51488495 784.40183067 C906.41163469 784.40161993 905.30838442 784.40140918 904.17170234 784.40119205 C886.25407908 784.39775694 868.33645588 784.39409867 850.41883267 784.39042152 C779.34936585 784.3758518 708.27991597 784.37652803 637.21044922 784.39111328 C619.30200451 784.39477666 601.3935598 784.39840973 583.48511505 784.40183067 C581.83122594 784.40214769 581.83122594 784.40214769 580.14392493 784.40247111 C546.17999255 784.40893678 512.21606158 784.41168303 478.2521286 784.41037941 C476.65345275 784.41031828 476.65345275 784.41031828 475.02248042 784.41025592 C451.62993231 784.4093186 428.23738435 784.40741793 404.84483639 784.4046479 C396.47531255 784.40366042 388.10578871 784.40272118 379.73626486 784.40179577 C377.65402337 784.4015636 375.57178188 784.40132741 373.48954039 784.40108718 C342.32832991 784.39750201 311.16712606 784.40056424 280.0059164 784.40813327 C278.47198185 784.40850585 278.47198185 784.40850585 276.90705872 784.40888596 C275.37593675 784.40925803 275.37593675 784.40925803 273.81388302 784.40963761 C239.43630125 784.41790018 205.05873655 784.41489312 170.68115723 784.39904372 C166.99456415 784.39738656 163.30797106 784.39577646 159.62137794 784.39420319 C158.26419031 784.39361726 158.26419031 784.39361726 156.87958475 784.39301949 C142.51494274 784.38708718 128.15032186 784.39123808 113.78568175 784.3995102 C99.68334259 784.40741875 85.58103931 784.40471052 71.47870473 784.39046794 C63.19629076 784.38242361 54.91397483 784.38269555 46.63156541 784.39491273 C40.50478775 784.40304512 34.37813568 784.39575875 28.25136328 784.38214391 C25.77178679 784.37909411 23.29219794 784.38119381 20.81263112 784.38876172 C17.4727655 784.39824098 14.13344647 784.38960573 10.79360723 784.37604749 C9.81723312 784.38321972 8.84085901 784.39039194 7.83489781 784.39778151 C6.95399017 784.39040601 6.07308252 784.3830305 5.1654807 784.3754315 C4.40334628 784.3753476 3.64121185 784.3752637 2.85598244 784.37517725 C1 784 1 784 -1 781 C-1.249815 778.5776315 -1.249815 778.5776315 -1.24954766 775.63473505 C-1.25667388 773.9504429 -1.25667388 773.9504429 -1.26394406 772.23212466 C-1.25897588 770.99079229 -1.2540077 769.74945993 -1.24888897 768.47051144 C-1.25149625 767.152406 -1.25410354 765.83430056 -1.25678983 764.47625253 C-1.26378782 760.79345172 -1.2582258 757.11075774 -1.25073375 753.42796178 C-1.24478541 749.43053394 -1.25038684 745.43312015 -1.25455457 741.43569237 C-1.26025391 734.42173511 -1.25847368 727.40781016 -1.2518692 720.39385414 C-1.24207536 709.96417169 -1.24367779 699.53451303 -1.2476195 689.10482785 C-1.25390399 671.56198574 -1.2507124 654.01915705 -1.24202538 636.47631645 C-1.23342186 619.09869703 -1.22850496 601.72108364 -1.22869301 584.34346199 C-1.22870065 583.26399432 -1.2287083 582.18452664 -1.22871618 581.07234783 C-1.22875708 576.6908523 -1.22882269 572.30935678 -1.22892199 567.92786125 C-1.22982878 526.79639249 -1.21987239 485.66493292 -1.20449232 444.53346734 C-1.19086674 407.95924056 -1.18463105 371.38502031 -1.18530273 334.81079102 C-1.18534315 332.46235609 -1.18538351 330.11392116 -1.18542381 327.76548623 C-1.18544416 326.60448619 -1.18546452 325.44348615 -1.18548548 324.24730429 C-1.18558627 318.40346581 -1.18567686 312.55962733 -1.18575573 306.71578884 C-1.18577244 305.56298768 -1.18578916 304.41018653 -1.18580638 303.222452 C-1.18617124 272.69591352 -1.18163626 242.16937586 -1.17542917 211.64283806 C-1.17520889 210.55748395 -1.17498862 209.47212984 -1.17476168 208.35388621 C-1.1738734 203.9890539 -1.17298502 199.62422159 -1.17207072 195.25938928 C-1.1689064 180.04965825 -1.1674009 164.83992786 -1.16695923 149.63019653 C-1.1663631 130.03419371 -1.16238807 110.4381963 -1.15252777 90.8421958 C-1.14739885 80.46908472 -1.14500802 70.09598157 -1.14652396 59.72286928 C-1.14725526 52.80599656 -1.14437821 45.88913159 -1.13848015 38.97226136 C-1.13521243 35.02334849 -1.13356304 31.07445233 -1.13624074 27.12553864 C-1.13907469 22.88489248 -1.1342806 18.64429074 -1.12863445 14.40364742 C-1.13068977 13.15997389 -1.13274509 11.91630037 -1.13486269 10.63493976 C-1.13210295 9.51458185 -1.1293432 8.39422394 -1.12649983 7.23991579 C-1.12620833 6.26882772 -1.12591683 5.29773965 -1.1256165 4.29722467 C-1 2 -1 2 0 0 Z M6 6 C6 260.43 6 514.86 6 777 C494.07 777 982.14 777 1485 777 C1485.67347265 772.95916412 1486.12503895 769.76275988 1486.12534916 765.78068036 C1486.12785268 764.76694205 1486.1303562 763.75320375 1486.13293558 762.70874611 C1486.13059442 761.60492492 1486.12825325 760.50110374 1486.12584114 759.36383343 C1486.12729458 758.17861879 1486.12874802 756.99340416 1486.13024551 755.77227393 C1486.13327068 752.47580295 1486.131807 749.17938883 1486.12846755 745.88292178 C1486.12593369 742.29823767 1486.12918976 738.71355808 1486.13171089 735.1288746 C1486.1353266 728.84261228 1486.13521051 722.55635854 1486.13266373 716.27009583 C1486.1288859 706.91958091 1486.1308129 697.56907326 1486.13387203 688.2185584 C1486.13914592 671.50540403 1486.13867739 654.79225346 1486.13579312 638.07909872 C1486.1332762 623.42118923 1486.13262144 608.76328114 1486.13381577 594.10537148 C1486.13389215 593.1325225 1486.13396854 592.15967353 1486.13404724 591.15734429 C1486.13435861 587.20753407 1486.13467701 583.25772386 1486.135007 579.30791365 C1486.13806943 542.20822297 1486.13528933 505.10853472 1486.1299101 468.00884441 C1486.12518321 435.15945942 1486.12557265 402.31007831 1486.13037109 369.46069336 C1486.13575134 332.50524645 1486.13783323 295.5498017 1486.13475883 258.59435445 C1486.13443817 254.63598049 1486.13412533 250.67760652 1486.13381577 246.71923256 C1486.13373669 245.74468413 1486.13365761 244.77013571 1486.13357614 243.76605551 C1486.13244727 229.16468142 1486.13375312 214.56330891 1486.13629532 199.96193504 C1486.13918376 183.2893841 1486.13837969 166.61683755 1486.13301457 149.94428714 C1486.13012335 140.65806844 1486.1298192 131.37185931 1486.13366075 122.0856409 C1486.13596091 115.82316667 1486.1344079 109.56069984 1486.13015598 103.29822669 C1486.12785382 99.76823546 1486.12739163 96.23827727 1486.13056196 92.70828476 C1486.15446752 63.79374436 1485.50735262 34.91909958 1485 6 C996.93 6 508.86 6 6 6 Z " fill="#050505" transform="translate(61,44)"/>
<path d="M0 0 C2.6520665 0.00254106 5.30390871 0.00150466 7.95594788 -0.00398254 C13.64795514 -0.00868198 19.3390277 0.01934411 25.03079987 0.070158 C33.25978506 0.14357497 41.48832231 0.16676849 49.71759948 0.17804993 C63.07159149 0.19770522 76.42508627 0.25748326 89.77880859 0.34277344 C102.74395271 0.42549521 115.70896136 0.48914648 128.67431641 0.52734375 C129.47466553 0.52970826 130.27501466 0.53207277 131.0996168 0.53450894 C135.1150835 0.54625502 139.13055116 0.55762821 143.14601946 0.56881607 C176.41248681 0.66198443 209.67834462 0.82038585 242.94433594 1.02172852 C241.998166 2.13400434 241.05078455 3.24524965 240.10290241 4.3560667 C239.57546131 4.97500323 239.04802022 5.59393976 238.50459605 6.23163193 C236.39236449 8.65500895 234.15270047 10.92529541 231.87280273 13.19091797 C231.17164085 13.88988945 231.17164085 13.88988945 230.45631409 14.60298157 C229.45570769 15.59982358 228.45394953 16.59551066 227.45111656 17.59011269 C225.86429694 19.16402961 224.28074474 20.74117144 222.69795227 22.31913757 C219.34540204 25.66034247 215.98890037 28.9975601 212.63183594 32.33422852 C208.72217873 36.22026745 204.81416723 40.10793277 200.91031837 43.99980736 C199.34960517 45.55403635 197.78591493 47.10522749 196.22209167 48.65632629 C195.27087996 49.60390758 194.31980719 50.55162836 193.36889648 51.49951172 C192.53649948 52.32667191 191.70410248 53.15383209 190.84648132 54.00605774 C188.8951299 55.87962649 188.8951299 55.87962649 187.94433594 58.02172852 C187.28433594 58.02172852 186.62433594 58.02172852 185.94433594 58.02172852 C185.63496094 58.82610352 185.63496094 58.82610352 185.31933594 59.64672852 C183.31864543 63.10246667 181.30240808 65.85440831 177.94433594 68.02172852 C173.9852818 68.90033896 170.10287382 68.80595857 166.06143188 68.74325562 C164.85574094 68.74838216 163.65005 68.75350871 162.40782297 68.75879061 C159.06852557 68.76695739 155.73134436 68.74824278 152.39230323 68.71812224 C148.78910403 68.69218585 145.18596894 68.70098148 141.58270264 68.70553589 C135.34242936 68.70868043 129.1025328 68.68987256 122.86235428 68.65610886 C113.84019639 68.60732451 104.81822046 68.59171797 95.79594497 68.58418091 C81.15764263 68.57105254 66.51954102 68.53113224 51.88134766 68.47436523 C37.66260787 68.41928224 23.44392262 68.37681605 9.22509766 68.35131836 C8.3484973 68.34974202 7.47189694 68.34816568 6.56873293 68.34654157 C2.17104013 68.33871128 -2.22665305 68.33112905 -6.62434649 68.32367015 C-43.10159407 68.26148043 -79.57861343 68.15581083 -116.05566406 68.02172852 C-113.21975579 65.16437591 -110.4404265 62.40237632 -107.26269531 59.92797852 C-106.55894775 59.37899902 -105.8552002 58.83001953 -105.13012695 58.2644043 C-104.3836792 57.68932129 -103.63723145 57.11423828 -102.86816406 56.52172852 C-102.08368896 55.91441895 -101.29921387 55.30710937 -100.4909668 54.68139648 C-92.78994648 48.7547023 -84.92298169 43.0685826 -77.01367188 37.42456055 C-74.32495011 35.49820204 -71.65958175 33.54133453 -68.99316406 31.58422852 C-66.01188757 29.41234836 -63.01118901 27.30008175 -59.93066406 25.27172852 C-55.47449846 22.3356194 -51.10620284 19.28119349 -46.74316406 16.20922852 C-46.06817871 15.73582031 -45.39319336 15.26241211 -44.69775391 14.7746582 C-44.01535645 14.29287109 -43.33295898 13.81108398 -42.62988281 13.31469727 C-41.92854595 12.836986 -41.22720909 12.35927473 -40.5046196 11.86708736 C-37.99367562 10.07824771 -37.99367562 10.07824771 -35.89998245 7.76731968 C-25.73983068 -1.92910039 -13.24921198 -0.17771503 0 0 Z " fill="#726D6C" transform="translate(1330.0556640625,871.978271484375)"/>
<path d="M0 0 C31.06645838 -0.22853357 62.1326928 -0.40530548 93.19979322 -0.51065329 C96.8744078 -0.52315912 100.54902071 -0.53610247 104.22363281 -0.54931641 C105.32087421 -0.55325106 105.32087421 -0.55325106 106.44028211 -0.55726521 C118.25701023 -0.6006808 130.07324775 -0.67947132 141.88968563 -0.77152796 C154.03058549 -0.86531765 166.17122989 -0.92064523 178.31247711 -0.94088495 C185.12548797 -0.95332952 191.93747949 -0.98304775 198.75012207 -1.05730057 C205.17233223 -1.12554875 211.59298362 -1.14604142 218.015522 -1.13107681 C220.36322142 -1.13381146 222.71097692 -1.1534834 225.05836105 -1.19205475 C240.30347551 -1.43011463 249.98438289 0.43956274 262 10 C263.67849184 11.1895237 265.36076051 12.37378873 267.05078125 13.546875 C268.47586776 14.60855147 269.89649561 15.67624022 271.3125 16.75 C272.9230551 17.95328829 274.53373587 19.15640839 276.14453125 20.359375 C277.34843506 21.26333008 277.34843506 21.26333008 278.57666016 22.18554688 C282.53322228 25.1479859 286.5177109 28.07229298 290.5 31 C292.08347247 32.16647782 293.66680571 33.33314465 295.25 34.5 C296.425625 35.36625 296.425625 35.36625 297.625 36.25 C300 38 302.375 39.75 304.75 41.5 C305.53528076 42.07854736 306.32056152 42.65709473 307.12963867 43.25317383 C308.69782135 44.40883838 310.26569739 45.56491915 311.83325195 46.72143555 C316.02084524 49.81008565 320.21498898 52.88934343 324.41796875 55.95703125 C325.2996875 56.60220703 326.18140625 57.24738281 327.08984375 57.91210938 C328.79495352 59.15953178 330.50192798 60.40441012 332.2109375 61.64648438 C332.97019531 62.20271484 333.72945313 62.75894531 334.51171875 63.33203125 C335.18678467 63.82421143 335.86185059 64.3163916 336.55737305 64.82348633 C337.03343994 65.21173584 337.50950684 65.59998535 338 66 C338 66.33 338 66.66 338 67 C304.47835997 68.52612378 270.96563865 69.68103159 237.41673423 70.37031174 C233.41595031 70.4528133 229.41523393 70.53824286 225.41455078 70.62548828 C224.61841605 70.64280077 223.82228132 70.66011326 223.0020213 70.67795037 C211.84020558 70.92673387 200.69393385 71.33285143 189.54224882 71.86646673 C170.34568655 72.78485303 151.16524864 73.39875916 131.9453125 73.4453125 C131.20213811 73.447792 130.45896372 73.4502715 129.6932689 73.45282614 C92.32692382 73.53440927 60.88685246 70.77170617 32.83126831 43.14376831 C0 9.25678104 0 9.25678104 0 0 Z " fill="#726D6C" transform="translate(30,873)"/>
<path d="M0 0 C0.33 0 0.66 0 1 0 C1.00040018 0.61416432 1.00080037 1.22832864 1.00121268 1.861104 C1.04486825 68.69693523 1.09221642 135.53276344 1.15898132 202.36857605 C1.15997689 203.36625606 1.16097246 204.36393607 1.16199819 205.3918488 C1.18365453 227.07185037 1.20597706 248.7518512 1.22898628 270.43185138 C1.24026523 281.06304727 1.25139689 291.69424332 1.26245117 302.32543945 C1.26355374 303.3833958 1.2646563 304.44135215 1.26579228 305.53136779 C1.30148856 339.84967589 1.32745125 374.167983 1.34838969 408.48630301 C1.36995006 443.74002075 1.40128358 478.99371653 1.44499113 514.24741411 C1.45115377 519.22177843 1.45720418 524.19614289 1.46318626 529.17050743 C1.46436715 530.1495757 1.46554803 531.12864397 1.46676469 532.13738098 C1.48551794 547.92535532 1.49390667 563.71331913 1.49846124 579.50130324 C1.50325496 595.35679217 1.51886835 611.21224076 1.54566566 627.06770805 C1.56127214 636.49857686 1.5684434 645.92936617 1.56376929 655.36024719 C1.56146707 661.65044661 1.56992272 667.94057059 1.58732411 674.23074625 C1.59694246 677.82099548 1.60169564 681.41107807 1.59339563 685.00133441 C1.58458593 688.85891122 1.59866794 692.71620203 1.61523914 696.57375813 C1.6058241 698.26575142 1.6058241 698.26575142 1.59621885 699.9919264 C1.60439415 701.01352766 1.61256945 702.03512892 1.62099248 703.08768779 C1.62177238 703.9706941 1.62255229 704.85370042 1.62335582 705.7634645 C2.08044772 708.47770336 2.86210152 709.32381836 5 711 C7.29105465 712.14552732 8.55705716 712.12569056 11.10355704 712.12703451 C11.97061026 712.12991543 12.83766348 712.13279635 13.73099105 712.13576457 C15.17227636 712.13288726 15.17227636 712.13288726 16.64267856 712.12995183 C18.17262677 712.1328007 18.17262677 712.1328007 19.73348302 712.13570711 C23.19806585 712.14091108 26.66260868 712.13890819 30.1271944 712.13701439 C32.6281701 712.13926845 35.12914544 712.14195916 37.63012025 712.14505023 C43.10913185 712.15079488 48.58813143 712.15338599 54.0671458 712.15327708 C62.26949141 712.15312689 70.47182632 712.15866651 78.67416887 712.16532399 C92.65060302 712.17648857 106.62703571 712.18280444 120.60347366 712.18649673 C134.77540575 712.19024749 148.94733452 712.19611592 163.1192646 712.20457458 C164.45985698 712.20537123 164.45985698 712.20537123 165.82753204 712.20618396 C169.46730396 712.2083506 173.10707587 712.21052721 176.74684777 712.2127179 C220.9064223 712.23924189 265.0659986 712.25478831 309.22557886 712.26788078 C323.54175288 712.27212886 337.85792678 712.27669645 352.17410064 712.2814641 C427.1307983 712.3063691 502.08749634 712.32843725 577.04419725 712.34065448 C582.53264122 712.34155186 588.02108519 712.34246657 593.50952915 712.34338222 C594.59828359 712.34356383 595.68703803 712.34374544 596.80878503 712.34393256 C607.83975823 712.34577528 618.87073143 712.34764113 629.90170463 712.34953065 C632.11348055 712.3499087 634.32525646 712.35028499 636.53703238 712.35065953 C707.59353116 712.3626934 778.65000547 712.3923882 849.70649272 712.43407464 C900.75265185 712.46401275 951.79880597 712.49164679 1002.84497356 712.50135231 C1004.41870879 712.50165314 1004.41870879 712.50165314 1006.02423665 712.50196006 C1029.05267523 712.50631006 1052.08111378 712.50925617 1075.1095527 712.51088657 C1084.37459142 712.51156296 1093.63963011 712.51241847 1102.90466881 712.51332474 C1103.91869848 712.51341883 1104.93272815 712.51351293 1105.97748599 712.51360988 C1138.67799513 712.51672547 1171.37847319 712.53525444 1204.07897113 712.56167471 C1237.00359697 712.58818849 1269.92818808 712.59898184 1302.85282392 712.58793872 C1307.39739331 712.58641707 1311.94196274 712.58507168 1316.48653221 712.58383179 C1317.82288709 712.58345719 1317.82288709 712.58345719 1319.18623904 712.58307503 C1333.32190195 712.57957314 1347.45749732 712.59292145 1361.59314399 712.61320952 C1375.47577553 712.63278847 1389.35831441 712.63468893 1403.24095017 712.61748323 C1411.39103947 712.60792132 1419.54084446 712.61220067 1427.69090472 712.63650558 C1433.72519011 712.65299029 1439.75913486 712.64368743 1445.79342298 712.62394121 C1448.23156475 712.62004955 1450.66973742 712.6246957 1453.10784305 712.63852822 C1456.39950895 712.65600619 1459.689662 712.64308078 1462.98127395 712.62214315 C1463.9349586 712.6345694 1464.88864325 712.64699565 1465.87122744 712.65979846 C1470.38524755 712.59852209 1472.35064327 712.50876385 1476.00117038 709.64861605 C1477.39082761 707.80720425 1478.72034324 705.91948514 1480 704 C1479.67 707.3 1479.34 710.6 1479 714 C990.93 714 502.86 714 0 714 C0 478.38 0 242.76 0 0 Z " fill="#AF905B" transform="translate(67,107)"/>
<path d="M0 0 C0.33 0 0.66 0 1 0 C1.00040018 0.61416432 1.00080037 1.22832864 1.00121268 1.861104 C1.04486825 68.69693523 1.09221642 135.53276344 1.15898132 202.36857605 C1.15997689 203.36625606 1.16097246 204.36393607 1.16199819 205.3918488 C1.18365453 227.07185037 1.20597706 248.7518512 1.22898628 270.43185138 C1.24026523 281.06304727 1.25139689 291.69424332 1.26245117 302.32543945 C1.26355374 303.3833958 1.2646563 304.44135215 1.26579228 305.53136779 C1.30148856 339.84967589 1.32745125 374.167983 1.34838969 408.48630301 C1.36995006 443.74002075 1.40128358 478.99371653 1.44499113 514.24741411 C1.45115377 519.22177843 1.45720418 524.19614289 1.46318626 529.17050743 C1.46436715 530.1495757 1.46554803 531.12864397 1.46676469 532.13738098 C1.48551794 547.92535532 1.49390667 563.71331913 1.49846124 579.50130324 C1.50325496 595.35679217 1.51886835 611.21224076 1.54566566 627.06770805 C1.56127214 636.49857686 1.5684434 645.92936617 1.56376929 655.36024719 C1.56146707 661.65044661 1.56992272 667.94057059 1.58732411 674.23074625 C1.59694246 677.82099548 1.60169564 681.41107807 1.59339563 685.00133441 C1.58458593 688.85891122 1.59866794 692.71620203 1.61523914 696.57375813 C1.6058241 698.26575142 1.6058241 698.26575142 1.59621885 699.9919264 C1.60439415 701.01352766 1.61256945 702.03512892 1.62099248 703.08768779 C1.62177238 703.9706941 1.62255229 704.85370042 1.62335582 705.7634645 C2.08044772 708.47770336 2.86210152 709.32381836 5 711 C7.76365969 712.38182985 9.9923792 712.13142029 13.08699226 712.1386652 C15.04715033 712.14687687 15.04715033 712.14687687 17.04690754 712.15525442 C18.51093675 712.15633077 19.97496603 712.15731544 21.43899536 712.15821838 C22.98339812 712.16278116 24.52779965 712.16778076 26.0721997 712.17318195 C30.3318669 712.18680488 34.59152608 712.19419339 38.8512094 712.20060861 C43.43882043 712.20859437 48.02641468 712.22229839 52.61401367 712.23532104 C60.56758221 712.25710976 68.52115242 712.27524546 76.47473526 712.29092598 C87.97439429 712.31360284 99.47403477 712.34174867 110.9736781 712.37124526 C129.62941654 712.41894799 148.28516256 712.46220489 166.94091797 712.50268555 C185.06722605 712.54202684 203.19352739 712.58344978 221.31982422 712.62768555 C222.43643512 712.63040982 223.55304602 712.63313409 224.70349361 712.63594092 C230.30499507 712.64962017 235.90649644 712.66334049 241.50799775 712.67708123 C288.0053178 712.79108812 334.50265241 712.89788814 381 713 C381 713.33 381 713.66 381 714 C255.27 714 129.54 714 0 714 C0 478.38 0 242.76 0 0 Z " fill="#B59662" transform="translate(67,107)"/>
<path d="M0 0 C1.36948916 3.95630201 0.77791742 5.33249547 0 10 C-33.33 10 -66.66 10 -101 10 C-101 9.67 -101 9.34 -101 9 C-99.23140373 8.99786247 -99.23140373 8.99786247 -97.42707825 8.99568176 C-86.31775701 8.97901531 -75.20880224 8.93625228 -64.09967518 8.86790943 C-58.38825538 8.83361256 -52.67710383 8.80852521 -46.96557617 8.80444336 C-41.45401165 8.80016627 -35.94305255 8.77175195 -30.43167686 8.72656822 C-28.32857476 8.71357443 -26.22540027 8.70929217 -24.12226295 8.71384621 C-21.17695291 8.7187387 -18.23342155 8.69271923 -15.28833008 8.65942383 C-13.98281441 8.67236229 -13.98281441 8.67236229 -12.65092468 8.68556213 C-8.2899206 8.60286893 -6.52913174 8.41266278 -2.98197937 5.64628601 C-0.85830429 3.10091262 -0.85830429 3.10091262 0 0 Z " fill="#AE8F5B" transform="translate(1546,811)"/>
<path d="M0 0 C0.99 1.485 0.99 1.485 2 3 C4.57990831 5.79490067 5.98709188 6.94469917 9.89797974 7.15821838 C11.75663162 7.18153481 11.75663162 7.18153481 13.65283203 7.20532227 C14.33587402 7.21522186 15.01891602 7.22512146 15.72265625 7.23532104 C17.98433953 7.26695309 20.24604382 7.29170011 22.5078125 7.31640625 C24.07437695 7.33697431 25.64093583 7.35797075 27.20748901 7.37937927 C31.33383682 7.43461522 35.46023483 7.48401775 39.58666992 7.53222656 C43.79610674 7.58243048 48.0054705 7.63812233 52.21484375 7.69335938 C60.47650076 7.80095958 68.73821882 7.90240039 77 8 C77 8.33 77 8.66 77 9 C51.59 9 26.18 9 0 9 C0 6.03 0 3.06 0 0 Z " fill="#AD8E5B" transform="translate(67,812)"/>
<path d="M0 0 C0.99 1.485 0.99 1.485 2 3 C2.97850195 4.02104551 3.97980427 5.0206121 5 6 C6 7 7 8 8 9 C5.36 9 2.72 9 0 9 C0 6.03 0 3.06 0 0 Z " fill="#766D67" transform="translate(67,812)"/>
<path d="M0 0 C1.2380014 3.57644848 0.74926071 6.33694766 0 10 C-2.64 10 -5.28 10 -8 10 C-7.236875 9.46375 -6.47375 8.9275 -5.6875 8.375 C-2.77135526 5.79794186 -1.5294378 3.54185596 0 0 Z " fill="#736759" transform="translate(1546,811)"/>
</svg>
