<?xml version="1.0" encoding="UTF-8"?>
<svg version="1.1" xmlns="http://www.w3.org/2000/svg" width="320" height="320">
<path d="M0 0 C4.96194819 2.28249617 7.40642281 5.20676518 9.37109375 10.171875 C10.99286956 17.46482957 10.33510656 25.90966128 7.25 32.75 C3.82608696 37.69565217 3.82608696 37.69565217 0 39 C-4.68747902 39 -6.92800367 38.71466422 -10.8125 36.125 C-15.37669591 29.60472013 -16.73195942 22.18577927 -15.57421875 14.35546875 C-14.31758732 9.20071535 -12.27457914 5.34166226 -8.625 1.5 C-5.35572393 -0.36815776 -3.7148601 -0.60650777 0 0 Z " fill="#321914" transform="translate(54,111)"/>
<path d="M0 0 C2.9375 1 2.9375 1 5 2 C5 2.66 5 3.32 5 4 C5.66 4 6.32 4 7 4 C12.75949584 10.62029006 14.60132283 17.21587393 15.3125 25.75 C14.96379324 29.37655028 14.2663928 31.167009 12 34 C8.57823311 36.56632517 5.15359579 36.36435051 1 36 C-5.77984582 33.161925 -8.46324902 26.58231754 -11.17578125 20.16015625 C-13.38723026 14.36427329 -13.23920425 9.7197065 -11 4 C-7.95811932 -0.5064899 -5.23620362 -0.55117933 0 0 Z " fill="#260A09" transform="translate(267,124)"/>
<path d="M0 0 C2.62344202 2.78991865 2.99346897 3.95950762 3.625 7.875 C3.53940599 10.56869374 3.2421112 11.69978212 1.53515625 13.81640625 C-3.80981692 18.50597044 -8.22882266 19.22248491 -15.25 19.3125 C-16.35794922 19.35600586 -16.35794922 19.35600586 -17.48828125 19.40039062 C-23.14258017 19.46521063 -26.34263825 18.22114487 -31 15 C-33.42049032 12.12566775 -34 10.75818619 -34 7 C-32.69243777 3.07731331 -31.28175318 1.52968474 -28 -1 C-18.4028548 -5.57006914 -9.35388502 -4.89605613 0 0 Z " fill="#240707" transform="translate(268,228)"/>
<path d="M0 0 C6.78983973 18.22709404 6.78983973 18.22709404 5 23 C0.45441696 30.78515901 0.45441696 30.78515901 -4 32 C-9.85473771 32.95309684 -14.33702925 30.31070924 -19 27 C-21.9882449 22.51763266 -21.47040077 18.2552586 -21 13 C-19.47087564 6.46538261 -15.57851654 3.62558651 -10.125 0.1875 C-6.32505544 -1.25647893 -3.92185013 -0.86280703 0 0 Z " fill="#210504" transform="translate(127,98)"/>
<path d="M0 0 C5.97119203 5.5640653 7.08784072 11.41556666 7.375 19.4375 C7.24843231 26.77842592 5.57741297 31.21910705 0.625 36.5625 C-2 38 -2 38 -5.0625 38 C-8.4422704 36.84943986 -9.69743483 35.69409446 -12 33 C-15.74722267 24.53154733 -15.54216682 16.30639223 -12.75 7.625 C-10.33716884 1.86684255 -6.39814504 -1.33294688 0 0 Z " fill="#341B16" transform="translate(67,175)"/>
<path d="M0 0 C2.38784871 1.62373712 4.04278474 2.9713134 6 5 C6.78375 5.721875 7.5675 6.44375 8.375 7.1875 C10 9 10 9 10 11 C10.66 11 11.32 11 12 11 C14.30772287 15.17165289 15.37672117 17.86679511 14.5 22.625 C13.20424935 27.03205889 12.08239949 29.56626184 8 32 C3.24783715 32.68048723 -1.28236222 32.955898 -6 32 C-10.64124732 27.60097266 -11.92922381 22.13671734 -13 16 C-12.77458489 12.78783467 -12.41722833 10.83445667 -11 8 C-10.34 8 -9.68 8 -9 8 C-8.67 6.68 -8.34 5.36 -8 4 C-7.34 4 -6.68 4 -6 4 C-6 3.34 -6 2.68 -6 2 C-3.375 0.6875 -3.375 0.6875 0 0 Z " fill="#1F0302" transform="translate(107,228)"/>
<path d="M0 0 C6.40408779 3.52224829 9.87065758 11.02264272 12.375 17.625 C13.29514222 22.593768 13.62302082 27.13093754 12 32 C11.34 32 10.68 32 10 32 C10 32.66 10 33.32 10 34 C5.58937864 35.0257259 3.07369424 35.03684712 -1 33 C-1 32.34 -1 31.68 -1 31 C-1.66 31 -2.32 31 -3 31 C-3 30.34 -3 29.68 -3 29 C-3.66 29 -4.32 29 -5 29 C-6.18667036 26.6750948 -7.34879886 24.34240541 -8.5 22 C-8.83386719 21.35160156 -9.16773438 20.70320313 -9.51171875 20.03515625 C-11.90367462 15.10479824 -12.44730222 11.47799987 -12 6 C-10.6875 3.0625 -10.6875 3.0625 -9 1 C-5.66660588 -0.11113137 -3.49519344 -0.34951934 0 0 Z " fill="#321814" transform="translate(229,73)"/>
<path d="M0 0 C0 0.66 0 1.32 0 2 C1.0828125 2.2475 1.0828125 2.2475 2.1875 2.5 C6.35824566 4.72439769 8.38618242 7.57271284 10 12 C10.35223064 17.04394271 9.62315939 21.44210153 7.75 26.125 C5.46722582 28.57082948 4.32649731 28.74305676 1 29 C-2.41015625 27.9609375 -2.41015625 27.9609375 -6.0625 26.375 C-7.27035156 25.86710937 -8.47820312 25.35921875 -9.72265625 24.8359375 C-13.82374155 22.53854764 -16.28035241 20.10358526 -17.8125 15.625 C-18.10000779 11.59989094 -17.82109923 7.64219847 -16 4 C-10.8058967 0.68399055 -6.18602647 -2.11627221 0 0 Z " fill="#1F0302" transform="translate(171,49)"/>
<path d="M0 0 C2.53213394 4.4312344 2.23329708 8.15948718 1 13 C-3.39244924 24.01491117 -3.39244924 24.01491117 -7.19921875 26.34765625 C-7.79347656 26.56292969 -8.38773438 26.77820313 -9 27 C-9 27.66 -9 28.32 -9 29 C-12.64957865 31.33573034 -15.73910491 31.45652447 -20 31 C-23.45170074 28.81997848 -23.92959626 27.29670146 -24.875 23.3125 C-25.19634871 18.64860117 -24.98135253 14.28895187 -23 10 C-17.49056618 3.80360436 -8.25677403 -0.3813075 0 0 Z " fill="#321915" transform="translate(111,36)"/>
<path d="M0 0 C3.44312714 2.1244827 4.71617547 3.14852641 6 7 C6.40365351 12.01461855 6.63666656 16.52409115 4.625 21.1875 C4.08875 21.785625 3.5525 22.38375 3 23 C2.34 23 1.68 23 1 23 C0.690625 23.8971875 0.690625 23.8971875 0.375 24.8125 C-1.60193263 27.9576201 -3.52921351 28.75575579 -7 30 C-10.875 29.6875 -10.875 29.6875 -14 29 C-14 28.34 -14 27.68 -14 27 C-14.99 26.67 -15.98 26.34 -17 26 C-18.84929658 21.79623314 -19.13496836 17.79631333 -18.375 13.3125 C-14.85901397 4.84217003 -9.85388645 -2.01059097 0 0 Z " fill="#331A16" transform="translate(99,79)"/>
<path d="M0 0 C2.5625 2.375 2.5625 2.375 4 5 C4 8.28964951 3.29952702 9.62559122 1.25 12.1875 C-3.54204007 16.0477545 -8.32057506 16.38679513 -14.3125 16.375 C-15.06853516 16.37483887 -15.82457031 16.37467773 -16.60351562 16.37451172 C-22.34520853 16.25665069 -26.23037901 15.37848153 -31 12 C-32.56430248 8.87139505 -32.35627284 6.44397075 -32 3 C-24.21103081 -5.47623118 -9.57671309 -5.04953963 0 0 Z " fill="#230606" transform="translate(204,243)"/>
<path d="M0 0 C3.65896734 3.2634033 4.9914147 6.88140551 5.87890625 11.59375 C6.15210368 17.02244742 3.9263472 21.41197623 1.25 26 C-1.82910684 28.73698386 -3.91672206 29 -8 29 C-10.875 27.75 -10.875 27.75 -13 26 C-13.33 25.01 -13.66 24.02 -14 23 C-14.66 23 -15.32 23 -16 23 C-17.09600209 15.71580151 -17.75131546 9.37753697 -14.25 2.625 C-9.76698028 -2.60518967 -6.26207142 -2.61868441 0 0 Z " fill="#402722" transform="translate(81,224)"/>
<path d="M0 0 C5.78417085 2.42935176 7.84925606 6.54462187 10.140625 12.109375 C11.39733001 16.33647367 11.69697649 19.86897642 10 24 C7.01859812 26.84273203 5.04322931 27.82612845 1 28.5 C-2.80550001 27.86575 -5.02171264 26.41099453 -8 24 C-8 23.34 -8 22.68 -8 22 C-8.66 22 -9.32 22 -10 22 C-12.52388552 15.84000823 -13.37969081 11.55353137 -12 5 C-11.67 4.34 -11.34 3.68 -11 3 C-10.34 3 -9.68 3 -9 3 C-9 2.34 -9 1.68 -9 1 C-5.89046621 -0.5547669 -3.43733239 -0.28644437 0 0 Z " fill="#341B16" transform="translate(201,42)"/>
<path d="M0 0 C2.43318861 1.45684612 3.98806087 2.93776239 6 5 C6 5.66 6 6.32 6 7 C6.99 7.33 7.98 7.66 9 8 C11.26662635 11.22099534 11.49265419 14.14087551 11 18 C7.89952853 21.10047147 4.89774852 21.9183865 0.5625 22.3125 C-5.26973089 22.2797959 -10.6008365 20.01568771 -16 18 C-17.38065353 13.00840645 -17.13272883 10.62537814 -14.5625 6.0625 C-13.72606467 4.69730991 -12.87756515 3.3391219 -12 2 C-11.34 2 -10.68 2 -10 2 C-10 1.34 -10 0.68 -10 0 C-6.71646019 -1.64176991 -3.42025424 -0.94373682 0 0 Z " fill="#210404" transform="translate(155,215)"/>
<path d="M0 0 C1.83498047 -0.03867188 1.83498047 -0.03867188 3.70703125 -0.078125 C8.39625609 0.3639568 10.90703183 1.96953183 14.1875 5.25 C14.81636697 8.32782008 14.80428474 11.17139343 14.1875 14.25 C12.14193117 17.08590225 9.5238183 18.67092874 6.3125 20.0625 C-0.65274252 20.67708022 -6.03656192 20.64296699 -11.8125 16.25 C-13.66310782 13.3686739 -13.81418262 12.29711348 -13.6875 8.75 C-12.73815772 4.95263089 -11.83997709 3.63528498 -8.8125 1.25 C-5.88789571 -0.21230215 -3.25597176 0.04091273 0 0 Z " fill="#331A15" transform="translate(145.8125,252.75)"/>
<path d="M0 0 C3.95015106 1.28379909 3.95015106 1.28379909 5.5 3.8125 C6.28792865 10.34105163 4.82257678 15.17059202 1.5 20.8125 C-1.40982677 24.24460337 -4.37506567 26.95627955 -8.5 28.8125 C-11.5126381 28.96699426 -12.91445367 28.2982373 -15.21875 26.38671875 C-16.95021693 24.61196514 -18.28860453 22.9760255 -19.5 20.8125 C-19.26660349 15.32768199 -15.24117014 12.27849364 -11.46484375 8.70703125 C-9.24824847 6.56975747 -7.41235475 4.22065043 -5.5 1.8125 C-2.5 -0.1875 -2.5 -0.1875 0 0 Z " fill="#321814" transform="translate(70.5,60.1875)"/>
<path d="M0 0 C2.52740487 1.41345511 4.37544866 2.54386607 5.69140625 5.17578125 C5.92217548 10.71424279 5.92217548 10.71424279 4.69140625 13.17578125 C4.03140625 13.17578125 3.37140625 13.17578125 2.69140625 13.17578125 C2.69140625 13.83578125 2.69140625 14.49578125 2.69140625 15.17578125 C-1.11387766 16.93852306 -4.12464635 17.44712792 -8.30859375 17.42578125 C-9.82453125 17.43351562 -9.82453125 17.43351562 -11.37109375 17.44140625 C-14.37899135 17.16941551 -16.58166168 16.43899243 -19.30859375 15.17578125 C-19.30859375 14.51578125 -19.30859375 13.85578125 -19.30859375 13.17578125 C-19.96859375 13.17578125 -20.62859375 13.17578125 -21.30859375 13.17578125 C-22.7529023 10.28716416 -22.68547881 8.37930424 -22.30859375 5.17578125 C-16.76677627 -1.56426704 -8.2376312 -2.94101554 0 0 Z " fill="#351C17" transform="translate(229.30859375,182.82421875)"/>
<path d="M0 0 C2.75329021 1.79562405 4.52627461 3.05254922 6 6 C6.5571985 11.68342469 5.46460728 15.5265806 2 20 C-0.12046155 22.43013292 -2.17460501 24.41919445 -5 26 C-8.75 26.25 -8.75 26.25 -12 25 C-15.10054704 20.99929415 -15.4747766 17.08117715 -15.28515625 12.17578125 C-14.69391374 7.66451994 -12.82372672 4.86948931 -9.75 1.625 C-6.17317725 -0.48857708 -4.09525799 -0.58503686 0 0 Z " fill="#3A211C" transform="translate(143,46)"/>
<path d="M0 0 C2.5625 0.875 2.5625 0.875 4.25 2.75 C6.73473817 8.66604327 8.56745309 15.01458851 6.5625 21.3125 C4.77351556 25.16752398 2.41392729 27.0263149 -1.4375 28.875 C-4.125 29.375 -4.125 29.375 -6.4375 28.875 C-9.22490495 25.85294107 -10.23997725 22.88305683 -11.25 18.9375 C-11.52457031 17.91785156 -11.79914062 16.89820313 -12.08203125 15.84765625 C-12.58616715 11.63175057 -11.44817031 9.27016445 -9 5.890625 C-8.484375 5.30796875 -7.96875 4.7253125 -7.4375 4.125 C-6.6640625 3.23554688 -6.6640625 3.23554688 -5.875 2.328125 C-3.84484815 0.27590628 -2.9102176 -0.14924193 0 0 Z " fill="#341B16" transform="translate(40.4375,150.125)"/>
<path d="M0 0 C3.07932302 2.16384861 3.87534386 3.54589549 4.875 7.1875 C5.07292215 13.22412553 4.34657446 18.62460132 0.75 23.625 C-2 26 -2 26 -5.0625 26.125 C-9.15964842 24.55587933 -10.98093136 22.95582789 -13.015625 19.05078125 C-15.20569627 13.73336244 -15.06713406 10.2926705 -13.0546875 4.9453125 C-9.98326146 -0.7197622 -6.09510256 -1.61706803 0 0 Z " fill="#351C17" transform="translate(107,175)"/>
<path d="M0 0 C0 0.66 0 1.32 0 2 C0.61875 2.2475 1.2375 2.495 1.875 2.75 C4.35068687 4.20628639 4.95125002 5.37812506 6 8 C6.66 8 7.32 8 8 8 C10.51552547 14.06685555 10.08354547 18.34038839 7.625 24.375 C6 27 6 27 3 28 C0.48301368 26.92745123 -1.66805545 25.45196548 -4 24 C-4 23.34 -4 22.68 -4 22 C-4.66 22 -5.32 22 -6 22 C-9.00565631 16.20337712 -11.09490445 11.56942668 -10 5 C-7.2054949 1.28601258 -4.71598107 0 0 0 Z " fill="#240807" transform="translate(265,92)"/>
<path d="M0 0 C0.99 0.66 1.98 1.32 3 2 C3.44140625 4.2421875 3.44140625 4.2421875 3.5625 6.875 C3.74239018 10.52731583 4.36789733 12.76266055 6 16 C5.625 19.25 5.625 19.25 5 22 C6.32 22 7.64 22 9 22 C8.9278125 21.41734375 8.855625 20.8346875 8.78125 20.234375 C8.01528472 13.46834834 7.89477142 6.80478149 8 0 C11.26317172 1.38887061 11.92094843 1.85883648 13.75 5.125 C16.32279894 11.9810851 14.97149682 17.98975847 13.046875 24.80078125 C11.77796972 27.46642927 10.53178368 28.51601444 8 30 C4.88810534 30.24895157 2.80915474 30.40457737 0 29 C0 28.34 0 27.68 0 27 C-0.66 27 -1.32 27 -2 27 C-5.08977221 20.43732383 -5.40051926 12.19546856 -3.1015625 5.30859375 C-2 3.125 -2 3.125 0 0 Z " fill="#240707" transform="translate(46,116)"/>
<path d="M0 0 C3.69536049 2.26435529 6.43594568 4.91890943 8 9 C8.1953125 11.796875 8.1953125 11.796875 8.125 14.75 C8.10695312 15.73484375 8.08890625 16.7196875 8.0703125 17.734375 C8.04710937 18.48203125 8.02390625 19.2296875 8 20 C1.19414195 24.18024784 1.19414195 24.18024784 -3.3125 23.5 C-6.85141833 21.52478977 -8.52962222 19.52432586 -9.73046875 15.6328125 C-11.54110302 5.69753729 -11.54110302 5.69753729 -11 2 C-7.81340248 -1.95138093 -4.58780817 -1.26560225 0 0 Z " fill="#230706" transform="translate(199,102)"/>
<path d="M0 0 C5.25687702 4.11407767 5.25687702 4.11407767 6.875 6.25 C7.0625 8.75 7.0625 8.75 5.875 11.25 C0.77468139 15.4435953 -3.78873903 15.88629117 -10.3046875 15.625 C-14.28606428 15.09562026 -16.38489682 14.21227371 -19.125 11.25 C-19.90246127 8.47864144 -20.02782153 6.16535405 -20.125 3.25 C-13.5050933 -0.69648284 -7.46099763 -4.17815868 0 0 Z " fill="#220505" transform="translate(225.125,216.75)"/>
<path d="M0 0 C2.9375 1 2.9375 1 5 2 C5 2.66 5 3.32 5 4 C5.66 4 6.32 4 7 4 C12.75949584 10.62029006 14.60132283 17.21587393 15.3125 25.75 C14.96379324 29.37655028 14.2663928 31.167009 12 34 C8.57823311 36.56632517 5.15359579 36.36435051 1 36 C-5.77984582 33.161925 -8.46324902 26.58231754 -11.17578125 20.16015625 C-13.38723026 14.36427329 -13.23920425 9.7197065 -11 4 C-7.95811932 -0.5064899 -5.23620362 -0.55117933 0 0 Z M-8.4375 4.9375 C-10.81385311 9.5951521 -10.78390184 13.34679376 -9.33984375 18.234375 C-6.99431755 24.12357498 -3.38258782 28.48199514 1 33 C2.32 32.67 3.64 32.34 5 32 C3.69104885 25.06669647 3.69104885 25.06669647 -1 20 C-1.66 20 -2.32 20 -3 20 C-3.33 17.36 -3.66 14.72 -4 12 C-3.01 12 -2.02 12 -1 12 C-1.12375 12.721875 -1.2475 13.44375 -1.375 14.1875 C-1.27538362 17.30513796 -1.27538362 17.30513796 1.8125 19.4375 C2.35777344 19.84226563 2.90304687 20.24703125 3.46484375 20.6640625 C5.80037598 22.69651039 6.82221752 25.18640851 8 28 C9.32 28 10.64 28 12 28 C12.71764713 20.36104502 11.63655593 15.18614173 7 9 C4.18992557 5.76532641 1.51922226 4.16113794 -2.625 2.875 C-6.07795938 2.66895508 -6.07795938 2.66895508 -8.4375 4.9375 Z " fill="#331A15" transform="translate(267,124)"/>
<path d="M0 0 C2.62344202 2.78991865 2.99346897 3.95950762 3.625 7.875 C3.53940599 10.56869374 3.2421112 11.69978212 1.53515625 13.81640625 C-3.80981692 18.50597044 -8.22882266 19.22248491 -15.25 19.3125 C-16.35794922 19.35600586 -16.35794922 19.35600586 -17.48828125 19.40039062 C-23.14258017 19.46521063 -26.34263825 18.22114487 -31 15 C-33.42049032 12.12566775 -34 10.75818619 -34 7 C-32.69243777 3.07731331 -31.28175318 1.52968474 -28 -1 C-18.4028548 -5.57006914 -9.35388502 -4.89605613 0 0 Z M-29.9375 3.3125 C-31.67919095 6.07871504 -31.57373893 7.81256148 -31 11 C-27.11426342 15.17005877 -23.70939535 17.03230587 -18 18 C-12.12122712 17.98955813 -7.16317129 16.7881125 -2 14 C-0.31977202 11.96696723 -0.31977202 11.96696723 1 10 C-1.08326131 9.97290556 -3.16662441 9.95356127 -5.25 9.9375 C-6.41015625 9.92589844 -7.5703125 9.91429687 -8.765625 9.90234375 C-11.44484616 9.98323811 -13.4547439 10.29786038 -16 11 C-18.33300933 11.03888349 -20.66709801 11.0448635 -23 11 C-23 10.01 -23 9.02 -23 8 C-21.906875 8.20625 -20.81375 8.4125 -19.6875 8.625 C-15.9161599 9.40346525 -15.9161599 9.40346525 -13 7 C-10.71428423 6.67287763 -8.46135232 6.5605032 -6.15625 6.44140625 C-3.57285709 5.91255951 -2.66075509 4.99609987 -1 3 C-10.42554381 -2.70493441 -20.60003617 -3.01287872 -29.9375 3.3125 Z " fill="#321914" transform="translate(268,228)"/>
<path d="M0 0 C6.16894202 3.7248287 6.16894202 3.7248287 7.58984375 8.23828125 C7.56921875 9.10453125 7.54859375 9.97078125 7.52734375 10.86328125 C2.75650495 14.04384045 -1.9545051 12.52470348 -7.47265625 11.86328125 C-8.66375 11.73824219 -9.85484375 11.61320312 -11.08203125 11.484375 C-12.82226562 11.26974609 -12.82226562 11.26974609 -14.59765625 11.05078125 C-15.67273438 10.92058594 -16.7478125 10.79039062 -17.85546875 10.65625 C-20.47265625 9.86328125 -20.47265625 9.86328125 -21.83984375 7.7890625 C-22.04867187 7.15355469 -22.2575 6.51804687 -22.47265625 5.86328125 C-16.05985012 0.22778495 -8.29546331 -3.81355422 0 0 Z " fill="#1E0101" transform="translate(147.47265625,284.13671875)"/>
<path d="M0 0 C0.33 0 0.66 0 1 0 C1.01417969 0.59167969 1.02835938 1.18335937 1.04296875 1.79296875 C1.31203543 6.25074915 1.441713 8.37192712 4.5 11.8125 C5.325 12.534375 6.15 13.25625 7 14 C7.8125 16.3125 7.8125 16.3125 8 18 C8.99 18 9.98 18 11 18 C10.57405412 16.55903414 10.13373367 15.12231288 9.6875 13.6875 C9.44386719 12.88699219 9.20023438 12.08648437 8.94921875 11.26171875 C8.14369657 8.94268765 8.14369657 8.94268765 6.40625 7.40625 C5 6 5 6 4.8125 2.8125 C4.874375 1.884375 4.93625 0.95625 5 0 C8.27983107 0.2997087 9.67081936 0.65591551 11.984375 3.07421875 C12.56703125 3.93660156 13.1496875 4.79898438 13.75 5.6875 C14.34296875 6.53699219 14.9359375 7.38648437 15.546875 8.26171875 C18.33550685 13.51664061 18.38176599 19.1780687 18 25 C16.8125 27.0625 16.8125 27.0625 15 28 C11.51225897 28 10.1269532 27.10527827 7.4375 24.875 C1.66292453 18.06396227 -1.52238302 11.05463896 -1 2 C-0.67 1.34 -0.34 0.68 0 0 Z " fill="#230706" transform="translate(221,77)"/>
<path d="M0 0 C2.88837983 2.21442454 3.38976093 4.98755605 4.0625 8.4375 C4.26171875 10.80859375 4.26171875 10.80859375 4 13 C1.30437372 16.08071575 -0.75160658 17.58386886 -4.625 18.875 C-7.00166826 19.0000878 -8.75108705 18.74963765 -11 18 C-11 17.34 -11 16.68 -11 16 C-11.66 16 -12.32 16 -13 16 C-14.87574267 12.84875231 -15.96632989 10.56116852 -16.1875 6.875 C-14.63144332 3.10770489 -12.86198732 2.2603734 -9.19921875 0.6953125 C-5.9368273 -0.33613631 -3.37662516 -0.52966669 0 0 Z " fill="#321914" transform="translate(90,117)"/>
<path d="M0 0 C2.5625 2.375 2.5625 2.375 4 5 C4 8.28964951 3.29952702 9.62559122 1.25 12.1875 C-3.54204007 16.0477545 -8.32057506 16.38679513 -14.3125 16.375 C-15.06853516 16.37483887 -15.82457031 16.37467773 -16.60351562 16.37451172 C-22.34520853 16.25665069 -26.23037901 15.37848153 -31 12 C-32.56430248 8.87139505 -32.35627284 6.44397075 -32 3 C-24.21103081 -5.47623118 -9.57671309 -5.04953963 0 0 Z M-26 1 C-27.29923351 2.99216999 -27.29923351 2.99216999 -28 5 C-26.04366025 7.41121859 -26.04366025 7.41121859 -22.375 7.125 C-21.26125 7.08375 -20.1475 7.0425 -19 7 C-19 6.34 -19 5.68 -19 5 C-16.03 5.33 -13.06 5.66 -10 6 C-10 6.99 -10 7.98 -10 9 C-18.415 9.495 -18.415 9.495 -27 10 C-25.38856648 13.03992784 -25.38856648 13.03992784 -23.26953125 13.671875 C-15.49884411 14.79534784 -7.90286326 14.988321 -1 11 C1.21896136 9.17528109 1.21896136 9.17528109 1.375 6.5625 C1.23227297 3.95027196 1.23227297 3.95027196 -0.5 2.3125 C-8.19947224 -1.72972293 -17.91400944 -2.42846 -26 1 Z " fill="#331915" transform="translate(204,243)"/>
<path d="M0 0 C2.1875 0.5 2.1875 0.5 4.1875 3.0625 C7.57982627 8.81989882 6.48640204 16.04869758 6.1875 22.5 C5.5275 22.83 4.8675 23.16 4.1875 23.5 C2.90432108 19.65046324 3.12106363 16.55261865 3.1875 12.5 C1.8675 12.5 0.5475 12.5 -0.8125 12.5 C-0.8125 17.45 -0.8125 22.4 -0.8125 27.5 C-2.7925 28.49 -2.7925 28.49 -4.8125 29.5 C-7.85298252 25.33550932 -8.35775572 21.7138237 -8.3125 16.6875 C-8.30609497 15.62499023 -8.30609497 15.62499023 -8.29956055 14.54101562 C-8.13443547 9.46706623 -7.35653887 5.75594779 -4.2578125 1.71875 C-2.8125 0.5 -2.8125 0.5 0 0 Z " fill="#250908" transform="translate(63.8125,177.5)"/>
<path d="M0 0 C0.67160156 0.08507812 1.34320313 0.17015625 2.03515625 0.2578125 C4.4188328 1.03116136 5.41427886 1.89074457 6.9375 3.875 C8.15199765 7.49779127 8.63999634 11.16994608 7.16015625 14.76171875 C5.43625733 17.15892499 3.67883796 18.66983267 0.8203125 19.4609375 C-1.375 19.75 -1.375 19.75 -5.0625 19.875 C-7.72080634 16.05324393 -8.49417966 13.39463002 -8.5 8.75 C-8.51933594 7.71617187 -8.53867188 6.68234375 -8.55859375 5.6171875 C-8.0625 2.875 -8.0625 2.875 -6.2890625 1 C-3.82290065 -0.24606073 -2.70033198 -0.40583024 0 0 Z " fill="#1F0202" transform="translate(258.0625,188.125)"/>
<path d="M0 0 C3.76855606 2.53652812 7.40392366 5.25017615 8.4140625 9.91015625 C9.57961523 21.80311093 9.57961523 21.80311093 9 27 C8.34 27.66 7.68 28.32 7 29 C6.01 29 5.02 29 4 29 C4.020625 28.05125 4.04125 27.1025 4.0625 26.125 C4.22551826 23.09333717 4.22551826 23.09333717 3 21 C2.76970044 18.62876754 2.58880058 16.25258057 2.4375 13.875 C2.35371094 12.59367188 2.26992187 11.31234375 2.18359375 9.9921875 C2.12300781 9.00476563 2.06242187 8.01734375 2 7 C1.34 7 0.68 7 0 7 C0 6.01 0 5.02 0 4 C-4.94032868 6.59500138 -4.94032868 6.59500138 -7.625 11.1875 C-8.4705733 17.52929975 -8.06410802 21.36204124 -5 27 C-4.3125 29.875 -4.3125 29.875 -4 32 C-7.88921353 30.52478107 -9.2490848 28.74059157 -11 25 C-12.8445234 19.11922539 -13.87705317 13.75410633 -11 8 C-10.34 8 -9.68 8 -9 8 C-8.67 6.68 -8.34 5.36 -8 4 C-7.34 4 -6.68 4 -6 4 C-6 3.34 -6 2.68 -6 2 C-3.375 0.6875 -3.375 0.6875 0 0 Z " fill="#331A15" transform="translate(107,228)"/>
<path d="M0 0 C0.33 0.99 0.66 1.98 1 3 C3.00016466 4.20882096 3.00016466 4.20882096 5 5 C5 5.99 5 6.98 5 8 C4.34 8 3.68 8 3 8 C3 8.99 3 9.98 3 11 C2.34 11 1.68 11 1 11 C0.7525 11.61875 0.505 12.2375 0.25 12.875 C-1.25822744 15.43898664 -2.17636058 16.11257047 -5 17 C-7.65491264 16.68393897 -9.61205246 16.19397377 -12 15 C-12 14.34 -12 13.68 -12 13 C-12.66 13 -13.32 13 -14 13 C-15.02906579 8.71222589 -15.3484635 6.68402095 -13.3125 2.6875 C-8.85070868 -2.49782504 -6.44814537 -2.55492552 0 0 Z " fill="#331A15" transform="translate(246,153)"/>
<path d="M0 0 C1.72727575 6.47728407 0.34878466 12.1873948 -3 18 C-5.14453125 18.8203125 -5.14453125 18.8203125 -7 19 C-6.98839844 18.28972656 -6.97679688 17.57945313 -6.96484375 16.84765625 C-6.95582031 15.92855469 -6.94679688 15.00945313 -6.9375 14.0625 C-6.92589844 13.14597656 -6.91429688 12.22945312 -6.90234375 11.28515625 C-6.74050951 9.03406673 -6.74050951 9.03406673 -8 8 C-8.66 9.32 -9.32 10.64 -10 12 C-10.66 12 -11.32 12 -12 12 C-11.9175 13.0725 -11.835 14.145 -11.75 15.25 C-12 19 -12 19 -13.8125 21.4375 C-16 23 -16 23 -19 23 C-19 19.7 -19 16.4 -19 13 C-18.34 13 -17.68 13 -17 13 C-16.896875 12.278125 -16.79375 11.55625 -16.6875 10.8125 C-15.86397571 7.44353699 -15.26204467 5.67332552 -13 3 C-4.55051813 -1.51683938 -4.55051813 -1.51683938 0 0 Z " fill="#260A09" transform="translate(109,37)"/>
<path d="M0 0 C0.99 0.33 1.98 0.66 3 1 C4.203125 3.984375 4.203125 3.984375 5.25 7.75 C5.60578125 8.98234375 5.9615625 10.2146875 6.328125 11.484375 C7.12635622 15.66116627 6.91714774 18.17666644 5.01953125 21.94921875 C2.15857681 26.0693635 0.11990375 27.92839224 -5 29 C-7 26 -7 26 -7 23 C-6.34 23 -5.68 23 -5 23 C-5.01160156 22.37351562 -5.02320312 21.74703125 -5.03515625 21.1015625 C-5.04417969 20.28429687 -5.05320312 19.46703125 -5.0625 18.625 C-5.07410156 17.81289062 -5.08570312 17.00078125 -5.09765625 16.1640625 C-5 14 -5 14 -4 12 C-3.76641202 9.43918358 -3.61836931 6.87994966 -3.4765625 4.3125 C-3 2 -3 2 0 0 Z " fill="#3A211D" transform="translate(126,101)"/>
<path d="M0 0 C1.68423487 0.96339601 3.31135087 2.02527558 4.92578125 3.1015625 C4.59578125 4.7515625 4.26578125 6.4015625 3.92578125 8.1015625 C3.01054687 8.37871094 2.0953125 8.65585937 1.15234375 8.94140625 C-0.63042969 9.48474609 -0.63042969 9.48474609 -2.44921875 10.0390625 C-3.63257813 10.39871094 -4.8159375 10.75835937 -6.03515625 11.12890625 C-8.95348693 11.97732524 -8.95348693 11.97732524 -11.07421875 13.1015625 C-14.07421875 13.2890625 -14.07421875 13.2890625 -17.07421875 13.1015625 C-19.07421875 11.1015625 -19.07421875 11.1015625 -19.51171875 8.2265625 C-19.07421875 5.1015625 -19.07421875 5.1015625 -16.82421875 2.8515625 C-15.91671875 2.2740625 -15.00921875 1.6965625 -14.07421875 1.1015625 C-13.47609375 0.6890625 -12.87796875 0.2765625 -12.26171875 -0.1484375 C-8.09160958 -1.57818921 -4.03800853 -1.74904324 0 0 Z " fill="#200403" transform="translate(204.07421875,280.8984375)"/>
<path d="M0 0 C2.43318861 1.45684612 3.98806087 2.93776239 6 5 C6 5.66 6 6.32 6 7 C6.99 7.33 7.98 7.66 9 8 C11.26662635 11.22099534 11.49265419 14.14087551 11 18 C7.89952853 21.10047147 4.89774852 21.9183865 0.5625 22.3125 C-5.26973089 22.2797959 -10.6008365 20.01568771 -16 18 C-17.38065353 13.00840645 -17.13272883 10.62537814 -14.5625 6.0625 C-13.72606467 4.69730991 -12.87756515 3.3391219 -12 2 C-11.34 2 -10.68 2 -10 2 C-10 1.34 -10 0.68 -10 0 C-6.71646019 -1.64176991 -3.42025424 -0.94373682 0 0 Z M-7 2 C-8.60852372 4.68087287 -9.07056307 6.52040267 -9.5 9.6875 C-9.665 10.780625 -9.83 11.87375 -10 13 C-10.99 13.495 -10.99 13.495 -12 14 C-11.73323796 15.98491642 -11.73323796 15.98491642 -11 18 C-7.38132441 19.2062252 -4.07493749 19.10816918 -0.3125 19.0625 C0.38939453 19.05798828 1.09128906 19.05347656 1.81445312 19.04882812 C3.54300538 19.03706927 5.27151365 19.01913454 7 19 C8.47896861 16.04206277 8.4355582 14.29779776 8 11 C5.53306607 7.24495183 2.73013144 4.48675429 -1 2 C-4.12521833 1.83300768 -4.12521833 1.83300768 -7 2 Z " fill="#331A15" transform="translate(155,215)"/>
<path d="M0 0 C3.87554506 0.22145972 4.9399318 0.93713793 7.6875 3.8125 C11.31254841 8.80918834 12.78094493 11.640877 12 18 C9.8125 21 9.8125 21 7 23 C3.22950169 23.18852492 2.04837499 22.04192499 -0.8125 19.5625 C-3 17 -3 17 -3 15 C-3.66 15 -4.32 15 -5 15 C-6.17571451 11.32589215 -6.07366746 7.83070817 -6 4 C-1.93859567 5.49959545 -0.58940115 7.84128664 1.5625 11.5 C4.11897813 15.85065809 4.11897813 15.85065809 8 19 C7.57835981 17.01739401 7.13721222 15.03892755 6.6875 13.0625 C6.44386719 11.96035156 6.20023438 10.85820313 5.94921875 9.72265625 C5.47935547 8.37494141 5.47935547 8.37494141 5 7 C4.01 6.67 3.02 6.34 2 6 C0.8125 2.9375 0.8125 2.9375 0 0 Z " fill="#250808" transform="translate(197,45)"/>
<path d="M0 0 C1.98 0 3.96 0 6 0 C6.2475 0.721875 6.495 1.44375 6.75 2.1875 C8.11953215 5.26894735 9.85997022 7.4060245 12 10 C13.73852841 12.70437753 14.98148258 14.94444773 16 18 C16.99 18.33 17.98 18.66 19 19 C18.67 19.99 18.34 20.98 18 22 C11.18825469 20.86674005 5.06688724 18.26373365 0.375 13.125 C-1.6727784 8.47095819 -1.5950844 4.7852532 0 0 Z " fill="#412823" transform="translate(154,55)"/>
<path d="M0 0 C3.02286884 1.38548155 4.66871425 2.66871425 7 5 C6.9375 8.4375 6.9375 8.4375 6 12 C2.35660411 14.83375236 -0.499439 15.43173128 -5.0625 15.4375 C-6.08472656 15.45683594 -7.10695312 15.47617187 -8.16015625 15.49609375 C-11.6295436 14.89002471 -12.79452932 13.67089376 -15 11 C-12.22970414 10.49685437 -9.4588348 9.99736162 -6.6875 9.5 C-5.90181641 9.35691406 -5.11613281 9.21382813 -4.30664062 9.06640625 C-3.54931641 8.93105469 -2.79199219 8.79570312 -2.01171875 8.65625 C-1.31522217 8.53056641 -0.61872559 8.40488281 0.09887695 8.27539062 C2 8 2 8 5 8 C5 7.34 5 6.68 5 6 C3.96875 6.020625 2.9375 6.04125 1.875 6.0625 C-2 6 -2 6 -5.375 5.4375 C-6.674375 5.2209375 -6.674375 5.2209375 -8 5 C-8.33 5.33 -8.66 5.66 -9 6 C-11.33297433 6.04092937 -13.66705225 6.04241723 -16 6 C-15.04966507 3.62416268 -14.42689775 2.26857806 -12.23046875 0.88671875 C-8.25602072 -0.69331575 -4.20434308 -0.45654941 0 0 Z " fill="#210504" transform="translate(151,255)"/>
<path d="M0 0 C0.99 0.33 1.98 0.66 3 1 C3 1.66 3 2.32 3 3 C3.66 3 4.32 3 5 3 C5.625 4.8125 5.625 4.8125 6 7 C5.01 8.485 5.01 8.485 4 10 C1.375 10.1875 1.375 10.1875 -1 10 C-1.66 11.32 -2.32 12.64 -3 14 C-5.8872573 14.34372111 -8.11888819 14.50436056 -10.69921875 13.02734375 C-12.98760477 11.21547395 -14.74970071 9.531886 -16 6.875 C-16 5 -16 5 -14 2 C-11.50390625 1.77734375 -11.50390625 1.77734375 -8.5625 1.9375 C-3.99795642 2.22373421 -3.99795642 2.22373421 0 0 Z " fill="#1D0000" transform="translate(135,74)"/>
<path d="M0 0 C4.02577541 0.23681032 6.45457497 0.60332725 9.75 3 C13.33958299 7.78611066 15.4989234 12.9345132 14.8125 19 C14.544375 19.99 14.27625 20.98 14 22 C13.34 22.33 12.68 22.66 12 23 C11.96132813 22.1646875 11.96132813 22.1646875 11.921875 21.3125 C11.49439805 15.56099199 10.26246322 10.82598332 7 6 C6.34 5.67 5.68 5.34 5 5 C5.0721875 5.75023438 5.144375 6.50046875 5.21875 7.2734375 C5.81718868 13.87288627 6.13192217 20.37457568 6 27 C4.68 27 3.36 27 2 27 C2.04125 26.0925 2.0825 25.185 2.125 24.25 C2.24337232 21.13790363 2.24337232 21.13790363 1.03515625 19.203125 C-0.33483645 16.28736696 -0.4632605 13.70552197 -0.6875 10.5 C-0.77386719 9.3759375 -0.86023437 8.251875 -0.94921875 7.09375 C-0.99280247 4.43849575 -0.81502696 2.50023307 0 0 Z " fill="#3A221D" transform="translate(49,111)"/>
<path d="M0 0 C2.63460373 1.81129006 3.2493908 3.29750227 4 6.375 C3.01 7.86 3.01 7.86 2 9.375 C2.763125 9.58125 3.52625 9.7875 4.3125 10 C7.91373041 11.84248998 8.67009547 13.60693718 10 17.375 C9.6097561 21.7652439 9.6097561 21.7652439 8 23.375 C2.72808989 23.83342697 2.72808989 23.83342697 0.3125 22.3125 C-2.52665653 18.12136417 -4 14.43811383 -4 9.375 C-3.34 9.375 -2.68 9.375 -2 9.375 C-2.66 6.405 -3.32 3.435 -4 0.375 C-2 -0.625 -2 -0.625 0 0 Z " fill="#1C0000" transform="translate(283,108.625)"/>
<path d="M0 0 C3.1875 0.4375 3.1875 0.4375 6 2.375 C8.86398025 6.38457236 9.50313084 9.54926855 9.1875 14.4375 C8.43300697 17.30362445 7.4216056 19.72246767 6.1875 22.4375 C2.13622587 21.08707529 1.36794817 18.54074614 -0.4375 14.9375 C-2.26585461 10.93011597 -2.26585461 10.93011597 -4.8125 7.4375 C-5 5 -5 5 -4.8125 2.4375 C-2.8125 0.4375 -2.8125 0.4375 0 0 Z " fill="#311813" transform="translate(41.8125,215.5625)"/>
<path d="M0 0 C1.18160307 3.93867688 1.11170385 6.44588538 -0.5625 10.125 C-2.71978319 14.07623448 -5.08568631 15.86491981 -9 18 C-9.0825 17.21625 -9.165 16.4325 -9.25 15.625 C-9.70995268 12.88368661 -9.70995268 12.88368661 -11.875 11.875 C-12.926875 11.441875 -12.926875 11.441875 -14 11 C-15.02420222 10.02480268 -16.02815265 9.02738149 -17 8 C-15.92807816 6.6781638 -14.84197305 5.36782073 -13.75 4.0625 C-13.14671875 3.33160156 -12.5434375 2.60070312 -11.921875 1.84765625 C-8.14896627 -1.77955072 -4.88828934 -0.99987737 0 0 Z " fill="#1E0101" transform="translate(72,65)"/>
<path d="M0 0 C3.69299075 0.66351607 6.3993178 2.27032134 9.5625 4.25 C10.98755859 5.12398437 10.98755859 5.12398437 12.44140625 6.015625 C15.14392722 8.111626 16.45298593 9.97889508 18 13 C15.81671568 15.60314669 14.28539046 16.89677366 11.0625 18.0625 C8 18 8 18 5.3125 16 C1.37838295 10.89628058 -0.4739519 6.47734264 0 0 Z " fill="#1E0101" transform="translate(225,44)"/>
<path d="M0 0 C2.875 0.25 2.875 0.25 6 1 C7.375 3.0625 7.375 3.0625 8 5 C7.01 6.485 7.01 6.485 6 8 C5.01 8 4.02 8 3 8 C2.67 9.98 2.34 11.96 2 14 C-5.85538162 15.42047206 -5.85538162 15.42047206 -10.0625 13.875 C-12 12 -12 12 -12.3125 9.3125 C-12.209375 8.549375 -12.10625 7.78625 -12 7 C-5.375 4.125 -5.375 4.125 -2 3 C-1.34 2.01 -0.68 1.02 0 0 Z " fill="#1C0000" transform="translate(106,203)"/>
<path d="M0 0 C0.29296875 6.0546875 0.29296875 6.0546875 0 8 C-3.52679099 10.35119399 -5.02879485 10.21443452 -9.1875 10.125 C-10.27417969 10.10695312 -11.36085937 10.08890625 -12.48046875 10.0703125 C-13.72763672 10.03550781 -13.72763672 10.03550781 -15 10 C-15.33 8.68 -15.66 7.36 -16 6 C-18.64 6 -21.28 6 -24 6 C-24 4.68 -24 3.36 -24 2 C-21.29120665 0.64560332 -18.99066732 0.93498549 -16 1 C-15.67 1.99 -15.34 2.98 -15 4 C-14.50371094 3.62746094 -14.00742188 3.25492188 -13.49609375 2.87109375 C-8.49279975 -0.61317361 -5.93057908 -1.6061985 0 0 Z " fill="#1C0000" transform="translate(252,207)"/>
<path d="M0 0 C3.5625 1.6875 3.5625 1.6875 6 4 C6.875 6.75 6.875 6.75 7 9 C2.42071882 13.82029598 2.42071882 13.82029598 -1.625 14.33203125 C-4.10024766 14.31445137 -6.53484453 14.21923319 -9 14 C-6.27523375 11.85788817 -4.34859522 10.8082816 -1 10 C-0.67 9.34 -0.34 8.68 0 8 C1.32 8 2.64 8 4 8 C4 7.34 4 6.68 4 6 C3.26394531 6.0721875 2.52789062 6.144375 1.76953125 6.21875 C0.79371094 6.3115625 -0.18210938 6.404375 -1.1875 6.5 C-2.15042969 6.5928125 -3.11335937 6.685625 -4.10546875 6.78125 C-11.47824335 7.33843674 -11.47824335 7.33843674 -14.3125 5.5 C-14.869375 5.005 -15.42625 4.51 -16 4 C-10.92152302 -0.2766122 -6.56724071 -1.05373879 0 0 Z " fill="#270A09" transform="translate(226,184)"/>
<path d="M0 0 C4.36109605 0.50710419 7.45075299 1.36341651 11 4 C12 7 12 7 11 10.5625 C9 14 9 14 5.4375 15.4375 C2 16 2 16 0 16 C0 15.34 0 14.68 0 14 C-0.66 14 -1.32 14 -2 14 C-3.55577239 8.34264585 -2.24281523 5.20333134 0 0 Z " fill="#1D0000" transform="translate(70,150)"/>
<path d="M0 0 C0.33 1.98 0.66 3.96 1 6 C0.01 6.33 -0.98 6.66 -2 7 C-2 7.66 -2 8.32 -2 9 C-2.99 9 -3.98 9 -5 9 C-5.33 11.31 -5.66 13.62 -6 16 C-7.98 16.33 -9.96 16.66 -12 17 C-12.99 15.35 -13.98 13.7 -15 12 C-14.01 11.67 -13.02 11.34 -12 11 C-12.33 8.69 -12.66 6.38 -13 4 C-8.61350163 0.52105302 -5.57581513 -0.123907 0 0 Z " fill="#1C0000" transform="translate(193,85)"/>
<path d="M0 0 C0 8.25 0 16.5 0 25 C-4 24 -4 24 -5.25 21.9375 C-5.4975 21.298125 -5.745 20.65875 -6 20 C-6.66 20 -7.32 20 -8 20 C-9.82341572 12.56607435 -7.8813583 7.51472823 -4 1 C-2 0 -2 0 0 0 Z " fill="#250908" transform="translate(73,227)"/>
<path d="M0 0 C2.3125 0.375 2.3125 0.375 5 2 C6.37574553 5.24589962 7.22092044 8.56698276 8 12 C6.65625 13.5234375 6.65625 13.5234375 5 15 C2.5 14.625 2.5 14.625 0 14 C-0.99 14.33 -1.98 14.66 -3 15 C-4.70304455 12.51639337 -5.89852926 10.45098108 -6.5625 7.5 C-5.68138064 3.58391395 -3.1896945 2.32581891 0 0 Z " fill="#1D0000" transform="translate(235,119)"/>
<path d="M0 0 C2.26976439 7.21199329 4.26990374 13.80315579 1 21 C-0.3984375 22.74609375 -0.3984375 22.74609375 -2 24 C-2.99 24 -3.98 24 -5 24 C-6.01224185 19.12283471 -6.04802149 14.68090109 -5.75 9.75 C-5.72292969 9.03070313 -5.69585937 8.31140625 -5.66796875 7.5703125 C-5.546875 5.484375 -5.546875 5.484375 -5 2 C-2 0 -2 0 0 0 Z " fill="#482F2A" transform="translate(45,153)"/>
<path d="M0 0 C0.33 0.99 0.66 1.98 1 3 C0.01 3.33 -0.98 3.66 -2 4 C-3.14228658 6.75763432 -3.14228658 6.75763432 -4 10 C-4.66666667 12 -5.33333333 14 -6 16 C-7.65 16.33 -9.3 16.66 -11 17 C-13.48386059 13.27420911 -13.3804212 11.41288598 -13 7 C-11.6875 4.25 -11.6875 4.25 -10 2 C-9.5875 1.38125 -9.175 0.7625 -8.75 0.125 C-5.85570686 -1.73561702 -3.21980707 -0.66826184 0 0 Z " fill="#240807" transform="translate(144,50)"/>
<path d="M0 0 C1.32 0 2.64 0 4 0 C4.19335938 0.65226562 4.38671875 1.30453125 4.5859375 1.9765625 C5.12287523 3.77875943 5.66473355 5.57949603 6.2109375 7.37890625 C6.82947586 9.43355596 7.42010163 11.49661205 8 13.5625 C8.33 14.366875 8.66 15.17125 9 16 C9.99 16.33 10.98 16.66 12 17 C12 18.32 12 19.64 12 21 C10.1875 21.625 10.1875 21.625 8 22 C7.01 21.34 6.02 20.68 5 20 C5 19.34 5 18.68 5 18 C4.34 18 3.68 18 3 18 C-0.06281524 12.09314204 -1.5966146 7.68208356 -1 1 C-0.67 0.67 -0.34 0.34 0 0 Z " fill="#472F29" transform="translate(256,96)"/>
<path d="M0 0 C1.60379341 -0.05416188 3.20811406 -0.09286638 4.8125 -0.125 C5.70582031 -0.14820313 6.59914062 -0.17140625 7.51953125 -0.1953125 C10 0 10 0 13 2 C12.67 3.65 12.34 5.3 12 7 C11.34 7 10.68 7 10 7 C9.67 8.65 9.34 10.3 9 12 C6.36 11.67 3.72 11.34 1 11 C-1.03684712 6.92630576 -1.0257259 4.41062136 0 0 Z " fill="#1D0000" transform="translate(220,254)"/>
<path d="M0 0 C1.32 0 2.64 0 4 0 C4.19335938 0.77085938 4.38671875 1.54171875 4.5859375 2.3359375 C4.84632813 3.33882813 5.10671875 4.34171875 5.375 5.375 C5.75785156 6.87160156 5.75785156 6.87160156 6.1484375 8.3984375 C6.82404319 11.12541015 6.82404319 11.12541015 9 13 C8.625 15.625 8.625 15.625 8 18 C9.98 17.67 11.96 17.34 14 17 C13.67 17.99 13.34 18.98 13 20 C9.15941827 21.28019391 7.6601592 20.60131965 4 19 C1.44001256 16.17904297 0.46013826 13.77927201 -0.25 10.0625 C-0.50523437 8.81146484 -0.50523437 8.81146484 -0.765625 7.53515625 C-1.01829977 4.80205746 -0.66389792 2.65084954 0 0 Z " fill="#39201B" transform="translate(189,105)"/>
<path d="M0 0 C3.16115776 1.36983503 3.9927092 1.9890638 6 5 C7.29840622 10.98981737 7.67846341 17.91682808 7 24 C6.34 24.66 5.68 25.32 5 26 C4.01 26 3.02 26 2 26 C2.020625 25.05125 2.04125 24.1025 2.0625 23.125 C2.22551826 20.09333717 2.22551826 20.09333717 1 18 C0.58020835 15.1448417 0.2071386 12.30278017 -0.125 9.4375 C-0.22425781 8.64408203 -0.32351562 7.85066406 -0.42578125 7.03320312 C-0.6622164 5.02693094 -0.83623198 3.01350682 -1 1 C-0.67 0.67 -0.34 0.34 0 0 Z " fill="#DDCEBF" transform="translate(109,231)"/>
<path d="M0 0 C1.65 0 3.3 0 5 0 C8 6.625 8 6.625 8 10 C9.32 10 10.64 10 12 10 C11.67 11.65 11.34 13.3 11 15 C9.68 15.33 8.36 15.66 7 16 C6.67 15.01 6.34 14.02 6 13 C3.69 12.67 1.38 12.34 -1 12 C-1.02698189 10.37509046 -1.04638757 8.75005367 -1.0625 7.125 C-1.07410156 6.22007812 -1.08570313 5.31515625 -1.09765625 4.3828125 C-1 2 -1 2 0 0 Z " fill="#1C0000" transform="translate(169,282)"/>
<path d="M0 0 C1.16208984 0.07734375 1.16208984 0.07734375 2.34765625 0.15625 C2.42837413 2.94849073 2.48801033 5.73841566 2.53515625 8.53125 C2.57286133 9.72234375 2.57286133 9.72234375 2.61132812 10.9375 C2.6377003 13.01211148 2.50252087 15.08725865 2.34765625 17.15625 C1.35765625 17.81625 0.36765625 18.47625 -0.65234375 19.15625 C-4.26925797 15.29820816 -6.49630713 11.49270238 -6.65234375 6.15625 C-4.00946346 0.23619814 -4.00946346 0.23619814 0 0 Z " fill="#210504" transform="translate(101.65234375,177.84375)"/>
<path d="M0 0 C-0.375 1.9375 -0.375 1.9375 -1 4 C-1.99 4.495 -1.99 4.495 -3 5 C-3 4.01 -3 3.02 -3 2 C-4.62992692 2.39695637 -6.25392235 2.81832493 -7.875 3.25 C-8.77992187 3.48203125 -9.68484375 3.7140625 -10.6171875 3.953125 C-13.08905613 4.78351671 -13.08905613 4.78351671 -14.1953125 6.796875 C-14.59363281 7.88742188 -14.59363281 7.88742188 -15 9 C-15.55300781 10.15048828 -15.55300781 10.15048828 -16.1171875 11.32421875 C-17.2001313 14.60659266 -17.19466913 17.36387802 -17.125 20.8125 C-17.10695313 21.97394531 -17.08890625 23.13539062 -17.0703125 24.33203125 C-17.04710938 25.21246094 -17.02390625 26.09289062 -17 27 C-17.99 26.67 -18.98 26.34 -20 26 C-22.17726935 21.6454613 -21.58236125 15.51286588 -20.50390625 10.859375 C-18.41733384 5.43664444 -14.85180994 3.1674454 -10.125 0.1875 C-6.32505544 -1.25647893 -3.92185013 -0.86280703 0 0 Z " fill="#331A15" transform="translate(127,98)"/>
<path d="M0 0 C2.1898069 3.45973209 2.03584084 5.4913468 1.1875 9.4375 C0.99542969 10.36433594 0.80335937 11.29117188 0.60546875 12.24609375 C0.30576172 13.60927734 0.30576172 13.60927734 0 15 C-0.33597004 16.66613715 -0.67015901 18.33263867 -1 20 C-2.875 19.8125 -2.875 19.8125 -5 19 C-7.64127913 14.77395339 -7.40802543 9.82988242 -7 5 C-6.67 4.34 -6.34 3.68 -6 3 C-5.34 3 -4.68 3 -4 3 C-4 2.34 -4 1.68 -4 1 C-2 0 -2 0 0 0 Z " fill="#200303" transform="translate(39,155)"/>
<path d="M0 0 C0 0.66 0 1.32 0 2 C0.61875 2.2475 1.2375 2.495 1.875 2.75 C4.35068687 4.20628639 4.95125002 5.37812506 6 8 C6.66 8 7.32 8 8 8 C10.51552547 14.06685555 10.08354547 18.34038839 7.625 24.375 C6 27 6 27 3 28 C2.01 27.34 1.02 26.68 0 26 C0.99 25.67 1.98 25.34 3 25 C3.33 24.01 3.66 23.02 4 22 C4.556875 20.8553125 4.556875 20.8553125 5.125 19.6875 C6.26155727 16.19664552 6.1226865 14.50839532 5 11 C2.45787937 7.29337501 0.32753556 4.44251185 -4 3 C-4.33 3.99 -4.66 4.98 -5 6 C-5 5.34 -5 4.68 -5 4 C-5.99 3.67 -6.98 3.34 -8 3 C-4.93882432 0.37613513 -4.26826873 0 0 0 Z " fill="#321914" transform="translate(265,92)"/>
<path d="M0 0 C6.6 0.33 13.2 0.66 20 1 C20 2.32 20 3.64 20 5 C15.01828125 7.97949686 9.62664443 7.64518856 4 7 C1.48022628 5.93072333 0.06903584 4.83914297 -2 3 C-1.34 2.67 -0.68 2.34 0 2 C0 1.34 0 0.68 0 0 Z " fill="#3A211C" transform="translate(208,225)"/>
<path d="M0 0 C2.97 0.495 2.97 0.495 6 1 C6 1.66 6 2.32 6 3 C7.0828125 3.2475 7.0828125 3.2475 8.1875 3.5 C12.35824566 5.72439769 14.38618242 8.57271284 16 13 C16.35223064 18.04394271 15.62315939 22.44210153 13.75 27.125 C11.58903741 29.44031706 10.11145209 29.7477201 7 30 C7.33 29.01 7.66 28.02 8 27 C8.99 27 9.98 27 11 27 C12.8914592 18.04059197 12.8914592 18.04059197 9.9375 9.8125 C7.88344455 7.64629785 5.63254994 5.9545775 3.1875 4.25 C2.135625 3.5075 1.08375 2.765 0 2 C0 1.34 0 0.68 0 0 Z " fill="#321914" transform="translate(165,48)"/>
<path d="M0 0 C5.25687702 4.11407767 5.25687702 4.11407767 6.875 6.25 C6.625 9 6.625 9 5.875 11.25 C4.885 11.58 3.895 11.91 2.875 12.25 C2.875 11.26 2.875 10.27 2.875 9.25 C2.215 8.92 1.555 8.59 0.875 8.25 C1.865 8.25 2.855 8.25 3.875 8.25 C3.875 7.59 3.875 6.93 3.875 6.25 C3.25625 5.96125 2.6375 5.6725 2 5.375 C-0.125 4.25 -0.125 4.25 -2.125 2.25 C-7.720229 1.56569142 -12.90951916 2.05400807 -18.125 4.25 C-18.125 5.24 -18.125 6.23 -18.125 7.25 C-16.475 7.25 -14.825 7.25 -13.125 7.25 C-14.445 7.58 -15.765 7.91 -17.125 8.25 C-17.125 8.91 -17.125 9.57 -17.125 10.25 C-17.785 10.25 -18.445 10.25 -19.125 10.25 C-19.455 7.94 -19.785 5.63 -20.125 3.25 C-13.5050933 -0.69648284 -7.46099763 -4.17815868 0 0 Z " fill="#39201B" transform="translate(225.125,216.75)"/>
<path d="M0 0 C2.92585242 0.31630837 4.54759064 0.54115828 6.6484375 2.671875 C8.36183891 5.62328321 8.36766879 7.60499732 8.3125 11 C8.30863281 12.03125 8.30476563 13.0625 8.30078125 14.125 C8.00770713 16.92633186 7.44101632 18.61170203 6 21 C5.34 21 4.68 21 4 21 C4 19.68 4 18.36 4 17 C3.34 17 2.68 17 2 17 C1.93941406 16.10796875 1.87882812 15.2159375 1.81640625 14.296875 C1.73261719 13.12640625 1.64882812 11.9559375 1.5625 10.75 C1.48128906 9.58984375 1.40007812 8.4296875 1.31640625 7.234375 C1.06752213 4.69022624 0.71885058 2.44046752 0 0 Z " fill="#250807" transform="translate(75,226)"/>
<path d="M0 0 C1.32 0 2.64 0 4 0 C2.37018756 6.64461994 2.37018756 6.64461994 0.4375 8.5 C-1.36380344 10.08084521 -1.36380344 10.08084521 -1.4375 13.5 C-2 17 -2 17 -4.0625 18.9375 C-4.701875 19.288125 -5.34125 19.63875 -6 20 C-7.97678876 16.04642247 -7.57146342 11.29839877 -7 7 C-4.625 3.9375 -4.625 3.9375 -2 2 C-1.34 1.34 -0.68 0.68 0 0 Z " fill="#2C100E" transform="translate(91,83)"/>
<path d="M0 0 C0.66 0 1.32 0 2 0 C2 0.66 2 1.32 2 2 C2.66 2 3.32 2 4 2 C6.87538879 7.1978182 7.31878548 10.23088569 5.75 15.9765625 C4.86681013 18.35933518 3.75807388 20.16201367 2 22 C0.68 21.34 -0.64 20.68 -2 20 C-1.34 19.34 -0.68 18.68 0 18 C0.27654388 16.06318864 0.27654388 16.06318864 0.1953125 13.8671875 C0.18886719 13.06152344 0.18242188 12.25585938 0.17578125 11.42578125 C0.15064453 10.16314453 0.15064453 10.16314453 0.125 8.875 C0.11146484 7.60076172 0.11146484 7.60076172 0.09765625 6.30078125 C0.07405647 4.20040116 0.03818483 2.10016556 0 0 Z " fill="#39201B" transform="translate(115,237)"/>
<path d="M0 0 C0.99 0 1.98 0 3 0 C2.34 3.3 1.68 6.6 1 10 C0.01 10.33 -0.98 10.66 -2 11 C-1.33131686 14.11332248 -1.33131686 14.11332248 1.0625 15.1875 C1.701875 15.455625 2.34125 15.72375 3 16 C0.21176345 17.0326802 -0.8677274 17.04509293 -3.75 16.0625 C-4.4925 15.711875 -5.235 15.36125 -6 15 C-7.19876651 9.55106131 -6.91360308 6.77830905 -4 2 C-2.68 2.33 -1.36 2.66 0 3 C0 2.01 0 1.02 0 0 Z " fill="#3B221D" transform="translate(145,218)"/>
<path d="M0 0 C1.36271133 2.72542267 1.16923601 4.96087274 1.1875 8 C1.20167969 9.0725 1.21585938 10.145 1.23046875 11.25 C1 14 1 14 -1 16 C-2.14878332 13.89739659 -3.29411192 11.79303461 -4.4375 9.6875 C-4.76298828 9.09259766 -5.08847656 8.49769531 -5.42382812 7.88476562 C-6.83737384 5.27626374 -8.05948633 2.82154101 -9 0 C-5.49270578 -1.16909807 -3.55692677 -0.85056945 0 0 Z " fill="#1E0201" transform="translate(46,221)"/>
<path d="M0 0 C1.98 0.495 1.98 0.495 4 1 C4.33 2.65 4.66 4.3 5 6 C6.32 6.33 7.64 6.66 9 7 C10.29243536 11.1196377 11.26252625 14.66831683 11 19 C6.97228372 17.4973862 5.51784741 15.1647269 3.3125 11.5625 C2.71050781 10.59441406 2.10851562 9.62632813 1.48828125 8.62890625 C0 6 0 6 -1 3 C-0.67 2.01 -0.34 1.02 0 0 Z " fill="#D3C3B4" transform="translate(194,45)"/>
<path d="M0 0 C2.19510603 0.25361783 4.38228739 0.57765908 6.5625 0.9375 C8.35880859 1.22947266 8.35880859 1.22947266 10.19140625 1.52734375 C11.11824219 1.68332031 12.04507813 1.83929688 13 2 C13 2.66 13 3.32 13 4 C10.41747107 4.50449402 7.83411297 5.00374301 5.25 5.5 C4.15558594 5.71462891 4.15558594 5.71462891 3.0390625 5.93359375 C-0.39343532 6.58888879 -3.49169491 7 -7 7 C-7 6.34 -7 5.68 -7 5 C-7.66 5 -8.32 5 -9 5 C-9 4.01 -9 3.02 -9 2 C-6.94921875 1.77213542 -4.8984375 1.54427083 -2.84765625 1.31640625 C-0.98859771 1.18113386 -0.98859771 1.18113386 0 0 Z " fill="#E4D5C5" transform="translate(143,259)"/>
<path d="M0 0 C2 3 2 3 2 5 C2.515625 4.54625 3.03125 4.0925 3.5625 3.625 C6.57300574 1.61799617 9.50927237 0.87268191 13 0 C13.75 2.25 13.75 2.25 14 5 C12.33029914 7.61344482 10.99939824 8.77156612 7.94921875 9.46875 C5.97433898 9.72131011 3.98655409 9.86756306 2 10 C-1.07692308 5.69230769 -1.07692308 5.69230769 -0.6875 2.1875 C-0.460625 1.465625 -0.23375 0.74375 0 0 Z " fill="#3A211C" transform="translate(251,198)"/>
<path d="M0 0 C3 1 3 1 4 3 C4.54756509 9.46126809 3.58630554 12.62054169 0 18 C-1.32 18 -2.64 18 -4 18 C-4 15.69 -4 13.38 -4 11 C-3.34 11 -2.68 11 -2 11 C-2.04125 10.29875 -2.0825 9.5975 -2.125 8.875 C-1.98331668 5.61628372 -1.13265314 3.0440053 0 0 Z " fill="#220605" transform="translate(98,84)"/>
<path d="M0 0 C3.40951942 1.58569713 6.29470726 3.3774018 9 6 C10.0625 9.375 10.0625 9.375 10 12 C8.35 12.66 6.7 13.32 5 14 C5 13.34 5 12.68 5 12 C5.99 12 6.98 12 8 12 C5.78170516 7.56341031 3.38650314 5.32226637 -1 3 C-6.0677917 2.46391484 -9.34919231 3.78327787 -13.875 6 C-15.02742187 6.556875 -16.17984375 7.11375 -17.3671875 7.6875 C-18.23601562 8.120625 -19.10484375 8.55375 -20 9 C-18.15778326 4.26287125 -15.09609777 3.0426433 -10.65234375 0.99609375 C-6.52817047 -0.55274894 -4.40984372 -0.76997271 0 0 Z " fill="#3A221C" transform="translate(145,283)"/>
<path d="M0 0 C0 0.66 0 1.32 0 2 C0.66 2.33 1.32 2.66 2 3 C-1.49787371 5.0570622 -4.81881563 5.61202869 -8.8125 6.1875 C-9.99457031 6.36667969 -11.17664063 6.54585937 -12.39453125 6.73046875 C-16.11556535 7.00863923 -19.3377076 6.66118211 -23 6 C-23 5.01 -23 4.02 -23 3 C-21.3603125 3.061875 -21.3603125 3.061875 -19.6875 3.125 C-15.91107771 3.32074666 -15.91107771 3.32074666 -13 1 C-10.87890625 0.5859375 -10.87890625 0.5859375 -8.5625 0.375 C-7.80066406 0.30023438 -7.03882813 0.22546875 -6.25390625 0.1484375 C-4.17319114 0.011406 -2.08522253 0 0 0 Z " fill="#E2D3C3" transform="translate(268,233)"/>
<path d="M0 0 C4.82456972 1.41409802 7.99744658 3.52527025 10.78515625 7.87109375 C11.84306795 10.63150521 11.82017422 12.86518256 11.75 15.8125 C11.73195312 16.79734375 11.71390625 17.7821875 11.6953125 18.796875 C11.67210937 19.54453125 11.64890625 20.2921875 11.625 21.0625 C9.975 21.7225 8.325 22.3825 6.625 23.0625 C6.955 22.5675 7.285 22.0725 7.625 21.5625 C9.0304069 18.04898276 9.35861356 14.75257621 8.625 11.0625 C6.18201712 8.02527803 3.8586335 6.21825567 0.625 4.0625 C-1.43209596 3.82194532 -1.43209596 3.82194532 -3.5625 3.9375 C-4.820625 3.97875 -6.07875 4.02 -7.375 4.0625 C-4.98024174 0.9014191 -4.05238738 0.07504421 0 0 Z " fill="#341B16" transform="translate(195.375,100.9375)"/>
<path d="M0 0 C0.66 0 1.32 0 2 0 C2.26554688 0.68707031 2.53109375 1.37414063 2.8046875 2.08203125 C3.15789062 2.98308594 3.51109375 3.88414063 3.875 4.8125 C4.39707031 6.15248047 4.39707031 6.15248047 4.9296875 7.51953125 C5.98832155 10.17711591 5.98832155 10.17711591 8 13 C11.19834873 13.50500243 12.5786377 13.27331609 15.3125 11.5 C15.869375 11.005 16.42625 10.51 17 10 C17.33 10.99 17.66 11.98 18 13 C15.81671568 15.60314669 14.28539046 16.89677366 11.0625 18.0625 C8 18 8 18 5.3125 16 C1.37838295 10.89628058 -0.4739519 6.47734264 0 0 Z " fill="#311814" transform="translate(225,44)"/>
<path d="M0 0 C0.99 0 1.98 0 3 0 C3 1.65 3 3.3 3 5 C3.598125 5.268125 4.19625 5.53625 4.8125 5.8125 C10.13500565 8.70186021 12.12941699 13.38825098 14 19 C13.67 19.66 13.34 20.32 13 21 C9.83884224 19.63016497 9.0072908 19.0109362 7 16 C7 14.68 7 13.36 7 12 C6.01 11.67 5.02 11.34 4 11 C2.375 9.9375 2.375 9.9375 1 8 C0.44407497 5.32097083 0.22440516 2.737743 0 0 Z " fill="#DFD0C0" transform="translate(263,136)"/>
<path d="M0 0 C2.9719385 1.12451727 5.33440687 2.22293791 8 4 C8.40843923 6.71203652 8.13336867 9.2437142 8 12 C6.35 12 4.7 12 3 12 C3 10.68 3 9.36 3 8 C1.68 8.33 0.36 8.66 -1 9 C-2.1875 7.3125 -2.1875 7.3125 -3 5 C-1.625 2.25 -1.625 2.25 0 0 Z " fill="#634C45" transform="translate(54,74)"/>
<path d="M0 0 C0.89267578 0.00644531 1.78535156 0.01289063 2.70507812 0.01953125 C4.09823242 0.04466797 4.09823242 0.04466797 5.51953125 0.0703125 C6.45990234 0.07933594 7.40027344 0.08835938 8.36914062 0.09765625 C10.69036093 0.12122194 13.01106769 0.15412134 15.33203125 0.1953125 C15.33203125 0.8553125 15.33203125 1.5153125 15.33203125 2.1953125 C14.01203125 2.1953125 12.69203125 2.1953125 11.33203125 2.1953125 C11.00203125 3.1853125 10.67203125 4.1753125 10.33203125 5.1953125 C8.72882151 5.39082588 7.12440139 5.57643233 5.51953125 5.7578125 C4.62621094 5.86222656 3.73289063 5.96664062 2.8125 6.07421875 C0.33203125 6.1953125 0.33203125 6.1953125 -2.66796875 5.1953125 C-2.99796875 4.5353125 -3.32796875 3.8753125 -3.66796875 3.1953125 C-5.6926013 2.54317958 -5.6926013 2.54317958 -7.66796875 2.1953125 C-4.46390413 0.05926942 -3.67196128 -0.04677658 0 0 Z " fill="#EEE0CF" transform="translate(214.66796875,189.8046875)"/>
<path d="M0 0 C0.99 0.33 1.98 0.66 3 1 C3.06058594 1.77085938 3.12117188 2.54171875 3.18359375 3.3359375 C3.26738281 4.33882813 3.35117187 5.34171875 3.4375 6.375 C3.55931641 7.87160156 3.55931641 7.87160156 3.68359375 9.3984375 C3.84965626 11.97927613 3.84965626 11.97927613 5 14 C5.06996014 15.70702735 5.08440154 17.41668003 5.0625 19.125 C5.05347656 20.03507812 5.04445313 20.94515625 5.03515625 21.8828125 C5.01775391 22.93082031 5.01775391 22.93082031 5 24 C3.68 24 2.36 24 1 24 C1.020625 23.05125 1.04125 22.1025 1.0625 21.125 C1.22551826 18.09333717 1.22551826 18.09333717 0 16 C-0.07181821 13.28239892 -0.09299506 10.59140612 -0.0625 7.875 C-0.05798828 7.12089844 -0.05347656 6.36679688 -0.04882812 5.58984375 C-0.03703499 3.72652873 -0.01909942 1.86325445 0 0 Z " fill="#EADBCB" transform="translate(50,114)"/>
<path d="M0 0 C0.99 0 1.98 0 3 0 C3 1.32 3 2.64 3 4 C3.598125 4.0825 4.19625 4.165 4.8125 4.25 C7.68218334 5.23389143 8.37991498 6.46421475 10 9 C10.5775 9.845625 11.155 10.69125 11.75 11.5625 C12.36875 12.7690625 12.36875 12.7690625 13 14 C12.67 14.99 12.34 15.98 12 17 C8.90810772 16.69359626 8.00583283 16.00634374 5.859375 13.671875 C4.81523437 12.22554687 4.81523437 12.22554687 3.75 10.75 C3.04359375 9.79609375 2.3371875 8.8421875 1.609375 7.859375 C-0.07183662 4.87236794 -0.36748846 3.35639456 0 0 Z " fill="#EBDDCC" transform="translate(156,56)"/>
<path d="M0 0 C0.66 0 1.32 0 2 0 C1.48914188 6.43681228 0.27057103 11.95942424 -2 18 C-3.65 18.33 -5.3 18.66 -7 19 C-6.7834375 17.9790625 -6.7834375 17.9790625 -6.5625 16.9375 C-5.93705965 13.89928051 -5.93705965 13.89928051 -5.625 10.375 C-4.97285475 6.85341565 -4.60732151 6.19015007 -2 4 C-0.82425289 1.90010348 -0.82425289 1.90010348 0 0 Z " fill="#CCBCAE" transform="translate(94,86)"/>
<path d="M0 0 C1.9375 0.6875 1.9375 0.6875 4 2 C4.75 4.625 4.75 4.625 5 7 C5.66 7 6.32 7 7 7 C6.67522284 10.00418869 6.42029035 11.57970965 4.25 13.75 C1.81308412 15.10384216 -0.25094301 15.61818653 -3 16 C-3 14.35 -3 12.7 -3 11 C-2.01 10.67 -1.02 10.34 0 10 C0 9.34 0 8.68 0 8 C0.66 8 1.32 8 2 8 C1.67 7.4225 1.34 6.845 1 6.25 C0 4 0 4 0 0 Z " fill="#4F3832" transform="translate(86,120)"/>
<path d="M0 0 C1 3 1 3 0.875 5.9375 C1.01526735 9.37404996 1.7111791 10.52044403 4 13 C2.1875 13.6875 2.1875 13.6875 0 14 C-1.02104551 13.02149805 -2.0206121 12.02019573 -3 11 C-4.32 11 -5.64 11 -7 11 C-7.35475877 7.18634321 -7.2619932 5.41557542 -5.1875 2.125 C-3 0 -3 0 0 0 Z " fill="#4B322D" transform="translate(238,153)"/>
<path d="M0 0 C0.99 0 1.98 0 3 0 C2.41632611 6.30367803 0.95928381 11.98660063 -1 18 C-2.32 18 -3.64 18 -5 18 C-4.85915204 16.20793453 -4.71216299 14.41635083 -4.5625 12.625 C-4.48128906 11.62726563 -4.40007812 10.62953125 -4.31640625 9.6015625 C-4 7 -4 7 -3 5 C-2.34 5 -1.68 5 -1 5 C-0.67 3.35 -0.34 1.7 0 0 Z " fill="#CCBBAD" transform="translate(125,108)"/>
<path d="M0 0 C0.99 0 1.98 0 3 0 C3.02578125 0.62648438 3.0515625 1.25296875 3.078125 1.8984375 C3.13484375 2.71570313 3.1915625 3.53296875 3.25 4.375 C3.29640625 5.18710938 3.3428125 5.99921875 3.390625 6.8359375 C3.59171875 7.55007812 3.7928125 8.26421875 4 9 C5.3290873 9.67509196 6.66257692 10.34157633 8 11 C8.828125 13.1640625 8.828125 13.1640625 9.25 15.625 C9.39953125 16.44226563 9.5490625 17.25953125 9.703125 18.1015625 C9.85007813 19.04128906 9.85007813 19.04128906 10 20 C7.18412167 19.65719742 6.18346813 19.21208242 4.296875 17.03125 C0.59633842 10.9758265 -0.68629222 7.09168629 0 0 Z " fill="#CAB9AC" transform="translate(223,76)"/>
<path d="M0 0 C1.65 0.33 3.3 0.66 5 1 C4.01 1.495 4.01 1.495 3 2 C3.33 5.63 3.66 9.26 4 13 C3.34 12.67 2.68 12.34 2 12 C1.59270772 9.67843403 1.25561323 7.3431213 1 5 C0.87537678 10.73266804 1.3583034 16.30494264 2 22 C-2.02279807 16.95221503 -3.70394065 11.476254 -3 5 C-1.5 2.125 -1.5 2.125 0 0 Z " fill="#381F1A" transform="translate(220,74)"/>
<path d="M0 0 C4.03167286 1.72412792 5.91302696 4.13098994 8.53515625 7.5390625 C10.00921817 9.35308104 10.00921817 9.35308104 13 9 C13.33 8.34 13.66 7.68 14 7 C15.32 7.99 16.64 8.98 18 10 C18.33 9.34 18.66 8.68 19 8 C19 9.32 19 10.64 19 12 C15.93570224 13.53214888 13.3834358 13.22938548 10 13 C5.4367221 11.08979065 3.42296434 8.24018759 1 4 C0.25 1.625 0.25 1.625 0 0 Z " fill="#3D241F" transform="translate(258,147)"/>
<path d="M0 0 C2.21227286 1.63890857 2.90028517 2.55927568 3.51171875 5.26171875 C3.59873047 6.46248047 3.59873047 6.46248047 3.6875 7.6875 C3.78611328 8.89986328 3.78611328 8.89986328 3.88671875 10.13671875 C3.92410156 10.75160156 3.96148437 11.36648437 4 12 C1.3475813 9.52151039 0.25749873 7.41321083 -1 4 C-2.18424326 2.58422523 -2.18424326 2.58422523 -5.5625 2.9375 C-7.2640625 2.9684375 -7.2640625 2.9684375 -9 3 C-9.66 5.64 -10.32 8.28 -11 11 C-11.33 11 -11.66 11 -12 11 C-12.61363636 2.86931818 -12.61363636 2.86931818 -10.5 -0.125 C-6.90649661 -1.38272619 -3.61913636 -1.17417566 0 0 Z " fill="#321914" transform="translate(262,189)"/>
<path d="M0 0 C0.66 0 1.32 0 2 0 C2.33848652 1.89492006 2.67056911 3.79098466 3 5.6875 C3.185625 6.74324219 3.37125 7.79898438 3.5625 8.88671875 C3.95068074 11.64904062 4.08259976 14.21742043 4 17 C3.34 17 2.68 17 2 17 C2 17.66 2 18.32 2 19 C1.34 19 0.68 19 0 19 C0 16.36 0 13.72 0 11 C-0.66 11 -1.32 11 -2 11 C-1.85957123 9.35369672 -1.71250671 7.70795821 -1.5625 6.0625 C-1.48128906 5.14597656 -1.40007812 4.22945312 -1.31640625 3.28515625 C-1 1 -1 1 0 0 Z " fill="#E8D9C9" transform="translate(74,231)"/>
<path d="M0 0 C3.63 0.66 7.26 1.32 11 2 C11 1.34 11 0.68 11 0 C12.45792884 -0.05399736 13.91642712 -0.09279177 15.375 -0.125 C16.18710938 -0.14820313 16.99921875 -0.17140625 17.8359375 -0.1953125 C20 0 20 0 22 2 C21.34 2 20.68 2 20 2 C20 2.66 20 3.32 20 4 C17.95999027 4.22397733 15.91783811 4.42848537 13.875 4.625 C12.73804688 4.74101562 11.60109375 4.85703125 10.4296875 4.9765625 C6.78101434 5.00149649 4.30884564 4.52187262 1 3 C0.67 2.01 0.34 1.02 0 0 Z " fill="#D5C5B7" transform="translate(174,248)"/>
<path d="M0 0 C6.47523838 -0.57557674 12.22388058 1.01996387 18 4 C20.2494298 6.43809165 20.95976885 7.40994306 21.1875 10.75 C21.0946875 11.86375 21.0946875 11.86375 21 13 C19.35 13.33 17.7 13.66 16 14 C16.99 13.34 17.98 12.68 19 12 C18.67 11.01 18.34 10.02 18 9 C17.34 8.67 16.68 8.34 16 8 C15.67 7.34 15.34 6.68 15 6 C9.60053173 3.63181216 4.8568666 2.52293452 -1 2 C-0.67 1.34 -0.34 0.68 0 0 Z " fill="#3E2620" transform="translate(250,224)"/>
<path d="M0 0 C3.35595828 0.59927826 5.37801226 1.84622436 8 4 C7.49396008 6.16874252 7.00016187 7.99967627 6 10 C3.625 10.125 3.625 10.125 1 10 C-1 8 -1 8 -1.1875 5 C-1 2 -1 2 0 0 Z " fill="#200303" transform="translate(239,154)"/>
<path d="M0 0 C2.73044194 1.07562864 3.67097665 2.24916752 5.0625 4.8125 C5.0625 6.9375 5.0625 6.9375 4.0625 8.8125 C1.5 10.0625 1.5 10.0625 -0.9375 10.8125 C-3.34564077 7.30062804 -4.30379408 5.08593092 -3.9375 0.8125 C-1.9375 -0.1875 -1.9375 -0.1875 0 0 Z " fill="#200403" transform="translate(81.9375,121.1875)"/>
<path d="M0 0 C0.66 0.66 1.32 1.32 2 2 C1.63307264 5.79158274 0.27971015 8.81932223 -1.4375 12.1875 C-1.86933594 13.04730469 -2.30117187 13.90710938 -2.74609375 14.79296875 C-4 17 -4 17 -6 19 C-6.99 19 -7.98 19 -9 19 C-8.36548223 15.31979695 -8.36548223 15.31979695 -6.5 13.6875 C-4.22895037 11.13256917 -4.4295181 8.31342536 -4 5 C-3.34 4.67 -2.68 4.34 -2 4 C-0.86649466 1.98330173 -0.86649466 1.98330173 0 0 Z " fill="#B5A397" transform="translate(101,44)"/>
<path d="M0 0 C0.99 0 1.98 0 3 0 C3.0272616 2.04159095 3.04651345 4.08328963 3.0625 6.125 C3.07410156 7.26195312 3.08570312 8.39890625 3.09765625 9.5703125 C3.005327 12.8129156 2.61389906 15.81932612 2 19 C0.68 19.33 -0.64 19.66 -2 20 C-1.835 19.28972656 -1.67 18.57945312 -1.5 17.84765625 C-0.99303179 14.96031385 -0.93488006 12.36382749 -1 9.4375 C-1.07460455 6.07563227 -0.97235531 3.22852348 0 0 Z " fill="#D4C4B5" transform="translate(63,190)"/>
<path d="M0 0 C-1.15173355 2.46800047 -2.04783565 4.04783565 -4 6 C-3.67 6.99 -3.34 7.98 -3 9 C0.465 8.505 0.465 8.505 4 8 C4.33 8.66 4.66 9.32 5 10 C1.60535554 12.08901197 -1.04841529 12.34361606 -5 12 C-7 10 -7 10 -7.4375 7.125 C-7 4 -7 4 -4.625 1.625 C-2 0 -2 0 0 0 Z " fill="#351C17" transform="translate(192,282)"/>
<path d="M0 0 C1.32 0 2.64 0 4 0 C4.1875 2.3125 4.1875 2.3125 4 5 C3.505 5.45375 3.01 5.9075 2.5 6.375 C0.60131895 8.08407763 0.60131895 8.08407763 0.8125 11.6875 C0.874375 12.780625 0.93625 13.87375 1 15 C-2.75 16.125 -2.75 16.125 -5 15 C-3.33333333 10 -1.66666667 5 0 0 Z " fill="#AE9C90" transform="translate(141,54)"/>
<path d="M0 0 C0.99 0.33 1.98 0.66 3 1 C2.96519531 2.15628906 2.96519531 2.15628906 2.9296875 3.3359375 C2.91164063 4.33882812 2.89359375 5.34171875 2.875 6.375 C2.85179688 7.37273437 2.82859375 8.37046875 2.8046875 9.3984375 C2.72783152 12.16262173 2.72783152 12.16262173 5 14 C3.68 15.32 2.36 16.64 1 18 C0.34 17.67 -0.32 17.34 -1 17 C-1.10477512 11.21408489 -0.99250545 5.70690634 0 0 Z " fill="#D3C3B4" transform="translate(105,181)"/>
<path d="M0 0 C1.32 0 2.64 0 4 0 C4.19335938 0.77085938 4.38671875 1.54171875 4.5859375 2.3359375 C4.84632813 3.33882813 5.10671875 4.34171875 5.375 5.375 C5.75785156 6.87160156 5.75785156 6.87160156 6.1484375 8.3984375 C6.82404319 11.12541015 6.82404319 11.12541015 9 13 C9 13.99 9 14.98 9 16 C7.1328125 15.78125 7.1328125 15.78125 5 15 C3.8046875 12.96875 3.8046875 12.96875 2.875 10.5 C1.75643513 7.03422644 1.75643513 7.03422644 -1 5 C-0.67 3.35 -0.34 1.7 0 0 Z " fill="#C5B4A6" transform="translate(189,105)"/>
<path d="M0 0 C2.66280693 4.08931064 3.34568576 7.16039934 3 12 C2.67 11.01 2.34 10.02 2 9 C1.34 9 0.68 9 0 9 C-0.45375 8.030625 -0.9075 7.06125 -1.375 6.0625 C-2.65786221 2.92920418 -2.65786221 2.92920418 -5 2 C-4.649375 2.763125 -4.29875 3.52625 -3.9375 4.3125 C-3 7 -3 7 -4 10 C-4.67154933 8.71086513 -5.33708859 7.41859796 -6 6.125 C-6.37125 5.40570313 -6.7425 4.68640625 -7.125 3.9453125 C-8 2 -8 2 -8 0 C-4.98451521 -0.96926297 -2.90823905 -1.40721244 0 0 Z " fill="#49312B" transform="translate(91,118)"/>
<path d="M0 0 C0.99 0 1.98 0 3 0 C3.02694851 1.95825873 3.04637218 3.91662226 3.0625 5.875 C3.07410156 6.96554688 3.08570313 8.05609375 3.09765625 9.1796875 C3 12 3 12 2 14 C1.01 14 0.02 14 -1 14 C-1.94602608 10.9148254 -2.01578237 8.50740993 -1.625 5.3125 C-1.53476562 4.52488281 -1.44453125 3.73726562 -1.3515625 2.92578125 C-1 1 -1 1 0 0 Z " fill="#1C0000" transform="translate(30,133)"/>
<path d="M0 0 C0.33 0 0.66 0 1 0 C1.09796875 0.67546875 1.1959375 1.3509375 1.296875 2.046875 C2.18226799 7.32870217 2.73941395 10.44951162 7 14 C7 14.99 7 15.98 7 17 C5.125 16.75 5.125 16.75 3 16 C1.75 13.9375 1.75 13.9375 1 12 C0.34 12 -0.32 12 -1 12 C-2.42857143 3.42857143 -2.42857143 3.42857143 0 0 Z " fill="#321914" transform="translate(66,235)"/>
<path d="M0 0 C0.99 0 1.98 0 3 0 C3.25287193 6.06892629 2.69832609 11.16200408 1 17 C0.34 17 -0.32 17 -1 17 C-1.02684679 14.35409986 -1.04676357 11.70846904 -1.0625 9.0625 C-1.07087891 8.30775391 -1.07925781 7.55300781 -1.08789062 6.77539062 C-1.09652441 4.85005687 -1.05224333 2.92464419 -1 1 C-0.67 0.67 -0.34 0.34 0 0 Z " fill="#CDBDAE" transform="translate(41,154)"/>
<path d="M0 0 C6.6 0.33 13.2 0.66 20 1 C20 1.99 20 2.98 20 4 C6.3667426 4.3690205 6.3667426 4.3690205 0 2 C0 1.34 0 0.68 0 0 Z " fill="#CAB9AB" transform="translate(208,225)"/>
<path d="M0 0 C0.99 0.33 1.98 0.66 3 1 C4.6691198 4.61642624 3.65669883 8.20574012 3 12 C2.67 12 2.34 12 2 12 C2 10.35 2 8.7 2 7 C1.01 7 0.02 7 -1 7 C-1.33 8.65 -1.66 10.3 -2 12 C-2.33 12 -2.66 12 -3 12 C-3.08090971 10.37581255 -3.13914995 8.75048255 -3.1875 7.125 C-3.22230469 6.22007813 -3.25710937 5.31515625 -3.29296875 4.3828125 C-3.19628906 3.59648438 -3.09960938 2.81015625 -3 2 C-2.01 1.34 -1.02 0.68 0 0 Z " fill="#664F48" transform="translate(126,101)"/>
<path d="M0 0 C0.99 0.33 1.98 0.66 3 1 C4.09765625 4.01953125 4.09765625 4.01953125 5.0625 7.8125 C6.53082939 13.6001337 6.53082939 13.6001337 9 19 C8.01 19 7.02 19 6 19 C3.06206929 15.2060796 2.22493493 11.33657322 1.3125 6.6875 C1.06113281 5.43324219 0.80976563 4.17898437 0.55078125 2.88671875 C0.36902344 1.93410156 0.18726563 0.98148437 0 0 Z " fill="#B9A79A" transform="translate(258,97)"/>
<path d="M0 0 C0 0.33 0 0.66 0 1 C-1.01320312 1.19916016 -1.01320312 1.19916016 -2.046875 1.40234375 C-3.38492188 1.66724609 -3.38492188 1.66724609 -4.75 1.9375 C-5.63171875 2.11152344 -6.5134375 2.28554687 -7.421875 2.46484375 C-9.63235053 2.92368488 -11.81512068 3.43336074 -14 4 C-14 4.99 -14 5.98 -14 7 C-12.35 7 -10.7 7 -9 7 C-10.32 7.33 -11.64 7.66 -13 8 C-13 8.66 -13 9.32 -13 10 C-13.66 10 -14.32 10 -15 10 C-15.33 7.69 -15.66 5.38 -16 3 C-10.28132947 -1.01523676 -6.79976087 -1.41854422 0 0 Z " fill="#331915" transform="translate(221,217)"/>
<path d="M0 0 C6.46326465 -0.45356243 9.60931587 0.40621058 15 4 C14.67 5.65 14.34 7.3 14 9 C12.9790625 7.7934375 12.9790625 7.7934375 11.9375 6.5625 C8.46268648 3.5312797 6.5485792 3.16540288 2 3 C-0.32158065 3.34659295 -0.32158065 3.34659295 -2 4 C-1.34 2.68 -0.68 1.36 0 0 Z " fill="#321814" transform="translate(194,280)"/>
<path d="M0 0 C3.16115776 1.36983503 3.9927092 1.9890638 6 5 C6.31884766 6.90112305 6.31884766 6.90112305 6.4140625 9.01171875 C6.45273438 9.76904297 6.49140625 10.52636719 6.53125 11.30664062 C6.5621875 12.09232422 6.593125 12.87800781 6.625 13.6875 C6.66367188 14.48478516 6.70234375 15.28207031 6.7421875 16.10351562 C6.83632494 18.06863475 6.91924632 20.0342854 7 22 C6.67 22 6.34 22 6 22 C5.08342019 16.61509359 4.88861841 11.45769811 5 6 C3.68 6 2.36 6 1 6 C0.67 6.66 0.34 7.32 0 8 C-0.38063221 5.6739143 -0.71269945 3.33944736 -1 1 C-0.67 0.67 -0.34 0.34 0 0 Z " fill="#937F75" transform="translate(109,231)"/>
<path d="M0 0 C0.99 0 1.98 0 3 0 C2.57730231 3.41943506 2.08008783 6.72174346 1 10 C-1.625 11.625 -1.625 11.625 -4 12 C-3.814375 10.906875 -3.62875 9.81375 -3.4375 8.6875 C-2.7421932 5.06375867 -2.7421932 5.06375867 -4 2 C-2.68 2.33 -1.36 2.66 0 3 C0 2.01 0 1.02 0 0 Z " fill="#E0D1C1" transform="translate(145,218)"/>
<path d="M0 0 C1.134375 0.020625 2.26875 0.04125 3.4375 0.0625 C-0.78627622 4.73882368 -0.78627622 4.73882368 -4.5625 5.0625 C-6.90364367 4.78936657 -9.24000658 4.46447001 -11.5625 4.0625 C-11.5625 3.0725 -11.5625 2.0825 -11.5625 1.0625 C-10.428125 1.083125 -9.29375 1.10375 -8.125 1.125 C-4.04050174 1.05334214 -4.08449826 0.07165786 0 0 Z " fill="#ECDECD" transform="translate(256.5625,234.9375)"/>
<path d="M0 0 C2.86724686 0.57344937 3.8614515 0.8614515 6 3 C8.60280568 2.67958603 8.60280568 2.67958603 11 2 C11 3.32 11 4.64 11 6 C8.1875 6.625 8.1875 6.625 5 7 C4.01 6.34 3.02 5.68 2 5 C2 4.34 2 3.68 2 3 C1.34 3 0.68 3 0 3 C0 2.01 0 1.02 0 0 Z " fill="#48302A" transform="translate(232,163)"/>
<path d="M0 0 C0.99 0 1.98 0 3 0 C2.896875 0.763125 2.79375 1.52625 2.6875 2.3125 C2.790625 3.199375 2.89375 4.08625 3 5 C5.40858714 6.8624438 5.40858714 6.8624438 8 8 C7.67 8.66 7.34 9.32 7 10 C3.64404172 9.40072174 1.62198774 8.15377564 -1 6 C-0.67 4.02 -0.34 2.04 0 0 Z " fill="#CBBAAC" transform="translate(234,157)"/>
<path d="M0 0 C1.875 0.5625 1.875 0.5625 4 2 C5.25 5.625 5.25 5.625 6 9 C5.01 9 4.02 9 3 9 C3 9.66 3 10.32 3 11 C2.34 11 1.68 11 1 11 C1.020625 10.113125 1.04125 9.22625 1.0625 8.3125 C1.00713781 5.37830369 0.6694266 2.84506304 0 0 Z " fill="#C6B5A7" transform="translate(86,120)"/>
<path d="M0 0 C-0.33 1.32 -0.66 2.64 -1 4 C-1.99 4 -2.98 4 -4 4 C-4 4.66 -4 5.32 -4 6 C-5.65 6.33 -7.3 6.66 -9 7 C-8.3125 4.625 -8.3125 4.625 -7 2 C-4.52858057 0.7025048 -2.79207427 0 0 0 Z " fill="#D9C9BA" transform="translate(263,199)"/>
<path d="M0 0 C2 2 2 2 2.1953125 4.3828125 C2.17210937 5.28773438 2.14890625 6.19265625 2.125 7.125 C2.10695313 8.03507813 2.08890625 8.94515625 2.0703125 9.8828125 C2.04710937 10.58148438 2.02390625 11.28015625 2 12 C0.68 12 -0.64 12 -2 12 C-2.28571429 3.42857143 -2.28571429 3.42857143 0 0 Z " fill="#C1B0A3" transform="translate(53,126)"/>
<path d="M0 0 C0.66 0 1.32 0 2 0 C2.33 3.3 2.66 6.6 3 10 C2.67 9.34 2.34 8.68 2 8 C0.68 8.99 -0.64 9.98 -2 11 C-1.85957123 9.35369672 -1.71250671 7.70795821 -1.5625 6.0625 C-1.48128906 5.14597656 -1.40007812 4.22945312 -1.31640625 3.28515625 C-1 1 -1 1 0 0 Z " fill="#DDCEBE" transform="translate(74,231)"/>
<path d="M0 0 C0.86625 0.37125 0.86625 0.37125 1.75 0.75 C0.1 2.07 -1.55 3.39 -3.25 4.75 C-2.59 5.41 -1.93 6.07 -1.25 6.75 C-3.23 7.41 -5.21 8.07 -7.25 8.75 C-6.89947365 5.59526281 -6.38480924 3.9266466 -4.4375 1.375 C-2.25 -0.25 -2.25 -0.25 0 0 Z " fill="#3B231D" transform="translate(214.25,183.25)"/>
<path d="M0 0 C0.78375 0.185625 1.5675 0.37125 2.375 0.5625 C4.97089775 1.25962266 4.97089775 1.25962266 7 0 C7 0.66 7 1.32 7 2 C7.99 2.33 8.98 2.66 10 3 C9.67 3.99 9.34 4.98 9 6 C5.65626525 5.44271087 2.96687001 4.64826111 0 3 C0 2.01 0 1.02 0 0 Z " fill="#7E6A60" transform="translate(163,71)"/>
<path d="M0 0 C2.97 0 5.94 0 9 0 C9.33 0.66 9.66 1.32 10 2 C6.5980513 4.09350689 3.94727588 4.17942163 0 4 C0 2.68 0 1.36 0 0 Z " fill="#D9C9BA" transform="translate(187,290)"/>
<path d="M0 0 C1.32 1.32 2.64 2.64 4 4 C3.34 5.98 2.68 7.96 2 10 C1.01 9.67 0.02 9.34 -1 9 C-0.67 6.03 -0.34 3.06 0 0 Z " fill="#442B26" transform="translate(108,184)"/>
<path d="M0 0 C0.66 0 1.32 0 2 0 C1.67 2.97 1.34 5.94 1 9 C0.01 9.33 -0.98 9.66 -2 10 C-2.66 10.66 -3.32 11.32 -4 12 C-3.33501617 7.61110675 -1.81242323 4.0188515 0 0 Z " fill="#DDCEBF" transform="translate(94,86)"/>
<path d="M0 0 C1.98 0 3.96 0 6 0 C5.45144652 4.571279 4.58255197 8.67435795 3 13 C2.67 13 2.34 13 2 13 C2.33 10.03 2.66 7.06 3 4 C2.34 3.67 1.68 3.34 1 3 C1.33 2.34 1.66 1.68 2 1 C1.34 0.67 0.68 0.34 0 0 Z " fill="#4A312D" transform="translate(93,82)"/>
<path d="M0 0 C1.98 1.65 3.96 3.3 6 5 C5.67 6.32 5.34 7.64 5 9 C1.125 7.125 1.125 7.125 0 6 C-0.04080783 4.00041636 -0.04254356 1.99954746 0 0 Z " fill="#ECDECD" transform="translate(271,148)"/>
<path d="M0 0 C0.33 0 0.66 0 1 0 C1 1.65 1 3.3 1 5 C1.99 4.67 2.98 4.34 4 4 C3.34 5.65 2.68 7.3 2 9 C1.01 8.67 0.02 8.34 -1 8 C-1.33 8.66 -1.66 9.32 -2 10 C-2.66 10 -3.32 10 -4 10 C-2.66666667 6.66666667 -1.33333333 3.33333333 0 0 Z " fill="#482F2A" transform="translate(101,51)"/>
<path d="M0 0 C0.66 0.66 1.32 1.32 2 2 C1.6442194 5.37991574 0.64284201 8.04288438 -1 11 C-1.66 10.34 -2.32 9.68 -3 9 C-2.6442194 5.62008426 -1.64284201 2.95711562 0 0 Z " fill="#C8B7A9" transform="translate(101,44)"/>
<path d="M0 0 C0.99 0 1.98 0 3 0 C3.33 1.32 3.66 2.64 4 4 C3.01 3.67 2.02 3.34 1 3 C1 7.62 1 12.24 1 17 C0.67 17 0.34 17 0 17 C-0.19561869 14.9174133 -0.38119313 12.83388144 -0.5625 10.75 C-0.66691406 9.58984375 -0.77132812 8.4296875 -0.87890625 7.234375 C-0.98198087 4.48128523 -0.86213473 2.580018 0 0 Z " fill="#88736A" transform="translate(49,111)"/>
<path d="M0 0 C1.53166168 4.08443115 0.63081652 7.79455657 0 12 C-1.32 12 -2.64 12 -4 12 C-4 11.34 -4 10.68 -4 10 C-3.34 10 -2.68 10 -2 10 C-2.04125 8.906875 -2.0825 7.81375 -2.125 6.6875 C-2 3 -2 3 0 0 Z " fill="#EDDFCE" transform="translate(124,114)"/>
<path d="M0 0 C2 2 2 2 2.1953125 3.9453125 C2.13020833 5.96354167 2.06510417 7.98177083 2 10 C0.68 10.33 -0.64 10.66 -2 11 C-1.855625 10.29875 -1.71125 9.5975 -1.5625 8.875 C-0.98521625 5.92443859 -0.48304859 2.96729849 0 0 Z " fill="#AE9B90" transform="translate(63,199)"/>
<path d="M0 0 C0.66 0 1.32 0 2 0 C3.12880057 3.31114834 4.21302675 6.58978257 5 10 C3.68 9.67 2.36 9.34 1 9 C0.67 6.03 0.34 3.06 0 0 Z " fill="#D2C2B4" transform="translate(193,111)"/>
<path d="M0 0 C2.16874252 0.50603992 3.99967627 0.99983813 6 2 C6 3.65 6 5.3 6 7 C5.01 6.67 4.02 6.34 3 6 C2.67 5.34 2.34 4.68 2 4 C1.01 3.34 0.02 2.68 -1 2 C-0.67 1.34 -0.34 0.68 0 0 Z " fill="#DFD0C0" transform="translate(55,77)"/>
<path d="M0 0 C0.99 0 1.98 0 3 0 C3 2.97 3 5.94 3 9 C2.01 8.67 1.02 8.34 0 8 C-0.38063221 5.6739143 -0.71269945 3.33944736 -1 1 C-0.67 0.67 -0.34 0.34 0 0 Z " fill="#B09E92" transform="translate(41,154)"/>
<path d="M0 0 C2.475 0.495 2.475 0.495 5 1 C5.66 3.97 6.32 6.94 7 10 C5.68 9.67 4.36 9.34 3 9 C1.90341064 5.71023192 2.20046862 4.28696233 3 1 C2.01 0.67 1.02 0.34 0 0 Z " fill="#B19F92" transform="translate(226,86)"/>
<path d="M0 0 C0.33 0.66 0.66 1.32 1 2 C1.66 2.33 2.32 2.66 3 3 C2.34 3 1.68 3 1 3 C1 3.66 1 4.32 1 5 C1.66 5.66 2.32 6.32 3 7 C1.35 7.33 -0.3 7.66 -2 8 C-2.33 7.01 -2.66 6.02 -3 5 C-1.5625 2.3125 -1.5625 2.3125 0 0 Z " fill="#938075" transform="translate(54,74)"/>
<path d="M0 0 C2.0625 2.3125 2.0625 2.3125 4 5 C3.67 5.99 3.34 6.98 3 8 C1.0625 7.6875 1.0625 7.6875 -1 7 C-1.33 6.01 -1.66 5.02 -2 4 C-1.34 4 -0.68 4 0 4 C0 2.68 0 1.36 0 0 Z " fill="#D5C5B6" transform="translate(165,65)"/>
<path d="M0 0 C0.33 0 0.66 0 1 0 C1 1.98 1 3.96 1 6 C-0.32 6.33 -1.64 6.66 -3 7 C-3.66 6.01 -4.32 5.02 -5 4 C-4.67 3.01 -4.34 2.02 -4 1 C-4 1.66 -4 2.32 -4 3 C-2.68 3 -1.36 3 0 3 C0 2.01 0 1.02 0 0 Z " fill="#624C44" transform="translate(124,123)"/>
<path d="M0 0 C0.99 0 1.98 0 3 0 C3 1.65 3 3.3 3 5 C3.66 5.33 4.32 5.66 5 6 C4.34 6 3.68 6 3 6 C3 6.66 3 7.32 3 8 C2.34 8 1.68 8 1 8 C0.67 5.36 0.34 2.72 0 0 Z " fill="#D5C5B6" transform="translate(263,136)"/>
<path d="M0 0 C0.66 0 1.32 0 2 0 C3 3 4 6 5 9 C4.01 9 3.02 9 2 9 C0.14223235 5.86501708 -0.20140476 3.62528568 0 0 Z " fill="#DECFC0" transform="translate(262,107)"/>
<path d="M0 0 C0.99 0 1.98 0 3 0 C3 1.32 3 2.64 3 4 C4.32 4.33 5.64 4.66 7 5 C4.3333581 6.33332095 2.83319697 5.67102033 0 5 C0 3.35 0 1.7 0 0 Z " fill="#D8C8B9" transform="translate(156,56)"/>
<path d="M0 0 C1.2065625 0.0309375 1.2065625 0.0309375 2.4375 0.0625 C-0.09038007 2.86122437 -1.76661134 4.52023019 -5.5625 5.0625 C-3.15007962 0.07683121 -3.15007962 0.07683121 0 0 Z " fill="#F8EBD9" transform="translate(257.5625,234.9375)"/>
<path d="M0 0 C0 0.99 0 1.98 0 3 C-2.64 3 -5.28 3 -8 3 C-8 2.34 -8 1.68 -8 1 C-5.10765685 0.17361624 -3.11257569 0 0 0 Z " fill="#E8DAC9" transform="translate(228,226)"/>
<path d="M0 0 C2.97 0.495 2.97 0.495 6 1 C6 1.66 6 2.32 6 3 C3.36 3.33 0.72 3.66 -2 4 C-1.34 2.68 -0.68 1.36 0 0 Z " fill="#C3B2A4" transform="translate(150,260)"/>
<path d="M0 0 C0.99 0.33 1.98 0.66 3 1 C2.50168276 4.68754757 1.89932357 6.60490662 -1 9 C-1.66 8.67 -2.32 8.34 -3 8 C-2.505 7.4225 -2.01 6.845 -1.5 6.25 C0.36980013 3.89599371 0.36980013 3.89599371 0 0 Z " fill="#462F29" transform="translate(262,198)"/>
<path d="M0 0 C0.33 0.99 0.66 1.98 1 3 C3.01508358 3.73323796 3.01508358 3.73323796 5 4 C4.34 4.66 3.68 5.32 3 6 C1.68 6 0.36 6 -1 6 C-0.67 4.02 -0.34 2.04 0 0 Z " fill="#4E3731" transform="translate(86,102)"/>
<path d="M0 0 C0.33 0 0.66 0 1 0 C1.33 2.64 1.66 5.28 2 8 C0.35 7.67 -1.3 7.34 -3 7 C-2.690625 6.401875 -2.38125 5.80375 -2.0625 5.1875 C-0.89790296 2.91043228 -0.89790296 2.91043228 0 0 Z " fill="#E3D4C4" transform="translate(139,62)"/>
<path d="M0 0 C0.33 0 0.66 0 1 0 C1 2.64 1 5.28 1 8 C2.98 8.495 2.98 8.495 5 9 C4.01 9.66 3.02 10.32 2 11 C1.34 10.67 0.68 10.34 0 10 C0 6.7 0 3.4 0 0 Z " fill="#B3A195" transform="translate(104,188)"/>
<path d="M0 0 C0 0.66 0 1.32 0 2 C-1.32 2 -2.64 2 -4 2 C-4.33 2.99 -4.66 3.98 -5 5 C-5.66 4.67 -6.32 4.34 -7 4 C-7 3.01 -7 2.02 -7 1 C-4.53721199 -0.231394 -2.7204945 -0.07159196 0 0 Z " fill="#CFBFB0" transform="translate(230,190)"/>
<path d="M0 0 C0.99 0.33 1.98 0.66 3 1 C3 1.99 3 2.98 3 4 C1.68 4.33 0.36 4.66 -1 5 C-1 1 -1 1 0 0 Z " fill="#AB998C" transform="translate(126,101)"/>
<path d="M0 0 C0.66 0.33 1.32 0.66 2 1 C2 1.66 2 2.32 2 3 C2.66 3.33 3.32 3.66 4 4 C3.34 4.66 2.68 5.32 2 6 C1.01 6 0.02 6 -1 6 C-0.67 4.02 -0.34 2.04 0 0 Z " fill="#AE9C90" transform="translate(112,251)"/>
</svg>
