<?xml version="1.0" encoding="UTF-8"?>
<svg version="1.1" xmlns="http://www.w3.org/2000/svg" width="320" height="320">
<path d="M0 0 C3.36162776 3.8039472 3.14991009 6.87679817 2.90234375 11.828125 C2.375 14.6875 2.375 14.6875 0.125 17.875 C-4.54967427 20.95603532 -9.06260625 20.95220131 -14.5625 21.0625 C-15.61727539 21.11857422 -15.61727539 21.11857422 -16.69335938 21.17578125 C-20.63667055 21.24230384 -22.45424498 20.81396888 -25.65234375 18.4453125 C-27.625 15.6875 -27.625 15.6875 -27.8515625 13.40625 C-26.45620507 8.25973686 -24.99764356 5.07629876 -20.625 1.6875 C-19.965 1.6875 -19.305 1.6875 -18.625 1.6875 C-18.625 1.0275 -18.625 0.3675 -18.625 -0.3125 C-12.63262646 -3.70817834 -6.1590262 -2.22999224 0 0 Z " fill="#A62A1C" transform="translate(243.625,61.3125)"/>
<path d="M0 0 C1.31677734 0.00966797 1.31677734 0.00966797 2.66015625 0.01953125 C4.9375 0.1875 4.9375 0.1875 6.9375 1.1875 C6.9375 1.8475 6.9375 2.5075 6.9375 3.1875 C7.9275 3.5175 8.9175 3.8475 9.9375 4.1875 C11.90787837 8.58801169 12.20815662 12.53049173 12.1875 17.3125 C12.19265625 18.51132813 12.1978125 19.71015625 12.203125 20.9453125 C11.95371241 23.98961319 11.64761431 25.69408158 9.9375 28.1875 C5.84622774 29.99247306 2.75376408 28.67774856 -1.1953125 27.171875 C-3.25343637 26.08683898 -4.57884835 24.97525416 -6.0625 23.1875 C-6.0625 22.5275 -6.0625 21.8675 -6.0625 21.1875 C-6.7225 21.1875 -7.3825 21.1875 -8.0625 21.1875 C-10.00023248 17.9271882 -10.33322187 15.45888064 -10.3125 11.6875 C-10.31765625 10.7490625 -10.3228125 9.810625 -10.328125 8.84375 C-10.05201592 6.08265924 -9.5801783 4.49437102 -8.0625 2.1875 C-4.79122414 0.00664943 -3.78873277 -0.06137859 0 0 Z " fill="#401B15" transform="translate(192.0625,200.8125)"/>
<path d="M0 0 C0.66 0.66 1.32 1.32 2 2 C2.825 2.268125 3.65 2.53625 4.5 2.8125 C7 4 7 4 8.5 6.1875 C9.22332287 10.25619112 7.97676531 12.44182245 6 16 C2.80645161 19 2.80645161 19 0 19 C-0.33 19.99 -0.66 20.98 -1 22 C-5.4300545 23.53525897 -9.1962422 24.80018336 -13.6328125 22.83203125 C-16.25506806 21.05716053 -18.75684414 19.24315586 -21 17 C-21.591133 9.78817734 -21.591133 9.78817734 -19.3125 6.75 C-18.549375 6.1725 -17.78625 5.595 -17 5 C-15.7625 3.9171875 -15.7625 3.9171875 -14.5 2.8125 C-9.86992916 -0.54430136 -5.57548799 -0.26978168 0 0 Z " fill="#661F16" transform="translate(84,105)"/>
<path d="M0 0 C1.40017468 0.19945885 2.79643608 0.42822316 4.1875 0.68359375 C5.23550781 0.83538086 5.23550781 0.83538086 6.3046875 0.99023438 C16.0010184 2.4995689 16.0010184 2.4995689 19.0625 6.68359375 C20.46343669 10.96423365 20.68684513 14.81969377 19.1875 19.12109375 C17.4921875 20.93359375 17.4921875 20.93359375 15.1875 22.12109375 C11.09753755 22.01148968 7.17423174 21.01169085 3.1875 20.12109375 C1.90875 19.85296875 0.63 19.58484375 -0.6875 19.30859375 C-4.83338391 17.73315786 -6.8740375 16.50032563 -9.8125 13.12109375 C-10.30693028 10.17834003 -10.02338378 7.84171772 -8.8125 5.12109375 C-5.97811893 1.3152299 -4.8262345 0.15329228 0 0 Z " fill="#4B1E17" transform="translate(172.8125,38.87890625)"/>
<path d="M0 0 C4.23238241 4.13832947 5.78443126 7.07185961 6 13 C5.74375389 15.81870716 5.47530532 17.3893136 3.73828125 19.62109375 C1.51155561 21.38746263 0.24944538 21.37272288 -2.5625 21.3125 C-3.34753906 21.30863281 -4.13257813 21.30476563 -4.94140625 21.30078125 C-7 21 -7 21 -9 19 C-9.94875 18.731875 -10.8975 18.46375 -11.875 18.1875 C-15.65027587 16.75289517 -16.90142985 15.4198921 -19 12 C-20.60517371 6.84051308 -19.82041338 2.96476375 -18 -2 C-12.40999002 -5.99286427 -5.32467187 -3.35685835 0 0 Z " fill="#5E2018" transform="translate(191,90)"/>
<path d="M0 0 C2.76158842 1.32965369 3.48381822 3.04403191 4.6875 5.8125 C5.07534466 9.43238349 4.93867784 12.04102522 3.8125 15.5 C-0.20135575 19.8680195 -5.48551842 21.44327681 -11.2734375 22.19921875 C-15.42786084 22.36071778 -18.39367281 22.28212278 -22.125 20.375 C-24.01410499 16.29851029 -22.80929431 12.9117608 -21.3125 8.8125 C-19.8125 6.25 -19.8125 6.25 -18.3125 4.8125 C-17.6525 4.8125 -16.9925 4.8125 -16.3125 4.8125 C-16.3125 4.1525 -16.3125 3.4925 -16.3125 2.8125 C-10.52819866 -0.6580808 -6.5632548 -0.53215579 0 0 Z " fill="#A52A1B" transform="translate(115.3125,189.1875)"/>
<path d="M0 0 C0.99 0.66 1.98 1.32 3 2 C4.60267949 10.02910998 2.10181599 20.01751935 -2 27 C-5.15796107 28.57898053 -8.60670636 28.81928171 -12 28 C-14.77734375 26.0703125 -14.77734375 26.0703125 -17 23 C-17.49421339 19.75402744 -17.15727793 16.74332302 -16.75 13.5 C-16.69070312 12.65824219 -16.63140625 11.81648438 -16.5703125 10.94921875 C-16.18830919 7.48390304 -15.84018182 4.94204243 -13.47558594 2.29077148 C-8.69399515 -1.35830351 -5.8222822 -1.45557055 0 0 Z " fill="#A32A1B" transform="translate(182,256)"/>
<path d="M0 0 C2.94180342 1.79975149 4.86164076 3.34665161 6.4375 6.4375 C7.1875 9.9375 7.1875 9.9375 6.125 12.625 C5.485625 13.388125 4.84625 14.15125 4.1875 14.9375 C3.630625 15.659375 3.07375 16.38125 2.5 17.125 C-0.71143572 19.64207124 -3.76612846 20.83846293 -7.8125 20.9375 C-11.11608501 20.0960208 -14.07301235 18.98761986 -16.8125 16.9375 C-17.1726489 15.61115854 -17.50885688 14.27790656 -17.8125 12.9375 C-18.8025 12.6075 -19.7925 12.2775 -20.8125 11.9375 C-20.8125 9.9575 -20.8125 7.9775 -20.8125 5.9375 C-20.1525 5.9375 -19.4925 5.9375 -18.8125 5.9375 C-18.503125 5.15375 -18.19375 4.37 -17.875 3.5625 C-16.8125 0.9375 -16.8125 0.9375 -15.8125 -1.0625 C-9.9703621 -3.0098793 -5.44801654 -2.71067707 0 0 Z " fill="#671C13" transform="translate(128.8125,69.0625)"/>
<path d="M0 0 C2.16863531 2.70311483 1.79061351 5.0265969 1.66015625 8.375 C1.04866766 13.47073824 -0.74662064 17.21605231 -4.55859375 20.59375 C-7.80441205 22.84595045 -9.75532553 23.89828619 -13.69140625 23.51953125 C-19.17974399 22.21526848 -19.17974399 22.21526848 -21.12109375 20.03125 C-22.40912387 14.07411069 -21.722629 9.7703454 -18.8203125 4.515625 C-16.35183731 0.81693253 -13.88346876 -0.93935677 -9.62109375 -2.09375 C-5.89293346 -2.32676002 -3.01283809 -2.38123107 0 0 Z " fill="#551F17" transform="translate(233.62109375,250.28125)"/>
<path d="M0 0 C2.02408755 0.09002398 4.04544287 0.24641038 6.0625 0.4375 C7.71958984 0.59025391 7.71958984 0.59025391 9.41015625 0.74609375 C10.26480469 0.82988281 11.11945313 0.91367188 12 1 C12 1.66 12 2.32 12 3 C12.99 3.33 13.98 3.66 15 4 C17.29293284 7.43939927 17.27019638 8.82562681 17.25 12.875 C17.25515625 13.90367188 17.2603125 14.93234375 17.265625 15.9921875 C16.99347137 19.07392711 16.38702999 21.24540712 15 24 C12.9375 25.5 12.9375 25.5 10 26 C6.89031241 25.25910128 3.96003527 24.19949142 1 23 C1 22.34 1 21.68 1 21 C0.34 21 -0.32 21 -1 21 C-1 20.34 -1 19.68 -1 19 C-1.66 19 -2.32 19 -3 19 C-4.21160137 12.26888129 -3.84980837 7.23395581 -1 1 C-0.67 0.67 -0.34 0.34 0 0 Z " fill="#5D1D14" transform="translate(233,104)"/>
<path d="M0 0 C1.25683594 -0.05414063 1.25683594 -0.05414063 2.5390625 -0.109375 C6.13236353 -0.109375 8.63415622 0.02059453 11.58105469 2.18994141 C14.05383872 4.8477882 15.53740222 6.70195508 15.84375 10.3671875 C15.6065625 11.11226562 15.369375 11.85734375 15.125 12.625 C14.9084375 13.38554687 14.691875 14.14609375 14.46875 14.9296875 C13.625 16.75 13.625 16.75 11.625 17.75 C4.05939474 18.31479345 -4.95993169 18.42046592 -11.62890625 14.38671875 C-13.375 12.75 -13.375 12.75 -13.875 9.375 C-12.66723204 0.61868228 -7.69770093 -0.0938744 0 0 Z " fill="#4A1B15" transform="translate(49.375,179.25)"/>
<path d="M0 0 C2.26980722 5.18813079 2.15030575 8.39442999 0.12109375 13.65234375 C-2.48926946 19.11864441 -5.14223167 24.67326168 -11 27 C-13.375 27.5 -13.375 27.5 -16 27 C-19.46833345 24.57049106 -21.59492131 21.95193492 -23.25 18.0625 C-22.86161549 13.30478978 -20.46658265 11.11602935 -17 8 C-4.37486218 -2.18743109 -4.37486218 -2.18743109 0 0 Z " fill="#451B15" transform="translate(90,51)"/>
<path d="M0 0 C5.6762048 1.7317235 8.78643215 3.99061482 12 9 C12.9690255 11.9410774 13.05164288 13.79814153 13 17 C11.5625 19.5 11.5625 19.5 9 21 C2.37837506 21.65130737 -3.34041593 20.90796249 -8.875 16.9375 C-11.66207594 13.08477737 -12.12332429 9.70394079 -12 5 C-10.03218023 -0.90345932 -5.41843207 -0.62865786 0 0 Z " fill="#A92A1C" transform="translate(64,225)"/>
<path d="M0 0 C3.96696873 0.27838377 6.26167567 1.04945045 9.5625 3.25 C10.87680737 6.48042917 10.42999614 8.57504795 9.3125 11.8125 C9.05984375 12.57691406 8.8071875 13.34132812 8.546875 14.12890625 C6.79247603 17.90921831 5.09643637 19.05224579 1.1875 20.5 C-4.9219833 21.76403103 -8.93812662 19.73010956 -14.4375 17.25 C-14.24725707 7.3746626 -14.24725707 7.3746626 -11.1875 3.125 C-7.29314697 0.4697593 -4.62711533 0.33651748 0 0 Z " fill="#561F17" transform="translate(240.4375,193.75)"/>
<path d="M0 0 C0 0.66 0 1.32 0 2 C0.75667969 2.05800781 1.51335937 2.11601563 2.29296875 2.17578125 C5 3 5 3 6.80078125 5.29296875 C7.29964844 6.24816406 7.79851562 7.20335937 8.3125 8.1875 C8.82425781 9.12980469 9.33601563 10.07210937 9.86328125 11.04296875 C11.11936995 14.31052596 11.35707051 16.52927466 11 20 C9 23.375 9 23.375 7 26 C3.26701983 26 1.0569512 25.85959516 -1.8828125 23.46875 C-6.00419996 18.97269095 -9.53910494 13.99396648 -11 8 C-10.5625 4.0625 -10.5625 4.0625 -9 1 C-5.74374738 -1.0565806 -3.60159019 -1.33392229 0 0 Z " fill="#3C1B15" transform="translate(151,47)"/>
<path d="M0 0 C2.13818444 1.76953195 2.82689815 3.22183574 3.42578125 5.9140625 C3.99788709 12.26331558 1.54235089 15.95269975 -2.17578125 20.93359375 C-4.2008176 23.22747861 -5.86846344 24.82746868 -8.97265625 25.30078125 C-10.98423929 25.31206115 -12.99469096 25.15915151 -15 25 C-17.49532277 21.25701585 -17.13847778 19.69667247 -16.5390625 15.41015625 C-15.10215253 8.98571093 -11.96469587 4.31144641 -7 0 C-4.24438552 -1.37780724 -2.90228766 -0.92023755 0 0 Z " fill="#451B15" transform="translate(278,120)"/>
<path d="M0 0 C4.31743771 0.08476645 5.31649934 0.18957088 8.75 3.0625 C11.6011619 8.12101304 13.04873764 11.49677311 12 17.3125 C10.6875 20.5 10.6875 20.5 7.6875 22.5 C3.26601891 22.74839781 -0.41791047 22.01391313 -4.25 19.8125 C-7.2394841 16.46065419 -8.34980898 13.71242276 -8.2734375 9.18359375 C-7.7172979 2.76739057 -6.9742458 0.22649783 0 0 Z " fill="#601D14" transform="translate(120.3125,232.5)"/>
<path d="M0 0 C5.19531463 1.76320115 9.18695971 4.1615707 12 9 C12.75 12.8125 12.75 12.8125 13 16 C9.24561837 18.50292109 6.34397628 18.61734152 2 18 C-3.16353256 16.33323575 -8.25063498 13.98370033 -12 10 C-12.8125 6.75 -12.8125 6.75 -13 4 C-8.98547984 -0.01452016 -5.51836099 -1.00611002 0 0 Z " fill="#A82A1C" transform="translate(252,163)"/>
<path d="M0 0 C6.86451613 -0.65376344 6.86451613 -0.65376344 10.0625 1.1875 C11.38135516 3.73728665 10.7975116 5.31746098 10 8 C11.65 8.33 13.3 8.66 15 9 C16.73456895 18.80632545 16.73456895 18.80632545 14 23.25 C11 25 11 25 7.375 25 C2.38231098 23.52068474 2.38231098 23.52068474 1 21 C0.75320444 18.3132938 0.85356511 15.69006323 1 13 C1 12.01 1 11.02 1 10 C0.34 9.67 -0.32 9.34 -1 9 C-1.75 6.125 -1.75 6.125 -2 3 C-1.34 2.01 -0.68 1.02 0 0 Z " fill="#361B16" transform="translate(123,93)"/>
<path d="M0 0 C2 2 2 2 2.1953125 3.9453125 C2.13020833 5.96354167 2.06510417 7.98177083 2 10 C0.3125 11.125 0.3125 11.125 -2 12 C-4.625 11.125 -4.625 11.125 -7 10 C-7.66 10 -8.32 10 -9 10 C-9.556875 10.639375 -10.11375 11.27875 -10.6875 11.9375 C-13.78810719 14.70290642 -15.88606103 14.92782563 -20 15 C-22.875 13.9375 -22.875 13.9375 -25 12 C-26.0625 9.125 -26.0625 9.125 -26 6 C-24.625 3.0625 -24.625 3.0625 -22 1 C-18.89035884 0.83176461 -16.01317899 1.22989746 -13 2 C-12.67 2.33 -12.34 2.66 -12 3 C-11.401875 2.360625 -10.80375 1.72125 -10.1875 1.0625 C-6.42424228 -2.48571442 -4.41820862 -2.15246061 0 0 Z " fill="#411E18" transform="translate(96,83)"/>
<path d="M0 0 C2.48405661 1.009148 3.48035649 1.56921672 5 3.8125 C6.44846338 9.91673854 6.06429055 14.29677701 3 19.8125 C0.58800175 22.79576099 -1.04322393 24.44801388 -4.625 25.8125 C-7 25.8125 -7 25.8125 -8.6171875 24.59375 C-10.84682235 21.72167799 -10.52438368 19.18517911 -10.42578125 15.65625 C-9.67480428 10.64055061 -7.65215572 6.11571603 -5 1.8125 C-2 -0.1875 -2 -0.1875 0 0 Z " fill="#A62A1C" transform="translate(158,241.1875)"/>
<path d="M0 0 C0.86625 0.2475 1.7325 0.495 2.625 0.75 C5 2 5 2 6.3125 4.125 C7.20520476 7.85812901 7.73752025 11.19716122 7 15 C4.43282044 18.65628605 2.69402715 19.78083353 -1.5625 21.125 C-5 21 -5 21 -7.3125 19.25 C-9.69519761 14.66110089 -11.03906773 10.20382111 -11 5 C-7.79742322 0.55197669 -5.29088208 -1.66284865 0 0 Z " fill="#5B1E15" transform="translate(111,101)"/>
<path d="M0 0 C2.5625 0.375 2.5625 0.375 4.4375 1.9375 C6.04729787 5.42539538 5.51146433 7.71470903 4.5625 11.375 C3.5725 12.035 2.5825 12.695 1.5625 13.375 C1.68625 14.5196875 1.68625 14.5196875 1.8125 15.6875 C1.5625 18.375 1.5625 18.375 0.2265625 19.8125 C-2.71579119 22.07387226 -4.9527731 23.27995551 -8.625 24 C-11.4375 23.375 -11.4375 23.375 -13.875 21.3125 C-15.92312148 17.46203161 -15.66435696 15.51564223 -14.4375 11.375 C-11.79038832 8.53880891 -9.22019337 7.90037408 -5.4375 7.375 C-5.31375 6.59125 -5.19 5.8075 -5.0625 5 C-4.25306886 1.60038919 -3.50310658 0.53893947 0 0 Z " fill="#4B201A" transform="translate(225.4375,125.625)"/>
<path d="M0 0 C3.6669405 1.2223135 5.25340524 1.90017596 7.375 5.125 C8.11943922 9.59163531 7.72449703 11.54614555 5.375 15.4375 C2.7436134 18.20306495 0.11080953 19.43625446 -3.625 20.13671875 C-7.23786711 20.11554961 -9.09215585 18.53429077 -11.625 16.125 C-12.6875 13.6875 -12.6875 13.6875 -12.625 11.125 C-10.19632301 5.55332926 -6.28244743 0.21663612 0 0 Z " fill="#491C15" transform="translate(207.625,112.875)"/>
<path d="M0 0 C2.4375 2.375 2.4375 2.375 4 5 C4 5.99 4 6.98 4 8 C4.66 8 5.32 8 6 8 C6.6662304 11.02772034 7.11425358 13.89437986 7 17 C4.590147 20.57826658 3.16480807 21.76228407 -1.0625 22.625 C-4 22 -4 22 -6.3125 19.8125 C-9.07380684 15.21032193 -9.12062462 10.97684028 -9.0625 5.6875 C-9.05347656 4.61886719 -9.04445312 3.55023438 -9.03515625 2.44921875 C-9.02355469 1.64097656 -9.01195312 0.83273438 -9 0 C-5.77839187 -1.61080407 -3.42436421 -0.82657067 0 0 Z " fill="#501E17" transform="translate(154,85)"/>
<path d="M0 0 C1.75 0.875 1.75 0.875 3.75 3.875 C4.513125 3.813125 5.27625 3.75125 6.0625 3.6875 C8.75 3.875 8.75 3.875 11.5 6.5 C13.7603839 9.54254849 14.83420927 12.00137343 14.75 15.875 C13.25 18.25 13.25 18.25 10.75 19.875 C7.25 20.4375 7.25 20.4375 3.75 19.875 C0.48292401 16.86585106 -0.74869716 14.26139981 -1.25 9.875 C-1.848125 10.08125 -2.44625 10.2875 -3.0625 10.5 C-5.25 10.875 -5.25 10.875 -8.25 8.875 C-8.4375 5.75 -8.4375 5.75 -8.25 2.875 C-2.90587045 -0.16143725 -2.90587045 -0.16143725 0 0 Z " fill="#441E18" transform="translate(257.25,212.125)"/>
<path d="M0 0 C1.81640625 0.75 1.81640625 0.75 3.12890625 2.4375 C4.37646754 6.63384251 3.15161034 9.91198976 1.56640625 13.875 C-0.38707491 17.08429048 -1.96864646 18.80607838 -5.18359375 20.75 C-8.18359375 21.3125 -8.18359375 21.3125 -11.18359375 20.75 C-14.05859375 18.25 -14.05859375 18.25 -16.18359375 15.75 C-15.12484301 12.34687262 -14.17457221 9.73646769 -12.18359375 6.75 C-11.52359375 6.75 -10.86359375 6.75 -10.18359375 6.75 C-10.18359375 6.09 -10.18359375 5.43 -10.18359375 4.75 C-8.57421875 3.42578125 -8.57421875 3.42578125 -6.43359375 2.0625 C-5.7375 1.60488281 -5.04140625 1.14726562 -4.32421875 0.67578125 C-2.18359375 -0.25 -2.18359375 -0.25 0 0 Z " fill="#521D15" transform="translate(246.18359375,141.25)"/>
<path d="M0 0 C3.84396765 0.94285999 6.03260251 3.19565847 8.0703125 6.5078125 C9.16094525 9.49976222 9.17559784 11.19132419 9.0703125 14.5078125 C7.5703125 17.5703125 7.5703125 17.5703125 5.0703125 19.5078125 C0.20189612 19.88230607 -2.68739612 18.27458311 -6.4296875 15.3828125 C-9.40410422 12.5809925 -9.90138622 12.06440439 -10.1171875 7.8203125 C-8.0273661 1.99081071 -6.78369453 -0.37548125 0 0 Z " fill="#521C15" transform="translate(246.9296875,228.4921875)"/>
<path d="M0 0 C2.15114091 1.84383507 2.89072985 3.29566832 3.32421875 6.08984375 C3.51502188 10.04407404 3.31702214 12.42692152 1.375 15.9375 C-1.39643396 18.34427159 -3.3935828 19.32379677 -7 20 C-9.3125 19.25 -9.3125 19.25 -11 18 C-12.34283649 15.31432703 -12.24287519 13.12253147 -12.3125 10.125 C-12.34988281 9.07570312 -12.38726562 8.02640625 -12.42578125 6.9453125 C-11.90263078 3.32645509 -10.82289842 2.23632212 -8 0 C-5.05693933 -1.1956184 -2.93848714 -1.2322688 0 0 Z " fill="#491D17" transform="translate(54,155)"/>
<path d="M0 0 C3.7094303 2.06079461 5.64380056 3.46570083 8 7 C8.55429864 13.2081448 8.55429864 13.2081448 6.76953125 15.7578125 C5 17 5 17 2.7734375 16.9609375 C1.98195313 16.76757812 1.19046875 16.57421875 0.375 16.375 C-0.42164063 16.19710937 -1.21828125 16.01921875 -2.0390625 15.8359375 C-3.00972656 15.42214844 -3.00972656 15.42214844 -4 15 C-4.33 14.01 -4.66 13.02 -5 12 C-5.66 12 -6.32 12 -7 12 C-7 11.34 -7 10.68 -7 10 C-7.66 10 -8.32 10 -9 10 C-11.17364926 7.18230651 -12.08677021 5.7809319 -11.6875 2.1875 C-11.460625 1.465625 -11.23375 0.74375 -11 0 C-7.13794776 -1.28735075 -3.8863526 -0.9624049 0 0 Z " fill="#551A12" transform="translate(275,194)"/>
<path d="M0 0 C1.52519276 0.08937803 3.04681929 0.24537146 4.5625 0.4375 C5.38878906 0.53933594 6.21507813 0.64117187 7.06640625 0.74609375 C7.70449219 0.82988281 8.34257813 0.91367188 9 1 C11.03690127 5.07380254 11.27875769 7.61568793 10 12 C8.25720585 14.70433576 7.06397049 16.55381883 4.0625 17.8125 C3.381875 17.874375 2.70125 17.93625 2 18 C1.175 18.103125 0.35 18.20625 -0.5 18.3125 C-3.81053344 17.89868332 -4.89582075 16.49384207 -7 14 C-5.7092507 8.62187793 -4.03624947 4.03624947 0 0 Z " fill="#441C16" transform="translate(87,247)"/>
<path d="M0 0 C0.79148438 -0.01417969 1.58296875 -0.02835938 2.3984375 -0.04296875 C4.625 0.1875 4.625 0.1875 7.625 2.1875 C8.62996852 5.20240557 8.72835303 7.22931692 8.6875 10.375 C8.67847656 11.27605469 8.66945312 12.17710937 8.66015625 13.10546875 C8.64855469 13.79253906 8.63695312 14.47960937 8.625 15.1875 C7.965 15.1875 7.305 15.1875 6.625 15.1875 C6.295 16.8375 5.965 18.4875 5.625 20.1875 C3.4375 20.5625 3.4375 20.5625 0.625 20.1875 C-3.82431577 15.53594261 -5.51649351 12.95025961 -5.5 6.625 C-5.50257813 5.63371094 -5.50515625 4.64242187 -5.5078125 3.62109375 C-5.28368259 -0.48575729 -3.69089574 0.02986162 0 0 Z " fill="#A82A1C" transform="translate(190.375,204.8125)"/>
<path d="M0 0 C2.25 -0.3125 2.25 -0.3125 5 0 C8.17866744 3.09037112 9.58167111 5.60754668 10 10 C10.12375 11.155 10.2475 12.31 10.375 13.5 C10 17 10 17 7.875 20 C5 22 5 22 1.8125 22 C-1 21 -1 21 -3 18 C-3.81799049 11.32859703 -3.1520273 5.91005119 0 0 Z " fill="#3E1C16" transform="translate(93,152)"/>
<path d="M0 0 C5.27698237 0.77857117 7.56071859 3.50236615 10.8125 7.5625 C12.19375018 10.32500036 12.00329306 12.50981099 11.8125 15.5625 C9.4183839 17.9566161 8.77463689 17.85848923 5.5 17.875 C1.50565921 17.77851834 -1.09042629 17.2724395 -4.1875 14.5625 C-5.90318478 10.99915468 -5.37407195 6.41832026 -5.1875 2.5625 C-3.1875 0.5625 -3.1875 0.5625 0 0 Z " fill="#AA2C1E" transform="translate(181.1875,89.4375)"/>
<path d="M0 0 C1.875 0.75 1.875 0.75 2.875 2.75 C3.24914872 8.36223087 3.03577934 11.89594602 -0.125 16.75 C-2.33795687 18.96295687 -3.52988708 19.66073306 -6.625 20.125 C-9.55706287 19.68519057 -10.93307418 18.69837851 -13.125 16.75 C-11.97995141 10.22322306 -9.96679145 6.30842961 -5.125 1.75 C-2.125 -0.25 -2.125 -0.25 0 0 Z " fill="#441C15" transform="translate(133.125,268.25)"/>
<path d="M0 0 C2 2 2 2 2.3125 5.75 C2.23200938 9.75989658 1.07510554 12.54149077 -1 16 C-2.60332791 16.08121924 -4.20784026 16.13929134 -5.8125 16.1875 C-7.15248047 16.23970703 -7.15248047 16.23970703 -8.51953125 16.29296875 C-11 16 -11 16 -12.79296875 14.6640625 C-14.73641635 11.98474639 -14.50554647 10.22285877 -14 7 C-10.19978646 0.91965833 -7.04943777 -0.37764845 0 0 Z " fill="#AA2C1D" transform="translate(230,252)"/>
<path d="M0 0 C1.64453125 1.09765625 1.64453125 1.09765625 4.01953125 3.03515625 C3.68953125 5.67515625 3.35953125 8.31515625 3.01953125 11.03515625 C2.35953125 11.03515625 1.69953125 11.03515625 1.01953125 11.03515625 C0.68953125 8.39515625 0.35953125 5.75515625 0.01953125 3.03515625 C-2.25123717 3.008159 -4.52209696 2.98876172 -6.79296875 2.97265625 C-8.05753906 2.96105469 -9.32210937 2.94945312 -10.625 2.9375 C-13.97652112 2.87356509 -13.97652112 2.87356509 -16.98046875 4.03515625 C-18.47033181 5.74780482 -18.47033181 5.74780482 -19.73046875 7.84765625 C-20.1790625 8.53472656 -20.62765625 9.22179687 -21.08984375 9.9296875 C-22.15338787 11.99390547 -22.15338787 11.99390547 -21.80859375 14.234375 C-21.5353125 14.82863281 -21.26203125 15.42289063 -20.98046875 16.03515625 C-15.08405006 18.00062915 -9.6246861 17.52525214 -3.98046875 15.03515625 C-2.99046875 15.36515625 -2.00046875 15.69515625 -0.98046875 16.03515625 C-2.484375 18.49609375 -2.484375 18.49609375 -4.98046875 21.03515625 C-7.87036408 21.55175163 -10.04634471 21.73868745 -12.91796875 21.66015625 C-13.97274414 21.68916016 -13.97274414 21.68916016 -15.04882812 21.71875 C-18.95530394 21.68213823 -20.85810377 21.12641684 -24.0078125 18.77734375 C-25.98046875 16.03515625 -25.98046875 16.03515625 -26.20703125 13.75390625 C-24.81167382 8.60739311 -23.35311231 5.42395501 -18.98046875 2.03515625 C-18.32046875 2.03515625 -17.66046875 2.03515625 -16.98046875 2.03515625 C-16.98046875 1.37515625 -16.98046875 0.71515625 -16.98046875 0.03515625 C-11.81209127 -2.89359099 -5.29387973 -2.57906961 0 0 Z " fill="#401C16" transform="translate(241.98046875,60.96484375)"/>
<path d="M0 0 C2 2 2 2 2 5.3125 C0.71486105 10.05144988 -0.80232664 11.51248986 -5 14 C-9.02095879 14.06932688 -11.13408339 13.59948073 -14.4375 11.3125 C-16.4218681 8.37563521 -16.31577173 6.473489 -16 3 C-10.68497165 0.28594297 -5.99879395 -0.94074773 0 0 Z " fill="#A82A1C" transform="translate(85,110)"/>
<path d="M0 0 C2.2028705 1.99781607 2.93809506 2.66726094 3.5 5.6875 C2.6192736 11.52231243 -0.45888873 15.63012332 -4.8125 19.5 C-5.534375 19.995 -6.25625 20.49 -7 21 C-9.7801924 19.98059612 -10.82814217 19.30279713 -12.3125 16.6875 C-13.12871615 13.49683685 -13.08928188 12.1109152 -12 9 C-9.99312294 7.18891582 -8.14285694 5.70226516 -5.9375 4.1875 C-5.36966797 3.78080078 -4.80183594 3.37410156 -4.21679688 2.95507812 C-2.82011523 1.95744838 -1.41120009 0.97698467 0 0 Z " fill="#A62A1B" transform="translate(83,52)"/>
<path d="M0 0 C0.99 0.66 1.98 1.32 3 2 C4.60267949 10.02910998 2.10181599 20.01751935 -2 27 C-5.15796107 28.57898053 -8.60670636 28.81928171 -12 28 C-14.77734375 26.0703125 -14.77734375 26.0703125 -17 23 C-17.49421339 19.75402744 -17.15727793 16.74332302 -16.75 13.5 C-16.69070312 12.65824219 -16.63140625 11.81648438 -16.5703125 10.94921875 C-16.18830919 7.48390304 -15.84018182 4.94204243 -13.47558594 2.29077148 C-8.69399515 -1.35830351 -5.8222822 -1.45557055 0 0 Z M-9.75 3.5 C-11.35875 4.2425 -11.35875 4.2425 -13 5 C-13.24858198 7.77034137 -13.47452879 10.53939069 -13.6875 13.3125 C-13.76033203 14.09818359 -13.83316406 14.88386719 -13.90820312 15.69335938 C-13.96298828 16.45068359 -14.01777344 17.20800781 -14.07421875 17.98828125 C-14.13182373 18.68477783 -14.18942871 19.38127441 -14.2487793 20.09887695 C-14.14219091 22.10142814 -14.14219091 22.10142814 -12.71411133 23.75073242 C-10.88209114 25.34357507 -10.88209114 25.34357507 -7.5 25 C-3.87707911 24.34006076 -3.87707911 24.34006076 -2.125 21.5625 C-1.568125 20.2940625 -1.568125 20.2940625 -1 19 C-0.67 18.34 -0.34 17.68 0 17 C0.12244289 14.83589316 0.17551142 12.66753477 0.1875 10.5 C0.20876953 8.75203125 0.20876953 8.75203125 0.23046875 6.96875 C0.31443714 3.88093282 0.31443714 3.88093282 -2 2 C-5.54065105 2 -6.74583192 2.11346089 -9.75 3.5 Z " fill="#551E16" transform="translate(182,256)"/>
<path d="M0 0 C2.390625 0.8515625 2.390625 0.8515625 4.390625 2.8515625 C4.515625 5.9765625 4.515625 5.9765625 4.390625 8.8515625 C2.47427283 8.90579888 0.55747575 8.94446213 -1.359375 8.9765625 C-2.96039063 9.01136719 -2.96039063 9.01136719 -4.59375 9.046875 C-7.59410918 8.85255122 -9.04859818 8.30855621 -11.609375 6.8515625 C-13.60047901 6.46865788 -15.60038013 6.12551635 -17.609375 5.8515625 C-17.35376177 3.5084412 -17.01666728 1.17312847 -16.609375 -1.1484375 C-11.30298861 -3.8016307 -5.382952 -1.45604439 0 0 Z " fill="#A42A1C" transform="translate(184.609375,44.1484375)"/>
<path d="M0 0 C5.6762048 1.7317235 8.78643215 3.99061482 12 9 C12.9690255 11.9410774 13.05164288 13.79814153 13 17 C11.5625 19.5 11.5625 19.5 9 21 C2.37837506 21.65130737 -3.34041593 20.90796249 -8.875 16.9375 C-11.66207594 13.08477737 -12.12332429 9.70394079 -12 5 C-10.03218023 -0.90345932 -5.41843207 -0.62865786 0 0 Z M-7 2 C-9.35620437 5.53430656 -9.48991613 6.83571287 -9 11 C-6.7241177 15.22481746 -6.7241177 15.22481746 -3 18 C-1.1478437 18.09584979 0.70787153 18.12983606 2.5625 18.125 C4.04943359 18.12886719 4.04943359 18.12886719 5.56640625 18.1328125 C7.94812348 18.27438431 7.94812348 18.27438431 9 17 C9.07148199 15.64756083 9.08399454 14.29165633 9.0625 12.9375 C9.041875 11.638125 9.02125 10.33875 9 9 C8.01 8.67 7.02 8.34 6 8 C5.690625 7.360625 5.38125 6.72125 5.0625 6.0625 C3.69552393 3.40895821 2.82892104 2.91748791 0 2 C-3.58399407 1.58307147 -3.58399407 1.58307147 -7 2 Z " fill="#601C13" transform="translate(64,225)"/>
<path d="M0 0 C0.74362793 0.01047363 1.48725586 0.02094727 2.25341797 0.03173828 C3.46191406 0.04140625 3.46191406 0.04140625 4.69482422 0.05126953 C5.95746094 0.07640625 5.95746094 0.07640625 7.24560547 0.10205078 C8.51984375 0.11558594 8.51984375 0.11558594 9.81982422 0.12939453 C11.9202043 0.15299431 14.02043991 0.18886595 16.12060547 0.22705078 C17.8852323 3.31514773 18.12060547 4.46017214 18.12060547 8.22705078 C10.90682488 9.87069699 3.35253335 9.79071086 -3.87939453 8.22705078 C-4.00439453 5.35205078 -4.00439453 5.35205078 -3.87939453 2.22705078 C-1.87939453 0.22705078 -1.87939453 0.22705078 0 0 Z " fill="#A72A1C" transform="translate(42.87939453125,181.77294921875)"/>
<path d="M0 0 C2.5 1.5 2.5 1.5 4 4 C3.81262812 7.72495298 2.78032797 10.90044695 0.625 13.9375 C-1.33105584 15.21645959 -2.66210054 15.78746369 -5 16 C-7.125 15.4375 -7.125 15.4375 -9 14 C-10.60773413 10.71145291 -11.228013 8.89132355 -10.3125 5.3125 C-7.57467413 0.48871156 -5.74640687 -0.82091527 0 0 Z " fill="#391C17" transform="translate(75,162)"/>
<path d="M0 0 C3.5 1.1875 3.5 1.1875 5.5 3.1875 C6.0625 5.4375 6.0625 5.4375 5.5 8.1875 C3.4811 10.71257953 1.31604942 12.59606526 -1.5 14.1875 C-4.8125 14.1875 -4.8125 14.1875 -7.5 13.1875 C-9.5 11.1875 -9.5 11.1875 -9.875 7.8125 C-9.5 4.1875 -9.5 4.1875 -7.625 1.8125 C-4.03108535 -0.93578767 -4.03108535 -0.93578767 0 0 Z " fill="#391C17" transform="translate(107.5,264.8125)"/>
<path d="M0 0 C2.97 0 5.94 0 9 0 C11.64964989 4.52648522 12.50442453 7.75398486 12 13 C10 15 10 15 7.25 15.625 C2.81515728 14.77214563 1.60579865 12.66198314 -0.99609375 9.140625 C-2 7 -2 7 -1.72265625 4.921875 C-1.48417969 4.28765625 -1.24570313 3.6534375 -1 3 C-0.67 2.01 -0.34 1.02 0 0 Z " fill="#3D1D17" transform="translate(201,79)"/>
<path d="M0 0 C3.1875 -0.375 3.1875 -0.375 7 0 C11.21441915 3.48147669 12.25189652 5.96863224 12.8125 11.375 C12.89657626 12.91564063 12.9664659 14.45743142 13 16 C10.875 16.8125 10.875 16.8125 8 17 C4.43487855 14.55334802 1.21722136 12.26027475 0 8 C-0.14516709 5.30922438 -0.089984 2.69952011 0 0 Z " fill="#A82B1D" transform="translate(145,51)"/>
<path d="M0 0 C2.76158842 1.32965369 3.48381822 3.04403191 4.6875 5.8125 C5.07534466 9.43238349 4.93867784 12.04102522 3.8125 15.5 C-0.20135575 19.8680195 -5.48551842 21.44327681 -11.2734375 22.19921875 C-15.42786084 22.36071778 -18.39367281 22.28212278 -22.125 20.375 C-24.01410499 16.29851029 -22.80929431 12.9117608 -21.3125 8.8125 C-19.8125 6.25 -19.8125 6.25 -18.3125 4.8125 C-17.6525 4.8125 -16.9925 4.8125 -16.3125 4.8125 C-16.3125 4.1525 -16.3125 3.4925 -16.3125 2.8125 C-10.52819866 -0.6580808 -6.5632548 -0.53215579 0 0 Z M-18.3125 7.8125 C-20.39001672 11.25715676 -20.57462259 13.79328693 -20.3125 17.8125 C-19.9825 18.4725 -19.6525 19.1325 -19.3125 19.8125 C-10.34533531 20.35688608 -10.34533531 20.35688608 -2.3125 16.8125 C0.77805367 13.88460705 1.61079797 12.44803108 2.125 8.1875 C1.98434706 4.91802528 1.98434706 4.91802528 0.421875 3.13671875 C-2.30098644 1.05777725 -4.5555749 1.22067961 -7.890625 1.32421875 C-12.17832367 2.18867413 -15.32917051 4.69323943 -18.3125 7.8125 Z " fill="#3D1B15" transform="translate(115.3125,189.1875)"/>
<path d="M0 0 C5.19531463 1.76320115 9.18695971 4.1615707 12 9 C12.75 12.8125 12.75 12.8125 13 16 C9.24561837 18.50292109 6.34397628 18.61734152 2 18 C-3.16353256 16.33323575 -8.25063498 13.98370033 -12 10 C-12.8125 6.75 -12.8125 6.75 -13 4 C-8.98547984 -0.01452016 -5.51836099 -1.00611002 0 0 Z M-9 4 C-9.48254063 7.47429255 -9.14728917 8.77652677 -7.1875 11.75 C-4.49154809 14.52297911 -2.91405561 14.96940912 0.91796875 15.09765625 C1.99691406 15.08605469 3.07585937 15.07445312 4.1875 15.0625 C5.27417969 15.05347656 6.36085938 15.04445312 7.48046875 15.03515625 C8.31191406 15.02355469 9.14335937 15.01195312 10 15 C10 13.35 10 11.7 10 10 C9.34 10 8.68 10 8 10 C7.773125 9.401875 7.54625 8.80375 7.3125 8.1875 C5.53956902 5.23261503 4.18425322 4.35500137 1 3 C-4.35742126 2.22993784 -4.35742126 2.22993784 -9 4 Z " fill="#3E1B16" transform="translate(252,163)"/>
<path d="M0 0 C3.69776918 0.58004222 5.00561799 1.78640884 7.21875 4.765625 C8.61881479 7.27219261 8.98483517 9.66269231 9.1875 12.5 C6.8478331 13.66983345 5.35358473 13.6661241 2.75 13.6875 C1.57630859 13.70876953 1.57630859 13.70876953 0.37890625 13.73046875 C-1.8125 13.5 -1.8125 13.5 -4.8125 11.5 C-5.17578125 9.40625 -5.17578125 9.40625 -5.125 7 C-5.12113281 6.2059375 -5.11726562 5.411875 -5.11328125 4.59375 C-4.61978608 1.1585109 -3.29401961 0.58560349 0 0 Z " fill="#A62B1C" transform="translate(237.8125,107.5)"/>
<path d="M0 0 C0.66 0.66 1.32 1.32 2 2 C1.625 5.625 1.625 5.625 1 9 C0.01 9.33 -0.98 9.66 -2 10 C-2 10.66 -2 11.32 -2 12 C-8.625 13.125 -8.625 13.125 -12 12 C-12 9.03 -12 6.06 -12 3 C-7.81168576 0.60667758 -4.84749424 -0.55085162 0 0 Z " fill="#3C1D17" transform="translate(215,233)"/>
<path d="M0 0 C3.80229258 0.14082565 6.24652695 0.46463757 9.375 2.6875 C11.32731171 5.46578975 11.6953434 7.64877744 12 11 C8.88962372 13.07358419 8.00438748 13.29487123 4.4375 13.3125 C3.65246094 13.32925781 2.86742188 13.34601563 2.05859375 13.36328125 C1.03958984 13.18345703 1.03958984 13.18345703 0 13 C-2.71232939 8.93150591 -2.30699887 6.83523216 -2 2 C-1.34 1.34 -0.68 0.68 0 0 Z " fill="#A92A1C" transform="translate(117,235)"/>
<path d="M0 0 C0.2236337 1.41433206 0.42826476 2.83167618 0.625 4.25 C0.74101562 5.03890625 0.85703125 5.8278125 0.9765625 6.640625 C1 9 1 9 -1 13 C-4.3 13 -7.6 13 -11 13 C-12.44430855 10.11138291 -12.37688506 8.20352299 -12 5 C-8.4762117 0.08805267 -5.9155397 -0.57995487 0 0 Z " fill="#A72A1C" transform="translate(242,198)"/>
<path d="M0 0 C1.33804688 0.04060547 1.33804688 0.04060547 2.703125 0.08203125 C3.37859375 0.11683594 4.0540625 0.15164062 4.75 0.1875 C5.11499693 4.01996777 4.81516845 6.05215013 3.125 9.5625 C0.75 12.1875 0.75 12.1875 -2.25 12.75 C-5.54162179 12.13282091 -7.05308028 11.72240737 -9.25 9.1875 C-9.75 6.1875 -9.75 6.1875 -9.25 3.1875 C-6.25599123 0.24156017 -4.1255784 -0.16285178 0 0 Z " fill="#A62A1C" transform="translate(122.25,71.8125)"/>
<path d="M0 0 C1.45823212 -0.0270043 2.91660675 -0.04639787 4.375 -0.0625 C5.18710938 -0.07410156 5.99921875 -0.08570313 6.8359375 -0.09765625 C9 0 9 0 11 1 C11 1.66 11 2.32 11 3 C11.99 3.33 12.98 3.66 14 4 C14.38133299 5.9914056 14.71325582 7.99279077 15 10 C14.67 10.33 14.34 10.66 14 11 C14.00909546 13.75137602 14.13305113 16.4898616 14.2578125 19.23828125 C13.9587088 22.44231636 13.25873192 23.74126808 11 26 C8.3125 26.25 8.3125 26.25 6 26 C5.67 25.34 5.34 24.68 5 24 C5.99 23.67 6.98 23.34 8 23 C8.73323796 20.98491642 8.73323796 20.98491642 9 19 C9.66 19 10.32 19 11 19 C10.71926927 16.85270859 10.42511501 14.70716807 10.125 12.5625 C9.96257812 11.36753906 9.80015625 10.17257813 9.6328125 8.94140625 C9.42398438 7.97074219 9.21515625 7.00007812 9 6 C6.70370006 4.85185003 4.92301914 4.69230191 2.375 4.4375 C1.55773437 4.35371094 0.74046875 4.26992187 -0.1015625 4.18359375 C-0.72804687 4.12300781 -1.35453125 4.06242188 -2 4 C-1.34 3.67 -0.68 3.34 0 3 C0 2.01 0 1.02 0 0 Z " fill="#611E15" transform="translate(188,201)"/>
<path d="M0 0 C3.6875 0.375 3.6875 0.375 6.125 2.4375 C8.02463258 6.00880924 8.07128392 8.38364724 7.6875 12.375 C7.3575 12.705 7.0275 13.035 6.6875 13.375 C2.9506157 13.16347825 0.39152823 12.84435216 -2.75 10.75 C-4.88054421 7.51157281 -4.67049432 5.16973981 -4.3125 1.375 C-3.3125 0.375 -3.3125 0.375 0 0 Z " fill="#3A1C17" transform="translate(82.3125,212.625)"/>
<path d="M0 0 C2.48405661 1.009148 3.48035649 1.56921672 5 3.8125 C6.44846338 9.91673854 6.06429055 14.29677701 3 19.8125 C0.58800175 22.79576099 -1.04322393 24.44801388 -4.625 25.8125 C-7 25.8125 -7 25.8125 -8.6171875 24.59375 C-10.84682235 21.72167799 -10.52438368 19.18517911 -10.42578125 15.65625 C-9.67480428 10.64055061 -7.65215572 6.11571603 -5 1.8125 C-2 -0.1875 -2 -0.1875 0 0 Z M-2 2.8125 C-2.804375 3.76125 -3.60875 4.71 -4.4375 5.6875 C-5.11619141 6.48800781 -5.11619141 6.48800781 -5.80859375 7.3046875 C-8.08625654 10.18723778 -8.13548217 12.20663378 -8.125 15.8125 C-8.12757813 16.699375 -8.13015625 17.58625 -8.1328125 18.5 C-8.15127902 20.83926966 -8.15127902 20.83926966 -7 22.8125 C-3.80748543 22.53885589 -1.92457381 21.76556815 0.8125 20.0625 C4.23312162 14.98043359 3.39209228 9.76358956 3 3.8125 C1.35 3.4825 -0.3 3.1525 -2 2.8125 Z " fill="#3C1B15" transform="translate(158,241.1875)"/>
<path d="M0 0 C3.68342048 1.05240585 5.10891798 1.53763072 7.0625 4.875 C6.93907445 9.51117237 5.97552441 13.52237124 3.375 17.375 C-0.46250441 19.86419205 -4.10571726 21.0415257 -8.6875 20.625 C-10.9375 19.875 -10.9375 19.875 -13.9375 17.875 C-13.6075 17.215 -13.2775 16.555 -12.9375 15.875 C-11.92429688 15.94460937 -11.92429688 15.94460937 -10.890625 16.015625 C-5.34860613 16.33553442 -5.34860613 16.33553442 -0.375 14.25 C1.34993028 11.40011518 1.8464125 9.18834171 2.0625 5.875 C1.7325 5.215 1.4025 4.555 1.0625 3.875 C-1.2515622 3.14424352 -3.58578869 2.47361742 -5.9375 1.875 C-2.9375 -0.125 -2.9375 -0.125 0 0 Z " fill="#621A11" transform="translate(243.9375,194.125)"/>
<path d="M0 0 C5.75 0.75 5.75 0.75 8 3 C8.47325628 8.0165166 7.97071449 10.91526758 5 15 C2.625 14.75 2.625 14.75 0 14 C-2.65584884 10.7118062 -2.29531041 7.06051813 -2 3 C-1.34 2.01 -0.68 1.02 0 0 Z " fill="#A32A1C" transform="translate(46,157)"/>
<path d="M0 0 C2.91517292 1.07401108 4.77810176 1.77810176 7 4 C6.7767253 10.14005413 6.7767253 10.14005413 4.25 12.9375 C1.64597372 14.16717908 -0.15312226 14.23723981 -3 14 C-4.26014503 10.2195649 -3.81641135 7.87795389 -3 4 C-1.4375 1.5625 -1.4375 1.5625 0 0 Z " fill="#371C16" transform="translate(215,89)"/>
<path d="M0 0 C1.3142384 2.98690546 0.92289169 4.24946808 -0.0625 7.4375 C-1.94286261 11.44836521 -4.37851531 13.48713307 -8 16 C-12.2844309 17.49738696 -15.8705018 16.67362923 -20 15 C-22.20630146 12.51791085 -22.02402995 10.72125255 -22.3125 7.375 C-22.209375 6.26125 -22.10625 5.1475 -22 4 C-21.01 3.34 -20.02 2.68 -19 2 C-18.67 4.97 -18.34 7.94 -18 11 C-13.07115963 11.98576807 -9.4692076 12.5393225 -5 10 C-3.94658029 7.99085676 -3.26554589 6.05421131 -2.640625 3.875 C-2 2 -2 2 0 0 Z " fill="#591B13" transform="translate(234,257)"/>
<path d="M0 0 C3.1875 0.4375 3.1875 0.4375 6.0625 2.625 C8.1875 5.4375 8.1875 5.4375 8.5625 8.1875 C8.1875 10.4375 8.1875 10.4375 7.1875 11.4375 C1.00798118 12.02047347 1.00798118 12.02047347 -2.1875 9.75 C-3.97697015 7.20344633 -4.64918138 5.54055383 -4.8125 2.4375 C-2.8125 0.4375 -2.8125 0.4375 0 0 Z " fill="#A22A1C" transform="translate(244.8125,232.5625)"/>
<path d="M0 0 C1.875 0.25 1.875 0.25 4 1 C5.87380446 3.49840595 6.05001932 4.63319166 5.625 7.75 C5.315625 8.86375 5.315625 8.86375 5 10 C4.01 10 3.02 10 2 10 C1.40058594 10.32355469 0.80117188 10.64710938 0.18359375 10.98046875 C-2.62611657 12.29233708 -4.84584439 12.30080395 -7.9375 12.3125 C-8.95714844 12.32925781 -9.97679687 12.34601563 -11.02734375 12.36328125 C-14.40627814 11.95034971 -16.27384059 11.00438554 -19 9 C-19.33 8.34 -19.66 7.68 -20 7 C-12.74 7 -5.48 7 2 7 C1.34 4.69 0.68 2.38 0 0 Z " fill="#901A0D" transform="translate(59,183)"/>
<path d="M0 0 C2 0 2 0 4.625 1.9375 C7.49082285 5.63290315 7.47058375 7.50010258 7.2734375 12.01171875 C7 14 7 14 6 16 C5.01 16 4.02 16 3 16 C3 16.99 3 17.98 3 19 C1.0625 18.6875 1.0625 18.6875 -1 18 C-1.33 17.01 -1.66 16.02 -2 15 C-1.34 15 -0.68 15 0 15 C-0.08378906 14.00097656 -0.16757813 13.00195312 -0.25390625 11.97265625 C-0.35574219 10.68230469 -0.45757812 9.39195313 -0.5625 8.0625 C-0.66691406 6.77472656 -0.77132812 5.48695312 -0.87890625 4.16015625 C-0.91886719 3.11730469 -0.95882812 2.07445313 -1 1 C-0.67 0.67 -0.34 0.34 0 0 Z " fill="#711E14" transform="translate(150,88)"/>
<path d="M0 0 C-0.928125 0.4021875 -0.928125 0.4021875 -1.875 0.8125 C-4.2995233 1.95556848 -4.2995233 1.95556848 -6 5 C-6.38499891 6.65549531 -6.72793135 8.3222433 -7 10 C-0.85310727 9.63118644 1.69027374 8.09949571 6 4 C6.4375 6.1875 6.4375 6.1875 6 9 C3.05934294 12.15374815 0.02322082 13.79936847 -4.1875 14.625 C-7 14 -7 14 -9.4375 11.9375 C-11.48562148 8.08703161 -11.22685696 6.14064223 -10 2 C-6.90720346 -1.66553664 -4.4210524 -1.1052631 0 0 Z " fill="#3C1D17" transform="translate(221,135)"/>
<path d="M0 0 C0.47297836 4.72978358 0.83439337 8.6327178 -2.25 12.5 C-5.84274194 15.76612903 -5.84274194 15.76612903 -9 16 C-9.97125046 12.41384447 -10.55034575 10.24598277 -9.0234375 6.7890625 C-4.8323556 0 -4.8323556 0 0 0 Z " fill="#A3291B" transform="translate(277,125)"/>
<path d="M0 0 C3.125 0.375 3.125 0.375 5.5 2.0625 C7.39758004 4.76290237 7.48382213 6.14560081 7.125 9.375 C-0.13653846 10.72884615 -0.13653846 10.72884615 -3.875 8.9375 C-4.535 8.421875 -5.195 7.90625 -5.875 7.375 C-4.80957944 0.62733645 -4.80957944 0.62733645 0 0 Z " fill="#3E1D17" transform="translate(218.875,223.625)"/>
<path d="M0 0 C0.621881 8.23992322 0.621881 8.23992322 -1.6875 11.0625 C-4.32821192 12.13305889 -6.17585068 12.30531344 -9 12 C-10 11 -10 11 -10.375 7.6875 C-10 4 -10 4 -7.8125 1.5625 C-4.84843876 -0.08420069 -3.32351429 -0.3798302 0 0 Z " fill="#9E291B" transform="translate(209,117)"/>
<path d="M0 0 C0.66 0 1.32 0 2 0 C4.96760234 3.03998289 6.69357201 5.0987412 8.0625 9.125 C8 12 8 12 6.5 14.375 C3.06104634 16.61031988 1.02392734 16.64670261 -3 16 C-5.5625 13.875 -5.5625 13.875 -7 11 C-6.25 7.6875 -6.25 7.6875 -5 5 C-4.67 5 -4.34 5 -4 5 C-3.34 7.31 -2.68 9.62 -2 12 C-0.35 12 1.3 12 3 12 C3.41986946 9.71163778 3.41986946 9.71163778 3 7 C0.60416349 4.18668622 0.60416349 4.18668622 -2 2 C-1.34 1.34 -0.68 0.68 0 0 Z " fill="#3D1D17" transform="translate(264,216)"/>
<path d="M0 0 C1.8125 0.9375 1.8125 0.9375 3.125 2.625 C4.36734414 6.80379393 3.13457113 10.08994438 1.625 14.0625 C-0.50858861 17.44681296 -2.75308058 18.95316878 -6.1875 20.9375 C-6.5175 19.9475 -6.8475 18.9575 -7.1875 17.9375 C-6.1975 17.2775 -5.2075 16.6175 -4.1875 15.9375 C-1.59457365 12.34729428 -0.69676404 9.31717072 -0.1875 4.9375 C-2.4975 5.2675 -4.8075 5.5975 -7.1875 5.9375 C-7.1875 4.9475 -7.1875 3.9575 -7.1875 2.9375 C-4.73834433 1.03260114 -3.15128101 -0.0900366 0 0 Z " fill="#3E1C16" transform="translate(246.1875,141.0625)"/>
<path d="M0 0 C2 2 2 2 2.4375 5.8125 C2.33873691 9.20748112 2.00001374 9.99998043 -0.0625 12.9375 C-3.58946997 15.41388317 -5.68727828 16.15682624 -10 16 C-13.32448831 13.28791743 -14.20793447 10.80426793 -14.75 6.6875 C-14.8325 5.470625 -14.915 4.25375 -15 3 C-14.34 3 -13.68 3 -13 3 C-12.67 5.31 -12.34 7.62 -12 10 C-10.741875 10.185625 -9.48375 10.37125 -8.1875 10.5625 C-7.47980469 10.66691406 -6.77210937 10.77132812 -6.04296875 10.87890625 C-3.7974658 11.13904799 -3.7974658 11.13904799 -1 10 C-1.01160156 9.36191406 -1.02320312 8.72382812 -1.03515625 8.06640625 C-1.04417969 7.24011719 -1.05320312 6.41382812 -1.0625 5.5625 C-1.07410156 4.73878906 -1.08570312 3.91507812 -1.09765625 3.06640625 C-1 1 -1 1 0 0 Z " fill="#461C16" transform="translate(116,106)"/>
<path d="M0 0 C0.99 0.33 1.98 0.66 3 1 C3.42320237 5.23202372 3.40361534 8.04475835 0.8125 11.4375 C-2 14 -2 14 -4.8125 14.375 C-5.534375 14.25125 -6.25625 14.1275 -7 14 C-7.4375 11.5 -7.4375 11.5 -7 8 C-4.91536818 5.08465023 -2.52494637 2.53782875 0 0 Z " fill="#A32A1C" transform="translate(131,271)"/>
<path d="M0 0 C2.55223881 7.11940299 2.55223881 7.11940299 1 11 C-0.32 11 -1.64 11 -3 11 C-3.20625 12.051875 -3.4125 13.10375 -3.625 14.1875 C-4.91071594 18.69668949 -7.08771569 20.49613804 -11 23 C-13.375 22.8125 -13.375 22.8125 -15 22 C-13.63875 20.9790625 -13.63875 20.9790625 -12.25 19.9375 C-7.97742983 16.35340086 -5.24697472 12.51914217 -4.6875 6.8125 C-4.95097301 4.44124292 -5.29937836 2.27702034 -6 0 C-2.25 -1.125 -2.25 -1.125 0 0 Z " fill="#6E1F16" transform="translate(90,51)"/>
<path d="M0 0 C0.5775 0.226875 1.155 0.45375 1.75 0.6875 C2.06697773 4.72896606 2.10752198 7.06514693 0.0625 10.625 C-2.25 12.6875 -2.25 12.6875 -5 13 C-6.11375 12.8453125 -6.11375 12.8453125 -7.25 12.6875 C-8.40363649 8.64977228 -8.29336367 6.38501521 -6.25 2.6875 C-3.12804878 -0.43445122 -3.12804878 -0.43445122 0 0 Z " fill="#A52A1B" transform="translate(91.25,249.3125)"/>
<path d="M0 0 C2.85561959 2.28449568 3.10417865 5.03130392 3.875 8.5 C2.555 9.82 1.235 11.14 -0.125 12.5 C-2.90617672 11.4802352 -3.94333102 10.83608762 -5.375 8.1875 C-6.13011726 5.48166314 -6.2845955 3.29292118 -6.125 0.5 C-3.80251698 -0.32945822 -2.42149638 -0.56976385 0 0 Z " fill="#391C16" transform="translate(41.125,130.5)"/>
<path d="M0 0 C1.32 0.33 2.64 0.66 4 1 C5.73456895 10.80632545 5.73456895 10.80632545 3 15.25 C0 17 0 17 -3.625 17 C-8.43709677 15.57419355 -8.43709677 15.57419355 -10 13 C-10.1875 10.3125 -10.1875 10.3125 -10 8 C-9.34 7.67 -8.68 7.34 -8 7 C-8 8.65 -8 10.3 -8 12 C-5.03 12 -2.06 12 1 12 C1.08159574 7.83861737 0.98248524 4.0527516 0 0 Z " fill="#391C16" transform="translate(134,101)"/>
<path d="M0 0 C1.546875 0.433125 1.546875 0.433125 3.125 0.875 C3.455 2.525 3.785 4.175 4.125 5.875 C2.26875 5.5346875 2.26875 5.5346875 0.375 5.1875 C-2.34688511 4.87436277 -3.6957752 4.81066289 -6.3125 5.75 C-8.78106738 9.10725164 -8.70412522 12.79963649 -8.875 16.875 C-7.225 17.205 -5.575 17.535 -3.875 17.875 C-4.535 18.535 -5.195 19.195 -5.875 19.875 C-11.5533115 16.61299127 -11.5533115 16.61299127 -12.9375 13.4375 C-12.81140799 8.26772777 -9.116947 4.46191764 -5.5703125 0.96875 C-3.875 -0.125 -3.875 -0.125 0 0 Z " fill="#4C1E16" transform="translate(207.875,113.125)"/>
<path d="M0 0 C7.875 0.875 7.875 0.875 9 2 C11.01594582 2.23427778 13.038474 2.41336124 15.0625 2.5625 C16.16722656 2.64628906 17.27195313 2.73007812 18.41015625 2.81640625 C19.26480469 2.87699219 20.11945313 2.93757813 21 3 C20.34 4.32 19.68 5.64 19 7 C14.38 7 9.76 7 5 7 C4.67 6.01 4.34 5.02 4 4 C3.01 4 2.02 4 1 4 C0.67 2.68 0.34 1.36 0 0 Z " fill="#8D1B0F" transform="translate(168,50)"/>
<path d="M0 0 C4.875 0.875 4.875 0.875 6 2 C7.01518438 15.64642082 7.01518438 15.64642082 3 21 C2.01 21.33 1.02 21.66 0 22 C0.144375 20.7625 0.28875 19.525 0.4375 18.25 C1.07833262 12.50997069 1.5421622 6.75706682 2 1 C1.34 0.67 0.68 0.34 0 0 Z " fill="#8F1A0E" transform="translate(176,258)"/>
<path d="M0 0 C5.875 0.875 5.875 0.875 7 2 C6.39655172 9.60344828 6.39655172 9.60344828 4 12 C1.375 12.125 1.375 12.125 -1 12 C-1.92470553 7.28400182 -2.22923777 4.32734391 0 0 Z " fill="#401E18" transform="translate(93,222)"/>
<path d="M0 0 C0.3125 2.6875 0.3125 2.6875 0 6 C-2.4375 8.8125 -2.4375 8.8125 -5 11 C-5.33 11.33 -5.66 11.66 -6 12 C-7.66617115 12.04063832 -9.33388095 12.042721 -11 12 C-10.43453326 8.04173281 -9.36453668 5.240291 -7 2 C-4.35582586 0.26476072 -3.21534057 0 0 0 Z " fill="#962316" transform="translate(246,146)"/>
<path d="M0 0 C0 0.66 0 1.32 0 2 C1.32 2.33 2.64 2.66 4 3 C4 3.33 4 3.66 4 4 C2.205625 4.12375 2.205625 4.12375 0.375 4.25 C-3.90985187 4.75901609 -6.52200739 6.43291021 -10 9 C-10.66 9 -11.32 9 -12 9 C-12 10.65 -12 12.3 -12 14 C-13.32 13.67 -14.64 13.34 -16 13 C-15.49349304 9.25184849 -14.93209662 7.40850794 -12 5 C-10.7934375 3.948125 -10.7934375 3.948125 -9.5625 2.875 C-6.16737261 0.39076045 -4.14475693 0 0 0 Z " fill="#622118" transform="translate(79,105)"/>
<path d="M0 0 C1.875 0.125 1.875 0.125 4 1 C6.92900057 4.66125071 7.32215416 7.3824571 7 12 C5.35 12.33 3.7 12.66 2 13 C-0.63994297 10.36005703 -1.22395215 8.43966299 -1.25 4.8125 C-1 1 -1 1 0 0 Z " fill="#AB2E1F" transform="translate(106,105)"/>
<path d="M0 0 C5 1 5 1 6 2 C6.07205511 3.68608966 6.08386068 5.37500659 6.0625 7.0625 C6.05347656 7.98160156 6.04445312 8.90070313 6.03515625 9.84765625 C6.02355469 10.55792969 6.01195312 11.26820313 6 12 C5.34 12 4.68 12 4 12 C3.67 13.65 3.34 15.3 3 17 C2.01 17 1.02 17 0 17 C0 11.39 0 5.78 0 0 Z " fill="#BE392A" transform="translate(193,208)"/>
<path d="M0 0 C1.23556641 0.01740234 1.23556641 0.01740234 2.49609375 0.03515625 C3.32238281 0.04417969 4.14867187 0.05320313 5 0.0625 C5.63808594 0.07410156 6.27617187 0.08570313 6.93359375 0.09765625 C6.93359375 0.42765625 6.93359375 0.75765625 6.93359375 1.09765625 C4.29359375 1.09765625 1.65359375 1.09765625 -1.06640625 1.09765625 C0.85485975 4.74806165 2.09813999 6.56347474 5.93359375 8.09765625 C8.28923971 8.54576762 8.28923971 8.54576762 10.68359375 8.72265625 C11.4828125 8.79742187 12.28203125 8.8721875 13.10546875 8.94921875 C13.70875 8.99820313 14.31203125 9.0471875 14.93359375 9.09765625 C15.26359375 8.43765625 15.59359375 7.77765625 15.93359375 7.09765625 C15.93359375 8.74765625 15.93359375 10.39765625 15.93359375 12.09765625 C13.99617034 12.12469006 12.05863896 12.1440675 10.12109375 12.16015625 C9.04214844 12.17175781 7.96320313 12.18335938 6.8515625 12.1953125 C3.01953814 12.06706537 1.44204566 11.62063536 -1.25390625 8.84765625 C-3.21369542 5.87418302 -3.54894688 4.5719488 -3.06640625 1.09765625 C-2.06640625 0.09765625 -2.06640625 0.09765625 0 0 Z " fill="#901F12" transform="translate(246.06640625,165.90234375)"/>
<path d="M0 0 C0.33 0.66 0.66 1.32 1 2 C-1.97 2 -4.94 2 -8 2 C-6.53201444 5.22956824 -5.34759037 7.6717202 -2.75 10.125 C-2.1725 10.74375 -1.595 11.3625 -1 12 C-1.25 14.25 -1.25 14.25 -2 16 C-2.99 15.34 -3.98 14.68 -5 14 C-5 13.34 -5 12.68 -5 12 C-5.66 12 -6.32 12 -7 12 C-7 11.34 -7 10.68 -7 10 C-7.66 10 -8.32 10 -9 10 C-11.17364926 7.18230651 -12.08677021 5.7809319 -11.6875 2.1875 C-11.460625 1.465625 -11.23375 0.74375 -11 0 C-6.88825414 -1.37058195 -4.26339405 -0.75640862 0 0 Z " fill="#431C16" transform="translate(275,194)"/>
<path d="M0 0 C0.99 0.66 1.98 1.32 3 2 C4.15991705 8.22033946 2.86889223 13.50128989 0 19 C-1.44207941 16.11584117 -1.09394887 13.58278472 -1.0625 10.375 C-1.05347656 9.18648438 -1.04445312 7.99796875 -1.03515625 6.7734375 C-1.02355469 5.85820312 -1.01195312 4.94296875 -1 4 C-4.73201925 3.15323933 -7.26940301 3.04070363 -11 4 C-10.625 2.0625 -10.625 2.0625 -10 0 C-6.80429821 -1.59785089 -3.38635924 -0.77115111 0 0 Z " fill="#5F1C14" transform="translate(182,256)"/>
<path d="M0 0 C2.375 -0.125 2.375 -0.125 5 0 C5.66 0.66 6.32 1.32 7 2 C7.825 2.268125 8.65 2.53625 9.5 2.8125 C12 4 12 4 13.4375 6.25 C14.15013706 9.7340034 13.35485278 11.76340725 12 15 C11.67 15 11.34 15 11 15 C10.67 13.02 10.34 11.04 10 9 C9.01 10.485 9.01 10.485 8 12 C7.34 10.02 6.68 8.04 6 6 C2.37 6 -1.26 6 -5 6 C-4.67 5.34 -4.34 4.68 -4 4 C-1.67843403 3.59270772 0.6568787 3.25561323 3 3 C2.01 2.67 1.02 2.34 0 2 C0 1.34 0 0.68 0 0 Z " fill="#772319" transform="translate(79,105)"/>
<path d="M0 0 C2.8203125 0.0234375 2.8203125 0.0234375 6.125 0.375 C7.22070312 0.48585938 8.31640625 0.59671875 9.4453125 0.7109375 C10.28835937 0.80632812 11.13140625 0.90171875 12 1 C12 1.66 12 2.32 12 3 C12.99 3.33 13.98 3.66 15 4 C15.33 4.99 15.66 5.98 16 7 C13.6875 7.6875 13.6875 7.6875 11 8 C10 7 9 6 8 5 C3.92205575 4.57521414 2.46923881 4.68717413 -1 7 C-1.625 4.625 -1.625 4.625 -2 2 C-1.34 1.34 -0.68 0.68 0 0 Z " fill="#682118" transform="translate(233,104)"/>
<path d="M0 0 C1.65 0 3.3 0 5 0 C5 3.3 5 6.6 5 10 C4.01 10.495 4.01 10.495 3 11 C2.34786708 13.02463255 2.34786708 13.02463255 2 15 C1.01 14.67 0.02 14.34 -1 14 C-1.02705729 12.22925083 -1.04642195 10.45838289 -1.0625 8.6875 C-1.07410156 7.70136719 -1.08570312 6.71523437 -1.09765625 5.69921875 C-1 3 -1 3 0 0 Z " fill="#AB2F21" transform="translate(94,155)"/>
<path d="M0 0 C3.1875 0.3125 3.1875 0.3125 5.5625 2.3125 C6.09875 2.9725 6.635 3.6325 7.1875 4.3125 C6.5275 5.6325 5.8675 6.9525 5.1875 8.3125 C1.8125 8.4375 1.8125 8.4375 -1.8125 8.3125 C-3.8125 6.3125 -3.8125 6.3125 -4 3.75 C-3.73148518 0.25930732 -3.52237185 0.39137465 0 0 Z " fill="#63261E" transform="translate(69.8125,152.6875)"/>
<path d="M0 0 C-0.33 0.99 -0.66 1.98 -1 3 C-0.01 3.66 0.98 4.32 2 5 C0.72125 5.20625 -0.5575 5.4125 -1.875 5.625 C-4.07813968 6.08483533 -4.07813968 6.08483533 -6 7 C-7.61147442 9.99428144 -7.61147442 9.99428144 -8 13 C-8.66 12.34 -9.32 11.68 -10 11 C-10.99 11.66 -11.98 12.32 -13 13 C-13 11.35 -13 9.7 -13 8 C-12.34 8 -11.68 8 -11 8 C-10.690625 7.21625 -10.38125 6.4325 -10.0625 5.625 C-9 3 -9 3 -8 1 C-5.07175348 0.02391783 -3.04386724 -0.08226668 0 0 Z " fill="#6A2218" transform="translate(121,67)"/>
<path d="M0 0 C0.99 0.33 1.98 0.66 3 1 C3.8125 3.6875 3.8125 3.6875 4 7 C1.56754989 9.97299458 -0.80913336 11.87275557 -4 14 C-4.99 14 -5.98 14 -7 14 C-7 11 -7 11 -5.63671875 9.57421875 C-4.82654297 8.79498047 -4.82654297 8.79498047 -4 8 C-2.80400932 5.96767758 -2.80400932 5.96767758 -1.8125 3.8125 C-1.46832031 3.09707031 -1.12414062 2.38164063 -0.76953125 1.64453125 C-0.51558594 1.10183594 -0.26164062 0.55914062 0 0 Z " fill="#BD382A" transform="translate(81,56)"/>
<path d="M0 0 C3.08593107 0.24362614 4.61977139 0.65656771 6.9375 2.75 C8 5 8 5 7.1875 7.75 C6.795625 8.4925 6.40375 9.235 6 10 C3.32142828 9.63803085 1.39019086 9.26012724 -0.875 7.75 C-2 6 -2 6 -1.75 3.375 C-1 1 -1 1 0 0 Z " fill="#371B15" transform="translate(108,256)"/>
<path d="M0 0 C0.680625 0.28875 1.36125 0.5775 2.0625 0.875 C-0.9375 2.875 -0.9375 2.875 -2.9375 2.875 C-3.22625 3.4525 -3.515 4.03 -3.8125 4.625 C-4.9375 6.875 -4.9375 6.875 -6.0625 8.6875 C-7.29748871 11.77497177 -7.06395188 14.58725123 -6.9375 17.875 C-6.2775 18.205 -5.6175 18.535 -4.9375 18.875 C-6.5875 18.875 -8.2375 18.875 -9.9375 18.875 C-10.99318907 7.58080267 -10.99318907 7.58080267 -8.5546875 3.640625 C-5.65785106 1.00713733 -3.97530343 -0.16916185 0 0 Z " fill="#8E1C0F" transform="translate(274.9375,123.125)"/>
<path d="M0 0 C1.32 0 2.64 0 4 0 C5.4233219 7.8711416 5.4233219 7.8711416 3.875 12 C2 14 2 14 -0.5 15 C-3 15 -3 15 -4.8125 13.625 C-6 12 -6 12 -6 11 C-4.02 10.34 -2.04 9.68 0 9 C0 6.03 0 3.06 0 0 Z " fill="#6A1D14" transform="translate(188,46)"/>
<path d="M0 0 C0.99 0 1.98 0 3 0 C3.2396943 5.63281599 2.38529821 10.54538831 1 16 C0.01 16 -0.98 16 -2 16 C-2 15.34 -2 14.68 -2 14 C-2.66 14 -3.32 14 -4 14 C-4.1875 10.625 -4.1875 10.625 -4 7 C-3.01 6.34 -2.02 5.68 -1 5 C-0.27034634 2.43717258 -0.27034634 2.43717258 0 0 Z " fill="#BE392A" transform="translate(175,264)"/>
<path d="M0 0 C0.66 0.33 1.32 0.66 2 1 C1.88590407 2.45922693 1.75834456 3.91740598 1.625 5.375 C1.55539063 6.18710938 1.48578125 6.99921875 1.4140625 7.8359375 C1 10 1 10 -1 12 C-2.32 12 -3.64 12 -5 12 C-5 12.66 -5 13.32 -5 14 C-5.99 13.67 -6.98 13.34 -8 13 C-9.20272819 10.59454362 -9.10071472 9.05003047 -9.0625 6.375 C-9.05347656 5.55773437 -9.04445313 4.74046875 -9.03515625 3.8984375 C-9.02355469 3.27195313 -9.01195313 2.64546875 -9 2 C-8.01 2 -7.02 2 -6 2 C-5.8046875 4.05078125 -5.609375 6.1015625 -5.4140625 8.15234375 C-5.27742188 8.76207031 -5.14078125 9.37179688 -5 10 C-4.34 10.33 -3.68 10.66 -3 11 C-2.67 9.35 -2.34 7.7 -2 6 C-1.34 6 -0.68 6 0 6 C0 4.02 0 2.04 0 0 Z " fill="#591F17" transform="translate(99,159)"/>
<path d="M0 0 C6.52307692 -0.36923077 6.52307692 -0.36923077 8.9375 1.5 C9.288125 1.995 9.63875 2.49 10 3 C9.67 3.66 9.34 4.32 9 5 C8.5875 4.525625 8.175 4.05125 7.75 3.5625 C5.7995277 1.82100687 4.51147981 1.53446781 2 1 C2.45261358 2.43931117 2.91232979 3.87638999 3.375 5.3125 C3.63023437 6.11300781 3.88546875 6.91351563 4.1484375 7.73828125 C4.98831811 10.22724528 4.98831811 10.22724528 7 13 C9.05925139 13.72382467 9.05925139 13.72382467 11 14 C11.66 12.68 12.32 11.36 13 10 C13 11.98 13 13.96 13 16 C10.875 16.8125 10.875 16.8125 8 17 C4.43487855 14.55334802 1.21722136 12.26027475 0 8 C-0.14516709 5.30922438 -0.089984 2.69952011 0 0 Z " fill="#8D1E12" transform="translate(145,51)"/>
<path d="M0 0 C2.125 0.375 2.125 0.375 4 1 C3.3503125 1.63615234 3.3503125 1.63615234 2.6875 2.28515625 C-0.3351005 5.46868224 -1.89802537 7.15506734 -2.4375 11.625 C-2.07001646 14.45987306 -1.6734008 17.22222168 -1 20 C-2.32 20 -3.64 20 -5 20 C-6.852532 16.29493599 -6.46512052 12.04344769 -6 8 C-4.26460898 4.76060344 -2.57678866 2.57678866 0 0 Z " fill="#8B190D" transform="translate(156,244)"/>
<path d="M0 0 C0 1.65 0 3.3 0 5 C-4.8715372 7.29248809 -8.74024015 7.78600343 -13.875 6 C-14.57625 5.67 -15.2775 5.34 -16 5 C-16 4.01 -16 3.02 -16 2 C-14.7625 2.04125 -13.525 2.0825 -12.25 2.125 C-7.65625572 2.14117516 -4.55527815 0 0 0 Z " fill="#C23C2D" transform="translate(113,199)"/>
<path d="M0 0 C1.98 0 3.96 0 6 0 C6.1953125 6.0546875 6.1953125 6.0546875 6 8 C5.34 8.66 4.68 9.32 4 10 C2.68 10 1.36 10 0 10 C-2.1519437 6.77208445 -2.20086443 5.71599191 -2 2 C-1.34 2 -0.68 2 0 2 C0 1.34 0 0.68 0 0 Z " fill="#B43A2C" transform="translate(69,165)"/>
<path d="M0 0 C2.40501922 3.60752884 3.24602334 5.45356758 2.5625 9.75 C2.376875 10.4925 2.19125 11.235 2 12 C1.01 12 0.02 12 -1 12 C-1.33 12.33 -1.66 12.66 -2 13 C-8.2781597 13.59227922 -8.2781597 13.59227922 -11.4375 11 C-11.953125 10.34 -12.46875 9.68 -13 9 C-12.38511719 8.93941406 -11.77023438 8.87882813 -11.13671875 8.81640625 C-9.92435547 8.69072266 -9.92435547 8.69072266 -8.6875 8.5625 C-7.88699219 8.48128906 -7.08648437 8.40007812 -6.26171875 8.31640625 C-3.83912821 8.04734307 -3.83912821 8.04734307 -1 7 C-0.67 4.69 -0.34 2.38 0 0 Z " fill="#8B1C10" transform="translate(130,239)"/>
<path d="M0 0 C2.31 0 4.62 0 7 0 C7 0.99 7 1.98 7 3 C9.31 3 11.62 3 14 3 C14 3.99 14 4.98 14 6 C2.47835991 6.18451025 2.47835991 6.18451025 -3 5 C-3 4.34 -3 3.68 -3 3 C-2.01 3 -1.02 3 0 3 C0 2.01 0 1.02 0 0 Z " fill="#BF3A2B" transform="translate(42,185)"/>
<path d="M0 0 C2 1.3125 2 1.3125 4 3 C4 3.99 4 4.98 4 6 C4.66 6 5.32 6 6 6 C6.66628623 9.02797404 7.12984299 11.89415578 7 15 C4.75 18.0625 4.75 18.0625 2 20 C1.01 20 0.02 20 -1 20 C-1 19.01 -1 18.02 -1 17 C-0.01 17 0.98 17 2 17 C2.05410687 15.22950311 2.09284119 13.45853151 2.125 11.6875 C2.14820313 10.70136719 2.17140625 9.71523437 2.1953125 8.69921875 C2.20682639 5.77593473 2.20682639 5.77593473 0 3 C0 2.01 0 1.02 0 0 Z " fill="#421B14" transform="translate(154,87)"/>
<path d="M0 0 C3.96 0.99 3.96 0.99 8 2 C8 2.33 8 2.66 8 3 C6.35 3 4.7 3 3 3 C3.28427417 4.58467728 3.57774818 6.1677057 3.875 7.75 C4.03742188 8.63171875 4.19984375 9.5134375 4.3671875 10.421875 C4.96796264 12.86947744 5.77997117 14.80599857 7 17 C0.31136738 13.77100494 0.31136738 13.77100494 -1.3125 9.75 C-2.05788794 5.68424757 -1.63831628 3.73172041 0 0 Z " fill="#5C1A12" transform="translate(142,48)"/>
<path d="M0 0 C0.78375 0.04125 1.5675 0.0825 2.375 0.125 C3.035 1.445 3.695 2.765 4.375 4.125 C3.055 5.775 1.735 7.425 0.375 9.125 C-1.275 8.795 -2.925 8.465 -4.625 8.125 C-4.75 5.25 -4.75 5.25 -4.625 2.125 C-2.625 0.125 -2.625 0.125 0 0 Z " fill="#B53A2D" transform="translate(105.625,266.875)"/>
<path d="M0 0 C2.46800047 1.15173355 4.04783565 2.04783565 6 4 C6.1875 6.5625 6.1875 6.5625 6 9 C5 10 5 10 2.5625 10.25 C1.716875 10.1675 0.87125 10.085 0 10 C-2.14915785 6.77626323 -2.38286803 5.73296326 -2 2 C-1.34 1.34 -0.68 0.68 0 0 Z " fill="#B23A2C" transform="translate(262,219)"/>
<path d="M0 0 C0.33 0.99 0.66 1.98 1 3 C1.804375 2.979375 2.60875 2.95875 3.4375 2.9375 C6 3 6 3 7 4 C8.85287502 4.07226502 10.70833878 4.0838122 12.5625 4.0625 C13.57441406 4.05347656 14.58632812 4.04445312 15.62890625 4.03515625 C16.41136719 4.02355469 17.19382812 4.01195312 18 4 C17 6 17 6 14.80078125 7.1171875 C11.75917697 8.07590795 9.36616882 8.20159443 6.1875 8.125 C4.72376953 8.09792969 4.72376953 8.09792969 3.23046875 8.0703125 C2.49441406 8.04710937 1.75835937 8.02390625 1 8 C-0.35439668 5.29120665 -0.06501451 2.99066732 0 0 Z " fill="#901B0F" transform="translate(95,201)"/>
<path d="M0 0 C0.33 0 0.66 0 1 0 C1.10054687 0.81984375 1.20109375 1.6396875 1.3046875 2.484375 C1.90446881 5.91873921 2.55750016 8.81888598 4 12 C7.14685815 14.18911871 10.27358331 15.18899749 14 16 C14 16.99 14 17.98 14 19 C8.85187497 18.21998106 3.73783993 16.73783993 0 13 C-0.1953125 9.9609375 -0.1953125 9.9609375 -0.125 6.375 C-0.10695312 5.18648438 -0.08890625 3.99796875 -0.0703125 2.7734375 C-0.04710937 1.85820313 -0.02390625 0.94296875 0 0 Z " fill="#561A12" transform="translate(174,92)"/>
<path d="M0 0 C0.66 0 1.32 0 2 0 C2.28875 0.928125 2.5775 1.85625 2.875 2.8125 C3.8875 6.09791667 3.8875 6.09791667 6 9 C5.01 9 4.02 9 3 9 C2.67 8.34 2.34 7.68 2 7 C1.01 6.67 0.02 6.34 -1 6 C1.7819368 9.27286682 5.27954067 10.96427697 9 13 C8.67 13.66 8.34 14.32 8 15 C2.79993466 13.63807813 -0.25056971 11.74943029 -4 8 C-4 6.68 -4 5.36 -4 4 C-2.68 4.33 -1.36 4.66 0 5 C0 3.35 0 1.7 0 0 Z " fill="#7E1A0E" transform="translate(67,114)"/>
<path d="M0 0 C0.66 0.33 1.32 0.66 2 1 C2.29216602 5.96682232 2.24708889 9.10349334 -1 13 C-5.92218182 16.14181818 -5.92218182 16.14181818 -9.375 15.6875 C-9.91125 15.460625 -10.4475 15.23375 -11 15 C-9 13 -9 13 -6.5 11.5625 C-1.96955482 8.73097176 -1.30367022 4.93532298 0 0 Z " fill="#4A1A13" transform="translate(118,194)"/>
<path d="M0 0 C3.78193805 0.52526917 6.3100737 1.21400491 9 4 C9.75 7.1875 9.75 7.1875 10 10 C7.35337395 9.84876423 5.55721506 9.49998757 3.5546875 7.703125 C0 3.6 0 3.6 0 0 Z " fill="#A2291B" transform="translate(267,196)"/>
<path d="M0 0 C0.33 0.66 0.66 1.32 1 2 C2.98 2 4.96 2 7 2 C7 2.33 7 2.66 7 3 C5.02 3.66 3.04 4.32 1 5 C0.67 6.98 0.34 8.96 0 11 C-0.33 11 -0.66 11 -1 11 C-1.33 12.98 -1.66 14.96 -2 17 C-4.6781634 14.3218366 -4.72119442 12.76387529 -5 9 C-4.62015342 6.11422109 -3.94739546 3.7948166 -3 1 C-2.01 0.67 -1.02 0.34 0 0 Z " fill="#631A11" transform="translate(176,87)"/>
<path d="M0 0 C2.31 0.33 4.62 0.66 7 1 C7 2.32 7 3.64 7 5 C8.98 5 10.96 5 13 5 C13 5.66 13 6.32 13 7 C7.5814234 7.22577402 3.22512279 6.46670113 -2 5 C-2 4.01 -2 3.02 -2 2 C-1.34 2 -0.68 2 0 2 C0 1.34 0 0.68 0 0 Z " fill="#BF3A2B" transform="translate(170,45)"/>
<path d="M0 0 C2 1 2 1 2.61328125 2.6796875 C3.08666942 5.5200165 3.16981268 8.24550364 3.1875 11.125 C3.20167969 12.17945313 3.21585938 13.23390625 3.23046875 14.3203125 C3 17 3 17 1 19 C-1.625 19.125 -1.625 19.125 -4 19 C-4.33 18.34 -4.66 17.68 -5 17 C-4.01 16.67 -3.02 16.34 -2 16 C-1.26676204 13.98491642 -1.26676204 13.98491642 -1 12 C-0.34 12 0.32 12 1 12 C0.67 8.04 0.34 4.08 0 0 Z " fill="#901C0F" transform="translate(198,208)"/>
<path d="M0 0 C1.2065625 0.0309375 1.2065625 0.0309375 2.4375 0.0625 C3.125 2.375 3.125 2.375 3.4375 5.0625 C2.3125 6.875 2.3125 6.875 0.4375 8.0625 C-2.25 8.25 -2.25 8.25 -4.5625 8.0625 C-3.54737544 0.08652135 -3.54737544 0.08652135 0 0 Z " fill="#C13D2F" transform="translate(218.5625,136.9375)"/>
<path d="M0 0 C0.99 0.33 1.98 0.66 3 1 C3.33 3.64 3.66 6.28 4 9 C1.0534615 10.80066242 -1.88801935 12.50163895 -5 14 C-4.54625 13.360625 -4.0925 12.72125 -3.625 12.0625 C-1.55458473 8.16056352 -0.79918586 4.31560367 0 0 Z " fill="#551912" transform="translate(94,248)"/>
<path d="M0 0 C1.670625 0.061875 1.670625 0.061875 3.375 0.125 C3.00588042 2.80111698 2.52644437 3.9681469 0.625 5.9375 C-2.2254589 7.44190887 -3.60588413 7.04750763 -6.625 6.125 C-5.71577947 1.57889733 -4.95184304 0.17075321 0 0 Z " fill="#AB382B" transform="translate(211.625,235.875)"/>
<path d="M0 0 C1.67542976 0.28604898 3.34385343 0.61781233 5 1 C5 3.31 5 5.62 5 8 C3.34385343 8.38218767 1.67542976 8.71395102 0 9 C-1 8 -1 8 -1.125 4.5 C-1 1 -1 1 0 0 Z " fill="#BF3D2E" transform="translate(129,105)"/>
<path d="M0 0 C2.375 -0.125 2.375 -0.125 5 0 C7 2 7 2 7.125 5.125 C7.08375 6.07375 7.0425 7.0225 7 8 C3 8 3 8 0 6 C-0.1875 2.875 -0.1875 2.875 0 0 Z " fill="#923226" transform="translate(203,82)"/>
<path d="M0 0 C0.33 0 0.66 0 1 0 C1 1.98 1 3.96 1 6 C1.66 6 2.32 6 3 6 C3.33 5.01 3.66 4.02 4 3 C4.43702768 7.45768233 4.51445113 9.34650802 1.6875 12.9375 C-1 15 -1 15 -4 15 C-3.505 14.1028125 -3.505 14.1028125 -3 13.1875 C-1.79212012 10.94613529 -1.79212012 10.94613529 -2 8 C-1.67 7.67 -1.34 7.34 -1 7 C-0.63239269 4.67182036 -0.29758419 2.3381615 0 0 Z " fill="#932114" transform="translate(242,66)"/>
<path d="M0 0 C1.32 0 2.64 0 4 0 C3.55443866 5.04969516 1.44186399 7.47618687 -2 11 C-2.99 11 -3.98 11 -5 11 C-4.46949266 6.49068763 -2.8595705 3.51318661 0 0 Z " fill="#B83526" transform="translate(272,126)"/>
<path d="M0 0 C3.23060419 0.55700072 5.0658223 1.29215122 7 4 C7.1875 6.6875 7.1875 6.6875 7 9 C3.2273236 8.46104623 1.31787009 7.00464642 -1 4 C-0.75 1.75 -0.75 1.75 0 0 Z " fill="#B33A2C" transform="translate(81,215)"/>
<path d="M0 0 C1.875 1.5625 1.875 1.5625 3 4 C2.6875 7.75 2.6875 7.75 2 11 C0.68 11.33 -0.64 11.66 -2 12 C-1.67 11.01 -1.34 10.02 -1 9 C-0.34 9 0.32 9 1 9 C0.22520264 6.00847418 0.22520264 6.00847418 -1 3 C-1.99 2.67 -2.98 2.34 -4 2 C-4 2.66 -4 3.32 -4 4 C-4.66 4 -5.32 4 -6 4 C-6.33 4.99 -6.66 5.98 -7 7 C-7.6875 5.1875 -7.6875 5.1875 -8 3 C-5.90265201 -0.26254132 -3.7190344 -0.65083102 0 0 Z " fill="#341A15" transform="translate(228,126)"/>
<path d="M0 0 C0 1.65 0 3.3 0 5 C-3.63 5 -7.26 5 -11 5 C-11 4.01 -11 3.02 -11 2 C-7.36576791 -0.32590854 -4.22911669 -0.16265833 0 0 Z " fill="#C13B2C" transform="translate(238,71)"/>
<path d="M0 0 C2.875 -0.1875 2.875 -0.1875 6 0 C8.4294516 3.6441774 8.16179575 5.71241272 8 10 C7.01 10 6.02 10 5 10 C5 7.69 5 5.38 5 3 C3.68 3 2.36 3 1 3 C0.67 5.31 0.34 7.62 0 10 C-0.66 10 -1.32 10 -2 10 C-2.17942163 6.05272412 -2.09350689 3.4019487 0 0 Z " fill="#64271E" transform="translate(128,103)"/>
<path d="M0 0 C0.433125 0.474375 0.86625 0.94875 1.3125 1.4375 C3.02309613 3.23686957 3.02309613 3.23686957 6 4 C6 4.66 6 5.32 6 6 C9.3 6 12.6 6 16 6 C11.97256339 8.68495774 8.73132484 8.57173628 4 8 C0.9375 6.5 0.9375 6.5 -1 5 C-0.67 3.35 -0.34 1.7 0 0 Z " fill="#8B1A0E" transform="translate(220,71)"/>
<path d="M0 0 C0.99 0.33 1.98 0.66 3 1 C3 1.66 3 2.32 3 3 C3.99 3 4.98 3 6 3 C6.33 3.66 6.66 4.32 7 5 C9.12576782 5.46651207 9.12576782 5.46651207 11.5625 5.625 C12.38878906 5.69976562 13.21507812 5.77453125 14.06640625 5.8515625 C14.70449219 5.90054688 15.34257812 5.94953125 16 6 C16.33 6.99 16.66 7.98 17 9 C9.04518637 8.02594119 3.42819129 7.25064452 -2 1 C-1.34 0.67 -0.68 0.34 0 0 Z " fill="#411A14" transform="translate(166,51)"/>
<path d="M0 0 C2.6121879 1.60750025 4.59845414 2.91943558 5.6953125 5.87109375 C6.39652439 9.81727554 6.31497332 11.47866486 4.1875 15 C2 17 2 17 0 17 C0 16.34 0 15.68 0 15 C0.99 14.34 1.98 13.68 3 13 C3.66840854 10.62985808 3.66840854 10.62985808 3 8 C0.56249975 5.31232422 0.56249975 5.31232422 -2 3 C-2 2.34 -2 1.68 -2 1 C-1.34 0.67 -0.68 0.34 0 0 Z " fill="#3D1A15" transform="translate(250,231)"/>
<path d="M0 0 C2.91116622 0 4.53459295 0.56409058 6.6640625 2.55859375 C11 7.50074052 11 7.50074052 11 10 C10.34 10 9.68 10 9 10 C9 11.65 9 13.3 9 15 C8.67 15 8.34 15 8 15 C7.938125 13.4221875 7.938125 13.4221875 7.875 11.8125 C6.71730505 6.7682577 5.12545159 5.94675113 1 3 C0.34 2.34 -0.32 1.68 -1 1 C-0.67 0.67 -0.34 0.34 0 0 Z " fill="#782419" transform="translate(65,226)"/>
<path d="M0 0 C3.375 -0.1875 3.375 -0.1875 7 0 C9 3 9 3 8.875 5.9375 C8 9 8 9 4 13 C4 9.04 4 5.08 4 1 C2.68 0.67 1.36 0.34 0 0 Z " fill="#8D1C10" transform="translate(238,197)"/>
<path d="M0 0 C0.66 0 1.32 0 2 0 C2.33964174 3.65114875 2.26393998 5.55333235 0.375 8.75 C-2.31121308 11.29483345 -4.44160742 12.11040186 -8 13 C-8.99 12.01 -9.98 11.02 -11 10 C-9.9275 10.020625 -8.855 10.04125 -7.75 10.0625 C-3.95901798 9.43105178 -3.95901798 9.43105178 -2.64453125 6.9296875 C-1.65208136 4.64382818 -0.7706187 2.36929353 0 0 Z " fill="#3E1B15" transform="translate(55,162)"/>
<path d="M0 0 C1.32 0 2.64 0 4 0 C4.19573608 1.43640171 4.38127816 2.87419504 4.5625 4.3125 C4.66691406 5.11300781 4.77132812 5.91351563 4.87890625 6.73828125 C5 9 5 9 4 12 C3.01 12 2.02 12 1 12 C0.67 8.04 0.34 4.08 0 0 Z " fill="#BC3829" transform="translate(238,198)"/>
<path d="M0 0 C0.66 0 1.32 0 2 0 C2.74926071 3.66305234 3.2380014 6.42355152 2 10 C0.35 9.67 -1.3 9.34 -3 9 C-3 6.69 -3 4.38 -3 2 C-2.34 2 -1.68 2 -1 2 C-0.67 1.34 -0.34 0.68 0 0 Z " fill="#691A11" transform="translate(212,116)"/>
<path d="M0 0 C6.75 -0.125 6.75 -0.125 9 1 C9 2.32 9 3.64 9 5 C6.03 5 3.06 5 0 5 C0 3.35 0 1.7 0 0 Z " fill="#AC382B" transform="translate(74,88)"/>
<path d="M0 0 C2.31 0.33 4.62 0.66 7 1 C7.66 3.64 8.32 6.28 9 9 C7 7.625 7 7.625 5 6 C5 5.34 5 4.68 5 4 C4.01 4.495 4.01 4.495 3 5 C3 7.97 3 10.94 3 14 C2.67 14 2.34 14 2 14 C1.34 9.38 0.68 4.76 0 0 Z " fill="#69231A" transform="translate(147,84)"/>
<path d="M0 0 C-1.625 2.5 -1.625 2.5 -4 5 C-7.25 5.3125 -7.25 5.3125 -10 5 C-10 4.34 -10 3.68 -10 3 C-12.64 3 -15.28 3 -18 3 C-18.33 2.34 -18.66 1.68 -19 1 C-18.26394531 1.02320312 -17.52789062 1.04640625 -16.76953125 1.0703125 C-15.30580078 1.09738281 -15.30580078 1.09738281 -13.8125 1.125 C-12.36810547 1.15980469 -12.36810547 1.15980469 -10.89453125 1.1953125 C-7.96970831 1.14723785 -7.96970831 1.14723785 -5.32421875 -0.0703125 C-3 -1 -3 -1 0 0 Z " fill="#511A13" transform="translate(241,77)"/>
<path d="M0 0 C0.99 0.33 1.98 0.66 3 1 C1.71034824 2.37562854 0.37310707 3.70766393 -1 5 C-1.66 5 -2.32 5 -3 5 C-3.33 5.99 -3.66 6.98 -4 8 C-6.31 8.33 -8.62 8.66 -11 9 C-11.33 8.01 -11.66 7.02 -12 6 C-10.948125 5.7525 -9.89625 5.505 -8.8125 5.25 C-5.16144011 4.23950464 -2.94303011 2.37077426 0 0 Z " fill="#581C14" transform="translate(87,119)"/>
<path d="M0 0 C0.99 0 1.98 0 3 0 C2.10943347 5.34339918 1.38056691 8.00599183 -3.125 11.25 C-4.07375 11.8275 -5.0225 12.405 -6 13 C-6.33 12.01 -6.66 11.02 -7 10 C-6.01 9.34 -5.02 8.68 -4 8 C-2.78581167 6.0533929 -2.78581167 6.0533929 -1.8125 3.875 C-1.46832031 3.15054688 -1.12414062 2.42609375 -0.76953125 1.6796875 C-0.51558594 1.12539062 -0.26164063 0.57109375 0 0 Z " fill="#401B14" transform="translate(246,149)"/>
<path d="M0 0 C1.32 0.99 2.64 1.98 4 3 C3.63287028 5.71675995 3.27255401 7.61063713 1.6875 9.875 C0 11 0 11 -2.1875 10.6875 C-2.785625 10.460625 -3.38375 10.23375 -4 10 C-3.525625 9.278125 -3.05125 8.55625 -2.5625 7.8125 C-1.05847097 5.10524774 -0.43400818 3.03805725 0 0 Z " fill="#8E1D11" transform="translate(127,73)"/>
<path d="M0 0 C0.66 0 1.32 0 2 0 C1.22986708 8.00938233 1.22986708 8.00938233 -2 11 C-3.32 11 -4.64 11 -6 11 C-4.18690997 7.22272911 -2.0926741 3.62730178 0 0 Z " fill="#BA3728" transform="translate(125,73)"/>
<path d="M0 0 C0.6875 1.75 0.6875 1.75 1 4 C0.03542166 5.35917857 -0.96854629 6.69084721 -2 8 C-2.71433121 10.64934822 -2.71433121 10.64934822 -3 13 C-4.32 13.33 -5.64 13.66 -7 14 C-5.82799461 7.8203352 -4.33231726 4.56033396 0 0 Z " fill="#561E16" transform="translate(127,271)"/>
<path d="M0 0 C2.91517292 1.07401108 4.77810176 1.77810176 7 4 C7.26991906 6.68839385 7.08737357 9.29141936 7 12 C5.02 12.99 5.02 12.99 3 14 C3.66 11.03 4.32 8.06 5 5 C4.34 5 3.68 5 3 5 C3 4.34 3 3.68 3 3 C1.68 3 0.36 3 -1 3 C-0.67 2.01 -0.34 1.02 0 0 Z " fill="#351B16" transform="translate(91,81)"/>
<path d="M0 0 C3.96 0 7.92 0 12 0 C11.67 1.65 11.34 3.3 11 5 C8.3125 5.3125 8.3125 5.3125 5 5 C2.125 2.5 2.125 2.5 0 0 Z " fill="#8F1C10" transform="translate(234,120)"/>
<path d="M0 0 C0.98320351 3.05885536 1.34808088 5.03422206 0 8 C-2.8125 10.8125 -2.8125 10.8125 -6 13 C-8.375 12.8125 -8.375 12.8125 -10 12 C-9.0925 11.319375 -8.185 10.63875 -7.25 9.9375 C-3.77393779 7.07098424 -2.03435118 3.99045809 0 0 Z " fill="#891A0E" transform="translate(85,61)"/>
<path d="M0 0 C0.66 0 1.32 0 2 0 C1.7159949 2.06356895 1.42246648 4.1258285 1.125 6.1875 C0.96257812 7.33605469 0.80015625 8.48460937 0.6328125 9.66796875 C0.05939755 12.68724625 -0.74759043 15.20575848 -2 18 C-2.33 18 -2.66 18 -3 18 C-3.11065148 12.57807726 -3.09006648 7.34132574 -2 2 C-1.34 1.34 -0.68 0.68 0 0 Z " fill="#3A1B16" transform="translate(169,258)"/>
<path d="M0 0 C2.62655933 0.35494045 4.57968261 0.72461964 6.8125 2.1875 C8.51995571 4.79361661 8.20267097 6.9599355 8 10 C7.34 10 6.68 10 6 10 C4.9935725 8.33720673 3.99414593 6.67016516 3 5 C2.01 4.34 1.02 3.68 0 3 C0 2.01 0 1.02 0 0 Z " fill="#6F2319" transform="translate(122,233)"/>
<path d="M0 0 C3.96 0.33 7.92 0.66 12 1 C11.67 1.99 11.34 2.98 11 4 C9.54176788 4.0270043 8.08339325 4.04639787 6.625 4.0625 C5.81289062 4.07410156 5.00078125 4.08570312 4.1640625 4.09765625 C2 4 2 4 0 3 C0 2.01 0 1.02 0 0 Z " fill="#BC3729" transform="translate(234,117)"/>
<path d="M0 0 C0.66 0.66 1.32 1.32 2 2 C1.01 3.485 1.01 3.485 0 5 C-0.66 5 -1.32 5 -2 5 C-2 6.65 -2 8.3 -2 10 C-3.32 9.67 -4.64 9.34 -6 9 C-5.50233954 5.31731261 -4.93714041 3.34971233 -2 1 C-1.34 0.67 -0.68 0.34 0 0 Z " fill="#431B15" transform="translate(69,109)"/>
<path d="M0 0 C3.16858398 3.6980821 3.52378237 6.1193911 3.3515625 10.87109375 C3 13 3 13 1.3125 15.5625 C-1.37484955 17.23301458 -2.89156165 17.34538204 -6 17 C-5.38125 16.938125 -4.7625 16.87625 -4.125 16.8125 C-1.79047839 16.19077693 -1.79047839 16.19077693 -0.875 13.8125 C0.07209643 10.76826148 0.20157604 8.36540546 0.125 5.1875 C0.10695312 4.21167969 0.08890625 3.23585938 0.0703125 2.23046875 C0.04710937 1.49441406 0.02390625 0.75835937 0 0 Z " fill="#A0291B" transform="translate(194,94)"/>
<path d="M0 0 C0 0.99 0 1.98 0 3 C-3.20380017 5.13586678 -4.01939967 5.23132175 -7.6875 5.125 C-8.89986328 5.09792969 -8.89986328 5.09792969 -10.13671875 5.0703125 C-11.05904297 5.03550781 -11.05904297 5.03550781 -12 5 C-12 4.01 -12 3.02 -12 2 C-10.37548581 1.66430703 -8.75037083 1.3315204 -7.125 1 C-6.22007813 0.814375 -5.31515625 0.62875 -4.3828125 0.4375 C-2 0 -2 0 0 0 Z " fill="#C03B2C" transform="translate(129,243)"/>
<path d="M0 0 C2.46150032 0.89509103 3.47665113 1.6645629 5.0625 3.75 C5.13671875 6.23046875 5.13671875 6.23046875 4.75 8.9375 C4.57017578 10.28908203 4.57017578 10.28908203 4.38671875 11.66796875 C4.27972656 12.35503906 4.17273438 13.04210937 4.0625 13.75 C3.7325 13.75 3.4025 13.75 3.0625 13.75 C2.7325 10.45 2.4025 7.15 2.0625 3.75 C0.0825 4.08 -1.8975 4.41 -3.9375 4.75 C-3.9375 3.43 -3.9375 2.11 -3.9375 0.75 C-1.9375 -0.25 -1.9375 -0.25 0 0 Z " fill="#4C1C15" transform="translate(157.9375,241.25)"/>
<path d="M0 0 C2.64 0 5.28 0 8 0 C8.33 0.66 8.66 1.32 9 2 C5.92382812 2.29296875 5.92382812 2.29296875 2.84765625 2.5859375 C2.23792969 2.72257813 1.62820312 2.85921875 1 3 C-1.04130598 7.08261196 -0.01097258 11.70336653 1 16 C-1 15 -1 15 -2 12 C-2.4 3.6 -2.4 3.6 0 0 Z " fill="#421B14" transform="translate(56,225)"/>
<path d="M0 0 C0.33 0.99 0.66 1.98 1 3 C0.34 3 -0.32 3 -1 3 C-1.66 7.62 -2.32 12.24 -3 17 C-3.66 17 -4.32 17 -5 17 C-5.05429959 15.25034642 -5.09292823 13.50020213 -5.125 11.75 C-5.15980469 10.28820312 -5.15980469 10.28820312 -5.1953125 8.796875 C-4.99429463 5.91829909 -4.59161629 4.38215418 -3 2 C-2.01 1.34 -1.02 0.68 0 0 Z " fill="#3A1B16" transform="translate(187,201)"/>
<path d="M0 0 C-0.66010476 2.84550012 -1.51724966 5.52325999 -2.5625 8.25 C-2.83191406 8.95640625 -3.10132813 9.6628125 -3.37890625 10.390625 C-3.58386719 10.92171875 -3.78882813 11.4528125 -4 12 C-4.66 12 -5.32 12 -6 12 C-6.32644414 7.83783725 -6.40650982 5.63686538 -4.125 2.0625 C-2 0 -2 0 0 0 Z " fill="#BF3A2B" transform="translate(159,247)"/>
<path d="M0 0 C1.65 0 3.3 0 5 0 C7.15305957 3.85756507 8.39253254 6.55129785 8 11 C6.35 11 4.7 11 3 11 C3.99 10.67 4.98 10.34 6 10 C5.81584568 7.05908413 5.81584568 7.05908413 5 4 C3.06616713 2.69934079 3.06616713 2.69934079 1 2 C0.67 1.34 0.34 0.68 0 0 Z " fill="#881D12" transform="translate(271,196)"/>
<path d="M0 0 C0.99 0 1.98 0 3 0 C3 0.66 3 1.32 3 2 C3.99 2.33 4.98 2.66 6 3 C6.33 3.99 6.66 4.98 7 6 C4.6875 6.6875 4.6875 6.6875 2 7 C0.4375 5.6875 0.4375 5.6875 -1 4 C-3.09989652 2.82425289 -3.09989652 2.82425289 -5 2 C-3.35 2 -1.7 2 0 2 C0 1.34 0 0.68 0 0 Z " fill="#812519" transform="translate(242,105)"/>
<path d="M0 0 C1.125 1.6875 1.125 1.6875 0.8125 3.875 C0.4721875 4.7721875 0.4721875 4.7721875 0.125 5.6875 C0.125 4.6975 0.125 3.7075 0.125 2.6875 C-3.31675522 0.54050031 -5.6470292 0.58893205 -9.625 1.0625 C-11.10226563 1.22878906 -11.10226563 1.22878906 -12.609375 1.3984375 C-13.35703125 1.49382812 -14.1046875 1.58921875 -14.875 1.6875 C-12.875 -1.3125 -12.875 -1.3125 -10.0625 -2.0625 C-6.09316206 -2.37382062 -3.31354005 -2.31947804 0 0 Z " fill="#93271A" transform="translate(233.875,250.3125)"/>
<path d="M0 0 C3.96 0 7.92 0 12 0 C12.33 0.66 12.66 1.32 13 2 C8.72727273 5.05194805 8.72727273 5.05194805 5.375 4.8125 C3 4 3 4 0 2 C0 1.34 0 0.68 0 0 Z " fill="#551F17" transform="translate(230,210)"/>
<path d="M0 0 C0.33 0 0.66 0 1 0 C1 1.65 1 3.3 1 5 C-0.93742341 5.02703381 -2.87495479 5.04641125 -4.8125 5.0625 C-5.89144531 5.07410156 -6.97039062 5.08570313 -8.08203125 5.09765625 C-11 5 -11 5 -14 4 C-13.67 3.34 -13.34 2.68 -13 2 C-8.71 2 -4.42 2 0 2 C0 1.34 0 0.68 0 0 Z " fill="#821A0E" transform="translate(261,173)"/>
<path d="M0 0 C2.75 -0.25 2.75 -0.25 6 0 C8.375 2 8.375 2 10 4 C9.34 5.32 8.68 6.64 8 8 C6.68 7.67 5.36 7.34 4 7 C4.66 5.68 5.32 4.36 6 3 C3.69 3 1.38 3 -1 3 C-0.67 2.01 -0.34 1.02 0 0 Z " fill="#341915" transform="translate(67,153)"/>
<path d="M0 0 C0.99 0.33 1.98 0.66 3 1 C3.33 2.98 3.66 4.96 4 7 C2.35 7.33 0.7 7.66 -1 8 C-1.93065133 5.39417629 -2.14917407 4.35801776 -1.0625 1.75 C-0.711875 1.1725 -0.36125 0.595 0 0 Z " fill="#55231B" transform="translate(29,132)"/>
<path d="M0 0 C2.64 0.33 5.28 0.66 8 1 C7.01 1.33 6.02 1.66 5 2 C5 2.99 5 3.98 5 5 C8.63 5 12.26 5 16 5 C16 5.33 16 5.66 16 6 C12.04 6 8.08 6 4 6 C4 5.34 4 4.68 4 4 C2.68 3.67 1.36 3.34 0 3 C0 2.01 0 1.02 0 0 Z " fill="#B23122" transform="translate(222,71)"/>
<path d="M0 0 C2.68092691 2.68092691 2.38670257 4.39167363 2.625 8.125 C2.69976562 9.22070312 2.77453125 10.31640625 2.8515625 11.4453125 C2.92503906 12.70988281 2.92503906 12.70988281 3 14 C2.01 14.66 1.02 15.32 0 16 C0 15.01 0 14.02 0 13 C-0.804375 12.87625 -1.60875 12.7525 -2.4375 12.625 C-3.283125 12.41875 -4.12875 12.2125 -5 12 C-5.33 11.34 -5.66 10.68 -6 10 C-4.02 10 -2.04 10 0 10 C0 6.7 0 3.4 0 0 Z " fill="#5E1C13" transform="translate(157,57)"/>
<path d="M0 0 C6.02677947 -0.32873343 11.56962527 0.1125141 17 3 C17.33 3.99 17.66 4.98 18 6 C17.01 6 16.02 6 15 6 C15 5.34 15 4.68 15 4 C13.87851563 3.81824219 13.87851563 3.81824219 12.734375 3.6328125 C11.74953125 3.46523438 10.7646875 3.29765625 9.75 3.125 C8.77546875 2.96257813 7.8009375 2.80015625 6.796875 2.6328125 C4.22735883 2.05144152 2.27928944 1.29159735 0 0 Z " fill="#361B16" transform="translate(173,40)"/>
<path d="M0 0 C0.515625 0.268125 1.03125 0.53625 1.5625 0.8125 C4.66401415 2.32349407 7.82262806 3.65572726 11 5 C11 5.66 11 6.32 11 7 C3.56852792 6.39086294 3.56852792 6.39086294 1 4.625 C0 3 0 3 0 0 Z " fill="#BE392A" transform="translate(246,168)"/>
<path d="M0 0 C0.66 0.33 1.32 0.66 2 1 C1.88590407 2.45922693 1.75834456 3.91740598 1.625 5.375 C1.55539063 6.18710938 1.48578125 6.99921875 1.4140625 7.8359375 C1 10 1 10 -1 12 C-3.125 11.625 -3.125 11.625 -5 11 C-4.34 11 -3.68 11 -3 11 C-2.67 9.35 -2.34 7.7 -2 6 C-1.34 6 -0.68 6 0 6 C0 4.02 0 2.04 0 0 Z " fill="#861A0E" transform="translate(99,159)"/>
<path d="M0 0 C2.75457718 0.37994168 3.82020574 0.8073633 5.75 2.875 C7 5 7 5 7 8 C6.34 8 5.68 8 5 8 C4.67 8.99 4.34 9.98 4 11 C3.62875 9.6078125 3.62875 9.6078125 3.25 8.1875 C1.93545755 4.83541675 1.02036616 3.8122197 -2 2 C-1.34 2 -0.68 2 0 2 C0 1.34 0 0.68 0 0 Z " fill="#581912" transform="translate(50,154)"/>
<path d="M0 0 C0.66 0 1.32 0 2 0 C3.49821059 3.37097383 4 5.20442119 4 9 C2.68 9.33 1.36 9.66 0 10 C-0.19412181 8.52168779 -0.38012131 7.04230684 -0.5625 5.5625 C-0.66691406 4.73878906 -0.77132812 3.91507812 -0.87890625 3.06640625 C-0.91886719 2.38449219 -0.95882812 1.70257813 -1 1 C-0.67 0.67 -0.34 0.34 0 0 Z " fill="#B33426" transform="translate(150,88)"/>
<path d="M0 0 C0.33 0 0.66 0 1 0 C1.05441656 1.89551022 1.09298035 3.7914792 1.125 5.6875 C1.14820313 6.74324219 1.17140625 7.79898438 1.1953125 8.88671875 C0.99581648 12.06668529 0.46774207 14.18474047 -1 17 C-3.4375 18.4375 -3.4375 18.4375 -6 19 C-6.99 18.34 -7.98 17.68 -9 17 C-7.88625 16.79375 -6.7725 16.5875 -5.625 16.375 C-3.58411488 15.6915172 -3.58411488 15.6915172 -2 14 C-0.73177831 9.37888318 -0.30893493 4.77272946 0 0 Z " fill="#7D1B10" transform="translate(249,111)"/>
<path d="M0 0 C1.98 0 3.96 0 6 0 C5.67 1.65 5.34 3.3 5 5 C3.02 5 1.04 5 -1 5 C-0.67 3.35 -0.34 1.7 0 0 Z " fill="#69281F" transform="translate(125,96)"/>
<path d="M0 0 C-3.31445091 2.17806774 -5.99557807 3.80931324 -10 4 C-12.47184622 3.18981241 -14.65256228 2.15070476 -17 1 C-13.32085293 -0.17732706 -9.83340856 0 -6 0 C-3.50907189 -1.24546405 -2.58919267 -0.7767578 0 0 Z " fill="#811D12" transform="translate(131,86)"/>
<path d="M0 0 C2.4932534 0.99730136 3.77467439 1.65074531 5.25 3.9375 C6 6 6 6 6 9 C2.66476748 7.61990379 0.81392049 6.15049348 -1 3 C-0.67 2.01 -0.34 1.02 0 0 Z " fill="#561B13" transform="translate(268,80)"/>
<path d="M0 0 C0.8125 1.625 0.8125 1.625 1 4 C-1.125 7.25 -1.125 7.25 -4 10 C-6.8125 10.375 -6.8125 10.375 -9 10 C-7.6875 8 -7.6875 8 -6 6 C-5.01 6 -4.02 6 -3 6 C-2.690625 5.38125 -2.38125 4.7625 -2.0625 4.125 C-1.375 2.75 -0.6875 1.375 0 0 Z " fill="#8D1C0F" transform="translate(133,275)"/>
<path d="M0 0 C2.52282655 2.52282655 5 5.30389793 5 9 C5.99 9.33 6.98 9.66 8 10 C8 10.66 8 11.32 8 12 C6.68 11.67 5.36 11.34 4 11 C4 10.34 4 9.68 4 9 C3.34 9 2.68 9 2 9 C2 8.34 2 7.68 2 7 C1.34 7 0.68 7 0 7 C-1.125 2.25 -1.125 2.25 0 0 Z " fill="#821D11" transform="translate(230,116)"/>
<path d="M0 0 C-0.33 0.99 -0.66 1.98 -1 3 C-0.01 3.66 0.98 4.32 2 5 C-0.64 5.33 -3.28 5.66 -6 6 C-6 5.34 -6 4.68 -6 4 C-6.66 3.67 -7.32 3.34 -8 3 C-8 2.34 -8 1.68 -8 1 C-5.07175348 0.02391783 -3.04386724 -0.08226668 0 0 Z " fill="#86261A" transform="translate(121,67)"/>
<path d="M0 0 C0.66 0 1.32 0 2 0 C2.33 2.31 2.66 4.62 3 7 C3.66 7 4.32 7 5 7 C5.33 8.32 5.66 9.64 6 11 C4.125 10.75 4.125 10.75 2 10 C-0.35535899 6.82026536 -0.17494335 3.84875379 0 0 Z " fill="#BC3829" transform="translate(148,53)"/>
<path d="M0 0 C2.125 0.375 2.125 0.375 4 1 C4.625 2.875 4.625 2.875 5 5 C4.34 5.66 3.68 6.32 3 7 C1.0625 6.1875 1.0625 6.1875 -1 5 C-1.33 4.01 -1.66 3.02 -2 2 C-1.34 1.34 -0.68 0.68 0 0 Z " fill="#65261E" transform="translate(108,259)"/>
<path d="M0 0 C0.99 0 1.98 0 3 0 C3.33 3.3 3.66 6.6 4 10 C2.68 9.34 1.36 8.68 0 8 C0 5.36 0 2.72 0 0 Z " fill="#BC392A" transform="translate(57,232)"/>
<path d="M0 0 C2.25245881 2.68841859 3.88213958 4.64641875 5 8 C3.68 8.33 2.36 8.66 1 9 C0.896875 8.360625 0.79375 7.72125 0.6875 7.0625 C0.460625 6.381875 0.23375 5.70125 0 5 C-0.99 4.67 -1.98 4.34 -3 4 C-2.01 2.68 -1.02 1.36 0 0 Z " fill="#511E17" transform="translate(111,77)"/>
<path d="M0 0 C4.95 0 9.9 0 15 0 C11.41755889 3.58244111 11.41755889 3.58244111 8 4 C5.24667526 3.56288458 2.69068047 2.76235947 0 2 C0 1.34 0 0.68 0 0 Z " fill="#80190D" transform="translate(214,270)"/>
<path d="M0 0 C0.33 0.66 0.66 1.32 1 2 C-1.97 2 -4.94 2 -8 2 C-8.33 2.99 -8.66 3.98 -9 5 C-9 4.01 -9 3.02 -9 2 C-9.66 2 -10.32 2 -11 2 C-11 1.34 -11 0.68 -11 0 C-6.88825414 -1.37058195 -4.26339405 -0.75640862 0 0 Z " fill="#4F1F18" transform="translate(275,194)"/>
<path d="M0 0 C0.66 0.33 1.32 0.66 2 1 C2 4.3 2 7.6 2 11 C1.01 11.495 1.01 11.495 0 12 C-1.5 10.625 -1.5 10.625 -3 9 C-3 8.34 -3 7.68 -3 7 C-1.68 6.67 -0.36 6.34 1 6 C0.67 4.02 0.34 2.04 0 0 Z " fill="#9C2416" transform="translate(153,91)"/>
<path d="M0 0 C3.3125 0.25 3.3125 0.25 7 1 C7.99 2.32 8.98 3.64 10 5 C6.37 4.34 2.74 3.68 -1 3 C-0.67 2.01 -0.34 1.02 0 0 Z " fill="#3F1B15" transform="translate(178,86)"/>
<path d="M0 0 C1.32 0 2.64 0 4 0 C4 2.64 4 5.28 4 8 C2.35 8 0.7 8 -1 8 C-0.67 5.36 -0.34 2.72 0 0 Z " fill="#6C1E15" transform="translate(164,44)"/>
<path d="M0 0 C0.33 0 0.66 0 1 0 C1.309375 0.969375 1.61875 1.93875 1.9375 2.9375 C2.69523342 5.84065792 2.69523342 5.84065792 4 7 C5.34747084 7.23075082 6.70377565 7.41153063 8.0625 7.5625 C9.361875 7.706875 10.66125 7.85125 12 8 C9.13024831 9.95143115 7.87385237 9.98930952 4.3125 9.6875 C1 9 1 9 0 8 C-0.14115161 5.32941149 -0.04247107 2.67567762 0 0 Z " fill="#8B1D11" transform="translate(215,260)"/>
<path d="M0 0 C6.75 -0.125 6.75 -0.125 9 1 C9 1.66 9 2.32 9 3 C9.99 3.33 10.98 3.66 12 4 C11.67 5.32 11.34 6.64 11 8 C10.76539063 7.37609375 10.53078125 6.7521875 10.2890625 6.109375 C8.63176925 3.39744059 7.3858401 3.11024003 4.375 2.25 C3.55773437 2.00765625 2.74046875 1.7653125 1.8984375 1.515625 C1.27195313 1.34546875 0.64546875 1.1753125 0 1 C0 0.67 0 0.34 0 0 Z " fill="#932114" transform="translate(190,201)"/>
<path d="M0 0 C2.74148672 0.37047118 4.58593199 0.68587944 6.8125 2.375 C8 4 8 4 8 7 C5.33333333 5.66666667 2.66666667 4.33333333 0 3 C0 2.01 0 1.02 0 0 Z " fill="#B73729" transform="translate(267,196)"/>
<path d="M0 0 C0.66 0 1.32 0 2 0 C3.60725635 3.21451269 3.05748185 6.43612536 3 10 C2.01 10 1.02 10 0 10 C0 6.7 0 3.4 0 0 Z " fill="#BD392A" transform="translate(49,160)"/>
<path d="M0 0 C0.99 0 1.98 0 3 0 C2.25 4.75 2.25 4.75 0 7 C-1.32 7 -2.64 7 -4 7 C-3.67 6.01 -3.34 5.02 -3 4 C-2.34 4 -1.68 4 -1 4 C-0.67 2.68 -0.34 1.36 0 0 Z " fill="#B63628" transform="translate(243,146)"/>
<path d="M0 0 C0.70125 0.268125 1.4025 0.53625 2.125 0.8125 C-0.875 2.8125 -0.875 2.8125 -3.875 4.1875 C-6.84345803 5.79541477 -8.12259106 6.98917449 -9.875 9.8125 C-9.65460279 5.95554875 -8.85953876 4.79633598 -6.125 1.9375 C-2.875 -0.1875 -2.875 -0.1875 0 0 Z " fill="#791A0F" transform="translate(274.875,123.1875)"/>
<path d="M0 0 C1.32 0 2.64 0 4 0 C4 1.65 4 3.3 4 5 C2.35 5.33 0.7 5.66 -1 6 C-1.042721 4.33388095 -1.04063832 2.66617115 -1 1 C-0.67 0.67 -0.34 0.34 0 0 Z " fill="#943227" transform="translate(215,94)"/>
<path d="M0 0 C1 3 1 3 -0.4375 6.1875 C-1.2109375 7.5796875 -1.2109375 7.5796875 -2 9 C-3.65 8.67 -5.3 8.34 -7 8 C-6.0409375 7.1028125 -6.0409375 7.1028125 -5.0625 6.1875 C-2.79689611 4.09189663 -2.79689611 4.09189663 -2 1 C-1.34 0.67 -0.68 0.34 0 0 Z " fill="#441B14" transform="translate(182,274)"/>
<path d="M0 0 C3.37462715 0.54723683 5.08235 1.0549 8 3 C8 4.32 8 5.64 8 7 C7.01 6.67 6.02 6.34 5 6 C5 5.34 5 4.68 5 4 C2.525 3.01 2.525 3.01 0 2 C0 1.34 0 0.68 0 0 Z " fill="#BB3728" transform="translate(244,235)"/>
<path d="M0 0 C0.66 0 1.32 0 2 0 C2 0.99 2 1.98 2 3 C1.34 3 0.68 3 0 3 C0.33 7.29 0.66 11.58 1 16 C-1.6781634 13.3218366 -1.72119442 11.76387529 -2 8 C-1.51050535 5.25091894 -0.78777171 2.68769171 0 0 Z " fill="#85190D" transform="translate(173,88)"/>
<path d="M0 0 C0.598125 0.309375 1.19625 0.61875 1.8125 0.9375 C4.08956772 2.10209704 4.08956772 2.10209704 7 3 C7 3.99 7 4.98 7 6 C4.03 5.505 4.03 5.505 1 5 C0.67 3.35 0.34 1.7 0 0 Z " fill="#B93729" transform="translate(72,118)"/>
<path d="M0 0 C1.670625 0.061875 1.670625 0.061875 3.375 0.125 C2.776875 0.3725 2.17875 0.62 1.5625 0.875 C-2.18189531 3.01465447 -3.84860943 6.29892801 -5.625 10.125 C-5.8203125 4.0703125 -5.8203125 4.0703125 -5.625 2.125 C-3.625 0.125 -3.625 0.125 0 0 Z " fill="#921F12" transform="translate(181.625,89.875)"/>
<path d="M0 0 C1.32 0.33 2.64 0.66 4 1 C4.33 2.65 4.66 4.3 5 6 C3.35 5.67 1.7 5.34 0 5 C0 3.35 0 1.7 0 0 Z " fill="#973327" transform="translate(90,85)"/>
<path d="M0 0 C0.66 0 1.32 0 2 0 C2.2519555 3.02346601 2.20421041 4.6402007 0.6875 7.3125 C0.130625 7.869375 -0.42625 8.42625 -1 9 C-1.99 9 -2.98 9 -4 9 C-3.71125 8.443125 -3.4225 7.88625 -3.125 7.3125 C-1.9586747 4.91505355 -0.9660119 2.48403061 0 0 Z " fill="#BF3A2B" transform="translate(90,253)"/>
<path d="M0 0 C-1.27875 0.0825 -2.5575 0.165 -3.875 0.25 C-6.06320212 0.46704158 -6.06320212 0.46704158 -8 1 C-9.3169667 2.88370471 -9.3169667 2.88370471 -10 5 C-12.125 6.25 -12.125 6.25 -14 7 C-12.71107323 4.12470182 -11.50703617 1.94991702 -9 0 C-5.64561525 -1.03211839 -3.32744227 -1.10914742 0 0 Z " fill="#962518" transform="translate(241,195)"/>
<path d="M0 0 C0.99 0.99 1.98 1.98 3 3 C2.67 3.66 2.34 4.32 2 5 C1.77532169 6.53668865 1.59203195 8.07968054 1.4375 9.625 C1.35371094 10.44226563 1.26992187 11.25953125 1.18359375 12.1015625 C1.12300781 12.72804688 1.06242187 13.35453125 1 14 C0.67 14 0.34 14 0 14 C-0.1953125 12.01432292 -0.390625 10.02864583 -0.5859375 8.04296875 C-0.92665391 5.70011858 -0.92665391 5.70011858 -3 3 C-2.01 3 -1.02 3 0 3 C0 2.01 0 1.02 0 0 Z " fill="#5C1A12" transform="translate(114,102)"/>
<path d="M0 0 C0.99 0.33 1.98 0.66 3 1 C2.690625 1.53625 2.38125 2.0725 2.0625 2.625 C0.82172561 5.3984957 0.4090325 8.00042837 0 11 C-2 9 -2 9 -2.25 6.0625 C-2 3 -2 3 0 0 Z " fill="#8B190D" transform="translate(57,227)"/>
<path d="M0 0 C0.75 1.75 0.75 1.75 1 4 C-1.18771055 7.06279477 -2.56114062 7.89872476 -6.25 8.75 C-7.61125 8.87375 -7.61125 8.87375 -9 9 C-8.2575 8.443125 -7.515 7.88625 -6.75 7.3125 C-4.08292005 5.06972822 -2.08443768 2.77925025 0 0 Z " fill="#871C11" transform="translate(248,205)"/>
<path d="M0 0 C0.99 0 1.98 0 3 0 C3.33 2.31 3.66 4.62 4 7 C3.01 7 2.02 7 1 7 C0.67 4.69 0.34 2.38 0 0 Z " fill="#B23A2C" transform="translate(38,133)"/>
<path d="M0 0 C0.66 0 1.32 0 2 0 C2.36458333 4.49652778 2.36458333 4.49652778 0.6875 6.8125 C-1 8 -1 8 -4 8 C-2.66666667 5.33333333 -1.33333333 2.66666667 0 0 Z " fill="#BA3728" transform="translate(206,120)"/>
<path d="M0 0 C3 1 3 1 4.3125 3.1875 C5.18142092 6.74217647 4.3912592 8.67643635 3 12 C2.67 12 2.34 12 2 12 C1.34 8.04 0.68 4.08 0 0 Z " fill="#9A281A" transform="translate(88,108)"/>
<path d="M0 0 C4.455 0.99 4.455 0.99 9 2 C9 2.99 9 3.98 9 5 C4.68607774 4.5206753 2.83430453 3.2542015 0 0 Z " fill="#411C16" transform="translate(179,106)"/>
<path d="M0 0 C2.3125 -0.25 2.3125 -0.25 5 0 C6.8125 1.5 6.8125 1.5 8 4 C8.23884872 6.72079845 8.13709297 9.25814068 8 12 C7.67 12 7.34 12 7 12 C6.71125 10.906875 6.4225 9.81375 6.125 8.6875 C4.78937362 4.30961353 3.81888226 2.54592151 0 0 Z " fill="#861F13" transform="translate(106,104)"/>
<path d="M0 0 C2 1 2 1 3.1875 4.3125 C3.90649268 7.57562063 4.20286847 8.99282882 3 12 C2.34 12 1.68 12 1 12 C0.67 8.04 0.34 4.08 0 0 Z " fill="#911E12" transform="translate(88,50)"/>
<path d="M0 0 C0.66 0 1.32 0 2 0 C1.62403791 2.78211944 1.32681541 4.5879284 -0.4375 6.8125 C-2 8 -2 8 -4 8 C-3.40312566 4.65750371 -2.26396123 2.53563658 0 0 Z " fill="#BE3A2C" transform="translate(132,272)"/>
<path d="M0 0 C0.66 0.66 1.32 1.32 2 2 C1.66302652 8.17784711 1.66302652 8.17784711 -0.5625 10.9375 C-1.036875 11.288125 -1.51125 11.63875 -2 12 C-2.66 11.67 -3.32 11.34 -4 11 C-3.2884375 10.2265625 -3.2884375 10.2265625 -2.5625 9.4375 C-0.57190593 6.33217325 -0.34939182 3.63367496 0 0 Z " fill="#871B0F" transform="translate(93,250)"/>
<path d="M0 0 C1.8125 0.1875 1.8125 0.1875 4 1 C5.75 3.5625 5.75 3.5625 7 6 C6.01 6.33 5.02 6.66 4 7 C0 2.25 0 2.25 0 0 Z " fill="#391B15" transform="translate(276,196)"/>
<path d="M0 0 C1.875 0.25 1.875 0.25 4 1 C5.87380446 3.49840595 6.05001932 4.63319166 5.625 7.75 C5.41875 8.4925 5.2125 9.235 5 10 C2.35534962 6.8745041 1.15585285 3.91211733 0 0 Z " fill="#772217" transform="translate(59,183)"/>
<path d="M0 0 C0.99 0 1.98 0 3 0 C2.67 1.65 2.34 3.3 2 5 C0.68 5.33 -0.64 5.66 -2 6 C-2 5.34 -2 4.68 -2 4 C-3.32 3.67 -4.64 3.34 -6 3 C-4.02 3 -2.04 3 0 3 C0 2.01 0 1.02 0 0 Z " fill="#4F1A13" transform="translate(262,175)"/>
<path d="M0 0 C1.98 0.99 1.98 0.99 4 2 C4.125 5.375 4.125 5.375 4 9 C3.34 9.66 2.68 10.32 2 11 C1.34 7.37 0.68 3.74 0 0 Z " fill="#921C0F" transform="translate(50,158)"/>
<path d="M0 0 C2 3 2 3 2 6 C0.68 6 -0.64 6 -2 6 C-2 5.01 -2 4.02 -2 3 C-3.65 3.33 -5.3 3.66 -7 4 C-6.67 3.34 -6.34 2.68 -6 2 C-4.02 2 -2.04 2 0 2 C0 1.34 0 0.68 0 0 Z " fill="#66241B" transform="translate(248,143)"/>
<path d="M0 0 C1.875 0.3125 1.875 0.3125 4 1 C4.66 1.99 5.32 2.98 6 4 C5.01 4.495 5.01 4.495 4 5 C3.67 5.66 3.34 6.32 3 7 C1.68 5.35 0.36 3.7 -1 2 C-0.67 1.34 -0.34 0.68 0 0 Z " fill="#6F2218" transform="translate(187,89)"/>
<path d="M0 0 C0.99 0 1.98 0 3 0 C2.67 3.3 2.34 6.6 2 10 C1.34 10 0.68 10 0 10 C0 6.7 0 3.4 0 0 Z " fill="#3A1C16" transform="translate(145,85)"/>
<path d="M0 0 C1.32 0.33 2.64 0.66 4 1 C4.33 2.65 4.66 4.3 5 6 C4.01 6 3.02 6 2 6 C2 5.34 2 4.68 2 4 C1.34 4 0.68 4 0 4 C0 2.68 0 1.36 0 0 Z " fill="#C03D2F" transform="translate(204,83)"/>
<path d="M0 0 C0.33 0 0.66 0 1 0 C1 1.98 1 3.96 1 6 C1.66 6 2.32 6 3 6 C2.67 7.65 2.34 9.3 2 11 C1.01 11 0.02 11 -1 11 C-2.31625194 8.36749612 -1.74813658 7.19820944 -1.0625 4.375 C-0.86785156 3.55773438 -0.67320313 2.74046875 -0.47265625 1.8984375 C-0.23869141 0.95871094 -0.23869141 0.95871094 0 0 Z " fill="#511A13" transform="translate(87,56)"/>
<path d="M0 0 C3.36704285 -0.2295711 5.41370268 -0.33943529 8.375 1.375 C8.91125 1.91125 9.4475 2.4475 10 3 C10 3.66 10 4.32 10 5 C9.484375 4.690625 8.96875 4.38125 8.4375 4.0625 C5.33334577 2.70940713 2.34884993 2.38640576 -1 2 C-0.67 1.34 -0.34 0.68 0 0 Z " fill="#901D11" transform="translate(242,233)"/>
<path d="M0 0 C4.75 0.75 4.75 0.75 7 3 C6.67 3.99 6.34 4.98 6 6 C2.535 4.02 2.535 4.02 -1 2 C-0.67 1.34 -0.34 0.68 0 0 Z " fill="#5F2018" transform="translate(65,226)"/>
<path d="M0 0 C0.99 0 1.98 0 3 0 C2.67 1.98 2.34 3.96 2 6 C1.01 6.33 0.02 6.66 -1 7 C-0.67 4.69 -0.34 2.38 0 0 Z " fill="#AC382B" transform="translate(95,225)"/>
<path d="M0 0 C5.875 0.875 5.875 0.875 7 2 C7.04063832 3.66617115 7.042721 5.33388095 7 7 C6.34 7 5.68 7 5 7 C4.67 5.68 4.34 4.36 4 3 C2.68 2.67 1.36 2.34 0 2 C0 1.34 0 0.68 0 0 Z " fill="#341B16" transform="translate(93,222)"/>
<path d="M0 0 C0.33 0 0.66 0 1 0 C1.33 2.97 1.66 5.94 2 9 C-0.475 8.01 -0.475 8.01 -3 7 C-2.690625 6.401875 -2.38125 5.80375 -2.0625 5.1875 C-0.89790296 2.91043228 -0.89790296 2.91043228 0 0 Z " fill="#7F2419" transform="translate(229,204)"/>
<path d="M0 0 C1.65 0.33 3.3 0.66 5 1 C4.566875 1.350625 4.13375 1.70125 3.6875 2.0625 C1.31641544 4.78485635 0.3283165 7.64758216 -1 11 C-2.60080151 6.99799622 -1.29279692 3.95443764 0 0 Z " fill="#632117" transform="translate(236,146)"/>
<path d="M0 0 C1.32 0.33 2.64 0.66 4 1 C4 2.65 4 4.3 4 6 C2.68 5.67 1.36 5.34 0 5 C0 3.35 0 1.7 0 0 Z " fill="#772B22" transform="translate(224,128)"/>
<path d="M0 0 C2.4294516 3.6441774 2.16179575 5.71241272 2 10 C1.34 9.67 0.68 9.34 0 9 C-0.73075648 6.6859378 -1.40138258 4.35171131 -2 2 C-1.34 1.34 -0.68 0.68 0 0 Z " fill="#3F1A14" transform="translate(142,52)"/>
<path d="M0 0 C0.33 0 0.66 0 1 0 C1.66 3.3 2.32 6.6 3 10 C1.68 10 0.36 10 -1 10 C-0.67 6.7 -0.34 3.4 0 0 Z " fill="#961D10" transform="translate(152,254)"/>
<path d="M0 0 C0.66 0.33 1.32 0.66 2 1 C1.67 1.99 1.34 2.98 1 4 C-0.98 4.33 -2.96 4.66 -5 5 C-5 4.01 -5 3.02 -5 2 C-2.625 0.9375 -2.625 0.9375 0 0 Z " fill="#461A14" transform="translate(99,169)"/>
<path d="M0 0 C1.32 0 2.64 0 4 0 C4.33 1.65 4.66 3.3 5 5 C3.68 5 2.36 5 1 5 C0.67 3.35 0.34 1.7 0 0 Z " fill="#541A12" transform="translate(239,168)"/>
<path d="M0 0 C0.99 0.33 1.98 0.66 3 1 C1.68 3.31 0.36 5.62 -1 8 C-1.66 7.34 -2.32 6.68 -3 6 C-2.01 4.02 -1.02 2.04 0 0 Z " fill="#5F1911" transform="translate(45,91)"/>
<path d="M0 0 C0.66 0 1.32 0 2 0 C2.33 0.99 2.66 1.98 3 3 C1.68 4.32 0.36 5.64 -1 7 C-1.625 5.1875 -1.625 5.1875 -2 3 C-1.34 2.01 -0.68 1.02 0 0 Z " fill="#6C2218" transform="translate(216,253)"/>
<path d="M0 0 C0.66 0.33 1.32 0.66 2 1 C1.6875 3.875 1.6875 3.875 1 7 C0.01 7.66 -0.98 8.32 -2 9 C-2.99 8.67 -3.98 8.34 -5 8 C-4.360625 7.608125 -3.72125 7.21625 -3.0625 6.8125 C-0.56221181 4.61527704 -0.35049575 3.24208567 0 0 Z " fill="#96281A" transform="translate(75,237)"/>
<path d="M0 0 C2.97 0.495 2.97 0.495 6 1 C6 1.99 6 2.98 6 4 C4.35 4 2.7 4 1 4 C0.67 2.68 0.34 1.36 0 0 Z " fill="#A9382A" transform="translate(217,227)"/>
<path d="M0 0 C1.65 0 3.3 0 5 0 C5.33 1.32 5.66 2.64 6 4 C3.03 3.505 3.03 3.505 0 3 C0 2.01 0 1.02 0 0 Z " fill="#6A2118" transform="translate(274,207)"/>
<path d="M0 0 C0.6875 1.6875 0.6875 1.6875 1 4 C-0.1875 6.6875 -0.1875 6.6875 -2 9 C-4.1875 9.8125 -4.1875 9.8125 -6 10 C-5.38125 9.278125 -4.7625 8.55625 -4.125 7.8125 C-2.16333647 5.21618062 -1.04684 3.05328334 0 0 Z " fill="#912013" transform="translate(119,198)"/>
<path d="M0 0 C1.2065625 0.0309375 1.2065625 0.0309375 2.4375 0.0625 C1.2309375 0.9596875 1.2309375 0.9596875 0 1.875 C-2.78577984 3.87197276 -2.78577984 3.87197276 -3.5625 7.0625 C-1.5825 7.5575 -1.5825 7.5575 0.4375 8.0625 C-1.2125 8.0625 -2.8625 8.0625 -4.5625 8.0625 C-3.54737544 0.08652135 -3.54737544 0.08652135 0 0 Z " fill="#A5372A" transform="translate(218.5625,136.9375)"/>
<path d="M0 0 C0.33 0 0.66 0 1 0 C1 1.98 1 3.96 1 6 C1.66 6.33 2.32 6.66 3 7 C1.68 8.32 0.36 9.64 -1 11 C-1.66 10.34 -2.32 9.68 -3 9 C-2.34 8.34 -1.68 7.68 -1 7 C-0.59952556 4.67724823 -0.2602896 2.34260643 0 0 Z " fill="#712218" transform="translate(242,66)"/>
<path d="M0 0 C0.99 0 1.98 0 3 0 C3.33 1.32 3.66 2.64 4 4 C5.65 4.33 7.3 4.66 9 5 C8.34 5.66 7.68 6.32 7 7 C1.125 3.375 1.125 3.375 0 0 Z " fill="#381B16" transform="translate(195,126)"/>
<path d="M0 0 C0.66 0 1.32 0 2 0 C2 0.66 2 1.32 2 2 C2.66 2 3.32 2 4 2 C3.67 3.98 3.34 5.96 3 8 C2.34 8 1.68 8 1 8 C0.67 5.36 0.34 2.72 0 0 Z " fill="#531F17" transform="translate(242,64)"/>
<path d="M0 0 C1.15941038 3.47823115 0.70820884 5.45895578 0 9 C-0.66 9 -1.32 9 -2 9 C-2.125 5.625 -2.125 5.625 -2 2 C-1.34 1.34 -0.68 0.68 0 0 Z " fill="#391B15" transform="translate(214,259)"/>
<path d="M0 0 C0.33 0 0.66 0 1 0 C1.66 3.96 2.32 7.92 3 12 C1.68 11.67 0.36 11.34 -1 11 C-0.67 7.37 -0.34 3.74 0 0 Z " fill="#561F17" transform="translate(184,209)"/>
<path d="M0 0 C0.66 0.33 1.32 0.66 2 1 C1.01 3.97 0.02 6.94 -1 10 C-1.66 9.67 -2.32 9.34 -3 9 C-2.01 6.03 -1.02 3.06 0 0 Z " fill="#5B2017" transform="translate(118,194)"/>
<path d="M0 0 C0.66 0 1.32 0 2 0 C1.34 2.31 0.68 4.62 0 7 C1.32 7.66 2.64 8.32 4 9 C2.35 8.67 0.7 8.34 -1 8 C-1.04241723 5.66705225 -1.04092937 3.33297433 -1 1 C-0.67 0.67 -0.34 0.34 0 0 Z " fill="#A4362A" transform="translate(129,105)"/>
<path d="M0 0 C3 4 3 4 3.07421875 6.140625 C2.71614583 8.09375 2.35807292 10.046875 2 12 C1.34 11.67 0.68 11.34 0 11 C0 7.37 0 3.74 0 0 Z " fill="#842519" transform="translate(194,94)"/>
<path d="M0 0 C-1.65 1.65 -3.3 3.3 -5 5 C-5 4.01 -5 3.02 -5 2 C-5.99 1.67 -6.98 1.34 -8 1 C-3.375 -1.125 -3.375 -1.125 0 0 Z " fill="#611B12" transform="translate(241,77)"/>
<path d="M0 0 C0.75 1.6875 0.75 1.6875 1 4 C-0.9375 6.75 -0.9375 6.75 -3 9 C-2.25 2.25 -2.25 2.25 0 0 Z " fill="#3D1B15" transform="translate(234,257)"/>
<path d="M0 0 C0.99 0.33 1.98 0.66 3 1 C1.68 2.32 0.36 3.64 -1 5 C-1.99 4.67 -2.98 4.34 -4 4 C-2.68 2.68 -1.36 1.36 0 0 Z " fill="#3B1B16" transform="translate(87,119)"/>
<path d="M0 0 C0.66 0 1.32 0 2 0 C2 2.31 2 4.62 2 7 C1.01 6.67 0.02 6.34 -1 6 C-0.67 4.02 -0.34 2.04 0 0 Z " fill="#471D16" transform="translate(230,110)"/>
<path d="M0 0 C0.66 0 1.32 0 2 0 C2.66 2.97 3.32 5.94 4 9 C3.01 8.67 2.02 8.34 1 8 C0.67 5.36 0.34 2.72 0 0 Z " fill="#3F1C16" transform="translate(101,109)"/>
<path d="M0 0 C0.268125 0.61875 0.53625 1.2375 0.8125 1.875 C1.95556848 4.2995233 1.95556848 4.2995233 5 6 C4.67 6.66 4.34 7.32 4 8 C2.68 7.67 1.36 7.34 0 7 C0 4.69 0 2.38 0 0 Z " fill="#621E15" transform="translate(176,100)"/>
<path d="M0 0 C0 0.66 0 1.32 0 2 C-0.99 2.33 -1.98 2.66 -3 3 C-3.33 4.65 -3.66 6.3 -4 8 C-4.33 8 -4.66 8 -5 8 C-5.33 6.02 -5.66 4.04 -6 2 C-3 0 -3 0 0 0 Z " fill="#492019" transform="translate(218,92)"/>
<path d="M0 0 C2.31 0.66 4.62 1.32 7 2 C7 2.33 7 2.66 7 3 C4.625 3.1875 4.625 3.1875 2 3 C1.34 2.01 0.68 1.02 0 0 Z " fill="#631E15" transform="translate(66,142)"/>
<path d="M0 0 C0.66 0.33 1.32 0.66 2 1 C1.67 1.66 1.34 2.32 1 3 C0.34 3 -0.32 3 -1 3 C-0.67 2.01 -0.34 1.02 0 0 Z " fill="#481A13" transform="translate(110,137)"/>
<path d="" fill="#4F1F17" transform="translate(0,0)"/>
<path d="" fill="#341B16" transform="translate(0,0)"/>
</svg>
