<?xml version="1.0" encoding="UTF-8"?>
<svg version="1.1" xmlns="http://www.w3.org/2000/svg" width="320" height="320">
<path d="M0 0 C28.67310909 24.29464784 47.84596482 55.68962578 51.80151367 93.54760742 C54.70497658 129.42126656 45.10722733 164.17975861 22.8125 192.5625 C-1.89835643 221.44983921 -33.51828679 239.53518174 -71.5625 243.6875 C-109.10549286 246.37313883 -145.0187728 235.20553807 -173.71484375 210.6796875 C-176.18169608 208.4910516 -178.5976709 206.25903227 -181 204 C-181.88558594 203.21109375 -181.88558594 203.21109375 -182.7890625 202.40625 C-207.40873088 179.53679501 -219.71078874 143.84712903 -221 111 C-221.63839875 72.40198098 -206.38205582 37.22261607 -179.875 9.5 C-132.08932684 -37.2193262 -52.16231867 -42.70962335 0 0 Z M-114.5 75.25 C-124.52758877 86.28034765 -128.47566553 96.26105654 -128.2109375 111.2109375 C-127.56460188 122.82104028 -121.88489538 133.19177919 -113.44921875 141.11328125 C-103.97753289 148.4096517 -92.89014531 152.56603921 -80.87109375 151.80078125 C-68.40804075 150.0658224 -58.28306737 145.24414842 -49.95703125 135.64453125 C-42.21240893 125.25782029 -38.91476156 113.6300632 -40.37109375 100.70703125 C-42.73020602 88.442578 -48.72257973 78.21428035 -59 71 C-62.24462517 69.08361263 -65.53260987 67.47065168 -69 66 C-70.4540625 65.38125 -70.4540625 65.38125 -71.9375 64.75 C-87.49032508 60.94114488 -102.53866775 64.48480098 -114.5 75.25 Z " fill="#FEC796" transform="translate(244,54)"/>
<path d="M0 0 C-3.50656759 1.19051917 -3.90135022 1.04617418 -7.546875 -0.66015625 C-8.95246827 -1.45292097 -10.35324445 -2.25426593 -11.75 -3.0625 C-42.04816788 -19.76429609 -77.88616769 -23.91800869 -111.22460938 -14.30664062 C-131.43467333 -8.1286365 -148.45604975 1.81050185 -164 16 C-164.73605469 16.66515625 -165.47210938 17.3303125 -166.23046875 18.015625 C-183.58754427 34.50657898 -196.26852099 57.91328146 -200.4921875 81.4375 C-201 84 -201 84 -202 85 C-203.9569253 115.95791661 -194.28936918 144.60489954 -174 168 C-152.10472719 192.54511068 -120.87051502 208.19465372 -88 211 C-73.12573979 211.67467911 -58.5232406 211.43464316 -44 208 C-43.31744141 207.8443457 -42.63488281 207.68869141 -41.93164062 207.52832031 C-18.90191281 202.09104716 1.00317833 190.24398119 18 174 C18.74636719 173.32839844 19.49273437 172.65679687 20.26171875 171.96484375 C35.68728083 157.56226833 45.10385418 137.23391169 50 117 C50.24621094 116.01 50.49242187 115.02 50.74609375 114 C53.66341005 99.83592639 52.34607444 84.30204096 51 70 C51.66 70 52.32 70 53 70 C63.24834736 107.85918613 60.38096412 145.53671902 40.7565918 179.89770508 C36.46833001 187.15398063 31.55843453 193.65320581 26 200 C25.03126953 201.16789062 25.03126953 201.16789062 24.04296875 202.359375 C2.84985297 227.39401279 -30.54290632 242.25651138 -62.75 245.75 C-64.4987252 245.85679238 -66.24907891 245.93901001 -68 246 C-69.59521484 246.07734375 -69.59521484 246.07734375 -71.22265625 246.15625 C-108.59286217 247.13218574 -143.08304931 232.91605766 -170.04321289 207.35986328 C-195.08708165 182.84029823 -209.22079381 148.80142688 -210.03125 113.84375 C-210.10208654 92.13235103 -205.64616857 71.44436914 -196 52 C-195.1646875 50.28876953 -195.1646875 50.28876953 -194.3125 48.54296875 C-188.23551685 36.68441135 -180.10267775 26.66233605 -171 17 C-170.40058594 16.33613281 -169.80117187 15.67226562 -169.18359375 14.98828125 C-127.64657987 -29.24011582 -48.64183002 -36.58530805 0 0 Z " fill="#FEE1AB" transform="translate(235,50)"/>
<path d="M0 0 C12.30036479 9.60854583 20.59739103 21.66202363 24 37 C24.42033878 40.9480007 24.47739747 44.84460192 24.4375 48.8125 C24.42992676 49.86912842 24.42235352 50.92575684 24.41455078 52.0144043 C24.24614483 60.00262401 23.35381169 66.66549592 20 74 C19.57589844 74.94617188 19.15179688 75.89234375 18.71484375 76.8671875 C11.16078374 92.05947531 -1.22929947 101.46186648 -17 107 C-17.70253906 107.2475 -18.40507812 107.495 -19.12890625 107.75 C-34.19657285 111.99607434 -51.82059093 109.20297248 -65.3125 101.8125 C-79.36664727 92.91531806 -89.73073189 80.14326618 -93.54199219 63.65527344 C-96.59236991 45.97088743 -94.18613686 28.38746243 -83.94140625 13.49609375 C-63.86349582 -12.31836252 -27.18244256 -18.1888451 0 0 Z M-65.5 27.25 C-75.52758877 38.28034765 -79.47566553 48.26105654 -79.2109375 63.2109375 C-78.56460188 74.82104028 -72.88489538 85.19177919 -64.44921875 93.11328125 C-54.97753289 100.4096517 -43.89014531 104.56603921 -31.87109375 103.80078125 C-19.40804075 102.0658224 -9.28306737 97.24414842 -0.95703125 87.64453125 C6.78759107 77.25782029 10.08523844 65.6300632 8.62890625 52.70703125 C6.26979398 40.442578 0.27742027 30.21428035 -10 23 C-13.24462517 21.08361263 -16.53260987 19.47065168 -20 18 C-21.4540625 17.38125 -21.4540625 17.38125 -22.9375 16.75 C-38.49032508 12.94114488 -53.53866775 16.48480098 -65.5 27.25 Z " fill="#FEF0B9" transform="translate(195,102)"/>
<path d="M0 0 C28.67310909 24.29464784 47.84596482 55.68962578 51.80151367 93.54760742 C54.70497658 129.42126656 45.10722733 164.17975861 22.8125 192.5625 C-1.89835643 221.44983921 -33.51828679 239.53518174 -71.5625 243.6875 C-109.10549286 246.37313883 -145.0187728 235.20553807 -173.71484375 210.6796875 C-176.18169608 208.4910516 -178.5976709 206.25903227 -181 204 C-181.88558594 203.21109375 -181.88558594 203.21109375 -182.7890625 202.40625 C-207.40873088 179.53679501 -219.71078874 143.84712903 -221 111 C-221.63839875 72.40198098 -206.38205582 37.22261607 -179.875 9.5 C-132.08932684 -37.2193262 -52.16231867 -42.70962335 0 0 Z M-176 9 C-176.94488281 9.86238281 -177.88976562 10.72476563 -178.86328125 11.61328125 C-204.22528864 35.82736185 -218.21908025 70.27248109 -219.03125 105.15625 C-219.10498986 127.75751815 -214.18982233 148.86068135 -204 169 C-203.68160156 169.63131836 -203.36320312 170.26263672 -203.03515625 170.91308594 C-186.88974151 202.28275586 -158.20830494 224.96944778 -125 236 C-90.10969634 246.97718326 -52.63786939 242.78081601 -20.28515625 226.125 C-5.47864438 218.17357948 8.43437776 207.08124658 19 194 C19.69867188 193.13890625 20.39734375 192.2778125 21.1171875 191.390625 C43.33909256 162.94043513 53.34293076 127.69942751 49.5 91.7734375 C48.15573414 81.11990194 45.66037401 71.08246734 42 61 C41.63132812 59.9790625 41.26265625 58.958125 40.8828125 57.90625 C35.44157384 43.94665842 27.56484357 31.46298307 18 20 C17.22011719 19.05511719 16.44023437 18.11023438 15.63671875 17.13671875 C-7.4207821 -9.54356455 -41.34855105 -24.04484619 -76 -27 C-112.98309063 -29.48357191 -148.92528302 -15.94634093 -176 9 Z " fill="#4E3429" transform="translate(244,54)"/>
<path d="M0 0 C1.44971191 0.00966797 1.44971191 0.00966797 2.92871094 0.01953125 C15.57713945 0.34156829 25.12795278 4.57067208 34.25 13.5 C45.03813614 25.36694975 48.08203959 37.55817092 47.39355469 53.31152344 C46.40729467 68.34695682 41.16795467 82.02421275 30 92.375 C18.7542544 101.06489433 6.20494956 103.81289347 -7.75 102.5 C-20.75415145 100.12915579 -31.08011393 93.22134612 -38.75 82.5 C-47.31825861 68.93844783 -49.32878664 51.20226664 -46.171875 35.65234375 C-42.09203455 22.20310227 -34.65557621 12.53039473 -22.75390625 5.0078125 C-15.21283186 1.2225658 -8.41638391 -0.05879416 0 0 Z M-30.25 24.75 C-40.27758877 35.78034765 -44.22566553 45.76105654 -43.9609375 60.7109375 C-43.31460188 72.32104028 -37.63489538 82.69177919 -29.19921875 90.61328125 C-19.72753289 97.9096517 -8.64014531 102.06603921 3.37890625 101.30078125 C15.84195925 99.5658224 25.96693263 94.74414842 34.29296875 85.14453125 C42.03759107 74.75782029 45.33523844 63.1300632 43.87890625 50.20703125 C41.51979398 37.942578 35.52742027 27.71428035 25.25 20.5 C22.00537483 18.58361263 18.71739013 16.97065168 15.25 15.5 C13.7959375 14.88125 13.7959375 14.88125 12.3125 14.25 C-3.24032508 10.44114488 -18.28866775 13.98480098 -30.25 24.75 Z " fill="#F7DAA6" transform="translate(159.75,104.5)"/>
<path d="M0 0 C-3.50656759 1.19051917 -3.90135022 1.04617418 -7.546875 -0.66015625 C-8.95246827 -1.45292097 -10.35324445 -2.25426593 -11.75 -3.0625 C-42.04816788 -19.76429609 -77.88616769 -23.91800869 -111.22460938 -14.30664062 C-131.43467333 -8.1286365 -148.45604975 1.81050185 -164 16 C-164.73605469 16.66515625 -165.47210938 17.3303125 -166.23046875 18.015625 C-181.8653577 32.87032987 -191.60635694 52.13889578 -198.79003906 72.20703125 C-200.804693 77.804693 -200.804693 77.804693 -203 80 C-203.99 79.67 -204.98 79.34 -206 79 C-199.37488534 54.34759965 -187.58661045 34.27251569 -170 16 C-169.14728516 15.05253906 -169.14728516 15.05253906 -168.27734375 14.0859375 C-127.41126259 -30.02016544 -47.66676776 -35.85192789 0 0 Z " fill="#FCF8C1" transform="translate(235,50)"/>
<path d="M0 0 C29.15175676 8.97647518 53.18023446 35.49698252 67.16870117 61.76928711 C83.71072389 93.92970655 86.62855809 131.27066633 76.10742188 165.79614258 C65.22344607 199.50097636 41.83489512 227.66347267 10.8125 244.6875 C9.85827148 245.21525024 9.85827148 245.21525024 8.88476562 245.75366211 C7.29766072 246.58611841 5.65113892 247.30313148 4 248 C3.01 247.67 2.02 247.34 1 247 C1.50748779 246.71914551 2.01497559 246.43829102 2.5378418 246.14892578 C13.35288758 240.12631472 23.47529334 233.93044245 33 226 C33.76699219 225.37351562 34.53398437 224.74703125 35.32421875 224.1015625 C40.04356599 220.12832158 44.11793292 215.78870695 48 211 C48.69996094 210.13761719 49.39992188 209.27523437 50.12109375 208.38671875 C72.33758955 179.93266261 82.34307661 144.70079103 78.5 108.7734375 C77.15573414 98.11990194 74.66037401 88.08246734 71 78 C70.63132812 76.9790625 70.26265625 75.958125 69.8828125 74.90625 C64.43679088 60.93438763 56.54545566 48.49102624 47 37 C46.29359375 36.12859375 45.5871875 35.2571875 44.859375 34.359375 C33.06591579 20.46930082 16.46525607 9.54973723 0 2 C0 1.34 0 0.68 0 0 Z " fill="#55392C" transform="translate(214,37)"/>
<path d="M0 0 C-1 2 -1 2 -3.15234375 2.82421875 C-4.07144531 3.10910156 -4.99054688 3.39398438 -5.9375 3.6875 C-17.55689159 7.80175928 -24.63566729 14.60398189 -30.28125 25.46484375 C-35.14981382 35.91486824 -35.92815713 48.72371218 -32.0390625 59.6640625 C-26.04459858 73.14033854 -17.56873055 80.65300025 -4 86 C7.9358062 89.37076008 20.06767656 87.85972536 31 82 C40.47986308 75.96995175 47.3963196 67.33136492 50.5 56.4296875 C53.35151718 42.57309618 51.50093201 30.68832983 43.94921875 18.65625 C38.9518156 11.84616154 32.0620842 7.46284487 25 3 C25.66 2.67 26.32 2.34 27 2 C40.16170456 7.72248025 47.77295088 18.11905752 53 31 C55.96654994 41.52252713 55.30615289 54.7673658 50.484375 64.4921875 C48.24743179 68.27144419 45.89529045 71.6962156 43 75 C42.24976563 75.90685547 42.24976563 75.90685547 41.484375 76.83203125 C34.43309916 84.6877002 23.70416101 89.39564167 13.2734375 90.3359375 C-1.58029171 90.48477246 -13.01201052 87.21621221 -24.18359375 77.00390625 C-33.52747097 67.37741649 -37.2689245 55.95632506 -37.24658203 42.79980469 C-37.04042888 31.14791536 -32.25654942 20.17929484 -24.25 11.6875 C-17.82548729 5.68224532 -9.10913058 -0.52052175 0 0 Z " fill="#83664E" transform="translate(151,117)"/>
<path d="M0 0 C0.5168335 0.24645264 1.03366699 0.49290527 1.56616211 0.74682617 C36.6717262 17.35578523 72.54943841 21.91000959 110 10 C112.78302788 8.95103778 115.4946773 7.86141884 118.1875 6.6015625 C120 6 120 6 123 7 C119.34633469 10.23060933 115.30457724 11.51260452 110.75 13 C109.95585693 13.26127686 109.16171387 13.52255371 108.34350586 13.79174805 C73.19971969 24.98481519 35.88426083 20.86373831 3.0625 4.625 C2.051875 4.08875 1.04125 3.5525 0 3 C0 2.01 0 1.02 0 0 Z " fill="#5E4133" transform="translate(93,278)"/>
<path d="M0 0 C27.0882956 8.34108953 49.75811219 32.27284702 64 56 C64.84498047 57.36125 64.84498047 57.36125 65.70703125 58.75 C69.11656208 64.46072933 69.11656208 64.46072933 68.54248047 67.11669922 C68.27395264 68.04893311 68.27395264 68.04893311 68 69 C67.71914551 68.49251221 67.43829102 67.98502441 67.14892578 67.4621582 C61.12659075 56.6476081 54.95405818 46.50575149 47 37 C46.29617188 36.13246094 45.59234375 35.26492187 44.8671875 34.37109375 C33.07896645 20.47317263 16.46684662 9.55046654 0 2 C0 1.34 0 0.68 0 0 Z " fill="#432820" transform="translate(214,37)"/>
<path d="M0 0 C1 3 1 3 -0.08203125 5.4609375 C-13.43658591 27.9496458 -31.23462023 46.08047889 -54.1875 58.6875 C-54.82373291 59.03941406 -55.45996582 59.39132812 -56.11547852 59.75390625 C-57.70252987 60.58623225 -59.34896052 61.30317345 -61 62 C-61.99 61.67 -62.98 61.34 -64 61 C-63.49251221 60.71914551 -62.98502441 60.43829102 -62.4621582 60.14892578 C-51.64711242 54.12631472 -41.52470666 47.93044245 -32 40 C-31.23300781 39.37351562 -30.46601563 38.74703125 -29.67578125 38.1015625 C-17.24408539 27.63525855 -8.21011377 13.86994696 0 0 Z " fill="#442A21" transform="translate(279,223)"/>
<path d="M0 0 C2.68314743 3.24771424 5.00961986 6.52208718 7.1875 10.125 C18.7228899 28.39549016 34.22067535 41.26510119 52 53 C51.505 53.99 51.505 53.99 51 55 C31.91908343 43.21718583 16.72524471 29.47931565 4 11 C3.39414062 10.13246094 2.78828125 9.26492187 2.1640625 8.37109375 C0.75 6.25 0.75 6.25 -1 3 C-0.67 2.01 -0.34 1.02 0 0 Z " fill="#462D24" transform="translate(41,225)"/>
<path d="M0 0 C0 0.66 0 1.32 0 2 C-3.14121016 1.48068703 -6.10440076 0.67822742 -9.125 -0.3046875 C-27.10183868 -6.14236364 -44.09345632 -8.45984436 -63.00268555 -7.97802734 C-64.52309448 -7.94443115 -64.52309448 -7.94443115 -66.07421875 -7.91015625 C-66.97744873 -7.88058838 -67.88067871 -7.85102051 -68.8112793 -7.82055664 C-71 -8 -71 -8 -73 -10 C-48.27955985 -13.13910351 -22.84160516 -10.13872539 0 0 Z " fill="#4F392E" transform="translate(214,36)"/>
<path d="M0 0 C-1 2 -1 2 -3.15234375 2.82421875 C-4.07144531 3.10910156 -4.99054688 3.39398438 -5.9375 3.6875 C-17.55719961 7.80186834 -24.47619776 14.56218704 -30.24609375 25.32421875 C-34.01318212 33.23096467 -35.17668801 41.35522409 -36 50 C-36.33 50 -36.66 50 -37 50 C-37.58489134 36.17923426 -35.02417826 24.74623486 -26.18359375 13.73828125 C-19.63117768 6.78874906 -9.96504847 -0.56943134 0 0 Z " fill="#745945" transform="translate(151,117)"/>
<path d="M0 0 C-2.97027225 2.97027225 -6.62771355 3.01975271 -10.625 3.75 C-24.016715 6.4038267 -35.87551279 11.14641768 -47.94995117 17.45996094 C-52.81505526 20 -52.81505526 20 -55 20 C-55 19.34 -55 18.68 -55 18 C-38.67233393 8.5629086 -19.28757531 -0.70136637 0 0 Z " fill="#4D372C" transform="translate(143,27)"/>
<path d="M0 0 C0.33 0 0.66 0 1 0 C1.17468405 5.91238331 0.62125466 11.2252873 -0.625 17 C-0.88796875 18.23242432 -0.88796875 18.23242432 -1.15625 19.48974609 C-3.71034753 30.83667425 -8.11147184 41.47086242 -13 52 C-13.66 51.01 -14.32 50.02 -15 49 C-14.55615234 47.16918945 -14.55615234 47.16918945 -13.5859375 45.11328125 C-13.23869629 44.34773926 -12.89145508 43.58219727 -12.53369141 42.79345703 C-12.15132324 41.97474121 -11.76895508 41.15602539 -11.375 40.3125 C-6.03486121 28.27944831 -3.11266783 16.46564747 -1.39453125 3.37890625 C-1 1 -1 1 0 0 Z " fill="#503428" transform="translate(294,173)"/>
<path d="M0 0 C0.66 0 1.32 0 2 0 C1.405854 3.63591518 0.38761387 6.52172529 -1.25 9.8125 C-6.91615258 22.029118 -9.83728823 34.7775671 -12 48 C-12.66 48 -13.32 48 -14 48 C-14.33 48.66 -14.66 49.32 -15 50 C-13.28207759 32.3764856 -8.14411533 15.68585527 0 0 Z " fill="#5A4334" transform="translate(39,97)"/>
<path d="M0 0 C5.71689119 1.4292228 9.56003458 4.29427011 14 8 C14.60070312 8.48082031 15.20140625 8.96164063 15.8203125 9.45703125 C22.42366625 15.30529298 27.96316047 25.1934263 29 34 C29.10440968 36.93942265 29.09454519 39.87173721 29.0625 42.8125 C29.05798828 43.60076172 29.05347656 44.38902344 29.04882812 45.20117188 C29.03711312 47.13414761 29.01917998 49.06708393 29 51 C28.67 51 28.34 51 28 51 C27.90203125 49.82824219 27.8040625 48.65648437 27.703125 47.44921875 C26.39216942 33.12790653 23.92399197 20.1155467 12.7578125 9.9609375 C9.43544499 7.33212819 5.97088648 4.95836843 2.4375 2.625 C1.633125 2.08875 0.82875 1.5525 0 1 C0 0.67 0 0.34 0 0 Z " fill="#6C523F" transform="translate(176,119)"/>
<path d="M0 0 C0.99 0.33 1.98 0.66 3 1 C-0.6536634 4.23060764 -4.69541226 5.51261085 -9.25 7 C-10.04196777 7.26055176 -10.83393555 7.52110352 -11.64990234 7.78955078 C-21.93978887 11.06649333 -32.16206311 13.21532325 -43 13 C-42.67 12.34 -42.34 11.68 -42 11 C-40.15258789 10.50097656 -40.15258789 10.50097656 -37.72265625 10.140625 C-36.82450195 9.99729736 -35.92634766 9.85396973 -35.00097656 9.70629883 C-34.0312793 9.55572021 -33.06158203 9.4051416 -32.0625 9.25 C-21.17118726 7.43329479 -9.95305679 4.97652839 0 0 Z " fill="#53382B" transform="translate(213,284)"/>
<path d="M0 0 C-1 2 -1 2 -3.15234375 2.82421875 C-4.07144531 3.10910156 -4.99054688 3.39398438 -5.9375 3.6875 C-12.95527705 6.12448263 -19.80535018 9.70802527 -24 16 C-24.99 15.67 -25.98 15.34 -27 15 C-20.28306986 7.4823762 -10.63632179 -0.60778982 0 0 Z " fill="#5C4233" transform="translate(151,117)"/>
<path d="M0 0 C9.46789752 2.8902003 18.16984843 7.99081391 26 14 C25.67 14.99 25.34 15.98 25 17 C24.45214844 16.5875 23.90429688 16.175 23.33984375 15.75 C15.94681267 10.36450744 8.11529518 6.16585152 0 2 C0 1.34 0 0.68 0 0 Z " fill="#41271F" transform="translate(214,37)"/>
<path d="M0 0 C0 0.66 0 1.32 0 2 C-4.12426536 2.22512171 -8.24933849 2.42725588 -12.375 2.625 C-13.550625 2.68945312 -14.72625 2.75390625 -15.9375 2.8203125 C-17.61972656 2.89765625 -17.61972656 2.89765625 -19.3359375 2.9765625 C-20.37282715 3.02893066 -21.4097168 3.08129883 -22.47802734 3.13525391 C-25 3 -25 3 -27 1 C-17.98185679 -0.14516104 -9.0719352 -0.09471858 0 0 Z " fill="#7F6E56" transform="translate(168,25)"/>
<path d="M0 0 C2.82782668 3.42710121 5.3225484 6.92717565 7.6875 10.6875 C8.28949219 11.64011719 8.89148438 12.59273437 9.51171875 13.57421875 C11 16 11 16 12 18 C8.39013627 17.39700653 8.05327967 17.06796852 5.60546875 13.9453125 C4.78702566 12.67984295 3.98141372 11.40600089 3.1875 10.125 C2.55811523 9.16787109 2.55811523 9.16787109 1.91601562 8.19140625 C0.85372667 6.51484477 -0.08269089 4.76007392 -1 3 C-0.67 2.01 -0.34 1.02 0 0 Z " fill="#4C3127" transform="translate(41,225)"/>
<path d="M0 0 C6.18160604 0.53753096 11.326858 2.54582388 17 5 C17 5.66 17 6.32 17 7 C13.08878502 6.31063929 9.44491404 5.21749819 5.6875 3.9375 C4.61886719 3.57527344 3.55023438 3.21304688 2.44921875 2.83984375 C1.23685547 2.42412109 1.23685547 2.42412109 0 2 C0 1.34 0 0.68 0 0 Z " fill="#5D493A" transform="translate(197,31)"/>
<path d="M0 0 C0.66 0 1.32 0 2 0 C1.37183502 3.94949704 0.1354471 7.19892028 -1.5625 10.8125 C-2.01753906 11.78832031 -2.47257812 12.76414062 -2.94140625 13.76953125 C-3.29074219 14.50558594 -3.64007813 15.24164063 -4 16 C-4.66 16 -5.32 16 -6 16 C-5.37183502 12.05050296 -4.1354471 8.80107972 -2.4375 5.1875 C-1.98246094 4.21167969 -1.52742188 3.23585938 -1.05859375 2.23046875 C-0.70925781 1.49441406 -0.35992187 0.75835937 0 0 Z " fill="#4A3329" transform="translate(39,97)"/>
<path d="M0 0 C0 0.66 0 1.32 0 2 C-1.78881736 3.00508801 -3.58114696 4.00392736 -5.375 5 C-6.37273437 5.556875 -7.37046875 6.11375 -8.3984375 6.6875 C-11 8 -11 8 -13 8 C-13 7.34 -13 6.68 -13 6 C-11.21118264 4.99491199 -9.41885304 3.99607264 -7.625 3 C-6.62726563 2.443125 -5.62953125 1.88625 -4.6015625 1.3125 C-2 0 -2 0 0 0 Z " fill="#4F3A2E" transform="translate(101,39)"/>
<path d="M0 0 C0 0.66 0 1.32 0 2 C-1.4609375 3.18359375 -1.4609375 3.18359375 -3.375 4.4375 C-6.08590869 6.21688245 -7.12796021 7.19194031 -9 10 C-9.99 9.67 -10.98 9.34 -12 9 C-10.89902432 7.87187697 -9.79408444 6.74762189 -8.6875 5.625 C-8.07261719 4.99851562 -7.45773438 4.37203125 -6.82421875 3.7265625 C-2.88687783 0 -2.88687783 0 0 0 Z " fill="#462D23" transform="translate(136,123)"/>
<path d="M0 0 C4.31385796 3.54352618 5.9721398 7.95192247 8 13 C4.35812142 11.78604047 4.08254007 10.90993923 2.3125 7.625 C1.87550781 6.83351562 1.43851563 6.04203125 0.98828125 5.2265625 C0 3 0 3 0 0 Z " fill="#785E48" transform="translate(195,133)"/>
<path d="M0 0 C0.33 0 0.66 0 1 0 C2.32854177 5.9180497 1.66464729 8.77729131 -1 14 C-1.66 14 -2.32 14 -3 14 C-2.01 9.38 -1.02 4.76 0 0 Z " fill="#997D60" transform="translate(203,165)"/>
<path d="M0 0 C0.66 0.66 1.32 1.32 2 2 C0.54550599 3.0055761 -0.91372443 4.00430435 -2.375 5 C-3.59316406 5.8353125 -3.59316406 5.8353125 -4.8359375 6.6875 C-7 8 -7 8 -9 8 C-7.82255415 4.46766245 -7.04394359 4.13691925 -3.9375 2.3125 C-3.20402344 1.87550781 -2.47054687 1.43851563 -1.71484375 0.98828125 C-1.14894531 0.66214844 -0.58304688 0.33601563 0 0 Z " fill="#432C23" transform="translate(87,46)"/>
<path d="M0 0 C2.97 1.65 5.94 3.3 9 5 C9 5.99 9 6.98 9 8 C7.49460339 7.05016642 5.99579653 6.08988109 4.5 5.125 C3.6646875 4.59132813 2.829375 4.05765625 1.96875 3.5078125 C1.3190625 3.01023437 0.669375 2.51265625 0 2 C0 1.34 0 0.68 0 0 Z " fill="#422920" transform="translate(83,272)"/>
<path d="M0 0 C0.66 0.33 1.32 0.66 2 1 C-0.475 5.455 -0.475 5.455 -3 10 C-3.99 9.67 -4.98 9.34 -6 9 C-4.02 6.03 -2.04 3.06 0 0 Z " fill="#7E604A" transform="translate(200,179)"/>
<path d="M0 0 C2.56616632 3.84924948 2.55097676 6.4349304 3 11 C2.01 10.67 1.02 10.34 0 10 C-0.19412181 8.52168779 -0.38012131 7.04230684 -0.5625 5.5625 C-0.66691406 4.73878906 -0.77132813 3.91507813 -0.87890625 3.06640625 C-0.91886719 2.38449219 -0.95882813 1.70257813 -1 1 C-0.67 0.67 -0.34 0.34 0 0 Z " fill="#5D4032" transform="translate(25,175)"/>
<path d="M0 0 C1.66832577 2.50248865 2.62381674 4.41149187 3.625 7.1875 C3.88539063 7.90292969 4.14578125 8.61835937 4.4140625 9.35546875 C4.60742188 9.89816406 4.80078125 10.44085938 5 11 C4.01 11 3.02 11 2 11 C1.47007308 9.54494642 0.9513211 8.08581873 0.4375 6.625 C0.14746094 5.81289062 -0.14257812 5.00078125 -0.44140625 4.1640625 C-1 2 -1 2 0 0 Z " fill="#5F3F31" transform="translate(283,104)"/>
<path d="M0 0 C0.66 0 1.32 0 2 0 C1.50168276 3.68754757 0.89932357 5.60490662 -2 8 C-2.33 7.34 -2.66 6.68 -3 6 C-2.06553465 3.96855359 -1.06775224 1.96466413 0 0 Z " fill="#5C4738" transform="translate(39,97)"/>
<path d="M0 0 C0.99 0 1.98 0 3 0 C4.0625 1.75 4.0625 1.75 5 4 C4.67 5.32 4.34 6.64 4 8 C2.68 5.36 1.36 2.72 0 0 Z " fill="#513328" transform="translate(278,98)"/>
<path d="M0 0 C0.66 0 1.32 0 2 0 C3.25664978 2.90600261 4 4.79604584 4 8 C3.34 8 2.68 8 2 8 C0.74335022 5.09399739 0 3.20395416 0 0 Z " fill="#4D3227" transform="translate(32,207)"/>
<path d="M0 0 C4.75 1.875 4.75 1.875 7 3 C6.67 3.99 6.34 4.98 6 6 C3.96166576 4.7260411 1.96147874 3.38938077 0 2 C0 1.34 0 0.68 0 0 Z " fill="#503A2E" transform="translate(226,43)"/>
<path d="M0 0 C5.75 0.875 5.75 0.875 8 2 C8 2.66 8 3.32 8 4 C5.23723823 3.47731534 2.6739124 2.89130413 0 2 C0 1.34 0 0.68 0 0 Z " fill="#50392E" transform="translate(206,34)"/>
</svg>
