<?xml version="1.0" encoding="UTF-8"?>
<svg version="1.1" xmlns="http://www.w3.org/2000/svg" width="320" height="320">
<path d="M0 0 C1.61841797 0.86625 1.61841797 0.86625 3.26953125 1.75 C10.51905658 5.77027592 16.75792669 10.56572441 23 16 C23.8559375 16.721875 24.711875 17.44375 25.59375 18.1875 C51.34006502 40.43740187 67.42595283 74.20043326 70 108 C71.82551299 145.36383945 61.8638036 180.56460031 37 209 C36.39285156 209.72832031 35.78570312 210.45664063 35.16015625 211.20703125 C31.14522739 215.96850017 26.81935664 220.06203577 22 224 C20.63101563 225.14275391 20.63101563 225.14275391 19.234375 226.30859375 C-2.4780085 243.79306338 -29.94615064 255.06875189 -58 256 C-59.81564453 256.07734375 -59.81564453 256.07734375 -61.66796875 256.15625 C-92.15739874 257.04133222 -122.52593706 248.51992524 -147 230 C-147.90492188 229.31550781 -148.80984375 228.63101563 -149.7421875 227.92578125 C-177.10192563 206.34026547 -196.7080411 175.26207569 -201.65625 140.38671875 C-205.40775831 103.42583578 -198.59474176 66.60011124 -175.28515625 36.7734375 C-171.66243084 32.37662547 -167.90975422 28.14296763 -164 24 C-163.32710937 23.26265625 -162.65421875 22.5253125 -161.9609375 21.765625 C-141.81422959 0.48707957 -113.62806676 -11.74704995 -85 -16 C-84.14664063 -16.13148437 -83.29328125 -16.26296875 -82.4140625 -16.3984375 C-53.89590069 -19.99970708 -24.98373704 -13.85455509 0 0 Z M-101.2109375 92.57421875 C-108.74206122 102.78563323 -111.12519449 113.46618793 -110 126 C-107.59362902 138.44972771 -101.41346317 148.65813388 -91 156 C-79.89380102 162.56592896 -68.47301087 164.95916559 -55.67578125 162.3125 C-49.03352006 160.27134419 -43.43211473 157.3183736 -38 153 C-37.38511719 152.52175781 -36.77023438 152.04351562 -36.13671875 151.55078125 C-28.76309309 145.06002873 -23.38719437 134.0491186 -22.76171875 124.27734375 C-22.42727968 111.22518129 -24.8115377 101.47963788 -33 91 C-33.47824219 90.38382813 -33.95648438 89.76765625 -34.44921875 89.1328125 C-40.94948508 81.76475243 -51.94694405 76.38744639 -61.72265625 75.76171875 C-78.00380597 75.34454248 -90.46753879 79.84050912 -101.2109375 92.57421875 Z " fill="#3D2A23" transform="translate(226,42)"/>
<path d="M0 0 C0.99 0.99 0.99 0.99 2 2 C1.67 2.66 1.34 3.32 1 4 C2.19625 4.33 3.3925 4.66 4.625 5 C9.22710126 6.52178109 13.3057369 8.67190952 17.5 11.0625 C18.12342285 11.41505859 18.7468457 11.76761719 19.38916016 12.13085938 C23.87061023 14.74122046 23.87061023 14.74122046 25 17 C20.02941958 16.47876892 16.38129049 14.77843255 12.125 12.3125 C-17.68064851 -4.15291099 -53.13882489 -7.42214733 -85.86962891 1.49023438 C-117.83018604 10.90410041 -145.23883436 32.20289096 -162 61 C-168.62939897 73.18706406 -174.09170541 86.21214181 -176 100 C-176.495 100.495 -176.495 100.495 -177 101 C-178.9569253 131.95791661 -169.28936918 160.60489954 -149 184 C-127.10472719 208.54511068 -95.87051502 224.19465372 -63 227 C-48.12573979 227.67467911 -33.5232406 227.43464316 -19 224 C-18.31744141 223.8443457 -17.63488281 223.68869141 -16.93164062 223.52832031 C6.09808719 218.09104716 26.00317833 206.24398119 43 190 C43.74636719 189.32839844 44.49273437 188.65679687 45.26171875 187.96484375 C60.68728083 173.56226833 70.10385418 153.23391169 75 133 C75.24621094 132.01 75.49242187 131.02 75.74609375 130 C78.66341005 115.83592639 77.34607444 100.30204096 76 86 C76.66 86 77.32 86 78 86 C79.98 93.92 79.98 93.92 82 102 C82.66 101.67 83.32 101.34 84 101 C90.50493391 137.76449255 83.167969 175.13447736 62 206 C59.14474563 209.80381202 56.12985218 213.42055579 53 217 C52.39285156 217.72832031 51.78570312 218.45664063 51.16015625 219.20703125 C47.14522739 223.96850017 42.81935664 228.06203577 38 232 C36.63101563 233.14275391 36.63101563 233.14275391 35.234375 234.30859375 C13.5219915 251.79306338 -13.94615064 263.06875189 -42 264 C-43.81564453 264.07734375 -43.81564453 264.07734375 -45.66796875 264.15625 C-76.15739874 265.04133222 -106.52593706 256.51992524 -131 238 C-131.90492188 237.31550781 -132.80984375 236.63101563 -133.7421875 235.92578125 C-161.10192563 214.34026547 -180.7080411 183.26207569 -185.65625 148.38671875 C-189.40775831 111.42583578 -182.59474176 74.60011124 -159.28515625 44.7734375 C-155.66243084 40.37662547 -151.90975422 36.14296763 -148 32 C-147.32710937 31.26265625 -146.65421875 30.5253125 -145.9609375 29.765625 C-125.81422959 8.48707957 -97.62806676 -3.74704995 -69 -8 C-68.14664063 -8.13148437 -67.29328125 -8.26296875 -66.4140625 -8.3984375 C-44.68988693 -11.14176343 -20.24658169 -8.54728664 0 0 Z " fill="#5C392F" transform="translate(210,34)"/>
<path d="M0 0 C12.68857321 9.76708973 21.46444491 22.30185482 25 38 C25.39036829 41.65837497 25.43152097 45.26106783 25.375 48.9375 C25.36339844 49.90751953 25.35179687 50.87753906 25.33984375 51.87695312 C24.97101911 67.98591167 18.44070889 81.21351643 7.34765625 92.8203125 C-5.59277735 104.83489145 -21.26250388 110.99425799 -38.91015625 110.34375 C-55.72664805 109.22504777 -69.69732428 101.21331784 -81 89 C-83.65536459 85.48628504 -85.88522533 81.85960182 -88 78 C-88.48339844 77.12988281 -88.96679688 76.25976562 -89.46484375 75.36328125 C-96.0864505 62.83021108 -97.37060326 47.44994861 -94.125 33.6171875 C-89.23479317 17.9492222 -79.13594531 4.27889558 -64.6171875 -3.72265625 C-42.61601469 -14.46054208 -20.45819008 -14.01855133 0 0 Z M-70.2109375 32.57421875 C-77.74206122 42.78563323 -80.12519449 53.46618793 -79 66 C-76.59362902 78.44972771 -70.41346317 88.65813388 -60 96 C-48.89380102 102.56592896 -37.47301087 104.95916559 -24.67578125 102.3125 C-18.03352006 100.27134419 -12.43211473 97.3183736 -7 93 C-6.38511719 92.52175781 -5.77023438 92.04351562 -5.13671875 91.55078125 C2.23690691 85.06002873 7.61280563 74.0491186 8.23828125 64.27734375 C8.57272032 51.22518129 6.1884623 41.47963788 -2 31 C-2.47824219 30.38382813 -2.95648438 29.76765625 -3.44921875 29.1328125 C-9.94948508 21.76475243 -20.94694405 16.38744639 -30.72265625 15.76171875 C-47.00380597 15.34454248 -59.46753879 19.84050912 -70.2109375 32.57421875 Z " fill="#644036" transform="translate(195,102)"/>
<path d="M0 0 C0.99 0.99 0.99 0.99 2 2 C1.67 2.66 1.34 3.32 1 4 C2.19625 4.33 3.3925 4.66 4.625 5 C9.22710126 6.52178109 13.3057369 8.67190952 17.5 11.0625 C18.12342285 11.41505859 18.7468457 11.76761719 19.38916016 12.13085938 C23.87061023 14.74122046 23.87061023 14.74122046 25 17 C20.02941958 16.47876892 16.38129049 14.77843255 12.125 12.3125 C-17.68064851 -4.15291099 -53.13882489 -7.42214733 -85.86962891 1.49023438 C-117.83018604 10.90410041 -145.23883436 32.20289096 -162 61 C-167.06022985 70.30240368 -170.8870318 79.88262708 -173.89453125 90.0234375 C-174.93746239 92.83161252 -175.69332255 94.16258931 -178 96 C-178.99 95.67 -179.98 95.34 -181 95 C-171.37733134 59.94253882 -149.82379485 29.32290825 -118 11.0703125 C-107.04491272 5.02430622 -96.01018794 0.47547563 -84 -3 C-84.495 -3.99 -84.495 -3.99 -85 -5 C-56.72619663 -10.57758652 -27.16484632 -11.46789772 0 0 Z " fill="#6C463C" transform="translate(210,34)"/>
<path d="M0 0 C-1 2 -1 2 -4.296875 3.12109375 C-5.78122372 3.55998472 -7.26560103 3.99877902 -8.75 4.4375 C-24.48472228 9.40141127 -39.40454715 17.31119827 -52 28 C-52.84304687 28.70511719 -53.68609375 29.41023438 -54.5546875 30.13671875 C-80.79595982 52.90367932 -97.80349208 84.99018492 -100.40234375 119.84375 C-100.9259119 128.21919649 -101.16971453 136.60855912 -101 145 C-101.66 145.33 -102.32 145.66 -103 146 C-106.25227262 110.00525307 -97.23711732 74.20231333 -74 46 C-71.08777139 42.5780052 -68.0837711 39.26771534 -65 36 C-64.32710937 35.26265625 -63.65421875 34.5253125 -62.9609375 33.765625 C-48.77736754 18.78522527 -21.63564421 -1.17058523 0 0 Z " fill="#4C2D25" transform="translate(127,30)"/>
<path d="M0 0 C1.28195637 3.88366767 0.43053615 5.83896485 -1.40039062 9.48193359 C-1.94469727 10.51181396 -1.94469727 10.51181396 -2.5 11.5625 C-3.05204102 12.63105225 -3.05204102 12.63105225 -3.61523438 13.72119141 C-8.79129992 23.59892406 -14.82833524 32.46230385 -22 41 C-22.5878125 41.7115625 -23.175625 42.423125 -23.78125 43.15625 C-27.82030893 47.92968328 -32.16151945 52.04640935 -37 56 C-37.91265625 56.76183594 -38.8253125 57.52367187 -39.765625 58.30859375 C-46.014346 63.34054119 -52.44053606 67.62911402 -59.4375 71.5625 C-60.19466309 71.99216064 -60.95182617 72.42182129 -61.73193359 72.86450195 C-65.82695149 75.10000574 -69.2723677 76.57293971 -74 77 C-71.51192294 73.26788441 -68.62070611 72.19428429 -64.6875 70.375 C-48.99219064 62.79400893 -33.80200758 51.8194698 -23 38 C-22.30648437 37.14277344 -21.61296875 36.28554687 -20.8984375 35.40234375 C-12.38878719 24.53864928 -5.94299166 12.42354035 0 0 Z " fill="#42271F" transform="translate(285,210)"/>
<path d="M0 0 C0.66 0 1.32 0 2 0 C2.21914063 1.17433594 2.43828125 2.34867188 2.6640625 3.55859375 C6.27057712 22.17990598 11.87087475 42.19525676 23.86328125 57.35546875 C24.23839844 57.89816406 24.61351563 58.44085938 25 59 C24.67 59.99 24.34 60.98 24 62 C10.62214072 46.0357546 -0.41304543 21.06531668 0 0 Z " fill="#42271F" transform="translate(25,179)"/>
<path d="M0 0 C2.4902672 2.47254287 4.95821457 4.95573227 7.3671875 7.5078125 C17.65161659 18.24078367 29.3027626 26.41233648 42.3671875 33.44140625 C45 35 45 35 46 37 C30.87692183 34.9160004 16.10837855 20.31957852 5.6875 10 C5.1298999 9.44803955 4.5722998 8.8960791 3.99780273 8.32739258 C1.62398829 5.90941762 0.08557364 4.25672093 -1 1 C-0.67 0.67 -0.34 0.34 0 0 Z " fill="#462920" transform="translate(56,247)"/>
<path d="M0 0 C1.10659836 3.35875981 0.84662367 5.62737362 0.125 9.0625 C-2.06737857 21.15020887 -2.24795752 33.73987818 -2 46 C-2.99 46.495 -2.99 46.495 -4 47 C-4.88804494 37.17150262 -5.13507394 27.65034178 -4.1875 17.8125 C-4.10516113 16.94085205 -4.02282227 16.0692041 -3.93798828 15.17114258 C-2.59385016 2.59385016 -2.59385016 2.59385016 0 0 Z " fill="#452920" transform="translate(28,129)"/>
<path d="M0 0 C1.7015625 0.5878125 1.7015625 0.5878125 3.4375 1.1875 C15.81689124 5.28805189 28.15653414 8.70051485 41 11 C41 11.66 41 12.32 41 13 C26.78233907 11.7179229 12.538277 9.20283998 0 2 C0 1.34 0 0.68 0 0 Z " fill="#40261F" transform="translate(104,284)"/>
<path d="M0 0 C0.33 0.66 0.66 1.32 1 2 C-3.14206872 11.84590106 -11.87755041 17.4275462 -21.14453125 21.84375 C-24.54370411 23.22015926 -27.3531493 23.83423406 -31 24 C-30.01 23.67 -29.02 23.34 -28 23 C-28 22.34 -28 21.68 -28 21 C-27.24976563 20.74347656 -26.49953125 20.48695313 -25.7265625 20.22265625 C-15.3876762 16.35533984 -7.70256948 10.50428247 -2 1 C-1.34 0.67 -0.68 0.34 0 0 Z " fill="#4D3127" transform="translate(199,182)"/>
<path d="M0 0 C0 0.66 0 1.32 0 2 C-0.68964844 2.21914062 -1.37929687 2.43828125 -2.08984375 2.6640625 C-11.91353389 5.97905259 -19.03252649 10.17168214 -25.4921875 18.36328125 C-27 20 -27 20 -30 21 C-28.58732575 16.50512739 -26.46089404 14.15325902 -23 11 C-22.50628906 10.51402344 -22.01257813 10.02804688 -21.50390625 9.52734375 C-15.69094181 4.07681834 -8.16944625 -0.50137396 0 0 Z " fill="#503025" transform="translate(151,117)"/>
<path d="M0 0 C4.6072787 4.6072787 3.18358534 13.23681787 3.1875 19.375 C3.19974609 20.37789062 3.21199219 21.38078125 3.22460938 22.4140625 C3.23617576 28.30520883 2.70408118 33.35565207 1 39 C0.67 39 0.34 39 0 39 C0 26.13 0 13.26 0 0 Z " fill="#43271E" transform="translate(293,142)"/>
<path d="M0 0 C-4.45435429 3.14690212 -8.87606675 4.12956748 -14.125 5.1875 C-14.96651611 5.3618457 -15.80803223 5.53619141 -16.67504883 5.71582031 C-22.82443089 6.92406187 -28.72817905 7.50738327 -35 7 C-34.67 6.34 -34.34 5.68 -34 5 C-32.22509766 4.54516602 -32.22509766 4.54516602 -29.9140625 4.25390625 C-28.64840454 4.0832666 -28.64840454 4.0832666 -27.35717773 3.90917969 C-26.45555908 3.79477539 -25.55394043 3.68037109 -24.625 3.5625 C-17.89688603 2.64863613 -11.47214793 1.56690908 -4.99609375 -0.546875 C-3 -1 -3 -1 0 0 Z " fill="#42271E" transform="translate(203,290)"/>
<path d="M0 0 C5.39026228 0.52895097 9.24229489 2.46333696 13.875 5.0625 C14.56335938 5.43955078 15.25171875 5.81660156 15.9609375 6.20507812 C17.6449213 7.12893035 19.32307467 8.06339667 21 9 C20.67 9.66 20.34 10.32 20 11 C15.26210835 9.55676531 11.01141849 7.62773267 6.625 5.375 C5.98433594 5.05015625 5.34367188 4.7253125 4.68359375 4.390625 C3.12052499 3.59742593 1.55999378 2.79922969 0 2 C0 1.34 0 0.68 0 0 Z " fill="#4B2C24" transform="translate(211,36)"/>
<path d="M0 0 C4.2202403 2.24674663 7.06442589 4.9519953 10.25 8.5 C11.12140625 9.4590625 11.9928125 10.418125 12.890625 11.40625 C15 14 15 14 16 17 C15.01 17 14.02 17 13 17 C10.87890625 14.734375 10.87890625 14.734375 8.5625 11.75 C6.36741973 8.94208007 4.26419356 6.25832259 1.71484375 3.765625 C0 2 0 2 0 0 Z " fill="#39211A" transform="translate(251,61)"/>
<path d="M0 0 C6.48409637 0.48030344 12.19183947 1.99968316 18 5 C18.33 5.66 18.66 6.32 19 7 C12.54945018 5.64746536 6.28894321 3.96939767 0 2 C0 1.34 0 0.68 0 0 Z " fill="#4C2E24" transform="translate(190,29)"/>
<path d="M0 0 C2.29186474 3.63788054 2.26795835 6.7618285 2.25 11 C2.25515625 12.216875 2.2603125 13.43375 2.265625 14.6875 C2.01981559 17.75288791 1.6149234 19.43662952 0 22 C-1.3097806 18.02907787 -1.14716632 14.0053242 -1.125 9.875 C-1.12886719 9.14667969 -1.13273437 8.41835937 -1.13671875 7.66796875 C-1.12671034 2.25342069 -1.12671034 2.25342069 0 0 Z " fill="#5B392B" transform="translate(115,151)"/>
<path d="M0 0 C0.80179688 0.14759766 1.60359375 0.29519531 2.4296875 0.44726562 C4.41254855 0.8131507 6.39392377 1.18707121 8.375 1.5625 C8.375 2.2225 8.375 2.8825 8.375 3.5625 C5.76942509 3.28065415 3.16599602 2.98747289 0.5625 2.6875 C-0.17548828 2.60886719 -0.91347656 2.53023438 -1.67382812 2.44921875 C-5.34006181 2.01789714 -7.50451745 1.6428217 -10.625 -0.4375 C-7.24113282 -2.12943359 -3.59315051 -0.68538179 0 0 Z " fill="#4A2E23" transform="translate(136.625,293.4375)"/>
<path d="M0 0 C0.66 0.33 1.32 0.66 2 1 C1.30182056 4.60945598 0.52123618 8.18432916 -0.375 11.75 C-0.60960937 12.71421875 -0.84421875 13.6784375 -1.0859375 14.671875 C-1.53839844 15.82429688 -1.53839844 15.82429688 -2 17 C-2.99 17.33 -3.98 17.66 -5 18 C-1.92482916 5.33029613 -1.92482916 5.33029613 0 0 Z " fill="#543429" transform="translate(32,112)"/>
<path d="M0 0 C0.33 0 0.66 0 1 0 C0.88487847 1.72985242 0.75744323 3.45888751 0.625 5.1875 C0.55539062 6.15042969 0.48578125 7.11335937 0.4140625 8.10546875 C-0.00662008 11.04627812 -0.68660835 13.34014569 -2 16 C-2.66 16.33 -3.32 16.66 -4 17 C-3.71561048 15.10306139 -3.42216208 13.20747973 -3.125 11.3125 C-2.96257812 10.25675781 -2.80015625 9.20101562 -2.6328125 8.11328125 C-2.04106931 5.20205086 -1.1968194 2.71044393 0 0 Z " fill="#3E241D" transform="translate(293,182)"/>
<path d="M0 0 C5.13722333 2.80212182 11.09235806 6.27707417 13 12 C11.68 11.67 10.36 11.34 9 11 C9 10.34 9 9.68 9 9 C8.443125 8.773125 7.88625 8.54625 7.3125 8.3125 C4.33840412 6.62449964 2.27991135 4.53323483 0 2 C0 1.34 0 0.68 0 0 Z " fill="#53352A" transform="translate(123,188)"/>
<path d="M0 0 C1.0528418 0.14985352 1.0528418 0.14985352 2.12695312 0.30273438 C3.85636527 0.54979325 5.5845627 0.80532852 7.3125 1.0625 C7.3125 1.3925 7.3125 1.7225 7.3125 2.0625 C4.8747037 2.11647335 2.43810315 2.15615616 0 2.1875 C-1.03543945 2.21263672 -1.03543945 2.21263672 -2.09179688 2.23828125 C-5.85885396 2.27467794 -7.47181704 2.20628864 -10.6875 0.0625 C-6.90794143 -1.19735286 -3.84326548 -0.57774579 0 0 Z " fill="#4E3126" transform="translate(158.6875,204.9375)"/>
<path d="M0 0 C-1 2 -1 2 -3.1796875 2.88671875 C-4.06914063 3.15097656 -4.95859375 3.41523437 -5.875 3.6875 C-6.75929688 3.95949219 -7.64359375 4.23148438 -8.5546875 4.51171875 C-11 5 -11 5 -14 4 C-9.10274567 0.87119862 -5.78901746 -0.16080604 0 0 Z " fill="#452820" transform="translate(127,30)"/>
<path d="M0 0 C4.55015893 1.51671964 6.50057264 5.16891053 9 9 C8.67 9.66 8.34 10.32 8 11 C4.31993178 7.61831569 2.0214155 4.57478244 0 0 Z " fill="#513127" transform="translate(190,128)"/>
<path d="M0 0 C5.94 0.99 5.94 0.99 12 2 C12 2.66 12 3.32 12 4 C10.37399059 3.9129995 8.74910322 3.8048219 7.125 3.6875 C6.22007812 3.62949219 5.31515625 3.57148438 4.3828125 3.51171875 C2 3 2 3 0 0 Z " fill="#4D2F25" transform="translate(176,26)"/>
<path d="M0 0 C0 0.33 0 0.66 0 1 C-5.23471686 1.75612577 -9.77254141 2.2063366 -15 1 C-15 0.67 -15 0.34 -15 0 C-9.96266834 -1.5111995 -5.11828973 -0.64599773 0 0 Z " fill="#41251E" transform="translate(167,116)"/>
<path d="M0 0 C1.46726798 3.81489674 0.43336419 6.29011622 -1 10 C-1.33 10 -1.66 10 -2 10 C-2.25 3.375 -2.25 3.375 0 0 Z " fill="#41251D" transform="translate(28,129)"/>
<path d="M0 0 C7.75 0.75 7.75 0.75 10 3 C6.7 2.67 3.4 2.34 0 2 C0 1.34 0 0.68 0 0 Z " fill="#5A382A" transform="translate(168,117)"/>
<path d="M0 0 C0.66 0.33 1.32 0.66 2 1 C0.25 3.0625 0.25 3.0625 -2 5 C-4.25 4.75 -4.25 4.75 -6 4 C-4.02 2.68 -2.04 1.36 0 0 Z " fill="#57392D" transform="translate(184,197)"/>
<path d="M0 0 C3.37503669 1.1858237 5.64722731 2.27573689 8 5 C4.33776842 4.50510384 2.33006074 3.94323463 0 1 C0 0.67 0 0.34 0 0 Z " fill="#533227" transform="translate(180,121)"/>
</svg>
