<?xml version="1.0" encoding="UTF-8"?>
<svg version="1.1" xmlns="http://www.w3.org/2000/svg" width="320" height="320">
<path d="M0 0 C1.08193811 0.85593326 2.16502217 1.71042317 3.25 2.5625 C6.86493211 5.76664437 9.91101201 9.29452609 13 13 C13.61746094 13.71800781 14.23492187 14.43601563 14.87109375 15.17578125 C38.68355569 43.68365822 48.75749065 79.74323076 45.79345703 116.56591797 C43.81303033 135.19840131 38.07555579 152.6676739 29 169 C28.50757813 169.90878906 28.01515625 170.81757813 27.5078125 171.75390625 C10.13268658 202.33216457 -20.08469258 225.10458774 -53.85791016 234.45068359 C-59.85126618 235.9876167 -65.88247555 237.09319881 -72 238 C-72.8765625 238.13148438 -73.753125 238.26296875 -74.65625 238.3984375 C-107.63427482 242.46572723 -144.37803261 233.40544445 -170.8125 213.0625 C-176.43094296 208.62406618 -181.78288663 203.90092468 -187 199 C-187.58910156 198.47535156 -188.17820313 197.95070313 -188.78515625 197.41015625 C-213.09723845 174.8223352 -225.37830058 139.58686801 -226.87646484 107.2722168 C-228.04447395 70.84130308 -215.0703356 35.88006201 -190.17211914 9.26367188 C-167.99961569 -13.86745373 -140.63616083 -28.30537591 -109 -33 C-108.13503906 -33.13148437 -107.27007812 -33.26296875 -106.37890625 -33.3984375 C-67.49565143 -38.25064805 -29.32429268 -25.36703519 0 0 Z M-117 67 C-117.9075 67.5775 -118.815 68.155 -119.75 68.75 C-129.4965545 78.4965545 -134.28704739 90.37946836 -134.31689453 104.00634766 C-134.11563426 114.35013182 -130.37422421 122.98181529 -124 131 C-123.52175781 131.61488281 -123.04351562 132.22976562 -122.55078125 132.86328125 C-115.27453197 141.12924706 -103.91104655 145.72821747 -93.1640625 146.91796875 C-80.83455802 147.23762257 -69.47270241 142.81021716 -60 135 C-51.60253126 126.07251351 -46.3903384 115.14507104 -45.86328125 102.796875 C-46.40061545 90.085083 -50.97689427 79.0072479 -60 70 C-76.89114279 55.18820531 -98.52628809 55.09897316 -117 67 Z " fill="#864D22" transform="translate(250,59)"/>
<path d="M0 0 C2.35742374 0.58818508 4.34598308 0.58641549 6.77270508 0.51342773 C38.2473672 -0.14488755 65.45184547 6.61682151 92.08911133 23.52124023 C88.58254374 24.71175941 88.18776111 24.56741442 84.54223633 22.86108398 C83.13664305 22.06831926 81.73586687 21.2669743 80.33911133 20.45874023 C50.00017994 3.73447336 14.65758717 -0.09350041 -18.78051758 9.01147461 C-50.74107471 18.42534065 -78.14972304 39.72413119 -94.91088867 68.52124023 C-101.54028764 80.70830429 -107.00259408 93.73338205 -108.91088867 107.52124023 C-109.40588867 108.01624023 -109.40588867 108.01624023 -109.91088867 108.52124023 C-111.86781397 139.47915685 -102.20025785 168.12613977 -81.91088867 191.52124023 C-60.01561586 216.06635092 -28.78140369 231.71589395 4.08911133 234.52124023 C18.96337154 235.19591935 33.56587073 234.95588339 48.08911133 231.52124023 C48.77166992 231.36558594 49.45422852 231.20993164 50.1574707 231.04956055 C73.18719851 225.61228739 93.09228966 213.76522142 110.08911133 197.52124023 C110.83547852 196.84963867 111.5818457 196.17803711 112.35083008 195.48608398 C127.77639216 181.08350857 137.19296551 160.75515193 142.08911133 140.52124023 C142.33532227 139.53124023 142.5815332 138.54124023 142.83520508 137.52124023 C145.75252137 123.35716663 144.43518577 107.82328119 143.08911133 93.52124023 C143.74911133 93.52124023 144.40911133 93.52124023 145.08911133 93.52124023 C155.33745869 131.38042636 152.47007545 169.05795926 132.84570312 203.41894531 C128.55744134 210.67522086 123.64754586 217.17444605 118.08911133 223.52124023 C117.12038086 224.68913086 117.12038086 224.68913086 116.13208008 225.88061523 C94.9389643 250.91525302 61.546205 265.77775162 29.33911133 269.27124023 C27.59038613 269.37803261 25.84003242 269.46025024 24.08911133 269.52124023 C22.49389648 269.59858398 22.49389648 269.59858398 20.86645508 269.67749023 C-16.50375084 270.65342597 -50.99393798 256.43729789 -77.95410156 230.88110352 C-103.76909448 205.60655811 -117.46948904 170.83181357 -117.92895508 134.90307617 C-117.89175993 129.99934808 -117.61337675 125.10618275 -117.23046875 120.21801758 C-116.98069552 116.95416471 -116.86316624 114.66440752 -117.91088867 111.52124023 C-117.48112869 108.90415014 -116.97455927 106.40424495 -116.34838867 103.83374023 C-116.16566406 103.07915527 -115.98293945 102.32457031 -115.79467773 101.54711914 C-107.16740363 67.34461181 -85.14059631 36.93898376 -54.91088867 18.52124023 C-41.61549893 10.65674596 -16.2795471 -4.07872644 0 0 Z " fill="#A55C2E" transform="translate(142.910888671875,26.478759765625)"/>
<path d="M0 0 C12.68857321 9.76708973 21.46444491 22.30185482 25 38 C25.39036829 41.65837497 25.43152097 45.26106783 25.375 48.9375 C25.36339844 49.90751953 25.35179687 50.87753906 25.33984375 51.87695312 C24.97101911 67.98591167 18.44070889 81.21351643 7.34765625 92.8203125 C-5.59277735 104.83489145 -21.26250388 110.99425799 -38.91015625 110.34375 C-55.72664805 109.22504777 -69.69732428 101.21331784 -81 89 C-83.65536459 85.48628504 -85.88522533 81.85960182 -88 78 C-88.48339844 77.12988281 -88.96679688 76.25976562 -89.46484375 75.36328125 C-96.0864505 62.83021108 -97.37060326 47.44994861 -94.125 33.6171875 C-89.23479317 17.9492222 -79.13594531 4.27889558 -64.6171875 -3.72265625 C-42.61601469 -14.46054208 -20.45819008 -14.01855133 0 0 Z M-62 24 C-62.9075 24.5775 -63.815 25.155 -64.75 25.75 C-74.4965545 35.4965545 -79.28704739 47.37946836 -79.31689453 61.00634766 C-79.11563426 71.35013182 -75.37422421 79.98181529 -69 88 C-68.52175781 88.61488281 -68.04351562 89.22976562 -67.55078125 89.86328125 C-60.27453197 98.12924706 -48.91104655 102.72821747 -38.1640625 103.91796875 C-25.83455802 104.23762257 -14.47270241 99.81021716 -5 92 C3.39746874 83.07251351 8.6096616 72.14507104 9.13671875 59.796875 C8.59938455 47.085083 4.02310573 36.0072479 -5 27 C-21.89114279 12.18820531 -43.52628809 12.09897316 -62 24 Z " fill="#AC6235" transform="translate(195,102)"/>
<path d="M0 0 C2.62697527 2.13641696 5.20108588 4.32007592 7.76171875 6.53515625 C8.84365686 7.39108951 9.92674092 8.24557942 11.01171875 9.09765625 C14.62665086 12.30180062 17.67273076 15.82968234 20.76171875 19.53515625 C21.37917969 20.25316406 21.99664062 20.97117188 22.6328125 21.7109375 C46.44527444 50.21881447 56.5192094 86.27838701 53.55517578 123.10107422 C51.57474908 141.73355756 45.83727454 159.20283015 36.76171875 175.53515625 C36.26929688 176.44394531 35.776875 177.35273438 35.26953125 178.2890625 C17.89440533 208.86732082 -12.32297383 231.63974399 -46.09619141 240.98583984 C-52.08954743 242.52277295 -58.1207568 243.62835506 -64.23828125 244.53515625 C-65.11484375 244.66664063 -65.99140625 244.798125 -66.89453125 244.93359375 C-99.87255607 249.00088348 -136.61631386 239.9406007 -163.05078125 219.59765625 C-168.66922421 215.15922243 -174.02116788 210.43608093 -179.23828125 205.53515625 C-179.82738281 205.01050781 -180.41648438 204.48585938 -181.0234375 203.9453125 C-205.50793387 181.19730524 -217.5922544 145.92108882 -219.04882812 113.4140625 C-219.75133376 93.51451502 -219.75133376 93.51451502 -216.23828125 87.53515625 C-215.90828125 87.53515625 -215.57828125 87.53515625 -215.23828125 87.53515625 C-215.27904785 88.15221436 -215.31981445 88.76927246 -215.36181641 89.4050293 C-217.17280356 118.30870481 -214.43852929 144.44598677 -201.23828125 170.53515625 C-200.91988281 171.16647461 -200.60148437 171.79779297 -200.2734375 172.44824219 C-184.29306971 203.4972348 -156.10240414 225.61892838 -123.23828125 236.53515625 C-88.34797759 247.51233951 -50.87615064 243.31597226 -18.5234375 226.66015625 C-10.09386092 222.13275629 -2.61704801 216.57503388 4.76171875 210.53515625 C5.53515625 209.90480469 6.30859375 209.27445313 7.10546875 208.625 C11.81336118 204.65045235 15.88442044 200.3179807 19.76171875 195.53515625 C20.46167969 194.67277344 21.16164063 193.81039062 21.8828125 192.921875 C44.0993083 164.46781886 54.10479536 129.23594728 50.26171875 93.30859375 C48.91745289 82.65505819 46.42209276 72.61762359 42.76171875 62.53515625 C42.39304687 61.51421875 42.024375 60.49328125 41.64453125 59.44140625 C36.19850963 45.46954388 28.30717441 33.02618249 18.76171875 21.53515625 C18.0553125 20.66375 17.34890625 19.79234375 16.62109375 18.89453125 C-4.81691947 -6.35468432 -38.96252249 -21.19751695 -71.46386719 -24.27954102 C-76.59492956 -24.62224397 -81.72331191 -24.56793889 -86.86328125 -24.52734375 C-87.96285156 -24.52283203 -89.06242188 -24.51832031 -90.1953125 -24.51367188 C-92.87636128 -24.50201514 -95.55729057 -24.48565392 -98.23828125 -24.46484375 C-97.90828125 -25.12484375 -97.57828125 -25.78484375 -97.23828125 -26.46484375 C-64.98160712 -34.043219 -25.3531159 -19.71558094 0 0 Z " fill="#4C2C20" transform="translate(242.23828125,52.46484375)"/>
<path d="M0 0 C0.56340088 0.16516113 1.12680176 0.33032227 1.70727539 0.50048828 C4.13724517 1.02990135 6.20054883 1.06686926 8.68359375 0.9921875 C40.15825587 0.33387222 67.36273414 7.09558128 94 24 C90.49343241 25.19051917 90.09864978 25.04617418 86.453125 23.33984375 C85.04753173 22.54707903 83.64675555 21.74573407 82.25 20.9375 C51.91106861 4.21323312 16.56847584 0.38525936 -16.86962891 9.49023438 C-48.83018604 18.90410041 -76.23883436 40.20289096 -93 69 C-98.06172458 78.30515149 -101.87830472 87.85200227 -104.796875 98.0234375 C-106.08079022 101.19987711 -107.08411363 102.29702435 -110 104 C-110.66 103.67 -111.32 103.34 -112 103 C-102.05123677 66.75450583 -80.1055362 38.13270028 -48.3125 18.3125 C-33.37452078 9.94884003 -16.86757449 4.65651403 0 2 C0 1.34 0 0.68 0 0 Z " fill="#B76B3E" transform="translate(141,26)"/>
<path d="M0 0 C-2.97027225 2.97027225 -6.62771355 3.01975271 -10.625 3.75 C-44.34269964 10.4318127 -74.63615853 30.57477424 -94.0625 59 C-103.55630899 73.39959402 -109.97488334 89.27060887 -114 106 C-114.66 106 -115.32 106 -116 106 C-115.48850521 99.48653469 -114.26281778 93.96759948 -111.9375 87.875 C-111.62659424 87.05169189 -111.31568848 86.22838379 -110.99536133 85.38012695 C-97.41963181 50.39716685 -70.06924298 23.37369526 -36 8 C-24.4650244 3.3321768 -12.53859753 -0.4643925 0 0 Z " fill="#533124" transform="translate(143,27)"/>
<path d="M0 0 C0 0.66 0 1.32 0 2 C-4.00805326 0.79512509 -7.6065023 -0.75336432 -11.30102539 -2.71606445 C-32.07965133 -13.73917367 -54.19542538 -18.24754524 -77.625 -18.0625 C-78.72457031 -18.05798828 -79.82414063 -18.05347656 -80.95703125 -18.04882812 C-83.63808003 -18.03717139 -86.31900932 -18.02081017 -89 -18 C-88.67 -18.66 -88.34 -19.32 -88 -20 C-61.28638083 -26.27609125 -21.75438509 -16.89102496 0 0 Z " fill="#643D2B" transform="translate(233,46)"/>
<path d="M0 0 C0.33 0.66 0.66 1.32 1 2 C1.66 2 2.32 2 3 2 C3.38478516 2.90878906 3.38478516 2.90878906 3.77734375 3.8359375 C9.10043068 15.48579106 16.72623089 23.69490179 28.87109375 28.33203125 C35.69728899 30.47382829 42.91531128 31.20693783 50 32 C50 32.33 50 32.66 50 33 C35.59796748 33.70829668 24.31666597 31.65637939 13 22 C7.20781205 16.5233794 2.81684632 10.50256184 0 3 C0 2.01 0 1.02 0 0 Z " fill="#6B432D" transform="translate(116,174)"/>
<path d="M0 0 C11.51412103 3.36462568 19.85989633 11.46775033 25.53515625 21.79296875 C29.89997468 31.38584268 29.48931995 40.7025336 29 51 C28.67 51 28.34 51 28 51 C27.91363281 49.85144531 27.82726562 48.70289063 27.73828125 47.51953125 C26.51075722 33.20975487 23.8055869 20.33042265 13 10 C9.89053237 7.70454933 6.73929185 5.607978 3.44140625 3.59375 C1 2 1 2 0 0 Z " fill="#6F432D" transform="translate(176,119)"/>
<path d="M0 0 C0 0.33 0 0.66 0 1 C-1.28132813 1.13535156 -2.56265625 1.27070312 -3.8828125 1.41015625 C-16.07021689 2.86494573 -28.03420227 4.83868643 -37 14 C-37.66 14 -38.32 14 -39 14 C-39.2475 14.53625 -39.495 15.0725 -39.75 15.625 C-41.30652537 18.5823982 -43.03435673 21.29724051 -45 24 C-45.66 24 -46.32 24 -47 24 C-44.70037509 15.82355587 -37.08776966 9.2146704 -30 5 C-19.9883748 -0.29205851 -11.00718503 -0.59320159 0 0 Z " fill="#613A27" transform="translate(167,116)"/>
<path d="M0 0 C0.66 0 1.32 0 2 0 C1.32394449 5.07041629 -0.82695879 9.43017822 -2.875 14.0625 C-6.00851974 21.29418019 -8.51221518 28.23562296 -10 36 C-10.66 36 -11.32 36 -12 36 C-11.49606185 29.28754383 -10.10989613 23.69916547 -7.6875 17.4375 C-7.39166016 16.63892578 -7.09582031 15.84035156 -6.79101562 15.01757812 C-4.83338244 9.82963879 -2.55368031 4.92133092 0 0 Z " fill="#563325" transform="translate(39,97)"/>
<path d="M0 0 C11.13167457 5.08796237 21.99810606 15.0499402 29 25 C24.88254552 24.28769775 23.68501569 22.43778866 21.1015625 19.23828125 C18.30973038 16.26482437 15.21316805 13.81516831 12 11.3125 C11.40654785 10.84924316 10.8130957 10.38598633 10.20166016 9.90869141 C6.56458137 7.10915748 2.84644385 4.50370659 -1 2 C-0.67 1.34 -0.34 0.68 0 0 Z " fill="#47291D" transform="translate(233,47)"/>
<path d="M0 0 C5.35535861 0.55313563 9.36562585 2.4278891 14.0625 4.875 C14.75666016 5.22691406 15.45082031 5.57882813 16.16601562 5.94140625 C23.94594607 9.91633747 23.94594607 9.91633747 27 12 C27 12.66 27 13.32 27 14 C22.00284065 12.49850611 17.55464876 10.37970693 12.9375 8 C8.68117997 5.81848779 4.48707178 3.67937189 0 2 C0 1.34 0 0.68 0 0 Z " fill="#502E21" transform="translate(206,34)"/>
<path d="M0 0 C9.57 0 19.14 0 29 0 C25.74874934 3.25125066 24.9302332 3.36097196 20.55273438 3.36523438 C19.85470703 3.34783203 19.15667969 3.33042969 18.4375 3.3125 C17.72529297 3.30412109 17.01308594 3.29574219 16.27929688 3.28710938 C10.70350915 3.16096033 5.39549639 2.45263364 0 1 C0 0.67 0 0.34 0 0 Z " fill="#5F3A28" transform="translate(142,295)"/>
<path d="M0 0 C0.99 0.33 1.98 0.66 3 1 C1.71937515 2.7074998 0.38232443 4.37373596 -1 6 C-1.66 6 -2.32 6 -3 6 C-3 6.66 -3 7.32 -3 8 C-5.51953125 9.7265625 -5.51953125 9.7265625 -8.8125 11.625 C-9.89144531 12.25664062 -10.97039062 12.88828125 -12.08203125 13.5390625 C-15 15 -15 15 -18 15 C-18 14.34 -18 13.68 -18 13 C-17.35933594 12.70867187 -16.71867188 12.41734375 -16.05859375 12.1171875 C-6.60841609 7.72943433 -6.60841609 7.72943433 0 0 Z " fill="#71472E" transform="translate(193,189)"/>
<path d="M0 0 C-2.24801871 2.24801871 -3.14035425 2.42807085 -6.17578125 3.03515625 C-7.00400391 3.20466797 -7.83222656 3.37417969 -8.68554688 3.54882812 C-9.55244141 3.71833984 -10.41933594 3.88785156 -11.3125 4.0625 C-12.59543945 4.32256836 -12.59543945 4.32256836 -13.90429688 4.58789062 C-16.26816839 5.06579184 -18.63367376 5.53443186 -21 6 C-22.02480469 6.20496094 -23.04960938 6.40992188 -24.10546875 6.62109375 C-24.73066406 6.74613281 -25.35585937 6.87117188 -26 7 C-23.39747144 3.09620716 -20.70121654 2.82142709 -16.375 1.8125 C-15.68792969 1.63525391 -15.00085938 1.45800781 -14.29296875 1.27539062 C-9.42465937 0.09256499 -5.00585681 -0.16311219 0 0 Z " fill="#4D2D21" transform="translate(143,27)"/>
<path d="M0 0 C0.78375 0.00451172 1.5675 0.00902344 2.375 0.01367188 C4.29170014 0.02535907 6.20836048 0.04329092 8.125 0.0625 C8.125 0.7225 8.125 1.3825 8.125 2.0625 C0.205 2.3925 -7.715 2.7225 -15.875 3.0625 C-15.545 2.4025 -15.215 1.7425 -14.875 1.0625 C-9.94824223 -0.15767833 -5.03843228 -0.05550815 0 0 Z " fill="#774B35" transform="translate(159.875,24.9375)"/>
<path d="M0 0 C0 0.66 0 1.32 0 2 C-14.59681093 5.44419134 -14.59681093 5.44419134 -22 5 C-21.67 4.34 -21.34 3.68 -21 3 C-19.28173828 2.49755859 -19.28173828 2.49755859 -17.0703125 2.1484375 C-16.27496094 2.01953125 -15.47960937 1.890625 -14.66015625 1.7578125 C-13.82355469 1.63148438 -12.98695313 1.50515625 -12.125 1.375 C-11.29613281 1.2409375 -10.46726563 1.106875 -9.61328125 0.96875 C-6.35804128 0.45338083 -3.30234041 0 0 0 Z " fill="#48291E" transform="translate(192,292)"/>
<path d="M0 0 C6.95041086 -0.26618595 13.23514355 0.3879491 20 2 C20 2.66 20 3.32 20 4 C13.4 3.34 6.8 2.68 0 2 C0 1.34 0 0.68 0 0 Z " fill="#47291F" transform="translate(168,26)"/>
<path d="M0 0 C0.66 0 1.32 0 2 0 C0.59155282 3.21524305 -1.10344786 5.32183868 -3.625 7.75 C-4.57246094 8.67039062 -4.57246094 8.67039062 -5.5390625 9.609375 C-6.02117187 10.06828125 -6.50328125 10.5271875 -7 11 C-7.66 10.34 -8.32 9.68 -9 9 C-8.2575 8.443125 -7.515 7.88625 -6.75 7.3125 C-3.92455792 5.09173001 -3.92455792 5.09173001 -1.8125 2.25 C-1.214375 1.5075 -0.61625 0.765 0 0 Z " fill="#3D2018" transform="translate(259,251)"/>
<path d="M0 0 C0 0.66 0 1.32 0 2 C-5.30723432 3.42705634 -9.53891111 4.4002792 -15 3 C-15 2.67 -15 2.34 -15 2 C-13.06302033 1.66365624 -11.12539514 1.33102835 -9.1875 1 C-7.56908203 0.7215625 -7.56908203 0.7215625 -5.91796875 0.4375 C-3 0 -3 0 0 0 Z " fill="#865639" transform="translate(175,203)"/>
<path d="M0 0 C1.67110042 2.96178773 2.32682752 5.37071192 2.625 8.75 C2.69976562 9.54921875 2.77453125 10.3484375 2.8515625 11.171875 C2.90054687 11.77515625 2.94953125 12.3784375 3 13 C2.67 12.34 2.34 11.68 2 11 C1.34 11 0.68 11 0 11 C-0.19491452 9.54263913 -0.38069358 8.08405407 -0.5625 6.625 C-0.66691406 5.81289062 -0.77132813 5.00078125 -0.87890625 4.1640625 C-1 2 -1 2 0 0 Z " fill="#5C3826" transform="translate(292,131)"/>
<path d="M0 0 C5.20142984 2.44773169 7.82188865 6.40211381 11 11 C7.20450741 10.45418801 5.69020705 8.94590705 3.25 6.0625 C2.63640625 5.35222656 2.0228125 4.64195313 1.390625 3.91015625 C0 2 0 2 0 0 Z " fill="#371D16" transform="translate(251,61)"/>
<path d="M0 0 C1.41687119 4.25061356 0.19320039 6.71851625 -1 11 C-1.66 11 -2.32 11 -3 11 C-2.88590407 9.54077307 -2.75834456 8.08259402 -2.625 6.625 C-2.55539063 5.81289062 -2.48578125 5.00078125 -2.4140625 4.1640625 C-2 2 -2 2 0 0 Z " fill="#4F2E21" transform="translate(30,122)"/>
<path d="M0 0 C1.79068573 2.6860286 2.66055791 4.6626589 3.625 7.6875 C3.88539063 8.49574219 4.14578125 9.30398437 4.4140625 10.13671875 C4.60742188 10.75160156 4.80078125 11.36648437 5 12 C4.01 11.67 3.02 11.34 2 11 C1.015625 9.00390625 1.015625 9.00390625 0.25 6.5625 C-0.01296875 5.75941406 -0.2759375 4.95632812 -0.546875 4.12890625 C-1 2 -1 2 0 0 Z " fill="#543324" transform="translate(283,104)"/>
<path d="M0 0 C-3.42346555 3.14958831 -6.44262737 3.56179109 -11 4 C-8.94006922 -0.11986157 -4.11800376 -1.37266792 0 0 Z " fill="#4D2E21" transform="translate(216,285)"/>
<path d="M0 0 C0.66 0 1.32 0 2 0 C0.84414715 3.91211733 -0.35534962 6.8745041 -3 10 C-4 7 -4 7 -3.22265625 5.17578125 C-2.1484375 3.45052083 -1.07421875 1.72526042 0 0 Z " fill="#563423" transform="translate(282,217)"/>
<path d="M0 0 C4.20626034 1.50223584 5.73900021 4.28550034 8 8 C4.82461668 7.65978036 3.97723135 6.97533396 1.75 4.5625 C0 2 0 2 0 0 Z " fill="#523627" transform="translate(49,240)"/>
<path d="M0 0 C3.3 1.98 6.6 3.96 10 6 C6 7 6 7 2.75 5.25 C1.8425 4.5075 0.935 3.765 0 3 C0 2.01 0 1.02 0 0 Z " fill="#784D34" transform="translate(130,194)"/>
<path d="M0 0 C0.66 0.33 1.32 0.66 2 1 C1.43454163 4.95820859 0.19097652 7.6659053 -2 11 C-3 9 -3 9 -2.44140625 6.8359375 C-2.15136719 6.02382812 -1.86132812 5.21171875 -1.5625 4.375 C-1.27503906 3.55773437 -0.98757812 2.74046875 -0.69140625 1.8984375 C-0.46324219 1.27195312 -0.23507813 0.64546875 0 0 Z " fill="#643E2D" transform="translate(32,112)"/>
<path d="M0 0 C2.4294516 3.6441774 2.16179575 5.71241272 2 10 C1.34 10 0.68 10 0 10 C-0.19412181 8.52168779 -0.38012131 7.04230684 -0.5625 5.5625 C-0.66691406 4.73878906 -0.77132813 3.91507813 -0.87890625 3.06640625 C-0.91886719 2.38449219 -0.95882813 1.70257813 -1 1 C-0.67 0.67 -0.34 0.34 0 0 Z " fill="#563425" transform="translate(25,175)"/>
<path d="M0 0 C0.99 0.33 1.98 0.66 3 1 C1.71937515 2.7074998 0.38232443 4.37373596 -1 6 C-1.66 6 -2.32 6 -3 6 C-3 6.66 -3 7.32 -3 8 C-3.66 7.67 -4.32 7.34 -5 7 C-3.35 4.69 -1.7 2.38 0 0 Z " fill="#663D28" transform="translate(193,189)"/>
<path d="M0 0 C1.31471568 0.28151087 2.62675767 0.57553339 3.9375 0.875 C4.66839844 1.03742187 5.39929688 1.19984375 6.15234375 1.3671875 C8 2 8 2 9 4 C6.36 3.67 3.72 3.34 1 3 C0.67 2.01 0.34 1.02 0 0 Z " fill="#5A3627" transform="translate(188,28)"/>
<path d="M0 0 C3.77545388 1.09068668 6.47043472 1.9083091 9 5 C4.68607774 4.5206753 2.83430453 3.2542015 0 0 Z " fill="#653C28" transform="translate(176,119)"/>
<path d="M0 0 C4.75 1.875 4.75 1.875 7 3 C7 3.66 7 4.32 7 5 C1.25 3.25 1.25 3.25 -1 1 C-0.67 0.67 -0.34 0.34 0 0 Z " fill="#583426" transform="translate(226,43)"/>
</svg>
