<?xml version="1.0" encoding="UTF-8"?>
<svg version="1.1" xmlns="http://www.w3.org/2000/svg" width="960" height="960">
<path d="M0 0 C6.78327191 1.40978878 6.78327191 1.40978878 13.62890625 2.45703125 C17.61779163 3.09950526 21.16815163 4.26491716 24.9375 5.6875 C25.64624268 5.94934082 26.35498535 6.21118164 27.08520508 6.48095703 C30.99839141 7.99570974 34.03388161 9.53809115 37.1875 12.375 C41.3742316 15.94250198 45.43899185 15.34939832 50.72265625 15.078125 C55.39148931 14.96682981 59.47139672 15.9185425 64 17 C64.99 20.96 65.98 24.92 67 29 C67.639375 28.34 68.27875 27.68 68.9375 27 C73.08296356 24.29275849 76.15809472 24.3141378 81 25 C84.49336494 26.20334323 87.64324236 27.84600407 90.875 29.625 C91.71546875 30.05167969 92.5559375 30.47835937 93.421875 30.91796875 C98.53606205 33.65479409 100.71090562 35.48553446 103 41 C103.58498444 43.09155613 104.09428458 45.20542691 104.53515625 47.33203125 C104.91317383 49.15057617 104.91317383 49.15057617 105.29882812 51.00585938 C105.6768457 52.89014648 105.6768457 52.89014648 106.0625 54.8125 C106.31837891 56.02615234 106.57425781 57.23980469 106.83789062 58.49023438 C109.86885021 73.31778218 111.40852381 87.98888996 111.375 103.125 C111.37611786 103.84937256 111.37723572 104.57374512 111.37838745 105.32006836 C111.36638917 121.44750737 109.80272229 137.39651053 107.97265625 153.40625 C107.89029221 154.1327475 107.80792816 154.859245 107.72306824 155.60775757 C107.37104042 158.55204264 106.94097987 161.1770604 106 164 C106.66 163.67 107.32 163.34 108 163 C114.49919431 162.66953249 119.84158724 163.19519271 125.625 166.5 C134.76709368 176.12325651 135.50295917 189.77305638 135.23828125 202.421875 C134.31522604 216.28283527 129.609227 228.43898328 124 241 C123.71108887 241.64807617 123.42217773 242.29615234 123.12451172 242.96386719 C118.65780254 252.69920819 110.70332292 265.31867083 100.23046875 269.5078125 C94.48314497 270.77604857 88.04704634 271.66155177 82.71484375 268.75390625 C80.96488865 267.2640294 79.48823254 265.74761021 78 264 C77.00579696 262.99423646 76.0074236 261.99252088 75 261 C74.443125 262.02738281 73.88625 263.05476563 73.3125 264.11328125 C64.74298521 279.75240902 54.23133343 296.76325597 39.42578125 307.27734375 C36.09708711 311.29913585 36.84454464 318.16172716 36.71875 323.17578125 C36.68100338 324.5110681 36.64324256 325.84635455 36.60546875 327.18164062 C36.55161847 329.2598169 36.49936605 331.33802675 36.44775391 333.41625977 C36.39610276 335.44036884 36.33876551 337.46433032 36.28125 339.48828125 C36.25095703 340.69009033 36.22066406 341.89189941 36.18945312 343.13012695 C36 346 36 346 35 348 C40.72128702 349.57149079 46.44716774 351.12053502 52.1875 352.62109375 C78.70678034 359.63935123 105.40699587 367.69182034 130 380 C130.68384766 380.33451172 131.36769531 380.66902344 132.07226562 381.01367188 C144.77348626 387.26077273 159.93445405 395.26434124 165.9375 408.8125 C168.38963553 416.5170493 167.28911097 424.41731993 165 432 C165.67804687 432.47308594 166.35609375 432.94617188 167.0546875 433.43359375 C173.79548643 438.22310878 179.9772479 443.34006429 186 449 C186.61488281 449.53882813 187.22976563 450.07765625 187.86328125 450.6328125 C213.39597754 473.99376221 224.41967417 519.52809325 234.31640625 551.6875 C236.02531692 557.19561763 238.00487106 562.59042887 240 568 C244.54202486 580.47993206 247.80005186 593.07097595 250.33178711 606.09155273 C250.63557753 607.63326215 250.93953866 609.17493793 251.24365902 610.7165823 C254.31382149 626.35398505 257.15957569 642.03166602 259.96425366 657.71847844 C260.68095508 661.72271313 261.40165295 665.72622894 262.12181091 669.72984314 C263.32816304 676.43936693 264.53208108 683.14932327 265.73413086 689.85961914 C267.40722357 699.19943642 269.08484841 708.53843539 270.76336396 717.8772794 C272.09442373 725.2839138 273.42428267 732.69076391 274.75390625 740.09765625 C274.89124089 740.86265922 275.02857554 741.62766219 275.17007184 742.41584706 C275.9729331 746.88857038 276.77514213 751.36141001 277.5765686 755.83439064 C277.92334976 757.7694167 278.27054782 759.70436803 278.61778259 761.63931274 C281.44366548 777.42064286 284.21379189 793.21148738 287 809 C73.16 809 -140.68 809 -361 809 C-339.64993842 689.20243227 -339.64993842 689.20243227 -333.74414062 656.88085938 C-332.76751647 651.53570415 -331.79718694 646.18942157 -330.82778358 640.84295273 C-330.04487069 636.53043804 -329.2580286 632.21864711 -328.4700737 627.90705109 C-328.10911582 625.92852491 -327.74950169 623.94975293 -327.39146805 621.9706955 C-324.42416375 605.5818923 -320.98846531 589.47297627 -316 573.5625 C-315.67 572.48291016 -315.34 571.40332031 -315 570.29101562 C-313.20630826 564.50706043 -311.20966672 558.89008143 -308.90673828 553.29077148 C-307.53970258 549.83711074 -306.49702471 546.30729439 -305.4375 542.75 C-298.56739279 520.52505534 -290.25294824 498.88756971 -280 478 C-279.62746094 477.23574707 -279.25492187 476.47149414 -278.87109375 475.68408203 C-274.78067536 467.38060817 -270.26533268 459.8839921 -264 453 C-263.18917969 452.10796875 -262.37835938 451.2159375 -261.54296875 450.296875 C-254.69928192 443.12252687 -247.19954304 437.51823262 -239 432 C-239.48533203 430.19015625 -239.48533203 430.19015625 -239.98046875 428.34375 C-241.93126983 420.50604877 -242.25262767 412.11523788 -238 405 C-213.8834006 370.9894111 -153.57828015 358.84300425 -115.6484375 349.875 C-112.08071377 349.07482694 -112.08071377 349.07482694 -109 348 C-109.33 347.34 -109.66 346.68 -110 346 C-110.1431113 343.832122 -110.22650461 341.66018797 -110.28125 339.48828125 C-110.33732422 337.51504883 -110.33732422 337.51504883 -110.39453125 335.50195312 C-110.43016638 334.10548089 -110.46531853 332.70899625 -110.5 331.3125 C-110.55168295 329.257982 -110.60484861 327.2035624 -110.66296387 325.1492157 C-110.71603386 323.27186459 -110.76344313 321.39435598 -110.81054688 319.5168457 C-110.91051943 312.64419962 -110.91051943 312.64419962 -113.8984375 306.8046875 C-114.71570313 306.16789062 -115.53296875 305.53109375 -116.375 304.875 C-130.83799391 292.67828719 -140.81366421 276.33464344 -150 260 C-150.39832031 260.55429687 -150.79664063 261.10859375 -151.20703125 261.6796875 C-151.73683594 262.40414063 -152.26664063 263.12859375 -152.8125 263.875 C-153.59560547 264.95394531 -153.59560547 264.95394531 -154.39453125 266.0546875 C-156.65127614 268.78913752 -158.31673426 269.9196158 -161.85546875 270.3359375 C-171.55969151 270.4497033 -176.96503625 269.03380696 -184.0625 262.4375 C-199.87808752 245.63343826 -209.67355363 218.63948828 -209.24609375 195.7578125 C-208.56612147 185.37474366 -207.44405002 174.89634673 -200 167 C-194.49507732 162.70347498 -188.71057666 162.77998109 -182 163 C-181.34 163.33 -180.68 163.66 -180 164 C-180.12552246 163.36835938 -180.25104492 162.73671875 -180.38037109 162.0859375 C-186.35031142 130.84643824 -188.14983276 96.31115898 -182 65 C-181.67008057 63.28055176 -181.67008057 63.28055176 -181.33349609 61.52636719 C-180.60508638 57.8027328 -179.84253546 54.08814553 -179.0625 50.375 C-178.70164307 48.62026367 -178.70164307 48.62026367 -178.33349609 46.83007812 C-177.96925537 45.19329102 -177.96925537 45.19329102 -177.59765625 43.5234375 C-177.38633057 42.55325684 -177.17500488 41.58307617 -176.95727539 40.58349609 C-175.17364535 35.76983297 -171.610388 33.55658593 -167.25390625 31.16015625 C-166.34068604 30.65645508 -165.42746582 30.15275391 -164.48657227 29.63378906 C-136.92588281 14.82368659 -136.92588281 14.82368659 -122 17 C-119.56640625 18.53125 -119.56640625 18.53125 -118 20 C-118.061875 18.741875 -118.12375 17.48375 -118.1875 16.1875 C-118.30749299 13.74764255 -118.26265787 12.43470895 -116.9921875 10.33203125 C-113.91830373 8.27674818 -110.5266346 8.00603987 -106.9375 7.5 C-102.29044961 6.81994385 -97.84183174 6.0147576 -93.35546875 4.6015625 C-86.79821919 2.55238243 -80.10173445 1.24093893 -73.375 -0.125 C-72.10398437 -0.38925781 -70.83296875 -0.65351563 -69.5234375 -0.92578125 C-46.11625152 -5.72913087 -23.32032781 -4.99526335 0 0 Z " fill="#371D17" transform="translate(517,151)"/>
<path d="M0 0 C4.07027436 0.57727449 6.85250851 2.84900069 10 5.3125 C10.5681543 5.7569043 11.13630859 6.20130859 11.72167969 6.65917969 C51.62295359 38.5138809 64.09904405 97.68946701 78.5 144.625 C78.70182892 145.27625854 78.90365784 145.92751709 79.11160278 146.59851074 C85.51786275 167.34196134 89.03804349 188.70738775 92.86200094 210.03735852 C93.61454883 214.23038235 94.371377 218.42263367 95.12771606 222.61497498 C96.56122526 230.56438396 97.99108226 238.51444509 99.41953766 246.46476358 C101.18156567 256.27068272 102.94814351 266.07578114 104.71484375 275.88085938 C108.1626481 295.01691278 108.1626481 295.01691278 109.73029578 303.7355234 C110.15045438 306.07222883 110.57079267 308.40890189 110.99113655 310.745574 C111.5322331 313.75379099 112.07242846 316.76216789 112.61202812 319.77065372 C113.96694892 327.3167783 115.34103864 334.85887118 116.74273682 342.39645386 C117.16367033 344.67082584 117.58421519 346.94526935 118.004637 349.21973598 C118.39958869 351.34647233 118.80030745 353.47206766 119.20121574 355.59768772 C119.55626529 357.51862956 119.55626529 357.51862956 119.91848755 359.4783783 C120.12803637 360.59718856 120.33758518 361.71599882 120.55348396 362.86871243 C121 366 121 366 121 372 C46.09 372 -28.82 372 -106 372 C-109.9050981 304.31163286 -109.9050981 304.31163286 -110.5625 274.8125 C-110.58334656 273.89011536 -110.60419312 272.96773071 -110.62567139 272.01739502 C-110.98204201 256.00958413 -111.22632555 240.01198334 -111 224 C-110.98211426 222.73172363 -110.96422852 221.46344727 -110.94580078 220.15673828 C-110.01628525 164.62327388 -106.5827159 112.73712743 -66.37890625 70.51953125 C-64.46383262 68.4912513 -62.63866553 66.43329852 -60.82055664 64.32006836 C-57.19743241 60.17111152 -53.39208669 56.24709439 -49.4921875 52.359375 C-48.80367706 51.66990784 -48.11516663 50.98044067 -47.40579224 50.27008057 C-45.96332457 48.82693782 -44.51961514 47.38503526 -43.07470703 45.94433594 C-40.87025685 43.74526843 -38.67123009 41.54087834 -36.47265625 39.3359375 C-35.06282072 37.92676239 -33.65267523 36.51789731 -32.2421875 35.109375 C-31.58999237 34.45515564 -30.93779724 33.80093628 -30.26583862 33.12689209 C-26.98313097 29.86093649 -23.66743895 26.84017835 -20 24 C-18.86017564 22.80382478 -17.75382932 21.57463173 -16.6875 20.3125 C-14.12686422 17.31114477 -11.52418226 14.36107966 -8.875 11.4375 C-5.61953687 7.78935455 -2.75060926 4.03995735 0 0 Z " fill="#B7B0AF" transform="translate(677,588)"/>
<path d="M0 0 C3.02663276 1.70965483 4.73352327 4.38946709 6.70703125 7.16796875 C10.26455417 11.99763968 13.94205273 16.32499124 18.29296875 20.4765625 C19.95703125 22.10546875 19.95703125 22.10546875 21.95703125 24.66796875 C23.74539469 26.84753669 25.48024588 28.48216511 27.61547852 30.30175781 C31.71124543 33.85206435 35.58680974 37.574048 39.421875 41.40234375 C40.0994838 42.07662415 40.77709259 42.75090454 41.47523499 43.44561768 C42.89747186 44.86282949 44.31839144 46.28136442 45.73803711 47.70117188 C47.88049617 49.84144797 50.03083115 51.97358856 52.18164062 54.10546875 C59.5760174 61.46990726 66.51761797 68.88372548 72.95703125 77.10546875 C74.4520968 78.88047007 75.95163461 80.65172085 77.45703125 82.41796875 C110.37039941 122.82986079 111.26697123 174.3216791 111.95703125 224.10546875 C111.98192627 225.84376953 111.98192627 225.84376953 112.00732422 227.6171875 C112.10423558 235.78167023 112.06060509 243.94123597 111.95703125 252.10546875 C111.94843079 252.81548035 111.93983032 253.52549194 111.93096924 254.25701904 C111.62340242 278.81232673 110.65612878 303.32978509 109.45703125 327.85546875 C109.42404812 328.53139824 109.39106499 329.20732773 109.35708237 329.90373993 C109.13397759 334.46597894 108.90619454 339.02796843 108.67578125 343.58984375 C108.58983452 345.30329483 108.58983452 345.30329483 108.50215149 347.05136108 C108.07173693 355.41133479 107.51403926 363.75034867 106.95703125 372.10546875 C32.04703125 372.10546875 -42.86296875 372.10546875 -120.04296875 372.10546875 C-118.91795851 359.73035609 -118.91795851 359.73035609 -117.95152283 354.37744141 C-117.73452728 353.16233887 -117.51753174 351.94723633 -117.29396057 350.6953125 C-117.05765427 349.39980469 -116.82134796 348.10429688 -116.57788086 346.76953125 C-116.32430329 345.35993585 -116.07114168 343.95026557 -115.81835938 342.54052734 C-115.1341805 338.73184382 -114.44413833 334.92424427 -113.75294185 331.11682892 C-113.0206721 327.07766845 -112.29369783 323.0375547 -111.5660553 318.99755859 C-110.33763591 312.18139374 -109.10571115 305.36587029 -107.87133789 298.55078125 C-106.62055098 291.64502382 -105.37228901 284.73881784 -104.12719727 277.83203125 C-103.97541098 276.99004877 -103.8236247 276.14806629 -103.66723883 275.2805692 C-103.36184099 273.58641398 -103.05644733 271.89225801 -102.75105786 270.19810128 C-99.57054999 252.5561992 -96.37288239 234.91745471 -93.16481674 217.28054464 C-92.35072774 212.80327601 -91.54002175 208.3254083 -90.73162842 203.84710693 C-89.81141305 198.74940402 -88.884909 193.65289786 -87.95187569 188.55752563 C-87.63933758 186.8449199 -87.32910656 185.13189083 -87.02165031 183.41836548 C-84.21452197 167.79026037 -80.17842116 152.59030275 -75.40673828 137.45068359 C-74.47554858 134.48718139 -73.55217944 131.52147201 -72.63623047 128.55322266 C-33.39202231 1.72387113 -33.39202231 1.72387113 0 0 Z " fill="#B7B0AF" transform="translate(282.04296875,587.89453125)"/>
<path d="M0 0 C1.08796875 0.67546875 2.1759375 1.3509375 3.296875 2.046875 C19.74062523 12.60032664 26.95719436 27.2026398 34 45 C34.99 45 35.98 45 37 45 C38.98 39.72 40.96 34.44 43 29 C50.76556153 36.76556153 52.93372758 47.56213269 55.50292969 57.99853516 C56.01992355 60.08022262 56.55866804 62.15539491 57.1015625 64.23046875 C59.49416554 73.48681861 61.1546007 81.92152723 61.0625 91.5 C61.05347656 92.7271875 61.04445313 93.954375 61.03515625 95.21875 C61.01775391 96.59546875 61.01775391 96.59546875 61 98 C62.32 98 63.64 98 65 98 C66.98 94.04 68.96 90.08 71 86 C71.33 86 71.66 86 72 86 C72.1966112 96.48183466 71.96809574 103.66363823 64.71484375 111.8984375 C62.68389113 113.93532441 62.68389113 113.93532441 63 117 C65.99332739 116.0022242 66.94766315 115.2477975 69 113 C67.43535469 129.63465018 62.07732056 144.94466727 55 160 C54.65453125 160.73492676 54.3090625 161.46985352 53.953125 162.22705078 C38.89317861 193.63237741 13.09301744 219.27053012 -20 231 C-47.95829403 239.7605641 -76.67603581 237.29655307 -102.6875 223.75 C-119.33432481 214.76362789 -133.63086527 202.0841196 -145 187 C-145.40428223 186.46487793 -145.80856445 185.92975586 -146.22509766 185.37841797 C-160.46212741 166.15306704 -175.82203043 136.70658121 -175 112 C-168.44958372 117.38390379 -168.44958372 117.38390379 -166.3125 120.3125 C-164.69840435 122.38776584 -163.55645347 122.64738573 -161 123 C-162.33696658 119.12552543 -163.99975268 116.52740403 -166.75 113.5 C-167.40484375 112.7678125 -168.0596875 112.035625 -168.734375 111.28125 C-171.00686476 108.84076498 -171.00686476 108.84076498 -174.2109375 106.86328125 C-178.22636107 102.74100467 -177.89070378 99.24271243 -177.875 93.6875 C-177.895625 92.75615234 -177.91625 91.82480469 -177.9375 90.86523438 C-177.98446018 88.5759258 -178.00445527 86.28969022 -178 84 C-172.18718344 86.95112225 -168.19215993 90.51938813 -163.75 95.25 C-162.54357941 96.53277632 -161.33033503 97.80917964 -160.109375 99.078125 C-159.58311523 99.63918945 -159.05685547 100.20025391 -158.51464844 100.77832031 C-156.93513963 102.31390565 -156.93513963 102.31390565 -154 102 C-152.87557988 98.34034691 -152.7950446 94.82163602 -152.68359375 91.0078125 C-152.66290329 90.3176857 -152.64221283 89.6275589 -152.62089539 88.91651917 C-152.55501743 86.65278629 -152.4962093 84.38892917 -152.4375 82.125 C-152.3924481 80.55053617 -152.3473631 78.97607329 -152.30224609 77.40161133 C-152.09523276 69.76675535 -151.96580004 62.14150138 -152.04296875 54.50390625 C-152.0486235 53.83683655 -152.05427826 53.16976685 -152.06010437 52.48248291 C-152.08887609 49.36186909 -152.13592209 46.24337568 -152.21264648 43.12353516 C-152.36549456 31.53517234 -151.40113868 18.79141162 -143 10 C-140.05704316 8.11457385 -137.82794149 7.8174842 -134.375 7.75 C-129.2030962 7.31336183 -126.08870108 5.52430658 -121.7890625 2.7421875 C-107.09732721 -6.43500289 -89.12377184 -11.82779171 -72 -14 C-71.18660156 -14.10957031 -70.37320313 -14.21914062 -69.53515625 -14.33203125 C-44.49131053 -17.15652513 -21.45586133 -13.47228502 0 0 Z " fill="#E59983" transform="translate(533,247)"/>
<path d="M0 0 C0.64324219 0.4125 1.28648437 0.825 1.94921875 1.25 C3.88144179 2.48485866 5.8195244 3.71057186 7.76171875 4.9296875 C9.85445643 6.26762594 11.92228863 7.64572388 13.95703125 9.0703125 C23.13034873 15.26436256 32.2859439 17.69701995 43 20 C43.73782715 20.16902832 44.4756543 20.33805664 45.23583984 20.51220703 C58.26250727 23.49015348 69.07443626 22.42139186 82.0625 19.6875 C83.07376953 19.48705078 84.08503906 19.28660156 85.12695312 19.08007812 C95.91188673 16.83697861 104.47932032 13.10723355 113.5 6.8125 C115.07242364 5.73495727 116.64531693 4.65809946 118.21875 3.58203125 C119.2387207 2.87397339 119.2387207 2.87397339 120.27929688 2.15161133 C122 1 122 1 124 0 C123.50617467 14.27381729 122.7631372 28.52329243 121.87890625 42.77734375 C121.82690189 43.61630692 121.77489754 44.45527008 121.72131729 45.31965637 C121.50456081 48.81158826 121.28721866 52.30348314 121.06921959 55.79533768 C118.9856929 89.18232529 116.99140125 122.55936259 116 156 C115.96129791 157.29964691 115.96129791 157.29964691 115.92181396 158.62554932 C115.50876604 172.74849724 115.23869282 186.87317438 115 201 C114.9804425 202.12631836 114.96088501 203.25263672 114.94073486 204.41308594 C114.38452791 236.47717151 114.00734393 268.54151531 113.75 300.609375 C113.72881715 303.21145135 113.70761759 305.81352756 113.68640137 308.41560364 C113.5913922 320.14361329 113.49940053 331.87161975 113.41920471 343.59974098 C113.38476239 348.51442043 113.34659273 353.42906648 113.30761719 358.34371185 C113.29018316 360.65536024 113.27444797 362.96702212 113.26049805 365.27869415 C113.24111059 368.46961758 113.21593852 371.66044709 113.18945312 374.85131836 C113.18526619 375.782317 113.18107925 376.71331564 113.17676544 377.67252636 C113.1684243 378.54004685 113.16008316 379.40756735 113.15148926 380.30137634 C113.14375866 381.41633437 113.14375866 381.41633437 113.13587189 382.5538168 C112.95998878 385.72034606 112.44850513 388.86046411 112 392 C79 392 46 392 12 392 C10.87502308 384.12516159 10.87502308 384.12516159 10.84851074 380.30137634 C10.8401696 379.43385585 10.83182846 378.56633535 10.82323456 377.67252636 C10.81904762 376.74152772 10.81486069 375.81052908 10.81054688 374.85131836 C10.80223091 373.84943891 10.79391495 372.84755945 10.78534698 371.81532001 C10.75877759 368.49017854 10.73881604 365.16503031 10.71875 361.83984375 C10.70098346 359.48410698 10.68274459 357.12837373 10.6640625 354.77264404 C10.6250532 349.76375772 10.5886939 344.75486227 10.55444336 339.74594116 C10.47369903 328.00052939 10.37751969 316.25524031 10.28175354 304.50994301 C10.26055566 301.90602044 10.23950912 299.30209663 10.21861267 296.69817162 C9.97127346 265.91351706 9.58317127 235.13270122 9.05603027 204.35162354 C9.00316578 201.189371 8.95427854 198.02708984 8.90722656 194.86474609 C8.11475382 142.1672568 5.2806892 89.55208549 1.7946558 36.97246456 C1.62920715 34.47695059 1.4646786 31.98137726 1.30027771 29.48579407 C1.09912335 26.43294866 0.89381794 23.38042541 0.6856842 20.32804871 C0.23089475 13.54016776 -0.11959765 6.80477552 0 0 Z " fill="#FEE49C" transform="translate(418,568)"/>
<path d="M0 0 C1 2 1 2 0.44140625 3.99609375 C0.15136719 4.80175781 -0.13867188 5.60742188 -0.4375 6.4375 C-2.23503345 12.03436551 -2.29922552 17.17064353 -2 23 C-1.34 23 -0.68 23 0 23 C0.17015625 21.91460937 0.3403125 20.82921875 0.515625 19.7109375 C0.75966039 18.26549711 1.00449462 16.82019144 1.25 15.375 C1.35957031 14.66214844 1.46914063 13.94929687 1.58203125 13.21484375 C2.50811068 7.90207226 4.09820414 3.90179586 8 0 C10.01964199 -0.07244053 12.04167124 -0.08377188 14.0625 -0.0625 C15.16722656 -0.05347656 16.27195312 -0.04445312 17.41015625 -0.03515625 C18.26480469 -0.02355469 19.11945313 -0.01195312 20 0 C19.67 1.093125 19.34 2.18625 19 3.3125 C17.67014468 8.52890432 17.82306016 13.65248469 18 19 C18.99 19 19.98 19 21 19 C21.10957031 17.87980469 21.21914063 16.75960937 21.33203125 15.60546875 C21.49149893 14.13273778 21.65169317 12.66008535 21.8125 11.1875 C21.91788086 10.08051758 21.91788086 10.08051758 22.02539062 8.95117188 C22.64511832 3.47277906 22.64511832 3.47277906 24.31103516 1.25341797 C26 0 26 0 29.75390625 0.15234375 C31.36000137 0.39344545 32.96282017 0.65697192 34.5625 0.9375 C35.8616333 1.15031616 35.8616333 1.15031616 37.18701172 1.36743164 C44.71444708 2.65817047 52.17562298 4.25905974 59.625 5.9375 C60.70209229 6.17782959 61.77918457 6.41815918 62.88891602 6.66577148 C82.12491317 11.16356296 82.12491317 11.16356296 87 18 C88.097181 21.05535922 88.73106615 24.12342343 89.3125 27.3125 C89.48072266 28.14845703 89.64894531 28.98441406 89.82226562 29.84570312 C90.23188515 31.89380075 90.61830345 33.94651521 91 36 C92.32 36 93.64 36 95 36 C95.33 30.39 95.66 24.78 96 19 C106.3125 19 106.3125 19 111 22 C111.99812048 24.8517728 112.54722459 27.08093028 113 30 C113.35484263 31.33883886 113.72848977 32.67290452 114.125 34 C114.41375 34.99 114.7025 35.98 115 37 C117.54257082 36.61177951 118.74150306 36.27568599 120.52734375 34.37109375 C121.46778598 33.0815677 122.40528872 31.78989278 123.33984375 30.49609375 C125 29 125 29 127.33374023 28.79614258 C131.78993718 29.13685537 135.22046119 31.19431986 139.125 33.25 C139.93582031 33.62640625 140.74664063 34.0028125 141.58203125 34.390625 C145.19278373 36.30044449 147.46500937 37.77366176 149.12939453 41.58886719 C149.92960718 44.71477807 150.49215435 47.81394675 151 51 C151.44358236 53.12125445 151.89410488 55.24106948 152.3515625 57.359375 C152.77904789 59.48898209 153.20352224 61.61919578 153.625 63.75 C153.8415625 64.82121094 154.058125 65.89242187 154.28125 66.99609375 C154.49007813 68.04410156 154.69890625 69.09210938 154.9140625 70.171875 C155.0992041 71.1009668 155.2843457 72.03005859 155.47509766 72.98730469 C156.60212872 79.45593881 157.16978449 85.74751384 157.23828125 92.30078125 C157.24784851 93.08314651 157.25741577 93.86551178 157.26727295 94.67158508 C157.29189554 97.21859784 157.30442687 99.76538285 157.3125 102.3125 C157.31611542 103.18517517 157.31973083 104.05785034 157.32345581 104.95697021 C157.35352097 123.16069682 155.65430617 141.00356149 153 159 C152.86150635 160.093125 152.7230127 161.18625 152.58032227 162.3125 C152 165 152 165 149.7421875 166.8359375 C148.79601562 167.34382812 147.84984375 167.85171875 146.875 168.375 C141.45705676 171.53252363 137.77948237 175.03378597 134 180 C133.34 179.67 132.68 179.34 132 179 C131.49449092 176.99954029 131.1012546 174.97072372 130.75 172.9375 C126.28645869 144.61094184 126.28645869 144.61094184 113 120 C110.87053397 119.13034494 110.87053397 119.13034494 109 119 C105.57068046 122.7559214 104.43570917 127.23466745 103 132 C100.0203585 128.42259091 98.23034304 124.48327381 96.25 120.3125 C86.09969816 99.67285627 65.94534479 87.53339499 44.73828125 79.8125 C16.25820067 71.38263031 -15.66654502 77.55387953 -43 87 C-43.16435547 86.04287109 -43.16435547 86.04287109 -43.33203125 85.06640625 C-43.49058594 84.24011719 -43.64914062 83.41382813 -43.8125 82.5625 C-43.96332031 81.73878906 -44.11414063 80.91507812 -44.26953125 80.06640625 C-44.63111328 79.04353516 -44.63111328 79.04353516 -45 78 C-46.485 77.505 -46.485 77.505 -48 77 C-48 81.29 -48 85.58 -48 90 C-50.12282669 91.00460531 -52.24833021 92.00355602 -54.375 93 C-55.55835938 93.556875 -56.74171875 94.11375 -57.9609375 94.6875 C-61 96 -61 96 -63 96 C-63 96.66 -63 97.32 -63 98 C-63.78503906 98.07476562 -64.57007813 98.14953125 -65.37890625 98.2265625 C-71.31451681 98.96942419 -76.22014577 99.631135 -80.5390625 103.9921875 C-91.69149671 119.31932971 -89.23044408 140.64153777 -89.0625 158.5 C-89.03478472 162.05333926 -89.01011065 165.60663623 -88.99131775 169.16003418 C-88.97915584 171.35709388 -88.96164777 173.5541325 -88.93800354 175.75109863 C-88.90605089 180.62130351 -88.955376 185.2134622 -90 190 C-90.94875 189.175 -91.8975 188.35 -92.875 187.5 C-94.24721736 186.3300617 -95.62247557 185.1636849 -97 184 C-97.71414063 183.39671875 -98.42828125 182.7934375 -99.1640625 182.171875 C-106.76338001 175.9195937 -115.16132012 169.41933994 -124 165 C-124.47070312 163.06079102 -124.47070312 163.06079102 -124.78125 160.50390625 C-124.90113281 159.55064453 -125.02101563 158.59738281 -125.14453125 157.61523438 C-125.26183594 156.60783203 -125.37914062 155.60042969 -125.5 154.5625 C-125.61730469 153.62083984 -125.73460937 152.67917969 -125.85546875 151.70898438 C-126.10777701 149.6566059 -126.35111579 147.6031128 -126.58740234 145.54882812 C-126.88461503 142.9924473 -127.19812409 140.44107263 -127.52587891 137.88867188 C-128.92160906 126.69951909 -129.39935167 115.64643939 -129.375 104.375 C-129.37512085 103.50525543 -129.3752417 102.63551086 -129.37536621 101.7394104 C-129.34912137 88.40993018 -128.46725277 75.64356014 -125.56445312 62.59326172 C-124.97715122 59.89502607 -124.47368811 57.19026291 -123.984375 54.47265625 C-123.65798723 52.73144429 -123.32994467 50.99054146 -123 49.25 C-122.85852539 48.46842529 -122.71705078 47.68685059 -122.57128906 46.8815918 C-121.62957809 42.28482647 -120.50688172 40.04967861 -117 37 C-114.65673828 35.52368164 -114.65673828 35.52368164 -112.0703125 34.16015625 C-111.11632568 33.65637451 -110.16233887 33.15259277 -109.17944336 32.63354492 C-108.17147705 32.1151001 -107.16351074 31.59665527 -106.125 31.0625 C-105.0944751 30.53052002 -104.0639502 29.99854004 -103.00219727 29.45043945 C-82.10647268 18.83146179 -82.10647268 18.83146179 -74 21 C-71.4375 23.25 -71.4375 23.25 -69 26 C-68.1853125 26.73605469 -67.370625 27.47210938 -66.53125 28.23046875 C-63.72836542 31.29720511 -62.38645527 34.20470992 -61.0625 38.0625 C-60.69572144 39.08404175 -60.69572144 39.08404175 -60.3215332 40.1262207 C-52.83707781 61.38817404 -52.83707781 61.38817404 -51 72 C-49.68 72 -48.36 72 -47 72 C-49.83057948 61.98410339 -52.90676101 52.06557204 -56.1875 42.1875 C-56.53232422 41.14400391 -56.87714844 40.10050781 -57.23242188 39.02539062 C-57.56177734 38.04119141 -57.89113281 37.05699219 -58.23046875 36.04296875 C-58.66975708 34.72848755 -58.66975708 34.72848755 -59.11791992 33.38745117 C-59.94295133 31.00426315 -59.94295133 31.00426315 -61.09399414 28.88256836 C-62.45387281 26.05690831 -62.26403686 23.4841645 -62.25 20.375 C-62.25773437 18.65410156 -62.25773437 18.65410156 -62.265625 16.8984375 C-62 14 -62 14 -60 12 C-58.1875 11.54516602 -58.1875 11.54516602 -56 11.25390625 C-55.19433594 11.13853516 -54.38867188 11.02316406 -53.55859375 10.90429688 C-52.29208984 10.73510742 -52.29208984 10.73510742 -51 10.5625 C-45.00101907 9.75914994 -39.41173475 8.59972916 -33.63818359 6.77807617 C-28.76568293 5.34103567 -23.78785997 4.38440302 -18.8125 3.375 C-17.77158203 3.1584375 -16.73066406 2.941875 -15.65820312 2.71875 C-10.45204052 1.64776798 -5.27306626 0.67125313 0 0 Z " fill="#E5BD8B" transform="translate(466,152)"/>
<path d="M0 0 C-0.65226562 0.79921875 -1.30453125 1.5984375 -1.9765625 2.421875 C-8.86537424 11.01970282 -13.96800168 19.6960043 -18 30 C-18.66 30 -19.32 30 -20 30 C-20.09046042 33.58316023 -20.14149531 37.16601554 -20.1875 40.75 C-20.21263672 41.72710938 -20.23777344 42.70421875 -20.26367188 43.7109375 C-20.41824147 59.99226823 -16.89859942 75.72309129 -12.52963257 91.31503296 C-11.78774779 93.96335861 -11.06087855 96.61545526 -10.3371582 99.26879883 C-8.90355882 104.51591209 -7.45392323 109.7584871 -6 115 C1.66739816 142.64530594 8.37192839 170.36366377 11 199 C11.0942627 200.01682861 11.18852539 201.03365723 11.28564453 202.08129883 C12.30998838 214.96989001 12.24488906 227.89111427 12.25 240.8125 C12.25044186 241.79551527 12.25044186 241.79551527 12.25089264 242.79838943 C12.25588241 312.28056573 7.26453793 381.68221631 3 451 C0.69 451 -1.62 451 -4 451 C-3.96463638 450.33110748 -3.92927277 449.66221497 -3.89283752 448.97305298 C-3.55283114 442.535576 -3.21466629 436.09800491 -2.87835789 429.66033363 C-2.705577 426.35407088 -2.53198458 423.04785582 -2.35717773 419.74169922 C-1.94950334 412.02679242 -1.55413011 404.31142102 -1.17672729 396.5949707 C-1.06627955 394.34825271 -0.95349049 392.10164717 -0.83718872 389.85522461 C0.22648159 369.04064807 0.18741592 348.21611004 0.18530273 327.37988281 C0.18522148 323.30041063 0.19217973 319.22105077 0.20581055 315.14160156 C0.42680896 247.88276472 -2.82451699 191.78693556 -50.56738281 140.55029297 C-51.9945721 139.00587375 -53.4017553 137.44536743 -54.8046875 135.87890625 C-60.15494876 129.9353922 -65.69383363 124.30889685 -71.5625 118.875 C-114.28224985 79.27703813 -114.28224985 79.27703813 -116.23828125 63.01953125 C-116.49290252 55.44789883 -114.26184646 50.22247497 -109.1875 44.625 C-84.93875121 22.15550951 -49.30426833 12.47177184 -18.3125 3.25 C-17.1885231 2.91257278 -17.1885231 2.91257278 -16.0418396 2.56832886 C-13.92275222 1.93597787 -11.80030438 1.31693335 -9.67578125 0.703125 C-8.45802002 0.34895508 -7.24025879 -0.00521484 -5.9855957 -0.37011719 C-3 -1 -3 -1 0 0 Z " fill="#FEA67E" transform="translate(397,509)"/>
<path d="M0 0 C8.69393481 1.47827905 17.07728751 3.93604072 25.5 6.5 C26.22143188 6.71897949 26.94286377 6.93795898 27.68615723 7.16357422 C101.40949758 29.65034984 101.40949758 29.65034984 115 54 C116.86069714 59.58209141 116.72892834 64.93040958 114.4375 70.375 C113.65494076 71.93207848 112.84050467 73.47342073 112 75 C111.57203125 75.80824219 111.1440625 76.61648438 110.703125 77.44921875 C105.25847217 86.8370351 97.55550352 94.31511574 90 102 C89.20287598 102.81227051 88.40575195 103.62454102 87.58447266 104.46142578 C85.08394679 107.00196006 82.5757144 109.53451936 80.0625 112.0625 C79.28229492 112.84753906 78.50208984 113.63257813 77.69824219 114.44140625 C73.52042052 118.60674616 69.26529735 122.61479279 64.77929688 126.44726562 C59.76786431 130.82057945 55.32564684 135.68641149 51 140.7265625 C49.0960195 142.89085283 47.12919795 144.98427149 45.14697266 147.07666016 C0.39845163 194.67181901 -0.42835359 254.83976441 -0.3172493 316.82851028 C-0.312443 319.84831407 -0.31140868 322.86810161 -0.31100464 325.88790894 C-0.29430251 360.64993718 0.76103249 395.25589009 2.82244873 429.9553833 C3.10018447 434.71794502 3.35033509 439.4818699 3.59765625 444.24609375 C3.63934433 445.04572037 3.68103241 445.84534698 3.72398376 446.66920471 C3.81642282 448.44611397 3.90828925 450.223053 4 452 C1.69 452 -0.62 452 -3 452 C-12.21316946 302.24485694 -12.21316946 302.24485694 -12.3125 242.375 C-12.31626648 241.14039032 -12.32003296 239.90578064 -12.32391357 238.63375854 C-12.35575816 218.38898929 -11.48878311 198.20249054 -8.25 178.1875 C-8.07791016 177.11226074 -7.90582031 176.03702148 -7.72851562 174.92919922 C-3.76493185 150.98428566 2.70771503 127.74906264 9.1484375 104.3828125 C16.02368093 79.43793407 20.41955208 56.97672817 20 31 C19.34 31 18.68 31 18 31 C17.48953125 29.67548828 17.48953125 29.67548828 16.96875 28.32421875 C13.5837153 19.94265678 9.58705879 13.16807756 4 6 C2.625616 4.02288335 1.31041264 2.02021949 0 0 Z " fill="#FEA67E" transform="translate(563,508)"/>
<path d="M0 0 C0.66 0 1.32 0 2 0 C2.21231136 7.18320108 1.35564475 14.125251 0.5 21.25 C-0.45650051 29.6143723 -1.22272313 37.82870733 -1.0625 46.25 C-0.95569363 53.7884878 -1.07545286 61.28348421 -1.5 68.8125 C-1.52843994 69.82151367 -1.55687988 70.83052734 -1.58618164 71.87011719 C-1.94295562 77.17305551 -2.58257351 80.23403235 -6.6484375 83.82421875 C-8.0850182 84.90165427 -9.53545989 85.96088804 -11 87 C-12.1990442 88.01031758 -13.38961489 89.03080151 -14.5703125 90.0625 C-32.96186504 105.43404691 -52.09190749 110.89976762 -76 109 C-97.29239209 106.790454 -111.38971945 97.74311937 -126.671875 83.15234375 C-128.80100516 80.98333334 -128.80100516 80.98333334 -131 80 C-131.41064453 78.0324707 -131.41064453 78.0324707 -131.6328125 75.42578125 C-131.71668213 74.45842041 -131.80055176 73.49105957 -131.88696289 72.49438477 C-132.00479126 70.91935181 -132.00479126 70.91935181 -132.125 69.3125 C-132.21064209 68.23991943 -132.29628418 67.16733887 -132.38452148 66.06225586 C-132.98894461 57.83159493 -133.16381683 49.64771802 -133.01416016 41.39770508 C-132.94955193 37.42809944 -132.98832697 33.59758875 -133.4921875 29.65625 C-134.2126305 23.92364531 -134.10770545 18.20641061 -134.0625 12.4375 C-134.05798828 11.33341797 -134.05347656 10.22933594 -134.04882812 9.09179688 C-134.0371514 6.394473 -134.02077525 3.69726653 -134 1 C-133.12859375 1.50789063 -132.2571875 2.01578125 -131.359375 2.5390625 C-103.21611911 18.85578186 -74.97703915 27.3647139 -42.4609375 20.22265625 C-28.25915053 16.41918917 -10.69373197 10.69373197 0 0 Z " fill="#E59983" transform="translate(547,464)"/>
<path d="M0 0 C4.07072902 0.57733897 6.85165365 2.84968068 10 5.3125 C10.56525391 5.75255371 11.13050781 6.19260742 11.71289062 6.64599609 C20.40442572 13.56103556 28.68781116 21.13450645 34 31 C33.21625 31.226875 32.4325 31.45375 31.625 31.6875 C28.81420936 32.7280029 28.81420936 32.7280029 28.09765625 35.28125 C26.81180344 38.46613809 25.15774955 40.31386063 22.8125 42.8125 C20.06696656 45.77123652 17.35565639 48.73011951 14.75 51.8125 C7.69492028 59.90364038 -0.06317149 67.51390717 -8.2421875 74.4609375 C-10.6639484 76.58132371 -12.88797632 78.87577046 -15.14038086 81.1730957 C-16.8690275 82.87133159 -18.64730865 84.43878266 -20.49609375 86.00390625 C-25.56856759 90.41591996 -30.30478354 95.15446381 -35.0456543 99.9152832 C-36.5599258 101.43491668 -38.0794743 102.94912517 -39.59960938 104.46289062 C-44.94445314 109.80380648 -50.09344574 115.2505349 -55 121 C-56.00900045 122.13393507 -57.02067947 123.26549294 -58.03515625 124.39453125 C-70.097711 137.95009375 -81.11664412 152.37525367 -90.00292969 168.22460938 C-90.98724303 169.97728484 -91.99739653 171.71536679 -93.0078125 173.453125 C-97.90372304 182.06878007 -101.54125873 191.05297082 -105.03125 200.3203125 C-105.38960937 201.27164063 -105.74796875 202.22296875 -106.1171875 203.203125 C-106.43284668 204.05551758 -106.74850586 204.90791016 -107.07373047 205.78613281 C-108 208 -108 208 -110 211 C-111.73193663 159.93994226 -103.80314795 111.65242144 -68.5625 72.8125 C-67.48162109 71.67748047 -67.48162109 71.67748047 -66.37890625 70.51953125 C-64.46383262 68.4912513 -62.63866553 66.43329852 -60.82055664 64.32006836 C-57.19743241 60.17111152 -53.39208669 56.24709439 -49.4921875 52.359375 C-48.80367706 51.66990784 -48.11516663 50.98044067 -47.40579224 50.27008057 C-45.96332457 48.82693782 -44.51961514 47.38503526 -43.07470703 45.94433594 C-40.87025685 43.74526843 -38.67123009 41.54087834 -36.47265625 39.3359375 C-35.06282072 37.92676239 -33.65267523 36.51789731 -32.2421875 35.109375 C-31.58999237 34.45515564 -30.93779724 33.80093628 -30.26583862 33.12689209 C-26.98313097 29.86093649 -23.66743895 26.84017835 -20 24 C-18.86017564 22.80382478 -17.75382932 21.57463173 -16.6875 20.3125 C-14.12686422 17.31114477 -11.52418226 14.36107966 -8.875 11.4375 C-5.61953687 7.78935455 -2.75060926 4.03995735 0 0 Z " fill="#A29C9B" transform="translate(677,588)"/>
<path d="M0 0 C3.21619876 1.51561129 4.84964728 4.23069169 6.85546875 7.0546875 C10.41299167 11.88435843 14.09049023 16.21170999 18.44140625 20.36328125 C20.10546875 21.9921875 20.10546875 21.9921875 22.10546875 24.5546875 C23.89383219 26.73425544 25.62868338 28.36888386 27.76391602 30.18847656 C31.85968293 33.7387831 35.73524724 37.46076675 39.5703125 41.2890625 C40.2479213 41.9633429 40.92553009 42.63762329 41.62367249 43.33233643 C43.04590936 44.74954824 44.46682894 46.16808317 45.88647461 47.58789062 C48.02893367 49.72816672 50.17926865 51.86030731 52.33007812 53.9921875 C59.7244549 61.35662601 66.66605547 68.77044423 73.10546875 76.9921875 C74.6005343 78.76718882 76.10007211 80.5384396 77.60546875 82.3046875 C107.1586376 118.59083917 112.52925194 165.58932356 111.10546875 210.9921875 C109.26629006 208.23341946 108.20927762 205.90520822 107.0390625 202.828125 C95.75826851 173.61762245 80.54206955 147.97489791 59.10546875 124.9921875 C57.97497735 123.70532427 56.84977889 122.4137879 55.73046875 121.1171875 C47.59023227 111.82191747 39.14260769 102.9293493 30.41796875 94.1796875 C29.52706543 93.28419189 28.63616211 92.38869629 27.71826172 91.46606445 C23.22109094 86.97935221 18.67733521 82.62045412 13.8347168 78.50708008 C12.00879762 76.90749961 10.30453055 75.2252356 8.60546875 73.4921875 C6.31531738 71.16095718 3.97091274 68.98250186 1.48046875 66.8671875 C-10.82543623 56.21003484 -21.30136942 44.12165213 -30.89453125 30.9921875 C-31.55453125 31.3221875 -32.21453125 31.6521875 -32.89453125 31.9921875 C-30.02630831 23.09583498 -9.88438389 -0.04076035 0 0 Z " fill="#A29C9B" transform="translate(281.89453125,588.0078125)"/>
<path d="M0 0 C0.99 0.33 1.98 0.66 3 1 C3.86039128 4.81876174 4.22378792 8.50279725 4.43188477 12.40966797 C4.5036644 13.70421906 4.57544403 14.99877014 4.6493988 16.33255005 C4.686499 17.02689274 4.72359921 17.72123543 4.76182365 18.4366188 C4.96739642 22.2652453 5.18686361 26.09307038 5.40673828 29.92089844 C5.45348536 30.73612284 5.50023245 31.55134724 5.54839611 32.39127541 C6.09864292 41.87220253 6.74827424 51.34607757 7.40234375 60.8203125 C7.5270748 62.63258691 7.65177958 64.44486313 7.77645874 66.25714111 C7.9674293 69.03137182 8.15850165 71.80559535 8.34985542 74.57979965 C13.80444984 153.70915826 17.06756911 232.68817737 18 312 C18.01071533 312.90840889 18.02143066 313.81681778 18.0324707 314.75275421 C18.20764388 329.64747569 18.37161677 344.54230507 18.52820969 359.43723297 C18.56180853 362.62195755 18.59595105 365.80667594 18.63015747 368.99139404 C18.93216323 397.32863529 19.05655016 425.66118957 19 454 C12.07 454 5.14 454 -2 454 C-1.89977539 452.34444092 -1.79955078 450.68888184 -1.69628906 448.9831543 C0.41316822 413.99068353 2.36285976 378.99276123 4.05812073 343.97763443 C4.18547893 341.35413285 4.31407533 338.73069465 4.44299316 336.10726929 C5.92046769 305.96869023 7.22938665 275.80574587 7.25 245.625 C7.25067474 244.69284668 7.25134949 243.76069336 7.25204468 242.80029297 C7.19413046 191.40278054 -3.60885034 143.18756119 -17.68823242 93.99780273 C-24.73053904 69.29540101 -29.78190022 45.37699371 -17.9375 21.375 C-13.94431834 14.30680859 -8.69267656 8.7108061 -3 3 C-2.39671875 2.39414062 -1.7934375 1.78828125 -1.171875 1.1640625 C-0.78515625 0.77992188 -0.3984375 0.39578125 0 0 Z " fill="#FDC97F" transform="translate(406,506)"/>
<path d="M0 0 C10.71162632 4.66669047 17.9385614 16.68250821 22.25 27.0625 C22.84426649 28.70441732 23.42799687 30.35019469 24 32 C24.2990625 32.73089844 24.598125 33.46179688 24.90625 34.21484375 C26.90193655 39.61982815 27.30843397 44.79504508 27.375 50.5 C27.38885742 51.16837891 27.40271484 51.83675781 27.41699219 52.52539062 C27.29691272 66.31556999 23.72554341 80.03311709 20.01428223 93.22528076 C19.35009707 95.58861058 18.69853941 97.95513879 18.04980469 100.32275391 C16.92536741 104.42286222 15.79355295 108.52088334 14.65930176 112.61828613 C2.72575411 155.72797843 -5.24596594 198.09016243 -5.1875 243 C-5.18656342 243.95793457 -5.18562683 244.91586914 -5.18466187 245.90283203 C-5.04166985 315.31665263 0.01141116 384.72612225 4 454 C-2.93 454 -9.86 454 -17 454 C-17.05863219 424.61782641 -16.91211593 395.24255554 -16.59654617 365.86208344 C-16.56181705 362.62381923 -16.52766633 359.38554931 -16.49362183 356.14727783 C-16.33834762 341.43140937 -16.17358177 326.71566369 -16 312 C-15.9851355 310.7356374 -15.9851355 310.7356374 -15.9699707 309.44573212 C-14.96899917 224.64574432 -11.08809527 140.28446678 -3.29092407 31.96328735 C-3.09791603 29.3339198 -2.91227443 26.70400053 -2.73422241 24.07357788 C-2.65136993 22.88744904 -2.56851746 21.70132019 -2.4831543 20.47924805 C-2.4133989 19.44068161 -2.34364349 18.40211517 -2.27177429 17.33207703 C-2 15 -2 15 -1 14 C-0.76472227 11.65012738 -0.58613583 9.29443961 -0.4375 6.9375 C-0.35371094 5.64714844 -0.26992188 4.35679687 -0.18359375 3.02734375 C-0.09271484 1.52880859 -0.09271484 1.52880859 0 0 Z " fill="#FDC97F" transform="translate(552,506)"/>
<path d="M0 0 C1.77388086 1.09926403 3.54399684 2.20460502 5.3125 3.3125 C6.29863281 3.92738281 7.28476562 4.54226563 8.30078125 5.17578125 C10.50172035 6.66324661 12.23328988 8.0403386 14 10 C13.34 10 12.68 10 12 10 C12.26354646 15.49534659 12.53018996 20.99053151 12.79956055 26.4855957 C12.89055725 28.35046437 12.98074424 30.21537274 13.07006836 32.08032227 C13.58214909 43.8587633 13.58214909 43.8587633 14.54296875 55.60546875 C15.25380684 62.78138279 15.22336879 69.99657548 15.33129883 77.20123291 C15.72181438 102.21113634 16.73989138 127.19193235 17.79804039 152.18045425 C17.9604045 156.01868648 18.12115168 159.85698516 18.28125 163.6953125 C18.31274769 164.44722115 18.34424538 165.19912979 18.37669754 165.97382355 C18.92710915 179.20264757 19.32649111 192.43327142 19.63293457 205.66995239 C19.65912872 206.73022833 19.65912872 206.73022833 19.68585205 207.81192398 C19.73230958 209.69592217 19.77554795 211.57999902 19.81848145 213.46408081 C19.92450913 216.79758671 20.13800373 220.11933529 20.36554533 223.44658768 C20.97140308 232.40586773 21.1694468 241.34173967 21.20532227 250.3203125 C21.21493494 251.87930541 21.2249468 253.43829591 21.23532104 254.99728394 C21.26200991 259.17387348 21.28321094 263.35047391 21.30332303 267.52709961 C21.32540882 271.91261705 21.35268541 276.29810237 21.37937927 280.68359375 C21.42900436 288.96329635 21.47405327 297.24301708 21.51740164 305.52275467 C21.56703445 314.95948496 21.62185475 324.39618297 21.67708123 333.83288193 C21.79043702 353.22189122 21.89737442 372.61093109 22 392 C18.7 392 15.4 392 12 392 C11.02119014 386.25395902 10.83673118 380.67360885 10.81054688 374.85131836 C10.80223091 373.84943891 10.79391495 372.84755945 10.78534698 371.81532001 C10.75877759 368.49017854 10.73881604 365.16503031 10.71875 361.83984375 C10.70098346 359.48410698 10.68274459 357.12837373 10.6640625 354.77264404 C10.6250532 349.76375772 10.5886939 344.75486227 10.55444336 339.74594116 C10.47369903 328.00052939 10.37751969 316.25524031 10.28175354 304.50994301 C10.26055566 301.90602044 10.23950912 299.30209663 10.21861267 296.69817162 C9.97127346 265.91351706 9.58317127 235.13270122 9.05603027 204.35162354 C9.00316578 201.189371 8.95427854 198.02708984 8.90722656 194.86474609 C8.11475382 142.1672568 5.2806892 89.55208549 1.7946558 36.97246456 C1.62920715 34.47695059 1.4646786 31.98137726 1.30027771 29.48579407 C1.09912335 26.43294866 0.89381794 23.38042541 0.6856842 20.32804871 C0.23089475 13.54016776 -0.11959765 6.80477552 0 0 Z " fill="#F0D486" transform="translate(418,568)"/>
<path d="M0 0 C0.33 0 0.66 0 1 0 C0.50617467 14.27381729 -0.2368628 28.52329243 -1.12109375 42.77734375 C-1.17309811 43.61630692 -1.22510246 44.45527008 -1.27868271 45.31965637 C-1.49543919 48.81158826 -1.71278134 52.30348314 -1.93078041 55.79533768 C-4.0143071 89.18232529 -6.00859875 122.55936259 -7 156 C-7.02580139 156.86643127 -7.05160278 157.73286255 -7.07818604 158.62554932 C-7.49123396 172.74849724 -7.76130718 186.87317438 -8 201 C-8.0195575 202.12631836 -8.03911499 203.25263672 -8.05926514 204.41308594 C-8.61547209 236.47717151 -8.99265607 268.54151531 -9.25 300.609375 C-9.27118285 303.21145135 -9.29238241 305.81352756 -9.31359863 308.41560364 C-9.4086078 320.14361329 -9.50059947 331.87161975 -9.58079529 343.59974098 C-9.61523761 348.51442043 -9.65340727 353.42906648 -9.69238281 358.34371185 C-9.70981684 360.65536024 -9.72555203 362.96702212 -9.73950195 365.27869415 C-9.75888941 368.46961758 -9.78406148 371.66044709 -9.81054688 374.85131836 C-9.81682728 376.24781632 -9.81682728 376.24781632 -9.82323456 377.67252636 C-9.87012173 382.54902751 -10.18077009 387.19076296 -11 392 C-14.3 392 -17.6 392 -21 392 C-20.89242405 371.6756568 -20.77960471 351.35134902 -20.66066074 331.02706909 C-20.60554475 321.58869591 -20.55210009 312.15031896 -20.50268555 302.71191406 C-20.45957691 294.47879534 -20.41323504 286.24570201 -20.36312145 278.01262283 C-20.33673338 273.65930261 -20.31188907 269.30598672 -20.29092598 264.95263672 C-20.27108085 260.84211123 -20.24686223 256.73163313 -20.21950912 252.62115097 C-20.21028379 251.12497713 -20.20255918 249.62879303 -20.19658089 248.13260269 C-20.16008423 239.25957004 -19.84402153 230.44412509 -19.23886013 221.5938015 C-18.94341967 217.14871323 -18.76262396 212.70745853 -18.62695312 208.25512695 C-18.59915268 207.40870132 -18.57135223 206.5622757 -18.54270935 205.69020081 C-18.45339812 202.95629261 -18.36734959 200.22229228 -18.28125 197.48828125 C-18.2180672 195.54362681 -18.15462583 193.59898076 -18.09094238 191.65434265 C-17.92495622 186.57123984 -17.76151966 181.48805892 -17.59893799 176.40484619 C-17.33936349 168.29174202 -17.07731763 160.17872055 -16.81248474 152.06578636 C-16.72194051 149.27415031 -16.63339633 146.48245626 -16.54504395 143.69075012 C-16.2282376 133.84940289 -15.82370865 124.01680065 -15.33810329 114.18232727 C-15.04285135 108.12817599 -14.83303294 102.08070504 -14.75390625 96.01953125 C-14.72241556 94.17097278 -14.69050028 92.32242151 -14.65820312 90.47387695 C-14.64281494 89.54854156 -14.62742676 88.62320618 -14.61157227 87.66983032 C-14.36566877 73.35161009 -14.00816912 59.11235689 -12.73510742 44.84350586 C-11.70503974 33.25013786 -11.35384286 21.63078611 -11 10 C-11.66 9.67 -12.32 9.34 -13 9 C-11.71802734 8.15115234 -11.71802734 8.15115234 -10.41015625 7.28515625 C-9.2942305 6.54433159 -8.17834728 5.80344286 -7.0625 5.0625 C-6.49853516 4.68931641 -5.93457031 4.31613281 -5.35351562 3.93164062 C-2.53966389 2.14034283 -2.53966389 2.14034283 0 0 Z " fill="#F0D486" transform="translate(541,568)"/>
<path d="M0 0 C0.66 0 1.32 0 2 0 C2.49099206 9.32884915 -0.38974149 14.87979021 -6.5 21.6875 C-7.03044922 22.28908936 -7.56089844 22.89067871 -8.10742188 23.51049805 C-9.20160719 24.74731126 -10.29992025 25.98048509 -11.40234375 27.20996094 C-12.89077351 28.87762093 -14.35424379 30.5637841 -15.8125 32.2578125 C-26.18584391 44.16217331 -41.57818751 57.07991115 -58 59 C-77.9495612 60.2256226 -94.00410277 54.7868174 -109.25 41.60546875 C-114.80934482 36.3383054 -119.96226996 30.76362774 -125 25 C-125.47872559 24.46938965 -125.95745117 23.9387793 -126.45068359 23.39208984 C-131.36538906 17.89383954 -134.52711156 13.80543162 -134.5625 6.25 C-134.42080629 4.49569696 -134.25020112 2.74214111 -134 1 C-133.12859375 1.50789063 -132.2571875 2.01578125 -131.359375 2.5390625 C-103.21611911 18.85578186 -74.97703915 27.3647139 -42.4609375 20.22265625 C-28.25915053 16.41918917 -10.69373197 10.69373197 0 0 Z " fill="#D98972" transform="translate(547,464)"/>
<path d="M0 0 C1.32 0 2.64 0 4 0 C3.88398438 1.05832031 3.76796875 2.11664062 3.6484375 3.20703125 C2.58802197 17.67389645 7.22222483 28.91841159 12.51171875 42.17529297 C15.14621129 48.87143823 17.46158866 55.67931576 19.75 62.5 C19.99274658 63.22110962 20.23549316 63.94221924 20.4855957 64.68518066 C27.53563149 85.7715759 33.16994921 107.30338129 38.90527344 128.77612305 C39.11778748 129.57132858 39.33030151 130.36653412 39.54925537 131.18583679 C40 133 40 133 40 134 C22.84 134 5.68 134 -12 134 C-11.41901735 124.12329489 -10.83579774 114.28738952 -9.984375 104.4375 C-9.88829956 103.30520966 -9.79222412 102.17291931 -9.6932373 101.00631714 C-9.38121173 97.33733644 -9.06583612 93.6686545 -8.75 90 C-8.52955363 87.4259499 -8.30917722 84.8518938 -8.08886719 82.27783203 C-7.62988198 76.92238468 -7.16905453 71.56710003 -6.70703125 66.21191406 C-6.17285871 60.01975936 -5.64382972 53.82717916 -5.11709213 47.63438797 C-4.60794142 41.65126039 -4.09381398 35.66857167 -3.57775879 29.68603516 C-3.35940379 27.14709923 -3.14252342 24.60803604 -2.92712402 22.06884766 C-2.62756569 18.54291014 -2.32234516 15.01750818 -2.015625 11.4921875 C-1.92728394 10.43780487 -1.83894287 9.38342224 -1.7479248 8.29708862 C-1.62181824 6.8678154 -1.62181824 6.8678154 -1.49316406 5.40966797 C-1.42164124 4.57724579 -1.35011841 3.74482361 -1.27642822 2.88717651 C-1 1 -1 1 0 0 Z " fill="#A29C9B" transform="translate(289,826)"/>
<path d="M0 0 C2.475 0.495 2.475 0.495 5 1 C6.43682028 17.60255025 7.87119664 34.20530955 9.30266571 50.80832195 C9.96738139 58.51741627 10.63289593 66.22644005 11.30029297 73.93530273 C11.88200832 80.65451071 12.46222293 87.37384631 13.04063749 94.09333926 C13.34694085 97.65107953 13.65399416 101.20875148 13.96284485 104.76627159 C14.30763644 108.73810605 14.64907739 112.71022466 14.99023438 116.68237305 C15.0930925 117.8612912 15.19595062 119.04020935 15.30192566 120.25485229 C15.4407592 121.88067986 15.4407592 121.88067986 15.58239746 123.53935242 C15.66351524 124.47865947 15.74463303 125.41796652 15.82820892 126.38573742 C15.99467772 128.91900716 16 131.46126657 16 134 C-1.16 134 -18.32 134 -36 134 C-15.93403701 56.06263649 -15.93403701 56.06263649 -1.69921875 23.765625 C0.33773089 18.74330473 0.46853587 14.23753403 0.25 8.875 C0.23195313 8.01390625 0.21390625 7.1528125 0.1953125 6.265625 C0.14888938 4.17658461 0.07717935 2.08813031 0 0 Z " fill="#A29C9B" transform="translate(667,826)"/>
<path d="M0 0 C1.08796875 0.67546875 2.1759375 1.3509375 3.296875 2.046875 C19.74062523 12.60032664 26.95719436 27.2026398 34 45 C34.99 45 35.98 45 37 45 C38.98 39.72 40.96 34.44 43 29 C50.76556153 36.76556153 52.93372758 47.56213269 55.50292969 57.99853516 C56.01992355 60.08022262 56.55866804 62.15539491 57.1015625 64.23046875 C59.49416554 73.48681861 61.1546007 81.92152723 61.0625 91.5 C61.05347656 92.7271875 61.04445313 93.954375 61.03515625 95.21875 C61.01775391 96.59546875 61.01775391 96.59546875 61 98 C62.32 98 63.64 98 65 98 C66.98 94.04 68.96 90.08 71 86 C71.33 86 71.66 86 72 86 C71.9617963 97.63302576 71.9617963 97.63302576 68.3125 102.1875 C66.12586745 104.32693904 64.81234464 105.07130904 61.875 106.1875 C59 106 59 106 56.75 104.375 C53.38476699 99.80789806 52.84347159 96.09966284 52.8125 90.5 C52.53830029 82.05154487 50.57155723 73.98497054 48.5625 65.8125 C48.24966064 64.53503906 47.93682129 63.25757813 47.61450195 61.94140625 C46.32699631 56.81998733 45.06580531 51.86984136 43 47 C42.55269531 47.44472656 42.10539063 47.88945312 41.64453125 48.34765625 C36.72996301 52.94785979 36.72996301 52.94785979 33.375 53.1875 C29.00300249 51.00150125 26.73590349 48.93826548 25.0078125 44.38671875 C24.3596927 42.32184121 23.71672328 40.25534206 23.078125 38.1875 C18.10485428 23.48391701 8.56924472 14.27735729 -4.64453125 6.91015625 C-8 5 -8 5 -9.953125 3.40625 C-13.01240927 1.30445165 -16.40660614 0.44135054 -19.9375 -0.5625 C-20.62134766 -0.77068359 -21.30519531 -0.97886719 -22.00976562 -1.19335938 C-49.4926039 -9.18517834 -82.81868433 -7.17452872 -108.41357422 6.26757812 C-111.5008575 8.02007853 -114.55576915 9.82218302 -117.60180664 11.64526367 C-123.49831173 15.04630598 -128.32579886 16.21557962 -135.1796875 16.5234375 C-138.70038353 17.11834736 -139.82771842 18.22068362 -142 21 C-145.45265722 30.44937766 -145.10443093 40.11699363 -144.9921875 50.02734375 C-144.98268122 51.38439856 -144.97408162 52.74145999 -144.96633911 54.098526 C-144.93300475 59.82289825 -144.8912621 65.54710835 -144.82861328 71.27124023 C-144.79071721 74.78826547 -144.7678702 78.30512913 -144.75430679 81.82232857 C-144.7424717 83.79253291 -144.71431651 85.76261782 -144.6857605 87.73265076 C-144.6663505 94.55866215 -144.86676301 100.80326826 -148 107 C-150 109 -150 109 -153.0625 110 C-158.78551286 110 -161.61239355 107.45627489 -166 104 C-166.98484375 103.24074219 -167.9696875 102.48148437 -168.984375 101.69921875 C-176.83914956 95.48255132 -176.83914956 95.48255132 -178 92 C-178.12781786 89.32605036 -178.04391871 86.67904143 -178 84 C-172.18718344 86.95112225 -168.19215993 90.51938813 -163.75 95.25 C-162.54357941 96.53277632 -161.33033503 97.80917964 -160.109375 99.078125 C-159.58311523 99.63918945 -159.05685547 100.20025391 -158.51464844 100.77832031 C-156.93513963 102.31390565 -156.93513963 102.31390565 -154 102 C-152.87557988 98.34034691 -152.7950446 94.82163602 -152.68359375 91.0078125 C-152.66290329 90.3176857 -152.64221283 89.6275589 -152.62089539 88.91651917 C-152.55501743 86.65278629 -152.4962093 84.38892917 -152.4375 82.125 C-152.3924481 80.55053617 -152.3473631 78.97607329 -152.30224609 77.40161133 C-152.09523276 69.76675535 -151.96580004 62.14150138 -152.04296875 54.50390625 C-152.0486235 53.83683655 -152.05427826 53.16976685 -152.06010437 52.48248291 C-152.08887609 49.36186909 -152.13592209 46.24337568 -152.21264648 43.12353516 C-152.36549456 31.53517234 -151.40113868 18.79141162 -143 10 C-140.05704316 8.11457385 -137.82794149 7.8174842 -134.375 7.75 C-129.2030962 7.31336183 -126.08870108 5.52430658 -121.7890625 2.7421875 C-107.09732721 -6.43500289 -89.12377184 -11.82779171 -72 -14 C-71.18660156 -14.10957031 -70.37320313 -14.21914062 -69.53515625 -14.33203125 C-44.49131053 -17.15652513 -21.45586133 -13.47228502 0 0 Z " fill="#D88871" transform="translate(533,247)"/>
<path d="M0 0 C-0.04543945 0.91881958 -0.04543945 0.91881958 -0.09179688 1.85620117 C-5.1544701 78.15594854 -5.1544701 78.15594854 13 151 C13.039992 152.99960012 13.04346799 155.00047242 13 157 C12.13375 156.21625 11.2675 155.4325 10.375 154.625 C6.80886926 151.57141032 3.06056257 148.79978072 -0.75 146.0625 C-1.35320068 145.61817627 -1.95640137 145.17385254 -2.57788086 144.71606445 C-5.43500476 142.64926557 -7.98435242 141.00670342 -11.24609375 139.609375 C-14.73102361 138.07285878 -16.59221519 136.98565316 -19 134 C-21.01637809 127.69984167 -21.31359436 121.01447058 -21.73242188 114.45214844 C-21.98513676 111.19175745 -22.35528525 107.96994855 -22.758255 104.72599792 C-24.03965551 94.26218043 -24.39776264 83.9109397 -24.375 73.375 C-24.37512085 72.50525543 -24.3752417 71.63551086 -24.37536621 70.7394104 C-24.34912137 57.40993018 -23.46725277 44.64356014 -20.56445312 31.59326172 C-19.97715122 28.89502607 -19.47368811 26.19026291 -18.984375 23.47265625 C-18.65798723 21.73144429 -18.32994467 19.99054146 -18 18.25 C-17.85852539 17.46842529 -17.71705078 16.68685059 -17.57128906 15.8815918 C-16.65187725 11.39367514 -15.68066605 8.78467204 -12 6 C-10.14146403 4.853859 -8.24283969 3.77058013 -6.3125 2.75 C-5.33925781 2.22921875 -4.36601562 1.7084375 -3.36328125 1.171875 C-1 0 -1 0 0 0 Z " fill="#D1A56F" transform="translate(361,183)"/>
<path d="M0 0 C-0.65226562 0.79921875 -1.30453125 1.5984375 -1.9765625 2.421875 C-8.86537424 11.01970282 -13.96800168 19.6960043 -18 30 C-18.66 30 -19.32 30 -20 30 C-20.09046042 33.58316023 -20.14149531 37.16601554 -20.1875 40.75 C-20.21263672 41.72710938 -20.23777344 42.70421875 -20.26367188 43.7109375 C-20.41824147 59.99226823 -16.89859942 75.72309129 -12.52963257 91.31503296 C-11.78774779 93.96335861 -11.06087855 96.61545526 -10.3371582 99.26879883 C-8.90355882 104.51591209 -7.45392323 109.7584871 -6 115 C10.81951376 175.64385784 10.81951376 175.64385784 10 199 C9.34 198.67 8.68 198.34 8 198 C7.46923828 196.15600586 7.46923828 196.15600586 7.0703125 193.71484375 C6.91691406 192.80331543 6.76351562 191.89178711 6.60546875 190.95263672 C6.44691406 189.9576416 6.28835938 188.96264648 6.125 187.9375 C5.95355469 186.91414551 5.78210938 185.89079102 5.60546875 184.83642578 C4.70274075 179.42582339 3.84278252 174.00884981 2.9921875 168.58984375 C-1.21910923 141.98399123 -11.47725643 124.42138839 -26.64550781 102.63671875 C-37.14702746 87.49824706 -49.61978595 69.43247821 -47 50 C-43.92976974 33.12032206 -39.04888969 17.94030175 -25 7 C-24.67 6.34 -24.34 5.68 -24 5 C-20.63591523 3.66071031 -17.11010218 2.78695291 -13.625 1.8125 C-12.65304687 1.52697266 -11.68109375 1.24144531 -10.6796875 0.94726562 C-9.27976562 0.54991211 -9.27976562 0.54991211 -7.8515625 0.14453125 C-6.56499756 -0.22128052 -6.56499756 -0.22128052 -5.25244141 -0.59448242 C-3 -1 -3 -1 0 0 Z " fill="#ED9068" transform="translate(397,509)"/>
<path d="M0 0 C5.830881 1.02107593 11.58402079 2.32152596 17.3125 3.8125 C19.03919922 4.25529297 19.03919922 4.25529297 20.80078125 4.70703125 C24.54095432 6.21862745 26.35263018 7.98457038 29 11 C30.0209375 12.15048828 30.0209375 12.15048828 31.0625 13.32421875 C42.12891346 26.82256581 48.03223718 43.40859656 47 61 C44.35770273 79.92989086 32.64057374 95.28059 21.88671875 110.4609375 C16.94335557 117.45714459 12.33202741 124.61120177 8 132 C7.40703125 132.99386719 6.8140625 133.98773437 6.203125 135.01171875 C-1.8623117 149.64529574 -2.95635889 167.43770452 -5.25024414 183.73901367 C-5.35151108 184.44351654 -5.45277802 185.14801941 -5.55711365 185.87387085 C-5.83516296 187.81149866 -6.1065128 189.75008442 -6.37744141 191.6887207 C-6.94386748 194.70144103 -7.74382101 197.2150624 -9 200 C-9.33 200 -9.66 200 -10 200 C-10.86589773 167.96178407 0.71734528 134.96991056 9.1484375 104.3828125 C16.02368093 79.43793407 20.41955208 56.97672817 20 31 C19.34 31 18.68 31 18 31 C17.48953125 29.67548828 17.48953125 29.67548828 16.96875 28.32421875 C13.5837153 19.94265678 9.58705879 13.16807756 4 6 C2.625616 4.02288335 1.31041264 2.02021949 0 0 Z " fill="#ED9068" transform="translate(563,508)"/>
<path d="M0 0 C0.89203125 0.00902344 1.7840625 0.01804687 2.703125 0.02734375 C3.37859375 0.03894531 4.0540625 0.05054688 4.75 0.0625 C8.85991523 22.0488758 1.32868649 45.30776498 -10.625 63.85546875 C-15.92432941 71.05287528 -21.40574521 78.33590941 -30.40234375 80.60546875 C-34.31725285 81.06722726 -36.41649847 80.71327775 -39.56640625 78.25390625 C-43.52033353 74.05948966 -45.98614514 70.97427521 -46.25 65.0625 C-45.38599121 59.24624572 -43.5695906 52.9592141 -40.25 48.0625 C-37.08569724 46.29687949 -34.68028786 45.86268246 -31.1015625 45.4453125 C-26.770346 44.86386152 -25.14298364 43.26000823 -22.25 40.0625 C-18.15721078 33.24118464 -19.06356692 25.08778399 -20.75 17.6875 C-21.0490625 16.52476562 -21.348125 15.36203125 -21.65625 14.1640625 C-22.55112806 9.48950213 -22.55112806 9.48950213 -21.25 7.0625 C-18.66796875 5.39453125 -18.66796875 5.39453125 -15.4375 3.875 C-14.37917969 3.36582031 -13.32085938 2.85664063 -12.23046875 2.33203125 C-7.92866267 0.4996761 -4.67200557 -0.06147376 0 0 Z " fill="#E49882" transform="translate(641.25,335.9375)"/>
<path d="M0 0 C10.17396543 -0.79449622 18.85930559 1.8394745 27 8 C26.86722656 8.59425781 26.73445313 9.18851562 26.59765625 9.80078125 C23.12092167 25.10966506 23.12092167 25.10966506 27.07421875 39.8203125 C29.63719757 43.16754667 31.97583468 44.90250037 36 46 C37.04220703 45.97873047 37.04220703 45.97873047 38.10546875 45.95703125 C41.06953224 46.09108437 42.50178842 46.33306723 45 48 C48.01913513 53.05526206 51.65518801 61.16215295 50.63989258 67.109375 C49.80495929 69.57626679 48.53093003 71.4780045 47.0625 73.625 C46.53785156 74.40101563 46.01320313 75.17703125 45.47265625 75.9765625 C42.62393879 79.89071541 42.62393879 79.89071541 40.08203125 80.3359375 C32.53801811 80.46578282 27.93355889 77.96052332 22.5 72.9375 C8.58786276 58.18877544 -1.16604668 33.69496865 -1.125 13.5 C-1.12757813 12.2315625 -1.13015625 10.963125 -1.1328125 9.65625 C-1.0123121 6.33894482 -0.6326624 3.25369236 0 0 Z " fill="#E49882" transform="translate(314,336)"/>
<path d="M0 0 C3.73707132 1.20595922 6.85020756 2.63719918 10 5 C11.07055664 7.49414062 11.07055664 7.49414062 11.66015625 10.40625 C12.0013147 12.00871582 12.0013147 12.00871582 12.34936523 13.64355469 C12.67142944 15.30499512 12.67142944 15.30499512 13 17 C13.22437744 18.05348633 13.44875488 19.10697266 13.67993164 20.19238281 C14.35455837 23.37350167 14.99400364 26.55996284 15.625 29.75 C15.8415625 30.82121094 16.058125 31.89242187 16.28125 32.99609375 C16.49007812 34.04410156 16.69890625 35.09210938 16.9140625 36.171875 C17.1917749 37.5655127 17.1917749 37.5655127 17.47509766 38.98730469 C18.60212872 45.45593881 19.16978449 51.74751384 19.23828125 58.30078125 C19.24784851 59.08314651 19.25741577 59.86551178 19.26727295 60.67158508 C19.29189554 63.21859784 19.30442687 65.76538285 19.3125 68.3125 C19.31792313 69.62151276 19.31792313 69.62151276 19.32345581 70.95697021 C19.35352097 89.16069682 17.65430617 107.00356149 15 125 C14.86150635 126.093125 14.7230127 127.18625 14.58032227 128.3125 C14 131 14 131 11.7421875 132.8359375 C10.79601562 133.34382812 9.84984375 133.85171875 8.875 134.375 C3.45705676 137.53252363 -0.22051763 141.03378597 -4 146 C-4.66 145.67 -5.32 145.34 -6 145 C-7.15388927 140.73948578 -7.21923558 138.09835115 -5.640625 133.98046875 C-3.72970846 128.51481251 -2.81627515 123.02273029 -1.9375 117.3125 C-1.77701172 116.34505859 -1.61652344 115.37761719 -1.45117188 114.38085938 C1.51203484 95.61388348 2.32857059 76.91673048 2.26074219 57.94042969 C2.24998967 54.37157293 2.26072656 50.80321698 2.2734375 47.234375 C2.27973241 35.0854158 1.88578872 23.16161862 0.42871094 11.09619141 C-0.00965642 7.36985066 -0.07808531 3.74995393 0 0 Z " fill="#D1A56F" transform="translate(604,186)"/>
<path d="M0 0 C11.62576907 22.27613349 17.77319948 46.10032147 20 71 C14.72 72.65 9.44 74.3 4 76 C3.36523438 72.53320312 3.36523438 72.53320312 2.73046875 69.06640625 C2.48941406 68.38449219 2.24835938 67.70257813 2 67 C0.515 66.505 0.515 66.505 -1 66 C-1 64.68 -1 63.36 -1 62 C-1.66 61.67 -2.32 61.34 -3 61 C-2.01 61 -1.02 61 0 61 C-2.83057948 50.98410339 -5.90676101 41.06557204 -9.1875 31.1875 C-9.70473633 29.62225586 -9.70473633 29.62225586 -10.23242188 28.02539062 C-10.56177734 27.04119141 -10.89113281 26.05699219 -11.23046875 25.04296875 C-11.52332764 24.16664795 -11.81618652 23.29032715 -12.11791992 22.38745117 C-12.94295133 20.00426315 -12.94295133 20.00426315 -14.09399414 17.88256836 C-15.45387281 15.05690831 -15.26403686 12.4841645 -15.25 9.375 C-15.25515625 8.22773438 -15.2603125 7.08046875 -15.265625 5.8984375 C-15 3 -15 3 -13 1 C-8.68972272 -0.26772861 -4.45126889 -0.07544524 0 0 Z " fill="#D1A56F" transform="translate(419,163)"/>
<path d="M0 0 C3.96 0 7.92 0 12 0 C25.49837959 34.68898646 25.49837959 34.68898646 20.8125 48.5 C17.39524571 53.21345419 13.69896421 55.74622787 8 57 C2.25558242 56.79111209 -1.33026836 55.1430886 -6 52 C-10.24726721 47.32800607 -10.34315901 42.70244249 -10.27734375 36.6328125 C-9.30181129 23.8547113 -4.75975988 11.78833864 0 0 Z " fill="#B1624E" transform="translate(474,360)"/>
<path d="M0 0 C2.53075869 2.53075869 3.9223049 4.55228135 4.1171875 8.18359375 C3.57731573 13.20788423 2.97618371 16.53358343 -1 20 C-6.12762803 23.07425663 -9.91990994 23.13019113 -15.59448242 21.73706055 C-19.53144791 20.53075802 -23.14022916 18.78188401 -26.8125 16.9375 C-28.27574266 16.21419982 -29.74053826 15.49403093 -31.20703125 14.77734375 C-31.8410083 14.46015381 -32.47498535 14.14296387 -33.12817383 13.81616211 C-38.8368094 11.32705702 -44.66521567 11.30366081 -50.5625 13.0625 C-54.54956131 14.14988036 -57.01542198 14.05253004 -61 13 C-63.5 11.1875 -63.5 11.1875 -65 9 C-64.91015625 7.05078125 -64.91015625 7.05078125 -64 5 C-47.51971425 -6.92064068 -17.29762898 -11.53175265 0 0 Z " fill="#381E18" transform="translate(459,303)"/>
<path d="M0 0 C1.35684058 0.96786436 2.69884656 1.95847347 4 3 C3.73495227 6.26892205 3.40216549 7.63439501 0.9375 9.875 C-3.54701823 11.59247507 -7.46212673 10.71377686 -12 9.4375 C-21.99569235 7.2509423 -30.40391609 11.55110439 -39 16.25 C-44.76091234 19.19779151 -49.59595192 20.20205433 -56 19 C-59.92450929 17.1779064 -61.5251347 15.72812679 -63.875 12.125 C-65.1109778 8.69172834 -65.52674973 6.61199813 -65 3 C-61.84912844 -3.30174311 -57.53294665 -5.60290303 -51.25390625 -8.0859375 C-35.34973254 -12.55361655 -14.2223785 -7.54898293 0 0 Z " fill="#381E18" transform="translate(562,306)"/>
<path d="M0 0 C3.94406704 2.20867754 7.21486756 4.79026241 10.625 7.75 C27.43639462 21.9295954 46.12384955 26.86078164 68 26 C91.23886187 24.0257716 105.47685798 16.39324977 122.98828125 1.6171875 C125 0 125 0 126 0 C127.03890878 3.97863583 127.17553424 7.03564604 126 11 C122.05162008 15.78504909 116.28631586 18.90685384 111 22 C110.33242676 22.39380859 109.66485352 22.78761719 108.97705078 23.19335938 C99.39525398 28.70390027 89.81145754 31.88423321 79 34 C77.865625 34.23589844 76.73125 34.47179687 75.5625 34.71484375 C53.2463224 38.81866006 29.64093217 31.72882094 11.2265625 19.18359375 C8.13945685 17.03610736 8.13945685 17.03610736 5.3359375 15.47265625 C3.10167046 14.1107797 1.55316608 13.10854061 0 11 C-0.63728386 7.2389805 -0.48325063 3.77203964 0 0 Z " fill="#F9A47C" transform="translate(417,551)"/>
<path d="M0 0 C2 1 2 1 3.10620117 3.15527344 C4.84168639 8.67886637 4.32672539 14.50863387 4.3125 20.25 C4.32861328 21.53519531 4.34472656 22.82039063 4.36132812 24.14453125 C4.36561136 32.49684161 4.16725463 40.01830847 -1.1875 46.75 C-8.82632584 52.86106067 -16.99803368 57.78445554 -27.125 56.6875 C-28.40375 56.460625 -29.6825 56.23375 -31 56 C-30.58361136 52.30108089 -29.92507011 49.21366717 -28 46 C-24.9937834 44.69333317 -22.18187399 44.18652718 -18.95703125 43.62890625 C-14.66434791 42.71593133 -12.92165411 41.22919665 -10 38 C-5.90721078 31.17868464 -6.81356692 23.02528399 -8.5 15.625 C-8.7990625 14.46226562 -9.098125 13.29953125 -9.40625 12.1015625 C-10.27291604 7.5743728 -10.27291604 7.5743728 -9 5 C-7.00390625 3.48046875 -7.00390625 3.48046875 -4.5625 2.1875 C-3.35787109 1.52814453 -3.35787109 1.52814453 -2.12890625 0.85546875 C-1.42636719 0.57316406 -0.72382812 0.29085938 0 0 Z " fill="#D88972" transform="translate(629,338)"/>
<path d="M0 0 C3.95087809 1.16730489 6.78425284 2.44837454 10 5 C9.86722656 5.59425781 9.73445313 6.18851562 9.59765625 6.80078125 C6.12092167 22.10966506 6.12092167 22.10966506 10.07421875 36.8203125 C14.74202477 42.91643772 20.89976386 43.51636857 28 45 C28.99 48.3 29.98 51.6 31 55 C21.30065137 56.93986973 13.39961566 54.29253243 5 49.25 C-0.37034453 45.4168193 -2.68775819 40.33945978 -4 34 C-4.24114295 29.86265216 -4.27039463 25.7266618 -4.29516602 21.58276367 C-4.30670756 20.23760477 -4.32719422 18.89249244 -4.35668945 17.54760742 C-4.3994456 15.59587278 -4.41294458 13.64356696 -4.42578125 11.69140625 C-4.44036377 10.52810791 -4.45494629 9.36480957 -4.4699707 8.16625977 C-3.90951933 4.39041881 -2.59289176 2.73531956 0 0 Z " fill="#D88972" transform="translate(331,339)"/>
<path d="M0 0 C1.32 0 2.64 0 4 0 C3.39513056 15.28830065 2.2981715 30.49726932 0.96875 45.73828125 C0.77048852 48.04320201 0.57253737 50.34814948 0.37487793 52.65312195 C-0.03621435 57.43750081 -0.44989594 62.22164557 -0.86572266 67.00561523 C-1.39743658 73.12345069 -1.924229 79.2416973 -2.44931793 85.36010456 C-2.8563506 90.10004536 -3.26508555 94.83983805 -3.67442322 99.57958031 C-3.86929959 101.83651139 -4.06385368 104.09347033 -4.2580719 106.35045815 C-4.52917529 109.49590526 -4.80236056 112.64116455 -5.07617188 115.78637695 C-5.1551622 116.70645035 -5.23415253 117.62652374 -5.3155365 118.57447815 C-5.76730493 123.73447048 -6.32435555 128.86438883 -7 134 C-8.65 134 -10.3 134 -12 134 C-11.25900905 119.30454307 -10.0119593 104.65852801 -8.75 90 C-8.52955363 87.4259499 -8.30917722 84.8518938 -8.08886719 82.27783203 C-7.62988198 76.92238468 -7.16905453 71.56710003 -6.70703125 66.21191406 C-6.17285871 60.01975936 -5.64382972 53.82717916 -5.11709213 47.63438797 C-4.60794142 41.65126039 -4.09381398 35.66857167 -3.57775879 29.68603516 C-3.35940379 27.14709923 -3.14252342 24.60803604 -2.92712402 22.06884766 C-2.62756569 18.54291014 -2.32234516 15.01750818 -2.015625 11.4921875 C-1.92728394 10.43780487 -1.83894287 9.38342224 -1.7479248 8.29708862 C-1.62181824 6.8678154 -1.62181824 6.8678154 -1.49316406 5.40966797 C-1.42164124 4.57724579 -1.35011841 3.74482361 -1.27642822 2.88717651 C-1 1 -1 1 0 0 Z " fill="#361E19" transform="translate(289,826)"/>
<path d="M0 0 C2.475 0.495 2.475 0.495 5 1 C6.43682028 17.60255025 7.87119664 34.20530955 9.30266571 50.80832195 C9.96738139 58.51741627 10.63289593 66.22644005 11.30029297 73.93530273 C11.88200832 80.65451071 12.46222293 87.37384631 13.04063749 94.09333926 C13.34694085 97.65107953 13.65399416 101.20875148 13.96284485 104.76627159 C14.30763644 108.73810605 14.64907739 112.71022466 14.99023438 116.68237305 C15.0930925 117.8612912 15.19595062 119.04020935 15.30192566 120.25485229 C15.4407592 121.88067986 15.4407592 121.88067986 15.58239746 123.53935242 C15.66351524 124.47865947 15.74463303 125.41796652 15.82820892 126.38573742 C15.99557266 128.93262614 16.03084949 131.44847987 16 134 C14.35 134 12.7 134 11 134 C8.40368724 107.17555989 6.04210627 80.33058553 3.73269653 53.48016357 C3.41152344 49.7463326 3.0885856 46.01266088 2.76412964 42.27911377 C2.37510374 37.80037352 1.99005617 33.3213078 1.6079464 28.84197235 C1.46478101 27.17047856 1.32034359 25.49909315 1.17453957 23.82782745 C0.48190112 15.8767213 -0.20315762 7.99048584 0 0 Z " fill="#361E19" transform="translate(667,826)"/>
<path d="M0 0 C1.32 0 2.64 0 4 0 C3.67640423 5.39326276 2.43353993 9.85817689 0.5625 14.9375 C-2.43188509 23.1071518 -4.16504923 30.08676817 -4.4375 38.8125 C-4.49744141 40.70935547 -4.49744141 40.70935547 -4.55859375 42.64453125 C-4.30951208 46.1571599 -4.30951208 46.1571599 -1.59765625 48.38671875 C2.2952641 50.80442718 4.36303319 51.44586219 9 51 C11.5647293 49.49987532 13.89183465 48.10816535 16 46 C17.15635272 32.16168053 13.92709067 20.18920081 8.734375 7.3671875 C7.93603305 4.79380868 7.86655275 2.67847688 8 0 C9.32 0 10.64 0 12 0 C25.49837959 34.68898646 25.49837959 34.68898646 20.8125 48.5 C17.39524571 53.21345419 13.69896421 55.74622787 8 57 C2.25558242 56.79111209 -1.33026836 55.1430886 -6 52 C-10.24726721 47.32800607 -10.34315901 42.70244249 -10.27734375 36.6328125 C-9.30181129 23.8547113 -4.75975988 11.78833864 0 0 Z " fill="#361C17" transform="translate(474,360)"/>
<path d="M0 0 C0.73283203 0.15283447 1.46566406 0.30566895 2.22070312 0.46313477 C7.32991318 1.63660569 12.12698145 3.33854578 16.5625 6.1875 C17.0575 7.1775 17.0575 7.1775 17.5625 8.1875 C16.263125 8.043125 14.96375 7.89875 13.625 7.75 C12.38556641 7.62044922 12.38556641 7.62044922 11.12109375 7.48828125 C9.52415308 7.30054929 7.93067484 7.07495266 6.34765625 6.79296875 C-1.71751729 5.46578829 -8.40338487 7.64792614 -15.63671875 11.20703125 C-16.74756836 11.75339233 -16.74756836 11.75339233 -17.88085938 12.31079102 C-19.34721288 13.04699874 -20.80369278 13.80330417 -22.24804688 14.58178711 C-27.47508869 17.24755385 -30.69536011 17.56289978 -36.4375 16.1875 C-39.37934352 13.61338692 -40.26836255 11.99935974 -41.0625 8.1875 C-40.34995694 4.76729329 -39.21085895 3.32330143 -36.37890625 1.29296875 C-24.9652298 -5.20616694 -12.22342947 -2.59380768 0 0 Z " fill="#E2BA89" transform="translate(542.4375,303.8125)"/>
<path d="M0 0 C2.42360627 2.0918365 2.93908123 2.59967666 3.4375 5.875 C2.88040057 9.85428163 2.02700811 11.3513679 -1 14 C-8.12322902 15.80808439 -12.06090027 14.09567883 -18.375 10.6875 C-27.71115492 5.73627686 -36.38149401 2.73441359 -47 5 C-47.99 5.495 -47.99 5.495 -49 6 C-50.99960012 6.039992 -53.00047242 6.04346799 -55 6 C-44.13017069 -6.36733548 -13.35482341 -8.40859252 0 0 Z " fill="#E3BB8A" transform="translate(455,306)"/>
<path d="M0 0 C3.15954305 2.54137159 4.71540886 4.14622659 6 8 C6.14648082 10.26763574 6.2209626 12.54032366 6.25 14.8125 C6.27578125 16.01519531 6.3015625 17.21789062 6.328125 18.45703125 C5.89476759 23.13625947 4.46008099 26.48957139 1.1875 29.875 C-1.80777732 31.41542833 -3.670062 31.47570543 -7 31 C-10.33761045 28.84909549 -11.73470933 27.79587201 -13 24 C-13.61539502 15.49544258 -13.93660641 8.25971531 -9 1 C-5.86128812 -0.56935594 -3.46144178 -0.35201103 0 0 Z " fill="#351B16" transform="translate(527,333)"/>
<path d="M0 0 C3.4066239 2.48591474 4.7204967 5.04666288 6 9 C6.30078125 12.59375 6.30078125 12.59375 6.3125 16.5 C6.32925781 17.7890625 6.34601563 19.078125 6.36328125 20.40625 C5.98092612 24.18868782 5.30480606 26.02048491 3 29 C-0.51253146 31.34168764 -1.86469356 31.49623677 -6 31 C-10.01271409 28.53765272 -11.60331368 26.43215124 -13 22 C-13.30078125 18.66015625 -13.30078125 18.66015625 -13.3125 15.0625 C-13.32925781 13.87785156 -13.34601563 12.69320313 -13.36328125 11.47265625 C-12.96212885 7.63798436 -12.02762507 5.26224455 -10 2 C-6.2794164 -0.48038907 -4.40203429 -0.46337203 0 0 Z " fill="#351B16" transform="translate(440,333)"/>
<path d="M0 0 C2.49253991 2.06975466 4.00943038 4.4595394 5.54296875 7.28125 C5.54296875 7.94125 5.54296875 8.60125 5.54296875 9.28125 C4.64835938 9.45140625 3.75375 9.6215625 2.83203125 9.796875 C-8.92557608 12.15341037 -17.33651039 14.81784059 -26.5234375 22.671875 C-28.45703125 24.28125 -28.45703125 24.28125 -29.45703125 24.28125 C-30.82135667 8.36412014 -30.82135667 8.36412014 -27.69921875 3.59765625 C-19.80468976 -2.62430304 -8.88341008 -5.69188746 0 0 Z " fill="#D78871" transform="translate(638.45703125,321.71875)"/>
<path d="M0 0 C2.78584351 1.51846406 4.71766447 3.64923684 6.8203125 5.9921875 C7.8103125 6.6521875 8.8003125 7.3121875 9.8203125 7.9921875 C10.0411689 10.94282898 10.10092239 13.67586981 10.0078125 16.6171875 C9.98750977 17.81988281 9.98750977 17.81988281 9.96679688 19.046875 C9.93140301 21.02893128 9.87759484 23.01064301 9.8203125 24.9921875 C9.35882813 24.61707031 8.89734375 24.24195313 8.421875 23.85546875 C-1.917247 15.74354892 -12.42677103 12.50095795 -25.1796875 9.9921875 C-23.85740321 4.30636507 -21.77713448 2.2760782 -17.1796875 -1.0078125 C-11.18106131 -3.00735456 -5.74389922 -2.36513497 0 0 Z " fill="#D78871" transform="translate(341.1796875,321.0078125)"/>
<path d="M0 0 C2.8125 -0.3125 2.8125 -0.3125 6 0 C13.62990781 10.41723899 17.30577102 29.44362972 16.484375 42.22265625 C15.23221663 49.40237075 12.61669556 54.3865225 6.78515625 58.84375 C2.19752521 61.81516967 -1.75002448 62.41043658 -7.0390625 61.5390625 C-10.27697284 60.64895966 -12.46925558 59.1692095 -15 57 C-16.375 54.25 -16.375 54.25 -17 52 C-16.43152344 52.22816406 -15.86304688 52.45632813 -15.27734375 52.69140625 C-9.40309368 54.87831404 -5.15247897 55.67132971 0.8828125 53.2421875 C3.87505354 51.7523269 5.89513429 50.13531059 7.9375 47.5 C12.18861079 33.49634094 6.34846817 17.42598214 0.953125 4.44140625 C0 2 0 2 0 0 Z " fill="#D78871" transform="translate(486,361)"/>
<path d="M0 0 C1.32 0.99 2.64 1.98 4 3 C3.87318533 9.08710419 1.87801135 11.87253664 -2.2109375 16.30078125 C-6.98368688 20.83385107 -11.65507949 21.03366006 -18 21 C-25.27338686 19.99841886 -31.47762694 16.2250496 -37.86987305 12.85180664 C-44.14039596 9.67000586 -49.95680293 8.48241076 -57 8 C-57.33 7.01 -57.66 6.02 -58 5 C-48.22155219 1.7405174 -41.33360959 2.9165458 -32 7 C-29.90931332 8.0479567 -27.82593179 9.11061039 -25.75 10.1875 C-19.86220468 13.17692185 -15.3315356 14.90188378 -8.8125 13 C-4.24958587 11.08110007 -2.95295696 8.45274187 -1 4 C-0.23959428 1.73014106 -0.23959428 1.73014106 0 0 Z " fill="#D88871" transform="translate(463,311)"/>
<path d="M0 0 C4.4617456 1.17414358 8.06691852 0.69186061 12.5625 -0.0625 C9.6875 5.8125 9.6875 5.8125 8.5625 6.9375 C7.15104629 6.96379105 5.73827977 6.92537736 4.328125 6.859375 C-8.40446962 6.43546123 -17.08199059 7.47255852 -28.44921875 13.546875 C-33.59139547 15.93983567 -39.25139604 16.83342607 -44.78515625 15.27734375 C-49.01261738 13.32560001 -52.06132453 11.02452181 -54.4375 6.9375 C-55.1875 3.125 -55.1875 3.125 -55.4375 -0.0625 C-54.7775 -0.0625 -54.1175 -0.0625 -53.4375 -0.0625 C-52.0703125 2.57421875 -52.0703125 2.57421875 -50.703125 5.2109375 C-48.72070078 7.91535572 -46.50525759 8.68084634 -43.30859375 9.44921875 C-33.65587346 10.14644574 -25.75022701 5.24857704 -17.46118164 0.87719727 C-11.80784722 -1.74793052 -5.88702475 -1.81962583 0 0 Z " fill="#D78871" transform="translate(551.4375,315.0625)"/>
<path d="M0 0 C4.64748789 0.62535005 8.72626701 1.89366863 13.125 3.5 C28.32743381 8.73906718 42.51561102 7.38353939 57.2578125 1.0234375 C60 0 60 0 64 0 C64 1.32 64 2.64 64 4 C49.54332395 12.2562958 32.83089959 14.424469 16.5625 10.875 C10.57855885 9.14258627 5.30168179 6.22484188 0 3 C0 2.01 0 1.02 0 0 Z " fill="#381E18" transform="translate(448,427)"/>
<path d="M0 0 C0.66 0.33 1.32 0.66 2 1 C4.42909622 8.28728866 5.55333194 16.63401415 2.8125 24 C0.78297193 27.35921888 -0.38967401 28.52304846 -4 30 C-6.32909642 30.36175327 -8.66237962 30.69819455 -11 31 C-10.35929989 27.20744718 -9.71157345 23.416128 -9.0625 19.625 C-8.88009766 18.54476563 -8.69769531 17.46453125 -8.50976562 16.3515625 C-8.33251953 15.3203125 -8.15527344 14.2890625 -7.97265625 13.2265625 C-7.72914429 11.79691162 -7.72914429 11.79691162 -7.48071289 10.33837891 C-7 8 -7 8 -6 6 C-5.01 5.67 -4.02 5.34 -3 5 C-1.30117552 2.50240018 -1.30117552 2.50240018 0 0 Z " fill="#E19681" transform="translate(614,348)"/>
<path d="M0 0 C3 2 3 2 4 5 C4.99 5.33 5.98 5.66 7 6 C8.65 14.25 10.3 22.5 12 31 C3.31034483 29.75862069 3.31034483 29.75862069 0 27 C-3.48299058 21.23505007 -3.72103433 15.6279694 -3 9 C-2.22060204 5.89584607 -1.22571554 2.95484996 0 0 Z " fill="#E19680" transform="translate(345,348)"/>
<path d="M0 0 C1.65322266 0.01740234 1.65322266 0.01740234 3.33984375 0.03515625 C4.99693359 0.04869141 4.99693359 0.04869141 6.6875 0.0625 C7.54214844 0.07410156 8.39679688 0.08570313 9.27734375 0.09765625 C8.21261193 2.30902234 7.09573503 4.38453165 5.78125 6.4609375 C4.13613035 9.34523818 3.18773955 12.11438249 2.21484375 15.28515625 C0.49798432 20.87701568 0.49798432 20.87701568 -1.72265625 23.09765625 C-3.88671875 23.51171875 -3.88671875 23.51171875 -6.34765625 23.72265625 C-7.16492188 23.79742187 -7.9821875 23.8721875 -8.82421875 23.94921875 C-9.45070313 23.99820313 -10.0771875 24.0471875 -10.72265625 24.09765625 C-10.32399731 21.3855674 -9.90450316 18.67949047 -9.47265625 15.97265625 C-9.36308594 15.21210938 -9.25351562 14.4515625 -9.140625 13.66796875 C-8.25911279 8.28610475 -6.48535593 0.23261678 0 0 Z " fill="#D1A570" transform="translate(476.72265625,151.90234375)"/>
<path d="M0 0 C0.33 0 0.66 0 1 0 C1.4375 2.125 1.4375 2.125 1 5 C-4.39461247 12.4797641 -14.3184653 14.07904235 -22.8125 15.75 C-24.20610945 15.86466407 -25.60290167 15.94159288 -27 16 C-28.18335938 16.06316406 -29.36671875 16.12632812 -30.5859375 16.19140625 C-41.86804522 16.60738693 -52.88635469 15.29091625 -62 8 C-61.67 6.68 -61.34 5.36 -61 4 C-60.31035156 4.33773438 -59.62070312 4.67546875 -58.91015625 5.0234375 C-43.28131301 12.44124238 -27.7998366 12.97195262 -11.234375 8.16796875 C-8.00761177 7.00274869 -5.05932859 5.54292728 -2 4 C-1.34 4 -0.68 4 0 4 C0 2.68 0 1.36 0 0 Z " fill="#D58770" transform="translate(512,427)"/>
<path d="M0 0 C1.19109375 0.16048828 1.19109375 0.16048828 2.40625 0.32421875 C3.2003125 0.42347656 3.994375 0.52273437 4.8125 0.625 C6.90625 1.01171875 6.90625 1.01171875 8.90625 2.01171875 C8.31271462 6.66814511 7.05757077 10.53644641 5.15625 14.82421875 C4.66640625 15.96503906 4.1765625 17.10585937 3.671875 18.28125 C1.90625 21.01171875 1.90625 21.01171875 -0.796875 21.8984375 C-1.93382812 21.95451172 -1.93382812 21.95451172 -3.09375 22.01171875 C-5.92863603 18.83275684 -6.48254797 16.80582169 -6.40625 12.57421875 C-6.40238281 11.64738281 -6.39851563 10.72054687 -6.39453125 9.765625 C-5.94941583 5.69021762 -4.95122838 0.0277121 0 0 Z " fill="#D0A56F" transform="translate(494.09375,151.98828125)"/>
<path d="M0 0 C8.57142857 -0.14285714 8.57142857 -0.14285714 12 1 C11.88573491 3.41760876 11.75900339 5.83347218 11.625 8.25 C11.57859375 9.27287109 11.57859375 9.27287109 11.53125 10.31640625 C11.31740626 13.98739038 10.98922945 16.86251616 9 20 C5.95613276 20.08226668 3.92824652 19.97608217 1 19 C-0.66621616 18.96125079 -2.33394172 18.9549714 -4 19 C-3.01 18.34 -2.02 17.68 -1 17 C-0.61615491 14.06402461 -0.396157 11.31972627 -0.3125 8.375 C-0.26125977 7.17230469 -0.26125977 7.17230469 -0.20898438 5.9453125 C-0.12643122 3.96403682 -0.06154084 1.98203963 0 0 Z " fill="#D1A56F" transform="translate(562,171)"/>
<path d="M0 0 C1.875 0.75 1.875 0.75 2.875 1.75 C3.13617166 6.27697544 2.96257624 9.69082398 0.875 13.75 C0.215 14.41 -0.445 15.07 -1.125 15.75 C-4.05953261 15.38318342 -4.98937246 14.88562754 -7.125 12.75 C-6.98828125 10.47265625 -6.98828125 10.47265625 -6.4375 7.8125 C-6.18419922 6.49958984 -6.18419922 6.49958984 -5.92578125 5.16015625 C-4.84310217 1.90155628 -3.67451913 -0.43229637 0 0 Z " fill="#D2A670" transform="translate(486.125,209.25)"/>
<path d="M0 0 C2.78631584 0.64299596 4.22089522 1.80514949 6.4375 3.5625 C4.8345551 4.85568256 3.23009858 6.14699156 1.625 7.4375 C0.73167969 8.15679687 -0.16164063 8.87609375 -1.08203125 9.6171875 C-3.5625 11.5625 -3.5625 11.5625 -6.5625 13.5625 C-9.25 13.1875 -9.25 13.1875 -11.5625 12.5625 C-11.8925 11.5725 -12.2225 10.5825 -12.5625 9.5625 C-11.840625 9.19125 -11.11875 8.82 -10.375 8.4375 C-7.86432631 6.76371754 -6.79834149 5.70598714 -5.0625 3.375 C-2.5625 0.5625 -2.5625 0.5625 0 0 Z " fill="#CDA26D" transform="translate(593.5625,180.4375)"/>
<path d="M0 0 C4.3694206 0.25702474 6.51822991 0.60023333 9.9375 3.4375 C12 6 12 6 12 8 C7.44328408 6.48109469 3.68276708 4.04597738 0 1 C0 0.67 0 0.34 0 0 Z " fill="#D1846F" transform="translate(412,458)"/>
<path d="M0 0 C-1.6209213 1.17232685 -3.24686833 2.3377077 -4.875 3.5 C-5.77992188 4.1496875 -6.68484375 4.799375 -7.6171875 5.46875 C-10 7 -10 7 -12 7 C-11.02629214 3.39728091 -10.3100846 2.20222909 -7.125 0.125 C-3.87384798 -1.04541473 -3.12047598 -0.98612444 0 0 Z " fill="#D1846E" transform="translate(548,459)"/>
</svg>
