<?xml version="1.0" encoding="UTF-8"?>
<svg version="1.1" xmlns="http://www.w3.org/2000/svg" width="960" height="960">
<path d="M0 0 C10.44488103 9.49975258 14.37720597 21.72224323 16.375 35.3125 C17.86 34.8175 17.86 34.8175 19.375 34.3125 C36.87017251 33.01320734 54.62556061 34.18878339 68.62109375 45.9375 C72.71738397 49.55943092 76.5820595 53.21626892 79.8046875 57.64453125 C82.13849002 60.6090987 82.13849002 60.6090987 85.57421875 60.79296875 C87.30091797 60.64794922 87.30091797 60.64794922 89.0625 60.5 C97.98780778 60.11681925 105.31722763 61.53795897 112.375 67.3125 C121.02279985 75.82993101 123.59628565 84.47640182 123.6875 96.3125 C123.73967337 104.7435722 122.96176197 111.57854451 119.375 119.3125 C120.16003906 119.6528125 120.94507813 119.993125 121.75390625 120.34375 C131.2104342 124.70651627 136.94510042 129.02543725 140.75 138.875 C145.42673661 153.50479146 145.12380767 171.68001948 138.27734375 185.60546875 C137.97957031 186.16878906 137.68179687 186.73210937 137.375 187.3125 C137.045 187.9725 136.715 188.6325 136.375 189.3125 C137.19829202 191.25019282 138.23398103 193.01972277 139.26953125 194.8515625 C142.12543727 201.20923314 142.79057555 207.55605069 142.8125 214.4375 C142.81564209 215.26137207 142.81878418 216.08524414 142.82202148 216.93408203 C142.69043586 223.75669734 141.23314356 229.12372748 138.56640625 235.4296875 C136.55443642 240.26000395 136.55443642 240.26000395 136.8984375 245.33984375 C137.17945313 245.97019531 137.46046875 246.60054688 137.75 247.25 C142.04329808 257.02026246 142.12610282 272.30241419 138.375 282.3125 C135.81514098 287.33740845 132.62632956 290.29006518 127.375 292.3125 C123.91726891 292.79385874 120.54608541 292.73900825 117.0625 292.625 C116.15693359 292.61533203 115.25136719 292.60566406 114.31835938 292.59570312 C107.714889 292.4824445 107.714889 292.4824445 105.375 291.3125 C105.4575 292.34375 105.54 293.375 105.625 294.4375 C105.32835558 299.03548851 104.36623659 300.84896289 101.375 304.3125 C95.87002274 308.54709789 88.99651522 307.85551288 82.375 307.3125 C80.88270317 306.89891368 79.39968083 306.44743204 77.9375 305.9375 C76.1740625 305.628125 76.1740625 305.628125 74.375 305.3125 C72.64015042 306.54047313 72.64015042 306.54047313 71.15234375 308.2734375 C70.62761475 308.83595215 70.10288574 309.3984668 69.56225586 309.97802734 C68.97456421 310.63859131 68.97456421 310.63859131 68.375 311.3125 C68.99205811 311.45236328 69.60911621 311.59222656 70.24487305 311.73632812 C128.52708153 325.13676567 178.47390742 360.94172252 216.7890625 406.453125 C217.95953873 407.82540748 219.16895475 409.16469853 220.3984375 410.484375 C248.47803096 440.63299114 277.56944564 492.18142451 280.66015625 533.87890625 C280.375 536.3125 280.375 536.3125 279.07421875 538.05859375 C271.25766767 543.82666938 257.79359422 545.61679304 248.375 545.3125 C248.45540527 545.92432129 248.53581055 546.53614258 248.61865234 547.16650391 C249.00016411 550.08961335 249.37504127 553.01354299 249.75 555.9375 C249.93949219 557.37802734 249.93949219 557.37802734 250.1328125 558.84765625 C250.57679981 562.33295663 250.98030051 565.82126066 251.375 569.3125 C251.46151825 570.04352936 251.5480365 570.77455872 251.63717651 571.52774048 C253.58425842 588.34065539 253.73199645 605.12215221 253.69204712 622.02173996 C253.68745212 624.27346265 253.68686043 626.52515901 253.68701172 628.77688599 C253.6784614 651.02441392 253.018563 673.10603895 250.65039062 695.24389648 C250.40692154 697.95680693 250.32148648 700.59127406 250.375 703.3125 C251.39980469 703.82039062 252.42460938 704.32828125 253.48046875 704.8515625 C254.84150961 705.54616266 256.20216655 706.24151544 257.5625 706.9375 C258.23603516 707.26878906 258.90957031 707.60007812 259.60351562 707.94140625 C265.33949853 710.90732912 268.85059145 714.0840698 271.66796875 720.05078125 C272.64531697 724.55954239 272.70415697 728.89934599 272.6875 733.5 C272.70361328 734.40169922 272.71972656 735.30339844 272.73632812 736.23242188 C272.73697266 737.09802734 272.73761719 737.96363281 272.73828125 738.85546875 C272.74275269 740.0314563 272.74275269 740.0314563 272.74731445 741.23120117 C272.27804074 743.85451818 271.49053392 744.73033556 269.375 746.3125 C261.16308283 747.47072466 254.35926892 746.78243211 247.375 742.3125 C247.42140625 743.49328125 247.4678125 744.6740625 247.515625 745.890625 C247.55314949 747.44789134 247.58954893 749.00518508 247.625 750.5625 C247.65851562 751.33980469 247.69203125 752.11710938 247.7265625 752.91796875 C247.82542831 758.70161869 247.82542831 758.70161869 245.5546875 761.78125 C239.90103856 765.75298904 233.05236803 766.00898044 226.375 765.3125 C221.06537637 763.5092316 218.684369 760.63306508 215.375 756.3125 C214.715 755.6525 214.055 754.9925 213.375 754.3125 C212.90449219 754.73402344 212.43398438 755.15554688 211.94921875 755.58984375 C211.32660156 756.13769531 210.70398438 756.68554688 210.0625 757.25 C209.14017578 758.06791016 209.14017578 758.06791016 208.19921875 758.90234375 C204.84258236 761.49708837 201.66224054 761.50061712 197.5625 761.5625 C196.54542969 761.58828125 195.52835938 761.6140625 194.48046875 761.640625 C190.89554927 761.26184105 188.48902064 760.08130096 185.375 758.3125 C185.24653687 759.3497522 185.24653687 759.3497522 185.11547852 760.40795898 C184.72723699 763.52254211 184.33245795 766.63626177 183.9375 769.75 C183.80279297 770.83861328 183.66808594 771.92722656 183.52929688 773.04882812 C183.39716797 774.08330078 183.26503906 775.11777344 183.12890625 776.18359375 C182.94823608 777.62109985 182.94823608 777.62109985 182.76391602 779.08764648 C182.375 781.3125 182.375 781.3125 181.375 782.3125 C179.10765936 782.41066827 176.83718227 782.43621083 174.56771755 782.43554783 C173.84393977 782.43670167 173.12016199 782.43785552 172.37445155 782.43904433 C169.91834876 782.4417179 167.46230987 782.4371828 165.00621033 782.43275452 C163.23993256 782.43319007 161.47365485 782.43406468 159.70737749 782.43534368 C154.82975508 782.43759181 149.95215441 782.43356304 145.07453477 782.42856562 C139.82365121 782.42426584 134.57276898 782.42570721 129.32188416 782.4264679 C120.21639145 782.42699343 111.11090588 782.42384355 102.00541496 782.41823006 C88.84024009 782.41011905 75.67506868 782.40750025 62.50989158 782.40624207 C41.1526699 782.40405091 19.79545203 782.39738912 -1.56176758 782.38793945 C-22.31404603 782.37876696 -43.06632345 782.37168533 -63.81860352 782.36743164 C-65.0967749 782.36716892 -66.37494628 782.36690619 -67.69185013 782.36663551 C-74.10376199 782.36533052 -80.51567385 782.3640668 -86.92758572 782.36282361 C-140.16005981 782.35244903 -193.39252966 782.33475491 -246.625 782.3125 C-247.945 774.3925 -249.265 766.4725 -250.625 758.3125 C-253.595 759.7975 -253.595 759.7975 -256.625 761.3125 C-262.9693365 762.32722817 -268.3970325 761.54835823 -274.06640625 758.578125 C-275.95309455 757.04607736 -276.68800026 755.53146456 -277.625 753.3125 C-278.285 753.3125 -278.945 753.3125 -279.625 753.3125 C-279.83125 754.199375 -280.0375 755.08625 -280.25 756 C-282.04427707 760.32257657 -283.80857531 761.64100272 -287.625 764.3125 C-293.29870255 766.17253857 -300.01356691 766.25499196 -305.5625 764 C-309.57705569 761.78789789 -311.17528503 760.6616449 -312.625 756.3125 C-312.71829934 754.66878509 -312.75495144 753.02135323 -312.75 751.375 C-312.75386719 750.09302734 -312.75386719 750.09302734 -312.7578125 748.78515625 C-312.63430254 746.48569148 -312.26920687 744.51609652 -311.625 742.3125 C-312.65625 742.9725 -313.6875 743.6325 -314.75 744.3125 C-320.61638961 747.2720251 -327.21317781 747.21683579 -333.625 746.3125 C-336.20917662 744.44645246 -336.59478405 743.40314785 -337.625 740.3125 C-338.26155891 731.41547901 -337.91685919 720.82352594 -332.625 713.3125 C-328.42644819 709.83843842 -323.92114907 707.40741959 -318.95361328 705.21923828 C-318.14304474 704.86145294 -317.3324762 704.5036676 -316.49734497 704.13504028 C-315.87947113 703.86360199 -315.26159729 703.5921637 -314.625 703.3125 C-314.6751123 702.66359299 -314.72522461 702.01468597 -314.77685547 701.34611511 C-324.11708611 579.78875832 -324.11708611 579.78875832 -312.625 545.3125 C-313.6459375 545.27382812 -313.6459375 545.27382812 -314.6875 545.234375 C-321.00286689 544.86485885 -326.9935926 543.93660098 -333.125 542.4375 C-333.80691406 542.27604492 -334.48882812 542.11458984 -335.19140625 541.94824219 C-338.8973641 540.9996496 -341.912694 540.07905212 -344.625 537.3125 C-347.93307567 513.32895138 -330.41353143 486.21014271 -320.20947266 465.52832031 C-318.88200584 462.83411493 -317.56751618 460.13442885 -316.26171875 457.4296875 C-307.48207263 439.3510659 -296.8149616 423.70587261 -283.109375 409.0078125 C-281.23001779 406.96888723 -279.42407212 404.90805327 -277.625 402.80078125 C-272.85504291 397.33215517 -267.72205042 392.22351618 -262.59277344 387.0949707 C-260.88705402 385.38706944 -259.18950973 383.67131955 -257.4921875 381.95507812 C-250.84314349 375.27234667 -244.00919549 369.18271378 -236.625 363.3125 C-235.5220445 362.36721735 -234.42554628 361.41426804 -233.33984375 360.44921875 C-204.86402199 335.33762909 -166.60110964 315.55564074 -128.625 311.3125 C-131.0170496 308.44066968 -133.33599016 306.12640717 -136.625 304.3125 C-139.56779684 304.54612662 -141.91044598 305.38776844 -144.68359375 306.38671875 C-150.76623006 308.301174 -157.1127152 308.16488234 -163.125 306.125 C-168.44392291 302.26878089 -169.95626187 298.5483109 -171.625 292.3125 C-172.19943848 292.32821045 -172.77387695 292.3439209 -173.36572266 292.36010742 C-175.99371309 292.42285513 -178.62154537 292.46161506 -181.25 292.5 C-182.60544922 292.53770508 -182.60544922 292.53770508 -183.98828125 292.57617188 C-190.49189505 292.64737933 -194.96686981 291.89468361 -199.8125 287.1875 C-204.08333811 280.41306713 -205.15323765 273.45667568 -205.0625 265.5625 C-205.05984131 264.25804932 -205.05984131 264.25804932 -205.05712891 262.92724609 C-204.92533905 256.39458035 -203.80613402 251.10466158 -201.3046875 245.0390625 C-200.24559894 240.79053484 -201.8772831 237.88707172 -203.6953125 234.05859375 C-208.68006468 223.1475251 -208.44139506 208.54622398 -204.75 197.25 C-203.53416444 194.18339252 -202.12960139 191.24715046 -200.625 188.3125 C-201.223125 187.61125 -201.82125 186.91 -202.4375 186.1875 C-209.59131734 175.21491896 -208.87220037 158.21693058 -207.12109375 145.71484375 C-205.02649237 136.24724552 -200.78702583 128.75385056 -192.625 123.3125 C-189.6864428 121.8033845 -186.70643991 120.50035665 -183.625 119.3125 C-183.90214844 118.69246094 -184.17929687 118.07242188 -184.46484375 117.43359375 C-189.41551024 105.33000699 -190.28788032 91.98991533 -185.62109375 79.66015625 C-181.5720125 70.7735588 -175.75696702 64.8562484 -166.625 61.3125 C-161.60040905 59.76647202 -155.16887609 59.42254974 -150.1796875 61.16796875 C-147.3605209 61.62638389 -147.3605209 61.62638389 -144.9765625 58.99609375 C-144.05301227 57.92657868 -143.14482706 56.84365994 -142.25 55.75 C-141.27468457 54.62928688 -140.29683591 53.51077306 -139.31640625 52.39453125 C-138.84992676 51.85650879 -138.38344727 51.31848633 -137.90283203 50.76416016 C-129.76917586 41.52405325 -117.77041145 35.825867 -105.625 34.3125 C-86.50430199 33.35273267 -86.50430199 33.35273267 -80.625 35.3125 C-80.47804688 34.28511719 -80.33109375 33.25773437 -80.1796875 32.19921875 C-77.9092806 17.65805458 -72.44882385 5.93535785 -60.48046875 -3.3515625 C-43.39196044 -14.52607463 -15.70189174 -12.31726175 0 0 Z " fill="#361D18" transform="translate(510.625,177.6875)"/>
<path d="M0 0 C4.34090507 1.61835684 8.68171993 3.47025147 10.91601562 7.7578125 C12.44392646 11.78486432 13.43378504 15.92945312 14.44482422 20.109375 C15.2696301 22.91821262 16.64884428 25.41317195 18 28 C18 28.66 18 29.32 18 30 C18.66 30 19.32 30 20 30 C21.33203125 31.57421875 21.33203125 31.57421875 22.8125 33.6875 C31.66102642 45.80613401 40.72889815 48.04761027 54.99707031 50.39819336 C79.71370711 54.17776756 105.29319814 53.32873346 129.76220703 48.3671875 C132 48 132 48 136 48 C136.33 47.01 136.66 46.02 137 45 C138.99914767 44.33078177 140.99927889 43.66449943 143 43 C154.30162866 34.54561318 159.6474743 22.11714234 162.8828125 8.7421875 C164.30142514 5.26013828 165.7640626 3.88528527 169 2 C173.32868133 2.28939975 175.28124924 3.80128683 178.25 6.859375 C179.0234375 7.64570313 179.796875 8.43203125 180.59375 9.2421875 C181.78484375 10.48355469 181.78484375 10.48355469 183 11.75 C184.19109375 12.96816406 184.19109375 12.96816406 185.40625 14.2109375 C186.93935571 15.77981568 188.46881099 17.35227148 189.99414062 18.92871094 C192.86567123 21.8939088 195.74434416 24.84347489 198.78125 27.640625 C206.17885285 34.5674713 211.99162357 42.88495991 218 51 C218.45697266 51.61182129 218.91394531 52.22364258 219.38476562 52.85400391 C262.17240706 110.29917197 281.65799924 183.21662927 291.93359375 253.0703125 C292.04257492 253.79910614 292.15155609 254.52789978 292.26383972 255.27877808 C292.78224992 258.89054608 293.04408684 262.35589556 293 266 C266.19274786 266.13047214 239.38549532 266.26086142 212.5782423 266.39115143 C200.13183257 266.45164606 187.68542296 266.51216804 175.23901367 266.57275391 C164.39369413 266.62554601 153.54837434 266.67828733 142.70305425 266.73096704 C136.95788608 266.75887523 131.21271803 266.78680927 125.46755028 266.81480408 C120.06437396 266.84113164 114.66119731 266.8673915 109.2580204 266.89359856 C107.27099724 266.90324832 105.2839742 266.9129232 103.29695129 266.92262459 C100.59174125 266.93582874 97.88653078 266.94894394 95.18132019 266.96203613 C94.38852337 266.96592708 93.59572654 266.96981803 92.77890557 266.97382689 C21.18914834 267.31848107 -50.40934197 267 -122 267 C-122.0398717 261.55055005 -121.78378226 256.38989077 -120.93359375 250.99609375 C-120.81964767 250.24827133 -120.7057016 249.50044891 -120.58830261 248.72996521 C-120.21341056 246.29768637 -119.82705025 243.86747221 -119.4375 241.4375 C-119.30406189 240.59842102 -119.17062378 239.75934204 -119.03314209 238.89483643 C-107.10989714 164.44291261 -82.04689625 86.61531909 -30.0234375 30.2109375 C-28.2440646 28.26668063 -26.55911974 26.27607298 -24.875 24.25 C-20.21233993 18.87422722 -14.85362445 14.17531237 -9.62109375 9.3671875 C-6.32381004 6.32908277 -3.14829299 3.19195191 0 0 Z " fill="#CDE4FE" transform="translate(393,496)"/>
<path d="M0 0 C140.58 0 281.16 0 426 0 C440.18759938 28.37519877 429.37832398 101.48670407 422 131 C284.39 131 146.78 131 5 131 C1.53037383 111.33878505 1.53037383 111.33878505 0.875 104.875 C0.76478516 103.89080078 0.76478516 103.89080078 0.65234375 102.88671875 C0.40705206 100.59302626 0.20012134 98.29808212 0 96 C-0.13462646 94.56865723 -0.13462646 94.56865723 -0.27197266 93.10839844 C-1.26664292 80.87201081 -1.1506728 68.62003974 -1.13037109 56.3515625 C-1.12505078 52.53641716 -1.13032081 48.72139158 -1.13671875 44.90625 C-1.13605712 42.40624975 -1.13477421 39.90624957 -1.1328125 37.40625 C-1.13483673 36.30333618 -1.13686096 35.20042236 -1.13894653 34.06408691 C-1.10662545 22.67178243 -0.49640362 11.41728317 0 0 Z " fill="#CDE4FE" transform="translate(265,829)"/>
<path d="M0 0 C0.71800781 0.29648437 1.43601562 0.59296875 2.17578125 0.8984375 C12.74607936 5.02129236 21.58840798 6.196648 32.625 3.4375 C38.85519558 1.89089407 42.86493735 1.96815941 49.09765625 3.5234375 C60.35916583 6.26433401 69.11892581 4.84856175 80 1 C80.99 0.67 81.98 0.34 83 0 C83.35191406 1.14855469 83.70382812 2.29710937 84.06640625 3.48046875 C88.45836122 17.44993322 93.05554934 31.83444059 106.125 39.9375 C113.38486658 42.60438976 121.93319767 41.66731938 129 39 C129.32613281 39.68707031 129.65226563 40.37414062 129.98828125 41.08203125 C130.42527344 41.98308594 130.86226562 42.88414062 131.3125 43.8125 C131.74175781 44.70582031 132.17101562 45.59914063 132.61328125 46.51953125 C133.88978774 48.80285976 135.1543488 50.19764854 137 52 C137 52.66 137 53.32 137 54 C137.57363281 54.27070313 138.14726563 54.54140625 138.73828125 54.8203125 C141.03690105 56.01924718 143.06790204 57.38471801 145.1875 58.875 C153.59565355 64.47129143 159.79630015 66.6866041 170 66 C170 66.66 170 67.32 170 68 C171.32 68 172.64 68 174 68 C177.5728833 105.38224177 173.23157029 133.23727365 150.38671875 163.76171875 C147.57213552 166.40125425 145.79608101 166.76445673 142 167 C142.10570312 167.71929687 142.21140625 168.43859375 142.3203125 169.1796875 C141.85802767 173.25004903 139.91668577 174.47265001 136.875 177.125 C135.44800781 178.39730469 135.44800781 178.39730469 133.9921875 179.6953125 C131.09183433 181.92926599 128.32107573 183.48405953 125 185 C124.21625 185.391875 123.4325 185.78375 122.625 186.1875 C121.820625 186.5896875 121.820625 186.5896875 121 187 C121 187.66 121 188.32 121 189 C103.2536585 198.33435426 83.64440258 198.15916774 64.08203125 198.16796875 C62.3725329 198.17119347 60.66303481 198.17455839 58.95353699 198.17805481 C55.38755658 198.18400323 51.82160025 198.18589918 48.25561523 198.18530273 C43.73893483 198.1852014 39.22241261 198.19884353 34.70576954 198.21607494 C31.17849552 198.22732231 27.65125822 198.22921808 24.12396812 198.22869301 C22.46139672 198.22985444 20.79882377 198.23416954 19.13627052 198.24202538 C-21.85005328 198.41757342 -21.85005328 198.41757342 -37 188 C-37.33 187.01 -37.66 186.02 -38 185 C-39.65389928 184.30226124 -41.32318547 183.64071464 -43 183 C-56.96046353 173.11860941 -56.96046353 173.11860941 -59 167 C-59.639375 166.71125 -60.27875 166.4225 -60.9375 166.125 C-63.7174915 164.608641 -63.89210364 162.88053053 -65 160 C-65.99 159.67 -66.98 159.34 -68 159 C-73.04124565 152.86169571 -76.41097151 145.37405987 -79.8125 138.25 C-80.19744629 137.44643066 -80.58239258 136.64286133 -80.97900391 135.81494141 C-83.73500246 129.91376168 -86 124.61132477 -86 118 C-86.66 118 -87.32 118 -88 118 C-89.92326782 110.66754142 -90.19261729 103.47206311 -90.1875 95.9375 C-90.18814453 94.99688721 -90.18878906 94.05627441 -90.18945312 93.0871582 C-90.13489937 86.26979874 -90.13489937 86.26979874 -89 84 C-88.79282822 81.32978593 -88.62622225 78.67404165 -88.5 76 C-88.13513514 68.27027027 -88.13513514 68.27027027 -87 66 C-86.05253906 66.12181641 -86.05253906 66.12181641 -85.0859375 66.24609375 C-74.92628212 66.96341812 -66.94515634 62.75597945 -59.02734375 56.7421875 C-53.00914432 51.51282423 -48.68041623 46.59451264 -46 39 C-45.14148438 39.32226562 -44.28296875 39.64453125 -43.3984375 39.9765625 C-36.87039136 41.94247984 -29.05630859 42.32441897 -22.6875 39.5625 C-9.13101035 31.30329412 -3.9339983 14.48981981 0 0 Z " fill="#CD806A" transform="translate(437,307)"/>
<path d="M0 0 C11.84450893 10.8652385 14.3759684 23.79982901 15.9375 38.9375 C18.9958705 38.40628219 21.09859789 37.85180963 23.875 36.375 C34.12356027 31.90370589 46.95937097 35.30121871 56.9375 38.9375 C67.27760996 43.5442318 75.20398234 50.82086738 82.08984375 59.71875 C83.7708878 62.12879087 83.7708878 62.12879087 86.5 62.8125 C89.07794558 63.09312889 89.07794558 63.09312889 91.9375 61.9375 C99.09288471 61.23236516 105.08594372 61.50994208 110.9375 65.9375 C118.18726746 72.34922095 122.26278242 79.50829454 123.27734375 89.17578125 C123.56326215 98.9084435 121.24020236 106.33209528 116.9375 114.9375 C116.9375 116.2575 116.9375 117.5775 116.9375 118.9375 C118.09765625 119.35708984 118.09765625 119.35708984 119.28125 119.78515625 C128.11474088 123.18517563 135.27171707 126.73211992 139.375 135.625 C141.90650921 142.01620936 142.15125111 147.7386467 142.1875 154.5625 C142.208125 155.50996094 142.22875 156.45742188 142.25 157.43359375 C142.29537675 165.72619402 141.29425918 173.34932348 135.9375 179.9375 C133.17473823 179.41481534 130.6114124 178.82880413 127.9375 177.9375 C121.87630241 177.405816 117.8292272 178.49239133 112.27734375 180.921875 C109.9375 181.9375 109.9375 181.9375 106.375 183.0625 C103.77976928 183.67735111 103.77976928 183.67735111 102.9375 185.9375 C100.8125 186.5625 100.8125 186.5625 97.9375 186.9375 C96.4215625 187.1540625 96.4215625 187.1540625 94.875 187.375 C84.64507677 186.23834186 75.5705517 179.5424274 68.9375 171.9375 C66.32861411 167.78973211 64.48331334 163.57494003 62.9375 158.9375 C59.97994799 159.35018168 57.40084842 159.71869658 54.6875 161 C49.57326776 162.74348826 44.52366857 163.06480425 39.5 160.875 C24.73928422 151.69941992 21.01078736 134.69332217 16.9375 118.9375 C12.10177849 118.69571392 10.61942648 119.80786249 6.9375 122.9375 C-1.10132583 126.78396055 -10.48180953 126.46574854 -19.0390625 124.703125 C-21.0625 123.9375 -21.0625 123.9375 -22.57421875 122.37109375 C-23.96931923 120.74775397 -23.96931923 120.74775397 -26.10546875 120.64453125 C-26.81316406 120.67933594 -27.52085937 120.71414063 -28.25 120.75 C-29.508125 120.811875 -30.76625 120.87375 -32.0625 120.9375 C-32.3925 121.5975 -32.7225 122.2575 -33.0625 122.9375 C-40.52818431 126.64348717 -50.152391 126.82228529 -58.12109375 124.6796875 C-61.52323859 123.37906875 -64.47105641 121.52894359 -67.0625 118.9375 C-68.72867115 118.89686168 -70.39638095 118.894779 -72.0625 118.9375 C-72.21283691 119.48051758 -72.36317383 120.02353516 -72.51806641 120.58300781 C-81.48134249 152.60148307 -81.48134249 152.60148307 -92.6875 159.25 C-98.29485687 162.05367844 -103.98481157 163.28110615 -110.1015625 161.265625 C-111.76669406 160.51454438 -113.4156996 159.72796419 -115.0625 158.9375 C-116.0525 158.9375 -117.0425 158.9375 -118.0625 158.9375 C-118.2584375 159.55496094 -118.454375 160.17242187 -118.65625 160.80859375 C-122.75562787 172.41760779 -130.36923374 179.16729205 -141.0625 184.9375 C-145.26817317 186.84457702 -148.42059548 187.20024931 -153.0625 186.9375 C-153.7225 186.6075 -154.3825 186.2775 -155.0625 185.9375 C-155.0625 185.2775 -155.0625 184.6175 -155.0625 183.9375 C-155.8875 184.205625 -156.7125 184.47375 -157.5625 184.75 C-161.97836629 184.98656427 -163.52072622 183.6355096 -167.05859375 181.21875 C-172.13489019 177.97308678 -178.16358524 177.14252907 -184.0625 177.9375 C-186.549051 178.7522222 -188.71112663 179.76181331 -191.0625 180.9375 C-195.59281072 173.53799248 -197.4490925 166.55441492 -198.0625 157.9375 C-198.14371094 156.88949219 -198.14371094 156.88949219 -198.2265625 155.8203125 C-198.58192304 147.00091006 -197.01610566 136.69564697 -191.0625 129.9375 C-186.24334882 124.88354099 -181.75013379 122.02847658 -175.06640625 119.95703125 C-172.915578 119.11829986 -172.915578 119.11829986 -172.1640625 117.0625 C-172.04095205 114.48665063 -172.59484211 113.34605132 -173.875 111.125 C-178.87051914 102.37833292 -179.72329087 91.7153222 -177.33984375 81.98828125 C-176.40274667 79.51085456 -175.34814938 77.25166888 -174.0625 74.9375 C-173.70027344 74.28136719 -173.33804687 73.62523437 -172.96484375 72.94921875 C-169.42991069 67.35323997 -164.28734389 64.01244796 -158.0625 61.9375 C-156.29369433 61.84308965 -154.52131668 61.80760009 -152.75 61.8125 C-151.28240234 61.81443359 -151.28240234 61.81443359 -149.78515625 61.81640625 C-147.0625 61.9375 -147.0625 61.9375 -143.6875 62.75 C-142.388125 62.8428125 -142.388125 62.8428125 -141.0625 62.9375 C-138.79721351 60.86936302 -136.73747924 58.66396071 -134.65087891 56.41821289 C-121.87945713 42.74550459 -109.08687065 35.16249179 -89.8125 34.5 C-84.42887288 34.59602902 -80.50858357 35.5044468 -75.83203125 38.16015625 C-73.8855549 39.25134089 -73.8855549 39.25134089 -71.0625 37.9375 C-70.96453125 36.89851563 -70.8665625 35.85953125 -70.765625 34.7890625 C-69.15490368 19.1750038 -64.62406241 7.77339632 -52.23046875 -2.55859375 C-37.06151627 -13.08120042 -14.10809671 -11.29728817 0 0 Z " fill="#DDAE99" transform="translate(506.0625,182.0625)"/>
<path d="M0 0 C6.61229553 -0.21265674 12.39651428 0.42812917 18.8125 2 C19.7212085 2.22147705 20.62991699 2.4429541 21.56616211 2.67114258 C57.2948428 11.82181082 88.76722171 32.75152438 116 57 C116.98613281 57.87398437 117.97226562 58.74796875 118.98828125 59.6484375 C126.35149729 66.27208505 133.36249863 73.2598259 140.375 80.25 C140.84953613 80.7218573 141.32407227 81.1937146 141.81298828 81.67987061 C147.43282441 87.27561755 152.88184634 92.94119557 158 99 C158.5259375 99.61391602 159.051875 100.22783203 159.59375 100.86035156 C181.36414684 126.4338486 195.48032504 157.24477595 208.3125 188.0625 C208.59633545 188.74006348 208.8801709 189.41762695 209.17260742 190.11572266 C210.31061569 192.92145714 211 194.93863004 211 198 C183.92988556 205.27643248 156.29283776 205.17106425 128.5625 202.625 C127.86583221 202.5620575 127.16916443 202.49911499 126.4513855 202.43426514 C112.69460996 201.15954856 112.69460996 201.15954856 109 199 C107.88842773 196.59033203 107.88842773 196.59033203 107.18359375 193.5078125 C106.75941162 191.76491943 106.75941162 191.76491943 106.32666016 189.98681641 C106.0332373 188.71241699 105.73981445 187.43801758 105.4375 186.125 C104.76363482 183.38086984 104.06652705 180.64298475 103.36328125 177.90625 C103.17928772 177.18748688 102.99529419 176.46872375 102.8057251 175.72817993 C88.70436276 121.53367018 60.21485237 44.80990158 11 12 C11 11.34 11 10.68 11 10 C10.41734375 9.74347656 9.8346875 9.48695313 9.234375 9.22265625 C6.80289161 7.89214174 5.18264447 6.41556987 3.25 4.4375 C2.63640625 3.81746094 2.0228125 3.19742187 1.390625 2.55859375 C0 1 0 1 0 0 Z " fill="#B3D1F4" transform="translate(570,495)"/>
<path d="M0 0 C-5.01852644 6.0968875 -10.54669475 11.54433183 -16.1875 17.0625 C-24.17675705 24.9659986 -31.36251883 32.95393453 -38 42 C-38.83667078 43.07511215 -39.67787357 44.14671184 -40.5234375 45.21484375 C-51.13959724 58.64541606 -59.99271857 72.87889542 -68 88 C-68.52158691 88.98323242 -68.52158691 88.98323242 -69.05371094 89.98632812 C-71.48169695 94.60542348 -73.76795854 99.2834713 -76 104 C-76.3599707 104.75087891 -76.71994141 105.50175781 -77.09082031 106.27539062 C-90.53600216 134.64553357 -99.93387649 165.22356755 -107.37426758 195.66967773 C-108 198 -108 198 -109 200 C-139.53660728 208.18858743 -179.89172219 207.30979643 -210 198 C-208.69348965 190.93622975 -206.44411144 184.97652392 -203.375 178.5 C-202.9020752 177.48824707 -202.42915039 176.47649414 -201.94189453 175.43408203 C-200.60359183 172.58428451 -199.25503979 169.73961599 -197.90136719 166.89709473 C-196.95086227 164.89658051 -196.00620268 162.89337987 -195.0625 160.88964844 C-193.35363051 157.26403267 -191.63239564 153.6444979 -189.90313721 150.02856445 C-189.2293857 148.61730602 -188.55834461 147.20474968 -187.89031982 145.79077148 C-175.21468123 119.01375497 -156.48068957 97.09677059 -135.59985352 76.33911133 C-133.42943439 74.17947446 -131.27000183 72.00926097 -129.11132812 69.83789062 C-121.71027527 62.42980325 -114.25496582 55.45549359 -106 49 C-104.93598541 48.10296635 -103.8774186 47.19936593 -102.828125 46.28515625 C-76.1417431 23.27826034 -36.14211267 -0.53943452 0 0 Z " fill="#B3D1F4" transform="translate(386,495)"/>
<path d="M0 0 C-0.99357866 8.6657159 -2.02613879 17.32326411 -3.18359375 25.96875 C-5.5088684 43.47169911 -7.48965989 60.94804801 -8.75 78.5625 C-8.83820511 79.78211426 -8.83820511 79.78211426 -8.92819214 81.02636719 C-9.27263143 85.86239555 -9.5799137 90.69955604 -9.85678101 95.53991699 C-9.95088556 97.15635765 -10.05003671 98.77251391 -10.1546936 100.38830566 C-11.03120887 114.08077436 -11.01530835 127.7334392 -10.88671875 141.4453125 C-10.87144531 143.29680684 -10.85642188 145.14830327 -10.84164429 146.99980164 C-10.74780857 158.49896383 -10.74780857 158.49896383 -10.60229492 169.99755859 C-10.53211475 174.74436646 -10.49113416 179.49064316 -10.46967506 184.23791122 C-10.45612434 186.03135467 -10.43176744 187.82475159 -10.39618492 189.61789322 C-10.34796735 192.10807233 -10.33703897 194.59584069 -10.3347168 197.08642578 C-10.3115741 197.8177774 -10.2884314 198.54912903 -10.2645874 199.30264282 C-10.29292119 202.13660886 -10.45421249 204.34469309 -12.30709267 206.5693779 C-15.79043118 209.54965465 -18.50234848 210.90914122 -22.984375 211.19140625 C-27.44161913 210.76814082 -30.52855719 208.57654587 -33.4765625 205.41796875 C-36.49985632 201.50183085 -37.92172389 197.80322996 -39 193 C-40.32 192.67 -41.64 192.34 -43 192 C-43.03738281 192.79664063 -43.07476562 193.59328125 -43.11328125 194.4140625 C-43.56390597 201.67707263 -44.16437463 206.73473443 -49.0625 212.375 C-53.28243758 214.70943356 -57.27006917 214.66142122 -62 214 C-65.75 212.5 -65.75 212.5 -67 210 C-67.56743898 202.80880215 -67.15735247 197.44626129 -64 191 C-63.74609778 188.20659843 -63.74609778 188.20659843 -64 186 C-68.06234527 186.63879631 -71.17183083 188.81837709 -74.5625 191 C-80.2806721 194.65451893 -84.06617877 196.25680819 -91 196 C-92.95958983 194.04041017 -92.26395878 190.53062282 -92.3125 187.9375 C-92.29975425 181.92787949 -92.27588742 176.58130795 -88 172 C-83.046777 168.30204584 -77.50971902 165.75485951 -72 163 C-69.81611921 161.22687607 -69.81611921 161.22687607 -69.75195312 158.96972656 C-69.8222029 152.78540454 -70.2583825 146.69248613 -70.85813904 140.53749084 C-75.34675507 94.19035308 -74.63784018 47.07745868 -68 1 C-66.20824107 1.14469531 -64.41659858 1.29083261 -62.625 1.4375 C-61.12839844 1.55931641 -61.12839844 1.55931641 -59.6015625 1.68359375 C-57.65890046 1.85426146 -55.71652275 2.03184017 -53.77856445 2.24951172 C-38.26938781 3.96671558 -22.50809964 3.9686654 -7.23046875 0.65625 C-4 0 -4 0 0 0 Z " fill="#CD806A" transform="translate(271,723)"/>
<path d="M0 0 C2.04174058 0.31201674 4.08338913 0.62463569 6.125 0.9375 C7.83042969 1.19853516 7.83042969 1.19853516 9.5703125 1.46484375 C11.66635301 1.79190246 13.75947598 2.13955542 15.84594727 2.52294922 C21.15114382 3.32536071 26.45622321 3.19045071 31.8125 3.1875 C33.01342285 3.18814453 34.2143457 3.18878906 35.45166016 3.18945312 C43.66340984 3.14096071 51.62095264 2.61877053 59.7421875 1.4375 C62.56075892 1.05898681 65.16611338 0.96625608 68 1 C68.55551812 5.99425843 69.10664512 10.98897695 69.65405273 15.98413086 C69.8400792 17.67631475 70.02721692 19.36837692 70.21557617 21.06030273 C72.34900571 40.23841202 73.23254881 59.14151374 73.25 78.4375 C73.25233643 79.61942932 73.25467285 80.80135864 73.25708008 82.019104 C73.27001337 99.46229178 72.67363558 116.7414852 71.06738281 134.11108398 C70.92994607 135.60266571 70.79289014 137.09428259 70.65625 138.5859375 C70.59169617 139.28689041 70.52714233 139.98784332 70.46063232 140.71003723 C69.82292164 148.13923646 69.86360754 155.55019326 70 163 C71.16015625 163.46055786 71.16015625 163.46055786 72.34375 163.93041992 C78.95865742 166.59401454 85.5140025 169.2523157 90 175 C91.7660031 179.35904286 92.27160726 183.0612249 92.25 187.75 C92.25773438 189.44382812 92.25773438 189.44382812 92.265625 191.171875 C92 194 92 194 90 196 C82.58937526 196.11952621 77.99032388 193.61556235 71.796875 189.69140625 C69.24176547 188.14620733 66.79981012 187.01671937 64 186 C64.41104749 189.42539572 64.81510485 192.52144784 66.0625 195.75 C67.44152747 200.53062855 67.70770441 205.06914647 67 210 C65.1875 212.6875 65.1875 212.6875 62 214 C57.42896835 214.83362279 53.02656547 215.36172383 49.0234375 212.671875 C43.62407038 206.76714839 42.80690948 199.66564005 42 192 C41.01 192 40.02 192 39 192 C38.76925781 192.73605469 38.53851562 193.47210937 38.30078125 194.23046875 C35.87899904 201.47667087 33.64863972 205.62045236 27.125 209.875 C22.47784329 211.54797641 19.47780976 211.03678028 14.96484375 209.1484375 C12.54159986 207.65498699 11.45484738 206.46100351 10 204 C9.91918945 201.11083984 9.91918945 201.11083984 10.30078125 197.5234375 C11.40318216 184.93689818 11.19810706 172.31226228 11.1875 159.6875 C11.18709969 158.69739426 11.18709969 158.69739426 11.18669128 157.68728638 C11.16264506 110.22578174 8.56429716 62.97931446 1.57495117 16.00024414 C1.46992783 15.2909375 1.36490448 14.58163086 1.25669861 13.85083008 C0.97423627 11.95788516 0.68513923 10.06593354 0.39550781 8.17407227 C0.05008289 5.40193067 -0.08007864 2.78798384 0 0 Z " fill="#CD806A" transform="translate(686,723)"/>
<path d="M0 0 C0.3405084 2.7909528 0.67251341 5.58251297 1 8.375 C1.14308594 9.53708984 1.14308594 9.53708984 1.2890625 10.72265625 C1.9688914 16.59832033 2 21.99793447 2 28 C-136.93 28 -275.86 28 -419 28 C-419 21.16612883 -418.94726777 14.97537665 -418 8.3125 C-417.90460938 7.59900391 -417.80921875 6.88550781 -417.7109375 6.15039062 C-417.48037767 4.43271988 -417.24117417 2.71621259 -417 1 C-407.99764391 -0.03042411 -399.03278321 -0.17689567 -389.98388672 -0.22119141 C-388.37628585 -0.23242713 -386.76868755 -0.24403519 -385.1610918 -0.25598049 C-380.76364676 -0.28729022 -376.36618637 -0.31244621 -371.96869445 -0.33614087 C-369.14828309 -0.35173615 -366.3278854 -0.36888978 -363.50748634 -0.38656425 C-351.13953181 -0.46405015 -338.77154381 -0.53093903 -326.4034996 -0.59233475 C-322.06003253 -0.61389716 -317.71657072 -0.63624236 -313.37311172 -0.65937424 C-208.91207989 -1.21569819 -104.45908635 -0.70867417 0 0 Z " fill="#5280B3" transform="translate(687,767)"/>
<path d="M0 0 C139.59 0 279.18 0 423 0 C424 12 424 12 424 25 C283.75 25 143.5 25 -1 25 C-1 8 -1 8 0 0 Z " fill="#769CC9" transform="translate(267,800)"/>
<path d="M0 0 C0.69222656 0.12117188 1.38445312 0.24234375 2.09765625 0.3671875 C16.37948111 2.81334986 30.21729928 4.33559217 44.6875 4.625 C46.297778 4.66226141 47.90804817 4.69986253 49.51831055 4.73779297 C54.01198326 4.83978794 58.50582355 4.92379428 63 5 C64.02383789 5.01804687 65.04767578 5.03609375 66.10253906 5.0546875 C71.73803461 5.13959139 77.36500952 5.10272638 83 5 C84.15274414 4.98211426 85.30548828 4.96422852 86.49316406 4.94580078 C102.12608049 4.67476692 117.51508607 4.02395862 132.953125 1.34765625 C135.96075036 0.83681912 138.97819662 0.41790898 142 0 C140.79074658 6.92572414 138.68585581 12.04157665 135 18 C134.4225 19.03125 133.845 20.0625 133.25 21.125 C123.86645641 33.11508347 110.90906194 36.25161792 96.55859375 38.23046875 C76.47622552 40.53148973 56.0563024 40.05525022 36.125 36.75 C34.88403564 36.54576416 33.64307129 36.34152832 32.36450195 36.13110352 C26.43056255 35.02886626 21.56368957 34.08932758 17 30 C17 29.34 17 28.68 17 28 C16.01 27.67 15.02 27.34 14 27 C6.92113422 19.40558657 1.64960266 10.22753651 0 0 Z " fill="#CB7F69" transform="translate(409,505)"/>
<path d="M0 0 C4.34090507 1.61835684 8.68171993 3.47025147 10.91601562 7.7578125 C12.44392646 11.78486432 13.43378504 15.92945312 14.44482422 20.109375 C15.2696301 22.91821262 16.64884428 25.41317195 18 28 C18 28.66 18 29.32 18 30 C18.66 30 19.32 30 20 30 C21.33203125 31.57421875 21.33203125 31.57421875 22.8125 33.6875 C31.66102642 45.80613401 40.72889815 48.04761027 54.99707031 50.39819336 C79.71370711 54.17776756 105.29319814 53.32873346 129.76220703 48.3671875 C132 48 132 48 136 48 C136.33 47.01 136.66 46.02 137 45 C138.99914767 44.33078177 140.99927889 43.66449943 143 43 C154.30162866 34.54561318 159.6474743 22.11714234 162.8828125 8.7421875 C164.30142514 5.26013828 165.7640626 3.88528527 169 2 C172.34742937 1.99485802 173.66067367 2.71989293 176.23828125 4.84765625 C176.92277344 5.57855469 177.60726562 6.30945313 178.3125 7.0625 C179.35857422 8.16271484 179.35857422 8.16271484 180.42578125 9.28515625 C180.94527344 9.85105469 181.46476563 10.41695313 182 11 C181.68546875 11.79921875 181.3709375 12.5984375 181.046875 13.421875 C178.88426204 18.97171309 176.81708349 24.4943578 175.0625 30.1875 C171.68240496 40.40858419 165.91599943 49.9738608 156.40698242 55.50952148 C136.46417501 65.42567489 117.27901769 70.19311769 95.04150391 69.99951172 C90.5559343 70.00023183 86.09982214 70.27793695 81.625 70.5625 C79.39978027 70.67827094 77.17430561 70.78731839 74.94873047 70.89599609 C73.20545434 70.98903488 71.46381744 71.11168908 69.72265625 71.23828125 C55.4330311 71.88195806 38.78768188 68.23974473 27 60 C26.071875 59.37996094 25.14375 58.75992188 24.1875 58.12109375 C10.29889156 48.47832349 0.59133351 36.22895429 -3.6171875 19.5546875 C-4.07505032 16.499154 -4.24448363 13.52687528 -4.3125 10.4375 C-4.34988281 9.32246094 -4.38726562 8.20742188 -4.42578125 7.05859375 C-3.91541502 3.39238493 -2.830088 2.28304929 0 0 Z " fill="#A7C6E6" transform="translate(393,496)"/>
<path d="M0 0 C2.04174058 0.31201674 4.08338913 0.62463569 6.125 0.9375 C7.83042969 1.19853516 7.83042969 1.19853516 9.5703125 1.46484375 C11.66635301 1.79190246 13.75947598 2.13955542 15.84594727 2.52294922 C21.15114382 3.32536071 26.45622321 3.19045071 31.8125 3.1875 C33.01342285 3.18814453 34.2143457 3.18878906 35.45166016 3.18945312 C43.66340984 3.14096071 51.62095264 2.61877053 59.7421875 1.4375 C62.55201992 1.06016039 65.17208275 0.9139797 68 1 C68 3.97 68 6.94 68 10 C48.81028237 13.55835824 26.98451381 13.65652724 8 9 C8.19577637 10.14770874 8.19577637 10.14770874 8.39550781 11.31860352 C13.68408363 42.71431259 16.94177717 74.26655561 18.76635742 106.04858398 C18.9417428 108.26408429 19.20304531 110.47305261 19.5065155 112.67466736 C20.03142197 116.83744413 20.14134883 120.96452487 20.12939453 125.15673828 C20.13114685 125.92855438 20.13289917 126.70037048 20.13470459 127.49557495 C20.13906886 130.02051104 20.13620496 132.54537583 20.1328125 135.0703125 C20.13348696 136.83812473 20.13445817 138.60593687 20.13571167 140.37374878 C20.13718117 144.06704599 20.13505765 147.76031891 20.13037109 151.45361328 C20.12466588 156.17896005 20.12796257 160.9042501 20.13394356 165.6295948 C20.13756222 169.27562892 20.13640472 172.92164965 20.13381577 176.56768417 C20.13315055 178.30994549 20.13396072 180.05220804 20.13629532 181.79446793 C20.1388442 184.23036151 20.13495016 186.66616396 20.12939453 189.10205078 C20.13141876 189.81596985 20.13344299 190.52988892 20.13552856 191.26544189 C20.11862973 195.27957838 19.77307594 199.06104883 19 203 C26.2244778 200.97207641 29.46127657 197.8496654 34 192 C34.97531652 190.83011276 35.95402743 189.6630392 36.9375 188.5 C37.618125 187.675 38.29875 186.85 39 186 C43.875 186.875 43.875 186.875 45 188 C45.13329564 189.68544926 45.23119813 191.37374396 45.3125 193.0625 C45.82035312 199.35332571 47.48275863 204.48275863 52 209 C56.65194714 209.34216235 56.65194714 209.34216235 61 208 C61.64232308 201.16282768 60.96612827 196.83873991 57.09375 191.10546875 C55.75540727 188.529159 55.65888295 186.8663308 56 184 C56.66 183.34 57.32 182.68 58 182 C62.37314084 182.17849554 65.46065009 183.13617368 69.375 185.0625 C74.11710892 187.32336777 77.79526362 187.33045945 83 187 C82.82958758 182.41590593 82.47008703 180.49072824 79.2421875 177.12109375 C77.56510862 175.74079011 75.85108481 174.41912222 74.12890625 173.09570312 C72.4921875 171.74609375 72.4921875 171.74609375 70 169 C70.1328125 165.66015625 70.1328125 165.66015625 71 163 C73.23590266 164.04987581 75.46291713 165.11409987 77.6875 166.1875 C78.31333984 166.47947266 78.93917969 166.77144531 79.58398438 167.07226562 C84.82719947 169.6252447 88.83007054 172.39232591 91.296875 177.890625 C92.06008302 181.26570048 92.26593815 184.29142088 92.25 187.75 C92.25773438 189.44382812 92.25773438 189.44382812 92.265625 191.171875 C92 194 92 194 90 196 C82.58937526 196.11952621 77.99032388 193.61556235 71.796875 189.69140625 C69.24176547 188.14620733 66.79981012 187.01671937 64 186 C64.41104749 189.42539572 64.81510485 192.52144784 66.0625 195.75 C67.44152747 200.53062855 67.70770441 205.06914647 67 210 C65.1875 212.6875 65.1875 212.6875 62 214 C57.42896835 214.83362279 53.02656547 215.36172383 49.0234375 212.671875 C43.62407038 206.76714839 42.80690948 199.66564005 42 192 C41.01 192 40.02 192 39 192 C38.76925781 192.73605469 38.53851562 193.47210937 38.30078125 194.23046875 C35.87899904 201.47667087 33.64863972 205.62045236 27.125 209.875 C22.47784329 211.54797641 19.47780976 211.03678028 14.96484375 209.1484375 C12.54159986 207.65498699 11.45484738 206.46100351 10 204 C9.91918945 201.11083984 9.91918945 201.11083984 10.30078125 197.5234375 C11.40318216 184.93689818 11.19810706 172.31226228 11.1875 159.6875 C11.18709969 158.69739426 11.18709969 158.69739426 11.18669128 157.68728638 C11.16264506 110.22578174 8.56429716 62.97931446 1.57495117 16.00024414 C1.46992783 15.2909375 1.36490448 14.58163086 1.25669861 13.85083008 C0.97423627 11.95788516 0.68513923 10.06593354 0.39550781 8.17407227 C0.05008289 5.40193067 -0.08007864 2.78798384 0 0 Z " fill="#B4624C" transform="translate(686,723)"/>
<path d="M0 0 C-0.99357866 8.6657159 -2.02613879 17.32326411 -3.18359375 25.96875 C-5.5088684 43.47169911 -7.48965989 60.94804801 -8.75 78.5625 C-8.83820511 79.78211426 -8.83820511 79.78211426 -8.92819214 81.02636719 C-9.27263143 85.86239555 -9.5799137 90.69955604 -9.85678101 95.53991699 C-9.95088556 97.15635765 -10.05003671 98.77251391 -10.1546936 100.38830566 C-11.03120887 114.08077436 -11.01530835 127.7334392 -10.88671875 141.4453125 C-10.87144531 143.29680684 -10.85642188 145.14830327 -10.84164429 146.99980164 C-10.74780857 158.49896383 -10.74780857 158.49896383 -10.60229492 169.99755859 C-10.53211475 174.74436646 -10.49113416 179.49064316 -10.46967506 184.23791122 C-10.45612434 186.03135467 -10.43176744 187.82475159 -10.39618492 189.61789322 C-10.34796735 192.10807233 -10.33703897 194.59584069 -10.3347168 197.08642578 C-10.3115741 197.8177774 -10.2884314 198.54912903 -10.2645874 199.30264282 C-10.29292119 202.13660886 -10.45421249 204.34469309 -12.30709267 206.5693779 C-15.79043118 209.54965465 -18.50234848 210.90914122 -22.984375 211.19140625 C-27.44161913 210.76814082 -30.52855719 208.57654587 -33.4765625 205.41796875 C-36.49985632 201.50183085 -37.92172389 197.80322996 -39 193 C-40.32 192.67 -41.64 192.34 -43 192 C-43.03738281 192.79664063 -43.07476562 193.59328125 -43.11328125 194.4140625 C-43.56390597 201.67707263 -44.16437463 206.73473443 -49.0625 212.375 C-53.28243758 214.70943356 -57.27006917 214.66142122 -62 214 C-65.75 212.5 -65.75 212.5 -67 210 C-67.56743898 202.80880215 -67.15735247 197.44626129 -64 191 C-63.74609778 188.20659843 -63.74609778 188.20659843 -64 186 C-68.06234527 186.63879631 -71.17183083 188.81837709 -74.5625 191 C-80.2806721 194.65451893 -84.06617877 196.25680819 -91 196 C-92.95958983 194.04041017 -92.26395878 190.53062282 -92.3125 187.9375 C-92.29975425 181.92787949 -92.27588742 176.58130795 -88 172 C-84.83241739 169.63516093 -81.52543162 167.77663932 -78 166 C-76.865625 165.4225 -75.73125 164.845 -74.5625 164.25 C-73.2940625 163.63125 -73.2940625 163.63125 -72 163 C-70.515 162.01 -70.515 162.01 -69 161 C-68.5 163.1875 -68.5 163.1875 -69 166 C-70.83773139 167.48572811 -72.77205169 168.58317285 -74.828125 169.74609375 C-79.04858048 172.18272362 -83.56919857 175.13527515 -85 180 C-85.0777346 182.33203812 -85.08967728 184.66839059 -85 187 C-81.85894525 188.4240073 -81.85894525 188.4240073 -78.41796875 186.3828125 C-77.00268795 185.63988994 -75.59269075 184.88683505 -74.1875 184.125 C-65.38496741 179.37082111 -65.38496741 179.37082111 -60 179 C-58.0625 180 -58.0625 180 -57 182 C-57.22307099 185.06722613 -57.65449963 187.85413188 -58.54296875 190.80078125 C-59.16792916 193.80806936 -59.09317791 196.68220854 -59.0625 199.75 C-59.05347656 200.92046875 -59.04445312 202.0909375 -59.03515625 203.296875 C-59.02355469 204.18890625 -59.01195312 205.0809375 -59 206 C-53.44018799 206.61869532 -53.44018799 206.61869532 -48.6875 204.25 C-46.58258343 200.19608661 -45.70462807 196.2056628 -44.80859375 191.7421875 C-43.9671307 188.8885302 -43.41065921 187.70130255 -41 186 C-37.4375 185.6875 -37.4375 185.6875 -34 186 C-31.69412696 188.30587304 -31.31712405 189.77098633 -30.4375 192.875 C-30.18871094 193.73867188 -29.93992188 194.60234375 -29.68359375 195.4921875 C-29.09431488 197.65399912 -28.54344647 199.82621413 -28 202 C-22.555 202.99 -22.555 202.99 -17 204 C-17.14383118 202.8927356 -17.28766235 201.78547119 -17.43585205 200.64465332 C-19.00439639 187.78812952 -19.21718239 175.15601869 -19.046875 162.21875 C-19.0256816 160.06856967 -19.00521014 157.91838211 -18.9854126 155.76818848 C-18.94174546 151.28708304 -18.89051472 146.80615025 -18.83349609 142.32519531 C-18.76192094 136.66539287 -18.70780201 131.00558661 -18.65878296 125.34554958 C-18.40435712 96.78879062 -17.69102575 68.65646936 -13.72265625 40.3359375 C-12.91885105 34.54895926 -12.28871708 28.74732443 -11.734375 22.93139648 C-11.24167591 18.12118921 -10.25362144 13.65556511 -9 9 C-10.10988281 9.32484375 -11.21976562 9.6496875 -12.36328125 9.984375 C-19.38974625 11.53879329 -26.56033375 11.29770709 -33.71801758 11.26074219 C-36.16448194 11.25010013 -38.61019973 11.26063793 -41.05664062 11.2734375 C-50.56167025 11.28065277 -59.62009214 10.67474512 -69 9 C-68.67 6.36 -68.34 3.72 -68 1 C-66.20824107 1.14469531 -64.41659858 1.29083261 -62.625 1.4375 C-61.12839844 1.55931641 -61.12839844 1.55931641 -59.6015625 1.68359375 C-57.65890046 1.85426146 -55.71652275 2.03184017 -53.77856445 2.24951172 C-38.26938781 3.96671558 -22.50809964 3.9686654 -7.23046875 0.65625 C-4 0 -4 0 0 0 Z " fill="#B3624C" transform="translate(271,723)"/>
<path d="M0 0 C0.639375 0.37125 1.27875 0.7425 1.9375 1.125 C5.76028223 2.21722349 8.06748347 1.49519976 11.81640625 0.41015625 C14.24388275 -0.04580982 15.65432935 0.33836907 18 1 C19.74162329 8.01771737 20.5768103 14.85964677 21.125 22.0625 C21.21136719 23.09955078 21.29773438 24.13660156 21.38671875 25.20507812 C21.83560058 30.82322605 22.09471373 36.36453301 22 42 C22.886875 41.773125 23.77375 41.54625 24.6875 41.3125 C28.68295698 40.9355701 29.91741045 41.50060307 33 44 C36.71189476 49.17013912 37.54589543 53.66761301 37 60 C34.08329099 65.7212369 30.07866678 68.97377774 24 71 C19.5165568 71.2518398 15.03083613 71.27087123 10.54125977 71.29516602 C9.06427404 71.30665314 7.58732875 71.32705328 6.1105957 71.35668945 C-9.19117026 71.66358201 -9.19117026 71.66358201 -16 67 C-19.12777616 63.63764063 -20.24602532 61.06598439 -20.4375 56.5625 C-20.19100417 51.3420705 -18.61142301 47.54435211 -15.8125 43.125 C-13.72323282 41.82821347 -12.31555029 41.69820154 -9.88671875 41.4296875 C-8.60410156 41.28789062 -7.32148438 41.14609375 -6 41 C-5.91959473 40.07251953 -5.83918945 39.14503906 -5.75634766 38.18945312 C-5.45205134 34.71500561 -5.14198558 31.24116973 -4.828125 27.76757812 C-4.69400949 26.27038474 -4.56212857 24.7729893 -4.43261719 23.27539062 C-4.24495809 21.11009337 -4.04900032 18.94567497 -3.8515625 16.78125 C-3.73635254 15.48251953 -3.62114258 14.18378906 -3.50244141 12.84570312 C-2.09829122 2.09829122 -2.09829122 2.09829122 0 0 Z " fill="#B3624C" transform="translate(470,377)"/>
<path d="M0 0 C0.71800781 0.29648437 1.43601562 0.59296875 2.17578125 0.8984375 C12.74607936 5.02129236 21.58840798 6.196648 32.625 3.4375 C38.85519558 1.89089407 42.86493735 1.96815941 49.09765625 3.5234375 C60.35916583 6.26433401 69.11892581 4.84856175 80 1 C80.99 0.67 81.98 0.34 83 0 C83.35191406 1.14855469 83.70382812 2.29710937 84.06640625 3.48046875 C88.45836122 17.44993322 93.05554934 31.83444059 106.125 39.9375 C113.38486658 42.60438976 121.93319767 41.66731938 129 39 C129.32613281 39.68707031 129.65226563 40.37414062 129.98828125 41.08203125 C130.42527344 41.98308594 130.86226562 42.88414062 131.3125 43.8125 C131.74175781 44.70582031 132.17101562 45.59914063 132.61328125 46.51953125 C133.88978774 48.80285976 135.1543488 50.19764854 137 52 C137 52.66 137 53.32 137 54 C137.57363281 54.27070313 138.14726563 54.54140625 138.73828125 54.8203125 C141.03690105 56.01924718 143.06790204 57.38471801 145.1875 58.875 C153.59565355 64.47129143 159.79630015 66.6866041 170 66 C170 66.66 170 67.32 170 68 C171.32 68 172.64 68 174 68 C174 70.31 174 72.62 174 75 C160.33802252 75.44793369 147.17972924 72.61478145 136.76953125 63.234375 C132.85704209 59.4672824 129.02695094 55.52563674 126 51 C126 50.34 126 49.68 126 49 C125.10539063 49.04640625 124.21078125 49.0928125 123.2890625 49.140625 C110.42562513 49.52460821 101.89121454 46.19141498 92 38 C85.52873891 31.90273474 79.4744363 24.50346104 78.6875 15.375 C78.8421875 14.199375 78.8421875 14.199375 79 13 C77.88625 13.33 76.7725 13.66 75.625 14 C64.4166178 16.6806876 52.92555625 14.09130913 42 11 C41.67 10.67 41.34 10.34 41 10 C34.74689779 10.52109185 28.58874239 11.50197502 22.41015625 12.5859375 C19 13 19 13 15.55859375 12.7890625 C11.87203755 12.60964725 9.43968441 12.62047186 6 14 C2.60548207 18.0367968 0.85514447 23.22199181 -1.13671875 28.04589844 C-4.81540926 36.37288906 -11.03374393 41.06745137 -19 45 C-19.97066406 45.49306641 -19.97066406 45.49306641 -20.9609375 45.99609375 C-27.51363535 48.88536348 -34.92405306 49 -42 49 C-43.30916605 50.52153541 -43.30916605 50.52153541 -44.625 52.5 C-51.95512539 62.545644 -60.76711882 70.56301674 -73.0703125 73.54296875 C-78.04939462 74.31970556 -82.97805166 74.23663631 -88 74 C-88.125 68.25 -88.125 68.25 -87 66 C-86.05253906 66.12181641 -86.05253906 66.12181641 -85.0859375 66.24609375 C-74.92628212 66.96341812 -66.94515634 62.75597945 -59.02734375 56.7421875 C-53.00914432 51.51282423 -48.68041623 46.59451264 -46 39 C-45.14148438 39.32226562 -44.28296875 39.64453125 -43.3984375 39.9765625 C-36.87039136 41.94247984 -29.05630859 42.32441897 -22.6875 39.5625 C-9.13101035 31.30329412 -3.9339983 14.48981981 0 0 Z " fill="#B3624C" transform="translate(437,307)"/>
<path d="M0 0 C-5.01852644 6.0968875 -10.54669475 11.54433183 -16.1875 17.0625 C-24.17675705 24.9659986 -31.36251883 32.95393453 -38 42 C-38.83667078 43.07511215 -39.67787357 44.14671184 -40.5234375 45.21484375 C-51.13959724 58.64541606 -59.99271857 72.87889542 -68 88 C-68.34772461 88.65548828 -68.69544922 89.31097656 -69.05371094 89.98632812 C-71.48169695 94.60542348 -73.76795854 99.2834713 -76 104 C-76.3599707 104.75087891 -76.71994141 105.50175781 -77.09082031 106.27539062 C-90.53600216 134.64553357 -99.93387649 165.22356755 -107.37426758 195.66967773 C-108 198 -108 198 -109 200 C-111.31042603 200.46295871 -113.59074518 200.62738692 -115.93725586 200.82568359 C-116.95831421 200.91197021 -116.95831421 200.91197021 -118 201 C-118.53833197 192.84461379 -117.31099048 186.81135095 -114.1875 179.3125 C-113.35588879 177.21804071 -112.52933758 175.12156744 -111.70703125 173.0234375 C-111.26697754 171.90291992 -110.82692383 170.78240234 -110.37353516 169.62792969 C-108.89699122 165.72792208 -107.53013134 161.80304102 -106.19921875 157.8515625 C-105.96400009 157.15449692 -105.72878143 156.45743134 -105.48643494 155.73924255 C-104.55619378 152.97448374 -103.6289962 150.20886054 -102.71664429 147.43814087 C-100.07648332 139.42929901 -97.09342538 131.79925548 -93.43319702 124.19837952 C-91.18639022 119.50603241 -89.50747638 114.83971912 -88 109.875 C-85.02607651 100.79417189 -80.89751169 92.39112341 -76.5 83.9375 C-76.18289063 83.32493347 -75.86578125 82.71236694 -75.5390625 82.08123779 C-71.84959139 74.985533 -67.93373141 68.09518735 -63.55444336 61.3984375 C-61.99207983 58.98777953 -60.51820107 56.53873294 -59.0625 54.0625 C-58.0462147 52.37225708 -57.02514162 50.68488623 -56 49 C-55.41734375 48.0409375 -54.8346875 47.081875 -54.234375 46.09375 C-50.02165079 39.44929068 -45.34486918 34.10198786 -39.671875 28.6640625 C-36.41586906 25.41757704 -33.65478587 21.91567505 -30.83984375 18.2890625 C-26.75143492 13.20242222 -22.09717268 9.04775478 -17 5 C-16.67 4.34 -16.34 3.68 -16 3 C-16.99 2.505 -16.99 2.505 -18 2 C-11.85221129 0.3722167 -6.35987804 -0.20190089 0 0 Z " fill="#96B9E1" transform="translate(386,495)"/>
<path d="M0 0 C10.8424337 -0.21684867 10.8424337 -0.21684867 15 1 C15.68035276 2.32640203 16.34483537 3.6609774 17 5 C18.18263997 6.29410718 19.41706632 7.54196483 20.6875 8.75 C23.37744422 11.36281321 25.90423552 14.0013704 28.3125 16.875 C31.0389551 20.07642579 33.97988062 22.72159305 37.1875 25.4375 C55.1854617 41.59392401 67.33009689 66.62847858 78 88 C78.37044434 88.73299316 78.74088867 89.46598633 79.12255859 90.22119141 C85.38795882 102.68848186 90.46476203 115.5604182 95.49609375 128.56640625 C98.66734048 136.75751887 102.01072044 144.86183562 105.80859375 152.78515625 C109.40848437 160.42663613 111.77346679 167.45816496 113.00195312 175.83056641 C113.83770302 181.50078782 115.33427437 186.74925598 117.23046875 192.16796875 C118.06130694 195.22562198 118.1354982 197.84616269 118 201 C115.36 200.67 112.72 200.34 110 200 C108.10409753 194.56751024 106.4364348 189.10051986 104.90625 183.5546875 C90.74302374 132.31245318 71.69389877 82.81499232 38 41 C37.27683594 40.08476563 36.55367187 39.16953125 35.80859375 38.2265625 C31.64876687 33.03236006 27.30274314 28.03355425 22.8125 23.125 C22.32539551 22.58939453 21.83829102 22.05378906 21.33642578 21.50195312 C18.90003533 18.87167451 16.43645597 16.48624542 13.63671875 14.2421875 C12.76660156 13.50226563 11.89648438 12.76234375 11 12 C11 11.34 11 10.68 11 10 C10.41734375 9.74347656 9.8346875 9.48695313 9.234375 9.22265625 C6.80289161 7.89214174 5.18264447 6.41556987 3.25 4.4375 C2.63640625 3.81746094 2.0228125 3.19742187 1.390625 2.55859375 C0 1 0 1 0 0 Z " fill="#96B8E0" transform="translate(570,495)"/>
<path d="M0 0 C0.63276855 0.11069824 1.26553711 0.22139648 1.91748047 0.33544922 C29.911158 5.20105314 55.38374626 6.89567805 83.66625977 4.06762695 C84.36209167 3.99868729 85.05792358 3.92974762 85.77484131 3.85871887 C87.68142429 3.66817832 89.58743873 3.47197326 91.4934082 3.27539062 C95.01131177 2.99911163 98.47284761 2.95256851 102 3 C101.68413536 5.61415591 101.32480769 8.20880723 100.9375 10.8125 C100.85306641 11.55048828 100.76863281 12.28847656 100.68164062 13.04882812 C100.33545905 15.23471751 99.96356154 17.00468985 99 19 C95.65234375 20.94140625 95.65234375 20.94140625 92 22 C90.84371094 22.34417969 90.84371094 22.34417969 89.6640625 22.6953125 C88.99117188 22.83710937 88.31828125 22.97890625 87.625 23.125 C86.95726562 23.27195312 86.28953125 23.41890625 85.6015625 23.5703125 C66.76343887 26.6817143 45.40260702 26.1135005 26.89624023 21.47241211 C24.71601006 20.87543555 24.71601006 20.87543555 21.25 20.6875 C16.5753761 20.20985836 12.10999785 19.14296214 7.5625 18 C6.8519043 17.82170654 6.14130859 17.64341309 5.40917969 17.4597168 C0.28170853 16.14085427 0.28170853 16.14085427 -2 15 C-2.19386644 9.47480648 -1.6461307 5.34668435 0 0 Z " fill="#769CC8" transform="translate(174,697)"/>
<path d="M0 0 C1.46670113 5.22512279 2.22577402 9.5814234 2 15 C-8.40277905 18.40695148 -18.02465426 21 -29 21 C-30.6596945 21.49437709 -32.31938052 21.98878269 -33.97900391 22.48339844 C-52.78057583 27.28940547 -74.21827423 25.97831522 -93 22 C-94.13179687 21.77957031 -95.26359375 21.55914063 -96.4296875 21.33203125 C-99 20 -99 20 -100.2421875 16.84765625 C-100.45101562 15.59855469 -100.65984375 14.34945312 -100.875 13.0625 C-101.09929688 11.81597656 -101.32359375 10.56945312 -101.5546875 9.28515625 C-102 6 -102 6 -102 3 C-101.31599121 3.05534912 -100.63198242 3.11069824 -99.92724609 3.16772461 C-94.42449599 3.61233053 -88.92147197 4.05308986 -83.41796875 4.48828125 C-79.91934918 4.76500537 -76.42167618 5.04627007 -72.92578125 5.35546875 C-50.05395516 7.25915512 -26.65127736 5.99001134 -4.30859375 0.55078125 C-2 0 -2 0 0 0 Z " fill="#769CC8" transform="translate(783,697)"/>
<path d="M0 0 C0 0.33 0 0.66 0 1 C-0.99257813 1.01417969 -1.98515625 1.02835938 -3.0078125 1.04296875 C-18.17525843 1.48099737 -29.74751702 5.89976379 -42 15 C-42.60457031 15.40863281 -43.20914063 15.81726563 -43.83203125 16.23828125 C-50.30021698 20.93155586 -54.61697557 28.78534833 -56.625 36.375 C-57.81507584 40.83778442 -59.08400834 43.27583189 -63 46 C-65.33124246 46.72725068 -67.60404881 47.23597459 -70.01171875 47.640625 C-72.06553756 47.91568717 -72.06553756 47.91568717 -74 49 C-75.55131256 49.04897736 -77.10480363 49.03672522 -78.65625 48.9921875 C-80.06777344 48.96705078 -80.06777344 48.96705078 -81.5078125 48.94140625 C-83.47156125 48.89782436 -85.43514816 48.84601293 -87.3984375 48.78515625 C-100.18310989 48.5945988 -109.37398107 52.61674527 -118.625 61.25 C-121.32160107 63.70989426 -122.8124384 64.93629983 -126.3125 66.125 C-129.10417389 65.9951547 -130.67445589 65.52054807 -133 64 C-129.08083616 54.39690263 -118.21537525 46.69664149 -109.28125 42.3359375 C-99.33085231 38.28470416 -86.71495037 35.39579735 -76.22265625 38.9375 C-73.8125 40.0625 -73.8125 40.0625 -71.76953125 41.22265625 C-69.8230549 42.31384089 -69.8230549 42.31384089 -67 41 C-66.90203125 39.96101563 -66.8040625 38.92203125 -66.703125 37.8515625 C-65.09240368 22.2375038 -60.56156241 10.83589632 -48.16796875 0.50390625 C-34.28314279 -9.12790996 -14.2414654 -8.06120683 0 0 Z " fill="#CB967F" transform="translate(502,179)"/>
<path d="M0 0 C0.99386719 0.00902344 1.98773438 0.01804688 3.01171875 0.02734375 C4.15060547 0.04474609 4.15060547 0.04474609 5.3125 0.0625 C3.00966727 3.32484636 0.71472988 5.54634543 -2.5625 7.75 C-8.15143845 11.76149974 -11.53138222 17.59414667 -13.6875 24.0625 C-13.81093222 26.80384352 -13.8726429 29.50869362 -13.875 32.25 C-13.89336914 33.34538086 -13.89336914 33.34538086 -13.91210938 34.46289062 C-13.92592335 39.66155104 -13.06992471 44.05386893 -11.6875 49.0625 C-11.25 52.75 -11.25 52.75 -11.6875 56.0625 C-14.0625 59 -14.0625 59 -16.6875 61.0625 C-17.3475 61.0625 -18.0075 61.0625 -18.6875 61.0625 C-18.58695312 62.18398438 -18.58695312 62.18398438 -18.484375 63.328125 C-18.73444129 66.69440194 -19.56865832 67.48347078 -21.9375 69.8125 C-27.99924745 76.29145274 -30.83651294 83.8002457 -30.8125 92.625 C-30.81507813 93.57503906 -30.81765625 94.52507812 -30.8203125 95.50390625 C-30.79520994 98.1837438 -30.79520994 98.1837438 -29.6875 101.0625 C-29.12411972 108.16109155 -29.12411972 108.16109155 -31.25 111.5625 C-34.50778019 113.56728781 -36.93532833 113.35112859 -40.6875 113.0625 C-41.1825 114.0525 -41.1825 114.0525 -41.6875 115.0625 C-43.78990074 108.7288525 -45.29655522 102.73225481 -45.6875 96.0625 C-45.74035156 95.36769531 -45.79320312 94.67289062 -45.84765625 93.95703125 C-46.21713676 85.13769209 -44.63999787 74.81938947 -38.6875 68.0625 C-33.86834882 63.00854099 -29.37513379 60.15347658 -22.69140625 58.08203125 C-20.540578 57.24329986 -20.540578 57.24329986 -19.7890625 55.1875 C-19.66595205 52.61165063 -20.21984211 51.47105132 -21.5 49.25 C-26.49551914 40.50333292 -27.34829087 29.8403222 -24.96484375 20.11328125 C-24.02774667 17.63585456 -22.97314938 15.37666888 -21.6875 13.0625 C-21.32527344 12.40636719 -20.96304687 11.75023437 -20.58984375 11.07421875 C-15.90849115 3.66339954 -8.65794615 -0.10185819 0 0 Z " fill="#CB9680" transform="translate(353.6875,243.9375)"/>
<path d="M0 0 C0.639375 0.66 1.27875 1.32 1.9375 2 C2.95781418 3.00052969 3.97872341 4.0004527 5 5 C5.89525391 5.92425781 5.89525391 5.92425781 6.80859375 6.8671875 C14.21628327 14.06482911 23.76007329 19.07740119 33.9375 21 C37.83541634 22.17301781 39.11989154 24.44521029 41.00610352 27.9543457 C42.00680113 29.95107053 42.97244197 31.96241253 43.9375 33.9765625 C46.42467772 39.07040001 49.788283 43.29580693 53.3125 47.70703125 C55 50 55 50 55 52 C49.35653973 55.32819452 43.64182944 56.80929543 37.1875 55.375 C34.31323077 53.56831648 32.79860345 51.8906127 31 49 C30.60612212 46.67612053 30.26513915 44.34206251 30 42 C29.34 41.34 28.68 40.68 28 40 C26.18065221 40.2059639 24.36199991 40.4232002 22.55078125 40.69140625 C8.33398847 42.41135515 8.33398847 42.41135515 3.375 39.25 C-2.87617195 33.3278371 -4.01587541 27.23277042 -4.375 18.75 C-4.28124738 12.14044062 -2.19983957 6.17722808 0 0 Z " fill="#DCAD98" transform="translate(315,424)"/>
<path d="M0 0 C0.72533936 0.11762695 1.45067871 0.23525391 2.19799805 0.35644531 C6.86229065 1.20499174 11.1336745 2.24913477 15.25 4.6875 C16.66188421 7.45041135 17.48605277 9.50992599 18.25 12.4375 C18.46527344 13.1284375 18.68054688 13.819375 18.90234375 14.53125 C20.24149919 19.18765975 20.43113073 22.88915643 19.25 27.6875 C11.92365293 31.35067354 -3.82953496 27.04747486 -12.11279297 26.12280273 C-13.63805819 25.95572479 -15.16415041 25.79605168 -16.69091797 25.64331055 C-18.93413359 25.41832377 -21.1738241 25.17069961 -23.4140625 24.91796875 C-24.09320709 24.85425583 -24.77235168 24.79054291 -25.47207642 24.72489929 C-28.71297797 24.3343212 -30.57121216 23.83059229 -33.14306641 21.7722168 C-36.72298078 17.12790066 -37.47495054 10.8878957 -38.1875 5.1875 C-37.75 2.6875 -37.75 2.6875 -36.0625 0.875 C-26.07054065 -4.25600615 -10.64942737 -1.75499526 0 0 Z " fill="#361C17" transform="translate(545.75,361.3125)"/>
<path d="M0 0 C1.11097046 0.0012085 1.11097046 0.0012085 2.24438477 0.00244141 C15.52613402 0.15113402 15.52613402 0.15113402 19.5625 4.1875 C19.84397455 10.40674713 18.06416325 17.53203051 15.5625 23.1875 C12.67613409 25.11174394 11.72256131 25.49208605 8.46166992 25.87353516 C7.22975166 26.0234642 7.22975166 26.0234642 5.97294617 26.17642212 C5.08855362 26.27546844 4.20416107 26.37451477 3.29296875 26.4765625 C2.37920975 26.58471283 1.46545074 26.69286316 0.52400208 26.80429077 C-1.40974199 27.03154748 -3.34394979 27.25488726 -5.27856445 27.47460938 C-8.22913531 27.81012742 -11.17805859 28.15789771 -14.12695312 28.5078125 C-16.00772789 28.72728881 -17.88858489 28.94606173 -19.76953125 29.1640625 C-21.08701103 29.31870468 -21.08701103 29.31870468 -22.43110657 29.47647095 C-34.46857663 30.83344892 -34.46857663 30.83344892 -38.4375 28.1875 C-39.09448694 20.8125903 -38.0974889 11.25884108 -33.4375 5.1875 C-28.39270338 2.05356917 -22.22269572 1.72530478 -16.4375 1.1875 C-15.09850348 1.0059275 -13.7599439 0.8210992 -12.421875 0.6328125 C-8.27698482 0.11655231 -4.17410118 -0.0047514 0 0 Z " fill="#361C17" transform="translate(429.4375,359.8125)"/>
<path d="M0 0 C4.86850704 4.86850704 4.36530949 12.47877625 4.375 18.9375 C4.39949219 19.79279297 4.42398438 20.64808594 4.44921875 21.52929688 C4.47665659 27.52446448 3.36235573 31.98619102 0 37 C-4.75333204 41.46525131 -9.57231493 41.14685275 -15.76953125 41.1015625 C-20.20952259 40.9619739 -24.59319947 40.54597529 -29 40 C-29.09796875 40.74765625 -29.1959375 41.4953125 -29.296875 42.265625 C-30.49395558 50.14984538 -30.49395558 50.14984538 -32.5625 53.625 C-36.94168313 56.09530843 -41.4834079 56.65722571 -46.36328125 55.3828125 C-48.27454328 54.66990837 -50.14295171 53.84411286 -52 53 C-50.20204629 48.91093956 -47.55405844 45.46490338 -44.9375 41.875 C-41.7199784 37.59313976 -41.7199784 37.59313976 -39 33 C-38.34 33 -37.68 33 -37 33 C-36.80664062 32.38511719 -36.61328125 31.77023437 -36.4140625 31.13671875 C-36.15367187 30.32847656 -35.89328125 29.52023437 -35.625 28.6875 C-35.24214844 27.48673828 -35.24214844 27.48673828 -34.8515625 26.26171875 C-34 24 -34 24 -32 21 C-29.78515625 20.04296875 -29.78515625 20.04296875 -27.0625 19.1875 C-15.85313301 15.30902964 -6.75506121 9.93391354 0 0 Z " fill="#DCAD98" transform="translate(641,424)"/>
<path d="M0 0 C0.69222656 0.12117188 1.38445312 0.24234375 2.09765625 0.3671875 C16.37948111 2.81334986 30.21729928 4.33559217 44.6875 4.625 C46.297778 4.66226141 47.90804817 4.69986253 49.51831055 4.73779297 C54.01198326 4.83978794 58.50582355 4.92379428 63 5 C64.02383789 5.01804687 65.04767578 5.03609375 66.10253906 5.0546875 C71.73803461 5.13959139 77.36500952 5.10272638 83 5 C84.15274414 4.98211426 85.30548828 4.96422852 86.49316406 4.94580078 C102.12608049 4.67476692 117.51508607 4.02395862 132.953125 1.34765625 C135.96075036 0.83681912 138.97819662 0.41790898 142 0 C141.71758359 1.46015291 141.42373386 2.91809793 141.125 4.375 C140.88136719 5.59316406 140.88136719 5.59316406 140.6328125 6.8359375 C140 9 140 9 138 11 C137.67 10.67 137.34 10.34 137 10 C135.38381228 10.39076105 133.78226372 10.84187742 132.1875 11.3125 C126.74065151 12.7232425 121.40133746 13.54061574 115.8046875 14.08984375 C114.93352798 14.17534485 114.06236847 14.26084595 113.16481018 14.34893799 C103.75302723 15.20602938 94.38170495 15.30789373 84.9375 15.25 C84.04179291 15.24723053 83.14608582 15.24446106 82.22323608 15.24160767 C56.33949054 15.14884257 30.60866023 13.94789212 5 10 C4.67 10.66 4.34 11.32 4 12 C3.32645501 10.56570999 2.66140299 9.12742943 2 7.6875 C1.62875 6.88699219 1.2575 6.08648437 0.875 5.26171875 C0 3 0 3 0 0 Z " fill="#B0604B" transform="translate(409,505)"/>
<path d="M0 0 C0.01458252 0.5576001 0.02916504 1.1152002 0.04418945 1.68969727 C0.35198422 12.27761981 0.90200527 22.42372293 3.28125 32.7734375 C4.0375599 36.16861129 4.5461607 39.55256685 5 43 C5.66 43 6.32 43 7 43 C6.67 44.32 6.34 45.64 6 47 C-10.21518904 40.79926781 -20.87998956 32.61938313 -29 17 C-30.32873693 14.02148902 -31 12.28574975 -31 9 C-30.01 8.67 -29.02 8.34 -28 8 C-26.84721835 6.72998632 -25.74792825 5.41058465 -24.6875 4.0625 C-18.30306721 -3.37270402 -8.73213983 -3.92245853 0 0 Z " fill="#CC7F69" transform="translate(342,394)"/>
<path d="M0 0 C6.06795653 4.51780917 11.38228266 9.92801742 16.01171875 15.91015625 C17.6927628 18.32019712 17.6927628 18.32019712 20.421875 19.00390625 C22.99982058 19.28453514 22.99982058 19.28453514 25.859375 18.12890625 C32.99437333 17.4257804 39.03441624 17.68291732 44.859375 22.12890625 C49.84366158 26.78930417 53.91698665 31.52478587 55.859375 38.12890625 C55.41796875 40.328125 55.41796875 40.328125 54.859375 42.12890625 C54.29089844 41.65839844 53.72242188 41.18789063 53.13671875 40.703125 C46.65187115 35.47410765 41.42232969 32.40287426 33.046875 31.44140625 C25.89555356 30.35007556 22.11487465 26.8502146 16.859375 22.12890625 C1.2447871 9.18071628 -12.44081265 2.52800753 -33.15625 3.47070312 C-42.34749962 3.68458065 -42.34749962 3.68458065 -45.4140625 0.8046875 C-47.140625 -1.87109375 -47.140625 -1.87109375 -47.140625 -4.87109375 C-33.74864168 -14.5430817 -12.6691098 -7.92675383 0 0 Z " fill="#CB967F" transform="translate(572.140625,225.87109375)"/>
<path d="M0 0 C4.99137693 0.07102865 8.52598333 0.60648006 12.875 3.25 C14.52090955 5.00325148 15.99760349 6.78635175 17.41796875 8.7265625 C19.17528674 10.56397273 20.43435575 10.7324673 22.875 11.25 C15.33562311 27.20997964 7.7806864 39.96306621 -9.125 47.25 C-10.115 47.25 -11.105 47.25 -12.125 47.25 C-11.856875 46.095 -11.58875 44.94 -11.3125 43.75 C-10.9140715 41.91722891 -10.51864394 40.08380468 -10.125 38.25 C-9.74601563 36.55617188 -9.74601563 36.55617188 -9.359375 34.828125 C-7.49296076 25.86201736 -6.68934381 17.15030395 -6.41577148 7.99316406 C-6.38942627 7.13045898 -6.36308105 6.26775391 -6.3359375 5.37890625 C-6.31837402 4.60619385 -6.30081055 3.83348145 -6.28271484 3.03735352 C-5.94834922 -0.75195099 -3.2223543 0.05268154 0 0 Z " fill="#CB7F69" transform="translate(624.125,391.75)"/>
<path d="M0 0 C3.84387356 1.86113273 7.94989002 3.94989002 11 7 C10.90903444 9.86688248 10.76232012 12.70300515 10.5625 15.5625 C10.51029297 16.36880859 10.45808594 17.17511719 10.40429688 18.00585938 C10.27422624 20.00421738 10.13770944 22.00215386 10 24 C9.29488281 23.84015625 8.58976562 23.6803125 7.86328125 23.515625 C0.16409896 22.12914197 -8.08597022 21.97053318 -15 26 C-18.25992433 28.42073589 -21.13331629 31.13331629 -24 34 C-24.58129718 23.08453079 -24.16820071 12.69880036 -17 3.875 C-11.99619054 -1.59111794 -6.92981255 -1.73491751 0 0 Z " fill="#B2614C" transform="translate(333,365)"/>
<path d="M0 0 C1.32 5.28 2.64 10.56 4 16 C-11.01431633 14.45090387 -26.00805649 12.75178078 -41 11 C-41.50471197 9.23050388 -42.00360685 7.45934777 -42.5 5.6875 C-42.7784375 4.70136719 -43.056875 3.71523438 -43.34375 2.69921875 C-44 0 -44 0 -44 -3 C-29.3345654 -5.2136505 -14.35665039 -3.5891626 0 0 Z " fill="#DCAD98" transform="translate(557,369)"/>
<path d="M0 0 C-0.47474775 2.14681531 -0.95491749 4.29243228 -1.4375 6.4375 C-1.70433594 7.63246094 -1.97117187 8.82742188 -2.24609375 10.05859375 C-3 13 -3 13 -4 14 C-6.98684131 14.44652192 -9.96274589 14.83727364 -12.9609375 15.19140625 C-13.86244537 15.30097153 -14.76395325 15.4105368 -15.69277954 15.52342224 C-17.60418618 15.75487026 -19.51584731 15.9842246 -21.42773438 16.21166992 C-24.35605532 16.5602449 -27.28353394 16.91529558 -30.2109375 17.27148438 C-32.065058 17.49517465 -33.91922328 17.71849418 -35.7734375 17.94140625 C-36.65164154 18.04763809 -37.52984558 18.15386993 -38.43466187 18.26332092 C-39.25205841 18.36019699 -40.06945496 18.45707306 -40.91162109 18.55688477 C-41.63030365 18.64269302 -42.34898621 18.72850128 -43.08944702 18.81690979 C-45 19 -45 19 -48 19 C-47.71342606 17.45737855 -47.42046123 15.91594394 -47.125 14.375 C-46.96257812 13.51648438 -46.80015625 12.65796875 -46.6328125 11.7734375 C-46.42398437 10.85820312 -46.21515625 9.94296875 -46 9 C-45.67128906 7.40478516 -45.67128906 7.40478516 -45.3359375 5.77734375 C-44 3 -44 3 -41.09375 1.79296875 C-39.9078125 1.59316406 -38.721875 1.39335937 -37.5 1.1875 C-35.60121094 0.85878906 -35.60121094 0.85878906 -33.6640625 0.5234375 C-31.85035156 0.26433594 -31.85035156 0.26433594 -30 0 C-29.10023438 -0.13148438 -28.20046875 -0.26296875 -27.2734375 -0.3984375 C-18.18891493 -1.49331481 -9.03763617 -1.39040556 0 0 Z " fill="#DCAD98" transform="translate(444,366)"/>
<path d="M0 0 C8.07529796 9.19686712 9.63971331 19.78449778 9.25 31.5625 C8.59 31.5625 7.93 31.5625 7.25 31.5625 C6.59 30.655 5.93 29.7475 5.25 28.8125 C1.75057111 24.53203915 -2.42339571 22.7772171 -7.75 21.5625 C-12.4757035 21.2582491 -17.00499467 21.37642136 -21.75 21.5625 C-22.41 15.6225 -23.07 9.6825 -23.75 3.5625 C-15.77645803 -1.75319465 -8.96907025 -4.68837763 0 0 Z " fill="#B2614B" transform="translate(638.75,366.4375)"/>
<path d="M0 0 C1.32 0.66 2.64 1.32 4 2 C3.87882812 2.96035156 3.75765625 3.92070312 3.6328125 4.91015625 C2.80647278 11.62416646 2.03527768 18.33031657 1.4921875 25.07421875 C1.3681958 26.61033813 1.3681958 26.61033813 1.24169922 28.17749023 C1.08270839 30.19860097 0.93049792 32.22025851 0.78564453 34.24243164 C0.71200684 35.17821045 0.63836914 36.11398926 0.5625 37.078125 C0.50191406 37.90731445 0.44132812 38.73650391 0.37890625 39.59082031 C-0.04798706 42.30511358 -0.81437607 44.52420167 -2 47 C-5.14534279 48.46033772 -8.58237402 48.07767332 -12 48 C-13.79840245 51.8216052 -14.61508797 54.7822539 -14 59 C-11.08507907 62.45188005 -8.94651857 64.76326125 -4.3984375 65.31640625 C-2.90183594 65.43822266 -2.90183594 65.43822266 -1.375 65.5625 C0.12933594 65.68818359 0.12933594 65.68818359 1.6640625 65.81640625 C2.43492187 65.87699219 3.20578125 65.93757813 4 66 C4.5625 67.9375 4.5625 67.9375 5 70 C3.23655058 71.76344942 0.83111557 71.25558048 -1.5625 71.3125 C-7.25977639 71.25153034 -11.44468826 70.51503622 -16 67 C-19.12777616 63.63764063 -20.24602532 61.06598439 -20.4375 56.5625 C-20.19100417 51.3420705 -18.61142301 47.54435211 -15.8125 43.125 C-13.72323282 41.82821347 -12.31555029 41.69820154 -9.88671875 41.4296875 C-8.60410156 41.28789062 -7.32148438 41.14609375 -6 41 C-5.91959473 40.07251953 -5.83918945 39.14503906 -5.75634766 38.18945312 C-5.45205134 34.71500561 -5.14198558 31.24116973 -4.828125 27.76757812 C-4.69400949 26.27038474 -4.56212857 24.7729893 -4.43261719 23.27539062 C-4.24495809 21.11009337 -4.04900032 18.94567497 -3.8515625 16.78125 C-3.73635254 15.48251953 -3.62114258 14.18378906 -3.50244141 12.84570312 C-2.09829122 2.09829122 -2.09829122 2.09829122 0 0 Z " fill="#371D17" transform="translate(470,377)"/>
<path d="M0 0 C2.0625 0.4375 2.0625 0.4375 4 1 C5.74162329 8.01771737 6.5768103 14.85964677 7.125 22.0625 C7.21136719 23.09955078 7.29773438 24.13660156 7.38671875 25.20507812 C7.83560058 30.82322605 8.09471373 36.36453301 8 42 C8.886875 41.773125 9.77375 41.54625 10.6875 41.3125 C14.68295698 40.9355701 15.91741045 41.50060307 19 44 C22.71189476 49.17013912 23.54589543 53.66761301 23 60 C20.08329099 65.7212369 16.07866678 68.97377774 10 71 C7.93854893 71.068991 5.87498599 71.08467727 3.8125 71.0625 C2.72582031 71.05347656 1.63914062 71.04445313 0.51953125 71.03515625 C-0.31191406 71.02355469 -1.14335937 71.01195312 -2 71 C-2.5625 69.0625 -2.5625 69.0625 -3 67 C-1.32199692 65.32199692 0.88704849 65.75538996 3.1875 65.625 C7.75338212 65.24549811 11.11285084 64.59143277 15 62 C17.17240606 58.74139091 17.23564158 58.17949197 16.8125 54.5 C16.73644531 53.7265625 16.66039062 52.953125 16.58203125 52.15625 C15.88814036 49.58559383 15.16076075 48.54484297 13 47 C9.44579041 47.32915888 9.44579041 47.32915888 6 48 C5.34 47.67 4.68 47.34 4 47 C1.81069416 39.41776695 1.48780589 31.27098477 0.9375 23.4375 C0.78090166 21.31112746 0.62336123 19.18482408 0.46484375 17.05859375 C0.39120605 16.04522949 0.31756836 15.03186523 0.24169922 13.98779297 C-0.0595152 10.2642959 -0.469353 6.55705204 -0.91186523 2.84790039 C-0.95549194 1.9331897 -0.95549194 1.9331897 -1 1 C-0.67 0.67 -0.34 0.34 0 0 Z " fill="#361C17" transform="translate(484,377)"/>
<path d="M0 0 C7.75 0.875 7.75 0.875 10 2 C10.01458252 2.5576001 10.02916504 3.1152002 10.04418945 3.68969727 C10.35198422 14.27761981 10.90200527 24.42372293 13.28125 34.7734375 C14.0375599 38.16861129 14.5461607 41.55256685 15 45 C15.66 45 16.32 45 17 45 C16.67 46.32 16.34 47.64 16 49 C12.04 47.35 8.08 45.7 4 44 C3.42222202 39.82400649 2.85010634 35.64792485 2.29101562 31.46948242 C2.1000888 30.05434943 1.90617864 28.63961506 1.70898438 27.2253418 C0.44158725 18.11754155 -0.28544849 9.21661629 0 0 Z " fill="#B3624C" transform="translate(332,392)"/>
<path d="M0 0 C0.639375 0.66 1.27875 1.32 1.9375 2 C2.95781418 3.00052969 3.97872341 4.0004527 5 5 C5.89525391 5.92425781 5.89525391 5.92425781 6.80859375 6.8671875 C14.21628327 14.06482911 23.76007329 19.07740119 33.9375 21 C37.83541634 22.17301781 39.11989154 24.44521029 41.00610352 27.9543457 C42.00680113 29.95107053 42.97244197 31.96241253 43.9375 33.9765625 C46.42467772 39.07040001 49.788283 43.29580693 53.3125 47.70703125 C55 50 55 50 55 52 C53.35 52.66 51.7 53.32 50 54 C45.59669673 48.51895198 42.18608728 42.94499994 39.125 36.625 C38.7228125 35.81933594 38.320625 35.01367188 37.90625 34.18359375 C35 28.28212691 35 28.28212691 35 26 C34.14341797 25.97873047 34.14341797 25.97873047 33.26953125 25.95703125 C21.35790477 25.25634734 10.15625834 20.38607807 1.2578125 12.4453125 C0 11 0 11 0 9 C-0.99 9.33 -1.98 9.66 -3 10 C-2.01 6.7 -1.02 3.4 0 0 Z " fill="#C6927C" transform="translate(315,424)"/>
<path d="M0 0 C2.40893279 2.40893279 2.76351345 3.63384045 3 7 C-2.16978742 15.72075252 -14.88391917 21.9807625 -24.375 24.5 C-28.62908895 26.05451211 -30.07613822 28.38175022 -32.07861328 32.38085938 C-33.06489642 34.50516153 -34.01852076 36.64235167 -34.97265625 38.78125 C-37.74041292 44.85620616 -41.79029837 49.85480912 -46 55 C-47.98 54.34 -49.96 53.68 -52 53 C-50.20204629 48.91093956 -47.55405844 45.46490338 -44.9375 41.875 C-41.7199784 37.59313976 -41.7199784 37.59313976 -39 33 C-38.34 33 -37.68 33 -37 33 C-36.80664062 32.38511719 -36.61328125 31.77023437 -36.4140625 31.13671875 C-36.15367187 30.32847656 -35.89328125 29.52023437 -35.625 28.6875 C-35.24214844 27.48673828 -35.24214844 27.48673828 -34.8515625 26.26171875 C-34 24 -34 24 -32 21 C-29.78515625 20.04296875 -29.78515625 20.04296875 -27.0625 19.1875 C-15.85313301 15.30902964 -6.75506121 9.93391354 0 0 Z " fill="#C6927C" transform="translate(641,424)"/>
<path d="M0 0 C4.09877076 0.21019337 7.07251584 1.47576531 10.625 3.375 C24.52616084 10.53306043 38.68888765 10.5089545 53.5078125 6.2265625 C57.54387045 4.80897615 61.18444706 3.04930448 64.8515625 0.85546875 C67.58855006 -0.23434993 69.21381926 0.20325007 72 1 C70.50202617 5.39727801 67.71713545 6.55888816 63.6875 8.5625 C48.1229653 16.08862689 31.97550098 17.19514436 15.5 12.2734375 C2.50433917 7.54510555 2.50433917 7.54510555 -0.29296875 2.8125 C-0.52628906 2.214375 -0.75960938 1.61625 -1 1 C-0.67 0.67 -0.34 0.34 0 0 Z " fill="#361C17" transform="translate(443,469)"/>
<path d="M0 0 C1.134375 0.020625 2.26875 0.04125 3.4375 0.0625 C3.79769761 10.36148353 3.24171794 20.11447703 1.50463867 30.28417969 C0.76918397 34.60688789 0.2666053 38.65484079 0.4375 43.0625 C-0.82941507 43.73658308 -2.10120749 44.40150497 -3.375 45.0625 C-4.08269531 45.43375 -4.79039062 45.805 -5.51953125 46.1875 C-7.5625 47.0625 -7.5625 47.0625 -10.5625 47.0625 C-10.294375 45.9075 -10.02625 44.7525 -9.75 43.5625 C-9.3515715 41.72972891 -8.95614394 39.89630468 -8.5625 38.0625 C-8.18351563 36.36867188 -8.18351563 36.36867188 -7.796875 34.640625 C-5.93046076 25.67451736 -5.12684381 16.96280395 -4.85327148 7.80566406 C-4.82692627 6.94295898 -4.80058105 6.08025391 -4.7734375 5.19140625 C-4.75587402 4.41869385 -4.73831055 3.64598145 -4.72021484 2.84985352 C-4.42311407 -0.51713532 -3.49905712 0.06138697 0 0 Z " fill="#AF604A" transform="translate(622.5625,391.9375)"/>
<path d="M0 0 C3.4375 1.125 3.4375 1.125 5.12890625 3.26171875 C6.71225537 6.72618116 6.83725547 9.26253594 6.8125 13.0625 C6.82023438 14.24714844 6.82796875 15.43179687 6.8359375 16.65234375 C6.39741461 20.47437171 5.52045047 22.89978636 3.4375 26.125 C-0.0625 27.1875 -0.0625 27.1875 -3.5625 27.125 C-5.68313343 25.78193216 -6.32577131 24.83350716 -7.11328125 22.4765625 C-7.73906625 19.20071408 -7.81223066 16.02088241 -7.875 12.6875 C-7.91238281 11.38941406 -7.94976563 10.09132813 -7.98828125 8.75390625 C-7.3472409 3.29036054 -5.71600445 0.20056156 0 0 Z " fill="#371D18" transform="translate(530.5625,393.875)"/>
<path d="M0 0 C3.4375 1.125 3.4375 1.125 5.1328125 3.2578125 C6.72147237 6.74905904 6.80358126 9.30012254 6.75 13.125 C6.74613281 14.32125 6.74226563 15.5175 6.73828125 16.75 C6.44699474 20.01846157 5.97666883 22.24227576 4.4375 25.125 C1.20496204 27.28002531 0.18599077 27.59356135 -3.5625 27.125 C-6.0673111 25.24639167 -6.54950625 24.16398126 -7.5625 21.125 C-7.73648206 18.48389523 -7.83929015 15.89252888 -7.875 13.25 C-7.90400391 12.54230469 -7.93300781 11.83460938 -7.96289062 11.10546875 C-8.00730342 7.43628861 -7.66439439 5.29511933 -5.765625 2.125 C-3.5625 0.125 -3.5625 0.125 0 0 Z " fill="#371D17" transform="translate(427.5625,393.875)"/>
<path d="M0 0 C2.64 0.33 5.28 0.66 8 1 C9.32 6.28 10.64 11.56 12 17 C-3.01431633 15.45090387 -18.00805649 13.75178078 -33 12 C-33.33 9.69 -33.66 7.38 -34 5 C-27.49324675 4.74974026 -27.49324675 4.74974026 -25.14550781 5.94091797 C-22.42085888 7.28588009 -19.92610324 7.62851423 -16.921875 8.0703125 C-15.76171875 8.24433594 -14.6015625 8.41835938 -13.40625 8.59765625 C-12.1996875 8.77167969 -10.993125 8.94570313 -9.75 9.125 C-8.52796875 9.30675781 -7.3059375 9.48851562 -6.046875 9.67578125 C-3.03209557 10.12328757 -0.01652585 10.56444866 3 11 C2.505 9.9275 2.01 8.855 1.5 7.75 C0.11346089 4.74583192 0 3.54065105 0 0 Z " fill="#C9957E" transform="translate(549,368)"/>
<path d="M0 0 C0.66 0.33 1.32 0.66 2 1 C0.9352014 18.0647986 0.9352014 18.0647986 -3 22 C-7.05267244 22.86227073 -10.86306492 23.03699197 -15 23 C-25.7980855 22.92634321 -36.18583172 23.75853123 -46.72143555 26.0715332 C-50.11360742 26.78888351 -52.70489761 27.2513047 -56 26 C-56.33 24.35 -56.66 22.7 -57 21 C-55.88415527 21.0218335 -54.76831055 21.04366699 -53.61865234 21.06616211 C-48.72773669 21.06341162 -43.95158872 20.5328503 -39.1015625 19.94140625 C-38.18539154 19.8327977 -37.26922058 19.72418915 -36.32528687 19.61228943 C-34.40392252 19.38337011 -32.48283222 19.15213983 -30.56201172 18.91870117 C-27.61368552 18.56112778 -24.66437819 18.21268493 -21.71484375 17.86523438 C-19.84368529 17.64116469 -17.97258914 17.41657394 -16.1015625 17.19140625 C-15.21828278 17.08719864 -14.33500305 16.98299103 -13.42495728 16.87562561 C-9.07867892 16.43275095 -9.07867892 16.43275095 -5 15 C-4.22643183 12.66469987 -3.55269974 10.3765891 -2.9375 8 C-1.11445783 1.11445783 -1.11445783 1.11445783 0 0 Z " fill="#B2624C" transform="translate(449,368)"/>
<path d="M0 0 C2.31 0 4.62 0 7 0 C6.52525225 2.14681531 6.04508251 4.29243228 5.5625 6.4375 C5.29566406 7.63246094 5.02882813 8.82742188 4.75390625 10.05859375 C4 13 4 13 3 14 C0.01315869 14.44652192 -2.96274589 14.83727364 -5.9609375 15.19140625 C-6.86244537 15.30097153 -7.76395325 15.4105368 -8.69277954 15.52342224 C-10.60418618 15.75487026 -12.51584731 15.9842246 -14.42773438 16.21166992 C-17.35605532 16.5602449 -20.28353394 16.91529558 -23.2109375 17.27148438 C-25.065058 17.49517465 -26.91922328 17.71849418 -28.7734375 17.94140625 C-29.65164154 18.04763809 -30.52984558 18.15386993 -31.43466187 18.26332092 C-32.25205841 18.36019699 -33.06945496 18.45707306 -33.91162109 18.55688477 C-34.63030365 18.64269302 -35.34898621 18.72850128 -36.08944702 18.81690979 C-38 19 -38 19 -41 19 C-40.67 16.69 -40.34 14.38 -40 12 C-39.67 12.66 -39.34 13.32 -39 14 C-38.38898438 13.81824219 -37.77796875 13.63648438 -37.1484375 13.44921875 C-28.99882922 11.21094605 -20.87446932 10.09109201 -12.47998047 9.1784668 C-11.09576904 9.01278198 -11.09576904 9.01278198 -9.68359375 8.84375 C-8.43920532 8.70743164 -8.43920532 8.70743164 -7.16967773 8.56835938 C-4.5970464 7.89444402 -3.63868279 7.06544586 -2 5 C-0.80972016 2.40084462 -0.80972016 2.40084462 0 0 Z " fill="#CB9780" transform="translate(437,366)"/>
<path d="M0 0 C1.890625 0.55078125 1.890625 0.55078125 4 2 C4.80352258 4.47952676 5.33209528 6.64319773 5.75 9.1875 C5.99234375 10.48042969 6.2346875 11.77335937 6.484375 13.10546875 C7.73275178 22.53449643 7.73275178 22.53449643 6 26 C1.74355801 26.2837628 -1.49950519 25.92909027 -5.5625 24.625 C-14.75910427 21.93578606 -24.48811701 21.6900169 -34 21 C-34.8137207 20.94070313 -35.62744141 20.88140625 -36.46582031 20.8203125 C-40.64245032 20.52134623 -44.81995027 20.24741727 -49 20 C-49 18.68 -49 17.36 -49 16 C-47.74453369 16.15146484 -46.48906738 16.30292969 -45.19555664 16.45898438 C-40.50526823 17.02341233 -35.81416892 17.580838 -31.12280273 18.13623047 C-29.09848881 18.37685494 -27.0743949 18.6193383 -25.05053711 18.86376953 C-22.12931296 19.21624425 -19.20734391 19.56186577 -16.28515625 19.90625 C-15.39103531 20.0156189 -14.49691437 20.12498779 -13.57569885 20.2376709 C-8.00954926 20.88540906 -2.60408622 21.09931921 3 21 C3.37393381 15.39099285 2.27654613 10.82410663 0.65625 5.453125 C0 3 0 3 0 0 Z " fill="#B2624C" transform="translate(562,368)"/>
<path d="M0 0 C-0.31586464 2.61415591 -0.67519231 5.20880723 -1.0625 7.8125 C-1.14693359 8.55048828 -1.23136719 9.28847656 -1.31835938 10.04882812 C-1.66466877 12.23552461 -2.03848943 14.00293086 -3 16 C-6.37109375 18.07421875 -6.37109375 18.07421875 -10 19 C-11.32 18.67 -12.64 18.34 -14 18 C-13.34 12.39 -12.68 6.78 -12 1 C-7.76358987 0.15271797 -4.27587998 -0.08384078 0 0 Z " fill="#5F88B6" transform="translate(276,700)"/>
<path d="M0 0 C3.3 0.33 6.6 0.66 10 1 C10.53580497 2.87077668 11.05298887 4.7468917 11.5625 6.625 C11.85253906 7.66914062 12.14257812 8.71328125 12.44140625 9.7890625 C13.03309337 13.19022902 12.75851802 15.65448342 12 19 C7.545 18.01 7.545 18.01 3 17 C2.49622232 14.73000175 1.99709981 12.45896997 1.5 10.1875 C1.08234375 8.29064453 1.08234375 8.29064453 0.65625 6.35546875 C0 3 0 3 0 0 Z " fill="#5F88B6" transform="translate(681,700)"/>
<path d="M0 0 C3.52775489 0.30237899 5.03808865 1.02980851 7.875 3.25 C10 6 10 6 9.8125 8.8125 C9.544375 9.534375 9.27625 10.25625 9 11 C4.70761377 9.34908222 2.1206085 6.26245434 -1 3 C-0.67 2.01 -0.34 1.02 0 0 Z " fill="#391E18" transform="translate(491,453)"/>
<path d="M0 0 C-0.30518654 3.56050965 -1.00028808 5.00035037 -3.3125 7.8125 C-6 10 -6 10 -10 10 C-9.69481346 6.43949035 -8.99971192 4.99964963 -6.6875 2.1875 C-4 0 -4 0 0 0 Z " fill="#341B16" transform="translate(466,453)"/>
<path d="M0 0 C3.07531556 0.33246655 4.61832506 0.63104756 6.875 2.8125 C8 5 8 5 7.6875 7.25 C7.460625 7.8275 7.23375 8.405 7 9 C4.28902773 8.62607279 3.17999533 8.18642373 1.25 6.1875 C0 4 0 4 0 0 Z " fill="#371D17" transform="translate(482,455)"/>
<path d="M0 0 C-0.53069061 3.82097239 -1.49701566 6.06171403 -4 9 C-5.32 8.67 -6.64 8.34 -8 8 C-7.63487253 5.2980567 -7.30130763 3.41609148 -5.6875 1.1875 C-4 0 -4 0 0 0 Z " fill="#381E18" transform="translate(475,455)"/>
</svg>
