<?xml version="1.0" encoding="UTF-8"?>
<svg version="1.1" xmlns="http://www.w3.org/2000/svg" width="320" height="320">
<path d="M0 0 C0.68980957 -0.00167175 1.37961914 -0.00334351 2.09033203 -0.00506592 C14.26050328 -0.0068336 26.01835888 0.72597965 37.71484375 4.33984375 C41.36654217 5.29692556 44.48436934 5.41701235 48.25 5.4375 C56.72033872 5.92937991 62.94078585 8.88857047 70.1875 13.25 C70.77418457 13.59095703 71.36086914 13.93191406 71.96533203 14.28320312 C81.07260092 19.60385708 88.66866419 25.88737269 96.1875 33.25 C97.09757813 34.10980469 98.00765625 34.96960938 98.9453125 35.85546875 C104.22192678 40.93519444 108.39994451 46.00053344 112.1875 52.25 C112.80109375 53.19230469 113.4146875 54.13460937 114.046875 55.10546875 C122.55180951 68.37382589 128.71691484 82.08667415 132.68798828 97.33544922 C133.14693449 99.09451872 133.63273817 100.84652349 134.12109375 102.59765625 C139.66722179 123.16344204 139.90670339 151.28757822 129.1875 170.25 C125.82499941 174.83944853 122.2169985 179.2362646 118.17578125 183.24609375 C112.49727362 188.97067446 109.42235431 195.46644538 105.9777832 202.6550293 C102.36477747 210.12190781 98.1515068 216.61208393 93.1875 223.25 C92.66671875 224.01570312 92.1459375 224.78140625 91.609375 225.5703125 C86.14131723 233.47195643 78.66757855 238.27627499 70.2421875 242.65234375 C68.07636559 243.78510738 65.93773927 244.9705697 63.8203125 246.19140625 C33.41429025 263.60784278 -3.79586258 265.67052006 -37.20458984 256.60058594 C-60.8643466 249.90194473 -82.47204135 236.31343875 -97.671875 216.86328125 C-99.79359368 214.18381857 -99.79359368 214.18381857 -102.359375 211.7109375 C-111.14743911 202.89488592 -116.02035917 191.99387117 -119.65234375 180.28613281 C-121.62866632 174.23288714 -124.49286096 168.7783749 -127.60253906 163.23608398 C-139.84476355 141.30697336 -136.17948348 113.16460149 -129.6875 89.75 C-125.4552419 75.62919533 -118.68143682 62.01063025 -109.8125 50.25 C-109.41337402 49.70085937 -109.01424805 49.15171875 -108.60302734 48.5859375 C-102.98359341 40.9302902 -98.27653722 36.37004184 -89.26171875 32.828125 C-85.18832898 30.96442232 -81.914176 28.58961553 -78.375 25.875 C-55.3488757 8.39296688 -28.78455271 0.03664542 0 0 Z M-25.8125 96.25 C-26.72 96.8275 -27.6275 97.405 -28.5625 98 C-36.13124204 105.56874204 -43.39755601 116.95112029 -43.9453125 127.90625 C-43.94273438 128.8446875 -43.94015625 129.783125 -43.9375 130.75 C-43.94007812 131.6884375 -43.94265625 132.626875 -43.9453125 133.59375 C-43.82642868 135.9714263 -43.48801722 137.97683096 -42.8125 140.25 C-42.1525 140.25 -41.4925 140.25 -40.8125 140.25 C-40.71453125 141.11625 -40.6165625 141.9825 -40.515625 142.875 C-39.30701367 148.67633437 -35.97524935 153.30820413 -32.8125 158.25 C-32.420625 158.86488281 -32.02875 159.47976562 -31.625 160.11328125 C-26.07637077 167.68144832 -15.94324934 172.81772559 -6.8125 174.25 C5.83702716 175.36695604 18.10132239 173.45459133 28.1875 165.25 C38.93241613 155.00910979 44.53066874 142.28241637 45.37890625 127.55078125 C45.04651759 121.81877264 42.85113547 117.26147911 40.1875 112.25 C39.49914062 110.90035156 39.49914062 110.90035156 38.796875 109.5234375 C33.22124546 99.38314422 24.86436076 92.77507149 13.8125 89.5625 C11.94269739 89.10329475 10.06770627 88.66455473 8.1875 88.25 C7.45660156 88.08113281 6.72570312 87.91226563 5.97265625 87.73828125 C-5.36983852 85.77393858 -16.43216602 90.207056 -25.8125 96.25 Z " fill="#673207" transform="translate(158.8125,30.75)"/>
<path d="M0 0 C0.99 0 1.98 0 3 0 C3.02578125 1.06734375 3.0515625 2.1346875 3.078125 3.234375 C4.24050082 37.55956706 16.24738091 66.16932139 40.9375 90.2421875 C68.50027029 115.62230386 104.21078019 125.00811337 140.90625 124.13183594 C165.42786452 123.08688077 190.3487448 113.48887901 210 99 C210.83660156 98.38640625 211.67320312 97.7728125 212.53515625 97.140625 C236.96750922 78.40011971 253.14909077 51.67666904 257.6640625 21.13671875 C258.34553066 14.77370788 258.69182863 8.39050101 259 2 C259.99 2 260.98 2 262 2 C263.80417887 16.24428315 263.79202423 30.71741437 261.75 44.9375 C261.64075195 45.73454346 261.53150391 46.53158691 261.41894531 47.3527832 C259.98524513 56.21369004 256.07883529 62.43128499 250.125 69 C243.03509875 76.94214002 237.42666288 84.68305928 232.6875 94.25 C224.05964911 111.11532785 213.5600576 123.41485038 197 133 C195.87851563 133.66 194.75703125 134.32 193.6015625 135 C186.98251641 138.78077619 180.28189007 141.85538525 173.0625 144.3125 C172.39661865 144.54267822 171.7307373 144.77285645 171.04467773 145.01000977 C157.95158731 149.21701549 144.85904041 150.55935869 131.1875 150.4375 C130.44676239 150.43412628 129.70602478 150.43075256 128.94284058 150.42727661 C117.24470775 150.3503473 106.19918483 149.57171454 95 146 C94.22205078 145.75862305 93.44410156 145.51724609 92.64257812 145.26855469 C62.81755196 135.77660281 35.28195356 115.62450682 20.234375 87.7265625 C17.64625677 82.32811388 15.58887595 76.85951001 13.6875 71.1875 C11.5470423 64.9334591 8.6601821 59.46383984 5.2097168 53.85620117 C-0.50351709 44.33993695 -1.44776118 35.35051932 -1.28125 24.38549805 C-1.24989665 22.30564411 -1.2402433 20.22655228 -1.234375 18.14648438 C-1.19251661 12.00714677 -0.96934087 6.0778061 0 0 Z " fill="#4F2403" transform="translate(29,137)"/>
<path d="M0 0 C0.84433594 0.27714844 1.68867188 0.55429687 2.55859375 0.83984375 C19.98550258 7.58073362 33.59371429 22.73333929 43 38.3125 C44.15406305 41.41404444 44.1164475 42.90829924 43 46 C42.01 46.99 42.01 46.99 41 48 C34.61407456 47.945486 31.65924373 45.58206366 27.25 41.4375 C26.02061182 40.33977364 24.78881802 39.24473576 23.5546875 38.15234375 C22.95237305 37.61464355 22.35005859 37.07694336 21.72949219 36.52294922 C11.69372999 27.68569843 1.54509006 22.09813947 -12.1328125 22.61328125 C-17.8026448 23.3780134 -22.64219341 25.79200911 -27.69140625 28.37890625 C-38.90509779 33.73401609 -50.00419319 32.57058502 -62 31 C-74.05834445 29.90215073 -83.48425531 34.87446606 -93 42 C-95.27756091 44.16490736 -97.13722286 46.47623742 -99 49 C-99.76763672 49.92425781 -99.76763672 49.92425781 -100.55078125 50.8671875 C-104.59691111 55.86711968 -106.82829434 60.98378839 -109 67 C-111.5390304 73.69268694 -111.5390304 73.69268694 -115 76 C-118.5625 75.8125 -118.5625 75.8125 -122 75 C-124.96872709 70.54690936 -124.60035053 66.13226362 -123.60693359 60.94921875 C-123.05359146 58.92452417 -122.40700428 56.97175497 -121.6875 55 C-121.29208008 53.91368286 -121.29208008 53.91368286 -120.88867188 52.80541992 C-112.62685619 31.49076347 -96.04756516 13.91674424 -75.3828125 4.26171875 C-71.65862536 2.62117318 -67.86268385 1.27413554 -64 0 C-62.78828125 -0.41378906 -61.5765625 -0.82757813 -60.328125 -1.25390625 C-41.56044293 -6.96413974 -18.52354104 -6.33641988 0 0 Z " fill="#7D3D0D" transform="translate(191,50)"/>
<path d="M0 0 C0.70769531 0.25523438 1.41539062 0.51046875 2.14453125 0.7734375 C14.34440045 6.01914063 22.29354351 17.46548826 28 29 C33.46919175 43.01170575 31.26542815 56.78634465 25.57421875 70.4140625 C22.9508076 75.87780768 20.1647221 80.59029425 16 85 C15.67 84.34 15.34 83.68 15 83 C15.433125 82.071875 15.86625 81.14375 16.3125 80.1875 C19.55620486 73.11979446 21.52279276 62.76378089 19.1171875 55.23828125 C14.40409669 44.13732208 10.19232182 35.82675214 0 29 C-1.175625 28.13375 -1.175625 28.13375 -2.375 27.25 C-6.73679936 25.17295269 -11.30194727 24.06862781 -16 23 C-16.73347656 22.82984375 -17.46695313 22.6596875 -18.22265625 22.484375 C-29.39080715 20.56387055 -40.85069752 24.781713 -50 31 C-50.55300781 31.556875 -51.10601562 32.11375 -51.67578125 32.6875 C-53 34 -53 34 -55 34 C-55.27070312 34.56589844 -55.54140625 35.13179687 -55.8203125 35.71484375 C-57.04873605 38.09440593 -58.43827898 40.30320036 -59.875 42.5625 C-66.22477258 53.23883331 -67.59338746 61.78610807 -67 74 C-66.34 74 -65.68 74 -65 74 C-63.68 77.63 -62.36 81.26 -61 85 C-66.4541504 83.18194987 -69.33041087 76.74805625 -72.0703125 71.87792969 C-74.27489943 67.42475672 -74.75934252 62.90005369 -75 58 C-75.06703125 57.08605469 -75.1340625 56.17210937 -75.203125 55.23046875 C-75.88684934 38.16177901 -67.62248501 21.99032563 -56.49609375 9.4921875 C-52.9394525 5.9411122 -49.49954682 3.24234841 -45 1 C-44.17757812 0.59007813 -43.35515625 0.18015625 -42.5078125 -0.2421875 C-29.82585924 -5.45148841 -12.73542851 -4.71682537 0 0 Z " fill="#4F2403" transform="translate(183,97)"/>
<path d="M0 0 C3.375 1.125 3.375 1.125 5.05859375 3.2265625 C8.87010348 11.61866998 6.79826796 23.4305052 3.8203125 31.84375 C-4.69665469 51.17956741 -18.92836381 66.82049986 -38.625 75.125 C-42.80961619 76.42808497 -47.03596161 77.42295196 -51.3125 78.375 C-52.40111328 78.63023437 -53.48972656 78.88546875 -54.61132812 79.1484375 C-62.56446959 80.98563735 -70.20857666 82.27949729 -78.39453125 82.29296875 C-79.47609749 82.29796135 -79.47609749 82.29796135 -80.57951355 82.30305481 C-82.09637826 82.30808694 -83.6132539 82.31046429 -85.13012695 82.31030273 C-87.42092619 82.31248422 -89.71123909 82.33066565 -92.00195312 82.34960938 C-102.38640375 82.39154422 -111.75230427 82.05799776 -121.125 77.125 C-122.62546875 76.3515625 -122.62546875 76.3515625 -124.15625 75.5625 C-126.625 74.125 -126.625 74.125 -128.625 72.125 C-128.06944444 67.56944444 -128.06944444 67.56944444 -126.625 66.125 C-125.14588785 66.02584373 -123.66211816 65.99420206 -122.1796875 65.9921875 C-121.26703125 65.99089844 -120.354375 65.98960937 -119.4140625 65.98828125 C-117.97160156 65.99408203 -117.97160156 65.99408203 -116.5 66 C-115.5615625 65.99613281 -114.623125 65.99226563 -113.65625 65.98828125 C-109.80582257 65.99367401 -106.12214175 66.05121925 -102.30859375 66.6171875 C-96.49036734 67.41927598 -90.67864769 67.35044261 -84.8125 67.375 C-83.59240234 67.395625 -82.37230469 67.41625 -81.11523438 67.4375 C-70.92282456 67.48131477 -61.25944272 66.52420099 -53.625 59.125 C-51.66046033 56.68276276 -50.00412452 54.11206589 -48.375 51.4375 C-43.97497287 44.35831525 -43.97497287 44.35831525 -40.625 42.125 C-39.065443 41.95048474 -37.50216843 41.80785911 -35.9375 41.6875 C-29.82466187 40.51756215 -28.05801501 37.209173 -24.67016602 32.2956543 C-20.73603616 26.19650848 -17.19521542 19.88891474 -13.65039062 13.55859375 C-6.04469336 0.2084377 -6.04469336 0.2084377 0 0 Z " fill="#7D3E0D" transform="translate(249.625,164.875)"/>
<path d="M0 0 C0.75390625 2.63671875 0.75390625 2.63671875 1 5 C-2.48248664 6.21164858 -4.43071042 5.7402586 -7.875 4.5625 C-22.54322502 0.36046206 -36.02996996 4.21899904 -49.8125 9.6875 C-55.36090206 11.7665852 -60.09826943 12.33117482 -65.9375 12.4375 C-75.93780049 12.62114848 -84.60038314 15.40025543 -93 21 C-95.6875 21.125 -95.6875 21.125 -98 21 C-98.8125 19.3125 -98.8125 19.3125 -99 17 C-79.84321791 -3.96140648 -25.84221509 -19.3963111 0 0 Z " fill="#8F4B18" transform="translate(197,59)"/>
<path d="M0 0 C2.125 0.9375 2.125 0.9375 4 2 C3.3538887 14.27611479 -10.16506101 30.15327094 -18.96875 38.328125 C-28.46654207 46.14553848 -40.60346545 50.50048121 -53 50 C-53 48.68 -53 47.36 -53 46 C-52.01 45.72027344 -51.02 45.44054687 -50 45.15234375 C-40.53211314 42.33439186 -33.44144544 39.42288372 -27.9375 30.75 C-26 28 -26 28 -22.69140625 26.703125 C-18.67341878 25.084502 -16.46345211 22.47769518 -14 19 C-13.57847656 18.43055664 -13.15695313 17.86111328 -12.72265625 17.27441406 C-9.36822027 12.68373078 -6.3042429 7.91955791 -3.375 3.046875 C-2 1 -2 1 0 0 Z " fill="#8F4B18" transform="translate(237,190)"/>
</svg>
