<?xml version="1.0" encoding="UTF-8"?>
<svg version="1.1" xmlns="http://www.w3.org/2000/svg" width="320" height="320">
<path d="M0 0 C0.68980957 -0.00167175 1.37961914 -0.00334351 2.09033203 -0.00506592 C14.26050328 -0.0068336 26.01835888 0.72597965 37.71484375 4.33984375 C41.36654217 5.29692556 44.48436934 5.41701235 48.25 5.4375 C56.72033872 5.92937991 62.94078585 8.88857047 70.1875 13.25 C70.77418457 13.59095703 71.36086914 13.93191406 71.96533203 14.28320312 C81.07260092 19.60385708 88.66866419 25.88737269 96.1875 33.25 C97.09757813 34.10980469 98.00765625 34.96960938 98.9453125 35.85546875 C104.22192678 40.93519444 108.39994451 46.00053344 112.1875 52.25 C112.80109375 53.19230469 113.4146875 54.13460937 114.046875 55.10546875 C122.55180951 68.37382589 128.71691484 82.08667415 132.68798828 97.33544922 C133.14693449 99.09451872 133.63273817 100.84652349 134.12109375 102.59765625 C139.66722179 123.16344204 139.90670339 151.28757822 129.1875 170.25 C125.82499941 174.83944853 122.2169985 179.2362646 118.17578125 183.24609375 C112.49727362 188.97067446 109.42235431 195.46644538 105.9777832 202.6550293 C102.36477747 210.12190781 98.1515068 216.61208393 93.1875 223.25 C92.66671875 224.01570312 92.1459375 224.78140625 91.609375 225.5703125 C86.14131723 233.47195643 78.66757855 238.27627499 70.2421875 242.65234375 C68.07636559 243.78510738 65.93773927 244.9705697 63.8203125 246.19140625 C33.41429025 263.60784278 -3.79586258 265.67052006 -37.20458984 256.60058594 C-60.8643466 249.90194473 -82.47204135 236.31343875 -97.671875 216.86328125 C-99.79359368 214.18381857 -99.79359368 214.18381857 -102.359375 211.7109375 C-111.14743911 202.89488592 -116.02035917 191.99387117 -119.65234375 180.28613281 C-121.62866632 174.23288714 -124.49286096 168.7783749 -127.60253906 163.23608398 C-139.84476355 141.30697336 -136.17948348 113.16460149 -129.6875 89.75 C-125.4552419 75.62919533 -118.68143682 62.01063025 -109.8125 50.25 C-109.41337402 49.70085937 -109.01424805 49.15171875 -108.60302734 48.5859375 C-102.98359341 40.9302902 -98.27653722 36.37004184 -89.26171875 32.828125 C-85.18832898 30.96442232 -81.914176 28.58961553 -78.375 25.875 C-55.3488757 8.39296688 -28.78455271 0.03664542 0 0 Z M-25.8125 96.25 C-26.72 96.8275 -27.6275 97.405 -28.5625 98 C-36.13124204 105.56874204 -43.39755601 116.95112029 -43.9453125 127.90625 C-43.94273438 128.8446875 -43.94015625 129.783125 -43.9375 130.75 C-43.94007812 131.6884375 -43.94265625 132.626875 -43.9453125 133.59375 C-43.82642868 135.9714263 -43.48801722 137.97683096 -42.8125 140.25 C-42.1525 140.25 -41.4925 140.25 -40.8125 140.25 C-40.71453125 141.11625 -40.6165625 141.9825 -40.515625 142.875 C-39.30701367 148.67633437 -35.97524935 153.30820413 -32.8125 158.25 C-32.420625 158.86488281 -32.02875 159.47976562 -31.625 160.11328125 C-26.07637077 167.68144832 -15.94324934 172.81772559 -6.8125 174.25 C5.83702716 175.36695604 18.10132239 173.45459133 28.1875 165.25 C38.93241613 155.00910979 44.53066874 142.28241637 45.37890625 127.55078125 C45.04651759 121.81877264 42.85113547 117.26147911 40.1875 112.25 C39.49914062 110.90035156 39.49914062 110.90035156 38.796875 109.5234375 C33.22124546 99.38314422 24.86436076 92.77507149 13.8125 89.5625 C11.94269739 89.10329475 10.06770627 88.66455473 8.1875 88.25 C7.45660156 88.08113281 6.72570312 87.91226563 5.97265625 87.73828125 C-5.36983852 85.77393858 -16.43216602 90.207056 -25.8125 96.25 Z " fill="#FE8B9F" transform="translate(158.8125,30.75)"/>
<path d="M0 0 C1 3 1 3 -0.44140625 6.23046875 C-1.14204656 7.55288503 -1.84956382 8.87167187 -2.5625 10.1875 C-13.0331734 30.39929505 -18.1745325 51.15359948 -18.1875 73.9375 C-18.19974609 75.06607422 -18.21199219 76.19464844 -18.22460938 77.35742188 C-18.24206157 87.35752943 -16.88408173 95.1137189 -12.1875 103.9375 C-11.83292725 104.62481201 -11.47835449 105.31212402 -11.11303711 106.02026367 C-10.40779015 107.38699027 -9.69867839 108.75173086 -8.98535156 110.11425781 C-7.65136343 112.66721231 -6.35368682 115.23767715 -5.0625 117.8125 C-4.68222656 118.56144531 -4.30195312 119.31039062 -3.91015625 120.08203125 C-3 122 -3 122 -2 125 C-2.55777749 120.15614288 -4.00551946 116.56330609 -6.25 112.25 C-6.56283936 111.64019287 -6.87567871 111.03038574 -7.19799805 110.40209961 C-8.1243701 108.59746334 -9.06201632 106.79862833 -10 105 C-10.94282563 103.19026457 -11.88105644 101.37811984 -12.8125 99.5625 C-13.19019531 98.84191406 -13.56789063 98.12132812 -13.95703125 97.37890625 C-16.3762082 91.86100827 -17.25071978 86.78190922 -17.23046875 80.78125 C-17.22978142 79.78889343 -17.22978142 79.78889343 -17.2290802 78.77648926 C-17.22608106 77.38824654 -17.21826576 76.00000648 -17.20581055 74.61181641 C-17.18754691 72.50541037 -17.18530142 70.39944582 -17.18554688 68.29296875 C-17.16313051 62.10111996 -16.98426784 56.13044228 -16 50 C-15.01 50 -14.02 50 -13 50 C-12.96132813 51.60101563 -12.96132813 51.60101563 -12.921875 53.234375 C-11.75783497 87.60871142 0.27885957 116.05385932 24.8984375 140.22265625 C36.65189958 151.06161718 49.91304546 158.41857118 64.8125 164 C65.51101074 164.26200195 66.20952148 164.52400391 66.92919922 164.79394531 C71.5031053 166.49080213 76.09106261 168.0364725 80.7890625 169.359375 C82.51150279 169.85845664 84.21560489 170.42097458 85.91015625 171.0078125 C115.57555436 180.53374312 151.03153224 172.63629345 178.125 159.0703125 C183.72353976 156.14730279 188.9191994 152.74607649 194 149 C194.83660156 148.38640625 195.67320312 147.7728125 196.53515625 147.140625 C220.96750922 128.40011971 237.14909077 101.67666904 241.6640625 71.13671875 C242.34553066 64.77370788 242.69182863 58.39050101 243 52 C243.99 52 244.98 52 246 52 C245.77183594 50.86820313 245.54367187 49.73640625 245.30859375 48.5703125 C245.01787999 47.08861013 244.72753447 45.60683548 244.4375 44.125 C244.28603516 43.37863281 244.13457031 42.63226563 243.97851562 41.86328125 C242.88671875 36.2265625 242.88671875 36.2265625 244 34 C252.44171194 58.11917698 255.34734575 87.58832973 244.38671875 111.546875 C241.15031059 117.27212663 236.64496032 122.37558306 231.98828125 126.99609375 C226.30977362 132.72067446 223.23485431 139.21644538 219.7902832 146.4050293 C216.17727747 153.87190781 211.9640068 160.36208393 207 167 C206.47921875 167.76570312 205.9584375 168.53140625 205.421875 169.3203125 C199.95381723 177.22195643 192.48007855 182.02627499 184.0546875 186.40234375 C181.88886559 187.53510738 179.75023927 188.7205697 177.6328125 189.94140625 C147.22679025 207.35784278 110.01663742 209.42052006 76.60791016 200.35058594 C52.9481534 193.65194473 31.34045865 180.06343875 16.140625 160.61328125 C14.01890632 157.93381857 14.01890632 157.93381857 11.453125 155.4609375 C2.66506089 146.64488592 -2.20785917 135.74387117 -5.83984375 124.03613281 C-7.81616632 117.98288714 -10.68036096 112.5283749 -13.79003906 106.98608398 C-26.03435444 85.05322801 -22.36168738 56.91840952 -15.875 33.5 C-12.38066795 21.74937025 -7.05987944 10.03751566 0 0 Z " fill="#EE7287" transform="translate(45,87)"/>
<path d="M0 0 C7.4839827 5.86083321 13.54205139 12.06624473 19.1875 19.6875 C19.84419678 20.55411255 19.84419678 20.55411255 20.51416016 21.43823242 C23.35706914 25.41188226 24.61147777 28.60808629 24.75 33.625 C24.09 34.615 23.43 35.605 22.75 36.625 C16.80536571 36.28060053 13.62409728 34.44475423 9.375 30.5 C8.23524897 29.49380082 7.09462196 28.48859304 5.953125 27.484375 C5.13038086 26.74864258 5.13038086 26.74864258 4.29101562 25.99804688 C-5.19735447 17.54389709 -15.44987949 11.19076584 -28.47265625 11.34375 C-35.34768791 12.03995574 -41.49339768 15.18240825 -47.5625 18.3125 C-56.26263442 22.75802323 -65.53047064 22.16555924 -75.03515625 20.86328125 C-88.25450996 19.44109328 -98.22917239 21.76407004 -108.953125 29.6875 C-113.42863479 33.46275996 -117.01124762 37.76687143 -120.25 42.625 C-120.91 42.625 -121.57 42.625 -122.25 42.625 C-123.46483696 45.56953339 -124.57719986 48.53335125 -125.6171875 51.54296875 C-125.86339844 52.23970703 -126.10960938 52.93644531 -126.36328125 53.65429688 C-126.87392002 55.10110672 -127.37382886 56.55174554 -127.86328125 58.00585938 C-129.74812284 63.25509438 -129.74812284 63.25509438 -132.28515625 65.125 C-135.65120173 65.98156823 -138.10786396 65.29452802 -141.0625 63.5625 C-143.08311509 60.26570697 -142.82117234 57.30466794 -142.25 53.625 C-136.51201451 30.72618754 -122.02064762 11.42403298 -102.25 -1.375 C-71.80036026 -19.37374394 -29.11100744 -21.06288334 0 0 Z " fill="#FEABB7" transform="translate(209.25,60.375)"/>
<path d="M0 0 C0.70769531 0.25523438 1.41539062 0.51046875 2.14453125 0.7734375 C14.34440045 6.01914063 22.29354351 17.46548826 28 29 C33.41848954 42.88181006 31.29574784 56.69274705 25.6796875 70.16796875 C20.96004673 79.92963013 15.38509664 89.99947864 8 98 C7.44828125 98.63421875 6.8965625 99.2684375 6.328125 99.921875 C3.32175701 102.60541152 0.15689323 104.05787476 -3.5 105.6875 C-4.16386719 105.99494141 -4.82773438 106.30238281 -5.51171875 106.61914062 C-11.77780698 109.47702717 -16.64575824 110.15991125 -23.5 110.125 C-24.63888672 110.13080078 -24.63888672 110.13080078 -25.80078125 110.13671875 C-29.37014456 110.13046768 -32.56731602 109.96340936 -36 109 C-36 108.34 -36 107.68 -36 107 C-36.94875 107.020625 -37.8975 107.04125 -38.875 107.0625 C-42 107 -42 107 -44 106 C-44 105.34 -44 104.68 -44 104 C-44.721875 103.9175 -45.44375 103.835 -46.1875 103.75 C-51.95883242 102.21097802 -55.43638138 97.59273257 -58.9375 93 C-59.3720752 92.4332959 -59.80665039 91.8665918 -60.25439453 91.28271484 C-63.69373412 86.67090221 -66.33590825 81.87096885 -68.75390625 76.64453125 C-69.81400717 74.3947246 -70.96704209 72.39532631 -72.3125 70.3125 C-74.45185957 66.1130164 -74.8293885 62.65843563 -75 58 C-75.03996094 57.10796875 -75.07992187 56.2159375 -75.12109375 55.296875 C-75.53561929 37.83803477 -67.79966473 21.6128381 -56 9 C-40.97360524 -4.77052306 -18.89423404 -6.99786446 0 0 Z M-50 30 C-50.9075 30.5775 -51.815 31.155 -52.75 31.75 C-60.31874204 39.31874204 -67.58505601 50.70112029 -68.1328125 61.65625 C-68.13023438 62.5946875 -68.12765625 63.533125 -68.125 64.5 C-68.12757812 65.4384375 -68.13015625 66.376875 -68.1328125 67.34375 C-68.01392868 69.7214263 -67.67551722 71.72683096 -67 74 C-66.34 74 -65.68 74 -65 74 C-64.90203125 74.86625 -64.8040625 75.7325 -64.703125 76.625 C-63.49451367 82.42633437 -60.16274935 87.05820413 -57 92 C-56.608125 92.61488281 -56.21625 93.22976562 -55.8125 93.86328125 C-50.26387077 101.43144832 -40.13074934 106.56772559 -31 108 C-18.35047284 109.11695604 -6.08617761 107.20459133 4 99 C14.74491613 88.75910979 20.34316874 76.03241637 21.19140625 61.30078125 C20.85901759 55.56877264 18.66363547 51.01147911 16 46 C15.31164062 44.65035156 15.31164062 44.65035156 14.609375 43.2734375 C9.03374546 33.13314422 0.67686076 26.52507149 -10.375 23.3125 C-12.24480261 22.85329475 -14.11979373 22.41455473 -16 22 C-16.73089844 21.83113281 -17.46179688 21.66226563 -18.21484375 21.48828125 C-29.55733852 19.52393858 -40.61966602 23.957056 -50 30 Z " fill="#EE7186" transform="translate(183,97)"/>
<path d="M0 0 C2.6084777 0.93637661 3.76055881 1.69497646 5.4375 3.875 C9.08498252 14.81744756 5.7335931 26.60155445 1.15234375 36.7109375 C-8.28290635 55.05579703 -22.82456731 69.49408666 -42.5625 76.125 C-44.885509 76.74817846 -47.22065035 77.32685546 -49.5625 77.875 C-50.28775879 78.05546875 -51.01301758 78.2359375 -51.76025391 78.421875 C-63.90792482 81.36736801 -75.85581916 82.25214582 -88.3125 82.25 C-89.33979721 82.25271912 -89.33979721 82.25271912 -90.3878479 82.25549316 C-101.49861569 82.25215795 -111.13264228 81.52360026 -121.125 76.5 C-121.73923828 76.20867187 -122.35347656 75.91734375 -122.98632812 75.6171875 C-125.54267379 74.32912825 -127.27782857 73.44001326 -128.58984375 70.8359375 C-128.5625 68.875 -128.5625 68.875 -126.5625 65.875 C-124.54833984 65.6262207 -124.54833984 65.6262207 -122.0234375 65.80078125 C-121.06566406 65.85588867 -120.10789063 65.91099609 -119.12109375 65.96777344 C-118.07050781 66.0402832 -117.01992187 66.11279297 -115.9375 66.1875 C-106.17941215 66.71004849 -96.44129122 67.05609702 -86.67022705 67.11019897 C-85.27787835 67.11997642 -83.88555717 67.13567302 -82.49334717 67.15762329 C-72.0398253 67.31799393 -63.12379958 66.66253104 -54.64453125 60.08984375 C-51.82748433 57.09309778 -49.92689886 53.69900165 -47.8125 50.1875 C-43.65534085 43.34814565 -43.65534085 43.34814565 -39.50390625 41.55078125 C-37.44354336 41.18809565 -35.37816118 40.85269643 -33.30859375 40.546875 C-29.12741845 39.52388474 -27.66901223 37.34191582 -25.3359375 33.859375 C-24.75070313 32.87453125 -24.16546875 31.8896875 -23.5625 30.875 C-23.18383789 30.24658203 -22.80517578 29.61816406 -22.41503906 28.97070312 C-20.23997142 25.35408012 -18.10324845 21.71681931 -15.9921875 18.0625 C-13.93775995 14.51028697 -11.84908104 10.98821662 -9.6875 7.5 C-9.17445313 6.66726562 -8.66140625 5.83453125 -8.1328125 4.9765625 C-5.81004898 1.86798844 -4.00045183 -0.19514399 0 0 Z " fill="#FEACB7" transform="translate(249.5625,165.125)"/>
<path d="M0 0 C0.99 0.99 0.99 0.99 2 2 C1.625 4.125 1.625 4.125 1 6 C-3.47990931 5.59273552 -7.16551672 4.60029943 -11.375 3 C-19.5772295 0.20753242 -29.53414238 -1.68399791 -37.9921875 0.921875 C-40.46331487 2.11690516 -40.46331487 2.11690516 -42.53125 3.48046875 C-50.13433739 8.16021716 -55.86111544 9.44457099 -64.75 8.9375 C-75.13147711 8.62738475 -82.68785103 10.02915258 -91.6328125 15.65625 C-94.57771053 17.32794129 -96.66812813 17.23245618 -100 17 C-100.43359375 14.8046875 -100.43359375 14.8046875 -100 12 C-97.6894482 10.06572918 -95.63614338 8.62869507 -93.0625 7.125 C-92.34247803 6.69300293 -91.62245605 6.26100586 -90.88061523 5.81591797 C-62.99337327 -10.45340059 -29.70554526 -14.8275557 0 0 Z " fill="#FFC6CE" transform="translate(198,62)"/>
<path d="M0 0 C0.99 0.33 1.98 0.66 3 1 C4.27472038 12.26003002 -3.19676422 20.79461639 -9.796875 29.28515625 C-16.05999149 37.0030037 -26.60296634 47.62640816 -37 49 C-38.85161729 49.11555812 -40.70732319 49.17487975 -42.5625 49.1875 C-43.98755859 49.20876953 -43.98755859 49.20876953 -45.44140625 49.23046875 C-48 49 -48 49 -51 47 C-50.875 45.125 -50.875 45.125 -50 43 C-47.29143869 41.78114741 -44.65650823 41.12266936 -41.7421875 40.578125 C-35.48370787 39.38749765 -35.48370787 39.38749765 -31 35 C-29.98377342 33.00819591 -28.98287008 31.00847365 -28 29 C-25.68204273 26.10255342 -23.90312839 25.63131928 -20.3125 25 C-12.27019424 22.7523687 -9.12565596 15.71410911 -5.20703125 8.8671875 C-4.1599021 6.96195965 -3.13163926 5.04615073 -2.12890625 3.1171875 C-1 1 -1 1 0 0 Z " fill="#FFC6CE" transform="translate(236,192)"/>
<path d="M0 0 C1.86328125 0.16015625 1.86328125 0.16015625 4 1 C5.60546875 2.93359375 5.60546875 2.93359375 7.1875 5.4375 C10.98544041 11.12226369 15.30982224 16.03908193 20 21 C20.68707031 21.75152344 21.37414062 22.50304687 22.08203125 23.27734375 C34.81111649 36.71491239 51.09730738 45.91079946 68.5 51.8125 C69.31734619 52.09053467 70.13469238 52.36856934 70.97680664 52.6550293 C83.53263395 56.69597107 95.66022755 58.50698559 108.77905273 58.39111328 C110.93342595 58.37503041 113.08591724 58.39107201 115.24023438 58.41015625 C128.49291287 58.43039768 140.98210066 56.47776397 153.44921875 51.76953125 C156.10238012 50.9691135 158.24568972 50.85608108 161 51 C161 51.66 161 52.32 161 53 C124.39955095 65.41442235 87.94020906 65.78455092 52.421875 49.34375 C36.95268307 41.42232804 23.03459277 30.4197995 12 17 C11.24460937 16.08605469 10.48921875 15.17210937 9.7109375 14.23046875 C6.1075205 9.84650703 2.54015525 5.43518321 -1 1 C-0.67 0.67 -0.34 0.34 0 0 Z " fill="#FC889C" transform="translate(49,228)"/>
<path d="M0 0 C4.11772764 1.53369088 5.82294255 4.16320641 8.3125 7.6875 C11.35563011 11.90541403 14.4707133 15.76838654 18.296875 19.3046875 C20 21 20 21 22.328125 23.890625 C38.93257308 44.03893315 69.97064637 55.81311859 95.19140625 58.75683594 C116.27837133 60.58251546 135.80232821 58.74101572 155.8046875 51.98828125 C159 51 159 51 162 51 C162 50.34 162 49.68 162 49 C161.34 48.67 160.68 48.34 160 48 C164.75 46.875 164.75 46.875 167 48 C167 47.01 167 46.02 167 45 C169.76264289 44.40267181 172.16032769 44 175 44 C177.02792359 42.91254793 177.02792359 42.91254793 179.0625 41.5 C182.79166667 39 182.79166667 39 185 39 C185 39.66 185 40.32 185 41 C173.21889505 47.86234413 161.70355733 53.67872424 148.625 57.6875 C147.97797119 57.89020508 147.33094238 58.09291016 146.66430664 58.30175781 C115.79275066 67.3299829 78.71498186 63.17928996 50.25 48.25 C35.95251606 40.40919896 23.20035273 30.48600693 13.140625 17.61328125 C10.91132882 14.89174997 8.4921223 12.48016011 6 10 C4.86281254 8.63093484 3.75403087 7.23729705 2.6875 5.8125 C2.17574219 5.13832031 1.66398437 4.46414062 1.13671875 3.76953125 C0 2 0 2 0 0 Z " fill="#AE5D5E" transform="translate(48,230)"/>
<path d="M0 0 C1 3 1 3 -0.44140625 6.23046875 C-1.14204656 7.55288503 -1.84956382 8.87167187 -2.5625 10.1875 C-13.0331734 30.39929505 -18.1745325 51.15359948 -18.1875 73.9375 C-18.19974609 75.06607422 -18.21199219 76.19464844 -18.22460938 77.35742188 C-18.24206386 87.35884306 -16.88238044 95.11213301 -12.1875 103.9375 C-11.65237793 104.97934448 -11.65237793 104.97934448 -11.10644531 106.04223633 C-9.59838281 108.97476963 -8.05928683 111.88916613 -6.50390625 114.796875 C-3.13779786 121.21450221 -0.53394118 127.89805154 1 135 C0.67 135.99 0.34 136.98 0 138 C-2.84284639 135.15715361 -3.4258173 131.69726657 -4.5625 127.9375 C-6.92746515 120.43772252 -9.97356686 113.67683934 -13.84008789 106.83569336 C-26.11825215 85.04418149 -22.32584893 56.78902458 -15.875 33.5 C-12.38066795 21.74937025 -7.05987944 10.03751566 0 0 Z " fill="#B15F63" transform="translate(45,87)"/>
<path d="M0 0 C5.76468285 -0.19967058 10.52198008 0.42491006 16.0625 1.9375 C21.69615798 3.39894844 26.83178551 4.20247614 32.6875 4.3125 C40.95236494 4.70564897 47.01694973 7.79725638 54 12 C54.58668457 12.34095703 55.17336914 12.68191406 55.77783203 13.03320312 C64.88510092 18.35385708 72.48116419 24.63737269 80 32 C80.91007812 32.85980469 81.82015625 33.71960938 82.7578125 34.60546875 C88.03442678 39.68519444 92.21244451 44.75053344 96 51 C96.61359375 51.94230469 97.2271875 52.88460937 97.859375 53.85546875 C101.8092237 60.01753891 105.2735594 66.27998628 108.4375 72.875 C108.95062744 73.926875 108.95062744 73.926875 109.47412109 75 C111.51868144 79.37837655 112.5536504 83.18445359 113 88 C111.31113418 85.46670128 110.4862616 83.73355163 109.5 80.9375 C102.86010907 64.04046412 92.40048103 49.12740578 80 36 C79.31421875 35.24976563 78.6284375 34.49953125 77.921875 33.7265625 C66.73221575 21.91525551 49.05790356 8.31266234 32.375 7.6875 C24.9574021 7.31368825 18.04827606 5.78746835 10.875 3.9375 C7.22482276 3.0543926 3.71879624 2.46484953 0 2 C0 1.34 0 0.68 0 0 Z " fill="#AF5E60" transform="translate(175,32)"/>
<path d="M0 0 C1.01725914 0.00212242 1.01725914 0.00212242 2.05506897 0.00428772 C4.19431203 0.0098288 6.3334455 0.02236972 8.47265625 0.03515625 C9.93424327 0.04017889 11.39583194 0.04474045 12.85742188 0.04882812 C16.41670151 0.0597788 19.97591816 0.0770018 23.53515625 0.09765625 C23.53515625 0.42765625 23.53515625 0.75765625 23.53515625 1.09765625 C13.63515625 1.09765625 3.73515625 1.09765625 -6.46484375 1.09765625 C-6.46484375 1.75765625 -6.46484375 2.41765625 -6.46484375 3.09765625 C-7.50640625 3.25621094 -8.54796875 3.41476563 -9.62109375 3.578125 C-30.54256033 6.91482312 -49.72714088 13.54697664 -66.828125 26.3125 C-69.46484375 28.09765625 -69.46484375 28.09765625 -71.6953125 28.6015625 C-72.57123047 28.84712891 -72.57123047 28.84712891 -73.46484375 29.09765625 C-73.76648438 29.7215625 -74.068125 30.34546875 -74.37890625 30.98828125 C-75.91588264 33.97377495 -77.80177832 34.52817475 -80.83984375 35.84765625 C-81.79632813 36.275625 -82.7528125 36.70359375 -83.73828125 37.14453125 C-86.46484375 38.09765625 -86.46484375 38.09765625 -90.46484375 38.09765625 C-90.46484375 37.43765625 -90.46484375 36.77765625 -90.46484375 36.09765625 C-89.42650391 35.74767578 -89.42650391 35.74767578 -88.3671875 35.390625 C-81.81338898 32.94698207 -76.62545218 30.00687661 -71.08984375 25.78515625 C-50.9323945 10.46333537 -25.64815418 -0.10642388 0 0 Z " fill="#AE5E60" transform="translate(151.46484375,30.90234375)"/>
<path d="M0 0 C3.36487781 1.40872325 5.05709457 2.99655472 7.1875 5.9375 C7.95126953 6.97197266 7.95126953 6.97197266 8.73046875 8.02734375 C10 10 10 10 11 13 C12.80028835 14.10146078 12.80028835 14.10146078 15 15 C15.76957031 15.4021875 16.53914063 15.804375 17.33203125 16.21875 C18.15058594 16.6415625 18.96914062 17.064375 19.8125 17.5 C21.02873047 18.13421875 21.02873047 18.13421875 22.26953125 18.78125 C32.2049373 23.21593768 43.15718756 23.55449605 53.5 20.25 C55.34820647 19.53743847 57.18406982 18.7912071 59 18 C59.67675781 17.71125 60.35351562 17.4225 61.05078125 17.125 C67.25995497 14.0410645 71.17980934 8.36132842 75.3125 3 C75.869375 2.34 76.42625 1.68 77 1 C77.66 1 78.32 1 79 1 C77.4906874 5.98073159 74.48316931 9.2751754 71 13 C70.43023437 13.65484375 69.86046875 14.3096875 69.2734375 14.984375 C66.29006815 17.62942411 63.11925446 19.07464777 59.5 20.6875 C58.83613281 20.99494141 58.17226562 21.30238281 57.48828125 21.61914062 C51.22219302 24.47702717 46.35424176 25.15991125 39.5 25.125 C38.36111328 25.13080078 38.36111328 25.13080078 37.19921875 25.13671875 C33.62985544 25.13046768 30.43268398 24.96340936 27 24 C27 23.34 27 22.68 27 22 C26.05125 22.020625 25.1025 22.04125 24.125 22.0625 C21 22 21 22 19 21 C19 20.34 19 19.68 19 19 C18.278125 18.9175 17.55625 18.835 16.8125 18.75 C10.9306965 17.18151907 7.68609959 12.59781935 4.1875 7.875 C3.39730469 6.82054687 2.60710937 5.76609375 1.79296875 4.6796875 C0 2 0 2 0 0 Z " fill="#C86C77" transform="translate(120,182)"/>
<path d="M0 0 C0 0.66 0 1.32 0 2 C-18.21178555 12.60813397 -37.70377575 22.24898171 -59.2421875 22.09765625 C-60.01055939 22.0962413 -60.77893127 22.09482635 -61.57058716 22.09336853 C-64.00543239 22.08780683 -66.44018294 22.0752616 -68.875 22.0625 C-70.53385283 22.05748004 -72.19270712 22.05291801 -73.8515625 22.04882812 C-77.9010777 22.03784998 -81.95052284 22.02061206 -86 22 C-86 21.67 -86 21.34 -86 21 C-84.90667358 20.97812622 -84.90667358 20.97812622 -83.79125977 20.95581055 C-64.59514357 20.5279535 -47.39625851 19.12971917 -29.1953125 12.98828125 C-26 12 -26 12 -23 12 C-23 11.34 -23 10.68 -23 10 C-23.66 9.67 -24.32 9.34 -25 9 C-20.25 7.875 -20.25 7.875 -18 9 C-18 8.01 -18 7.02 -18 6 C-15.23735711 5.40267181 -12.83967231 5 -10 5 C-7.97207641 3.91254793 -7.97207641 3.91254793 -5.9375 2.5 C-2.20833333 0 -2.20833333 0 0 0 Z " fill="#B36065" transform="translate(233,269)"/>
<path d="M0 0 C0.66 0 1.32 0 2 0 C-0.09738984 11.63098003 -10.93761946 21.44431561 -19.828125 28.30078125 C-22.04628882 29.96548962 -22.04628882 29.96548962 -24 32 C-25.65984798 32.68346682 -27.32836805 33.34588315 -29 34 C-31.68595778 35.29563826 -34.34473411 36.64271768 -37 38 C-37.495 36.515 -37.495 36.515 -38 35 C-37.11699219 34.52691406 -36.23398438 34.05382812 -35.32421875 33.56640625 C-20.92382646 25.69588525 -9.26162866 16.45951076 -1.26171875 1.90625 C-0.63716797 0.96265625 -0.63716797 0.96265625 0 0 Z " fill="#F78598" transform="translate(257,238)"/>
<path d="M0 0 C1 3 1 3 -0.44140625 6.23046875 C-1.14204656 7.55288503 -1.84956382 8.87167187 -2.5625 10.1875 C-9.05456185 22.71928459 -13.348231 35.10865538 -16.140625 48.94140625 C-16.9019694 52.69540605 -17.9008312 56.33128308 -19 60 C-19.33 60 -19.66 60 -20 60 C-19.92923911 38.94863463 -12.03680387 17.18376299 0 0 Z " fill="#A85A5A" transform="translate(45,87)"/>
<path d="M0 0 C1.2478125 0.28746094 2.495625 0.57492187 3.78125 0.87109375 C10.32511835 2.32628391 16.92735757 3.44327267 23.53125 4.58789062 C24.48 4.75611328 25.42875 4.92433594 26.40625 5.09765625 C27.26541016 5.24726807 28.12457031 5.39687988 29.00976562 5.55102539 C31 6 31 6 32 7 C33.99782126 7.15825258 36.00088834 7.25119171 38.00390625 7.31640625 C39.21884766 7.35830078 40.43378906 7.40019531 41.68554688 7.44335938 C42.96494141 7.48267578 44.24433594 7.52199219 45.5625 7.5625 C46.84576172 7.60568359 48.12902344 7.64886719 49.45117188 7.69335938 C52.63399853 7.799848 55.81690674 7.90185962 59 8 C59 8.33 59 8.66 59 9 C31.12195532 9.75985865 31.12195532 9.75985865 18.25 7.25 C17.43764893 7.09305664 16.62529785 6.93611328 15.78833008 6.77441406 C10.18006141 5.5524975 5.15737267 3.49747993 0 1 C0 0.67 0 0.34 0 0 Z " fill="#A35858" transform="translate(115,283)"/>
<path d="M0 0 C0.33 0 0.66 0 1 0 C2.7304584 14.58529219 2.15393698 28.53785168 0 43 C-0.66 43 -1.32 43 -2 43 C-1.9278125 42.06285156 -1.855625 41.12570313 -1.78125 40.16015625 C-1.05027665 29.80121966 -0.92318832 19.50148539 -1.03710938 9.11743164 C-1.04548828 8.0783667 -1.05386719 7.03930176 -1.0625 5.96875 C-1.07410156 5.03482422 -1.08570313 4.10089844 -1.09765625 3.13867188 C-1 1 -1 1 0 0 Z " fill="#B26065" transform="translate(294,142)"/>
<path d="M0 0 C1.01725914 0.00212242 1.01725914 0.00212242 2.05506897 0.00428772 C4.19431203 0.0098288 6.3334455 0.02236972 8.47265625 0.03515625 C9.93424327 0.04017889 11.39583194 0.04474045 12.85742188 0.04882812 C16.41670151 0.0597788 19.97591816 0.0770018 23.53515625 0.09765625 C23.53515625 0.42765625 23.53515625 0.75765625 23.53515625 1.09765625 C13.63515625 1.09765625 3.73515625 1.09765625 -6.46484375 1.09765625 C-6.46484375 1.75765625 -6.46484375 2.41765625 -6.46484375 3.09765625 C-7.57601562 3.29101562 -8.6871875 3.484375 -9.83203125 3.68359375 C-17.7290037 5.06381092 -25.61648547 6.45856423 -33.46484375 8.09765625 C-30.75854318 4.45455934 -26.90580544 3.92862379 -22.71484375 2.97265625 C-22.02390625 2.80378906 -21.33296875 2.63492188 -20.62109375 2.4609375 C-13.74284565 0.8189497 -7.08948049 -0.02941693 0 0 Z " fill="#A35757" transform="translate(151.46484375,30.90234375)"/>
<path d="M0 0 C7.93026536 7.50567429 12.75608139 17.1352644 17.4375 26.875 C17.77950439 27.57592773 18.12150879 28.27685547 18.47387695 28.99902344 C20.51821792 33.37789674 21.55361285 37.1840485 22 42 C20.31113418 39.46670128 19.4862616 37.73355163 18.5 34.9375 C16.44240005 29.68520538 13.84649508 24.8049297 11.125 19.875 C10.71443359 19.123396 10.30386719 18.37179199 9.88085938 17.59741211 C7.30157289 12.98829982 4.46724023 8.82988346 1.13232422 4.73095703 C0 3 0 3 0 0 Z " fill="#B8646C" transform="translate(266,78)"/>
<path d="M0 0 C0.66 0 1.32 0 2 0 C0.59954222 3.97873646 -1.2879687 7.00574025 -3.8125 10.375 C-6.11552045 13.45394849 -8.34946088 16.52303045 -10.4375 19.75 C-13.42794097 23.95498866 -17.52505176 27.45246392 -22 30 C-22.99 29.67 -23.98 29.34 -25 29 C-22.17589976 26.07130346 -19.27847819 23.41572077 -16 21 C-15.34 21 -14.68 21 -14 21 C-13.74992188 20.43925781 -13.49984375 19.87851562 -13.2421875 19.30078125 C-11.80389542 16.63677485 -10.06444913 14.51117961 -8.125 12.1875 C-4.93901337 8.2774255 -2.32972483 4.46530593 0 0 Z " fill="#BA6468" transform="translate(259,239)"/>
<path d="M0 0 C4.11772764 1.53369088 5.82294255 4.16320641 8.3125 7.6875 C11.43905202 12.03948906 14.73051587 15.8531261 18.625 19.53125 C20.44103467 21.47110522 21.30517245 23.45229898 22 26 C21.34 26 20.68 26 20 26 C18.50370821 24.3214487 17.07707339 22.58041102 15.6875 20.8125 C12.6454626 16.95443219 9.48341616 13.46086978 6 10 C4.86281254 8.63093484 3.75403087 7.23729705 2.6875 5.8125 C2.17574219 5.13832031 1.66398437 4.46414062 1.13671875 3.76953125 C0 2 0 2 0 0 Z " fill="#B25F5F" transform="translate(48,230)"/>
<path d="M0 0 C0 0.66 0 1.32 0 2 C-2.51326159 3.49347477 -5.03434909 4.96961326 -7.5625 6.4375 C-8.26697266 6.85837891 -8.97144531 7.27925781 -9.69726562 7.71289062 C-14.21964348 10.31794699 -17.78339707 11.62297876 -23 12 C-23 11.34 -23 10.68 -23 10 C-23.66 9.67 -24.32 9.34 -25 9 C-20.25 7.875 -20.25 7.875 -18 9 C-18 8.01 -18 7.02 -18 6 C-15.23735711 5.40267181 -12.83967231 5 -10 5 C-7.97207641 3.91254793 -7.97207641 3.91254793 -5.9375 2.5 C-2.20833333 0 -2.20833333 0 0 0 Z " fill="#C96C75" transform="translate(233,269)"/>
<path d="M0 0 C0.99 0.33 1.98 0.66 3 1 C2.34773438 1.68964844 1.69546875 2.37929687 1.0234375 3.08984375 C-3.7025855 8.17136405 -8.04906228 13.12312932 -11.74609375 19.02734375 C-13.0655257 21.1030856 -14.50320308 23.04936377 -16 25 C-15.58894145 19.75900345 -14.75960806 16.75960806 -11 13 C-10.34 13 -9.68 13 -9 13 C-8.91878906 12.43796875 -8.83757812 11.8759375 -8.75390625 11.296875 C-7.75955531 8.26745347 -6.09624473 6.58007368 -3.9375 4.25 C-3.20402344 3.45078125 -2.47054688 2.6515625 -1.71484375 1.828125 C-1.14894531 1.22484375 -0.58304687 0.6215625 0 0 Z " fill="#A65957" transform="translate(282,204)"/>
<path d="M0 0 C0.99 0.495 0.99 0.495 2 1 C2.60265805 3.14534731 3.10952625 5.3181369 3.5625 7.5 C4.10668442 11.5695459 4.10668442 11.5695459 6 15 C6.04092937 17.33297433 6.04241723 19.66705225 6 22 C5.34 22 4.68 22 4 22 C4 23.65 4 25.3 4 27 C3.67 27 3.34 27 3 27 C1.92537466 18.00653358 0.85878108 9.01720132 0 0 Z " fill="#D3727F" transform="translate(288,121)"/>
<path d="M0 0 C0.66 0.66 1.32 1.32 2 2 C0.87851562 3.30324219 0.87851562 3.30324219 -0.265625 4.6328125 C-1.26058656 5.79672979 -2.25536868 6.96080049 -3.25 8.125 C-3.74113281 8.69476563 -4.23226562 9.26453125 -4.73828125 9.8515625 C-7.78048381 13.42108017 -10.47618317 17.0460203 -13 21 C-13.72265625 19.30078125 -13.72265625 19.30078125 -14 17 C-12.55859375 14.66796875 -12.55859375 14.66796875 -10.4375 12.1875 C-9.33728516 10.88232422 -9.33728516 10.88232422 -8.21484375 9.55078125 C-7.48394531 8.70902344 -6.75304688 7.86726563 -6 7 C-5.07380859 5.90751953 -5.07380859 5.90751953 -4.12890625 4.79296875 C-2.76386036 3.1856845 -1.38369918 1.59125406 0 0 Z " fill="#D4737F" transform="translate(60,68)"/>
<path d="M0 0 C1.61130844 3.17744001 3.13372179 6.38953675 4.625 9.625 C5.07101563 10.58664063 5.51703125 11.54828125 5.9765625 12.5390625 C7 15 7 15 7 17 C5.02 17.99 5.02 17.99 3 19 C0.88420624 15.82630936 0.59799144 13.65866034 0.22265625 9.92578125 C0.04177532 7.92469103 0.04177532 7.92469103 -0.625 5.75 C-1.09171747 3.57198513 -0.67414198 2.0973306 0 0 Z " fill="#E97D8C" transform="translate(44,211)"/>
<path d="M0 0 C0.33 0.99 0.66 1.98 1 3 C-1.56411552 5.56411552 -4.1267962 8.12103274 -6.75 10.625 C-9.19004674 12.86533112 -9.19004674 12.86533112 -10 16 C-11.64488294 17.68816933 -13.31337542 19.35353315 -15 21 C-16.02813611 22.31175986 -17.04084432 23.6369893 -18 25 C-17.39314542 15.29032666 -6.29745536 6.72326195 0 0 Z " fill="#F9869A" transform="translate(283,201)"/>
<path d="M0 0 C6.02487844 -0.21908649 11.17549506 0.50601953 17 2 C17.77472656 2.19078125 18.54945313 2.3815625 19.34765625 2.578125 C21.23382399 3.04384543 23.11722494 3.52074817 25 4 C25 4.33 25 4.66 25 5 C19.12123504 5.16032995 13.76611905 4.6092534 8 3.5 C7.22527344 3.35691406 6.45054687 3.21382812 5.65234375 3.06640625 C3.76704421 2.71727671 1.88334061 2.35954684 0 2 C0 1.34 0 0.68 0 0 Z " fill="#AD5D60" transform="translate(175,32)"/>
<path d="M0 0 C0.66 0 1.32 0 2 0 C1.53947944 7.14600874 0.01941774 11.97087339 -4 18 C-4.66 18 -5.32 18 -6 18 C-6.6875 16.1875 -6.6875 16.1875 -7 14 C-5.6875 12.375 -5.6875 12.375 -4 11 C-1.6870518 8.6870518 -1.50419025 7.52095125 -0.875 4.375 C-0.62363281 3.14910156 -0.62363281 3.14910156 -0.3671875 1.8984375 C-0.24601562 1.27195313 -0.12484375 0.64546875 0 0 Z " fill="#D3727E" transform="translate(290,186)"/>
<path d="M0 0 C0.5775 0.226875 1.155 0.45375 1.75 0.6875 C0.76 0.6875 -0.23 0.6875 -1.25 0.6875 C-1.46914062 1.29078125 -1.68828125 1.8940625 -1.9140625 2.515625 C-3.70149465 5.42150885 -5.52021098 6.08903935 -8.625 7.4375 C-10.05972656 8.07945313 -10.05972656 8.07945313 -11.5234375 8.734375 C-14.25 9.6875 -14.25 9.6875 -18.25 9.6875 C-18.25 9.0275 -18.25 8.3675 -18.25 7.6875 C-17.43015625 7.36136719 -16.6103125 7.03523438 -15.765625 6.69921875 C-14.68796875 6.26222656 -13.6103125 5.82523437 -12.5 5.375 C-11.43265625 4.94574219 -10.3653125 4.51648437 -9.265625 4.07421875 C-6.26667785 2.82357979 -6.26667785 2.82357979 -4 1 C-2.25 -0.3125 -2.25 -0.3125 0 0 Z " fill="#B46164" transform="translate(79.25,59.3125)"/>
<path d="M0 0 C0.33 0 0.66 0 1 0 C2.06996173 9.01824887 2.10234659 17.93664124 2 27 C1.67 27 1.34 27 1 27 C0.90912109 25.62714844 0.90912109 25.62714844 0.81640625 24.2265625 C0.73261719 23.03804687 0.64882813 21.84953125 0.5625 20.625 C0.48128906 19.44164062 0.40007812 18.25828125 0.31640625 17.0390625 C0.18915064 14.08481099 0.18915064 14.08481099 -1 12 C-1.09584979 10.1478437 -1.12983606 8.29212847 -1.125 6.4375 C-1.12757813 5.44621094 -1.13015625 4.45492187 -1.1328125 3.43359375 C-1 1 -1 1 0 0 Z " fill="#AE5D59" transform="translate(294,142)"/>
<path d="M0 0 C0.66 0.33 1.32 0.66 2 1 C1.50269348 5.97306516 0.44697666 9.63799813 -2 14 C-3.125 12.375 -3.125 12.375 -4 10 C-3.10610663 6.42442653 -1.74429318 3.23940161 0 0 Z " fill="#C96B74" transform="translate(264,225)"/>
<path d="M0 0 C3.36165806 1.41043479 5.09505232 3.01526034 7.25 5.9375 C8.03117188 6.97197266 8.03117188 6.97197266 8.828125 8.02734375 C10 10 10 10 10 13 C5.73407468 9.70360316 2.74039221 6.74298651 0 2 C0 1.34 0 0.68 0 0 Z " fill="#BB6467" transform="translate(120,182)"/>
<path d="M0 0 C0.66 0 1.32 0 2 0 C0.49087042 4.98012761 -2.55661849 8.24259942 -6 12 C-7.32 11.67 -8.64 11.34 -10 11 C-9.278125 10.29875 -8.55625 9.5975 -7.8125 8.875 C-5.83067874 6.91006927 -4.05292847 4.86821544 -2.3125 2.6875 C-1.1678125 1.3571875 -1.1678125 1.3571875 0 0 Z " fill="#B56163" transform="translate(197,183)"/>
<path d="M0 0 C5.46727972 2.44462067 9.8047298 6.55749134 12.4375 11.9375 C12.623125 12.618125 12.80875 13.29875 13 14 C12.34 14 11.68 14 11 14 C9.43802886 12.28358022 7.94860958 10.50061361 6.5 8.6875 C5.7059375 7.70136719 4.911875 6.71523437 4.09375 5.69921875 C2 3 2 3 0 0 Z " fill="#D27280" transform="translate(57,242)"/>
<path d="M0 0 C3.29680965 0.65784963 5.84117922 1.89420573 8.75 3.5625 C9.94882813 4.24505859 9.94882813 4.24505859 11.171875 4.94140625 C11.77515625 5.29074219 12.3784375 5.64007813 13 6 C13 6.99 13 7.98 13 9 C8.71 6.69 4.42 4.38 0 2 C0 1.34 0 0.68 0 0 Z " fill="#BE6771" transform="translate(217,39)"/>
<path d="M0 0 C4.59216906 4.06734974 7.2167907 8.56385928 10 14 C9.01 14.495 9.01 14.495 8 15 C7.59007812 14.30132812 7.18015625 13.60265625 6.7578125 12.8828125 C6.21898437 11.97273438 5.68015625 11.06265625 5.125 10.125 C4.59132813 9.22007813 4.05765625 8.31515625 3.5078125 7.3828125 C2.08024648 4.93396718 2.08024648 4.93396718 0 3 C0 2.01 0 1.02 0 0 Z " fill="#C66C77" transform="translate(266,78)"/>
<path d="M0 0 C0.99 0.33 1.98 0.66 3 1 C0.36 3.97 -2.28 6.94 -5 10 C-5.99 9.67 -6.98 9.34 -8 9 C-5.36 6.03 -2.72 3.06 0 0 Z " fill="#AE5D5D" transform="translate(282,204)"/>
<path d="M0 0 C-4.77357872 2.71391278 -8.34388537 4.56561146 -14 4 C-11.58592302 2.39061535 -9.65955563 1.34509262 -7 0.3125 C-5.9790625 -0.09548828 -5.9790625 -0.09548828 -4.9375 -0.51171875 C-3 -1 -3 -1 0 0 Z " fill="#A55857" transform="translate(120,38)"/>
<path d="M0 0 C0.33 0.99 0.66 1.98 1 3 C1.66 3 2.32 3 3 3 C3.66 5.64 4.32 8.28 5 11 C4.01 11.495 4.01 11.495 3 12 C2.49166409 10.75336669 1.99368855 9.50250613 1.5 8.25 C1.2215625 7.55390625 0.943125 6.8578125 0.65625 6.140625 C0 4 0 4 0 0 Z " fill="#A95A58" transform="translate(41,213)"/>
<path d="M0 0 C0.66 0.66 1.32 1.32 2 2 C0.35 3.98 -1.3 5.96 -3 8 C-3.66 7.34 -4.32 6.68 -5 6 C-3.35 4.02 -1.7 2.04 0 0 Z " fill="#DE7987" transform="translate(60,68)"/>
<path d="M0 0 C1.258125 0.12375 2.51625 0.2475 3.8125 0.375 C4.87404297 0.47941406 4.87404297 0.47941406 5.95703125 0.5859375 C8 1 8 1 11 3 C3.49230769 3.36923077 3.49230769 3.36923077 1 1.5 C0.67 1.005 0.34 0.51 0 0 Z " fill="#A15653" transform="translate(189,34)"/>
<path d="M0 0 C0.66 0 1.32 0 2 0 C1.375 1.9375 1.375 1.9375 0 4 C-3.125 4.75 -3.125 4.75 -6 5 C-5.195625 4.360625 -4.39125 3.72125 -3.5625 3.0625 C-1.7249496 1.59396498 -1.7249496 1.59396498 0 0 Z " fill="#A55856" transform="translate(94,47)"/>
</svg>
