<?xml version="1.0" encoding="UTF-8"?>
<svg version="1.1" xmlns="http://www.w3.org/2000/svg" width="320" height="320">
<path d="M0 0 C0.68980957 -0.00167175 1.37961914 -0.00334351 2.09033203 -0.00506592 C14.26050328 -0.0068336 26.01835888 0.72597965 37.71484375 4.33984375 C41.36654217 5.29692556 44.48436934 5.41701235 48.25 5.4375 C56.72033872 5.92937991 62.94078585 8.88857047 70.1875 13.25 C70.77418457 13.59095703 71.36086914 13.93191406 71.96533203 14.28320312 C81.07260092 19.60385708 88.66866419 25.88737269 96.1875 33.25 C97.09757813 34.10980469 98.00765625 34.96960938 98.9453125 35.85546875 C104.22192678 40.93519444 108.39994451 46.00053344 112.1875 52.25 C112.80109375 53.19230469 113.4146875 54.13460937 114.046875 55.10546875 C122.55180951 68.37382589 128.71691484 82.08667415 132.68798828 97.33544922 C133.14693449 99.09451872 133.63273817 100.84652349 134.12109375 102.59765625 C139.66722179 123.16344204 139.90670339 151.28757822 129.1875 170.25 C125.82499941 174.83944853 122.2169985 179.2362646 118.17578125 183.24609375 C112.49727362 188.97067446 109.42235431 195.46644538 105.9777832 202.6550293 C102.36477747 210.12190781 98.1515068 216.61208393 93.1875 223.25 C92.66671875 224.01570312 92.1459375 224.78140625 91.609375 225.5703125 C86.14131723 233.47195643 78.66757855 238.27627499 70.2421875 242.65234375 C68.07636559 243.78510738 65.93773927 244.9705697 63.8203125 246.19140625 C33.41429025 263.60784278 -3.79586258 265.67052006 -37.20458984 256.60058594 C-60.8643466 249.90194473 -82.47204135 236.31343875 -97.671875 216.86328125 C-99.79359368 214.18381857 -99.79359368 214.18381857 -102.359375 211.7109375 C-111.14743911 202.89488592 -116.02035917 191.99387117 -119.65234375 180.28613281 C-121.62866632 174.23288714 -124.49286096 168.7783749 -127.60253906 163.23608398 C-139.84476355 141.30697336 -136.17948348 113.16460149 -129.6875 89.75 C-125.4552419 75.62919533 -118.68143682 62.01063025 -109.8125 50.25 C-109.41337402 49.70085937 -109.01424805 49.15171875 -108.60302734 48.5859375 C-102.98359341 40.9302902 -98.27653722 36.37004184 -89.26171875 32.828125 C-85.18832898 30.96442232 -81.914176 28.58961553 -78.375 25.875 C-55.3488757 8.39296688 -28.78455271 0.03664542 0 0 Z M-25.8125 96.25 C-26.72 96.8275 -27.6275 97.405 -28.5625 98 C-36.13124204 105.56874204 -43.39755601 116.95112029 -43.9453125 127.90625 C-43.94273438 128.8446875 -43.94015625 129.783125 -43.9375 130.75 C-43.94007812 131.6884375 -43.94265625 132.626875 -43.9453125 133.59375 C-43.82642868 135.9714263 -43.48801722 137.97683096 -42.8125 140.25 C-42.1525 140.25 -41.4925 140.25 -40.8125 140.25 C-40.71453125 141.11625 -40.6165625 141.9825 -40.515625 142.875 C-39.30701367 148.67633437 -35.97524935 153.30820413 -32.8125 158.25 C-32.420625 158.86488281 -32.02875 159.47976562 -31.625 160.11328125 C-26.07637077 167.68144832 -15.94324934 172.81772559 -6.8125 174.25 C5.83702716 175.36695604 18.10132239 173.45459133 28.1875 165.25 C38.93241613 155.00910979 44.53066874 142.28241637 45.37890625 127.55078125 C45.04651759 121.81877264 42.85113547 117.26147911 40.1875 112.25 C39.49914062 110.90035156 39.49914062 110.90035156 38.796875 109.5234375 C33.22124546 99.38314422 24.86436076 92.77507149 13.8125 89.5625 C11.94269739 89.10329475 10.06770627 88.66455473 8.1875 88.25 C7.45660156 88.08113281 6.72570312 87.91226563 5.97265625 87.73828125 C-5.36983852 85.77393858 -16.43216602 90.207056 -25.8125 96.25 Z " fill="#FBF9E6" transform="translate(158.8125,30.75)"/>
<path d="M0 0 C0.68980957 -0.00167175 1.37961914 -0.00334351 2.09033203 -0.00506592 C14.26050328 -0.0068336 26.01835888 0.72597965 37.71484375 4.33984375 C41.36654217 5.29692556 44.48436934 5.41701235 48.25 5.4375 C56.72033872 5.92937991 62.94078585 8.88857047 70.1875 13.25 C70.77418457 13.59095703 71.36086914 13.93191406 71.96533203 14.28320312 C81.07260092 19.60385708 88.66866419 25.88737269 96.1875 33.25 C97.09757813 34.10980469 98.00765625 34.96960938 98.9453125 35.85546875 C104.22192678 40.93519444 108.39994451 46.00053344 112.1875 52.25 C112.80109375 53.19230469 113.4146875 54.13460937 114.046875 55.10546875 C122.55180951 68.37382589 128.71691484 82.08667415 132.68798828 97.33544922 C133.14693449 99.09451872 133.63273817 100.84652349 134.12109375 102.59765625 C139.66722179 123.16344204 139.90670339 151.28757822 129.1875 170.25 C125.82499941 174.83944853 122.2169985 179.2362646 118.17578125 183.24609375 C112.49727362 188.97067446 109.42235431 195.46644538 105.9777832 202.6550293 C102.36477747 210.12190781 98.1515068 216.61208393 93.1875 223.25 C92.66671875 224.01570312 92.1459375 224.78140625 91.609375 225.5703125 C86.14131723 233.47195643 78.66757855 238.27627499 70.2421875 242.65234375 C68.07636559 243.78510738 65.93773927 244.9705697 63.8203125 246.19140625 C33.41429025 263.60784278 -3.79586258 265.67052006 -37.20458984 256.60058594 C-60.8643466 249.90194473 -82.47204135 236.31343875 -97.671875 216.86328125 C-99.79359368 214.18381857 -99.79359368 214.18381857 -102.359375 211.7109375 C-111.14743911 202.89488592 -116.02035917 191.99387117 -119.65234375 180.28613281 C-121.62866632 174.23288714 -124.49286096 168.7783749 -127.60253906 163.23608398 C-139.84476355 141.30697336 -136.17948348 113.16460149 -129.6875 89.75 C-125.4552419 75.62919533 -118.68143682 62.01063025 -109.8125 50.25 C-109.41337402 49.70085937 -109.01424805 49.15171875 -108.60302734 48.5859375 C-102.98359341 40.9302902 -98.27653722 36.37004184 -89.26171875 32.828125 C-85.18832898 30.96442232 -81.914176 28.58961553 -78.375 25.875 C-55.3488757 8.39296688 -28.78455271 0.03664542 0 0 Z M-83.359375 32.42578125 C-86.0227275 34.40633159 -88.28492539 35.19754059 -91.4375 36.1875 C-104.19708923 41.3383035 -111.56680093 55.63318067 -117.8125 67.25 C-118.13202637 67.83974609 -118.45155273 68.42949219 -118.78076172 69.03710938 C-122.96196271 76.91429095 -125.82577661 84.94847103 -128.3125 93.5 C-128.58022217 94.41797363 -128.84794434 95.33594727 -129.1237793 96.28173828 C-130.66133064 101.25492179 -130.66133064 101.25492179 -129.8125 106.25 C-128.8225 106.25 -127.8325 106.25 -126.8125 106.25 C-126.78671875 107.31734375 -126.7609375 108.3846875 -126.734375 109.484375 C-125.57155844 143.8225821 -113.55657672 172.39799463 -88.87890625 196.4921875 C-61.01657705 222.15653918 -26.05383956 231.26890986 11.09375 230.38183594 C35.61536452 229.33688077 60.5362448 219.73887901 80.1875 205.25 C81.02410156 204.63640625 81.86070312 204.0228125 82.72265625 203.390625 C107.15500922 184.65011971 123.33659077 157.92666904 127.8515625 127.38671875 C128.53303066 121.02370788 128.87932863 114.64050101 129.1875 108.25 C130.6725 107.755 130.6725 107.755 132.1875 107.25 C126.94197425 73.82850737 108.80974739 43.55756242 81.89111328 22.98974609 C74.19851521 17.39172188 65.7841109 13.26524631 57.1875 9.25 C56.1975 8.755 56.1975 8.755 55.1875 8.25 C53.7488506 8.31032073 52.31138098 8.39920133 50.875 8.5 C43.01748355 8.61478444 35.63067755 6.37519553 28.078125 4.44140625 C-10.63242931 -5.19405198 -53.4234169 6.85165754 -83.359375 32.42578125 Z " fill="#ECE9CD" transform="translate(158.8125,30.75)"/>
<path d="M0 0 C6.59571125 5.36176527 11.83018961 10.92538994 16.88378906 17.73486328 C17.32553467 18.31655273 17.76728027 18.89824219 18.22241211 19.49755859 C21.16937678 23.60219758 22.16120102 26.6883999 22.50878906 31.73486328 C21.84878906 31.73486328 21.18878906 31.73486328 20.50878906 31.73486328 C20.50878906 32.72486328 20.50878906 33.71486328 20.50878906 34.73486328 C17.48983205 35.01656173 15.90792306 34.98010582 13.29003906 33.37158203 C12.53722656 32.72833984 11.78441406 32.08509766 11.00878906 31.42236328 C9.70167969 30.33375 9.70167969 30.33375 8.36816406 29.22314453 C6.37644586 27.48991435 4.4127168 25.7428808 2.46191406 23.96533203 C-6.31587839 16.06815953 -15.38018205 9.63421916 -27.67871094 9.10986328 C-36.83679262 9.63214115 -44.84344367 13.75989488 -52.98339844 17.68408203 C-60.6652517 20.90280248 -69.14063201 20.06668989 -77.21386719 18.97705078 C-90.05990942 17.61091936 -99.86961322 19.34693709 -110.36621094 27.10986328 C-115.17009007 31.10292434 -119.0340332 35.54909667 -122.49121094 40.73486328 C-123.15121094 40.73486328 -123.81121094 40.73486328 -124.49121094 40.73486328 C-125.7060479 43.67939668 -126.8184108 46.64321454 -127.85839844 49.65283203 C-128.10460937 50.34957031 -128.35082031 51.04630859 -128.60449219 51.76416016 C-129.11513096 53.21097 -129.6150398 54.66160882 -130.10449219 56.11572266 C-131.98933378 61.36495766 -131.98933378 61.36495766 -134.52636719 63.23486328 C-137.89241266 64.09143151 -140.3490749 63.40439131 -143.30371094 61.67236328 C-145.32432602 58.37557025 -145.06238327 55.41453122 -144.49121094 51.73486328 C-138.46923439 27.70271613 -122.89217016 7.94247534 -101.82324219 -4.89013672 C-70.7459081 -21.72186633 -28.22534648 -22.32248897 0 0 Z " fill="#FEFEF9" transform="translate(211.4912109375,62.26513671875)"/>
<path d="M0 0 C1.21754995 0.81075832 2.40189182 1.67213738 3.5625 2.5625 C4.52027344 3.29597656 5.47804688 4.02945313 6.46484375 4.78515625 C16.43230863 13.1921448 22.52256197 26.39489096 23.96484375 39.109375 C24.64874466 54.92249845 19.29599798 67.72892472 10.5625 80.5625 C9.35207155 82.5612327 8.14363337 84.56117251 6.9375 86.5625 C4.22560662 90.82227773 1.63028335 93.60411211 -2.4375 96.5625 C-2.85644531 97.03429687 -3.27539062 97.50609375 -3.70703125 97.9921875 C-6.16004557 100.21817341 -8.86406426 101.32728158 -11.875 102.6875 C-13.00808594 103.20570313 -14.14117187 103.72390625 -15.30859375 104.2578125 C-25.50112967 108.50788366 -38.52574011 107.8692316 -48.7265625 103.88671875 C-62.24460366 97.28352573 -68.75972636 87.59047693 -75.32421875 74.5859375 C-76.64436161 71.98715419 -78.00205711 69.72515688 -79.64453125 67.2890625 C-84.77749325 59.48338173 -83.37366511 46.6552382 -81.75390625 37.84375 C-77.42156626 23.03110205 -69.35446642 8.51552964 -56.4375 -0.4375 C-39.46939233 -9.52334347 -16.79234508 -9.88152895 0 0 Z M-57.4375 26.5625 C-58.345 27.14 -59.2525 27.7175 -60.1875 28.3125 C-67.75624204 35.88124204 -75.02255601 47.26362029 -75.5703125 58.21875 C-75.56773438 59.1571875 -75.56515625 60.095625 -75.5625 61.0625 C-75.56507812 62.0009375 -75.56765625 62.939375 -75.5703125 63.90625 C-75.45142868 66.2839263 -75.11301722 68.28933096 -74.4375 70.5625 C-73.7775 70.5625 -73.1175 70.5625 -72.4375 70.5625 C-72.33953125 71.42875 -72.2415625 72.295 -72.140625 73.1875 C-70.93201367 78.98883437 -67.60024935 83.62070413 -64.4375 88.5625 C-64.045625 89.17738281 -63.65375 89.79226562 -63.25 90.42578125 C-57.70137077 97.99394832 -47.56824934 103.13022559 -38.4375 104.5625 C-25.78797284 105.67945604 -13.52367761 103.76709133 -3.4375 95.5625 C7.30741613 85.32160979 12.90566874 72.59491637 13.75390625 57.86328125 C13.42151759 52.13127264 11.22613547 47.57397911 8.5625 42.5625 C7.87414062 41.21285156 7.87414062 41.21285156 7.171875 39.8359375 C1.59624546 29.69564422 -6.76063924 23.08757149 -17.8125 19.875 C-19.68230261 19.41579475 -21.55729373 18.97705473 -23.4375 18.5625 C-24.16839844 18.39363281 -24.89929688 18.22476563 -25.65234375 18.05078125 C-36.99483852 16.08643858 -48.05716602 20.519556 -57.4375 26.5625 Z " fill="#EDE9CC" transform="translate(190.4375,100.4375)"/>
<path d="M0 0 C2.6084777 0.93637661 3.76055881 1.69497646 5.4375 3.875 C9.08498252 14.81744756 5.7335931 26.60155445 1.15234375 36.7109375 C-7.83397929 54.18295277 -21.33495767 68.07143249 -39.83203125 75.12109375 C-43.38524386 76.20433887 -46.93794443 77.0614725 -50.5625 77.875 C-51.27631836 78.05546875 -51.99013672 78.2359375 -52.72558594 78.421875 C-64.35531094 81.34784066 -75.73734898 82.25213221 -87.6875 82.25 C-88.99130615 82.25161133 -90.2951123 82.25322266 -91.63842773 82.25488281 C-102.24264414 82.13247154 -111.85182009 81.42794459 -121.25 76.25 C-121.86810547 75.92515625 -122.48621094 75.6003125 -123.12304688 75.265625 C-124.60985959 74.48187876 -126.08731949 73.68042702 -127.5625 72.875 C-127.5625 70.895 -127.5625 68.915 -127.5625 66.875 C-125.16370059 65.67560029 -123.94095654 65.83616216 -121.27734375 65.99609375 C-120.37000488 66.04483643 -119.46266602 66.0935791 -118.52783203 66.14379883 C-117.52864746 66.19947021 -116.52946289 66.2551416 -115.5 66.3125 C-105.79067 66.76586271 -96.08358497 67.07347619 -86.36428833 67.16311646 C-84.92723568 67.17921377 -83.49024371 67.20256606 -82.05343628 67.23361206 C-71.26389732 67.45782049 -61.56980852 66.51973554 -53.2890625 58.92578125 C-50.13839302 55.18347022 -47.77709279 50.93896656 -45.359375 46.703125 C-43.5625 43.875 -43.5625 43.875 -40.5625 41.875 C-38.98385303 41.65145034 -37.39932184 41.46773257 -35.8125 41.3125 C-30.47646757 40.26379999 -28.43028392 38.30933549 -25.40625 33.89453125 C-22.20560554 28.65279784 -19.06501844 23.38022754 -15.9921875 18.0625 C-13.93775995 14.51028697 -11.84908104 10.98821662 -9.6875 7.5 C-9.17445313 6.66726562 -8.66140625 5.83453125 -8.1328125 4.9765625 C-5.81004898 1.86798844 -4.00045183 -0.19514399 0 0 Z " fill="#FEFEF8" transform="translate(249.5625,165.125)"/>
<path d="M0 0 C0.68980957 -0.00167175 1.37961914 -0.00334351 2.09033203 -0.00506592 C14.26050328 -0.0068336 26.01835888 0.72597965 37.71484375 4.33984375 C41.36654217 5.29692556 44.48436934 5.41701235 48.25 5.4375 C56.72033872 5.92937991 62.94078585 8.88857047 70.1875 13.25 C70.77418457 13.59095703 71.36086914 13.93191406 71.96533203 14.28320312 C81.07260092 19.60385708 88.66866419 25.88737269 96.1875 33.25 C97.09757813 34.10980469 98.00765625 34.96960938 98.9453125 35.85546875 C104.22192678 40.93519444 108.39994451 46.00053344 112.1875 52.25 C112.80109375 53.19230469 113.4146875 54.13460937 114.046875 55.10546875 C121.35766964 66.51087512 127.30559477 78.43432569 131.1875 91.4375 C131.39528076 92.13198242 131.60306152 92.82646484 131.81713867 93.54199219 C132.9305695 97.53572482 133.39350952 101.11049628 133.1875 105.25 C132.5275 105.25 131.8675 105.25 131.1875 105.25 C130.89617187 104.05246094 130.60484375 102.85492188 130.3046875 101.62109375 C122.03434599 68.44383968 104.61077809 38.00078994 75.06884766 19.36425781 C69.30392176 15.94988956 63.25297413 13.08302023 57.1875 10.25 C56.1975 9.755 56.1975 9.755 55.1875 9.25 C53.7488506 9.31032073 52.31138098 9.39920133 50.875 9.5 C43.01748355 9.61478444 35.63067755 7.37519553 28.078125 5.44140625 C-2.62129125 -2.19999668 -37.94205372 4.08920164 -64.97314453 20.10546875 C-71.38064543 24.09250939 -77.61737861 28.52114057 -83.35546875 33.421875 C-86.0307946 35.41241951 -88.33727332 36.23657623 -91.5 37.25 C-103.84865249 42.24394034 -110.72554235 56.01053685 -116.8125 67.25 C-117.13347656 67.84119629 -117.45445313 68.43239258 -117.78515625 69.04150391 C-130.2992784 92.62329371 -137.3908329 125.35771298 -129.9375 151.5 C-129.26291814 153.42880443 -128.55730645 155.34720979 -127.8125 157.25 C-127.13886878 159.24766499 -126.47027128 161.24705682 -125.8125 163.25 C-125.1525 163.25 -124.4925 163.25 -123.8125 163.25 C-120.13844243 170.71458383 -116.7598681 178.0358222 -114.3125 186 C-110.79393058 196.9912315 -104.22983964 205.55065104 -96.8125 214.25 C-95.98878906 215.22066406 -95.16507813 216.19132813 -94.31640625 217.19140625 C-77.55125568 236.46236904 -54.58405421 249.40228884 -29.8125 255.25 C-28.60207031 255.5490625 -27.39164062 255.848125 -26.14453125 256.15625 C-7.55868632 260.31554922 13.76839946 260.26953373 32.1875 255.25 C33.37786865 254.92733154 33.37786865 254.92733154 34.59228516 254.59814453 C49.86243033 250.29492589 65.37910174 243.99826352 78.1015625 234.3515625 C79.11992187 233.65804687 80.13828125 232.96453125 81.1875 232.25 C82.1775 232.58 83.1675 232.91 84.1875 233.25 C79.91630313 237.17488361 75.48083078 239.89454149 70.34765625 242.58203125 C68.14473131 243.74476172 65.96625827 244.95450824 63.80859375 246.19921875 C33.40295614 263.60721747 -3.79945396 265.66954506 -37.20458984 256.60058594 C-60.8643466 249.90194473 -82.47204135 236.31343875 -97.671875 216.86328125 C-99.79359368 214.18381857 -99.79359368 214.18381857 -102.359375 211.7109375 C-111.14743911 202.89488592 -116.02035917 191.99387117 -119.65234375 180.28613281 C-121.62866632 174.23288714 -124.49286096 168.7783749 -127.60253906 163.23608398 C-139.84476355 141.30697336 -136.17948348 113.16460149 -129.6875 89.75 C-125.4552419 75.62919533 -118.68143682 62.01063025 -109.8125 50.25 C-109.41337402 49.70085937 -109.01424805 49.15171875 -108.60302734 48.5859375 C-102.98359341 40.9302902 -98.27653722 36.37004184 -89.26171875 32.828125 C-85.18832898 30.96442232 -81.914176 28.58961553 -78.375 25.875 C-55.3488757 8.39296688 -28.78455271 0.03664542 0 0 Z " fill="#C1B2A8" transform="translate(158.8125,30.75)"/>
<path d="M0 0 C3.72827381 3.10689484 7.23676814 6.21596096 10.5625 9.75 C22.70811447 21.98904228 38.3133379 30.32318668 54.5 35.8125 C55.31734619 36.09053467 56.13469238 36.36856934 56.97680664 36.6550293 C69.53263395 40.69597107 81.66022755 42.50698559 94.77905273 42.39111328 C96.93342595 42.37503041 99.08591724 42.39107201 101.24023438 42.41015625 C114.14227618 42.43050893 126.69339281 40.57790983 138.9375 36.375 C139.66839844 36.13064209 140.39929688 35.88628418 141.15234375 35.63452148 C147.67775648 33.33903436 153.69697754 30.23577654 159.69506836 26.80810547 C161.43534195 25.82092168 163.21472699 24.90326313 165 24 C165.66 24.33 166.32 24.66 167 25 C155.90989067 31.61141133 144.95486731 36.91772104 132.5625 40.6875 C131.90725342 40.89012451 131.25200684 41.09274902 130.5769043 41.30151367 C99.32802897 50.3972701 64.0778855 45.41118612 35.375 30.75 C25.35946079 25.09925751 16.26969079 18.39891856 7.75 10.6875 C6.92628906 9.95043823 6.92628906 9.95043823 6.0859375 9.19848633 C3.05773893 6.3715592 1.19113959 3.98741242 0 0 Z " fill="#FAF8E5" transform="translate(63,245)"/>
<path d="M0 0 C0.68980957 -0.00167175 1.37961914 -0.00334351 2.09033203 -0.00506592 C14.27878719 -0.00683626 25.98939173 0.78603818 37.72265625 4.3125 C41.2515431 5.26732846 44.48176855 5.64964548 48.125 5.875 C49.26839844 5.94976562 50.41179687 6.02453125 51.58984375 6.1015625 C52.87568359 6.17503906 52.87568359 6.17503906 54.1875 6.25 C53.8575 6.91 53.5275 7.57 53.1875 8.25 C46.03670017 9.66869576 40.52680286 8.76158348 33.5625 6.875 C0.71982162 -1.66409638 -34.13648637 2.82456994 -63.640625 19.515625 C-66.33118623 20.98681858 -68.94042224 22.19186609 -71.8125 23.25 C-70.49445104 19.29585311 -68.15235517 18.35453433 -64.6875 16.4375 C-63.74414795 15.91192505 -63.74414795 15.91192505 -62.78173828 15.37573242 C-43.23037593 4.74198253 -22.12875691 0.02817197 0 0 Z " fill="#B5A79D" transform="translate(158.8125,30.75)"/>
<path d="M0 0 C3.78878256 1.48546982 5.37665051 3.53714194 7.625 6.875 C8.21539062 7.73867187 8.80578125 8.60234375 9.4140625 9.4921875 C11 12 11 12 11.9609375 14.1953125 C13.30824696 16.5353763 14.53010242 16.97124553 17 18 C17.76957031 18.4021875 18.53914063 18.804375 19.33203125 19.21875 C20.15058594 19.6415625 20.96914062 20.064375 21.8125 20.5 C23.02873047 21.13421875 23.02873047 21.13421875 24.26953125 21.78125 C34.2049373 26.21593768 45.15718756 26.55449605 55.5 23.25 C57.34820647 22.53743847 59.18406982 21.7912071 61 21 C61.67675781 20.71125 62.35351562 20.4225 63.05078125 20.125 C69.28772944 17.02726964 73.59366929 11.33199522 77.25 5.5625 C79 3 79 3 82 2 C78.17717498 12.64394417 70.34257542 19.54432544 60.375 24.25 C49.79774002 29.03318983 37.77711141 29.85000854 26.5625 26.4375 C14.64837796 21.78609619 5.69199687 13.38399373 0 2 C0 1.34 0 0.68 0 0 Z " fill="#C2BFB1" transform="translate(118,179)"/>
<path d="M0 0 C4.07210173 1.35736724 4.56819532 3.25343487 6.6875 6.9375 C10.3258414 13.06792498 14.33606189 18.59217212 19 24 C20.23363281 25.45212891 20.23363281 25.45212891 21.4921875 26.93359375 C32.32365059 39.39585692 45.80713042 49.25392524 60.75 56.3125 C64 58 64 58 65 61 C46.8881952 56.10491762 29.42319812 41.05079611 18.140625 26.61328125 C16.02068573 23.93462472 16.02068573 23.93462472 13.45703125 21.47265625 C8.78557781 16.77149564 0 6.97565694 0 0 Z " fill="#D0C6B9" transform="translate(43,221)"/>
<path d="M0 0 C0.99 0.33 1.98 0.66 3 1 C2.91131893 2.37608552 2.80314061 3.75091742 2.6875 5.125 C2.60048828 6.27355469 2.60048828 6.27355469 2.51171875 7.4453125 C1.40558963 12.96751438 -1.63346316 17.06652679 -5.1875 21.3125 C-5.98671875 22.27929688 -6.7859375 23.24609375 -7.609375 24.2421875 C-9.02648731 25.87696085 -10.48283856 27.48096709 -12.015625 29.0078125 C-18.38319722 35.40126916 -21.78584786 43.10293591 -25.60546875 51.16015625 C-29.96777713 60.20757301 -29.96777713 60.20757301 -33 64 C-33.66 64 -34.32 64 -35 64 C-33.67653142 60.51424472 -32.13931911 57.31073452 -30.3125 54.0625 C-28.56777519 50.94212678 -26.9286445 47.84444501 -25.4375 44.59375 C-21.76930963 36.62249017 -17.72383456 31.05976329 -11.66015625 24.83203125 C-7.94080344 20.87236783 -4.9565232 16.54252982 -2 12 C-1.34 11.01 -0.68 10.02 0 9 C0.24107326 6.71351152 0.24107326 6.71351152 0.125 4.3125 C0.10695313 3.50425781 0.08890625 2.69601563 0.0703125 1.86328125 C0.04710937 1.24839844 0.02390625 0.63351563 0 0 Z " fill="#C1AFA6" transform="translate(289,185)"/>
<path d="M0 0 C0.66 0.33 1.32 0.66 2 1 C-4.10973231 7.5170478 -10.45977346 13.30433628 -19 16.25 C-29.44365936 20.24513542 -35.11978375 30.6307834 -40.52734375 39.91796875 C-42 42 -42 42 -45 43 C-41.5083208 33.10995576 -31.76330341 18.34835837 -22.22265625 13.625 C-20.22929104 12.87061212 -18.22767235 12.13770605 -16.21875 11.42578125 C-10.10628536 8.71819679 -5.11230948 4.24651514 0 0 Z " fill="#D8CDBF" transform="translate(86,52)"/>
<path d="M0 0 C3.513033 0.95846448 6.73029115 1.33411434 10.359375 1.55859375 C11.50277344 1.63335937 12.64617187 1.708125 13.82421875 1.78515625 C15.11005859 1.85863281 15.11005859 1.85863281 16.421875 1.93359375 C16.091875 2.59359375 15.761875 3.25359375 15.421875 3.93359375 C8.27107517 5.35228951 2.76117786 4.44517723 -4.203125 2.55859375 C-6.00706643 2.08956898 -7.81174281 1.62336072 -9.6171875 1.16015625 C-10.40303223 0.94955566 -11.18887695 0.73895508 -11.99853516 0.52197266 C-17.51036079 -0.73522021 -22.96506899 -1.2073334 -28.60546875 -1.3828125 C-29.89130859 -1.42470703 -31.17714844 -1.46660156 -32.50195312 -1.50976562 C-33.83984125 -1.54956325 -35.17773191 -1.58927576 -36.515625 -1.62890625 C-37.88087062 -1.67217279 -39.24610518 -1.71578946 -40.61132812 -1.75976562 C-43.93350152 -1.86541778 -47.25574446 -1.9675202 -50.578125 -2.06640625 C-50.578125 -2.39640625 -50.578125 -2.72640625 -50.578125 -3.06640625 C-33.34517852 -4.1252691 -16.71902555 -4.98285368 0 0 Z " fill="#C0BBAE" transform="translate(196.578125,35.06640625)"/>
<path d="M0 0 C0.33 0 0.66 0 1 0 C1 1.65 1 3.3 1 5 C1.66 5 2.32 5 3 5 C4.7304584 19.58529219 4.15393698 33.53785168 2 48 C1.34 48 0.68 48 0 48 C0.0721875 46.93523437 0.144375 45.87046875 0.21875 44.7734375 C1.52138554 27.83281471 1.52138554 27.83281471 0 11 C-0.33 11 -0.66 11 -1 11 C-1.125 3.375 -1.125 3.375 0 0 Z " fill="#DBBAB3" transform="translate(292,137)"/>
<path d="M0 0 C2.40625 1.53125 2.40625 1.53125 4.8125 3.0625 C5.81539063 3.69929688 6.81828125 4.33609375 7.8515625 4.9921875 C9.87240678 6.2809145 11.88848832 7.57715818 13.8984375 8.8828125 C18.05943508 11.5752227 22.13332898 14.144279 26.625 16.25 C30 18 30 18 31 21 C21.88524948 18.53655391 13.97395765 13.15915305 6.3125 7.8125 C5.68794922 7.38453125 5.06339844 6.9565625 4.41992188 6.515625 C2.88815877 5.42126346 1.43566687 4.21769701 0 3 C0 2.01 0 1.02 0 0 Z " fill="#CCB6AE" transform="translate(77,261)"/>
<path d="M0 0 C0.99 0.33 1.98 0.66 3 1 C-6.33830245 9.58114279 -18.72419797 14.42576411 -30 20 C-30 19.01 -30 18.02 -30 17 C-29.33991943 16.66266846 -28.67983887 16.32533691 -27.99975586 15.9777832 C-24.97603166 14.42841282 -21.95676715 12.87053683 -18.9375 11.3125 C-17.89916016 10.78205078 -16.86082031 10.25160156 -15.79101562 9.70507812 C-11.29423423 7.3781722 -6.97818438 5.11329908 -2.94140625 2.04296875 C-1.97074219 1.36878906 -1.00007813 0.69460938 0 0 Z " fill="#D5BFB6" transform="translate(240,263)"/>
<path d="M0 0 C0.66 0.33 1.32 0.66 2 1 C-5.94467395 9.47431888 -13.64453249 15.03431089 -25 18 C-25 17.01 -25 16.02 -25 15 C-24.28457031 14.75507812 -23.56914063 14.51015625 -22.83203125 14.2578125 C-13.9088545 10.91017827 -7.24568559 6.01859367 0 0 Z " fill="#CBBBB0" transform="translate(86,52)"/>
<path d="M0 0 C2.97770716 2.97770716 3.75728719 6.55262387 5.0625 10.5 C5.33271973 11.31065918 5.60293945 12.12131836 5.88134766 12.95654297 C7.72403451 18.67676455 8.80540165 23.96745115 9 30 C8.34 30 7.68 30 7 30 C6.67386719 28.74445313 6.34773438 27.48890625 6.01171875 26.1953125 C3.80972209 17.75221854 1.59543469 9.33271138 -1 1 C-0.67 0.67 -0.34 0.34 0 0 Z " fill="#CAC7B7" transform="translate(283,106)"/>
<path d="M0 0 C-2.04653772 2.21518686 -3.90523687 3.62958901 -6.6171875 4.9375 C-7.65166016 5.44410156 -7.65166016 5.44410156 -8.70703125 5.9609375 C-9.42246094 6.30382813 -10.13789062 6.64671875 -10.875 7 C-12.28999074 7.6855875 -13.70407539 8.37304865 -15.1171875 9.0625 C-15.78588867 9.38734375 -16.45458984 9.7121875 -17.14355469 10.046875 C-19.21044446 11.07409222 -19.21044446 11.07409222 -21.8828125 12.8125 C-22.58148438 13.204375 -23.28015625 13.59625 -24 14 C-24.66 13.67 -25.32 13.34 -26 13 C-22.65668154 9.20580144 -18.98848763 7.15072775 -14.5625 4.875 C-13.90701172 4.52824219 -13.25152344 4.18148437 -12.57617188 3.82421875 C-2.69673261 -1.3483663 -2.69673261 -1.3483663 0 0 Z " fill="#C3A8A2" transform="translate(113,40)"/>
<path d="M0 0 C5.39382503 6.86771908 9.44821982 15.37020207 11 24 C10.67 24.99 10.34 25.98 10 27 C7.71189756 23.46089537 6.28108562 20.15208552 5.0625 16.125 C3.89861116 12.45739679 2.7121365 9.21182593 0.6875 5.9375 C0.130625 4.968125 -0.42625 3.99875 -1 3 C-0.67 2.01 -0.34 1.02 0 0 Z " fill="#CAAEA8" transform="translate(34,195)"/>
<path d="M0 0 C3.78878256 1.48546982 5.37665051 3.53714194 7.625 6.875 C8.21539062 7.73867187 8.80578125 8.60234375 9.4140625 9.4921875 C11 12 11 12 12.0859375 14.2578125 C12.87986122 16.18337142 12.87986122 16.18337142 15 17 C14.01 17.33 13.02 17.66 12 18 C0 5.15533981 0 5.15533981 0 0 Z " fill="#DCC3B9" transform="translate(118,179)"/>
<path d="M0 0 C3.2635617 0.66771722 5.87668432 1.87943719 8.8125 3.4375 C12.84682928 5.5054673 16.59903651 6.94759569 21 8 C20.67 8.66 20.34 9.32 20 10 C12.40958294 9.5049728 6.26448871 6.17632581 0 2 C0 1.34 0 0.68 0 0 Z " fill="#C7C4B5" transform="translate(131,196)"/>
<path d="M0 0 C0.33 0 0.66 0 1 0 C1.02908633 4.22915217 1.04682792 8.45827852 1.0625 12.6875 C1.07087891 13.88568359 1.07925781 15.08386719 1.08789062 16.31835938 C1.09111328 17.47529297 1.09433594 18.63222656 1.09765625 19.82421875 C1.10289307 20.88729248 1.10812988 21.95036621 1.11352539 23.0456543 C1.00716844 25.8134509 0.62894788 28.30792897 0 31 C-0.66 31 -1.32 31 -2 31 C-1.41165035 20.66006789 -0.76930362 10.32831031 0 0 Z " fill="#C7B1A9" transform="translate(294,154)"/>
<path d="M0 0 C0.99 0.33 1.98 0.66 3 1 C2.4409475 9.67495261 0.58231956 14.95138202 -6 21 C-5.67317143 17.40488575 -4.67597588 15.46272924 -2.4375 12.75 C0.7005436 8.6651329 0.50704342 4.96902556 0 0 Z " fill="#D7D2C2" transform="translate(289,185)"/>
<path d="M0 0 C4.01868507 1.33956169 5.12247846 3.90964739 7.1875 7.375 C7.55552734 7.96539062 7.92355469 8.55578125 8.30273438 9.1640625 C10.01741309 11.98898773 11 13.63751052 11 17 C6.1754095 12.74300838 2.94136005 7.71088806 0 2 C0 1.34 0 0.68 0 0 Z " fill="#D0B9B0" transform="translate(43,221)"/>
<path d="M0 0 C0.33 0.99 0.66 1.98 1 3 C-0.2578125 4.83203125 -0.2578125 4.83203125 -2.125 6.8125 C-3.08986328 7.85857422 -3.08986328 7.85857422 -4.07421875 8.92578125 C-4.70972656 9.61027344 -5.34523438 10.29476562 -6 11 C-6.9882124 12.15901455 -7.96875573 13.32466473 -8.9375 14.5 C-9.9584375 15.7375 -9.9584375 15.7375 -11 17 C-11.33 16.01 -11.66 15.02 -12 14 C-11.38511719 13.32453125 -10.77023437 12.6490625 -10.13671875 11.953125 C-9.32847656 11.06109375 -8.52023437 10.1690625 -7.6875 9.25 C-6.88699219 8.36828125 -6.08648437 7.4865625 -5.26171875 6.578125 C-3.39083089 4.44550672 -1.65915714 2.29812057 0 0 Z " fill="#CAB9AF" transform="translate(282,204)"/>
<path d="M0 0 C6.46567022 1.40558048 11.45752952 4.45371104 17 8 C16.34 8.66 15.68 9.32 15 10 C9.72 7.36 4.44 4.72 -1 2 C-0.67 1.34 -0.34 0.68 0 0 Z " fill="#C4C1B2" transform="translate(213,37)"/>
<path d="M0 0 C0.33 0.66 0.66 1.32 1 2 C-0.21425884 3.80180343 -1.44704536 5.59112993 -2.6875 7.375 C-3.37199219 8.37273437 -4.05648437 9.37046875 -4.76171875 10.3984375 C-7.09608495 13.11167988 -8.61002447 14.01447296 -12 15 C-10.75481714 11.26445141 -8.77378939 9.77378939 -6 7 C-4.65783025 5.00591923 -3.3227887 3.00698975 -2 1 C-1.34 0.67 -0.68 0.34 0 0 Z " fill="#D3CCBD" transform="translate(199,181)"/>
<path d="M0 0 C4.28379643 0.71260094 8.25093853 2.06921736 12.3125 3.5625 C12.95767578 3.79646484 13.60285156 4.03042969 14.26757812 4.27148438 C15.84621219 4.84447007 17.42327026 5.42179464 19 6 C19 6.33 19 6.66 19 7 C13.13117727 6.46647066 7.35380246 5.59914891 2 3 C1.34 2.01 0.68 1.02 0 0 Z " fill="#BEA7A0" transform="translate(107,280)"/>
<path d="M0 0 C1.51553092 3.97450493 0.49888623 7.20481149 -0.4375 11.25 C-0.72496094 12.51328125 -1.01242188 13.7765625 -1.30859375 15.078125 C-1.53675781 16.04234375 -1.76492187 17.0065625 -2 18 C-2.66 18 -3.32 18 -4 18 C-4.39873011 11.88613837 -3.12115707 6.73701549 -1 1 C-0.67 0.67 -0.34 0.34 0 0 Z " fill="#BCA9A1" transform="translate(30,122)"/>
<path d="M0 0 C0 0.66 0 1.32 0 2 C-4.95 4.31 -9.9 6.62 -15 9 C-15 8.01 -15 7.02 -15 6 C-13.06629769 4.99267601 -11.12789694 3.99436712 -9.1875 3 C-8.10855469 2.443125 -7.02960938 1.88625 -5.91796875 1.3125 C-3 0 -3 0 0 0 Z " fill="#C8BAAF" transform="translate(225,274)"/>
<path d="M0 0 C0 0.66 0 1.32 0 2 C-4.92984325 4.03993514 -8.57960425 5.40652968 -14 5 C-11.81385576 2.81385576 -10.46120051 2.31743465 -7.5625 1.375 C-6.38880859 0.98441406 -6.38880859 0.98441406 -5.19140625 0.5859375 C-3 0 -3 0 0 0 Z " fill="#BCA49E" transform="translate(210,281)"/>
<path d="M0 0 C0.33 0.99 0.66 1.98 1 3 C-0.43359375 5.04296875 -0.43359375 5.04296875 -2.4375 7.1875 C-3.09621094 7.90292969 -3.75492188 8.61835937 -4.43359375 9.35546875 C-4.95050781 9.89816406 -5.46742187 10.44085938 -6 11 C-6.66 10.34 -7.32 9.68 -8 9 C-5.36 6.03 -2.72 3.06 0 0 Z " fill="#DED8C7" transform="translate(60,68)"/>
<path d="M0 0 C3.97497544 3.40712181 5.86793788 7.32760855 8 12 C7.01 12.495 7.01 12.495 6 13 C4.98868775 11.59138651 3.99133233 10.17274547 3 8.75 C2.1646875 7.56664063 2.1646875 7.56664063 1.3125 6.359375 C0 4 0 4 0 0 Z " fill="#C5C3B4" transform="translate(268,80)"/>
<path d="M0 0 C-1.22053859 3.66161578 -2.36782304 4.16270474 -5.5625 6.1875 C-6.38878906 6.71730469 -7.21507812 7.24710937 -8.06640625 7.79296875 C-8.70449219 8.19128906 -9.34257812 8.58960938 -10 9 C-10 8.01 -10 7.02 -10 6 C-8.3203125 4.39453125 -8.3203125 4.39453125 -6.125 2.8125 C-5.04605469 2.01779297 -5.04605469 2.01779297 -3.9453125 1.20703125 C-2 0 -2 0 0 0 Z " fill="#F3EFDC" transform="translate(241,261)"/>
<path d="M0 0 C3.96 0 7.92 0 12 0 C11.67 0.66 11.34 1.32 11 2 C8.93359375 2.4140625 8.93359375 2.4140625 6.4375 2.625 C5.61121094 2.69976562 4.78492188 2.77453125 3.93359375 2.8515625 C2.97646484 2.92503906 2.97646484 2.92503906 2 3 C2 2.34 2 1.68 2 1 C1.34 0.67 0.68 0.34 0 0 Z " fill="#B49F98" transform="translate(201,37)"/>
<path d="M0 0 C0.66 0 1.32 0 2 0 C0.66749209 3.5875213 -0.830717 6.8364623 -3 10 C-3.66 10 -4.32 10 -5 10 C-3.66749209 6.4124787 -2.169283 3.1635377 0 0 Z " fill="#C7BBB0" transform="translate(259,239)"/>
<path d="M0 0 C0.99 0.33 1.98 0.66 3 1 C2.88637738 2.4800841 2.75877092 3.95910074 2.625 5.4375 C2.52058594 6.67306641 2.52058594 6.67306641 2.4140625 7.93359375 C2.27742188 8.61550781 2.14078125 9.29742187 2 10 C1.01 10.495 1.01 10.495 0 11 C0 7.37 0 3.74 0 0 Z " fill="#C9C6B5" transform="translate(289,185)"/>
<path d="M0 0 C3.87132028 0.57352893 6.08172796 2.48704352 9 5 C4.73350364 5 3.36683915 4.43160605 0 2 C0 1.34 0 0.68 0 0 Z " fill="#CFCCBB" transform="translate(131,196)"/>
<path d="M0 0 C0 3.62453269 -0.92469613 5.07920195 -3 8 C-3.99 8.33 -4.98 8.66 -6 9 C-4.68775452 5.06326356 -3.08089673 2.77280706 0 0 Z " fill="#CFC0B5" transform="translate(47,86)"/>
<path d="M0 0 C0.66 0.66 1.32 1.32 2 2 C-2.05606165 1.53199289 -5.46588679 1.12046792 -9 -1 C-5.19825711 -2.26724763 -3.6488868 -1.4750819 0 0 Z " fill="#BEBAAC" transform="translate(201,37)"/>
<path d="M0 0 C0.66 0.33 1.32 0.66 2 1 C0.35 2.65 -1.3 4.3 -3 6 C-3.99 5.67 -4.98 5.34 -6 5 C-4.02 3.35 -2.04 1.7 0 0 Z " fill="#CDBFB4" transform="translate(86,52)"/>
<path d="M0 0 C0.33 0.66 0.66 1.32 1 2 C-0.98 4.97 -0.98 4.97 -3 8 C-3.75 6.25 -3.75 6.25 -4 4 C-2.0625 1.75 -2.0625 1.75 0 0 Z " fill="#C3B6A9" transform="translate(199,181)"/>
<path d="M0 0 C-1.125 1.5 -1.125 1.5 -3 3 C-6.1875 3.1875 -6.1875 3.1875 -9 3 C-6.40821726 0.40821726 -3.54324677 -1.77162338 0 0 Z " fill="#CCADA7" transform="translate(113,40)"/>
</svg>
