<?xml version="1.0" encoding="UTF-8"?>
<svg version="1.1" xmlns="http://www.w3.org/2000/svg" width="320" height="320">
<path d="M0 0 C6.03690343 -0.15502622 12.62494694 -0.27177329 17.4609375 3.80859375 C18.9804836 7.32254411 19.18022858 9.32846803 18.4609375 13.12109375 C16.23901184 15.77329707 13.40983679 17.3601796 10.4609375 19.12109375 C9.43484375 19.74242188 8.40875 20.36375 7.3515625 21.00390625 C-0.15047831 25.41570382 -7.88814663 29.30565061 -15.69873047 33.13867188 C-42.06314866 46.0806736 -67.26933508 62.22782614 -87.828125 83.48828125 C-89.5390625 85.12109375 -89.5390625 85.12109375 -91.5390625 85.12109375 C-91.78527344 85.68828125 -92.03148438 86.25546875 -92.28515625 86.83984375 C-94.21812453 90.35652124 -97.01600755 93.00271384 -99.76171875 95.90234375 C-101.50626431 98.08015007 -102.13700563 99.39947798 -102.5390625 102.12109375 C-92.85086908 97.68292693 -84.25990948 92.19340294 -75.5390625 86.12109375 C-74.86713867 85.65396973 -74.19521484 85.1868457 -73.50292969 84.70556641 C-66.99555195 80.16886264 -60.5224887 75.5865962 -54.12890625 70.890625 C-23.85653323 48.6767005 10.17433019 28.42228902 47.4609375 21.12109375 C48.40582031 20.93160156 49.35070312 20.74210937 50.32421875 20.546875 C54.36256836 19.9987055 58.32727826 19.89812219 62.3984375 19.87109375 C63.17123047 19.85046875 63.94402344 19.82984375 64.74023438 19.80859375 C70.07559376 19.77251355 73.76993818 20.51433067 78.4609375 23.12109375 C81.18874358 25.84329859 81.93003632 27.92287217 82.0234375 31.74609375 C81.75969222 39.53231304 77.52121957 45.48281268 71.9609375 50.68359375 C59.31177156 60.84054484 44.61330486 68.11897839 30.31567383 75.62280273 C28.55379267 76.54751535 26.79717742 77.48244213 25.04956055 78.43383789 C19.55600717 81.35526143 16.37389909 81.21608664 10.4609375 80.12109375 C8.77485784 79.92122412 7.08730949 79.73330465 5.3984375 79.55859375 C4.0990625 79.41421875 2.7996875 79.26984375 1.4609375 79.12109375 C2.4609375 76.12109375 2.4609375 76.12109375 4.0612793 75.05297852 C5.10022339 74.56269165 5.10022339 74.56269165 6.16015625 74.0625 C6.94632324 73.68279053 7.73249023 73.30308105 8.54248047 72.91186523 C9.40244629 72.50653564 10.26241211 72.10120605 11.1484375 71.68359375 C46.09459546 56.51445798 46.09459546 56.51445798 71.4609375 30.12109375 C31.16234192 27.59805124 -11.33047677 55.33832292 -42.5390625 78.12109375 C-89.30695941 112.18994009 -89.30695941 112.18994009 -101.4140625 112.37109375 C-102.44273438 112.396875 -103.47140625 112.42265625 -104.53125 112.44921875 C-107.95126937 112.07612573 -109.78932103 111.15136882 -112.5390625 109.12109375 C-114.95722596 104.28476683 -114.35658837 97.70102464 -112.76171875 92.66796875 C-105.85322636 79.68971467 -91.93356791 68.99399354 -80.5390625 60.12109375 C-79.37663673 59.17204384 -78.21663159 58.22002416 -77.05859375 57.265625 C-63.73580088 46.33226507 -49.68011437 37.31874163 -34.5390625 29.12109375 C-33.91 28.77836426 -33.2809375 28.43563477 -32.6328125 28.08251953 C-24.80702332 23.8252087 -16.90168538 19.74785323 -8.90429688 15.82202148 C-5.3468952 14.06749273 -1.90671039 12.21780939 1.4609375 10.12109375 C-35.0906907 13.68410961 -67.41345923 32.27963623 -94.21484375 56.64453125 C-97.14769881 58.50775681 -99.12962204 58.40644375 -102.5390625 58.12109375 C-102.5390625 57.46109375 -102.5390625 56.80109375 -102.5390625 56.12109375 C-103.1990625 56.12109375 -103.8590625 56.12109375 -104.5390625 56.12109375 C-104.85300777 53.17942659 -105.05931606 50.98843033 -104.5390625 48.12109375 C-102.42682077 45.82449956 -100.80488826 44.39495551 -98.2890625 42.68359375 C-97.65226562 42.21969238 -97.01546875 41.75579102 -96.359375 41.27783203 C-95.05347754 40.32799974 -93.74026393 39.38814464 -92.41992188 38.45849609 C-89.73330136 36.54814989 -87.14530126 34.51416781 -84.5390625 32.49609375 C-59.80564208 14.18228311 -31.07507339 1.48204196 0 0 Z " fill="#A56435" transform="translate(153.5390625,38.87890625)"/>
<path d="M0 0 C1.75570312 0.01353516 1.75570312 0.01353516 3.546875 0.02734375 C4.43890625 0.03894531 5.3309375 0.05054688 6.25 0.0625 C7.24 2.0425 7.24 2.0425 8.25 4.0625 C8.91 4.0625 9.57 4.0625 10.25 4.0625 C13.50709337 13.8337801 10.28099852 23.39876061 6.1875 32.3984375 C-3.40620466 50.85299437 -19.10570261 65.50080398 -36.75 76.0625 C-37.39630371 76.45711426 -38.04260742 76.85172852 -38.70849609 77.25830078 C-50.80213155 84.6355074 -63.2446094 91.41393086 -75.75 98.0625 C-76.73919434 98.59182129 -77.72838867 99.12114258 -78.74755859 99.66650391 C-81.69680069 101.23500574 -84.65818423 102.77754222 -87.625 104.3125 C-88.970177 105.02974243 -88.970177 105.02974243 -90.3425293 105.76147461 C-95.79870615 108.53821914 -99.62041299 109.69328524 -105.75 109.0625 C-106.41 108.7325 -107.07 108.4025 -107.75 108.0625 C-107.75 105.7525 -107.75 103.4425 -107.75 101.0625 C-105.88868482 100.08080285 -104.02728115 99.09927326 -102.16552734 98.1184082 C-100.47922612 97.22973577 -98.79337045 96.34021749 -97.10791016 95.44995117 C-92.50214858 93.02119346 -87.88689224 90.615101 -83.24609375 88.25390625 C-64.42297504 78.6415055 -45.06726659 68.63759699 -28.75 55.0625 C-27.98558594 54.45921875 -27.22117188 53.8559375 -26.43359375 53.234375 C-12.75488535 41.91078335 -2.59522955 26.03585073 2.25 9.0625 C-24.92554716 18.60285166 -47.23274135 33.58911079 -69.95703125 51.05859375 C-80.57503597 59.22039952 -91.30301475 67.07750858 -102.44140625 74.515625 C-104.76169735 76.07033782 -107.06925044 77.64256925 -109.375 79.21875 C-145.15290396 103.56617202 -145.15290396 103.56617202 -166.75 101.0625 C-169.35999624 100.41693189 -170.77102756 99.87991928 -172.734375 98.06640625 C-175.63281027 92.34757051 -174.67148489 85.27401171 -172.9609375 79.3125 C-167.13982073 66.24639617 -154.98410575 57.65373248 -143.7421875 49.54443359 C-141.97827638 48.23230854 -140.31547059 46.86595367 -138.65625 45.42578125 C-131.45333955 39.62905697 -125.76711958 39.49746073 -116.89501953 40.29736328 C-114.84323526 40.52303046 -112.79590024 40.78857193 -110.75 41.0625 C-112.11910206 45.16980617 -114.84930135 46.11560876 -118.4375 48.125 C-135.41022239 57.97487726 -155.88940838 70.39359489 -163.75 89.0625 C-163.75 89.7225 -163.75 90.3825 -163.75 91.0625 C-134.01646028 92.46039196 -98.87841076 57.07134308 -76.7578125 40.27734375 C-23.3355823 -0.23335582 -23.3355823 -0.23335582 0 0 Z " fill="#A56435" transform="translate(277.75,164.9375)"/>
<path d="M0 0 C4.10037181 5.46389258 3.96457864 11.49562213 3.33154297 18.04541016 C1.47409133 28.99589453 -7.50357294 37.43634041 -15 45 C-15.58394531 45.63292969 -16.16789062 46.26585937 -16.76953125 46.91796875 C-31.26681381 62.36950282 -50.96359942 73.45945998 -69.15673828 83.92333984 C-72.56001106 85.91121176 -75.88997944 88.02089601 -79.21484375 90.13671875 C-79.80394531 90.42160156 -80.39304688 90.70648438 -81 91 C-81.66 90.67 -82.32 90.34 -83 90 C-82.37222656 89.28972656 -81.74445313 88.57945312 -81.09765625 87.84765625 C-78.93612888 84.91329227 -78.34131237 82.91552143 -77.4375 79.4375 C-73.90418898 70.49449229 -65.32302814 66.96776818 -57.39013672 62.40966797 C-38.0190214 50.98486512 -16.35726663 33.8671439 -7 13 C-6.74930087 10.37429296 -6.74930087 10.37429296 -7 8 C-8.19396356 6.59144923 -8.19396356 6.59144923 -11.625 6.6875 C-35.52491702 7.06506583 -60.41232825 23.40407049 -79 37 C-82.5 33.5 -82.5 33.5 -86 30 C-86 28.15234375 -86 28.15234375 -85 26 C-83.02533934 24.32462385 -81.16401312 22.95463037 -79 21.5625 C-78.35208496 21.14073486 -77.70416992 20.71896973 -77.03662109 20.28442383 C-59.07368135 8.90324632 -21.69809214 -14.30101527 0 0 Z " fill="#A56435" transform="translate(276,101)"/>
<path d="M0 0 C0.99 0.495 0.99 0.495 2 1 C1.54109375 1.70125 1.0821875 2.4025 0.609375 3.125 C-0.00421875 4.07375 -0.6178125 5.0225 -1.25 6 C-1.85328125 6.928125 -2.4565625 7.85625 -3.078125 8.8125 C-4.54543134 11.24608124 -5.64551873 13.46578077 -6.7734375 16.04296875 C-9.01981484 20.60836207 -12.12232055 22.69687132 -16.375 25.3125 C-17.82132862 26.25818273 -19.26529823 27.207482 -20.70703125 28.16015625 C-21.79105225 28.87002686 -21.79105225 28.87002686 -22.89697266 29.59423828 C-38.23886706 39.84947719 -55.10172816 53.39067349 -62 71 C-62.25752595 74.26935648 -62.25752595 74.26935648 -62 77 C-53.95584755 79.89102578 -48.60712775 77.50745519 -41 74 C-29.81498893 68.57456172 -19.73970416 61.54998124 -9.76074219 54.18579102 C-8 53 -8 53 -4 51 C-2.02 53.64 -0.04 56.28 2 59 C0.00435634 62.99128733 -0.74375478 63.83218173 -4.26171875 66.171875 C-5.12635742 66.75026123 -5.99099609 67.32864746 -6.88183594 67.92456055 C-7.80770508 68.52695557 -8.73357422 69.12935059 -9.6875 69.75 C-10.63270508 70.37108643 -11.57791016 70.99217285 -12.55175781 71.63208008 C-20.1485223 76.56637297 -27.81952315 81.10891176 -36 85 C-36.75410156 85.37769531 -37.50820312 85.75539063 -38.28515625 86.14453125 C-45.62021908 89.23967337 -55.21976626 89.26181384 -63 88 C-67.08079212 86.20642604 -69.99195274 84.01609451 -72 80 C-73.36207455 68.1747164 -71.15183979 58.87546546 -63.70166016 49.33789062 C-61.10057653 46.23328172 -58.34568722 43.30237957 -55.46557617 40.45288086 C-54.42246691 39.41880736 -53.39269873 38.37120134 -52.37231445 37.31469727 C-48.24772989 33.07588088 -43.90667405 29.37180619 -39.1875 25.8125 C-38.45829346 25.25933105 -37.72908691 24.70616211 -36.9777832 24.13623047 C-12.53207009 5.79608242 -12.53207009 5.79608242 0 0 Z " fill="#A56435" transform="translate(125,132)"/>
<path d="M0 0 C-3.01237399 1.00412466 -4.52232841 0.9902072 -7.625 0.8125 C-45.37439146 0.71406612 -85.66880168 27.58775225 -115 49 C-161.76967593 83.07014229 -161.76967593 83.07014229 -174 83.25 C-175.051875 83.27578125 -176.10375 83.3015625 -177.1875 83.328125 C-180 83 -180 83 -181.875 81.484375 C-182.24625 80.99453125 -182.6175 80.5046875 -183 80 C-182.31035156 80.04640625 -181.62070313 80.0928125 -180.91015625 80.140625 C-173.84156982 80.41212077 -169.14356576 79.42896694 -163 76 C-162.12085938 75.525625 -161.24171875 75.05125 -160.3359375 74.5625 C-148.32093446 67.82632579 -137.20625706 59.62631817 -126.0625 51.5625 C-125.30799561 51.017146 -124.55349121 50.47179199 -123.77612305 49.90991211 C-119.32397425 46.68997452 -119.32397425 46.68997452 -114.88769531 43.44824219 C-92.43668612 26.95730251 -28.72495786 -17.24871872 0 0 Z " fill="#DEC4A7" transform="translate(226,68)"/>
<path d="M0 0 C0.33 0.66 0.66 1.32 1 2 C0.030625 2.3403125 -0.93875 2.680625 -1.9375 3.03125 C-27.92222281 12.34331548 -49.44996509 27.27017191 -71.20703125 43.99609375 C-81.82503597 52.15789952 -92.55301475 60.01500858 -103.69140625 67.453125 C-106.01169735 69.00783782 -108.31925044 70.58006925 -110.625 72.15625 C-143.01697506 94.19949456 -143.01697506 94.19949456 -160.5625 94.4375 C-161.25408203 94.44789307 -161.94566406 94.45828613 -162.65820312 94.46899414 C-165.66436952 94.41499338 -167.54957629 94.35013056 -169.96484375 92.47265625 C-170.30644531 91.98667969 -170.64804688 91.50070312 -171 91 C-169.5459375 91.10441406 -169.5459375 91.10441406 -168.0625 91.2109375 C-141.4708005 92.538511 -119.53053363 73.76010502 -99 59 C-97.4938624 57.92786149 -95.98736128 56.85623344 -94.48046875 55.78515625 C-86.26588829 49.92225403 -78.19671291 43.89027754 -70.1875 37.75 C-19.39632365 -1.15368468 -19.39632365 -1.15368468 0 0 Z " fill="#DEC5A8" transform="translate(279,172)"/>
<path d="M0 0 C0.99 0.495 0.99 0.495 2 1 C2.5 4.125 2.5 4.125 2 8 C-0.19136544 10.66897073 -3.05881838 12.2436944 -6 14 C-7.53914063 14.93199219 -7.53914063 14.93199219 -9.109375 15.8828125 C-16.61141581 20.29461007 -24.34908413 24.18455686 -32.15966797 28.01757812 C-58.52408616 40.95957985 -83.73027258 57.10673239 -104.2890625 78.3671875 C-106 80 -106 80 -108 80 C-108.24878906 80.56847656 -108.49757813 81.13695313 -108.75390625 81.72265625 C-110.18762404 84.3428991 -111.9040904 86.252626 -113.9375 88.4375 C-116.1603891 90.82658642 -117.97758983 92.96168237 -119.62890625 95.78515625 C-120.08136719 96.51605469 -120.53382812 97.24695313 -121 98 C-121.66 98 -122.32 98 -123 98 C-122.6944669 91.88933805 -119.73530773 88.52546898 -116 84 C-115.525625 83.3915625 -115.05125 82.783125 -114.5625 82.15625 C-113.4292114 80.72614772 -112.22066095 79.35628995 -111 78 C-110.34 78 -109.68 78 -109 78 C-109 77.34 -109 76.68 -109 76 C-107.70703125 74.66015625 -107.70703125 74.66015625 -105.8125 73.0625 C-105.07644531 72.43859375 -104.34039062 71.8146875 -103.58203125 71.171875 C-102.30392578 70.09679687 -102.30392578 70.09679687 -101 69 C-100.05511719 68.18015625 -99.11023438 67.3603125 -98.13671875 66.515625 C-77.8126479 48.92966263 -55.95699984 35.20249522 -32.00024414 23.13793945 C-25.37375329 19.79886413 -18.77938883 16.41642556 -12.30078125 12.796875 C-11.20548096 12.18682617 -10.11018066 11.57677734 -8.98168945 10.94824219 C-5.24545293 8.50697735 -1.70396746 6.00359968 -0.1875 1.6875 C-0.0946875 0.8521875 -0.0946875 0.8521875 0 0 Z " fill="#DDC4A7" transform="translate(170,44)"/>
<path d="M0 0 C0.66 0 1.32 0 2 0 C5.25709337 9.7712801 2.03099852 19.33626061 -2.0625 28.3359375 C-11.65620466 46.79049437 -27.35570261 61.43830398 -45 72 C-45.64630371 72.39461426 -46.29260742 72.78922852 -46.95849609 73.19580078 C-59.05213155 80.5730074 -71.4946094 87.35143086 -84 94 C-84.98919434 94.52932129 -85.97838867 95.05864258 -86.99755859 95.60400391 C-89.94680069 97.17250574 -92.90818423 98.71504222 -95.875 100.25 C-97.220177 100.96724243 -97.220177 100.96724243 -98.5925293 101.69897461 C-104.05475474 104.47879737 -107.8681237 105.54062947 -114 105 C-114 104.34 -114 103.68 -114 103 C-112.74445313 102.61585938 -111.48890625 102.23171875 -110.1953125 101.8359375 C-104.49622007 99.93031042 -99.22691911 97.33880408 -93.875 94.625 C-92.83456543 94.10043213 -91.79413086 93.57586426 -90.72216797 93.03540039 C-79.61153511 87.37787485 -68.76158257 81.29232365 -58 75 C-57.15083008 74.50580566 -56.30166016 74.01161133 -55.42675781 73.50244141 C-46.02127159 68.00017644 -37.066546 62.39433383 -29 55 C-28.27006836 54.33363525 -28.27006836 54.33363525 -27.52539062 53.65380859 C-15.41653341 42.4696138 -3.02278677 27.62532723 0 11 C0.14014886 7.32609787 0.11959061 3.67408927 0 0 Z " fill="#DEC5A8" transform="translate(286,169)"/>
<path d="M0 0 C2.57112842 1.88366093 2.98582124 2.91800978 3.5390625 6.1171875 C3.85427889 19.90074064 -1.55868007 29.05843674 -10.95703125 38.90087891 C-12.29864197 40.27318905 -13.64902446 41.63690809 -15 43 C-15.58394531 43.63292969 -16.16789062 44.26585937 -16.76953125 44.91796875 C-31.26681381 60.36950282 -50.96359942 71.45945998 -69.15673828 81.92333984 C-72.56001106 83.91121176 -75.88997944 86.02089601 -79.21484375 88.13671875 C-79.80394531 88.42160156 -80.39304688 88.70648438 -81 89 C-81.66 88.67 -82.32 88.34 -83 88 C-79.20309779 82.82308422 -75.4851913 80.26429567 -69.8125 77.375 C-43.03532223 63.10115844 -11.49921238 42.37309658 0.5 13.375 C1.178843 8.79280972 0.67903661 4.56055669 0 0 Z " fill="#DEC5A8" transform="translate(276,103)"/>
<path d="M0 0 C0 0.66 0 1.32 0 2 C-1.12792969 2.14695313 -2.25585938 2.29390625 -3.41796875 2.4453125 C-40.87915025 7.64433608 -72.76552969 24.15048154 -100.67578125 49.5234375 C-103.60863631 51.38666306 -105.59055954 51.28535 -109 51 C-109 50.01 -109 49.02 -109 48 C-108.01 47.649375 -107.02 47.29875 -106 46.9375 C-102.93689188 45.62943287 -100.76726596 44.06351731 -98.3203125 41.8125 C-87.05059511 31.73462165 -74.44304989 22.90866717 -61 16 C-59.84757812 15.39800781 -58.69515625 14.79601562 -57.5078125 14.17578125 C-40.42277155 5.55907878 -19.29278758 -1.05233387 0 0 Z " fill="#DEC5A8" transform="translate(160,46)"/>
<path d="M0 0 C0.99 0.495 0.99 0.495 2 1 C2.94941866 9.26345868 1.12286438 14.48601296 -4 21 C-16.31548057 34.62685119 -36.05277579 42.65615531 -52 51 C-53.21864746 51.64219482 -53.21864746 51.64219482 -54.46191406 52.29736328 C-58.14875265 54.20136048 -60.78873132 55.52640858 -65 55 C-65 54.34 -65 53.68 -65 53 C-63.90667358 52.4423999 -63.90667358 52.4423999 -62.79125977 51.87353516 C-27.45446457 36.55563078 -27.45446457 36.55563078 -2 10 C-1.05642862 6.68587984 -0.41401394 3.41918412 0 0 Z " fill="#DEC5A8" transform="translate(233,65)"/>
<path d="M0 0 C0.66 0.33 1.32 0.66 2 1 C-0.40849695 6.03348802 -3.7746091 8.20132998 -8.3125 11.125 C-9.76787271 12.09820956 -11.22095802 13.07484746 -12.671875 14.0546875 C-13.40083984 14.54678711 -14.12980469 15.03888672 -14.88085938 15.54589844 C-30.23767325 26.08336197 -50.74694752 41.08197353 -54.6953125 60.40234375 C-54.79585937 61.25957031 -54.89640625 62.11679688 -55 63 C-55.66 62.67 -56.32 62.34 -57 62 C-57.87336784 54.28525078 -55.29660745 49.33417387 -51 43 C-48.18744804 39.46957763 -45.14583904 36.23365393 -42 33 C-41.30777344 32.23429687 -40.61554688 31.46859375 -39.90234375 30.6796875 C-28.52350235 18.51817447 -13.99598539 8.90395006 0 0 Z " fill="#DEC5A8" transform="translate(117,146)"/>
<path d="M0 0 C-1.36910206 4.10730617 -4.09930135 5.05310876 -7.6875 7.0625 C-24.91139187 17.05813989 -44.62795527 29.32390022 -53 48 C-53.66 48.99 -54.32 49.98 -55 51 C-56 50 -56 50 -56.4375 47.5625 C-54.98452171 35.73110536 -44.01936592 27.29061728 -35.26196289 20.34570312 C-28.31572241 14.95568081 -21.13926795 9.95041018 -13.75 5.1875 C-12.55334717 4.40475708 -12.55334717 4.40475708 -11.33251953 3.60620117 C-10.57825684 3.13158447 -9.82399414 2.65696777 -9.046875 2.16796875 C-8.38526367 1.74797607 -7.72365234 1.3279834 -7.04199219 0.89526367 C-4.57418868 -0.186687 -2.66636363 -0.16078138 0 0 Z " fill="#DDC4A7" transform="translate(167,206)"/>
<path d="M0 0 C0.82757813 -0.01417969 1.65515625 -0.02835937 2.5078125 -0.04296875 C5.05916934 0.20543068 6.67585002 0.90550704 8.875 2.1875 C6.875 3.1875 6.875 3.1875 3.1875 3 C-20.48080562 2.84876482 -45.80221404 19.78532087 -64.125 33.1875 C-65.115 32.1975 -66.105 31.2075 -67.125 30.1875 C-48.40604615 16.48963024 -24.00670436 0.18814032 0 0 Z " fill="#DEC4A7" transform="translate(261.125,104.8125)"/>
<path d="M0 0 C0.99 0.33 1.98 0.66 3 1 C1.56099021 4.53407397 -0.10670521 6.07356927 -3.26171875 8.171875 C-4.12635742 8.75026123 -4.99099609 9.32864746 -5.88183594 9.92456055 C-6.80770508 10.52695557 -7.73357422 11.12935059 -8.6875 11.75 C-9.63270508 12.37108643 -10.57791016 12.99217285 -11.55175781 13.63208008 C-19.1485223 18.56637297 -26.81952315 23.10891176 -35 27 C-35.75410156 27.37769531 -36.50820312 27.75539062 -37.28515625 28.14453125 C-42.46946608 30.3321302 -47.82563447 30.29644808 -53.375 30.375 C-54.17333252 30.38917969 -54.97166504 30.40335938 -55.79418945 30.41796875 C-61.57820187 30.36867494 -61.57820187 30.36867494 -63.74462891 28.47509766 C-64.15890137 27.98831543 -64.57317383 27.5015332 -65 27 C-64.21238281 27.11859375 -63.42476562 27.2371875 -62.61328125 27.359375 C-40.04226716 30.03050093 -19.24763271 14.55359428 -2.27734375 1.37109375 C-1.52582031 0.91863281 -0.77429688 0.46617187 0 0 Z " fill="#DEC4A7" transform="translate(124,190)"/>
</svg>
