<?xml version="1.0" encoding="UTF-8"?>
<svg version="1.1" xmlns="http://www.w3.org/2000/svg" width="320" height="320">
<path d="M0 0 C2.35094313 3.52641469 2.68705433 5.50683757 2.5390625 9.6640625 C1.42771956 14.47988192 -1.99417724 16.48041952 -6 19 C-8.3805333 20.1517141 -10.74444079 21.2406796 -13.171875 22.28125 C-13.86738464 22.58225616 -14.56289429 22.88326233 -15.27947998 23.19338989 C-22.71999953 26.37265263 -30.28917092 29.19344634 -37.87750244 31.99645996 C-51.82020356 37.15946683 -65.65273957 42.41799181 -79 49 C-79.79986328 49.39106934 -80.59972656 49.78213867 -81.42382812 50.18505859 C-99.02654797 58.87287478 -118.41559618 69.34996189 -127 88 C-127 88.99 -127 89.98 -127 91 C-120.85320336 89.15220642 -115.3306104 86.85016606 -109.75 83.6875 C-108.98405518 83.25800049 -108.21811035 82.82850098 -107.42895508 82.38598633 C-100.41380527 78.37662305 -93.72623347 73.91979228 -87.03686523 69.39428711 C-50.82903364 44.92130281 -9.53338912 19.16745335 35.4375 18.625 C36.33742676 18.61082031 37.23735352 18.59664062 38.16455078 18.58203125 C47.15701313 18.64845756 54.90049502 20.29276463 61.625 26.5 C65.40788154 30.62677986 65.55096679 33.77294838 65.4375 39.1484375 C64.32030158 46.4301772 58.73820045 50.38914829 53.12841797 54.50756836 C39.13264281 64.32130701 23.02726352 70.43201986 7.24047852 76.70581055 C5.16195925 77.53593415 3.08890881 78.37996381 1.02319336 79.24145508 C0.13768799 79.60907959 -0.74781738 79.9767041 -1.66015625 80.35546875 C-2.80303101 80.83729614 -2.80303101 80.83729614 -3.96899414 81.32885742 C-7.29071179 82.42651361 -9.65499642 81.8802641 -13 81 C-14.423125 80.62875 -14.423125 80.62875 -15.875 80.25 C-18.59253519 79.52902127 -21.29800616 78.7768843 -24 78 C-21.47562835 75.00897419 -18.84167716 73.95312728 -15.21484375 72.58203125 C-14.05331787 72.13657959 -12.89179199 71.69112793 -11.69506836 71.23217773 C-11.0817868 71.00070038 -10.46850525 70.76922302 -9.8366394 70.5307312 C-6.63330268 69.31926859 -3.44197995 68.07695109 -0.25 66.8359375 C0.38160538 66.59082932 1.01321075 66.34572113 1.66395569 66.09318542 C30.06986122 56.05853706 30.06986122 56.05853706 53 38 C53.74760252 35.36700578 53.74760252 35.36700578 54 33 C38.54932111 24.92350876 21.04899175 29.57478525 5.22265625 34.4375 C-21.97868988 43.22311254 -47.25572348 57.88973747 -70.96289062 73.6484375 C-115.31936822 103.07766328 -115.31936822 103.07766328 -130 101 C-132.90761031 99.64311519 -134.58249231 98.21176236 -137 96 C-139.23527032 89.29418904 -138.08511732 83.80968523 -135.3125 77.50390625 C-117.84904881 44.18821515 -67.88843318 30.08517102 -35.11328125 18.23535156 C-20.96097632 13.88663413 -20.96097632 13.88663413 -10 5 C-49.225495 3.1919106 -91.45878633 21.74319864 -122.140625 45.41796875 C-125.63703687 47.35245892 -128.06430145 47.29860399 -132 47 C-132 46.34 -132 45.68 -132 45 C-132.66 45 -133.32 45 -134 45 C-134.5 41.8671875 -134.5 41.8671875 -134 38 C-131.69604777 35.48988811 -128.90571388 33.87048495 -126 32.125 C-125.18128418 31.6096167 -124.36256836 31.0942334 -123.51904297 30.56323242 C-121.02983816 29.01174834 -118.51975295 27.5012476 -116 26 C-114.96020996 25.36843994 -114.96020996 25.36843994 -113.89941406 24.72412109 C-91.34306874 11.08998833 -65.12326071 0.03929031 -39 -4 C-38.25234375 -4.12761719 -37.5046875 -4.25523438 -36.734375 -4.38671875 C-25.38370043 -6.00524086 -9.56826387 -7.24868475 0 0 Z " fill="#572906" transform="translate(192,41)"/>
<path d="M0 0 C4.64424825 4.01094167 9.47657098 8.64953257 10.23828125 14.98046875 C10.50753663 22.98727361 7.96688475 28.11934147 2.625 34 C-13.95379496 49.4375011 -39.06987404 55.01181042 -60 62.3125 C-117.38627078 78.78818556 -117.38627078 78.78818556 -161.18359375 115.046875 C-162.27640862 117.66126464 -161.74349575 119.32341531 -161 122 C-150.70750774 125.48898043 -143.00936332 122.01479386 -133.68359375 117.44140625 C-118.3052747 109.67304397 -103.74386406 100.75505969 -89.3125 91.375 C-36.67014654 57.16346596 -36.67014654 57.16346596 -8.1875 56.6875 C-7.09223999 56.66067139 -7.09223999 56.66067139 -5.97485352 56.63330078 C-1.46703466 56.64057062 1.45312683 57.16513855 5 60 C8.94579348 66.93915405 8.74787376 73.85620551 6.875 81.38671875 C0.55620895 100.25846522 -13.05840798 113.14356753 -30.56640625 121.9296875 C-39.46663668 126.19476461 -48.73753308 129.61597254 -58 133 C-59.23967529 133.45391113 -59.23967529 133.45391113 -60.50439453 133.91699219 C-71.97974065 138.05595108 -83.68993097 141.43051746 -95.42446899 144.74514771 C-97.04609186 145.20330731 -98.66701716 145.66394378 -100.28720093 146.12716675 C-102.58205706 146.78086346 -104.88015105 147.42158254 -107.1796875 148.05859375 C-107.86435593 148.25509521 -108.54902435 148.45159668 -109.25444031 148.65405273 C-113.59865498 149.83711241 -117.50747766 150.18102672 -122 150 C-122 149.34 -122 148.68 -122 148 C-122.99 148 -123.98 148 -125 148 C-125 145.69 -125 143.38 -125 141 C-124.16912117 140.77021957 -124.16912117 140.77021957 -123.32145691 140.53579712 C-67.78147213 128.13466194 -67.78147213 128.13466194 -19.828125 99.796875 C-18 98 -18 98 -16 98 C-15.73832031 97.43023437 -15.47664062 96.86046875 -15.20703125 96.2734375 C-13.91057661 93.83157147 -12.37293486 91.81494418 -10.6875 89.625 C-5.83181793 82.79860178 -2 74.46886032 -2 66 C-30.44101991 68.65205652 -54.45683826 83.67564241 -77.9453125 98.83203125 C-131.43934083 133.34617789 -131.43934083 133.34617789 -150.9375 133.375 C-151.80568359 133.39949219 -152.67386719 133.42398438 -153.56835938 133.44921875 C-160.88373932 133.48239508 -164.56195477 131.58693305 -170.3984375 127.1953125 C-173.90788746 122.38479816 -172.74096081 115.63474845 -172 110 C-167.41724756 97.04723932 -154.22447923 89.64726691 -143 83 C-142.31760254 82.57944336 -141.63520508 82.15888672 -140.93212891 81.72558594 C-131.21076341 75.81481755 -123.68775886 73.26336503 -112.2734375 73.80883789 C-100.50303316 74.36028778 -89.41187668 71.34838808 -80 64 C-78.36989398 62.22781974 -76.75513236 60.44145562 -75.15234375 58.64453125 C-69.56972681 52.79214164 -63.4496156 50.20021145 -55.83410645 47.86898804 C-53.06692771 47.02171604 -50.32574442 46.10126656 -47.58071899 45.18522644 C-46.22873644 44.73491856 -44.87553705 44.28824594 -43.52108765 43.84541321 C-36.08502765 41.40836897 -29.03861643 38.41082152 -22 35 C-20.98550781 34.52433594 -19.97101563 34.04867187 -18.92578125 33.55859375 C-10.77224377 29.47626325 -3.0249654 23.91816224 0 15 C-3.590942 10.28047623 -5.80491309 7.63933475 -11.87109375 6.71484375 C-28.62557426 5.58239186 -47.83011246 14.35813155 -62.44921875 21.7421875 C-65 23 -65 23 -67 23 C-67.27599507 21.23303157 -67.51996915 19.46103785 -67.75 17.6875 C-67.95882812 16.20830078 -67.95882812 16.20830078 -68.171875 14.69921875 C-68 12 -68 12 -66.26123047 10.45019531 C-50.44166206 0.30462888 -17.7765485 -9.91384435 0 0 Z " fill="#572906" transform="translate(268,130)"/>
<path d="M0 0 C-0.61875 0.86625 -1.2375 1.7325 -1.875 2.625 C-4.10748713 5.83090214 -4.10748713 5.83090214 -4.9375 9.1875 C-6.72108827 13.90876308 -11.48144423 15.30211207 -15.84375 17.41796875 C-26.21220241 22.49347346 -36.4140878 27.53055273 -46 34 C-47.25490234 34.82177734 -47.25490234 34.82177734 -48.53515625 35.66015625 C-56.85388034 41.53464755 -63.2330314 50.84458048 -65 61 C-65.16549502 65.04383484 -64.70604051 68.07484347 -62.1875 71.375 C-57.53388201 74.83197336 -53.83747126 75.85817429 -48 75 C-32.52914652 70.89735886 -17.09649882 61.29937522 -4.12109375 52.109375 C-1.5175834 50.74768635 0.09951029 50.6167379 3 51 C6.04575642 53.56120426 7.73506553 55.20519658 9 59 C-38.07348222 86.90618563 -38.07348222 86.90618563 -58 85 C-64.64498179 83.04015094 -69.15419188 79.70668302 -73 74 C-75.73350162 65.79949515 -75.42277135 53.30572759 -72.375 45.25 C-71.25390625 43.0234375 -71.25390625 43.0234375 -70 41 C-69.57589844 40.31164062 -69.15179688 39.62328125 -68.71484375 38.9140625 C-59.80661962 25.96115721 -16.41514606 -6.37064002 0 0 Z " fill="#572A07" transform="translate(124,137)"/>
<path d="M0 0 C2.875 2.5625 2.875 2.5625 5 5 C5.99 5.99 5.99 5.99 7 7 C8.84278703 13.4497546 8.62316652 19.10544336 5.37890625 24.9609375 C-1.95929941 35.8123351 -13.82190243 41.98943717 -25.75 46.5625 C-26.77552979 46.96380127 -27.80105957 47.36510254 -28.85766602 47.77856445 C-39.49619256 51.89276317 -50.21648558 55.79452623 -60.9375 59.6875 C-61.81845337 60.009534 -62.69940674 60.33156799 -63.60705566 60.6633606 C-66.11927141 61.5793788 -68.6350721 62.48470185 -71.15234375 63.38671875 C-71.91580612 63.66637482 -72.67926849 63.94603088 -73.46586609 64.23416138 C-75.29091472 64.88117174 -77.1438015 65.44868154 -79 66 C-79.66 65.67 -80.32 65.34 -81 65 C-71.93572139 51.7841434 -57.95805368 48.49661526 -43.49629211 43.82092285 C-36.06158734 41.40554687 -29.03108722 38.40717297 -22 35 C-20.98550781 34.52433594 -19.97101563 34.04867187 -18.92578125 33.55859375 C-10.77224377 29.47626325 -3.0249654 23.91816224 0 15 C-3.590942 10.28047623 -5.80491309 7.63933475 -11.87109375 6.71484375 C-28.62557426 5.58239186 -47.83011246 14.35813155 -62.44921875 21.7421875 C-65 23 -65 23 -67 23 C-67.27599507 21.23303157 -67.51996915 19.46103785 -67.75 17.6875 C-67.95882812 16.20830078 -67.95882812 16.20830078 -68.171875 14.69921875 C-68 12 -68 12 -66.26123047 10.45019531 C-50.44166206 0.30462888 -17.7765485 -9.91384435 0 0 Z " fill="#582A07" transform="translate(268,130)"/>
<path d="M0 0 C0.99 0.495 0.99 0.495 2 1 C3.8004961 6.40148829 3.85508147 11.81284704 1.5 17.0625 C-11.25954179 39.28170208 -44.51235853 45.46852954 -67 53.3125 C-123.35270962 69.32397089 -123.35270962 69.32397089 -167 104 C-168.26489108 106.95141251 -169.24196275 109.88121818 -170 113 C-171.5625 111.8125 -171.5625 111.8125 -173 110 C-172.5285015 102.70356071 -167.05479849 96.7249542 -161.9375 91.9375 C-149.81014454 81.78808225 -135.24828471 75.56043658 -121 69 C-119.7936792 68.43249023 -119.7936792 68.43249023 -118.56298828 67.85351562 C-112.67477548 65.13607214 -106.96503117 63.60814149 -100.6484375 62.125 C-97.40285438 61.12422062 -94.9859785 59.84331705 -92.10449219 58.10205078 C-87.32218374 55.59771896 -82.04727648 54.13337164 -76.9375 52.4375 C-74.33691174 51.55815808 -71.73874337 50.67176541 -69.140625 49.78515625 C-68.47375168 49.55812012 -67.80687836 49.33108398 -67.11979675 49.09716797 C-29.54035206 38.51852381 -29.54035206 38.51852381 -1.3125 14 C0.60413179 9.48156371 0.35533828 4.81680776 0 0 Z " fill="#DAC2A5" transform="translate(275,139)"/>
<path d="M0 0 C0.33 0.66 0.66 1.32 1 2 C-0.155 1.67 -1.31 1.34 -2.5 1 C-40.72023715 -7.22838179 -84.2266926 19.68914338 -114.78417969 39.26611328 C-117.5208106 41.04473164 -120.2447872 42.84165155 -122.96289062 44.6484375 C-164.20742549 72.01298028 -164.20742549 72.01298028 -177.125 72.25 C-177.97320312 72.27578125 -178.82140625 72.3015625 -179.6953125 72.328125 C-182.44804317 71.9362108 -183.28643995 71.12795039 -185 69 C-184.40574219 69.04640625 -183.81148437 69.0928125 -183.19921875 69.140625 C-165.19885114 69.92446682 -149.23168257 56.9197593 -135 47.3125 C-38.44829263 -17.85099301 -38.44829263 -17.85099301 0 0 Z " fill="#DAC2A6" transform="translate(244,70)"/>
<path d="M0 0 C0.99 0.495 0.99 0.495 2 1 C2.64206017 4.93261852 2.99160341 8.44585236 0.78125 11.91015625 C-3.27060485 15.81095511 -8.05508819 18.08783241 -13.171875 20.28125 C-13.86738464 20.58225616 -14.56289429 20.88326233 -15.27947998 21.19338989 C-22.71999953 24.37265263 -30.28917092 27.19344634 -37.87750244 29.99645996 C-51.82020356 35.15946683 -65.65273957 40.41799181 -79 47 C-79.79986328 47.39106934 -80.59972656 47.78213867 -81.42382812 48.18505859 C-99.48409406 57.09869649 -117.58809122 67.37786621 -127 86 C-127.33 86.99 -127.66 87.98 -128 89 C-128.99 88.67 -129.98 88.34 -131 88 C-129.79298845 77.57443778 -121.66031794 69.63972428 -114 63 C-89.99607718 44.26038577 -60.64974385 33.74527762 -32.25415039 23.62768555 C-14.61665616 17.80253752 -14.61665616 17.80253752 -1 6 C-0.126062 2.77566873 -0.126062 2.77566873 0 0 Z " fill="#DAC2A5" transform="translate(192,43)"/>
<path d="M0 0 C1.60294922 0.01353516 1.60294922 0.01353516 3.23828125 0.02734375 C4.04652344 0.03894531 4.85476563 0.05054688 5.6875 0.0625 C6.0175 0.7225 6.3475 1.3825 6.6875 2.0625 C5.48480469 2.17464844 5.48480469 2.17464844 4.2578125 2.2890625 C-23.15790321 5.45958745 -46.52770452 20.22749279 -69.2578125 34.89453125 C-122.86767782 69.48341548 -122.86767782 69.48341548 -142.4375 69.3125 C-143.77748047 69.32410156 -143.77748047 69.32410156 -145.14453125 69.3359375 C-146.00691406 69.33335937 -146.86929688 69.33078125 -147.7578125 69.328125 C-148.53656738 69.32586914 -149.31532227 69.32361328 -150.11767578 69.32128906 C-152.55556294 69.03384074 -154.19562452 68.27610296 -156.3125 67.0625 C-153.07354758 65.98284919 -151.74229092 66.18736844 -148.4375 66.6875 C-122.0441272 69.12751233 -93.691005 45.94209521 -72.9375 32.3125 C-23.33823734 -0.25646415 -23.33823734 -0.25646415 0 0 Z " fill="#DAC2A6" transform="translate(259.3125,193.9375)"/>
<path d="M0 0 C3 2 3 2 3.6875 3.625 C5.44649024 16.99332581 0.83694598 29.14174124 -7.109375 39.83984375 C-21.87686038 56.83292533 -41.36916158 64.46255621 -62 72 C-62.8264502 72.30260742 -63.65290039 72.60521484 -64.50439453 72.91699219 C-75.97974065 77.05595108 -87.68993097 80.43051746 -99.42446899 83.74514771 C-101.04609186 84.20330731 -102.66701716 84.66394378 -104.28720093 85.12716675 C-106.58205706 85.78086346 -108.88015105 86.42158254 -111.1796875 87.05859375 C-111.86435593 87.25509521 -112.54902435 87.45159668 -113.25444031 87.65405273 C-117.59865498 88.83711241 -121.50747766 89.18102672 -126 89 C-126 88.34 -126 87.68 -126 87 C-125.44163956 86.84459244 -124.88327911 86.68918488 -124.30799866 86.52906799 C-87.71777999 76.60588919 -87.71777999 76.60588919 -52 64 C-50.84685303 63.54318848 -50.84685303 63.54318848 -49.67041016 63.07714844 C-30.02437261 55.22215235 -12.45551784 44.26156967 -3.1015625 24.6484375 C0.15769742 16.81234449 2.68059098 8.37684682 0 0 Z " fill="#DAC1A5" transform="translate(272,191)"/>
<path d="M0 0 C-3.28853769 1.09617923 -3.83032497 0.85403541 -7 0 C-43.34998298 -3.37496037 -87.08366217 18.76860959 -115.140625 40.41796875 C-118.63703687 42.35245892 -121.06430145 42.29860399 -125 42 C-125 41.34 -125 40.68 -125 40 C-124.39414063 39.72027344 -123.78828125 39.44054687 -123.1640625 39.15234375 C-118.67263944 37.00337056 -114.51545423 34.76462837 -110.5 31.8125 C-83.94068204 12.74108944 -32.70591387 -13.30410056 0 0 Z " fill="#DAC2A6" transform="translate(185,46)"/>
<path d="M0 0 C0.99 0.495 0.99 0.495 2 1 C2.68434714 7.89416378 2.53148601 12.56524645 -1.90625 18.05078125 C-16.92983138 32.03728705 -36.99549527 39.25338811 -55.76025391 46.70507812 C-57.83730569 47.53527275 -59.90804411 48.3815487 -61.97021484 49.24804688 C-62.85402832 49.61736328 -63.7378418 49.98667969 -64.6484375 50.3671875 C-65.78804932 50.85227783 -65.78804932 50.85227783 -66.95068359 51.34716797 C-69.85766773 52.27321938 -72.12926907 51.90654661 -75 51 C-72.62249109 48.62249109 -70.70686391 47.99367822 -67.55859375 46.8203125 C-65.86488647 46.17811768 -65.86488647 46.17811768 -64.13696289 45.52294922 C-62.91614014 45.06162598 -61.69531738 44.60030273 -60.4375 44.125 C-27.12999609 32.81427234 -27.12999609 32.81427234 -1.9453125 10.21875 C-0.47419122 6.76587031 -0.13604227 3.74116256 0 0 Z " fill="#DAC2A6" transform="translate(255,71)"/>
<path d="M0 0 C-1.03432344 3.27656308 -2.07831111 4.04611764 -5.09765625 5.82421875 C-6.41407586 6.45624879 -7.73613677 7.07661284 -9.0625 7.6875 C-10.52028012 8.39037602 -11.97728687 9.09485784 -13.43359375 9.80078125 C-14.18753418 10.16252441 -14.94147461 10.52426758 -15.71826172 10.89697266 C-41.91656487 23.49859094 -41.91656487 23.49859094 -58.5 46.5 C-60.31341775 51.88646544 -60.10199516 56.47804601 -59 62 C-61 61 -61 61 -62.1875 58 C-64.34010455 49.26607172 -61.26846252 41.91623736 -57.0625 34.296875 C-48.6892829 20.91241434 -15.75425679 0 0 0 Z " fill="#DAC2A5" transform="translate(119,146)"/>
<path d="M0 0 C0 0.66 0 1.32 0 2 C-2.47127643 3.61795202 -4.93497519 5.10604081 -7.5 6.5625 C-8.26521973 7.00360107 -9.03043945 7.44470215 -9.81884766 7.89916992 C-11.4178354 8.81857966 -13.01895564 9.73428955 -14.62207031 10.64648438 C-16.85464067 11.91726159 -19.08025564 13.1994227 -21.3046875 14.484375 C-45.54443572 28.40388857 -45.54443572 28.40388857 -58.9375 28.375 C-59.98756226 28.3747583 -59.98756226 28.3747583 -61.05883789 28.37451172 C-66.76469339 28.24832006 -70.34609344 27.22924128 -75 24 C-75.33 23.34 -75.66 22.68 -76 22 C-75.236875 22.309375 -74.47375 22.61875 -73.6875 22.9375 C-63.59159155 26.92890567 -53.60016026 25.61899485 -43.6796875 21.6640625 C-31.88245327 16.4498505 -20.91837208 9.94035542 -10.2434082 2.72241211 C-9.10778442 1.97423218 -9.10778442 1.97423218 -7.94921875 1.2109375 C-7.28237061 0.76024902 -6.61552246 0.30956055 -5.9284668 -0.15478516 C-3.53789595 -1.2025325 -2.40758907 -0.87640131 0 0 Z " fill="#DAC2A6" transform="translate(133,194)"/>
<path d="M0 0 C-0.66 0.33 -1.32 0.66 -2 1 C-2.99 0.67 -3.98 0.34 -5 0 C-21.94763076 -2.55675464 -42.71433483 7.2996527 -57.44921875 14.7421875 C-60 16 -60 16 -62 16 C-61.71923828 14.12280273 -61.71923828 14.12280273 -61 12 C-59.47216797 10.89086914 -59.47216797 10.89086914 -57.4921875 10.03515625 C-56.76 9.71240723 -56.0278125 9.3896582 -55.2734375 9.05712891 C-54.08621094 8.5647876 -54.08621094 8.5647876 -52.875 8.0625 C-52.06546875 7.71622559 -51.2559375 7.36995117 -50.421875 7.01318359 C-13.05672591 -8.70448394 -13.05672591 -8.70448394 0 0 Z " fill="#DAC2A6" transform="translate(263,137)"/>
</svg>
