<?xml version="1.0" encoding="UTF-8"?>
<svg version="1.1" xmlns="http://www.w3.org/2000/svg" width="320" height="320">
<path d="M0 0 C2.35343981 2.11858511 2.91172811 3.47354961 3.43359375 6.5859375 C3.44204818 12.62239851 3.22644783 16.36121579 -1 21 C-7.07115264 26.81524649 -13.55888928 31.62634117 -20.5625 36.25 C-43.96338964 51.86226638 -43.96338964 51.86226638 -64.66015625 70.78515625 C-66 72 -66 72 -68 72 C-68.25007813 72.58007812 -68.50015625 73.16015625 -68.7578125 73.7578125 C-70.16379834 76.29566115 -71.76421928 77.89166264 -73.875 79.875 C-77.14512214 83.04999131 -79.66002434 86.10004057 -82 90 C-76.12711065 86.42732565 -70.7989664 82.29445657 -65.5 77.9375 C-57.83192 71.63484462 -50.01008969 65.56746262 -42.08935547 59.58642578 C-40.05034445 58.03822602 -38.0258448 56.47274758 -36.00390625 54.90234375 C-21.6598651 43.83364368 -6.40635674 34.67447111 10 27 C10.82749756 26.6066748 11.65499512 26.21334961 12.50756836 25.80810547 C30.89296919 17.22354638 59.21506142 5.23455288 79.84375 11.921875 C82.63475328 13.31737664 83.62121942 14.16987144 85 17 C85.7339182 21.69886653 85.52213306 25.03032432 83.25 29.25 C82.5075 30.1575 81.765 31.065 81 32 C80.40574219 32.78761719 79.81148437 33.57523438 79.19921875 34.38671875 C63.55798565 52.97283765 34.44791553 64.27604224 13 75 C11.14763674 75.15488687 9.2949602 75.30689262 7.44091797 75.44018555 C-11.28419663 76.97592897 -22.29854785 87.6322679 -34.046875 101.3984375 C-34.56765625 102.03007812 -35.0884375 102.66171875 -35.625 103.3125 C-38.92516075 107.23197112 -42.93723253 110.16420715 -47.01855469 113.21118164 C-51.50771868 116.57030133 -55.67733344 120.18102752 -59.796875 123.98828125 C-61.69100803 125.71785308 -63.62738186 127.33130703 -65.625 128.9375 C-73.80659878 135.94479872 -82.66902025 147.01473049 -84 158 C-83.10938785 159.97578739 -83.10938785 159.97578739 -81 161 C-75.42781372 161.49971695 -71.64921005 160.32592224 -66.875 157.625 C-66.22829346 157.26921875 -65.58158691 156.9134375 -64.9152832 156.546875 C-56.98883077 152.05124619 -50.08459477 146.37019969 -43.07421875 140.5859375 C-42.18347656 139.85632813 -41.29273438 139.12671875 -40.375 138.375 C-39.59898438 137.72273437 -38.82296875 137.07046875 -38.0234375 136.3984375 C-36 135 -36 135 -33 135 C-28.99026249 141.31837426 -28.99026249 141.31837426 -29.02734375 143.9140625 C-30.4994072 147.07101785 -32.98040739 148.96551245 -35.625 151.125 C-36.48702026 151.83861694 -36.48702026 151.83861694 -37.36645508 152.56665039 C-50.26948701 163.0496054 -62.33436443 171.87728335 -79.55859375 171.390625 C-84.92798574 170.78115939 -87.80610001 169.20964568 -91.6328125 165.35546875 C-94.7696921 159.95107333 -93.94627523 152.03742605 -93 146 C-88.66051092 133.46820445 -79.03878487 123.31336872 -69 115 C-67.66499124 113.77265324 -66.33176102 112.54337004 -65 111.3125 C-40.62668502 89.63329929 -11.16990236 74.16305543 17.5 59.0390625 C49.49287325 44.04756592 49.49287325 44.04756592 74 20 C33.41695303 23.95599449 -3.68196053 45.07357131 -35 70 C-35.96679688 70.76441406 -36.93359375 71.52882813 -37.9296875 72.31640625 C-40.29579705 74.19971151 -42.65067819 76.09581285 -45 78 C-48.31665048 80.68823249 -51.64989122 83.35354683 -55 86 C-55.6285791 86.49725586 -56.2571582 86.99451172 -56.90478516 87.50683594 C-81.58002294 106.94863332 -81.58002294 106.94863332 -92.72265625 106.44140625 C-95 106 -95 106 -98 104 C-99.43374537 98.52235744 -98.7482392 93.60055004 -96.37109375 88.515625 C-91.74945686 80.7037643 -85.77429731 73.92800685 -79.44140625 67.47216797 C-77.98692722 65.98664823 -76.55553527 64.4812119 -75.125 62.97265625 C-60.3651427 47.59996711 -42.36274202 35.43715634 -24.62109375 23.7734375 C-18.98335759 19.95893345 -13.75114716 15.87841004 -9 11 C-16.89289788 12.47728035 -24.10534524 15.11567658 -31.5625 18.0625 C-32.18150177 18.30676727 -32.80050354 18.55103455 -33.43826294 18.80270386 C-55.69980069 27.63363501 -73.10481372 40.10481372 -90 57 C-93.625 57.125 -93.625 57.125 -97 57 C-97 56.34 -97 55.68 -97 55 C-97.66 55 -98.32 55 -99 55 C-99.54165351 52.17136502 -99.71621687 50.73877296 -99 48 C-96.40736653 44.54941778 -93.25649091 41.81501328 -90 39 C-88.73542969 37.89978516 -88.73542969 37.89978516 -87.4453125 36.77734375 C-84.6785676 34.44982987 -81.85752722 32.21505051 -79 30 C-78.48872559 29.5963623 -77.97745117 29.19272461 -77.45068359 28.77685547 C-61.85811487 16.56339255 -43.53740421 9.54838402 -25 3 C-23.91847656 2.61585937 -22.83695312 2.23171875 -21.72265625 1.8359375 C-14.78744978 -0.34340785 -7.19742784 -1.20272807 0 0 Z " fill="#FEE59D" transform="translate(152,43)"/>
<path d="M0 0 C0.76691162 -0.01869141 1.53382324 -0.03738281 2.32397461 -0.05664062 C5.89447805 -0.01520191 7.91139336 0.18880756 10.76953125 2.40625 C14.71134101 7.75513615 14.0177969 14.1108398 13.3125 20.5 C11.90175333 24.09686557 9.89551377 26.65275309 7.3125 29.5 C6.70535156 30.20125 6.09820312 30.9025 5.47265625 31.625 C-5.03067378 42.91456779 -18.6203508 51.47239981 -31.6875 59.5 C-32.78578125 60.180625 -33.8840625 60.86125 -35.015625 61.5625 C-41.77674221 65.70578962 -48.65644021 69.61338894 -55.58959961 73.46118164 C-81.66583059 87.9258729 -81.66583059 87.9258729 -105.6875 105.5 C-106.61046875 106.24765625 -107.5334375 106.9953125 -108.484375 107.765625 C-114.21607121 112.61552179 -118.5017035 117.64924249 -121.6875 124.5 C-121.6875 125.16 -121.6875 125.82 -121.6875 126.5 C-106.92767467 129.89936542 -87.16369233 115.7477952 -75 108.29296875 C-72.1608031 106.4391846 -69.41320665 104.51654751 -66.6875 102.5 C-66.16542969 102.11634277 -65.64335937 101.73268555 -65.10546875 101.33740234 C-56.98402584 95.33904155 -49.16059964 88.98591721 -42.01953125 81.828125 C-39.1499936 79.08937057 -37.19184829 78.21462831 -33.3125 78.1875 C-32.11625 78.290625 -30.92 78.39375 -29.6875 78.5 C-28.11438116 81.64623767 -28.32865661 84.02873945 -28.6875 87.5 C-30.8203125 90.203125 -30.8203125 90.203125 -33.8125 92.75 C-34.35092529 93.21398193 -34.88935059 93.67796387 -35.4440918 94.15600586 C-37.17242304 95.62924385 -38.92580404 97.06689548 -40.6875 98.5 C-41.24872559 98.96486816 -41.80995117 99.42973633 -42.38818359 99.90869141 C-62.57585148 116.57681801 -91.04581762 138.35174347 -118.32421875 137.7578125 C-122.69268362 137.2812527 -126.10638628 135.76489098 -129.5625 133 C-132.68419968 128.83773376 -132.08037849 123.42609189 -131.6875 118.5 C-128.08291514 105.88395299 -116.81547474 97.86454747 -106.6875 90.5 C-105.86475586 89.89841064 -105.86475586 89.89841064 -105.02539062 89.28466797 C-92.7398064 80.36976322 -79.6160745 72.99449824 -66.375 65.625 C-26.19014213 45.43336773 -26.19014213 45.43336773 3.3125 13.5 C2.91623772 11.38794196 2.91623772 11.38794196 2.3125 9.5 C-22.85312963 14.51443858 -42.9510985 26.81261096 -63.6875 41.5 C-64.8591338 42.32065697 -66.03100173 43.14097979 -67.203125 43.9609375 C-78.91144092 52.19425859 -90.19440315 60.99001072 -101.47827148 69.79101562 C-166.77326675 120.70777926 -166.77326675 120.70777926 -187.6875 118.5 C-190.32077554 117.47113799 -191.5587459 116.46069457 -193.6875 114.5 C-195.96885127 107.65594618 -195.16619218 100.68716798 -192.28125 94.14453125 C-188.92421859 88.57416295 -184.23995611 84.09164511 -179.6875 79.5 C-179.08808594 78.85160156 -178.48867187 78.20320313 -177.87109375 77.53515625 C-172.46367612 71.77537556 -166.04018654 67.15246738 -159.6875 62.5 C-159.13239746 62.08943359 -158.57729492 61.67886719 -158.00537109 61.25585938 C-156.41312685 60.08912462 -154.80060144 58.95022382 -153.1875 57.8125 C-152.2490625 57.14863281 -151.310625 56.48476562 -150.34375 55.80078125 C-147.6875 54.5 -147.6875 54.5 -145.05078125 54.6640625 C-141.88706192 55.78313016 -139.39799217 57.54592425 -136.6875 59.5 C-138.21236373 63.65618347 -140.80222508 65.19070478 -144.4375 67.5625 C-168.89116805 83.74108123 -168.89116805 83.74108123 -184.6875 107.5 C-184.3575 107.83 -184.0275 108.16 -183.6875 108.5 C-160.49923465 97.48881254 -139.65402307 83.55508458 -119.58203125 67.62109375 C-114.94473568 64.22291359 -110.17603808 61.52165185 -104.75 59.5625 C-94.04761034 55.37883859 -86.94370119 49.09284182 -80.6875 39.5 C-61.88422773 19.40440662 -27.72043663 0.46837306 0 0 Z " fill="#FEE59D" transform="translate(278.6875,142.5)"/>
<path d="M0 0 C2.88649618 4.32974426 2.66018479 7.92165543 2 13 C-0.71821546 22.41504795 -8.24768793 29.28196362 -15 36 C-15.8559375 36.8559375 -16.711875 37.711875 -17.59375 38.59375 C-31.05443286 51.38970778 -47.05597533 61.23955709 -62.92041016 70.73925781 C-64.61046102 71.76384371 -66.26946465 72.8395121 -67.91796875 73.9296875 C-68.60503906 74.28289062 -69.29210937 74.63609375 -70 75 C-71.485 74.505 -71.485 74.505 -73 74 C-72.67 73.319375 -72.34 72.63875 -72 71.9375 C-70.73295393 68.97976421 -70.73295393 68.97976421 -71.5625 65.6875 C-71 62 -71 62 -69.05078125 60.08984375 C-66.10483579 57.92661665 -63.09375363 55.9463051 -60 54 C-58.86930528 53.2820154 -57.73910242 52.56325566 -56.609375 51.84375 C-56.03815918 51.48007324 -55.46694336 51.11639648 -54.87841797 50.74169922 C-54.29979004 50.37318848 -53.72116211 50.00467773 -53.125 49.625 C-52.53734863 49.25262207 -51.94969727 48.88024414 -51.34423828 48.49658203 C-41.12950549 41.9608253 -31.82473614 34.30930908 -23 26 C-22.36449219 25.41734375 -21.72898437 24.8346875 -21.07421875 24.234375 C-15.85982106 19.28590003 -11.2256084 13.4512168 -8 7 C-33.81042277 7.60151409 -58.70847197 22.87863971 -78.67431641 38.00317383 C-82.69088318 41 -82.69088318 41 -86 41 C-88.5120642 37.74909339 -90.14781196 35.00006629 -91 31 C-22.01120971 -16.32594089 -22.01120971 -16.32594089 0 0 Z " fill="#FEE59D" transform="translate(274,92)"/>
<path d="M0 0 C-0.33 0.66 -0.66 1.32 -1 2 C-3.00332005 2.49405186 -5.0303479 2.89259783 -7.0625 3.25 C-30.08392208 7.97532728 -49.07795932 20.60507459 -68 34 C-69.23663352 34.86507764 -70.47358743 35.72969758 -71.7109375 36.59375 C-83.35885535 44.77361548 -94.57033065 53.53948185 -105.79077148 62.29101562 C-168.19655382 110.95478313 -168.19655382 110.95478313 -186.5 111.25 C-187.93859375 111.28867187 -187.93859375 111.28867187 -189.40625 111.328125 C-192.36443253 110.95389709 -193.20113073 110.30935919 -195 108 C-194.3915625 108.0928125 -193.783125 108.185625 -193.15625 108.28125 C-183.38545656 109.08590358 -176.18831407 104.65783171 -168 100 C-166.95054199 99.41436279 -166.95054199 99.41436279 -165.87988281 98.81689453 C-150.78168614 90.36454467 -136.71968004 80.52519196 -123 70 C-122.01128906 69.24460937 -121.02257812 68.48921875 -120.00390625 67.7109375 C-115.26570079 64.07890485 -110.54287339 60.42857987 -105.84375 56.74609375 C-30.51342805 -2.24180288 -30.51342805 -2.24180288 0 0 Z " fill="#FAF5DA" transform="translate(283,150)"/>
<path d="M0 0 C2.53273468 1.87760064 2.97844107 2.86997792 3.50390625 6.0390625 C3.64345447 14.5794138 2.76973093 19.64004607 -3 26 C-3.60714844 26.70125 -4.21429688 27.4025 -4.83984375 28.125 C-15.34317378 39.41456779 -28.9328508 47.97239981 -42 56 C-43.09828125 56.680625 -44.1965625 57.36125 -45.328125 58.0625 C-52.08924221 62.20578962 -58.96894021 66.11338894 -65.90209961 69.96118164 C-91.97833059 84.4258729 -91.97833059 84.4258729 -116 102 C-116.92296875 102.74765625 -117.8459375 103.4953125 -118.796875 104.265625 C-124.49139675 109.08406648 -128.94542059 114.12098784 -132 121 C-132 121.99 -132 122.98 -132 124 C-132.66 124 -133.32 124 -134 124 C-134.99677626 121.00967122 -135.31051529 118.83611922 -134.19921875 115.84375 C-122.13204652 92.88860804 -90.82728179 79.15232601 -69.24609375 67.16479492 C-29.05036852 46.66385929 -29.05036852 46.66385929 0 14 C1.1505381 9.23006078 1.38048682 4.75501014 0 0 Z " fill="#FAF5D9" transform="translate(289,146)"/>
<path d="M0 0 C0.94359375 -0.01417969 1.8871875 -0.02835938 2.859375 -0.04296875 C5.25 0.1875 5.25 0.1875 7.25 2.1875 C6.33863281 2.26226562 5.42726562 2.33703125 4.48828125 2.4140625 C-7.37349376 3.61794414 -18.41548544 6.54257883 -29.75 10.1875 C-30.80936768 10.5275708 -30.80936768 10.5275708 -31.89013672 10.87451172 C-58.42293017 19.61849615 -82.04490612 34.91213782 -103.75 52.1875 C-104.71679688 52.95191406 -105.68359375 53.71632812 -106.6796875 54.50390625 C-109.04579705 56.38721151 -111.40067819 58.28331285 -113.75 60.1875 C-117.06665048 62.87573249 -120.39989122 65.54104683 -123.75 68.1875 C-124.3785791 68.68475586 -125.0071582 69.18201172 -125.65478516 69.69433594 C-150.43375154 89.21786183 -150.43375154 89.21786183 -161.765625 88.43359375 C-162.74789062 88.31177734 -162.74789062 88.31177734 -163.75 88.1875 C-164.08 87.5275 -164.41 86.8675 -164.75 86.1875 C-164.08355469 86.12433594 -163.41710937 86.06117188 -162.73046875 85.99609375 C-147.46686622 83.96806264 -135.70068461 72.08003323 -124.15161133 62.61035156 C-117.33717804 57.0232786 -110.4257101 51.59937996 -103.375 46.3125 C-102.16348267 45.40334839 -102.16348267 45.40334839 -100.92749023 44.47583008 C-85.67449908 33.10507831 -70.00609554 23.22269062 -52.75 15.1875 C-52.02329102 14.84831543 -51.29658203 14.50913086 -50.54785156 14.15966797 C-35.0435979 7.03092877 -17.27274439 0.11928691 0 0 Z " fill="#FAF5DA" transform="translate(220.75,60.8125)"/>
<path d="M0 0 C0.99 0.495 0.99 0.495 2 1 C2.61698957 10.6318927 2.61698957 10.6318927 0.5625 15.1875 C-5.97540114 22.36324516 -13.49315265 27.92276087 -21.5625 33.25 C-44.96338964 48.86226638 -44.96338964 48.86226638 -65.66015625 67.78515625 C-67 69 -67 69 -69 69 C-69.25523438 69.58652344 -69.51046875 70.17304687 -69.7734375 70.77734375 C-71.12144779 73.22007578 -72.57875971 74.67523057 -74.625 76.5625 C-78.75447709 80.54208682 -81.88523267 84.90652012 -85.04296875 89.6796875 C-87.21084253 92.24998096 -88.81693141 93.04343016 -92 94 C-88.80795641 86.6444213 -84.21678843 81.04457635 -79 75 C-77.96939453 73.78376953 -77.96939453 73.78376953 -76.91796875 72.54296875 C-73.21035082 68.25032235 -69.35993455 64.37403487 -65.0234375 60.71875 C-63.71042219 59.60344742 -62.42171566 58.45862743 -61.1640625 57.28125 C-49.70977895 46.59662187 -36.40465412 37.89820968 -23.4375 29.1875 C-10.1232572 21.05335637 -10.1232572 21.05335637 -1 9 C-0.55188863 6.64435404 -0.55188863 6.64435404 -0.375 4.25 C-0.30023438 3.45078125 -0.22546875 2.6515625 -0.1484375 1.828125 C-0.07496094 0.92320313 -0.07496094 0.92320313 0 0 Z " fill="#FAF5D9" transform="translate(153,46)"/>
<path d="M0 0 C0.66 0 1.32 0 2 0 C2.42933903 4.25150354 2.56714976 6.28119481 -0.1328125 9.703125 C-1.12023437 10.54359375 -2.10765625 11.3840625 -3.125 12.25 C-3.93263794 12.9459729 -3.93263794 12.9459729 -4.7565918 13.65600586 C-6.48492304 15.12924385 -8.23830404 16.56689548 -10 18 C-10.56122559 18.46486816 -11.12245117 18.92973633 -11.70068359 19.40869141 C-32.19636867 36.33113513 -62.07862689 59.45670288 -90 57 C-93.625 56 -93.625 56 -96 55 C-95.67 54.34 -95.34 53.68 -95 53 C-94.01 53.33 -93.02 53.66 -92 54 C-69.89650498 57.0944893 -43.84285741 38.05918063 -27 25.625 C-21.21831761 21.21955249 -15.56407325 16.67680673 -10 12 C-9.12472656 11.27296875 -8.24945313 10.5459375 -7.34765625 9.796875 C-6.12369141 8.75273437 -6.12369141 8.75273437 -4.875 7.6875 C-4.15054688 7.07261719 -3.42609375 6.45773438 -2.6796875 5.82421875 C-0.86784401 3.85647244 -0.38100059 2.61504952 0 0 Z " fill="#FAF5DA" transform="translate(248,223)"/>
<path d="M0 0 C0.99 0.495 0.99 0.495 2 1 C2.8230336 9.5961287 1.20657056 15.74925703 -4.23730469 22.54443359 C-7.63850959 26.5462051 -11.27845081 30.29734192 -15 34 C-15.8559375 34.8559375 -16.711875 35.711875 -17.59375 36.59375 C-31.05443286 49.38970778 -47.05597533 59.23955709 -62.92041016 68.73925781 C-64.61046102 69.76384371 -66.26946465 70.8395121 -67.91796875 71.9296875 C-68.60503906 72.28289062 -69.29210937 72.63609375 -70 73 C-70.99 72.67 -71.98 72.34 -73 72 C-68.92223242 67.50630013 -64.4179356 64.5715423 -59.25 61.4375 C-44.57728557 52.33332031 -30.82284618 42.58302132 -18 31 C-17.30519531 30.38898438 -16.61039062 29.77796875 -15.89453125 29.1484375 C-7.40016204 21.25664368 -0.73198825 11.78264954 0 0 Z " fill="#FAF5DA" transform="translate(274,94)"/>
<path d="M0 0 C0 0.66 0 1.32 0 2 C-1.74796875 2.58394531 -1.74796875 2.58394531 -3.53125 3.1796875 C-34.91820444 13.8205435 -60.39604201 26.39604201 -84 50 C-87.625 50.125 -87.625 50.125 -91 50 C-91 49.34 -91 48.68 -91 48 C-90.26652344 47.76152344 -89.53304687 47.52304688 -88.77734375 47.27734375 C-85.5778963 45.80586792 -83.94534887 44.14357546 -81.5625 41.5625 C-63.61717083 23.1112936 -41.59120181 12.75965201 -17.75 4 C-16.6784668 3.60176025 -15.60693359 3.20352051 -14.50292969 2.79321289 C-13.48618164 2.42832764 -12.46943359 2.06344238 -11.421875 1.6875 C-10.52049805 1.36136719 -9.61912109 1.03523438 -8.69042969 0.69921875 C-5.70142362 -0.07759735 -3.07551125 -0.12189182 0 0 Z " fill="#FAF5DA" transform="translate(146,50)"/>
<path d="M0 0 C0.99 0.495 0.99 0.495 2 1 C2.50507838 7.31347975 2.16363958 10.91110718 -2 16 C-2.59425781 16.78761719 -3.18851562 17.57523438 -3.80078125 18.38671875 C-19.44201435 36.97283765 -48.55208447 48.27604224 -70 59 C-72.3329866 59.04022391 -74.66706666 59.04320247 -77 59 C-74.24807346 56.83566924 -71.50634764 55.12302463 -68.38671875 53.5390625 C-67.47978271 53.07419434 -66.57284668 52.60932617 -65.63842773 52.13037109 C-64.66462158 51.63359863 -63.69081543 51.13682617 -62.6875 50.625 C-36.92449638 37.30415484 -36.92449638 37.30415484 -13 21 C-12.11957031 20.32453125 -11.23914063 19.6490625 -10.33203125 18.953125 C-4.04818746 13.69027426 -1.0847203 8.079296 0 0 Z " fill="#FAF5D9" transform="translate(235,59)"/>
<path d="M0 0 C0.66 0.33 1.32 0.66 2 1 C-2.34048311 6.65051983 -7.33582674 10.97082077 -13.01489258 15.20751953 C-17.50425292 18.56922064 -21.67601502 22.17980905 -25.796875 25.98828125 C-27.69100803 27.71785308 -29.62738186 29.33130703 -31.625 30.9375 C-39.61944543 37.78450738 -48.30263369 48.50402479 -49.875 59.1875 C-49.91625 60.115625 -49.9575 61.04375 -50 62 C-51.5625 60.9375 -51.5625 60.9375 -53 59 C-53.23182983 47.87216822 -44.10554993 37.70571704 -37 30 C-25.89057609 18.5810136 -12.96090078 9.18768815 0 0 Z " fill="#FAF5D9" transform="translate(118,141)"/>
<path d="M0 0 C0.495 0.99 0.495 0.99 1 2 C-0.81757813 2.29390625 -0.81757813 2.29390625 -2.671875 2.59375 C-27.56026185 6.91114883 -48.5660027 17.87398262 -68.92675781 32.55981445 C-71.94035035 34.71425482 -74.3724299 36.25843348 -78 37 C-78.495 35.515 -78.495 35.515 -79 34 C-59.75116736 20.87286038 -40.75168451 8.24016028 -18.0625 2.0625 C-17.29373535 1.85069092 -16.5249707 1.63888184 -15.73291016 1.4206543 C-10.3723752 0.06170252 -5.52709147 -0.18112614 0 0 Z " fill="#FAF5D9" transform="translate(266,96)"/>
<path d="M0 0 C-1.52486373 4.15618347 -4.11472508 5.69070478 -7.75 8.0625 C-23.92126791 18.91954299 -41.77965782 31.22711033 -49 50 C-49.66 49.67 -50.32 49.34 -51 49 C-50.48702607 36.94511268 -40.34712865 28.55067593 -32.04296875 20.81835938 C-26.02595096 15.4628684 -19.52919797 10.7057748 -13 6 C-12.030625 5.29230469 -11.06125 4.58460938 -10.0625 3.85546875 C-4.5727459 0 -4.5727459 0 0 0 Z " fill="#FAF5DA" transform="translate(142,202)"/>
<path d="M0 0 C-0.32942189 3.72766879 -2.18623462 5.39648993 -4.94799805 7.75561523 C-5.50140869 8.20751221 -6.05481934 8.65940918 -6.625 9.125 C-7.19968018 9.60074463 -7.77436035 10.07648926 -8.36645508 10.56665039 C-21.45841453 21.2030979 -33.27098248 29.45153266 -50.58203125 29.43359375 C-54.15709863 28.98007092 -56.10051209 28.08210846 -59 26 C-58.34 25.67 -57.68 25.34 -57 25 C-56.34 25.33 -55.68 25.66 -55 26 C-40.96484133 28.147335 -30.42746324 21.40119217 -19.52270508 13.43847656 C-14.32779315 9.54335702 -9.34283253 5.50287905 -4.56274414 1.10595703 C-3 0 -3 0 0 0 Z " fill="#FAF5D9" transform="translate(123,185)"/>
</svg>
