<?xml version="1.0" encoding="UTF-8"?>
<svg version="1.1" xmlns="http://www.w3.org/2000/svg" width="320" height="320">
<path d="M0 0 C1.39798828 -0.02416992 1.39798828 -0.02416992 2.82421875 -0.04882812 C9.68979808 -0.05368356 14.5596297 0.87592361 20.0625 5.25 C22.50364253 10.03463935 22.7108579 15.07205535 21.625 20.3125 C12.02036337 33.44820553 -6.9834427 36.62590058 -21.75 41.125 C-69.25184133 54.11876697 -69.25184133 54.11876697 -106.375 84.3125 C-107.90684923 87.58815244 -109.17547191 90.90422928 -110.375 94.3125 C-101.44428508 92.20001228 -93.67268051 88.12574394 -85.625 83.875 C-84.23468254 83.14923152 -82.84405342 82.42405977 -81.453125 81.69946289 C-73.70340199 77.650608 -66.02176003 73.49022294 -58.375 69.25 C-30.71743342 53.9924609 -2.13082016 40.94579559 28.625 33.3125 C29.32544434 33.13460937 30.02588867 32.95671875 30.74755859 32.7734375 C40.32947026 30.43196672 49.84250689 29.99494837 59.6875 29.875 C61.4192749 29.84140381 61.4192749 29.84140381 63.18603516 29.80712891 C71.24475301 29.82945222 76.82698146 30.91838737 82.90234375 36.34765625 C83.72412109 37.35119141 83.72412109 37.35119141 84.5625 38.375 C85.12839844 39.04660156 85.69429687 39.71820313 86.27734375 40.41015625 C89.01326113 44.27216137 88.85107242 48.02614307 88.9375 52.625 C88.99357422 54.56826172 88.99357422 54.56826172 89.05078125 56.55078125 C88.4541985 61.82150771 86.36720797 64.7178824 82.50390625 68.25390625 C69.05235395 77.66772447 53.36183926 80.64192588 37.625 84.3125 C36.55040527 84.56628418 35.47581055 84.82006836 34.36865234 85.08154297 C31.22796856 85.81843403 28.08389185 86.53791388 24.9375 87.25 C23.97602051 87.47365234 23.01454102 87.69730469 22.02392578 87.92773438 C21.12528809 88.12560547 20.22665039 88.32347656 19.30078125 88.52734375 C18.51614502 88.70386475 17.73150879 88.88038574 16.9230957 89.06225586 C11.34631428 89.66952251 8.07850672 87.43943025 3.625 84.3125 C2.30079001 83.62789054 0.96913668 82.95710748 -0.375 82.3125 C5.5268153 80.23562729 11.39738863 78.55950874 17.5078125 77.2265625 C19.18753563 76.84911686 20.86722195 76.47150739 22.546875 76.09375 C25.13904271 75.51641242 27.7317147 74.94152873 30.32519531 74.37011719 C57.54735132 69.35709651 57.54735132 69.35709651 78.625 53.3125 C78.54755158 49.13028531 78.05020282 46.89232203 75.5625 43.5 C68.61240855 38.32439999 61.1108425 38.92293073 52.84082031 39.98486328 C9.01393902 46.46521528 -31.54302077 67.40881813 -69.5625 89.25 C-99.457731 106.29353396 -99.457731 106.29353396 -113.375 103.3125 C-116.07578153 101.49473733 -117.91440819 100.23368362 -119.375 97.3125 C-120.31453863 86.57711598 -118.7875013 79.27026306 -112.0625 70.875 C-91.51146988 49.27773562 -57.84027595 40.01202711 -30.2421875 31.45703125 C-29.46404694 31.21528671 -28.68590637 30.97354218 -27.88418579 30.72447205 C-24.07869537 29.5448987 -20.26980062 28.3799209 -16.45166016 27.24194336 C-0.95341882 22.8171458 -0.95341882 22.8171458 11.625 13.3125 C11.625 12.6525 11.625 11.9925 11.625 11.3125 C-11.07722165 3.74509278 -46.00568358 18.14753044 -66.375 28.3125 C-74.01325754 32.24570072 -80.40632965 36.73849451 -86.70703125 42.58984375 C-90.10254973 44.78226491 -92.41126474 44.6294038 -96.375 44.3125 C-96.375 43.6525 -96.375 42.9925 -96.375 42.3125 C-97.035 42.3125 -97.695 42.3125 -98.375 42.3125 C-98.93239976 36.00548349 -98.93239976 36.00548349 -96.49609375 32.9765625 C-93.49313756 30.69484033 -90.48741129 28.44204457 -87.375 26.3125 C-86.8289209 25.93303223 -86.2828418 25.55356445 -85.72021484 25.16259766 C-61.86852071 8.90733828 -28.66231004 -0.1016394 0 0 Z " fill="#B6C629" transform="translate(172.375,36.6875)"/>
<path d="M0 0 C1.16499023 -0.0309375 1.16499023 -0.0309375 2.35351562 -0.0625 C7.30701361 -0.0960546 10.63998676 0.52348102 14.9375 3.25 C19.04378066 7.68922233 20.26668587 11.05510378 20.14453125 17.140625 C19.42907827 24.43014593 14.84590586 29.23551858 9.9375 34.25 C9.31230469 34.8996875 8.68710937 35.549375 8.04296875 36.21875 C-12.15658358 55.68447538 -44.13341103 62.75679007 -71.0625 66.25 C-71.74497803 66.34716309 -72.42745605 66.44432617 -73.13061523 66.54443359 C-80.07512607 67.44839595 -87.00663421 67.39747466 -94 67.375 C-95.23041016 67.37886719 -96.46082031 67.38273437 -97.72851562 67.38671875 C-98.89962891 67.38542969 -100.07074219 67.38414062 -101.27734375 67.3828125 C-102.87243774 67.38112061 -102.87243774 67.38112061 -104.49975586 67.37939453 C-107.0625 67.25 -107.0625 67.25 -109.0625 66.25 C-109.0625 63.94 -109.0625 61.63 -109.0625 59.25 C-108.16345947 59.18530518 -107.26441895 59.12061035 -106.33813477 59.05395508 C-68.53513026 56.24972074 -24.95744817 52.0447852 2.9375 23.25 C3.5975 23.25 4.2575 23.25 4.9375 23.25 C5.22625 22.6725 5.515 22.095 5.8125 21.5 C6.52936044 20.06627912 7.2766364 18.64709085 8.0625 17.25 C9.20471256 15.00306697 9.20471256 15.00306697 8.9375 11.25 C-1.55038033 6.00605983 -19.16903515 13.00757141 -29.46533203 16.35693359 C-48.1364578 22.72365724 -66.19209332 30.4478321 -84.21563721 38.43243408 C-140.55636409 63.37324629 -140.55636409 63.37324629 -157.71484375 58.49609375 C-161.43630078 56.72892142 -164.05537445 54.8228012 -166.0625 51.25 C-167.02607384 43.99705273 -167.67049337 35.61896238 -163.6875 29.1875 C-162 27.15625 -162 27.15625 -160.0625 25.25 C-159.381875 24.5796875 -158.70125 23.909375 -158 23.21875 C-148.70638551 15.05543997 -136.89267199 10.19693207 -125.5 5.6875 C-124.85788574 5.42372559 -124.21577148 5.15995117 -123.55419922 4.88818359 C-118.05207621 2.81573162 -113.8605217 3.22392135 -108.41015625 5.22265625 C-107.65605469 5.58230469 -106.90195313 5.94195312 -106.125 6.3125 C-104.96677734 6.85583984 -104.96677734 6.85583984 -103.78515625 7.41015625 C-103.21667969 7.68730469 -102.64820313 7.96445313 -102.0625 8.25 C-102.0625 8.91 -102.0625 9.57 -102.0625 10.25 C-102.59504395 10.43062988 -103.12758789 10.61125977 -103.67626953 10.79736328 C-132.85537688 19.66885962 -132.85537688 19.66885962 -155.0625 39.25 C-156.34614659 42.20645302 -157.0625 44.99742182 -157.0625 48.25 C-150.27987145 50.42044114 -143.95790206 49.00826313 -137.375 47 C-136.5176123 46.73968994 -135.66022461 46.47937988 -134.77685547 46.21118164 C-122.80654575 42.40532915 -111.39190546 37.15881973 -99.92364502 32.07470703 C-27.96055346 0.18655916 -27.96055346 0.18655916 0 0 Z " fill="#B6C629" transform="translate(249.0625,194.75)"/>
<path d="M0 0 C7.00709007 -0.17274798 13.66562373 -0.04865464 19.22265625 4.5625 C24.44182304 11.04691935 24.07347518 17.14528188 23.28515625 25.125 C19.49299128 37.15963925 10.34027447 44.48289446 -0.4765625 50.13671875 C-20.98080583 60.41455951 -44.9042101 67.09260602 -67.71484375 69.125 C-65.71484375 66.45833333 -63.71484375 63.79166667 -61.71484375 61.125 C-61.11410034 60.12629883 -61.11410034 60.12629883 -60.5012207 59.10742188 C-58.07391092 56.41372837 -56.03822271 56.09082296 -52.52734375 55.265625 C-51.27985352 54.95866699 -50.03236328 54.65170898 -48.74707031 54.33544922 C-48.08839966 54.17913025 -47.429729 54.02281128 -46.75109863 53.86175537 C-26.15873583 48.93926591 -1.02936413 42.34958655 11.09375 23.484375 C12.86635725 19.97403146 13.1430554 17.03277339 13.28515625 13.125 C8.35978169 9.04882795 3.3216092 9.63593552 -2.71484375 10.125 C-18.53704481 11.75187954 -34.1811672 16.31317005 -48.671875 22.875 C-51.71484375 24.125 -51.71484375 24.125 -55.71484375 24.125 C-56.37484375 20.825 -57.03484375 17.525 -57.71484375 14.125 C-38.81575385 5.85444855 -20.67281881 0.95184202 0 0 Z " fill="#B6C629" transform="translate(256.71484375,125.875)"/>
<path d="M0 0 C-0.39832031 0.51949219 -0.79664062 1.03898438 -1.20703125 1.57421875 C-1.73683594 2.27160156 -2.26664062 2.96898437 -2.8125 3.6875 C-3.33457031 4.37199219 -3.85664062 5.05648437 -4.39453125 5.76171875 C-6.06143331 7.97404012 -6.06143331 7.97404012 -7.30004883 10.49682617 C-9.28299027 13.41670247 -10.54142798 14.05881428 -13.8046875 15.2890625 C-14.77083984 15.66764404 -15.73699219 16.04622559 -16.73242188 16.4362793 C-17.76947266 16.82855713 -18.80652344 17.22083496 -19.875 17.625 C-28.27980155 20.96874326 -36.47150419 24.51419288 -44.5 28.6875 C-45.34030762 29.11434082 -46.18061523 29.54118164 -47.04638672 29.98095703 C-55.52355813 34.46304141 -62.69863997 39.71846209 -66 49 C-66.96298724 52.17562802 -66.96298724 52.17562802 -67 55 C-64.86639366 58.20040951 -63.79576769 58.84217231 -60.13671875 59.703125 C-45.74266939 61.70302948 -28.58043975 54.49301586 -15.59375 48.78515625 C-12.56993579 47.8698149 -10.96679176 47.95230444 -8 49 C-4 54.08108108 -4 54.08108108 -4 57 C-20.31806322 63.58642915 -35.58099897 69.14227678 -53.375 69.3125 C-54.37789062 69.34150391 -55.38078125 69.37050781 -56.4140625 69.40039062 C-63.93721721 69.46439652 -69.18579519 68.23263299 -74.97265625 63.328125 C-76.64000284 59.54965135 -76.47209169 55.83181983 -76.4375 51.75 C-76.45748047 50.92886719 -76.47746094 50.10773438 -76.49804688 49.26171875 C-76.49103948 40.41838641 -72.97932108 34.31895367 -67 28 C-52.1545373 16.11077663 -32.89719135 9.22754518 -15.25 2.75 C-14.18483154 2.35490234 -13.11966309 1.95980469 -12.0222168 1.55273438 C-10.53395386 1.02389648 -10.53395386 1.02389648 -9.015625 0.484375 C-8.14196289 0.17209961 -7.26830078 -0.14017578 -6.36816406 -0.46191406 C-3.82475974 -1.03981748 -2.43411734 -0.85553516 0 0 Z " fill="#B6C629" transform="translate(128,132)"/>
<path d="M0 0 C0.85851562 -0.00636475 1.71703125 -0.01272949 2.6015625 -0.01928711 C7.58588007 0.08405361 11.01420225 0.84682855 15.375 3.5 C13.375 4.5 13.375 4.5 10.125 3.5 C-32.51305124 -7.48138087 -92.91306619 31.81422796 -128.8125 52.4375 C-156.4852171 68.21395925 -156.4852171 68.21395925 -172.625 66.5 C-172.955 65.84 -173.285 65.18 -173.625 64.5 C-172.5525 64.5825 -171.48 64.665 -170.375 64.75 C-159.40997442 64.69738701 -149.17048246 58.50164887 -139.75 53.5 C-138.47028663 52.8291496 -137.19025216 52.15891141 -135.90991211 51.48925781 C-128.2902579 47.4924514 -120.72715782 43.39571032 -113.1875 39.25 C-79.01730359 20.48388811 -39.91398642 0.25016711 0 0 Z " fill="#F3FCA5" transform="translate(231.625,73.5)"/>
<path d="M0 0 C2.64824509 2.64824509 2.35941487 4.05703275 2.4375 7.75 C2.47746094 8.77609375 2.51742187 9.8021875 2.55859375 10.859375 C1.84080741 14.89504086 -0.16706916 17.18605203 -3 20 C-14.26770938 27.7068518 -28.4904158 30.88680329 -41.375 34.8125 C-88.87684133 47.80626697 -88.87684133 47.80626697 -126 78 C-127.53049835 81.27276378 -128.83104083 84.58251348 -130 88 C-130.66 87.67 -131.32 87.34 -132 87 C-131.96089316 78.55292226 -129.03232183 74.16062298 -123.28125 68.2265625 C-101.59060086 47.91455631 -68.93396672 38.76009896 -41.11260986 30.57775879 C-18.37330529 24.63404424 -18.37330529 24.63404424 -0.6875 10.1875 C0.38510065 6.77467976 0.11885992 3.56579746 0 0 Z " fill="#F2FCA4" transform="translate(192,43)"/>
<path d="M0 0 C-0.33 0.66 -0.66 1.32 -1 2 C-1.99 1.505 -1.99 1.505 -3 1 C-32.61759277 -2.88974014 -67.64633998 17.4396699 -94.15313721 29.18243408 C-141.30385959 50.05503154 -141.30385959 50.05503154 -157.4375 50.25 C-158.71496094 50.27578125 -159.99242187 50.3015625 -161.30859375 50.328125 C-165.22574814 49.9799335 -167.63499932 48.97635279 -171 47 C-170.01 46.505 -170.01 46.505 -169 46 C-168.01 46.33 -167.02 46.66 -166 47 C-141.22049232 50.14218476 -114.70284759 33.68717863 -92.59277344 24.02587891 C-15.72818516 -9.55060882 -15.72818516 -9.55060882 0 0 Z " fill="#F3FCA5" transform="translate(259,204)"/>
<path d="M0 0 C0.66 0 1.32 0 2 0 C4.79517586 5.59035171 4.70736961 10.66984129 2.9375 16.5 C0.75343222 20.97987857 -2.54039502 24.46562949 -6 28 C-6.93779297 28.97453125 -6.93779297 28.97453125 -7.89453125 29.96875 C-28.09604979 49.43637016 -60.06967548 56.50282957 -87 60 C-87.68102783 60.09788818 -88.36205566 60.19577637 -89.0637207 60.29663086 C-96.05193039 61.21339496 -103.02547551 61.11113441 -110.0625 61.0625 C-111.30966797 61.05798828 -112.55683594 61.05347656 -113.84179688 61.04882812 C-116.89458221 61.03713163 -119.94726498 61.02074086 -123 61 C-123 60.67 -123 60.34 -123 60 C-122.08524902 59.93006836 -121.17049805 59.86013672 -120.22802734 59.78808594 C-80.5120459 56.68893395 -35.24200082 52.38467225 -6 22 C-1.29135943 16.46662809 1.32483084 11.38637088 1 4 C0.70554117 2.65754595 0.38265843 1.32002326 0 0 Z " fill="#F3FCA5" transform="translate(265,201)"/>
<path d="M0 0 C1.46875 1.05859375 1.46875 1.05859375 3 3 C4.63087724 14.21228102 2.1061009 22.0168244 -4.1875 31.1875 C-24.23864746 51.23864746 -60.79902325 59.57643289 -88 62 C-85.46449791 58.19674686 -83.18164451 58.03956653 -78.96484375 57.16796875 C-77.5089405 56.844452 -76.05304902 56.52088228 -74.59716797 56.19726562 C-73.83547302 56.03266846 -73.07377808 55.86807129 -72.28900146 55.69848633 C-46.53359347 50.10178075 -19.26522868 43.30860807 -2.67578125 21.23828125 C1.29144576 14.82111757 0.33999353 7.25319522 0 0 Z " fill="#F3FCA5" transform="translate(277,133)"/>
<path d="M0 0 C-0.33 0.66 -0.66 1.32 -1 2 C-1.99 1.67 -2.98 1.34 -4 1 C-32.25426725 -1.58874176 -71.91337842 10.13678393 -93.9375 28.44140625 C-95.7610506 30.02462477 -97.56247931 31.63399242 -99.33203125 33.27734375 C-102.72754973 35.46976491 -105.03626474 35.3169038 -109 35 C-109 34.34 -109 33.68 -109 33 C-108.27941406 32.75636719 -107.55882813 32.51273438 -106.81640625 32.26171875 C-103.64674566 30.84174597 -101.54635897 29.09869467 -98.9375 26.8125 C-78.8734137 10.17658209 -26.08876592 -12.54267592 0 0 Z " fill="#F3FCA5" transform="translate(185,46)"/>
<path d="M0 0 C3 2 3 2 4 5 C4.17241708 7.43362472 4.26665768 9.87320596 4.3125 12.3125 C4.36857422 14.25576172 4.36857422 14.25576172 4.42578125 16.23828125 C3.8291985 21.50900771 1.74220797 24.4053824 -2.12109375 27.94140625 C-15.57264605 37.35522447 -31.26316074 40.32942588 -47 44 C-48.07459473 44.25378418 -49.14918945 44.50756836 -50.25634766 44.76904297 C-53.39703144 45.50593403 -56.54110815 46.22541388 -59.6875 46.9375 C-60.64897949 47.16115234 -61.61045898 47.38480469 -62.60107422 47.61523438 C-63.49971191 47.81310547 -64.39834961 48.01097656 -65.32421875 48.21484375 C-66.5011731 48.47962524 -66.5011731 48.47962524 -67.7019043 48.74975586 C-70.33940943 49.03695896 -72.43772961 48.63723832 -75 48 C-72.13167099 45.13167099 -68.75318555 44.86744553 -64.90625 44.046875 C-63.21743152 43.67064649 -61.52863005 43.29434167 -59.83984375 42.91796875 C-57.19741121 42.33834776 -54.55434549 41.76179552 -51.91064453 41.18798828 C-42.4992285 39.13501222 -33.22654638 36.92946933 -24.078125 33.890625 C-23.34702515 33.64809998 -22.61592529 33.40557495 -21.8626709 33.15570068 C-12.63133804 29.9792031 -3.17852 25.21884347 1.4375 16.1875 C2.41540119 10.64605995 1.42777407 5.39381314 0 0 Z " fill="#F2FCA4" transform="translate(257,77)"/>
<path d="M0 0 C-2.22910764 3.34366146 -3.08801456 3.69367021 -6.70703125 5.09375 C-7.67640625 5.47877686 -8.64578125 5.86380371 -9.64453125 6.26049805 C-10.68996094 6.66953369 -11.73539063 7.07856934 -12.8125 7.5 C-21.22307302 10.90286211 -29.44381465 14.50951633 -37.5 18.6875 C-38.34022705 19.11417969 -39.1804541 19.54085937 -40.04614258 19.98046875 C-48.32621729 24.35957105 -56.06139571 29.72556104 -59 39 C-59.54656576 41.99910441 -59.85907411 44.95600074 -60 48 C-60.66 47.67 -61.32 47.34 -62 47 C-63.61552168 41.03499688 -62.71495206 36.51594133 -60 31 C-50.52847248 15.38396887 -26.77034967 8.6100751 -11 2 C-10.17870605 1.65291992 -9.35741211 1.30583984 -8.51123047 0.94824219 C-3.36990626 -1.12330209 -3.36990626 -1.12330209 0 0 Z " fill="#F2FBA3" transform="translate(121,142)"/>
<path d="M0 0 C0 0.66 0 1.32 0 2 C-0.53254395 2.18062988 -1.06508789 2.36125977 -1.61376953 2.54736328 C-30.79929762 11.41362508 -30.79929762 11.41362508 -53 31 C-53.98682418 33.369309 -54.49249785 35.46248924 -55 38 C-55.33 38.66 -55.66 39.32 -56 40 C-57.63371005 37.50138463 -58.00634383 36.14590814 -57.875 33.125 C-55.43399404 24.40712156 -48.20306307 18.29163312 -40.5234375 13.95703125 C-28.8052256 7.73140326 -13.42104955 -0.29824555 0 0 Z " fill="#F2FCA4" transform="translate(147,203)"/>
<path d="M0 0 C-0.66 0.33 -1.32 0.66 -2 1 C-2.99 0.67 -3.98 0.34 -5 0 C-24.03310994 -1.87092952 -44.8578497 5.00697439 -61.95703125 12.75 C-65 14 -65 14 -69 14 C-68 11 -68 11 -66.19677734 9.98852539 C-65.4177002 9.69453857 -64.63862305 9.40055176 -63.8359375 9.09765625 C-62.968479 8.76652832 -62.10102051 8.43540039 -61.20727539 8.09423828 C-60.27262451 7.75376465 -59.33797363 7.41329102 -58.375 7.0625 C-57.42165771 6.70913574 -56.46831543 6.35577148 -55.48608398 5.99169922 C-15.84617211 -8.45129179 -15.84617211 -8.45129179 0 0 Z " fill="#F3FCA6" transform="translate(270,136)"/>
<path d="M0 0 C0 0.66 0 1.32 0 2 C-16.37923185 8.61111853 -31.63651838 14.15966634 -49.5 14.25 C-51.02947266 14.2809375 -51.02947266 14.2809375 -52.58984375 14.3125 C-58.25196444 14.34195186 -62.20696592 14.11875505 -67 11 C-64.34400641 9.67200321 -63.35304361 10.32722487 -60.5 11.0625 C-42.07665471 14.53634274 -22.16035196 6.89783497 -5.43359375 -0.21484375 C-3 -1 -3 -1 0 0 Z " fill="#F3FCA5" transform="translate(124,187)"/>
</svg>
