<svg width="320" height="640" version="1.1" xmlns="http://www.w3.org/2000/svg" desc="Created with imagetracer.js version 1.2.6" ><path fill="rgb(0,0,0)" stroke="rgb(0,0,0)" stroke-width="1" opacity="0" d="M 0 0 L 320 0 L 320 640 L 0 640 L 0 0 Z M 152 38 L 150 40 L 150 65 L 149 66 Q 150 68 148 67 L 146 69 L 140 116 L 117 120 L 105 126 L 101 131 L 101 179 L 102 182 L 94 185 L 77 196 Q 61 207 55 229 L 55 568 Q 58 581 66 590 Q 78 604 96 612 L 117 620 L 143 625 L 178 625 L 204 620 L 227 611 L 245 599 Q 259 588 265 568 L 265 229 Q 262 215 254 207 Q 240 190 218 182 L 219 179 L 219 131 L 218 129 Q 212 123 204 120 L 180 116 L 174 69 L 171 67 L 170 65 L 170 40 L 169 38 L 152 38 Z " /><path fill="rgb(153,90,49)" stroke="rgb(153,90,49)" stroke-width="1" opacity="1" d="M 108.5 130 L 107.5 132 L 108.5 130 Z " /><path fill="rgb(153,90,49)" stroke="rgb(153,90,49)" stroke-width="1" opacity="1" d="M 107.5 134 L 109.5 137 L 107.5 134 Z " /><path fill="rgb(153,90,49)" stroke="rgb(153,90,49)" stroke-width="1" opacity="1" d="M 107.5 177 L 109.5 180 L 107.5 177 Z " /><path fill="rgb(153,90,49)" stroke="rgb(153,90,49)" stroke-width="1" opacity="1" d="M 115.5 188 L 114.5 190 L 115.5 188 Z " /><path fill="rgb(153,90,49)" stroke="rgb(153,90,49)" stroke-width="1" opacity="1" d="M 118.5 189 L 117.5 191 L 116 190.5 L 118.5 189 Z " /><path fill="rgb(153,90,49)" stroke="rgb(153,90,49)" stroke-width="1" opacity="1" d="M 225.5 191 L 229 193.5 L 227.5 193 L 225.5 191 Z " /><path fill="rgb(153,90,49)" stroke="rgb(153,90,49)" stroke-width="1" opacity="1" d="M 122.5 192 L 121.5 194 L 122.5 192 Z " /><path fill="rgb(153,90,49)" stroke="rgb(153,90,49)" stroke-width="1" opacity="1" d="M 120.5 195 L 119.5 197 L 120.5 195 Z " /><path fill="rgb(153,90,49)" stroke="rgb(153,90,49)" stroke-width="1" opacity="1" d="M 118.5 198 L 117.5 200 L 118.5 198 Z " /><path fill="rgb(153,90,49)" stroke="rgb(153,90,49)" stroke-width="1" opacity="1" d="M 116.5 201 L 115.5 203 L 116.5 201 Z " /><path fill="rgb(153,90,49)" stroke="rgb(153,90,49)" stroke-width="1" opacity="1" d="M 139.5 277 L 138.5 279 L 139.5 277 Z " /><path fill="rgb(153,90,49)" stroke="rgb(153,90,49)" stroke-width="1" opacity="1" d="M 180.5 277 L 181.5 279 L 180.5 277 Z " /><path fill="rgb(153,90,49)" stroke="rgb(153,90,49)" stroke-width="1" opacity="1" d="M 135.5 281 L 134.5 283 L 135.5 281 Z " /><path fill="rgb(153,90,49)" stroke="rgb(153,90,49)" stroke-width="1" opacity="1" d="M 184.5 281 L 185.5 283 L 184.5 281 Z " /><path fill="rgb(153,90,49)" stroke="rgb(153,90,49)" stroke-width="1" opacity="1" d="M 156.5 289 Q 166.2 287.8 169 293.5 Q 172 296.5 172 302.5 L 171 306.5 L 167.5 311 Q 164.7 314.7 157.5 314 Q 151.8 312.8 149 308.5 Q 146.3 305.2 147 298.5 L 152.5 291 L 156.5 289 Z " /><path fill="rgb(153,90,49)" stroke="rgb(153,90,49)" stroke-width="1" opacity="1" d="M 179.5 429 L 187 438.5 L 187 447.5 L 186 451 L 188 451.5 L 186 452 L 183 474.5 L 180 483.5 L 176.5 488 L 174 489.5 L 170.5 494 L 159.5 502 L 157.5 502 L 152.5 504 Q 151 501.5 145.5 503 L 140.5 504 L 133.5 502 L 133.5 504 L 131 502.5 L 131.5 501 Q 124 498 120 491.5 L 119 488 L 126 490 L 126.5 493 L 127 491 Q 132.2 493.2 142.5 492 Q 150.7 490.2 155 484.5 L 171 452.5 Q 170.8 447.3 174 445.5 L 174 441.5 L 179 435.5 L 177 434.5 L 179.5 429 Z " /><path fill="rgb(153,90,49)" stroke="rgb(153,90,49)" stroke-width="1" opacity="1" d="M 259.5 478 L 260 479.5 L 256.5 485 L 256 483.5 L 259.5 478 Z " /><path fill="rgb(153,90,49)" stroke="rgb(153,90,49)" stroke-width="1" opacity="1" d="M 121.5 498 L 122.5 500 L 121.5 498 Z " /><path fill="rgb(153,90,49)" stroke="rgb(153,90,49)" stroke-width="1" opacity="1" d="M 123.5 501 L 124.5 503 L 123.5 501 Z " /><path fill="rgb(153,90,49)" stroke="rgb(153,90,49)" stroke-width="1" opacity="1" d="M 133.5 511 L 134.5 513 L 133.5 511 Z " /><path fill="rgb(153,90,49)" stroke="rgb(153,90,49)" stroke-width="1" opacity="1" d="M 159.5 520 L 162 520.5 L 159.5 521 L 159.5 520 Z " /><path fill="rgb(153,90,49)" stroke="rgb(153,90,49)" stroke-width="1" opacity="1" d="M 215.5 580 L 214.5 582 L 215.5 580 Z " /><path fill="rgb(153,90,49)" stroke="rgb(153,90,49)" stroke-width="1" opacity="1" d="M 213.5 583 L 212.5 585 L 213.5 583 Z " /><path fill="rgb(153,90,49)" stroke="rgb(153,90,49)" stroke-width="1" opacity="1" d="M 207.5 592 L 206.5 594 L 207.5 592 Z " /><path fill="rgb(153,90,49)" stroke="rgb(153,90,49)" stroke-width="1" opacity="1" d="M 205.5 595 L 204.5 597 L 205.5 595 Z " /><path fill="rgb(153,90,49)" stroke="rgb(153,90,49)" stroke-width="1" opacity="1" d="M 202.5 599 L 201.5 601 L 202.5 599 Z " /><path fill="rgb(153,90,49)" stroke="rgb(153,90,49)" stroke-width="1" opacity="1" d="M 197.5 606 L 196.5 608 L 197.5 606 Z " /><path fill="rgb(153,90,49)" stroke="rgb(153,90,49)" stroke-width="1" opacity="1" d="M 193.5 611 L 192.5 613 L 193.5 611 Z " /><path fill="rgb(153,90,49)" stroke="rgb(153,90,49)" stroke-width="1" opacity="1" d="M 190.5 615 L 189.5 617 L 190.5 615 Z " /><path fill="rgb(158,94,53)" stroke="rgb(158,94,53)" stroke-width="1" opacity="1" d="M 154 42 Q 159.4 40.5 161 43.5 L 164 68 L 153 68 L 153 44.5 L 154 42 Z " /><path fill="rgb(158,94,53)" stroke="rgb(158,94,53)" stroke-width="1" opacity="1" d="M 150 72 L 165.5 72 Q 166.5 72 166 76.5 L 154 126.5 L 149.5 134 L 147.5 134 L 142 128.5 L 150 72 Z " /><path fill="rgb(158,94,53)" stroke="rgb(158,94,53)" stroke-width="1" opacity="1" d="M 132.5 122 L 139 122 L 139 125.5 L 137 133.5 L 145.5 138 Q 150.3 136.8 151.5 139 L 168.5 139 L 177.5 137 L 183 133.5 L 181 122 L 186.5 122 L 201 131 Q 201.1 138.3 195.5 141 L 190.5 143 L 177.5 144 L 170.5 146 L 149.5 146 L 148.5 145 L 138.5 145 L 122.5 142 L 110.5 137 L 107 133.5 L 110.5 129 L 119.5 125 L 132.5 122 Z " /><path fill="rgb(158,94,53)" stroke="rgb(158,94,53)" stroke-width="1" opacity="1" d="M 106 142 L 118.5 147 L 129 149 L 126 174.5 L 125 175.5 L 125 183.5 L 123.5 185 Q 111.8 183.2 106 175.5 L 106 173.5 L 106 142 Z " /><path fill="rgb(158,94,53)" stroke="rgb(158,94,53)" stroke-width="1" opacity="1" d="M 113.5 188 L 118 189.5 L 115.5 190 L 113.5 188 Z " /><path fill="rgb(158,94,53)" stroke="rgb(158,94,53)" stroke-width="1" opacity="1" d="M 220.5 189 L 228.5 194 L 230 193.5 L 229 194.5 L 233 198.5 L 242 212.5 L 232.5 204 L 221 194.5 L 220.5 189 Z " /><path fill="rgb(158,94,53)" stroke="rgb(158,94,53)" stroke-width="1" opacity="1" d="M 175.5 423 L 181 429.5 L 179 429.5 L 177 434.5 L 179 435.5 L 174 441.5 L 174 445.5 L 165 462.5 L 159 478.5 L 151.5 488 Q 144.8 493.8 130.5 492 L 127 491 L 126.5 493 L 126 490 L 119 487.5 L 124.5 487 L 126.5 488 L 138.5 485 L 146 480 L 168 440.5 L 167.5 439 Q 169.8 439.8 169 437.5 L 172.5 430 Q 174.8 430.8 174 428.5 L 174 426.5 L 175.5 423 Z " /><path fill="rgb(158,94,53)" stroke="rgb(158,94,53)" stroke-width="1" opacity="1" d="M 181.5 431 L 183.5 434 L 181.5 431 Z " /><path fill="rgb(158,94,53)" stroke="rgb(158,94,53)" stroke-width="1" opacity="1" d="M 184.5 435 L 185.5 437 L 184.5 435 Z " /><path fill="rgb(158,94,53)" stroke="rgb(158,94,53)" stroke-width="1" opacity="1" d="M 191.5 447 L 192.5 449 L 191.5 447 Z " /><path fill="rgb(158,94,53)" stroke="rgb(158,94,53)" stroke-width="1" opacity="1" d="M 201.5 476 L 202 489.5 L 201 489.5 L 201.5 476 Z " /><path fill="rgb(158,94,53)" stroke="rgb(158,94,53)" stroke-width="1" opacity="1" d="M 192.5 507 L 190.5 510 L 192.5 507 Z " /><path fill="rgb(158,94,53)" stroke="rgb(158,94,53)" stroke-width="1" opacity="1" d="M 187.5 511 L 186.5 513 L 187.5 511 Z " /><path fill="rgb(158,94,53)" stroke="rgb(158,94,53)" stroke-width="1" opacity="1" d="M 146.5 518 L 149 518.5 L 146.5 519 L 146.5 518 Z " /><path fill="rgb(158,94,53)" stroke="rgb(158,94,53)" stroke-width="1" opacity="1" d="M 171.5 518 L 174 518.5 L 171.5 519 L 171.5 518 Z " /><path fill="rgb(158,94,53)" stroke="rgb(158,94,53)" stroke-width="1" opacity="1" d="M 151.5 519 L 157 519.5 L 151.5 520 L 151.5 519 Z " /><path fill="rgb(158,94,53)" stroke="rgb(158,94,53)" stroke-width="1" opacity="1" d="M 164.5 519 L 170 519.5 L 164.5 520 L 164.5 519 Z " /><path fill="rgb(158,94,53)" stroke="rgb(158,94,53)" stroke-width="1" opacity="1" d="M 198.5 604 L 197.5 606 L 198.5 604 Z " /><path fill="rgb(158,94,53)" stroke="rgb(158,94,53)" stroke-width="1" opacity="1" d="M 195.5 608 L 194.5 610 L 195.5 608 Z " /><path fill="rgb(54,28,22)" stroke="rgb(54,28,22)" stroke-width="1" opacity="0.9921568627450981" d="M 151.5 38 L 168.5 38 L 170 39.5 L 170 64.5 L 171 67 L 174 68.5 L 180 116 L 203.5 120 Q 212.4 122.6 218 128.5 L 219 130.5 L 219 178.5 L 218 182 Q 240.1 189.7 254 206.5 Q 261.5 215.5 265 228.5 L 265 567.5 Q 259.3 587.8 244.5 599 L 226.5 611 L 203.5 620 L 177.5 625 L 142.5 625 L 116.5 620 L 95.5 612 Q 78 603.5 66 589.5 Q 58.5 580.5 55 567.5 L 55 228.5 Q 60.8 207.3 76.5 196 L 93.5 185 L 102 182 L 101 178.5 L 101 130.5 L 104.5 126 L 116.5 120 L 140 116 L 146 68.5 L 147.5 67 Q 149.8 67.8 149 65.5 L 150 64.5 L 150 39.5 L 151.5 38 Z M 159 41 L 158 42 Q 153 41 153 43 L 153 68 L 167 68 L 167 42 Q 165 40 159 41 Z M 151 71 L 149 74 L 148 88 L 147 89 L 143 123 L 142 124 L 142 130 L 141 132 L 151 135 Q 169 137 179 132 L 175 109 L 175 102 L 171 80 L 171 74 L 170 71 L 168 72 L 152 72 L 151 71 Z M 138 121 L 122 124 L 110 129 L 106 134 L 111 138 L 118 141 L 137 145 L 147 145 L 148 146 L 184 145 L 200 142 L 210 138 L 214 133 L 210 128 L 203 125 L 181 121 Q 180 128 183 133 L 179 136 L 167 139 L 148 138 L 140 135 L 137 133 L 139 127 Q 140 120 138 121 Z M 107 141 L 106 177 L 111 181 L 118 184 L 130 187 L 146 188 L 147 189 L 174 189 L 175 188 L 191 187 L 206 183 L 214 177 L 214 141 L 200 147 L 184 150 L 176 150 L 175 151 L 146 151 L 145 150 L 130 149 L 117 146 L 107 141 Z M 107 185 Q 92 190 82 199 L 66 216 L 60 231 L 60 567 Q 64 580 72 589 Q 84 601 102 609 L 119 615 L 145 620 L 176 620 L 177 619 L 184 619 L 194 617 Q 220 611 239 597 Q 254 586 260 566 L 260 230 Q 256 216 248 208 Q 234 193 214 185 L 196 191 L 185 193 L 176 193 L 175 194 L 146 194 L 145 193 L 136 193 L 117 189 L 107 185 Z " /><path fill="rgb(54,28,22)" stroke="rgb(54,28,22)" stroke-width="1" opacity="0.9921568627450981" d="M 153.5 271 Q 177.5 269.5 186 283.5 Q 190.5 288 191 296.5 L 193.5 299 L 202.5 300 L 216.5 304 Q 227.1 307.9 234 315.5 L 236 319.5 L 236 558.5 L 233 566.5 L 230.5 569 L 220.5 575 L 198.5 581 L 186.5 582 L 185.5 583 L 174.5 583 L 173.5 584 L 146.5 584 L 145.5 583 L 127.5 582 L 108.5 578 Q 95.2 574.8 87 566.5 L 84 558.5 L 84 319.5 L 90.5 311 L 103.5 304 L 117.5 300 L 126.5 299 L 129 296.5 Q 131 283 140.5 277 L 153.5 271 Z M 158 275 L 150 277 L 143 281 L 134 293 L 133 301 L 130 303 L 116 305 L 99 311 L 89 320 L 89 561 L 90 563 L 98 569 L 111 574 L 131 578 L 140 578 L 141 579 L 180 579 L 181 578 L 190 578 L 210 574 L 226 567 L 231 561 L 231 320 Q 225 311 215 308 L 189 302 L 187 301 L 186 293 L 182 286 Q 175 275 158 275 Z " /><path fill="rgb(201,127,78)" stroke="rgb(201,127,78)" stroke-width="1" opacity="1" d="M 161 42 L 166 42 L 166 43.5 L 167 44.5 L 167 68 Q 164.3 69.1 165 66.5 L 163 62.5 L 163 53.5 Q 160.3 48.9 161 42 Z " /><path fill="rgb(201,127,78)" stroke="rgb(201,127,78)" stroke-width="1" opacity="1" d="M 167 72 Q 170.7 70.5 170 73.5 L 172 81.5 L 172 88.5 L 173 89.5 L 177 123.5 L 178 124.5 L 178 132 L 168.5 135 L 151 135 L 160 106.5 L 167 72 Z " /><path fill="rgb(201,127,78)" stroke="rgb(201,127,78)" stroke-width="1" opacity="1" d="M 188.5 122 L 201.5 125 L 213 131.5 Q 213.8 136.3 210.5 137 Q 204.5 141 195.5 142 L 195.5 141 L 200 137.5 L 202 132.5 Q 197.5 126.5 189.5 124 L 188.5 122 Z " /><path fill="rgb(201,127,78)" stroke="rgb(201,127,78)" stroke-width="1" opacity="1" d="M 142.5 130 L 144.5 133 L 142 132 L 142.5 130 Z " /><path fill="rgb(201,127,78)" stroke="rgb(201,127,78)" stroke-width="1" opacity="1" d="M 213.5 141 L 214 173.5 L 214 175.5 L 210.5 180 L 201.5 184 L 182.5 188 L 148.5 189 L 147.5 188 L 131.5 187 L 125 184.5 L 125 177.5 L 126 176.5 L 126 169.5 L 128 162.5 L 129 149 L 142.5 150 L 143.5 151 L 176.5 151 L 177.5 150 L 185.5 150 L 200.5 147 L 209.5 144 L 213.5 141 Z " /><path fill="rgb(201,127,78)" stroke="rgb(201,127,78)" stroke-width="1" opacity="1" d="M 178.5 144 L 183 144.5 L 178.5 145 L 178.5 144 Z " /><path fill="rgb(201,127,78)" stroke="rgb(201,127,78)" stroke-width="1" opacity="1" d="M 230.5 194 Q 241.3 200.3 249 209.5 Q 256.4 218.1 260 230.5 L 260 273.5 L 259 273.5 L 259 263.5 L 253 237.5 L 240 207.5 L 230.5 194 Z " /><path fill="rgb(201,127,78)" stroke="rgb(201,127,78)" stroke-width="1" opacity="1" d="M 141.5 282 L 139.5 285 L 141.5 282 Z " /><path fill="rgb(201,127,78)" stroke="rgb(201,127,78)" stroke-width="1" opacity="1" d="M 178.5 282 L 180.5 285 L 178.5 282 Z " /><path fill="rgb(201,127,78)" stroke="rgb(201,127,78)" stroke-width="1" opacity="1" d="M 174.5 313 L 171.5 317 L 174.5 313 Z " /><path fill="rgb(201,127,78)" stroke="rgb(201,127,78)" stroke-width="1" opacity="1" d="M 216.5 340 L 217 360.5 L 216 360.5 L 216.5 340 Z " /><path fill="rgb(201,127,78)" stroke="rgb(201,127,78)" stroke-width="1" opacity="1" d="M 168.5 350 L 169.5 352 L 168.5 350 Z " /><path fill="rgb(201,127,78)" stroke="rgb(201,127,78)" stroke-width="1" opacity="1" d="M 209.5 350 L 210.5 352 L 209.5 350 Z " /><path fill="rgb(201,127,78)" stroke="rgb(201,127,78)" stroke-width="1" opacity="1" d="M 145.5 353 L 144.5 355 L 145.5 353 Z " /><path fill="rgb(201,127,78)" stroke="rgb(201,127,78)" stroke-width="1" opacity="1" d="M 154.5 355 L 153.5 357 L 152 356.5 L 154.5 355 Z " /><path fill="rgb(201,127,78)" stroke="rgb(201,127,78)" stroke-width="1" opacity="1" d="M 174.5 358 L 175 369.5 L 173 370.5 L 174 369.5 L 174.5 358 Z " /><path fill="rgb(201,127,78)" stroke="rgb(201,127,78)" stroke-width="1" opacity="1" d="M 110.5 362 L 109.5 364 L 110.5 362 Z " /><path fill="rgb(201,127,78)" stroke="rgb(201,127,78)" stroke-width="1" opacity="1" d="M 165.5 367 L 166.5 369 L 165.5 367 Z " /><path fill="rgb(201,127,78)" stroke="rgb(201,127,78)" stroke-width="1" opacity="1" d="M 157 387 L 160 387.5 L 158 388 L 157 393 Q 160.8 392 162 394.5 Q 162.9 402.9 160 407.5 L 162 408 L 161.5 411 L 159 410 L 156 418.5 L 148 430 Q 145.3 428.9 146 431.5 L 137 445.5 L 134 457.5 L 131.5 461 Q 125.4 462.8 128 455.5 L 132 443.5 L 130 444.5 L 122.5 463 L 122 461.5 L 130 442.5 L 148 416.5 L 152 407 L 154 406.5 L 153 404.5 L 155 400.5 L 156 389.5 L 157 387 Z " /><path fill="rgb(201,127,78)" stroke="rgb(201,127,78)" stroke-width="1" opacity="1" d="M 161.5 387 L 164 388.5 L 166 401.5 L 172 414.5 L 170 413.5 L 165 402.5 L 163 388 L 161.5 387 Z " /><path fill="rgb(201,127,78)" stroke="rgb(201,127,78)" stroke-width="1" opacity="1" d="M 172.5 416 L 191 443.5 L 189 442.5 Q 183.3 429.7 174 420.5 L 172.5 416 Z " /><path fill="rgb(201,127,78)" stroke="rgb(201,127,78)" stroke-width="1" opacity="1" d="M 196.5 456 L 200 467.5 L 199 467.5 L 196.5 456 Z " /><path fill="rgb(201,127,78)" stroke="rgb(201,127,78)" stroke-width="1" opacity="1" d="M 127.5 467 L 130 468.5 L 128.5 471 L 126 469.5 L 127.5 467 Z " /><path fill="rgb(201,127,78)" stroke="rgb(201,127,78)" stroke-width="1" opacity="1" d="M 200.5 495 L 201 496.5 Q 197.5 506.5 189.5 512 L 186.5 514 L 188.5 511 L 196 504.5 L 200.5 495 Z " /><path fill="rgb(201,127,78)" stroke="rgb(201,127,78)" stroke-width="1" opacity="1" d="M 122.5 501 L 132.5 512 L 138 515.5 L 136.5 515 Q 127.7 511.3 123 503.5 L 122.5 501 Z " /><path fill="rgb(201,127,78)" stroke="rgb(201,127,78)" stroke-width="1" opacity="1" d="M 184.5 514 L 183.5 516 L 180.5 517 L 180.5 516 L 184.5 514 Z " /><path fill="rgb(201,127,78)" stroke="rgb(201,127,78)" stroke-width="1" opacity="1" d="M 170.5 519 L 173 519.5 L 170.5 520 L 170.5 519 Z " /><path fill="rgb(201,127,78)" stroke="rgb(201,127,78)" stroke-width="1" opacity="1" d="M 154.5 520 L 158 520.5 L 154.5 521 L 154.5 520 Z " /><path fill="rgb(201,127,78)" stroke="rgb(201,127,78)" stroke-width="1" opacity="1" d="M 163.5 520 L 167 520.5 L 163.5 521 L 163.5 520 Z " /><path fill="rgb(201,127,78)" stroke="rgb(201,127,78)" stroke-width="1" opacity="1" d="M 159.5 521 L 162 521.5 L 159.5 522 L 159.5 521 Z " /><path fill="rgb(201,127,78)" stroke="rgb(201,127,78)" stroke-width="1" opacity="1" d="M 60.5 542 L 75 572.5 L 97 605.5 L 95.5 605 Q 79.9 598.1 70 585.5 L 60 565.5 L 60.5 542 Z " /><path fill="rgb(164,98,52)" stroke="rgb(164,98,52)" stroke-width="1" opacity="1" d="M 198.5 138 L 197.5 140 L 198.5 138 Z " /><path fill="rgb(164,98,52)" stroke="rgb(164,98,52)" stroke-width="1" opacity="1" d="M 217.5 188 L 220 189.5 Q 219.3 196.2 224 197.5 L 220 194.5 L 219 189 L 217.5 188 Z " /><path fill="rgb(164,98,52)" stroke="rgb(164,98,52)" stroke-width="1" opacity="1" d="M 123.5 192 L 122.5 194 L 123.5 192 Z " /><path fill="rgb(164,98,52)" stroke="rgb(164,98,52)" stroke-width="1" opacity="1" d="M 121.5 195 L 120.5 197 L 121.5 195 Z " /><path fill="rgb(164,98,52)" stroke="rgb(164,98,52)" stroke-width="1" opacity="1" d="M 119.5 198 L 118.5 200 L 119.5 198 Z " /><path fill="rgb(164,98,52)" stroke="rgb(164,98,52)" stroke-width="1" opacity="1" d="M 225.5 198 L 230.5 204 L 225.5 198 Z " /><path fill="rgb(164,98,52)" stroke="rgb(164,98,52)" stroke-width="1" opacity="1" d="M 117.5 201 L 116.5 203 L 117.5 201 Z " /><path fill="rgb(164,98,52)" stroke="rgb(164,98,52)" stroke-width="1" opacity="1" d="M 115.5 204 L 114.5 206 L 115.5 204 Z " /><path fill="rgb(164,98,52)" stroke="rgb(164,98,52)" stroke-width="1" opacity="1" d="M 232.5 204 L 239.5 211 L 241 210.5 L 240 211.5 L 241.5 214 L 232.5 204 Z " /><path fill="rgb(164,98,52)" stroke="rgb(164,98,52)" stroke-width="1" opacity="1" d="M 113.5 207 L 112.5 209 L 113.5 207 Z " /><path fill="rgb(164,98,52)" stroke="rgb(164,98,52)" stroke-width="1" opacity="1" d="M 110.5 212 L 109.5 214 L 110.5 212 Z " /><path fill="rgb(164,98,52)" stroke="rgb(164,98,52)" stroke-width="1" opacity="1" d="M 107.5 217 L 107 218.5 L 105.5 221 L 106 219.5 L 107.5 217 Z " /><path fill="rgb(164,98,52)" stroke="rgb(164,98,52)" stroke-width="1" opacity="1" d="M 97.5 236 L 98 237.5 L 96.5 240 L 96 238.5 L 97.5 236 Z " /><path fill="rgb(164,98,52)" stroke="rgb(164,98,52)" stroke-width="1" opacity="1" d="M 141.5 275 L 140.5 277 L 141.5 275 Z " /><path fill="rgb(164,98,52)" stroke="rgb(164,98,52)" stroke-width="1" opacity="1" d="M 178.5 275 L 179.5 277 L 178.5 275 Z " /><path fill="rgb(164,98,52)" stroke="rgb(164,98,52)" stroke-width="1" opacity="1" d="M 137.5 278 L 136.5 280 L 137.5 278 Z " /><path fill="rgb(164,98,52)" stroke="rgb(164,98,52)" stroke-width="1" opacity="1" d="M 182.5 278 L 183.5 280 L 182.5 278 Z " /><path fill="rgb(164,98,52)" stroke="rgb(164,98,52)" stroke-width="1" opacity="1" d="M 133.5 283 L 132.5 285 L 133.5 283 Z " /><path fill="rgb(164,98,52)" stroke="rgb(164,98,52)" stroke-width="1" opacity="1" d="M 186.5 283 L 187.5 285 L 186.5 283 Z " /><path fill="rgb(164,98,52)" stroke="rgb(164,98,52)" stroke-width="1" opacity="1" d="M 152.5 290 L 148.5 295 L 152.5 290 Z " /><path fill="rgb(164,98,52)" stroke="rgb(164,98,52)" stroke-width="1" opacity="1" d="M 167.5 291 L 169.5 294 L 167.5 291 Z " /><path fill="rgb(164,98,52)" stroke="rgb(164,98,52)" stroke-width="1" opacity="1" d="M 148.5 307 L 152 311.5 L 148 308.5 L 148.5 307 Z " /><path fill="rgb(164,98,52)" stroke="rgb(164,98,52)" stroke-width="1" opacity="1" d="M 91.5 309 L 90.5 311 L 91.5 309 Z " /><path fill="rgb(164,98,52)" stroke="rgb(164,98,52)" stroke-width="1" opacity="1" d="M 169.5 309 L 167.5 312 L 169.5 309 Z " /><path fill="rgb(164,98,52)" stroke="rgb(164,98,52)" stroke-width="1" opacity="1" d="M 228.5 309 L 229.5 311 L 228.5 309 Z " /><path fill="rgb(164,98,52)" stroke="rgb(164,98,52)" stroke-width="1" opacity="1" d="M 173.5 420 L 176.5 424 Q 175.3 421.8 174 424.5 L 173 427.5 L 174 430 L 171 431.5 L 169 439 L 167 439.5 L 167 441.5 L 166 445.5 L 146 480 L 138.5 485 L 125.5 488 L 119 487 Q 117.5 483.2 120.5 484 L 124.5 478 Q 127.1 478.7 126 476 L 128.5 476 Q 137.3 472.8 143 466.5 L 164 439.5 L 173.5 420 Z " /><path fill="rgb(164,98,52)" stroke="rgb(164,98,52)" stroke-width="1" opacity="1" d="M 259.5 476 L 260 477.5 Q 255 482.5 253.5 491 L 253 488.5 L 259.5 476 Z " /><path fill="rgb(164,98,52)" stroke="rgb(164,98,52)" stroke-width="1" opacity="1" d="M 252.5 493 L 253 495.5 L 252 495.5 L 252.5 493 Z " /><path fill="rgb(164,98,52)" stroke="rgb(164,98,52)" stroke-width="1" opacity="1" d="M 251.5 497 L 252 499.5 L 251 499.5 L 251.5 497 Z " /><path fill="rgb(164,98,52)" stroke="rgb(164,98,52)" stroke-width="1" opacity="1" d="M 242.5 526 L 243 527.5 L 241.5 530 L 241 528.5 L 242.5 526 Z " /><path fill="rgb(164,98,52)" stroke="rgb(164,98,52)" stroke-width="1" opacity="1" d="M 239.5 533 L 240 534.5 L 238.5 537 L 238 535.5 L 239.5 533 Z " /><path fill="rgb(164,98,52)" stroke="rgb(164,98,52)" stroke-width="1" opacity="1" d="M 88.5 568 L 90.5 571 L 88.5 568 Z " /><path fill="rgb(164,98,52)" stroke="rgb(164,98,52)" stroke-width="1" opacity="1" d="M 216.5 577 L 215.5 579 L 216.5 577 Z " /><path fill="rgb(164,98,52)" stroke="rgb(164,98,52)" stroke-width="1" opacity="1" d="M 214.5 580 L 214 581.5 L 208.5 590 L 209 588.5 L 214.5 580 Z " /><path fill="rgb(164,98,52)" stroke="rgb(164,98,52)" stroke-width="1" opacity="1" d="M 207.5 591 L 205.5 594 L 207.5 591 Z " /><path fill="rgb(164,98,52)" stroke="rgb(164,98,52)" stroke-width="1" opacity="1" d="M 204.5 595 L 203.5 597 L 204.5 595 Z " /><path fill="rgb(164,98,52)" stroke="rgb(164,98,52)" stroke-width="1" opacity="1" d="M 202.5 598 L 200.5 601 L 202.5 598 Z " /><path fill="rgb(164,98,52)" stroke="rgb(164,98,52)" stroke-width="1" opacity="1" d="M 199.5 602 L 197.5 605 L 199.5 602 Z " /><path fill="rgb(164,98,52)" stroke="rgb(164,98,52)" stroke-width="1" opacity="1" d="M 196.5 606 L 194.5 609 L 196.5 606 Z " /><path fill="rgb(164,98,52)" stroke="rgb(164,98,52)" stroke-width="1" opacity="1" d="M 193.5 610 L 191.5 613 L 193.5 610 Z " /><path fill="rgb(164,98,52)" stroke="rgb(164,98,52)" stroke-width="1" opacity="1" d="M 190.5 614 L 187.5 618 L 190.5 614 Z " /><path fill="rgb(165,99,52)" stroke="rgb(165,99,52)" stroke-width="1" opacity="1" d="M 197.5 128 L 198.5 130 L 197.5 128 Z " /><path fill="rgb(165,99,52)" stroke="rgb(165,99,52)" stroke-width="1" opacity="1" d="M 143.5 130 L 145.5 133 L 143.5 130 Z " /><path fill="rgb(165,99,52)" stroke="rgb(165,99,52)" stroke-width="1" opacity="1" d="M 151.5 132 L 150.5 134 L 151.5 132 Z " /><path fill="rgb(165,99,52)" stroke="rgb(165,99,52)" stroke-width="1" opacity="1" d="M 211.5 186 L 219 189 Q 218.8 195.5 223.5 198 L 241.5 214 L 243 213.5 L 255 244.5 L 258 257.5 L 259 273.5 L 260 274.5 L 260 475.5 L 254 485.5 L 248 512.5 L 236.5 540 L 236 318.5 L 228.5 309 L 212.5 302 L 192 298 Q 191 284.9 182.5 278 L 168.5 271 L 151.5 271 Q 141.8 273.3 136 279.5 Q 128.8 286.2 128 298 L 101.5 304 Q 91.6 307.1 86 314.5 L 84 318.5 L 84 561.5 Q 85.5 568 90.5 571 L 109.5 579 L 124.5 582 L 142.5 583 L 143.5 584 L 176.5 584 L 177.5 583 L 188.5 583 L 189.5 582 L 201.5 581 L 215.5 577 L 215 578.5 Q 202.8 600.3 186.5 618 L 172.5 619 L 171.5 620 L 148.5 620 L 147.5 619 L 133.5 618 L 117.5 614 L 101.5 608 L 95 603.5 L 75 572.5 L 60 541.5 L 60 342.5 L 94 244.5 L 105 221.5 L 124 191 L 142.5 194 L 177.5 194 L 178.5 193 L 187.5 193 L 198.5 191 L 211.5 186 Z " /><path fill="rgb(165,99,52)" stroke="rgb(165,99,52)" stroke-width="1" opacity="1" d="M 230.5 195 L 232.5 198 L 230.5 195 Z " /><path fill="rgb(165,99,52)" stroke="rgb(165,99,52)" stroke-width="1" opacity="1" d="M 234.5 200 L 235.5 202 L 234.5 200 Z " /><path fill="rgb(165,99,52)" stroke="rgb(165,99,52)" stroke-width="1" opacity="1" d="M 156.5 282 Q 168.8 281.7 174 288.5 Q 179 293.5 179 303.5 Q 177 313.5 169.5 318 Q 165.2 321.2 157.5 321 Q 149.7 319.3 145 314.5 L 140 304.5 L 140 297.5 Q 142.2 289.2 148.5 285 L 156.5 282 Z M 155 289 L 153 290 L 147 297 L 148 309 L 156 314 Q 164 315 168 312 L 172 306 Q 173 297 170 294 Q 166 287 155 289 Z " /><path fill="rgb(165,99,52)" stroke="rgb(165,99,52)" stroke-width="1" opacity="1" d="M 131.5 356 L 132 365.5 L 131 365.5 L 131.5 356 Z " /><path fill="rgb(165,99,52)" stroke="rgb(165,99,52)" stroke-width="1" opacity="1" d="M 160.5 387 L 163 388 L 167 408.5 L 174 419.5 L 160 445.5 L 139.5 470 L 128.5 476 L 126 476 Q 127.1 478.7 124.5 478 L 120.5 484 L 119 483.5 L 119 476.5 L 121 465.5 L 131.5 443 L 132 444.5 L 130 447.5 L 128 461 Q 131.8 462 133 459.5 L 137 445.5 L 146 430 Q 148.7 431.1 148 428.5 Q 156.4 421.5 159 410 L 161.5 411 L 162 408 L 160 407.5 Q 162.9 402.9 162 394.5 Q 160.8 392 157 393 L 158 388 L 160.5 387 Z M 128 467 L 126 470 L 129 471 L 130 469 L 128 467 Z " /><path fill="rgb(240,222,204)" stroke="rgb(240,222,204)" stroke-width="1" opacity="1" d="M 144.5 280 L 143.5 282 L 144.5 280 Z " /><path fill="rgb(240,222,204)" stroke="rgb(240,222,204)" stroke-width="1" opacity="1" d="M 175.5 280 L 176.5 282 L 175.5 280 Z " /><path fill="rgb(240,222,204)" stroke="rgb(240,222,204)" stroke-width="1" opacity="1" d="M 169.5 284 L 170.5 286 L 169.5 284 Z " /><path fill="rgb(240,222,204)" stroke="rgb(240,222,204)" stroke-width="1" opacity="1" d="M 147.5 285 L 143.5 290 L 147.5 285 Z " /><path fill="rgb(240,222,204)" stroke="rgb(240,222,204)" stroke-width="1" opacity="1" d="M 138.5 286 L 137.5 288 L 138.5 286 Z " /><path fill="rgb(240,222,204)" stroke="rgb(240,222,204)" stroke-width="1" opacity="1" d="M 172.5 286 L 174.5 289 L 172.5 286 Z " /><path fill="rgb(240,222,204)" stroke="rgb(240,222,204)" stroke-width="1" opacity="1" d="M 181.5 286 L 182.5 288 L 181.5 286 Z " /><path fill="rgb(240,222,204)" stroke="rgb(240,222,204)" stroke-width="1" opacity="1" d="M 175.5 290 L 176.5 292 L 175.5 290 Z " /><path fill="rgb(240,222,204)" stroke="rgb(240,222,204)" stroke-width="1" opacity="1" d="M 142.5 311 L 143.5 313 L 142.5 311 Z " /><path fill="rgb(240,222,204)" stroke="rgb(240,222,204)" stroke-width="1" opacity="1" d="M 176.5 311 L 175.5 313 L 176.5 311 Z " /><path fill="rgb(240,222,204)" stroke="rgb(240,222,204)" stroke-width="1" opacity="1" d="M 94.5 314 L 91.5 318 L 94.5 314 Z " /><path fill="rgb(240,222,204)" stroke="rgb(240,222,204)" stroke-width="1" opacity="1" d="M 144.5 314 L 146.5 317 L 144.5 314 Z " /><path fill="rgb(240,222,204)" stroke="rgb(240,222,204)" stroke-width="1" opacity="1" d="M 174.5 314 L 172.5 317 L 174.5 314 Z " /><path fill="rgb(240,222,204)" stroke="rgb(240,222,204)" stroke-width="1" opacity="1" d="M 225.5 314 L 228.5 318 L 225.5 314 Z " /><path fill="rgb(240,222,204)" stroke="rgb(240,222,204)" stroke-width="1" opacity="1" d="M 148.5 317 L 149.5 319 L 148.5 317 Z " /><path fill="rgb(240,222,204)" stroke="rgb(240,222,204)" stroke-width="1" opacity="1" d="M 170.5 317 L 169.5 319 L 170.5 317 Z " /><path fill="rgb(240,222,204)" stroke="rgb(240,222,204)" stroke-width="1" opacity="1" d="M 217.5 338 L 216.5 340 L 217.5 338 Z " /><path fill="rgb(240,222,204)" stroke="rgb(240,222,204)" stroke-width="1" opacity="1" d="M 151.5 348 L 153.5 351 L 151.5 348 Z " /><path fill="rgb(240,222,204)" stroke="rgb(240,222,204)" stroke-width="1" opacity="1" d="M 176.5 348 L 180 349.5 L 178.5 349 Q 175.5 349.5 176.5 348 Z " /><path fill="rgb(240,222,204)" stroke="rgb(240,222,204)" stroke-width="1" opacity="1" d="M 181.5 348 L 185 348.5 L 181.5 349 L 181.5 348 Z " /><path fill="rgb(240,222,204)" stroke="rgb(240,222,204)" stroke-width="1" opacity="1" d="M 194.5 348 L 195.5 350 L 194.5 348 Z " /><path fill="rgb(240,222,204)" stroke="rgb(240,222,204)" stroke-width="1" opacity="1" d="M 138.5 349 L 141.5 350 L 143 349.5 L 140.5 351 L 138.5 349 Z " /><path fill="rgb(240,222,204)" stroke="rgb(240,222,204)" stroke-width="1" opacity="1" d="M 159.5 349 L 158.5 351 L 159.5 349 Z " /><path fill="rgb(240,222,204)" stroke="rgb(240,222,204)" stroke-width="1" opacity="1" d="M 202.5 349 L 201.5 351 L 202.5 349 Z " /><path fill="rgb(240,222,204)" stroke="rgb(240,222,204)" stroke-width="1" opacity="1" d="M 113.5 350 Q 115.8 350.8 115 354.5 L 114 354.5 L 113.5 350 Z " /><path fill="rgb(240,222,204)" stroke="rgb(240,222,204)" stroke-width="1" opacity="1" d="M 147.5 352 L 150 353.5 L 148.5 353 L 147.5 352 Z " /><path fill="rgb(240,222,204)" stroke="rgb(240,222,204)" stroke-width="1" opacity="1" d="M 163.5 353 L 162.5 355 L 163.5 353 Z " /><path fill="rgb(240,222,204)" stroke="rgb(240,222,204)" stroke-width="1" opacity="1" d="M 182.5 353 L 180.5 356 L 182.5 353 Z " /><path fill="rgb(240,222,204)" stroke="rgb(240,222,204)" stroke-width="1" opacity="1" d="M 189.5 353 L 188.5 355 L 189.5 353 Z " /><path fill="rgb(240,222,204)" stroke="rgb(240,222,204)" stroke-width="1" opacity="1" d="M 123.5 354 L 126 355.5 L 124.5 355 L 123.5 354 Z " /><path fill="rgb(240,222,204)" stroke="rgb(240,222,204)" stroke-width="1" opacity="1" d="M 150.5 355 L 151.5 357 L 150.5 355 Z " /><path fill="rgb(240,222,204)" stroke="rgb(240,222,204)" stroke-width="1" opacity="1" d="M 174.5 355 L 175 357.5 L 174 357.5 L 174.5 355 Z " /><path fill="rgb(240,222,204)" stroke="rgb(240,222,204)" stroke-width="1" opacity="1" d="M 143.5 356 L 142.5 358 L 143.5 356 Z " /><path fill="rgb(240,222,204)" stroke="rgb(240,222,204)" stroke-width="1" opacity="1" d="M 105.5 359 L 106 361.5 L 105 361.5 L 105.5 359 Z " /><path fill="rgb(240,222,204)" stroke="rgb(240,222,204)" stroke-width="1" opacity="1" d="M 163.5 362 L 162.5 364 L 161 363.5 L 163.5 362 Z " /><path fill="rgb(240,222,204)" stroke="rgb(240,222,204)" stroke-width="1" opacity="1" d="M 213.5 362 L 214 365.5 L 213 365.5 L 213.5 362 Z " /><path fill="rgb(240,222,204)" stroke="rgb(240,222,204)" stroke-width="1" opacity="1" d="M 123.5 363 L 122.5 365 L 123.5 363 Z " /><path fill="rgb(240,222,204)" stroke="rgb(240,222,204)" stroke-width="1" opacity="1" d="M 113.5 366 L 111.5 369 L 113.5 366 Z " /><path fill="rgb(240,222,204)" stroke="rgb(240,222,204)" stroke-width="1" opacity="1" d="M 157.5 366 L 159.5 369 L 157.5 366 Z " /><path fill="rgb(240,222,204)" stroke="rgb(240,222,204)" stroke-width="1" opacity="1" d="M 201.5 367 L 202.5 369 L 201.5 367 Z " /><path fill="rgb(240,222,204)" stroke="rgb(240,222,204)" stroke-width="1" opacity="1" d="M 126.5 368 L 129 369.5 L 127.5 370 L 126.5 368 Z " /><path fill="rgb(240,222,204)" stroke="rgb(240,222,204)" stroke-width="1" opacity="1" d="M 131.5 368 L 130.5 370 L 131.5 368 Z " /><path fill="rgb(240,222,204)" stroke="rgb(240,222,204)" stroke-width="1" opacity="1" d="M 137.5 369 L 138.5 371 L 137.5 369 Z " /><path fill="rgb(240,222,204)" stroke="rgb(240,222,204)" stroke-width="1" opacity="1" d="M 166.5 369 L 169 369.5 L 166.5 370 L 166.5 369 Z " /><path fill="rgb(240,222,204)" stroke="rgb(240,222,204)" stroke-width="1" opacity="1" d="M 216.5 370 L 217.5 372 L 216.5 370 Z " /><path fill="rgb(240,222,204)" stroke="rgb(240,222,204)" stroke-width="1" opacity="1" d="M 157.5 386 Q 164.5 384.5 164 387.5 L 166 390.5 L 166 396.5 L 169 407.5 L 173 415.5 L 192 442.5 L 199 460.5 L 198 460.5 L 196 453.5 L 188 437.5 Q 176.4 424.1 168 407.5 L 165 396.5 L 165 391.5 L 162.5 387 Q 156.4 385.8 157 388.5 L 153 406.5 L 125 452.5 L 119 474.5 L 119 493.5 Q 122.2 506.8 132.5 513 Q 140.5 519.5 154 520.5 L 148.5 521 Q 133.6 517.4 125 507.5 L 118 493.5 L 118 473.5 L 122 457.5 L 131 438.5 L 147 416.5 L 152 406.5 L 155 395.5 L 155 389.5 L 157.5 386 Z " /><path fill="rgb(240,222,204)" stroke="rgb(240,222,204)" stroke-width="1" opacity="1" d="M 200.5 466 L 201 468.5 L 200 468.5 L 200.5 466 Z " /><path fill="rgb(240,222,204)" stroke="rgb(240,222,204)" stroke-width="1" opacity="1" d="M 201.5 472 L 202 474.5 L 201 474.5 L 201.5 472 Z " /><path fill="rgb(240,222,204)" stroke="rgb(240,222,204)" stroke-width="1" opacity="1" d="M 201.5 492 L 202 494.5 L 201 494.5 L 201.5 492 Z " /><path fill="rgb(240,222,204)" stroke="rgb(240,222,204)" stroke-width="1" opacity="1" d="M 198.5 502 L 198 503.5 L 189.5 513 L 179.5 519 L 173.5 520 L 173.5 519 L 183.5 516 L 197 504.5 L 198.5 502 Z " /><path fill="rgb(240,222,204)" stroke="rgb(240,222,204)" stroke-width="1" opacity="1" d="M 167.5 520 L 172 520.5 L 167.5 521 L 167.5 520 Z " /><path fill="rgb(240,222,204)" stroke="rgb(240,222,204)" stroke-width="1" opacity="1" d="M 156.5 521 L 159 521.5 L 156.5 522 L 156.5 521 Z " /><path fill="rgb(240,222,204)" stroke="rgb(240,222,204)" stroke-width="1" opacity="1" d="M 90.5 562 L 93.5 566 L 90.5 562 Z " /><path fill="rgb(240,222,204)" stroke="rgb(240,222,204)" stroke-width="1" opacity="1" d="M 229.5 562 L 226.5 566 L 229.5 562 Z " /><path fill="rgb(255,244,228)" stroke="rgb(255,244,228)" stroke-width="1" opacity="1" d="M 146.5 279 L 145.5 281 L 146.5 279 Z " /><path fill="rgb(255,244,228)" stroke="rgb(255,244,228)" stroke-width="1" opacity="1" d="M 173.5 279 L 174.5 281 L 173.5 279 Z " /><path fill="rgb(255,244,228)" stroke="rgb(255,244,228)" stroke-width="1" opacity="1" d="M 142.5 282 L 139.5 286 L 142.5 282 Z " /><path fill="rgb(255,244,228)" stroke="rgb(255,244,228)" stroke-width="1" opacity="1" d="M 177.5 282 L 180.5 286 L 177.5 282 Z " /><path fill="rgb(255,244,228)" stroke="rgb(255,244,228)" stroke-width="1" opacity="1" d="M 170.5 284 L 175 287.5 L 172.5 286 L 170.5 284 Z " /><path fill="rgb(255,244,228)" stroke="rgb(255,244,228)" stroke-width="1" opacity="1" d="M 146.5 285 L 143.5 289 L 146.5 285 Z " /><path fill="rgb(255,244,228)" stroke="rgb(255,244,228)" stroke-width="1" opacity="1" d="M 137.5 288 L 136.5 290 L 137.5 288 Z " /><path fill="rgb(255,244,228)" stroke="rgb(255,244,228)" stroke-width="1" opacity="1" d="M 182.5 288 L 183.5 290 L 182.5 288 Z " /><path fill="rgb(255,244,228)" stroke="rgb(255,244,228)" stroke-width="1" opacity="1" d="M 175.5 289 L 176.5 291 L 175.5 289 Z " /><path fill="rgb(255,244,228)" stroke="rgb(255,244,228)" stroke-width="1" opacity="1" d="M 142.5 312 L 146.5 317 L 149 318.5 L 147.5 318 L 143 314.5 L 142.5 312 Z " /><path fill="rgb(255,244,228)" stroke="rgb(255,244,228)" stroke-width="1" opacity="1" d="M 176.5 312 L 175.5 314 L 176.5 312 Z " /><path fill="rgb(255,244,228)" stroke="rgb(255,244,228)" stroke-width="1" opacity="1" d="M 96.5 313 L 95.5 315 L 96.5 313 Z " /><path fill="rgb(255,244,228)" stroke="rgb(255,244,228)" stroke-width="1" opacity="1" d="M 223.5 313 L 224.5 315 L 223.5 313 Z " /><path fill="rgb(255,244,228)" stroke="rgb(255,244,228)" stroke-width="1" opacity="1" d="M 174.5 315 L 173.5 317 L 174.5 315 Z " /><path fill="rgb(255,244,228)" stroke="rgb(255,244,228)" stroke-width="1" opacity="1" d="M 171.5 317 L 170.5 319 L 171.5 317 Z " /><path fill="rgb(255,244,228)" stroke="rgb(255,244,228)" stroke-width="1" opacity="1" d="M 91.5 318 L 90.5 320 L 91.5 318 Z " /><path fill="rgb(255,244,228)" stroke="rgb(255,244,228)" stroke-width="1" opacity="1" d="M 228.5 318 L 229.5 320 L 228.5 318 Z " /><path fill="rgb(255,244,228)" stroke="rgb(255,244,228)" stroke-width="1" opacity="1" d="M 152.5 348 L 153.5 350 L 152.5 348 Z " /><path fill="rgb(255,244,228)" stroke="rgb(255,244,228)" stroke-width="1" opacity="1" d="M 166.5 348 L 167.5 350 L 166.5 348 Z " /><path fill="rgb(255,244,228)" stroke="rgb(255,244,228)" stroke-width="1" opacity="1" d="M 104.5 349 L 102.5 352 L 104.5 349 Z " /><path fill="rgb(255,244,228)" stroke="rgb(255,244,228)" stroke-width="1" opacity="1" d="M 120.5 349 L 118.5 352 L 120.5 349 Z " /><path fill="rgb(255,244,228)" stroke="rgb(255,244,228)" stroke-width="1" opacity="1" d="M 209.5 349 L 211.5 352 L 209.5 349 Z " /><path fill="rgb(255,244,228)" stroke="rgb(255,244,228)" stroke-width="1" opacity="1" d="M 146.5 353 L 144.5 356 L 146.5 353 Z " /><path fill="rgb(255,244,228)" stroke="rgb(255,244,228)" stroke-width="1" opacity="1" d="M 148.5 353 L 149.5 355 L 148.5 353 Z " /><path fill="rgb(255,244,228)" stroke="rgb(255,244,228)" stroke-width="1" opacity="1" d="M 106.5 363 L 109 363.5 Q 106.9 366.8 106.5 363 Z " /><path fill="rgb(255,244,228)" stroke="rgb(255,244,228)" stroke-width="1" opacity="1" d="M 157.5 367 L 158.5 369 L 157.5 367 Z " /><path fill="rgb(255,244,228)" stroke="rgb(255,244,228)" stroke-width="1" opacity="1" d="M 102.5 368 L 103.5 370 L 102.5 368 Z " /><path fill="rgb(255,244,228)" stroke="rgb(255,244,228)" stroke-width="1" opacity="1" d="M 212.5 368 L 211.5 370 L 212.5 368 Z " /><path fill="rgb(255,244,228)" stroke="rgb(255,244,228)" stroke-width="1" opacity="1" d="M 155 386 L 157 386.5 L 155.5 389 L 155 386 Z " /><path fill="rgb(255,244,228)" stroke="rgb(255,244,228)" stroke-width="1" opacity="1" d="M 164.5 386 L 166 389.5 L 165 389.5 L 164.5 386 Z " /><path fill="rgb(255,244,228)" stroke="rgb(255,244,228)" stroke-width="1" opacity="1" d="M 166.5 394 L 167 396.5 L 166 396.5 L 166.5 394 Z " /><path fill="rgb(255,244,228)" stroke="rgb(255,244,228)" stroke-width="1" opacity="1" d="M 153.5 398 L 154 400.5 L 147 416.5 Q 131.3 433.3 122.5 457 L 122 455.5 Q 130.6 432.6 146 416.5 L 153.5 398 Z " /><path fill="rgb(255,244,228)" stroke="rgb(255,244,228)" stroke-width="1" opacity="1" d="M 167.5 399 L 174 415.5 L 192 441.5 L 190 440.5 L 173 415.5 Q 168 408.5 167.5 399 Z " /><path fill="rgb(255,244,228)" stroke="rgb(255,244,228)" stroke-width="1" opacity="1" d="M 193.5 445 L 199 457.5 L 198 457.5 L 193 446.5 L 193.5 445 Z " /><path fill="rgb(255,244,228)" stroke="rgb(255,244,228)" stroke-width="1" opacity="1" d="M 121.5 458 L 122 460.5 L 118 473.5 L 118 493.5 Q 120.5 504 127.5 510 L 141 518.5 L 139.5 519 Q 129.2 514.8 123 506.5 Q 118.3 501.7 117 493.5 L 117 473.5 L 121.5 458 Z " /><path fill="rgb(255,244,228)" stroke="rgb(255,244,228)" stroke-width="1" opacity="1" d="M 199.5 459 L 201 465.5 L 200 465.5 L 199.5 459 Z " /><path fill="rgb(255,244,228)" stroke="rgb(255,244,228)" stroke-width="1" opacity="1" d="M 201.5 467 L 202 471.5 L 201 471.5 L 201.5 467 Z " /><path fill="rgb(255,244,228)" stroke="rgb(255,244,228)" stroke-width="1" opacity="1" d="M 202.5 474 L 203 493.5 L 202 493.5 L 202.5 474 Z " /><path fill="rgb(255,244,228)" stroke="rgb(255,244,228)" stroke-width="1" opacity="1" d="M 201.5 495 L 202 497.5 L 201 497.5 L 201.5 495 Z " /><path fill="rgb(255,244,228)" stroke="rgb(255,244,228)" stroke-width="1" opacity="1" d="M 200.5 499 L 201 500.5 L 195.5 509 Q 193.3 508.3 194 510.5 L 180.5 519 L 180.5 518 Q 191.5 513.5 198 504.5 L 200.5 499 Z " /><path fill="rgb(255,244,228)" stroke="rgb(255,244,228)" stroke-width="1" opacity="1" d="M 164.5 521 L 166 521.5 Q 163.6 524.1 157.5 523 L 157.5 522 Q 163 523.5 164.5 521 Z " /><path fill="rgb(255,244,229)" stroke="rgb(255,244,229)" stroke-width="1" opacity="1" d="M 154.5 276 Q 163.4 274.6 168.5 277 Q 176.9 280.6 182 287.5 Q 187.3 293 187 303 L 191.5 304 L 193.5 304 Q 215.4 306.1 228 317.5 L 229.5 320 L 231 320.5 L 231 558.5 L 225.5 566 L 213.5 572 L 192.5 577 L 177.5 578 L 176.5 579 L 143.5 579 L 142.5 578 L 121.5 576 L 106.5 572 L 94.5 566 L 91 562.5 L 89 558.5 L 89 320 L 92 318.5 L 94.5 315 L 105.5 309 L 127.5 303 L 129.5 303 Q 135.2 304.8 133 298.5 Q 135.9 286.9 144.5 281 L 154.5 276 Z M 153 282 L 147 285 L 140 295 Q 138 308 143 315 Q 147 319 154 321 Q 168 323 174 317 L 179 308 Q 181 294 175 288 Q 169 280 153 282 Z M 216 338 L 216 372 L 221 372 L 221 339 L 216 338 Z M 144 348 L 142 350 L 137 349 L 137 371 L 142 371 L 142 360 L 143 358 L 148 353 L 150 356 L 150 357 L 155 357 L 154 350 L 153 348 L 144 348 Z M 161 348 L 157 352 L 156 356 Q 154 364 157 368 L 159 369 L 169 370 L 170 369 L 170 350 L 167 348 L 161 348 Z M 175 348 L 174 355 L 174 370 L 179 370 L 179 359 L 183 354 L 184 359 L 184 372 L 188 372 L 188 357 L 191 353 L 193 358 L 192 361 L 192 371 L 197 371 L 197 351 L 196 348 L 181 348 L 180 349 L 175 348 Z M 204 348 L 200 352 L 200 367 Q 202 372 212 370 L 214 367 Q 217 358 209 361 L 208 365 L 205 363 L 205 360 L 211 360 Q 214 358 212 352 Q 210 347 204 348 Z M 105 349 L 101 354 L 101 367 L 104 370 Q 110 371 113 369 L 114 367 Q 116 360 110 362 Q 108 366 106 363 L 107 356 Q 108 353 110 355 Q 118 358 115 350 Q 112 348 105 349 Z M 121 349 L 117 355 L 117 368 Q 119 372 126 370 L 128 370 Q 132 370 132 370 L 132 351 L 127 349 L 121 349 Z M 155 386 L 154 398 L 149 411 L 127 444 L 119 464 L 117 474 L 117 494 Q 118 502 123 507 Q 129 515 140 519 L 147 521 L 154 521 L 158 523 L 164 523 L 167 521 L 174 521 L 182 519 L 194 511 Q 193 508 196 509 Q 201 503 203 494 L 203 475 L 199 456 L 189 436 L 176 419 L 170 408 L 166 394 L 166 388 L 165 386 L 155 386 Z " /><path fill="rgb(255,244,229)" stroke="rgb(255,244,229)" stroke-width="1" opacity="1" d="M 163.5 354 Q 166.1 353.2 165 356.5 L 162.5 363 Q 160.3 362.3 161 358.5 L 163.5 354 Z " /><path fill="rgb(255,244,229)" stroke="rgb(255,244,229)" stroke-width="1" opacity="1" d="M 123 355 Q 126.7 353.6 125 359.5 L 122.5 364 L 122 358.5 L 123 355 Z " /><path fill="rgb(142,80,41)" stroke="rgb(142,80,41)" stroke-width="1" opacity="0.996078431372549" d="M 162.5 41 L 165 41.5 L 162.5 42 L 162.5 41 Z " /><path fill="rgb(142,80,41)" stroke="rgb(142,80,41)" stroke-width="1" opacity="0.996078431372549" d="M 106.5 185 L 112 187.5 Q 111.3 189.8 113.5 189 L 117.5 191 Q 119 187.5 120.5 190 L 124 190.5 Q 106.1 213.1 94 241.5 Q 75.6 288.1 60.5 338 L 60 230.5 L 66 215.5 L 81.5 199 Q 92.5 190.5 106.5 185 Z " /><path fill="rgb(142,80,41)" stroke="rgb(142,80,41)" stroke-width="1" opacity="0.996078431372549" d="M 243.5 203 L 247.5 208 L 243.5 203 Z " /><path fill="rgb(142,80,41)" stroke="rgb(142,80,41)" stroke-width="1" opacity="0.996078431372549" d="M 137.5 279 L 136.5 281 L 137.5 279 Z " /><path fill="rgb(142,80,41)" stroke="rgb(142,80,41)" stroke-width="1" opacity="0.996078431372549" d="M 182.5 279 L 183.5 281 L 182.5 279 Z " /><path fill="rgb(142,80,41)" stroke="rgb(142,80,41)" stroke-width="1" opacity="0.996078431372549" d="M 217 339 L 221 340.5 L 221 369.5 L 219.5 371 Q 215.3 372.3 217 367.5 L 216 362.5 L 217 361.5 L 217 339 Z " /><path fill="rgb(142,80,41)" stroke="rgb(142,80,41)" stroke-width="1" opacity="0.996078431372549" d="M 145.5 348 Q 152.8 346.8 154 351.5 L 155 354.5 L 151.5 356 L 148.5 352 L 143 355.5 L 142 357.5 L 142 368.5 L 140.5 370 Q 136.3 371.3 138 366.5 L 137 365.5 L 137 351.5 L 139.5 350 L 141.5 351 L 145.5 348 Z " /><path fill="rgb(142,80,41)" stroke="rgb(142,80,41)" stroke-width="1" opacity="0.996078431372549" d="M 188.5 348 Q 194.3 347.2 196 350.5 L 197 352.5 L 197 367.5 Q 194.5 372.5 192 367.5 Q 194.2 362.8 193 354.5 L 192 352 L 188 354.5 L 188 369.5 L 186.5 371 L 184 369.5 L 184 355.5 L 182.5 353 L 179 356.5 L 179 370 L 175 369.5 L 175 350.5 L 177.5 349 L 179.5 350 L 184.5 349 L 186.5 350 L 188.5 348 Z " /><path fill="rgb(142,80,41)" stroke="rgb(142,80,41)" stroke-width="1" opacity="0.996078431372549" d="M 106.5 349 Q 112 348.5 114 351.5 L 112.5 355 L 107.5 354 Q 104.3 356.3 105 362.5 L 106 365 Q 110.2 365.7 111.5 362 Q 113.8 362.8 113 366.5 Q 111.3 369.8 106.5 370 L 102 366.5 Q 99.7 363.3 101 356.5 L 106.5 349 Z " /><path fill="rgb(142,80,41)" stroke="rgb(142,80,41)" stroke-width="1" opacity="0.996078431372549" d="M 123.5 349 L 131 353.5 L 131 368.5 L 128.5 369 Q 126.5 365 124.5 369 L 122.5 370 L 118 366.5 L 117 358.5 L 119 352.5 L 121.5 350 L 123.5 349 Z M 124 354 L 122 356 Q 124 361 121 363 L 123 365 Q 126 362 126 356 L 124 354 Z " /><path fill="rgb(142,80,41)" stroke="rgb(142,80,41)" stroke-width="1" opacity="0.996078431372549" d="M 160.5 349 Q 168.1 347.9 170 352.5 L 170 367.5 L 168.5 369 L 165.5 367 L 161.5 369 L 157 365.5 L 156 359.5 L 157 354.5 L 160.5 349 Z M 162 353 L 161 356 L 161 364 L 163 364 L 165 360 L 165 353 L 162 353 Z " /><path fill="rgb(142,80,41)" stroke="rgb(142,80,41)" stroke-width="1" opacity="0.996078431372549" d="M 204.5 349 Q 210.3 348.3 211 352.5 L 212 355.5 L 209.5 359 L 204 360 L 205 365 L 207.5 366 L 209 363 L 211.5 362 Q 213.8 362.8 213 366.5 Q 212 371 205.5 370 L 202 367.5 Q 198.5 363.5 200 354.5 L 202 350 L 204.5 349 Z M 206 353 Q 204 356 207 355 L 206 353 Z " /><path fill="rgb(142,80,41)" stroke="rgb(142,80,41)" stroke-width="1" opacity="0.996078431372549" d="M 187.5 440 L 195 453.5 L 198 462.5 L 201 476.5 L 201 490.5 L 199 498.5 L 195 506 L 180.5 516 Q 171.2 519.7 158.5 520 L 157.5 519 L 145.5 518 L 140.5 516 L 126 505.5 L 121 497.5 L 120 492.5 L 127.5 499 L 132 501.5 Q 129.8 502.8 132.5 504 L 134 503.5 L 133.5 502 L 144.5 504 Q 146 501.5 151.5 503 L 153.5 503 L 158.5 501 L 160.5 501 L 174 490.5 L 175.5 488 L 179 485.5 L 183 474.5 L 186 452 L 188 451.5 L 186 451 L 187.5 440 Z " /><path fill="rgb(142,80,41)" stroke="rgb(142,80,41)" stroke-width="1" opacity="0.996078431372549" d="M 259.5 480 L 260 565.5 Q 254 586 238.5 597 Q 219.7 612.2 190.5 617 L 191 615.5 Q 206.7 596.9 218 575 Q 227.4 573.3 233 566.5 Q 238 558.5 236 543.5 L 249 513.5 L 254 490.5 L 259.5 480 Z " /><path fill="rgb(142,80,41)" stroke="rgb(142,80,41)" stroke-width="1" opacity="0.996078431372549" d="M 89.5 568 L 90.5 570 L 89.5 568 Z " /><path fill="rgb(142,80,41)" stroke="rgb(142,80,41)" stroke-width="1" opacity="0.996078431372549" d="M 72.5 588 L 76.5 593 L 72.5 588 Z " /></svg>