<svg width="320" height="640" version="1.1" xmlns="http://www.w3.org/2000/svg" desc="Created with imagetracer.js version 1.2.6" ><path fill="rgb(0,0,0)" stroke="rgb(0,0,0)" stroke-width="1" opacity="0" d="M 0 0 L 320 0 L 320 640 L 0 640 L 0 0 Z M 152 38 L 150 40 L 150 65 L 149 66 Q 150 68 148 67 L 146 69 L 140 116 L 117 120 L 105 126 L 101 131 L 101 179 L 102 182 L 94 185 L 77 196 Q 61 207 55 229 L 55 568 Q 58 581 66 590 Q 78 604 96 612 L 117 620 L 143 625 L 178 625 L 204 620 L 227 611 L 245 599 Q 259 588 265 568 L 265 229 Q 261 215 253 206 Q 239 189 218 182 L 219 179 L 219 131 L 217 128 L 204 120 L 180 116 L 174 69 L 171 67 L 170 65 L 170 40 L 169 38 L 152 38 Z " /><path fill="rgb(253,242,227)" stroke="rgb(253,242,227)" stroke-width="1" opacity="1" d="M 159.5 275 L 172.5 278 L 183 287.5 L 187 296.5 L 187 301.5 L 188.5 303 Q 204.5 304 216.5 309 L 229 317.5 L 229 319 L 231 319.5 L 231 560.5 L 225.5 567 L 208.5 574 L 194.5 577 L 179.5 578 L 178.5 579 L 141.5 579 L 140.5 578 L 132.5 578 L 111.5 574 L 94.5 567 L 90 562.5 L 89 560.5 L 89 319 Q 91.7 320.1 91 317.5 L 103.5 309 Q 115.5 304 131.5 303 L 133 301.5 L 133 296.5 L 135 290.5 L 144.5 280 L 149.5 277 L 159.5 275 Z M 156 284 L 148 288 L 142 298 Q 141 306 144 311 Q 148 317 156 319 Q 165 320 170 316 Q 175 312 177 305 L 177 299 L 175 293 L 167 285 L 156 284 Z M 173 328 L 173 354 L 177 355 L 177 329 L 173 328 Z M 198 332 L 198 337 L 195 338 L 197 342 L 198 343 L 198 351 Q 199 354 205 353 L 208 348 Q 210 342 206 343 L 204 347 L 202 348 L 202 341 L 207 341 Q 209 340 207 339 L 207 337 L 202 337 L 202 332 L 198 332 Z M 115 335 L 113 337 L 113 355 L 116 355 Q 119 353 117 347 L 119 345 L 120 347 L 120 355 L 123 356 Q 125 355 124 351 Q 127 350 126 353 L 132 356 L 135 355 L 139 350 L 137 344 L 134 341 L 131 341 L 127 343 L 126 349 Q 123 348 124 345 L 121 341 L 117 341 L 117 335 L 115 335 Z M 217 335 L 215 336 L 210 343 L 211 350 L 218 354 L 223 351 L 222 347 L 217 349 L 215 345 L 222 345 L 223 344 L 222 338 L 217 335 Z M 185 338 Q 179 340 180 350 L 185 353 L 188 352 L 191 354 L 193 352 L 193 339 L 185 338 Z M 161 339 Q 156 342 155 348 L 156 352 L 163 355 L 168 353 L 171 348 L 170 344 Q 168 338 161 339 Z M 106 340 L 103 341 L 98 347 L 100 354 L 106 356 L 109 355 L 110 351 Q 104 353 102 349 L 105 345 Q 112 347 110 341 L 106 340 Z M 145 340 L 140 347 L 141 353 L 146 355 L 152 354 Q 157 352 152 349 L 149 351 Q 145 352 144 349 L 147 344 Q 152 346 151 342 Q 150 339 145 340 Z M 182 378 L 181 379 L 116 379 L 113 380 L 113 449 L 114 450 Q 115 454 113 456 L 114 460 L 114 531 L 115 532 L 116 533 L 166 533 L 168 533 Q 174 535 176 532 L 206 532 L 207 530 L 207 522 L 206 521 L 206 427 L 205 426 L 205 379 L 202 378 L 191 378 L 190 379 Q 188 376 182 378 Z " /><path fill="rgb(253,242,227)" stroke="rgb(253,242,227)" stroke-width="1" opacity="1" d="M 216.5 340 L 219 340.5 L 216.5 341 L 216.5 340 Z " /><path fill="rgb(253,242,227)" stroke="rgb(253,242,227)" stroke-width="1" opacity="1" d="M 186.5 342 L 188 344.5 L 185.5 348 Q 182.5 348.9 184 344.5 L 186.5 342 Z " /><path fill="rgb(253,242,227)" stroke="rgb(253,242,227)" stroke-width="1" opacity="1" d="M 162.5 343 L 166 345.5 Q 166.8 349.3 164.5 350 Q 157.8 352.3 160 345.5 L 162.5 343 Z " /><path fill="rgb(253,242,227)" stroke="rgb(253,242,227)" stroke-width="1" opacity="1" d="M 131.5 346 Q 135.7 344.7 134 349.5 L 130 351 Q 129 347.2 131.5 346 Z " /><path fill="rgb(103,50,8)" stroke="rgb(103,50,8)" stroke-width="1" opacity="1" d="M 208.5 128 L 211 129.5 L 209.5 130 L 208.5 128 Z " /><path fill="rgb(103,50,8)" stroke="rgb(103,50,8)" stroke-width="1" opacity="1" d="M 109.5 186 L 113 187.5 L 111.5 188 L 109.5 186 Z " /><path fill="rgb(103,50,8)" stroke="rgb(103,50,8)" stroke-width="1" opacity="1" d="M 92.5 192 L 91.5 194 L 92.5 192 Z " /><path fill="rgb(103,50,8)" stroke="rgb(103,50,8)" stroke-width="1" opacity="1" d="M 87.5 195 L 85.5 198 L 71 210.5 L 66.5 217 L 67 215.5 Q 71.9 205.9 80.5 200 L 87.5 195 Z " /><path fill="rgb(103,50,8)" stroke="rgb(103,50,8)" stroke-width="1" opacity="1" d="M 243.5 203 L 247.5 208 L 243.5 203 Z " /><path fill="rgb(103,50,8)" stroke="rgb(103,50,8)" stroke-width="1" opacity="1" d="M 117.5 209 L 113.5 214 L 117.5 209 Z " /><path fill="rgb(103,50,8)" stroke="rgb(103,50,8)" stroke-width="1" opacity="1" d="M 65.5 218 L 65 219.5 L 63.5 223 L 63 221.5 L 65.5 218 Z " /><path fill="rgb(103,50,8)" stroke="rgb(103,50,8)" stroke-width="1" opacity="1" d="M 109.5 218 L 107.5 221 L 109.5 218 Z " /><path fill="rgb(103,50,8)" stroke="rgb(103,50,8)" stroke-width="1" opacity="1" d="M 104.5 224 L 103.5 226 L 104.5 224 Z " /><path fill="rgb(103,50,8)" stroke="rgb(103,50,8)" stroke-width="1" opacity="1" d="M 100.5 229 L 99.5 231 L 100.5 229 Z " /><path fill="rgb(103,50,8)" stroke="rgb(103,50,8)" stroke-width="1" opacity="1" d="M 97.5 233 L 96.5 235 L 97.5 233 Z " /><path fill="rgb(103,50,8)" stroke="rgb(103,50,8)" stroke-width="1" opacity="1" d="M 94.5 237 L 93.5 239 L 94.5 237 Z " /><path fill="rgb(103,50,8)" stroke="rgb(103,50,8)" stroke-width="1" opacity="1" d="M 167.5 381 L 197.5 381 L 198.5 382 L 200.5 382 Q 203.1 381.2 202 384.5 L 204 389.5 L 203 390.5 L 203 399.5 L 204 403.5 L 204 405.5 L 203 411.5 L 204 415.5 L 201 419.5 L 204 425.5 L 204 453.5 L 202 456.5 L 204 458.5 L 204 470.5 L 205 471.5 L 204 472.5 L 204 482.5 L 205 485.5 L 202 493.5 L 205 499.5 L 205 501.5 L 204 506.5 L 205 507.5 L 205 517.5 L 205 519.5 Q 206.5 527.5 202.5 530 L 201 529.5 L 203 527.5 L 203 497.5 L 202 495 L 197 493.5 L 197.5 491 L 200.5 492 L 203 489.5 L 203 468.5 L 202 465.5 L 203 461.5 L 200.5 457 L 197.5 456 L 177 455.5 L 197 454.5 L 196.5 453 L 201 456 L 202 453.5 L 202 422.5 L 197 419.5 L 197.5 417 L 201 418 L 202 415.5 L 202 386.5 L 199.5 383 L 197.5 382 L 167.5 382 L 167.5 381 Z " /><path fill="rgb(103,50,8)" stroke="rgb(103,50,8)" stroke-width="1" opacity="1" d="M 119.5 382 L 123 382.5 L 119 383 L 118.5 392 L 118 383.5 L 119.5 382 Z " /><path fill="rgb(103,50,8)" stroke="rgb(103,50,8)" stroke-width="1" opacity="1" d="M 154.5 382 Q 158.9 380.5 158 383.5 L 159 386.5 L 158 386.5 L 156.5 383 Q 153.5 383.5 154.5 382 Z " /><path fill="rgb(103,50,8)" stroke="rgb(103,50,8)" stroke-width="1" opacity="1" d="M 162.5 382 L 162 383.5 L 162 415.5 L 163.5 416 L 163.5 417 L 160 416 L 158 420.5 L 159 422.5 L 156.5 421 L 154.5 420 L 125 419.5 L 153.5 419 L 159 416.5 L 159.5 411 L 160.5 414 L 161 383.5 L 162.5 382 Z " /><path fill="rgb(103,50,8)" stroke="rgb(103,50,8)" stroke-width="1" opacity="1" d="M 118.5 395 L 119 415.5 L 120 416.5 L 118.5 417 L 117 414.5 L 118 413.5 L 118.5 395 Z " /><path fill="rgb(103,50,8)" stroke="rgb(103,50,8)" stroke-width="1" opacity="1" d="M 121.5 417 L 153 417.5 L 121.5 418 L 121.5 417 Z " /><path fill="rgb(103,50,8)" stroke="rgb(103,50,8)" stroke-width="1" opacity="1" d="M 163.5 419 L 179 419.5 L 163.5 420 L 162.5 421 L 163.5 419 Z " /><path fill="rgb(103,50,8)" stroke="rgb(103,50,8)" stroke-width="1" opacity="1" d="M 186.5 419 L 189 419.5 L 186.5 420 L 186.5 419 Z " /><path fill="rgb(103,50,8)" stroke="rgb(103,50,8)" stroke-width="1" opacity="1" d="M 118.5 422 L 119 452.5 L 120 453.5 L 118.5 454 Q 115.8 452.8 118 451.5 L 118.5 422 Z " /><path fill="rgb(103,50,8)" stroke="rgb(103,50,8)" stroke-width="1" opacity="1" d="M 161.5 422 L 162 453 L 167 453.5 L 162.5 454 L 160 453 L 159 458.5 L 160 459.5 L 160 477.5 L 159 477.5 L 159 459.5 L 156.5 457 Q 153.2 458.1 154 455.5 L 155.5 456 L 159 454.5 L 159.5 424 L 160.5 452 L 161.5 422 Z " /><path fill="rgb(103,50,8)" stroke="rgb(103,50,8)" stroke-width="1" opacity="1" d="M 128.5 453 L 133 453.5 L 128.5 454 L 128.5 453 Z " /><path fill="rgb(103,50,8)" stroke="rgb(103,50,8)" stroke-width="1" opacity="1" d="M 139.5 453 L 148 453.5 L 139.5 454 L 139.5 453 Z " /><path fill="rgb(103,50,8)" stroke="rgb(103,50,8)" stroke-width="1" opacity="1" d="M 150.5 453 L 153 453.5 L 150.5 454 L 150.5 453 Z " /><path fill="rgb(103,50,8)" stroke="rgb(103,50,8)" stroke-width="1" opacity="1" d="M 171.5 453 L 177 453.5 L 171.5 454 L 171.5 453 Z " /><path fill="rgb(103,50,8)" stroke="rgb(103,50,8)" stroke-width="1" opacity="1" d="M 120.5 456 L 122 456.5 L 120 457 L 119.5 459 L 119 457.5 L 120.5 456 Z " /><path fill="rgb(103,50,8)" stroke="rgb(103,50,8)" stroke-width="1" opacity="1" d="M 127.5 456 L 132 456.5 L 127.5 457 L 127.5 456 Z " /><path fill="rgb(103,50,8)" stroke="rgb(103,50,8)" stroke-width="1" opacity="1" d="M 163.5 456 L 163 457.5 L 162.5 459 L 162 457.5 L 163.5 456 Z " /><path fill="rgb(103,50,8)" stroke="rgb(103,50,8)" stroke-width="1" opacity="1" d="M 162.5 470 L 163 475.5 L 162 475.5 L 162.5 470 Z " /><path fill="rgb(103,50,8)" stroke="rgb(103,50,8)" stroke-width="1" opacity="1" d="M 162.5 478 L 163 489.5 L 164 490.5 L 162.5 491 L 160 490 Q 161.5 493.8 158.5 493 L 160 495.5 L 159.5 498 L 157.5 495 L 139 493.5 L 154.5 493 L 155.5 492 L 157.5 492 Q 159.8 492.8 159 490.5 L 160 487 L 162 486.5 L 162.5 478 Z " /><path fill="rgb(103,50,8)" stroke="rgb(103,50,8)" stroke-width="1" opacity="1" d="M 119.5 480 L 120 491 Q 117 492.3 118 488.5 L 119.5 480 Z " /><path fill="rgb(103,50,8)" stroke="rgb(103,50,8)" stroke-width="1" opacity="1" d="M 127.5 491 L 134 491.5 L 127.5 492 L 127.5 491 Z " /><path fill="rgb(103,50,8)" stroke="rgb(103,50,8)" stroke-width="1" opacity="1" d="M 136.5 491 L 154 491.5 L 136.5 492 L 136.5 491 Z " /><path fill="rgb(103,50,8)" stroke="rgb(103,50,8)" stroke-width="1" opacity="1" d="M 171.5 491 L 175 491.5 L 171.5 492 L 171.5 491 Z " /><path fill="rgb(103,50,8)" stroke="rgb(103,50,8)" stroke-width="1" opacity="1" d="M 164.5 493 L 190 493.5 L 164.5 494 L 163 495.5 L 163 526.5 L 165.5 530 L 170 530.5 L 164.5 531 L 163 528 L 161 528 Q 162.1 530.7 159.5 530 L 160 528.5 L 160.5 517 L 161.5 526 L 162 495.5 L 164.5 493 Z " /><path fill="rgb(103,50,8)" stroke="rgb(103,50,8)" stroke-width="1" opacity="1" d="M 120.5 494 L 120 495.5 L 120 527.5 L 121 530 L 125 530.5 L 121.5 531 L 118 526.5 L 119 525.5 L 119 495.5 L 120.5 494 Z " /><path fill="rgb(103,50,8)" stroke="rgb(103,50,8)" stroke-width="1" opacity="1" d="M 160.5 507 L 161 515.5 L 160 515.5 L 160.5 507 Z " /><path fill="rgb(103,50,8)" stroke="rgb(103,50,8)" stroke-width="1" opacity="1" d="M 129.5 530 L 158 530.5 L 129.5 531 L 129.5 530 Z " /><path fill="rgb(103,50,8)" stroke="rgb(103,50,8)" stroke-width="1" opacity="1" d="M 176.5 530 L 182 530.5 L 176.5 531 L 176.5 530 Z " /><path fill="rgb(103,50,8)" stroke="rgb(103,50,8)" stroke-width="1" opacity="1" d="M 190.5 530 L 193 530.5 L 190.5 531 L 190.5 530 Z " /><path fill="rgb(103,50,8)" stroke="rgb(103,50,8)" stroke-width="1" opacity="1" d="M 233.5 566 L 230.5 570 L 233.5 566 Z " /><path fill="rgb(103,50,8)" stroke="rgb(103,50,8)" stroke-width="1" opacity="1" d="M 228.5 570 L 227.5 572 L 228.5 570 Z " /><path fill="rgb(103,50,8)" stroke="rgb(103,50,8)" stroke-width="1" opacity="1" d="M 148.5 584 L 145.5 588 L 148.5 584 Z " /><path fill="rgb(103,50,8)" stroke="rgb(103,50,8)" stroke-width="1" opacity="1" d="M 246.5 589 L 244.5 592 L 246.5 589 Z " /><path fill="rgb(103,50,8)" stroke="rgb(103,50,8)" stroke-width="1" opacity="1" d="M 138.5 595 L 119.5 615 L 138.5 595 Z " /><path fill="rgb(104,51,8)" stroke="rgb(104,51,8)" stroke-width="1" opacity="1" d="M 163 42 Q 167.1 40.3 166 44.5 L 167 45.5 L 167 68 L 157 67.5 L 162 50.5 L 163 42 Z " /><path fill="rgb(104,51,8)" stroke="rgb(104,51,8)" stroke-width="1" opacity="1" d="M 181 122 L 196.5 124 L 205.5 127 L 211 130.5 L 206.5 134 L 194.5 139 L 181.5 142 L 158.5 144 Q 156.5 147 150.5 146 L 149.5 145 L 132.5 144 L 126 141.5 L 136.5 133 Q 147.2 141.8 169.5 139 L 177.5 137 L 183 133.5 L 181 122 Z " /><path fill="rgb(104,51,8)" stroke="rgb(104,51,8)" stroke-width="1" opacity="1" d="M 106.5 186 L 117.5 190 L 133 192 L 133 193.5 L 113 213.5 L 93 238.5 Q 74 264.5 60.5 296 L 60 232.5 Q 65.5 212 80.5 201 Q 91.6 191.6 106.5 186 Z " /><path fill="rgb(104,51,8)" stroke="rgb(104,51,8)" stroke-width="1" opacity="1" d="M 156.5 292 Q 165.8 290.6 168 296.5 L 169 303.5 L 164.5 310 L 156.5 311 L 151 306.5 L 150 298.5 L 154.5 293 L 156.5 292 Z M 158 300 Q 157 305 161 303 Q 163 299 158 300 Z " /><path fill="rgb(104,51,8)" stroke="rgb(104,51,8)" stroke-width="1" opacity="1" d="M 259.5 351 L 260 536.5 Q 246.6 575.1 224.5 605 Q 208 614 186.5 618 L 173.5 619 L 172.5 620 L 147.5 620 L 120 614.5 L 149.5 584 L 176.5 584 L 177.5 583 L 187.5 583 L 188.5 582 L 201.5 581 L 219.5 576 Q 228.3 572.8 234 566.5 L 236 561.5 L 236 425.5 L 259.5 351 Z " /><path fill="rgb(104,51,8)" stroke="rgb(104,51,8)" stroke-width="1" opacity="1" d="M 153.5 380 L 160.5 380 L 161 381.5 L 162.5 381 L 167 381.5 Q 162.4 380.9 161 383.5 L 160.5 414 L 159 410.5 L 159 384.5 L 158 382 L 119.5 382 L 118 383.5 L 118 413.5 L 117 415.5 L 123 418 L 123 420 L 119 420 L 119 421.5 L 118 422.5 L 118 451.5 L 117 452.5 Q 118.4 455.1 123 454.5 L 119 457.5 L 118 460.5 L 119 461.5 L 119 487.5 L 118 491 L 121 491.5 L 120.5 493 L 132.5 492 L 136.5 493 L 137.5 492 L 145.5 492 L 145.5 493 L 120.5 494 L 119 495.5 L 119 525.5 L 118 527.5 L 121.5 531 L 157.5 531 L 161 530 Q 160 527 163 528 L 164.5 531 L 166 531.5 L 161.5 532 L 159.5 531 L 158.5 532 L 116.5 532 L 115 530.5 L 115 490.5 L 114 488.5 L 115 487.5 L 115 478.5 L 114 475.5 Q 116.8 473.8 115 467.5 Q 112.7 466.2 114 461.5 Q 116.2 460.2 115 455.5 L 114 454.5 L 114 446.5 L 115 444.5 L 114 443.5 L 114 395.5 L 113 393.5 L 114 392.5 L 114 383.5 L 113 381 L 118.5 382 L 119.5 381 L 152.5 381 L 153.5 380 Z " /><path fill="rgb(104,51,8)" stroke="rgb(104,51,8)" stroke-width="1" opacity="1" d="M 188.5 380 L 193 380.5 L 188.5 381 L 188.5 380 Z " /><path fill="rgb(104,51,8)" stroke="rgb(104,51,8)" stroke-width="1" opacity="1" d="M 196.5 380 L 204 380 L 204 387.5 L 203 387.5 L 202 382 L 199.5 381 L 197.5 381 L 196.5 380 Z " /><path fill="rgb(104,51,8)" stroke="rgb(104,51,8)" stroke-width="1" opacity="1" d="M 203.5 390 L 205 397.5 L 203.5 400 L 203.5 390 Z " /><path fill="rgb(104,51,8)" stroke="rgb(104,51,8)" stroke-width="1" opacity="1" d="M 203.5 407 Q 206 408.2 205 412 Q 200.9 413.2 203.5 407 Z " /><path fill="rgb(104,51,8)" stroke="rgb(104,51,8)" stroke-width="1" opacity="1" d="M 160 416 L 162.5 417 L 196.5 417 L 198 418.5 L 163.5 419 L 162 420.5 L 161 422.5 L 160.5 452 L 160 424.5 L 158 419.5 L 160 416 Z " /><path fill="rgb(104,51,8)" stroke="rgb(104,51,8)" stroke-width="1" opacity="1" d="M 203.5 416 L 205 425.5 L 203 424.5 Q 203.8 420.3 201 419.5 L 203.5 416 Z " /><path fill="rgb(104,51,8)" stroke="rgb(104,51,8)" stroke-width="1" opacity="1" d="M 127.5 418 L 136 418.5 L 127.5 419 L 127.5 418 Z " /><path fill="rgb(104,51,8)" stroke="rgb(104,51,8)" stroke-width="1" opacity="1" d="M 139.5 418 L 150 418.5 L 139.5 419 L 139.5 418 Z " /><path fill="rgb(104,51,8)" stroke="rgb(104,51,8)" stroke-width="1" opacity="1" d="M 151.5 418 L 154 418.5 L 151.5 419 L 151.5 418 Z " /><path fill="rgb(104,51,8)" stroke="rgb(104,51,8)" stroke-width="1" opacity="1" d="M 204.5 431 L 205 470.5 L 204 470.5 L 204 458.5 L 202 456.5 L 204 453.5 L 204.5 431 Z " /><path fill="rgb(104,51,8)" stroke="rgb(104,51,8)" stroke-width="1" opacity="1" d="M 160 453 Q 163 451.8 162 455.5 L 163.5 455 L 168 455.5 Q 163.4 454.9 162 457.5 L 162 486.5 L 160 487 L 160 459.5 L 159 455.5 L 160 453 Z " /><path fill="rgb(104,51,8)" stroke="rgb(104,51,8)" stroke-width="1" opacity="1" d="M 167.5 453 L 171 453.5 L 167.5 454 L 167.5 453 Z " /><path fill="rgb(104,51,8)" stroke="rgb(104,51,8)" stroke-width="1" opacity="1" d="M 177.5 453 L 195.5 453 L 197 454.5 L 195.5 454 L 177.5 454 L 177.5 453 Z " /><path fill="rgb(104,51,8)" stroke="rgb(104,51,8)" stroke-width="1" opacity="1" d="M 125 454 L 138.5 455 Q 140 452.5 145.5 454 Q 146.7 456.3 151.5 455 L 154 454 L 153.5 456 L 125 456 L 125 454 Z " /><path fill="rgb(104,51,8)" stroke="rgb(104,51,8)" stroke-width="1" opacity="1" d="M 170.5 455 L 177 455.5 L 170.5 456 L 170.5 455 Z " /><path fill="rgb(104,51,8)" stroke="rgb(104,51,8)" stroke-width="1" opacity="1" d="M 204.5 472 L 205 482.5 L 204 482.5 L 204.5 472 Z " /><path fill="rgb(104,51,8)" stroke="rgb(104,51,8)" stroke-width="1" opacity="1" d="M 204.5 486 L 206 493.5 L 204.5 498 L 202 493.5 Q 204.8 491.3 204.5 486 Z " /><path fill="rgb(104,51,8)" stroke="rgb(104,51,8)" stroke-width="1" opacity="1" d="M 160 490 L 162.5 491 L 174.5 492 L 175.5 491 L 196.5 491 L 197.5 493 L 164.5 493 L 162 495.5 L 161.5 526 L 161 517.5 L 160 516.5 L 161 515.5 L 161 507.5 L 160 506.5 L 160 495.5 L 158 493.5 L 160 493 L 160 490 Z " /><path fill="rgb(104,51,8)" stroke="rgb(104,51,8)" stroke-width="1" opacity="1" d="M 150.5 492 L 155 492.5 L 150.5 493 L 150.5 492 Z " /><path fill="rgb(104,51,8)" stroke="rgb(104,51,8)" stroke-width="1" opacity="1" d="M 204 503 Q 207.7 501.6 206 507.5 L 204 506.5 L 204 503 Z " /><path fill="rgb(104,51,8)" stroke="rgb(104,51,8)" stroke-width="1" opacity="1" d="M 205.5 515 L 206 521.5 L 205 521.5 L 204 518.5 L 205.5 515 Z " /><path fill="rgb(104,51,8)" stroke="rgb(104,51,8)" stroke-width="1" opacity="1" d="M 205.5 526 L 206 531 L 193 530.5 L 202.5 530 L 204 528.5 L 205.5 526 Z " /><path fill="rgb(104,51,8)" stroke="rgb(104,51,8)" stroke-width="1" opacity="1" d="M 170.5 530 L 176 530.5 L 170.5 531 L 170.5 530 Z " /><path fill="rgb(104,51,8)" stroke="rgb(104,51,8)" stroke-width="1" opacity="1" d="M 182.5 530 L 190 530.5 L 182.5 531 L 182.5 530 Z " /><path fill="rgb(54,27,20)" stroke="rgb(54,27,20)" stroke-width="1" opacity="0.9921568627450981" d="M 151.5 38 L 168.5 38 L 170 39.5 L 170 64.5 L 171 67 L 174 68.5 L 180 116 L 203.5 120 L 217 127.5 L 219 130.5 L 219 178.5 L 218 182 Q 239.4 189.4 253 205.5 Q 261.3 214.7 265 228.5 L 265 567.5 Q 259.3 587.8 244.5 599 L 226.5 611 L 203.5 620 L 177.5 625 L 142.5 625 L 116.5 620 L 95.5 612 Q 78 603.5 66 589.5 Q 58.5 580.5 55 567.5 L 55 228.5 Q 60.8 207.3 76.5 196 L 93.5 185 L 102 182 L 101 178.5 L 101 130.5 L 104.5 126 L 116.5 120 L 140 116 L 146 68.5 L 147.5 67 Q 149.8 67.8 149 65.5 L 150 64.5 L 150 39.5 L 151.5 38 Z M 156 41 L 155 42 L 153 43 L 153 68 L 167 68 L 167 42 L 156 41 Z M 150 71 L 149 74 L 146 101 L 145 102 L 142 130 L 141 132 L 151 135 Q 169 137 179 132 L 175 109 L 175 102 L 171 80 L 171 74 L 170 71 L 168 72 L 153 72 L 150 71 Z M 138 121 L 118 125 L 111 128 L 106 134 L 111 138 L 121 142 L 137 145 L 147 145 L 148 146 L 174 146 L 175 145 L 191 144 L 206 140 L 213 136 L 214 133 L 205 126 L 181 121 Q 180 128 183 133 L 179 136 L 167 139 L 148 138 L 140 135 L 137 133 L 139 127 Q 140 120 138 121 Z M 107 141 L 106 177 L 111 181 L 121 185 L 137 188 L 146 188 L 147 189 L 174 189 L 175 188 L 191 187 L 208 182 L 214 177 L 214 141 L 200 147 L 184 150 L 176 150 L 175 151 L 146 151 L 145 150 L 130 149 L 112 144 L 107 141 Z M 107 185 Q 89 192 77 203 Q 65 213 60 230 L 60 566 Q 62 577 69 585 Q 81 600 100 608 L 119 615 L 145 620 Q 210 623 243 594 Q 253 586 258 573 L 260 567 L 260 549 L 261 548 L 260 543 L 260 230 Q 256 216 248 208 Q 234 193 214 185 L 196 191 L 185 193 L 177 193 L 176 194 L 145 194 L 144 193 L 136 193 L 117 189 L 107 185 Z " /><path fill="rgb(54,27,20)" stroke="rgb(54,27,20)" stroke-width="1" opacity="0.9921568627450981" d="M 153.5 271 Q 177.5 269.5 186 283.5 L 193.5 299 L 202.5 300 L 221.5 306 L 234 315.5 L 236 318.5 L 236 558.5 L 231.5 568 L 217.5 576 L 198.5 581 L 186.5 582 L 185.5 583 L 174.5 583 L 173.5 584 L 145.5 584 L 144.5 583 L 126.5 582 L 108.5 578 Q 95.2 574.8 87 566.5 L 84 558.5 L 84 318.5 L 90.5 311 L 103.5 304 L 117.5 300 L 126.5 299 L 128 297.5 Q 130.9 283.9 140.5 277 L 153.5 271 Z M 158 275 L 150 277 L 143 281 L 134 293 L 133 301 L 130 303 L 116 305 L 101 310 L 89 320 L 89 561 L 90 563 L 98 569 L 111 574 L 140 579 L 181 579 L 182 578 L 190 578 L 210 574 L 226 567 L 231 561 L 231 320 L 220 310 L 205 305 Q 195 305 189 302 L 187 301 L 186 293 L 182 286 Q 175 275 158 275 Z " /><path fill="rgb(54,27,20)" stroke="rgb(54,27,20)" stroke-width="1" opacity="0.9921568627450981" d="M 199.5 415 L 198.5 417 L 199.5 415 Z " /><path fill="rgb(54,27,20)" stroke="rgb(54,27,20)" stroke-width="1" opacity="0.9921568627450981" d="M 200.5 489 L 199.5 491 L 200.5 489 Z " /><path fill="rgb(54,27,20)" stroke="rgb(54,27,20)" stroke-width="1" opacity="0.9921568627450981" d="M 200.5 526 L 201 528.5 L 199 527.5 L 200.5 526 Z " /><path fill="rgb(54,27,20)" stroke="rgb(54,27,20)" stroke-width="1" opacity="0.9921568627450981" d="M 157.5 527 L 158 529 L 135.5 529 L 133.5 530 L 129 528.5 L 156.5 528 L 157.5 527 Z " /><path fill="rgb(54,27,20)" stroke="rgb(54,27,20)" stroke-width="1" opacity="0.9921568627450981" d="M 166.5 528 L 196 528.5 L 166.5 529 L 166.5 528 Z " /><path fill="rgb(86,40,5)" stroke="rgb(86,40,5)" stroke-width="1" opacity="1" d="M 211.5 185 Q 226.9 189.6 238 198.5 L 237 200.5 L 242 208.5 L 248 223.5 L 257 259.5 L 259 282.5 L 260 283.5 L 260 349.5 L 236.5 423 L 236 318.5 L 229.5 311 L 216.5 304 L 202.5 300 L 193.5 299 L 192 297.5 Q 189.1 283.9 179.5 277 L 166.5 271 L 153.5 271 Q 140.8 274.3 134 283.5 L 126.5 299 L 117.5 300 L 98.5 306 L 86 315.5 L 84 318.5 L 84 558.5 L 87 566.5 L 89.5 569 Q 97.3 575.3 108.5 578 L 126.5 582 L 144.5 583 L 148 584.5 L 118.5 615 Q 101.7 610.3 88.5 602 L 69 584.5 Q 62.5 577 60 565.5 L 60 297.5 Q 87.6 235.1 134.5 192 L 144.5 194 L 175.5 194 L 176.5 193 L 184.5 193 L 195.5 191 L 206.5 188 L 211.5 185 Z " /><path fill="rgb(86,40,5)" stroke="rgb(86,40,5)" stroke-width="1" opacity="1" d="M 76.5 203 L 72.5 208 L 76.5 203 Z " /><path fill="rgb(86,40,5)" stroke="rgb(86,40,5)" stroke-width="1" opacity="1" d="M 69.5 211 L 68.5 213 L 69.5 211 Z " /><path fill="rgb(86,40,5)" stroke="rgb(86,40,5)" stroke-width="1" opacity="1" d="M 155.5 284 Q 168.2 283.3 173 290.5 Q 177.2 294.8 177 303.5 Q 175.6 311.1 170.5 315 Q 166.2 319.2 157.5 319 Q 149 317.5 145 311.5 Q 141.1 307.4 142 298.5 Q 144.1 290.2 150.5 286 L 155.5 284 Z M 157 292 L 155 293 Q 148 295 150 306 L 157 311 L 165 310 L 169 305 L 168 297 Q 166 291 157 292 Z " /><path fill="rgb(86,40,5)" stroke="rgb(86,40,5)" stroke-width="1" opacity="1" d="M 159.5 300 Q 162.5 301.5 159.5 303 Q 156.5 301.5 159.5 300 Z " /><path fill="rgb(86,40,5)" stroke="rgb(86,40,5)" stroke-width="1" opacity="1" d="M 174.5 328 L 177 329.5 L 177 353.5 L 175.5 355 Q 173.3 355.8 174 353.5 L 173 352.5 L 173 329.5 L 174.5 328 Z " /><path fill="rgb(86,40,5)" stroke="rgb(86,40,5)" stroke-width="1" opacity="1" d="M 199.5 332 L 202 333.5 Q 200.3 338.8 205.5 337 L 207 341 L 202 341 L 202 348.5 L 204 347.5 L 205.5 344 Q 209.7 342.7 208 347.5 L 203.5 353 Q 199.8 353.8 199 351.5 L 198 341 Q 194.3 342.5 195 339.5 L 198 338 Q 196.8 333.4 199.5 332 Z " /><path fill="rgb(86,40,5)" stroke="rgb(86,40,5)" stroke-width="1" opacity="1" d="M 114.5 336 L 117 336 L 117 341 L 119.5 341 L 123 343.5 L 124 345.5 L 124 355 L 120 353.5 L 121 348.5 L 120 345 L 117 345 L 117 352.5 Q 115 357 113 353.5 L 113 337.5 L 114.5 336 Z " /><path fill="rgb(86,40,5)" stroke="rgb(86,40,5)" stroke-width="1" opacity="1" d="M 214.5 336 Q 220.8 334.8 222 338.5 L 223 342.5 L 220.5 345 L 214 345.5 L 216.5 349 L 223 348 L 222 352 L 215.5 353 L 212 350.5 L 210 344.5 L 212 338.5 L 214.5 336 Z M 218 339 L 215 341 L 219 341 L 218 339 Z " /><path fill="rgb(86,40,5)" stroke="rgb(86,40,5)" stroke-width="1" opacity="1" d="M 185.5 338 L 191.5 339 L 193 340.5 L 192 353 L 186.5 352 L 184.5 352 L 181 351 L 180 344.5 L 183.5 339 L 185.5 338 Z M 185 342 L 184 345 Q 183 348 186 349 L 188 344 L 185 342 Z " /><path fill="rgb(86,40,5)" stroke="rgb(86,40,5)" stroke-width="1" opacity="1" d="M 161.5 339 Q 167.4 339.6 170 343.5 Q 171.5 352.5 165.5 354 Q 157.5 355.5 156 350.5 Q 155 342.5 159.5 340 L 161.5 339 Z M 163 343 L 159 349 Q 160 351 165 350 L 167 347 L 166 344 L 163 343 Z " /><path fill="rgb(86,40,5)" stroke="rgb(86,40,5)" stroke-width="1" opacity="1" d="M 145.5 340 Q 150 339 151 341.5 L 149.5 344 Q 144.8 343.3 144 346.5 Q 143.3 350.3 145.5 351 L 153 350 L 151.5 354 L 146.5 355 L 141 351.5 L 140 346.5 L 143.5 341 L 145.5 340 Z " /><path fill="rgb(86,40,5)" stroke="rgb(86,40,5)" stroke-width="1" opacity="1" d="M 102.5 341 Q 108.5 339.5 110 342.5 L 108.5 345 L 105.5 344 L 103 345 L 102 348.5 L 103 351 L 110 351 L 110 353.5 Q 108.5 356.5 102.5 355 Q 98.4 353.1 98 347.5 L 102.5 341 Z " /><path fill="rgb(86,40,5)" stroke="rgb(86,40,5)" stroke-width="1" opacity="1" d="M 131.5 341 L 138 345.5 L 139 348.5 L 135.5 354 L 128.5 355 Q 124.5 353.5 126 346.5 L 129.5 342 L 131.5 341 Z M 132 345 L 130 349 Q 128 350 131 351 Q 135 352 135 349 L 134 347 L 132 345 Z " /><path fill="rgb(86,40,5)" stroke="rgb(86,40,5)" stroke-width="1" opacity="1" d="M 123.5 382 Q 129.8 380.3 131.5 383 L 132.5 382 L 153.5 382 L 158 384.5 L 159 387.5 L 159 416.5 Q 158 419 153.5 418 L 152.5 417 L 120.5 417 L 119 415.5 L 119 395.5 L 118 392.5 L 119 391.5 L 119 383 L 123.5 382 Z " /><path fill="rgb(86,40,5)" stroke="rgb(86,40,5)" stroke-width="1" opacity="1" d="M 163.5 382 L 197.5 382 L 201 384.5 L 202 386.5 L 202 415.5 L 201 418 L 197.5 417 L 164.5 417 L 162 416 L 162 383.5 L 163.5 382 Z " /><path fill="rgb(86,40,5)" stroke="rgb(86,40,5)" stroke-width="1" opacity="1" d="M 179.5 419 L 188.5 420 Q 190.2 417.3 196.5 419 L 202 422.5 L 202 453.5 L 201 456 L 196.5 453 L 162 453 L 162 421.5 L 163.5 420 L 178.5 420 L 179.5 419 Z " /><path fill="rgb(86,40,5)" stroke="rgb(86,40,5)" stroke-width="1" opacity="1" d="M 120.5 420 L 154.5 420 L 159 423.5 L 159 454.5 L 157.5 456 L 150.5 453 L 148.5 454 L 147.5 453 L 139.5 453 Q 138.3 455.2 133.5 454 L 128.5 453 Q 126.7 455.7 120.5 454 L 119 452.5 L 119 421.5 L 120.5 420 Z " /><path fill="rgb(86,40,5)" stroke="rgb(86,40,5)" stroke-width="1" opacity="1" d="M 122.5 456 L 131.5 457 L 132.5 456 L 153.5 456 L 159 459.5 L 160 489.5 L 159 492 L 156.5 493 L 153.5 491 L 136.5 491 L 134.5 492 Q 133 489.5 127.5 491 L 122.5 492 L 120 491 L 120 480.5 L 119 479.5 L 119 459.5 L 120 457 L 122.5 456 Z " /><path fill="rgb(86,40,5)" stroke="rgb(86,40,5)" stroke-width="1" opacity="1" d="M 164.5 456 L 197.5 456 L 202 458.5 L 203 461.5 L 202 465.5 L 203 468.5 L 203 489.5 L 200.5 492 L 197.5 491 L 164.5 491 L 163 489.5 L 163 478.5 L 162 476.5 Q 164.2 475.3 163 470.5 L 162 469.5 L 162 459.5 L 164.5 456 Z " /><path fill="rgb(86,40,5)" stroke="rgb(86,40,5)" stroke-width="1" opacity="1" d="M 190.5 493 Q 198.4 492.3 202 495 L 203 497.5 L 203 527.5 L 200.5 530 L 165.5 530 L 163 526.5 L 163 495.5 L 164.5 494 L 189.5 494 L 190.5 493 Z M 201 526 L 199 528 L 201 529 L 201 526 Z M 167 528 L 167 529 L 196 529 L 167 528 Z " /><path fill="rgb(86,40,5)" stroke="rgb(86,40,5)" stroke-width="1" opacity="1" d="M 121.5 494 L 154.5 494 L 159 496.5 L 160 498.5 L 160 528.5 L 158.5 530 L 135.5 530 L 135.5 529 L 157.5 529 L 158 527.5 L 156.5 528 L 129 528.5 L 133 529.5 L 125.5 531 L 121 530 L 120 527.5 L 120 495.5 L 121.5 494 Z " /><path fill="rgb(86,40,5)" stroke="rgb(86,40,5)" stroke-width="1" opacity="1" d="M 260.5 543 L 261 547.5 L 260 547.5 L 260.5 543 Z " /><path fill="rgb(86,40,5)" stroke="rgb(86,40,5)" stroke-width="1" opacity="1" d="M 230.5 568 L 229.5 570 L 230.5 568 Z " /><path fill="rgb(86,40,5)" stroke="rgb(86,40,5)" stroke-width="1" opacity="1" d="M 243.5 592 L 242.5 594 L 243.5 592 Z " /><path fill="rgb(131,71,27)" stroke="rgb(131,71,27)" stroke-width="1" opacity="1" d="M 158.5 41 Q 162.3 40.3 163 42.5 L 158 66.5 L 156.5 68 L 153 67.5 L 153 43.5 L 158.5 41 Z " /><path fill="rgb(131,71,27)" stroke="rgb(131,71,27)" stroke-width="1" opacity="1" d="M 150.5 71 L 151.5 72 L 170 72 L 178 132 Q 168.8 137 151.5 135 L 142 132 L 144 111.5 L 145 110.5 L 145 102.5 L 149 80.5 L 149 73.5 L 150.5 71 Z " /><path fill="rgb(131,71,27)" stroke="rgb(131,71,27)" stroke-width="1" opacity="1" d="M 138.5 121 L 139 126.5 L 135.5 134 L 125.5 142 L 121.5 142 L 109.5 137 L 106 133.5 L 109.5 129 L 118.5 125 L 138.5 121 Z " /><path fill="rgb(131,71,27)" stroke="rgb(131,71,27)" stroke-width="1" opacity="1" d="M 211.5 130 L 214 133.5 L 207.5 139 L 194.5 143 L 183.5 145 L 173.5 145 L 172.5 146 L 156.5 146 L 156.5 145 L 181.5 142 L 194.5 139 L 206.5 134 L 211.5 130 Z " /><path fill="rgb(131,71,27)" stroke="rgb(131,71,27)" stroke-width="1" opacity="1" d="M 106 142 L 118.5 147 L 134.5 150 L 142.5 150 L 143.5 151 L 176.5 151 L 177.5 150 L 185.5 150 L 201.5 147 L 214 142 L 214 173.5 L 213 174.5 L 213 176.5 L 211.5 179 L 206.5 182 L 188.5 187 L 171.5 188 L 170.5 189 L 149.5 189 L 148.5 188 L 139.5 188 L 122.5 185 L 113.5 182 L 107 177.5 L 106 175.5 L 106 173.5 L 106 142 Z " /><path fill="rgb(131,71,27)" stroke="rgb(131,71,27)" stroke-width="1" opacity="1" d="M 237.5 199 L 251 211.5 Q 257.5 219 260 230.5 L 260 279.5 L 259 279.5 Q 255.5 231 237.5 199 Z " /><path fill="rgb(131,71,27)" stroke="rgb(131,71,27)" stroke-width="1" opacity="1" d="M 142.5 281 L 138.5 286 L 142.5 281 Z " /><path fill="rgb(131,71,27)" stroke="rgb(131,71,27)" stroke-width="1" opacity="1" d="M 177.5 281 L 181.5 286 L 177.5 281 Z " /><path fill="rgb(131,71,27)" stroke="rgb(131,71,27)" stroke-width="1" opacity="1" d="M 147.5 288 L 146.5 290 L 147.5 288 Z " /><path fill="rgb(131,71,27)" stroke="rgb(131,71,27)" stroke-width="1" opacity="1" d="M 114.5 335 L 117 335.5 L 113.5 337 L 114.5 335 Z " /><path fill="rgb(131,71,27)" stroke="rgb(131,71,27)" stroke-width="1" opacity="1" d="M 216.5 335 L 219 335.5 L 216.5 336 L 216.5 335 Z " /><path fill="rgb(131,71,27)" stroke="rgb(131,71,27)" stroke-width="1" opacity="1" d="M 220.5 336 L 221.5 338 L 220.5 336 Z " /><path fill="rgb(131,71,27)" stroke="rgb(131,71,27)" stroke-width="1" opacity="1" d="M 135.5 342 L 136.5 344 L 135.5 342 Z " /><path fill="rgb(131,71,27)" stroke="rgb(131,71,27)" stroke-width="1" opacity="1" d="M 205.5 343 L 208 343.5 L 204.5 345 L 205.5 343 Z " /><path fill="rgb(131,71,27)" stroke="rgb(131,71,27)" stroke-width="1" opacity="1" d="M 222.5 343 L 221.5 345 L 222.5 343 Z " /><path fill="rgb(131,71,27)" stroke="rgb(131,71,27)" stroke-width="1" opacity="1" d="M 131.5 345 L 133 345.5 L 130.5 347 L 131.5 345 Z " /><path fill="rgb(131,71,27)" stroke="rgb(131,71,27)" stroke-width="1" opacity="1" d="M 170.5 345 L 171 347.5 L 170 347.5 L 170.5 345 Z " /><path fill="rgb(131,71,27)" stroke="rgb(131,71,27)" stroke-width="1" opacity="1" d="M 186.5 347 L 185.5 349 L 186.5 347 Z " /><path fill="rgb(131,71,27)" stroke="rgb(131,71,27)" stroke-width="1" opacity="1" d="M 192.5 347 L 193 351.5 L 192 351.5 L 192.5 347 Z " /><path fill="rgb(131,71,27)" stroke="rgb(131,71,27)" stroke-width="1" opacity="1" d="M 124.5 348 L 126 351 Q 122.5 352.1 124.5 348 Z " /><path fill="rgb(131,71,27)" stroke="rgb(131,71,27)" stroke-width="1" opacity="1" d="M 169.5 350 L 167.5 353 L 169.5 350 Z " /><path fill="rgb(131,71,27)" stroke="rgb(131,71,27)" stroke-width="1" opacity="1" d="M 156.5 351 L 157.5 353 L 156.5 351 Z " /><path fill="rgb(131,71,27)" stroke="rgb(131,71,27)" stroke-width="1" opacity="1" d="M 205.5 351 L 204.5 353 L 205.5 351 Z " /><path fill="rgb(131,71,27)" stroke="rgb(131,71,27)" stroke-width="1" opacity="1" d="M 120.5 354 L 123 355.5 L 121.5 356 L 120.5 354 Z " /><path fill="rgb(131,71,27)" stroke="rgb(131,71,27)" stroke-width="1" opacity="1" d="M 181.5 378 Q 187.8 376.3 189.5 379 L 190.5 378 L 201.5 378 L 205 379 L 204.5 396 L 204 380 L 193.5 381 L 188.5 380 L 187.5 381 L 162.5 381 L 161.5 382 L 161 380 L 153.5 380 L 152.5 381 L 119.5 381 L 118.5 382 L 113 380.5 L 115.5 379 L 180.5 379 L 181.5 378 Z " /><path fill="rgb(131,71,27)" stroke="rgb(131,71,27)" stroke-width="1" opacity="1" d="M 113.5 383 L 114 392.5 L 113 392.5 L 113.5 383 Z " /><path fill="rgb(131,71,27)" stroke="rgb(131,71,27)" stroke-width="1" opacity="1" d="M 113.5 395 L 114 443.5 L 115 445.5 L 113.5 449 L 113.5 395 Z " /><path fill="rgb(131,71,27)" stroke="rgb(131,71,27)" stroke-width="1" opacity="1" d="M 204.5 398 L 205 407.5 L 204 407.5 L 204.5 398 Z " /><path fill="rgb(131,71,27)" stroke="rgb(131,71,27)" stroke-width="1" opacity="1" d="M 204.5 412 L 205 419.5 L 204 419.5 L 204.5 412 Z " /><path fill="rgb(131,71,27)" stroke="rgb(131,71,27)" stroke-width="1" opacity="1" d="M 123.5 418 L 127 418.5 L 123.5 419 L 123.5 418 Z " /><path fill="rgb(131,71,27)" stroke="rgb(131,71,27)" stroke-width="1" opacity="1" d="M 136.5 418 L 139 418.5 L 136.5 419 L 136.5 418 Z " /><path fill="rgb(131,71,27)" stroke="rgb(131,71,27)" stroke-width="1" opacity="1" d="M 204 426 L 206 426.5 L 206 490.5 L 205 490.5 L 205 431.5 L 204 426 Z " /><path fill="rgb(131,71,27)" stroke="rgb(131,71,27)" stroke-width="1" opacity="1" d="M 123.5 454 Q 126.1 453.3 125 456 L 122 455.5 L 123.5 454 Z " /><path fill="rgb(131,71,27)" stroke="rgb(131,71,27)" stroke-width="1" opacity="1" d="M 134.5 454 L 139 454.5 L 134.5 455 L 134.5 454 Z " /><path fill="rgb(131,71,27)" stroke="rgb(131,71,27)" stroke-width="1" opacity="1" d="M 146.5 454 L 152 454.5 L 146.5 455 L 146.5 454 Z " /><path fill="rgb(131,71,27)" stroke="rgb(131,71,27)" stroke-width="1" opacity="1" d="M 162 454 L 196 454.5 L 163.5 455 L 162.5 456 L 162 454 Z " /><path fill="rgb(131,71,27)" stroke="rgb(131,71,27)" stroke-width="1" opacity="1" d="M 113 455 Q 117 453.6 115 460.5 L 114 460.5 L 113 455 Z " /><path fill="rgb(131,71,27)" stroke="rgb(131,71,27)" stroke-width="1" opacity="1" d="M 114.5 467 L 115 474.5 L 114 474.5 L 114.5 467 Z " /><path fill="rgb(131,71,27)" stroke="rgb(131,71,27)" stroke-width="1" opacity="1" d="M 114.5 478 L 115 487.5 L 114 487.5 L 114.5 478 Z " /><path fill="rgb(131,71,27)" stroke="rgb(131,71,27)" stroke-width="1" opacity="1" d="M 114.5 490 L 115 530.5 L 116.5 532 L 158.5 532 L 160.5 531 L 165.5 532 L 167.5 532 L 169.5 531 L 205.5 531 L 205.5 532 L 175.5 532 Q 173.8 534.8 167.5 533 L 165.5 533 L 115.5 533 L 115 531.5 L 114 530.5 L 114.5 490 Z " /><path fill="rgb(131,71,27)" stroke="rgb(131,71,27)" stroke-width="1" opacity="1" d="M 120.5 492 L 124 492.5 L 120.5 493 L 120.5 492 Z " /><path fill="rgb(131,71,27)" stroke="rgb(131,71,27)" stroke-width="1" opacity="1" d="M 133.5 492 L 137 492.5 L 133.5 493 L 133.5 492 Z " /><path fill="rgb(131,71,27)" stroke="rgb(131,71,27)" stroke-width="1" opacity="1" d="M 146.5 492 L 150 492.5 L 146.5 493 L 146.5 492 Z " /><path fill="rgb(131,71,27)" stroke="rgb(131,71,27)" stroke-width="1" opacity="1" d="M 205.5 494 L 206 502.5 L 205 502.5 L 205.5 494 Z " /><path fill="rgb(131,71,27)" stroke="rgb(131,71,27)" stroke-width="1" opacity="1" d="M 205.5 508 L 206 514.5 L 205 514.5 L 205.5 508 Z " /><path fill="rgb(131,71,27)" stroke="rgb(131,71,27)" stroke-width="1" opacity="1" d="M 206.5 521 L 207 529.5 L 206 529.5 L 205 522.5 L 206.5 521 Z " /><path fill="rgb(131,71,27)" stroke="rgb(131,71,27)" stroke-width="1" opacity="1" d="M 259.5 537 L 260 565.5 Q 254 586 238.5 597 L 225.5 605 L 226 603.5 L 242 577.5 L 254 552.5 L 259.5 537 Z " /></svg>