<svg width="320" height="640" version="1.1" xmlns="http://www.w3.org/2000/svg" desc="Created with imagetracer.js version 1.2.6" ><path fill="rgb(52,27,22)" stroke="rgb(52,27,22)" stroke-width="1" opacity="0.9725490196078431" d="M 151.5 38 L 168.5 38 L 170 39.5 L 170 64.5 L 171 67 L 174 68.5 L 180 116 L 203.5 120 Q 212.9 122.1 218 128.5 L 219 130.5 L 219 178.5 L 218 182 Q 240.1 189.7 254 206.5 Q 261.5 215.5 265 228.5 L 265 567.5 Q 259.5 588 244.5 599 L 226.5 611 L 203.5 620 L 177.5 625 L 142.5 625 L 116.5 620 L 95.5 612 Q 78 603.5 66 589.5 Q 58.3 580.7 55 567.5 L 55 228.5 Q 60.8 207.3 76.5 196 L 93.5 185 L 102 182 L 101 178.5 L 101 130.5 L 105.5 125 L 116.5 120 L 140 116 L 146 68.5 L 147.5 67 Q 149.8 67.8 149 65.5 L 150 64.5 L 150 39.5 L 151.5 38 Z M 156 41 L 155 42 L 153 43 L 153 68 L 159 69 L 163 68 Q 167 68 167 68 L 167 42 Q 164 40 156 41 Z M 150 71 L 149 74 L 145 108 L 144 109 L 142 130 L 141 132 L 151 135 Q 169 137 179 132 L 176 116 L 176 109 L 171 80 L 171 74 L 170 71 L 168 72 L 153 72 L 150 71 Z M 138 121 L 118 125 L 111 128 L 106 133 L 107 136 L 121 142 L 137 145 L 146 145 L 147 146 L 174 146 L 175 145 L 191 144 L 206 140 L 213 136 L 214 133 L 210 128 L 203 125 L 181 121 Q 180 128 183 133 L 179 136 L 166 139 L 148 138 L 140 135 L 137 133 L 139 128 Q 140 120 138 121 Z M 107 141 L 106 177 L 107 179 L 121 185 L 137 188 L 145 188 L 146 189 L 175 189 L 176 188 L 191 187 L 206 183 L 213 179 L 214 177 L 214 141 L 209 144 L 196 148 L 185 149 L 184 150 L 175 150 L 174 151 L 147 151 L 146 150 L 130 149 L 112 144 L 107 141 Z M 107 185 Q 90 191 78 202 Q 65 212 60 230 L 60 542 L 59 543 Q 58 548 60 550 L 60 558 L 59 559 L 62 573 L 72 589 Q 85 602 104 610 L 126 617 L 144 619 L 145 620 L 176 620 L 199 616 Q 215 612 229 604 L 243 594 Q 253 586 258 573 L 260 567 L 260 549 L 261 548 Q 262 543 260 542 L 260 230 Q 256 216 248 208 Q 234 193 214 185 L 196 191 L 185 192 L 184 193 L 175 193 L 174 194 L 147 194 L 146 193 L 137 193 L 121 190 L 107 185 Z " /><path fill="rgb(52,27,22)" stroke="rgb(52,27,22)" stroke-width="1" opacity="0.9725490196078431" d="M 154.5 271 Q 177.7 269.8 186 283.5 Q 190.5 288 191 296.5 L 193.5 299 L 202.5 300 L 218.5 305 L 233 314 L 235 317.5 L 235 562.5 L 227.5 571 L 217.5 576 L 198.5 581 L 185.5 582 L 184.5 583 L 171.5 583 L 170.5 584 L 149.5 584 L 148.5 583 L 127.5 582 L 108.5 578 L 92.5 571 L 86 564.5 L 85 562.5 L 85 317.5 L 87 314 L 101.5 305 L 117.5 300 L 126.5 299 L 129 296.5 Q 131 283 140.5 277 L 154.5 271 Z M 158 275 L 150 277 L 143 281 L 134 293 L 133 301 L 130 303 L 116 305 L 99 311 L 89 320 L 89 561 L 90 563 L 98 569 L 111 574 L 140 579 L 181 579 L 182 578 L 190 578 L 210 574 L 226 567 L 231 561 L 231 320 Q 225 311 215 308 L 189 302 L 187 301 L 186 293 L 182 286 Q 175 275 158 275 Z " /><path fill="rgb(252,211,126)" stroke="rgb(252,211,126)" stroke-width="1" opacity="1" d="M 154 42 L 162 42.5 L 158 49.5 L 157 59.5 L 155 65 L 153 64.5 L 153 44.5 L 154 42 Z " /><path fill="rgb(252,211,126)" stroke="rgb(252,211,126)" stroke-width="1" opacity="1" d="M 132.5 122 Q 138.6 120.8 138 123.5 L 139 125.5 Q 136.4 128.4 137 134.5 L 129.5 143 Q 117.4 142.1 110 136.5 L 111 133 L 107 132.5 L 116.5 126 L 132.5 122 Z " /><path fill="rgb(252,211,126)" stroke="rgb(252,211,126)" stroke-width="1" opacity="1" d="M 150.5 292 L 148.5 295 L 150.5 292 Z " /><path fill="rgb(252,211,126)" stroke="rgb(252,211,126)" stroke-width="1" opacity="1" d="M 169.5 315 L 168.5 317 L 169.5 315 Z " /><path fill="rgb(252,211,126)" stroke="rgb(252,211,126)" stroke-width="1" opacity="1" d="M 200.5 344 Q 205.9 343.1 208 345.5 L 206.5 346 Q 205.2 343.8 200.5 345 L 195.5 348 L 194.5 346 L 196.5 347 L 200.5 344 Z " /><path fill="rgb(252,211,126)" stroke="rgb(252,211,126)" stroke-width="1" opacity="1" d="M 127.5 345 L 126.5 347 L 127.5 345 Z " /><path fill="rgb(252,211,126)" stroke="rgb(252,211,126)" stroke-width="1" opacity="1" d="M 166.5 345 Q 172.7 344.3 174 348.5 L 171.5 347 L 166.5 346 L 163.5 348 L 164.5 346 L 166.5 345 Z " /><path fill="rgb(252,211,126)" stroke="rgb(252,211,126)" stroke-width="1" opacity="1" d="M 188.5 345 L 193 345.5 L 182.5 348 L 183.5 346 L 188.5 345 Z " /><path fill="rgb(252,211,126)" stroke="rgb(252,211,126)" stroke-width="1" opacity="1" d="M 129.5 347 L 132 347.5 L 129.5 348 L 129.5 347 Z " /><path fill="rgb(252,211,126)" stroke="rgb(252,211,126)" stroke-width="1" opacity="1" d="M 112.5 348 L 110.5 351 L 112.5 348 Z " /><path fill="rgb(252,211,126)" stroke="rgb(252,211,126)" stroke-width="1" opacity="1" d="M 204.5 348 L 206 349.5 L 206 361.5 L 207 362.5 L 205 361.5 L 205 349.5 L 204.5 348 Z " /><path fill="rgb(252,211,126)" stroke="rgb(252,211,126)" stroke-width="1" opacity="1" d="M 188.5 349 L 190 349.5 L 187 351.5 L 186.5 353 L 186 351.5 L 188.5 349 Z " /><path fill="rgb(252,211,126)" stroke="rgb(252,211,126)" stroke-width="1" opacity="1" d="M 191.5 349 L 192.5 351 L 191.5 349 Z " /><path fill="rgb(252,211,126)" stroke="rgb(252,211,126)" stroke-width="1" opacity="1" d="M 200.5 349 L 198.5 352 L 200.5 349 Z " /><path fill="rgb(252,211,126)" stroke="rgb(252,211,126)" stroke-width="1" opacity="1" d="M 166.5 350 L 166 351.5 L 165.5 358 L 165 351.5 L 166.5 350 Z " /><path fill="rgb(252,211,126)" stroke="rgb(252,211,126)" stroke-width="1" opacity="1" d="M 130.5 351 L 130 352.5 L 129.5 355 L 129 352.5 L 130.5 351 Z " /><path fill="rgb(252,211,126)" stroke="rgb(252,211,126)" stroke-width="1" opacity="1" d="M 150 351 Q 153 350 152 353 Q 149 354 150 351 Z " /><path fill="rgb(252,211,126)" stroke="rgb(252,211,126)" stroke-width="1" opacity="1" d="M 125.5 352 L 126 354.5 L 125 354.5 L 125.5 352 Z " /><path fill="rgb(252,211,126)" stroke="rgb(252,211,126)" stroke-width="1" opacity="1" d="M 144.5 353 Q 143.8 359.7 147 362.5 L 145 361.5 Q 142.7 358.6 144.5 353 Z " /><path fill="rgb(252,211,126)" stroke="rgb(252,211,126)" stroke-width="1" opacity="1" d="M 185.5 354 L 186 362.5 L 184 363.5 L 185 362.5 L 185.5 354 Z " /><path fill="rgb(252,211,126)" stroke="rgb(252,211,126)" stroke-width="1" opacity="1" d="M 155.5 355 L 154.5 357 L 148 356.5 L 155.5 355 Z " /><path fill="rgb(252,211,126)" stroke="rgb(252,211,126)" stroke-width="1" opacity="1" d="M 196.5 355 L 197 361.5 L 195 362.5 L 196.5 355 Z " /><path fill="rgb(252,211,126)" stroke="rgb(252,211,126)" stroke-width="1" opacity="1" d="M 148.5 358 L 149.5 360 L 148.5 358 Z " /><path fill="rgb(252,211,126)" stroke="rgb(252,211,126)" stroke-width="1" opacity="1" d="M 158.5 359 L 159 361.5 L 157 362.5 L 158.5 359 Z " /><path fill="rgb(252,211,126)" stroke="rgb(252,211,126)" stroke-width="1" opacity="1" d="M 119.5 361 L 118.5 363 L 119.5 361 Z " /><path fill="rgb(252,211,126)" stroke="rgb(252,211,126)" stroke-width="1" opacity="1" d="M 164.5 361 L 169 361.5 L 164.5 362 L 164.5 361 Z " /><path fill="rgb(252,211,126)" stroke="rgb(252,211,126)" stroke-width="1" opacity="1" d="M 172.5 362 L 173.5 364 L 172.5 362 Z " /><path fill="rgb(252,211,126)" stroke="rgb(252,211,126)" stroke-width="1" opacity="1" d="M 126.5 371 L 127 379.5 L 126 379.5 L 126.5 371 Z " /><path fill="rgb(252,211,126)" stroke="rgb(252,211,126)" stroke-width="1" opacity="1" d="M 130.5 372 L 132 376.5 L 130 377 L 130.5 372 Z " /><path fill="rgb(252,211,126)" stroke="rgb(252,211,126)" stroke-width="1" opacity="1" d="M 181.5 372 Q 187.8 370.8 189 374.5 L 187.5 378 L 185 376.5 L 186.5 377 Q 189.1 377.8 188 374.5 Q 186.8 371.8 181.5 373 L 179.5 376 L 179 374.5 L 181.5 372 Z " /><path fill="rgb(252,211,126)" stroke="rgb(252,211,126)" stroke-width="1" opacity="1" d="M 198.5 372 Q 204.3 371.2 206 374.5 L 204.5 374 L 198.5 373 L 196 374.5 L 198.5 372 Z " /><path fill="rgb(252,211,126)" stroke="rgb(252,211,126)" stroke-width="1" opacity="1" d="M 166.5 373 Q 171.3 373.3 173 376.5 L 170.5 375 L 166.5 374 L 166.5 373 Z " /><path fill="rgb(252,211,126)" stroke="rgb(252,211,126)" stroke-width="1" opacity="1" d="M 116.5 374 L 121 376.5 L 119.5 376 L 116.5 375 L 111.5 379 L 114.5 375 L 116.5 374 Z " /><path fill="rgb(252,211,126)" stroke="rgb(252,211,126)" stroke-width="1" opacity="1" d="M 148.5 374 L 151 374.5 L 148.5 375 L 148.5 374 Z " /><path fill="rgb(252,211,126)" stroke="rgb(252,211,126)" stroke-width="1" opacity="1" d="M 164.5 374 L 161.5 378 L 164.5 374 Z " /><path fill="rgb(252,211,126)" stroke="rgb(252,211,126)" stroke-width="1" opacity="1" d="M 136.5 376 L 137.5 378 L 136.5 376 Z " /><path fill="rgb(252,211,126)" stroke="rgb(252,211,126)" stroke-width="1" opacity="1" d="M 154.5 376 L 156 378.5 L 155 378.5 L 154.5 376 Z " /><path fill="rgb(252,211,126)" stroke="rgb(252,211,126)" stroke-width="1" opacity="1" d="M 183.5 376 L 183 377.5 L 184 380.5 L 182 379.5 L 183.5 376 Z " /><path fill="rgb(252,211,126)" stroke="rgb(252,211,126)" stroke-width="1" opacity="1" d="M 178.5 377 L 180 381.5 L 178 380.5 L 178.5 377 Z " /><path fill="rgb(252,211,126)" stroke="rgb(252,211,126)" stroke-width="1" opacity="1" d="M 143.5 379 L 144 387.5 L 146.5 390 L 149 390.5 L 146.5 391 Q 140.6 388.6 143.5 379 Z " /><path fill="rgb(252,211,126)" stroke="rgb(252,211,126)" stroke-width="1" opacity="1" d="M 132.5 380 L 131 382.5 L 130.5 391 L 130 382.5 L 132.5 380 Z " /><path fill="rgb(252,211,126)" stroke="rgb(252,211,126)" stroke-width="1" opacity="1" d="M 205.5 380 L 204.5 382 L 205.5 380 Z " /><path fill="rgb(252,211,126)" stroke="rgb(252,211,126)" stroke-width="1" opacity="1" d="M 155.5 381 L 154.5 383 L 153 382.5 L 155.5 381 Z " /><path fill="rgb(252,211,126)" stroke="rgb(252,211,126)" stroke-width="1" opacity="1" d="M 172.5 382 L 171.5 384 L 164 385.5 L 164.5 387 Q 161.5 385.5 164.5 384 Q 170.5 385 172.5 382 Z " /><path fill="rgb(252,211,126)" stroke="rgb(252,211,126)" stroke-width="1" opacity="1" d="M 189.5 383 L 191 385.5 L 190 385.5 L 189.5 383 Z " /><path fill="rgb(252,211,126)" stroke="rgb(252,211,126)" stroke-width="1" opacity="1" d="M 183.5 384 Q 186.8 382.9 186 385.5 L 184 386.5 L 184.5 385 L 183.5 384 Z " /><path fill="rgb(252,211,126)" stroke="rgb(252,211,126)" stroke-width="1" opacity="1" d="M 194.5 385 Q 196 389.5 203.5 388 L 206.5 386 L 205.5 388 L 197.5 389 L 194.5 385 Z " /><path fill="rgb(252,211,126)" stroke="rgb(252,211,126)" stroke-width="1" opacity="1" d="M 139.5 386 L 140 388.5 L 139 388.5 L 139.5 386 Z " /><path fill="rgb(252,211,126)" stroke="rgb(252,211,126)" stroke-width="1" opacity="1" d="M 178.5 386 L 177.5 388 L 178.5 386 Z " /><path fill="rgb(252,211,126)" stroke="rgb(252,211,126)" stroke-width="1" opacity="1" d="M 160.5 387 Q 162.5 391.5 170 390.5 L 163.5 391 L 160.5 387 Z " /><path fill="rgb(252,211,126)" stroke="rgb(252,211,126)" stroke-width="1" opacity="1" d="M 189.5 387 L 188.5 389 L 189.5 387 Z " /><path fill="rgb(252,211,126)" stroke="rgb(252,211,126)" stroke-width="1" opacity="1" d="M 111.5 388 L 115 390.5 L 113.5 391 L 111.5 388 Z " /><path fill="rgb(252,211,126)" stroke="rgb(252,211,126)" stroke-width="1" opacity="1" d="M 178.5 389 L 185.5 390 L 187 389.5 Q 185.8 392.3 180.5 391 L 178.5 389 Z " /><path fill="rgb(252,211,126)" stroke="rgb(252,211,126)" stroke-width="1" opacity="1" d="M 135.5 390 L 137.5 391 L 139 390.5 L 136.5 392 L 135.5 390 Z " /><path fill="rgb(252,211,126)" stroke="rgb(252,211,126)" stroke-width="1" opacity="1" d="M 116.5 391 L 120 391.5 L 116.5 392 L 116.5 391 Z " /><path fill="rgb(252,211,126)" stroke="rgb(252,211,126)" stroke-width="1" opacity="1" d="M 182.5 420 L 184 420.5 L 179.5 423 L 180.5 421 L 182.5 420 Z " /><path fill="rgb(252,211,126)" stroke="rgb(252,211,126)" stroke-width="1" opacity="1" d="M 197.5 435 L 199.5 438 L 197.5 435 Z " /><path fill="rgb(252,211,126)" stroke="rgb(252,211,126)" stroke-width="1" opacity="1" d="M 208.5 451 L 209.5 453 L 208.5 451 Z " /><path fill="rgb(252,211,126)" stroke="rgb(252,211,126)" stroke-width="1" opacity="1" d="M 107.5 457 L 107 458.5 L 106.5 461 L 106 458.5 L 107.5 457 Z " /><path fill="rgb(252,211,126)" stroke="rgb(252,211,126)" stroke-width="1" opacity="1" d="M 109.5 486 L 110 488.5 L 109 488.5 L 109.5 486 Z " /><path fill="rgb(252,211,126)" stroke="rgb(252,211,126)" stroke-width="1" opacity="1" d="M 191.5 499 L 198 499.5 L 191.5 500 L 191.5 499 Z " /><path fill="rgb(252,211,126)" stroke="rgb(252,211,126)" stroke-width="1" opacity="1" d="M 149.5 506 L 152 506.5 L 149.5 507 L 149.5 506 Z " /><path fill="rgb(252,211,126)" stroke="rgb(252,211,126)" stroke-width="1" opacity="1" d="M 142.5 507 L 147 507.5 L 142.5 508 L 142.5 507 Z " /><path fill="rgb(252,211,126)" stroke="rgb(252,211,126)" stroke-width="1" opacity="1" d="M 129.5 509 L 132 509.5 L 129.5 510 L 129.5 509 Z " /><path fill="rgb(240,211,135)" stroke="rgb(240,211,135)" stroke-width="1" opacity="1" d="M 108.5 130 L 107.5 132 L 108.5 130 Z " /><path fill="rgb(240,211,135)" stroke="rgb(240,211,135)" stroke-width="1" opacity="1" d="M 107.5 134 L 109.5 137 L 107.5 134 Z " /><path fill="rgb(240,211,135)" stroke="rgb(240,211,135)" stroke-width="1" opacity="1" d="M 106.5 141 L 107.5 143 L 106.5 141 Z " /><path fill="rgb(240,211,135)" stroke="rgb(240,211,135)" stroke-width="1" opacity="1" d="M 106.5 176 L 109.5 180 L 106.5 176 Z " /><path fill="rgb(240,211,135)" stroke="rgb(240,211,135)" stroke-width="1" opacity="1" d="M 212.5 185 L 215 186.5 L 213.5 187 L 212.5 185 Z " /><path fill="rgb(240,211,135)" stroke="rgb(240,211,135)" stroke-width="1" opacity="1" d="M 216.5 187 L 229 193.5 L 227.5 193 L 216.5 188 L 216.5 187 Z " /><path fill="rgb(240,211,135)" stroke="rgb(240,211,135)" stroke-width="1" opacity="1" d="M 230.5 194 L 231.5 196 L 230.5 194 Z " /><path fill="rgb(240,211,135)" stroke="rgb(240,211,135)" stroke-width="1" opacity="1" d="M 233.5 196 L 234.5 198 L 233.5 196 Z " /><path fill="rgb(240,211,135)" stroke="rgb(240,211,135)" stroke-width="1" opacity="1" d="M 236.5 198 L 239.5 202 L 236.5 198 Z " /><path fill="rgb(240,211,135)" stroke="rgb(240,211,135)" stroke-width="1" opacity="1" d="M 241.5 202 L 247.5 209 L 241.5 202 Z " /><path fill="rgb(240,211,135)" stroke="rgb(240,211,135)" stroke-width="1" opacity="1" d="M 250.5 212 L 251.5 214 L 250.5 212 Z " /><path fill="rgb(240,211,135)" stroke="rgb(240,211,135)" stroke-width="1" opacity="1" d="M 139.5 277 L 134.5 283 L 139.5 277 Z " /><path fill="rgb(240,211,135)" stroke="rgb(240,211,135)" stroke-width="1" opacity="1" d="M 180.5 277 L 185.5 283 L 180.5 277 Z " /><path fill="rgb(240,211,135)" stroke="rgb(240,211,135)" stroke-width="1" opacity="1" d="M 140.5 283 L 139.5 285 L 140.5 283 Z " /><path fill="rgb(240,211,135)" stroke="rgb(240,211,135)" stroke-width="1" opacity="1" d="M 179.5 283 L 180.5 285 L 179.5 283 Z " /><path fill="rgb(240,211,135)" stroke="rgb(240,211,135)" stroke-width="1" opacity="1" d="M 64.5 576 L 65.5 578 L 64.5 576 Z " /><path fill="rgb(240,211,135)" stroke="rgb(240,211,135)" stroke-width="1" opacity="1" d="M 67.5 581 L 68.5 583 L 67.5 581 Z " /><path fill="rgb(240,211,135)" stroke="rgb(240,211,135)" stroke-width="1" opacity="1" d="M 70.5 585 L 79.5 595 L 70.5 585 Z " /><path fill="rgb(240,211,135)" stroke="rgb(240,211,135)" stroke-width="1" opacity="1" d="M 82.5 596 L 83.5 598 L 82.5 596 Z " /><path fill="rgb(240,211,135)" stroke="rgb(240,211,135)" stroke-width="1" opacity="1" d="M 86.5 599 L 87.5 601 L 86.5 599 Z " /><path fill="rgb(240,211,135)" stroke="rgb(240,211,135)" stroke-width="1" opacity="1" d="M 91.5 602 L 92.5 604 L 91.5 602 Z " /><path fill="rgb(0,0,0)" stroke="rgb(0,0,0)" stroke-width="1" opacity="0" d="M 0 0 L 320 0 L 320 640 L 0 640 L 0 0 Z M 152 38 L 150 40 L 150 65 L 149 66 Q 150 68 148 67 L 146 69 L 140 116 L 117 120 L 106 125 L 101 131 L 101 179 L 102 182 L 94 185 L 77 196 Q 61 207 55 229 L 55 568 Q 58 581 66 590 Q 78 604 96 612 L 117 620 L 143 625 L 178 625 L 204 620 L 227 611 L 245 599 Q 259 588 265 568 L 265 229 Q 262 215 254 207 Q 240 190 218 182 L 219 179 L 219 131 L 218 129 Q 213 122 204 120 L 180 116 L 174 69 L 171 67 L 170 65 L 170 40 L 169 38 L 152 38 Z " /><path fill="rgb(251,198,87)" stroke="rgb(251,198,87)" stroke-width="1" opacity="1" d="M 210.5 129 L 214 133.5 L 213 133.5 L 210.5 129 Z " /><path fill="rgb(251,198,87)" stroke="rgb(251,198,87)" stroke-width="1" opacity="1" d="M 211.5 135 L 210.5 137 L 211.5 135 Z " /><path fill="rgb(251,198,87)" stroke="rgb(251,198,87)" stroke-width="1" opacity="1" d="M 90.5 193 L 89.5 195 L 90.5 193 Z " /><path fill="rgb(251,198,87)" stroke="rgb(251,198,87)" stroke-width="1" opacity="1" d="M 84.5 197 L 83.5 199 L 84.5 197 Z " /><path fill="rgb(251,198,87)" stroke="rgb(251,198,87)" stroke-width="1" opacity="1" d="M 80.5 200 L 76.5 205 L 80.5 200 Z " /><path fill="rgb(251,198,87)" stroke="rgb(251,198,87)" stroke-width="1" opacity="1" d="M 72.5 208 L 69.5 212 L 72.5 208 Z " /><path fill="rgb(251,198,87)" stroke="rgb(251,198,87)" stroke-width="1" opacity="1" d="M 68.5 213 L 67.5 215 L 68.5 213 Z " /><path fill="rgb(251,198,87)" stroke="rgb(251,198,87)" stroke-width="1" opacity="1" d="M 66.5 216 L 65.5 218 L 66.5 216 Z " /><path fill="rgb(251,198,87)" stroke="rgb(251,198,87)" stroke-width="1" opacity="1" d="M 128.5 347 Q 130.8 347.8 130 351.5 L 127.5 357 L 126 356.5 L 126 349.5 L 128.5 347 Z " /><path fill="rgb(251,198,87)" stroke="rgb(251,198,87)" stroke-width="1" opacity="1" d="M 184.5 347 Q 188.7 345.7 187 350.5 L 185 356 L 182 354.5 Q 180.8 348.3 184.5 347 Z " /><path fill="rgb(251,198,87)" stroke="rgb(251,198,87)" stroke-width="1" opacity="1" d="M 194 348 Q 198.9 346.2 197 352.5 L 196 355 L 193 353.5 L 194 348 Z " /><path fill="rgb(251,198,87)" stroke="rgb(251,198,87)" stroke-width="1" opacity="1" d="M 129.5 376 Q 132 377 131 381.5 L 130 385 L 127 385 L 127 378.5 L 129.5 376 Z " /><path fill="rgb(251,198,87)" stroke="rgb(251,198,87)" stroke-width="1" opacity="1" d="M 176.5 424 Q 180.3 423.3 181 425.5 L 182 429.5 L 181 433.5 L 177.5 437 Q 167 439 165 432.5 Q 164.5 428.5 167.5 428 L 176.5 424 Z " /><path fill="rgb(251,198,87)" stroke="rgb(251,198,87)" stroke-width="1" opacity="1" d="M 196 437 L 200 438.5 L 207 450.5 L 206 453 Q 197.2 455 195 449.5 L 194 441.5 L 196 437 Z " /><path fill="rgb(251,198,87)" stroke="rgb(251,198,87)" stroke-width="1" opacity="1" d="M 145.5 446 Q 154.6 446.4 158 452.5 L 159 457 L 164.5 456 L 210.5 455 L 212 458.5 L 210.5 460 L 188 461 Q 189.3 468.5 184.5 471 L 177.5 473 L 168 467.5 L 167 462 L 108.5 464 Q 106 462.8 107 459 L 113.5 458 L 135 458 Q 135.4 452.2 139.5 449 L 145.5 446 Z " /><path fill="rgb(251,198,87)" stroke="rgb(251,198,87)" stroke-width="1" opacity="1" d="M 111.5 471 Q 118.4 470.3 121 473 Q 124.4 476.7 124 485.5 L 120.5 492 L 111.5 493 L 110 491.5 L 109 472 L 111.5 471 Z " /><path fill="rgb(251,198,87)" stroke="rgb(251,198,87)" stroke-width="1" opacity="1" d="M 146.5 473 Q 157.1 471.9 160 478.5 L 161 483.5 L 156.5 491 Q 152.7 493.7 144.5 492 L 141 490 Q 138.3 487.4 139 480.5 L 143.5 475 L 146.5 473 Z " /><path fill="rgb(251,198,87)" stroke="rgb(251,198,87)" stroke-width="1" opacity="1" d="M 205.5 473 Q 210 472 211 474.5 L 210 488.5 L 207.5 492 Q 199.5 493 197 488.5 L 195 481.5 L 200.5 475 L 205.5 473 Z " /><path fill="rgb(251,198,87)" stroke="rgb(251,198,87)" stroke-width="1" opacity="1" d="M 178.5 487 Q 186.8 485.7 189 490.5 L 190 500 L 171 503 Q 169.4 491.6 176.5 488 L 178.5 487 Z " /><path fill="rgb(251,198,87)" stroke="rgb(251,198,87)" stroke-width="1" opacity="1" d="M 131.5 498 Q 137.9 498.7 140 503.5 Q 140.8 507.3 138.5 508 L 121 510 Q 119.9 503.3 124.5 501 L 131.5 498 Z " /><path fill="rgb(251,198,87)" stroke="rgb(251,198,87)" stroke-width="1" opacity="1" d="M 254.5 578 L 253.5 580 L 254.5 578 Z " /><path fill="rgb(251,198,87)" stroke="rgb(251,198,87)" stroke-width="1" opacity="1" d="M 250.5 584 L 248.5 587 L 250.5 584 Z " /><path fill="rgb(251,198,87)" stroke="rgb(251,198,87)" stroke-width="1" opacity="1" d="M 241.5 593 L 239.5 596 L 241.5 593 Z " /><path fill="rgb(251,198,87)" stroke="rgb(251,198,87)" stroke-width="1" opacity="1" d="M 236.5 597 L 235.5 599 L 236.5 597 Z " /><path fill="rgb(254,233,181)" stroke="rgb(254,233,181)" stroke-width="1" opacity="1" d="M 162 72 L 170 72 L 170 74.5 L 175 103.5 L 175 110.5 L 176 111.5 L 178 132 Q 168.8 137 151.5 135 L 144 133 Q 151 100.5 162 72 Z " /><path fill="rgb(254,233,181)" stroke="rgb(254,233,181)" stroke-width="1" opacity="1" d="M 212.5 142 L 214 142.5 L 214 173.5 L 213 176.5 L 211.5 179 L 206.5 182 L 188.5 187 L 171.5 188 L 170.5 189 L 149.5 189 L 148.5 188 L 138.5 188 L 137.5 187 L 126.5 186 L 112 180.5 Q 117.5 163 126.5 149 L 142.5 150 L 143.5 151 L 178.5 151 L 201.5 147 L 212.5 142 Z " /><path fill="rgb(254,233,181)" stroke="rgb(254,233,181)" stroke-width="1" opacity="1" d="M 137.5 303 L 138 305.5 L 137 305.5 L 137.5 303 Z " /><path fill="rgb(254,233,181)" stroke="rgb(254,233,181)" stroke-width="1" opacity="1" d="M 145.5 321 L 146.5 323 L 145.5 321 Z " /><path fill="rgb(254,233,181)" stroke="rgb(254,233,181)" stroke-width="1" opacity="1" d="M 189.5 344 L 192 344.5 L 189.5 345 L 189.5 344 Z " /><path fill="rgb(254,233,181)" stroke="rgb(254,233,181)" stroke-width="1" opacity="1" d="M 172.5 346 L 173.5 348 L 172.5 346 Z " /><path fill="rgb(254,233,181)" stroke="rgb(254,233,181)" stroke-width="1" opacity="1" d="M 111.5 348 L 110.5 350 L 111.5 348 Z " /><path fill="rgb(254,233,181)" stroke="rgb(254,233,181)" stroke-width="1" opacity="1" d="M 155.5 348 L 156.5 350 L 155.5 348 Z " /><path fill="rgb(254,233,181)" stroke="rgb(254,233,181)" stroke-width="1" opacity="1" d="M 119.5 349 L 120 351.5 L 119 351.5 L 119.5 349 Z " /><path fill="rgb(254,233,181)" stroke="rgb(254,233,181)" stroke-width="1" opacity="1" d="M 200.5 350 L 198.5 353 L 200.5 350 Z " /><path fill="rgb(254,233,181)" stroke="rgb(254,233,181)" stroke-width="1" opacity="1" d="M 210.5 350 L 211 356.5 L 210 356.5 L 210.5 350 Z " /><path fill="rgb(254,233,181)" stroke="rgb(254,233,181)" stroke-width="1" opacity="1" d="M 176.5 351 L 177 361.5 L 176 361.5 L 176.5 351 Z " /><path fill="rgb(254,233,181)" stroke="rgb(254,233,181)" stroke-width="1" opacity="1" d="M 192.5 352 L 193 363 L 196 363.5 L 193.5 364 L 192 362.5 L 192.5 352 Z " /><path fill="rgb(254,233,181)" stroke="rgb(254,233,181)" stroke-width="1" opacity="1" d="M 160.5 353 L 161 355.5 L 160 355.5 L 160.5 353 Z " /><path fill="rgb(254,233,181)" stroke="rgb(254,233,181)" stroke-width="1" opacity="1" d="M 186.5 354 L 187 362.5 L 185 363.5 L 186 362.5 L 186.5 354 Z " /><path fill="rgb(254,233,181)" stroke="rgb(254,233,181)" stroke-width="1" opacity="1" d="M 148.5 357 L 152 359.5 L 150.5 360 L 148.5 357 Z " /><path fill="rgb(254,233,181)" stroke="rgb(254,233,181)" stroke-width="1" opacity="1" d="M 155.5 358 L 159 358.5 L 155.5 359 L 155.5 358 Z " /><path fill="rgb(254,233,181)" stroke="rgb(254,233,181)" stroke-width="1" opacity="1" d="M 161.5 358 L 164 361.5 L 161 359.5 L 161.5 358 Z " /><path fill="rgb(254,233,181)" stroke="rgb(254,233,181)" stroke-width="1" opacity="1" d="M 209.5 358 L 210 361.5 L 209 361.5 L 209.5 358 Z " /><path fill="rgb(254,233,181)" stroke="rgb(254,233,181)" stroke-width="1" opacity="1" d="M 109.5 362 L 110.5 364 L 109.5 362 Z " /><path fill="rgb(254,233,181)" stroke="rgb(254,233,181)" stroke-width="1" opacity="1" d="M 171.5 362 L 172.5 364 L 171.5 362 Z " /><path fill="rgb(254,233,181)" stroke="rgb(254,233,181)" stroke-width="1" opacity="1" d="M 129.5 363 L 128.5 365 L 126 364.5 L 129.5 363 Z " /><path fill="rgb(254,233,181)" stroke="rgb(254,233,181)" stroke-width="1" opacity="1" d="M 129.5 369 L 130.5 371 L 129.5 369 Z " /><path fill="rgb(254,233,181)" stroke="rgb(254,233,181)" stroke-width="1" opacity="1" d="M 125.5 371 L 126 379.5 L 125 379.5 L 125.5 371 Z " /><path fill="rgb(254,233,181)" stroke="rgb(254,233,181)" stroke-width="1" opacity="1" d="M 182.5 371 L 185 371.5 L 182.5 372 L 182.5 371 Z " /><path fill="rgb(254,233,181)" stroke="rgb(254,233,181)" stroke-width="1" opacity="1" d="M 180.5 372 L 179.5 374 L 180.5 372 Z " /><path fill="rgb(254,233,181)" stroke="rgb(254,233,181)" stroke-width="1" opacity="1" d="M 187.5 372 L 189.5 375 L 187.5 372 Z " /><path fill="rgb(254,233,181)" stroke="rgb(254,233,181)" stroke-width="1" opacity="1" d="M 164.5 373 L 160.5 378 L 164.5 373 Z " /><path fill="rgb(254,233,181)" stroke="rgb(254,233,181)" stroke-width="1" opacity="1" d="M 171.5 374 L 172.5 376 L 171.5 374 Z " /><path fill="rgb(254,233,181)" stroke="rgb(254,233,181)" stroke-width="1" opacity="1" d="M 120.5 375 L 122 378.5 L 120 379.5 L 121 376.5 L 120.5 375 Z " /><path fill="rgb(254,233,181)" stroke="rgb(254,233,181)" stroke-width="1" opacity="1" d="M 154.5 375 L 155.5 377 L 154.5 375 Z " /><path fill="rgb(254,233,181)" stroke="rgb(254,233,181)" stroke-width="1" opacity="1" d="M 185.5 377 L 188 378.5 L 186.5 379 L 185.5 377 Z " /><path fill="rgb(254,233,181)" stroke="rgb(254,233,181)" stroke-width="1" opacity="1" d="M 159.5 379 L 160 386.5 L 159 386.5 L 159.5 379 Z " /><path fill="rgb(254,233,181)" stroke="rgb(254,233,181)" stroke-width="1" opacity="1" d="M 206.5 380 L 206 381.5 L 208 386.5 L 206 387.5 L 207 384.5 L 204.5 383 L 203 383.5 L 206.5 380 Z " /><path fill="rgb(254,233,181)" stroke="rgb(254,233,181)" stroke-width="1" opacity="1" d="M 132.5 381 L 131.5 383 L 132.5 381 Z " /><path fill="rgb(254,233,181)" stroke="rgb(254,233,181)" stroke-width="1" opacity="1" d="M 156.5 381 L 154.5 384 L 156.5 381 Z " /><path fill="rgb(254,233,181)" stroke="rgb(254,233,181)" stroke-width="1" opacity="1" d="M 170.5 384 L 171 386 L 169 385.5 L 170.5 384 Z " /><path fill="rgb(254,233,181)" stroke="rgb(254,233,181)" stroke-width="1" opacity="1" d="M 181.5 384 L 182 386 L 177.5 387 L 178.5 385 L 181.5 384 Z " /><path fill="rgb(254,233,181)" stroke="rgb(254,233,181)" stroke-width="1" opacity="1" d="M 199.5 384 L 202 384.5 L 199.5 385 L 199.5 384 Z " /><path fill="rgb(254,233,181)" stroke="rgb(254,233,181)" stroke-width="1" opacity="1" d="M 115.5 385 L 120 386.5 L 116.5 387 L 115.5 385 Z " /><path fill="rgb(254,233,181)" stroke="rgb(254,233,181)" stroke-width="1" opacity="1" d="M 149.5 386 L 154 386.5 L 149.5 387 L 149.5 386 Z " /><path fill="rgb(254,233,181)" stroke="rgb(254,233,181)" stroke-width="1" opacity="1" d="M 165.5 386 L 168 386.5 L 165.5 387 L 165.5 386 Z " /><path fill="rgb(254,233,181)" stroke="rgb(254,233,181)" stroke-width="1" opacity="1" d="M 194.5 386 L 196.5 389 L 194.5 386 Z " /><path fill="rgb(254,233,181)" stroke="rgb(254,233,181)" stroke-width="1" opacity="1" d="M 143.5 388 L 145.5 391 L 143.5 388 Z " /><path fill="rgb(254,233,181)" stroke="rgb(254,233,181)" stroke-width="1" opacity="1" d="M 160.5 388 L 162.5 391 L 160.5 388 Z " /><path fill="rgb(254,233,181)" stroke="rgb(254,233,181)" stroke-width="1" opacity="1" d="M 189.5 388 L 188.5 390 L 189.5 388 Z " /><path fill="rgb(254,233,181)" stroke="rgb(254,233,181)" stroke-width="1" opacity="1" d="M 184.5 419 L 187 419.5 L 184.5 420 L 184.5 419 Z " /><path fill="rgb(254,233,181)" stroke="rgb(254,233,181)" stroke-width="1" opacity="1" d="M 189.5 422 L 191.5 425 L 189.5 422 Z " /><path fill="rgb(254,233,181)" stroke="rgb(254,233,181)" stroke-width="1" opacity="1" d="M 192.5 426 L 193.5 428 L 192.5 426 Z " /><path fill="rgb(254,233,181)" stroke="rgb(254,233,181)" stroke-width="1" opacity="1" d="M 194.5 429 L 195.5 431 L 194.5 429 Z " /><path fill="rgb(254,233,181)" stroke="rgb(254,233,181)" stroke-width="1" opacity="1" d="M 196.5 432 L 197.5 434 L 196.5 432 Z " /><path fill="rgb(254,233,181)" stroke="rgb(254,233,181)" stroke-width="1" opacity="1" d="M 199.5 436 L 200.5 438 L 199.5 436 Z " /><path fill="rgb(254,233,181)" stroke="rgb(254,233,181)" stroke-width="1" opacity="1" d="M 202.5 441 L 203.5 443 L 202.5 441 Z " /><path fill="rgb(254,233,181)" stroke="rgb(254,233,181)" stroke-width="1" opacity="1" d="M 123.5 448 L 122.5 450 L 109.5 456 L 109.5 455 L 123.5 448 Z " /><path fill="rgb(254,233,181)" stroke="rgb(254,233,181)" stroke-width="1" opacity="1" d="M 207.5 448 L 208.5 450 L 207.5 448 Z " /><path fill="rgb(254,233,181)" stroke="rgb(254,233,181)" stroke-width="1" opacity="1" d="M 211.5 453 L 212.5 455 L 211.5 453 Z " /><path fill="rgb(254,233,181)" stroke="rgb(254,233,181)" stroke-width="1" opacity="1" d="M 213.5 456 L 214 459.5 L 213 459.5 L 213.5 456 Z " /><path fill="rgb(254,233,181)" stroke="rgb(254,233,181)" stroke-width="1" opacity="1" d="M 105.5 458 L 106 460.5 L 105 460.5 L 105.5 458 Z " /><path fill="rgb(254,233,181)" stroke="rgb(254,233,181)" stroke-width="1" opacity="1" d="M 106.5 463 L 107 465.5 L 106 465.5 L 106.5 463 Z " /><path fill="rgb(254,233,181)" stroke="rgb(254,233,181)" stroke-width="1" opacity="1" d="M 108.5 478 L 109 481.5 L 108 481.5 L 108.5 478 Z " /><path fill="rgb(254,233,181)" stroke="rgb(254,233,181)" stroke-width="1" opacity="1" d="M 209.5 494 L 210 497.5 L 208 498.5 L 209.5 494 Z " /><path fill="rgb(254,233,181)" stroke="rgb(254,233,181)" stroke-width="1" opacity="1" d="M 193.5 500 L 197 500.5 L 193.5 501 L 193.5 500 Z " /><path fill="rgb(254,233,181)" stroke="rgb(254,233,181)" stroke-width="1" opacity="1" d="M 187.5 501 L 190 501.5 L 187.5 502 L 187.5 501 Z " /><path fill="rgb(254,233,181)" stroke="rgb(254,233,181)" stroke-width="1" opacity="1" d="M 134.5 509 L 138 509.5 L 134.5 510 L 134.5 509 Z " /><path fill="rgb(254,233,181)" stroke="rgb(254,233,181)" stroke-width="1" opacity="1" d="M 125.5 510 L 130 510.5 L 125.5 511 L 125.5 510 Z " /><path fill="rgb(254,233,181)" stroke="rgb(254,233,181)" stroke-width="1" opacity="1" d="M 120.5 511 L 123 511.5 L 120.5 512 L 120.5 511 Z " /><path fill="rgb(254,233,181)" stroke="rgb(254,233,181)" stroke-width="1" opacity="1" d="M 115.5 512 L 119 512.5 L 115.5 513 L 115.5 512 Z " /><path fill="rgb(254,228,156)" stroke="rgb(254,228,156)" stroke-width="1" opacity="1" d="M 126.5 148 L 125.5 150 L 126.5 148 Z " /><path fill="rgb(254,228,156)" stroke="rgb(254,228,156)" stroke-width="1" opacity="1" d="M 106.5 186 L 107 187.5 L 105.5 190 L 105 188.5 L 106.5 186 Z " /><path fill="rgb(254,228,156)" stroke="rgb(254,228,156)" stroke-width="1" opacity="1" d="M 103.5 193 L 104 194.5 L 101.5 199 L 101 197.5 L 103.5 193 Z " /><path fill="rgb(254,228,156)" stroke="rgb(254,228,156)" stroke-width="1" opacity="1" d="M 186.5 193 L 191 204.5 L 197.5 211 Q 211 219.5 221 231.5 Q 235.4 250.6 243 276.5 L 242 276.5 Q 236.3 257.2 227 241.5 Q 220.2 230.3 210.5 222 L 192 208 L 186 197.5 L 186.5 193 Z " /><path fill="rgb(254,228,156)" stroke="rgb(254,228,156)" stroke-width="1" opacity="1" d="M 99.5 202 L 100 203.5 L 98.5 206 L 98 204.5 L 99.5 202 Z " /><path fill="rgb(254,228,156)" stroke="rgb(254,228,156)" stroke-width="1" opacity="1" d="M 97.5 207 L 98 208.5 L 96.5 211 L 96 209.5 L 97.5 207 Z " /><path fill="rgb(254,228,156)" stroke="rgb(254,228,156)" stroke-width="1" opacity="1" d="M 95.5 212 L 96 213.5 L 94.5 216 L 94 214.5 L 95.5 212 Z " /><path fill="rgb(254,228,156)" stroke="rgb(254,228,156)" stroke-width="1" opacity="1" d="M 92.5 220 L 93 221.5 L 89.5 230 L 89 228.5 L 92.5 220 Z " /><path fill="rgb(254,228,156)" stroke="rgb(254,228,156)" stroke-width="1" opacity="1" d="M 86.5 237 L 87 239.5 L 85.5 243 L 85 240.5 L 86.5 237 Z " /><path fill="rgb(254,228,156)" stroke="rgb(254,228,156)" stroke-width="1" opacity="1" d="M 84.5 244 L 85 246.5 L 83.5 250 L 83 247.5 L 84.5 244 Z " /><path fill="rgb(254,228,156)" stroke="rgb(254,228,156)" stroke-width="1" opacity="1" d="M 82.5 251 L 83 253.5 L 82 253.5 L 82.5 251 Z " /><path fill="rgb(254,228,156)" stroke="rgb(254,228,156)" stroke-width="1" opacity="1" d="M 81.5 255 L 82 257.5 L 81 257.5 L 81.5 255 Z " /><path fill="rgb(254,228,156)" stroke="rgb(254,228,156)" stroke-width="1" opacity="1" d="M 80.5 259 L 81 261.5 L 80 261.5 L 80.5 259 Z " /><path fill="rgb(254,228,156)" stroke="rgb(254,228,156)" stroke-width="1" opacity="1" d="M 79.5 263 L 80 265.5 L 79 265.5 L 79.5 263 Z " /><path fill="rgb(254,228,156)" stroke="rgb(254,228,156)" stroke-width="1" opacity="1" d="M 78.5 268 L 79 270.5 L 78 270.5 L 78.5 268 Z " /><path fill="rgb(254,228,156)" stroke="rgb(254,228,156)" stroke-width="1" opacity="1" d="M 77.5 273 L 78 275.5 L 77 275.5 L 77.5 273 Z " /><path fill="rgb(254,228,156)" stroke="rgb(254,228,156)" stroke-width="1" opacity="1" d="M 141.5 275 L 140.5 277 L 141.5 275 Z " /><path fill="rgb(254,228,156)" stroke="rgb(254,228,156)" stroke-width="1" opacity="1" d="M 178.5 275 L 179.5 277 L 178.5 275 Z " /><path fill="rgb(254,228,156)" stroke="rgb(254,228,156)" stroke-width="1" opacity="1" d="M 76.5 278 L 77 280.5 L 76 280.5 L 76.5 278 Z " /><path fill="rgb(254,228,156)" stroke="rgb(254,228,156)" stroke-width="1" opacity="1" d="M 137.5 278 L 136.5 280 L 137.5 278 Z " /><path fill="rgb(254,228,156)" stroke="rgb(254,228,156)" stroke-width="1" opacity="1" d="M 182.5 278 L 183.5 280 L 182.5 278 Z " /><path fill="rgb(254,228,156)" stroke="rgb(254,228,156)" stroke-width="1" opacity="1" d="M 243.5 278 L 247 287.5 L 246 287.5 L 243.5 278 Z " /><path fill="rgb(254,228,156)" stroke="rgb(254,228,156)" stroke-width="1" opacity="1" d="M 75.5 283 L 76 285.5 L 75 285.5 L 75.5 283 Z " /><path fill="rgb(254,228,156)" stroke="rgb(254,228,156)" stroke-width="1" opacity="1" d="M 133.5 283 L 132.5 285 L 133.5 283 Z " /><path fill="rgb(254,228,156)" stroke="rgb(254,228,156)" stroke-width="1" opacity="1" d="M 186.5 283 L 187.5 285 L 186.5 283 Z " /><path fill="rgb(254,228,156)" stroke="rgb(254,228,156)" stroke-width="1" opacity="1" d="M 74.5 288 L 75 291.5 L 74 291.5 L 74.5 288 Z " /><path fill="rgb(254,228,156)" stroke="rgb(254,228,156)" stroke-width="1" opacity="1" d="M 73.5 293 L 74 296.5 L 73 296.5 L 73.5 293 Z " /><path fill="rgb(254,228,156)" stroke="rgb(254,228,156)" stroke-width="1" opacity="1" d="M 250.5 298 L 252 303.5 L 251 303.5 L 250.5 298 Z " /><path fill="rgb(254,228,156)" stroke="rgb(254,228,156)" stroke-width="1" opacity="1" d="M 72.5 299 L 73 301.5 L 72 301.5 L 72.5 299 Z " /><path fill="rgb(254,228,156)" stroke="rgb(254,228,156)" stroke-width="1" opacity="1" d="M 71.5 304 L 72 306.5 L 71 306.5 L 71.5 304 Z " /><path fill="rgb(254,228,156)" stroke="rgb(254,228,156)" stroke-width="1" opacity="1" d="M 252.5 305 L 254 310.5 L 253 310.5 L 252.5 305 Z " /><path fill="rgb(254,228,156)" stroke="rgb(254,228,156)" stroke-width="1" opacity="1" d="M 70.5 309 L 71 312.5 L 70 312.5 L 70.5 309 Z " /><path fill="rgb(254,228,156)" stroke="rgb(254,228,156)" stroke-width="1" opacity="1" d="M 91.5 309 L 88.5 313 L 91.5 309 Z " /><path fill="rgb(254,228,156)" stroke="rgb(254,228,156)" stroke-width="1" opacity="1" d="M 228.5 309 L 231.5 313 L 228.5 309 Z " /><path fill="rgb(254,228,156)" stroke="rgb(254,228,156)" stroke-width="1" opacity="1" d="M 254.5 312 L 260 334.5 L 259 334.5 L 254.5 312 Z " /><path fill="rgb(254,228,156)" stroke="rgb(254,228,156)" stroke-width="1" opacity="1" d="M 148.5 313 L 149.5 315 L 148.5 313 Z " /><path fill="rgb(254,228,156)" stroke="rgb(254,228,156)" stroke-width="1" opacity="1" d="M 69.5 314 L 70 317.5 L 69 317.5 L 69.5 314 Z " /><path fill="rgb(254,228,156)" stroke="rgb(254,228,156)" stroke-width="1" opacity="1" d="M 68.5 320 L 69 322.5 L 68 322.5 L 68.5 320 Z " /><path fill="rgb(254,228,156)" stroke="rgb(254,228,156)" stroke-width="1" opacity="1" d="M 67.5 325 L 68 327.5 L 67 327.5 L 67.5 325 Z " /><path fill="rgb(254,228,156)" stroke="rgb(254,228,156)" stroke-width="1" opacity="1" d="M 66.5 330 L 67 333.5 L 66 333.5 L 66.5 330 Z " /><path fill="rgb(254,228,156)" stroke="rgb(254,228,156)" stroke-width="1" opacity="1" d="M 65.5 335 L 66 338.5 L 65 338.5 L 65.5 335 Z " /><path fill="rgb(254,228,156)" stroke="rgb(254,228,156)" stroke-width="1" opacity="1" d="M 64.5 341 L 65 343.5 L 64 343.5 L 64.5 341 Z " /><path fill="rgb(254,228,156)" stroke="rgb(254,228,156)" stroke-width="1" opacity="1" d="M 128.5 345 L 129.5 347 L 128.5 345 Z " /><path fill="rgb(254,228,156)" stroke="rgb(254,228,156)" stroke-width="1" opacity="1" d="M 63.5 346 L 64 348.5 L 63 348.5 L 63.5 346 Z " /><path fill="rgb(254,228,156)" stroke="rgb(254,228,156)" stroke-width="1" opacity="1" d="M 182.5 346 L 182 347.5 L 182 362.5 L 183 363.5 L 181 362.5 L 181 347.5 L 182.5 346 Z " /><path fill="rgb(254,228,156)" stroke="rgb(254,228,156)" stroke-width="1" opacity="1" d="M 113.5 347 L 117 347.5 L 113.5 348 L 113.5 347 Z " /><path fill="rgb(254,228,156)" stroke="rgb(254,228,156)" stroke-width="1" opacity="1" d="M 125.5 347 L 126 351.5 L 125 351.5 L 125.5 347 Z " /><path fill="rgb(254,228,156)" stroke="rgb(254,228,156)" stroke-width="1" opacity="1" d="M 136.5 347 L 137.5 349 L 136.5 347 Z " /><path fill="rgb(254,228,156)" stroke="rgb(254,228,156)" stroke-width="1" opacity="1" d="M 149.5 347 L 153 347.5 L 149.5 348 L 149.5 347 Z " /><path fill="rgb(254,228,156)" stroke="rgb(254,228,156)" stroke-width="1" opacity="1" d="M 147.5 348 L 145.5 351 L 147.5 348 Z " /><path fill="rgb(254,228,156)" stroke="rgb(254,228,156)" stroke-width="1" opacity="1" d="M 174.5 348 L 175.5 350 L 174.5 348 Z " /><path fill="rgb(254,228,156)" stroke="rgb(254,228,156)" stroke-width="1" opacity="1" d="M 202.5 348 L 204 348.5 L 201.5 350 L 202.5 348 Z " /><path fill="rgb(254,228,156)" stroke="rgb(254,228,156)" stroke-width="1" opacity="1" d="M 62.5 350 L 63 352.5 L 60.5 357 L 60 355.5 L 62.5 350 Z " /><path fill="rgb(254,228,156)" stroke="rgb(254,228,156)" stroke-width="1" opacity="1" d="M 169.5 350 L 170.5 352 L 169.5 350 Z " /><path fill="rgb(254,228,156)" stroke="rgb(254,228,156)" stroke-width="1" opacity="1" d="M 188.5 350 L 187.5 352 L 188.5 350 Z " /><path fill="rgb(254,228,156)" stroke="rgb(254,228,156)" stroke-width="1" opacity="1" d="M 131.5 351 L 135 352.5 L 133.5 352 L 130.5 353 L 131.5 351 Z " /><path fill="rgb(254,228,156)" stroke="rgb(254,228,156)" stroke-width="1" opacity="1" d="M 114.5 352 L 119 352.5 L 114.5 353 L 114.5 352 Z " /><path fill="rgb(254,228,156)" stroke="rgb(254,228,156)" stroke-width="1" opacity="1" d="M 157.5 352 L 158 354.5 L 156 355.5 L 157.5 352 Z " /><path fill="rgb(254,228,156)" stroke="rgb(254,228,156)" stroke-width="1" opacity="1" d="M 125.5 355 L 126 363.5 L 125 363.5 L 125.5 355 Z " /><path fill="rgb(254,228,156)" stroke="rgb(254,228,156)" stroke-width="1" opacity="1" d="M 129.5 355 L 130 362.5 L 129 362.5 L 129.5 355 Z " /><path fill="rgb(254,228,156)" stroke="rgb(254,228,156)" stroke-width="1" opacity="1" d="M 135.5 355 L 136.5 357 L 135.5 355 Z " /><path fill="rgb(254,228,156)" stroke="rgb(254,228,156)" stroke-width="1" opacity="1" d="M 139.5 355 L 138.5 357 L 139.5 355 Z " /><path fill="rgb(254,228,156)" stroke="rgb(254,228,156)" stroke-width="1" opacity="1" d="M 169.5 355 L 167.5 358 L 169.5 355 Z " /><path fill="rgb(254,228,156)" stroke="rgb(254,228,156)" stroke-width="1" opacity="1" d="M 175.5 362 L 174.5 364 L 175.5 362 Z " /><path fill="rgb(254,228,156)" stroke="rgb(254,228,156)" stroke-width="1" opacity="1" d="M 127.5 369 L 129 369.5 L 126.5 371 L 127.5 369 Z " /><path fill="rgb(254,228,156)" stroke="rgb(254,228,156)" stroke-width="1" opacity="1" d="M 113.5 375 L 112.5 377 L 113.5 375 Z " /><path fill="rgb(254,228,156)" stroke="rgb(254,228,156)" stroke-width="1" opacity="1" d="M 145.5 375 L 144.5 377 L 145.5 375 Z " /><path fill="rgb(254,228,156)" stroke="rgb(254,228,156)" stroke-width="1" opacity="1" d="M 189.5 375 L 190 376.5 L 188 377.5 L 189.5 375 Z " /><path fill="rgb(254,228,156)" stroke="rgb(254,228,156)" stroke-width="1" opacity="1" d="M 166.5 378 Q 169.8 376.9 169 379.5 L 167.5 379 L 166 379.5 L 166.5 381 Q 164.3 381.8 165 379.5 L 166.5 378 Z " /><path fill="rgb(254,228,156)" stroke="rgb(254,228,156)" stroke-width="1" opacity="1" d="M 116.5 379 L 120 379.5 L 115.5 381 L 116.5 379 Z " /><path fill="rgb(254,228,156)" stroke="rgb(254,228,156)" stroke-width="1" opacity="1" d="M 126.5 380 L 127 391.5 L 126 391.5 L 126.5 380 Z " /><path fill="rgb(254,228,156)" stroke="rgb(254,228,156)" stroke-width="1" opacity="1" d="M 184.5 380 L 187 380.5 L 184.5 381 L 184.5 380 Z " /><path fill="rgb(254,228,156)" stroke="rgb(254,228,156)" stroke-width="1" opacity="1" d="M 188.5 381 L 189.5 383 L 188.5 381 Z " /><path fill="rgb(254,228,156)" stroke="rgb(254,228,156)" stroke-width="1" opacity="1" d="M 179.5 382 L 180.5 384 L 179.5 382 Z " /><path fill="rgb(254,228,156)" stroke="rgb(254,228,156)" stroke-width="1" opacity="1" d="M 199.5 382 Q 204.3 381.3 206 383.5 L 204.5 384 L 199.5 383 L 198 383.5 L 199.5 382 Z " /><path fill="rgb(254,228,156)" stroke="rgb(254,228,156)" stroke-width="1" opacity="1" d="M 148.5 383 L 154 383.5 L 148.5 384 L 148.5 383 Z " /><path fill="rgb(254,228,156)" stroke="rgb(254,228,156)" stroke-width="1" opacity="1" d="M 147.5 385 L 148.5 387 L 147.5 385 Z " /><path fill="rgb(254,228,156)" stroke="rgb(254,228,156)" stroke-width="1" opacity="1" d="M 122.5 386 L 124 388.5 L 123 388.5 L 122.5 386 Z " /><path fill="rgb(254,228,156)" stroke="rgb(254,228,156)" stroke-width="1" opacity="1" d="M 155.5 388 L 156 389.5 L 154 390.5 L 155.5 388 Z " /><path fill="rgb(254,228,156)" stroke="rgb(254,228,156)" stroke-width="1" opacity="1" d="M 165.5 428 L 164.5 430 L 165.5 428 Z " /><path fill="rgb(254,228,156)" stroke="rgb(254,228,156)" stroke-width="1" opacity="1" d="M 259.5 436 L 260 437.5 L 257.5 445 L 257 441.5 L 259.5 436 Z " /><path fill="rgb(254,228,156)" stroke="rgb(254,228,156)" stroke-width="1" opacity="1" d="M 203.5 443 L 204.5 445 L 203.5 443 Z " /><path fill="rgb(254,228,156)" stroke="rgb(254,228,156)" stroke-width="1" opacity="1" d="M 256.5 446 L 257 449.5 L 256 449.5 L 256.5 446 Z " /><path fill="rgb(254,228,156)" stroke="rgb(254,228,156)" stroke-width="1" opacity="1" d="M 208.5 450 L 209.5 452 L 208.5 450 Z " /><path fill="rgb(254,228,156)" stroke="rgb(254,228,156)" stroke-width="1" opacity="1" d="M 255.5 451 L 256 454.5 L 255 454.5 L 255.5 451 Z " /><path fill="rgb(254,228,156)" stroke="rgb(254,228,156)" stroke-width="1" opacity="1" d="M 254.5 457 L 255 459.5 L 254 459.5 L 254.5 457 Z " /><path fill="rgb(254,228,156)" stroke="rgb(254,228,156)" stroke-width="1" opacity="1" d="M 253.5 462 L 254 464.5 L 253 464.5 L 253.5 462 Z " /><path fill="rgb(254,228,156)" stroke="rgb(254,228,156)" stroke-width="1" opacity="1" d="M 252.5 467 L 253 469.5 L 252 469.5 L 252.5 467 Z " /><path fill="rgb(254,228,156)" stroke="rgb(254,228,156)" stroke-width="1" opacity="1" d="M 107.5 468 L 108 470.5 L 107 470.5 L 107.5 468 Z " /><path fill="rgb(254,228,156)" stroke="rgb(254,228,156)" stroke-width="1" opacity="1" d="M 251.5 472 L 252 474.5 L 251 474.5 L 251.5 472 Z " /><path fill="rgb(254,228,156)" stroke="rgb(254,228,156)" stroke-width="1" opacity="1" d="M 250.5 477 L 251 479.5 L 250 479.5 L 250.5 477 Z " /><path fill="rgb(254,228,156)" stroke="rgb(254,228,156)" stroke-width="1" opacity="1" d="M 211.5 478 L 212 480.5 L 211 480.5 L 211.5 478 Z " /><path fill="rgb(254,228,156)" stroke="rgb(254,228,156)" stroke-width="1" opacity="1" d="M 249.5 482 L 250 485.5 L 249 485.5 L 249.5 482 Z " /><path fill="rgb(254,228,156)" stroke="rgb(254,228,156)" stroke-width="1" opacity="1" d="M 210.5 483 L 211 485.5 L 210 485.5 L 210.5 483 Z " /><path fill="rgb(254,228,156)" stroke="rgb(254,228,156)" stroke-width="1" opacity="1" d="M 248.5 487 L 249 490.5 L 248 490.5 L 248.5 487 Z " /><path fill="rgb(254,228,156)" stroke="rgb(254,228,156)" stroke-width="1" opacity="1" d="M 247.5 493 L 248 495.5 L 247 495.5 L 247.5 493 Z " /><path fill="rgb(254,228,156)" stroke="rgb(254,228,156)" stroke-width="1" opacity="1" d="M 246.5 498 L 247 500.5 L 246 500.5 L 246.5 498 Z " /><path fill="rgb(254,228,156)" stroke="rgb(254,228,156)" stroke-width="1" opacity="1" d="M 184.5 501 L 187 501.5 L 184.5 502 L 184.5 501 Z " /><path fill="rgb(254,228,156)" stroke="rgb(254,228,156)" stroke-width="1" opacity="1" d="M 179.5 502 L 182 502.5 L 179.5 503 L 179.5 502 Z " /><path fill="rgb(254,228,156)" stroke="rgb(254,228,156)" stroke-width="1" opacity="1" d="M 245.5 502 L 246 505.5 L 245 505.5 L 245.5 502 Z " /><path fill="rgb(254,228,156)" stroke="rgb(254,228,156)" stroke-width="1" opacity="1" d="M 60.5 503 L 65 506.5 Q 69.2 510.8 70 518.5 L 69 518.5 Q 67.1 509.9 61.5 505 Q 58.7 505.7 60.5 503 Z " /><path fill="rgb(254,228,156)" stroke="rgb(254,228,156)" stroke-width="1" opacity="1" d="M 244.5 507 L 245 509.5 L 244 509.5 L 244.5 507 Z " /><path fill="rgb(254,228,156)" stroke="rgb(254,228,156)" stroke-width="1" opacity="1" d="M 243.5 511 L 244 513.5 L 243 513.5 L 243.5 511 Z " /><path fill="rgb(254,228,156)" stroke="rgb(254,228,156)" stroke-width="1" opacity="1" d="M 242.5 516 L 243 518.5 L 242 518.5 L 242.5 516 Z " /><path fill="rgb(254,228,156)" stroke="rgb(254,228,156)" stroke-width="1" opacity="1" d="M 70.5 520 L 71 522.5 L 70 522.5 L 70.5 520 Z " /><path fill="rgb(254,228,156)" stroke="rgb(254,228,156)" stroke-width="1" opacity="1" d="M 241.5 520 L 242 522.5 L 241 522.5 L 241.5 520 Z " /><path fill="rgb(254,228,156)" stroke="rgb(254,228,156)" stroke-width="1" opacity="1" d="M 71.5 524 L 72 526.5 L 71 526.5 L 71.5 524 Z " /><path fill="rgb(254,228,156)" stroke="rgb(254,228,156)" stroke-width="1" opacity="1" d="M 240.5 524 L 241 526.5 L 240 526.5 L 240.5 524 Z " /><path fill="rgb(254,228,156)" stroke="rgb(254,228,156)" stroke-width="1" opacity="1" d="M 72.5 528 L 75 538.5 L 74 538.5 L 72.5 528 Z " /><path fill="rgb(254,228,156)" stroke="rgb(254,228,156)" stroke-width="1" opacity="1" d="M 239.5 528 L 240 530.5 L 239 530.5 L 239.5 528 Z " /><path fill="rgb(254,228,156)" stroke="rgb(254,228,156)" stroke-width="1" opacity="1" d="M 237.5 535 L 238 537.5 L 237 537.5 L 237.5 535 Z " /><path fill="rgb(254,228,156)" stroke="rgb(254,228,156)" stroke-width="1" opacity="1" d="M 236.5 539 L 237 541.5 L 236 541.5 L 236.5 539 Z " /><path fill="rgb(254,228,156)" stroke="rgb(254,228,156)" stroke-width="1" opacity="1" d="M 75.5 540 L 78 548.5 L 77 548.5 L 75.5 540 Z " /><path fill="rgb(254,228,156)" stroke="rgb(254,228,156)" stroke-width="1" opacity="1" d="M 79.5 553 L 84 565.5 L 83 565.5 L 79.5 553 Z " /><path fill="rgb(254,228,156)" stroke="rgb(254,228,156)" stroke-width="1" opacity="1" d="M 88.5 568 L 90.5 571 L 88.5 568 Z " /><path fill="rgb(254,228,156)" stroke="rgb(254,228,156)" stroke-width="1" opacity="1" d="M 85.5 570 L 89 579.5 L 89 587.5 L 88 592 Q 95.3 593.4 99 599.5 L 102 607.5 L 99 605.5 Q 97.8 599.8 93.5 597 L 86 594 L 88 580.5 L 85.5 570 Z " /><path fill="rgb(254,228,156)" stroke="rgb(254,228,156)" stroke-width="1" opacity="1" d="M 226.5 572 L 227 573.5 L 225.5 576 L 225 574.5 L 226.5 572 Z " /><path fill="rgb(254,228,156)" stroke="rgb(254,228,156)" stroke-width="1" opacity="1" d="M 222.5 583 L 223 584.5 L 221.5 587 L 221 585.5 L 222.5 583 Z " /><path fill="rgb(254,228,156)" stroke="rgb(254,228,156)" stroke-width="1" opacity="1" d="M 218.5 593 L 219 594.5 L 217.5 597 L 217 595.5 L 218.5 593 Z " /><path fill="rgb(254,228,156)" stroke="rgb(254,228,156)" stroke-width="1" opacity="1" d="M 216.5 598 L 217 599.5 L 214.5 604 L 214 602.5 L 216.5 598 Z " /><path fill="rgb(254,228,156)" stroke="rgb(254,228,156)" stroke-width="1" opacity="1" d="M 212.5 607 L 213 608.5 L 211.5 611 L 211 609.5 L 212.5 607 Z " /><path fill="rgb(248,219,132)" stroke="rgb(248,219,132)" stroke-width="1" opacity="1" d="M 162.5 42 Q 167.3 40.3 166 44.5 L 167 45.5 L 167 68 L 153.5 68 L 153 65 Q 155.7 66.1 155 63.5 L 157 59.5 L 158 49.5 L 162.5 42 Z " /><path fill="rgb(248,219,132)" stroke="rgb(248,219,132)" stroke-width="1" opacity="1" d="M 150 72 L 162 72.5 L 154 93.5 L 144 130.5 L 142.5 132 L 142 125.5 L 143 124.5 L 143 118.5 L 144 117.5 L 144 111.5 L 145 110.5 L 148 82.5 L 150 72 Z " /><path fill="rgb(248,219,132)" stroke="rgb(248,219,132)" stroke-width="1" opacity="1" d="M 181 122 L 187.5 122 L 200.5 125 L 207 128.5 L 179.5 140 L 149.5 146 L 148.5 145 L 132.5 144 L 130 142.5 L 137.5 134 L 142.5 137 L 151.5 139 L 168.5 139 L 177.5 137 L 183 133.5 L 181 122 Z " /><path fill="rgb(248,219,132)" stroke="rgb(248,219,132)" stroke-width="1" opacity="1" d="M 107.5 133 Q 112.8 131.5 111 136 L 107.5 133 Z " /><path fill="rgb(248,219,132)" stroke="rgb(248,219,132)" stroke-width="1" opacity="1" d="M 106.5 142 L 120.5 148 L 122.5 148 L 126 148.5 L 110.5 180 L 106 175.5 L 106 173.5 L 106.5 142 Z " /><path fill="rgb(248,219,132)" stroke="rgb(248,219,132)" stroke-width="1" opacity="1" d="M 211.5 186 Q 235.6 193.9 250 211.5 Q 257.2 219.8 260 232.5 L 260 330.5 L 259 330.5 L 252 301.5 L 237 259.5 Q 227.3 234.7 208.5 219 L 191 204.5 Q 187.2 199.5 187 192 Q 201.4 191.6 211.5 186 Z " /><path fill="rgb(248,219,132)" stroke="rgb(248,219,132)" stroke-width="1" opacity="1" d="M 158.5 326 L 162 326.5 L 158.5 327 L 158.5 326 Z " /><path fill="rgb(248,219,132)" stroke="rgb(248,219,132)" stroke-width="1" opacity="1" d="M 210.5 453 L 211.5 455 L 210.5 453 Z " /><path fill="rgb(248,219,132)" stroke="rgb(248,219,132)" stroke-width="1" opacity="1" d="M 170.5 503 L 175 503.5 L 170.5 504 L 170.5 503 Z " /><path fill="rgb(248,219,132)" stroke="rgb(248,219,132)" stroke-width="1" opacity="1" d="M 164.5 504 L 168 504.5 L 164.5 505 L 164.5 504 Z " /><path fill="rgb(248,219,132)" stroke="rgb(248,219,132)" stroke-width="1" opacity="1" d="M 60 505 L 64 507.5 L 70 519.5 L 75 542.5 L 87 575.5 L 88 584.5 L 86 594 Q 93.4 594.6 97 600.5 L 100 606.5 L 98.5 606 Q 80.4 598.1 69 583.5 Q 62.4 575.6 60 563.5 L 60 505 Z " /><path fill="rgb(248,219,132)" stroke="rgb(248,219,132)" stroke-width="1" opacity="1" d="M 158.5 505 L 163 505.5 L 158.5 506 L 158.5 505 Z " /><path fill="rgb(248,219,132)" stroke="rgb(248,219,132)" stroke-width="1" opacity="1" d="M 152.5 506 L 156 506.5 L 152.5 507 L 152.5 506 Z " /><path fill="rgb(255,229,157)" stroke="rgb(255,229,157)" stroke-width="1" opacity="1" d="M 107 186 L 117.5 190 L 132.5 193 L 141.5 193 L 142.5 194 L 177.5 194 L 178.5 193 L 186 193 L 186 197.5 L 192 208 Q 207 217.2 219 230.5 L 227 241.5 L 240 269.5 L 250 297.5 L 260 335.5 L 260 435.5 L 257 441.5 L 247 497.5 L 236.5 539 L 236 318.5 L 228.5 309 L 212.5 302 L 192 298 Q 191 284.9 182.5 278 L 168.5 271 L 151.5 271 Q 141.8 273.3 136 279.5 Q 128.8 286.2 128 298 L 101.5 304 Q 91.6 307.1 86 314.5 L 84 318.5 L 84 561.5 Q 85.5 568 90.5 571 L 109.5 579 L 124.5 582 L 142.5 583 L 143.5 584 L 176.5 584 L 177.5 583 L 188.5 583 L 210.5 579 L 225.5 573 L 225 574.5 L 220 590.5 L 211 611 L 195.5 616 L 180.5 619 L 148.5 620 L 147.5 619 L 139.5 619 L 124.5 616 L 102 608 L 101 602.5 L 93.5 594 L 88 592 Q 89.7 587.5 89 579.5 L 78 549.5 L 69 513.5 L 62.5 504 L 60 502.5 L 60 357.5 L 64 348.5 L 67 328.5 L 71 312.5 L 71 307.5 L 75 291.5 L 75 286.5 L 83 250.5 Q 92.7 215.5 107 186 Z " /><path fill="rgb(255,229,157)" stroke="rgb(255,229,157)" stroke-width="1" opacity="1" d="M 155.5 290 L 164.5 290 L 171 294.5 Q 175.7 298.3 174 308.5 L 167.5 317 L 158.5 319 Q 150.4 317.6 147 311.5 L 145 302.5 Q 146.1 295.1 151.5 292 L 155.5 290 Z " /><path fill="rgb(255,229,157)" stroke="rgb(255,229,157)" stroke-width="1" opacity="1" d="M 143.5 319 L 144.5 321 L 143.5 319 Z " /><path fill="rgb(255,229,157)" stroke="rgb(255,229,157)" stroke-width="1" opacity="1" d="M 176.5 319 L 175.5 321 L 176.5 319 Z " /><path fill="rgb(255,229,157)" stroke="rgb(255,229,157)" stroke-width="1" opacity="1" d="M 212.5 461 L 213 466.5 L 212 466.5 L 212.5 461 Z " /><path fill="rgb(255,229,157)" stroke="rgb(255,229,157)" stroke-width="1" opacity="1" d="M 211.5 469 L 212 473.5 L 211 473.5 L 211.5 469 Z " /><path fill="rgb(255,229,157)" stroke="rgb(255,229,157)" stroke-width="1" opacity="1" d="M 210.5 486 L 211 489.5 L 210 489.5 L 210.5 486 Z " /><path fill="rgb(255,229,157)" stroke="rgb(255,229,157)" stroke-width="1" opacity="1" d="M 202.5 499 L 206 499.5 L 202.5 500 L 202.5 499 Z " /><path fill="rgb(255,229,157)" stroke="rgb(255,229,157)" stroke-width="1" opacity="1" d="M 197.5 500 L 200 500.5 L 197.5 501 L 197.5 500 Z " /><path fill="rgb(124,98,67)" stroke="rgb(124,98,67)" stroke-width="1" opacity="1" d="M 155.5 41 L 159 41.5 L 155.5 42 L 155.5 41 Z " /><path fill="rgb(124,98,67)" stroke="rgb(124,98,67)" stroke-width="1" opacity="1" d="M 161.5 41 L 165 41.5 L 161.5 42 L 161.5 41 Z " /><path fill="rgb(124,98,67)" stroke="rgb(124,98,67)" stroke-width="1" opacity="1" d="M 158.5 68 L 162 68.5 L 158.5 69 L 158.5 68 Z " /><path fill="rgb(124,98,67)" stroke="rgb(124,98,67)" stroke-width="1" opacity="1" d="M 145.5 188 L 148 188.5 L 145.5 189 L 145.5 188 Z " /><path fill="rgb(124,98,67)" stroke="rgb(124,98,67)" stroke-width="1" opacity="1" d="M 172.5 188 L 175 188.5 L 172.5 189 L 172.5 188 Z " /><path fill="rgb(124,98,67)" stroke="rgb(124,98,67)" stroke-width="1" opacity="1" d="M 82.5 198 L 81.5 200 L 82.5 198 Z " /><path fill="rgb(124,98,67)" stroke="rgb(124,98,67)" stroke-width="1" opacity="1" d="M 237.5 198 L 238.5 200 L 237.5 198 Z " /><path fill="rgb(124,98,67)" stroke="rgb(124,98,67)" stroke-width="1" opacity="1" d="M 77.5 202 L 72.5 208 L 77.5 202 Z " /><path fill="rgb(124,98,67)" stroke="rgb(124,98,67)" stroke-width="1" opacity="1" d="M 242.5 202 L 247.5 208 L 242.5 202 Z " /><path fill="rgb(124,98,67)" stroke="rgb(124,98,67)" stroke-width="1" opacity="1" d="M 142.5 281 L 141.5 283 L 142.5 281 Z " /><path fill="rgb(124,98,67)" stroke="rgb(124,98,67)" stroke-width="1" opacity="1" d="M 177.5 281 L 178.5 283 L 177.5 281 Z " /><path fill="rgb(124,98,67)" stroke="rgb(124,98,67)" stroke-width="1" opacity="1" d="M 132.5 301 L 131.5 303 L 130 302.5 L 132.5 301 Z " /><path fill="rgb(124,98,67)" stroke="rgb(124,98,67)" stroke-width="1" opacity="1" d="M 187.5 301 L 190 302.5 L 188.5 303 L 187.5 301 Z " /><path fill="rgb(124,98,67)" stroke="rgb(124,98,67)" stroke-width="1" opacity="1" d="M 91.5 310 L 88.5 314 L 91.5 310 Z " /><path fill="rgb(124,98,67)" stroke="rgb(124,98,67)" stroke-width="1" opacity="1" d="M 228.5 310 L 231.5 314 L 228.5 310 Z " /><path fill="rgb(124,98,67)" stroke="rgb(124,98,67)" stroke-width="1" opacity="1" d="M 84.5 318 L 85 559.5 L 84 559.5 L 84.5 318 Z " /><path fill="rgb(124,98,67)" stroke="rgb(124,98,67)" stroke-width="1" opacity="1" d="M 235.5 318 L 236 559.5 L 235 559.5 L 235.5 318 Z " /><path fill="rgb(124,98,67)" stroke="rgb(124,98,67)" stroke-width="1" opacity="1" d="M 59.5 542 L 60 548.5 L 59 548.5 L 59.5 542 Z " /><path fill="rgb(124,98,67)" stroke="rgb(124,98,67)" stroke-width="1" opacity="1" d="M 260.5 542 L 261 547.5 L 260 547.5 L 260.5 542 Z " /><path fill="rgb(124,98,67)" stroke="rgb(124,98,67)" stroke-width="1" opacity="1" d="M 233.5 565 L 229.5 570 L 233.5 565 Z " /><path fill="rgb(124,98,67)" stroke="rgb(124,98,67)" stroke-width="1" opacity="1" d="M 87.5 566 L 89.5 569 L 87.5 566 Z " /><path fill="rgb(124,98,67)" stroke="rgb(124,98,67)" stroke-width="1" opacity="1" d="M 145.5 583 L 149 583.5 L 145.5 584 L 145.5 583 Z " /><path fill="rgb(124,98,67)" stroke="rgb(124,98,67)" stroke-width="1" opacity="1" d="M 171.5 583 L 175 583.5 L 171.5 584 L 171.5 583 Z " /><path fill="rgb(124,98,67)" stroke="rgb(124,98,67)" stroke-width="1" opacity="1" d="M 72.5 588 L 77.5 594 L 72.5 588 Z " /><path fill="rgb(124,98,67)" stroke="rgb(124,98,67)" stroke-width="1" opacity="1" d="M 247.5 588 L 242.5 594 L 247.5 588 Z " /><path fill="rgb(124,98,67)" stroke="rgb(124,98,67)" stroke-width="1" opacity="1" d="M 81.5 596 L 82.5 598 L 81.5 596 Z " /><path fill="rgb(124,98,67)" stroke="rgb(124,98,67)" stroke-width="1" opacity="1" d="M 238.5 596 L 237.5 598 L 238.5 596 Z " /><path fill="rgb(253,237,212)" stroke="rgb(253,237,212)" stroke-width="1" opacity="1" d="M 143.5 281 L 141.5 284 L 143.5 281 Z " /><path fill="rgb(253,237,212)" stroke="rgb(253,237,212)" stroke-width="1" opacity="1" d="M 176.5 281 L 178.5 284 L 176.5 281 Z " /><path fill="rgb(253,237,212)" stroke="rgb(253,237,212)" stroke-width="1" opacity="1" d="M 145.5 286 L 141.5 291 L 145.5 286 Z " /><path fill="rgb(253,237,212)" stroke="rgb(253,237,212)" stroke-width="1" opacity="1" d="M 174.5 286 L 178.5 291 L 174.5 286 Z " /><path fill="rgb(253,237,212)" stroke="rgb(253,237,212)" stroke-width="1" opacity="1" d="M 93.5 315 L 92.5 317 L 93.5 315 Z " /><path fill="rgb(253,237,212)" stroke="rgb(253,237,212)" stroke-width="1" opacity="1" d="M 226.5 315 L 227.5 317 L 226.5 315 Z " /><path fill="rgb(253,237,212)" stroke="rgb(253,237,212)" stroke-width="1" opacity="1" d="M 140.5 316 L 141.5 318 L 140.5 316 Z " /><path fill="rgb(253,237,212)" stroke="rgb(253,237,212)" stroke-width="1" opacity="1" d="M 173.5 322 L 172.5 324 L 173.5 322 Z " /><path fill="rgb(253,237,212)" stroke="rgb(253,237,212)" stroke-width="1" opacity="1" d="M 202.5 343 L 205 343.5 L 202.5 344 L 202.5 343 Z " /><path fill="rgb(253,237,212)" stroke="rgb(253,237,212)" stroke-width="1" opacity="1" d="M 207.5 344 L 209.5 347 L 207.5 344 Z " /><path fill="rgb(253,237,212)" stroke="rgb(253,237,212)" stroke-width="1" opacity="1" d="M 164.5 345 L 161.5 349 L 164.5 345 Z " /><path fill="rgb(253,237,212)" stroke="rgb(253,237,212)" stroke-width="1" opacity="1" d="M 182.5 345 L 181.5 347 L 182.5 345 Z " /><path fill="rgb(253,237,212)" stroke="rgb(253,237,212)" stroke-width="1" opacity="1" d="M 194.5 345 L 196.5 346 L 198 345.5 L 195.5 347 L 194.5 345 Z " /><path fill="rgb(253,237,212)" stroke="rgb(253,237,212)" stroke-width="1" opacity="1" d="M 136.5 346 L 137.5 348 L 136.5 346 Z " /><path fill="rgb(253,237,212)" stroke="rgb(253,237,212)" stroke-width="1" opacity="1" d="M 118.5 347 L 119.5 349 L 118.5 347 Z " /><path fill="rgb(253,237,212)" stroke="rgb(253,237,212)" stroke-width="1" opacity="1" d="M 147.5 347 L 145.5 350 L 147.5 347 Z " /><path fill="rgb(253,237,212)" stroke="rgb(253,237,212)" stroke-width="1" opacity="1" d="M 175.5 348 L 177 350.5 L 176 350.5 L 175.5 348 Z " /><path fill="rgb(253,237,212)" stroke="rgb(253,237,212)" stroke-width="1" opacity="1" d="M 189.5 350 L 187.5 353 L 189.5 350 Z " /><path fill="rgb(253,237,212)" stroke="rgb(253,237,212)" stroke-width="1" opacity="1" d="M 131.5 352 L 130.5 354 L 131.5 352 Z " /><path fill="rgb(253,237,212)" stroke="rgb(253,237,212)" stroke-width="1" opacity="1" d="M 114.5 353 L 114 354.5 L 113.5 359 L 113 354.5 L 114.5 353 Z " /><path fill="rgb(253,237,212)" stroke="rgb(253,237,212)" stroke-width="1" opacity="1" d="M 107.5 354 L 108 359.5 L 107 359.5 L 107.5 354 Z " /><path fill="rgb(253,237,212)" stroke="rgb(253,237,212)" stroke-width="1" opacity="1" d="M 134.5 354 L 136 356.5 L 134 355.5 L 134.5 354 Z " /><path fill="rgb(253,237,212)" stroke="rgb(253,237,212)" stroke-width="1" opacity="1" d="M 169.5 354 L 167.5 357 L 169.5 354 Z " /><path fill="rgb(253,237,212)" stroke="rgb(253,237,212)" stroke-width="1" opacity="1" d="M 157.5 355 L 156.5 357 L 157.5 355 Z " /><path fill="rgb(253,237,212)" stroke="rgb(253,237,212)" stroke-width="1" opacity="1" d="M 116.5 357 Q 120.3 356.3 121 358.5 L 119.5 358 L 115.5 359 L 116.5 357 Z " /><path fill="rgb(253,237,212)" stroke="rgb(253,237,212)" stroke-width="1" opacity="1" d="M 176.5 362 L 175.5 364 L 176.5 362 Z " /><path fill="rgb(253,237,212)" stroke="rgb(253,237,212)" stroke-width="1" opacity="1" d="M 209.5 362 L 208.5 364 L 205 363.5 L 209.5 362 Z " /><path fill="rgb(253,237,212)" stroke="rgb(253,237,212)" stroke-width="1" opacity="1" d="M 126.5 369 L 125.5 371 L 126.5 369 Z " /><path fill="rgb(253,237,212)" stroke="rgb(253,237,212)" stroke-width="1" opacity="1" d="M 162.5 374 L 160.5 377 L 162.5 374 Z " /><path fill="rgb(253,237,212)" stroke="rgb(253,237,212)" stroke-width="1" opacity="1" d="M 195.5 374 L 195 375.5 L 194.5 377 L 194 375.5 L 195.5 374 Z " /><path fill="rgb(253,237,212)" stroke="rgb(253,237,212)" stroke-width="1" opacity="1" d="M 184.5 377 Q 187.5 378.5 184.5 380 Q 181.5 378.5 184.5 377 Z " /><path fill="rgb(253,237,212)" stroke="rgb(253,237,212)" stroke-width="1" opacity="1" d="M 174.5 378 L 175 380.5 L 174 380.5 L 174.5 378 Z " /><path fill="rgb(253,237,212)" stroke="rgb(253,237,212)" stroke-width="1" opacity="1" d="M 193.5 378 L 194 385.5 L 193 385.5 L 193.5 378 Z " /><path fill="rgb(253,237,212)" stroke="rgb(253,237,212)" stroke-width="1" opacity="1" d="M 116.5 380 L 116 381.5 L 115.5 385 L 115 381.5 L 116.5 380 Z " /><path fill="rgb(253,237,212)" stroke="rgb(253,237,212)" stroke-width="1" opacity="1" d="M 206.5 381 L 208 383.5 L 206 382.5 L 206.5 381 Z " /><path fill="rgb(253,237,212)" stroke="rgb(253,237,212)" stroke-width="1" opacity="1" d="M 109.5 382 L 110 385.5 L 109 385.5 L 109.5 382 Z " /><path fill="rgb(253,237,212)" stroke="rgb(253,237,212)" stroke-width="1" opacity="1" d="M 178.5 382 L 180.5 385 L 178.5 382 Z " /><path fill="rgb(253,237,212)" stroke="rgb(253,237,212)" stroke-width="1" opacity="1" d="M 134.5 383 L 135 390.5 L 134 390.5 L 134.5 383 Z " /><path fill="rgb(253,237,212)" stroke="rgb(253,237,212)" stroke-width="1" opacity="1" d="M 120.5 385 L 123 385.5 L 120.5 386 L 120.5 385 Z " /><path fill="rgb(253,237,212)" stroke="rgb(253,237,212)" stroke-width="1" opacity="1" d="M 111.5 389 L 112.5 391 L 111.5 389 Z " /><path fill="rgb(253,237,212)" stroke="rgb(253,237,212)" stroke-width="1" opacity="1" d="M 177.5 389 L 178.5 391 L 177.5 389 Z " /><path fill="rgb(253,237,212)" stroke="rgb(253,237,212)" stroke-width="1" opacity="1" d="M 187.5 419 L 190.5 423 L 187.5 419 Z " /><path fill="rgb(253,237,212)" stroke="rgb(253,237,212)" stroke-width="1" opacity="1" d="M 165.5 427 L 164.5 429 L 165.5 427 Z " /><path fill="rgb(253,237,212)" stroke="rgb(253,237,212)" stroke-width="1" opacity="1" d="M 194.5 428 L 195.5 430 L 194.5 428 Z " /><path fill="rgb(253,237,212)" stroke="rgb(253,237,212)" stroke-width="1" opacity="1" d="M 196.5 431 L 197.5 433 L 196.5 431 Z " /><path fill="rgb(253,237,212)" stroke="rgb(253,237,212)" stroke-width="1" opacity="1" d="M 198.5 434 L 199.5 436 L 198.5 434 Z " /><path fill="rgb(253,237,212)" stroke="rgb(253,237,212)" stroke-width="1" opacity="1" d="M 202.5 440 L 203.5 442 L 202.5 440 Z " /><path fill="rgb(253,237,212)" stroke="rgb(253,237,212)" stroke-width="1" opacity="1" d="M 204.5 443 L 205.5 445 L 204.5 443 Z " /><path fill="rgb(253,237,212)" stroke="rgb(253,237,212)" stroke-width="1" opacity="1" d="M 206.5 446 L 208.5 449 L 206.5 446 Z " /><path fill="rgb(253,237,212)" stroke="rgb(253,237,212)" stroke-width="1" opacity="1" d="M 209.5 450 L 212.5 454 L 209.5 450 Z " /><path fill="rgb(253,237,212)" stroke="rgb(253,237,212)" stroke-width="1" opacity="1" d="M 107.5 455 L 109 455.5 L 105.5 458 L 107.5 455 Z " /><path fill="rgb(253,237,212)" stroke="rgb(253,237,212)" stroke-width="1" opacity="1" d="M 213.5 460 L 214 466.5 L 213 466.5 L 213.5 460 Z " /><path fill="rgb(253,237,212)" stroke="rgb(253,237,212)" stroke-width="1" opacity="1" d="M 105.5 461 L 106 463.5 L 105 463.5 L 105.5 461 Z " /><path fill="rgb(253,237,212)" stroke="rgb(253,237,212)" stroke-width="1" opacity="1" d="M 106.5 466 L 107 471.5 L 106 471.5 L 106.5 466 Z " /><path fill="rgb(253,237,212)" stroke="rgb(253,237,212)" stroke-width="1" opacity="1" d="M 212.5 468 L 213 480.5 L 212 480.5 L 212.5 468 Z " /><path fill="rgb(253,237,212)" stroke="rgb(253,237,212)" stroke-width="1" opacity="1" d="M 107.5 474 L 108 477.5 L 107 477.5 L 107.5 474 Z " /><path fill="rgb(253,237,212)" stroke="rgb(253,237,212)" stroke-width="1" opacity="1" d="M 108.5 482 L 109 489.5 L 108 489.5 L 108.5 482 Z " /><path fill="rgb(253,237,212)" stroke="rgb(253,237,212)" stroke-width="1" opacity="1" d="M 211.5 483 L 212 485.5 L 211 485.5 L 211.5 483 Z " /><path fill="rgb(253,237,212)" stroke="rgb(253,237,212)" stroke-width="1" opacity="1" d="M 109.5 491 L 110 493.5 L 109 493.5 L 109.5 491 Z " /><path fill="rgb(253,237,212)" stroke="rgb(253,237,212)" stroke-width="1" opacity="1" d="M 110.5 495 L 111 500.5 L 110 500.5 L 110.5 495 Z " /><path fill="rgb(253,237,212)" stroke="rgb(253,237,212)" stroke-width="1" opacity="1" d="M 190.5 501 L 193 501.5 L 190.5 502 L 190.5 501 Z " /><path fill="rgb(253,237,212)" stroke="rgb(253,237,212)" stroke-width="1" opacity="1" d="M 183.5 502 L 187 502.5 L 183.5 503 L 183.5 502 Z " /><path fill="rgb(253,237,212)" stroke="rgb(253,237,212)" stroke-width="1" opacity="1" d="M 177.5 503 L 182 503.5 L 177.5 504 L 177.5 503 Z " /><path fill="rgb(253,237,212)" stroke="rgb(253,237,212)" stroke-width="1" opacity="1" d="M 171.5 504 L 176 504.5 L 171.5 505 L 171.5 504 Z " /><path fill="rgb(253,237,212)" stroke="rgb(253,237,212)" stroke-width="1" opacity="1" d="M 165.5 505 L 170 505.5 L 165.5 506 L 165.5 505 Z " /><path fill="rgb(253,237,212)" stroke="rgb(253,237,212)" stroke-width="1" opacity="1" d="M 158.5 506 L 164 506.5 L 158.5 507 L 158.5 506 Z " /><path fill="rgb(253,237,212)" stroke="rgb(253,237,212)" stroke-width="1" opacity="1" d="M 151.5 507 L 157 507.5 L 151.5 508 L 151.5 507 Z " /><path fill="rgb(253,237,212)" stroke="rgb(253,237,212)" stroke-width="1" opacity="1" d="M 144.5 508 L 150 508.5 L 144.5 509 L 144.5 508 Z " /><path fill="rgb(253,237,212)" stroke="rgb(253,237,212)" stroke-width="1" opacity="1" d="M 138.5 509 L 142 509.5 L 138.5 510 L 138.5 509 Z " /><path fill="rgb(253,237,212)" stroke="rgb(253,237,212)" stroke-width="1" opacity="1" d="M 130.5 510 L 134 510.5 L 130.5 511 L 130.5 510 Z " /><path fill="rgb(253,237,212)" stroke="rgb(253,237,212)" stroke-width="1" opacity="1" d="M 91.5 563 L 92.5 565 L 91.5 563 Z " /><path fill="rgb(253,237,212)" stroke="rgb(253,237,212)" stroke-width="1" opacity="1" d="M 228.5 563 L 227.5 565 L 228.5 563 Z " /><path fill="rgb(255,242,223)" stroke="rgb(255,242,223)" stroke-width="1" opacity="1" d="M 140.5 284 L 139.5 286 L 140.5 284 Z " /><path fill="rgb(255,242,223)" stroke="rgb(255,242,223)" stroke-width="1" opacity="1" d="M 147.5 284 L 146.5 286 L 141.5 290 L 145.5 285 L 147.5 284 Z " /><path fill="rgb(255,242,223)" stroke="rgb(255,242,223)" stroke-width="1" opacity="1" d="M 172.5 284 L 179 289.5 L 174.5 286 L 172.5 284 Z " /><path fill="rgb(255,242,223)" stroke="rgb(255,242,223)" stroke-width="1" opacity="1" d="M 179.5 284 L 180.5 286 L 179.5 284 Z " /><path fill="rgb(255,242,223)" stroke="rgb(255,242,223)" stroke-width="1" opacity="1" d="M 180.5 315 L 180 316.5 L 173.5 324 L 179 317.5 L 180.5 315 Z " /><path fill="rgb(255,242,223)" stroke="rgb(255,242,223)" stroke-width="1" opacity="1" d="M 140.5 317 L 146.5 324 L 140.5 317 Z " /><path fill="rgb(255,242,223)" stroke="rgb(255,242,223)" stroke-width="1" opacity="1" d="M 125.5 344 L 130 344.5 L 125.5 345 L 125.5 344 Z " /><path fill="rgb(255,242,223)" stroke="rgb(255,242,223)" stroke-width="1" opacity="1" d="M 208.5 344 L 209.5 346 L 208.5 344 Z " /><path fill="rgb(255,242,223)" stroke="rgb(255,242,223)" stroke-width="1" opacity="1" d="M 163.5 345 L 161.5 348 L 163.5 345 Z " /><path fill="rgb(255,242,223)" stroke="rgb(255,242,223)" stroke-width="1" opacity="1" d="M 171.5 345 L 175 347.5 L 172.5 346 L 171.5 345 Z " /><path fill="rgb(255,242,223)" stroke="rgb(255,242,223)" stroke-width="1" opacity="1" d="M 111.5 347 L 109 350.5 L 107.5 354 L 107 352.5 L 111.5 347 Z " /><path fill="rgb(255,242,223)" stroke="rgb(255,242,223)" stroke-width="1" opacity="1" d="M 119.5 347 L 121 349.5 L 120 349.5 L 119.5 347 Z " /><path fill="rgb(255,242,223)" stroke="rgb(255,242,223)" stroke-width="1" opacity="1" d="M 155.5 347 L 157.5 350 L 155.5 347 Z " /><path fill="rgb(255,242,223)" stroke="rgb(255,242,223)" stroke-width="1" opacity="1" d="M 203.5 349 L 204.5 351 L 203.5 349 Z " /><path fill="rgb(255,242,223)" stroke="rgb(255,242,223)" stroke-width="1" opacity="1" d="M 201.5 350 L 198.5 354 L 201.5 350 Z " /><path fill="rgb(255,242,223)" stroke="rgb(255,242,223)" stroke-width="1" opacity="1" d="M 167.5 351 Q 171.3 349.8 170 353.5 L 166 356.5 L 169 352 L 166.5 353 L 167.5 351 Z " /><path fill="rgb(255,242,223)" stroke="rgb(255,242,223)" stroke-width="1" opacity="1" d="M 132.5 352 L 133.5 354 L 132.5 352 Z " /><path fill="rgb(255,242,223)" stroke="rgb(255,242,223)" stroke-width="1" opacity="1" d="M 115.5 353 L 114.5 355 L 115.5 353 Z " /><path fill="rgb(255,242,223)" stroke="rgb(255,242,223)" stroke-width="1" opacity="1" d="M 134.5 356 L 137 357.5 L 135.5 358 L 134.5 356 Z " /><path fill="rgb(255,242,223)" stroke="rgb(255,242,223)" stroke-width="1" opacity="1" d="M 157.5 356 L 161 358.5 L 159.5 359 L 155 357.5 L 157.5 356 Z " /><path fill="rgb(255,242,223)" stroke="rgb(255,242,223)" stroke-width="1" opacity="1" d="M 115.5 357 L 114.5 359 L 115.5 357 Z " /><path fill="rgb(255,242,223)" stroke="rgb(255,242,223)" stroke-width="1" opacity="1" d="M 107.5 360 L 110 363.5 L 107 361.5 L 107.5 360 Z " /><path fill="rgb(255,242,223)" stroke="rgb(255,242,223)" stroke-width="1" opacity="1" d="M 120.5 362 L 119.5 364 L 120.5 362 Z " /><path fill="rgb(255,242,223)" stroke="rgb(255,242,223)" stroke-width="1" opacity="1" d="M 159.5 362 L 158.5 364 L 159.5 362 Z " /><path fill="rgb(255,242,223)" stroke="rgb(255,242,223)" stroke-width="1" opacity="1" d="M 126.5 365 L 129 365.5 L 126.5 366 L 126.5 365 Z " /><path fill="rgb(255,242,223)" stroke="rgb(255,242,223)" stroke-width="1" opacity="1" d="M 180.5 371 L 178.5 374 L 180.5 371 Z " /><path fill="rgb(255,242,223)" stroke="rgb(255,242,223)" stroke-width="1" opacity="1" d="M 188.5 372 L 189.5 374 L 188.5 372 Z " /><path fill="rgb(255,242,223)" stroke="rgb(255,242,223)" stroke-width="1" opacity="1" d="M 196.5 372 L 194.5 375 L 196.5 372 Z " /><path fill="rgb(255,242,223)" stroke="rgb(255,242,223)" stroke-width="1" opacity="1" d="M 205.5 372 L 208 375.5 L 207 375.5 L 205.5 372 Z " /><path fill="rgb(255,242,223)" stroke="rgb(255,242,223)" stroke-width="1" opacity="1" d="M 171.5 373 L 175 377.5 L 174 377.5 L 171.5 373 Z " /><path fill="rgb(255,242,223)" stroke="rgb(255,242,223)" stroke-width="1" opacity="1" d="M 113.5 374 L 111 377.5 L 109.5 382 L 109 379.5 L 113.5 374 Z " /><path fill="rgb(255,242,223)" stroke="rgb(255,242,223)" stroke-width="1" opacity="1" d="M 145.5 374 L 143.5 377 L 145.5 374 Z " /><path fill="rgb(255,242,223)" stroke="rgb(255,242,223)" stroke-width="1" opacity="1" d="M 153.5 374 L 157 376.5 L 154.5 375 L 153.5 374 Z " /><path fill="rgb(255,242,223)" stroke="rgb(255,242,223)" stroke-width="1" opacity="1" d="M 161.5 374 L 160.5 376 L 161.5 374 Z " /><path fill="rgb(255,242,223)" stroke="rgb(255,242,223)" stroke-width="1" opacity="1" d="M 122.5 375 L 123 379.5 L 122 379.5 L 122.5 375 Z " /><path fill="rgb(255,242,223)" stroke="rgb(255,242,223)" stroke-width="1" opacity="1" d="M 137.5 375 L 138.5 377 L 137.5 375 Z " /><path fill="rgb(255,242,223)" stroke="rgb(255,242,223)" stroke-width="1" opacity="1" d="M 184.5 378 L 185.5 380 L 184.5 378 Z " /><path fill="rgb(255,242,223)" stroke="rgb(255,242,223)" stroke-width="1" opacity="1" d="M 189.5 380 L 190.5 382 L 189.5 380 Z " /><path fill="rgb(255,242,223)" stroke="rgb(255,242,223)" stroke-width="1" opacity="1" d="M 207.5 380 L 209 386.5 L 206 388.5 Q 208.8 387.8 208 383.5 L 207.5 380 Z " /><path fill="rgb(255,242,223)" stroke="rgb(255,242,223)" stroke-width="1" opacity="1" d="M 174.5 381 L 175 382.5 Q 171.5 384 174 385.5 Q 175 390 172.5 391 L 173 389.5 L 172 384.5 L 174.5 381 Z " /><path fill="rgb(255,242,223)" stroke="rgb(255,242,223)" stroke-width="1" opacity="1" d="M 132.5 382 L 131.5 384 L 132.5 382 Z " /><path fill="rgb(255,242,223)" stroke="rgb(255,242,223)" stroke-width="1" opacity="1" d="M 178.5 383 L 179.5 385 L 177 384.5 L 178.5 383 Z " /><path fill="rgb(255,242,223)" stroke="rgb(255,242,223)" stroke-width="1" opacity="1" d="M 148.5 384 L 149.5 386 L 148.5 384 Z " /><path fill="rgb(255,242,223)" stroke="rgb(255,242,223)" stroke-width="1" opacity="1" d="M 123.5 385 Q 125.8 384.3 125 386.5 L 123.5 385 Z " /><path fill="rgb(255,242,223)" stroke="rgb(255,242,223)" stroke-width="1" opacity="1" d="M 109.5 386 L 111 389.5 L 110 389.5 L 109.5 386 Z " /><path fill="rgb(255,242,223)" stroke="rgb(255,242,223)" stroke-width="1" opacity="1" d="M 156.5 386 L 157 390.5 L 156 390.5 L 156.5 386 Z " /><path fill="rgb(255,242,223)" stroke="rgb(255,242,223)" stroke-width="1" opacity="1" d="M 190.5 388 L 189.5 390 L 190.5 388 Z " /><path fill="rgb(255,242,223)" stroke="rgb(255,242,223)" stroke-width="1" opacity="1" d="M 143.5 389 L 144.5 391 L 143.5 389 Z " /><path fill="rgb(255,242,223)" stroke="rgb(255,242,223)" stroke-width="1" opacity="1" d="M 134.5 391 L 135.5 393 L 134.5 391 Z " /><path fill="rgb(255,242,223)" stroke="rgb(255,242,223)" stroke-width="1" opacity="1" d="M 188.5 419 L 193 423.5 L 204 440.5 L 202 439.5 L 188.5 419 Z " /><path fill="rgb(255,242,223)" stroke="rgb(255,242,223)" stroke-width="1" opacity="1" d="M 153.5 432 L 155 432.5 L 136.5 442 L 137.5 440 L 153.5 432 Z " /><path fill="rgb(255,242,223)" stroke="rgb(255,242,223)" stroke-width="1" opacity="1" d="M 127.5 445 L 129 445.5 L 123.5 448 L 123.5 447 L 127.5 445 Z " /><path fill="rgb(255,242,223)" stroke="rgb(255,242,223)" stroke-width="1" opacity="1" d="M 208.5 447 L 215 454.5 L 215 456.5 L 214 456.5 L 208.5 447 Z " /><path fill="rgb(255,242,223)" stroke="rgb(255,242,223)" stroke-width="1" opacity="1" d="M 105.5 455 L 107 455.5 Q 103.5 457 105 463.5 L 108 478.5 L 108 489.5 Q 110.9 493.1 110 500.5 Q 113 503.5 112 510.5 L 114 512.5 L 111 510.5 L 111 504.5 L 109 500.5 L 109 495.5 L 107 489.5 L 107 478.5 L 105 471.5 L 104 456.5 L 105.5 455 Z " /><path fill="rgb(255,242,223)" stroke="rgb(255,242,223)" stroke-width="1" opacity="1" d="M 214.5 459 L 215 461.5 L 214 461.5 L 214.5 459 Z " /><path fill="rgb(255,242,223)" stroke="rgb(255,242,223)" stroke-width="1" opacity="1" d="M 213.5 467 L 214 470.5 L 213 470.5 L 213.5 467 Z " /><path fill="rgb(255,242,223)" stroke="rgb(255,242,223)" stroke-width="1" opacity="1" d="M 213.5 474 L 214 478.5 L 213 478.5 L 213.5 474 Z " /><path fill="rgb(255,242,223)" stroke="rgb(255,242,223)" stroke-width="1" opacity="1" d="M 212.5 481 L 213 483.5 L 212 483.5 L 212.5 481 Z " /><path fill="rgb(255,242,223)" stroke="rgb(255,242,223)" stroke-width="1" opacity="1" d="M 211.5 486 L 212 493.5 L 211 498.5 L 208.5 501 L 187.5 503 L 187.5 502 L 202.5 501 L 210 499 L 211.5 486 Z " /><path fill="rgb(255,242,223)" stroke="rgb(255,242,223)" stroke-width="1" opacity="1" d="M 142.5 509 L 145 509.5 L 142.5 510 L 142.5 509 Z " /><path fill="rgb(255,242,224)" stroke="rgb(255,242,224)" stroke-width="1" opacity="1" d="M 154.5 276 Q 163.4 274.6 168.5 277 Q 176.9 280.6 182 287.5 Q 187.3 293 187 303 L 191.5 304 L 193.5 304 Q 215.4 306.1 228 317.5 L 229.5 320 L 231 320.5 L 231 558.5 L 225.5 566 L 213.5 572 L 192.5 577 L 177.5 578 L 176.5 579 L 143.5 579 L 142.5 578 L 121.5 576 L 106.5 572 L 94.5 566 L 91 562.5 L 89 558.5 L 89 320 L 92 318.5 L 94.5 315 L 105.5 309 L 127.5 303 L 129.5 303 Q 135.2 304.8 133 298.5 Q 135.9 286.9 144.5 281 L 154.5 276 Z M 152 282 L 146 285 L 141 290 L 137 301 L 138 314 L 140 318 Q 145 325 155 327 Q 167 329 174 324 Q 180 320 182 313 L 182 296 L 179 290 Q 175 284 169 282 L 152 282 Z M 202 343 L 198 345 L 194 344 L 181 345 L 181 365 L 182 365 L 187 365 L 187 355 L 188 353 L 191 351 L 192 354 L 192 364 L 197 364 L 197 356 L 203 350 L 205 352 Q 207 358 204 360 L 204 364 L 210 364 L 211 359 L 211 348 L 210 346 Q 208 342 202 343 Z M 125 344 L 124 351 L 125 365 L 129 366 L 130 365 L 130 355 L 133 353 L 134 357 Q 135 359 140 358 Q 142 351 138 348 L 138 346 L 131 346 Q 131 342 125 344 Z M 164 345 L 160 350 L 160 357 L 158 357 L 158 350 L 156 347 Q 148 346 145 348 L 143 354 L 144 362 L 147 364 L 159 364 Q 161 363 160 360 L 161 360 L 161 362 L 171 362 L 171 364 L 177 364 L 177 348 L 173 345 L 164 345 Z M 112 347 L 107 353 L 107 362 L 110 364 L 120 364 L 121 363 Q 124 354 116 357 L 114 358 Q 113 354 117 353 Q 123 355 121 349 L 120 347 L 112 347 Z M 125 369 L 125 382 L 126 383 L 126 394 L 131 394 L 131 385 L 134 382 L 134 392 Q 135 394 140 393 Q 141 382 138 375 L 131 375 L 131 369 L 125 369 Z M 181 371 L 178 374 L 177 391 L 188 391 L 190 390 Q 193 388 191 382 Q 190 379 187 380 L 187 379 Q 193 381 190 374 Q 188 370 181 371 Z M 197 372 L 193 377 Q 192 385 194 389 L 199 390 Q 206 391 209 387 L 208 375 L 206 372 L 197 372 Z M 164 373 L 162 374 L 159 378 L 159 389 L 162 391 L 173 391 L 174 390 L 173 385 Q 177 383 175 377 Q 173 371 164 373 Z M 114 374 L 109 380 Q 108 387 110 390 L 114 392 L 123 392 Q 126 391 125 385 L 119 386 L 116 385 L 117 382 L 118 380 L 123 380 L 123 375 Q 120 373 114 374 Z M 146 374 L 143 377 L 143 390 L 147 392 Q 154 393 157 391 L 157 386 L 151 386 L 150 384 L 157 384 L 157 377 L 155 374 L 146 374 Z M 183 419 L 104 457 L 105 472 L 107 479 L 107 490 L 109 496 L 109 501 L 111 505 L 111 511 L 114 513 L 121 513 L 136 510 L 145 510 L 185 503 L 209 501 L 211 499 L 212 485 L 214 479 L 213 474 L 214 463 L 215 462 Q 217 453 212 451 L 207 447 L 202 437 L 193 424 Q 191 417 183 419 Z " /><path fill="rgb(255,242,224)" stroke="rgb(255,242,224)" stroke-width="1" opacity="1" d="M 167.5 352 Q 169.8 351.3 169 353.5 L 166 355.5 L 167.5 352 Z " /><path fill="rgb(255,242,224)" stroke="rgb(255,242,224)" stroke-width="1" opacity="1" d="M 150.5 357 L 155 357.5 L 152.5 359 L 150.5 357 Z " /><path fill="rgb(254,210,105)" stroke="rgb(254,210,105)" stroke-width="1" opacity="1" d="M 206.5 129 Q 212.3 128.3 213 132.5 Q 214.1 135.8 211.5 135 L 203.5 140 L 188.5 144 L 171.5 145 L 170.5 146 L 155.5 146 L 155.5 145 L 180.5 140 L 206.5 129 Z " /><path fill="rgb(254,210,105)" stroke="rgb(254,210,105)" stroke-width="1" opacity="1" d="M 105.5 186 L 105 187.5 Q 91.3 216.3 82 249.5 L 72 296.5 L 72 301.5 L 68 317.5 L 64 343.5 L 60.5 354 L 60 231.5 L 65 218.5 L 73 207 L 75 207 Q 73.9 204.3 76.5 205 L 86.5 196 L 105.5 186 Z " /><path fill="rgb(254,210,105)" stroke="rgb(254,210,105)" stroke-width="1" opacity="1" d="M 248.5 209 L 249.5 211 L 248.5 209 Z " /><path fill="rgb(254,210,105)" stroke="rgb(254,210,105)" stroke-width="1" opacity="1" d="M 155.5 282 Q 171 281 177 289.5 L 182 299.5 L 182 309.5 Q 179.5 318.5 172.5 323 Q 166.7 328.2 153.5 326 Q 145.4 323.1 141 316.5 Q 136.3 310.7 138 298.5 Q 140.1 291.1 145.5 287 L 155.5 282 Z M 155 290 L 151 292 Q 146 295 145 302 Q 144 309 147 313 Q 150 317 157 319 Q 165 320 169 317 Q 174 314 175 307 Q 176 300 173 297 Q 170 287 155 290 Z " /><path fill="rgb(254,210,105)" stroke="rgb(254,210,105)" stroke-width="1" opacity="1" d="M 200.5 345 Q 205.9 344.4 208 346 L 210 354.5 Q 207.5 356 209 361.5 L 207.5 363 L 206 361.5 L 206 349.5 L 204.5 348 Q 199.8 348.3 198 351.5 Q 195 354.5 196 361.5 L 194.5 363 L 193 362.5 L 193 354.5 L 194.5 355 Q 196.8 355.8 196 353.5 L 197 347 L 200.5 345 Z " /><path fill="rgb(254,210,105)" stroke="rgb(254,210,105)" stroke-width="1" opacity="1" d="M 127.5 346 L 129 346.5 L 126 348.5 L 127.5 346 Z " /><path fill="rgb(254,210,105)" stroke="rgb(254,210,105)" stroke-width="1" opacity="1" d="M 166.5 346 L 169.5 346 L 175 349 Q 177.2 352.6 176 361.5 L 173.5 363 L 172 360 Q 169.2 361.9 163 361 L 161 354.5 L 164.5 347 L 166.5 346 Z M 169 349 L 165 352 L 165 358 L 168 358 L 171 354 Q 172 350 169 349 Z " /><path fill="rgb(254,210,105)" stroke="rgb(254,210,105)" stroke-width="1" opacity="1" d="M 188.5 346 Q 193.8 344.8 195 347.5 L 194 350 L 188.5 349 L 187 349.5 L 188.5 346 Z " /><path fill="rgb(254,210,105)" stroke="rgb(254,210,105)" stroke-width="1" opacity="1" d="M 132.5 347 L 138 349.5 L 139 356 Q 135.3 357.5 136 354.5 L 135 351 L 130 351 L 130 348 L 132.5 347 Z " /><path fill="rgb(254,210,105)" stroke="rgb(254,210,105)" stroke-width="1" opacity="1" d="M 183.5 347 L 182.5 349 L 183.5 347 Z " /><path fill="rgb(254,210,105)" stroke="rgb(254,210,105)" stroke-width="1" opacity="1" d="M 113.5 348 L 119 349 Q 120.8 353.9 114.5 352 L 112 357.5 L 113 360 L 120 359 L 116.5 364 Q 110.3 365.3 109 361.5 L 108 355.5 L 113.5 348 Z " /><path fill="rgb(254,210,105)" stroke="rgb(254,210,105)" stroke-width="1" opacity="1" d="M 149.5 348 Q 154.6 347.4 156 350.5 L 157 355 Q 154.2 356.9 148 356 L 149.5 360 L 158 359 Q 158.8 362.8 155.5 364 Q 148.3 365.3 146 361.5 L 145 352.5 L 147.5 349 L 149.5 348 Z M 150 351 Q 149 354 152 353 Q 153 350 150 351 Z " /><path fill="rgb(254,210,105)" stroke="rgb(254,210,105)" stroke-width="1" opacity="1" d="M 182.5 355 L 185 356 Q 186.8 362.1 183.5 364 Q 180.5 361.2 182.5 355 Z " /><path fill="rgb(254,210,105)" stroke="rgb(254,210,105)" stroke-width="1" opacity="1" d="M 128.5 356 L 129 362.5 L 126 364 L 126 357.5 L 127.5 357 L 128.5 356 Z " /><path fill="rgb(254,210,105)" stroke="rgb(254,210,105)" stroke-width="1" opacity="1" d="M 127 370 L 130 371.5 Q 131 377 127.5 378 L 127 370 Z " /><path fill="rgb(254,210,105)" stroke="rgb(254,210,105)" stroke-width="1" opacity="1" d="M 181.5 373 Q 186.8 371.8 188 374.5 Q 189.1 377.8 186.5 377 L 183.5 376 L 182 379.5 L 189 382 L 190 386.5 Q 188.1 391.1 180.5 390 L 178 389 L 179.5 386 L 184.5 387 L 186 384 L 180 383 L 179 376.5 L 181.5 373 Z " /><path fill="rgb(254,210,105)" stroke="rgb(254,210,105)" stroke-width="1" opacity="1" d="M 198.5 373 Q 204.3 372.2 206 375.5 Q 207 381 203.5 382 Q 197.4 380.8 198 383.5 Q 198.8 385.8 202.5 385 L 205.5 384 Q 208.5 385.5 205.5 387 L 197.5 388 Q 192.7 386.8 194 379.5 L 198.5 373 Z M 201 376 L 199 378 Q 198 381 202 379 Q 203 375 201 376 Z " /><path fill="rgb(254,210,105)" stroke="rgb(254,210,105)" stroke-width="1" opacity="1" d="M 165.5 374 Q 171.7 373.3 173 377.5 Q 174 382 171.5 383 L 164.5 384 L 163 385.5 Q 164.3 388.3 169.5 387 Q 170.8 384.8 172 387.5 L 170.5 390 Q 161.8 391.8 160 386.5 Q 158.6 376.1 165.5 374 Z M 167 378 L 165 381 L 169 380 Q 170 377 167 378 Z " /><path fill="rgb(254,210,105)" stroke="rgb(254,210,105)" stroke-width="1" opacity="1" d="M 116.5 375 L 121 377.5 Q 119.6 380.3 115 379 L 114 385.5 L 118.5 388 L 123 387 Q 124.5 390.8 121.5 390 Q 120.2 392.3 115.5 391 L 111 387.5 L 110 382.5 L 114.5 376 L 116.5 375 Z " /><path fill="rgb(254,210,105)" stroke="rgb(254,210,105)" stroke-width="1" opacity="1" d="M 147.5 375 Q 153.3 374.2 155 377.5 L 156 380.5 Q 153.5 384.3 147 383 L 148.5 387 Q 153.8 385.8 155 388.5 Q 155.8 390.8 153.5 390 L 149.5 391 L 144 387.5 Q 142.9 379.3 145 376 L 147.5 375 Z " /><path fill="rgb(254,210,105)" stroke="rgb(254,210,105)" stroke-width="1" opacity="1" d="M 132.5 376 Q 137.3 375.3 138 378.5 Q 140.5 382 139 389.5 L 136.5 391 L 135 389.5 L 135 380 L 131.5 381 L 131 377.5 L 132.5 376 Z " /><path fill="rgb(254,210,105)" stroke="rgb(254,210,105)" stroke-width="1" opacity="1" d="M 127 385 L 130 385 L 130 391.5 Q 128.5 394.5 127 391.5 L 127 385 Z " /><path fill="rgb(254,210,105)" stroke="rgb(254,210,105)" stroke-width="1" opacity="1" d="M 184.5 420 L 189 422.5 L 198 436.5 L 196 437 Q 193.1 439.9 194 447.5 L 198.5 453 L 205.5 453 L 206 451.5 L 206.5 449 L 212 455.5 L 210.5 455 L 164.5 456 L 159 457 Q 158.8 450.6 153.5 448 Q 151.2 445.3 145.5 446 L 138 450.5 L 135 458 L 107.5 459 L 108.5 457 L 147.5 439 L 163.5 431 L 166.5 428 L 165 430.5 L 165 432.5 L 169.5 437 Q 179 439 181 433.5 L 182 427.5 L 179.5 424 L 178 423.5 L 184.5 420 Z " /><path fill="rgb(254,210,105)" stroke="rgb(254,210,105)" stroke-width="1" opacity="1" d="M 259.5 440 L 260 564.5 Q 255.1 582.6 242.5 593 Q 229.8 604.3 212.5 611 L 213 609.5 L 222 588.5 L 227 572.5 L 235 564.5 Q 237.7 556.2 236 543.5 L 246 507.5 L 252 477.5 L 252 472.5 L 259.5 440 Z " /><path fill="rgb(254,210,105)" stroke="rgb(254,210,105)" stroke-width="1" opacity="1" d="M 203.5 444 L 204.5 446 L 203.5 444 Z " /><path fill="rgb(254,210,105)" stroke="rgb(254,210,105)" stroke-width="1" opacity="1" d="M 212.5 457 L 213 458.5 L 212 459.5 L 210.5 474 L 205.5 473 Q 199 474.5 196 479.5 L 195 484.5 L 198.5 490 Q 201.2 492.8 207.5 492 L 209.5 489 L 210 490.5 Q 207.8 491.8 209 496.5 L 207.5 498 L 198.5 500 Q 197 497.5 191.5 499 L 190 499.5 Q 191.5 490.5 186.5 488 L 178.5 487 L 172 492.5 L 171 503 L 168.5 504 L 139.5 508 L 140 506.5 L 140 503.5 L 135.5 499 L 131.5 498 Q 124.9 498.9 122 503.5 L 121 509.5 L 121.5 511 L 119.5 511 L 115.5 512 L 112 506.5 L 112 500.5 L 110 492.5 L 111.5 493 Q 119.5 494.5 122 490.5 Q 124.7 487.2 124 480.5 L 121 473 Q 118.4 470.3 111.5 471 L 109 472 L 108.5 474 L 108 464.5 L 107 463.5 L 108.5 464 L 167 462 Q 166.1 467.9 170.5 470 L 179.5 473 L 187 468.5 L 188 461 L 210.5 460 L 212 458.5 L 212.5 457 Z M 147 473 L 144 475 L 139 481 Q 138 487 141 490 L 145 492 Q 153 494 157 491 L 161 484 L 160 479 Q 157 472 147 473 Z " /><path fill="rgb(254,210,105)" stroke="rgb(254,210,105)" stroke-width="1" opacity="1" d="M 109.5 482 L 110 485.5 L 109 485.5 L 109.5 482 Z " /><path fill="rgb(254,210,105)" stroke="rgb(254,210,105)" stroke-width="1" opacity="1" d="M 135.5 508 L 138 508.5 L 135.5 509 L 135.5 508 Z " /></svg>