<svg width="320" height="640" version="1.1" xmlns="http://www.w3.org/2000/svg" desc="Created with imagetracer.js version 1.2.6" ><path fill="rgb(0,0,0)" stroke="rgb(0,0,0)" stroke-width="1" opacity="0" d="M 0 0 L 320 0 L 320 640 L 0 640 L 0 0 Z M 152 38 L 150 40 L 150 65 L 149 66 Q 150 68 148 67 L 146 69 L 140 116 L 117 120 L 105 126 L 101 131 L 101 179 L 102 182 L 94 185 L 77 196 Q 61 207 55 229 L 55 568 Q 58 581 66 590 Q 78 604 96 612 L 117 620 L 143 625 L 178 625 L 204 620 L 227 611 L 245 599 Q 259 588 265 568 L 265 229 Q 261 215 253 206 Q 239 189 218 182 L 219 179 L 219 131 L 217 128 L 204 120 L 180 116 L 174 69 L 171 67 L 170 65 L 170 40 L 169 38 L 152 38 Z " /><path fill="rgb(161,176,24)" stroke="rgb(161,176,24)" stroke-width="1" opacity="1" d="M 108.5 178 L 109.5 180 L 108.5 178 Z " /><path fill="rgb(161,176,24)" stroke="rgb(161,176,24)" stroke-width="1" opacity="1" d="M 107.5 185 L 108 187 L 105 186.5 L 107.5 185 Z " /><path fill="rgb(161,176,24)" stroke="rgb(161,176,24)" stroke-width="1" opacity="1" d="M 138.5 278 L 135.5 282 L 138.5 278 Z " /><path fill="rgb(161,176,24)" stroke="rgb(161,176,24)" stroke-width="1" opacity="1" d="M 181.5 278 L 184.5 282 L 181.5 278 Z " /><path fill="rgb(161,176,24)" stroke="rgb(161,176,24)" stroke-width="1" opacity="1" d="M 69.5 284 L 70 286.5 L 69 286.5 L 69.5 284 Z " /><path fill="rgb(161,176,24)" stroke="rgb(161,176,24)" stroke-width="1" opacity="1" d="M 154.5 285 Q 163.4 283.6 168.5 286 L 178 294.5 Q 181.4 299.6 180 309.5 Q 177.6 318.1 170.5 322 Q 165.4 325.4 155.5 324 Q 146.9 321.6 143 314.5 Q 139.6 309.4 141 299.5 L 147.5 289 L 154.5 285 Z M 158 290 L 153 292 L 146 301 Q 145 309 148 313 L 157 319 Q 165 320 169 317 Q 173 314 175 308 Q 176 300 173 297 Q 169 289 158 290 Z " /><path fill="rgb(161,176,24)" stroke="rgb(161,176,24)" stroke-width="1" opacity="1" d="M 68.5 292 L 69 294.5 L 68 294.5 L 68.5 292 Z " /><path fill="rgb(161,176,24)" stroke="rgb(161,176,24)" stroke-width="1" opacity="1" d="M 65.5 316 L 66 318.5 L 65 318.5 L 65.5 316 Z " /><path fill="rgb(161,176,24)" stroke="rgb(161,176,24)" stroke-width="1" opacity="1" d="M 238 318 L 241 319.5 Q 241.7 322.5 238 321 L 238 318 Z " /><path fill="rgb(161,176,24)" stroke="rgb(161,176,24)" stroke-width="1" opacity="1" d="M 63.5 334 L 64 336.5 L 63 336.5 L 63.5 334 Z " /><path fill="rgb(161,176,24)" stroke="rgb(161,176,24)" stroke-width="1" opacity="1" d="M 62.5 345 L 63 347.5 L 62 347.5 L 62.5 345 Z " /><path fill="rgb(161,176,24)" stroke="rgb(161,176,24)" stroke-width="1" opacity="1" d="M 185.5 345 L 187 346.5 L 187 354 L 193.5 353 L 198 359.5 L 198 370.5 L 199 372.5 L 196.5 374 L 195 372.5 Q 196.4 361.3 193 356 Q 189.2 355.3 188 358.5 L 188 373.5 L 186.5 375 L 185 373.5 L 185 349.5 L 184 346.5 L 185.5 345 Z " /><path fill="rgb(161,176,24)" stroke="rgb(161,176,24)" stroke-width="1" opacity="1" d="M 201.5 349 L 204 350.5 Q 204.8 353.1 201.5 352 Q 198.5 350.5 201.5 349 Z " /><path fill="rgb(161,176,24)" stroke="rgb(161,176,24)" stroke-width="1" opacity="1" d="M 136 351 L 138 351 L 138 357 L 140.5 357 L 143 358.5 L 138 361.5 L 137 367.5 L 138 372 Q 143.6 374.2 142 368.5 L 143 366 Q 146.7 364.6 145 370.5 L 142.5 375 L 139.5 376 L 136 373.5 L 135 361.5 L 133.5 360 Q 129.8 361 131 358 Q 136.2 360.1 135 355.5 L 136 351 Z " /><path fill="rgb(161,176,24)" stroke="rgb(161,176,24)" stroke-width="1" opacity="1" d="M 113.5 353 L 115 357 Q 111.2 358.2 113.5 353 Z " /><path fill="rgb(161,176,24)" stroke="rgb(161,176,24)" stroke-width="1" opacity="1" d="M 171.5 353 Q 176.8 351.8 178 354.5 L 175.5 356 L 173.5 355 Q 168.8 358.3 169 366.5 L 172.5 371 L 175.5 371 Q 176.8 367.3 181 368 L 178.5 373 L 174.5 375 L 168 370.5 Q 165.7 367.3 167 360.5 L 171.5 353 Z " /><path fill="rgb(161,176,24)" stroke="rgb(161,176,24)" stroke-width="1" opacity="1" d="M 101.5 354 Q 107.3 353.3 108 357.5 L 109 363.5 L 104.5 368 L 102 368 Q 103.8 374.1 100.5 376 L 99 374.5 L 98 356.5 L 101.5 354 Z M 103 357 L 102 365 L 104 365 L 106 362 L 105 358 L 103 357 Z " /><path fill="rgb(161,176,24)" stroke="rgb(161,176,24)" stroke-width="1" opacity="1" d="M 122.5 354 Q 127.8 352.8 129 355.5 Q 130.1 358.8 127.5 358 L 123.5 357 L 122 359.5 L 129 363.5 L 131 368.5 L 127.5 374 L 123.5 375 L 120 374 L 119 371.5 Q 120.3 368.8 121.5 371 Q 126.8 372.3 128 369.5 Q 128.8 364.8 125.5 364 Q 120.8 364.8 120 361.5 Q 118.8 355.3 122.5 354 Z " /><path fill="rgb(161,176,24)" stroke="rgb(161,176,24)" stroke-width="1" opacity="1" d="M 154.5 354 Q 159 353 160 355.5 L 162 375 L 157.5 373 Q 156.8 375.8 152.5 375 Q 147.6 371.9 149 362.5 Q 150.3 356.8 154.5 354 Z M 156 357 Q 150 360 152 371 L 155 372 L 158 365 L 158 358 L 156 357 Z " /><path fill="rgb(161,176,24)" stroke="rgb(161,176,24)" stroke-width="1" opacity="1" d="M 216.5 354 Q 221.3 354.3 223 357.5 Q 226.3 361.2 225 369.5 L 220.5 375 L 215.5 375 L 210 369.5 L 209 361.5 L 214.5 355 L 216.5 354 Z M 216 358 L 212 363 L 213 369 Q 214 373 220 372 L 223 368 Q 224 361 220 360 Q 221 356 216 358 Z " /><path fill="rgb(161,176,24)" stroke="rgb(161,176,24)" stroke-width="1" opacity="1" d="M 61.5 356 L 62 358.5 L 61 358.5 L 61.5 356 Z " /><path fill="rgb(161,176,24)" stroke="rgb(161,176,24)" stroke-width="1" opacity="1" d="M 203.5 356 L 206 357.5 L 206 373.5 L 204.5 375 L 203 373.5 L 202 357.5 L 203.5 356 Z " /><path fill="rgb(161,176,24)" stroke="rgb(161,176,24)" stroke-width="1" opacity="1" d="M 114.5 360 Q 117.8 361.8 116 368.5 L 115 373 L 113 372.5 L 113 361.5 L 114.5 360 Z " /><path fill="rgb(161,176,24)" stroke="rgb(161,176,24)" stroke-width="1" opacity="1" d="M 60.5 367 L 61 369.5 L 60 369.5 L 60.5 367 Z " /><path fill="rgb(161,176,24)" stroke="rgb(161,176,24)" stroke-width="1" opacity="1" d="M 163.5 415 L 164.5 416 L 171 416 L 171 419.5 L 163 431.5 L 160 439.5 L 158 452.5 L 154 466.5 L 152.5 490 Q 145.9 482.1 143 470.5 L 142 457.5 L 143 457.5 L 144 467.5 L 151.5 484 L 154 443.5 Q 156.9 427.4 163.5 415 Z " /><path fill="rgb(173,179,43)" stroke="rgb(173,179,43)" stroke-width="1" opacity="1" d="M 153.5 47 L 162 68 L 153 68 L 153.5 47 Z " /><path fill="rgb(173,179,43)" stroke="rgb(173,179,43)" stroke-width="1" opacity="1" d="M 150 72 L 167 72.5 Q 156.7 103.7 143 131.5 L 143.5 133 Q 140.5 131.5 142 125.5 L 143 124.5 L 145 103.5 L 146 102.5 L 146 96.5 L 150 72 Z " /><path fill="rgb(173,179,43)" stroke="rgb(173,179,43)" stroke-width="1" opacity="1" d="M 131.5 122 L 139 122 L 139 125.5 L 137 134 L 151.5 139 L 168.5 139 L 183 134 L 181 122 L 193.5 123 L 197 125.5 L 199 129.5 Q 188.9 141.4 171.5 146 L 148.5 146 L 147.5 145 L 137.5 145 L 122.5 142 L 113.5 139 L 107 134.5 Q 106.3 130.8 108.5 130 L 113.5 127 L 131.5 122 Z " /><path fill="rgb(173,179,43)" stroke="rgb(173,179,43)" stroke-width="1" opacity="1" d="M 106 142 L 115.5 146 L 119 146 Q 117.9 148.7 120.5 148 L 122.5 147 Q 126.8 150 134 149 L 124 173.5 L 117.5 183 L 107 178 L 106 175.5 L 106 173.5 L 106 142 Z " /><path fill="rgb(173,179,43)" stroke="rgb(173,179,43)" stroke-width="1" opacity="1" d="M 239.5 200 L 240.5 202 L 239.5 200 Z " /><path fill="rgb(173,179,43)" stroke="rgb(173,179,43)" stroke-width="1" opacity="1" d="M 184.5 349 L 185 365.5 L 184 365.5 L 184.5 349 Z " /><path fill="rgb(173,179,43)" stroke="rgb(173,179,43)" stroke-width="1" opacity="1" d="M 200.5 351 L 201.5 353 L 200.5 351 Z " /><path fill="rgb(173,179,43)" stroke="rgb(173,179,43)" stroke-width="1" opacity="1" d="M 172.5 352 Q 177 351 178 353.5 L 176.5 353 Q 171.5 354 172.5 352 Z " /><path fill="rgb(173,179,43)" stroke="rgb(173,179,43)" stroke-width="1" opacity="1" d="M 112.5 354 L 113 356.5 L 112 356.5 L 112.5 354 Z " /><path fill="rgb(173,179,43)" stroke="rgb(173,179,43)" stroke-width="1" opacity="1" d="M 106.5 355 L 107.5 357 L 106.5 355 Z " /><path fill="rgb(173,179,43)" stroke="rgb(173,179,43)" stroke-width="1" opacity="1" d="M 202.5 361 L 203 366.5 L 202 366.5 L 202.5 361 Z " /><path fill="rgb(173,179,43)" stroke="rgb(173,179,43)" stroke-width="1" opacity="1" d="M 137.5 363 L 138 367.5 L 137 367.5 L 137.5 363 Z " /><path fill="rgb(173,179,43)" stroke="rgb(173,179,43)" stroke-width="1" opacity="1" d="M 125.5 364 L 127.5 367 L 125.5 364 Z " /><path fill="rgb(173,179,43)" stroke="rgb(173,179,43)" stroke-width="1" opacity="1" d="M 225.5 364 L 226 366.5 L 225 366.5 L 225.5 364 Z " /><path fill="rgb(173,179,43)" stroke="rgb(173,179,43)" stroke-width="1" opacity="1" d="M 107.5 365 L 105.5 368 L 107.5 365 Z " /><path fill="rgb(173,179,43)" stroke="rgb(173,179,43)" stroke-width="1" opacity="1" d="M 112.5 365 L 113 372.5 L 112 372.5 L 112.5 365 Z " /><path fill="rgb(173,179,43)" stroke="rgb(173,179,43)" stroke-width="1" opacity="1" d="M 127.5 369 L 126.5 371 L 127.5 369 Z " /><path fill="rgb(173,179,43)" stroke="rgb(173,179,43)" stroke-width="1" opacity="1" d="M 153.5 475 L 154 477.5 L 153 477.5 L 153.5 475 Z " /><path fill="rgb(54,29,22)" stroke="rgb(54,29,22)" stroke-width="1" opacity="0.9921568627450981" d="M 151.5 38 L 168.5 38 L 170 39.5 L 170 64.5 L 171 67 L 174 68.5 L 180 116 L 203.5 120 L 217 127.5 L 219 130.5 L 219 178.5 L 218 182 Q 239.4 189.4 253 205.5 Q 261.3 214.7 265 228.5 L 265 567.5 Q 259.3 587.8 244.5 599 L 226.5 611 L 203.5 620 L 177.5 625 L 142.5 625 L 116.5 620 L 95.5 612 Q 78 603.5 66 589.5 Q 58.5 580.5 55 567.5 L 55 228.5 Q 60.8 207.3 76.5 196 L 93.5 185 L 102 182 L 101 178.5 L 101 130.5 L 104.5 126 L 116.5 120 L 140 116 L 146 68.5 L 147.5 67 Q 149.8 67.8 149 65.5 L 150 64.5 L 150 39.5 L 151.5 38 Z M 158 41 L 157 42 L 153 43 L 153 68 L 167 68 L 167 42 L 158 41 Z M 151 71 L 149 74 L 148 88 L 147 89 L 143 123 L 142 124 L 142 130 L 141 132 L 151 135 Q 169 137 179 132 L 178 130 L 175 103 L 174 102 L 171 74 L 170 71 L 168 72 L 152 72 L 151 71 Z M 138 121 L 122 124 L 110 129 L 106 134 L 111 138 L 118 141 L 137 145 L 147 145 L 148 146 L 184 145 L 203 141 L 210 138 L 214 133 L 208 127 L 195 123 L 184 122 L 181 121 Q 180 128 183 133 L 179 136 L 167 139 L 148 138 L 140 135 L 137 133 L 139 127 Q 140 120 138 121 Z M 107 141 L 106 177 L 111 181 L 118 184 L 130 187 L 147 188 L 148 189 L 173 189 L 174 188 L 191 187 L 208 182 L 214 177 L 214 141 L 204 146 L 175 151 L 146 151 L 145 150 L 136 150 L 117 146 L 107 141 Z M 107 185 Q 92 190 82 199 L 66 216 L 60 231 L 60 567 Q 64 580 72 589 Q 84 601 102 609 L 119 615 L 145 620 L 176 620 L 177 619 L 190 618 L 221 608 L 239 597 L 254 581 L 260 566 L 260 230 Q 256 216 248 208 Q 234 193 214 185 L 196 191 L 185 193 L 176 193 L 175 194 L 146 194 L 145 193 L 136 193 L 117 189 L 107 185 Z " /><path fill="rgb(54,29,22)" stroke="rgb(54,29,22)" stroke-width="1" opacity="0.9921568627450981" d="M 153.5 271 Q 177.5 269.5 186 283.5 Q 190.5 288 191 296.5 L 193.5 299 L 202.5 300 L 216.5 304 Q 227.1 307.9 234 315.5 L 236 319.5 L 236 558.5 L 233 566.5 L 230.5 569 L 217.5 576 L 198.5 581 L 186.5 582 L 185.5 583 L 174.5 583 L 173.5 584 L 146.5 584 L 145.5 583 L 127.5 582 L 108.5 578 Q 95.2 574.8 87 566.5 L 84 558.5 L 84 319.5 L 90.5 311 L 103.5 304 L 117.5 300 L 126.5 299 L 129 296.5 Q 131 283 140.5 277 L 153.5 271 Z M 159 275 L 150 277 L 143 281 L 134 293 L 133 302 L 132 303 L 121 304 L 104 309 Q 94 312 89 320 L 89 561 L 90 563 L 98 569 L 111 574 L 132 578 L 140 578 L 141 579 L 180 579 L 181 578 L 189 578 L 210 574 L 226 567 L 231 561 L 231 320 Q 226 312 217 309 L 200 304 L 189 303 L 187 302 L 186 293 L 182 286 Q 175 275 159 275 Z " /><path fill="rgb(179,193,44)" stroke="rgb(179,193,44)" stroke-width="1" opacity="1" d="M 197.5 131 L 195.5 134 L 197.5 131 Z " /><path fill="rgb(179,193,44)" stroke="rgb(179,193,44)" stroke-width="1" opacity="1" d="M 108.5 186 L 110 186.5 L 107.5 188 L 108.5 186 Z " /><path fill="rgb(179,193,44)" stroke="rgb(179,193,44)" stroke-width="1" opacity="1" d="M 68.5 296 L 69 298.5 L 68 298.5 L 68.5 296 Z " /><path fill="rgb(179,193,44)" stroke="rgb(179,193,44)" stroke-width="1" opacity="1" d="M 90.5 310 L 89.5 312 L 90.5 310 Z " /><path fill="rgb(179,193,44)" stroke="rgb(179,193,44)" stroke-width="1" opacity="1" d="M 229.5 310 L 230.5 312 L 229.5 310 Z " /><path fill="rgb(179,193,44)" stroke="rgb(179,193,44)" stroke-width="1" opacity="1" d="M 175.5 317 L 173.5 320 L 175.5 317 Z " /><path fill="rgb(179,193,44)" stroke="rgb(179,193,44)" stroke-width="1" opacity="1" d="M 238.5 317 L 240 317.5 L 237.5 319 L 238.5 317 Z " /><path fill="rgb(179,193,44)" stroke="rgb(179,193,44)" stroke-width="1" opacity="1" d="M 241.5 319 L 242 320.5 L 240 321.5 L 241.5 319 Z " /><path fill="rgb(179,193,44)" stroke="rgb(179,193,44)" stroke-width="1" opacity="1" d="M 237.5 320 L 238.5 322 L 237.5 320 Z " /><path fill="rgb(179,193,44)" stroke="rgb(179,193,44)" stroke-width="1" opacity="1" d="M 64.5 329 L 65 331.5 L 64 331.5 L 64.5 329 Z " /><path fill="rgb(179,193,44)" stroke="rgb(179,193,44)" stroke-width="1" opacity="1" d="M 63.5 339 L 64 341.5 L 63 341.5 L 63.5 339 Z " /><path fill="rgb(179,193,44)" stroke="rgb(179,193,44)" stroke-width="1" opacity="1" d="M 62.5 350 L 63 352.5 L 62 352.5 L 62.5 350 Z " /><path fill="rgb(179,193,44)" stroke="rgb(179,193,44)" stroke-width="1" opacity="1" d="M 136.5 350 L 139 351.5 L 137.5 351 Q 134.9 350.2 136 353.5 L 135 353.5 L 136.5 350 Z " /><path fill="rgb(179,193,44)" stroke="rgb(179,193,44)" stroke-width="1" opacity="1" d="M 138.5 353 L 139 355.5 L 138 355.5 L 138.5 353 Z " /><path fill="rgb(179,193,44)" stroke="rgb(179,193,44)" stroke-width="1" opacity="1" d="M 170.5 353 L 169.5 355 L 170.5 353 Z " /><path fill="rgb(179,193,44)" stroke="rgb(179,193,44)" stroke-width="1" opacity="1" d="M 194.5 353 L 195.5 355 L 194.5 353 Z " /><path fill="rgb(179,193,44)" stroke="rgb(179,193,44)" stroke-width="1" opacity="1" d="M 115.5 356 L 114.5 358 L 113 357.5 L 115.5 356 Z " /><path fill="rgb(179,193,44)" stroke="rgb(179,193,44)" stroke-width="1" opacity="1" d="M 134.5 356 L 133.5 358 L 134.5 356 Z " /><path fill="rgb(179,193,44)" stroke="rgb(179,193,44)" stroke-width="1" opacity="1" d="M 172.5 356 L 171.5 358 L 172.5 356 Z " /><path fill="rgb(179,193,44)" stroke="rgb(179,193,44)" stroke-width="1" opacity="1" d="M 119.5 357 L 120 361.5 L 119 361.5 L 119.5 357 Z " /><path fill="rgb(179,193,44)" stroke="rgb(179,193,44)" stroke-width="1" opacity="1" d="M 155.5 357 L 154.5 359 L 155.5 357 Z " /><path fill="rgb(179,193,44)" stroke="rgb(179,193,44)" stroke-width="1" opacity="1" d="M 161.5 358 L 162 365.5 L 161 365.5 L 161.5 358 Z " /><path fill="rgb(179,193,44)" stroke="rgb(179,193,44)" stroke-width="1" opacity="1" d="M 142.5 359 L 141.5 361 L 142.5 359 Z " /><path fill="rgb(179,193,44)" stroke="rgb(179,193,44)" stroke-width="1" opacity="1" d="M 166.5 360 L 167 367.5 L 166 367.5 L 166.5 360 Z " /><path fill="rgb(179,193,44)" stroke="rgb(179,193,44)" stroke-width="1" opacity="1" d="M 61.5 361 L 62 363.5 L 61 363.5 L 61.5 361 Z " /><path fill="rgb(179,193,44)" stroke="rgb(179,193,44)" stroke-width="1" opacity="1" d="M 134.5 361 L 135 369.5 L 134 369.5 L 134.5 361 Z " /><path fill="rgb(179,193,44)" stroke="rgb(179,193,44)" stroke-width="1" opacity="1" d="M 169.5 363 L 170 365.5 L 169 365.5 L 169.5 363 Z " /><path fill="rgb(179,193,44)" stroke="rgb(179,193,44)" stroke-width="1" opacity="1" d="M 222.5 364 L 223 367.5 L 222 367.5 L 222.5 364 Z " /><path fill="rgb(179,193,44)" stroke="rgb(179,193,44)" stroke-width="1" opacity="1" d="M 145.5 366 L 146 369.5 L 145 369.5 L 145.5 366 Z " /><path fill="rgb(179,193,44)" stroke="rgb(179,193,44)" stroke-width="1" opacity="1" d="M 184.5 366 L 185 371.5 L 184 371.5 L 184.5 366 Z " /><path fill="rgb(179,193,44)" stroke="rgb(179,193,44)" stroke-width="1" opacity="1" d="M 170.5 368 L 172.5 371 L 170.5 368 Z " /><path fill="rgb(179,193,44)" stroke="rgb(179,193,44)" stroke-width="1" opacity="1" d="M 221.5 369 L 220.5 371 L 221.5 369 Z " /><path fill="rgb(179,193,44)" stroke="rgb(179,193,44)" stroke-width="1" opacity="1" d="M 168.5 371 L 169.5 373 L 168.5 371 Z " /><path fill="rgb(179,193,44)" stroke="rgb(179,193,44)" stroke-width="1" opacity="1" d="M 211.5 371 L 213.5 374 L 211.5 371 Z " /><path fill="rgb(179,193,44)" stroke="rgb(179,193,44)" stroke-width="1" opacity="1" d="M 60.5 372 L 61 374.5 L 60 374.5 L 60.5 372 Z " /><path fill="rgb(179,193,44)" stroke="rgb(179,193,44)" stroke-width="1" opacity="1" d="M 223.5 372 L 222.5 374 L 223.5 372 Z " /><path fill="rgb(179,193,44)" stroke="rgb(179,193,44)" stroke-width="1" opacity="1" d="M 157.5 373 L 159 373.5 L 156.5 375 L 157.5 373 Z " /><path fill="rgb(179,193,44)" stroke="rgb(179,193,44)" stroke-width="1" opacity="1" d="M 143.5 458 L 144 461.5 L 143 461.5 L 143.5 458 Z " /><path fill="rgb(179,193,44)" stroke="rgb(179,193,44)" stroke-width="1" opacity="1" d="M 152.5 461 L 153 467.5 L 152 467.5 L 152.5 461 Z " /><path fill="rgb(179,193,44)" stroke="rgb(179,193,44)" stroke-width="1" opacity="1" d="M 86.5 566 L 88.5 569 L 86.5 566 Z " /><path fill="rgb(182,198,40)" stroke="rgb(182,198,40)" stroke-width="1" opacity="1" d="M 108.5 187 L 126.5 192 L 141.5 193 L 142.5 194 L 177.5 194 L 178.5 193 L 186.5 193 L 187.5 192 L 198.5 191 Q 213.1 199.9 224 212.5 Q 235.9 226.1 243 244.5 L 252 272.5 L 260 304.5 L 260 420.5 L 252 450.5 L 246 481.5 L 246 486.5 L 244 492.5 L 244 497.5 L 236.5 529 L 236 318.5 L 232.5 313 Q 230.3 313.8 231 311.5 L 220.5 305 L 208.5 301 L 192 298 Q 190.6 282.8 179.5 276 Q 170.7 268.3 151.5 271 Q 139.3 274.3 133 283.5 Q 128.4 289.3 128 298 L 111.5 301 L 99.5 305 L 89 311.5 Q 89.8 313.8 87.5 313 L 84 318.5 L 84 560.5 L 86 566.5 L 88.5 569 L 103.5 577 L 124.5 582 L 142.5 583 L 143.5 584 L 176.5 584 L 177.5 583 L 187.5 583 L 188.5 582 L 195.5 582 L 205.5 580 L 222 575 L 208 612 L 203.5 614 L 180.5 619 Q 174.2 617.3 172.5 620 L 147.5 620 L 116.5 614 L 105.5 610 L 98 605.5 L 80 554.5 L 73 525.5 L 73 520.5 L 69 502.5 L 69 495.5 L 66 478.5 L 66 468.5 L 65 467.5 L 65 445.5 L 60 435.5 L 60 375.5 L 61 374.5 L 63 342.5 L 64 341.5 L 64 332.5 L 65 331.5 L 65 322.5 L 68 306.5 L 68 299.5 L 69 298.5 L 69 290.5 L 77 249.5 Q 87.2 212.7 108.5 187 Z M 239 317 L 237 321 L 241 322 L 242 320 L 239 317 Z " /><path fill="rgb(182,198,40)" stroke="rgb(182,198,40)" stroke-width="1" opacity="1" d="M 157.5 290 Q 167.7 289.8 172 295.5 Q 176 299 175 307.5 L 169.5 316 Q 166 320 157.5 319 L 149 313.5 Q 145 310 146 301.5 L 151.5 293 L 157.5 290 Z " /><path fill="rgb(182,198,40)" stroke="rgb(182,198,40)" stroke-width="1" opacity="1" d="M 157.5 415 L 159.5 416 L 162 415 L 162 418.5 L 156 433.5 L 153 448.5 L 151.5 482 L 144 466.5 L 144 458.5 L 142 456.5 L 141 441.5 L 142 440.5 L 142 429.5 L 144 420 L 148 420 Q 146.8 417 150.5 418 L 157.5 415 Z " /><path fill="rgb(222,196,136)" stroke="rgb(222,196,136)" stroke-width="1" opacity="1" d="M 140.5 283 L 139.5 285 L 140.5 283 Z " /><path fill="rgb(222,196,136)" stroke="rgb(222,196,136)" stroke-width="1" opacity="1" d="M 179.5 283 L 180.5 285 L 179.5 283 Z " /><path fill="rgb(222,196,136)" stroke="rgb(222,196,136)" stroke-width="1" opacity="1" d="M 187.5 346 L 188 351.5 L 187 351.5 L 187.5 346 Z " /><path fill="rgb(222,196,136)" stroke="rgb(222,196,136)" stroke-width="1" opacity="1" d="M 201.5 348 L 205 349.5 L 203.5 353 L 204 351.5 Q 205.3 347.8 201.5 349 L 201.5 348 Z " /><path fill="rgb(222,196,136)" stroke="rgb(222,196,136)" stroke-width="1" opacity="1" d="M 128.5 354 L 129.5 356 L 128.5 354 Z " /><path fill="rgb(222,196,136)" stroke="rgb(222,196,136)" stroke-width="1" opacity="1" d="M 159.5 354 L 160.5 356 L 159.5 354 Z " /><path fill="rgb(222,196,136)" stroke="rgb(222,196,136)" stroke-width="1" opacity="1" d="M 178.5 355 L 177.5 357 L 175 356.5 L 178.5 355 Z " /><path fill="rgb(222,196,136)" stroke="rgb(222,196,136)" stroke-width="1" opacity="1" d="M 212.5 355 L 211.5 357 L 212.5 355 Z " /><path fill="rgb(222,196,136)" stroke="rgb(222,196,136)" stroke-width="1" opacity="1" d="M 139.5 356 L 142 356.5 L 139.5 357 L 139.5 356 Z " /><path fill="rgb(222,196,136)" stroke="rgb(222,196,136)" stroke-width="1" opacity="1" d="M 124.5 357 L 126 357.5 L 123.5 359 L 124.5 357 Z " /><path fill="rgb(222,196,136)" stroke="rgb(222,196,136)" stroke-width="1" opacity="1" d="M 131.5 357 L 131 358.5 L 130.5 360 L 130 358.5 L 131.5 357 Z " /><path fill="rgb(222,196,136)" stroke="rgb(222,196,136)" stroke-width="1" opacity="1" d="M 218.5 358 L 220.5 361 L 218.5 358 Z " /><path fill="rgb(222,196,136)" stroke="rgb(222,196,136)" stroke-width="1" opacity="1" d="M 109.5 359 L 110 363.5 L 109 363.5 L 109.5 359 Z " /><path fill="rgb(222,196,136)" stroke="rgb(222,196,136)" stroke-width="1" opacity="1" d="M 188.5 359 L 189 373.5 L 188 373.5 L 188.5 359 Z " /><path fill="rgb(222,196,136)" stroke="rgb(222,196,136)" stroke-width="1" opacity="1" d="M 116.5 361 L 117 369.5 L 116 369.5 L 116.5 361 Z " /><path fill="rgb(222,196,136)" stroke="rgb(222,196,136)" stroke-width="1" opacity="1" d="M 127.5 361 L 130.5 365 L 127.5 361 Z " /><path fill="rgb(222,196,136)" stroke="rgb(222,196,136)" stroke-width="1" opacity="1" d="M 138.5 361 L 139 364.5 L 138 364.5 L 138.5 361 Z " /><path fill="rgb(222,196,136)" stroke="rgb(222,196,136)" stroke-width="1" opacity="1" d="M 148.5 361 L 149 370.5 L 148 370.5 L 148.5 361 Z " /><path fill="rgb(222,196,136)" stroke="rgb(222,196,136)" stroke-width="1" opacity="1" d="M 119.5 362 L 120.5 364 L 119.5 362 Z " /><path fill="rgb(222,196,136)" stroke="rgb(222,196,136)" stroke-width="1" opacity="1" d="M 143.5 364 L 146 365.5 L 144.5 365 L 142.5 366 L 143.5 364 Z " /><path fill="rgb(222,196,136)" stroke="rgb(222,196,136)" stroke-width="1" opacity="1" d="M 156.5 364 L 157 366.5 L 156 366.5 L 156.5 364 Z " /><path fill="rgb(222,196,136)" stroke="rgb(222,196,136)" stroke-width="1" opacity="1" d="M 108.5 365 L 107.5 367 L 108.5 365 Z " /><path fill="rgb(222,196,136)" stroke="rgb(222,196,136)" stroke-width="1" opacity="1" d="M 125.5 365 L 126.5 367 L 125.5 365 Z " /><path fill="rgb(222,196,136)" stroke="rgb(222,196,136)" stroke-width="1" opacity="1" d="M 131.5 367 L 132 369.5 L 131 369.5 L 131.5 367 Z " /><path fill="rgb(222,196,136)" stroke="rgb(222,196,136)" stroke-width="1" opacity="1" d="M 177.5 368 L 175.5 371 L 177.5 368 Z " /><path fill="rgb(222,196,136)" stroke="rgb(222,196,136)" stroke-width="1" opacity="1" d="M 126.5 369 L 125.5 371 L 122 370.5 L 126.5 369 Z " /><path fill="rgb(222,196,136)" stroke="rgb(222,196,136)" stroke-width="1" opacity="1" d="M 202.5 369 L 203 373.5 L 202 373.5 L 202.5 369 Z " /><path fill="rgb(222,196,136)" stroke="rgb(222,196,136)" stroke-width="1" opacity="1" d="M 130.5 371 L 128.5 374 L 130.5 371 Z " /><path fill="rgb(222,196,136)" stroke="rgb(222,196,136)" stroke-width="1" opacity="1" d="M 135.5 373 L 137.5 376 L 135.5 373 Z " /><path fill="rgb(222,196,136)" stroke="rgb(222,196,136)" stroke-width="1" opacity="1" d="M 144.5 373 L 142.5 376 L 144.5 373 Z " /><path fill="rgb(222,196,136)" stroke="rgb(222,196,136)" stroke-width="1" opacity="1" d="M 149.5 407 L 160 413.5 Q 160.9 416.5 156.5 415 L 145 420 Q 144.3 412.5 147 408 L 149.5 407 Z " /><path fill="rgb(222,196,136)" stroke="rgb(222,196,136)" stroke-width="1" opacity="1" d="M 174 414 L 176 414.5 L 169 425.5 L 172 423.5 L 174.5 420 L 173 422.5 L 168 435.5 L 166 445.5 L 159 461.5 L 160 465.5 L 158 473.5 L 158 487.5 L 155.5 491 L 153 490.5 L 154 486.5 L 153 484.5 L 154 483.5 L 155 463.5 Q 158.5 455.5 159 444.5 L 162 435.5 L 174 414 Z " /><path fill="rgb(222,196,136)" stroke="rgb(222,196,136)" stroke-width="1" opacity="1" d="M 196.5 440 L 201 457.5 L 201 468.5 L 194 488.5 L 183.5 500 Q 178.7 505.2 170.5 507 L 169.5 504 Q 166.9 504.8 168 501.5 L 184 478.5 L 189 468.5 L 194 454.5 L 194 449 Q 198.9 450.8 197 444.5 L 196.5 440 Z " /><path fill="rgb(222,196,136)" stroke="rgb(222,196,136)" stroke-width="1" opacity="1" d="M 119.5 460 L 123 479.5 L 131.5 492 L 134 493.5 L 137.5 498 L 140 499.5 L 144 504.5 L 142.5 504 L 134 497.5 L 129.5 492 Q 126.5 492.7 128 489 L 126 489 L 126 486.5 L 120 472.5 L 119.5 460 Z " /><path fill="rgb(222,196,136)" stroke="rgb(222,196,136)" stroke-width="1" opacity="1" d="M 141.5 460 L 142 462.5 L 141 462.5 L 141.5 460 Z " /><path fill="rgb(222,196,136)" stroke="rgb(222,196,136)" stroke-width="1" opacity="1" d="M 147.5 506 L 154 507.5 L 150.5 508 L 147.5 507 L 147.5 506 Z " /><path fill="rgb(222,196,136)" stroke="rgb(222,196,136)" stroke-width="1" opacity="1" d="M 158.5 506 L 168 507.5 L 160.5 509 L 155 507.5 L 158.5 506 Z " /><path fill="rgb(244,214,173)" stroke="rgb(244,214,173)" stroke-width="1" opacity="1" d="M 180.5 303 L 181 305.5 L 180 305.5 L 180.5 303 Z " /><path fill="rgb(244,214,173)" stroke="rgb(244,214,173)" stroke-width="1" opacity="1" d="M 94.5 314 L 91.5 318 L 94.5 314 Z " /><path fill="rgb(244,214,173)" stroke="rgb(244,214,173)" stroke-width="1" opacity="1" d="M 225.5 314 L 228.5 318 L 225.5 314 Z " /><path fill="rgb(244,214,173)" stroke="rgb(244,214,173)" stroke-width="1" opacity="1" d="M 184.5 344 L 188 345.5 L 186.5 345 L 183.5 346 L 184.5 344 Z " /><path fill="rgb(244,214,173)" stroke="rgb(244,214,173)" stroke-width="1" opacity="1" d="M 177.5 352 L 178.5 354 L 177.5 352 Z " /><path fill="rgb(244,214,173)" stroke="rgb(244,214,173)" stroke-width="1" opacity="1" d="M 194.5 352 L 196.5 355 L 194.5 352 Z " /><path fill="rgb(244,214,173)" stroke="rgb(244,214,173)" stroke-width="1" opacity="1" d="M 100.5 353 Q 105.8 351.8 107 354.5 L 105.5 354 Q 99.5 355.3 100.5 353 Z " /><path fill="rgb(244,214,173)" stroke="rgb(244,214,173)" stroke-width="1" opacity="1" d="M 153.5 353 L 159 353.5 Q 153.2 352.7 151.5 356 L 153.5 353 Z " /><path fill="rgb(244,214,173)" stroke="rgb(244,214,173)" stroke-width="1" opacity="1" d="M 169.5 353 L 168.5 355 L 169.5 353 Z " /><path fill="rgb(244,214,173)" stroke="rgb(244,214,173)" stroke-width="1" opacity="1" d="M 215.5 353 L 220 353.5 L 215.5 354 L 215.5 353 Z " /><path fill="rgb(244,214,173)" stroke="rgb(244,214,173)" stroke-width="1" opacity="1" d="M 116.5 354 L 117 356.5 L 116 356.5 L 116.5 354 Z " /><path fill="rgb(244,214,173)" stroke="rgb(244,214,173)" stroke-width="1" opacity="1" d="M 221.5 354 L 222.5 356 L 221.5 354 Z " /><path fill="rgb(244,214,173)" stroke="rgb(244,214,173)" stroke-width="1" opacity="1" d="M 97.5 356 L 98 365.5 L 97 365.5 L 97.5 356 Z " /><path fill="rgb(244,214,173)" stroke="rgb(244,214,173)" stroke-width="1" opacity="1" d="M 201.5 356 L 202 367.5 L 201 367.5 L 201.5 356 Z " /><path fill="rgb(244,214,173)" stroke="rgb(244,214,173)" stroke-width="1" opacity="1" d="M 206.5 356 L 207 374.5 L 203.5 376 L 202.5 374 L 206 375 L 206.5 356 Z " /><path fill="rgb(244,214,173)" stroke="rgb(244,214,173)" stroke-width="1" opacity="1" d="M 130.5 357 L 129.5 359 L 130.5 357 Z " /><path fill="rgb(244,214,173)" stroke="rgb(244,214,173)" stroke-width="1" opacity="1" d="M 190.5 357 L 189.5 359 L 190.5 357 Z " /><path fill="rgb(244,214,173)" stroke="rgb(244,214,173)" stroke-width="1" opacity="1" d="M 103.5 358 L 104.5 360 L 103 359.5 L 102.5 364 L 102 359.5 L 103.5 358 Z " /><path fill="rgb(244,214,173)" stroke="rgb(244,214,173)" stroke-width="1" opacity="1" d="M 113.5 358 L 117 360.5 L 115.5 360 L 113.5 358 Z " /><path fill="rgb(244,214,173)" stroke="rgb(244,214,173)" stroke-width="1" opacity="1" d="M 143.5 358 L 144 359.5 L 142 360.5 L 143.5 358 Z " /><path fill="rgb(244,214,173)" stroke="rgb(244,214,173)" stroke-width="1" opacity="1" d="M 155.5 358 L 154.5 360 L 155.5 358 Z " /><path fill="rgb(244,214,173)" stroke="rgb(244,214,173)" stroke-width="1" opacity="1" d="M 198.5 359 L 199 367.5 L 198 367.5 L 198.5 359 Z " /><path fill="rgb(244,214,173)" stroke="rgb(244,214,173)" stroke-width="1" opacity="1" d="M 208.5 361 L 209 367.5 L 208 367.5 L 208.5 361 Z " /><path fill="rgb(244,214,173)" stroke="rgb(244,214,173)" stroke-width="1" opacity="1" d="M 194.5 364 L 195 373.5 L 196 374.5 L 194 373.5 L 194.5 364 Z " /><path fill="rgb(244,214,173)" stroke="rgb(244,214,173)" stroke-width="1" opacity="1" d="M 178.5 366 L 182 367.5 L 180.5 367 L 177.5 368 L 178.5 366 Z " /><path fill="rgb(244,214,173)" stroke="rgb(244,214,173)" stroke-width="1" opacity="1" d="M 98.5 368 L 99 372.5 L 98 372.5 L 98.5 368 Z " /><path fill="rgb(244,214,173)" stroke="rgb(244,214,173)" stroke-width="1" opacity="1" d="M 171.5 368 L 172.5 370 L 171.5 368 Z " /><path fill="rgb(244,214,173)" stroke="rgb(244,214,173)" stroke-width="1" opacity="1" d="M 102.5 369 L 103 374.5 L 102 374.5 L 102.5 369 Z " /><path fill="rgb(244,214,173)" stroke="rgb(244,214,173)" stroke-width="1" opacity="1" d="M 220.5 369 L 219.5 371 L 220.5 369 Z " /><path fill="rgb(244,214,173)" stroke="rgb(244,214,173)" stroke-width="1" opacity="1" d="M 167.5 371 L 172 374.5 L 170.5 375 L 167.5 371 Z " /><path fill="rgb(244,214,173)" stroke="rgb(244,214,173)" stroke-width="1" opacity="1" d="M 180.5 372 L 179.5 374 L 180.5 372 Z " /><path fill="rgb(244,214,173)" stroke="rgb(244,214,173)" stroke-width="1" opacity="1" d="M 224.5 372 L 222.5 375 L 224.5 372 Z " /><path fill="rgb(244,214,173)" stroke="rgb(244,214,173)" stroke-width="1" opacity="1" d="M 149.5 373 L 151.5 376 L 149.5 373 Z " /><path fill="rgb(244,214,173)" stroke="rgb(244,214,173)" stroke-width="1" opacity="1" d="M 212.5 373 L 213.5 375 L 212.5 373 Z " /><path fill="rgb(244,214,173)" stroke="rgb(244,214,173)" stroke-width="1" opacity="1" d="M 157.5 374 L 159 374.5 L 156.5 376 L 157.5 374 Z " /><path fill="rgb(244,214,173)" stroke="rgb(244,214,173)" stroke-width="1" opacity="1" d="M 188.5 374 L 187.5 376 L 185 375.5 L 188.5 374 Z " /><path fill="rgb(244,214,173)" stroke="rgb(244,214,173)" stroke-width="1" opacity="1" d="M 173.5 375 L 176 375.5 L 173.5 376 L 173.5 375 Z " /><path fill="rgb(244,214,173)" stroke="rgb(244,214,173)" stroke-width="1" opacity="1" d="M 215.5 375 L 221 375.5 L 215.5 376 L 215.5 375 Z " /><path fill="rgb(244,214,173)" stroke="rgb(244,214,173)" stroke-width="1" opacity="1" d="M 146.5 406 L 149 407.5 L 147 408 L 142 427.5 L 141 448.5 L 142 449.5 L 142 457.5 L 141 462.5 L 145 478.5 L 152.5 491 L 154.5 490 L 156 490.5 L 158 487.5 L 158 473.5 L 160 462.5 L 159 459.5 L 166 445.5 L 172 424.5 L 169 425.5 L 176 414.5 L 175 413.5 L 178.5 410 Q 185 409 186 413.5 L 193 432.5 L 197 439.5 L 196 443.5 L 197 449 Q 191.8 447.2 194 454.5 L 184 478.5 L 174 491.5 L 173 495.5 L 168 501.5 L 168 504 L 171.5 506 L 174.5 506 L 176 505.5 Q 171 510 161.5 510 L 162.5 508 L 168 507.5 L 158.5 506 L 155 507.5 L 160 508.5 L 155.5 509 Q 153.5 505.5 147.5 506 L 145.5 507 L 142 504.5 L 143 503.5 L 140 500.5 L 138.5 498 L 134 494.5 L 132.5 492 L 128.5 489 L 127.5 491 L 127 489.5 L 128 487.5 L 125.5 484 L 125 485.5 L 126 487.5 L 125 487.5 L 121 480.5 L 120 473.5 L 121 473.5 L 121.5 476 L 122 469.5 L 119 459.5 L 119 453.5 L 125 436.5 L 139 417.5 Q 139.9 410.4 144.5 407 L 146.5 406 Z M 123 476 L 122 480 L 123 480 L 123 476 Z " /><path fill="rgb(244,214,173)" stroke="rgb(244,214,173)" stroke-width="1" opacity="1" d="M 173.5 415 L 172.5 417 L 173.5 415 Z " /><path fill="rgb(244,214,173)" stroke="rgb(244,214,173)" stroke-width="1" opacity="1" d="M 198.5 444 L 202 456.5 L 202 464.5 L 201 464.5 L 201 457.5 L 198.5 444 Z " /><path fill="rgb(244,214,173)" stroke="rgb(244,214,173)" stroke-width="1" opacity="1" d="M 119.5 468 L 120 471.5 L 119 471.5 L 119.5 468 Z " /><path fill="rgb(244,214,173)" stroke="rgb(244,214,173)" stroke-width="1" opacity="1" d="M 198.5 476 L 199 478.5 L 198 478.5 L 198.5 476 Z " /><path fill="rgb(244,214,173)" stroke="rgb(244,214,173)" stroke-width="1" opacity="1" d="M 129.5 492 L 138 501.5 L 129 493.5 L 129.5 492 Z " /><path fill="rgb(244,214,173)" stroke="rgb(244,214,173)" stroke-width="1" opacity="1" d="M 191.5 492 L 182.5 502 L 180.5 503 L 182.5 500 L 191.5 492 Z " /><path fill="rgb(244,214,173)" stroke="rgb(244,214,173)" stroke-width="1" opacity="1" d="M 139.5 502 L 140.5 504 L 139.5 502 Z " /><path fill="rgb(244,214,173)" stroke="rgb(244,214,173)" stroke-width="1" opacity="1" d="M 178.5 503 L 177.5 505 L 178.5 503 Z " /><path fill="rgb(244,214,173)" stroke="rgb(244,214,173)" stroke-width="1" opacity="1" d="M 91.5 563 L 93.5 566 L 91.5 563 Z " /><path fill="rgb(254,241,223)" stroke="rgb(254,241,223)" stroke-width="1" opacity="1" d="M 146.5 279 L 145.5 281 L 146.5 279 Z " /><path fill="rgb(254,241,223)" stroke="rgb(254,241,223)" stroke-width="1" opacity="1" d="M 173.5 279 L 174.5 281 L 173.5 279 Z " /><path fill="rgb(254,241,223)" stroke="rgb(254,241,223)" stroke-width="1" opacity="1" d="M 143.5 281 L 138.5 287 L 143.5 281 Z " /><path fill="rgb(254,241,223)" stroke="rgb(254,241,223)" stroke-width="1" opacity="1" d="M 176.5 281 L 181.5 287 L 176.5 281 Z " /><path fill="rgb(254,241,223)" stroke="rgb(254,241,223)" stroke-width="1" opacity="1" d="M 148.5 287 L 144.5 292 L 148.5 287 Z " /><path fill="rgb(254,241,223)" stroke="rgb(254,241,223)" stroke-width="1" opacity="1" d="M 137.5 288 L 136.5 290 L 137.5 288 Z " /><path fill="rgb(254,241,223)" stroke="rgb(254,241,223)" stroke-width="1" opacity="1" d="M 173.5 288 L 176.5 292 L 173.5 288 Z " /><path fill="rgb(254,241,223)" stroke="rgb(254,241,223)" stroke-width="1" opacity="1" d="M 182.5 288 L 183.5 290 L 182.5 288 Z " /><path fill="rgb(254,241,223)" stroke="rgb(254,241,223)" stroke-width="1" opacity="1" d="M 96.5 313 L 95.5 315 L 96.5 313 Z " /><path fill="rgb(254,241,223)" stroke="rgb(254,241,223)" stroke-width="1" opacity="1" d="M 223.5 313 L 224.5 315 L 223.5 313 Z " /><path fill="rgb(254,241,223)" stroke="rgb(254,241,223)" stroke-width="1" opacity="1" d="M 144.5 317 L 147.5 321 L 144.5 317 Z " /><path fill="rgb(254,241,223)" stroke="rgb(254,241,223)" stroke-width="1" opacity="1" d="M 176.5 317 L 173.5 321 L 176.5 317 Z " /><path fill="rgb(254,241,223)" stroke="rgb(254,241,223)" stroke-width="1" opacity="1" d="M 91.5 318 L 90.5 320 L 91.5 318 Z " /><path fill="rgb(254,241,223)" stroke="rgb(254,241,223)" stroke-width="1" opacity="1" d="M 228.5 318 L 229.5 320 L 228.5 318 Z " /><path fill="rgb(254,241,223)" stroke="rgb(254,241,223)" stroke-width="1" opacity="1" d="M 204.5 348 L 206 348 L 206 353 L 204 352.5 L 205 349.5 L 204.5 348 Z " /><path fill="rgb(254,241,223)" stroke="rgb(254,241,223)" stroke-width="1" opacity="1" d="M 138.5 349 Q 140.8 348.3 140 350.5 L 138.5 349 Z " /><path fill="rgb(254,241,223)" stroke="rgb(254,241,223)" stroke-width="1" opacity="1" d="M 183.5 349 L 184 373.5 L 185 375.5 L 184 375.5 L 183 373.5 L 183.5 349 Z " /><path fill="rgb(254,241,223)" stroke="rgb(254,241,223)" stroke-width="1" opacity="1" d="M 171.5 351 L 177 351.5 Q 171 351 168.5 354 L 169.5 352 L 171.5 351 Z " /><path fill="rgb(254,241,223)" stroke="rgb(254,241,223)" stroke-width="1" opacity="1" d="M 190.5 351 L 194 351.5 L 190.5 352 L 190.5 351 Z " /><path fill="rgb(254,241,223)" stroke="rgb(254,241,223)" stroke-width="1" opacity="1" d="M 115.5 352 L 116.5 354 L 115.5 352 Z " /><path fill="rgb(254,241,223)" stroke="rgb(254,241,223)" stroke-width="1" opacity="1" d="M 122.5 352 Q 128.8 350.8 130 354.5 L 127.5 353 L 120.5 354 L 120.5 353 L 122.5 352 Z " /><path fill="rgb(254,241,223)" stroke="rgb(254,241,223)" stroke-width="1" opacity="1" d="M 195.5 352 L 196.5 354 L 195.5 352 Z " /><path fill="rgb(254,241,223)" stroke="rgb(254,241,223)" stroke-width="1" opacity="1" d="M 98.5 353 L 100 353.5 L 98 354 L 97.5 356 L 97 354.5 L 98.5 353 Z " /><path fill="rgb(254,241,223)" stroke="rgb(254,241,223)" stroke-width="1" opacity="1" d="M 106.5 353 L 108.5 356 L 106.5 353 Z " /><path fill="rgb(254,241,223)" stroke="rgb(254,241,223)" stroke-width="1" opacity="1" d="M 152.5 353 L 151.5 355 L 152.5 353 Z " /><path fill="rgb(254,241,223)" stroke="rgb(254,241,223)" stroke-width="1" opacity="1" d="M 159.5 353 L 161.5 356 L 159.5 353 Z " /><path fill="rgb(254,241,223)" stroke="rgb(254,241,223)" stroke-width="1" opacity="1" d="M 213.5 353 L 215 353.5 L 210 357.5 L 208.5 361 L 208 359.5 L 213.5 353 Z " /><path fill="rgb(254,241,223)" stroke="rgb(254,241,223)" stroke-width="1" opacity="1" d="M 220.5 353 L 223 354.5 L 221.5 354 L 220.5 353 Z " /><path fill="rgb(254,241,223)" stroke="rgb(254,241,223)" stroke-width="1" opacity="1" d="M 201 354 L 203 354.5 L 201 355.5 L 201 354 Z " /><path fill="rgb(254,241,223)" stroke="rgb(254,241,223)" stroke-width="1" opacity="1" d="M 205.5 354 Q 207.8 353.3 207 355.5 L 205.5 354 Z " /><path fill="rgb(254,241,223)" stroke="rgb(254,241,223)" stroke-width="1" opacity="1" d="M 150.5 356 L 149.5 358 L 150.5 356 Z " /><path fill="rgb(254,241,223)" stroke="rgb(254,241,223)" stroke-width="1" opacity="1" d="M 178.5 356 L 177.5 358 L 175 357.5 L 178.5 356 Z " /><path fill="rgb(254,241,223)" stroke="rgb(254,241,223)" stroke-width="1" opacity="1" d="M 223.5 356 L 224.5 358 L 223.5 356 Z " /><path fill="rgb(254,241,223)" stroke="rgb(254,241,223)" stroke-width="1" opacity="1" d="M 116.5 357 L 117 359.5 L 115 358.5 L 116.5 357 Z " /><path fill="rgb(254,241,223)" stroke="rgb(254,241,223)" stroke-width="1" opacity="1" d="M 173.5 357 L 172.5 359 L 173.5 357 Z " /><path fill="rgb(254,241,223)" stroke="rgb(254,241,223)" stroke-width="1" opacity="1" d="M 191.5 357 L 193 359.5 L 192 359.5 L 191.5 357 Z " /><path fill="rgb(254,241,223)" stroke="rgb(254,241,223)" stroke-width="1" opacity="1" d="M 112.5 358 L 113.5 360 Q 110.7 360.7 112.5 358 Z " /><path fill="rgb(254,241,223)" stroke="rgb(254,241,223)" stroke-width="1" opacity="1" d="M 118.5 358 L 119 361.5 L 118 361.5 L 118.5 358 Z " /><path fill="rgb(254,241,223)" stroke="rgb(254,241,223)" stroke-width="1" opacity="1" d="M 124.5 358 L 130 359 L 129 361.5 L 130.5 364 L 126 361 L 125.5 359 L 123.5 360 L 124.5 358 Z " /><path fill="rgb(254,241,223)" stroke="rgb(254,241,223)" stroke-width="1" opacity="1" d="M 156.5 358 L 154 361.5 L 153.5 363 L 153 361.5 L 156.5 358 Z " /><path fill="rgb(254,241,223)" stroke="rgb(254,241,223)" stroke-width="1" opacity="1" d="M 218.5 359 L 219.5 361 L 218.5 359 Z " /><path fill="rgb(254,241,223)" stroke="rgb(254,241,223)" stroke-width="1" opacity="1" d="M 104.5 360 L 105 362.5 L 103 363.5 L 104.5 360 Z " /><path fill="rgb(254,241,223)" stroke="rgb(254,241,223)" stroke-width="1" opacity="1" d="M 119.5 363 L 120.5 365 L 119.5 363 Z " /><path fill="rgb(254,241,223)" stroke="rgb(254,241,223)" stroke-width="1" opacity="1" d="M 142.5 364 L 141.5 366 L 142.5 364 Z " /><path fill="rgb(254,241,223)" stroke="rgb(254,241,223)" stroke-width="1" opacity="1" d="M 109.5 365 L 106.5 369 L 105 368.5 L 109.5 365 Z " /><path fill="rgb(254,241,223)" stroke="rgb(254,241,223)" stroke-width="1" opacity="1" d="M 123.5 365 L 127 367.5 L 125.5 370 L 126 368.5 L 124.5 366 L 123.5 365 Z " /><path fill="rgb(254,241,223)" stroke="rgb(254,241,223)" stroke-width="1" opacity="1" d="M 97.5 366 L 98 368.5 L 97 368.5 L 97.5 366 Z " /><path fill="rgb(254,241,223)" stroke="rgb(254,241,223)" stroke-width="1" opacity="1" d="M 171.5 367 L 173.5 370 L 171.5 367 Z " /><path fill="rgb(254,241,223)" stroke="rgb(254,241,223)" stroke-width="1" opacity="1" d="M 199.5 367 L 200 370.5 L 199 370.5 L 199.5 367 Z " /><path fill="rgb(254,241,223)" stroke="rgb(254,241,223)" stroke-width="1" opacity="1" d="M 214.5 367 L 218.5 370 L 221 368.5 L 217.5 371 L 215 370 L 214.5 367 Z " /><path fill="rgb(254,241,223)" stroke="rgb(254,241,223)" stroke-width="1" opacity="1" d="M 119.5 368 L 124 369.5 L 122.5 370 L 119.5 369 L 118 369.5 L 119.5 368 Z " /><path fill="rgb(254,241,223)" stroke="rgb(254,241,223)" stroke-width="1" opacity="1" d="M 176.5 368 L 175.5 370 L 176.5 368 Z " /><path fill="rgb(254,241,223)" stroke="rgb(254,241,223)" stroke-width="1" opacity="1" d="M 208.5 368 L 213.5 375 L 215 375.5 L 213.5 376 Q 208.2 373.4 208.5 368 Z " /><path fill="rgb(254,241,223)" stroke="rgb(254,241,223)" stroke-width="1" opacity="1" d="M 131.5 370 L 132 371.5 L 128 374.5 L 131.5 370 Z " /><path fill="rgb(254,241,223)" stroke="rgb(254,241,223)" stroke-width="1" opacity="1" d="M 167.5 372 L 169.5 375 L 167.5 372 Z " /><path fill="rgb(254,241,223)" stroke="rgb(254,241,223)" stroke-width="1" opacity="1" d="M 97.5 373 L 98 376 L 102.5 375 L 103 377 Q 98.4 378.3 97 375.5 L 97.5 373 Z " /><path fill="rgb(254,241,223)" stroke="rgb(254,241,223)" stroke-width="1" opacity="1" d="M 118.5 373 L 119.5 375 L 118.5 373 Z " /><path fill="rgb(254,241,223)" stroke="rgb(254,241,223)" stroke-width="1" opacity="1" d="M 199.5 373 L 200 374.5 Q 199.3 376.8 195.5 376 L 194.5 374 L 199 375 L 199.5 373 Z " /><path fill="rgb(254,241,223)" stroke="rgb(254,241,223)" stroke-width="1" opacity="1" d="M 224.5 373 L 222.5 376 L 221 375.5 L 224.5 373 Z " /><path fill="rgb(254,241,223)" stroke="rgb(254,241,223)" stroke-width="1" opacity="1" d="M 112.5 374 L 116 374.5 L 112.5 375 L 112.5 374 Z " /><path fill="rgb(254,241,223)" stroke="rgb(254,241,223)" stroke-width="1" opacity="1" d="M 135.5 374 Q 136.8 377.3 142.5 376 L 145 374.5 Q 143.8 378.3 137.5 377 L 135.5 374 Z " /><path fill="rgb(254,241,223)" stroke="rgb(254,241,223)" stroke-width="1" opacity="1" d="M 149.5 374 L 150.5 376 L 149.5 374 Z " /><path fill="rgb(254,241,223)" stroke="rgb(254,241,223)" stroke-width="1" opacity="1" d="M 157.5 375 L 163 376.5 L 159.5 377 L 157.5 375 Z " /><path fill="rgb(254,241,223)" stroke="rgb(254,241,223)" stroke-width="1" opacity="1" d="M 152.5 376 L 156 376.5 L 152.5 377 L 152.5 376 Z " /><path fill="rgb(254,241,223)" stroke="rgb(254,241,223)" stroke-width="1" opacity="1" d="M 144.5 406 L 146 406.5 L 142 409.5 L 140.5 413 L 140 411.5 L 144.5 406 Z " /><path fill="rgb(254,241,223)" stroke="rgb(254,241,223)" stroke-width="1" opacity="1" d="M 151.5 407 L 154 408.5 L 152.5 408 L 151.5 407 Z " /><path fill="rgb(254,241,223)" stroke="rgb(254,241,223)" stroke-width="1" opacity="1" d="M 155.5 409 L 156.5 411 L 155.5 409 Z " /><path fill="rgb(254,241,223)" stroke="rgb(254,241,223)" stroke-width="1" opacity="1" d="M 178.5 409 L 185 410 L 186 412.5 L 182.5 410 L 178.5 410 L 173.5 415 L 175 412.5 L 176.5 410 L 178.5 409 Z " /><path fill="rgb(254,241,223)" stroke="rgb(254,241,223)" stroke-width="1" opacity="1" d="M 160.5 412 L 161 414.5 L 160 414.5 L 160.5 412 Z " /><path fill="rgb(254,241,223)" stroke="rgb(254,241,223)" stroke-width="1" opacity="1" d="M 186.5 414 L 188 417.5 L 187 417.5 L 186.5 414 Z " /><path fill="rgb(254,241,223)" stroke="rgb(254,241,223)" stroke-width="1" opacity="1" d="M 138.5 417 L 136 420.5 L 128.5 431 L 129 429.5 L 130 426.5 L 138.5 417 Z " /><path fill="rgb(254,241,223)" stroke="rgb(254,241,223)" stroke-width="1" opacity="1" d="M 189.5 421 L 191 424.5 L 190 424.5 L 189.5 421 Z " /><path fill="rgb(254,241,223)" stroke="rgb(254,241,223)" stroke-width="1" opacity="1" d="M 193.5 431 L 195 434.5 L 194 434.5 L 193.5 431 Z " /><path fill="rgb(254,241,223)" stroke="rgb(254,241,223)" stroke-width="1" opacity="1" d="M 126.5 434 L 125.5 436 L 126.5 434 Z " /><path fill="rgb(254,241,223)" stroke="rgb(254,241,223)" stroke-width="1" opacity="1" d="M 197.5 440 L 199 443.5 L 198 443.5 L 197.5 440 Z " /><path fill="rgb(254,241,223)" stroke="rgb(254,241,223)" stroke-width="1" opacity="1" d="M 200.5 448 L 201 450.5 L 200 450.5 L 200.5 448 Z " /><path fill="rgb(254,241,223)" stroke="rgb(254,241,223)" stroke-width="1" opacity="1" d="M 201.5 453 L 202 455.5 L 201 455.5 L 201.5 453 Z " /><path fill="rgb(254,241,223)" stroke="rgb(254,241,223)" stroke-width="1" opacity="1" d="M 201.5 465 L 202 467.5 L 201 467.5 L 201.5 465 Z " /><path fill="rgb(254,241,223)" stroke="rgb(254,241,223)" stroke-width="1" opacity="1" d="M 200.5 471 L 201 473.5 L 200 473.5 L 200.5 471 Z " /><path fill="rgb(254,241,223)" stroke="rgb(254,241,223)" stroke-width="1" opacity="1" d="M 122.5 483 L 123.5 485 Q 120.7 485.7 122.5 483 Z " /><path fill="rgb(254,241,223)" stroke="rgb(254,241,223)" stroke-width="1" opacity="1" d="M 125.5 488 L 126.5 490 L 125.5 488 Z " /><path fill="rgb(254,241,223)" stroke="rgb(254,241,223)" stroke-width="1" opacity="1" d="M 194.5 488 L 194 489.5 L 193 492.5 L 183.5 502 L 192 492.5 L 194.5 488 Z " /><path fill="rgb(254,241,223)" stroke="rgb(254,241,223)" stroke-width="1" opacity="1" d="M 127.5 491 L 128.5 493 L 127.5 491 Z " /><path fill="rgb(254,241,223)" stroke="rgb(254,241,223)" stroke-width="1" opacity="1" d="M 130.5 495 L 134.5 500 L 130.5 495 Z " /><path fill="rgb(254,241,223)" stroke="rgb(254,241,223)" stroke-width="1" opacity="1" d="M 138.5 502 L 139.5 504 L 138.5 502 Z " /><path fill="rgb(254,241,223)" stroke="rgb(254,241,223)" stroke-width="1" opacity="1" d="M 141.5 504 L 142.5 506 L 141.5 504 Z " /><path fill="rgb(254,241,223)" stroke="rgb(254,241,223)" stroke-width="1" opacity="1" d="M 176.5 505 L 175.5 507 L 176.5 505 Z " /><path fill="rgb(254,241,223)" stroke="rgb(254,241,223)" stroke-width="1" opacity="1" d="M 151.5 508 L 155 508.5 L 151.5 509 L 151.5 508 Z " /><path fill="rgb(254,241,223)" stroke="rgb(254,241,223)" stroke-width="1" opacity="1" d="M 225.5 565 L 224.5 567 L 225.5 565 Z " /><path fill="rgb(254,241,223)" stroke="rgb(254,241,223)" stroke-width="1" opacity="1" d="M 97.5 567 L 98.5 569 L 97.5 567 Z " /><path fill="rgb(254,241,223)" stroke="rgb(254,241,223)" stroke-width="1" opacity="1" d="M 222.5 567 L 221.5 569 L 222.5 567 Z " /><path fill="rgb(204,219,67)" stroke="rgb(204,219,67)" stroke-width="1" opacity="1" d="M 154 42 L 165.5 42 L 166 43.5 L 167 44.5 L 167 68 Q 163.2 69 162 66.5 L 153 44.5 L 154 42 Z " /><path fill="rgb(204,219,67)" stroke="rgb(204,219,67)" stroke-width="1" opacity="1" d="M 167 72 Q 171.1 70.3 170 74.5 L 175 103.5 L 175 110.5 L 176 111.5 L 178 132 Q 168.8 137 151.5 135 L 143 131.5 Q 157.5 103.8 167 72 Z " /><path fill="rgb(204,219,67)" stroke="rgb(204,219,67)" stroke-width="1" opacity="1" d="M 197.5 124 L 213 131 Q 214 134.8 211.5 136 Q 197.9 144.4 176.5 145 L 176.5 144 Q 190.8 140.3 199 130.5 L 197.5 124 Z " /><path fill="rgb(204,219,67)" stroke="rgb(204,219,67)" stroke-width="1" opacity="1" d="M 212.5 142 L 214 142.5 L 214 173.5 L 213 176.5 L 211.5 179 L 206.5 182 L 188.5 187 L 171.5 188 L 170.5 189 L 149.5 189 L 148.5 188 L 138.5 188 L 137.5 187 L 126.5 186 L 118 182.5 L 124 174.5 L 134 150 L 142.5 150 L 143.5 151 L 176.5 151 L 177.5 150 L 185.5 150 L 201.5 147 L 212.5 142 Z " /><path fill="rgb(204,219,67)" stroke="rgb(204,219,67)" stroke-width="1" opacity="1" d="M 210.5 186 L 214.5 186 L 228.5 193 L 247 207.5 Q 256.2 216.8 260 231.5 L 260 303.5 L 259 303.5 Q 252.5 267.5 240 237.5 Q 230.3 216.2 213.5 202 L 198 190.5 L 210.5 186 Z " /><path fill="rgb(204,219,67)" stroke="rgb(204,219,67)" stroke-width="1" opacity="1" d="M 121.5 354 L 120.5 356 L 121.5 354 Z " /><path fill="rgb(204,219,67)" stroke="rgb(204,219,67)" stroke-width="1" opacity="1" d="M 220.5 354 L 222.5 357 L 220.5 354 Z " /><path fill="rgb(204,219,67)" stroke="rgb(204,219,67)" stroke-width="1" opacity="1" d="M 189.5 357 L 188.5 359 L 189.5 357 Z " /><path fill="rgb(204,219,67)" stroke="rgb(204,219,67)" stroke-width="1" opacity="1" d="M 157.5 358 L 158 362.5 L 157 362.5 L 157.5 358 Z " /><path fill="rgb(204,219,67)" stroke="rgb(204,219,67)" stroke-width="1" opacity="1" d="M 162.5 368 L 163 374.5 L 161 375.5 L 162.5 368 Z " /><path fill="rgb(204,219,67)" stroke="rgb(204,219,67)" stroke-width="1" opacity="1" d="M 214.5 369 L 215.5 371 L 214.5 369 Z " /><path fill="rgb(204,219,67)" stroke="rgb(204,219,67)" stroke-width="1" opacity="1" d="M 115.5 372 L 114.5 374 L 113 373.5 L 115.5 372 Z " /><path fill="rgb(204,219,67)" stroke="rgb(204,219,67)" stroke-width="1" opacity="1" d="M 60.5 436 L 65 445.5 L 65 467.5 L 66 468.5 L 67 487.5 L 68 488.5 L 69 502.5 L 75 534.5 L 83 564.5 L 99 606.5 L 97.5 606 Q 81.6 598.9 71 586.5 Q 63.3 577.7 60 564.5 L 60.5 436 Z " /><path fill="rgb(204,219,67)" stroke="rgb(204,219,67)" stroke-width="1" opacity="1" d="M 154.5 467 L 155 469.5 L 154 469.5 L 154.5 467 Z " /><path fill="rgb(204,219,67)" stroke="rgb(204,219,67)" stroke-width="1" opacity="1" d="M 153.5 478 L 154 483.5 L 153 483.5 L 153.5 478 Z " /><path fill="rgb(204,219,67)" stroke="rgb(204,219,67)" stroke-width="1" opacity="1" d="M 153.5 486 L 154 489.5 L 153 489.5 L 153.5 486 Z " /><path fill="rgb(255,242,224)" stroke="rgb(255,242,224)" stroke-width="1" opacity="1" d="M 154.5 276 Q 163.4 274.6 168.5 277 Q 176.9 280.6 182 287.5 Q 187.3 293 187 303 L 191.5 304 L 193.5 304 Q 215.4 306.1 228 317.5 L 229.5 320 L 231 320.5 L 231 549.5 L 226 564.5 L 223.5 567 L 213.5 572 L 192.5 577 L 177.5 578 L 176.5 579 L 143.5 579 L 142.5 578 L 121.5 576 L 106.5 572 L 94.5 566 L 91 562.5 L 89 558.5 L 89 320 L 92 318.5 L 94.5 315 L 105.5 309 L 127.5 303 L 129.5 303 Q 135.2 304.8 133 298.5 Q 135.9 286.9 144.5 281 L 154.5 276 Z M 158 284 L 149 287 Q 141 291 140 302 L 141 313 L 144 318 L 151 323 L 158 325 L 169 324 L 174 321 L 179 315 L 181 307 Q 181 297 177 292 L 171 286 L 158 284 Z M 183 344 L 183 374 L 184 375 L 184 376 L 189 376 L 189 361 L 190 360 Q 189 357 192 358 Q 195 363 194 375 L 196 376 Q 199 377 200 375 L 199 358 L 197 354 Q 196 350 191 351 Q 189 353 188 351 L 188 344 L 183 344 Z M 201 348 L 199 350 L 199 353 L 206 353 Q 209 346 201 348 Z M 135 349 L 134 356 L 130 357 Q 131 353 128 352 Q 122 351 120 353 L 118 359 L 119 364 L 126 368 L 125 370 L 120 368 Q 117 369 118 374 L 122 376 Q 130 377 132 372 L 131 364 L 129 360 L 134 361 L 134 373 L 135 375 Q 136 378 143 377 Q 148 374 146 364 Q 142 363 141 366 Q 143 371 139 370 L 139 361 L 144 361 L 144 356 L 140 356 L 140 355 Q 143 346 135 349 Z M 172 351 L 170 352 L 166 359 L 166 371 L 167 373 L 172 376 Q 178 377 181 374 L 182 372 Q 185 363 177 366 L 175 370 L 170 365 L 175 357 L 178 358 Q 180 357 179 352 Q 177 350 172 351 Z M 112 352 L 112 375 L 116 375 L 117 373 L 117 354 Q 116 351 112 352 Z M 99 353 L 97 355 L 97 369 L 98 370 L 97 374 L 99 377 L 103 377 L 103 369 Q 109 370 110 366 Q 111 359 109 356 Q 107 351 99 353 Z M 153 353 L 148 360 L 148 373 L 149 375 L 153 377 L 157 376 L 163 377 L 162 356 Q 160 351 153 353 Z M 214 353 L 208 360 Q 206 368 209 372 Q 211 378 223 376 L 225 374 L 227 368 L 227 363 L 223 355 L 222 353 L 214 353 Z M 201 354 L 201 370 L 202 371 Q 200 379 207 376 L 207 355 L 207 354 L 201 354 Z M 145 406 Q 140 409 139 417 L 130 427 L 122 442 L 119 452 L 119 462 L 118 463 Q 121 466 119 474 L 122 483 Q 121 486 124 485 L 130 496 L 145 507 L 160 510 L 172 509 L 184 502 L 193 493 Q 200 482 202 468 L 201 449 L 185 410 L 183 409 L 177 410 L 173 416 Q 167 417 165 414 L 163 415 Q 159 416 161 412 L 153 407 L 145 406 Z " /><path fill="rgb(255,242,224)" stroke="rgb(255,242,224)" stroke-width="1" opacity="1" d="M 103.5 359 L 104 362.5 L 103 362.5 L 103.5 359 Z " /><path fill="rgb(255,242,224)" stroke="rgb(255,242,224)" stroke-width="1" opacity="1" d="M 156.5 359 L 157 361.5 L 155 369 Q 151 370.4 153 363.5 L 156.5 359 Z " /><path fill="rgb(255,242,224)" stroke="rgb(255,242,224)" stroke-width="1" opacity="1" d="M 217.5 359 L 222 365.5 L 218.5 370 L 214 366.5 L 215 360 L 217.5 359 Z " /><path fill="rgb(149,153,15)" stroke="rgb(149,153,15)" stroke-width="1" opacity="1" d="M 104.5 186 L 107 187.5 Q 87.4 212.4 77 246.5 L 69 284.5 L 68 300.5 L 65 316.5 L 64 333.5 L 63 334.5 L 63 344.5 L 62 345.5 L 60.5 367 L 60 230.5 L 66 215.5 L 81.5 199 L 104.5 186 Z " /><path fill="rgb(149,153,15)" stroke="rgb(149,153,15)" stroke-width="1" opacity="1" d="M 243.5 203 L 247.5 208 L 243.5 203 Z " /><path fill="rgb(149,153,15)" stroke="rgb(149,153,15)" stroke-width="1" opacity="1" d="M 250.5 211 L 251.5 213 L 250.5 211 Z " /><path fill="rgb(149,153,15)" stroke="rgb(149,153,15)" stroke-width="1" opacity="1" d="M 142.5 281 L 141.5 283 L 142.5 281 Z " /><path fill="rgb(149,153,15)" stroke="rgb(149,153,15)" stroke-width="1" opacity="1" d="M 177.5 281 L 178.5 283 L 177.5 281 Z " /><path fill="rgb(149,153,15)" stroke="rgb(149,153,15)" stroke-width="1" opacity="1" d="M 259.5 424 L 260 565.5 L 254 580.5 L 238.5 597 Q 226.2 607.2 208.5 612 L 209 610.5 L 223 573 L 233 566.5 L 236 558.5 L 236 532.5 L 241 515.5 L 254 444.5 L 259.5 424 Z " /><path fill="rgb(149,153,15)" stroke="rgb(149,153,15)" stroke-width="1" opacity="1" d="M 230.5 553 L 231 560.5 L 226.5 566 L 227 564.5 L 230.5 553 Z " /><path fill="rgb(149,153,15)" stroke="rgb(149,153,15)" stroke-width="1" opacity="1" d="M 72.5 588 L 76.5 593 L 72.5 588 Z " /></svg>