<?xml version="1.0" encoding="UTF-8"?>
<svg version="1.1" xmlns="http://www.w3.org/2000/svg" width="1280" height="1280">
<path d="M0 0 C370.59 0 741.18 0 1123 0 C1123 186.45 1123 372.9 1123 565 C964.6 565 806.2 565 643 565 C643 761.35 643 957.7 643 1160 C586.9 1160 530.8 1160 473 1160 C473 963.65 473 767.3 473 565 C316.91 565 160.82 565 0 565 C0 378.55 0 192.1 0 0 Z " fill="#FEF1DF" transform="translate(79,83)"/>
<path d="M0 0 C370.59 0 741.18 0 1123 0 C1123 186.45 1123 372.9 1123 565 C964.6 565 806.2 565 643 565 C643 761.35 643 957.7 643 1160 C586.9 1160 530.8 1160 473 1160 C473 963.65 473 767.3 473 565 C316.91 565 160.82 565 0 565 C0 378.55 0 192.1 0 0 Z M5 4 C5 187.48 5 370.96 5 560 C129.84429477 560.68888929 129.84429477 560.68888929 254.68894279 561.15595913 C272.77020672 561.20494775 290.85146698 561.25505768 308.93271799 561.30862385 C311.11976301 561.31510004 313.30680815 561.32154095 315.49385338 561.32794613 C350.35486676 561.43033592 385.21494543 561.6104137 420.07539389 561.8311333 C455.90620153 562.05758448 491.73649239 562.20526592 527.56800353 562.25395976 C532.62987515 562.26087539 537.691745 562.26869067 542.75361443 562.27705383 C543.74985458 562.27867199 544.74609473 562.28029014 545.77252398 562.28195732 C561.80435428 562.31031022 577.8345858 562.42159564 593.8657643 562.56396881 C609.98613752 562.70536163 626.10492734 562.75920934 642.22589881 562.72403306 C651.80314195 562.7057872 661.37458696 562.75431707 670.95078164 562.89914103 C677.35349979 562.98934754 683.75243613 562.99180728 690.15541864 562.92396353 C693.80342289 562.8877938 697.4405074 562.88877036 701.08732349 562.99719638 C715.81347534 563.77696559 715.81347534 563.77696559 728.57067041 557.67990315 C733.21005354 551.97406373 736.43568156 545.7215116 739.49739432 539.06818897 C741.89435179 534.17381212 744.9444382 529.75900222 748.02734375 525.27734375 C749.17442842 523.56043289 750.31984382 521.84240448 751.46289062 520.12280273 C752.62081719 518.3941832 753.77902507 516.66575208 754.9375 514.9375 C756.16473739 513.10165982 757.39195063 511.2658035 758.61914062 509.42993164 C767.26443698 496.51361367 776.0287489 483.69247984 785 471 C786.05653279 469.49517291 787.11253516 467.98997324 788.16796875 466.484375 C793.18083327 459.34420916 798.25487416 452.25109293 803.375 445.1875 C809.76615782 436.36858189 816.01517764 427.45399961 822.24267578 418.51904297 C824.54093276 415.22459791 826.84645916 411.93527601 829.15209961 408.64599609 C836.88785798 397.6074405 844.60816126 386.55825816 852.27636719 375.47265625 C853.76156616 373.34204787 855.26742015 371.22961661 856.7890625 369.125 C857.51867187 368.09375 858.24828125 367.0625 859 366 C859.598125 365.175 860.19625 364.35 860.8125 363.5 C863.02415349 358.84388738 862.32821206 354.62429508 860.79296875 349.87109375 C860.26544093 348.39048903 859.72994803 346.91270374 859.1875 345.4375 C856.49242668 337.69417474 854.39089384 330.09698914 853 322 C852.79697266 320.89736816 852.79697266 320.89736816 852.58984375 319.77246094 C848.09012405 294.81117802 848.75199516 268.94467958 853 244 C853.14985352 243.11393066 853.29970703 242.22786133 853.45410156 241.31494141 C857.04532681 220.70923813 862.06090588 192.46488618 879.6875 178.9375 C889.04207062 176.28998001 898.29600715 177.90697579 907 182 C915.92351263 188.07166839 918.51908425 198.56322145 920.45703125 208.67578125 C920.72580078 210.32126953 920.72580078 210.32126953 921 212 C921.18433594 213.12019531 921.36867188 214.24039063 921.55859375 215.39453125 C923.71658609 233.02131826 922.51794597 259.62602519 911.1875 274.3125 C905.30930761 279.79207103 897.28094527 280.67225508 889.625 281.6875 C888.74328125 281.81705078 887.8615625 281.94660156 886.953125 282.08007812 C880.93658399 282.9137484 875.06998636 283.15440477 869 283 C868.54058894 307.02639234 870.55570783 342.10293614 888.3203125 360.578125 C890.39513054 362.3344826 892.35550696 363.35891078 895 364 C905.40116837 351.63759437 906.51631715 335.18733309 908.7734375 319.75390625 C908.89702637 318.93937988 909.02061523 318.12485352 909.14794922 317.28564453 C909.37568297 315.76668254 909.58922688 314.245496 909.78564453 312.72216797 C910.47103087 308.11780558 911.55336638 305.18859688 915 302 C917.25390625 301.4765625 917.25390625 301.4765625 919.5625 301.625 C920.70912109 301.67527344 920.70912109 301.67527344 921.87890625 301.7265625 C924 302 924 302 927 303 C930.25106354 311.42603449 927.61374811 322.58800049 926.3125 331.1875 C926.13605957 332.36844238 925.95961914 333.54938477 925.77783203 334.76611328 C924.19215827 344.8096306 921.93154452 354.39929653 917.7890625 363.7265625 C916.70035374 366.1174112 916.70035374 366.1174112 918 369 C922.21369107 366.44168756 923.84276917 363.31446167 926 359 C926 358.01 926 357.02 926 356 C926.66 356 927.32 356 928 356 C929.32066755 353.60835832 930.63161792 351.21219784 931.9375 348.8125 C932.49727539 347.80219727 932.49727539 347.80219727 933.06835938 346.77148438 C935.00554868 343.19379242 936.49827956 340.1013655 937 336 C937.66 336 938.32 336 939 336 C941.99784805 329.97386889 943.77226083 324.22566517 944.99609375 317.6015625 C946 315 946 315 948.37109375 313.140625 C951.97692925 311.57613174 954.23958496 312.02507758 958 313 C960.05938216 314.57885966 960.84571211 315.69142423 962 318 C962.1190031 320.06026415 962.17916964 322.12404637 962.2109375 324.1875 C962.23929688 325.44433594 962.26765625 326.70117188 962.296875 327.99609375 C962.35109519 330.63416396 962.3927861 333.27170611 962.4296875 335.91015625 C962.63661915 344.38573174 962.97383238 352.3051979 967.671875 359.59375 C971.09410967 361.66087161 974.37014275 361.59603192 978.25 361.5 C979.01344727 361.48864014 979.77689453 361.47728027 980.56347656 361.46557617 C987.83908557 361.21396785 992.06741406 359.5233879 997.6875 354.6875 C1006.68210785 344.2343071 1006.87399153 335.49545738 1006 322 C1003.69643203 302.06252997 988.56924754 286.21397348 974.78515625 272.76953125 C961.77932057 259.87753221 948.9924517 244.41074001 948.61962891 225.35375977 C948.65583479 209.48735574 951.71437177 194.57600185 961.375 181.5 C965.74382034 177.33921872 969.77971677 175.33304249 975.75 174.4375 C985.25513836 174.99772426 994.25379385 180.59754957 1001 187 C1001.51433594 187.73089844 1002.02867187 188.46179688 1002.55859375 189.21484375 C1003.03425781 189.80394531 1003.50992188 190.39304687 1004 191 C1004.99 191 1005.98 191 1007 191 C1015.83042132 169.98175758 1024.19819908 148.82161824 1032.26113892 127.49765015 C1032.75642593 126.18783676 1032.75642593 126.18783676 1033.26171875 124.8515625 C1033.74939224 123.5614476 1033.74939224 123.5614476 1034.24691772 122.24526978 C1036.9373975 115.13904574 1039.70109243 108.06428951 1042.5 101 C1052.71342276 75.14424087 1062.59058286 49.15932531 1072 23 C1072.30749176 22.14763763 1072.61498352 21.29527527 1072.93179321 20.41708374 C1073.7917993 18.02944328 1074.64695567 15.64013532 1075.5 13.25 C1075.88311592 12.18595695 1075.88311592 12.18595695 1076.27397156 11.10041809 C1077.56431814 7.63558441 1077.56431814 7.63558441 1078 4 C723.91 4 369.82 4 5 4 Z " fill="#EEDBC4" transform="translate(79,83)"/>
<path d="M0 0 C53.13 0 106.26 0 161 0 C161 194.04 161 388.08 161 588 C107.87 588 54.74 588 0 588 C0 393.96 0 199.92 0 0 Z " fill="#FEF1DF" transform="translate(556,650)"/>
<path d="M0 0 C83.49 0 166.98 0 253 0 C251.49214039 3.01571923 250.50872293 4.77241757 248.3828125 7.1796875 C247.60538696 8.06732788 247.60538696 8.06732788 246.81225586 8.97290039 C245.97706421 9.9144397 245.97706421 9.9144397 245.125 10.875 C243.94103136 12.22493171 242.75744601 13.57519967 241.57421875 14.92578125 C240.97528809 15.60721191 240.37635742 16.28864258 239.75927734 16.99072266 C237.12887443 19.99491583 234.53165433 23.02700757 231.9375 26.0625 C230.95058877 27.21620395 229.9636095 28.3698497 228.9765625 29.5234375 C228.48833008 30.09416992 228.00009766 30.66490234 227.49707031 31.25292969 C225.96713241 33.03835624 224.43329199 34.82036145 222.8984375 36.6015625 C218.39349578 41.8338868 213.91086652 47.07345663 209.5625 52.4375 C205.46214086 57.4869477 201.21630651 62.39773017 196.9465332 67.3034668 C189.27152391 76.12530369 181.74795895 85.05966278 174.37109375 94.1328125 C171.66861695 97.4007169 168.89994875 100.60621665 166.125 103.8125 C161.635495 109.00679831 157.34876139 114.32227471 153.14501953 119.74926758 C149.880603 123.93994623 146.48219816 127.98909406 143 132 C138.07812299 137.67549989 133.39405021 143.498536 128.78515625 149.4296875 C125.87589116 153.17297636 122.9082706 156.86797092 119.9375 160.5625 C115.0425999 166.665566 110.23160594 172.82826374 105.48876953 179.05029297 C103.75604465 181.31948629 102.01654017 183.5834194 100.27734375 185.84765625 C65.37202045 231.36990977 32.58099805 279.19379539 3.62646484 328.73486328 C2.77740611 330.17251578 1.89288792 331.5891504 1 333 C0.67 333 0.34 333 0 333 C0 223.11 0 113.22 0 0 Z " fill="#F0DDC5" transform="translate(84,87)"/>
<path d="M0 0 C0.33 0 0.66 0 1 0 C1 83.49 1 166.98 1 253 C-52.13 253 -105.26 253 -160 253 C-160 231.55 -160 210.1 -160 188 C-144.57626045 173.60450975 -144.57626045 173.60450975 -138.94580078 168.74951172 C-134.9474235 165.15448392 -131.17428265 161.3214099 -127.3815918 157.51196289 C-125.93974779 156.06475615 -124.49262884 154.62297974 -123.04492188 153.18164062 C-118.35756143 148.49764149 -113.79068932 143.75601249 -109.4777832 138.72290039 C-107.4192706 136.32294608 -105.27033622 134.0098084 -103.125 131.6875 C-99.05459944 127.22477168 -95.19823091 122.63742 -91.40625 117.9375 C-88.70220726 114.63646081 -85.9187381 111.41248327 -83.125 108.1875 C-78.67338253 103.03229197 -74.39557422 97.77215236 -70.2175293 92.39355469 C-66.68832332 87.85447226 -63.07717163 83.38834699 -59.4375 78.9375 C-54.73925261 73.18118756 -50.14938638 67.36256339 -45.64453125 61.453125 C-43.70214735 58.90705744 -41.73732155 56.379753 -39.76171875 53.859375 C-32.48128995 44.56782902 -25.38090426 35.1665573 -18.41015625 25.640625 C-14.60094264 20.4396043 -10.72273846 15.29114468 -6.81787109 10.16162109 C-4.32811992 6.86844267 -2.12346526 3.54584993 0 0 Z " fill="#F0DDC5" transform="translate(716,985)"/>
<path d="M0 0 C370.59 0 741.18 0 1123 0 C1123 186.45 1123 372.9 1123 565 C964.6 565 806.2 565 643 565 C643 761.35 643 957.7 643 1160 C586.9 1160 530.8 1160 473 1160 C473 963.65 473 767.3 473 565 C316.91 565 160.82 565 0 565 C0 378.55 0 192.1 0 0 Z M5 4 C5 187.81 5 371.62 5 561 C372.29 561 739.58 561 1118 561 C1118 377.19 1118 193.38 1118 4 C750.71 4 383.42 4 5 4 Z M477 567 C477 761.04 477 955.08 477 1155 C530.13 1155 583.26 1155 638 1155 C638 960.96 638 766.92 638 567 C584.87 567 531.74 567 477 567 Z " fill="#381F1A" transform="translate(79,83)"/>
<path d="M0 0 C15.19867055 11.66084831 21.52842099 25.32883899 24.23828125 44.08203125 C25.11443263 55.81671444 23.97016618 67.74818511 16.11328125 77.05859375 C15.49453125 77.72632813 14.87578125 78.3940625 14.23828125 79.08203125 C13.45453125 79.95601563 12.67078125 80.83 11.86328125 81.73046875 C3.05559057 91.07583823 -6.93533898 98.41561538 -19.76171875 101.08203125 C-20.83421875 101.30890625 -21.90671875 101.53578125 -23.01171875 101.76953125 C-26.69911182 102.07681401 -30.29697896 102.11224124 -33.99609375 102.1015625 C-35.26163086 102.09874268 -36.52716797 102.09592285 -37.83105469 102.09301758 C-38.79817383 102.08939209 -39.76529297 102.0857666 -40.76171875 102.08203125 C-40.7528363 103.15865021 -40.74395386 104.23526917 -40.73480225 105.34451294 C-40.65367219 115.49672449 -40.59373205 125.64887015 -40.55447006 135.80133247 C-40.53360636 141.02068735 -40.50531068 146.23978026 -40.45996094 151.45898438 C-40.41646016 156.49699347 -40.39257249 161.53475077 -40.38220978 166.5729332 C-40.37482604 168.49386432 -40.36040723 170.41478185 -40.33879852 172.33560562 C-40.30970827 175.0288889 -40.30576509 177.72113536 -40.30761719 180.41455078 C-40.28604553 181.60246468 -40.28604553 181.60246468 -40.26403809 182.81437683 C-40.30266954 188.01529521 -41.31752119 190.96121317 -44.76171875 195.08203125 C-48.4346675 197.53066375 -51.4944084 197.91386563 -55.76171875 197.08203125 C-58.9812652 194.54749468 -60.4660431 192.9690582 -61.76171875 189.08203125 C-61.84260251 186.66446326 -61.86693782 184.27718188 -61.84350586 181.86035156 C-61.84049312 181.12011183 -61.83748037 180.37987209 -61.83437634 179.61720085 C-61.82728482 177.99342789 -61.81793579 176.36966364 -61.80664444 174.74591446 C-61.78869973 172.10680341 -61.77730909 169.46773701 -61.76779175 166.82858276 C-61.75398621 163.0024338 -61.73856751 159.176297 -61.72207642 155.35015869 C-61.58444332 121.25607754 -61.78389289 87.17620783 -62.51442337 53.08934021 C-62.574264 50.20485001 -62.62824859 47.32030345 -62.68063354 44.43566895 C-62.76373669 39.90901154 -62.86192236 35.38294007 -62.97266006 30.85687637 C-63.0112968 29.1970361 -63.04523477 27.53707888 -63.0741539 25.87704086 C-63.11485098 23.61552293 -63.17371763 21.35520468 -63.23754883 19.09423828 C-63.26641678 17.82903351 -63.29528473 16.56382874 -63.32502747 15.26028442 C-63.79400327 11.84706345 -64.59649431 10.65578986 -66.76171875 8.08203125 C-67.27075644 4.0824494 -67.31828212 1.93979361 -65.1015625 -1.4765625 C-48.0639187 -19.25373674 -17.38863029 -12.07612089 0 0 Z " fill="#351C17" transform="translate(356.76171875,275.91796875)"/>
<path d="M0 0 C12.48083359 10.31681809 15.85275418 27.22571445 17.42211914 42.53857422 C18.26201022 52.08459469 18.15542016 61.67538848 18.125 71.25 C18.12376129 72.91023193 18.12376129 72.91023193 18.12249756 74.60400391 C18.09119354 93.04371984 17.21860671 111.33055049 15.81408691 129.71110535 C15.74524292 130.61210464 15.67639893 131.51310394 15.60546875 132.44140625 C15.53662476 133.33833694 15.46778076 134.23526764 15.39685059 135.15937805 C14.88781887 141.98618338 14.53081414 148.81303947 14.23828125 155.65234375 C14.17426117 157.14394516 14.17426117 157.14394516 14.10894775 158.66567993 C13.90832738 163.4348932 13.72178777 168.20437205 13.54736328 172.97460938 C13.47834883 174.67969393 13.40918394 176.38477241 13.33984375 178.08984375 C13.30398918 179.23972023 13.30398918 179.23972023 13.26741028 180.41282654 C13.02998689 186.02806116 12.51332791 190.65338684 8.625 194.875 C5.01012785 196.9635928 2.93039082 197.08827012 -1.1875 196.5 C-4.57689556 194.36320715 -5.91332557 193.3225233 -7.1875 189.5 C-7.28363969 187.24380091 -7.31824694 184.98480804 -7.3203125 182.7265625 C-7.32167709 182.05457825 -7.32304169 181.38259399 -7.32444763 180.69024658 C-7.32647544 178.5017811 -7.32015526 176.31345168 -7.3125 174.125 C-7.31128143 173.38268127 -7.31006287 172.64036255 -7.30880737 171.87554932 C-7.25209533 142.53360843 -7.25209533 142.53360843 -5.7019043 132.29174805 C-3.26155546 114.30358584 -3.96959866 95.75684752 -3.94726562 77.63208008 C-3.94173806 73.80792765 -3.91754417 69.98412342 -3.88929367 66.16008091 C-3.87050955 63.15969393 -3.86545396 60.15938966 -3.86392975 57.1589489 C-3.86095155 55.74983703 -3.85309263 54.34072484 -3.83974457 52.93167305 C-3.73462124 41.01200222 -3.8530517 26.95248405 -12.1875 17.5 C-16.05171569 14.92385621 -18.02090311 15.33528582 -22.4921875 15.90234375 C-30.16034248 17.60267377 -35.8898062 22.04138712 -40.1875 28.5 C-50.46072536 44.82117255 -54.30679105 65.69363973 -57.1875 84.5 C-57.41433472 85.96143433 -57.41433472 85.96143433 -57.64575195 87.45239258 C-59.40820226 99.68176583 -60.37887671 111.99353387 -61.41967773 124.30102539 C-61.74548069 128.13432716 -62.0823811 131.96654451 -62.41992188 135.79882812 C-63.61505242 149.6917882 -64.53304396 163.52230971 -64.69252014 177.47111511 C-64.83774873 184.39185657 -65.14789016 190.01007759 -69.875 195.4375 C-73.31285576 197.01705535 -76.52971219 197.29106919 -80.1875 196.5 C-83.40704645 193.96546343 -84.89182435 192.38702695 -86.1875 188.5 C-86.29122254 186.09333881 -86.33966736 183.71515066 -86.34140015 181.30815125 C-86.3457824 180.57069839 -86.35016465 179.83324553 -86.3546797 179.07344562 C-86.36806421 176.59542927 -86.37424574 174.11744848 -86.38037109 171.6394043 C-86.38827224 169.86546671 -86.39654119 168.09153072 -86.40515137 166.31759644 C-86.43136658 160.48648615 -86.44667691 154.65536869 -86.4609375 148.82421875 C-86.46629708 146.81749784 -86.47167459 144.81077698 -86.47706985 142.80405617 C-86.49869641 134.45806723 -86.51743405 126.11208023 -86.52869225 117.76607037 C-86.54493835 105.80085129 -86.57813478 93.83595659 -86.63509309 81.8708598 C-86.6737701 73.45973474 -86.69332219 65.04869652 -86.69861281 56.63748485 C-86.70226887 51.61255804 -86.71431756 46.58797724 -86.74671555 41.56314659 C-86.77675731 36.83607979 -86.78312195 32.10956908 -86.77133179 27.38242722 C-86.77111074 25.64819963 -86.77944185 23.91394652 -86.79698563 22.17980766 C-86.81965278 19.81013486 -86.81139583 17.44248287 -86.79550171 15.07279968 C-86.8093838 14.38806145 -86.82326588 13.70332322 -86.83756864 12.99783534 C-86.74691082 7.50456196 -84.94690066 5.21570865 -81.1875 1.5 C-78.07824668 0.46180754 -75.35570922 0.7136872 -72.1875 1.5 C-69.43180553 3.68159145 -67.75161253 5.37177494 -66.1875 8.5 C-66.03483388 10.23868744 -65.93817404 11.98247501 -65.87109375 13.7265625 C-65.82919922 14.7578125 -65.78730469 15.7890625 -65.74414062 16.8515625 C-65.70482422 17.93179687 -65.66550781 19.01203125 -65.625 20.125 C-65.58181641 21.21296875 -65.53863281 22.3009375 -65.49414062 23.421875 C-65.3878547 26.1144517 -65.28581943 28.80712253 -65.1875 31.5 C-64.60742188 30.35402344 -64.02734375 29.20804687 -63.4296875 28.02734375 C-62.64111729 26.49714204 -61.85202688 24.96720833 -61.0625 23.4375 C-60.68351563 22.68533203 -60.30453125 21.93316406 -59.9140625 21.15820312 C-53.00738937 7.86285735 -42.37396363 0.19006038 -28.1875 -4.5 C-18.08552868 -6.49513934 -8.74552604 -5.85290524 0 0 Z " fill="#361D18" transform="translate(663.1875,266.5)"/>
<path d="M0 0 C7.45638435 4.41859814 10.77179734 12.55371596 13.0078125 20.6484375 C13.76409172 24.09207783 14.43169071 27.52063878 15 31 C15.18433594 32.12019531 15.36867188 33.24039063 15.55859375 34.39453125 C17.77258501 52.47872538 15.95512937 75.69606726 6.40234375 91.671875 C0.30028785 99.28901995 -8.23232403 100.47297426 -17.4375 101.6875 C-18.32759766 101.81705078 -19.21769531 101.94660156 -20.13476562 102.08007812 C-25.80914611 102.86346593 -31.27315348 103.12234362 -37 103 C-37.48726056 125.95538621 -35.46201379 160.98817421 -18.45703125 178.80078125 C-16.4651591 180.44020417 -14.48405266 181.34245665 -12 182 C-4.12701599 170.84660598 -2.3945718 158.52449948 -0.48217773 145.28540039 C0.29679685 139.97306969 1.19403552 134.71259204 2.37109375 129.47265625 C2.58564209 128.5175415 2.80019043 127.56242676 3.02124023 126.57836914 C4.16720981 123.55951538 5.53010554 122.05069626 8 120 C11.06216325 119.26680598 13.91177501 119.42095781 17 120 C19.50160818 121.87620613 20.61945652 123.23891303 22 126 C22.59786937 134.14236711 21.53004012 142.1523068 20.3125 150.1875 C20.13315918 151.37351807 19.95381836 152.55953613 19.76904297 153.78149414 C17.07680732 170.6858272 12.54037655 190.54890202 -1.87109375 201.41015625 C-6.39280279 204.09406805 -10.27113439 204.47657037 -15.4296875 203.65625 C-27.06497971 200.6855371 -35.32496471 192.6289614 -41.6875 182.6875 C-48.60119676 170.02056149 -52.63318608 155.15622665 -55 141 C-55.20085205 139.90389404 -55.20085205 139.90389404 -55.40576172 138.78564453 C-59.90874979 113.81913361 -59.24901101 87.95058792 -55 63 C-54.85014648 62.11393066 -54.70029297 61.22786133 -54.54589844 60.31494141 C-45.79831889 10.12315004 -45.79831889 10.12315004 -27.8125 -2.5625 C-19.01537427 -6.82360778 -8.40003604 -3.76251614 0 0 Z " fill="#351C17" transform="translate(986,264)"/>
<path d="M0 0 C53.13 0 106.26 0 161 0 C161 22.11 161 44.22 161 67 C149.98625 66.195625 138.9725 65.39125 127.625 64.5625 C124.16596191 64.31056885 120.70692383 64.0586377 117.14306641 63.79907227 C112.87182617 63.48620605 112.87182617 63.48620605 110.86312866 63.33872986 C109.48027049 63.23745173 108.09737436 63.13669102 106.71444702 63.03636169 C93.58725288 62.08334333 93.58725288 62.08334333 87.60668945 61.45678711 C82.88967993 60.96446773 78.17856785 60.7071392 73.44140625 60.5 C72.13670631 60.4390918 72.13670631 60.4390918 70.8056488 60.37695312 C68.05804141 60.24878988 65.31029883 60.12398634 62.5625 60 C42.31831376 59.08476615 42.31831376 59.08476615 33.7434082 58.22314453 C27.44925855 57.71118825 21.12299078 57.61665164 14.8125 57.4375 C9.924375 57.293125 5.03625 57.14875 0 57 C0 38.19 0 19.38 0 0 Z " fill="#F0DDC5" transform="translate(556,650)"/>
<path d="M0 0 C-2.13463309 3.26365744 -4.233213 6.44635712 -6.8125 9.375 C-7.32441895 9.96039551 -7.83633789 10.54579102 -8.36376953 11.14892578 C-8.90372559 11.75978027 -9.44368164 12.37063477 -10 13 C-11.16441011 14.33042501 -12.3284646 15.66116134 -13.4921875 16.9921875 C-14.07838867 17.66088867 -14.66458984 18.32958984 -15.26855469 19.01855469 C-17.90664852 22.03755773 -20.51782205 25.0792954 -23.125 28.125 C-23.61806641 28.70056641 -24.11113281 29.27613281 -24.61914062 29.86914062 C-28.38080419 34.26518223 -32.120094 38.67988018 -35.8515625 43.1015625 C-39.25340646 47.12903294 -42.68622334 51.12905446 -46.125 55.125 C-49.63669549 59.20857466 -53.10384716 63.31917647 -56.5 67.5 C-60.88712902 72.90076172 -65.41223412 78.174677 -69.94921875 83.44921875 C-77.75960026 92.53030739 -85.4416167 101.70779401 -93 111 C-94.49943092 112.83379879 -95.99943458 114.66712943 -97.5 116.5 C-98.62148438 117.87091797 -98.62148438 117.87091797 -99.765625 119.26953125 C-101.21297051 121.03822795 -102.66085301 122.80648543 -104.109375 124.57421875 C-105.57407709 126.36233134 -107.03756121 128.15144211 -108.5 129.94140625 C-109.81627729 131.55178924 -111.13294981 133.16185388 -112.453125 134.76904297 C-119.19040735 142.97159916 -125.78343852 151.25896574 -132.1965332 159.71777344 C-135.70258324 164.33346644 -139.28831944 168.87196206 -142.9375 173.375 C-149.92417307 182.02913129 -156.46349973 191.00380345 -163 200 C-163.5480127 200.7518457 -164.09602539 201.50369141 -164.66064453 202.27832031 C-185.29464541 230.59657941 -205.04140702 259.53639144 -224 289 C-224.44891602 289.69738281 -224.89783203 290.39476562 -225.36035156 291.11328125 C-227.9094042 295.07391607 -230.45587856 299.03619598 -233 303 C-234 301 -234 301 -233.14453125 298.27734375 C-232.70496094 297.17519531 -232.26539063 296.07304687 -231.8125 294.9375 C-231.34457031 293.75929688 -230.87664062 292.58109375 -230.39453125 291.3671875 C-229.30650579 288.74007841 -228.18472849 286.14647572 -227 283.5625 C-225.26084035 279.76159464 -223.87433855 275.88453326 -222.5 271.9375 C-220.93004074 267.45737236 -219.24782142 263.27902944 -217.01953125 259.09765625 C-215.71764728 256.4190674 -214.71950414 253.6684705 -213.6875 250.875 C-211.39544718 244.77232068 -208.63974434 239.0686463 -205.6484375 233.2890625 C-204.29350295 230.58561488 -203.08245295 227.87051147 -201.91113281 225.08496094 C-199.80524939 220.26603156 -197.46980099 215.54961793 -195.1875 210.8125 C-194.67896484 209.75224609 -194.17042969 208.69199219 -193.64648438 207.59960938 C-190.16762953 200.3641204 -186.61065052 193.17058287 -183 186 C-182.34 186 -181.68 186 -181 186 C-180.71125 184.9275 -180.4225 183.855 -180.125 182.75 C-179.27179891 179.90599636 -178.4363497 177.56491017 -177 175 C-176.34 175 -175.68 175 -175 175 C-174.89365234 174.01966797 -174.89365234 174.01966797 -174.78515625 173.01953125 C-173.69393815 168.82295615 -171.61233486 165.41436097 -169.4375 161.6875 C-168.80038086 160.57665039 -168.80038086 160.57665039 -168.15039062 159.44335938 C-167.10648347 157.62531882 -166.05407808 155.81216252 -165 154 C-164.34 154 -163.68 154 -163 154 C-162.89945312 153.45472656 -162.79890625 152.90945312 -162.6953125 152.34765625 C-159.25592041 140.73487735 -149.69262179 129.32469166 -142.73046875 119.50390625 C-141.0155291 117.02246987 -139.40722783 114.49755945 -137.8125 111.9375 C-129.23918703 98.3726137 -119.53665595 85.65884542 -109.61474609 73.06445312 C-107.69128168 70.60530359 -105.80546828 68.11929446 -103.92211914 65.62939453 C-99.90921733 60.33334812 -95.70354768 55.33516715 -91.203125 50.44921875 C-88.93609992 47.92896214 -86.80866579 45.33132714 -84.6875 42.6875 C-80.78444241 37.86165296 -76.6685861 33.29041294 -72.42456055 28.76635742 C-70.94187632 27.18460856 -69.46821242 25.59519295 -68 24 C-67.43007324 23.38108887 -66.86014648 22.76217773 -66.27294922 22.12451172 C-63.27861958 18.79666133 -60.68316351 15.57296438 -58.3984375 11.71875 C-45.83769116 -6.97551072 -19.73963461 -1.29277204 0 0 Z " fill="#FEF1DF" transform="translate(326,87)"/>
<path d="M0 0 C2.67422431 1.01401814 3.83876741 2.41005162 5.7265625 4.546875 C11.76569509 10.77612843 18.8935067 14.57841733 27.66015625 15.05859375 C35.08953952 14.26216386 41.43902199 8.28679131 47.1015625 3.796875 C45.66686131 8.86511291 43.43250675 12.80115217 40.6015625 17.171875 C39.68713052 18.6052331 38.77307786 20.03883326 37.859375 21.47265625 C37.39563477 22.19662598 36.93189453 22.9205957 36.45410156 23.66650391 C35.20829287 25.62876503 33.98862352 27.6037716 32.78125 29.58984375 C18.14845624 53.59501075 1.37827408 76.45858687 -16.52197266 98.12060547 C-18.36454812 100.36450812 -20.16305431 102.64208498 -21.9609375 104.921875 C-26.59827853 110.73556459 -31.47072178 116.34535614 -36.32958984 121.97363281 C-37.87621772 123.7710522 -39.41415179 125.57551449 -40.94921875 127.3828125 C-46.65387199 134.09189054 -52.46975415 140.66764543 -58.44921875 147.1328125 C-60.46717529 149.32778277 -62.44647195 151.5435371 -64.3984375 153.796875 C-68.63389448 158.67620193 -73.01953525 163.41736144 -77.3984375 168.16748047 C-78.93274097 169.83413759 -80.46275917 171.50465023 -81.9921875 173.17578125 C-83.02334961 174.29955982 -84.05459744 175.42325974 -85.0859375 176.546875 C-85.54830811 177.05307373 -86.01067871 177.55927246 -86.48706055 178.08081055 C-87.42961761 179.10537223 -88.38753773 180.11597407 -89.35888672 181.11328125 C-90.97521341 182.81146231 -90.97521341 182.81146231 -92.42626953 184.94921875 C-95.53979666 188.89459095 -97.67413019 190.59338382 -102.72338867 191.43261719 C-107.29026528 191.68189101 -111.83317258 191.4962644 -116.3984375 191.296875 C-117.99991089 191.25669234 -119.60148136 191.22019995 -121.203125 191.1875 C-125.10398275 191.09987966 -129.00012998 190.96216527 -132.8984375 190.796875 C-129.75926351 184.17578842 -126.05413245 178.07681989 -122.0859375 171.921875 C-121.40160645 170.85686768 -120.71727539 169.79186035 -120.01220703 168.69458008 C-103.29004331 142.77620799 -85.75669756 117.34242407 -67.65209961 92.37329102 C-62.49481295 85.25813825 -57.42826682 78.08078961 -52.37353516 70.89257812 C-50.42049925 68.11785779 -48.46137999 65.34745892 -46.50244141 62.5769043 C-25.53397982 32.99448421 -25.53397982 32.99448421 -5.38671875 2.8515625 C-3.68545106 0.50283073 -2.93202753 -0.31371488 0 0 Z " fill="#FEF1DF" transform="translate(947.8984375,452.203125)"/>
<path d="M0 0 C2.69105198 2.17574416 4.45532928 3.91065856 6 7 C6.52431336 13.85825035 5.68776111 20.46873321 4.375 27.1875 C4.19678711 28.10096191 4.01857422 29.01442383 3.83496094 29.95556641 C2.14198611 38.11822591 -0.40882076 45.45187326 -4 53 C-4.29390625 53.62068359 -4.5878125 54.24136719 -4.890625 54.88085938 C-10.86987702 67.30807596 -18.88910632 77.69030452 -28 88 C-27.45472656 88.3403125 -26.90945313 88.680625 -26.34765625 89.03125 C-5.92018014 102.16070473 3.35441742 120.6864407 8.52734375 143.80175781 C10.4476114 152.73258938 11.19016859 161.44675717 11.3125 170.5625 C11.33920776 171.84918579 11.33920776 171.84918579 11.36645508 173.16186523 C11.35890714 179.02893595 10.43061351 182.48257886 6.25 186.8125 C2.93220821 188.56355678 0.69402725 188.51845997 -3 188 C-6.3875645 185.20157715 -8.80541135 183.0286426 -9.23364258 178.56420898 C-9.28673584 177.55173096 -9.3398291 176.53925293 -9.39453125 175.49609375 C-11.19116761 143.5936335 -11.19116761 143.5936335 -26 116 C-26.48855469 115.39671875 -26.97710938 114.7934375 -27.48046875 114.171875 C-34.20911922 106.52945719 -43.73933792 103.59710442 -53.24780273 100.90893555 C-54.51140121 100.55083298 -55.77499969 100.19273041 -57.07688904 99.82377625 C-58.04151566 99.55193008 -59.00614227 99.28008392 -60 99 C-60.00808685 100.10167511 -60.01617371 101.20335022 -60.02450562 102.33840942 C-60.10202727 112.72624099 -60.1897819 123.11394255 -60.28752708 133.50160408 C-60.3374494 138.84186333 -60.38377992 144.18210318 -60.421875 149.52246094 C-60.45877897 154.67725465 -60.50515304 159.83188453 -60.55806351 164.98653793 C-60.57658025 166.95205686 -60.59169823 168.91761088 -60.60334396 170.88318253 C-60.62025287 173.63860054 -60.6492993 176.39364555 -60.68115234 179.14892578 C-60.68331253 179.95956985 -60.68547272 180.77021393 -60.68769836 181.60542297 C-60.77124039 187.27124518 -61.19035513 192.03524271 -65.1875 196.375 C-68.82502552 198.47668141 -70.85945805 198.66544424 -75 198 C-78.73855423 195.0922356 -80.55002149 192.45261135 -82 188 C-82.22884846 185.22496033 -82.22884846 185.22496033 -82.19929504 182.15991211 C-82.19344989 181.00084854 -82.18760473 179.84178497 -82.18158245 178.64759827 C-82.16524667 177.39103928 -82.14891088 176.13448029 -82.13208008 174.83984375 C-82.12210728 173.50000203 -82.11316508 172.1601523 -82.1051836 170.82029724 C-82.08711641 167.98713145 -82.06379872 165.15407747 -82.03671646 162.32098389 C-81.99843822 158.13081466 -81.98247245 153.94081257 -81.97396851 149.75048828 C-81.97252663 149.06702394 -81.97108476 148.38355961 -81.96959919 147.67938423 C-81.96667089 146.28532414 -81.96376165 144.891264 -81.9608711 143.49720383 C-81.92554022 128.70804795 -81.8439686 113.91894426 -81.76428509 99.12997437 C-81.71901651 90.6717852 -81.67957463 82.21364333 -81.65356445 73.75537109 C-81.6305942 66.28823493 -81.59726148 58.8212308 -81.55129844 51.35419941 C-81.52746087 47.42639046 -81.50866721 43.49871085 -81.50238609 39.5708313 C-81.49634344 35.89975077 -81.47637438 32.22900901 -81.44572449 28.55805397 C-81.4327751 26.57712873 -81.43451316 24.59612442 -81.4367218 22.61515808 C-81.42418365 21.43021255 -81.41164551 20.24526703 -81.39872742 19.02441406 C-81.39181397 17.48723724 -81.39181397 17.48723724 -81.38476086 15.91900635 C-80.83783558 11.76973196 -79.02781084 8.62285923 -76.8125 5.125 C-73.72216342 3.20686005 -70.46321253 3.39123217 -67 4 C-62.91918036 6.3952637 -61.4145299 8.56424562 -60 13 C-59.75949097 16.06892395 -59.75949097 16.06892395 -59.77294922 19.53442383 C-59.77310028 20.83539505 -59.77325134 22.13636627 -59.77340698 23.47676086 C-59.78361876 24.88685257 -59.79405073 26.29694269 -59.8046875 27.70703125 C-59.80842041 29.15719914 -59.81126607 30.60736957 -59.81326294 32.05754089 C-59.82087751 35.86338334 -59.84050711 39.6690717 -59.8626709 43.47485352 C-59.88317637 47.36277177 -59.89227469 51.25071506 -59.90234375 55.13867188 C-59.92375522 62.75918462 -59.95786466 70.37957067 -60 78 C-58.26143257 77.72739111 -56.52480502 77.44239584 -54.7890625 77.15234375 C-53.33814209 76.91632446 -53.33814209 76.91632446 -51.85791016 76.67553711 C-41.19273068 74.15456055 -34.37825708 64.43131498 -28.83203125 55.6328125 C-20.27434328 41.50350655 -15.66366851 26.75661638 -14.5625 10.3125 C-14.22710068 6.16193342 -13.10801341 3.91964896 -10 1 C-6.78305636 -0.60847182 -3.47862778 -0.61309149 0 0 Z " fill="#361E18" transform="translate(802,267)"/>
<path d="M0 0 C2.27447094 1.70780722 4.40607159 3.49606595 6.5234375 5.39453125 C7.18859375 5.97847656 7.85375 6.56242187 8.5390625 7.1640625 C17.23601352 15.2960541 28.43630958 28.88440162 29.0859375 41.20703125 C28.88154494 44.24602584 28.41388922 45.60486396 26.9609375 48.39453125 C23.7248591 51.04977506 21.6916475 51.39453125 17.5234375 51.39453125 C11.55899505 49.31959955 9.81233967 46.17957276 7.1484375 40.83203125 C1.32918227 29.88291848 -5.59741407 19.38332616 -17.4765625 14.39453125 C-22.37319333 13.63814112 -26.22083915 13.56628819 -30.4140625 16.33203125 C-36.32612936 25.11055476 -36.64217555 35.10562083 -35.4765625 45.39453125 C-32.18672763 61.28745332 -22.75593188 74.18653954 -12.85058594 86.65527344 C1.49210548 104.81045 13.15013626 122.80985019 15.5234375 146.39453125 C15.74 148.34939453 15.74 148.34939453 15.9609375 150.34375 C17.20456097 163.46284705 16.60745692 177.39496385 8.5234375 188.39453125 C8.03101563 189.07773437 7.53859375 189.7609375 7.03125 190.46484375 C-0.94191927 200.49806633 -12.5251222 205.9539554 -24.99609375 207.9609375 C-36.99517516 209.19594588 -44.94758992 206.57819468 -54.4765625 199.39453125 C-55.4665625 198.67265625 -56.4565625 197.95078125 -57.4765625 197.20703125 C-69.16201756 187.00646827 -76.18343545 173.04817723 -81.9765625 158.95703125 C-82.32726807 158.11664307 -82.67797363 157.27625488 -83.03930664 156.41040039 C-84.94463955 151.59159396 -86.06475182 147.66179967 -85.4765625 142.39453125 C-83.0316331 138.39373769 -81.51738028 136.73516252 -77.0390625 135.26953125 C-72.49345436 135.42902627 -70.83363765 136.33586278 -67.4765625 139.39453125 C-64.88359183 143.68913892 -63.18287772 148.1356791 -61.36791992 152.80664062 C-56.32701789 165.71803036 -49.27733871 179.62986237 -36.6328125 186.6796875 C-30.30867513 188.77627652 -24.01001772 186.90584065 -18.1640625 184.20703125 C-12.68005516 181.16423544 -8.51794535 178.26817534 -6.33984375 172.2578125 C-5.36445492 167.89283715 -5.1325188 163.91200767 -5.1640625 159.45703125 C-5.16897705 158.62872803 -5.1738916 157.8004248 -5.17895508 156.94702148 C-5.59024773 134.89540801 -14.18420596 118.86549609 -27.60009766 101.87939453 C-45.89142251 78.71366548 -58.97759202 55.79497633 -56.4765625 25.39453125 C-55.02073394 16.75946967 -51.58290444 8.7433086 -45.4765625 2.39453125 C-44.74373047 1.56888672 -44.74373047 1.56888672 -43.99609375 0.7265625 C-31.6982928 -11.57123845 -13.33994442 -8.64781886 0 0 Z " fill="#351C17" transform="translate(241.4765625,272.60546875)"/>
<path d="M0 0 C14.03374504 12.10302447 20.90003755 34.68799001 22.75390625 52.51953125 C23.88601565 68.53079279 23.88601565 68.53079279 20 74 C16.33091443 76.44605705 13.26381231 76.83946402 9 76 C5.87395291 73.47255767 3.25582796 71.23304539 2.78222656 67.09912109 C2.73549805 66.33164551 2.68876953 65.56416992 2.640625 64.7734375 C1.48950447 48.51443183 -1.04493126 27.37945025 -14.125 15.8125 C-19.35350812 12.51626662 -22.78073247 11.49367216 -28.92578125 12.41796875 C-31.19415435 12.90201838 -31.19415435 12.90201838 -33.25 14.875 C-43.40747193 33.01334273 -47.47747919 53.44519824 -50.65307617 73.79724121 C-51.02043676 76.12976119 -51.40177212 78.4597812 -51.78320312 80.79003906 C-56.47381393 109.87963763 -57.71688092 138.6150867 -57.68805599 168.01948452 C-57.68606993 170.9549661 -57.69320566 173.89040397 -57.70009041 176.82587624 C-57.69924177 178.85511357 -57.68069259 180.88363977 -57.66075134 182.9127655 C-57.66820325 196.17460373 -57.66820325 196.17460373 -62.6875 201.9375 C-66.12535576 203.51705535 -69.34221219 203.79106919 -73 203 C-77.00058491 199.85060337 -78.70544001 197.45824292 -79.31403732 192.37920952 C-79.96291824 184.01219868 -80.12017942 175.71436136 -80.06738281 167.32470703 C-80.06240996 165.92626166 -80.05794319 164.52781441 -80.05394363 163.12936592 C-80.04490659 160.21278588 -80.03308233 157.29623704 -80.01905823 154.37967682 C-79.99939362 150.1466539 -79.99045487 145.9136651 -79.98474121 141.68060303 C-79.96058746 125.03627748 -79.89721211 108.39215415 -79.81609726 91.74801445 C-79.77599716 83.42901005 -79.74370181 75.11010702 -79.72900391 66.79101562 C-79.71599925 59.43883396 -79.68912113 52.08685835 -79.64538693 44.73479283 C-79.62285571 40.86957105 -79.60708482 37.00460224 -79.60811615 33.13930893 C-79.60886088 29.5288547 -79.59098741 25.91897088 -79.55883217 22.30866432 C-79.54629039 20.361156 -79.55339936 18.41355199 -79.56114197 16.46601868 C-79.43285568 5.72177469 -79.43285568 5.72177469 -75 1 C-71.45870816 -1.36086122 -70.17249782 -1.57269578 -66 -1 C-62.38917317 1.49980319 -59.37730135 3.74288674 -58 8 C-57.61250787 10.32495277 -57.27017161 12.65851268 -57 15 C-56.62488281 14.27554687 -56.24976563 13.55109375 -55.86328125 12.8046875 C-50.92605026 3.47742493 -46.26366999 -3.7909692 -36.05859375 -7.75390625 C-23.07377904 -11.50507495 -10.6495995 -7.85655733 0 0 Z " fill="#361D18" transform="translate(479,268)"/>
<path d="M0 0 C14.53258223 7.58221682 21.92814781 21.43678719 26.96484375 36.546875 C27.57764047 41.14285043 27.72954459 45.21281678 24.96484375 49.109375 C21.60967884 51.83544649 20.18116278 52.19868531 16.02734375 52.1484375 C12.84542897 51.22037902 11.30147496 49.92745538 8.96484375 47.546875 C7.40590428 44.56221987 6.26150086 41.45001103 5.08984375 38.296875 C2.06988776 30.65701969 -0.81957142 23.87441812 -7.98828125 19.30078125 C-9.99724613 18.42421061 -9.99724613 18.42421061 -12.1171875 18.5625 C-15.08282272 20.08457754 -15.54372428 22.24727181 -16.72265625 25.296875 C-17.34720703 26.86695313 -17.34720703 26.86695313 -17.984375 28.46875 C-20.8619704 36.89828596 -22.01731122 48.77056177 -18.66015625 57.234375 C-14.14014279 65.61489817 -7.53809853 73.42241944 -0.66796875 79.95703125 C1.71984754 82.28201027 3.85453988 84.80407676 6.0234375 87.33203125 C7.42326584 88.92901851 8.8575542 90.4960297 10.3125 92.04296875 C26.84377964 109.64737628 35.92505615 128.44255563 37.96484375 152.546875 C38.04992188 153.53816406 38.135 154.52945313 38.22265625 155.55078125 C38.78800697 168.4973128 33.349898 179.73120718 25.30859375 189.57421875 C16.1302626 199.46690114 3.91072878 203.77311416 -9.30078125 204.70703125 C-18.32489299 205.03337491 -27.11322605 203.35858683 -34.1875 197.4609375 C-45.07299137 186.18421282 -46.54969965 172.78180547 -46.41015625 157.734375 C-46.42175781 156.46400391 -46.43335938 155.19363281 -46.4453125 153.88476562 C-46.42494669 147.39825434 -46.37360062 142.19965158 -43.03515625 136.546875 C-39.99226543 133.84208316 -38.56234951 133.537626 -34.47265625 133.609375 C-30.75783483 134.62250812 -29.38575086 135.563428 -27.03515625 138.546875 C-25.64940493 141.31837764 -25.8719236 143.63574777 -25.82421875 146.734375 C-25.79585937 147.99121094 -25.7675 149.24804688 -25.73828125 150.54296875 C-25.68406106 153.18103896 -25.64237015 155.81858111 -25.60546875 158.45703125 C-25.52351397 170.53356002 -25.52351397 170.53356002 -20.6652832 181.28540039 C-17.8117803 183.49358513 -14.30815231 183.03060865 -10.84765625 182.984375 C-10.07969727 182.97752686 -9.31173828 182.97067871 -8.52050781 182.96362305 C-1.16056027 182.75448022 3.03548696 181.07677404 8.71484375 176.171875 C17.1929047 166.2808039 16.77172566 157.00608093 15.96484375 144.546875 C13.66127578 124.60940497 -1.46590871 108.76084848 -15.25 95.31640625 C-28.25583568 82.42440721 -41.04270455 66.95761501 -41.41552734 47.90063477 C-41.37829469 31.58426904 -38.28640276 14.33238235 -26.66015625 1.94921875 C-18.03134413 -5.49728017 -9.84952314 -4.42172792 0 0 Z " fill="#351C17" transform="translate(1068.03515625,260.453125)"/>
<path d="M0 0 C3.03978021 0.68164768 4.80055419 2.23591662 6.93359375 4.43359375 C8.41463451 7.39567526 8.08096202 10.40625929 8.07885742 13.65405273 C8.08382311 14.77665969 8.08382311 14.77665969 8.08888912 15.92194557 C8.09833725 18.42454081 8.1002128 20.92707562 8.1015625 23.4296875 C8.1055046 25.19453476 8.10964864 26.95938157 8.11398315 28.72422791 C8.12335953 33.45983542 8.12436461 38.19540742 8.12227249 42.93102264 C8.12109678 45.86354182 8.12162312 48.79605738 8.12228394 51.72857666 C8.12090265 80.23886955 7.70126058 108.66747579 6.19970703 137.14355469 C5.99921865 140.99494101 5.83137885 144.84659782 5.67919922 148.70019531 C5.63725937 149.74680328 5.59531952 150.79341125 5.55210876 151.87173462 C5.47254603 153.88705282 5.39601142 155.90249365 5.32301331 157.9180603 C5.28659225 158.82762482 5.2501712 159.73718933 5.21264648 160.67431641 C5.18275131 161.47406891 5.15285614 162.27382141 5.12205505 163.09780884 C4.92002538 165.60175978 4.47082172 167.98152391 3.93359375 170.43359375 C4.76761719 170.22863281 5.60164062 170.02367187 6.4609375 169.8125 C7.58628906 169.54308594 8.71164062 169.27367187 9.87109375 168.99609375 C10.97324219 168.72925781 12.07539062 168.46242188 13.2109375 168.1875 C20.84502125 166.64145786 28.40719786 166.23043951 36.18359375 166.18359375 C37.49070312 166.15265625 37.49070312 166.15265625 38.82421875 166.12109375 C44.86764486 166.08424359 48.28960119 166.96586736 52.80859375 171.18359375 C54.53359537 174.633597 53.96025548 176.77611132 52.93359375 180.43359375 C50.35698684 183.55264422 48.77918335 185.15173055 44.93359375 186.43359375 C43.16582262 186.59229462 41.39384275 186.70601049 39.62109375 186.79296875 C28.05850288 187.45827829 17.0935595 188.32482624 5.98632812 191.75683594 C0.22984064 193.52501322 -4.68842042 194.62258666 -10.31640625 191.80859375 C-14.0794384 188.55870235 -15.82654401 185.81393262 -16.33544922 180.76367188 C-16.76541003 166.58610389 -16.06289223 152.37291219 -15.2164917 138.22409248 C-14.29087295 122.43119469 -13.84934424 106.66239764 -13.72265625 90.84375 C-13.71452093 89.84797754 -13.70638561 88.85220509 -13.69800377 87.82625771 C-13.63460492 79.67432618 -13.5916286 71.52230939 -13.55072021 63.37023926 C-13.51920198 57.20872416 -13.47994003 51.04735186 -13.4304657 44.8859539 C-13.41083133 42.06571698 -13.40218528 39.24559804 -13.39416504 36.42530823 C-13.34935962 28.41559604 -13.16883957 20.43568605 -12.35742188 12.46264648 C-12.23290649 11.220952 -12.10839111 9.97925751 -11.98010254 8.69993591 C-10.18679578 2.28910383 -6.35725631 -0.39657743 0 0 Z " fill="#371E19" transform="translate(856.06640625,271.56640625)"/>
<path d="M0 0 C3.34859403 3.23976603 4.79225328 4.84824683 5.62361908 9.45736027 C5.62290657 10.73584559 5.62219406 12.01433092 5.62145996 13.33155823 C5.63104319 14.4058888 5.63104319 14.4058888 5.64082003 15.50192302 C5.65602372 17.89061199 5.63564183 20.27762982 5.61523438 22.66625977 C5.61873696 24.38315377 5.62439709 26.10004453 5.63204956 27.81692505 C5.64628641 32.47193171 5.62924753 37.12634688 5.60576439 41.78129697 C5.58564611 46.65432077 5.5915354 51.52732024 5.59387207 56.40037537 C5.59381851 64.58236437 5.57406977 72.76412232 5.54199219 80.94604492 C5.50508778 90.40510659 5.4963185 99.86386574 5.5032897 109.32299 C5.50959469 118.42449946 5.49884127 127.5259052 5.47932434 136.62739372 C5.47115029 140.50009578 5.4684408 144.37274483 5.47001648 148.24545479 C5.47089538 152.80508074 5.45667779 157.36441917 5.43078995 161.92396927 C5.42362777 163.59730701 5.42154478 165.27067535 5.42490768 166.94402504 C5.42862248 169.22813712 5.41387601 171.51141008 5.39440918 173.79542542 C5.39068047 175.07353372 5.38695175 176.35164202 5.38311005 177.66848087 C4.84882304 182.31463252 3.31443662 184.90463615 -0.25 187.875 C-3.96369801 189.39424009 -6.15654948 189.04821378 -10 188 C-12.86942113 185.73466753 -13.83907612 184.48277163 -15 181 C-15.09664214 178.70331127 -15.13067109 176.40385217 -15.13371277 174.10513306 C-15.13597833 173.39964305 -15.13824388 172.69415305 -15.14057809 171.96728456 C-15.14692066 169.59747656 -15.14608856 167.22772572 -15.14526367 164.85791016 C-15.14825501 163.16116766 -15.15165748 161.46442585 -15.15544128 159.76768494 C-15.16428822 155.15403401 -15.16661969 150.54040162 -15.16725707 145.92674303 C-15.16820578 142.07728834 -15.17188366 138.22783798 -15.17542917 134.37838495 C-15.18357642 125.29717628 -15.18601316 116.21597753 -15.18530273 107.13476562 C-15.18470191 97.76273219 -15.19525408 88.39075631 -15.2110464 79.01873744 C-15.22411624 70.97619977 -15.22948686 62.93368092 -15.22884732 54.89113271 C-15.22859217 50.08601763 -15.23145313 45.28095367 -15.24202538 40.47584915 C-15.25169695 35.9565699 -15.251792 31.43739074 -15.24450874 26.91810799 C-15.24346172 25.25927014 -15.24583276 23.60042609 -15.2518692 21.94159889 C-15.25957558 19.67722586 -15.25495343 17.41319968 -15.24723816 15.14883423 C-15.24778293 13.88157816 -15.24832769 12.61432209 -15.24888897 11.30866432 C-14.94677334 7.29241885 -14.12851175 4.37384039 -11.5625 1.25 C-7.81878776 -1.7449698 -4.39596874 -1.13688847 0 0 Z " fill="#341B16" transform="translate(542,289)"/>
<path d="M0 0 C2.52851336 16.510706 2.52851336 16.510706 -1.40917969 23.50195312 C-5.09389685 28.25913268 -9.46653928 32.27961045 -13.98681641 36.23144531 C-16.64053728 38.56270338 -19.09006615 41.04023415 -21.5625 43.5625 C-22.26503906 44.24441406 -22.96757813 44.92632813 -23.69140625 45.62890625 C-25.55607319 47.54405487 -27.28378927 49.4834228 -29.01757812 51.51318359 C-33.46945244 56.61451849 -38.23604079 61.37961503 -43.02734375 66.16015625 C-43.98481025 67.1182986 -44.94212845 68.07658916 -45.89930725 69.03501892 C-47.89373747 71.03091287 -49.88993741 73.02501452 -51.88745117 75.01782227 C-54.42674399 77.55141863 -56.96151903 80.08947983 -59.49497128 82.62891483 C-61.46732184 84.60490703 -63.44208263 86.57847679 -65.41754341 88.55135918 C-66.80126628 89.93410599 -68.18300314 91.3188393 -69.56468201 92.70362854 C-74.00107206 97.12371456 -78.48529941 101.41852937 -83.24822998 105.48634338 C-86.36484578 108.17932595 -89.32349261 111.0422416 -92.3125 113.875 C-97.47584688 118.7302881 -102.72977415 123.37388525 -108.26953125 127.80078125 C-111.33432517 130.26927764 -114.32221296 132.81738828 -117.3125 135.375 C-127.25695799 143.84006822 -137.63967213 151.75486808 -148.00390625 159.6953125 C-151.48838816 162.3756832 -154.94438872 165.09099399 -158.390625 167.8203125 C-160 169 -160 169 -161 169 C-163.20777165 153.36570594 -163.20777165 153.36570594 -159.75341797 148.09960938 C-156.32050294 144.56932896 -152.22858136 141.95626134 -148.078125 139.34423828 C-144.84233111 137.25116014 -141.8760795 134.84942357 -138.875 132.4375 C-137.72022925 131.53232602 -136.56528209 130.62737704 -135.41015625 129.72265625 C-131.42223137 126.56350936 -127.54201498 123.28244805 -123.67651367 119.9753418 C-120.39499825 117.16867098 -117.06478722 114.44174832 -113.6875 111.75 C-106.91142082 106.23642175 -100.64394996 100.18646031 -94.31591797 94.17236328 C-92.17451619 92.16369861 -90.00611447 90.18755316 -87.8326416 88.21376038 C-78.71793401 79.90414269 -70.02347677 71.174581 -61.31396484 62.44433594 C-58.61279114 59.73776675 -55.90626571 57.03663104 -53.19921875 54.3359375 C-51.45801235 52.5940708 -49.71711591 50.8518942 -47.9765625 49.109375 C-47.17852203 48.31335876 -46.38048157 47.51734253 -45.55825806 46.69720459 C-41.40269427 42.52436758 -37.40006951 38.28110876 -33.5788269 33.79901123 C-30.71731562 30.53843155 -27.59598221 27.5357275 -24.5 24.5 C-20.03334014 20.08121664 -15.68494626 15.65160313 -11.625 10.8515625 C-2.10126582 0 -2.10126582 0 0 0 Z " fill="#F0DDC5" transform="translate(717,954)"/>
<path d="M0 0 C0.72960938 0.73347656 1.45921875 1.46695312 2.2109375 2.22265625 C3.88774758 3.89242091 5.5767899 5.55021425 7.2890625 7.18359375 C22.9991599 22.34199876 35.78051822 39.19479064 36.46337891 61.79541016 C36.47546387 62.6672998 36.48754883 63.53918945 36.5 64.4375 C36.52779541 65.67959229 36.52779541 65.67959229 36.55615234 66.94677734 C36.47519005 74.82869516 33.51477859 81.33203311 28 87 C21.58905801 91.59039051 16.54959721 93.24340091 8.625 93.4375 C7.86960937 93.48326172 7.11421875 93.52902344 6.3359375 93.57617188 C1.99364586 93.66347319 0.48594456 93.42145594 -2.9140625 90.47265625 C-8.83787889 81.78902347 -7.39935549 70.28275039 -7.56640625 60.26953125 C-7.59605469 59.01011719 -7.62570312 57.75070312 -7.65625 56.453125 C-7.67494141 55.31004883 -7.69363281 54.16697266 -7.71289062 52.98925781 C-7.99133779 50.09018716 -8.39053903 48.40184354 -10 46 C-12.16281282 44.8774351 -12.16281282 44.8774351 -14.625 44.25 C-15.44226562 44.00765625 -16.25953125 43.7653125 -17.1015625 43.515625 C-17.72804688 43.34546875 -18.35453125 43.1753125 -19 43 C-18.17034505 41.3406901 -17.34064388 39.6814033 -16.51074219 38.0222168 C-15.78795756 36.57615429 -15.06596771 35.12969428 -14.34472656 33.68286133 C-12.59802121 30.18141364 -10.84381361 26.6850152 -9.05078125 23.20703125 C-2.79041801 12.13937601 -2.79041801 12.13937601 0 0 Z " fill="#EEDBC3" transform="translate(1049,351)"/>
<path d="M0 0 C10.88135688 6.43813615 18.14271712 13.39003028 22.05249023 25.47827148 C23.14856012 29.83094577 23.24029021 34.09276013 23.25 38.5625 C23.28673828 39.45646484 23.32347656 40.35042969 23.36132812 41.27148438 C23.4071821 48.23619334 21.41603361 51.97917564 16.6875 57 C15.96046875 57.77730469 15.2334375 58.55460937 14.484375 59.35546875 C5.56250326 67.34088449 -2.61381834 71.17475403 -14.625 71.0625 C-15.87925781 71.05347656 -17.13351562 71.04445313 -18.42578125 71.03515625 C-19.85470703 71.01775391 -19.85470703 71.01775391 -21.3125 71 C-22.78708528 65.83932637 -22.69223103 60.58370149 -22.875 55.25 C-22.9174585 54.05600586 -22.95991699 52.86201172 -23.00366211 51.63183594 C-23.55184388 34.09443116 -23.39875801 16.54355176 -23.3125 -1 C-16.18716554 -3.37511149 -6.81856517 -3.23556118 0 0 Z " fill="#FDF0DE" transform="translate(337.3125,287)"/>
<path d="M0 0 C0.66 0 1.32 0 2 0 C2.495 7.92 2.495 7.92 3 16 C2.34 16 1.68 16 1 16 C0.78601562 16.76957031 0.57203125 17.53914063 0.3515625 18.33203125 C-1.50996523 23.38398078 -4.04471438 27.96972469 -6.625 32.6875 C-7.47203491 34.24428467 -7.47203491 34.24428467 -8.33618164 35.83251953 C-14.10883621 46.35088321 -20.21066649 56.6662726 -26.37109375 66.9609375 C-26.97808105 67.98026367 -27.58506836 68.99958984 -28.21044922 70.04980469 C-29.39085211 71.99577856 -30.60047177 73.92436646 -31.84033203 75.83300781 C-32.39962402 76.70538086 -32.95891602 77.57775391 -33.53515625 78.4765625 C-34.03539307 79.23275879 -34.53562988 79.98895508 -35.05102539 80.76806641 C-36.26295723 83.61846026 -35.7152974 85.0304923 -35 88 C-35.19018555 90.5769043 -35.19018555 90.5769043 -35.63671875 93.32421875 C-35.79962402 94.34427002 -35.9625293 95.36432129 -36.13037109 96.4152832 C-36.31422363 97.49511475 -36.49807617 98.57494629 -36.6875 99.6875 C-36.967146 101.35848755 -36.967146 101.35848755 -37.25244141 103.06323242 C-37.81801064 106.37874509 -38.40349353 109.68992395 -39 113 C-39.16161621 113.90266602 -39.32323242 114.80533203 -39.48974609 115.73535156 C-41.25279349 125.29440343 -43.23605337 134.93047472 -49 143 C-51.1875 144.3125 -51.1875 144.3125 -53 145 C-62.6691336 138.31950769 -67.0861307 128.08967735 -70 117 C-69.39889404 116.42701172 -68.79778809 115.85402344 -68.1784668 115.26367188 C-66.17293167 113.17969544 -64.68589147 111.21614845 -63.14453125 108.78125 C-62.34801147 107.52876465 -62.34801147 107.52876465 -61.53540039 106.25097656 C-60.96684326 105.3431543 -60.39828613 104.43533203 -59.8125 103.5 C-59.20591553 102.53803711 -58.59933105 101.57607422 -57.97436523 100.58496094 C-40.50952723 72.77394847 -23.85973269 44.51257853 -8.36572266 15.55224609 C-6.78850033 12.60475195 -5.20254727 9.66203847 -3.61523438 6.7199707 C-2.40771424 4.48129192 -1.20355997 2.24080984 0 0 Z " fill="#EFDCC4" transform="translate(1025,302)"/>
<path d="M0 0 C3.3 0 6.6 0 10 0 C0.94090506 21.12271383 -8.52988541 42.05933512 -18 63 C-18.52164734 64.15381165 -18.52164734 64.15381165 -19.05383301 65.33093262 C-41.97949192 116.03143301 -41.97949192 116.03143301 -53.68774414 140.01000977 C-56.12603621 145.01313766 -58.4632604 150.02516579 -60.62109375 155.15625 C-61.04430908 156.13086182 -61.46752441 157.10547363 -61.90356445 158.10961914 C-62.69271351 159.93666563 -63.45267145 161.77672539 -64.17651367 163.63061523 C-66.76180094 169.5104072 -66.76180094 169.5104072 -70.53027344 171.00048828 C-73.03745058 171.51189594 -75.44753403 171.84947313 -78 172 C-77.36397292 167.1630022 -75.35712185 163.27298436 -73.203125 158.96484375 C-72.81822403 158.18264969 -72.43332306 157.40045563 -72.03675842 156.59455872 C-71.20979727 154.91477091 -70.38037469 153.23619305 -69.54873657 151.55871582 C-67.3508165 147.1226947 -65.17395425 142.67636361 -62.99609375 138.23046875 C-62.56189621 137.34493317 -62.12769867 136.45939758 -61.68034363 135.54702759 C-56.50755841 124.98030721 -51.55466116 114.31608862 -46.65722656 103.61914062 C-45.1727255 100.37720725 -43.6834088 97.13755195 -42.19244385 93.89859009 C-33.269745 74.50818555 -24.53669882 55.03792373 -15.8936615 35.52148438 C-12.45177591 27.75416299 -8.97851339 20.00097299 -5.5 12.25 C-5.21597321 11.61700989 -4.93194641 10.98401978 -4.63931274 10.33184814 C-3.09369768 6.88752908 -1.54727582 3.44357331 0 0 Z " fill="#F0DDC5" transform="translate(1125,87)"/>
<path d="M0 0 C6.1154747 0.33357135 6.1154747 0.33357135 8.61889648 2.21972656 C14.28733373 9.52646942 13.50913788 21.51075687 13.4375 30.25 C13.43137695 31.519646 13.42525391 32.78929199 13.41894531 34.09741211 C13.05499656 56.00292774 13.05499656 56.00292774 7.2734375 63.12768555 C4.49314055 65.41742967 2.9232484 65.60064372 -0.640625 65.828125 C-2.24550781 65.94414062 -2.24550781 65.94414062 -3.8828125 66.0625 C-4.99398437 66.124375 -6.10515625 66.18625 -7.25 66.25 C-8.93996094 66.36601562 -8.93996094 66.36601562 -10.6640625 66.484375 C-13.44205803 66.67271368 -16.22003524 66.84393626 -19 67 C-14.97496871 14.97496871 -14.97496871 14.97496871 0 0 Z " fill="#FCEFDD" transform="translate(968,280)"/>
<path d="M0 0 C10.00995941 0.55681911 19.90186673 1.44107092 29.83203125 2.85546875 C30.54800791 2.95667715 31.26398457 3.05788555 32.00165749 3.16216087 C56.12179004 6.62521615 79.98137744 11.72666902 103.85864258 16.54168701 C110.32166634 17.84280171 116.78691262 19.13277888 123.25195312 20.42382812 C135.83677506 22.93861668 148.41917692 25.46528741 161 28 C161 30.97 161 33.94 161 37 C150.16851275 35.51629186 139.48851065 33.36971736 128.77654839 31.20688248 C125.54662313 30.55528907 122.31581781 29.90823352 119.08473206 29.26242065 C109.90516375 27.4272063 100.72659951 25.5870642 91.55004883 23.73681641 C61.12343018 17.60566514 30.93304325 11.89521094 0 9 C0 6.03 0 3.06 0 0 Z " fill="#F0DDC5" transform="translate(556,723)"/>
<path d="M0 0 C5.92241004 0.8519238 9.11692521 3.56543793 13 8 C16.23474192 12.95949021 18.87821455 17.64548129 19.1875 23.625 C17.85976148 27.39857264 16.2004983 30.83987895 14.3359375 34.375 C11.83443518 39.29023264 9.79907078 44.47262227 8.13671875 49.73046875 C7 52 7 52 4.875 52.8125 C4.25625 52.874375 3.6375 52.93625 3 53 C-5.67567546 42.69154292 -9.2461384 34.57039267 -8.23632812 21.01464844 C-7.33763388 13.35346568 -4.83069051 6.03836314 0 0 Z " fill="#FCEFDD" transform="translate(1055,278)"/>
<path d="M0 0 C0.24892266 7.97540297 -0.43488679 15.51271316 -1.75 23.375 C-1.93119385 24.47191162 -2.1123877 25.56882324 -2.29907227 26.69897461 C-6.40868289 50.65777336 -6.40868289 50.65777336 -13 57 C-17.87972411 57 -18.87651931 55.92102546 -22.3125 52.78125 C-24.94771764 49.99963138 -26.4588826 47.53172738 -28 44 C-27.71417299 39.25527171 -25.21349807 35.74941966 -22.6875 31.875 C-21.78235419 30.46106416 -20.87741565 29.04699562 -19.97265625 27.6328125 C-19.49199707 26.88676758 -19.01133789 26.14072266 -18.51611328 25.37207031 C-16.92543857 22.88334318 -15.36424251 20.37794323 -13.80859375 17.8671875 C-13.27854736 17.01527832 -12.74850098 16.16336914 -12.20239258 15.28564453 C-11.16905414 13.6245622 -10.13882328 11.96154171 -9.11206055 10.29638672 C-2.66349987 0 -2.66349987 0 0 0 Z " fill="#FCEEDC" transform="translate(988,389)"/>
<path d="M0 0 C0.33 0 0.66 0 1 0 C1 12.21 1 24.42 1 37 C-3.62 37 -8.24 37 -13 37 C-10.93648243 29.88086438 -8.59918651 22.9397422 -6 16 C-5.74750488 15.32437012 -5.49500977 14.64874023 -5.23486328 13.95263672 C-3.49574879 9.29955301 -1.74994502 4.64902061 0 0 Z " fill="#FDF0DE" transform="translate(1196,606)"/>
<path d="M0 0 C3.38795611 0.24558496 4.32788526 0.54896862 7.0625 2.75 C8.86478899 6.43293837 9.07957768 8.63045625 8.5 12.6875 C6.70437595 15.44079021 5.44745078 17.21377461 2.5 18.6875 C-1.15546065 19.09366229 -3.08917682 18.90184253 -6.375 17.1875 C-8.80810018 14.3250292 -9.18641259 12.46673312 -8.90625 8.7265625 C-7.80255934 3.18688436 -5.65420542 0.34465503 0 0 Z " fill="#462E28" transform="translate(537.5,252.3125)"/>
<path d="M0 0 C1.32 0.33 2.64 0.66 4 1 C2.02 3.97 0.04 6.94 -2 10 C-3 8 -3 8 -2.44140625 6.0546875 C-2.15136719 5.33539063 -1.86132812 4.61609375 -1.5625 3.875 C-1.27503906 3.15054687 -0.98757812 2.42609375 -0.69140625 1.6796875 C-0.46324219 1.12539063 -0.23507813 0.57109375 0 0 Z " fill="#F9EAD6" transform="translate(95,380)"/>
</svg>
