<?xml version="1.0" encoding="UTF-8"?>
<svg version="1.1" xmlns="http://www.w3.org/2000/svg" width="1280" height="1280">
<path d="M0 0 C370.59 0 741.18 0 1123 0 C1123 186.45 1123 372.9 1123 565 C964.6 565 806.2 565 643 565 C643 761.35 643 957.7 643 1160 C586.9 1160 530.8 1160 473 1160 C473 963.65 473 767.3 473 565 C316.91 565 160.82 565 0 565 C0 378.55 0 192.1 0 0 Z " fill="#FEF1DF" transform="translate(79,83)"/>
<path d="M0 0 C23.76 0 47.52 0 72 0 C72 183.81 72 367.62 72 557 C-295.29 557 -662.58 557 -1041 557 C-1041 556.67 -1041 556.34 -1041 556 C-1040.06393083 556.00337723 -1040.06393083 556.00337723 -1039.10895117 556.00682269 C-971.17091258 556.25122605 -903.23281171 556.47084742 -835.29437256 556.56085205 C-834.27960848 556.56220345 -833.26484439 556.56355486 -832.21932988 556.56494721 C-810.16601327 556.5941678 -788.11269376 556.61893829 -766.05936708 556.63912432 C-755.24449255 556.64905056 -744.42961913 556.65996022 -733.61474609 556.67138672 C-732.53853362 556.67250706 -731.46232115 556.6736274 -730.35349618 556.67478168 C-695.46729842 556.71155922 -660.5816572 556.81327967 -625.69571445 556.94866307 C-589.84717124 557.08743918 -553.99907673 557.16072754 -518.1502515 557.1515637 C-513.08741894 557.15030008 -508.02458656 557.14978544 -502.96175385 557.14972687 C-501.46709021 557.14967483 -501.46709021 557.14967483 -499.94223136 557.14962175 C-483.89895744 557.15098971 -467.85669391 557.2214332 -451.8137396 557.31768334 C-435.68669623 557.41296475 -419.56085074 557.43553424 -403.43359706 557.38385776 C-393.84984912 557.35535929 -384.27003719 557.38263363 -374.68682573 557.48978894 C-368.28333708 557.55589405 -361.88257399 557.54926692 -355.47908592 557.48381672 C-351.8293391 557.44858653 -348.18712389 557.44467784 -344.53802696 557.52961847 C-330.2961476 558.38082932 -330.2961476 558.38082932 -317.71846837 553.06033522 C-313.83009789 548.34119788 -311.38582445 543.17187192 -309.11475536 537.53291717 C-307.33686137 533.49323423 -304.88020001 529.96689023 -302.3671875 526.35546875 C-301.44754982 524.98614542 -300.52937133 523.61583986 -299.61328125 522.24414062 C-298.70066902 520.89182707 -297.78790853 519.53961355 -296.875 518.1875 C-295.9539734 516.81605978 -295.03340115 515.44431433 -294.11328125 514.07226562 C-292.30049747 511.37006509 -290.48495127 508.66975304 -288.66748047 505.97070312 C-286.44417216 502.66595832 -284.23570692 499.35158509 -282.03155518 496.03404236 C-277.80623421 489.67548468 -273.52440299 483.36501665 -269.125 477.125 C-268.53404541 476.28404785 -267.94309082 475.4430957 -267.33422852 474.57666016 C-266.13172459 472.86625336 -264.92837331 471.15644195 -263.72412109 469.44726562 C-262.11207234 467.15907862 -260.50292434 464.86888236 -258.89453125 462.578125 C-253.85545066 455.41049576 -248.76798298 448.28094961 -243.625 441.1875 C-237.23373396 432.36866239 -230.98482057 423.45399704 -224.75732422 414.51904297 C-222.46068048 411.22691042 -220.15685335 407.93984241 -217.85253906 404.65307617 C-216.09354943 402.14261315 -214.3376564 399.63000424 -212.58203125 397.1171875 C-210.23595607 393.76054443 -207.87822216 390.41257797 -205.51171875 387.0703125 C-169.59555814 336.13922822 -136.26777129 283.02863308 -107 228 C-106.27248535 226.6397168 -106.27248535 226.6397168 -105.53027344 225.25195312 C-93.17334701 202.1088252 -81.89694315 178.41530816 -70.92944336 154.58789062 C-67.10564481 146.30641119 -63.15098671 138.0967695 -59.14584351 129.90188599 C-51.4927641 114.23813658 -44.19316834 98.43723599 -37.04394531 82.53808594 C-34.83913187 77.63787395 -32.61917779 72.74457248 -30.3984375 67.8515625 C-20.15867466 45.28097193 -10.04044661 22.66009051 0 0 Z " fill="#F0DDC5" transform="translate(1125,87)"/>
<path d="M0 0 C53.13 0 106.26 0 161 0 C161.36298214 83.54414896 161.36298214 83.54414896 161.43945312 118.44726562 C161.45707326 126.43595546 161.47525739 134.4246437 161.49438477 142.41333008 C161.4967585 143.41454456 161.49913224 144.41575905 161.50157791 145.44731337 C161.54069311 161.59897084 161.61163131 177.75033916 161.69437516 193.90182533 C161.7786193 210.48480205 161.82854595 227.06762767 161.84679645 243.65080959 C161.85912913 253.87891547 161.89804081 264.10620432 161.9712482 274.33405862 C162.01892162 281.35325002 162.03317864 288.37202071 162.0215124 295.39136215 C162.01576272 299.43799003 162.02440451 303.4831931 162.07284927 307.52956581 C162.11697292 311.24232922 162.1186593 314.9527239 162.08809005 318.66560135 C162.08254561 320.62852974 162.12108036 322.59143429 162.16173178 324.55394953 C162.00682988 334.86511476 158.31590369 340.20619403 152 348 C150.67614821 349.76330265 149.35624365 351.52958707 148.04296875 353.30078125 C146.76063006 354.97351792 145.47543843 356.64407108 144.1875 358.3125 C142.78723496 360.13761781 141.38749979 361.96314227 139.98828125 363.7890625 C139.30975098 364.67368164 138.6312207 365.55830078 137.93212891 366.46972656 C135.21937459 370.02228983 132.54577803 373.60334489 129.875 377.1875 C123.90776921 385.17664307 117.79035714 393.04620848 111.64453125 400.8984375 C110.13582674 402.82642568 108.63004649 404.75665605 107.125 406.6875 C100.67978259 414.94076257 94.10132826 423.0817792 87.4765625 431.19140625 C86.16952459 432.7923548 84.86576644 434.39597976 83.5625 436 C75.60506098 445.77628222 67.51309167 455.41978535 59.03515625 464.75 C57.22622457 466.74989375 55.45108199 468.77269432 53.6875 470.8125 C45.20507484 480.50122941 36.34226682 489.75658321 27.25 498.875 C26.36296387 499.76662842 25.47592773 500.65825684 24.56201172 501.5769043 C19.53513149 506.59202409 14.40053239 511.39133907 9 516 C8.17628906 516.73089844 7.35257813 517.46179687 6.50390625 518.21484375 C5.54291016 519.06755859 5.54291016 519.06755859 4.5625 519.9375 C3.57443359 520.81728516 3.57443359 520.81728516 2.56640625 521.71484375 C1 523 1 523 0 523 C0 350.41 0 177.82 0 0 Z " fill="#FEF1DF" transform="translate(556,650)"/>
<path d="M0 0 C83.49 0 166.98 0 253 0 C251.49214039 3.01571923 250.50872293 4.77241757 248.3828125 7.1796875 C247.60538696 8.06732788 247.60538696 8.06732788 246.81225586 8.97290039 C245.97706421 9.9144397 245.97706421 9.9144397 245.125 10.875 C243.94103136 12.22493171 242.75744601 13.57519967 241.57421875 14.92578125 C240.97528809 15.60721191 240.37635742 16.28864258 239.75927734 16.99072266 C237.12887443 19.99491583 234.53165433 23.02700757 231.9375 26.0625 C230.95058877 27.21620395 229.9636095 28.3698497 228.9765625 29.5234375 C228.48833008 30.09416992 228.00009766 30.66490234 227.49707031 31.25292969 C225.96713241 33.03835624 224.43329199 34.82036145 222.8984375 36.6015625 C218.39349578 41.8338868 213.91086652 47.07345663 209.5625 52.4375 C205.46214086 57.4869477 201.21630651 62.39773017 196.9465332 67.3034668 C189.27152391 76.12530369 181.74795895 85.05966278 174.37109375 94.1328125 C171.66861695 97.4007169 168.89994875 100.60621665 166.125 103.8125 C161.635495 109.00679831 157.34876139 114.32227471 153.14501953 119.74926758 C149.880603 123.93994623 146.48219816 127.98909406 143 132 C138.07812299 137.67549989 133.39405021 143.498536 128.78515625 149.4296875 C125.87589116 153.17297636 122.9082706 156.86797092 119.9375 160.5625 C115.0425999 166.665566 110.23160594 172.82826374 105.48876953 179.05029297 C103.75604465 181.31948629 102.01654017 183.5834194 100.27734375 185.84765625 C65.37202045 231.36990977 32.58099805 279.19379539 3.62646484 328.73486328 C2.77740611 330.17251578 1.89288792 331.5891504 1 333 C0.67 333 0.34 333 0 333 C0 223.11 0 113.22 0 0 Z " fill="#F0DDC5" transform="translate(84,87)"/>
<path d="M0 0 C0.33 0 0.66 0 1 0 C1 83.49 1 166.98 1 253 C-52.13 253 -105.26 253 -160 253 C-160 231.55 -160 210.1 -160 188 C-144.57626045 173.60450975 -144.57626045 173.60450975 -138.94580078 168.74951172 C-134.9474235 165.15448392 -131.17428265 161.3214099 -127.3815918 157.51196289 C-125.93974779 156.06475615 -124.49262884 154.62297974 -123.04492188 153.18164062 C-118.35756143 148.49764149 -113.79068932 143.75601249 -109.4777832 138.72290039 C-107.4192706 136.32294608 -105.27033622 134.0098084 -103.125 131.6875 C-99.05459944 127.22477168 -95.19823091 122.63742 -91.40625 117.9375 C-88.70220726 114.63646081 -85.9187381 111.41248327 -83.125 108.1875 C-78.67338253 103.03229197 -74.39557422 97.77215236 -70.2175293 92.39355469 C-66.68832332 87.85447226 -63.07717163 83.38834699 -59.4375 78.9375 C-54.73925261 73.18118756 -50.14938638 67.36256339 -45.64453125 61.453125 C-43.70214735 58.90705744 -41.73732155 56.379753 -39.76171875 53.859375 C-32.48128995 44.56782902 -25.38090426 35.1665573 -18.41015625 25.640625 C-14.60094264 20.4396043 -10.72273846 15.29114468 -6.81787109 10.16162109 C-4.32811992 6.86844267 -2.12346526 3.54584993 0 0 Z " fill="#F0DDC5" transform="translate(716,985)"/>
<path d="M0 0 C2.24658203 -0.34057617 2.24658203 -0.34057617 5.0078125 -0.29296875 C5.99394531 -0.28330078 6.98007813 -0.27363281 7.99609375 -0.26367188 C9.02863281 -0.23853516 10.06117188 -0.21339844 11.125 -0.1875 C12.68541016 -0.16719727 12.68541016 -0.16719727 14.27734375 -0.14648438 C16.85207627 -0.11105228 19.4257833 -0.06165221 22 0 C19.19616189 9.8845452 15.71038539 19.51847262 12.25 29.1875 C11.92119843 30.10771942 11.59239685 31.02793884 11.25363159 31.9760437 C4.46233579 50.95489825 -2.71198271 69.77366634 -10.0435791 88.54931641 C-11.0054896 91.01406626 -11.96548072 93.47955486 -12.92480469 95.9453125 C-16.54805497 105.25815697 -20.18148077 114.5669638 -23.82342529 123.87251282 C-26.05558958 129.57827462 -28.27976391 135.28709519 -30.49928284 140.99778748 C-32.08988909 145.0891499 -33.68337412 149.17938819 -35.27719116 153.26950073 C-36.03397489 155.21346019 -36.78958509 157.15787703 -37.54385376 159.10281372 C-42.46702481 171.79461746 -47.64474128 184.34859026 -53.06660461 196.83547974 C-54.34315877 199.7957765 -55.5812337 202.77059695 -56.8125 205.75 C-59.51152121 212.25344361 -62.29955011 218.66344732 -65.5 224.9375 C-67.13443858 228.16180157 -68.58236615 231.37478938 -69.875 234.75 C-71.75129928 239.60092008 -74.06397144 244.1917412 -76.42871094 248.81616211 C-78.56724265 253.03394977 -80.3545476 257.29417811 -82.0390625 261.70703125 C-83.34898273 264.83273521 -85.03214575 267.6907109 -86.72607422 270.62084961 C-87.9066262 272.82561753 -88.80422543 274.96306045 -89.671875 277.3046875 C-92.55287957 284.63987677 -96.19369704 291.60092582 -99.75 298.625 C-100.45480262 300.02455053 -101.15923249 301.42428884 -101.86328125 302.82421875 C-103.57123604 306.21832355 -105.28419798 309.60985587 -107 313 C-107.66 313 -108.32 313 -109 313 C-109.15855469 313.53367187 -109.31710937 314.06734375 -109.48046875 314.6171875 C-111.40053915 320.74868303 -114.00234357 326.32459514 -117 332 C-117.66 332 -118.32 332 -119 332 C-119.18175781 332.59167969 -119.36351562 333.18335938 -119.55078125 333.79296875 C-120.96490651 338.23839842 -122.4473148 342.06461032 -125 346 C-126.0150089 347.99242489 -127.01873444 349.99074195 -128 352 C-128.66 352 -129.32 352 -130 352 C-130.11214844 352.55171875 -130.22429687 353.1034375 -130.33984375 353.671875 C-131.11360773 356.40065211 -132.26817694 358.72772943 -133.5625 361.25 C-134.01753906 362.14203125 -134.47257813 363.0340625 -134.94140625 363.953125 C-135.46541016 364.96632813 -135.46541016 364.96632813 -136 366 C-136.66 366 -137.32 366 -138 366 C-138.1697937 366.85235229 -138.1697937 366.85235229 -138.34301758 367.72192383 C-139.07741097 370.26842132 -140.14106278 372.18226293 -141.51171875 374.44921875 C-142.02283203 375.29806641 -142.53394531 376.14691406 -143.06054688 377.02148438 C-143.59744141 377.90126953 -144.13433594 378.78105469 -144.6875 379.6875 C-145.20505859 380.54794922 -145.72261719 381.40839844 -146.25585938 382.29492188 C-149.68917094 387.96865096 -153.29390833 393.50191302 -157 399 C-158.10035601 400.65923019 -159.1992673 402.31941923 -160.296875 403.98046875 C-179.58792568 433.0999246 -200.64246534 460.73272171 -223.44726562 487.19287109 C-224.98645982 488.98424144 -226.51787119 490.78195887 -228.046875 492.58203125 C-233.75446696 499.29342936 -239.5724139 505.87225684 -245.5546875 512.33984375 C-247.55160793 514.51221246 -249.50828734 516.70539163 -251.4375 518.9375 C-255.47821363 523.59541094 -259.6832238 528.09964195 -263.875 532.62109375 C-265.90589748 534.81262363 -267.92703721 537.01236647 -269.9375 539.22265625 C-270.4109082 539.7424707 -270.88431641 540.26228516 -271.37207031 540.79785156 C-272.66073445 542.21437748 -273.94762129 543.6325197 -275.234375 545.05078125 C-275.67523437 545.50469238 -276.11609375 545.95860352 -276.5703125 546.42626953 C-278.0860621 548.0298518 -278.0860621 548.0298518 -279.4921875 550.11669922 C-282.61271107 554.07070343 -284.76733135 555.79452901 -289.82714844 556.63793945 C-294.39310704 556.8852325 -298.93572023 556.69934638 -303.5 556.5 C-305.10147339 556.45981734 -306.70304386 556.42332495 -308.3046875 556.390625 C-312.20554525 556.30300466 -316.10169248 556.16529027 -320 556 C-316.86082601 549.37891342 -313.15569495 543.27994489 -309.1875 537.125 C-308.50316895 536.05999268 -307.81883789 534.99498535 -307.11376953 533.89770508 C-290.39160581 507.97933299 -272.85826006 482.54554907 -254.75366211 457.57641602 C-249.59637545 450.46126325 -244.52982932 443.28391461 -239.47509766 436.09570312 C-237.52206175 433.32098279 -235.56294249 430.55058392 -233.60400391 427.7800293 C-228.74403225 420.9040278 -223.89770244 414.01843963 -219.0625 407.125 C-218.55025879 406.39627686 -218.03801758 405.66755371 -217.51025391 404.91674805 C-206.47090697 389.15948674 -195.73007021 373.19786001 -185.0625 357.1875 C-184.45026581 356.26901276 -183.83803162 355.35052551 -183.20724487 354.40420532 C-174.81611393 341.80895728 -166.46564768 329.19723828 -158.46386719 316.34960938 C-156.94431087 313.91061504 -155.41384343 311.47867986 -153.8828125 309.046875 C-122.96116304 259.73066248 -96.12939965 208.19297121 -71.80761719 155.34423828 C-68.15907868 147.43454198 -64.39484601 139.58885516 -60.57537842 131.76095581 C-53.12500354 116.4862758 -46.03509184 101.06695722 -39.06005859 85.5703125 C-36.84749497 80.65724347 -34.62132697 75.75038107 -32.39453125 70.84375 C-22.78707079 49.66481468 -22.78707079 49.66481468 -13.3046875 28.4296875 C-12.74626411 27.16953575 -12.74626411 27.16953575 -12.17655945 25.88392639 C-10.41255768 21.90083101 -8.65267488 17.91597949 -6.89868164 13.9284668 C-6.27494231 12.51609563 -5.65116525 11.10374113 -5.02734375 9.69140625 C-4.74805023 9.05286713 -4.46875671 8.414328 -4.18099976 7.75643921 C-2.95121584 4.97758266 -1.69288541 2.53932812 0 0 Z " fill="#FEF1DF" transform="translate(1135,87)"/>
<path d="M0 0 C370.59 0 741.18 0 1123 0 C1123 186.45 1123 372.9 1123 565 C964.6 565 806.2 565 643 565 C643 761.35 643 957.7 643 1160 C586.9 1160 530.8 1160 473 1160 C473 963.65 473 767.3 473 565 C316.91 565 160.82 565 0 565 C0 378.55 0 192.1 0 0 Z M5 4 C5 187.81 5 371.62 5 561 C372.29 561 739.58 561 1118 561 C1118 377.19 1118 193.38 1118 4 C750.71 4 383.42 4 5 4 Z M477 567 C477 761.04 477 955.08 477 1155 C530.13 1155 583.26 1155 638 1155 C638 960.96 638 766.92 638 567 C584.87 567 531.74 567 477 567 Z " fill="#381F1A" transform="translate(79,83)"/>
<path d="M0 0 C8.18201872 4.77284425 11.15998565 10.50595912 14.25 19.3125 C15.15176033 23.44556817 15.61968431 27.54241514 16 31.75 C16.61746094 30.78320312 17.23492187 29.81640625 17.87109375 28.8203125 C33.56066816 4.55518647 33.56066816 4.55518647 47.453125 1.1484375 C57.66938426 -0.44981165 68.14874969 0.6812972 77.1640625 6.03515625 C78.99854619 7.48577221 80.48027144 8.97364182 82 10.75 C82.51949219 11.35199219 83.03898438 11.95398438 83.57421875 12.57421875 C94.8448857 27.47875313 95.40588199 48.74170857 95.3125 66.625 C95.31067719 67.36310913 95.30885437 68.10121826 95.30697632 68.86169434 C95.19466703 96.4963646 92.61416852 123.93904754 88.83935547 151.29370117 C87.70758286 159.58840864 86.76381378 167.8563614 86.15234375 176.20703125 C86.08935089 177.06032013 86.02635803 177.91360901 85.9614563 178.79275513 C85.66651305 182.87781451 85.39851206 186.96279492 85.1640625 191.05175781 C85.06668417 192.51499248 84.96904235 193.97820965 84.87109375 195.44140625 C84.76172485 197.34708374 84.76172485 197.34708374 84.65014648 199.29125977 C83.89868651 203.28898169 82.51573631 205.58404627 80 208.75 C76.77834396 210.36082802 73.48360411 210.3506214 70 209.75 C66.48375087 207.05670279 64.7557084 205.06895856 64 200.75 C63.55377129 192.51078939 64.28131387 184.36915054 65.1875 176.1875 C65.31697021 174.96716064 65.44644043 173.74682129 65.57983398 172.48950195 C66.40873264 164.79299119 67.3113321 157.10666572 68.2421875 149.421875 C71.55569808 122.00323205 74.11562546 94.835554 74.25 67.1875 C74.2554483 66.51507263 74.26089661 65.84264526 74.26651001 65.14984131 C74.5083491 42.56014055 74.5083491 42.56014055 65 22.75 C59.67546011 20.97515337 53.20144428 20.37968483 47.9375 22.6328125 C27.06784111 38.76815062 22.83002716 73.55191139 19.67236328 97.51635742 C16.73915415 120.80874418 16.2281741 144.32748468 15.76953125 167.77734375 C15.75109161 168.65754684 15.73265198 169.53774994 15.71365356 170.44462585 C15.62686244 174.61286071 15.55455154 178.77999767 15.51660156 182.94897461 C15.49197552 184.43213626 15.46693432 185.9152911 15.44140625 187.3984375 C15.42795166 188.67895996 15.41449707 189.95948242 15.40063477 191.27880859 C14.84411666 196.10060894 13.44987818 199.50149379 9.75 202.6875 C6.04020671 204.12082923 3.81331821 203.78999587 0 202.75 C-3.77995774 199.99165246 -4.80892973 197.19161975 -6 192.75 C-6.2763857 189.85525445 -6.28056736 186.98052633 -6.265625 184.07421875 C-6.26753845 183.23196243 -6.2694519 182.38970612 -6.27142334 181.52192688 C-6.27278201 179.73246971 -6.26910781 177.94300258 -6.26074219 176.15356445 C-6.2502932 173.51163288 -6.26051256 170.87042243 -6.2734375 168.22851562 C-6.28010379 158.92930992 -5.87543574 149.7840832 -4.99609375 140.52734375 C-3.38653173 122.87351274 -3.73978828 105.14127797 -3.80438232 87.43206787 C-3.81525562 83.67211584 -3.8148488 79.91220008 -3.81424427 76.15223503 C-3.81451824 72.47841397 -3.82003355 68.80461559 -3.82724571 65.13080215 C-3.83038196 63.40156347 -3.83238767 61.67232227 -3.83313942 59.9430809 C-3.78832346 39.19091913 -3.78832346 39.19091913 -7 18.75 C-15.49208457 19.45915111 -20.40893271 22.37367045 -26 28.75 C-38.605559 45.29814873 -46.1476149 66.35243103 -51.625 86.1875 C-51.88998291 87.13093262 -52.15496582 88.07436523 -52.42797852 89.04638672 C-57.87921159 109.60808457 -60.76509311 130.80620073 -63.31298828 151.88867188 C-63.75503595 155.54161552 -64.2106147 159.19269409 -64.66796875 162.84375 C-65.99391105 173.5554162 -67.30058336 184.21496728 -67.71850586 195.00561523 C-68.21958955 199.89085529 -69.99179795 203.08803968 -73.8125 206.25 C-77.21540819 207.02780759 -79.63198135 206.6363207 -83 205.75 C-86.11905047 203.17339309 -87.7181368 201.5955896 -89 197.75 C-89.09190495 196.2243249 -89.12790598 194.6949439 -89.12939453 193.16650391 C-89.13250137 192.22887207 -89.13560822 191.29124023 -89.1388092 190.32519531 C-89.13683029 189.30264648 -89.13485138 188.28009766 -89.1328125 187.2265625 C-89.13417709 186.15680176 -89.13554169 185.08704102 -89.13694763 183.98486328 C-89.13899489 180.44821191 -89.13258379 176.9116431 -89.125 173.375 C-89.12378143 172.14722839 -89.12256287 170.91945679 -89.12130737 169.65447998 C-89.10245881 153.38751003 -88.94371467 137.13329237 -88.49316406 120.87261963 C-88.11307647 107.10062731 -87.93707466 93.33332633 -87.83836937 79.55689621 C-87.81639169 76.55269751 -87.79247868 73.54852051 -87.76789856 70.54434204 C-87.75143429 68.52093506 -87.73497006 66.49752808 -87.71850586 64.47412109 C-87.71025567 63.4662108 -87.70200548 62.45830051 -87.69350529 61.41984749 C-87.6450624 55.33261267 -87.61000079 49.24546653 -87.58375072 43.15809822 C-87.56413745 39.31985584 -87.53232138 35.48178105 -87.49743462 31.64365005 C-87.48361467 29.83114976 -87.47504325 28.0186012 -87.47194099 26.20605087 C-87.46703397 23.6975996 -87.44390614 21.18993262 -87.41650391 18.68164062 C-87.41950784 17.94734644 -87.42251177 17.21305225 -87.42560673 16.45650673 C-87.35403156 12.0539832 -86.7235208 9.24035676 -84 5.75 C-80.2626144 3.2584096 -78.42668417 3.29206715 -74 3.75 C-69.94683582 6.18189851 -68.45614935 8.33508658 -67 12.75 C-66.7215271 15.24946594 -66.7215271 15.24946594 -66.68115234 17.9074707 C-66.66128265 18.90813065 -66.64141296 19.90879059 -66.62094116 20.93977356 C-66.60938995 22.0076561 -66.59783875 23.07553864 -66.5859375 24.17578125 C-66.56657135 25.27850876 -66.5472052 26.38123627 -66.5272522 27.51737976 C-66.46757077 31.03234166 -66.42111625 34.54733651 -66.375 38.0625 C-66.33680974 40.44858183 -66.2977574 42.83465003 -66.2578125 45.22070312 C-66.16187857 51.0636809 -66.07679753 56.90674106 -66 62.75 C-65.71184418 62.03293381 -65.42368835 61.31586761 -65.12680054 60.57707214 C-44.96232318 10.47980854 -44.96232318 10.47980854 -20 -0.25 C-13.97357058 -2.25880981 -5.95484143 -2.42409474 0 0 Z " fill="#351C17" transform="translate(426,262.25)"/>
<path d="M0 0 C10.81037792 5.34479578 20.53501105 14.13816866 24.98828125 25.578125 C28.43751856 37.54214621 29.08434403 49.61326473 29.171875 62.0078125 C29.18573242 63.19286377 29.19958984 64.37791504 29.21386719 65.59887695 C29.17035777 73.68418561 28.76643829 80.96781472 23.296875 87.2578125 C12.42083104 94.9960247 -4.9157796 94.30973872 -17.765625 95.5078125 C-19.17581909 95.63941772 -19.17581909 95.63941772 -20.61450195 95.77368164 C-21.51128662 95.85352295 -22.40807129 95.93336426 -23.33203125 96.015625 C-24.52421265 96.12221436 -24.52421265 96.12221436 -25.74047852 96.23095703 C-28.56605078 96.40519178 -31.37290553 96.4069082 -34.203125 96.3828125 C-34.07874782 136.05746188 -34.07874782 136.05746188 -18.890625 171.8828125 C-13.56074125 176.84084389 -7.35029562 178.77454266 -0.203125 179.3828125 C12.04975578 165.06673187 14.77139392 145.56482706 15.93823242 127.29443359 C16.34616281 122.30965232 17.66159306 119.26628672 20.796875 115.3828125 C24.01617073 113.77316463 27.31575212 113.77595008 30.796875 114.3828125 C34.01642145 116.91734907 35.50119935 118.49578555 36.796875 122.3828125 C37.79622514 145.78619824 31.32602243 174.61399939 15.796875 192.5703125 C10.73002816 197.76707849 7.05686812 200.45160705 -0.35546875 200.59375 C-5.30554684 200.54092368 -9.54972469 199.43581179 -14.203125 197.8203125 C-14.99058105 197.54856201 -15.77803711 197.27681152 -16.58935547 196.99682617 C-30.70074242 191.86847031 -38.5305848 181.03257139 -44.828125 167.71875 C-62.05464658 125.92485958 -58.3606237 65.54718434 -41.39453125 24.42285156 C-36.92251973 13.97567633 -30.48726779 3.82358646 -20.2890625 -1.83984375 C-13.42951834 -4.39611582 -6.5682825 -2.65328926 0 0 Z " fill="#351C17" transform="translate(595.203125,263.6171875)"/>
<path d="M0 0 C11.11400712 7.95846439 15.61274774 21.42340432 17.87109375 34.33984375 C20.97615592 53.1427202 20.48007049 79.81664752 10.640625 96.62109375 C5.66836075 101.45066609 -1.14346415 103.12451763 -7.75390625 104.46484375 C-8.52718262 104.62952148 -9.30045898 104.79419922 -10.09716797 104.96386719 C-17.06484042 106.41039323 -24.06481546 107.47670725 -31.12890625 108.33984375 C-30.54089826 132.63334525 -29.55565653 165.2472558 -11.625 184.109375 C-10.00381038 185.54634759 -10.00381038 185.54634759 -7.19140625 186.71484375 C-3.0696923 186.21014408 -1.51564931 184.58974161 1.203125 181.546875 C9.34830364 170.7692967 11.09278164 158.02823811 11.5625 144.84765625 C11.9802736 140.09878672 12.83231999 135.89800439 15.49609375 131.90234375 C18.87303172 129.68067403 22.00598817 129.55762 25.87109375 130.33984375 C28.68112835 132.13348286 30.38049843 133.3586531 31.87109375 136.33984375 C33.07432908 155.77672212 30.8347811 178.09654316 17.64453125 193.41796875 C17.05929687 194.0521875 16.4740625 194.68640625 15.87109375 195.33984375 C15.32710937 195.9740625 14.783125 196.60828125 14.22265625 197.26171875 C8.8312959 203.18462167 2.13438724 207.45256861 -6.00390625 208.02734375 C-14.7962134 207.48903923 -22.09631977 202.88465019 -28.00390625 196.58984375 C-44.87026264 176.10709743 -51.44973376 145.63188037 -51.4296875 119.55859375 C-51.43519623 118.47406418 -51.44070496 117.38953461 -51.44638062 116.2721405 C-51.45797567 112.79457239 -51.45180871 109.31741153 -51.44140625 105.83984375 C-51.43966904 104.06222153 -51.43966904 104.06222153 -51.43789673 102.24868774 C-51.40398033 84.75360434 -50.90263082 67.64213505 -48.12890625 50.33984375 C-48.01144043 49.540625 -47.89397461 48.74140625 -47.77294922 47.91796875 C-45.20465408 30.57169594 -40.25094087 11.83517993 -26.12890625 0.33984375 C-17.73046514 -4.66691922 -8.61869841 -4.87294619 0 0 Z " fill="#351C17" transform="translate(799.12890625,259.66015625)"/>
<path d="M0 0 C53.13 0 106.26 0 161 0 C161 22.11 161 44.22 161 67 C149.98625 66.195625 138.9725 65.39125 127.625 64.5625 C124.16596191 64.31056885 120.70692383 64.0586377 117.14306641 63.79907227 C112.87182617 63.48620605 112.87182617 63.48620605 110.86312866 63.33872986 C109.48027049 63.23745173 108.09737436 63.13669102 106.71444702 63.03636169 C93.58725288 62.08334333 93.58725288 62.08334333 87.60668945 61.45678711 C82.88967993 60.96446773 78.17856785 60.7071392 73.44140625 60.5 C72.13670631 60.4390918 72.13670631 60.4390918 70.8056488 60.37695312 C68.05804141 60.24878988 65.31029883 60.12398634 62.5625 60 C42.31831376 59.08476615 42.31831376 59.08476615 33.7434082 58.22314453 C27.44925855 57.71118825 21.12299078 57.61665164 14.8125 57.4375 C9.924375 57.293125 5.03625 57.14875 0 57 C0 38.19 0 19.38 0 0 Z " fill="#F0DDC5" transform="translate(556,650)"/>
<path d="M0 0 C-2.13463309 3.26365744 -4.233213 6.44635712 -6.8125 9.375 C-7.32441895 9.96039551 -7.83633789 10.54579102 -8.36376953 11.14892578 C-8.90372559 11.75978027 -9.44368164 12.37063477 -10 13 C-11.16441011 14.33042501 -12.3284646 15.66116134 -13.4921875 16.9921875 C-14.07838867 17.66088867 -14.66458984 18.32958984 -15.26855469 19.01855469 C-17.90664852 22.03755773 -20.51782205 25.0792954 -23.125 28.125 C-23.61806641 28.70056641 -24.11113281 29.27613281 -24.61914062 29.86914062 C-28.38080419 34.26518223 -32.120094 38.67988018 -35.8515625 43.1015625 C-39.25340646 47.12903294 -42.68622334 51.12905446 -46.125 55.125 C-49.63669549 59.20857466 -53.10384716 63.31917647 -56.5 67.5 C-60.88712902 72.90076172 -65.41223412 78.174677 -69.94921875 83.44921875 C-77.75960026 92.53030739 -85.4416167 101.70779401 -93 111 C-94.49943092 112.83379879 -95.99943458 114.66712943 -97.5 116.5 C-98.62148438 117.87091797 -98.62148438 117.87091797 -99.765625 119.26953125 C-101.21297051 121.03822795 -102.66085301 122.80648543 -104.109375 124.57421875 C-105.57407709 126.36233134 -107.03756121 128.15144211 -108.5 129.94140625 C-109.81627729 131.55178924 -111.13294981 133.16185388 -112.453125 134.76904297 C-119.19040735 142.97159916 -125.78343852 151.25896574 -132.1965332 159.71777344 C-135.70258324 164.33346644 -139.28831944 168.87196206 -142.9375 173.375 C-149.92417307 182.02913129 -156.46349973 191.00380345 -163 200 C-163.5480127 200.7518457 -164.09602539 201.50369141 -164.66064453 202.27832031 C-185.29464541 230.59657941 -205.04140702 259.53639144 -224 289 C-224.44891602 289.69738281 -224.89783203 290.39476562 -225.36035156 291.11328125 C-227.9094042 295.07391607 -230.45587856 299.03619598 -233 303 C-234 301 -234 301 -233.14453125 298.27734375 C-232.70496094 297.17519531 -232.26539063 296.07304687 -231.8125 294.9375 C-231.34457031 293.75929688 -230.87664062 292.58109375 -230.39453125 291.3671875 C-229.30650579 288.74007841 -228.18472849 286.14647572 -227 283.5625 C-225.26084035 279.76159464 -223.87433855 275.88453326 -222.5 271.9375 C-220.93004074 267.45737236 -219.24782142 263.27902944 -217.01953125 259.09765625 C-215.71764728 256.4190674 -214.71950414 253.6684705 -213.6875 250.875 C-211.39544718 244.77232068 -208.63974434 239.0686463 -205.6484375 233.2890625 C-204.29350295 230.58561488 -203.08245295 227.87051147 -201.91113281 225.08496094 C-199.80524939 220.26603156 -197.46980099 215.54961793 -195.1875 210.8125 C-194.67896484 209.75224609 -194.17042969 208.69199219 -193.64648438 207.59960938 C-190.16762953 200.3641204 -186.61065052 193.17058287 -183 186 C-182.34 186 -181.68 186 -181 186 C-180.71125 184.9275 -180.4225 183.855 -180.125 182.75 C-179.27179891 179.90599636 -178.4363497 177.56491017 -177 175 C-176.34 175 -175.68 175 -175 175 C-174.89365234 174.01966797 -174.89365234 174.01966797 -174.78515625 173.01953125 C-173.69393815 168.82295615 -171.61233486 165.41436097 -169.4375 161.6875 C-168.80038086 160.57665039 -168.80038086 160.57665039 -168.15039062 159.44335938 C-167.10648347 157.62531882 -166.05407808 155.81216252 -165 154 C-164.34 154 -163.68 154 -163 154 C-162.89945312 153.45472656 -162.79890625 152.90945312 -162.6953125 152.34765625 C-159.25592041 140.73487735 -149.69262179 129.32469166 -142.73046875 119.50390625 C-141.0155291 117.02246987 -139.40722783 114.49755945 -137.8125 111.9375 C-129.23918703 98.3726137 -119.53665595 85.65884542 -109.61474609 73.06445312 C-107.69128168 70.60530359 -105.80546828 68.11929446 -103.92211914 65.62939453 C-99.90921733 60.33334812 -95.70354768 55.33516715 -91.203125 50.44921875 C-88.93609992 47.92896214 -86.80866579 45.33132714 -84.6875 42.6875 C-80.78444241 37.86165296 -76.6685861 33.29041294 -72.42456055 28.76635742 C-70.94187632 27.18460856 -69.46821242 25.59519295 -68 24 C-67.43007324 23.38108887 -66.86014648 22.76217773 -66.27294922 22.12451172 C-63.27861958 18.79666133 -60.68316351 15.57296438 -58.3984375 11.71875 C-45.83769116 -6.97551072 -19.73963461 -1.29277204 0 0 Z " fill="#FEF1DF" transform="translate(326,87)"/>
<path d="M0 0 C10.6256168 8.04005005 16.11360971 21.08574883 20.84375 33.2109375 C21.09906494 33.84837891 21.35437988 34.48582031 21.61743164 35.14257812 C23.3887212 39.92574432 23.71366875 43.75311155 23.34375 48.7734375 C21.55011089 51.5834721 20.32494065 53.28284218 17.34375 54.7734375 C13.58749999 55.12780071 11.17466676 55.24899363 7.859375 53.3515625 C4.35242307 49.75748133 3.09072097 45.88024812 1.40625 41.2109375 C-3.51141182 26.64908453 -3.51141182 26.64908453 -13.65625 15.7734375 C-18.79899651 17.38972926 -22.05266004 20.02521608 -24.7890625 24.71484375 C-31.12548323 37.83358149 -30.7883061 52.04886439 -26.65625 65.7734375 C-23.26715717 74.91264389 -18.02188829 82.49204071 -11.65625 89.7734375 C-9.85826558 91.87224121 -8.0692084 93.97858953 -6.28125 96.0859375 C-5.81509277 96.63531982 -5.34893555 97.18470215 -4.86865234 97.75073242 C15.42962447 121.77047668 30.49509119 147.82098586 28.56689453 180.27392578 C27.32090642 194.23062845 22.05786989 209.65333517 11.44140625 219.2265625 C2.86037325 225.5544751 -8.15951881 227.77620689 -18.65625 226.7734375 C-29.90803156 224.84255455 -39.60830982 217.57957351 -46.65625 208.7734375 C-54.57309181 196.76353462 -58.06621111 179.07465408 -55.65625 164.7734375 C-53.92315524 161.72960586 -51.99915425 159.24650604 -48.59375 158.046875 C-43.75687687 158.30042077 -41.16623069 159.16022209 -37.65625 162.7734375 C-35.2670462 166.35724321 -35.33760234 169.06753243 -35.21875 173.2109375 C-34.71838539 183.31875952 -34.01708616 192.63912504 -26.5390625 200.1484375 C-21.65493684 204.36378247 -17.42951946 206.42933287 -10.86328125 206.09375 C-6.24651603 205.4237062 -2.85350603 203.9022789 0.53125 200.7109375 C8.3040538 188.11363478 9.33849198 172.86926754 6.96142578 158.45507812 C5.89958337 154.02101092 4.21202962 149.91987441 2.34375 145.7734375 C1.8590625 144.63132812 1.374375 143.48921875 0.875 142.3125 C-4.91015066 129.69293115 -13.6599196 119.11804521 -22.71875 108.7109375 C-39.64671807 89.25359836 -52.07439497 67.98572419 -50.40112305 41.25732422 C-49.18496058 26.6467376 -43.60286606 12.72272275 -32.875 2.53125 C-22.21335756 -5.91547377 -11.50425476 -7.5629823 0 0 Z " fill="#351C17" transform="translate(698.65625,254.2265625)"/>
<path d="M0 0 C9.02464311 6.53420106 15.82718346 14.90546708 18 26 C19.2959729 37.63783663 19.2959729 37.63783663 16.8984375 42.0078125 C14.33065219 44.41082014 11.84077652 45.02793394 8.4375 45.625 C4.02136859 44.82206702 2.83163717 43.43841656 0 40 C-1.15234375 36.4765625 -1.15234375 36.4765625 -1.9375 32.625 C-3.32060981 26.74624886 -4.6120554 21.37043231 -10 18 C-14.18102396 16.61124999 -17.58223633 16.51667148 -21.75 17.9375 C-27.63811873 23.33494217 -30.59691069 30.14432421 -31.25390625 38.05859375 C-31.98328817 59.16361267 -21.90355006 76.08010856 -8 91 C-5.96777268 93.09617853 -3.90989334 95.15649071 -1.8203125 97.1953125 C1.31602646 100.30473009 4.18062257 103.6028813 7 107 C7.7734375 107.92296875 8.546875 108.8459375 9.34375 109.796875 C24.65009813 128.55968786 32.8825653 149.62411356 31 174 C29.16851759 187.00799212 23.51076198 198.88494942 13 207 C-0.39702447 215.45309028 -16.22229272 220.02666414 -32 217 C-40.67539887 214.67623245 -47.17061218 210.48740686 -51.75 202.6875 C-56.70200183 193.02783853 -58.19321123 183.87227487 -58.25 173.125 C-58.2809375 171.67287109 -58.2809375 171.67287109 -58.3125 170.19140625 C-58.34439826 164.33010098 -57.85978245 160.15585779 -55 155 C-51.95710918 152.29520816 -50.52719326 151.990751 -46.4375 152.0625 C-42.72267858 153.07563312 -41.35059461 154.016553 -39 157 C-37.67530854 159.64938292 -37.99016719 161.96183905 -38.06567383 164.86645508 C-38.70436615 180.35136463 -38.70436615 180.35136463 -32.5 193.8359375 C-28.61972828 197.19479771 -25.51601768 197.30064209 -20.40625 197.21484375 C-10.44176141 196.32515727 -2.32946552 193.23325517 4.8125 186.25 C11.36968388 176.50789824 11.5652804 164.18936728 9.64111328 152.89306641 C5.27887734 133.81006033 -9.27858442 118.47384417 -22.84765625 105.19921875 C-39.00427776 88.6907289 -51.67159699 66.1697526 -52.3125 42.625 C-52.17083382 29.95374685 -48.50521188 16.25392495 -39.9296875 6.69140625 C-28.53254771 -4.12991986 -14.20920521 -7.45433691 0 0 Z " fill="#351C17" transform="translate(901,254)"/>
<path d="M0 0 C3.3 0 6.6 0 10 0 C0.94090506 21.12271383 -8.52988541 42.05933512 -18 63 C-18.34776489 63.76920776 -18.69552979 64.53841553 -19.05383301 65.33093262 C-30.22990532 90.04701432 -41.48609095 114.7238664 -53.2746582 139.15527344 C-57.18370675 147.26678733 -61.02356472 155.40934003 -64.8477478 163.56106567 C-81.14582485 198.29004498 -97.71849385 232.80773265 -117 266 C-117.67367554 267.16428798 -118.34717027 268.32868058 -119.02050781 269.49316406 C-126.78454653 282.91029091 -134.6224231 296.26524306 -143 309.31152344 C-144.91250489 312.29297792 -146.81066802 315.28246581 -148.69042969 318.28466797 C-155.66623626 329.42290698 -162.84633766 340.41097887 -170.15405273 351.33398438 C-171.93544533 353.99692854 -173.71311683 356.66232645 -175.49023438 359.328125 C-185.85957803 374.86646873 -196.38060648 390.29979035 -207.0625 405.625 C-207.73385986 406.58881592 -208.40521973 407.55263184 -209.09692383 408.5456543 C-217.68264521 420.86074412 -226.342655 433.11569382 -235.14746094 445.27514648 C-239.72869352 451.60814734 -244.25526567 457.97804057 -248.7487793 464.37353516 C-250.35317056 466.65699066 -251.95789399 468.94020264 -253.56462097 471.22201538 C-262.11272659 483.36335087 -270.53772118 495.58221305 -278.84204102 507.89160156 C-280.69333984 510.63364966 -282.55069416 513.37153119 -284.40820312 516.109375 C-291.92489936 527.22330553 -299.1207107 538.48096832 -306 550 C-307.485 552.475 -307.485 552.475 -309 555 C-183.27 555.33 -57.54 555.66 72 556 C72 556.33 72 556.66 72 557 C-295.29 557 -662.58 557 -1041 557 C-1041 556.67 -1041 556.34 -1041 556 C-1040.06393083 556.00337723 -1040.06393083 556.00337723 -1039.10895117 556.00682269 C-971.17091258 556.25122605 -903.23281171 556.47084742 -835.29437256 556.56085205 C-834.27960848 556.56220345 -833.26484439 556.56355486 -832.21932988 556.56494721 C-810.16601327 556.5941678 -788.11269376 556.61893829 -766.05936708 556.63912432 C-755.24449255 556.64905056 -744.42961913 556.65996022 -733.61474609 556.67138672 C-732.53853362 556.67250706 -731.46232115 556.6736274 -730.35349618 556.67478168 C-695.46729842 556.71155922 -660.5816572 556.81327967 -625.69571445 556.94866307 C-589.84717124 557.08743918 -553.99907673 557.16072754 -518.1502515 557.1515637 C-513.08741894 557.15030008 -508.02458656 557.14978544 -502.96175385 557.14972687 C-501.46709021 557.14967483 -501.46709021 557.14967483 -499.94223136 557.14962175 C-483.89895744 557.15098971 -467.85669391 557.2214332 -451.8137396 557.31768334 C-435.68669623 557.41296475 -419.56085074 557.43553424 -403.43359706 557.38385776 C-393.84984912 557.35535929 -384.27003719 557.38263363 -374.68682573 557.48978894 C-368.28333708 557.55589405 -361.88257399 557.54926692 -355.47908592 557.48381672 C-351.8293391 557.44858653 -348.18712389 557.44467784 -344.53802696 557.52961847 C-330.2961476 558.38082932 -330.2961476 558.38082932 -317.71846837 553.06033522 C-313.83009789 548.34119788 -311.38582445 543.17187192 -309.11475536 537.53291717 C-307.33686137 533.49323423 -304.88020001 529.96689023 -302.3671875 526.35546875 C-301.44754982 524.98614542 -300.52937133 523.61583986 -299.61328125 522.24414062 C-298.70066902 520.89182707 -297.78790853 519.53961355 -296.875 518.1875 C-295.9539734 516.81605978 -295.03340115 515.44431433 -294.11328125 514.07226562 C-292.30049747 511.37006509 -290.48495127 508.66975304 -288.66748047 505.97070312 C-286.44417216 502.66595832 -284.23570692 499.35158509 -282.03155518 496.03404236 C-277.80623421 489.67548468 -273.52440299 483.36501665 -269.125 477.125 C-268.53404541 476.28404785 -267.94309082 475.4430957 -267.33422852 474.57666016 C-266.13172459 472.86625336 -264.92837331 471.15644195 -263.72412109 469.44726562 C-262.11207234 467.15907862 -260.50292434 464.86888236 -258.89453125 462.578125 C-253.85545066 455.41049576 -248.76798298 448.28094961 -243.625 441.1875 C-237.23373396 432.36866239 -230.98482057 423.45399704 -224.75732422 414.51904297 C-222.46068048 411.22691042 -220.15685335 407.93984241 -217.85253906 404.65307617 C-216.09354943 402.14261315 -214.3376564 399.63000424 -212.58203125 397.1171875 C-210.23595607 393.76054443 -207.87822216 390.41257797 -205.51171875 387.0703125 C-169.59555814 336.13922822 -136.26777129 283.02863308 -107 228 C-106.27248535 226.6397168 -106.27248535 226.6397168 -105.53027344 225.25195312 C-93.17334701 202.1088252 -81.89694315 178.41530816 -70.92944336 154.58789062 C-67.10564481 146.30641119 -63.15098671 138.0967695 -59.14584351 129.90188599 C-51.4927641 114.23813658 -44.19316834 98.43723599 -37.04394531 82.53808594 C-34.83913187 77.63787395 -32.61917779 72.74457248 -30.3984375 67.8515625 C-20.15887125 45.28140526 -10.02788192 22.66498474 0 0 Z " fill="#E2CFB9" transform="translate(1125,87)"/>
<path d="M0 0 C2.52851336 16.510706 2.52851336 16.510706 -1.40917969 23.50195312 C-5.09389685 28.25913268 -9.46653928 32.27961045 -13.98681641 36.23144531 C-16.64053728 38.56270338 -19.09006615 41.04023415 -21.5625 43.5625 C-22.26503906 44.24441406 -22.96757813 44.92632813 -23.69140625 45.62890625 C-25.55607319 47.54405487 -27.28378927 49.4834228 -29.01757812 51.51318359 C-33.46945244 56.61451849 -38.23604079 61.37961503 -43.02734375 66.16015625 C-43.98481025 67.1182986 -44.94212845 68.07658916 -45.89930725 69.03501892 C-47.89373747 71.03091287 -49.88993741 73.02501452 -51.88745117 75.01782227 C-54.42674399 77.55141863 -56.96151903 80.08947983 -59.49497128 82.62891483 C-61.46732184 84.60490703 -63.44208263 86.57847679 -65.41754341 88.55135918 C-66.80126628 89.93410599 -68.18300314 91.3188393 -69.56468201 92.70362854 C-74.00107206 97.12371456 -78.48529941 101.41852937 -83.24822998 105.48634338 C-86.36484578 108.17932595 -89.32349261 111.0422416 -92.3125 113.875 C-97.47584688 118.7302881 -102.72977415 123.37388525 -108.26953125 127.80078125 C-111.33432517 130.26927764 -114.32221296 132.81738828 -117.3125 135.375 C-127.25695799 143.84006822 -137.63967213 151.75486808 -148.00390625 159.6953125 C-151.48838816 162.3756832 -154.94438872 165.09099399 -158.390625 167.8203125 C-160 169 -160 169 -161 169 C-163.20777165 153.36570594 -163.20777165 153.36570594 -159.75341797 148.09960938 C-156.32050294 144.56932896 -152.22858136 141.95626134 -148.078125 139.34423828 C-144.84233111 137.25116014 -141.8760795 134.84942357 -138.875 132.4375 C-137.72022925 131.53232602 -136.56528209 130.62737704 -135.41015625 129.72265625 C-131.42223137 126.56350936 -127.54201498 123.28244805 -123.67651367 119.9753418 C-120.39499825 117.16867098 -117.06478722 114.44174832 -113.6875 111.75 C-106.91142082 106.23642175 -100.64394996 100.18646031 -94.31591797 94.17236328 C-92.17451619 92.16369861 -90.00611447 90.18755316 -87.8326416 88.21376038 C-78.71793401 79.90414269 -70.02347677 71.174581 -61.31396484 62.44433594 C-58.61279114 59.73776675 -55.90626571 57.03663104 -53.19921875 54.3359375 C-51.45801235 52.5940708 -49.71711591 50.8518942 -47.9765625 49.109375 C-47.17852203 48.31335876 -46.38048157 47.51734253 -45.55825806 46.69720459 C-41.40269427 42.52436758 -37.40006951 38.28110876 -33.5788269 33.79901123 C-30.71731562 30.53843155 -27.59598221 27.5357275 -24.5 24.5 C-20.03334014 20.08121664 -15.68494626 15.65160313 -11.625 10.8515625 C-2.10126582 0 -2.10126582 0 0 0 Z " fill="#F0DDC5" transform="translate(717,954)"/>
<path d="M0 0 C5.94385673 0 9.84223179 3.090704 14 7 C25.48699171 19.34725101 22.23855579 39.42047175 22 55 C13.49473488 56.21135594 4.98461857 57.25641602 -3.5625 58.125 C-4.40651367 58.21249512 -5.25052734 58.29999023 -6.12011719 58.39013672 C-10.43375536 58.81805651 -14.6583631 59.09851364 -19 59 C-18.44306787 38.56059099 -15.07643845 15.07643845 0 0 Z " fill="#FCEFDD" transform="translate(582,281)"/>
<path d="M0 0 C4.17312863 1.7896458 6.04512282 5.95278173 8.00390625 9.859375 C10.9940695 18.48527345 11.4018112 26.82124827 11.00390625 35.859375 C10.94901211 37.49738892 10.89434026 39.1354103 10.83984375 40.7734375 C10.3123653 55.0021025 10.3123653 55.0021025 9.37890625 61.921875 C9.23582031 62.99115234 9.23582031 62.99115234 9.08984375 64.08203125 C6.97408894 67.54486737 2.74224316 68.41485621 -1.00390625 69.37280273 C-3.05788491 69.81262422 -5.11347253 70.19116403 -7.18359375 70.546875 C-7.88162109 70.67642578 -8.57964844 70.80597656 -9.29882812 70.93945312 C-12.60814798 71.53456393 -15.62055 71.859375 -18.99609375 71.859375 C-19.46660298 48.7181628 -17.69944859 21.93126513 -4.99609375 1.859375 C-1.99609375 -0.140625 -1.99609375 -0.140625 0 0 Z " fill="#FCEEDD" transform="translate(786.99609375,276.140625)"/>
<path d="M0 0 C10.00995941 0.55681911 19.90186673 1.44107092 29.83203125 2.85546875 C30.54800791 2.95667715 31.26398457 3.05788555 32.00165749 3.16216087 C56.12179004 6.62521615 79.98137744 11.72666902 103.85864258 16.54168701 C110.32166634 17.84280171 116.78691262 19.13277888 123.25195312 20.42382812 C135.83677506 22.93861668 148.41917692 25.46528741 161 28 C161 30.97 161 33.94 161 37 C150.16851275 35.51629186 139.48851065 33.36971736 128.77654839 31.20688248 C125.54662313 30.55528907 122.31581781 29.90823352 119.08473206 29.26242065 C109.90516375 27.4272063 100.72659951 25.5870642 91.55004883 23.73681641 C61.12343018 17.60566514 30.93304325 11.89521094 0 9 C0 6.03 0 3.06 0 0 Z " fill="#F0DDC5" transform="translate(556,723)"/>
<path d="M0 0 C0.33 0 0.66 0 1 0 C1 12.21 1 24.42 1 37 C-3.29 37 -7.58 37 -12 37 C-10.85859309 30.67836174 -9.31930918 24.99127379 -7 19 C-6.38887781 17.35529647 -5.78091726 15.70941543 -5.17578125 14.0625 C-4.86962891 13.23105469 -4.56347656 12.39960937 -4.24804688 11.54296875 C-3.93931641 10.70378906 -3.63058594 9.86460937 -3.3125 9 C-2.99216797 8.12988281 -2.67183594 7.25976562 -2.34179688 6.36328125 C-1.56098366 4.24226625 -0.78038863 2.12117124 0 0 Z " fill="#FEF0DE" transform="translate(1196,606)"/>
<path d="M0 0 C1.32 0.33 2.64 0.66 4 1 C2.02 3.97 0.04 6.94 -2 10 C-3 8 -3 8 -2.44140625 6.0546875 C-2.15136719 5.33539063 -1.86132812 4.61609375 -1.5625 3.875 C-1.27503906 3.15054687 -0.98757812 2.42609375 -0.69140625 1.6796875 C-0.46324219 1.12539063 -0.23507813 0.57109375 0 0 Z " fill="#F9EAD6" transform="translate(95,380)"/>
<path d="M0 0 C0.66 0.33 1.32 0.66 2 1 C-0.64 3.64 -3.28 6.28 -6 9 C-6 6 -6 6 -3.5625 3.375 C-2.716875 2.59125 -1.87125 1.8075 -1 1 C-0.67 0.67 -0.34 0.34 0 0 Z " fill="#E4D6C6" transform="translate(681,270)"/>
</svg>
