<?xml version="1.0" encoding="UTF-8"?>
<svg version="1.1" xmlns="http://www.w3.org/2000/svg" width="1280" height="1280">
<path d="M0 0 C370.59 0 741.18 0 1123 0 C1123 186.45 1123 372.9 1123 565 C964.6 565 806.2 565 643 565 C643 761.35 643 957.7 643 1160 C586.9 1160 530.8 1160 473 1160 C473 963.65 473 767.3 473 565 C316.91 565 160.82 565 0 565 C0 378.55 0 192.1 0 0 Z " fill="#FEF1DF" transform="translate(79,83)"/>
<path d="M0 0 C370.59 0 741.18 0 1123 0 C1123 186.45 1123 372.9 1123 565 C964.6 565 806.2 565 643 565 C643 761.35 643 957.7 643 1160 C586.9 1160 530.8 1160 473 1160 C473 963.65 473 767.3 473 565 C316.91 565 160.82 565 0 565 C0 378.55 0 192.1 0 0 Z M5 4 C5 187.48 5 370.96 5 560 C129.84429477 560.68888929 129.84429477 560.68888929 254.68894279 561.15595913 C272.77020672 561.20494775 290.85146698 561.25505768 308.93271799 561.30862385 C311.11976301 561.31510004 313.30680815 561.32154095 315.49385338 561.32794613 C350.35486676 561.43033592 385.21494543 561.6104137 420.07539389 561.8311333 C455.90620153 562.05758448 491.73649239 562.20526592 527.56800353 562.25395976 C532.62987515 562.26087539 537.691745 562.26869067 542.75361443 562.27705383 C543.74985458 562.27867199 544.74609473 562.28029014 545.77252398 562.28195732 C561.80435428 562.31031022 577.8345858 562.42159564 593.8657643 562.56396881 C609.98613752 562.70536163 626.10492734 562.75920934 642.22589881 562.72403306 C651.80314195 562.7057872 661.37458696 562.75431707 670.95078164 562.89914103 C677.35349979 562.98934754 683.75243613 562.99180728 690.15541864 562.92396353 C693.80342289 562.8877938 697.4405074 562.88877036 701.08732349 562.99719638 C715.81347534 563.77696559 715.81347534 563.77696559 728.57067041 557.67990315 C733.21005354 551.97406373 736.43568156 545.7215116 739.49739432 539.06818897 C741.89435179 534.17381212 744.9444382 529.75900222 748.02734375 525.27734375 C749.17442842 523.56043289 750.31984382 521.84240448 751.46289062 520.12280273 C752.62081719 518.3941832 753.77902507 516.66575208 754.9375 514.9375 C756.16473739 513.10165982 757.39195063 511.2658035 758.61914062 509.42993164 C767.26429169 496.51383073 776.02336786 483.68845498 785 471 C786.12657827 469.40123624 787.25288362 467.80228014 788.37890625 466.203125 C790.33388999 463.42860133 792.29196499 460.65632583 794.25390625 457.88671875 C794.86123596 456.99957687 794.86123596 456.99957687 795.48083496 456.09451294 C797 454 797 454 798.79077148 451.97483826 C804.94430114 444.53846759 804.77668133 437.7441664 804.24609375 428.5859375 C804.18804039 427.12061716 804.13325071 425.65516424 804.08155823 424.18960571 C803.93796646 420.36387907 803.75060383 416.54155621 803.55352783 412.71826172 C803.35971904 408.80416015 803.20809428 404.88843894 803.05273438 400.97265625 C802.7426946 393.31292654 802.38631752 385.65630253 802 378 C801.26885986 378.01571045 800.53771973 378.0314209 799.78442383 378.04760742 C796.4605284 378.11010351 793.1367568 378.14903752 789.8125 378.1875 C788.08676758 378.22520508 788.08676758 378.22520508 786.32617188 378.26367188 C785.21435547 378.27333984 784.10253906 378.28300781 782.95703125 378.29296875 C781.93585205 378.3086792 780.91467285 378.32438965 779.86254883 378.34057617 C776.54262949 377.94558364 774.69661088 376.93821695 772 375 C769.91393074 372.34500276 770.00120545 370.93249496 770.0625 367.5 C771.20499892 363.2346707 772.34820177 362.36647381 776 360 C778.93847656 359.37817383 778.93847656 359.37817383 782.140625 359.20703125 C783.29304687 359.13419922 784.44546875 359.06136719 785.6328125 358.98632812 C787.42332031 358.9002832 787.42332031 358.9002832 789.25 358.8125 C791.63041365 358.67673014 794.01063875 358.53759784 796.390625 358.39453125 C797.9689209 358.31489136 797.9689209 358.31489136 799.57910156 358.23364258 C801.94798092 358.26398867 801.94798092 358.26398867 803 357 C803.12163391 355.6364199 803.17972143 354.2670759 803.2109375 352.8984375 C803.23720215 352.02638672 803.2634668 351.15433594 803.29052734 350.25585938 C803.31840332 349.30517578 803.3462793 348.35449219 803.375 347.375 C803.6911236 339.03154575 804.33221634 330.78470869 805.375 322.5 C805.54588135 321.06019775 805.54588135 321.06019775 805.72021484 319.59130859 C806.39274233 314.53882242 807.22031989 310.3904691 810 306 C813.23415916 304.38292042 816.50375265 304.43177624 820 305 C823 306.9375 823 306.9375 825 310 C825.36479133 317.75941562 824.48756912 325.40725269 823.7109375 333.12109375 C823.02036657 340.4312803 822.89382959 347.6594957 823 355 C824.1552417 354.97905273 825.3104834 354.95810547 826.50073242 354.93652344 C830.79634148 354.86399602 835.09189665 354.81815407 839.38793945 354.78027344 C841.24545398 354.76018695 843.10290551 354.73291222 844.96020508 354.69824219 C847.63378463 354.64959263 850.30652656 354.62700191 852.98046875 354.609375 C854.2213752 354.57840729 854.2213752 354.57840729 855.48735046 354.54681396 C859.52513434 354.54525084 861.51357502 354.6964903 865.0222168 356.88574219 C867.27000809 359.28863968 867.68057278 360.25454962 867.625 363.5 C867.42788894 367.0248095 867.20768597 367.76923781 864.75 370.5 C860.02535276 373.07708031 855.51449861 373.23865996 850.20703125 373.5 C848.67512905 373.58331204 847.14322804 373.66664602 845.61132812 373.75 C843.20164503 373.87631901 840.79188668 374.00106017 838.38208008 374.125 C836.05267303 374.24614336 833.72361661 374.37284459 831.39453125 374.5 C830.30553276 374.55317383 830.30553276 374.55317383 829.1945343 374.60742188 C825.80650942 374.51378221 825.80650942 374.51378221 823 376 C822.90132875 377.57660587 822.87201168 379.15761481 822.87060547 380.73730469 C822.86745331 381.75056824 822.86430115 382.76383179 822.86105347 383.80780029 C822.8630777 384.91794495 822.86510193 386.0280896 822.8671875 387.171875 C822.86623077 388.31924133 822.86527405 389.46660767 822.86428833 390.64874268 C822.8636052 393.09688369 822.86546867 395.54502649 822.86962891 397.99316406 C822.87487813 401.66475763 822.86974007 405.33622328 822.86328125 409.0078125 C821.32745406 441.30215921 821.32745406 441.30215921 829 472 C836.04825468 471.43613963 840.26165869 468.99741839 845.125 464 C853.13012327 454.23458784 854.21112218 438.98479414 855.12304688 426.84179688 C855.56250287 421.94443591 856.35834642 418.27600996 859 414 C861.35005035 412.21720318 863.00765009 411.99886062 865.9375 411.5625 C870.23007374 412.17572482 871.37754748 413.56997104 874 417 C874.73744861 420.26990175 874.79006394 423.46952779 874.8125 426.8125 C874.85020508 428.13797852 874.85020508 428.13797852 874.88867188 429.49023438 C874.94730558 431.65968134 874.97657386 433.82988727 875 436 C879.19000473 432.07711761 882.42797814 427.8378323 885.6875 423.125 C886.20570313 422.38266113 886.72390625 421.64032227 887.2578125 420.87548828 C890.71476868 415.90452899 894.12766525 410.90372928 897.5 405.875 C897.89662842 405.28477051 898.29325684 404.69454102 898.7019043 404.08642578 C900.60241127 401.224897 902.40743121 398.33270385 904.09765625 395.34375 C905.61833525 392.6708522 907.19112678 390.15022665 908.9375 387.625 C914.62912895 379.34734132 914.62912895 379.34734132 918 370 C918.66 370 919.32 370 920 370 C920.81752303 368.41925436 921.62881997 366.83528777 922.4375 365.25 C922.88996094 364.36828125 923.34242188 363.4865625 923.80859375 362.578125 C924.83455398 360.35801434 925.51508603 358.38555381 926 356 C926.66 356 927.32 356 928 356 C928.31453125 355.3709375 928.6290625 354.741875 928.953125 354.09375 C929.59507812 352.80984375 929.59507812 352.80984375 930.25 351.5 C930.70246094 350.5925 931.15492188 349.685 931.62109375 348.75 C932.479826 347.03740084 933.34575748 345.32836886 934.22265625 343.625 C936.26839016 340.00084161 936.26839016 340.00084161 937 336 C937.66 336 938.32 336 939 336 C940.33957921 333.21128823 941.67058435 330.41856938 943 327.625 C943.3815625 326.8309375 943.763125 326.036875 944.15625 325.21875 C944.5171875 324.45820313 944.878125 323.69765625 945.25 322.9140625 C945.58515625 322.2123291 945.9203125 321.5105957 946.265625 320.78759766 C947.12666664 319.01376552 947.12666664 319.01376552 947 317 C947.66 317 948.32 317 949 317 C951.49552443 312.05880027 953.9855298 307.11487096 956.47070312 302.16845703 C957.31493518 300.48998193 958.16060858 298.81223093 959.0078125 297.13525391 C965.07855401 285.27651552 965.07855401 285.27651552 970.19995117 272.99047852 C971.45909979 269.85778438 973.16936332 266.9972031 974.84765625 264.07421875 C976.47523206 261.14458229 977.71917333 258.09533111 979 255 C979.78716804 253.26878079 980.5792989 251.53981388 981.375 249.8125 C983.17140293 245.88623013 984.86641195 241.93413996 986.5 237.9375 C988.40279621 233.31471924 990.53545053 228.880956 992.8125 224.43359375 C994.36127847 221.25961682 995.65224651 218.01323381 996.91015625 214.71484375 C997.79861911 212.50164773 998.73470514 210.33496936 999.7109375 208.16015625 C1012.03534023 180.57804677 1022.80300129 152.32612402 1033.63769531 124.13720703 C1035.90074869 118.25240971 1038.178712 112.37347779 1040.4609375 106.49609375 C1051.91526963 76.98433065 1063.24023185 47.42106144 1073.9375 17.625 C1074.35700928 16.4596875 1074.77651855 15.294375 1075.20874023 14.09375 C1075.58200439 13.04445313 1075.95526855 11.99515625 1076.33984375 10.9140625 C1076.66331787 10.0060791 1076.98679199 9.0980957 1077.32006836 8.16259766 C1078.09997674 6.05984065 1078.09997674 6.05984065 1078 4 C723.91 4 369.82 4 5 4 Z " fill="#EFDCC4" transform="translate(79,83)"/>
<path d="M0 0 C53.13 0 106.26 0 161 0 C161 194.04 161 388.08 161 588 C107.87 588 54.74 588 0 588 C0 393.96 0 199.92 0 0 Z " fill="#FEF1DF" transform="translate(556,650)"/>
<path d="M0 0 C83.49 0 166.98 0 253 0 C251.49214039 3.01571923 250.50872293 4.77241757 248.3828125 7.1796875 C247.60538696 8.06732788 247.60538696 8.06732788 246.81225586 8.97290039 C245.97706421 9.9144397 245.97706421 9.9144397 245.125 10.875 C243.94103136 12.22493171 242.75744601 13.57519967 241.57421875 14.92578125 C240.97528809 15.60721191 240.37635742 16.28864258 239.75927734 16.99072266 C237.12887443 19.99491583 234.53165433 23.02700757 231.9375 26.0625 C230.95058877 27.21620395 229.9636095 28.3698497 228.9765625 29.5234375 C228.48833008 30.09416992 228.00009766 30.66490234 227.49707031 31.25292969 C225.96713241 33.03835624 224.43329199 34.82036145 222.8984375 36.6015625 C218.39349578 41.8338868 213.91086652 47.07345663 209.5625 52.4375 C205.46214086 57.4869477 201.21630651 62.39773017 196.9465332 67.3034668 C189.27152391 76.12530369 181.74795895 85.05966278 174.37109375 94.1328125 C171.66861695 97.4007169 168.89994875 100.60621665 166.125 103.8125 C161.635495 109.00679831 157.34876139 114.32227471 153.14501953 119.74926758 C149.880603 123.93994623 146.48219816 127.98909406 143 132 C138.07812299 137.67549989 133.39405021 143.498536 128.78515625 149.4296875 C125.87589116 153.17297636 122.9082706 156.86797092 119.9375 160.5625 C115.0425999 166.665566 110.23160594 172.82826374 105.48876953 179.05029297 C103.75604465 181.31948629 102.01654017 183.5834194 100.27734375 185.84765625 C65.37202045 231.36990977 32.58099805 279.19379539 3.62646484 328.73486328 C2.77740611 330.17251578 1.89288792 331.5891504 1 333 C0.67 333 0.34 333 0 333 C0 223.11 0 113.22 0 0 Z " fill="#F0DDC5" transform="translate(84,87)"/>
<path d="M0 0 C0.33 0 0.66 0 1 0 C1 83.49 1 166.98 1 253 C-52.13 253 -105.26 253 -160 253 C-160 231.55 -160 210.1 -160 188 C-144.57626045 173.60450975 -144.57626045 173.60450975 -138.94580078 168.74951172 C-134.9474235 165.15448392 -131.17428265 161.3214099 -127.3815918 157.51196289 C-125.93974779 156.06475615 -124.49262884 154.62297974 -123.04492188 153.18164062 C-118.35756143 148.49764149 -113.79068932 143.75601249 -109.4777832 138.72290039 C-107.4192706 136.32294608 -105.27033622 134.0098084 -103.125 131.6875 C-99.05459944 127.22477168 -95.19823091 122.63742 -91.40625 117.9375 C-88.70220726 114.63646081 -85.9187381 111.41248327 -83.125 108.1875 C-78.67338253 103.03229197 -74.39557422 97.77215236 -70.2175293 92.39355469 C-66.68832332 87.85447226 -63.07717163 83.38834699 -59.4375 78.9375 C-54.73925261 73.18118756 -50.14938638 67.36256339 -45.64453125 61.453125 C-43.70214735 58.90705744 -41.73732155 56.379753 -39.76171875 53.859375 C-32.48128995 44.56782902 -25.38090426 35.1665573 -18.41015625 25.640625 C-14.60094264 20.4396043 -10.72273846 15.29114468 -6.81787109 10.16162109 C-4.32811992 6.86844267 -2.12346526 3.54584993 0 0 Z " fill="#F0DDC5" transform="translate(716,985)"/>
<path d="M0 0 C10.56 0 21.12 0 32 0 C30.09905975 6.33646749 28.17041608 12.57373253 25.953125 18.79296875 C25.52166924 20.01021133 25.52166924 20.01021133 25.08149719 21.25204468 C24.141338 23.89852203 23.19634153 26.54322742 22.25 29.1875 C21.92119843 30.10771942 21.59239685 31.02793884 21.25363159 31.9760437 C14.46233579 50.95489825 7.28801729 69.77366634 -0.0435791 88.54931641 C-1.0054896 91.01406626 -1.96548072 93.47955486 -2.92480469 95.9453125 C-6.54805497 105.25815697 -10.18148077 114.5669638 -13.82342529 123.87251282 C-16.05558958 129.57827462 -18.27976391 135.28709519 -20.49928284 140.99778748 C-22.08988909 145.0891499 -23.68337412 149.17938819 -25.27719116 153.26950073 C-26.03397489 155.21346019 -26.78958509 157.15787703 -27.54385376 159.10281372 C-32.46702481 171.79461746 -37.64474128 184.34859026 -43.06660461 196.83547974 C-44.34315877 199.7957765 -45.5812337 202.77059695 -46.8125 205.75 C-49.51152121 212.25344361 -52.29955011 218.66344732 -55.5 224.9375 C-57.13443858 228.16180157 -58.58236615 231.37478938 -59.875 234.75 C-61.75129928 239.60092008 -64.06397144 244.1917412 -66.42871094 248.81616211 C-68.56724265 253.03394977 -70.3545476 257.29417811 -72.0390625 261.70703125 C-73.34898273 264.83273521 -75.03214575 267.6907109 -76.72607422 270.62084961 C-77.9066262 272.82561753 -78.80422543 274.96306045 -79.671875 277.3046875 C-82.55287957 284.63987677 -86.19369704 291.60092582 -89.75 298.625 C-90.45480262 300.02455053 -91.15923249 301.42428884 -91.86328125 302.82421875 C-93.57123604 306.21832355 -95.28419798 309.60985587 -97 313 C-97.66 313 -98.32 313 -99 313 C-99.15855469 313.53367187 -99.31710937 314.06734375 -99.48046875 314.6171875 C-101.40053915 320.74868303 -104.00234357 326.32459514 -107 332 C-107.66 332 -108.32 332 -109 332 C-109.18175781 332.59167969 -109.36351562 333.18335938 -109.55078125 333.79296875 C-110.96490651 338.23839842 -112.4473148 342.06461032 -115 346 C-116.0150089 347.99242489 -117.01873444 349.99074195 -118 352 C-118.66 352 -119.32 352 -120 352 C-120.11214844 352.55171875 -120.22429687 353.1034375 -120.33984375 353.671875 C-121.11360773 356.40065211 -122.26817694 358.72772943 -123.5625 361.25 C-124.01753906 362.14203125 -124.47257813 363.0340625 -124.94140625 363.953125 C-125.46541016 364.96632813 -125.46541016 364.96632813 -126 366 C-126.66 366 -127.32 366 -128 366 C-128.1131958 366.56823486 -128.2263916 367.13646973 -128.34301758 367.72192383 C-129.07741097 370.26842132 -130.14106278 372.18226293 -131.51171875 374.44921875 C-132.02283203 375.29806641 -132.53394531 376.14691406 -133.06054688 377.02148438 C-133.59744141 377.90126953 -134.13433594 378.78105469 -134.6875 379.6875 C-135.20505859 380.54794922 -135.72261719 381.40839844 -136.25585938 382.29492188 C-139.6891857 387.96867534 -143.29405886 393.50178855 -147 399 C-148.12378784 400.69439009 -149.24613312 402.38973764 -150.3671875 404.0859375 C-167.80276654 430.40138327 -167.80276654 430.40138327 -171 432 C-171.01417969 430.68644531 -171.02835938 429.37289063 -171.04296875 428.01953125 C-171.08987988 426.28381949 -171.13812721 424.54814348 -171.1875 422.8125 C-171.19330078 421.94818359 -171.19910156 421.08386719 -171.20507812 420.19335938 C-171.35825463 415.75124072 -171.58386419 413.5720969 -174.26171875 409.890625 C-177.18441199 407.87267418 -178.18200356 407.41099367 -181.625 407.9375 C-182.38039063 408.02902344 -183.13578125 408.12054688 -183.9140625 408.21484375 C-186.70198518 409.26423038 -187.53339672 410.42569031 -189 413 C-189.72089593 415.55731563 -189.72089593 415.55731563 -190.0625 418.375 C-190.30033203 419.97021484 -190.30033203 419.97021484 -190.54296875 421.59765625 C-190.8460995 423.85429631 -191.14046627 426.11213205 -191.42578125 428.37109375 C-193.21662704 442.09052974 -195.02318753 454.60685673 -205.5625 464.375 C-209.03023138 466.68682092 -211.43271388 468.26966541 -215.65625 467.54296875 C-216.4296875 467.36378906 -217.203125 467.18460938 -218 467 C-218.48833406 465.35686339 -218.96508966 463.71028534 -219.4375 462.0625 C-219.70433594 461.14597656 -219.97117187 460.22945312 -220.24609375 459.28515625 C-224.50503451 440.72676674 -223.1635925 420.28450709 -223.13037109 401.39941406 C-223.12490508 397.6855073 -223.13040754 393.97171611 -223.13671875 390.2578125 C-223.13605966 387.89583307 -223.13478202 385.5338537 -223.1328125 383.171875 C-223.13483673 382.06173035 -223.13686096 380.95158569 -223.13894653 379.80780029 C-223.13579437 378.79453674 -223.13264221 377.78127319 -223.12939453 376.73730469 C-223.12859894 375.8435614 -223.12780334 374.94981812 -223.12698364 374.0289917 C-223 372 -223 372 -222 371 C-219.56484954 370.80547727 -217.1504629 370.66963518 -214.7109375 370.5703125 C-213.19659035 370.49658986 -211.6822681 370.42235424 -210.16796875 370.34765625 C-207.77866927 370.23467198 -205.38940335 370.125601 -202.99951172 370.02587891 C-200.69425867 369.92756876 -198.39029466 369.81256691 -196.0859375 369.6953125 C-195.02927383 369.65762253 -195.02927383 369.65762253 -193.95126343 369.61917114 C-188.22035929 369.30943171 -183.15803118 368.15803118 -179 364 C-178.42971009 360.94444667 -178.45695916 358.05789986 -179 355 C-181.31256004 351.93275543 -181.31256004 351.93275543 -184 350 C-182.94619141 349.77570313 -182.94619141 349.77570313 -181.87109375 349.546875 C-177.47850476 347.18025563 -175.63251638 343.42963328 -173.0625 339.25 C-172.49821289 338.35603516 -171.93392578 337.46207031 -171.35253906 336.54101562 C-170.15780383 334.64709998 -168.96830152 332.74987452 -167.78369141 330.84960938 C-166.08840178 328.14122988 -164.3687807 325.45059965 -162.63671875 322.765625 C-142.7869404 291.95471615 -124.21062189 260.35904052 -107 228 C-106.51499023 227.09314453 -106.02998047 226.18628906 -105.53027344 225.25195312 C-93.17334701 202.1088252 -81.89694315 178.41530816 -70.92944336 154.58789062 C-67.10564481 146.30641119 -63.15098671 138.0967695 -59.14584351 129.90188599 C-51.4927641 114.23813658 -44.19316834 98.43723599 -37.04394531 82.53808594 C-34.83913187 77.63787395 -32.61917779 72.74457248 -30.3984375 67.8515625 C-20.1588439 45.28134498 -10.03119342 22.66357906 0 0 Z " fill="#FEF1DF" transform="translate(1125,87)"/>
<path d="M0 0 C370.59 0 741.18 0 1123 0 C1123 186.45 1123 372.9 1123 565 C964.6 565 806.2 565 643 565 C643 761.35 643 957.7 643 1160 C586.9 1160 530.8 1160 473 1160 C473 963.65 473 767.3 473 565 C316.91 565 160.82 565 0 565 C0 378.55 0 192.1 0 0 Z M5 4 C5 187.81 5 371.62 5 561 C372.29 561 739.58 561 1118 561 C1118 377.19 1118 193.38 1118 4 C750.71 4 383.42 4 5 4 Z M477 567 C477 761.04 477 955.08 477 1155 C530.13 1155 583.26 1155 638 1155 C638 960.96 638 766.92 638 567 C584.87 567 531.74 567 477 567 Z " fill="#381F1A" transform="translate(79,83)"/>
<path d="M0 0 C4.18241266 3.58142978 5.31000886 6.11472671 5.73535156 11.59960938 C5.81148667 13.84696272 5.86168151 16.09529366 5.890625 18.34375 C5.92557068 19.5450354 5.96051636 20.7463208 5.996521 21.98400879 C6.10358405 25.82247759 6.17772465 29.66073346 6.25 33.5 C6.34380554 37.31024555 6.4443493 41.12026307 6.54632568 44.93029785 C6.60723558 47.29659813 6.66222246 49.66306168 6.71002197 52.02966309 C6.83713244 57.90167236 7.05216807 63.76324688 7.39355469 69.62695312 C7.49201691 71.33582703 7.49201691 71.33582703 7.59246826 73.07922363 C8.11459715 76.82131679 9.7832137 78.99661211 12 82 C12.53759051 84.90527639 12.33988043 86.98963051 12 90 C11.50286216 90.63922205 11.00572432 91.2784441 10.49352169 91.93703651 C8.66151475 94.46754106 8.63721589 95.78786434 8.66615295 98.88241577 C8.6678096 99.86369949 8.66946625 100.84498322 8.6711731 101.85600281 C8.6882431 102.92623184 8.70531311 103.99646088 8.72290039 105.09912109 C8.72888748 106.2312352 8.73487457 107.3633493 8.74104309 108.5297699 C8.75581195 110.98904541 8.77743686 113.44828703 8.80507088 115.90745163 C8.84794045 119.7992374 8.87130477 123.69069676 8.88926697 127.58267212 C8.93630572 137.25010014 9.01357536 146.91725953 9.09979248 156.58441162 C9.17234639 164.74999858 9.22897687 172.91534991 9.26269341 181.08119583 C9.28489538 184.91588009 9.33038622 188.74985655 9.37623596 192.58432007 C9.38757152 194.9369043 9.39772121 197.28949466 9.40649414 199.64208984 C9.42558838 200.70827042 9.44468262 201.77445099 9.46435547 202.87294006 C9.45726323 208.89050269 9.06817085 212.44154595 5 217 C1.44993232 218.77503384 -2.46424654 218.38393837 -6.25 217.4375 C-10.33186664 214.08453812 -11.12123565 209.04877217 -11.6875 204.0625 C-11.80272007 202.709229 -11.9108799 201.35524008 -12 200 C-13.32451172 200.79664063 -13.32451172 200.79664063 -14.67578125 201.609375 C-27.46072212 209.18013564 -40.34438981 215.25583384 -55.5859375 212.5390625 C-67.78206225 209.26880823 -77.52058398 201.80315377 -84.25 191.1875 C-97.14096691 168.39121247 -93.93715417 136.16143852 -87.3359375 111.671875 C-81.76779723 92.07190692 -74.63578648 70.98991422 -59 57 C-58.0925 56.13375 -57.185 55.2675 -56.25 54.375 C-50.34922831 49.57873173 -43.44023314 48.46294392 -36 49 C-33.24415442 49.44636935 -30.57236746 50.09787953 -27.875 50.8125 C-27.19824219 50.97814453 -26.52148438 51.14378906 -25.82421875 51.31445312 C-21.57423952 52.40366444 -17.8503479 53.90689811 -14 56 C-14.23904053 54.57312866 -14.23904053 54.57312866 -14.48291016 53.11743164 C-15.54697559 45.62378662 -15.30403831 37.9830421 -15.35009766 30.42993164 C-15.3667151 28.43306877 -15.39408043 26.43626676 -15.43212891 24.43969727 C-15.4869419 21.54151989 -15.50876855 18.64471974 -15.5234375 15.74609375 C-15.54610687 14.85844833 -15.56877625 13.97080292 -15.59213257 13.05625916 C-15.5775571 8.77140489 -15.36992305 5.88219642 -12.65478516 2.45336914 C-8.41328894 -1.4663288 -5.47206113 -1.41518822 0 0 Z " fill="#351C17" transform="translate(807,123)"/>
<path d="M0 0 C53.13 0 106.26 0 161 0 C161 22.11 161 44.22 161 67 C149.98625 66.195625 138.9725 65.39125 127.625 64.5625 C124.16596191 64.31056885 120.70692383 64.0586377 117.14306641 63.79907227 C112.87182617 63.48620605 112.87182617 63.48620605 110.86312866 63.33872986 C109.48027049 63.23745173 108.09737436 63.13669102 106.71444702 63.03636169 C93.58725288 62.08334333 93.58725288 62.08334333 87.60668945 61.45678711 C82.88967993 60.96446773 78.17856785 60.7071392 73.44140625 60.5 C72.13670631 60.4390918 72.13670631 60.4390918 70.8056488 60.37695312 C68.05804141 60.24878988 65.31029883 60.12398634 62.5625 60 C42.31831376 59.08476615 42.31831376 59.08476615 33.7434082 58.22314453 C27.44925855 57.71118825 21.12299078 57.61665164 14.8125 57.4375 C9.924375 57.293125 5.03625 57.14875 0 57 C0 38.19 0 19.38 0 0 Z " fill="#F0DDC5" transform="translate(556,650)"/>
<path d="M0 0 C-2.13463309 3.26365744 -4.233213 6.44635712 -6.8125 9.375 C-7.32441895 9.96039551 -7.83633789 10.54579102 -8.36376953 11.14892578 C-8.90372559 11.75978027 -9.44368164 12.37063477 -10 13 C-11.16441011 14.33042501 -12.3284646 15.66116134 -13.4921875 16.9921875 C-14.07838867 17.66088867 -14.66458984 18.32958984 -15.26855469 19.01855469 C-17.90664852 22.03755773 -20.51782205 25.0792954 -23.125 28.125 C-23.61806641 28.70056641 -24.11113281 29.27613281 -24.61914062 29.86914062 C-28.38080419 34.26518223 -32.120094 38.67988018 -35.8515625 43.1015625 C-39.25340646 47.12903294 -42.68622334 51.12905446 -46.125 55.125 C-49.63669549 59.20857466 -53.10384716 63.31917647 -56.5 67.5 C-60.88712902 72.90076172 -65.41223412 78.174677 -69.94921875 83.44921875 C-77.75960026 92.53030739 -85.4416167 101.70779401 -93 111 C-94.49943092 112.83379879 -95.99943458 114.66712943 -97.5 116.5 C-98.62148438 117.87091797 -98.62148438 117.87091797 -99.765625 119.26953125 C-101.21297051 121.03822795 -102.66085301 122.80648543 -104.109375 124.57421875 C-105.57407709 126.36233134 -107.03756121 128.15144211 -108.5 129.94140625 C-109.81627729 131.55178924 -111.13294981 133.16185388 -112.453125 134.76904297 C-119.19040735 142.97159916 -125.78343852 151.25896574 -132.1965332 159.71777344 C-135.70258324 164.33346644 -139.28831944 168.87196206 -142.9375 173.375 C-149.92417307 182.02913129 -156.46349973 191.00380345 -163 200 C-163.5480127 200.7518457 -164.09602539 201.50369141 -164.66064453 202.27832031 C-185.29464541 230.59657941 -205.04140702 259.53639144 -224 289 C-224.44891602 289.69738281 -224.89783203 290.39476562 -225.36035156 291.11328125 C-227.9094042 295.07391607 -230.45587856 299.03619598 -233 303 C-234 301 -234 301 -233.14453125 298.27734375 C-232.70496094 297.17519531 -232.26539063 296.07304687 -231.8125 294.9375 C-231.34457031 293.75929688 -230.87664062 292.58109375 -230.39453125 291.3671875 C-229.30650579 288.74007841 -228.18472849 286.14647572 -227 283.5625 C-225.26084035 279.76159464 -223.87433855 275.88453326 -222.5 271.9375 C-220.93004074 267.45737236 -219.24782142 263.27902944 -217.01953125 259.09765625 C-215.71764728 256.4190674 -214.71950414 253.6684705 -213.6875 250.875 C-211.39544718 244.77232068 -208.63974434 239.0686463 -205.6484375 233.2890625 C-204.29350295 230.58561488 -203.08245295 227.87051147 -201.91113281 225.08496094 C-199.80524939 220.26603156 -197.46980099 215.54961793 -195.1875 210.8125 C-194.67896484 209.75224609 -194.17042969 208.69199219 -193.64648438 207.59960938 C-190.16762953 200.3641204 -186.61065052 193.17058287 -183 186 C-182.34 186 -181.68 186 -181 186 C-180.71125 184.9275 -180.4225 183.855 -180.125 182.75 C-179.27179891 179.90599636 -178.4363497 177.56491017 -177 175 C-176.34 175 -175.68 175 -175 175 C-174.89365234 174.01966797 -174.89365234 174.01966797 -174.78515625 173.01953125 C-173.69393815 168.82295615 -171.61233486 165.41436097 -169.4375 161.6875 C-168.80038086 160.57665039 -168.80038086 160.57665039 -168.15039062 159.44335938 C-167.10648347 157.62531882 -166.05407808 155.81216252 -165 154 C-164.34 154 -163.68 154 -163 154 C-162.89945312 153.45472656 -162.79890625 152.90945312 -162.6953125 152.34765625 C-159.25592041 140.73487735 -149.69262179 129.32469166 -142.73046875 119.50390625 C-141.0155291 117.02246987 -139.40722783 114.49755945 -137.8125 111.9375 C-129.23918703 98.3726137 -119.53665595 85.65884542 -109.61474609 73.06445312 C-107.69128168 70.60530359 -105.80546828 68.11929446 -103.92211914 65.62939453 C-99.90921733 60.33334812 -95.70354768 55.33516715 -91.203125 50.44921875 C-88.93609992 47.92896214 -86.80866579 45.33132714 -84.6875 42.6875 C-80.78444241 37.86165296 -76.6685861 33.29041294 -72.42456055 28.76635742 C-70.94187632 27.18460856 -69.46821242 25.59519295 -68 24 C-67.43007324 23.38108887 -66.86014648 22.76217773 -66.27294922 22.12451172 C-63.27861958 18.79666133 -60.68316351 15.57296438 -58.3984375 11.71875 C-45.83769116 -6.97551072 -19.73963461 -1.29277204 0 0 Z " fill="#FEF1DF" transform="translate(326,87)"/>
<path d="M0 0 C3.25 1.875 3.25 1.875 6 4 C6.52722656 4.37253906 7.05445313 4.74507813 7.59765625 5.12890625 C16.8518926 12.19079504 23.79973379 23.40722098 25.73486328 34.86376953 C27.45034889 48.6855919 27.79884045 66.1222255 19.91796875 78.1875 C13.7188728 84.98727477 3.91209784 86.10590631 -4.6875 87.6875 C-5.78900391 87.89955078 -6.89050781 88.11160156 -8.02539062 88.33007812 C-11.01450603 88.90192458 -14.00464372 89.4618425 -17 90 C-17.98718018 90.1853833 -18.97436035 90.3707666 -19.99145508 90.56176758 C-23.00353184 91.00051446 -25.83413048 91.09958377 -28.875 91.0625 C-30.32519531 91.04896484 -30.32519531 91.04896484 -31.8046875 91.03515625 C-32.52914063 91.02355469 -33.25359375 91.01195312 -34 91 C-33.75908218 95.01658814 -33.51044246 99.03262514 -33.25537109 103.04833984 C-33.12863212 105.0671445 -33.0075912 107.08630435 -32.88671875 109.10546875 C-31.79568735 135.41313647 -31.79568735 135.41313647 -19.25390625 157.59375 C-14.95776564 160.70564259 -10.76695194 162.0444917 -5.44921875 161.71875 C0.74891722 159.89983928 3.78230778 154.10963239 6.83984375 148.8125 C10.6669178 141.44307951 13.7106083 133.8771443 16.54296875 126.08203125 C18.0431541 122.90871692 18.93526676 121.63066938 22 120 C26.787821 119.46801989 28.86402545 119.27490986 32.9375 121.875 C35.95058081 124.97938629 35.95058081 124.97938629 36.08984375 127.85546875 C35.03336552 144.0277124 25.11593431 162.60416806 14 174 C6.89571725 180.00959767 -0.02954632 183.59374901 -9.48828125 183.3046875 C-20.88778171 181.92185541 -30.51710696 176.03133961 -38.3125 167.75 C-49.92654091 152.73184365 -52.50159165 132.41606672 -54 114 C-54.16628906 112.04900391 -54.16628906 112.04900391 -54.3359375 110.05859375 C-56.91018902 75.02790071 -55.85450524 32.21481359 -32.0546875 4.0625 C-22.24473205 -5.78475567 -12.09228537 -5.39501963 0 0 Z " fill="#351C17" transform="translate(499,395)"/>
<path d="M0 0 C13.07497998 9.2741137 19.93235185 23.17616357 22.828125 38.6796875 C23.01117187 39.62070313 23.19421875 40.56171875 23.3828125 41.53125 C25.27684461 54.92238927 25.08822364 72.62981299 17.3046875 84.19921875 C13.61478767 87.89888022 9.46963081 89.21001052 4.453125 90.25 C3.21949219 90.50652344 1.98585938 90.76304687 0.71484375 91.02734375 C-0.56777344 91.28386719 -1.85039063 91.54039062 -3.171875 91.8046875 C-4.42355469 92.06894531 -5.67523437 92.33320313 -6.96484375 92.60546875 C-15.02930792 94.25178941 -22.95208751 95.26211398 -31.171875 95.6796875 C-29.89263874 112.71372827 -28.37989823 128.38173795 -15.171875 140.7421875 C-11.75071767 142.95168495 -9.20549927 143.43767004 -5.171875 143.6796875 C0.01734393 135.37283507 2.24237004 127.17535969 3.89794922 117.60620117 C5.0368971 111.05762897 6.19512677 105.35624723 9.828125 99.6796875 C13.55391589 97.19582691 15.41523902 97.2992663 19.828125 97.6796875 C22.91895603 98.98470504 24.38319743 99.99207217 26.203125 102.8046875 C29.32182189 117.15069318 22.16085515 139.00400194 15.01171875 151.4375 C10.84667668 157.62173062 6.01807088 162.37632161 -1.171875 164.6796875 C-11.96458304 166.18632057 -19.70287299 163.23235844 -28.453125 157.07421875 C-42.47148876 145.72473579 -47.72341667 128.65671314 -51.171875 111.6796875 C-51.36265625 110.84824219 -51.5534375 110.01679688 -51.75 109.16015625 C-52.43745167 105.11819506 -52.52949662 101.03590517 -52.68945312 96.94335938 C-52.80008733 92.86352654 -52.80008733 92.86352654 -55.171875 89.6796875 C-55.7519306 83.41508703 -55.7519306 83.41508703 -53.73242188 80.85473633 C-51.69945384 78.02123942 -51.41728656 75.69251067 -50.890625 72.25390625 C-50.69017578 70.98949707 -50.48972656 69.72508789 -50.28320312 68.42236328 C-50.18338135 67.75948303 -50.08355957 67.09660278 -49.98071289 66.41363525 C-49.56618242 63.66683837 -49.12449133 60.92462843 -48.68444824 58.18182373 C-48.36511747 56.18819484 -48.04952418 54.19400062 -47.734375 52.19970703 C-40.86219846 9.19491478 -40.86219846 9.19491478 -26.01171875 -2.12109375 C-17.16813398 -7.88538361 -8.48428934 -5.15771546 0 0 Z " fill="#351C17" transform="translate(655.171875,171.3203125)"/>
<path d="M0 0 C11.85741491 6.32612184 18.8342575 15.52630689 22.74609375 28.3203125 C23.49195128 31.22523132 24.1569762 34.12297914 24.75 37.0625 C24.93304687 37.89523437 25.11609375 38.72796875 25.3046875 39.5859375 C27.62803041 52.50698493 24.62451978 68.64876505 18.1484375 80.08984375 C11.25834887 89.80910285 -0.06090366 93.18998586 -11 96.375 C-11.91152832 96.64183594 -12.82305664 96.90867187 -13.76220703 97.18359375 C-18.36716544 98.46861978 -22.41951442 99.40639219 -27.25 99.0625 C-25.18016412 125.74748603 -25.18016412 125.74748603 -13.25 149.0625 C-12.76273438 149.63097656 -12.27546875 150.19945312 -11.7734375 150.78515625 C-10.16613783 152.40421464 -10.16613783 152.40421464 -7 152.125 C-1.33426575 150.51970863 2.08851947 147.89137647 5.08984375 142.78125 C7.06519474 138.59072905 8.67606289 134.28688807 10.25 129.93359375 C10.50966553 129.22122559 10.76933105 128.50885742 11.03686523 127.77490234 C11.54386955 126.36958916 12.03873007 124.95981955 12.51977539 123.54541016 C13.94919606 119.52078914 15.32592572 116.68323378 18.75 114.0625 C22.61445626 113.57066011 24.99712561 113.72788916 28.5625 115.3125 C30.94777062 117.2207165 31.86189676 118.15598031 32.75 121.0625 C33.23950099 127.28157002 31.71330318 132.1216001 29.625 137.875 C29.30805176 138.7613916 28.99110352 139.6477832 28.66455078 140.56103516 C26.34377618 146.86458836 23.7194956 152.60866044 19.75 158.0625 C19.028125 159.114375 18.30625 160.16625 17.5625 161.25 C10.56019619 168.25230381 1.92620848 173.30419485 -8.125 173.4375 C-16.64112916 173.25876643 -22.14042937 169.85302993 -28.3046875 164.16015625 C-46.62987395 144.39986483 -48.6883373 111.43911423 -48.625 85.6875 C-48.62545319 84.95937103 -48.62590637 84.23124207 -48.62637329 83.48104858 C-48.60090131 69.39849232 -46.92693169 55.8907643 -44.25 42.0625 C-43.99394145 40.59434829 -43.7409715 39.1256519 -43.4921875 37.65625 C-40.94545633 23.48822832 -37.60067176 7.81089249 -25.25 -0.9375 C-16.79345911 -4.94473101 -8.29704457 -3.88334047 0 0 Z " fill="#351C17" transform="translate(807.25,387.9375)"/>
<path d="M0 0 C2.3181362 1.89111111 3.66914015 3.33828031 5 6 C5.53326496 12.87770805 4.67987557 19.46204225 3.3125 26.1875 C3.10173828 27.23172119 2.89097656 28.27594238 2.67382812 29.35180664 C-0.17854322 42.72648653 -4.00735533 55.85243344 -7.70678711 69.01147461 C-11.88525717 83.88359345 -15.88244487 98.79405837 -19.75 113.75 C-20.02085419 114.79551025 -20.29170837 115.84102051 -20.57077026 116.91821289 C-23.08114047 126.61211126 -25.57584979 136.30988377 -28.03561401 146.01675415 C-28.85422774 149.24715058 -29.67599663 152.47674218 -30.49743652 155.7064209 C-31.03976418 157.84773059 -31.5754182 159.99062246 -32.11035156 162.13378906 C-37.35077115 182.93341402 -37.35077115 182.93341402 -41.75 187.1875 C-46.09474413 189.61053038 -48.07391324 189.70372668 -53 189 C-56.60206874 186.80743642 -58.35263919 184.81531499 -60 181 C-60.49038696 178.92791748 -60.49038696 178.92791748 -60.83447266 176.68261719 C-61.03626884 175.40280472 -61.03626884 175.40280472 -61.24214172 174.09713745 C-61.38137558 173.17305084 -61.52060944 172.24896423 -61.6640625 171.296875 C-61.97997507 169.28495429 -62.29614856 167.27307454 -62.61254883 165.26123047 C-62.77703522 164.20079529 -62.94152161 163.14036011 -63.11099243 162.04779053 C-68.52710985 127.29884555 -75.55735016 93.09403058 -83.72544861 58.89334106 C-85.8143085 50.13619952 -87.83952639 41.36786201 -89.76953125 32.57421875 C-89.97913986 31.62775986 -90.18874847 30.68130096 -90.40470886 29.7061615 C-94.31332375 11.71263894 -94.31332375 11.71263894 -91.6875 6.2890625 C-90 4 -90 4 -87 2 C-80.0600823 1.21646091 -80.0600823 1.21646091 -76.125 4.125 C-72.67105398 8.7979858 -71.76804177 13.78761881 -70.8125 19.4375 C-69.39442037 27.36412848 -67.65562425 35.21029619 -65.875 43.0625 C-65.72754333 43.71330536 -65.58008667 44.36411072 -65.42816162 45.03463745 C-63.56955759 53.22744663 -61.67298306 61.4110038 -59.75390625 69.58984375 C-58.98040299 72.89291061 -58.20839054 76.19632242 -57.4375 79.5 C-57.24669861 80.31706421 -57.05589722 81.13412842 -56.85931396 81.97595215 C-53.86013412 94.85888698 -51.16845477 107.77837323 -48.76342773 120.78515625 C-48.54243408 121.97625 -48.32144043 123.16734375 -48.09375 124.39453125 C-47.90490234 125.43456299 -47.71605469 126.47459473 -47.52148438 127.54614258 C-47.10951426 129.99056851 -47.10951426 129.99056851 -46 132 C-45.70456299 130.81712402 -45.40912598 129.63424805 -45.10473633 128.41552734 C-38.91416543 103.68068769 -32.47778735 79.04585628 -25.36645508 54.55810547 C-21.07790637 39.72568717 -17.23880567 24.8497192 -15.22265625 9.515625 C-14.53821782 5.10479953 -13.59040794 2.71960005 -10 0 C-6.19426871 -1.2685771 -3.89430952 -0.88817586 0 0 Z " fill="#351C17" transform="translate(424,388)"/>
<path d="M0 0 C2.8100346 1.79363911 4.50940468 3.01880935 6 6 C6.21023724 12.80897386 5.70100431 19.47475981 5.0625 26.25 C4.87842137 28.27729978 4.69482502 30.30464341 4.51171875 32.33203125 C4.37902588 33.78730225 4.37902588 33.78730225 4.24365234 35.27197266 C3.77577255 40.51053855 3.3825845 45.75456516 3 51 C3.99773438 50.84273438 4.99546875 50.68546875 6.0234375 50.5234375 C12.16539683 49.76346807 18.33758623 49.70336093 24.51855469 49.64990234 C25.92659941 49.63325647 27.33455674 49.60585375 28.7421875 49.56787109 C41.96479472 49.21457188 41.96479472 49.21457188 45.9140625 52.2421875 C48.6069353 55.80242757 48.88164057 57.52539146 48.59375 61.84375 C47.52244254 65.73428762 45.38717103 66.91558706 42 69 C38.18709537 70.31604956 34.16663749 70.32197576 30.171875 70.53515625 C29.04836639 70.59962196 29.04836639 70.59962196 27.90216064 70.66539001 C25.5182942 70.80134932 23.13417067 70.9319955 20.75 71.0625 C19.1301885 71.15394619 17.51039653 71.24573911 15.890625 71.33789062 C11.92729847 71.56261239 7.96373301 71.7825707 4 72 C3.97424353 79.30590037 3.9569665 86.61178867 3.94506836 93.91772461 C3.94009826 96.393315 3.93331986 98.86890254 3.92456055 101.34448242 C2.81601991 134.61384153 2.81601991 134.61384153 9 167 C16.02369133 166.43810469 20.36407933 164.11535135 25.0625 158.9375 C32.1719741 148.86108002 33.49543796 134.29030082 34.28027344 122.3190918 C34.62903685 117.57518705 35.4413775 114.14283103 38 110 C40.73788732 107.78009136 42.51431274 107.07082939 46 106.5625 C49.72413693 107.1056033 51.32854076 108.40486817 54 111 C60.09173706 123.18347413 52.33516116 147.09005609 48.390625 159.3046875 C46.56789604 164.14823132 44.24232831 167.99960619 41 172 C40.4225 172.86625 39.845 173.7325 39.25 174.625 C32.02912355 182.24703626 22.02939662 187.99279475 11.375 188.4375 C5.259118 188.10868914 -0.05796126 186.59678741 -4.8125 182.6875 C-25.78228459 156.92462179 -18.19510815 105.78161709 -18 74 C-18.55469971 74.06856201 -19.10939941 74.13712402 -19.6809082 74.20776367 C-24.85696876 74.81951477 -29.97600699 75.23623425 -35.1875 75.3125 C-36.19586914 75.35600586 -36.19586914 75.35600586 -37.22460938 75.40039062 C-42.30559783 75.46470693 -45.08081773 74.15417672 -49 71 C-51.09390974 68.35985293 -51 66.98824536 -51 63.5625 C-49.9936951 59.9775388 -49.04724691 58.36269977 -46.13964844 56.07250977 C-41.38710063 53.69027077 -35.84299943 53.92211211 -30.625 53.6875 C-29.41199219 53.61466797 -28.19898438 53.54183594 -26.94921875 53.46679688 C-23.96667908 53.29066264 -20.98460385 53.13577944 -18 53 C-17.98541748 52.45400146 -17.97083496 51.90800293 -17.95581055 51.34545898 C-17.63217308 40.34064166 -16.9935952 29.42844031 -15.625 18.5 C-15.51115967 17.5402124 -15.39731934 16.5804248 -15.2800293 15.59155273 C-14.60776746 10.54398302 -13.805887 6.36778469 -11 2 C-7.31502204 -0.45665197 -4.28028214 -0.70086491 0 0 Z " fill="#361D18" transform="translate(899,387)"/>
<path d="M0 0 C2.90140686 2.11560917 3.78460959 2.78796591 5 6 C5.57764512 18.67727694 2.14874205 31.95454149 -0.0078125 44.375 C-0.41593989 46.74929031 -0.82371907 49.1236405 -1.23117065 51.49804688 C-2.08572249 56.46792715 -2.94540287 61.43688662 -3.80859375 66.40527344 C-4.68262511 71.43857496 -5.54952697 76.47301192 -6.40917969 81.50878906 C-15.35560044 133.91516988 -15.35560044 133.91516988 -21.29031372 157.19897461 C-22.64055712 162.52818295 -23.91361783 167.8785815 -25.13522339 173.23876953 C-26.44732605 178.38390197 -28.28439088 181.33460182 -32 185 C-35.60284647 186.58989248 -38.97255538 186.31062279 -42.6875 185.1875 C-49.89017197 178.37416165 -52.38700562 166.82871085 -55.375 157.625 C-55.62445374 156.86265045 -55.87390747 156.1003009 -56.13092041 155.31484985 C-63.83288677 131.57380233 -69.41696047 107.19276483 -75.30883789 82.95581055 C-75.8724869 80.6371896 -76.43620622 78.31858575 -77 76 C-77.27133759 74.88396393 -77.54267517 73.76792786 -77.82223511 72.61807251 C-80.64235037 61.05507571 -83.50609657 49.5965717 -87.3125 38.3125 C-87.99848321 36.24688575 -88.68217195 34.18050773 -89.36328125 32.11328125 C-89.65501221 31.24485596 -89.94674316 30.37643066 -90.24731445 29.48168945 C-91.72065315 24.623925 -92.53462487 20.07893631 -92 15 C-90.0625 11.5625 -90.0625 11.5625 -87 9 C-83.83425333 8.19854515 -81.13021963 8.04056624 -78 9 C-71.77250761 13.26806332 -70.63884873 20.24770978 -68.625 27.1875 C-68.23106249 28.5097714 -67.83627255 29.83178911 -67.44067383 31.15356445 C-66.26847514 35.09528985 -65.13197052 39.04653545 -64 43 C-63.70367676 44.02222656 -63.40735352 45.04445313 -63.10205078 46.09765625 C-57.91488091 64.13028026 -53.7240632 82.43329233 -49.43823242 100.69604492 C-46.32065637 113.91307202 -42.85729857 126.97937768 -39 140 C-35.97527968 130.20257924 -34.34284251 120.21228853 -32.63671875 110.125 C-32.31954759 108.27392639 -32.00189496 106.42293522 -31.68379211 104.57202148 C-30.84786569 99.70045104 -30.01837875 94.82780599 -29.19030762 89.95489502 C-28.36831637 85.12422467 -27.54034072 80.29458145 -26.71289062 75.46484375 C-26.38652235 73.55778745 -26.06019777 71.65072366 -25.73391724 69.74365234 C-25.24863696 66.90726681 -24.76316126 64.07091557 -24.27700424 61.23468018 C-22.72764905 52.19510236 -21.18192404 43.15539899 -19.70374203 34.10386658 C-19.1690788 30.83369433 -18.62717757 27.5647409 -18.08463478 24.29586792 C-17.83596124 22.78390747 -17.59106989 21.27131933 -17.35025597 19.75808716 C-17.02126102 17.69123167 -16.67962558 15.62683209 -16.33520508 13.5625 C-16.14847733 12.40878906 -15.96174957 11.25507813 -15.7693634 10.06640625 C-14.69629321 5.78953381 -13.13877424 2.94897853 -9.75 0.125 C-5.96301745 -1.42422013 -3.90448895 -1.18529129 0 0 Z " fill="#351C16" transform="translate(735,391)"/>
<path d="M0 0 C15.44685955 9.60967995 21.80430526 27.03975003 26 43.9375 C26.21994629 44.80093018 26.43989258 45.66436035 26.66650391 46.55395508 C27.95173088 52.13958378 28.47874013 57.38739478 27 63 C24.57245277 66.32920763 22.92163066 67.66664423 19.0625 69.0625 C14.80670967 68.97564714 13.13653826 67.85773486 10 65 C7.71890492 59.66601076 6.31374278 54.4089655 5.125 48.75 C2.59920605 37.44211955 -0.98896409 25.8483216 -10 18 C-14.82733841 16.3908872 -18.745644 16.096114 -23.46484375 17.98828125 C-37.78965042 25.82388428 -43.57968814 40.66253369 -48.11157227 55.52612305 C-53.86667493 75.57324739 -55.24457321 96.23876754 -54.95703125 117 C-54.94495584 118.37425864 -54.93396788 119.74852722 -54.92399597 121.12280273 C-54.88189261 126.87521005 -54.83316317 132.62737519 -54.75317383 138.37939453 C-54.70449754 141.93042312 -54.67562731 145.48115183 -54.65942955 149.0324707 C-54.64486335 151.01724809 -54.60891238 153.00183197 -54.57246399 154.98632812 C-54.55246341 161.8558006 -54.70182961 166.49613088 -59 172 C-61.9169587 173.84228971 -63.56099923 174.00914585 -67 173.9375 C-70.77036448 172.7592611 -72.45989992 170.97554581 -75 168 C-76.34763895 165.3047221 -76.36142885 162.96510022 -76.61328125 159.953125 C-76.6676535 159.30399139 -76.72202576 158.65485779 -76.77804565 157.98605347 C-76.96262729 155.74116886 -77.13859334 153.49573618 -77.3125 151.25 C-77.37458649 150.45478943 -77.43667297 149.65957886 -77.50064087 148.840271 C-80.4458074 110.68333294 -83.23858854 72.27901343 -83.5625 34 C-83.58429825 32.78428314 -83.58429825 32.78428314 -83.60653687 31.54400635 C-83.64130717 29.32003386 -83.6418303 27.09914104 -83.62890625 24.875 C-83.62963135 23.67617187 -83.63035645 22.47734375 -83.63110352 21.2421875 C-82.77743444 16.85660712 -81.12584361 15.15737612 -78 12 C-75.22080546 11.02096556 -72.84998139 11.32500441 -70 12 C-65.90216617 14.40525029 -64.47408533 16.57774401 -63 21 C-62.7240522 22.92903132 -62.51550097 24.8689032 -62.375 26.8125 C-62.30023438 27.78832031 -62.22546875 28.76414063 -62.1484375 29.76953125 C-62.07496094 30.87361328 -62.07496094 30.87361328 -62 32 C-61.64808594 31.31035156 -61.29617188 30.62070313 -60.93359375 29.91015625 C-57.50950244 23.39276051 -53.79914903 17.58485042 -49 12 C-48.21882813 11.07574219 -48.21882813 11.07574219 -47.421875 10.1328125 C-35.39036979 -3.00839465 -16.15066531 -9.22504104 0 0 Z " fill="#351C17" transform="translate(548,157)"/>
<path d="M0 0 C4.21837824 1.68088635 8.09170126 3.69454288 12 6 C12.7528125 6.39703125 13.505625 6.7940625 14.28125 7.203125 C16.51828091 8.6516942 17.5823113 9.72820341 19 12 C19.47363281 15.08862305 19.47363281 15.08862305 19.640625 18.76171875 C19.67377304 19.42334015 19.70692108 20.08496155 19.74107361 20.76663208 C19.84109721 22.84407373 19.92197235 24.92162724 20 27 C20.05454346 28.24934326 20.10908691 29.49868652 20.1652832 30.78588867 C20.46817606 38.27698195 20.66467173 45.77113781 20.83596802 53.26625061 C20.92190793 57.01523195 21.02210338 60.7626445 21.15576172 64.51025391 C21.28685889 68.1971143 21.38107409 71.88332628 21.45089722 75.57183838 C21.48303621 76.95659154 21.52742132 78.34112786 21.58547974 79.72503662 C22.09830893 92.32935913 18.40214733 100.50127757 11.5625 110.875 C5.34823403 117.5489514 -6.1866397 122.30239676 -15.125 123.375 C-21.87090928 122.72217007 -27.76216854 119.75988531 -32.375 114.75 C-43.46821827 100.35709924 -41.07338894 79.59844194 -39.05444336 62.57397461 C-36.2751046 42.45481317 -29.14039681 13.00916384 -12.08203125 -0.01171875 C-7.87297168 -2.00964008 -4.33493211 -1.34725948 0 0 Z " fill="#FDF0DE" transform="translate(775,193)"/>
<path d="M0 0 C4.09162285 2.40160472 5.53355575 4.57917933 7 9 C7.30856514 11.55725384 7.30856514 11.55725384 7.3923645 14.32365417 C7.42877045 15.37837921 7.46517639 16.43310425 7.50268555 17.51979065 C7.53289795 18.66721237 7.56311035 19.81463409 7.59423828 20.99682617 C7.63354462 22.2140033 7.67285095 23.43118042 7.71334839 24.6852417 C7.81919258 28.02323021 7.91678956 31.3612638 8.01050425 34.69960189 C8.11109357 38.22035941 8.2215839 41.74080761 8.33078003 45.26130676 C8.51338211 51.19527066 8.68893269 57.12940971 8.85986328 63.0637207 C9.05550372 69.85444239 9.26003083 76.64484601 9.47006047 83.43513697 C9.69564476 90.73009662 9.9150421 98.02523302 10.13244772 105.32044053 C10.19431964 107.38484115 10.25721853 109.44920825 10.32034683 111.51357079 C10.85281229 129.01402474 11.11758681 146.49132462 11 164 C12.32739383 163.68142369 13.65473569 163.36263084 14.98205566 163.04374695 C15.72122475 162.86624248 16.46039383 162.688738 17.22196198 162.50585461 C26.11879771 160.35305696 34.37223499 157.43792911 42.67895508 153.59179688 C46.94084303 151.66160574 50.21531838 150.3685904 55 151 C57.5647293 152.50012468 59.89183465 153.89183465 62 156 C62.64846654 160.48368297 62.71615067 163.91342657 60.1875 167.75 C45.79908785 177.90652622 19.75534995 187.69289474 2 185 C-2.55891884 182.72054058 -6.02286455 179.88200061 -7.6953125 174.94921875 C-10.76222348 158.80611458 -10.39768904 141.96150992 -10.90911031 125.59586191 C-10.99500798 122.85784328 -11.08261502 120.11988037 -11.17022032 117.38191593 C-11.37726296 110.91109513 -11.5817355 104.44019684 -11.78442383 97.96923828 C-11.99197417 91.34414031 -12.20334948 84.71917253 -12.41671187 78.09425938 C-12.60132251 72.35876964 -12.78378636 66.62321437 -12.96453851 60.88760173 C-13.07183752 57.48290366 -13.17982421 54.07823166 -13.28978157 50.67361832 C-13.52146467 43.46299004 -13.73931946 36.25236872 -13.92207718 29.04032135 C-13.97180088 27.10024745 -14.02516393 25.16026106 -14.08329391 23.22042084 C-14.15161032 20.84078512 -14.19990516 18.46179593 -14.23999023 16.08154297 C-14.26721664 14.8322702 -14.29444305 13.58299744 -14.32249451 12.29586792 C-13.89081076 7.88409473 -12.15030815 4.81627603 -9.8125 1.125 C-6.72216342 -0.79313995 -3.46321253 -0.60876783 0 0 Z " fill="#361D18" transform="translate(568,388)"/>
<path d="M0 0 C2.79582793 2.79582793 2.72024036 5.25036357 3.375 9.125 C4.44336651 15.03972474 5.99404521 19.78967836 9 25 C9.495 26.485 9.495 26.485 10 28 C12.67461036 29.64230461 15.51745553 30.56029421 18.5 31.5 C21.49404699 32.44332987 24.22140844 33.53492445 27 35 C19.9208622 43.23836068 12.7826985 51.39780321 5.41015625 59.375 C3.42589133 61.53614429 1.4810994 63.71839708 -0.4375 65.9375 C-4.96699804 71.15720726 -9.69405562 76.19721315 -14.39306641 81.26367188 C-16.00972717 83.01051043 -17.62091849 84.76223428 -19.23046875 86.515625 C-20.02094604 87.37571167 -20.02094604 87.37571167 -20.82739258 88.25317383 C-21.82425121 89.33809695 -22.82025028 90.42381082 -23.81518555 91.51049805 C-24.7113138 92.4843733 -25.61427368 93.45203085 -26.52565002 94.41165161 C-27.48145865 95.44136445 -28.40973829 96.49761271 -29.30279541 97.5821991 C-32.11240317 100.7956246 -33.45884111 101.90305424 -37.80224609 102.68115234 C-39.20966749 102.68021472 -40.61734238 102.64703061 -42.0234375 102.5859375 C-42.76961334 102.57744781 -43.51578918 102.56895813 -44.28457642 102.56021118 C-46.64956942 102.52683158 -49.01105205 102.45159827 -51.375 102.375 C-52.98562755 102.34487968 -54.59630899 102.31750748 -56.20703125 102.29296875 C-60.1393572 102.22709329 -64.06908519 102.12369346 -68 102 C-64.86082601 95.37891342 -61.15569495 89.27994489 -57.1875 83.125 C-56.50316895 82.05999268 -55.81883789 80.99498535 -55.11376953 79.89770508 C-37.58225737 52.72489041 -19.27632555 25.96403034 0 0 Z " fill="#FEF1DF" transform="translate(883,541)"/>
<path d="M0 0 C3.3 0 6.6 0 10 0 C0.94090506 21.12271383 -8.52988541 42.05933512 -18 63 C-18.34776489 63.76920776 -18.69552979 64.53841553 -19.05383301 65.33093262 C-30.22990532 90.04701432 -41.48609095 114.7238664 -53.2746582 139.15527344 C-57.18370675 147.26678733 -61.02356472 155.40934003 -64.8477478 163.56106567 C-81.14582485 198.29004498 -97.71849385 232.80773265 -117 266 C-117.67367554 267.16428798 -118.34717027 268.32868058 -119.02050781 269.49316406 C-127.28563324 283.77622477 -135.68298233 297.94841983 -144.61132812 311.83007812 C-145.99899042 313.99842244 -147.36944696 316.17665841 -148.734375 318.359375 C-154.68199811 327.86500671 -160.75086586 337.29006088 -166.87838745 346.68048096 C-167.75022432 348.01710644 -168.62093448 349.35446752 -169.49050903 350.69256592 C-170.71276257 352.57214156 -171.93965146 354.44860195 -173.16796875 356.32421875 C-173.88235107 357.41822998 -174.5967334 358.51224121 -175.33276367 359.6394043 C-175.88295166 360.41840088 -176.43313965 361.19739746 -177 362 C-177.33 362 -177.66 362 -178 362 C-178.0928125 360.4221875 -178.0928125 360.4221875 -178.1875 358.8125 C-179.13408616 354.3708265 -180.59156258 352.88406243 -184 350 C-182.94619141 349.77570313 -182.94619141 349.77570313 -181.87109375 349.546875 C-177.47850476 347.18025563 -175.63251638 343.42963328 -173.0625 339.25 C-172.49821289 338.35603516 -171.93392578 337.46207031 -171.35253906 336.54101562 C-170.15780383 334.64709998 -168.96830152 332.74987452 -167.78369141 330.84960938 C-166.08840178 328.14122988 -164.3687807 325.45059965 -162.63671875 322.765625 C-142.7869404 291.95471615 -124.21062189 260.35904052 -107 228 C-106.51499023 227.09314453 -106.02998047 226.18628906 -105.53027344 225.25195312 C-93.17334701 202.1088252 -81.89694315 178.41530816 -70.92944336 154.58789062 C-67.10564481 146.30641119 -63.15098671 138.0967695 -59.14584351 129.90188599 C-51.4927641 114.23813658 -44.19316834 98.43723599 -37.04394531 82.53808594 C-34.83913187 77.63787395 -32.61917779 72.74457248 -30.3984375 67.8515625 C-20.15887125 45.28140526 -10.02788192 22.66498474 0 0 Z " fill="#EFDCC5" transform="translate(1125,87)"/>
<path d="M0 0 C2.52851336 16.510706 2.52851336 16.510706 -1.40917969 23.50195312 C-5.09389685 28.25913268 -9.46653928 32.27961045 -13.98681641 36.23144531 C-16.64053728 38.56270338 -19.09006615 41.04023415 -21.5625 43.5625 C-22.26503906 44.24441406 -22.96757813 44.92632813 -23.69140625 45.62890625 C-25.55607319 47.54405487 -27.28378927 49.4834228 -29.01757812 51.51318359 C-33.46945244 56.61451849 -38.23604079 61.37961503 -43.02734375 66.16015625 C-43.98481025 67.1182986 -44.94212845 68.07658916 -45.89930725 69.03501892 C-47.89373747 71.03091287 -49.88993741 73.02501452 -51.88745117 75.01782227 C-54.42674399 77.55141863 -56.96151903 80.08947983 -59.49497128 82.62891483 C-61.46732184 84.60490703 -63.44208263 86.57847679 -65.41754341 88.55135918 C-66.80126628 89.93410599 -68.18300314 91.3188393 -69.56468201 92.70362854 C-74.00107206 97.12371456 -78.48529941 101.41852937 -83.24822998 105.48634338 C-86.36484578 108.17932595 -89.32349261 111.0422416 -92.3125 113.875 C-97.47584688 118.7302881 -102.72977415 123.37388525 -108.26953125 127.80078125 C-111.33432517 130.26927764 -114.32221296 132.81738828 -117.3125 135.375 C-127.25695799 143.84006822 -137.63967213 151.75486808 -148.00390625 159.6953125 C-151.48838816 162.3756832 -154.94438872 165.09099399 -158.390625 167.8203125 C-160 169 -160 169 -161 169 C-163.20777165 153.36570594 -163.20777165 153.36570594 -159.75341797 148.09960938 C-156.32050294 144.56932896 -152.22858136 141.95626134 -148.078125 139.34423828 C-144.84233111 137.25116014 -141.8760795 134.84942357 -138.875 132.4375 C-137.72022925 131.53232602 -136.56528209 130.62737704 -135.41015625 129.72265625 C-131.42223137 126.56350936 -127.54201498 123.28244805 -123.67651367 119.9753418 C-120.39499825 117.16867098 -117.06478722 114.44174832 -113.6875 111.75 C-106.91142082 106.23642175 -100.64394996 100.18646031 -94.31591797 94.17236328 C-92.17451619 92.16369861 -90.00611447 90.18755316 -87.8326416 88.21376038 C-78.71793401 79.90414269 -70.02347677 71.174581 -61.31396484 62.44433594 C-58.61279114 59.73776675 -55.90626571 57.03663104 -53.19921875 54.3359375 C-51.45801235 52.5940708 -49.71711591 50.8518942 -47.9765625 49.109375 C-47.17852203 48.31335876 -46.38048157 47.51734253 -45.55825806 46.69720459 C-41.40269427 42.52436758 -37.40006951 38.28110876 -33.5788269 33.79901123 C-30.71731562 30.53843155 -27.59598221 27.5357275 -24.5 24.5 C-20.03334014 20.08121664 -15.68494626 15.65160313 -11.625 10.8515625 C-2.10126582 0 -2.10126582 0 0 0 Z " fill="#F0DDC5" transform="translate(717,954)"/>
<path d="M0 0 C7.96084862 1.79119094 13.39750822 7.68671607 17.9921875 14.12890625 C20.75602085 19.26020926 21.29883974 24.07269729 21.1875 29.8125 C21.17887939 30.51592529 21.17025879 31.21935059 21.16137695 31.9440918 C20.92304005 45.82361712 20.92304005 45.82361712 18.69775391 48.65966797 C16.8023997 50.15600023 15.49711529 50.62433587 13.1484375 51.1328125 C12.38700439 51.2987793 11.62557129 51.46474609 10.84106445 51.63574219 C10.02726318 51.79719727 9.21346191 51.95865234 8.375 52.125 C7.1223938 52.38265137 7.1223938 52.38265137 5.84448242 52.64550781 C-2.40524995 54.24709566 -10.61307614 54.78522602 -19 55 C-17.74517094 35.87467437 -14.65644335 13.82441818 0 0 Z " fill="#FCEFDD" transform="translate(484,411)"/>
<path d="M0 0 C5.47633194 0.43810655 8.79424967 1.42063801 13 5 C19.50828885 13.03051393 21.3796304 20.63073641 21.3125 30.8125 C21.30404053 32.14099976 21.30404053 32.14099976 21.29541016 33.49633789 C21.14960788 41.33717985 20.75449029 47.84241357 15.4375 53.9375 C11.3967092 56.77401571 6.72466051 57.80533584 2 59 C0.02074014 59.56217198 -1.95842756 60.12466855 -3.9375 60.6875 C-6.82858138 61.49866672 -8.98372938 62 -12 62 C-11.49564678 41.80065374 -9.62261378 18.12758687 0 0 Z " fill="#FCEFDD" transform="translate(791,405)"/>
<path d="M0 0 C4.2799662 0.4755518 6.19418339 2.91360173 9 6 C10.0209375 7.11375 10.0209375 7.11375 11.0625 8.25 C19.77926369 20.62218072 20.09418624 36.45891651 18 51 C17.24707031 53.13110352 17.24707031 53.13110352 16 55 C14.00390625 55.82128906 14.00390625 55.82128906 11.5625 56.265625 C10.21865234 56.51699219 10.21865234 56.51699219 8.84765625 56.7734375 C7.90792969 56.93070313 6.96820312 57.08796875 6 57.25 C5.09121094 57.42273438 4.18242188 57.59546875 3.24609375 57.7734375 C-2.88668064 58.87262608 -8.77665867 59.21261958 -15 59 C-14.48234986 50.26587896 -13.47592026 41.77686806 -11.8125 33.1875 C-11.5954541 32.06327637 -11.3784082 30.93905273 -11.15478516 29.78076172 C-6.76224146 8.1226924 -6.76224146 8.1226924 0 0 Z " fill="#FCEFDD" transform="translate(640,187)"/>
<path d="M0 0 C10.00995941 0.55681911 19.90186673 1.44107092 29.83203125 2.85546875 C30.54800791 2.95667715 31.26398457 3.05788555 32.00165749 3.16216087 C56.12179004 6.62521615 79.98137744 11.72666902 103.85864258 16.54168701 C110.32166634 17.84280171 116.78691262 19.13277888 123.25195312 20.42382812 C135.83677506 22.93861668 148.41917692 25.46528741 161 28 C161 30.97 161 33.94 161 37 C150.16851275 35.51629186 139.48851065 33.36971736 128.77654839 31.20688248 C125.54662313 30.55528907 122.31581781 29.90823352 119.08473206 29.26242065 C109.90516375 27.4272063 100.72659951 25.5870642 91.55004883 23.73681641 C61.12343018 17.60566514 30.93304325 11.89521094 0 9 C0 6.03 0 3.06 0 0 Z " fill="#F0DDC5" transform="translate(556,723)"/>
<path d="M0 0 C-2.49598857 3.77350238 -4.99754287 7.54328487 -7.5 11.3125 C-8.19609375 12.36501953 -8.8921875 13.41753906 -9.609375 14.50195312 C-13.62825394 20.54887746 -17.75855161 26.48189796 -22.05810547 32.33227539 C-23.99167603 34.98856475 -25.87283219 37.67442426 -27.73828125 40.37890625 C-28.33060547 41.23677734 -28.92292969 42.09464844 -29.53320312 42.97851562 C-30.74210685 44.73414639 -31.94772268 46.49204477 -33.15039062 48.25195312 C-34.02920898 49.52135742 -34.02920898 49.52135742 -34.92578125 50.81640625 C-35.44567627 51.57381104 -35.96557129 52.33121582 -36.5012207 53.11157227 C-38 55 -38 55 -41 57 C-41.02526605 49.32788798 -41.04283123 41.6557866 -41.05493164 33.98364258 C-41.05997377 31.37133381 -41.06680725 28.75902789 -41.07543945 26.14672852 C-41.08751036 22.40119732 -41.09322935 18.65570328 -41.09765625 14.91015625 C-41.10281754 13.73413345 -41.10797882 12.55811066 -41.11329651 11.34645081 C-41.11340981 9.72488319 -41.11340981 9.72488319 -41.11352539 8.07055664 C-41.115746 7.11347305 -41.11796661 6.15638947 -41.12025452 5.17030334 C-41 3 -41 3 -40 2 C-37.52990961 1.78092662 -35.08090363 1.62087101 -32.60546875 1.5 C-31.48982292 1.4390918 -31.48982292 1.4390918 -30.35163879 1.37695312 C-27.96380617 1.24685754 -25.57571671 1.12282943 -23.1875 1 C-20.81001402 0.87690638 -18.43265066 0.75239298 -16.05549622 0.62304688 C-14.57432028 0.54249357 -13.09294365 0.46553072 -11.6113739 0.39257812 C-8.88164322 0.2444842 -6.29497815 0.07414851 -3.63793945 -0.59375 C-2 -1 -2 -1 0 0 Z " fill="#FDF0DE" transform="translate(943,456)"/>
<path d="M0 0 C-2.49598857 3.77350238 -4.99754287 7.54328487 -7.5 11.3125 C-8.19609375 12.36501953 -8.8921875 13.41753906 -9.609375 14.50195312 C-13.62825394 20.54887746 -17.75855161 26.48189796 -22.05810547 32.33227539 C-23.99167603 34.98856475 -25.87283219 37.67442426 -27.73828125 40.37890625 C-28.33060547 41.23677734 -28.92292969 42.09464844 -29.53320312 42.97851562 C-30.74210685 44.73414639 -31.94772268 46.49204477 -33.15039062 48.25195312 C-34.02920898 49.52135742 -34.02920898 49.52135742 -34.92578125 50.81640625 C-35.44567627 51.57381104 -35.96557129 52.33121582 -36.5012207 53.11157227 C-38 55 -38 55 -41 57 C-42.49953369 49.81175911 -42.14758311 44.38012572 -38.26953125 38.1796875 C-35.28687236 33.83181045 -32.09938339 29.64125743 -28.87744141 25.46875 C-26.07222423 21.78001709 -23.4727594 17.96123136 -20.875 14.125 C-19.6248323 12.30367679 -18.3740669 10.48292113 -17.11572266 8.66723633 C-16.02149937 7.03212674 -15.01712847 5.33801841 -14.015625 3.64453125 C-11.68324671 0.58441477 -10.61421423 0.10384893 -6.875 -0.4375 C-5.57175781 -0.65212891 -5.57175781 -0.65212891 -4.2421875 -0.87109375 C-2 -1 -2 -1 0 0 Z " fill="#EFDCC4" transform="translate(943,456)"/>
<path d="M0 0 C0.33 0 0.66 0 1 0 C1 12.21 1 24.42 1 37 C-3.62 37 -8.24 37 -13 37 C-10.93648243 29.88086438 -8.59918651 22.9397422 -6 16 C-5.74750488 15.32437012 -5.49500977 14.64874023 -5.23486328 13.95263672 C-3.49574879 9.29955301 -1.74994502 4.64902061 0 0 Z " fill="#FDF0DE" transform="translate(1196,606)"/>
<path d="M0 0 C1.32 0.33 2.64 0.66 4 1 C2.02 3.97 0.04 6.94 -2 10 C-3 8 -3 8 -2.44140625 6.0546875 C-2.15136719 5.33539063 -1.86132812 4.61609375 -1.5625 3.875 C-1.27503906 3.15054687 -0.98757812 2.42609375 -0.69140625 1.6796875 C-0.46324219 1.12539063 -0.23507813 0.57109375 0 0 Z " fill="#F9EAD6" transform="translate(95,380)"/>
</svg>
