<?xml version="1.0" encoding="UTF-8"?>
<svg version="1.1" xmlns="http://www.w3.org/2000/svg" width="1280" height="1280">
<path d="M0 0 C370.59 0 741.18 0 1123 0 C1123 186.45 1123 372.9 1123 565 C964.6 565 806.2 565 643 565 C643 761.35 643 957.7 643 1160 C586.9 1160 530.8 1160 473 1160 C473 963.65 473 767.3 473 565 C316.91 565 160.82 565 0 565 C0 378.55 0 192.1 0 0 Z " fill="#FEF1DF" transform="translate(79,83)"/>
<path d="M0 0 C370.59 0 741.18 0 1123 0 C1123 186.45 1123 372.9 1123 565 C964.6 565 806.2 565 643 565 C643 761.35 643 957.7 643 1160 C586.9 1160 530.8 1160 473 1160 C473 963.65 473 767.3 473 565 C316.91 565 160.82 565 0 565 C0 378.55 0 192.1 0 0 Z M5 4 C5 187.48 5 370.96 5 560 C129.84429477 560.68888929 129.84429477 560.68888929 254.68894279 561.15595913 C272.77020672 561.20494775 290.85146698 561.25505768 308.93271799 561.30862385 C311.11976301 561.31510004 313.30680815 561.32154095 315.49385338 561.32794613 C350.35486676 561.43033592 385.21494543 561.6104137 420.07539389 561.8311333 C455.90620153 562.05758448 491.73649239 562.20526592 527.56800353 562.25395976 C532.62987515 562.26087539 537.691745 562.26869067 542.75361443 562.27705383 C543.74985458 562.27867199 544.74609473 562.28029014 545.77252398 562.28195732 C561.80435428 562.31031022 577.8345858 562.42159564 593.8657643 562.56396881 C609.98613752 562.70536163 626.10492734 562.75920934 642.22589881 562.72403306 C651.80314195 562.7057872 661.37458696 562.75431707 670.95078164 562.89914103 C677.35349979 562.98934754 683.75243613 562.99180728 690.15541864 562.92396353 C693.80342289 562.8877938 697.4405074 562.88877036 701.08732349 562.99719638 C715.81347534 563.77696559 715.81347534 563.77696559 728.57067041 557.67990315 C733.21005354 551.97406373 736.43568156 545.7215116 739.49739432 539.06818897 C741.89435179 534.17381212 744.9444382 529.75900222 748.02734375 525.27734375 C749.17442842 523.56043289 750.31984382 521.84240448 751.46289062 520.12280273 C752.62081719 518.3941832 753.77902507 516.66575208 754.9375 514.9375 C756.16473739 513.10165982 757.39195063 511.2658035 758.61914062 509.42993164 C767.26443698 496.51361367 776.0287489 483.69247984 785 471 C786.05653279 469.49517291 787.11253516 467.98997324 788.16796875 466.484375 C793.7120546 458.58755428 799.33966798 450.75439367 805.00244141 442.94238281 C810.27849702 435.64721225 815.43538708 428.2707762 820.5859375 420.88671875 C823.27321167 417.03485794 825.97725162 413.19533021 828.69165039 409.36254883 C831.13425314 405.91292559 833.56834428 402.45734578 836 399 C836.51288574 398.27167969 837.02577148 397.54335938 837.55419922 396.79296875 C839.08355507 394.61593618 840.60533791 392.43380698 842.125 390.25 C842.81758911 389.26628418 842.81758911 389.26628418 843.52416992 388.26269531 C845.82271337 384.94281753 847.68923328 381.85866158 849 378 C848.50628906 377.50371094 848.01257813 377.00742187 847.50390625 376.49609375 C844.35436786 373.15644238 842.23203003 370.76054286 840.875 366.3125 C841.02739308 362.27408345 842.14233212 359.85766788 845 357 C848.23033218 356.40179034 849.87154103 356.21038895 853 357 C855.96986577 359.05738527 858.60561571 361.34329388 861.3125 363.734375 C869.4460381 370.59113677 877.67728264 371.62669418 888 371 C897.22743461 369.54021717 906.30779666 364.58698698 912.4375 357.5 C918.04472208 349.02471604 919.10005907 338.13620608 920.41015625 328.265625 C920.53650452 327.3247403 920.66285278 326.38385559 920.79302979 325.41445923 C922.3020359 313.98202972 923.5901753 302.52425709 924.84472656 291.06152344 C925.25646196 287.31621951 925.67896775 283.57221737 926.1015625 279.828125 C926.36523792 277.43496786 926.62828325 275.0417412 926.890625 272.6484375 C927.0811142 270.97834122 927.0811142 270.97834122 927.27545166 269.27450562 C927.38596863 268.2446756 927.4964856 267.21484558 927.61035156 266.15380859 C927.75999359 264.80106339 927.75999359 264.80106339 927.91265869 263.42098999 C927.99833416 261.04617499 927.70517301 259.25649619 927 257 C926.50113281 257.88558594 926.00226562 258.77117187 925.48828125 259.68359375 C914.56802388 278.68234789 898.57684972 304.01925217 876.25 310.53125 C868.28758644 312.19008616 860.8908445 310.92357744 853.90234375 306.74609375 C843.47868301 299.37521997 837.18359106 289.66318279 835 277 C832.82652298 244.50322534 841.95904302 212.85854407 863.5078125 188.12109375 C871.97881074 179.21194043 882.50209199 172.2497908 895 171 C895.65871094 170.92394531 896.31742188 170.84789062 896.99609375 170.76953125 C909.2776511 170.00322835 921.52020298 174.98868152 931.58203125 181.64453125 C934.11952991 183.32599301 934.11952991 183.32599301 938 183 C938.598125 182.505 939.19625 182.01 939.8125 181.5 C943.0655723 179.26932185 945.148808 179.39191705 949 180 C952.31812109 182.77728197 953.72015151 184.54188199 954.54077148 188.81762695 C954.82696632 192.19822304 954.94337122 195.54543592 955 198.9375 C955.07541016 200.6690332 955.07541016 200.6690332 955.15234375 202.43554688 C955.31389168 208.06710762 955.15163955 211.78825421 952.76412964 216.94877625 C951.14817978 221.28661968 950.85440086 225.95532177 950.31640625 230.52734375 C950.10564453 232.21589226 950.10564453 232.21589226 949.890625 233.93855286 C949.43675435 237.60359915 948.99889561 241.27033507 948.5625 244.9375 C948.25479491 247.46716122 947.94676866 249.99678339 947.63842773 252.52636719 C945.81710682 267.58678335 944.09912242 282.65781258 942.5625 297.75 C942.47896271 298.55686249 942.39542542 299.36372498 942.30935669 300.19503784 C941.39169368 309.14539645 940.75481269 317.99018348 941 327 C941.99 326.67 942.98 326.34 944 326 C945.02281518 323.90280128 945.02281518 323.90280128 945.6875 321.4375 C946.06455078 320.19806641 946.06455078 320.19806641 946.44921875 318.93359375 C946.63097656 318.29550781 946.81273437 317.65742188 947 317 C947.66 317 948.32 317 949 317 C951.49552443 312.05880027 953.9855298 307.11487096 956.47070312 302.16845703 C957.31493518 300.48998193 958.16060858 298.81223093 959.0078125 297.13525391 C965.07855401 285.27651552 965.07855401 285.27651552 970.19995117 272.99047852 C971.45909979 269.85778438 973.16936332 266.9972031 974.84765625 264.07421875 C976.47523206 261.14458229 977.71917333 258.09533111 979 255 C979.78716804 253.26878079 980.5792989 251.53981388 981.375 249.8125 C983.17140293 245.88623013 984.86641195 241.93413996 986.5 237.9375 C988.40279621 233.31471924 990.53545053 228.880956 992.8125 224.43359375 C994.36127847 221.25961682 995.65224651 218.01323381 996.91015625 214.71484375 C997.79861911 212.50164773 998.73470514 210.33496936 999.7109375 208.16015625 C1012.03534023 180.57804677 1022.80300129 152.32612402 1033.63769531 124.13720703 C1035.90074869 118.25240971 1038.178712 112.37347779 1040.4609375 106.49609375 C1051.91526963 76.98433065 1063.24023185 47.42106144 1073.9375 17.625 C1074.35700928 16.4596875 1074.77651855 15.294375 1075.20874023 14.09375 C1075.58200439 13.04445313 1075.95526855 11.99515625 1076.33984375 10.9140625 C1076.66331787 10.0060791 1076.98679199 9.0980957 1077.32006836 8.16259766 C1078.09997674 6.05984065 1078.09997674 6.05984065 1078 4 C723.91 4 369.82 4 5 4 Z " fill="#EFDCC4" transform="translate(79,83)"/>
<path d="M0 0 C53.13 0 106.26 0 161 0 C161 194.04 161 388.08 161 588 C107.87 588 54.74 588 0 588 C0 393.96 0 199.92 0 0 Z " fill="#FEF1DF" transform="translate(556,650)"/>
<path d="M0 0 C83.49 0 166.98 0 253 0 C251.49214039 3.01571923 250.50872293 4.77241757 248.3828125 7.1796875 C247.60538696 8.06732788 247.60538696 8.06732788 246.81225586 8.97290039 C245.97706421 9.9144397 245.97706421 9.9144397 245.125 10.875 C243.94103136 12.22493171 242.75744601 13.57519967 241.57421875 14.92578125 C240.97528809 15.60721191 240.37635742 16.28864258 239.75927734 16.99072266 C237.12887443 19.99491583 234.53165433 23.02700757 231.9375 26.0625 C230.95058877 27.21620395 229.9636095 28.3698497 228.9765625 29.5234375 C228.48833008 30.09416992 228.00009766 30.66490234 227.49707031 31.25292969 C225.96713241 33.03835624 224.43329199 34.82036145 222.8984375 36.6015625 C218.39349578 41.8338868 213.91086652 47.07345663 209.5625 52.4375 C205.46214086 57.4869477 201.21630651 62.39773017 196.9465332 67.3034668 C189.27152391 76.12530369 181.74795895 85.05966278 174.37109375 94.1328125 C171.66861695 97.4007169 168.89994875 100.60621665 166.125 103.8125 C161.635495 109.00679831 157.34876139 114.32227471 153.14501953 119.74926758 C149.880603 123.93994623 146.48219816 127.98909406 143 132 C138.07812299 137.67549989 133.39405021 143.498536 128.78515625 149.4296875 C125.87589116 153.17297636 122.9082706 156.86797092 119.9375 160.5625 C115.0425999 166.665566 110.23160594 172.82826374 105.48876953 179.05029297 C103.75604465 181.31948629 102.01654017 183.5834194 100.27734375 185.84765625 C65.37202045 231.36990977 32.58099805 279.19379539 3.62646484 328.73486328 C2.77740611 330.17251578 1.89288792 331.5891504 1 333 C0.67 333 0.34 333 0 333 C0 223.11 0 113.22 0 0 Z " fill="#F0DDC5" transform="translate(84,87)"/>
<path d="M0 0 C0.33 0 0.66 0 1 0 C1 83.49 1 166.98 1 253 C-52.13 253 -105.26 253 -160 253 C-160 231.55 -160 210.1 -160 188 C-144.57626045 173.60450975 -144.57626045 173.60450975 -138.94580078 168.74951172 C-134.9474235 165.15448392 -131.17428265 161.3214099 -127.3815918 157.51196289 C-125.93974779 156.06475615 -124.49262884 154.62297974 -123.04492188 153.18164062 C-118.35756143 148.49764149 -113.79068932 143.75601249 -109.4777832 138.72290039 C-107.4192706 136.32294608 -105.27033622 134.0098084 -103.125 131.6875 C-99.05459944 127.22477168 -95.19823091 122.63742 -91.40625 117.9375 C-88.70220726 114.63646081 -85.9187381 111.41248327 -83.125 108.1875 C-78.67338253 103.03229197 -74.39557422 97.77215236 -70.2175293 92.39355469 C-66.68832332 87.85447226 -63.07717163 83.38834699 -59.4375 78.9375 C-54.73925261 73.18118756 -50.14938638 67.36256339 -45.64453125 61.453125 C-43.70214735 58.90705744 -41.73732155 56.379753 -39.76171875 53.859375 C-32.48128995 44.56782902 -25.38090426 35.1665573 -18.41015625 25.640625 C-14.60094264 20.4396043 -10.72273846 15.29114468 -6.81787109 10.16162109 C-4.32811992 6.86844267 -2.12346526 3.54584993 0 0 Z " fill="#F0DDC5" transform="translate(716,985)"/>
<path d="M0 0 C370.59 0 741.18 0 1123 0 C1123 186.45 1123 372.9 1123 565 C964.6 565 806.2 565 643 565 C643 761.35 643 957.7 643 1160 C586.9 1160 530.8 1160 473 1160 C473 963.65 473 767.3 473 565 C316.91 565 160.82 565 0 565 C0 378.55 0 192.1 0 0 Z M5 4 C5 187.81 5 371.62 5 561 C372.29 561 739.58 561 1118 561 C1118 377.19 1118 193.38 1118 4 C750.71 4 383.42 4 5 4 Z M477 567 C477 761.04 477 955.08 477 1155 C530.13 1155 583.26 1155 638 1155 C638 960.96 638 766.92 638 567 C584.87 567 531.74 567 477 567 Z " fill="#381F1A" transform="translate(79,83)"/>
<path d="M0 0 C6.73467954 5.2979479 12.47627349 11.47336225 18 18 C18.433125 16.845 18.86625 15.69 19.3125 14.5 C19.58835937 13.77425781 19.86421875 13.04851562 20.1484375 12.30078125 C20.7010399 10.80774083 21.22874445 9.30515799 21.7265625 7.79296875 C22.75730282 4.74039165 23.6125219 2.44283211 25.75 0 C29.01504938 -1.45113306 31.46546724 -1.37205608 35 -1 C38.8250053 0.70000235 40.47492765 2.14437121 42 6 C42.48377639 10.25276033 42.37990754 14.53530591 42.375 18.8125 C42.37578552 19.4737085 42.37657104 20.13491699 42.37738037 20.81616211 C42.35921733 33.93837982 41.30759495 46.93865529 40.125 60 C38.20575401 81.23031596 38.20575401 81.23031596 36.8125 102.5 C36.7727002 103.24016357 36.73290039 103.98032715 36.69189453 104.74291992 C36.13625126 115.50187975 35.93038516 126.25980902 35.82255363 137.03117371 C35.80079267 139.18636918 35.77702098 141.34153472 35.75282288 143.4967041 C35.68208766 149.96026855 35.62064014 156.42307624 35.61067104 162.88705444 C35.60483731 164.93140994 35.59028328 166.97549437 35.57218933 169.01977539 C35.55066042 171.54556932 35.54398086 174.07154893 35.55464172 176.59741211 C35.47619483 183.27057301 35.05699225 187.60335411 31 193 C28.61782005 194.82633796 27.04580167 194.99317847 24.0625 195.4375 C19.93850197 194.84835742 18.58527055 193.17618953 16 190 C14.90254998 186.70764995 14.87305503 184.28064717 14.87060547 180.81396484 C14.86745331 179.5334726 14.86430115 178.25298035 14.86105347 176.9336853 C14.86284755 175.52610236 14.86489955 174.11851973 14.8671875 172.7109375 C14.86651246 171.25053898 14.86554077 169.79014057 14.86428833 168.32974243 C14.86281057 165.25123029 14.86496163 162.17274706 14.86962891 159.09423828 C14.8752169 155.22734555 14.87203097 151.36052333 14.86617661 147.49363327 C14.84341279 129.63879629 15.07592423 111.83626373 16 94 C15.77973145 94.81227051 15.55946289 95.62454102 15.33251953 96.46142578 C-10.55974458 191.44410157 -10.55974458 191.44410157 -30.77734375 203.0078125 C-36.05902818 205.36554158 -40.49357162 205.83547613 -46.0234375 203.9921875 C-59.10238159 197.96335433 -67.28232325 187.45268524 -72.41870117 174.17749023 C-78.35922585 157.8349163 -81.1231253 140.58436407 -81.203125 123.23828125 C-81.21009399 122.22197128 -81.21706299 121.20566132 -81.22424316 120.15855408 C-81.24161129 116.87649379 -81.24796833 113.5946044 -81.25 110.3125 C-81.25100708 109.19218384 -81.25201416 108.07186768 -81.25305176 106.91760254 C-81.24221391 89.09443523 -80.61839258 71.65615886 -78 54 C-77.85014648 52.97084473 -77.70029297 51.94168945 -77.54589844 50.88134766 C-74.61626279 31.4592939 -70.69814937 13.21655915 -55 0 C-37.41917482 -12.55367485 -17.87235872 -11.73592654 0 0 Z " fill="#351C17" transform="translate(710,261)"/>
<path d="M0 0 C1.56923124 1.10824983 3.10486336 2.26397944 4.62890625 3.43359375 C4.72171875 2.07234375 4.72171875 2.07234375 4.81640625 0.68359375 C5.62890625 -2.56640625 5.62890625 -2.56640625 7.75390625 -4.94140625 C11.44762217 -7.02915873 13.44014385 -7.22778979 17.62890625 -6.56640625 C20.59618914 -4.76744951 23.05241053 -2.71939768 24.62890625 0.43359375 C24.75369263 3.36607376 24.81755211 6.27342658 24.83203125 9.20703125 C24.83773132 10.11764313 24.8434314 11.028255 24.8493042 11.96646118 C24.8587906 13.92196489 24.8653025 15.87748486 24.86914062 17.83300781 C24.87848218 20.6793794 24.90929128 23.52490424 24.94140625 26.37109375 C25.00411798 37.50302377 24.42906557 48.4713951 23.38362885 59.55130005 C21.91510433 75.1687723 21.25610184 90.71043789 21.00390625 106.39453125 C20.98622948 107.46993038 20.9685527 108.54532951 20.95034027 109.6533165 C20.80876089 118.51106925 20.69532986 127.36914085 20.5871582 136.22735596 C20.50485513 142.91852429 20.41113053 149.60932663 20.30108643 156.30009842 C20.25484211 159.39441044 20.2255034 162.48858286 20.19677734 165.58309937 C20.16722498 167.46736026 20.13683554 169.35160828 20.10546875 171.23583984 C20.10226624 172.08343369 20.09906372 172.93102753 20.09576416 173.80430603 C19.99194376 178.73530325 19.34213955 182.15519527 16.62890625 186.43359375 C13.78630138 188.81523567 12.34485358 189.43359375 8.62890625 189.43359375 C4.87304866 188.18164122 3.14505845 186.45297639 0.62890625 183.43359375 C-0.5951076 179.7615522 -0.50279736 176.38798859 -0.48461914 172.56567383 C-0.48476517 171.76544296 -0.48491119 170.9652121 -0.48506165 170.14073181 C-0.4843648 167.49483533 -0.47658304 164.84900919 -0.46875 162.203125 C-0.46688501 160.36895282 -0.46546149 158.53478015 -0.46446228 156.7006073 C-0.46064347 151.87222926 -0.45081859 147.04388129 -0.4397583 142.21551514 C-0.42953052 137.28886319 -0.42496173 132.36220638 -0.41992188 127.43554688 C-0.40919578 117.76821596 -0.39212696 108.10090735 -0.37109375 98.43359375 C-0.60611099 99.13722046 -0.84112823 99.84084717 -1.08326721 100.5657959 C-3.32529171 107.27386348 -5.57453268 113.97946027 -7.83143711 120.68253326 C-8.99082983 124.12676498 -10.14764051 127.57181459 -11.2980957 131.01904297 C-27.08375709 178.2985498 -27.08375709 178.2985498 -40.37109375 187.43359375 C-45.85618037 189.71042216 -50.69154241 189.99268627 -56.37109375 188.43359375 C-68.45620034 183.17919958 -75.55207569 173.37161577 -80.37109375 161.43359375 C-87.53418026 142.00827441 -88.93812869 121.90508939 -88.80859375 101.37109375 C-88.80555237 100.34411377 -88.80251099 99.31713379 -88.79937744 98.2590332 C-88.72842875 82.0171436 -87.91379044 66.34115299 -84.37109375 50.43359375 C-84.03368164 48.89711182 -84.03368164 48.89711182 -83.68945312 47.32958984 C-78.9355397 26.31349459 -72.3803774 6.82225748 -54.37109375 -6.56640625 C-36.28479988 -16.78417164 -16.35102194 -10.80191071 0 0 Z " fill="#351C17" transform="translate(452.37109375,266.56640625)"/>
<path d="M0 0 C12.28155735 -0.7663029 24.52410923 4.21915027 34.5859375 10.875 C37.12343616 12.55646176 37.12343616 12.55646176 41.00390625 12.23046875 C41.60203125 11.73546875 42.20015625 11.24046875 42.81640625 10.73046875 C46.11389611 8.46933285 48.09612196 8.55671284 52.00390625 9.23046875 C55.64875441 11.77033747 57.69513492 14.79332697 58.62695312 19.13037109 C58.92770674 22.50873436 59.03408961 25.83912255 59.06640625 29.23046875 C59.11216797 30.3803125 59.15792969 31.53015625 59.20507812 32.71484375 C59.3440941 38.32720946 59.13943977 42.05336852 56.76457214 47.1958313 C55.17711722 51.44197308 54.88147658 55.99911145 54.35546875 60.4765625 C54.21787643 61.57979858 54.08028412 62.68303467 53.93852234 63.81970215 C53.49120077 67.43456063 53.05972023 71.05110882 52.62890625 74.66796875 C52.3210295 77.18633715 52.01267442 79.70464712 51.70385742 82.22290039 C49.72303518 98.51988627 47.96418824 114.83439134 46.31640625 131.16796875 C40.09264805 192.67210292 40.09264805 192.67210292 24.46484375 206.47265625 C10.96512982 216.78223605 -3.87856649 222.72436204 -20.99609375 221.23046875 C-34.87047192 219.1095447 -46.02299581 213.06253518 -54.99609375 202.23046875 C-57.23998543 198.6320327 -57.20243795 196.22597991 -56.5234375 192.13671875 C-55.68203801 189.0952154 -54.68240551 187.88358368 -51.99609375 186.23046875 C-48.5346992 185.44102789 -47.27508388 185.21775894 -43.99609375 186.23046875 C-41.04004304 188.30013453 -38.38746463 190.57642447 -35.68359375 192.96484375 C-27.55005565 199.82160552 -19.31881111 200.85716293 -8.99609375 200.23046875 C-0.16847573 198.83393702 9.13558158 194.14046867 14.94140625 187.23046875 C20.04409482 178.84879619 21.14703895 168.13964648 22.421875 158.5703125 C22.54814774 157.63238861 22.67442047 156.69446472 22.80451965 155.7281189 C24.52557852 142.63350594 25.83871545 129.49209765 27.19140625 116.35546875 C27.46608069 113.70956043 27.74186508 111.06376922 28.01757812 108.41796875 C28.68334866 102.0225111 29.34523121 95.62666087 30.00390625 89.23046875 C29.01245605 90.83897705 29.01245605 90.83897705 28.00097656 92.47998047 C27.11148503 93.91513632 26.22182771 95.35018943 25.33203125 96.78515625 C24.89906738 97.48858154 24.46610352 98.19200684 24.02001953 98.91674805 C13.77511309 115.40553531 -1.3208642 136.0960268 -20.74609375 141.76171875 C-28.69934216 143.4186455 -36.06094741 142.14669158 -43.05859375 138.01171875 C-53.05666223 130.98182685 -59.77973175 121.87149432 -62.5402832 109.86328125 C-67.23203132 82.7632214 -58.57138289 52.1510785 -43.42651367 29.61743164 C-33.72770456 15.8684029 -21.92068387 4.56026204 -5.12109375 0.54296875 C-3.41301368 0.37216074 -1.70527039 0.19689032 0 0 Z " fill="#351C17" transform="translate(975.99609375,252.76953125)"/>
<path d="M0 0 C11.04933032 8.38063613 15.40904836 23.17128669 17.30220032 36.39053345 C18.7732113 47.54612243 19.23803701 58.59370253 19.203125 69.828125 C19.20186269 71.01337359 19.20186269 71.01337359 19.20057487 72.2225666 C19.16436994 90.80365816 18.23086758 109.32589503 17.20404053 127.87414551 C16.82747812 134.69383839 16.46342602 141.51419512 16.10606003 148.33491898 C16.01755318 150.0175463 15.92804729 151.70012139 15.83751297 153.38264084 C15.32974786 162.86118797 14.93463318 172.32997814 14.75341797 181.82080078 C14.73565906 182.70009908 14.71790014 183.57939737 14.69960308 184.48534107 C14.61694528 188.69467707 14.55142457 192.90316184 14.51417542 197.11314392 C14.48961567 198.61718439 14.4646495 200.12121831 14.43920898 201.62524414 C14.42615219 202.93288223 14.4130954 204.24052032 14.39964294 205.58778381 C13.87410451 210.0749161 12.34490687 212.65509313 9.1875 215.8125 C6.22434359 217.42107062 4.33240631 217.40804975 1 217 C-2.0670505 215.67559183 -3.58436273 214.8100667 -5.11962891 211.81787109 C-7.02565624 205.71710362 -6.38588626 198.97569492 -6.375 192.625 C-6.3764502 191.76006927 -6.37790039 190.89513855 -6.37939453 190.0039978 C-6.37518355 166.37749821 -4.91728375 142.77377746 -3.56633949 119.1933794 C2.24363382 67.37927341 2.24363382 67.37927341 -10 19 C-10 18.34 -10 17.68 -10 17 C-12.70332837 16.13723563 -14.22690419 15.72982706 -17 16 C-20.44430121 17.8513119 -23.16773009 20.32453396 -26 23 C-26.68320312 23.64195312 -27.36640625 24.28390625 -28.0703125 24.9453125 C-56.68279178 54.45543819 -61.75359809 109.66696063 -66.375 148.25 C-66.55434082 149.74660156 -66.55434082 149.74660156 -66.73730469 151.2734375 C-67.35833557 156.49452156 -67.96989792 161.71620117 -68.55517578 166.94140625 C-69.06270771 171.46929531 -69.58743937 175.99496646 -70.1206665 180.51989746 C-70.33086299 182.33112628 -70.53498635 184.14307084 -70.73284912 185.95568848 C-71.01342238 188.51939492 -71.31502833 191.07985389 -71.62109375 193.640625 C-71.70029556 194.41043701 -71.77949738 195.18024902 -71.86109924 195.97338867 C-72.45944693 200.75242329 -73.56414244 203.59728182 -77 207 C-79.99456468 208.16246965 -82.80994337 208.29052301 -86 208 C-90.14310369 205.7080703 -91.6267183 203.43973095 -93 199 C-93.15424648 196.31905784 -93.20579135 193.75332621 -93.15112305 191.07739258 C-93.14326782 190.29246933 -93.1354126 189.50754608 -93.12731934 188.69883728 C-93.09871762 186.09717444 -93.05535767 183.49598196 -93.01171875 180.89453125 C-92.9880181 179.05499794 -92.96515063 177.21545373 -92.94306946 175.37590027 C-92.89446551 171.49959018 -92.83917737 167.62345512 -92.77856445 163.74731445 C-92.70259834 158.8877763 -92.63744496 154.02818317 -92.57679081 149.16843224 C-92.34331656 130.54293403 -92.01460709 111.9259009 -91.40953064 93.30862617 C-91.09062241 83.42187321 -90.90904014 73.54136207 -90.83976936 63.64969826 C-90.82439319 61.47776466 -90.80656207 59.30586499 -90.78794861 57.13395691 C-90.71422076 48.45868192 -90.71422076 48.45868192 -90.67407227 39.78320312 C-90.66399069 36.15164839 -90.63476857 32.52068617 -90.59275246 28.88936615 C-90.57471331 26.88312815 -90.57707016 24.87673932 -90.58000183 22.87042236 C-90.42734585 11.65862125 -90.42734585 11.65862125 -86 7 C-82.89951072 5.44975536 -80.42105782 5.71007985 -77 6 C-73.77381267 8.0790985 -72.1330698 9.80039529 -70 13 C-69.7215271 15.14506531 -69.7215271 15.14506531 -69.68115234 17.6550293 C-69.66128265 18.59577805 -69.64141296 19.53652679 -69.62094116 20.50578308 C-69.60938995 21.51836685 -69.59783875 22.53095062 -69.5859375 23.57421875 C-69.56657135 24.61318802 -69.5472052 25.65215729 -69.5272522 26.72261047 C-69.46742701 30.04415656 -69.42105896 33.36573724 -69.375 36.6875 C-69.33682295 38.93816624 -69.29777139 41.18881782 -69.2578125 43.43945312 C-69.16172311 48.95950544 -69.07668419 54.47964586 -69 60 C-68.77827621 59.40606949 -68.55655243 58.81213898 -68.32810974 58.20021057 C-67.30490136 55.46654298 -66.27554104 52.73523019 -65.24609375 50.00390625 C-64.89752319 49.06985962 -64.54895264 48.13581299 -64.18981934 47.17346191 C-56.79626915 27.60984588 -45.54083636 8.7692283 -27 -2 C-17.53466218 -6.23907767 -8.66886105 -5.79108341 0 0 Z " fill="#361D18" transform="translate(870,248)"/>
<path d="M0 0 C53.13 0 106.26 0 161 0 C161 22.11 161 44.22 161 67 C149.98625 66.195625 138.9725 65.39125 127.625 64.5625 C124.16596191 64.31056885 120.70692383 64.0586377 117.14306641 63.79907227 C112.87182617 63.48620605 112.87182617 63.48620605 110.86312866 63.33872986 C109.48027049 63.23745173 108.09737436 63.13669102 106.71444702 63.03636169 C93.58725288 62.08334333 93.58725288 62.08334333 87.60668945 61.45678711 C82.88967993 60.96446773 78.17856785 60.7071392 73.44140625 60.5 C72.13670631 60.4390918 72.13670631 60.4390918 70.8056488 60.37695312 C68.05804141 60.24878988 65.31029883 60.12398634 62.5625 60 C42.31831376 59.08476615 42.31831376 59.08476615 33.7434082 58.22314453 C27.44925855 57.71118825 21.12299078 57.61665164 14.8125 57.4375 C9.924375 57.293125 5.03625 57.14875 0 57 C0 38.19 0 19.38 0 0 Z " fill="#F0DDC5" transform="translate(556,650)"/>
<path d="M0 0 C-2.13463309 3.26365744 -4.233213 6.44635712 -6.8125 9.375 C-7.32441895 9.96039551 -7.83633789 10.54579102 -8.36376953 11.14892578 C-8.90372559 11.75978027 -9.44368164 12.37063477 -10 13 C-11.16441011 14.33042501 -12.3284646 15.66116134 -13.4921875 16.9921875 C-14.07838867 17.66088867 -14.66458984 18.32958984 -15.26855469 19.01855469 C-17.90664852 22.03755773 -20.51782205 25.0792954 -23.125 28.125 C-23.61806641 28.70056641 -24.11113281 29.27613281 -24.61914062 29.86914062 C-28.38080419 34.26518223 -32.120094 38.67988018 -35.8515625 43.1015625 C-39.25340646 47.12903294 -42.68622334 51.12905446 -46.125 55.125 C-49.63669549 59.20857466 -53.10384716 63.31917647 -56.5 67.5 C-60.88712902 72.90076172 -65.41223412 78.174677 -69.94921875 83.44921875 C-77.75960026 92.53030739 -85.4416167 101.70779401 -93 111 C-94.49943092 112.83379879 -95.99943458 114.66712943 -97.5 116.5 C-98.62148438 117.87091797 -98.62148438 117.87091797 -99.765625 119.26953125 C-101.21297051 121.03822795 -102.66085301 122.80648543 -104.109375 124.57421875 C-105.57407709 126.36233134 -107.03756121 128.15144211 -108.5 129.94140625 C-109.81627729 131.55178924 -111.13294981 133.16185388 -112.453125 134.76904297 C-119.19040735 142.97159916 -125.78343852 151.25896574 -132.1965332 159.71777344 C-135.70258324 164.33346644 -139.28831944 168.87196206 -142.9375 173.375 C-149.92417307 182.02913129 -156.46349973 191.00380345 -163 200 C-163.5480127 200.7518457 -164.09602539 201.50369141 -164.66064453 202.27832031 C-185.29464541 230.59657941 -205.04140702 259.53639144 -224 289 C-224.44891602 289.69738281 -224.89783203 290.39476562 -225.36035156 291.11328125 C-227.9094042 295.07391607 -230.45587856 299.03619598 -233 303 C-234 301 -234 301 -233.14453125 298.27734375 C-232.70496094 297.17519531 -232.26539063 296.07304687 -231.8125 294.9375 C-231.34457031 293.75929688 -230.87664062 292.58109375 -230.39453125 291.3671875 C-229.30650579 288.74007841 -228.18472849 286.14647572 -227 283.5625 C-225.26084035 279.76159464 -223.87433855 275.88453326 -222.5 271.9375 C-220.93004074 267.45737236 -219.24782142 263.27902944 -217.01953125 259.09765625 C-215.71764728 256.4190674 -214.71950414 253.6684705 -213.6875 250.875 C-211.39544718 244.77232068 -208.63974434 239.0686463 -205.6484375 233.2890625 C-204.29350295 230.58561488 -203.08245295 227.87051147 -201.91113281 225.08496094 C-199.80524939 220.26603156 -197.46980099 215.54961793 -195.1875 210.8125 C-194.67896484 209.75224609 -194.17042969 208.69199219 -193.64648438 207.59960938 C-190.16762953 200.3641204 -186.61065052 193.17058287 -183 186 C-182.34 186 -181.68 186 -181 186 C-180.71125 184.9275 -180.4225 183.855 -180.125 182.75 C-179.27179891 179.90599636 -178.4363497 177.56491017 -177 175 C-176.34 175 -175.68 175 -175 175 C-174.89365234 174.01966797 -174.89365234 174.01966797 -174.78515625 173.01953125 C-173.69393815 168.82295615 -171.61233486 165.41436097 -169.4375 161.6875 C-168.80038086 160.57665039 -168.80038086 160.57665039 -168.15039062 159.44335938 C-167.10648347 157.62531882 -166.05407808 155.81216252 -165 154 C-164.34 154 -163.68 154 -163 154 C-162.89945312 153.45472656 -162.79890625 152.90945312 -162.6953125 152.34765625 C-159.25592041 140.73487735 -149.69262179 129.32469166 -142.73046875 119.50390625 C-141.0155291 117.02246987 -139.40722783 114.49755945 -137.8125 111.9375 C-129.23918703 98.3726137 -119.53665595 85.65884542 -109.61474609 73.06445312 C-107.69128168 70.60530359 -105.80546828 68.11929446 -103.92211914 65.62939453 C-99.90921733 60.33334812 -95.70354768 55.33516715 -91.203125 50.44921875 C-88.93609992 47.92896214 -86.80866579 45.33132714 -84.6875 42.6875 C-80.78444241 37.86165296 -76.6685861 33.29041294 -72.42456055 28.76635742 C-70.94187632 27.18460856 -69.46821242 25.59519295 -68 24 C-67.43007324 23.38108887 -66.86014648 22.76217773 -66.27294922 22.12451172 C-63.27861958 18.79666133 -60.68316351 15.57296438 -58.3984375 11.71875 C-45.83769116 -6.97551072 -19.73963461 -1.29277204 0 0 Z " fill="#FEF1DF" transform="translate(326,87)"/>
<path d="M0 0 C6.08149628 0.2749894 6.08149628 0.2749894 9.18359375 2.6015625 C12.94914947 7.93609977 12.35730609 13.58374839 11.33349609 19.87939453 C5.53586212 49.72182033 -10.78719133 80.94475416 -35.49609375 99.24609375 C-37.43064688 100.61193846 -37.43064688 100.61193846 -38.31640625 102.7265625 C-37.42695313 102.98179687 -36.5375 103.23703125 -35.62109375 103.5 C-16.8042823 110.48401749 -5.2489832 132.66384538 2.68359375 149.7265625 C8.44373381 162.84898152 10.43118258 176.62567061 12.28857422 190.74658203 C12.63742502 193.3782711 13.01415976 196.00339058 13.40625 198.62890625 C15.85858001 215.49703745 15.85858001 215.49703745 11.62109375 221.7890625 C8.33148299 223.95880577 6.48527629 224.48753854 2.61328125 224.1953125 C-0.98037434 223.32235973 -2.26630398 221.74141877 -4.31640625 218.7265625 C-6.27668598 212.02921555 -6.85757285 204.89411869 -7.71044922 197.9921875 C-11.1386614 170.26021321 -17.17671937 142.7069006 -40.31640625 124.3515625 C-47.69482515 119.14239876 -55.13795898 116.78905381 -64.06640625 116.1640625 C-65.82210938 116.03837891 -65.82210938 116.03837891 -67.61328125 115.91015625 C-68.5053125 115.84957031 -69.39734375 115.78898437 -70.31640625 115.7265625 C-70.3075238 116.86138062 -70.29864136 117.99619873 -70.28948975 119.16540527 C-70.2082937 129.87621049 -70.14838788 140.586953 -70.10915756 151.29799652 C-70.08831058 156.8042639 -70.06004543 162.3102822 -70.01464844 167.81640625 C-69.97108807 173.13322895 -69.94724742 178.44981251 -69.93689728 183.76679993 C-69.92952423 185.79213727 -69.91512636 187.81746199 -69.89348602 189.84269714 C-69.86431676 192.68643152 -69.86045591 195.52918622 -69.86230469 198.37304688 C-69.84073303 199.62030548 -69.84073303 199.62030548 -69.81872559 200.89276123 C-69.85761806 206.44583735 -70.85039251 211.2431569 -74.31640625 215.7265625 C-77.1991436 217.57184933 -78.27024834 217.728211 -81.81640625 217.6015625 C-85.61377536 216.65222022 -86.93112127 215.75403959 -89.31640625 212.7265625 C-90.85462974 209.65011551 -90.46808701 206.41735419 -90.4703064 203.04081726 C-90.47468865 202.23817643 -90.4790709 201.43553559 -90.48358595 200.6085723 C-90.49700021 197.90400357 -90.50315867 195.19946744 -90.50927734 192.49487305 C-90.51717618 190.5618271 -90.52544499 188.62878264 -90.53405762 186.69573975 C-90.56030072 180.33493462 -90.57558647 173.97412283 -90.58984375 167.61328125 C-90.59520229 165.42606921 -90.60057979 163.23885722 -90.6059761 161.05164528 C-90.62760722 151.95594574 -90.64634537 142.86024799 -90.6575985 133.76452923 C-90.67384695 120.71570598 -90.70704395 107.66718008 -90.76399934 94.61846894 C-90.80265529 85.45069802 -90.82222597 76.28300677 -90.82751906 67.11515647 C-90.83117817 61.63586235 -90.84325902 56.15688519 -90.8756218 50.67767906 C-90.90562626 45.52383841 -90.91204147 40.37050779 -90.90023804 35.21659851 C-90.90001667 33.32392288 -90.9083737 31.4312241 -90.92589188 29.53862953 C-90.94849598 26.95622088 -90.94033034 24.37567543 -90.92440796 21.79325867 C-90.93829005 21.0426703 -90.95217213 20.29208193 -90.96647489 19.51874846 C-90.90545594 15.50764358 -90.46283438 13.90056492 -87.84090614 10.78489399 C-87.00782118 10.1056446 -86.17473621 9.42639521 -85.31640625 8.7265625 C-84.98640625 8.3965625 -84.65640625 8.0665625 -84.31640625 7.7265625 C-80.46548838 7.27878135 -78.54176121 7.60955127 -75.06640625 9.4140625 C-72.05097988 11.94976195 -71.42424834 13.0260813 -70.31640625 16.7265625 C-70.11254221 19.30676629 -70.00549682 21.78273518 -69.99755859 24.36254883 C-69.98751297 25.11430389 -69.97746735 25.86605896 -69.96711731 26.64059448 C-69.93634766 29.11325348 -69.91926767 31.5858045 -69.90234375 34.05859375 C-69.88362708 35.77781601 -69.86405329 37.49702913 -69.84365845 39.2162323 C-69.79238391 43.73215339 -69.75273318 48.24810426 -69.71551514 52.76416016 C-69.67544614 57.37605118 -69.62436701 61.98781888 -69.57421875 66.59960938 C-69.47751487 75.64184039 -69.39309238 84.68414111 -69.31640625 93.7265625 C-67.43156256 92.96595167 -65.54924481 92.19908007 -63.66796875 91.4296875 C-62.09523193 90.79015137 -62.09523193 90.79015137 -60.49072266 90.13769531 C-36.25617555 79.36430028 -23.2271724 56.61808711 -13.37890625 33.1640625 C-11.07503538 26.87177002 -9.92979344 20.31235076 -8.92211914 13.70288086 C-7.92223933 7.79174087 -6.37580248 1.99983012 0 0 Z " fill="#351D17" transform="translate(330.31640625,250.2734375)"/>
<path d="M0 0 C4.46315273 0.66690788 8.43025271 1.75009156 12.65625 3.28125 C24.28808906 6.84834731 37.53367628 5.79964528 48.59375 0.8359375 C51.25036869 -0.08697873 52.40511875 0.03893287 55 1 C54.39414062 1.8971875 53.78828125 2.794375 53.1640625 3.71875 C49.1371447 9.70835358 45.1487353 15.70542354 41.38134766 21.86254883 C35.9207732 30.7814871 29.93514922 39.23901617 23.72949219 47.65283203 C21.96057887 50.05350011 20.2021443 52.46157349 18.4453125 54.87109375 C8.91750019 67.91113964 -0.88255808 80.62842033 -11.375 92.90625 C-13.83915964 95.7955132 -16.23661 98.73518458 -18.625 101.6875 C-22.24834495 106.13903808 -26.01963872 110.42382455 -29.8828125 114.66796875 C-31.78051169 116.75823889 -33.64733415 118.86986115 -35.5 121 C-38.89615864 124.89929326 -42.35901843 128.736291 -45.82421875 132.57421875 C-47.67443563 134.63702788 -49.49944809 136.7171237 -51.3125 138.8125 C-55.89162804 144.06689116 -60.65405239 149.15408179 -65.39306641 154.26367188 C-67.00972717 156.01051043 -68.62091849 157.76223428 -70.23046875 159.515625 C-71.02094604 160.37571167 -71.02094604 160.37571167 -71.82739258 161.25317383 C-72.82425121 162.33809695 -73.82025028 163.42381082 -74.81518555 164.51049805 C-75.7113138 165.4843733 -76.61427368 166.45203085 -77.52565002 167.41165161 C-78.48145865 168.44136445 -79.40973829 169.49761271 -80.30279541 170.5821991 C-83.11240317 173.7956246 -84.45884111 174.90305424 -88.80224609 175.68115234 C-90.20966749 175.68021472 -91.61734238 175.64703061 -93.0234375 175.5859375 C-93.76961334 175.57744781 -94.51578918 175.56895813 -95.28457642 175.56021118 C-97.64956942 175.52683158 -100.01105205 175.45159827 -102.375 175.375 C-103.98562755 175.34487968 -105.59630899 175.31750748 -107.20703125 175.29296875 C-111.1393572 175.22709329 -115.06908519 175.12369346 -119 175 C-115.86082601 168.37891342 -112.15569495 162.27994489 -108.1875 156.125 C-107.50316895 155.05999268 -106.81883789 153.99498535 -106.11376953 152.89770508 C-89.39001443 126.97686645 -71.85274435 101.54332439 -53.74926758 76.56982422 C-45.09700178 64.63067151 -36.66575407 52.53476767 -28.21777344 40.45068359 C-24.43271146 35.03852567 -20.62858507 29.64031375 -16.8125 24.25 C-11.13005169 16.22016389 -5.55203301 8.12039474 0 0 Z " fill="#FEF1DF" transform="translate(934,468)"/>
<path d="M0 0 C13.76303163 7.23762223 19.98638359 17.06931958 26.1953125 30.94921875 C27.97678436 37.65854312 25.00129393 44.20038074 22.78125 50.50390625 C19.38104444 60.4286433 16.55930126 70.43813834 13.89590454 80.58148193 C-5.30744524 153.4516451 -5.30744524 153.4516451 -19.01953125 170.90625 C-21.5078125 171.8984375 -21.5078125 171.8984375 -24.01953125 171.90625 C-32.16890941 167.34752658 -36.06576127 156.47083437 -38.46875 148.03515625 C-41.68981229 135.91272103 -43.16558372 124.41426371 -43.22265625 111.86328125 C-43.22962524 110.82878845 -43.23659424 109.79429565 -43.24377441 108.72845459 C-43.26112301 105.39184478 -43.26749833 102.05540309 -43.26953125 98.71875 C-43.27053833 97.57953094 -43.27154541 96.44031189 -43.27258301 95.26657104 C-43.2287692 21.96413915 -43.2287692 21.96413915 -27.01953125 4.90625 C-18.99271996 -1.16894443 -9.79257629 -3.5471169 0 0 Z " fill="#FDF0DE" transform="translate(692.01953125,273.09375)"/>
<path d="M0 0 C12.63003778 10.91972017 12.63003778 10.91972017 14.0625 18.08203125 C13.21264441 21.99136696 12.21791046 24.04099101 9.4375 26.95703125 C6.31695309 28.2812712 3.77479379 28.55829575 0.4375 27.95703125 C-2.67986445 26.05619927 -5.046921 23.58285474 -7.5625 20.95703125 C-15.87361202 12.81147923 -22.81486582 10.41244107 -34.46875 10.46679688 C-43.85469042 10.82779458 -52.06972393 14.41785014 -58.82421875 20.9765625 C-64.10699233 26.99536296 -66.99065127 33.50292159 -69.3125 41.08203125 C-69.51125732 41.71931152 -69.71001465 42.3565918 -69.91479492 43.01318359 C-73.79378704 56.73015102 -74.00407867 71.30345216 -74.3125 85.45703125 C-74.33274231 86.33177094 -74.35298462 87.20651062 -74.37384033 88.10775757 C-75.2998145 130.07264511 -75.2998145 130.07264511 -57.65625 167.140625 C-50.35457617 173.14056599 -40.7841529 175.3523327 -31.5625 175.95703125 C-31.29953125 175.395 -31.0365625 174.83296875 -30.765625 174.25390625 C-29.45543844 171.75264099 -27.91508763 169.5315052 -26.3125 167.20703125 C-18.9823658 155.6491433 -15.85156878 143.18393912 -13.38623047 129.85058594 C-12.08463405 123.13587293 -10.46956651 118.86409776 -5.5625 113.95703125 C1.36931818 113.27521307 1.36931818 113.27521307 5.375 115.83203125 C7.85019136 118.38222841 8.38228164 119.26299353 8.6640625 122.8046875 C8.57357369 128.45731912 7.10086635 133.91798805 5.8125 139.39453125 C5.54034668 140.55235107 5.26819336 141.7101709 4.98779297 142.90307617 C0.66864122 160.74353785 -6.46268692 183.64368834 -22.8125 194.01953125 C-34.83031344 198.1165131 -47.30138329 195.46573076 -58.75390625 190.6015625 C-74.2147292 182.58085741 -82.49710398 169.34225805 -87.875 153.08203125 C-100.26293017 113.8535857 -101.53448934 59.24505667 -83.6875 21.45703125 C-75.27754552 5.79268855 -63.55686353 -2.92307965 -47.16015625 -8.921875 C-31.49136998 -13.22252075 -12.63360741 -10.07222054 0 0 Z " fill="#351C17" transform="translate(597.5625,264.04296875)"/>
<path d="M0 0 C4.93796107 1.91290384 9.0968169 4.70785136 13.3125 7.875 C14.18261719 8.47441406 15.05273438 9.07382812 15.94921875 9.69140625 C17.21185547 10.64853516 17.21185547 10.64853516 18.5 11.625 C19.66595703 12.48351562 19.66595703 12.48351562 20.85546875 13.359375 C22.91639449 16.91764893 22.0771388 19.06206729 21.11108398 22.95263672 C20.84755127 23.9170166 20.58401855 24.88139648 20.3125 25.875 C19.92396851 27.42018311 19.92396851 27.42018311 19.52758789 28.99658203 C17.41375495 37.3308438 15.12058727 45.62032291 12.84838867 53.91265869 C12.34990687 55.73802184 11.85732997 57.56499471 11.36523438 59.39208984 C6.54768956 77.18966842 0.83865445 94.67413524 -5.03817749 112.14678955 C-5.87940057 114.64916481 -6.71769799 117.15252573 -7.55288696 119.65692139 C-19.44324994 155.22835626 -19.44324994 155.22835626 -26.6875 159.875 C-38.38411653 151.15987396 -41.73748939 137.26626338 -43.78515625 123.30859375 C-44.95869766 114.0677381 -44.98859484 104.86542631 -44.94824219 95.56103516 C-44.9375671 92.64334082 -44.94817298 89.72626896 -44.9609375 86.80859375 C-44.97523946 70.2941015 -43.98716193 54.13008642 -39.9375 38.0625 C-39.54171753 36.47296509 -39.54171753 36.47296509 -39.13793945 34.85131836 C-35.60497266 21.14466712 -31.22651762 8.76343437 -19.26953125 0.12890625 C-13.45692951 -2.69385496 -6.0729118 -1.79305656 0 0 Z " fill="#FDF0DE" transform="translate(428.6875,276.125)"/>
<path d="M0 0 C1.32850323 0.97863958 2.64361802 1.97602458 3.9375 3 C4.80375 3.66 5.67 4.32 6.5625 5 C7.9375 7 7.9375 7 7.66015625 9.77026367 C6.95217815 12.9343996 6.00278325 15.68901827 4.75 18.67578125 C4.08013062 20.27595093 4.08013062 20.27595093 3.39672852 21.90844727 C2.91518311 23.03178467 2.4336377 24.15512207 1.9375 25.3125 C1.43984131 26.47515381 0.94218262 27.63780762 0.42944336 28.83569336 C-6.50007892 44.82510904 -14.49381381 59.123872 -25.0625 73 C-25.52946289 73.61423828 -25.99642578 74.22847656 -26.47753906 74.86132812 C-32.48301458 82.63814148 -39.21157777 90.4207127 -48.0625 95 C-52.21247906 95.36721563 -54.41992675 95.30843516 -58.1875 93.5 C-62.81729317 89.47409289 -66.74619099 84.03523037 -67.23950195 77.74194336 C-67.89613309 49.32368023 -61.74113919 23.18225403 -41.953125 1.68359375 C-29.17127536 -9.69859053 -14.15327142 -9.20196195 0 0 Z " fill="#FDF0DE" transform="translate(1000.0625,280)"/>
<path d="M0 0 C2.52851336 16.510706 2.52851336 16.510706 -1.40917969 23.50195312 C-5.09389685 28.25913268 -9.46653928 32.27961045 -13.98681641 36.23144531 C-16.64053728 38.56270338 -19.09006615 41.04023415 -21.5625 43.5625 C-22.26503906 44.24441406 -22.96757813 44.92632813 -23.69140625 45.62890625 C-25.55607319 47.54405487 -27.28378927 49.4834228 -29.01757812 51.51318359 C-33.46945244 56.61451849 -38.23604079 61.37961503 -43.02734375 66.16015625 C-43.98481025 67.1182986 -44.94212845 68.07658916 -45.89930725 69.03501892 C-47.89373747 71.03091287 -49.88993741 73.02501452 -51.88745117 75.01782227 C-54.42674399 77.55141863 -56.96151903 80.08947983 -59.49497128 82.62891483 C-61.46732184 84.60490703 -63.44208263 86.57847679 -65.41754341 88.55135918 C-66.80126628 89.93410599 -68.18300314 91.3188393 -69.56468201 92.70362854 C-74.00107206 97.12371456 -78.48529941 101.41852937 -83.24822998 105.48634338 C-86.36484578 108.17932595 -89.32349261 111.0422416 -92.3125 113.875 C-97.47584688 118.7302881 -102.72977415 123.37388525 -108.26953125 127.80078125 C-111.33432517 130.26927764 -114.32221296 132.81738828 -117.3125 135.375 C-127.25695799 143.84006822 -137.63967213 151.75486808 -148.00390625 159.6953125 C-151.48838816 162.3756832 -154.94438872 165.09099399 -158.390625 167.8203125 C-160 169 -160 169 -161 169 C-163.20777165 153.36570594 -163.20777165 153.36570594 -159.75341797 148.09960938 C-156.32050294 144.56932896 -152.22858136 141.95626134 -148.078125 139.34423828 C-144.84233111 137.25116014 -141.8760795 134.84942357 -138.875 132.4375 C-137.72022925 131.53232602 -136.56528209 130.62737704 -135.41015625 129.72265625 C-131.42223137 126.56350936 -127.54201498 123.28244805 -123.67651367 119.9753418 C-120.39499825 117.16867098 -117.06478722 114.44174832 -113.6875 111.75 C-106.91142082 106.23642175 -100.64394996 100.18646031 -94.31591797 94.17236328 C-92.17451619 92.16369861 -90.00611447 90.18755316 -87.8326416 88.21376038 C-78.71793401 79.90414269 -70.02347677 71.174581 -61.31396484 62.44433594 C-58.61279114 59.73776675 -55.90626571 57.03663104 -53.19921875 54.3359375 C-51.45801235 52.5940708 -49.71711591 50.8518942 -47.9765625 49.109375 C-47.17852203 48.31335876 -46.38048157 47.51734253 -45.55825806 46.69720459 C-41.40269427 42.52436758 -37.40006951 38.28110876 -33.5788269 33.79901123 C-30.71731562 30.53843155 -27.59598221 27.5357275 -24.5 24.5 C-20.03334014 20.08121664 -15.68494626 15.65160313 -11.625 10.8515625 C-2.10126582 0 -2.10126582 0 0 0 Z " fill="#F0DDC5" transform="translate(717,954)"/>
<path d="M0 0 C1.2653955 3.72730473 0.86347467 6.91558677 0.44262695 10.79370117 C0.37116959 11.46923538 0.29971222 12.14476959 0.22608948 12.84077454 C-0.01247958 15.07570496 -0.26162475 17.30930064 -0.51171875 19.54296875 C-0.68324675 21.11074899 -0.85445008 22.67856479 -1.02534485 24.24641418 C-1.38630986 27.54137978 -1.75277889 30.83567858 -2.12280273 34.12963867 C-2.59075986 38.3012083 -3.04293618 42.47430668 -3.49045086 46.6481123 C-3.84083669 49.8948326 -4.20115672 53.14039779 -4.56409645 56.38573647 C-4.73434788 57.92037622 -4.90142391 59.45537239 -5.06494713 60.99074364 C-8.81696712 96.02600842 -8.81696712 96.02600842 -19.6875 105.25 C-29.7295704 112.78895846 -39.52002076 115.04483547 -52 114 C-58.41998292 112.3862338 -63.22731092 109.52149492 -68 105 C-66.515 104.505 -66.515 104.505 -65 104 C-64.27930235 102.35597533 -63.62074735 100.68430845 -63 99 C-61.97617908 97.31754809 -60.9043807 95.66373994 -59.796875 94.03515625 C-59.15314941 93.08125 -58.50942383 92.12734375 -57.84619141 91.14453125 C-57.15444824 90.12746094 -56.46270508 89.11039062 -55.75 88.0625 C-44.44946472 71.28392245 -33.68070945 54.17773087 -23 37 C-23.66 36.34 -24.32 35.68 -25 35 C-24.56171875 34.54753906 -24.1234375 34.09507812 -23.671875 33.62890625 C-18.94010194 28.54128847 -14.82555467 23.16486773 -10.8125 17.5 C-10.31395508 16.80076416 -9.81541016 16.10152832 -9.30175781 15.38110352 C-5.84023513 10.4354961 -2.83700052 5.3266768 0 0 Z " fill="#FDF0DE" transform="translate(1006,340)"/>
<path d="M0 0 C3.3 0 6.6 0 10 0 C0.94090506 21.12271383 -8.52988541 42.05933512 -18 63 C-18.52164734 64.15381165 -18.52164734 64.15381165 -19.05383301 65.33093262 C-30.22990532 90.04701432 -41.48609095 114.7238664 -53.2746582 139.15527344 C-57.18464516 147.2687346 -61.02555957 155.4131998 -64.85076904 163.5668335 C-70.40515648 175.40610912 -75.9987525 187.22462039 -81.6875 199 C-82.53320557 200.75135254 -82.53320557 200.75135254 -83.39599609 202.53808594 C-86.54904193 209.04999746 -89.74468306 215.53859242 -93 222 C-93.33 222 -93.66 222 -94 222 C-94.29481508 217.18468707 -93.72096648 214.26238649 -91.62841797 209.95654297 C-90.85974359 207.56331978 -91.15140105 205.93634883 -91.4453125 203.4453125 C-91.55205449 194.21060554 -86.40330974 186.17483939 -82.375 178.125 C-81.49841175 176.33337126 -80.62392075 174.54071498 -79.75146484 172.74707031 C-78.00233234 169.15879517 -76.24213575 165.57634159 -74.47070312 161.99902344 C-71.14081113 155.27241138 -67.88274631 148.51175041 -64.625 141.75 C-64.06393555 140.59081055 -63.50287109 139.43162109 -62.92480469 138.23730469 C-57.10263112 126.1957597 -51.4673468 114.07006188 -45.88153076 101.9173584 C-44.96626597 99.92662738 -44.04984867 97.93642963 -43.13330078 95.94628906 C-33.89342817 75.8747894 -24.84094 55.72491656 -15.8936615 35.52148438 C-12.45177591 27.75416299 -8.97851339 20.00097299 -5.5 12.25 C-5.21597321 11.61700989 -4.93194641 10.98401978 -4.63931274 10.33184814 C-3.09369768 6.88752908 -1.54727582 3.44357331 0 0 Z " fill="#EFDCC4" transform="translate(1125,87)"/>
<path d="M0 0 C10.00995941 0.55681911 19.90186673 1.44107092 29.83203125 2.85546875 C30.54800791 2.95667715 31.26398457 3.05788555 32.00165749 3.16216087 C56.12179004 6.62521615 79.98137744 11.72666902 103.85864258 16.54168701 C110.32166634 17.84280171 116.78691262 19.13277888 123.25195312 20.42382812 C135.83677506 22.93861668 148.41917692 25.46528741 161 28 C161 30.97 161 33.94 161 37 C150.16851275 35.51629186 139.48851065 33.36971736 128.77654839 31.20688248 C125.54662313 30.55528907 122.31581781 29.90823352 119.08473206 29.26242065 C109.90516375 27.4272063 100.72659951 25.5870642 91.55004883 23.73681641 C61.12343018 17.60566514 30.93304325 11.89521094 0 9 C0 6.03 0 3.06 0 0 Z " fill="#F0DDC5" transform="translate(556,723)"/>
<path d="M0 0 C0.89506817 2.96986552 1.03315169 5.25639788 0.66015625 8.328125 C0.56669922 9.12734375 0.47324219 9.9265625 0.37695312 10.75 C0.27318359 11.575 0.16941406 12.4 0.0625 13.25 C-0.08735352 14.51070313 -0.08735352 14.51070313 -0.24023438 15.796875 C-0.48704258 17.86536277 -0.74266284 19.93279572 -1 22 C-1.66 21.67 -2.32 21.34 -3 21 C-3.47566406 21.8765625 -3.95132813 22.753125 -4.44140625 23.65625 C-11.4534319 36.4207178 -19.21168814 48.69911285 -27 61 C-27.87664307 62.38928711 -27.87664307 62.38928711 -28.77099609 63.80664062 C-35.46672682 74.41729874 -42.2487564 84.97130941 -49.09869385 95.48297119 C-49.8615786 96.65384945 -50.62375405 97.82519019 -51.38519287 98.99700928 C-52.44693545 100.62988726 -53.51244835 102.26031181 -54.578125 103.890625 C-55.19075195 104.82938477 -55.80337891 105.76814453 -56.43457031 106.73535156 C-58 109 -58 109 -60 111 C-62.64 109.02 -65.28 107.04 -68 105 C-66.515 104.505 -66.515 104.505 -65 104 C-64.27930235 102.35597533 -63.62074735 100.68430845 -63 99 C-61.97617908 97.31754809 -60.9043807 95.66373994 -59.796875 94.03515625 C-59.15314941 93.08125 -58.50942383 92.12734375 -57.84619141 91.14453125 C-57.15444824 90.12746094 -56.46270508 89.11039062 -55.75 88.0625 C-44.44946472 71.28392245 -33.68070945 54.17773087 -23 37 C-23.66 36.34 -24.32 35.68 -25 35 C-24.56171875 34.54753906 -24.1234375 34.09507812 -23.671875 33.62890625 C-18.94010194 28.54128847 -14.82555467 23.16486773 -10.8125 17.5 C-10.31395508 16.80076416 -9.81541016 16.10152832 -9.30175781 15.38110352 C-5.84023513 10.4354961 -2.83700052 5.3266768 0 0 Z " fill="#EDDBC3" transform="translate(1006,340)"/>
<path d="M0 0 C0.33 0 0.66 0 1 0 C1 12.21 1 24.42 1 37 C-3.29 37 -7.58 37 -12 37 C-10.85859309 30.67836174 -9.31930918 24.99127379 -7 19 C-6.38887781 17.35529647 -5.78091726 15.70941543 -5.17578125 14.0625 C-4.86962891 13.23105469 -4.56347656 12.39960937 -4.24804688 11.54296875 C-3.93931641 10.70378906 -3.63058594 9.86460937 -3.3125 9 C-2.99216797 8.12988281 -2.67183594 7.25976562 -2.34179688 6.36328125 C-1.56098366 4.24226625 -0.78038863 2.12117124 0 0 Z " fill="#FEF0DE" transform="translate(1196,606)"/>
<path d="M0 0 C0.66 0.33 1.32 0.66 2 1 C-2.29 5.29 -6.58 9.58 -11 14 C-11 10.30159372 -10.17133056 9.68584567 -7.75 7 C-7.14671875 6.319375 -6.5434375 5.63875 -5.921875 4.9375 C-4.06233388 3.06284066 -2.15205789 1.52358081 0 0 Z " fill="#E2D4C3" transform="translate(964,277)"/>
<path d="M0 0 C1.32 0.33 2.64 0.66 4 1 C2.02 3.97 0.04 6.94 -2 10 C-3 8 -3 8 -2.44140625 6.0546875 C-2.15136719 5.33539063 -1.86132812 4.61609375 -1.5625 3.875 C-1.27503906 3.15054687 -0.98757812 2.42609375 -0.69140625 1.6796875 C-0.46324219 1.12539063 -0.23507813 0.57109375 0 0 Z " fill="#F9EAD6" transform="translate(95,380)"/>
<path d="M0 0 C0.66 0.33 1.32 0.66 2 1 C-0.64 3.64 -3.28 6.28 -6 9 C-6 6 -6 6 -3.5625 3.375 C-2.716875 2.59125 -1.87125 1.8075 -1 1 C-0.67 0.67 -0.34 0.34 0 0 Z " fill="#E9DBCA" transform="translate(668,276)"/>
</svg>
