<?xml version="1.0" encoding="UTF-8"?>
<svg version="1.1" xmlns="http://www.w3.org/2000/svg" width="1280" height="1280">
<path d="M0 0 C370.59 0 741.18 0 1123 0 C1123 186.45 1123 372.9 1123 565 C964.6 565 806.2 565 643 565 C643 761.35 643 957.7 643 1160 C586.9 1160 530.8 1160 473 1160 C473 963.65 473 767.3 473 565 C316.91 565 160.82 565 0 565 C0 378.55 0 192.1 0 0 Z " fill="#FDF0DE" transform="translate(79,83)"/>
<path d="M0 0 C370.59 0 741.18 0 1123 0 C1123 186.45 1123 372.9 1123 565 C964.6 565 806.2 565 643 565 C643 761.35 643 957.7 643 1160 C586.9 1160 530.8 1160 473 1160 C473 963.65 473 767.3 473 565 C316.91 565 160.82 565 0 565 C0 378.55 0 192.1 0 0 Z M5 4 C5 187.48 5 370.96 5 560 C129.84429477 560.68888929 129.84429477 560.68888929 254.68894279 561.15595913 C272.77020672 561.20494775 290.85146698 561.25505768 308.93271799 561.30862385 C311.11976301 561.31510004 313.30680815 561.32154095 315.49385338 561.32794613 C350.35486676 561.43033592 385.21494543 561.6104137 420.07539389 561.8311333 C455.90620153 562.05758448 491.73649239 562.20526592 527.56800353 562.25395976 C532.62987515 562.26087539 537.691745 562.26869067 542.75361443 562.27705383 C543.74985458 562.27867199 544.74609473 562.28029014 545.77252398 562.28195732 C561.80435428 562.31031022 577.8345858 562.42159564 593.8657643 562.56396881 C609.98613752 562.70536163 626.10492734 562.75920934 642.22589881 562.72403306 C651.80314195 562.7057872 661.37458696 562.75431707 670.95078164 562.89914103 C677.35349979 562.98934754 683.75243613 562.99180728 690.15541864 562.92396353 C693.80342289 562.8877938 697.4405074 562.88877036 701.08732349 562.99719638 C715.81347534 563.77696559 715.81347534 563.77696559 728.57067041 557.67990315 C733.21005354 551.97406373 736.43568156 545.7215116 739.49739432 539.06818897 C741.89435179 534.17381212 744.9444382 529.75900222 748.02734375 525.27734375 C749.17442842 523.56043289 750.31984382 521.84240448 751.46289062 520.12280273 C752.62081719 518.3941832 753.77902507 516.66575208 754.9375 514.9375 C756.16473739 513.10165982 757.39195063 511.2658035 758.61914062 509.42993164 C767.26443698 496.51361367 776.0287489 483.69247984 785 471 C786.05653279 469.49517291 787.11253516 467.98997324 788.16796875 466.484375 C793.18083327 459.34420916 798.25487416 452.25109293 803.375 445.1875 C809.76615782 436.36858189 816.01517764 427.45399961 822.24267578 418.51904297 C824.53931952 415.22691042 826.84314665 411.93984241 829.14746094 408.65307617 C830.90645057 406.14261315 832.6623436 403.63000424 834.41796875 401.1171875 C836.76404393 397.76054443 839.12177784 394.41257797 841.48828125 391.0703125 C877.40444186 340.13922822 910.73222871 287.02863308 940 232 C940.72751465 230.6397168 940.72751465 230.6397168 941.46972656 229.25195312 C953.82665299 206.1088252 965.10305685 182.41530816 976.07055664 158.58789062 C979.89435519 150.30641119 983.84901329 142.0967695 987.85415649 133.90188599 C995.15692133 118.95513418 1002.15284495 103.89095146 1008.97479248 88.71929932 C1011.51619826 83.0675495 1014.07407043 77.42339618 1016.63671875 71.78125 C1024.04490176 55.46411413 1031.42868438 39.13600111 1038.68896484 22.75241089 C1039.35037827 21.2604506 1040.01296094 19.76900807 1040.67675781 18.27810669 C1041.58387738 16.2391435 1042.48609411 14.19808871 1043.38671875 12.15625 C1043.89420654 11.00962891 1044.40169434 9.86300781 1044.92456055 8.68164062 C1046.12407365 6.17216031 1046.12407365 6.17216031 1046 4 C702.47 4 358.94 4 5 4 Z " fill="#F0DDC5" transform="translate(79,83)"/>
<path d="M0 0 C53.13 0 106.26 0 161 0 C161 194.04 161 388.08 161 588 C107.87 588 54.74 588 0 588 C0 393.96 0 199.92 0 0 Z " fill="#FEF1DF" transform="translate(556,650)"/>
<path d="M0 0 C0.33 0 0.66 0 1 0 C1 83.49 1 166.98 1 253 C-52.13 253 -105.26 253 -160 253 C-160 231.55 -160 210.1 -160 188 C-144.57626045 173.60450975 -144.57626045 173.60450975 -138.94580078 168.74951172 C-134.9474235 165.15448392 -131.17428265 161.3214099 -127.3815918 157.51196289 C-125.93974779 156.06475615 -124.49262884 154.62297974 -123.04492188 153.18164062 C-118.35756143 148.49764149 -113.79068932 143.75601249 -109.4777832 138.72290039 C-107.4192706 136.32294608 -105.27033622 134.0098084 -103.125 131.6875 C-99.05459944 127.22477168 -95.19823091 122.63742 -91.40625 117.9375 C-88.70220726 114.63646081 -85.9187381 111.41248327 -83.125 108.1875 C-78.67338253 103.03229197 -74.39557422 97.77215236 -70.2175293 92.39355469 C-66.68832332 87.85447226 -63.07717163 83.38834699 -59.4375 78.9375 C-54.73925261 73.18118756 -50.14938638 67.36256339 -45.64453125 61.453125 C-43.70214735 58.90705744 -41.73732155 56.379753 -39.76171875 53.859375 C-32.48128995 44.56782902 -25.38090426 35.1665573 -18.41015625 25.640625 C-14.60094264 20.4396043 -10.72273846 15.29114468 -6.81787109 10.16162109 C-4.32811992 6.86844267 -2.12346526 3.54584993 0 0 Z " fill="#F0DDC5" transform="translate(716,985)"/>
<path d="M0 0 C2.24658203 -0.34057617 2.24658203 -0.34057617 5.0078125 -0.29296875 C5.99394531 -0.28330078 6.98007813 -0.27363281 7.99609375 -0.26367188 C9.02863281 -0.23853516 10.06117188 -0.21339844 11.125 -0.1875 C12.68541016 -0.16719727 12.68541016 -0.16719727 14.27734375 -0.14648438 C16.85207627 -0.11105228 19.4257833 -0.06165221 22 0 C19.19616189 9.8845452 15.71038539 19.51847262 12.25 29.1875 C11.92119843 30.10771942 11.59239685 31.02793884 11.25363159 31.9760437 C4.46233579 50.95489825 -2.71198271 69.77366634 -10.0435791 88.54931641 C-11.0054896 91.01406626 -11.96548072 93.47955486 -12.92480469 95.9453125 C-16.54805497 105.25815697 -20.18148077 114.5669638 -23.82342529 123.87251282 C-26.05558958 129.57827462 -28.27976391 135.28709519 -30.49928284 140.99778748 C-32.08988909 145.0891499 -33.68337412 149.17938819 -35.27719116 153.26950073 C-36.03397489 155.21346019 -36.78958509 157.15787703 -37.54385376 159.10281372 C-42.46702481 171.79461746 -47.64474128 184.34859026 -53.06660461 196.83547974 C-54.34315877 199.7957765 -55.5812337 202.77059695 -56.8125 205.75 C-59.51152121 212.25344361 -62.29955011 218.66344732 -65.5 224.9375 C-67.13443858 228.16180157 -68.58236615 231.37478938 -69.875 234.75 C-71.75129928 239.60092008 -74.06397144 244.1917412 -76.42871094 248.81616211 C-78.56724265 253.03394977 -80.3545476 257.29417811 -82.0390625 261.70703125 C-83.34898273 264.83273521 -85.03214575 267.6907109 -86.72607422 270.62084961 C-87.9066262 272.82561753 -88.80422543 274.96306045 -89.671875 277.3046875 C-92.55287957 284.63987677 -96.19369704 291.60092582 -99.75 298.625 C-100.45480262 300.02455053 -101.15923249 301.42428884 -101.86328125 302.82421875 C-103.57123604 306.21832355 -105.28419798 309.60985587 -107 313 C-107.66 313 -108.32 313 -109 313 C-109.15855469 313.53367187 -109.31710937 314.06734375 -109.48046875 314.6171875 C-111.40053915 320.74868303 -114.00234357 326.32459514 -117 332 C-117.66 332 -118.32 332 -119 332 C-119.18175781 332.59167969 -119.36351562 333.18335938 -119.55078125 333.79296875 C-120.96490651 338.23839842 -122.4473148 342.06461032 -125 346 C-126.0150089 347.99242489 -127.01873444 349.99074195 -128 352 C-128.66 352 -129.32 352 -130 352 C-130.11214844 352.55171875 -130.22429687 353.1034375 -130.33984375 353.671875 C-131.11360773 356.40065211 -132.26817694 358.72772943 -133.5625 361.25 C-134.01753906 362.14203125 -134.47257813 363.0340625 -134.94140625 363.953125 C-135.46541016 364.96632813 -135.46541016 364.96632813 -136 366 C-136.66 366 -137.32 366 -138 366 C-138.1697937 366.85235229 -138.1697937 366.85235229 -138.34301758 367.72192383 C-139.07741097 370.26842132 -140.14106278 372.18226293 -141.51171875 374.44921875 C-142.02283203 375.29806641 -142.53394531 376.14691406 -143.06054688 377.02148438 C-143.59744141 377.90126953 -144.13433594 378.78105469 -144.6875 379.6875 C-145.20505859 380.54794922 -145.72261719 381.40839844 -146.25585938 382.29492188 C-149.68917094 387.96865096 -153.29390833 393.50191302 -157 399 C-158.10035601 400.65923019 -159.1992673 402.31941923 -160.296875 403.98046875 C-179.58792568 433.0999246 -200.64246534 460.73272171 -223.44726562 487.19287109 C-224.98645982 488.98424144 -226.51787119 490.78195887 -228.046875 492.58203125 C-233.75446696 499.29342936 -239.5724139 505.87225684 -245.5546875 512.33984375 C-247.55160793 514.51221246 -249.50828734 516.70539163 -251.4375 518.9375 C-255.47821363 523.59541094 -259.6832238 528.09964195 -263.875 532.62109375 C-265.90589748 534.81262363 -267.92703721 537.01236647 -269.9375 539.22265625 C-270.4109082 539.7424707 -270.88431641 540.26228516 -271.37207031 540.79785156 C-272.66073445 542.21437748 -273.94762129 543.6325197 -275.234375 545.05078125 C-275.67523437 545.50469238 -276.11609375 545.95860352 -276.5703125 546.42626953 C-278.0860621 548.0298518 -278.0860621 548.0298518 -279.4921875 550.11669922 C-282.61271107 554.07070343 -284.76733135 555.79452901 -289.82714844 556.63793945 C-294.39310704 556.8852325 -298.93572023 556.69934638 -303.5 556.5 C-305.10147339 556.45981734 -306.70304386 556.42332495 -308.3046875 556.390625 C-312.20554525 556.30300466 -316.10169248 556.16529027 -320 556 C-316.86082601 549.37891342 -313.15569495 543.27994489 -309.1875 537.125 C-308.50316895 536.05999268 -307.81883789 534.99498535 -307.11376953 533.89770508 C-290.39160581 507.97933299 -272.85826006 482.54554907 -254.75366211 457.57641602 C-249.59637545 450.46126325 -244.52982932 443.28391461 -239.47509766 436.09570312 C-237.52206175 433.32098279 -235.56294249 430.55058392 -233.60400391 427.7800293 C-228.74403225 420.9040278 -223.89770244 414.01843963 -219.0625 407.125 C-218.55025879 406.39627686 -218.03801758 405.66755371 -217.51025391 404.91674805 C-206.47090697 389.15948674 -195.73007021 373.19786001 -185.0625 357.1875 C-184.45026581 356.26901276 -183.83803162 355.35052551 -183.20724487 354.40420532 C-174.81611393 341.80895728 -166.46564768 329.19723828 -158.46386719 316.34960938 C-156.94431087 313.91061504 -155.41384343 311.47867986 -153.8828125 309.046875 C-122.96116304 259.73066248 -96.12939965 208.19297121 -71.80761719 155.34423828 C-68.15907868 147.43454198 -64.39484601 139.58885516 -60.57537842 131.76095581 C-53.12500354 116.4862758 -46.03509184 101.06695722 -39.06005859 85.5703125 C-36.84749497 80.65724347 -34.62132697 75.75038107 -32.39453125 70.84375 C-22.78707079 49.66481468 -22.78707079 49.66481468 -13.3046875 28.4296875 C-12.74626411 27.16953575 -12.74626411 27.16953575 -12.17655945 25.88392639 C-10.41255768 21.90083101 -8.65267488 17.91597949 -6.89868164 13.9284668 C-6.27494231 12.51609563 -5.65116525 11.10374113 -5.02734375 9.69140625 C-4.74805023 9.05286713 -4.46875671 8.414328 -4.18099976 7.75643921 C-2.95121584 4.97758266 -1.69288541 2.53932812 0 0 Z " fill="#FEF1DF" transform="translate(1135,87)"/>
<path d="M0 0 C370.59 0 741.18 0 1123 0 C1123 186.45 1123 372.9 1123 565 C964.6 565 806.2 565 643 565 C643 761.35 643 957.7 643 1160 C586.9 1160 530.8 1160 473 1160 C473 963.65 473 767.3 473 565 C316.91 565 160.82 565 0 565 C0 378.55 0 192.1 0 0 Z M5 4 C5 187.81 5 371.62 5 561 C372.29 561 739.58 561 1118 561 C1118 377.19 1118 193.38 1118 4 C750.71 4 383.42 4 5 4 Z M477 567 C477 761.04 477 955.08 477 1155 C530.13 1155 583.26 1155 638 1155 C638 960.96 638 766.92 638 567 C584.87 567 531.74 567 477 567 Z " fill="#381F1A" transform="translate(79,83)"/>
<path d="M0 0 C8.11609392 5.68736807 18.16155402 13.56802773 20.66015625 23.66870117 C20.79292969 24.61720947 20.92570313 25.56571777 21.0625 26.54296875 C21.21976563 27.61869141 21.37703125 28.69441406 21.5390625 29.80273438 C21.69117188 30.91970703 21.84328125 32.03667969 22 33.1875 C22.31103502 35.36869899 22.62357 37.54968454 22.9375 39.73046875 C23.09911621 40.90569092 23.26073242 42.08091309 23.42724609 43.29174805 C23.8089739 45.76321591 24.2601895 48.22494351 24.77978516 50.67114258 C27.81836067 65.18707737 27.45686478 79.91524971 27.39111328 94.67211914 C27.37418855 98.50607501 27.38406852 102.33939811 27.40144444 106.17333126 C27.68553721 180.32645883 27.68553721 180.32645883 6.890625 201.44921875 C0.1970702 206.93959325 -6.06077689 208.79979786 -14.69921875 208.4140625 C-28.74073602 206.6526414 -40.11948834 198.79150784 -49 188 C-75.02578848 149.79700774 -76.90588777 91.95261861 -69.19140625 47.8984375 C-65.39775998 28.36255507 -58.18632644 8.43061876 -41.375 -3.5 C-28.10499484 -11.64138965 -12.60235754 -7.78321601 0 0 Z " fill="#351C17" transform="translate(831,255)"/>
<path d="M0 0 C16.11780299 9.43171121 24.22081475 27.14696206 28.8515625 44.51171875 C31.13705344 53.50462876 31.6629875 62.05506489 31.66186523 71.30029297 C31.66404966 73.31239048 31.68224639 75.32393671 31.70117188 77.3359375 C31.72729699 94.80492797 31.72729699 94.80492797 27.2890625 100.88671875 C22.01747326 105.68972228 15.29733017 105.82792857 8.47265625 106.30078125 C7.63114517 106.36453949 6.78963409 106.42829773 5.92262268 106.49398804 C4.15382707 106.62667976 2.38476852 106.75590782 0.61547852 106.88183594 C-2.08182249 107.0739257 -4.77820259 107.27624386 -7.47460938 107.48046875 C-9.20047672 107.6086682 -10.92638694 107.73629192 -12.65234375 107.86328125 C-13.8525692 107.95230209 -13.8525692 107.95230209 -15.07704163 108.04312134 C-19.23627685 108.33736083 -23.35031896 108.51170929 -27.5234375 108.44921875 C-26.66224251 146.0070649 -26.66224251 146.0070649 -11.5234375 179.44921875 C-7.5322509 183.04128669 -4.55126317 185.29900944 0.8515625 185.69921875 C4.4891022 185.44835394 7.17262936 184.98593184 10.4765625 183.44921875 C11.58127899 181.62560845 11.58127899 181.62560845 12.4765625 179.44921875 C12.81163818 178.72895508 13.14671387 178.00869141 13.49194336 177.26660156 C16.2019591 170.93516792 17.34060256 165.02443806 18.0390625 158.19921875 C18.7866865 151.06061536 19.76002043 145.7384957 23.6640625 139.57421875 C26.7473953 137.66042598 30.02043154 137.82266869 33.4765625 138.44921875 C36.2865971 140.24285786 37.98596718 141.4680281 39.4765625 144.44921875 C41.08351765 161.47676278 37.42719227 182.00865459 26.4765625 195.44921875 C19.40852321 203.29396565 11.13041441 206.52725593 0.6640625 207.13671875 C-9.78633619 206.78188594 -18.27208648 201.90342128 -25.8984375 195.01171875 C-46.88452036 172.23372077 -48.75794766 134.23383187 -48.7109375 105.13671875 C-48.71033325 104.43555939 -48.709729 103.73440002 -48.70910645 103.01199341 C-48.52379379 22.44957504 -48.52379379 22.44957504 -29.5234375 3.44921875 C-20.1949535 -3.20585825 -10.73538897 -4.85648549 0 0 Z " fill="#351C17" transform="translate(706.5234375,258.55078125)"/>
<path d="M0 0 C6.54983633 3.41577486 11.0490871 8.03761762 13.55859375 15.0390625 C14.48813927 18.41698769 15.19936113 21.82927285 15.86376953 25.26806641 C16.34172934 27.71195447 16.86734771 30.1422062 17.40234375 32.57421875 C18.10787269 35.80861634 18.80763925 39.04378281 19.48046875 42.28515625 C19.61735107 42.94265869 19.7542334 43.60016113 19.89526367 44.27758789 C20.03295166 45.03160889 20.17063965 45.78562988 20.3125 46.5625 C20.58054443 48.0172876 20.58054443 48.0172876 20.85400391 49.50146484 C21.64715433 55.23552268 21.47523908 61.04003075 21.48046875 66.81640625 C21.48546135 68.75422218 21.48546135 68.75422218 21.49055481 70.73118591 C21.49652792 73.46882967 21.49839716 76.20644199 21.49780273 78.9440918 C21.49772227 81.70457628 21.50453634 84.46489201 21.51831055 87.2253418 C21.79861284 144.28825248 21.79861284 144.28825248 9.3125 158.5625 C2.73507161 164.27992565 -4.09888068 163.80712587 -12.375 163.875 C-13.53451172 163.90400391 -14.69402344 163.93300781 -15.88867188 163.96289062 C-24.03227904 164.02307647 -29.41473424 162.98547778 -35.7890625 157.87890625 C-55.53178315 135.14946632 -51.80803638 99.90279188 -49.9375 71.9375 C-48.24293348 49.40604141 -44.26679908 22.22653234 -28.296875 4.92578125 C-20.5019881 -1.67716906 -9.5587262 -3.65725177 0 0 Z " fill="#FEF1DF" transform="translate(476.6875,281.4375)"/>
<path d="M0 0 C53.13 0 106.26 0 161 0 C161 22.11 161 44.22 161 67 C149.98625 66.195625 138.9725 65.39125 127.625 64.5625 C124.16596191 64.31056885 120.70692383 64.0586377 117.14306641 63.79907227 C112.87182617 63.48620605 112.87182617 63.48620605 110.86312866 63.33872986 C109.48027049 63.23745173 108.09737436 63.13669102 106.71444702 63.03636169 C93.58725288 62.08334333 93.58725288 62.08334333 87.60668945 61.45678711 C82.88967993 60.96446773 78.17856785 60.7071392 73.44140625 60.5 C72.13670631 60.4390918 72.13670631 60.4390918 70.8056488 60.37695312 C68.05804141 60.24878988 65.31029883 60.12398634 62.5625 60 C42.31831376 59.08476615 42.31831376 59.08476615 33.7434082 58.22314453 C27.44925855 57.71118825 21.12299078 57.61665164 14.8125 57.4375 C9.924375 57.293125 5.03625 57.14875 0 57 C0 38.19 0 19.38 0 0 Z " fill="#F0DDC5" transform="translate(556,650)"/>
<path d="M0 0 C-2.13463309 3.26365744 -4.233213 6.44635712 -6.8125 9.375 C-7.32441895 9.96039551 -7.83633789 10.54579102 -8.36376953 11.14892578 C-8.90372559 11.75978027 -9.44368164 12.37063477 -10 13 C-11.16441011 14.33042501 -12.3284646 15.66116134 -13.4921875 16.9921875 C-14.07838867 17.66088867 -14.66458984 18.32958984 -15.26855469 19.01855469 C-17.90664852 22.03755773 -20.51782205 25.0792954 -23.125 28.125 C-23.61806641 28.70056641 -24.11113281 29.27613281 -24.61914062 29.86914062 C-28.38080419 34.26518223 -32.120094 38.67988018 -35.8515625 43.1015625 C-39.25340646 47.12903294 -42.68622334 51.12905446 -46.125 55.125 C-49.63669549 59.20857466 -53.10384716 63.31917647 -56.5 67.5 C-60.88712902 72.90076172 -65.41223412 78.174677 -69.94921875 83.44921875 C-77.75960026 92.53030739 -85.4416167 101.70779401 -93 111 C-94.49943092 112.83379879 -95.99943458 114.66712943 -97.5 116.5 C-98.62148438 117.87091797 -98.62148438 117.87091797 -99.765625 119.26953125 C-101.21297051 121.03822795 -102.66085301 122.80648543 -104.109375 124.57421875 C-105.57407709 126.36233134 -107.03756121 128.15144211 -108.5 129.94140625 C-109.81627729 131.55178924 -111.13294981 133.16185388 -112.453125 134.76904297 C-119.19040735 142.97159916 -125.78343852 151.25896574 -132.1965332 159.71777344 C-135.70258324 164.33346644 -139.28831944 168.87196206 -142.9375 173.375 C-149.92417307 182.02913129 -156.46349973 191.00380345 -163 200 C-163.5480127 200.7518457 -164.09602539 201.50369141 -164.66064453 202.27832031 C-185.29464541 230.59657941 -205.04140702 259.53639144 -224 289 C-224.44891602 289.69738281 -224.89783203 290.39476562 -225.36035156 291.11328125 C-227.9094042 295.07391607 -230.45587856 299.03619598 -233 303 C-234 301 -234 301 -233.14453125 298.27734375 C-232.70496094 297.17519531 -232.26539063 296.07304687 -231.8125 294.9375 C-231.34457031 293.75929688 -230.87664062 292.58109375 -230.39453125 291.3671875 C-229.30650579 288.74007841 -228.18472849 286.14647572 -227 283.5625 C-225.26084035 279.76159464 -223.87433855 275.88453326 -222.5 271.9375 C-220.93004074 267.45737236 -219.24782142 263.27902944 -217.01953125 259.09765625 C-215.71764728 256.4190674 -214.71950414 253.6684705 -213.6875 250.875 C-211.39544718 244.77232068 -208.63974434 239.0686463 -205.6484375 233.2890625 C-204.29350295 230.58561488 -203.08245295 227.87051147 -201.91113281 225.08496094 C-199.80524939 220.26603156 -197.46980099 215.54961793 -195.1875 210.8125 C-194.67896484 209.75224609 -194.17042969 208.69199219 -193.64648438 207.59960938 C-190.16762953 200.3641204 -186.61065052 193.17058287 -183 186 C-182.34 186 -181.68 186 -181 186 C-180.71125 184.9275 -180.4225 183.855 -180.125 182.75 C-179.27179891 179.90599636 -178.4363497 177.56491017 -177 175 C-176.34 175 -175.68 175 -175 175 C-174.89365234 174.01966797 -174.89365234 174.01966797 -174.78515625 173.01953125 C-173.69393815 168.82295615 -171.61233486 165.41436097 -169.4375 161.6875 C-168.80038086 160.57665039 -168.80038086 160.57665039 -168.15039062 159.44335938 C-167.10648347 157.62531882 -166.05407808 155.81216252 -165 154 C-164.34 154 -163.68 154 -163 154 C-162.89945312 153.45472656 -162.79890625 152.90945312 -162.6953125 152.34765625 C-159.25592041 140.73487735 -149.69262179 129.32469166 -142.73046875 119.50390625 C-141.0155291 117.02246987 -139.40722783 114.49755945 -137.8125 111.9375 C-129.23918703 98.3726137 -119.53665595 85.65884542 -109.61474609 73.06445312 C-107.69128168 70.60530359 -105.80546828 68.11929446 -103.92211914 65.62939453 C-99.90921733 60.33334812 -95.70354768 55.33516715 -91.203125 50.44921875 C-88.93609992 47.92896214 -86.80866579 45.33132714 -84.6875 42.6875 C-80.78444241 37.86165296 -76.6685861 33.29041294 -72.42456055 28.76635742 C-70.94187632 27.18460856 -69.46821242 25.59519295 -68 24 C-67.43007324 23.38108887 -66.86014648 22.76217773 -66.27294922 22.12451172 C-63.27861958 18.79666133 -60.68316351 15.57296438 -58.3984375 11.71875 C-45.83769116 -6.97551072 -19.73963461 -1.29277204 0 0 Z " fill="#FEF1DF" transform="translate(326,87)"/>
<path d="M0 0 C0.59941406 0.4434375 1.19882812 0.886875 1.81640625 1.34375 C2.62207031 1.92769531 3.42773438 2.51164062 4.2578125 3.11328125 C9.10987301 7.34309278 12.31805118 12.9918361 15.81640625 18.34375 C16.65365234 19.54644531 16.65365234 19.54644531 17.5078125 20.7734375 C20.88864881 26.0325162 21.07496699 29.98224907 20.8046875 36.15234375 C20.81704122 39.51667356 21.34661659 42.32560589 22.12890625 45.59375 C30.62579029 83.14188517 34.82514666 141.45329745 15.80078125 176.25 C8.81445548 187.14206695 0.95624636 193.73803779 -11.59375 196.78515625 C-26.73000955 200.04983968 -43.72713411 199.45300422 -57.53515625 192.07421875 C-73.73046947 181.49232531 -80.59699637 163.05936355 -84.72973633 144.95068359 C-86.70300373 134.97965696 -86.53513657 124.96417616 -86.49609375 114.84375 C-86.49460327 113.89443604 -86.49311279 112.94512207 -86.49157715 111.96704102 C-86.44639863 95.93338761 -85.67048149 80.20949847 -83.18359375 64.34375 C-82.9827417 63.02528076 -82.9827417 63.02528076 -82.77783203 61.68017578 C-79.24131031 39.55655326 -70.73803606 13.84202417 -52.22265625 -0.13671875 C-36.43714061 -10.77478364 -15.73306479 -10.41831584 0 0 Z M-46.9921875 22.6484375 C-58.7593988 41.21636324 -63.36510485 61.53615615 -65.02050781 83.23876953 C-65.16449546 85.09724484 -65.3396444 86.95324914 -65.51953125 88.80859375 C-67.83151552 115.58387107 -70.13007137 148.11562544 -52.18359375 170.34375 C-48.22719905 174.44072725 -44.08773684 177.04533619 -38.35620117 177.63427734 C-35.02742411 177.68356116 -31.70026276 177.71505708 -28.37109375 177.71875 C-27.22060547 177.74324219 -26.07011719 177.76773438 -24.88476562 177.79296875 C-16.98547182 177.82012965 -11.16774315 176.99323085 -5.23046875 171.5546875 C6.42868837 155.04925423 5.93451686 133.99604337 6.0546875 114.50390625 C6.06679512 112.57882484 6.06679512 112.57882484 6.07914734 110.61485291 C6.0940275 107.91307728 6.10393232 105.2113264 6.11157227 102.50952148 C6.12038387 99.78988925 6.14117256 97.07077595 6.1730957 94.35131836 C6.42554545 72.34650751 4.38802962 52.35637767 -2.18359375 31.34375 C-2.48910156 30.15007812 -2.79460937 28.95640625 -3.109375 27.7265625 C-4.89876606 22.09160737 -8.36926397 18.23587002 -13.2578125 14.94921875 C-25.07473197 8.94529019 -38.83241874 12.25046003 -46.9921875 22.6484375 Z " fill="#351C17" transform="translate(492.18359375,267.65625)"/>
<path d="M0 0 C7.86689754 3.14403691 14.03061546 8.13366632 17.70239258 15.85107422 C19.6224891 20.98711829 20.4051504 26.3893637 21.3203125 31.77734375 C21.63838867 33.54174805 21.63838867 33.54174805 21.96289062 35.34179688 C23.84378691 45.95669735 24.78929931 56.10263294 24.80078125 66.88671875 C24.80492538 68.08414703 24.80906952 69.28157532 24.81333923 70.51528931 C24.8229708 74.3735057 24.82300558 78.23161725 24.8203125 82.08984375 C24.82040314 84.05186737 24.82040314 84.05186737 24.82049561 86.05352783 C24.77471187 155.2817304 24.77471187 155.2817304 10.27734375 172.99609375 C8.6328125 174.33984375 8.6328125 174.33984375 6.65234375 174.5546875 C-1.48937886 173.53156838 -7.92536012 170.76615812 -13.578125 164.6875 C-21.38297302 154.44576712 -25.37602828 142.70832752 -28.3671875 130.33984375 C-28.55265137 129.58155273 -28.73811523 128.82326172 -28.92919922 128.04199219 C-37.59291833 91.85866925 -40.97179457 43.26433871 -21.890625 9.74609375 C-16.18564269 0.73514734 -10.79374556 -3.01013696 0 0 Z " fill="#FEF0DF" transform="translate(813.3671875,268.66015625)"/>
<path d="M0 0 C3.3 0 6.6 0 10 0 C0.94090506 21.12271383 -8.52988541 42.05933512 -18 63 C-18.34776489 63.76920776 -18.69552979 64.53841553 -19.05383301 65.33093262 C-30.22990532 90.04701432 -41.48609095 114.7238664 -53.2746582 139.15527344 C-57.18370675 147.26678733 -61.02356472 155.40934003 -64.8477478 163.56106567 C-81.14582485 198.29004498 -97.71849385 232.80773265 -117 266 C-117.67367554 267.16428798 -118.34717027 268.32868058 -119.02050781 269.49316406 C-126.78454653 282.91029091 -134.6224231 296.26524306 -143 309.31152344 C-144.91250489 312.29297792 -146.81066802 315.28246581 -148.69042969 318.28466797 C-155.66623626 329.42290698 -162.84633766 340.41097887 -170.15405273 351.33398438 C-171.93544533 353.99692854 -173.71311683 356.66232645 -175.49023438 359.328125 C-185.85957803 374.86646873 -196.38060648 390.29979035 -207.0625 405.625 C-207.73385986 406.58881592 -208.40521973 407.55263184 -209.09692383 408.5456543 C-217.68264521 420.86074412 -226.342655 433.11569382 -235.14746094 445.27514648 C-239.72869352 451.60814734 -244.25526567 457.97804057 -248.7487793 464.37353516 C-250.35317056 466.65699066 -251.95789399 468.94020264 -253.56462097 471.22201538 C-262.11272659 483.36335087 -270.53772118 495.58221305 -278.84204102 507.89160156 C-280.69333984 510.63364966 -282.55069416 513.37153119 -284.40820312 516.109375 C-291.92489936 527.22330553 -299.1207107 538.48096832 -306 550 C-307.485 552.475 -307.485 552.475 -309 555 C-183.27 555.33 -57.54 555.66 72 556 C72 556.33 72 556.66 72 557 C-295.29 557 -662.58 557 -1041 557 C-1041 556.67 -1041 556.34 -1041 556 C-1040.06393083 556.00337723 -1040.06393083 556.00337723 -1039.10895117 556.00682269 C-971.17091258 556.25122605 -903.23281171 556.47084742 -835.29437256 556.56085205 C-834.27960848 556.56220345 -833.26484439 556.56355486 -832.21932988 556.56494721 C-810.16601327 556.5941678 -788.11269376 556.61893829 -766.05936708 556.63912432 C-755.24449255 556.64905056 -744.42961913 556.65996022 -733.61474609 556.67138672 C-732.53853362 556.67250706 -731.46232115 556.6736274 -730.35349618 556.67478168 C-695.46729842 556.71155922 -660.5816572 556.81327967 -625.69571445 556.94866307 C-589.84717124 557.08743918 -553.99907673 557.16072754 -518.1502515 557.1515637 C-513.08741894 557.15030008 -508.02458656 557.14978544 -502.96175385 557.14972687 C-501.46709021 557.14967483 -501.46709021 557.14967483 -499.94223136 557.14962175 C-483.89895744 557.15098971 -467.85669391 557.2214332 -451.8137396 557.31768334 C-435.68669623 557.41296475 -419.56085074 557.43553424 -403.43359706 557.38385776 C-393.84984912 557.35535929 -384.27003719 557.38263363 -374.68682573 557.48978894 C-368.28333708 557.55589405 -361.88257399 557.54926692 -355.47908592 557.48381672 C-351.8293391 557.44858653 -348.18712389 557.44467784 -344.53802696 557.52961847 C-330.2961476 558.38082932 -330.2961476 558.38082932 -317.71846837 553.06033522 C-313.83009789 548.34119788 -311.38582445 543.17187192 -309.11475536 537.53291717 C-307.33686137 533.49323423 -304.88020001 529.96689023 -302.3671875 526.35546875 C-301.44754982 524.98614542 -300.52937133 523.61583986 -299.61328125 522.24414062 C-298.70066902 520.89182707 -297.78790853 519.53961355 -296.875 518.1875 C-295.9539734 516.81605978 -295.03340115 515.44431433 -294.11328125 514.07226562 C-292.30049747 511.37006509 -290.48495127 508.66975304 -288.66748047 505.97070312 C-286.44417216 502.66595832 -284.23570692 499.35158509 -282.03155518 496.03404236 C-277.80623421 489.67548468 -273.52440299 483.36501665 -269.125 477.125 C-268.53404541 476.28404785 -267.94309082 475.4430957 -267.33422852 474.57666016 C-266.13172459 472.86625336 -264.92837331 471.15644195 -263.72412109 469.44726562 C-262.11207234 467.15907862 -260.50292434 464.86888236 -258.89453125 462.578125 C-253.85545066 455.41049576 -248.76798298 448.28094961 -243.625 441.1875 C-237.23373396 432.36866239 -230.98482057 423.45399704 -224.75732422 414.51904297 C-222.46068048 411.22691042 -220.15685335 407.93984241 -217.85253906 404.65307617 C-216.09354943 402.14261315 -214.3376564 399.63000424 -212.58203125 397.1171875 C-210.23595607 393.76054443 -207.87822216 390.41257797 -205.51171875 387.0703125 C-169.59555814 336.13922822 -136.26777129 283.02863308 -107 228 C-106.27248535 226.6397168 -106.27248535 226.6397168 -105.53027344 225.25195312 C-93.17334701 202.1088252 -81.89694315 178.41530816 -70.92944336 154.58789062 C-67.10564481 146.30641119 -63.15098671 138.0967695 -59.14584351 129.90188599 C-51.4927641 114.23813658 -44.19316834 98.43723599 -37.04394531 82.53808594 C-34.83913187 77.63787395 -32.61917779 72.74457248 -30.3984375 67.8515625 C-20.15887125 45.28140526 -10.02788192 22.66498474 0 0 Z " fill="#E2CFB9" transform="translate(1125,87)"/>
<path d="M0 0 C18.98133692 10.98785947 26.43735857 35.86773135 31.94824219 55.90405273 C33.17715535 61.54672171 33.69616752 66.48375972 30.625 71.5 C27.88999766 73.9936786 26.91848181 74.3901247 23.1875 74.8125 C19.5 74.4375 19.5 74.4375 16.75 72.5 C14.79770952 69.84271574 14.00646602 68.36874344 13.05859375 65.34375 C12.80352051 64.54654541 12.54844727 63.74934082 12.28564453 62.92797852 C12.02638184 62.10612061 11.76711914 61.2842627 11.5 60.4375 C8.28094789 50.57210033 4.97262202 40.82152216 0.375 31.5 C0.06280518 30.85667725 -0.24938965 30.21335449 -0.57104492 29.55053711 C-2.66213062 25.47027685 -5.12664644 22.5212222 -8.5 19.4375 C-8.83 19.1075 -9.16 18.7775 -9.5 18.4375 C-15.35122771 17.54125068 -19.65843424 18.3509482 -24.46875 21.77734375 C-32.82650565 28.60820173 -38.28307351 36.09207053 -43.5 45.4375 C-43.85924057 46.03820312 -44.21848114 46.63890625 -44.58860779 47.2578125 C-45.75138849 50.03872124 -45.73308257 52.21775324 -45.71118164 55.23046875 C-45.70780289 56.40109863 -45.70442413 57.57172852 -45.70094299 58.77783203 C-45.68748337 60.04739746 -45.67402374 61.31696289 -45.66015625 62.625 C-45.65386579 63.96467652 -45.64863243 65.30435838 -45.64439392 66.64404297 C-45.6310748 70.19094269 -45.60671489 73.73767111 -45.57904053 77.28448486 C-45.53095369 83.54375899 -45.49687387 89.80309031 -45.47265625 96.0625 C-45.46976593 96.75347589 -45.46687561 97.44445179 -45.46389771 98.15636635 C-45.42668709 108.75918298 -45.6756037 119.33205573 -46.11393738 129.92643738 C-46.46827409 138.70723084 -46.6266906 147.48278986 -46.7109375 156.26953125 C-46.73235054 158.24335281 -46.73235054 158.24335281 -46.75419617 160.25704956 C-46.81180001 165.63317462 -46.86861362 171.0091653 -46.90136719 176.38549805 C-46.91829077 179.09810131 -46.94294958 181.81042097 -46.97622681 184.52287292 C-47.0068701 187.03587048 -47.02654032 189.54903478 -47.03329468 192.06221008 C-47.1365092 199.10473444 -47.32458609 204.92186317 -52.25 210.375 C-55.54609048 211.93148717 -57.90003157 211.87960139 -61.5 211.4375 C-64.71117272 209.58215576 -66.14802677 208.25108877 -67.62231445 204.84326172 C-68.700347 200.66007563 -68.76846585 196.86934395 -68.73046875 192.5703125 C-68.7304184 191.71259247 -68.73036804 190.85487244 -68.73031616 189.97116089 C-68.72669585 187.16812861 -68.70770337 184.36545824 -68.6875 181.5625 C-68.67995157 179.5898449 -68.67271205 177.61718859 -68.66577148 175.64453125 C-68.60867923 163.70545735 -68.3741592 151.78518924 -67.92871094 139.85400391 C-67.39073276 124.88654817 -67.18031031 109.91203217 -66.9375 94.9375 C-66.91513182 93.56542967 -66.89276245 92.19335936 -66.87039185 90.82128906 C-66.74366078 83.02674343 -66.62025659 75.23214818 -66.5 67.4375 C-67.49 67.1075 -68.48 66.7775 -69.5 66.4375 C-72.03417235 62.96968521 -71.85292803 59.60205079 -71.5 55.4375 C-70.99855469 54.50679688 -70.49710938 53.57609375 -69.98046875 52.6171875 C-67.36306516 46.76857473 -68.3135407 40.13070956 -68.5 33.875 C-68.57679792 31.2907499 -68.63980229 28.7060447 -68.6875 26.12109375 C-68.73970703 24.41264282 -68.73970703 24.41264282 -68.79296875 22.66967773 C-68.38613422 18.18127577 -66.75538359 14.93430351 -63.875 11.5 C-60.14433068 9.83101636 -56.38312248 10.30760432 -52.5 11.4375 C-50.72265625 12.9921875 -50.72265625 12.9921875 -49.5 14.4375 C-46.21073455 12.99844636 -44.05747727 11.18685279 -41.5 8.6875 C-30.23261268 -1.58790804 -14.31321653 -6.803754 0 0 Z " fill="#371E19" transform="translate(608.5,257.5625)"/>
<path d="M0 0 C2.52851336 16.510706 2.52851336 16.510706 -1.40917969 23.50195312 C-5.09389685 28.25913268 -9.46653928 32.27961045 -13.98681641 36.23144531 C-16.64053728 38.56270338 -19.09006615 41.04023415 -21.5625 43.5625 C-22.26503906 44.24441406 -22.96757813 44.92632813 -23.69140625 45.62890625 C-25.55607319 47.54405487 -27.28378927 49.4834228 -29.01757812 51.51318359 C-33.46945244 56.61451849 -38.23604079 61.37961503 -43.02734375 66.16015625 C-43.98481025 67.1182986 -44.94212845 68.07658916 -45.89930725 69.03501892 C-47.89373747 71.03091287 -49.88993741 73.02501452 -51.88745117 75.01782227 C-54.42674399 77.55141863 -56.96151903 80.08947983 -59.49497128 82.62891483 C-61.46732184 84.60490703 -63.44208263 86.57847679 -65.41754341 88.55135918 C-66.80126628 89.93410599 -68.18300314 91.3188393 -69.56468201 92.70362854 C-74.00107206 97.12371456 -78.48529941 101.41852937 -83.24822998 105.48634338 C-86.36484578 108.17932595 -89.32349261 111.0422416 -92.3125 113.875 C-97.47584688 118.7302881 -102.72977415 123.37388525 -108.26953125 127.80078125 C-111.33432517 130.26927764 -114.32221296 132.81738828 -117.3125 135.375 C-127.25695799 143.84006822 -137.63967213 151.75486808 -148.00390625 159.6953125 C-151.48838816 162.3756832 -154.94438872 165.09099399 -158.390625 167.8203125 C-160 169 -160 169 -161 169 C-163.20777165 153.36570594 -163.20777165 153.36570594 -159.75341797 148.09960938 C-156.32050294 144.56932896 -152.22858136 141.95626134 -148.078125 139.34423828 C-144.84233111 137.25116014 -141.8760795 134.84942357 -138.875 132.4375 C-137.72022925 131.53232602 -136.56528209 130.62737704 -135.41015625 129.72265625 C-131.42223137 126.56350936 -127.54201498 123.28244805 -123.67651367 119.9753418 C-120.39499825 117.16867098 -117.06478722 114.44174832 -113.6875 111.75 C-106.91142082 106.23642175 -100.64394996 100.18646031 -94.31591797 94.17236328 C-92.17451619 92.16369861 -90.00611447 90.18755316 -87.8326416 88.21376038 C-78.71793401 79.90414269 -70.02347677 71.174581 -61.31396484 62.44433594 C-58.61279114 59.73776675 -55.90626571 57.03663104 -53.19921875 54.3359375 C-51.45801235 52.5940708 -49.71711591 50.8518942 -47.9765625 49.109375 C-47.17852203 48.31335876 -46.38048157 47.51734253 -45.55825806 46.69720459 C-41.40269427 42.52436758 -37.40006951 38.28110876 -33.5788269 33.79901123 C-30.71731562 30.53843155 -27.59598221 27.5357275 -24.5 24.5 C-20.03334014 20.08121664 -15.68494626 15.65160313 -11.625 10.8515625 C-2.10126582 0 -2.10126582 0 0 0 Z " fill="#F0DDC5" transform="translate(717,954)"/>
<path d="M0 0 C7.89227523 2.47600792 11.56535709 9.02000501 15.2890625 15.94921875 C20.10268027 25.67022607 23.33852408 37.34211134 23.28515625 48.17578125 C23.28193359 49.33271484 23.27871094 50.48964844 23.27539062 51.68164062 C23.26282227 53.47891602 23.26282227 53.47891602 23.25 55.3125 C23.24548828 56.53001953 23.24097656 57.74753906 23.23632812 59.00195312 C23.22456578 62.00135226 23.20812826 65.00065089 23.1875 68 C18.59359531 68.85315373 14.041212 69.27497553 9.3828125 69.53515625 C8.2968428 69.59962196 8.2968428 69.59962196 7.18893433 69.66539001 C4.89695385 69.80076148 2.60474546 69.93170037 0.3125 70.0625 C-1.25001723 70.15400313 -2.81251746 70.24579707 -4.375 70.33789062 C-8.18731162 70.56195746 -11.99983389 70.78205179 -15.8125 71 C-16.36634647 16.2828094 -16.36634647 16.2828094 -4.33203125 1.13671875 C-2.8125 0 -2.8125 0 0 0 Z " fill="#FCEFDD" transform="translate(694.8125,276)"/>
<path d="M0 0 C10.00995941 0.55681911 19.90186673 1.44107092 29.83203125 2.85546875 C30.54800791 2.95667715 31.26398457 3.05788555 32.00165749 3.16216087 C56.12179004 6.62521615 79.98137744 11.72666902 103.85864258 16.54168701 C110.32166634 17.84280171 116.78691262 19.13277888 123.25195312 20.42382812 C135.83677506 22.93861668 148.41917692 25.46528741 161 28 C161 30.97 161 33.94 161 37 C150.16851275 35.51629186 139.48851065 33.36971736 128.77654839 31.20688248 C125.54662313 30.55528907 122.31581781 29.90823352 119.08473206 29.26242065 C109.90516375 27.4272063 100.72659951 25.5870642 91.55004883 23.73681641 C61.12343018 17.60566514 30.93304325 11.89521094 0 9 C0 6.03 0 3.06 0 0 Z " fill="#F0DDC5" transform="translate(556,723)"/>
<path d="M0 0 C0.33 0 0.66 0 1 0 C1 12.21 1 24.42 1 37 C-3.29 37 -7.58 37 -12 37 C-10.85859309 30.67836174 -9.31930918 24.99127379 -7 19 C-6.38887781 17.35529647 -5.78091726 15.70941543 -5.17578125 14.0625 C-4.86962891 13.23105469 -4.56347656 12.39960937 -4.24804688 11.54296875 C-3.93931641 10.70378906 -3.63058594 9.86460937 -3.3125 9 C-2.99216797 8.12988281 -2.67183594 7.25976562 -2.34179688 6.36328125 C-1.56098366 4.24226625 -0.78038863 2.12117124 0 0 Z " fill="#FEF0DE" transform="translate(1196,606)"/>
<path d="M0 0 C1.32 0.33 2.64 0.66 4 1 C2.02 3.97 0.04 6.94 -2 10 C-3 8 -3 8 -2.44140625 6.0546875 C-2.15136719 5.33539063 -1.86132812 4.61609375 -1.5625 3.875 C-1.27503906 3.15054687 -0.98757812 2.42609375 -0.69140625 1.6796875 C-0.46324219 1.12539063 -0.23507813 0.57109375 0 0 Z " fill="#F9EAD6" transform="translate(95,380)"/>
</svg>
