<?xml version="1.0" encoding="UTF-8"?>
<svg version="1.1" xmlns="http://www.w3.org/2000/svg" width="1280" height="1280">
<path d="M0 0 C370.59 0 741.18 0 1123 0 C1123 186.45 1123 372.9 1123 565 C964.6 565 806.2 565 643 565 C643 761.35 643 957.7 643 1160 C586.9 1160 530.8 1160 473 1160 C473 963.65 473 767.3 473 565 C316.91 565 160.82 565 0 565 C0 378.55 0 192.1 0 0 Z " fill="#FDF0DD" transform="translate(79,83)"/>
<path d="M0 0 C370.59 0 741.18 0 1123 0 C1123 186.45 1123 372.9 1123 565 C964.6 565 806.2 565 643 565 C643 761.35 643 957.7 643 1160 C586.9 1160 530.8 1160 473 1160 C473 963.65 473 767.3 473 565 C316.91 565 160.82 565 0 565 C0 378.55 0 192.1 0 0 Z M5 4 C5 187.48 5 370.96 5 560 C129.84429477 560.68888929 129.84429477 560.68888929 254.68894279 561.15595913 C272.77020672 561.20494775 290.85146698 561.25505768 308.93271799 561.30862385 C311.11976301 561.31510004 313.30680815 561.32154095 315.49385338 561.32794613 C350.35486676 561.43033592 385.21494543 561.6104137 420.07539389 561.8311333 C455.90620153 562.05758448 491.73649239 562.20526592 527.56800353 562.25395976 C532.62987515 562.26087539 537.691745 562.26869067 542.75361443 562.27705383 C543.74985458 562.27867199 544.74609473 562.28029014 545.77252398 562.28195732 C561.80435428 562.31031022 577.8345858 562.42159564 593.8657643 562.56396881 C609.98613752 562.70536163 626.10492734 562.75920934 642.22589881 562.72403306 C651.80314195 562.7057872 661.37458696 562.75431707 670.95078164 562.89914103 C677.35349979 562.98934754 683.75243613 562.99180728 690.15541864 562.92396353 C693.80342289 562.8877938 697.4405074 562.88877036 701.08732349 562.99719638 C715.81347534 563.77696559 715.81347534 563.77696559 728.57067041 557.67990315 C733.21005354 551.97406373 736.43568156 545.7215116 739.49739432 539.06818897 C741.89435179 534.17381212 744.9444382 529.75900222 748.02734375 525.27734375 C749.17442842 523.56043289 750.31984382 521.84240448 751.46289062 520.12280273 C752.62081719 518.3941832 753.77902507 516.66575208 754.9375 514.9375 C756.16473739 513.10165982 757.39195063 511.2658035 758.61914062 509.42993164 C767.26443698 496.51361367 776.0287489 483.69247984 785 471 C786.05653279 469.49517291 787.11253516 467.98997324 788.16796875 466.484375 C793.7120546 458.58755428 799.33966798 450.75439367 805.00244141 442.94238281 C810.27849702 435.64721225 815.43538708 428.2707762 820.5859375 420.88671875 C823.76691242 416.32720162 826.97440261 411.78690819 830.1875 407.25 C835.04041538 400.38892617 839.83873827 393.49224077 844.5703125 386.546875 C846.03994377 384.38989089 847.53115072 382.26083208 849.0546875 380.140625 C849.61414063 379.35171875 850.17359375 378.5628125 850.75 377.75 C851.21921875 377.10546875 851.6884375 376.4609375 852.171875 375.796875 C853.16123258 374.03680473 853.16123258 374.03680473 852.84375 372.078125 C851.7811567 369.46099705 850.34579296 367.33124537 848.75 365 C835.79411066 344.74650768 834.33747639 319.46430326 831.875 296.0625 C831.62097703 293.72379057 831.36690729 291.38508622 831.11279297 289.04638672 C828.86990677 268.06883577 827.2652871 247.05725772 826 226 C824.76697144 225.98598145 824.76697144 225.98598145 823.5090332 225.97167969 C819.77625038 225.91792129 816.04471319 225.83428169 812.3125 225.75 C811.01892578 225.73582031 809.72535156 225.72164062 808.39257812 225.70703125 C806.52182617 225.65869141 806.52182617 225.65869141 804.61328125 225.609375 C803.46641846 225.58842773 802.31955566 225.56748047 801.13793945 225.54589844 C797.35749825 224.88822579 795.67749377 223.71186351 793 221 C791.85990229 217.08091414 791.59111368 214.96841496 793.1875 211.1875 C795.8081698 208.02462266 797.84123543 207.12598622 801.93261719 206.68115234 C803.04282227 206.64973145 804.15302734 206.61831055 805.296875 206.5859375 C806.92641113 206.53252197 806.92641113 206.53252197 808.58886719 206.47802734 C809.97590996 206.44362457 811.36295454 206.40929448 812.75 206.375 C815.11362469 206.30874158 817.47723039 206.24180375 819.84082031 206.17431641 C822.92041016 206.0871582 822.92041016 206.0871582 826 206 C826.00586624 205.33458694 826.01173248 204.66917389 826.01777649 203.9835968 C826.08172096 197.05657423 826.16614391 190.13001579 826.26245117 183.20336914 C826.29570111 180.61847046 826.32373277 178.03349916 826.34643555 175.44848633 C826.37997927 171.73226991 826.43229728 168.01671899 826.48828125 164.30078125 C826.49467117 163.14540359 826.5010611 161.99002594 826.50764465 160.79963684 C826.52743881 159.71889389 826.54723297 158.63815094 826.56762695 157.5246582 C826.57873001 156.57645706 826.58983307 155.62825592 826.60127258 154.65132141 C827.07669621 151.49001172 828.14042308 149.58018184 830 147 C833.15796107 145.42101947 836.60670636 145.18071829 840 146 C842.44795921 147.65342185 843.55181394 148.505486 845 151 C845.77041564 155.16441684 845.72114731 159.29383985 845.70703125 163.51953125 C845.72215256 164.73323898 845.73727386 165.94694672 845.75285339 167.19743347 C845.79579896 171.0693103 845.80457572 174.94040851 845.8125 178.8125 C845.83563873 181.43947393 845.86100275 184.06642926 845.88867188 186.69335938 C845.95159245 193.12891358 845.986472 199.56416267 846 206 C846.96824707 205.97905273 847.93649414 205.95810547 848.93408203 205.93652344 C852.54574645 205.86381488 856.15734691 205.81808944 859.76953125 205.78027344 C861.32921244 205.76022778 862.88881913 205.73298343 864.44824219 205.69824219 C866.69745314 205.64940874 868.9456659 205.62696185 871.1953125 205.609375 C871.8861795 205.58872986 872.57704651 205.56808472 873.28884888 205.54681396 C878.33366175 205.54450544 881.09311466 206.88809096 885 210 C887 212 887 212 887.3125 214.8125 C886.95719707 218.43658984 886.27731036 220.17299404 884 223 C879.85840561 225.15210197 876.13330339 225.30358637 871.51171875 225.4140625 C870.4569207 225.44311172 870.4569207 225.44311172 869.3808136 225.4727478 C867.14982981 225.53220183 864.91879346 225.57879049 862.6875 225.625 C861.16859814 225.66321137 859.64971722 225.70226492 858.13085938 225.7421875 C854.42076533 225.83787416 850.71051349 225.92203072 847 226 C846.46776439 245.00278265 847.95307334 263.69113938 849.7689209 282.58325195 C850.00147394 285.01541528 850.2282668 287.44806383 850.45410156 289.88085938 C852.51071617 312.41919657 852.51071617 312.41919657 856.4375 334.6875 C856.61845215 335.5110498 856.7994043 336.33459961 856.98583984 337.18310547 C859.51754774 347.47612761 864.1349914 356.23033539 872.9453125 362.3515625 C876.40522673 364.34610129 879.23307154 365.3084344 883.25 365.0625 C886.97281293 364.27385892 886.97281293 364.27385892 889.3125 362.125 C893.9716913 353.49686796 894.34630962 344.79759191 894 335.1875 C893.53010291 321.91290718 893.53010291 321.91290718 897 317 C900.12942465 315.43528767 903.61082223 315.30298042 907 316 C912.01463134 319.95700001 912.86569661 324.96418124 914 331 C915.65101242 345.24950722 912.21140716 363.46741984 903.6953125 375.12890625 C897.84767129 381.5828697 890.5390519 383.63394743 882.125 384.3125 C875.91560269 384.14137488 870.0530787 382.1025793 864.625 379.1875 C862.1293223 377.69328911 862.1293223 377.69328911 859.99365234 378.71142578 C857.82662831 380.1120568 856.85508082 381.26603031 855.4765625 383.4296875 C855.02039551 384.13206543 854.56422852 384.83444336 854.09423828 385.55810547 C853.60938965 386.32268066 853.12454102 387.08725586 852.625 387.875 C851.55419752 389.52220964 850.48119786 391.16799259 849.40625 392.8125 C848.84808594 393.6684375 848.28992188 394.524375 847.71484375 395.40625 C844.93035095 399.61787464 842.0318963 403.74729681 839.125 407.875 C838.24944458 409.11975098 838.24944458 409.11975098 837.35620117 410.38964844 C836.16682689 412.07976901 834.97696563 413.769547 833.78662109 415.45898438 C832.00391085 417.99443781 830.22912235 420.53524035 828.45703125 423.078125 C822.29595329 431.91611453 816.07538092 440.70450846 809.75146484 449.42675781 C804.09487037 457.23358009 798.53957304 465.10988853 793 473 C792.17048828 474.17949219 792.17048828 474.17949219 791.32421875 475.3828125 C782.78711813 487.52361023 774.31929972 499.70877808 766 512 C764.9469165 513.55412598 764.9469165 513.55412598 763.87255859 515.13964844 C746.26371887 536.71636597 746.26371887 536.71636597 736 560 C756.65853486 562.71735712 756.65853486 562.71735712 775.57421875 556.71875 C779.00048891 553.52089785 781.83714559 549.98115805 784.49755859 546.13085938 C788.99450178 539.7530043 794.65773472 534.16848226 800 528.5 C804.76641548 523.41412134 809.47743911 518.30531181 814 513 C815.9572932 510.70744331 817.91590474 508.41601686 819.875 506.125 C820.65508423 505.21161865 820.65508423 505.21161865 821.45092773 504.27978516 C824.47957834 500.74280636 827.55187183 497.25565037 830.6875 493.8125 C834.41031924 489.70410305 837.94441799 485.47511015 841.4296875 481.1640625 C843.35180461 478.7871519 845.29965269 476.43324057 847.2578125 474.0859375 C855.15292513 464.60784489 862.70978883 454.94969938 870 445 C870.48726562 444.3404834 870.97453125 443.6809668 871.4765625 443.00146484 C878.90964713 432.93420787 886.02552264 422.65858107 893.0625 412.3125 C893.47791046 411.70313599 893.89332092 411.09377197 894.32131958 410.46594238 C898.43471764 404.42533494 902.46389361 398.40069258 906 392 C906.96127641 390.52981255 907.93836817 389.06972802 908.9375 387.625 C914.62912895 379.34734132 914.62912895 379.34734132 918 370 C918.66 370 919.32 370 920 370 C920.81752303 368.41925436 921.62881997 366.83528777 922.4375 365.25 C922.88996094 364.36828125 923.34242188 363.4865625 923.80859375 362.578125 C924.83455398 360.35801434 925.51508603 358.38555381 926 356 C926.66 356 927.32 356 928 356 C928.31453125 355.3709375 928.6290625 354.741875 928.953125 354.09375 C929.59507812 352.80984375 929.59507812 352.80984375 930.25 351.5 C930.70246094 350.5925 931.15492188 349.685 931.62109375 348.75 C932.479826 347.03740084 933.34575748 345.32836886 934.22265625 343.625 C936.26839016 340.00084161 936.26839016 340.00084161 937 336 C937.66 336 938.32 336 939 336 C940.33957921 333.21128823 941.67058435 330.41856938 943 327.625 C943.3815625 326.8309375 943.763125 326.036875 944.15625 325.21875 C944.5171875 324.45820313 944.878125 323.69765625 945.25 322.9140625 C945.58515625 322.2123291 945.9203125 321.5105957 946.265625 320.78759766 C947.12666664 319.01376552 947.12666664 319.01376552 947 317 C947.66 317 948.32 317 949 317 C951.49552443 312.05880027 953.9855298 307.11487096 956.47070312 302.16845703 C957.31493518 300.48998193 958.16060858 298.81223093 959.0078125 297.13525391 C965.07855401 285.27651552 965.07855401 285.27651552 970.19995117 272.99047852 C971.45909979 269.85778438 973.16936332 266.9972031 974.84765625 264.07421875 C976.47523206 261.14458229 977.71917333 258.09533111 979 255 C979.78716804 253.26878079 980.5792989 251.53981388 981.375 249.8125 C983.17140293 245.88623013 984.86641195 241.93413996 986.5 237.9375 C988.40279621 233.31471924 990.53545053 228.880956 992.8125 224.43359375 C994.36127847 221.25961682 995.65224651 218.01323381 996.91015625 214.71484375 C997.79861911 212.50164773 998.73470514 210.33496936 999.7109375 208.16015625 C1012.03534023 180.57804677 1022.80300129 152.32612402 1033.63769531 124.13720703 C1035.90074869 118.25240971 1038.178712 112.37347779 1040.4609375 106.49609375 C1051.91526963 76.98433065 1063.24023185 47.42106144 1073.9375 17.625 C1074.35700928 16.4596875 1074.77651855 15.294375 1075.20874023 14.09375 C1075.58200439 13.04445313 1075.95526855 11.99515625 1076.33984375 10.9140625 C1076.66331787 10.0060791 1076.98679199 9.0980957 1077.32006836 8.16259766 C1078.09997674 6.05984065 1078.09997674 6.05984065 1078 4 C723.91 4 369.82 4 5 4 Z " fill="#F0DDC5" transform="translate(79,83)"/>
<path d="M0 0 C53.13 0 106.26 0 161 0 C161 194.04 161 388.08 161 588 C107.87 588 54.74 588 0 588 C0 393.96 0 199.92 0 0 Z " fill="#FEF1DF" transform="translate(556,650)"/>
<path d="M0 0 C0.33 0 0.66 0 1 0 C1 83.49 1 166.98 1 253 C-52.13 253 -105.26 253 -160 253 C-160 231.55 -160 210.1 -160 188 C-144.57626045 173.60450975 -144.57626045 173.60450975 -138.94580078 168.74951172 C-134.9474235 165.15448392 -131.17428265 161.3214099 -127.3815918 157.51196289 C-125.93974779 156.06475615 -124.49262884 154.62297974 -123.04492188 153.18164062 C-118.35756143 148.49764149 -113.79068932 143.75601249 -109.4777832 138.72290039 C-107.4192706 136.32294608 -105.27033622 134.0098084 -103.125 131.6875 C-99.05459944 127.22477168 -95.19823091 122.63742 -91.40625 117.9375 C-88.70220726 114.63646081 -85.9187381 111.41248327 -83.125 108.1875 C-78.67338253 103.03229197 -74.39557422 97.77215236 -70.2175293 92.39355469 C-66.68832332 87.85447226 -63.07717163 83.38834699 -59.4375 78.9375 C-54.73925261 73.18118756 -50.14938638 67.36256339 -45.64453125 61.453125 C-43.70214735 58.90705744 -41.73732155 56.379753 -39.76171875 53.859375 C-32.48128995 44.56782902 -25.38090426 35.1665573 -18.41015625 25.640625 C-14.60094264 20.4396043 -10.72273846 15.29114468 -6.81787109 10.16162109 C-4.32811992 6.86844267 -2.12346526 3.54584993 0 0 Z " fill="#F0DDC5" transform="translate(716,985)"/>
<path d="M0 0 C2.24658203 -0.34057617 2.24658203 -0.34057617 5.0078125 -0.29296875 C5.99394531 -0.28330078 6.98007813 -0.27363281 7.99609375 -0.26367188 C9.02863281 -0.23853516 10.06117188 -0.21339844 11.125 -0.1875 C12.68541016 -0.16719727 12.68541016 -0.16719727 14.27734375 -0.14648438 C16.85207627 -0.11105228 19.4257833 -0.06165221 22 0 C19.19616189 9.8845452 15.71038539 19.51847262 12.25 29.1875 C11.92119843 30.10771942 11.59239685 31.02793884 11.25363159 31.9760437 C4.46233579 50.95489825 -2.71198271 69.77366634 -10.0435791 88.54931641 C-11.0054896 91.01406626 -11.96548072 93.47955486 -12.92480469 95.9453125 C-16.54805497 105.25815697 -20.18148077 114.5669638 -23.82342529 123.87251282 C-26.05558958 129.57827462 -28.27976391 135.28709519 -30.49928284 140.99778748 C-32.08988909 145.0891499 -33.68337412 149.17938819 -35.27719116 153.26950073 C-36.03397489 155.21346019 -36.78958509 157.15787703 -37.54385376 159.10281372 C-42.46702481 171.79461746 -47.64474128 184.34859026 -53.06660461 196.83547974 C-54.34315877 199.7957765 -55.5812337 202.77059695 -56.8125 205.75 C-59.51152121 212.25344361 -62.29955011 218.66344732 -65.5 224.9375 C-67.13443858 228.16180157 -68.58236615 231.37478938 -69.875 234.75 C-71.75129928 239.60092008 -74.06397144 244.1917412 -76.42871094 248.81616211 C-78.56724265 253.03394977 -80.3545476 257.29417811 -82.0390625 261.70703125 C-83.34898273 264.83273521 -85.03214575 267.6907109 -86.72607422 270.62084961 C-87.9066262 272.82561753 -88.80422543 274.96306045 -89.671875 277.3046875 C-92.55287957 284.63987677 -96.19369704 291.60092582 -99.75 298.625 C-100.45480262 300.02455053 -101.15923249 301.42428884 -101.86328125 302.82421875 C-103.57123604 306.21832355 -105.28419798 309.60985587 -107 313 C-107.66 313 -108.32 313 -109 313 C-109.15855469 313.53367187 -109.31710937 314.06734375 -109.48046875 314.6171875 C-111.40053915 320.74868303 -114.00234357 326.32459514 -117 332 C-117.66 332 -118.32 332 -119 332 C-119.18175781 332.59167969 -119.36351562 333.18335938 -119.55078125 333.79296875 C-120.96490651 338.23839842 -122.4473148 342.06461032 -125 346 C-126.0150089 347.99242489 -127.01873444 349.99074195 -128 352 C-128.66 352 -129.32 352 -130 352 C-130.11214844 352.55171875 -130.22429687 353.1034375 -130.33984375 353.671875 C-131.11360773 356.40065211 -132.26817694 358.72772943 -133.5625 361.25 C-134.01753906 362.14203125 -134.47257813 363.0340625 -134.94140625 363.953125 C-135.46541016 364.96632813 -135.46541016 364.96632813 -136 366 C-136.66 366 -137.32 366 -138 366 C-138.1697937 366.85235229 -138.1697937 366.85235229 -138.34301758 367.72192383 C-139.07741097 370.26842132 -140.14106278 372.18226293 -141.51171875 374.44921875 C-142.02283203 375.29806641 -142.53394531 376.14691406 -143.06054688 377.02148438 C-143.59744141 377.90126953 -144.13433594 378.78105469 -144.6875 379.6875 C-145.20505859 380.54794922 -145.72261719 381.40839844 -146.25585938 382.29492188 C-149.68917094 387.96865096 -153.29390833 393.50191302 -157 399 C-158.10035601 400.65923019 -159.1992673 402.31941923 -160.296875 403.98046875 C-179.58792568 433.0999246 -200.64246534 460.73272171 -223.44726562 487.19287109 C-224.98645982 488.98424144 -226.51787119 490.78195887 -228.046875 492.58203125 C-233.75446696 499.29342936 -239.5724139 505.87225684 -245.5546875 512.33984375 C-247.55160793 514.51221246 -249.50828734 516.70539163 -251.4375 518.9375 C-255.47821363 523.59541094 -259.6832238 528.09964195 -263.875 532.62109375 C-265.90589748 534.81262363 -267.92703721 537.01236647 -269.9375 539.22265625 C-270.4109082 539.7424707 -270.88431641 540.26228516 -271.37207031 540.79785156 C-272.66073445 542.21437748 -273.94762129 543.6325197 -275.234375 545.05078125 C-275.67523437 545.50469238 -276.11609375 545.95860352 -276.5703125 546.42626953 C-278.0860621 548.0298518 -278.0860621 548.0298518 -279.4921875 550.11669922 C-282.61271107 554.07070343 -284.76733135 555.79452901 -289.82714844 556.63793945 C-294.39310704 556.8852325 -298.93572023 556.69934638 -303.5 556.5 C-305.10147339 556.45981734 -306.70304386 556.42332495 -308.3046875 556.390625 C-312.20554525 556.30300466 -316.10169248 556.16529027 -320 556 C-316.93760194 549.55995702 -313.35939646 543.61645509 -309.5 537.625 C-308.8819751 536.66037842 -308.2639502 535.69575684 -307.62719727 534.7019043 C-290.77765425 508.48262437 -273.0443061 482.80455989 -254.75170898 457.57348633 C-246.09624595 445.62834253 -237.65947202 433.52805593 -229.20898438 421.4375 C-226.47412721 417.52626312 -223.73466254 413.61868742 -220.97265625 409.7265625 C-220.48982178 409.0459375 -220.0069873 408.3653125 -219.50952148 407.6640625 C-218.550054 406.31203408 -217.58993724 404.96046617 -216.62915039 403.609375 C-213.70191477 399.47290473 -210.84402769 395.29595446 -208.0234375 391.0859375 C-207.34531006 390.07708496 -206.66718262 389.06823242 -205.96850586 388.02880859 C-204.63421704 386.03900368 -203.30667962 384.04465171 -201.98657227 382.04541016 C-201.38127686 381.1435498 -200.77598145 380.24168945 -200.15234375 379.3125 C-199.61601318 378.50425781 -199.07968262 377.69601562 -198.52709961 376.86328125 C-197 375 -197 375 -194 374 C-191.4765625 374.9609375 -191.4765625 374.9609375 -188.625 376.375 C-179.76825192 380.74237715 -171.71077412 381.07371556 -162.38671875 377.9609375 C-154.57020168 374.81386189 -150.37361977 369.67352243 -147 362 C-144.16430994 353.62262416 -142.37341579 344.83750702 -142 336 C-141.9484375 335.2678125 -141.896875 334.535625 -141.84375 333.78125 C-141.55729468 327.00180749 -142.39886877 319.18355844 -146.796875 313.80078125 C-149.11586475 311.90529494 -151.17187288 310.94270904 -154 310 C-149.5364496 302.07063399 -144.95414045 294.22634773 -140.25 286.4375 C-129.67981577 268.8974125 -119.67880537 251.04593698 -110 233 C-109.5369043 232.13842285 -109.07380859 231.2768457 -108.59667969 230.38916016 C-95.43227262 205.79982898 -83.40993498 180.57966786 -71.75756836 155.24414062 C-68.12714593 147.36789282 -64.3792971 139.55670175 -60.5763855 131.76296997 C-53.12552602 116.48769228 -46.03539853 101.0676386 -39.06005859 85.5703125 C-36.84749497 80.65724347 -34.62132697 75.75038107 -32.39453125 70.84375 C-22.78707079 49.66481468 -22.78707079 49.66481468 -13.3046875 28.4296875 C-12.74626411 27.16953575 -12.74626411 27.16953575 -12.17655945 25.88392639 C-10.41255768 21.90083101 -8.65267488 17.91597949 -6.89868164 13.9284668 C-6.27494231 12.51609563 -5.65116525 11.10374113 -5.02734375 9.69140625 C-4.74805023 9.05286713 -4.46875671 8.414328 -4.18099976 7.75643921 C-2.95121584 4.97758266 -1.69288541 2.53932812 0 0 Z " fill="#FEF1DF" transform="translate(1135,87)"/>
<path d="M0 0 C370.59 0 741.18 0 1123 0 C1123 186.45 1123 372.9 1123 565 C964.6 565 806.2 565 643 565 C643 761.35 643 957.7 643 1160 C586.9 1160 530.8 1160 473 1160 C473 963.65 473 767.3 473 565 C316.91 565 160.82 565 0 565 C0 378.55 0 192.1 0 0 Z M5 4 C5 187.81 5 371.62 5 561 C372.29 561 739.58 561 1118 561 C1118 377.19 1118 193.38 1118 4 C750.71 4 383.42 4 5 4 Z M477 567 C477 761.04 477 955.08 477 1155 C530.13 1155 583.26 1155 638 1155 C638 960.96 638 766.92 638 567 C584.87 567 531.74 567 477 567 Z " fill="#381F1A" transform="translate(79,83)"/>
<path d="M0 0 C0.79051758 0.27070313 1.58103516 0.54140625 2.39550781 0.8203125 C11.16657806 3.94792484 17.87737024 8.39690489 24.0625 15.375 C24.0625 16.035 24.0625 16.695 24.0625 17.375 C25.25875 17.148125 26.455 16.92125 27.6875 16.6875 C31.983617 16.16284146 34.44237406 16.84933074 38.0625 19.375 C41.33338177 23.56938769 41.49411993 27.41214177 41.46313477 32.54125977 C41.47360336 33.75771683 41.47360336 33.75771683 41.48428345 34.99874878 C41.5043037 37.68807333 41.50376052 40.37701353 41.50390625 43.06640625 C41.51570755 44.96842957 41.52907839 46.87044373 41.54393005 48.77244568 C41.58018919 53.80727395 41.60029983 58.84202167 41.61547852 63.87695312 C41.64315618 72.77354832 41.68981571 81.67000064 41.75390625 90.56640625 C41.76060963 91.53200092 41.767313 92.4975956 41.77421951 93.49245071 C41.93913966 114.80127636 42.61318089 136.17457917 44.86070251 157.37754822 C45.27485852 161.47698807 45.3280404 165.57070825 45.375 169.6875 C45.40400391 170.55439453 45.43300781 171.42128906 45.46289062 172.31445312 C45.50490733 176.53228398 45.44433186 178.76170717 43.16796875 182.41796875 C40.43495345 184.95830394 39.51954421 185.33188262 35.75 185.6875 C31.44323959 185.3225203 30.03766014 184.43516472 27.0625 181.375 C24.56057881 177.62493696 24.52602374 173.47857851 24.2109375 169.109375 C24.14717926 168.31597717 24.08342102 167.52257935 24.01773071 166.70513916 C23.81652167 164.17896875 23.62686303 161.65208326 23.4375 159.125 C23.30284485 157.40879425 23.16743682 155.69264739 23.03125 153.9765625 C22.69960355 149.77667427 22.37831088 145.57610746 22.0625 141.375 C21.73419189 142.3954541 21.40588379 143.4159082 21.06762695 144.46728516 C20.62476091 145.8246256 20.18163169 147.1818802 19.73828125 148.5390625 C19.52337036 149.20945557 19.30845947 149.87984863 19.08703613 150.57055664 C15.64448707 161.05512003 9.09013278 172.32473405 -0.8125 177.875 C-8.09507988 180.96156218 -15.12544131 181.02772227 -22.55859375 178.4453125 C-26.55085759 176.64912155 -29.70996177 174.31158615 -32.9375 171.375 C-33.52144531 170.85679687 -34.10539063 170.33859375 -34.70703125 169.8046875 C-53.6951521 150.68797893 -58.16593404 114.83899666 -58.12036133 89.27270508 C-58.03307502 80.54968004 -57.21821289 71.99846678 -55.9375 63.375 C-55.75445312 62.12460937 -55.57140625 60.87421875 -55.3828125 59.5859375 C-51.89497827 39.47706607 -43.02250755 13.44328956 -25.95703125 0.921875 C-17.38174032 -4.27083849 -9.06382619 -3.1539796 0 0 Z " fill="#351C17" transform="translate(560.9375,271.625)"/>
<path d="M0 0 C12.45850597 10.72150274 21.5551639 23.67735652 23.8125 40.3125 C24.92164034 55.84046481 22.54726459 71.17486002 12.2578125 83.48828125 C9.56282818 86.55552717 6.71174653 89.43835517 3.8125 92.3125 C3.17699219 92.98152344 2.54148437 93.65054688 1.88671875 94.33984375 C-9.00444113 104.9895145 -23.66803956 109.41341189 -38.5234375 109.34375 C-39.77431152 109.33923828 -41.02518555 109.33472656 -42.31396484 109.33007812 C-43.26223145 109.32427734 -44.21049805 109.31847656 -45.1875 109.3125 C-45.17861755 110.21372589 -45.16973511 111.11495178 -45.1605835 112.04348755 C-45.08034877 120.54749735 -45.01949045 129.05137955 -44.98025131 137.55568123 C-44.95939962 141.92758491 -44.93112658 146.29917514 -44.88574219 150.67089844 C-44.84219753 154.89194687 -44.8183447 159.11269429 -44.80799103 163.33395004 C-44.80061506 164.94228731 -44.78621133 166.55060859 -44.76457977 168.15881729 C-44.73542988 170.41629547 -44.73154863 172.67253889 -44.73339844 174.93017578 C-44.72451599 176.21368927 -44.71563354 177.49720276 -44.70648193 178.8196106 C-45.27648456 182.95865705 -46.5348111 185.11678787 -49.1875 188.3125 C-52.82532632 189.52510877 -55.36485999 189.70794552 -59.1875 189.3125 C-62.65982779 186.59502608 -64.41285671 184.61497861 -65.1875 180.3125 C-65.27949108 178.91983356 -65.32474656 177.52358027 -65.33226013 176.12789917 C-65.34260788 174.885467 -65.34260788 174.885467 -65.35316467 173.61793518 C-65.35577805 172.71647263 -65.35839142 171.81501007 -65.36108398 170.88623047 C-65.367771 169.92898575 -65.37445801 168.97174103 -65.38134766 167.98548889 C-65.39541014 165.89958854 -65.40730037 163.81367268 -65.41729546 161.72774887 C-65.43383658 158.38054911 -65.45710083 155.03345578 -65.48219299 151.68630981 C-65.55245138 142.16495227 -65.6117338 132.64354119 -65.66430664 123.12207031 C-65.87256972 86.38003195 -66.46690433 49.69697285 -69.8203125 13.0859375 C-70.47274139 5.10099871 -70.7569467 -0.07877096 -65.828125 -6.76953125 C-52.50344607 -22.34671542 -13.43303653 -10.22391907 0 0 Z " fill="#351C17" transform="translate(363.1875,275.6875)"/>
<path d="M0 0 C12.47057097 8.68230228 18.15966276 23.93378347 20.97184753 38.30508423 C23.41562029 52.42028342 23.74698462 66.86669002 23.69140625 81.15625 C23.69016754 82.53112579 23.69016754 82.53112579 23.68890381 83.93377686 C23.64784234 104.5237263 22.88349712 125.09777446 22.10256577 145.67037964 C22.00437971 148.26872052 21.90849207 150.86713883 21.81289673 153.46557617 C21.65906301 157.61425972 21.4958639 161.76248104 21.32552147 165.91051865 C21.26319704 167.44959872 21.20322936 168.98877642 21.1458683 170.52804947 C20.27518845 193.63405025 20.27518845 193.63405025 16.37890625 199.84375 C13.19068308 202.73307725 10.73609321 203.07069885 6.41796875 202.9921875 C4.37890625 202.65625 4.37890625 202.65625 1.44140625 200.65625 C-2.28037776 195.24274598 -1.71708641 190.22632684 -1.1953125 183.953125 C1.22312813 151.31049644 1.58413325 118.44789128 1.62522507 85.72421646 C1.62887223 83.61343907 1.63616995 81.50270163 1.64431763 79.39193726 C2.9512443 47.24633483 2.9512443 47.24633483 -9.62109375 18.65625 C-12.03209492 17.17262807 -12.03209492 17.17262807 -14.62109375 17.65625 C-27.59213626 26.62965974 -34.43444446 44.58515382 -39.30859375 58.96875 C-39.58203613 59.773125 -39.85547852 60.5775 -40.13720703 61.40625 C-44.92996042 76.16387615 -47.57716613 91.25980281 -49.68359375 106.59375 C-49.81182526 107.50967926 -49.94005676 108.42560852 -50.07217407 109.36929321 C-52.27835004 125.25933244 -53.62395463 141.13541402 -54.64868164 157.13964844 C-55.26347214 166.74002621 -55.95819544 176.29045348 -57.12109375 185.84375 C-57.22768311 186.76889404 -57.33427246 187.69403809 -57.4440918 188.6472168 C-58.21192268 194.5271701 -59.59939218 199.46408963 -62.80859375 204.53125 C-65.84459578 206.41566505 -69.09245679 206.64910701 -72.62109375 206.65625 C-75.63833622 205.84077906 -76.38762327 204.99680774 -78.15660095 202.41644287 C-89.80796678 180.45661012 -84.00744043 140.20704611 -84.16369629 115.93530273 C-84.21646453 107.90222855 -84.28173611 99.8692654 -84.35191154 91.8363266 C-84.37424461 89.07768261 -84.39081586 86.31905169 -84.40663147 83.56036377 C-84.47385822 74.13504039 -84.75746612 64.76758069 -85.38658142 55.36224365 C-86.52858512 37.31518202 -86.52858512 37.31518202 -80.99609375 30.71875 C-77.16537361 29.00500678 -73.58787747 29.44579761 -69.62109375 30.65625 C-65.40312034 34.66332474 -64.52165563 38.29463798 -64.33984375 43.9453125 C-64.30246094 44.96882813 -64.26507812 45.99234375 -64.2265625 47.046875 C-64.15599551 49.21092922 -64.08568484 51.37499181 -64.015625 53.5390625 C-63.97824219 54.56 -63.94085937 55.5809375 -63.90234375 56.6328125 C-63.87205078 57.57205566 -63.84175781 58.51129883 -63.81054688 59.47900391 C-63.8582218 61.63350449 -63.8582218 61.63350449 -62.62109375 62.65625 C-62.43111816 62.05901123 -62.24114258 61.46177246 -62.04541016 60.84643555 C-54.85698686 38.53672657 -45.40003989 12.31443173 -24.40625 -0.71875 C-16.0160742 -4.96544707 -8.15635795 -4.59513124 0 0 Z " fill="#361D18" transform="translate(702.62109375,253.34375)"/>
<path d="M0 0 C53.13 0 106.26 0 161 0 C161 22.11 161 44.22 161 67 C149.98625 66.195625 138.9725 65.39125 127.625 64.5625 C124.16596191 64.31056885 120.70692383 64.0586377 117.14306641 63.79907227 C112.87182617 63.48620605 112.87182617 63.48620605 110.86312866 63.33872986 C109.48027049 63.23745173 108.09737436 63.13669102 106.71444702 63.03636169 C93.58725288 62.08334333 93.58725288 62.08334333 87.60668945 61.45678711 C82.88967993 60.96446773 78.17856785 60.7071392 73.44140625 60.5 C72.13670631 60.4390918 72.13670631 60.4390918 70.8056488 60.37695312 C68.05804141 60.24878988 65.31029883 60.12398634 62.5625 60 C42.31831376 59.08476615 42.31831376 59.08476615 33.7434082 58.22314453 C27.44925855 57.71118825 21.12299078 57.61665164 14.8125 57.4375 C9.924375 57.293125 5.03625 57.14875 0 57 C0 38.19 0 19.38 0 0 Z " fill="#F0DDC5" transform="translate(556,650)"/>
<path d="M0 0 C-2.13463309 3.26365744 -4.233213 6.44635712 -6.8125 9.375 C-7.32441895 9.96039551 -7.83633789 10.54579102 -8.36376953 11.14892578 C-8.90372559 11.75978027 -9.44368164 12.37063477 -10 13 C-11.16441011 14.33042501 -12.3284646 15.66116134 -13.4921875 16.9921875 C-14.07838867 17.66088867 -14.66458984 18.32958984 -15.26855469 19.01855469 C-17.90664852 22.03755773 -20.51782205 25.0792954 -23.125 28.125 C-23.61806641 28.70056641 -24.11113281 29.27613281 -24.61914062 29.86914062 C-28.38080419 34.26518223 -32.120094 38.67988018 -35.8515625 43.1015625 C-39.25340646 47.12903294 -42.68622334 51.12905446 -46.125 55.125 C-49.63669549 59.20857466 -53.10384716 63.31917647 -56.5 67.5 C-60.88712902 72.90076172 -65.41223412 78.174677 -69.94921875 83.44921875 C-77.75960026 92.53030739 -85.4416167 101.70779401 -93 111 C-94.49943092 112.83379879 -95.99943458 114.66712943 -97.5 116.5 C-98.62148438 117.87091797 -98.62148438 117.87091797 -99.765625 119.26953125 C-101.21297051 121.03822795 -102.66085301 122.80648543 -104.109375 124.57421875 C-105.57407709 126.36233134 -107.03756121 128.15144211 -108.5 129.94140625 C-109.81627729 131.55178924 -111.13294981 133.16185388 -112.453125 134.76904297 C-119.19040735 142.97159916 -125.78343852 151.25896574 -132.1965332 159.71777344 C-135.70258324 164.33346644 -139.28831944 168.87196206 -142.9375 173.375 C-149.92417307 182.02913129 -156.46349973 191.00380345 -163 200 C-163.5480127 200.7518457 -164.09602539 201.50369141 -164.66064453 202.27832031 C-185.29464541 230.59657941 -205.04140702 259.53639144 -224 289 C-224.44891602 289.69738281 -224.89783203 290.39476562 -225.36035156 291.11328125 C-227.9094042 295.07391607 -230.45587856 299.03619598 -233 303 C-234 301 -234 301 -233.14453125 298.27734375 C-232.70496094 297.17519531 -232.26539063 296.07304687 -231.8125 294.9375 C-231.34457031 293.75929688 -230.87664062 292.58109375 -230.39453125 291.3671875 C-229.30650579 288.74007841 -228.18472849 286.14647572 -227 283.5625 C-225.26084035 279.76159464 -223.87433855 275.88453326 -222.5 271.9375 C-220.93004074 267.45737236 -219.24782142 263.27902944 -217.01953125 259.09765625 C-215.71764728 256.4190674 -214.71950414 253.6684705 -213.6875 250.875 C-211.39544718 244.77232068 -208.63974434 239.0686463 -205.6484375 233.2890625 C-204.29350295 230.58561488 -203.08245295 227.87051147 -201.91113281 225.08496094 C-199.80524939 220.26603156 -197.46980099 215.54961793 -195.1875 210.8125 C-194.67896484 209.75224609 -194.17042969 208.69199219 -193.64648438 207.59960938 C-190.16762953 200.3641204 -186.61065052 193.17058287 -183 186 C-182.34 186 -181.68 186 -181 186 C-180.71125 184.9275 -180.4225 183.855 -180.125 182.75 C-179.27179891 179.90599636 -178.4363497 177.56491017 -177 175 C-176.34 175 -175.68 175 -175 175 C-174.89365234 174.01966797 -174.89365234 174.01966797 -174.78515625 173.01953125 C-173.69393815 168.82295615 -171.61233486 165.41436097 -169.4375 161.6875 C-168.80038086 160.57665039 -168.80038086 160.57665039 -168.15039062 159.44335938 C-167.10648347 157.62531882 -166.05407808 155.81216252 -165 154 C-164.34 154 -163.68 154 -163 154 C-162.89945312 153.45472656 -162.79890625 152.90945312 -162.6953125 152.34765625 C-159.25592041 140.73487735 -149.69262179 129.32469166 -142.73046875 119.50390625 C-141.0155291 117.02246987 -139.40722783 114.49755945 -137.8125 111.9375 C-129.23918703 98.3726137 -119.53665595 85.65884542 -109.61474609 73.06445312 C-107.69128168 70.60530359 -105.80546828 68.11929446 -103.92211914 65.62939453 C-99.90921733 60.33334812 -95.70354768 55.33516715 -91.203125 50.44921875 C-88.93609992 47.92896214 -86.80866579 45.33132714 -84.6875 42.6875 C-80.78444241 37.86165296 -76.6685861 33.29041294 -72.42456055 28.76635742 C-70.94187632 27.18460856 -69.46821242 25.59519295 -68 24 C-67.43007324 23.38108887 -66.86014648 22.76217773 -66.27294922 22.12451172 C-63.27861958 18.79666133 -60.68316351 15.57296438 -58.3984375 11.71875 C-45.83769116 -6.97551072 -19.73963461 -1.29277204 0 0 Z " fill="#FEF1DF" transform="translate(326,87)"/>
<path d="M0 0 C13.48845947 7.56618274 24.89630954 19.15561389 30.1875 33.7890625 C33.47306091 45.76766997 32.47598539 60.07056783 26.6875 71.02734375 C18.5570159 80.73875531 9.77018033 83.27392971 -2.5625 84.71484375 C-7.81510382 84.93704715 -13.05711129 84.90692843 -18.3125 84.83984375 C-19.70311846 84.82978092 -21.09374408 84.82066098 -22.484375 84.8125 C-25.84393819 84.7891697 -29.20312175 84.75643605 -32.5625 84.71484375 C-33.32732294 124.56883762 -33.32732294 124.56883762 -17.5625 159.71484375 C-12.61119705 160.39778209 -9.6519069 160.20490231 -5.5 157.33984375 C3.33343898 149.80036556 6.7476775 140.94840868 9.86547852 130.02709961 C11.40370744 124.8659677 12.46506594 121.46115733 17.4375 118.71484375 C20.2262853 117.94898415 22.62215299 118.08479633 25.4375 118.71484375 C28.52508933 120.64458708 29.99891102 122.06427607 30.94921875 125.640625 C31.91313959 138.04307313 25.01271247 153.71036938 17.44140625 163.22265625 C9.12803233 172.87596739 1.22539862 179.32880901 -11.5625 181.71484375 C-19.65101968 182.28758575 -27.02070112 179.4082884 -33.27734375 174.3203125 C-52.37364606 154.31225039 -53.07311002 119.00686928 -52.89868164 93.41162109 C-52.87521333 89.74814454 -52.87812968 86.08540733 -52.88476562 82.421875 C-52.80676888 17.58646916 -52.80676888 17.58646916 -38.3515625 2.390625 C-25.81445301 -7.81449655 -13.8847043 -6.96351786 0 0 Z " fill="#351C17" transform="translate(454.5625,282.28515625)"/>
<path d="M0 0 C2.69105198 2.17574416 4.45532928 3.91065856 6 7 C6.15212006 8.94284113 6.24302161 10.89059077 6.30541992 12.83837891 C6.3457283 14.06326019 6.38603668 15.28814148 6.42756653 16.55014038 C6.46639831 17.90060399 6.50485468 19.25107844 6.54296875 20.6015625 C6.56387259 21.29021015 6.58477642 21.9788578 6.60631371 22.68837357 C6.92173481 33.09137389 7.09357844 43.49086208 7.17578125 53.8984375 C7.186423 55.24141954 7.19707371 56.58440152 7.20773315 57.92738342 C7.21571584 58.93577097 7.21571584 58.93577097 7.22385979 59.96452999 C7.46838243 90.58271023 8.63060036 120.92482873 11.0625 151.45703125 C11.14384689 152.48358826 11.22519379 153.51014526 11.30900574 154.56781006 C11.65930138 158.94123624 12.02454785 163.31076083 12.453125 167.67724609 C12.54581665 168.71470222 12.54581665 168.71470222 12.64038086 169.77311707 C12.79671721 171.5226012 12.96969376 173.2705784 13.14453125 175.01831055 C12.96779057 178.66448275 11.87035297 180.89391834 10 184 C6.65274664 186.62998478 3.1175848 186.43342998 -1 186 C-4.64948976 183.97250569 -5.77169446 182.60500969 -7.25 178.6875 C-7.97312578 175.13213159 -8.55906396 171.60097764 -9 168 C-9.54527344 168.65226563 -10.09054687 169.30453125 -10.65234375 169.9765625 C-17.69506675 178.13889787 -24.75674627 185.04805216 -35.97705078 186.20361328 C-38.07283966 186.30350837 -40.15192832 186.32918921 -42.25 186.3125 C-42.99507812 186.30686035 -43.74015625 186.3012207 -44.5078125 186.29541016 C-55.93861492 186.04573216 -64.78596694 182.86568762 -73.16015625 174.9609375 C-85.16163627 162.26404462 -87.17203081 146.35055337 -89.41015625 129.6953125 C-89.62499162 128.12519452 -89.8401219 126.55511686 -90.05552673 124.9850769 C-90.50458093 121.69947703 -90.94846582 118.41322872 -91.38891602 115.12646484 C-91.83207165 111.82327753 -92.28281699 108.52128784 -92.74145508 105.22021484 C-96.49154474 78.22133641 -99.34783488 51.30094439 -99.375 24 C-99.39949944 22.59765203 -99.42424069 21.19530827 -99.44921875 19.79296875 C-99.45505506 18.44531948 -99.45904565 17.09766058 -99.4609375 15.75 C-99.46915527 14.58984375 -99.47737305 13.4296875 -99.48583984 12.234375 C-98.89246549 8.28411194 -97.46500855 6.10523323 -95 3 C-91.78305636 1.39152818 -88.47862778 1.38690851 -85 2 C-82.30894802 4.17574416 -80.54467072 5.91065856 -79 9 C-78.8695286 10.35140953 -78.79497437 11.70846561 -78.75048828 13.06542969 C-78.72006439 13.91061661 -78.6896405 14.75580353 -78.65829468 15.62660217 C-78.62926056 16.54904221 -78.60022644 17.47148224 -78.5703125 18.421875 C-78.49887249 20.40130392 -78.42691108 22.38071407 -78.35449219 24.36010742 C-78.31755249 25.40234467 -78.28061279 26.44458191 -78.24255371 27.5184021 C-76.98789362 62.00950321 -72.9594283 95.86536643 -68 130 C-67.87292664 130.88400482 -67.74585327 131.76800964 -67.6149292 132.67880249 C-67.23878039 135.27419365 -66.8516891 137.86770896 -66.4609375 140.4609375 C-66.34935303 141.23527634 -66.23776855 142.00961517 -66.12280273 142.80741882 C-64.99268911 150.13718529 -62.81946622 156.18053378 -57.5 161.5 C-50.57954249 165.65227451 -43.93581168 165.86955261 -36 165 C-30.0236089 162.81103222 -26.79733466 157.45495186 -24 152 C-22.99196106 149.04047071 -22.40622868 146.07744113 -21.875 143 C-21.63753052 141.71826904 -21.63753052 141.71826904 -21.39526367 140.41064453 C-20.17733885 133.59345284 -19.20293911 126.74188941 -18.3125 119.875 C-18.19310059 118.95976562 -18.07370117 118.04453125 -17.95068359 117.1015625 C-15.63542671 97.90938966 -15.74471031 78.55059446 -15.5 59.25 C-15.38265455 50.03000043 -15.25318788 40.81055611 -15.07080078 31.59155273 C-15.02470551 29.25325111 -14.9825116 26.91486826 -14.94482422 24.57641602 C-14.88994831 21.50313469 -14.80905596 18.4317917 -14.71875 15.359375 C-14.70654419 14.47211731 -14.69433838 13.58485962 -14.6817627 12.67071533 C-14.49522305 7.55226485 -13.88620726 4.69463366 -10 1 C-6.78305636 -0.60847182 -3.47862778 -0.61309149 0 0 Z " fill="#351C17" transform="translate(846,268)"/>
<path d="M0 0 C2.8100346 1.79363911 4.50940468 3.01880935 6 6 C6.09072287 7.7566923 6.11754144 9.5168501 6.11352539 11.27587891 C6.11344986 12.3768692 6.11337433 13.4778595 6.11329651 14.61221313 C6.10813522 15.80494843 6.10297394 16.99768372 6.09765625 18.2265625 C6.0962413 19.44451508 6.09482635 20.66246765 6.09336853 21.91732788 C6.08775639 25.8199099 6.07520179 29.72243523 6.0625 33.625 C6.05748657 36.26562417 6.05292339 38.90624924 6.04882812 41.546875 C6.03778301 48.03126945 6.02103302 54.51563068 6 61 C6.66 60.67 7.32 60.34 8 60 C12.35178028 59.74130529 16.70742451 59.72893308 21.06591797 59.70483398 C23.22819182 59.68767308 25.38891507 59.64379458 27.55078125 59.59960938 C28.93488462 59.58947724 30.31900097 59.58096277 31.703125 59.57421875 C32.95770508 59.55963623 34.21228516 59.54505371 35.50488281 59.5300293 C39.62383731 60.08388424 41.74358308 61.48001131 45 64 C45.61875 64.45375 46.2375 64.9075 46.875 65.375 C48.70031549 68.01156682 48.42902939 69.87421443 48 73 C46.31164183 76.25165277 45.09513127 78.41650325 41.82348633 80.15966797 C38.28240676 81.21357163 35.20618074 81.22475044 31.51171875 81.1953125 C30.80852005 81.1924826 30.10532135 81.18965271 29.3808136 81.18673706 C27.14953108 81.17560151 24.91865983 81.15050997 22.6875 81.125 C21.16862562 81.1149616 19.6497449 81.10583726 18.13085938 81.09765625 C14.42044079 81.07568413 10.71026058 81.04120047 7 81 C5.69595478 151.98176889 5.69595478 151.98176889 29.5 213.5 C33.03081471 216.53351687 36.36556794 218.76452004 41.09765625 219.1875 C45.03318099 218.81194297 46.56111661 218.46198251 49.375 215.5 C53.67960781 206.22853702 53.14489252 196.99993038 52.83398438 186.97460938 C52.65383976 176.68151885 52.65383976 176.68151885 56 172 C59.70242371 169.53171753 62.7063802 169.22698039 67 170 C72.02463602 173.23809877 73.19792358 177.62408257 74.5 183.1875 C77.04510817 197.50373344 73.79827307 215.51650812 66.3125 227.9375 C61.22192107 234.91300362 54.42135787 238.66327653 46 240 C33.80672343 240.98332876 23.76527535 235.61308096 14.3125 228.3125 C-5.21326266 210.62445618 -6.28927537 177.78456213 -8.83081055 153.52587891 C-9.18679813 150.13169198 -9.55976654 146.73970332 -9.93554688 143.34765625 C-11.20574846 131.70548581 -12.28995658 120.05737295 -13.16796875 108.37890625 C-13.25153122 107.27302155 -13.33509369 106.16713684 -13.42118835 105.02774048 C-13.99696096 97.00191505 -14.24254044 89.04425784 -14 81 C-14.81678223 81.02618408 -15.63356445 81.05236816 -16.47509766 81.0793457 C-20.19153454 81.18356213 -23.90766361 81.24840799 -27.625 81.3125 C-28.91019531 81.35439453 -30.19539062 81.39628906 -31.51953125 81.43945312 C-42.18630604 81.57762378 -42.18630604 81.57762378 -45.83203125 78.69921875 C-48.54384686 75.32288617 -49.07709355 73.31723901 -49 69 C-47.26199114 64.75153389 -45.05522263 63.00786359 -41 61 C-37.95385742 60.65942383 -37.95385742 60.65942383 -34.60546875 60.70703125 C-33.40341797 60.71669922 -32.20136719 60.72636719 -30.96289062 60.73632812 C-29.09407227 60.7740332 -29.09407227 60.7740332 -27.1875 60.8125 C-25.28967773 60.83280273 -25.28967773 60.83280273 -23.35351562 60.85351562 C-20.23524357 60.88881682 -17.11783958 60.93813181 -14 61 C-14.00888245 60.33680756 -14.01776489 59.67361511 -14.0269165 58.99032593 C-14.11549956 52.07973866 -14.17578015 45.16931304 -14.21972656 38.25830078 C-14.23982563 35.68010912 -14.26710941 33.10196296 -14.30175781 30.52392578 C-14.35034847 26.81531539 -14.37298658 23.10730844 -14.390625 19.3984375 C-14.41127014 18.24822113 -14.43191528 17.09800476 -14.45318604 15.91293335 C-14.45493419 9.65996183 -14.3156683 5.69988517 -10 1 C-6.79826746 -0.60086627 -3.47422941 -0.49917089 0 0 Z " fill="#351C17" transform="translate(919,228)"/>
<path d="M0 0 C7.12859048 0.48148078 14.15363079 3.52824453 19.4375 8.25 C22.25593021 12.86197672 24.39512973 17.65421517 26.5 22.625 C27.2463741 24.33492061 27.99605025 26.04340616 28.75 27.75 C29.06453125 28.47445313 29.3790625 29.19890625 29.703125 29.9453125 C30.3819282 31.61885208 30.3819282 31.61885208 31.5 32.625 C33.63069645 53.44026533 26.53699667 75.70793226 21.5 95.625 C21.25159363 96.60925964 21.25159363 96.60925964 20.99816895 97.61340332 C19.84410502 102.16800853 18.65013155 106.71063079 17.4375 111.25 C17.13368408 112.41595703 16.82986816 113.58191406 16.5168457 114.78320312 C13.98832543 124.00494366 10.71831096 135.87218233 2.5 141.625 C-1.20533426 142.31975017 -2.78956553 142.09520743 -5.9375 140.01171875 C-8.87261101 137.2779492 -10.68306288 134.39677412 -12.5 130.875 C-12.84248779 130.21814209 -13.18497559 129.56128418 -13.5378418 128.88452148 C-22.42867675 111.20966726 -25.09403044 91.93023236 -24.9375 72.375 C-24.93445862 71.56617371 -24.93141724 70.75734741 -24.92828369 69.92401123 C-24.83776404 53.62122131 -20.93680078 3.73871443 0 0 Z " fill="#FDF0DE" transform="translate(548.5,289.375)"/>
<path d="M0 0 C3.3 0 6.6 0 10 0 C0.94090506 21.12271383 -8.52988541 42.05933512 -18 63 C-18.34776489 63.76920776 -18.69552979 64.53841553 -19.05383301 65.33093262 C-30.22990532 90.04701432 -41.48609095 114.7238664 -53.2746582 139.15527344 C-57.18370675 147.26678733 -61.02356472 155.40934003 -64.8477478 163.56106567 C-81.14557975 198.2895227 -97.71530236 232.81004816 -117 266 C-117.68974983 267.19116594 -118.37935909 268.38241328 -119.06884766 269.57373047 C-121.28904792 273.40732374 -123.51839625 277.23553671 -125.75 281.0625 C-126.26987991 281.95633392 -126.26987991 281.95633392 -126.80026245 282.8682251 C-131.96552798 291.73750041 -137.39158153 300.40548205 -143 309 C-142.34 309.66 -141.68 310.32 -141 311 C-142.98567708 311.32552083 -144.97135417 311.65104167 -146.95703125 311.9765625 C-150.3146879 313.65860082 -150.80568562 315.45473239 -152 319 C-152.35438813 324.14785432 -152.06843953 329.28830305 -151.8828125 334.43945312 C-151.69802265 342.92438713 -152.60665449 350.56787869 -156.6875 358.125 C-159.94108099 360.76303864 -162.92226975 361.3632887 -167 361 C-173.33903659 359.18375918 -177.16201063 355.17547051 -181 350 C-180.58492187 349.46117187 -180.16984375 348.92234375 -179.7421875 348.3671875 C-172.92408248 339.26687159 -166.94288287 329.64511843 -160.8984375 320.02197266 C-159.00981609 317.01562546 -157.11453989 314.01354927 -155.21875 311.01171875 C-146.90432348 297.81339852 -138.82986285 284.49134214 -131 271 C-130.4937207 270.12778809 -129.98744141 269.25557617 -129.46582031 268.35693359 C-121.74982376 255.02862741 -114.2766416 241.57299782 -107 228 C-106.52626953 227.11715332 -106.05253906 226.23430664 -105.56445312 225.32470703 C-93.1877738 202.16299953 -81.9075862 178.43843071 -70.92944336 154.58789062 C-67.10564481 146.30641119 -63.15098671 138.0967695 -59.14584351 129.90188599 C-51.4927641 114.23813658 -44.19316834 98.43723599 -37.04394531 82.53808594 C-34.83913187 77.63787395 -32.61917779 72.74457248 -30.3984375 67.8515625 C-20.15887125 45.28140526 -10.02788192 22.66498474 0 0 Z " fill="#EFDCC5" transform="translate(1125,87)"/>
<path d="M0 0 C15.73398446 -0.63571654 29.46167639 0.42194419 41.671875 11.51953125 C49.98378155 20.32415391 53.36645827 31.03782703 53.20703125 42.87890625 C52.43173905 54.56680194 46.41990422 63.01904003 38.0625 70.875 C29.33892323 78.33543443 20.65676649 81.15085373 9.17578125 81.046875 C8.20165283 81.04010742 7.22752441 81.03333984 6.22387695 81.02636719 C5.48999756 81.01766602 4.75611816 81.00896484 4 81 C3.9498877 79.71875244 3.89977539 78.43750488 3.84814453 77.11743164 C2.83616075 51.39224072 1.72031391 25.68854599 0 0 Z " fill="#FDF0DE" transform="translate(314,284)"/>
<path d="M0 0 C2.52851336 16.510706 2.52851336 16.510706 -1.40917969 23.50195312 C-5.09389685 28.25913268 -9.46653928 32.27961045 -13.98681641 36.23144531 C-16.64053728 38.56270338 -19.09006615 41.04023415 -21.5625 43.5625 C-22.26503906 44.24441406 -22.96757813 44.92632813 -23.69140625 45.62890625 C-25.55607319 47.54405487 -27.28378927 49.4834228 -29.01757812 51.51318359 C-33.46945244 56.61451849 -38.23604079 61.37961503 -43.02734375 66.16015625 C-43.98481025 67.1182986 -44.94212845 68.07658916 -45.89930725 69.03501892 C-47.89373747 71.03091287 -49.88993741 73.02501452 -51.88745117 75.01782227 C-54.42674399 77.55141863 -56.96151903 80.08947983 -59.49497128 82.62891483 C-61.46732184 84.60490703 -63.44208263 86.57847679 -65.41754341 88.55135918 C-66.80126628 89.93410599 -68.18300314 91.3188393 -69.56468201 92.70362854 C-74.00107206 97.12371456 -78.48529941 101.41852937 -83.24822998 105.48634338 C-86.36484578 108.17932595 -89.32349261 111.0422416 -92.3125 113.875 C-97.47584688 118.7302881 -102.72977415 123.37388525 -108.26953125 127.80078125 C-111.33432517 130.26927764 -114.32221296 132.81738828 -117.3125 135.375 C-127.25695799 143.84006822 -137.63967213 151.75486808 -148.00390625 159.6953125 C-151.48838816 162.3756832 -154.94438872 165.09099399 -158.390625 167.8203125 C-160 169 -160 169 -161 169 C-163.20777165 153.36570594 -163.20777165 153.36570594 -159.75341797 148.09960938 C-156.32050294 144.56932896 -152.22858136 141.95626134 -148.078125 139.34423828 C-144.84233111 137.25116014 -141.8760795 134.84942357 -138.875 132.4375 C-137.72022925 131.53232602 -136.56528209 130.62737704 -135.41015625 129.72265625 C-131.42223137 126.56350936 -127.54201498 123.28244805 -123.67651367 119.9753418 C-120.39499825 117.16867098 -117.06478722 114.44174832 -113.6875 111.75 C-106.91142082 106.23642175 -100.64394996 100.18646031 -94.31591797 94.17236328 C-92.17451619 92.16369861 -90.00611447 90.18755316 -87.8326416 88.21376038 C-78.71793401 79.90414269 -70.02347677 71.174581 -61.31396484 62.44433594 C-58.61279114 59.73776675 -55.90626571 57.03663104 -53.19921875 54.3359375 C-51.45801235 52.5940708 -49.71711591 50.8518942 -47.9765625 49.109375 C-47.17852203 48.31335876 -46.38048157 47.51734253 -45.55825806 46.69720459 C-41.40269427 42.52436758 -37.40006951 38.28110876 -33.5788269 33.79901123 C-30.71731562 30.53843155 -27.59598221 27.5357275 -24.5 24.5 C-20.03334014 20.08121664 -15.68494626 15.65160313 -11.625 10.8515625 C-2.10126582 0 -2.10126582 0 0 0 Z " fill="#F0DDC5" transform="translate(717,954)"/>
<path d="M0 0 C3.057952 1.73559438 5.63379989 3.38472619 8 6 C7.59652344 6.53882813 7.19304688 7.07765625 6.77734375 7.6328125 C1.93736165 14.18888167 -2.67367707 20.883168 -7.25 27.625 C-13.25722363 36.47206975 -19.35667927 45.24440034 -25.55273438 53.95996094 C-27.02469909 56.03481538 -28.48993281 58.11426379 -29.953125 60.1953125 C-35.04585144 67.43651986 -40.17774253 74.64589573 -45.375 81.8125 C-51.76091623 90.62372603 -58.00352322 99.53125702 -64.22509766 108.45898438 C-66.00209547 111.00299995 -67.78687197 113.5413717 -69.57421875 116.078125 C-77.2225598 126.94107744 -84.70436135 137.89712575 -92 149 C-92.79470703 150.2065625 -92.79470703 150.2065625 -93.60546875 151.4375 C-95.26194133 153.95565309 -96.91316397 156.47716774 -98.5625 159 C-99.04404541 159.73347656 -99.52559082 160.46695313 -100.02172852 161.22265625 C-105.54223134 169.70482564 -110.71538884 178.35245446 -116 187 C9.73 187.33 135.46 187.66 265 188 C265 188.33 265 188.66 265 189 C-102.29 189 -469.58 189 -848 189 C-848 188.67 -848 188.34 -848 188 C-847.37595388 188.00225149 -846.75190777 188.00450298 -846.10895117 188.00682269 C-778.17091258 188.25122605 -710.23281171 188.47084742 -642.29437256 188.56085205 C-641.27960848 188.56220345 -640.26484439 188.56355486 -639.21932988 188.56494721 C-617.16601327 188.5941678 -595.11269376 188.61893829 -573.05936708 188.63912432 C-562.24449255 188.64905056 -551.42961913 188.65996022 -540.61474609 188.67138672 C-539.53853362 188.67250706 -538.46232115 188.6736274 -537.35349618 188.67478168 C-502.46729842 188.71155922 -467.5816572 188.81327967 -432.69571445 188.94866307 C-396.84717124 189.08743918 -360.99907673 189.16072754 -325.1502515 189.1515637 C-320.08741894 189.15030008 -315.02458656 189.14978544 -309.96175385 189.14972687 C-308.46709021 189.14967483 -308.46709021 189.14967483 -306.94223136 189.14962175 C-290.89895744 189.15098971 -274.85669391 189.2214332 -258.8137396 189.31768334 C-242.68669623 189.41296475 -226.56085074 189.43553424 -210.43359706 189.38385776 C-200.84984912 189.35535929 -191.27003719 189.38263363 -181.68682573 189.48978894 C-175.28333708 189.55589405 -168.88257399 189.54926692 -162.47908592 189.48381672 C-158.8293391 189.44858653 -155.18712389 189.44467784 -151.53802696 189.52961847 C-137.2961476 190.38082932 -137.2961476 190.38082932 -124.71846837 185.06033522 C-120.83009789 180.34119788 -118.38582445 175.17187192 -116.11475536 169.53291717 C-114.33686137 165.49323423 -111.88020001 161.96689023 -109.3671875 158.35546875 C-108.44754982 156.98614542 -107.52937133 155.61583986 -106.61328125 154.24414062 C-105.70066902 152.89182707 -104.78790853 151.53961355 -103.875 150.1875 C-102.9539734 148.81605978 -102.03340115 147.44431433 -101.11328125 146.07226562 C-99.30049747 143.37006509 -97.48495127 140.66975304 -95.66748047 137.97070312 C-93.44417216 134.66595832 -91.23570692 131.35158509 -89.03155518 128.03404236 C-84.80623421 121.67548468 -80.52440299 115.36501665 -76.125 109.125 C-75.53404541 108.28404785 -74.94309082 107.4430957 -74.33422852 106.57666016 C-73.13172459 104.86625336 -71.92837331 103.15644195 -70.72412109 101.44726562 C-69.11207234 99.15907862 -67.50292434 96.86888236 -65.89453125 94.578125 C-60.85545169 87.41049723 -55.76807127 80.28088455 -50.625 73.1875 C-44.79808655 65.1492624 -39.09377385 57.02940478 -33.4140625 48.88671875 C-30.23308673 44.32720041 -27.02545251 39.78701171 -23.8125 35.25 C-15.62264363 23.6639855 -7.48518957 12.05805282 0 0 Z " fill="#D1BEAA" transform="translate(932,455)"/>
<path d="M0 0 C10.29624959 4.88811849 19.7949242 12.21306643 24 23 C25.91131432 29.21502208 26.07571595 36.97594074 23.875 43.125 C21.51976304 46.73636334 20.09933875 46.92122664 16 48 C4.79537433 49.5751861 -6.71503972 49.10217771 -18 49 C-19.02665397 11.35602094 -19.02665397 11.35602094 -9.6875 0.25 C-5.83668015 -1.541079 -4.08858361 -1.20646729 0 0 Z " fill="#FCEFDD" transform="translate(441,298)"/>
<path d="M0 0 C10.00995941 0.55681911 19.90186673 1.44107092 29.83203125 2.85546875 C30.54800791 2.95667715 31.26398457 3.05788555 32.00165749 3.16216087 C56.12179004 6.62521615 79.98137744 11.72666902 103.85864258 16.54168701 C110.32166634 17.84280171 116.78691262 19.13277888 123.25195312 20.42382812 C135.83677506 22.93861668 148.41917692 25.46528741 161 28 C161 30.97 161 33.94 161 37 C150.16851275 35.51629186 139.48851065 33.36971736 128.77654839 31.20688248 C125.54662313 30.55528907 122.31581781 29.90823352 119.08473206 29.26242065 C109.90516375 27.4272063 100.72659951 25.5870642 91.55004883 23.73681641 C61.12343018 17.60566514 30.93304325 11.89521094 0 9 C0 6.03 0 3.06 0 0 Z " fill="#F0DDC5" transform="translate(556,723)"/>
<path d="M0 0 C2.41011157 3.61516736 2.34549368 6.3170808 2.3125 10.5 C2.30621582 11.56988159 2.30621582 11.56988159 2.29980469 12.66137695 C2.14336009 20.06004134 0.85145023 26.57138847 -2.6875 33.125 C-5.9476678 35.7683793 -8.84051186 36.31076636 -13 36 C-16.5 34.5625 -16.5 34.5625 -19 33 C-18.5267027 27.75257346 -15.73598611 24.1228162 -12.875 19.875 C-11.87596806 18.36350197 -10.87727064 16.85178279 -9.87890625 15.33984375 C-9.38922363 14.60362793 -8.89954102 13.86741211 -8.39501953 13.10888672 C-6.49774945 10.240735 -4.65239139 7.34279051 -2.8125 4.4375 C-2.26207031 3.56996094 -1.71164062 2.70242188 -1.14453125 1.80859375 C-0.76683594 1.21175781 -0.38914062 0.61492187 0 0 Z " fill="#FBEEDC" transform="translate(971,412)"/>
<path d="M0 0 C0.33 0 0.66 0 1 0 C1 12.21 1 24.42 1 37 C-3.29 37 -7.58 37 -12 37 C-10.85859309 30.67836174 -9.31930918 24.99127379 -7 19 C-6.38887781 17.35529647 -5.78091726 15.70941543 -5.17578125 14.0625 C-4.86962891 13.23105469 -4.56347656 12.39960937 -4.24804688 11.54296875 C-3.93931641 10.70378906 -3.63058594 9.86460937 -3.3125 9 C-2.99216797 8.12988281 -2.67183594 7.25976562 -2.34179688 6.36328125 C-1.56098366 4.24226625 -0.78038863 2.12117124 0 0 Z " fill="#FEF0DE" transform="translate(1196,606)"/>
<path d="M0 0 C0.66 0.33 1.32 0.66 2 1 C-1.63 4.63 -5.26 8.26 -9 12 C-9 7.8407692 -6.75316432 5.85455565 -4 3 C-1.6875 1.125 -1.6875 1.125 0 0 Z " fill="#E4D6C5" transform="translate(688,270)"/>
<path d="M0 0 C1.32 0.33 2.64 0.66 4 1 C2.02 3.97 0.04 6.94 -2 10 C-3 8 -3 8 -2.44140625 6.0546875 C-2.15136719 5.33539063 -1.86132812 4.61609375 -1.5625 3.875 C-1.27503906 3.15054687 -0.98757812 2.42609375 -0.69140625 1.6796875 C-0.46324219 1.12539063 -0.23507813 0.57109375 0 0 Z " fill="#F9EAD6" transform="translate(95,380)"/>
</svg>
