<?xml version="1.0" encoding="UTF-8"?>
<svg version="1.1" xmlns="http://www.w3.org/2000/svg" width="320" height="320">
<path d="M0 0 C3.3217659 3.10512899 5.2048271 5.5990904 5.9375 10.0625 C6.01124061 14.70815846 5.44801247 17.25031827 2.5 20.8125 C1 22 1 22 -1 22 C-1 22.66 -1 23.32 -1 24 C-4.08809695 25.76462683 -5.23312136 26 -9 26 C-9 26.66 -9 27.32 -9 28 C-11.20754516 28.19656224 -13.41609539 28.38185459 -15.625 28.5625 C-17.46964844 28.71912109 -17.46964844 28.71912109 -19.3515625 28.87890625 C-23.50653016 29.01681203 -27.24085381 28.8795731 -31 27 C-31 27.66 -31 28.32 -31 29 C-30.01 29 -29.02 29 -28 29 C-26.3125 30.5 -26.3125 30.5 -25 32 C-24.43796875 31.67257813 -23.8759375 31.34515625 -23.296875 31.0078125 C-20.73140036 29.88214506 -19.03157723 29.7931889 -16.25 29.875 C-15.45078125 29.89304688 -14.6515625 29.91109375 -13.828125 29.9296875 C-13.22484375 29.95289063 -12.6215625 29.97609375 -12 30 C-11.01 32.475 -11.01 32.475 -10 35 C-9.3709375 34.37351563 -8.741875 33.74703125 -8.09375 33.1015625 C-1.41119919 26.72093417 2.62733085 24 12 24 C11.67 23.34 11.34 22.68 11 22 C10.54806739 16.68979187 10.54806739 16.68979187 12.1875 14.1875 C15.80523215 11.8172617 18.3476975 11.87411706 22.5625 12.6875 C26.08216821 14.03137332 27.73221118 15.03443001 30 18 C30.75 20.25 30.75 20.25 31 22 C33.31 21.67 35.62 21.34 38 21 C42.65037071 28.39964648 46.12329303 34.07358468 46 43 C46.67804688 43.30550781 47.35609375 43.61101562 48.0546875 43.92578125 C57.43170618 48.53636523 65.22110632 55.56281563 70 65 C70.36328125 67.31640625 70.36328125 67.31640625 70.3125 69.5625 C70.30863281 70.30628906 70.30476562 71.05007812 70.30078125 71.81640625 C69.95859647 74.30057889 69.36029661 75.89445838 68 78 C57.96278454 83.40465448 46.39388354 81.55311954 35.83984375 78.55859375 C30.78312202 77.56394285 27.37378206 79.14129671 22.9375 81.5 C13.07905787 86.72543004 0.2110264 86.44692351 -10.58203125 84.28125 C-17.21744066 81.97973737 -23.31129729 78.88713688 -26.9375 72.6875 C-27.288125 71.800625 -27.63875 70.91375 -28 70 C-28.66 71.65 -29.32 73.3 -30 75 C-62.48801472 75.2968448 -62.48801472 75.2968448 -77 71 C-76.071875 72.6396875 -76.071875 72.6396875 -75.125 74.3125 C-74.77695313 74.92738281 -74.42890625 75.54226562 -74.0703125 76.17578125 C-73.10571419 77.81982289 -72.05732941 79.41400588 -71 81 C-68.03 80.01 -68.03 80.01 -65 79 C-61.86705959 85.1453831 -61.86705959 85.1453831 -62.4375 88.8125 C-64.53771747 91.75280446 -66.55621979 92.17648734 -70 93 C-70.99 90.69 -71.98 88.38 -73 86 C-73.53109375 86.22816406 -74.0621875 86.45632812 -74.609375 86.69140625 C-75.31578125 86.97886719 -76.0221875 87.26632813 -76.75 87.5625 C-77.44609375 87.85253906 -78.1421875 88.14257812 -78.859375 88.44140625 C-81.37246247 89.09719367 -82.62256448 89.03476493 -85 88 C-88.1629775 81.67404499 -89 75.04863061 -89 68 C-89.66 68 -90.32 68 -91 68 C-91 68.66 -91 69.32 -91 70 C-100.93097402 74.45753531 -108.42735728 76.0243257 -119 73 C-119 72.34 -119 71.68 -119 71 C-119.598125 70.773125 -120.19625 70.54625 -120.8125 70.3125 C-124.51532958 68.09080225 -125.68766414 65.12921426 -126.8125 61.0625 C-127.14928677 55.56164947 -125.08799192 51.13484927 -121.8125 46.73828125 C-114.49029505 39.71590797 -103.36256772 36.56366476 -93.4453125 36.73046875 C-89.84118199 37.12772914 -87.20185054 38.32946928 -84 40 C-83.81022182 37.02347517 -83.81022182 37.02347517 -85 34.5625 C-86.43618009 29.44610843 -86.53796154 24.28468098 -86 19 C-84 17 -84 17 -82.125 16.76953125 C-81.073125 16.79080078 -81.073125 16.79080078 -80 16.8125 C-78.948125 16.82216797 -78.948125 16.82216797 -77.875 16.83203125 C-76 17 -76 17 -74 18 C-74 18.66 -74 19.32 -74 20 C-73.39671875 20.25910156 -72.7934375 20.51820313 -72.171875 20.78515625 C-68.40387859 22.89279453 -66.58296906 26.04890923 -65 30 C-64.55555447 33.71358929 -64.54316253 37.28656399 -65 41 C-65.33 41.33 -65.66 41.66 -66 42 C-64.35 42 -62.7 42 -61 42 C-61.495 40.700625 -61.495 40.700625 -62 39.375 C-63.29143609 35.0164032 -63.30829957 31.69564764 -62.5 27.25 C-61 25 -61 25 -57.4375 23.6875 C-50.55634714 22.3661192 -43.86157029 22.83207314 -37 24 C-37.9590625 23.2575 -37.9590625 23.2575 -38.9375 22.5 C-41.65456679 19.2065857 -42.33515187 16.17770703 -42 12 C-40.47723078 7.71242634 -37.99971198 4.26650346 -34 2 C-33.34 2 -32.68 2 -32 2 C-32 1.34 -32 0.68 -32 0 C-9.28497409 -5.57098446 -9.28497409 -5.57098446 0 0 Z M15 28 C15 31.96 15 35.92 15 40 C10.29896612 41.80525596 5.86588737 42.43286289 0.875 42.6875 C-0.17880859 42.75807617 -0.17880859 42.75807617 -1.25390625 42.83007812 C-4.68201683 43.02772911 -7.7271791 43.12768181 -11 42 C-11 40.35 -11 38.7 -11 37 C-16.94 37.495 -16.94 37.495 -23 38 C-22.649375 38.845625 -22.29875 39.69125 -21.9375 40.5625 C-20.8538807 44.53577075 -20.93209928 47.03351162 -22 51 C-24.0625 52.4375 -24.0625 52.4375 -26 53 C-25.34 54.32 -24.68 55.64 -24 57 C-23.38125 56.4225 -22.7625 55.845 -22.125 55.25 C-12.13372723 48.0562836 -0.92517711 47.31409173 11 48 C17.21834314 49.09557686 22.37293388 51.18646694 28 54 C28.99 53.67 29.98 53.34 31 53 C31 52.34 31 51.68 31 51 C30.24203125 50.75378906 29.4840625 50.50757813 28.703125 50.25390625 C24.18647592 48.15875545 22.11274308 44.39586867 20 40 C19.55374383 37.59097304 19.37212732 35.39215964 19.3984375 32.9453125 C19.09754819 30.38218452 19.09754819 30.38218452 15 28 Z M-82 43 C-81.67 44.65 -81.34 46.3 -81 48 C-77.06924356 47.42547254 -77.06924356 47.42547254 -74 45 C-76.64 44.34 -79.28 43.68 -82 43 Z M-85 64 C-85.99 65.485 -85.99 65.485 -87 67 C-85.68 66.67 -84.36 66.34 -83 66 C-83.66 65.34 -84.32 64.68 -85 64 Z " fill="#2A0F0D" transform="translate(199,123)"/>
<path d="M0 0 C1.35496933 0.9704823 2.69536881 1.96283307 4 3 C2.63016497 6.16115776 2.0109362 6.9927092 -1 9 C-4.74792103 9.3438859 -8.47691526 9.44257152 -12.23828125 9.55859375 C-16.30141415 10.03536843 -20.01642054 11.01642054 -23 14 C-26.48880949 14.19382275 -29.60169639 13.77675511 -33 13 C-33.33 14.32 -33.66 15.64 -34 17 C-28.01474853 18.54458102 -21.88681818 19.03781392 -16.1875 16.4375 C-10.91321022 14.21953911 -5.47966176 14.63814289 0 16 C2.75 18.5625 2.75 18.5625 4 21 C-3.82799224 27.58262984 -13.06457702 29.61172837 -23.19921875 29.2890625 C-32.72281489 28.306153 -39.89984698 25.92188549 -46.875 19.25 C-49.1473137 15.77469669 -49.77760173 14.00289774 -49.46875 9.94921875 C-48.61549065 6.40108195 -46.78639753 4.18710582 -44 2 C-31.11590911 -5.70131443 -13.52117492 -7.41803909 0 0 Z " fill="#1F0302" transform="translate(223,177)"/>
<path d="M0 0 C0 0.99 0 1.98 0 3 C-0.69867188 3.32613281 -1.39734375 3.65226563 -2.1171875 3.98828125 C-3.02726562 4.42527344 -3.93734375 4.86226562 -4.875 5.3125 C-5.77992187 5.74175781 -6.68484375 6.17101562 -7.6171875 6.61328125 C-10.26449476 7.9199388 -10.26449476 7.9199388 -12 11 C-12.9075 11.28875 -13.815 11.5775 -14.75 11.875 C-18.78220776 13.27076423 -20.78880636 15.20765771 -24 18 C-26.375 19.3125 -26.375 19.3125 -28 20 C-25.50501246 22.49498754 -24.58579618 22.35223401 -21.125 22.4375 C-13.80822511 22.28366505 -6.62822095 20.19196192 -1.05078125 15.28515625 C0.42600302 13.5851804 1.72455311 11.85404365 3 10 C3.78375 9.030625 4.5675 8.06125 5.375 7.0625 C5.91125 6.381875 6.4475 5.70125 7 5 C7 5.66 7 6.32 7 7 C10.7150822 8.58528554 14.3884096 9.6763188 18.3125 10.625 C19.38113281 10.88539063 20.44976562 11.14578125 21.55078125 11.4140625 C22.76314453 11.70410156 22.76314453 11.70410156 24 12 C24 11.01 24 10.02 24 9 C29.9180497 7.67145823 32.77729131 8.33535271 38 11 C38 10.01 38 9.02 38 8 C38.66 8 39.32 8 40 8 C40 10.31 40 12.62 40 15 C27.90724287 16.06143323 17.61690979 16.87230326 6 13 C12.35811057 20.62973268 20.575182 22.16339397 30.0625 23.125 C30.82530273 23.18840576 31.58810547 23.25181152 32.37402344 23.31713867 C34.25580238 23.48316549 36.12968712 23.73431858 38 24 C38.495 24.99 38.495 24.99 39 26 C29.16256984 26.33706931 20.49613298 26.02149686 11 23 C11.928125 24.6396875 11.928125 24.6396875 12.875 26.3125 C13.22304687 26.92738281 13.57109375 27.54226562 13.9296875 28.17578125 C14.89428581 29.81982289 15.94267059 31.41400588 17 33 C18.98 32.34 20.96 31.68 23 31 C26.13294041 37.1453831 26.13294041 37.1453831 25.5625 40.8125 C23.46228253 43.75280446 21.44378021 44.17648734 18 45 C17.01 42.69 16.02 40.38 15 38 C14.46890625 38.22816406 13.9378125 38.45632812 13.390625 38.69140625 C12.68421875 38.97886719 11.9778125 39.26632813 11.25 39.5625 C10.55390625 39.85253906 9.8578125 40.14257812 9.140625 40.44140625 C6.62753753 41.09719367 5.37743552 41.03476493 3 40 C-0.1629775 33.67404499 -1 27.04863061 -1 20 C-1.66 20 -2.32 20 -3 20 C-3 20.66 -3 21.32 -3 22 C-12.93097402 26.45753531 -20.42735728 28.0243257 -31 25 C-31 24.34 -31 23.68 -31 23 C-31.61875 22.7525 -32.2375 22.505 -32.875 22.25 C-35 21 -35 21 -36.4375 19.1875 C-37 17 -37 17 -36.125 14.4375 C-33.55004547 11.48387569 -31.54216757 11.02106364 -27.89453125 9.890625 C-25.61944644 9.04800685 -25.61944644 9.04800685 -24.25 5.8125 C-22 3 -22 3 -19.09375 2.61328125 C-16.04170962 2.62397765 -13.04052107 2.74184255 -10 3 C-10 2.34 -10 1.68 -10 1 C-6.78548731 -0.60725635 -3.56387464 -0.05748185 0 0 Z M3 16 C2.01 17.485 2.01 17.485 1 19 C2.32 18.67 3.64 18.34 5 18 C4.34 17.34 3.68 16.68 3 16 Z " fill="#351C17" transform="translate(111,171)"/>
<path d="M0 0 C2.84115505 2.05983741 3.83217211 3.04098351 4.4375 6.5 C3.93027366 9.39843626 2.93615523 10.82182537 1 13 C1.9075 12.484375 2.815 11.96875 3.75 11.4375 C7 10 7 10 9.0234375 10.14453125 C12.43958507 11.62306152 13.49901488 14.51891782 15.140625 17.7109375 C16 20 16 20 15.625 22.875 C13.67922753 25.41947169 11.82715227 26.51911071 9 28 C8.278125 28.556875 7.55625 29.11375 6.8125 29.6875 C5 31 5 31 3 31 C2.731875 30.360625 2.46375 29.72125 2.1875 29.0625 C1.11332248 26.66868314 1.11332248 26.66868314 -2 26 C-2 24.68 -2 23.36 -2 22 C-2.99 22 -3.98 22 -5 22 C-5 23.65 -5 25.3 -5 27 C-5.66 26.67 -6.32 26.34 -7 26 C-7.34375 24.00390625 -7.34375 24.00390625 -7.5 21.5625 C-7.65121611 17.83440381 -7.65121611 17.83440381 -10 15 C-9.94779297 15.92232422 -9.94779297 15.92232422 -9.89453125 16.86328125 C-9.86746094 17.67152344 -9.84039062 18.47976562 -9.8125 19.3125 C-9.76029297 20.51326172 -9.76029297 20.51326172 -9.70703125 21.73828125 C-10 24 -10 24 -11.26171875 25.66796875 C-15.61070069 29.0005594 -19.61074373 29.44734249 -25 29.75 C-26.06734375 29.83314453 -26.06734375 29.83314453 -27.15625 29.91796875 C-30.98499803 30.15369391 -33.7635296 30.19136016 -37 28 C-37.17921094 23.78854294 -36.7384748 21.88043404 -33.98828125 18.6015625 C-27.50958758 12.47011888 -22.98806007 10 -14 10 C-14.33 9.34 -14.66 8.68 -15 8 C-15.45454545 2.65909091 -15.45454545 2.65909091 -13.75 0.1875 C-9.18054561 -2.91320119 -4.87804618 -1.85925531 0 0 Z " fill="#1E0101" transform="translate(225,137)"/>
<path d="M0 0 C3.96 0 7.92 0 12 0 C12 0.66 12 1.32 12 2 C13.2375 2.12375 13.2375 2.12375 14.5 2.25 C19.61461204 3.34598829 23.98723886 5.30173279 28 8.6875 C29.96115676 13.222675 29.8565781 17.67216969 28.15625 22.29296875 C26.07107703 26.16040106 24.57592276 27.74289162 20.5 29.5625 C11.1109403 31.03286218 1.3159378 29.60622577 -7 25 C-10.40714225 22.41057189 -11.75321333 21.18457603 -12.625 17 C-11.78122488 12.94987941 -10.16503314 11.61459259 -7 9 C-5.9275 8.34 -4.855 7.68 -3.75 7 C-0.42385098 5.05587264 -0.42385098 5.05587264 0 0 Z " fill="#1E0101" transform="translate(152,199)"/>
<path d="M0 0 C4.83715518 0.0694744 8.47190932 1.59451088 12.4375 4.3125 C14.5 6.5625 14.5 6.5625 16.4375 9.3125 C17.65590983 10.71773267 18.88593317 12.11294745 20.125 13.5 C23.77498897 17.58767501 24.73203285 19.73826652 24.66015625 25.40625 C24.4375 27.3125 24.4375 27.3125 23.125 29.25 C17.02132794 33.09305278 6.34626967 32.23090737 -0.59814453 30.93164062 C-5.06305979 29.81054994 -9.44163653 28.37293173 -13.5625 26.3125 C-12.8125 24.4375 -12.8125 24.4375 -11.5625 22.3125 C-10.9025 22.065 -10.2425 21.8175 -9.5625 21.5625 C-7.1252306 20.33978109 -7.1252306 20.33978109 -6.375 16.5625 C-6.08371501 15.14989666 -5.81240419 13.73300802 -5.5625 12.3125 C-5.35625 11.1575 -5.15 10.0025 -4.9375 8.8125 C-4.81375 7.9875 -4.69 7.1625 -4.5625 6.3125 C-3.9025 6.3125 -3.2425 6.3125 -2.5625 6.3125 C-2.5625 4.9925 -2.5625 3.6725 -2.5625 2.3125 C-3.2225 1.9825 -3.8825 1.6525 -4.5625 1.3125 C-3.5625 0.3125 -3.5625 0.3125 0 0 Z " fill="#1D0000" transform="translate(241.5625,169.6875)"/>
<path d="M0 0 C2.5625 1.6875 2.5625 1.6875 4 4 C4.61434888 8.83799741 4.71401558 10.85757508 2.125 15 C0 17 0 17 -2 17 C-2 17.66 -2 18.32 -2 19 C-8.16987268 21.67749192 -14.21174637 23.23998876 -21 23 C-21.66 22.34 -22.32 21.68 -23 21 C-21.05675887 20.02837943 -19.11327281 19.05733126 -17.16796875 18.08984375 C-15.32966452 17.16572325 -13.50673968 16.21110776 -11.6875 15.25 C-9 14 -9 14 -6 14 C-5.67 12.68 -5.34 11.36 -5 10 C-3.35 9.67 -1.7 9.34 0 9 C0 8.01 0 7.02 0 6 C-1.48011371 6.30798326 -2.95907325 6.621518 -4.4375 6.9375 C-5.26121094 7.11152344 -6.08492187 7.28554687 -6.93359375 7.46484375 C-8.97661204 7.80752994 -8.97661204 7.80752994 -10 9 C-12.07926529 9.21145071 -14.1641172 9.36904772 -16.25 9.5 C-19.48232268 9.70476252 -22.58162659 9.91585124 -25.7578125 10.5546875 C-29.46845047 11.29164347 -32.47524955 10.17491682 -36 9 C-33.29481303 3.43049741 -29.10764124 0.47689881 -23.6328125 -2.125 C-15.99123619 -4.66463367 -7.15915393 -3.49633099 0 0 Z " fill="#230606" transform="translate(197,126)"/>
<path d="M0 0 C0.70125 0.01417969 1.4025 0.02835938 2.125 0.04296875 C3.176875 0.05263672 3.176875 0.05263672 4.25 0.0625 C6.125 0.23046875 6.125 0.23046875 8.125 1.23046875 C8.125 1.89046875 8.125 2.55046875 8.125 3.23046875 C9.02992187 3.61912109 9.02992187 3.61912109 9.953125 4.015625 C13.72765064 6.12691542 15.52491244 9.28104629 17.125 13.23046875 C17.67474506 16.96669906 17.8456196 20.51327263 17.125 24.23046875 C15.21929873 26.72893176 14.17974114 27.2122217 11.125 28.23046875 C8.96875 28.46875 8.96875 28.46875 6.625 28.54296875 C5.8515625 28.58035156 5.078125 28.61773437 4.28125 28.65625 C2.125 28.23046875 2.125 28.23046875 0.44921875 26.4921875 C-3.85307985 19.14401379 -4.89654448 10.61509357 -3.875 2.23046875 C-1.875 0.23046875 -1.875 0.23046875 0 0 Z " fill="#1D0000" transform="translate(116.875,139.76953125)"/>
<path d="M0 0 C2.85806477 2.05408882 4.05964188 3.94678615 5.71484375 7.0390625 C6.22660156 7.96332031 6.73835938 8.88757813 7.265625 9.83984375 C8.51412606 13.01043579 8.61680781 15.35000037 8.40234375 18.7265625 C7.74234375 18.7265625 7.08234375 18.7265625 6.40234375 18.7265625 C6.40234375 17.7365625 6.40234375 16.7465625 6.40234375 15.7265625 C5.41234375 16.0565625 4.42234375 16.3865625 3.40234375 16.7265625 C-0.03515625 17.0390625 -0.03515625 17.0390625 -3.59765625 16.7265625 C-4.97328479 15.43691074 -6.30532018 14.09966957 -7.59765625 12.7265625 C-9.91236537 11.99785778 -12.24825095 11.33416732 -14.59765625 10.7265625 C-16.61922329 9.77091262 -18.62732199 8.78381503 -20.59765625 7.7265625 C-20.59765625 6.7365625 -20.59765625 5.7465625 -20.59765625 4.7265625 C-22.57765625 4.0665625 -24.55765625 3.4065625 -26.59765625 2.7265625 C-26.26765625 1.0765625 -25.93765625 -0.5734375 -25.59765625 -2.2734375 C-16.57068244 -5.79615899 -8.49903373 -4.1664436 0 0 Z " fill="#200403" transform="translate(166.59765625,153.2734375)"/>
<path d="M0 0 C4.5583323 1.63955826 7.28006936 5.13609853 10 9 C11.375 12.4375 11.375 12.4375 12 15 C14.31 14.34 16.62 13.68 19 13 C22.13294041 19.1453831 22.13294041 19.1453831 21.5625 22.8125 C19.46228253 25.75280446 17.44378021 26.17648734 14 27 C12.515 23.535 12.515 23.535 11 20 C10.20335938 20.34224609 10.20335938 20.34224609 9.390625 20.69140625 C8.33101562 21.12259766 8.33101562 21.12259766 7.25 21.5625 C6.55390625 21.85253906 5.8578125 22.14257812 5.140625 22.44140625 C2.62753753 23.09719367 1.37743552 23.03476493 -1 22 C-4.08282219 15.83435561 -4.63631552 9.82221929 -5 3 C-2.75 1.375 -2.75 1.375 0 0 Z " fill="#1D0000" transform="translate(115,189)"/>
<path d="M0 0 C3.20793384 1.97936343 4.47233185 3.36504553 5.9375 6.8125 C5.9375 7.8025 5.9375 8.7925 5.9375 9.8125 C6.87851563 9.46316406 7.81953125 9.11382812 8.7890625 8.75390625 C10.04677474 8.29399655 11.30459293 7.83437653 12.5625 7.375 C13.79226562 6.92253906 15.02203125 6.47007812 16.2890625 6.00390625 C19.53298668 4.94459482 22.5631215 4.26414758 25.9375 3.8125 C25.4425 1.8325 25.4425 1.8325 24.9375 -0.1875 C30.6875 -0.3125 30.6875 -0.3125 32.9375 0.8125 C32.9375 1.8025 32.9375 2.7925 32.9375 3.8125 C33.9275 4.1425 34.9175 4.4725 35.9375 4.8125 C34.9475 4.8125 33.9575 4.8125 32.9375 4.8125 C32.9375 5.4725 32.9375 6.1325 32.9375 6.8125 C31.803125 6.98265625 30.66875 7.1528125 29.5 7.328125 C18.18810989 9.00279969 18.18810989 9.00279969 7.9375 13.8125 C7.2775 14.8025 6.6175 15.7925 5.9375 16.8125 C5.2775 16.8125 4.6175 16.8125 3.9375 16.8125 C3.875625 15.575 3.81375 14.3375 3.75 13.0625 C3.33200899 9.73034632 3.10248177 8.98664743 0.6875 6.4375 C-5.19776999 2.95984046 -9.70972605 1.87927616 -16.55859375 3.34765625 C-21.605499 4.71999453 -25.12772972 6.24661443 -29.0625 9.8125 C-29.7225 9.8125 -30.3825 9.8125 -31.0625 9.8125 C-31.495625 10.7096875 -31.495625 10.7096875 -31.9375 11.625 C-33.0625 13.8125 -33.0625 13.8125 -35.0625 16.8125 C-35.49988696 18.52694889 -35.87098688 20.25917784 -36.1875 22 C-36.35507813 22.90105469 -36.52265625 23.80210937 -36.6953125 24.73046875 C-36.81648438 25.41753906 -36.93765625 26.10460937 -37.0625 26.8125 C-38.99919344 25.20954486 -39.98245011 24.36846291 -40.34765625 21.83203125 C-39.71026122 15.51399284 -37.85269967 11.08946399 -33.0625 6.8125 C-29.20060857 4.45883374 -25.22482428 2.57154418 -21.0625 0.8125 C-20.23621094 0.43480469 -19.40992187 0.05710938 -18.55859375 -0.33203125 C-12.84574354 -2.28995644 -5.66807293 -2.12703803 0 0 Z " fill="#331A15" transform="translate(112.0625,161.1875)"/>
<path d="M0 0 C6.09551577 0.60955158 11.31899454 2.73790164 16 6.6875 C17.96115676 11.222675 17.8565781 15.67216969 16.15625 20.29296875 C14.07107703 24.16040106 12.57592276 25.74289162 8.5 27.5625 C-0.71203461 29.00513938 -10.8995531 27.76496876 -19 23 C-21 20 -21 20 -21 17 C-18.98177083 17.29296875 -16.96354167 17.5859375 -14.9453125 17.87890625 C-12.91859333 18.1684297 -12.91859333 18.1684297 -11 17 C-7.82955723 16.78863715 -5.5998577 16.72438971 -2.6875 18.0625 C1.2979513 19.45277371 4.89624308 18.66160787 9 18 C8.6875 19.875 8.6875 19.875 8 22 C7.01 22.66 6.02 23.32 5 24 C7.66929007 23.1342843 9.67741836 22.27808762 11.8125 20.4375 C13.62592027 16.71521629 13.23472483 13.06856367 13 9 C11.3970947 8.18501438 9.79262722 7.37310073 8.1875 6.5625 C7.29417969 6.11003906 6.40085938 5.65757812 5.48046875 5.19140625 C2.96000522 3.9168395 2.96000522 3.9168395 0 3 C0 2.01 0 1.02 0 0 Z " fill="#351C17" transform="translate(164,201)"/>
<path d="M0 0 C0 0.99 0 1.98 0 3 C-1.2065625 3.4021875 -1.2065625 3.4021875 -2.4375 3.8125 C-3.283125 4.204375 -4.12875 4.59625 -5 5 C-5.33 5.99 -5.66 6.98 -6 8 C-11.49810901 11.43631813 -17.50407601 14.66951635 -24.125 13.9375 C-28 13 -28 13 -31 12 C-31 11.01 -31 10.02 -31 9 C-31.5775 9.33 -32.155 9.66 -32.75 10 C-35 11 -35 11 -39 11 C-38.68956397 8.10259701 -37.93320931 6.92277326 -36 4.6875 C-32.20187231 2.55105318 -30.06585251 2.98480476 -25.890625 3.73828125 C-24.95476562 3.86783203 -24.95476562 3.86783203 -24 4 C-23.67 3.67 -23.34 3.34 -23 3 C-19.8010361 2.71168137 -16.60169186 2.55117659 -13.39453125 2.37890625 C-8.65703855 1.85009521 -4.80034324 0 0 0 Z " fill="#EEE0D0" transform="translate(197,132)"/>
<path d="M0 0 C0 0.99 0 1.98 0 3 C-0.69867188 3.32613281 -1.39734375 3.65226563 -2.1171875 3.98828125 C-3.02726562 4.42527344 -3.93734375 4.86226562 -4.875 5.3125 C-5.77992187 5.74175781 -6.68484375 6.17101562 -7.6171875 6.61328125 C-10.26449476 7.9199388 -10.26449476 7.9199388 -12 11 C-12.9075 11.28875 -13.815 11.5775 -14.75 11.875 C-18.181998 12.83571496 -18.181998 12.83571496 -20.9375 15.5625 C-24.42305348 18.33671604 -26.61724787 18.73703487 -31 19 C-31 18.34 -31 17.68 -31 17 C-32.32 17 -33.64 17 -35 17 C-35 14.6875 -35 14.6875 -34 12 C-32.0317681 11.09019944 -30.03954545 10.5177756 -27.96484375 9.890625 C-25.62104446 9.0649636 -25.62104446 9.0649636 -24.25 5.8125 C-22 3 -22 3 -19.09375 2.61328125 C-16.04170962 2.62397765 -13.04052107 2.74184255 -10 3 C-10 2.34 -10 1.68 -10 1 C-6.78548731 -0.60725635 -3.56387464 -0.05748185 0 0 Z " fill="#EFE1D0" transform="translate(111,171)"/>
<path d="M0 0 C1.60031344 3.20062687 0.03173691 5.72271806 -1 9 C-1.7734375 8.96519531 -2.546875 8.93039063 -3.34375 8.89453125 C-10.32438379 8.61638311 -10.32438379 8.61638311 -16.9375 10.5 C-22.27100113 12.87921509 -28.27967577 12.62388805 -34 12 C-34.66 11.34 -35.32 10.68 -36 10 C-35.625 7.875 -35.625 7.875 -35 6 C-33.34385343 5.61781233 -31.67542976 5.28604898 -30 5 C-29.67 5.33 -29.34 5.66 -29 6 C-25.93666663 6.33117117 -24.46186212 6.31243614 -21.875 4.5625 C-21.25625 4.046875 -20.6375 3.53125 -20 3 C-15.85316695 1.61772232 -11.6930392 1.61458054 -7.36132812 1.39453125 C-3.55484783 1.23299665 -3.55484783 1.23299665 0 0 Z " fill="#F8EAD9" transform="translate(224,184)"/>
<path d="M0 0 C4.00787229 0.5325145 6.21868009 1.58891764 9.25 4.25 C10.27867187 5.12398438 10.27867187 5.12398438 11.328125 6.015625 C13.31972033 8.37948114 13.78671567 9.93465773 14 13 C12.4375 15.375 12.4375 15.375 10 17 C5.00463082 16.74364957 2.38330103 15.13713466 -1.375 11.9375 C-2.24898437 11.20402344 -3.12296875 10.47054687 -4.0234375 9.71484375 C-4.67570313 9.14894531 -5.32796875 8.58304688 -6 8 C-4.02 5.36 -2.04 2.72 0 0 Z " fill="#1D0000" transform="translate(203,110)"/>
<path d="M0 0 C3.80718548 0.72753266 7.55485569 1.61276572 11.3125 2.5625 C12.38113281 2.83191406 13.44976562 3.10132813 14.55078125 3.37890625 C15.76314453 3.68634766 15.76314453 3.68634766 17 4 C17 3.01 17 2.02 17 1 C22.9180497 -0.32854177 25.77729131 0.33535271 31 3 C31 2.01 31 1.02 31 0 C31.66 0 32.32 0 33 0 C33 2.31 33 4.62 33 7 C6.93213296 9.28808864 6.93213296 9.28808864 -1 4 C-0.67 2.68 -0.34 1.36 0 0 Z " fill="#F6E9D7" transform="translate(118,179)"/>
<path d="M0 0 C2.31 0.33 4.62 0.66 7 1 C7 1.66 7 2.32 7 3 C8.175625 3.185625 8.175625 3.185625 9.375 3.375 C12 4 12 4 14 6 C15.7015625 6.4640625 15.7015625 6.4640625 17.4375 6.9375 C21 8 21 8 22.4296875 9.5234375 C24.49266941 11.46325631 25.89858432 11.48540466 28.6875 11.6875 C29.49574219 11.75324219 30.30398437 11.81898438 31.13671875 11.88671875 C31.75160156 11.92410156 32.36648437 11.96148437 33 12 C33 13.65 33 15.3 33 17 C27.6975569 17.44187026 24.62462516 16.62926701 19.98046875 14.078125 C18.1217685 13.06628818 16.27037513 12.23593932 14.3125 11.4375 C11.32803668 10.14235554 8.63170647 8.91396834 6 7 C6 6.01 6 5.02 6 4 C4.02 3.34 2.04 2.68 0 2 C0 1.34 0 0.68 0 0 Z " fill="#EEE0CF" transform="translate(139,158)"/>
<path d="M0 0 C2.01822917 0.29296875 4.03645833 0.5859375 6.0546875 0.87890625 C8.08140667 1.1684297 8.08140667 1.1684297 10 0 C13.17044277 -0.21136285 15.4001423 -0.27561029 18.3125 1.0625 C22.2979513 2.45277371 25.89624308 1.66160787 30 1 C29.6875 2.875 29.6875 2.875 29 5 C25.83057116 7.11295256 25.00370047 7.25250929 21.375 7.1875 C20.18003906 7.17783203 20.18003906 7.17783203 18.9609375 7.16796875 C17 7 17 7 16 6 C12.58055998 5.86848308 9.62148802 5.82656148 6.3125 6.75 C4 7 4 7 1.6875 5.25 C0 3 0 3 0 0 Z " fill="#F5E8D7" transform="translate(143,218)"/>
<path d="M0 0 C2.31 0.33 4.62 0.66 7 1 C7.6275547 10.13440731 7.6275547 10.13440731 5.1875 13.5 C0.08333333 17 0.08333333 17 -3 17 C-2.50269348 12.02693484 -1.44697666 8.36200187 1 4 C0.34 4 -0.32 4 -1 4 C-0.67 2.68 -0.34 1.36 0 0 Z " fill="#F6E8D7" transform="translate(229,177)"/>
<path d="M0 0 C0.66 0 1.32 0 2 0 C2.3125 3.3125 2.3125 3.3125 2 7 C-0.125 8.75 -0.125 8.75 -3 10 C-4.010625 10.556875 -5.02125 11.11375 -6.0625 11.6875 C-9 13 -9 13 -13 13 C-13 11.68 -13 10.36 -13 9 C-14.32 8.67 -15.64 8.34 -17 8 C-17 6.68 -17 5.36 -17 4 C-15.68 4.33 -14.36 4.66 -13 5 C-12.67 6.32 -12.34 7.64 -12 9 C-7.77895001 6.27809315 -7.77895001 6.27809315 -4 3 C-3.01 3 -2.02 3 -1 3 C-0.67 2.01 -0.34 1.02 0 0 Z " fill="#F3E6D5" transform="translate(240,159)"/>
<path d="M0 0 C0.79921875 0.01804688 1.5984375 0.03609375 2.421875 0.0546875 C3.02515625 0.07789063 3.6284375 0.10109375 4.25 0.125 C4.58 2.435 4.91 4.745 5.25 7.125 C2.60541621 8.44729189 0.57238699 8.22177194 -2.375 8.1875 C-3.37789062 8.17847656 -4.38078125 8.16945312 -5.4140625 8.16015625 C-6.18492187 8.14855469 -6.95578125 8.13695312 -7.75 8.125 C-8.08 6.145 -8.41 4.165 -8.75 2.125 C-5.68753253 0.34090198 -3.52920727 -0.10380021 0 0 Z " fill="#1D0000" transform="translate(182.75,152.875)"/>
<path d="M0 0 C3.94109746 4.41193654 6.68731069 10.05890308 7 16 C3.03126566 14.67708855 2.70094963 13.08850262 0.8125 9.4375 C0.28269531 8.42558594 -0.24710938 7.41367188 -0.79296875 6.37109375 C-1.19128906 5.58863281 -1.58960938 4.80617187 -2 4 C-5.02266703 4.59651306 -8.01725858 5.22669667 -11 6 C-10.03628506 3.59071265 -9.34789837 2.23992991 -7.1875 0.75 C-4.53243627 -0.16030757 -2.79375241 -0.36569666 0 0 Z " fill="#331A15" transform="translate(237,144)"/>
<path d="M0 0 C0.53625 0.2475 1.0725 0.495 1.625 0.75 C0.92375 1.306875 0.2225 1.86375 -0.5 2.4375 C-1.44875 3.200625 -2.3975 3.96375 -3.375 4.75 C-3.91382813 5.17023438 -4.45265625 5.59046875 -5.0078125 6.0234375 C-8.49543661 8.78304594 -8.49543661 8.78304594 -10.375 12.75 C-9.385 13.08 -8.395 13.41 -7.375 13.75 C-8.365 13.75 -9.355 13.75 -10.375 13.75 C-10.045 15.07 -9.715 16.39 -9.375 17.75 C-10.365 17.42 -11.355 17.09 -12.375 16.75 C-13.81930855 13.86138291 -13.75188506 11.95352299 -13.375 8.75 C-10.23014725 4.8651819 -5.3396621 -0.5620697 0 0 Z " fill="#361D18" transform="translate(153.375,204.25)"/>
<path d="M0 0 C5.56932457 1.98904449 10.74815169 4.28029284 16 7 C15.67 7.66 15.34 8.32 15 9 C4.44191344 8.22095672 4.44191344 8.22095672 0 6 C0 5.34 0 4.68 0 4 C-0.99 3.67 -1.98 3.34 -3 3 C-2.01 2.01 -1.02 1.02 0 0 Z " fill="#3B211D" transform="translate(149,167)"/>
<path d="M0 0 C0.99 0 1.98 0 3 0 C3.33 2.64 3.66 5.28 4 8 C4.99 8.33 5.98 8.66 7 9 C7 10.65 7 12.3 7 14 C3.22006527 12.74002176 2.15101681 11.11426757 -0.05859375 7.921875 C-1.46394752 5.05285403 -0.93986672 2.96419503 0 0 Z " fill="#5A423B" transform="translate(220,159)"/>
<path d="M0 0 C0.99 0.33 1.98 0.66 3 1 C2.67 1.99 2.34 2.98 2 4 C2.66 4.33 3.32 4.66 4 5 C3.01 5 2.02 5 1 5 C1 6.65 1 8.3 1 10 C0.34 9.67 -0.32 9.34 -1 9 C-1.09765625 2.84765625 -1.09765625 2.84765625 -1 1 C-0.67 0.67 -0.34 0.34 0 0 Z " fill="#39201B" transform="translate(219,154)"/>
<path d="M0 0 C2.9375 0.8125 2.9375 0.8125 4.9375 2.8125 C4.6075 3.1425 4.2775 3.4725 3.9375 3.8125 C2.24608344 3.72286938 0.55790398 3.56672324 -1.125 3.375 C-2.50365234 3.22224609 -2.50365234 3.22224609 -3.91015625 3.06640625 C-4.62042969 2.98261719 -5.33070313 2.89882812 -6.0625 2.8125 C-3.4453125 -0.2109375 -3.4453125 -0.2109375 0 0 Z " fill="#331915" transform="translate(160.0625,172.1875)"/>
<path d="M0 0 C2.31 0.33 4.62 0.66 7 1 C7 1.66 7 2.32 7 3 C7.99 3.33 8.98 3.66 10 4 C7.03 3.67 4.06 3.34 1 3 C0.67 2.01 0.34 1.02 0 0 Z " fill="#AB988D" transform="translate(139,158)"/>
<path d="M0 0 C1.32 0.33 2.64 0.66 4 1 C4.33 2.65 4.66 4.3 5 6 C2.525 5.01 2.525 5.01 0 4 C0 2.68 0 1.36 0 0 Z " fill="#EEE0CF" transform="translate(223,163)"/>
<path d="M0 0 C0 1.32 0 2.64 0 4 C-1.65 4.33 -3.3 4.66 -5 5 C-5 3.68 -5 2.36 -5 1 C-3 0 -3 0 0 0 Z " fill="#F5E8D6" transform="translate(239,172)"/>
<path d="" fill="#1D0000" transform="translate(0,0)"/>
<path d="" fill="#1D0000" transform="translate(0,0)"/>
<path d="" fill="#1D0000" transform="translate(0,0)"/>
</svg>
