<?xml version="1.0" encoding="UTF-8"?>
<svg version="1.1" xmlns="http://www.w3.org/2000/svg" width="320" height="320">
<path d="M0 0 C0.08115993 3.06303578 0.14057409 6.12390815 0.1875 9.1875 C0.22520508 10.48397461 0.22520508 10.48397461 0.26367188 11.80664062 C0.31991368 16.69967743 0.26389979 20.07439843 -3 24 C-14.70622301 34.68948533 -32.06925256 39.30551315 -47.125 42.5625 C-48.78478979 42.9387056 -50.44412625 43.31691628 -52.10302734 43.69702148 C-59.24765999 45.32468782 -66.40741586 46.87941688 -73.57521057 48.40150452 C-88.19857712 51.50914281 -102.29701816 54.76141879 -115.93505859 61.04882812 C-117.88735346 61.94811174 -119.8550983 62.79727107 -121.83203125 63.640625 C-128.17034886 66.51977258 -133.31909613 69.80789916 -138.53515625 74.36328125 C-139.43638466 75.14367516 -139.43638466 75.14367516 -140.3558197 75.93983459 C-147.22816357 81.96627416 -153.65013501 88.43005729 -160.0625 94.9375 C-161.2566781 96.14175555 -162.45133843 97.34553309 -163.64648438 98.54882812 C-165.82596939 100.74440014 -168.00269981 102.94261851 -170.17602539 105.14428711 C-186.89091686 122.05183696 -207.48472364 134.83969447 -231.83276367 135.48754883 C-248.04681136 135.55257332 -267.87734772 134.72618475 -281.5 124.75 C-286.27232872 119.50043841 -289.26446179 114.65827923 -289.625 107.4375 C-289.28491125 100.85632312 -286.75622698 96.76214163 -282.1796875 92.17578125 C-277.52695221 88 -277.52695221 88 -275 88 C-275.28875 87.47792969 -275.5775 86.95585937 -275.875 86.41796875 C-278.94330555 80.33462685 -279.99986335 74.80139603 -279 68 C-277 66 -277 66 -273.75 65.9375 C-268.81497087 67.33575825 -266.84169513 69.87095976 -264 74 C-263.505 74.99 -263.505 74.99 -263 76 C-262.731875 75.360625 -262.46375 74.72125 -262.1875 74.0625 C-261 72 -261 72 -258 71 C-255.94106379 70.77674186 -253.87766347 70.59294241 -251.8125 70.4375 C-250.72582031 70.35371094 -249.63914063 70.26992187 -248.51953125 70.18359375 C-247.68808594 70.12300781 -246.85664063 70.06242187 -246 70 C-246.2475 68.989375 -246.495 67.97875 -246.75 66.9375 C-247.00158124 62.97509543 -246.62004026 60.88289423 -244.39453125 57.578125 C-240.59674295 53.28034777 -236.78731902 52.17512116 -231.1328125 51.62109375 C-229.71403966 51.5659338 -228.29461152 51.52573167 -226.875 51.5 C-226.19405273 51.48138916 -225.51310547 51.46277832 -224.81152344 51.44360352 C-219.76868954 51.50679231 -216.8767347 52.84614515 -213 56 C-211.08696537 59.0774905 -210.99746602 60.85809708 -211.0625 64.5 C-212.20224585 68.75505116 -213.58309213 70.2664737 -217 73 C-218.96879323 74.06011943 -220.96435867 75.07470849 -223 76 C-223.33 76.33 -223.66 76.66 -224 77 C-220.44436209 76.61579513 -220.44436209 76.61579513 -217.6875 74.5625 C-214.93168087 72.01081562 -211.62873197 71.77333632 -208 71 C-208.0928125 69.576875 -208.0928125 69.576875 -208.1875 68.125 C-208.0946875 66.578125 -208.0946875 66.578125 -208 65 C-204.4913604 62.66090693 -203.12910567 62.58708943 -199 63 C-195.50593231 64.66762322 -194.17329319 65.74006022 -192 69 C-190.35 69 -188.7 69 -187 69 C-185.02 72.63 -183.04 76.26 -181 80 C-179.80246094 79.23816406 -178.60492188 78.47632813 -177.37109375 77.69140625 C-163.62487246 68.96459331 -149.81996304 60.50403047 -135.55053711 52.65966797 C-131.12516971 50.21615536 -126.78649086 47.68310574 -122.5 45 C-33.63125372 -10.33545846 -33.63125372 -10.33545846 0 0 Z M-236 76 C-232 77 -232 77 -232 77 Z M-204 77 C-203 79 -203 79 -203 79 Z " fill="#361D18" transform="translate(304,93)"/>
<path d="M0 0 C0.4596998 5.74624746 -0.32499296 8.55130726 -4 13 C-10.55913732 19.26099471 -18.35264719 22.3474392 -26.875 25.125 C-27.75792725 25.41721436 -28.64085449 25.70942871 -29.55053711 26.01049805 C-37.43959239 28.57965952 -45.40104401 30.8779433 -53.3710022 33.17889404 C-93.36614141 44.74229074 -131.89206495 57.84677844 -162.57421875 86.78515625 C-165 89 -165 89 -168 91 C-168.70125 90.401875 -169.4025 89.80375 -170.125 89.1875 C-172.97030977 87.02259039 -175.76632767 85.50403364 -179 84 C-174.85715369 80.4920103 -170.45081453 77.7222902 -165.8125 74.9375 C-164.19776386 73.96119018 -162.58318498 72.98462023 -160.96875 72.0078125 C-160.14503906 71.51055664 -159.32132813 71.01330078 -158.47265625 70.50097656 C-156.08769706 69.05323475 -153.7139222 67.58898798 -151.34375 66.1171875 C-143.90113617 61.50399711 -136.44015905 57.07876507 -128.6652832 53.04907227 C-123.79944274 50.49913848 -119.15569165 47.66281798 -114.5 44.75 C-27.55834302 -9.18611434 -27.55834302 -9.18611434 0 0 Z " fill="#E4D3D1" transform="translate(300,96)"/>
<path d="M0 0 C0 0.66 0 1.32 0 2 C0.515625 1.79375 1.03125 1.5875 1.5625 1.375 C7.81155768 0.41360651 15.42797158 4.39224995 21 7 C21.66 7.66 22.32 8.32 23 9 C23.556875 8.38125 24.11375 7.7625 24.6875 7.125 C29.56301975 2.64479266 35.42769147 1.98962779 41.875 2.015625 C43.25039305 2.08649449 44.62542429 2.16473497 46 2.25 C46.68578125 2.27707031 47.3715625 2.30414063 48.078125 2.33203125 C52.69271821 2.60503199 56.07316207 3.55623389 60 6 C60.875 8.1875 60.875 8.1875 61 10 C61.66 10 62.32 10 63 10 C62.30058404 13.14737182 61.23921302 16.02588876 60 19 C63.72614153 17.88145414 63.72614153 17.88145414 66 15 C66.66 15 67.32 15 68 15 C67.979375 13.783125 67.95875 12.56625 67.9375 11.3125 C67.93175884 8.08022678 68.21233685 5.15065259 69 2 C70.43791516 2.14168137 71.8753237 2.28851043 73.3125 2.4375 C74.11300781 2.51871094 74.91351563 2.59992188 75.73828125 2.68359375 C78 3 78 3 81 4 C82.1875 6.5625 82.1875 6.5625 83 9 C82.24074219 9.67546875 81.48148437 10.3509375 80.69921875 11.046875 C79.69514311 11.94772791 78.69124628 12.84878014 77.6875 13.75 C77.18798828 14.1934375 76.68847656 14.636875 76.17382812 15.09375 C73.98975617 17.06086116 72.06173746 18.91154922 70.375 21.328125 C69.694375 22.15570313 69.694375 22.15570313 69 23 C67.05947598 23 65.11709135 22.98890537 63.1796875 22.87890625 C60.00797328 23.0551126 57.82551872 24.39536166 55.15234375 26.02734375 C47.7331589 29.38011513 34.18534303 29.81447901 26.41015625 27.09375 C22.45271929 24.48334761 21.11640508 21.4656203 20 17 C19.34 16.67 18.68 16.34 18 16 C18.020625 16.804375 18.04125 17.60875 18.0625 18.4375 C18 21 18 21 17 22 C13.19614319 22.31200319 9.3775506 22.27869861 5.5625 22.3125 C4.50611328 22.34150391 3.44972656 22.37050781 2.36132812 22.40039062 C-5.80725182 22.46581979 -11.76459062 20.61770469 -19 17 C-19 15.68 -19 14.36 -19 13 C-18.02933594 13.16371094 -17.05867188 13.32742187 -16.05859375 13.49609375 C-11.71723112 14.11628841 -7.44002229 14.11126417 -3.0625 14.0625 C-2.28326172 14.05798828 -1.50402344 14.05347656 -0.70117188 14.04882812 C1.19925268 14.03716908 3.09963706 14.01923877 5 14 C5 13.01 5 12.02 5 11 C5.99 11 6.98 11 8 11 C8 10.34 8 9.68 8 9 C6.2365625 9.2784375 6.2365625 9.2784375 4.4375 9.5625 C0.38731406 10.08230996 -2.99874453 9.7502354 -7 9 C-7 9.66 -7 10.32 -7 11 C-15.35010941 10.64989059 -15.35010941 10.64989059 -18.0625 7.9375 C-18.5265625 6.9784375 -18.5265625 6.9784375 -19 6 C-16.54062678 3.05370389 -14.30081178 2.26418278 -10.625 1.3125 C-9.68914063 1.06113281 -8.75328125 0.80976563 -7.7890625 0.55078125 C-5.10828866 0.02138474 -2.72330511 -0.10398074 0 0 Z " fill="#220605" transform="translate(48,180)"/>
<path d="M0 0 C1.0214209 -0.02791626 1.0214209 -0.02791626 2.06347656 -0.05639648 C7.10631046 0.00679231 9.9982653 1.34614515 13.875 4.5 C15.78803463 7.5774905 15.87753398 9.35809708 15.8125 13 C14.41404194 18.22091009 11.63823867 20.32450755 7.25 23.25 C2.52805431 24.99886877 -2.12387499 25.24193483 -7.125 25.5 C-6.44959595 27.54516297 -6.44959595 27.54516297 -5.125 29.5 C-3.03429617 30.0895063 -3.03429617 30.0895063 -0.6875 30.0625 C3.55889665 30.18142709 3.55889665 30.18142709 5.375 32.01171875 C6.78886845 33.70796193 6.78886845 33.70796193 9.06640625 33.828125 C9.84886719 33.80234375 10.63132813 33.7765625 11.4375 33.75 C12.61505859 33.72679687 12.61505859 33.72679687 13.81640625 33.703125 C15.93750961 33.61758859 15.93750961 33.61758859 17.875 32.5 C22.9873784 31.81834955 22.9873784 31.81834955 25.875 32.5 C27.7923197 34.13683843 29.17332231 35.83147917 30.6484375 37.87109375 C31.79521149 39.64573046 31.79521149 39.64573046 33.875 40.5 C33.875 41.16 33.875 41.82 33.875 42.5 C34.535 42.5 35.195 42.5 35.875 42.5 C36.205 41.51 36.535 40.52 36.875 39.5 C38.195 39.5 39.515 39.5 40.875 39.5 C40.215 43.13 39.555 46.76 38.875 50.5 C38.215 50.5 37.555 50.5 36.875 50.5 C36.545 51.49 36.215 52.48 35.875 53.5 C34.225 53.83 32.575 54.16 30.875 54.5 C31.43228913 51.15626525 32.22673889 48.46687001 33.875 45.5 C33.215 45.5 32.555 45.5 31.875 45.5 C31.648125 44.88125 31.42125 44.2625 31.1875 43.625 C29.4201015 40.76349766 28.07503951 40.50646404 24.875 39.5 C22.24141979 39.15588625 19.70530688 38.89701134 17.0625 38.75 C16.35053467 38.70907227 15.63856934 38.66814453 14.9050293 38.62597656 C7.50932112 38.29731607 2.07392571 39.24930808 -4.125 43.5 C-5.115 44.16 -6.105 44.82 -7.125 45.5 C-7.785 44.51 -8.445 43.52 -9.125 42.5 C-11.06541322 41.55793434 -11.06541322 41.55793434 -13.3125 40.9375 C-14.11429688 40.69257813 -14.91609375 40.44765625 -15.7421875 40.1953125 C-16.52851562 39.96585938 -17.31484375 39.73640625 -18.125 39.5 C-19.383125 39.108125 -20.64125 38.71625 -21.9375 38.3125 C-25.2227723 37.33533086 -25.2227723 37.33533086 -29.125 37.5 C-29.455 35.52 -29.785 33.54 -30.125 31.5 C-31.775 31.17 -33.425 30.84 -35.125 30.5 C-35.25 22.75 -35.25 22.75 -34.125 20.5 C-30.96254459 19.4458482 -28.25551782 19.18724328 -24.9375 18.9375 C-23.30748047 18.81181641 -23.30748047 18.81181641 -21.64453125 18.68359375 C-20.81308594 18.62300781 -19.98164062 18.56242187 -19.125 18.5 C-19.3725 17.489375 -19.62 16.47875 -19.875 15.4375 C-20.12658124 11.47509543 -19.74504026 9.38289423 -17.51953125 6.078125 C-12.71688401 0.64319647 -6.98358428 0.12658344 0 0 Z " fill="#351C17" transform="translate(77.125,144.5)"/>
<path d="M0 0 C0.33 0 0.66 0 1 0 C1.185625 1.0725 1.37125 2.145 1.5625 3.25 C2.55348147 6.72897751 3.03808769 7.02710085 6.25 9.3125 C7.98595327 10.22318405 7.98595327 10.22318405 10 11 C10.81210937 11.36222656 11.62421875 11.72445312 12.4609375 12.09765625 C17.75562309 13.44762575 22.93641385 13.20827635 28.375 13.125 C29.49261719 13.11597656 30.61023437 13.10695312 31.76171875 13.09765625 C34.50803462 13.07418346 37.25390472 13.04134728 40 13 C40.33 11.35 40.66 9.7 41 8 C41.99 8.33 42.98 8.66 44 9 C44.680625 10.670625 44.680625 10.670625 45.375 12.375 C47.19496314 16.43491778 47.98567758 17.30506387 52 19 C61.66623241 22.22207747 71.25501896 21.59866161 81 19 C77.59716548 21.87866051 73.86035834 23.46399901 69.75 25.0625 C69.08121826 25.32562988 68.41243652 25.58875977 67.72338867 25.85986328 C61.76456281 28.16458966 56.43682766 30 50 30 C50 28.948125 50 27.89625 50 26.8125 C48.91531988 22.67715703 48.64455268 22.31866653 45.25 20.1875 C43.8485827 19.42943797 42.43264207 18.69725546 41 18 C40.13375 17.566875 39.2675 17.13375 38.375 16.6875 C35.50702697 15.85729728 32.96988633 15.86186575 30 16 C29.505 17.485 29.505 17.485 29 19 C27.44140625 20.17578125 27.44140625 20.17578125 25.5625 21.3125 C22.01271868 23.69841859 20.8925163 25.73575545 20 30 C20.639375 29.835 21.27875 29.67 21.9375 29.5 C27.42288548 28.60442686 32.62044663 28.61419213 38 30 C39.99963028 30.03845443 42.00051633 30.04544281 44 30 C44 30.66 44 31.32 44 32 C29.97050774 34.4399117 17.1174997 32.36310937 4.3125 26.125 C3.62913574 25.79757813 2.94577148 25.47015625 2.24169922 25.1328125 C-1.82595134 23.03707707 -4.18303136 21.23301028 -6 17 C-6.95573711 12.87329014 -6.76088891 9.3677884 -4.6875 5.640625 C-3.21297911 3.64151494 -1.7418917 1.77084281 0 0 Z " fill="#B3A4A3" transform="translate(25,188)"/>
<path d="M0 0 C0 0.66 0 1.32 0 2 C0.515625 1.79375 1.03125 1.5875 1.5625 1.375 C7.36099743 0.48292347 13.63713034 3.93012048 19 6 C19.81163525 9.76303616 20.32502401 12.18743997 18.875 15.8125 C16.69416264 18.35681025 15.21703922 19.13689192 12 20 C10.68 20 9.36 20 8 20 C8 20.66 8 21.32 8 22 C-1.32371967 22.44753854 -8.55848908 22.42512888 -17 18 C-17.66 17.67 -18.32 17.34 -19 17 C-19 15.68 -19 14.36 -19 13 C-18.02933594 13.16371094 -17.05867188 13.32742187 -16.05859375 13.49609375 C-11.71723112 14.11628841 -7.44002229 14.11126417 -3.0625 14.0625 C-2.28326172 14.05798828 -1.50402344 14.05347656 -0.70117188 14.04882812 C1.19925268 14.03716908 3.09963706 14.01923877 5 14 C5 13.01 5 12.02 5 11 C5.99 11 6.98 11 8 11 C8 10.34 8 9.68 8 9 C6.2365625 9.2784375 6.2365625 9.2784375 4.4375 9.5625 C0.38731406 10.08230996 -2.99874453 9.7502354 -7 9 C-7 9.66 -7 10.32 -7 11 C-15.35010941 10.64989059 -15.35010941 10.64989059 -18.0625 7.9375 C-18.5265625 6.9784375 -18.5265625 6.9784375 -19 6 C-16.54062678 3.05370389 -14.30081178 2.26418278 -10.625 1.3125 C-9.68914063 1.06113281 -8.75328125 0.80976563 -7.7890625 0.55078125 C-5.10828866 0.02138474 -2.72330511 -0.10398074 0 0 Z " fill="#210403" transform="translate(48,180)"/>
<path d="M0 0 C2.90468684 1.29097193 4.53005512 2.08948179 6 4.9375 C6 7.7640838 4.84100939 8.93806949 3 11 C5.31 10.34 7.62 9.68 10 9 C11.32 11.64 12.64 14.28 14 17 C11.19195732 19.96404505 8.81684226 22.44499019 5 24 C5 23.01 5 22.02 5 21 C3.68 20.67 2.36 20.34 1 20 C1 19.01 1 18.02 1 17 C0.34 17 -0.32 17 -1 17 C-1 16.34 -1 15.68 -1 15 C-3.88214887 15.88214887 -3.88214887 15.88214887 -6 17 C-6.33 17.99 -6.66 18.98 -7 20 C-19.87 19.505 -19.87 19.505 -33 19 C-33.66 17.35 -34.32 15.7 -35 14 C-32.00575376 12.50287688 -29.3082657 12.88592187 -26 13 C-25.29875 13.2475 -24.5975 13.495 -23.875 13.75 C-23.25625 13.8325 -22.6375 13.915 -22 14 C-21.2575 13.401875 -20.515 12.80375 -19.75 12.1875 C-16.20187321 9.36512641 -13.41141353 8.89723665 -9 8 C-9.061875 7.05125 -9.12375 6.1025 -9.1875 5.125 C-9.0946875 3.578125 -9.0946875 3.578125 -9 2 C-5.4913604 -0.33909307 -4.12910567 -0.41291057 0 0 Z " fill="#1E0101" transform="translate(105,156)"/>
<path d="M0 0 C1.77007714 -0.08114106 3.54122098 -0.13925505 5.3125 -0.1875 C6.29863281 -0.22230469 7.28476563 -0.25710937 8.30078125 -0.29296875 C11.47912835 0.0520038 11.88543772 0.77566536 14 3 C16.21333816 3.39883771 16.21333816 3.39883771 18.5625 3.25 C19.34753906 3.23453125 20.13257813 3.2190625 20.94140625 3.203125 C23.06250961 3.11758859 23.06250961 3.11758859 25 2 C30.1123784 1.31834955 30.1123784 1.31834955 33 2 C34.9173197 3.63683843 36.29832231 5.33147917 37.7734375 7.37109375 C38.92021149 9.14573046 38.92021149 9.14573046 41 10 C41 10.66 41 11.32 41 12 C41.66 12 42.32 12 43 12 C43.33 11.01 43.66 10.02 44 9 C45.32 9 46.64 9 48 9 C47.34 12.63 46.68 16.26 46 20 C45.34 20 44.68 20 44 20 C43.505 21.485 43.505 21.485 43 23 C41.35 23.33 39.7 23.66 38 24 C38.55728913 20.65626525 39.35173889 17.96687001 41 15 C40.34 15 39.68 15 39 15 C38.773125 14.38125 38.54625 13.7625 38.3125 13.125 C36.5451015 10.26349766 35.20003951 10.00646404 32 9 C29.36641979 8.65588625 26.83030688 8.39701134 24.1875 8.25 C23.47553467 8.20907227 22.76356934 8.16814453 22.0300293 8.12597656 C14.63432112 7.79731607 9.19892571 8.74930808 3 13 C2.01 13.66 1.02 14.32 0 15 C-0.66 14.01 -1.32 13.02 -2 12 C-4.1141144 11.06314892 -4.1141144 11.06314892 -6.5 10.4375 C-10.79726651 9.20273349 -10.79726651 9.20273349 -13 7 C-14.66072849 6.31867549 -16.327767 5.65257873 -18 5 C-18.99 4.34 -19.98 3.68 -21 3 C-21 2.34 -21 1.68 -21 1 C-20.278125 1.144375 -19.55625 1.28875 -18.8125 1.4375 C-16.96519293 1.80696141 -15.11049361 2.14151238 -13.25 2.4375 C-12.5075 2.623125 -11.765 2.80875 -11 3 C-10.67 3.66 -10.34 4.32 -10 5 C-7.87423218 5.46651207 -7.87423218 5.46651207 -5.4375 5.625 C-4.61121094 5.69976562 -3.78492187 5.77453125 -2.93359375 5.8515625 C-2.29550781 5.90054688 -1.65742187 5.94953125 -1 6 C-0.67 6.99 -0.34 7.98 0 9 C0.99 9 1.98 9 3 9 C1.515 4.545 1.515 4.545 0 0 Z " fill="#D3C2BF" transform="translate(70,175)"/>
<path d="M0 0 C0.33 0 0.66 0 1 0 C1.185625 1.0725 1.37125 2.145 1.5625 3.25 C2.54058006 6.61894244 3.00974028 7.00715612 6.0625 9.25 C10.20565371 11.2778727 14.58840446 12.67952242 19 14 C18.1328125 15.953125 18.1328125 15.953125 17 18 C14.875 18.75 14.875 18.75 13 19 C12.67 21.64 12.34 24.28 12 27 C13.32 27 14.64 27 16 27 C16.33 27.99 16.66 28.98 17 30 C12.13943233 29.4342984 8.14840385 27.92489307 3.8125 25.75 C3.19697266 25.46253906 2.58144531 25.17507812 1.94726562 24.87890625 C-2.06286071 22.88904941 -4.20021863 21.11288066 -6 17 C-6.95573711 12.87329014 -6.76088891 9.3677884 -4.6875 5.640625 C-3.21297911 3.64151494 -1.7418917 1.77084281 0 0 Z " fill="#DACAC7" transform="translate(25,188)"/>
<path d="M0 0 C6.4389064 -0.28617362 11.83439783 1.01635765 17 5 C18.235175 8.39932615 18.29906584 11.41816496 18 15 C13.04443056 16.38755944 8.16588741 16.37667607 3.125 15.5 C-1.2540474 14.79935242 -5.57505632 14.92129547 -10 15 C-9.8615024 12.02230154 -9.68881566 9.78173508 -7.66796875 7.48828125 C-3.55999284 4 -3.55999284 4 -1 4 C-0.67 2.68 -0.34 1.36 0 0 Z " fill="#230706" transform="translate(55,203)"/>
<path d="M0 0 C4.93502913 1.39825825 6.90830487 3.93345976 9.75 8.0625 C11.2283226 11.01914519 10.81032783 13.80479737 10.75 17.0625 C8.77 18.0525 8.77 18.0525 6.75 19.0625 C6.75 19.7225 6.75 20.3825 6.75 21.0625 C4.11 21.0625 1.47 21.0625 -1.25 21.0625 C-5.05573507 14.75925129 -6.31861755 9.44341656 -5.25 2.0625 C-3.25 0.0625 -3.25 0.0625 0 0 Z " fill="#1D0000" transform="translate(30.25,158.9375)"/>
<path d="M0 0 C5.34722222 3.4375 5.34722222 3.4375 6.25 7.5 C5.44249233 11.61828912 3.81791451 12.971973 0.58203125 15.49609375 C-2.01838087 17.07917897 -4.35437094 17.54015224 -7.375 17.6875 C-7.375 14.6875 -7.375 14.6875 -6 13 C-4.375 11.6875 -4.375 11.6875 -2.375 11.6875 C-2.045 10.6975 -1.715 9.7075 -1.375 8.6875 C-0.055 8.6875 1.265 8.6875 2.625 8.6875 C2.625 7.6975 2.625 6.7075 2.625 5.6875 C1.67625 5.996875 0.7275 6.30625 -0.25 6.625 C-4.18265713 7.76466799 -8.06819826 8.13154769 -12.140625 8.44140625 C-14.54345626 8.62672586 -14.54345626 8.62672586 -17.375 9.6875 C-20.5625 8.75 -20.5625 8.75 -23.375 7.6875 C-21.5681535 3.26025307 -19.01304509 1.82331448 -14.8828125 -0.328125 C-9.61694809 -2.39509982 -5.20414592 -2.02383453 0 0 Z " fill="#230706" transform="translate(84.375,148.3125)"/>
<path d="M0 0 C0 0.99 0 1.98 0 3 C-2 4.6875 -2 4.6875 -4 6 C-2.84826645 3.53199953 -1.95216435 1.95216435 0 0 Z M-9 6.75 C-8.236875 6.78609375 -7.47375 6.8221875 -6.6875 6.859375 C-6.130625 6.90578125 -5.57375 6.9521875 -5 7 C-5 7.99 -5 8.98 -5 10 C-6.010625 10.42539063 -7.02125 10.85078125 -8.0625 11.2890625 C-11.76399392 12.87408977 -15.37639223 14.61882168 -19 16.375 C-31.99501176 22.49525224 -44.86996409 25.87271185 -59 28 C-56.59563974 24.39345961 -55.05320393 24.14547068 -51 23 C-51 20.03 -51 17.06 -51 14 C-50.01 14.66 -49.02 15.32 -48 16 C-47.8125 19.625 -47.8125 19.625 -48 23 C-37.79019465 20.56909396 -28.52678394 17.40375221 -19 13 C-20.02738281 13.32484375 -21.05476563 13.6496875 -22.11328125 13.984375 C-25.52375227 14.95609742 -28.6257764 15.26843065 -32.1875 15.25 C-33.19167969 15.25515625 -34.19585937 15.2603125 -35.23046875 15.265625 C-38.02765906 14.99734723 -39.56425525 14.3111292 -42 13 C-41.15405273 12.94054199 -41.15405273 12.94054199 -40.29101562 12.87988281 C-37.69239434 12.68727411 -35.09654123 12.46880965 -32.5 12.25 C-31.613125 12.188125 -30.72625 12.12625 -29.8125 12.0625 C-24.39661501 11.58462779 -20.47361938 10.50603544 -15.72851562 7.86425781 C-13.42519247 6.71259623 -11.55064122 6.59058492 -9 6.75 Z " fill="#3F2722" transform="translate(123,195)"/>
<path d="M0 0 C2.72312428 2.56970883 3.58725155 5.00337623 4.6640625 8.5703125 C4.6640625 9.2303125 4.6640625 9.8903125 4.6640625 10.5703125 C1.3640625 10.5703125 -1.9359375 10.5703125 -5.3359375 10.5703125 C-5.6659375 9.5803125 -5.9959375 8.5903125 -6.3359375 7.5703125 C-7.06167969 7.63863281 -7.78742187 7.70695313 -8.53515625 7.77734375 C-12.03398337 7.51871357 -13.43255615 6.43321995 -16.1484375 4.2578125 C-17.33373047 3.33548828 -17.33373047 3.33548828 -18.54296875 2.39453125 C-20.3359375 0.5703125 -20.3359375 0.5703125 -20.3359375 -2.4296875 C-12.86147386 -4.35858134 -6.47302307 -4.51306389 0 0 Z " fill="#200303" transform="translate(65.3359375,170.4296875)"/>
<path d="M0 0 C1.43791516 0.14168137 2.8753237 0.28851043 4.3125 0.4375 C5.11300781 0.51871094 5.91351563 0.59992188 6.73828125 0.68359375 C9 1 9 1 12 2 C13.1875 4.5625 13.1875 4.5625 14 7 C13.24074219 7.67546875 12.48148438 8.3509375 11.69921875 9.046875 C10.69514311 9.94772791 9.69124628 10.84878014 8.6875 11.75 C8.18798828 12.1934375 7.68847656 12.636875 7.17382812 13.09375 C4.99451398 15.05657599 3.04482781 16.93856929 1.3125 19.3125 C0.879375 19.869375 0.44625 20.42625 0 21 C-2.6875 21.25 -2.6875 21.25 -5 21 C-5 17.23312136 -4.76462683 16.08809695 -3 13 C-2.34 13 -1.68 13 -1 13 C-1.020625 11.783125 -1.04125 10.56625 -1.0625 9.3125 C-1.06824116 6.08022678 -0.78766315 3.15065259 0 0 Z " fill="#200303" transform="translate(117,182)"/>
<path d="M0 0 C0.99 0 1.98 0 3 0 C3.86625 0.8971875 3.86625 0.8971875 4.75 1.8125 C10.89057898 7.78250734 18.79667702 8.21750505 26.87109375 8.16796875 C31.108938 7.940469 34.90464517 7.09209462 39 6 C35.59716548 8.87866051 31.86035834 10.46399901 27.75 12.0625 C26.74682739 12.45719482 26.74682739 12.45719482 25.72338867 12.85986328 C19.76456281 15.16458966 14.43682766 17 8 17 C8.020625 15.96875 8.04125 14.9375 8.0625 13.875 C7.69735857 10.98331547 7.17034878 10.1481713 4.9296875 8.19921875 C2.66027672 6.70880634 0.37710706 5.31101056 -2 4 C-1.34 2.68 -0.68 1.36 0 0 Z " fill="#B8AAA9" transform="translate(67,201)"/>
<path d="M0 0 C0.66 0.33 1.32 0.66 2 1 C-5.2104107 8.71113366 -13.33957749 12.31528317 -23 16 C-23.8765625 16.35191406 -24.753125 16.70382813 -25.65625 17.06640625 C-35.92786078 20.7071998 -48.34651341 20.74329781 -59 19 C-59 18.67 -59 18.34 -59 18 C-58.04222656 17.90203125 -57.08445313 17.8040625 -56.09765625 17.703125 C-37.44785877 15.66963584 -19.3315295 11.4593413 -3.0703125 1.6875 C-2.05710938 1.130625 -1.04390625 0.57375 0 0 Z " fill="#8A8180" transform="translate(114,205)"/>
<path d="M0 0 C0.495 1.485 0.495 1.485 1 3 C-1.9137136 7.82485908 -5.89029503 10.00398816 -10.75 12.5 C-11.50732422 12.8916333 -12.26464844 13.2832666 -13.04492188 13.68676758 C-20.45946848 17.40561646 -27.97753953 19.94091245 -36 22 C-37.00321289 22.25942383 -38.00642578 22.51884766 -39.04003906 22.78613281 C-42.39783761 23.64464397 -45.75978326 24.4835608 -49.125 25.3125 C-50.74438477 25.71311646 -50.74438477 25.71311646 -52.39648438 26.12182617 C-53.42322266 26.36650635 -54.44996094 26.61118652 -55.5078125 26.86328125 C-56.42191895 27.08282471 -57.33602539 27.30236816 -58.27783203 27.52856445 C-61.23208656 28.04019365 -64.00754791 28.08002238 -67 28 C-63.49224535 25.6614969 -60.00527981 24.74114346 -55.9921875 23.64453125 C-54.3475812 23.18190734 -52.70305266 22.71900693 -51.05859375 22.25585938 C-48.49114556 21.53923258 -45.92292884 20.82570015 -43.35302734 20.11791992 C-34.30725579 17.61817445 -25.40208648 14.97354386 -16.6953125 11.44921875 C-16.01991425 11.17987015 -15.34451599 10.91052155 -14.64865112 10.63301086 C-8.87890849 8.20702125 -3.54000931 5.31001397 0 0 Z " fill="#89807F" transform="translate(300,109)"/>
<path d="M0 0 C0.99 0 1.98 0 3 0 C3 0.66 3 1.32 3 2 C3.66 2 4.32 2 5 2 C5 2.99 5 3.98 5 5 C5.639375 5.12375 6.27875 5.2475 6.9375 5.375 C7.9584375 5.684375 7.9584375 5.684375 9 6 C9.33 6.66 9.66 7.32 10 8 C10.61875 7.505 11.2375 7.01 11.875 6.5 C14 5 14 5 16 5 C16 4.34 16 3.68 16 3 C16.99 3 17.98 3 19 3 C19 4.65 19 6.3 19 8 C11.14285714 13.02857143 11.14285714 13.02857143 6 12 C5.071875 10.7625 5.071875 10.7625 4.125 9.5 C2.32291875 6.8486656 2.32291875 6.8486656 0.046875 6.6328125 C-2.87620915 6.62229781 -5.35578585 6.67789293 -8 8 C-10.05859375 8.16796875 -10.05859375 8.16796875 -12.4375 8.1875 C-13.61119141 8.20876953 -13.61119141 8.20876953 -14.80859375 8.23046875 C-17 8 -17 8 -20 6 C-20 5.34 -20 4.68 -20 4 C-14.39 4 -8.78 4 -3 4 C-2.67 3.34 -2.34 2.68 -2 2 C-1.34 2 -0.68 2 0 2 C0 1.34 0 0.68 0 0 Z " fill="#4A312F" transform="translate(101,171)"/>
<path d="M0 0 C1.4540625 0.0309375 1.4540625 0.0309375 2.9375 0.0625 C2.9375 1.0525 2.9375 2.0425 2.9375 3.0625 C2.0403125 3.2171875 2.0403125 3.2171875 1.125 3.375 C-1.10085937 3.88104681 -1.10085937 3.88104681 -2.375 5.4375 C-5.59292142 8.53623914 -9.09444691 10.09065974 -13.51953125 10.02734375 C-15.72169392 9.78111769 -17.88527058 9.47227334 -20.0625 9.0625 C-20.0625 8.0725 -20.0625 7.0825 -20.0625 6.0625 C-20.7225 6.0625 -21.3825 6.0625 -22.0625 6.0625 C-22.0625 6.7225 -22.0625 7.3825 -22.0625 8.0625 C-23.3825 8.3925 -24.7025 8.7225 -26.0625 9.0625 C-26.0625 5.0625 -26.0625 5.0625 -24.5 3.25 C-21.1043134 1.59569115 -18.69724058 2.37669989 -15.0625 3.0625 C-14.7325 2.7325 -14.4025 2.4025 -14.0625 2.0625 C-11.48352306 1.74012788 -8.90318179 1.54982696 -6.3125 1.34375 C-3.24396212 0.96018276 -3.38965288 0.06917659 0 0 Z " fill="#F7E9D8" transform="translate(84.0625,153.9375)"/>
<path d="M0 0 C2.48250364 0.88823525 3.92874894 2.06157657 5.87890625 3.82421875 C6.79929687 4.64599609 6.79929687 4.64599609 7.73828125 5.484375 C8.42664063 6.11666016 8.42664063 6.11666016 9.12890625 6.76171875 C8.37890625 11.51171875 8.37890625 11.51171875 6.12890625 13.76171875 C0.56644433 13.63529916 -1.97001933 11.384145 -5.87109375 7.76171875 C-5.50396403 5.0449588 -5.14364776 3.15108162 -3.55859375 0.88671875 C-1.87109375 -0.23828125 -1.87109375 -0.23828125 0 0 Z " fill="#1C0000" transform="translate(92.87109375,137.23828125)"/>
<path d="M0 0 C1.74216797 0.04060547 1.74216797 0.04060547 3.51953125 0.08203125 C4.39996094 0.11683594 5.28039062 0.15164062 6.1875 0.1875 C5.8575 2.1675 5.5275 4.1475 5.1875 6.1875 C4.630625 6.16429687 4.07375 6.14109375 3.5 6.1171875 C-0.50464205 6.02248313 -4.01829778 6.10755739 -7.875 7.25 C-12.12497439 8.47282965 -15.48691168 7.95992649 -19.8125 7.1875 C-19.8125 5.8675 -19.8125 4.5475 -19.8125 3.1875 C-18.595625 3.249375 -17.37875 3.31125 -16.125 3.375 C-13.16774143 3.52536908 -12.01230051 3.31537232 -9.46875 1.6875 C-6.10926902 -0.20961867 -3.82785568 -0.11599563 0 0 Z " fill="#E4D5C5" transform="translate(100.8125,192.8125)"/>
<path d="M0 0 C0.71929687 0.03544922 1.43859375 0.07089844 2.1796875 0.10742188 C7.50393357 0.44143357 7.50393357 0.44143357 9.75 2.6875 C8.91190796 2.66393433 8.91190796 2.66393433 8.05688477 2.63989258 C5.4755301 2.57675076 2.8943387 2.53826296 0.3125 2.5 C-0.56599609 2.47486328 -1.44449219 2.44972656 -2.34960938 2.42382812 C-9.48692859 2.34481721 -16.11445314 3.16376716 -21.8125 7.75 C-23.90880756 12.03375894 -23.57746381 16.00294825 -23.25 20.6875 C-25.25 18.6875 -25.25 18.6875 -25.75 16.625 C-25.915 15.985625 -26.08 15.34625 -26.25 14.6875 C-26.91 14.3575 -27.57 14.0275 -28.25 13.6875 C-28.229375 14.491875 -28.20875 15.29625 -28.1875 16.125 C-28.25 18.6875 -28.25 18.6875 -29.25 19.6875 C-32.6875 19.875 -32.6875 19.875 -36.25 19.6875 C-36.91 19.0275 -37.57 18.3675 -38.25 17.6875 C-35.28 17.0275 -32.31 16.3675 -29.25 15.6875 C-28.92 14.3675 -28.59 13.0475 -28.25 11.6875 C-27.92 11.3575 -27.59 11.0275 -27.25 10.6875 C-27.20907063 8.35452567 -27.20758277 6.02044775 -27.25 3.6875 C-25.93 4.6775 -24.61 5.6675 -23.25 6.6875 C-22.693125 6.06875 -22.13625 5.45 -21.5625 4.8125 C-15.54135551 -0.72044358 -7.71025774 -0.51542932 0 0 Z " fill="#3D2421" transform="translate(94.25,182.3125)"/>
<path d="M0 0 C5.94 1.485 5.94 1.485 12 3 C12 2.34 12 1.68 12 1 C15.748649 0.03606169 18.25321318 0.15697297 22 1 C23.6662553 1.0370279 25.33401319 1.04759962 27 1 C27 1.66 27 2.32 27 3 C26.01 3 25.02 3 24 3 C24 3.99 24 4.98 24 6 C21.31297439 6.25086966 18.62768528 6.47611241 15.9375 6.6875 C15.18533203 6.76033203 14.43316406 6.83316406 13.65820312 6.90820312 C8.22773197 7.30784819 4.84330886 6.50205464 0 4 C0 2.68 0 1.36 0 0 Z " fill="#D0C0B2" transform="translate(29,188)"/>
<path d="M0 0 C3.37385776 0.12049492 4.3164687 1.3164687 6.75 3.75 C9 7 9 7 9.4375 9.75 C9 12 9 12 7 14 C4.5625 14.375 4.5625 14.375 2 14 C0.1875 12.5625 0.1875 12.5625 -1 10 C-1.29058272 6.97793975 -1.31861279 4.02069437 -1 1 C-0.67 0.67 -0.34 0.34 0 0 Z " fill="#2F1413" transform="translate(25,197)"/>
<path d="M0 0 C1.5 1.0625 1.5 1.0625 3 3 C3.1875 6.6875 3.1875 6.6875 3 10 C4.32 10 5.64 10 7 10 C7.33 10.99 7.66 11.98 8 13 C3.3110507 12.44380331 -0.19924267 11.11817327 -4.375 8.9375 C-5.43460938 8.38964844 -6.49421875 7.84179688 -7.5859375 7.27734375 C-8.38257812 6.85582031 -9.17921875 6.43429688 -10 6 C-9.34 5.34 -8.68 4.68 -8 4 C-7.67 4.33 -7.34 4.66 -7 5 C-5.33382885 5.04063832 -3.66611905 5.042721 -2 5 C-1.34 3.35 -0.68 1.7 0 0 Z " fill="#CFBEBC" transform="translate(34,205)"/>
<path d="M0 0 C0 0.99 0 1.98 0 3 C-2.21337616 3.73779205 -4.42705212 4.47381085 -6.64453125 5.19921875 C-8.39205544 5.79331901 -10.11210291 6.46955456 -11.8125 7.1875 C-18.21901993 8.82053449 -25.10709409 9.17589309 -31 6 C-30.15405273 5.94054199 -30.15405273 5.94054199 -29.29101562 5.87988281 C-26.69239434 5.68727411 -24.09654123 5.46880965 -21.5 5.25 C-20.613125 5.188125 -19.72625 5.12625 -18.8125 5.0625 C-13.41610035 4.58634709 -9.36366567 3.58528631 -4.67382812 0.83105469 C-3 0 -3 0 0 0 Z " fill="#422A27" transform="translate(112,202)"/>
<path d="M0 0 C1.2684375 0.495 1.2684375 0.495 2.5625 1 C2.2325 1.66 1.9025 2.32 1.5625 3 C0.9025 3 0.2425 3 -0.4375 3 C-0.4375 3.66 -0.4375 4.32 -0.4375 5 C-3.7375 5 -7.0375 5 -10.4375 5 C-11.0975 3.35 -11.7575 1.7 -12.4375 0 C-8.41501725 -2.01124138 -4.18016888 -1.21604913 0 0 Z " fill="#1F0302" transform="translate(82.4375,170)"/>
<path d="M0 0 C0.99 0 1.98 0 3 0 C3 1.65 3 3.3 3 5 C-4.73459716 9.85308057 -4.73459716 9.85308057 -9 9 C-11 6 -11 6 -11 3 C-9.68 3 -8.36 3 -7 3 C-6.67 3.66 -6.34 4.32 -6 5 C-5.071875 4.2575 -5.071875 4.2575 -4.125 3.5 C-2 2 -2 2 0 2 C0 1.34 0 0.68 0 0 Z " fill="#DCCDBD" transform="translate(117,174)"/>
<path d="M0 0 C0.66 0.33 1.32 0.66 2 1 C-6.25 9.25 -14.5 17.5 -23 26 C-23 22.48401315 -22.56814673 22.16359981 -20.25390625 19.70703125 C-19.66754395 19.07998291 -19.08118164 18.45293457 -18.47705078 17.80688477 C-17.84524902 17.14873779 -17.21344727 16.49059082 -16.5625 15.8125 C-15.92812012 15.14210693 -15.29374023 14.47171387 -14.64013672 13.78100586 C-9.98553281 8.90860473 -5.1934569 4.30040214 0 0 Z " fill="#877E7C" transform="translate(151,174)"/>
<path d="M0 0 C1.916588 -0.02712153 3.8332873 -0.04645097 5.75 -0.0625 C7.35101563 -0.07990234 7.35101563 -0.07990234 8.984375 -0.09765625 C11.5584322 -0.01429948 13.54558248 0.3229193 16 1 C17.99963028 1.03845443 20.00051633 1.04544281 22 1 C22 1.66 22 2.32 22 3 C14.77248543 4.25695906 7.16828842 4.91154358 0 3 C0 2.01 0 1.02 0 0 Z " fill="#C8BAB3" transform="translate(47,217)"/>
<path d="M0 0 C0.721875 0.144375 1.44375 0.28875 2.1875 0.4375 C3.99102553 0.79820511 5.80424295 1.11489185 7.625 1.375 C10 2 10 2 11.4375 3.5 C13.70217889 5.67409173 15.95707737 5.66189749 19 6 C19 6.99 19 7.98 19 9 C17.54077307 8.88590407 16.08259402 8.75834456 14.625 8.625 C13.81289063 8.55539063 13.00078125 8.48578125 12.1640625 8.4140625 C10 8 10 8 8 6 C6.33927151 5.31867549 4.672233 4.65257873 3 4 C2.01 3.34 1.02 2.68 0 2 C0 1.34 0 0.68 0 0 Z " fill="#DFCFC0" transform="translate(49,176)"/>
<path d="M0 0 C1.65 0 3.3 0 5 0 C5.48798077 6.34375 5.48798077 6.34375 3.1875 9.4375 C1 11 1 11 -2 11 C-1.53078003 8.58686871 -1.0498364 6.19380821 -0.4375 3.8125 C0.07821351 1.98673164 0.07821351 1.98673164 0 0 Z " fill="#F4E6D5" transform="translate(110,188)"/>
<path d="M0 0 C1.32 0.66 2.64 1.32 4 2 C4 2.99 4 3.98 4 5 C4.66 5 5.32 5 6 5 C5.30058404 8.14737182 4.23921302 11.02588876 3 14 C3.66 14.33 4.32 14.66 5 15 C3.68 15 2.36 15 1 15 C1 11 1 7 1 3 C0.34 2.34 -0.32 1.68 -1 1 C-0.67 0.67 -0.34 0.34 0 0 Z " fill="#4A312D" transform="translate(105,185)"/>
<path d="M0 0 C4.75 0.75 4.75 0.75 7 3 C6.01 3 5.02 3 4 3 C4 3.66 4 4.32 4 5 C4.5775 5.28875 5.155 5.5775 5.75 5.875 C7.83333333 6.91666667 9.91666667 7.95833333 12 9 C9.03 9 6.06 9 3 9 C2.67 6.69 2.34 4.38 2 2 C1.34 2 0.68 2 0 2 C0 1.34 0 0.68 0 0 Z " fill="#68514A" transform="translate(45,173)"/>
<path d="M0 0 C3.3783395 0.41199262 5.93735486 0.96867743 9 2.5 C14.55410592 5.08184062 20.98522283 4.75807415 27 5 C27 5.33 27 5.66 27 6 C17.9018375 6.4367118 10.13610016 6.69324514 2 2 C1.34 1.34 0.68 0.68 0 0 Z " fill="#523B37" transform="translate(29,196)"/>
<path d="M0 0 C1.4540625 0.0309375 1.4540625 0.0309375 2.9375 0.0625 C2.9375 1.0525 2.9375 2.0425 2.9375 3.0625 C2.31875 3.18625 1.7 3.31 1.0625 3.4375 C-1.25370832 3.93447356 -1.25370832 3.93447356 -3.0625 6.0625 C-3.0625 5.0725 -3.0625 4.0825 -3.0625 3.0625 C-6.6925 3.0625 -10.3225 3.0625 -14.0625 3.0625 C-14.0625 2.7325 -14.0625 2.4025 -14.0625 2.0625 C-13.35222656 2.00191406 -12.64195313 1.94132813 -11.91015625 1.87890625 C-10.53150391 1.75322266 -10.53150391 1.75322266 -9.125 1.625 C-8.20847656 1.54378906 -7.29195313 1.46257812 -6.34765625 1.37890625 C-3.25443451 0.95061401 -3.40544167 0.06949881 0 0 Z " fill="#BDAC9F" transform="translate(84.0625,153.9375)"/>
<path d="M0 0 C-2.13300328 2.36557373 -3.95949399 3.62967528 -6.9375 4.75 C-7.94103516 5.14445313 -7.94103516 5.14445313 -8.96484375 5.546875 C-11.31647491 6.07046274 -12.73617523 5.74954377 -15 5 C-2.63803681 -1.3190184 -2.63803681 -1.3190184 0 0 Z " fill="#39201C" transform="translate(99,212)"/>
<path d="M0 0 C0 0.99 0 1.98 0 3 C-4.455 4.485 -4.455 4.485 -9 6 C-9.66 5.34 -10.32 4.68 -11 4 C-9.73308493 3.32591692 -8.46129251 2.66099503 -7.1875 2 C-6.47980469 1.62875 -5.77210937 1.2575 -5.04296875 0.875 C-3 0 -3 0 0 0 Z " fill="#654F4B" transform="translate(112,202)"/>
<path d="M0 0 C0.66 0.33 1.32 0.66 2 1 C1.21625 1.763125 0.4325 2.52625 -0.375 3.3125 C-3.07257717 5.90891805 -3.07257717 5.90891805 -5 9 C-4.01 9.33 -3.02 9.66 -2 10 C-3.65 10.33 -5.3 10.66 -7 11 C-6.85969405 7.98342209 -6.70648535 5.76158727 -4.59765625 3.48828125 C-3.11095765 2.26743934 -1.55865102 1.12753478 0 0 Z " fill="#4C3531" transform="translate(52,207)"/>
<path d="M0 0 C4.98287932 0.39081406 8.65022018 1.55987961 13 4 C13 4.33 13 4.66 13 5 C11.22825181 4.91276622 9.45752623 4.80458345 7.6875 4.6875 C6.70136719 4.62949219 5.71523438 4.57148438 4.69921875 4.51171875 C1.75615543 3.95377187 0.81817001 3.31459868 -1 1 C-0.67 0.67 -0.34 0.34 0 0 Z " fill="#351B17" transform="translate(51,181)"/>
<path d="M0 0 C0.99 0.33 1.98 0.66 3 1 C2.01 1.495 2.01 1.495 1 2 C1.66 2.33 2.32 2.66 3 3 C3.625 5.0625 3.625 5.0625 4 7 C3.34 7 2.68 7 2 7 C2 6.01 2 5.02 2 4 C1.34 4 0.68 4 0 4 C0 4.66 0 5.32 0 6 C-1.32 6.33 -2.64 6.66 -4 7 C-4 5.68 -4 4.36 -4 3 C-2.1875 1.1875 -2.1875 1.1875 0 0 Z " fill="#BEADA0" transform="translate(62,156)"/>
<path d="M0 0 C1.32 0.33 2.64 0.66 4 1 C4 2.65 4 4.3 4 6 C2.68 6.33 1.36 6.66 0 7 C0 4.69 0 2.38 0 0 Z " fill="#2F1313" transform="translate(37,207)"/>
<path d="M0 0 C0.66 0.33 1.32 0.66 2 1 C-1.3 4.3 -4.6 7.6 -8 11 C-8.66 10.34 -9.32 9.68 -10 9 C-6.7 6.03 -3.4 3.06 0 0 Z " fill="#807674" transform="translate(151,174)"/>
<path d="M0 0 C1.32 0 2.64 0 4 0 C3.34 3.63 2.68 7.26 2 11 C1.67 11 1.34 11 1 11 C1 8.69 1 6.38 1 4 C0.01 3.67 -0.98 3.34 -2 3 C-1.34 2.01 -0.68 1.02 0 0 Z " fill="#9F8B81" transform="translate(114,184)"/>
<path d="M0 0 C0.33 0.99 0.66 1.98 1 3 C0.01 3.33 -0.98 3.66 -2 4 C-2.33 4.66 -2.66 5.32 -3 6 C-3.66 6 -4.32 6 -5 6 C-5 5.34 -5 4.68 -5 4 C-5.99 3.67 -6.98 3.34 -8 3 C-8 2.67 -8 2.34 -8 2 C-2.25 0 -2.25 0 0 0 Z " fill="#5D4640" transform="translate(116,181)"/>
<path d="M0 0 C0.99 0 1.98 0 3 0 C3 0.66 3 1.32 3 2 C3.66 2.33 4.32 2.66 5 3 C4.34 3 3.68 3 3 3 C3.66 4.98 4.32 6.96 5 9 C2.5 6.75 2.5 6.75 0 4 C0 2.68 0 1.36 0 0 Z " fill="#6C564F" transform="translate(103,174)"/>
<path d="M0 0 C2.31 0 4.62 0 7 0 C6.67 0.66 6.34 1.32 6 2 C5.34 2 4.68 2 4 2 C4 2.66 4 3.32 4 4 C2.02 4 0.04 4 -2 4 C-1.34 3.67 -0.68 3.34 0 3 C0 2.01 0 1.02 0 0 Z " fill="#2F1612" transform="translate(78,171)"/>
<path d="M0 0 C0.99 0.33 1.98 0.66 3 1 C3.33 2.98 3.66 4.96 4 7 C2.68 7.33 1.36 7.66 0 8 C0 5.36 0 2.72 0 0 Z " fill="#442B28" transform="translate(69,177)"/>
<path d="M0 0 C1.98 0.99 1.98 0.99 4 2 C3.34 3.65 2.68 5.3 2 7 C2.66 7.33 3.32 7.66 4 8 C2.68 8 1.36 8 0 8 C0 5.36 0 2.72 0 0 Z " fill="#563F38" transform="translate(106,192)"/>
<path d="M0 0 C3 2 3 2 3.8125 3.9375 C4 6 4 6 2 9 C0 7 0 7 -0.125 3.375 C-0.08375 2.26125 -0.0425 1.1475 0 0 Z " fill="#3E2521" transform="translate(26,187)"/>
<path d="M0 0 C2.475 0.495 2.475 0.495 5 1 C5 1.66 5 2.32 5 3 C5.99 3.33 6.98 3.66 8 4 C6.25 4.6875 6.25 4.6875 4 5 C1.75 3.6875 1.75 3.6875 0 2 C0 1.34 0 0.68 0 0 Z " fill="#F2E4D3" transform="translate(49,176)"/>
<path d="M0 0 C1.98 0 3.96 0 6 0 C6.33 0.66 6.66 1.32 7 2 C4.36 2.66 1.72 3.32 -1 4 C-0.67 2.68 -0.34 1.36 0 0 Z " fill="#442B2A" transform="translate(55,203)"/>
<path d="M0 0 C1.32 0 2.64 0 4 0 C4.33 1.32 4.66 2.64 5 4 C4.34 4 3.68 4 3 4 C2.67 4.66 2.34 5.32 2 6 C0 3 0 3 0 0 Z " fill="#C0AEA1" transform="translate(106,177)"/>
<path d="M0 0 C1.65 0 3.3 0 5 0 C5 0.99 5 1.98 5 3 C3.02 3.33 1.04 3.66 -1 4 C-0.67 2.68 -0.34 1.36 0 0 Z " fill="#4A3531" transform="translate(230,137)"/>
<path d="M0 0 C0.66 0.33 1.32 0.66 2 1 C-1.465 3.97 -1.465 3.97 -5 7 C-5.33 6.34 -5.66 5.68 -6 5 C-4.06745228 2.9754262 -2.36841312 1.57894208 0 0 Z " fill="#827876" transform="translate(114,205)"/>
<path d="M0 0 C1.48199902 0.44909061 2.96055236 0.90956564 4.4375 1.375 C5.26121094 1.63023437 6.08492188 1.88546875 6.93359375 2.1484375 C9 3 9 3 10 5 C6.05140217 4.4359146 3.29120954 3.2568294 0 1 C0 0.67 0 0.34 0 0 Z " fill="#4C3531" transform="translate(71,203)"/>
<path d="M0 0 C2.31 0 4.62 0 7 0 C7 0.99 7 1.98 7 3 C4.69 2.67 2.38 2.34 0 2 C0 1.34 0 0.68 0 0 Z " fill="#F7E9D8" transform="translate(61,182)"/>
<path d="M0 0 C1.485 0.99 1.485 0.99 3 2 C3 2.66 3 3.32 3 4 C1.68 3.34 0.36 2.68 -1 2 C-0.67 1.34 -0.34 0.68 0 0 Z " fill="#1D0000" transform="translate(125,134)"/>
</svg>
