<?xml version="1.0" encoding="UTF-8"?>
<svg version="1.1" xmlns="http://www.w3.org/2000/svg" width="320" height="320">
<path d="M0 0 C0.08115993 3.06303578 0.14057409 6.12390815 0.1875 9.1875 C0.22520508 10.48397461 0.22520508 10.48397461 0.26367188 11.80664062 C0.31991368 16.69967743 0.26389979 20.07439843 -3 24 C-14.70622301 34.68948533 -32.06925256 39.30551315 -47.125 42.5625 C-48.78478979 42.9387056 -50.44412625 43.31691628 -52.10302734 43.69702148 C-59.24765999 45.32468782 -66.40741586 46.87941688 -73.57521057 48.40150452 C-88.19857712 51.50914281 -102.29701816 54.76141879 -115.93505859 61.04882812 C-117.88735346 61.94811174 -119.8550983 62.79727107 -121.83203125 63.640625 C-128.17034886 66.51977258 -133.31909613 69.80789916 -138.53515625 74.36328125 C-139.43638466 75.14367516 -139.43638466 75.14367516 -140.3558197 75.93983459 C-147.22816357 81.96627416 -153.65013501 88.43005729 -160.0625 94.9375 C-161.2566781 96.14175555 -162.45133843 97.34553309 -163.64648438 98.54882812 C-165.82596939 100.74440014 -168.00269981 102.94261851 -170.17602539 105.14428711 C-186.89091686 122.05183696 -207.48472364 134.83969447 -231.83276367 135.48754883 C-248.04681136 135.55257332 -267.87734772 134.72618475 -281.5 124.75 C-286.27232872 119.50043841 -289.26446179 114.65827923 -289.625 107.4375 C-289.33526448 101.83072619 -287.62539164 98.2218571 -284 94 C-283.32517578 93.20142578 -283.32517578 93.20142578 -282.63671875 92.38671875 C-276.07706546 85.82706546 -265.02491764 82.182 -256 81 C-255.95875 80.401875 -255.9175 79.80375 -255.875 79.1875 C-255.441875 78.1046875 -255.441875 78.1046875 -255 77 C-254.071875 76.62875 -253.14375 76.2575 -252.1875 75.875 C-248.00841825 73.41671662 -247.67889553 71.14616183 -246.13671875 66.71484375 C-244.16187167 61.99828458 -240.69185716 56.34592858 -236 54 C-229.75206612 53.53719008 -229.75206612 53.53719008 -226.5625 55.5 C-226.046875 55.995 -225.53125 56.49 -225 57 C-224.566875 56.071875 -224.13375 55.14375 -223.6875 54.1875 C-222.22194468 51.41922883 -221.36206568 49.92403002 -219 48 C-214.67566397 46.69858078 -210.98365413 46.64058791 -206.75 48.1875 C-202.59335067 50.92710979 -199.34658794 53.35046765 -196.5625 57.5 C-194.77746045 60.14678278 -193.79389554 61.13310913 -191 62.9375 C-186.63776226 65.93653845 -183.79496457 69.896131 -182.46875 75.07421875 C-182.1875 77 -182.1875 77 -182 80 C-175.4612064 76.27708439 -169.0336183 72.41112742 -162.65893555 68.41552734 C-153.90015751 62.92912722 -145.05420172 57.7320678 -135.96337891 52.81567383 C-131.34424054 50.31138257 -126.82763421 47.72737106 -122.375 44.9375 C-33.82201893 -10.39408387 -33.82201893 -10.39408387 0 0 Z M-223 67 C-222.67 67.99 -222.34 68.98 -222 70 C-221.67 69.01 -221.34 68.02 -221 67 C-221.66 67 -222.32 67 -223 67 Z M-204 75 C-204 76.65 -204 78.3 -204 80 C-203.01 80 -202.02 80 -201 80 C-201.33 78.35 -201.66 76.7 -202 75 C-202.66 75 -203.32 75 -204 75 Z " fill="#361D19" transform="translate(304,93)"/>
<path d="M0 0 C3.20138895 2.5960581 5.37107333 5.35741664 7.6015625 8.79296875 C8.89534432 10.66750015 8.89534432 10.66750015 11.8125 12.3125 C16.8264877 15.75961654 19.15647667 20.17539235 20.875 25.9375 C20.79160798 30.52406088 19.35305426 32.60266185 16.8125 36.375 C17.286875 36.973125 17.76125 37.57125 18.25 38.1875 C20.55938193 41.42063471 20.95039613 44.00616207 20.9375 47.875 C20.94136719 49.03515625 20.94136719 49.03515625 20.9453125 50.21875 C20.8125 52.375 20.8125 52.375 19.8125 55.375 C12.09948597 61.53321673 2.77432552 65.41397215 -6.1875 69.375 C-7.39599609 69.9628125 -7.39599609 69.9628125 -8.62890625 70.5625 C-26.20848927 78.61325716 -47.05535197 79.65638494 -65.1875 73.375 C-79.26415666 67.85806075 -79.26415666 67.85806075 -82.1875 61.375 C-83.09848946 57.44150288 -82.89729373 53.90592765 -81.19140625 50.2265625 C-75.84170356 42.3156707 -67.08897931 38.13752806 -58.1875 35.375 C-56.8675 35.375 -55.5475 35.375 -54.1875 35.375 C-54.07792969 36.18324219 -53.96835937 36.99148437 -53.85546875 37.82421875 C-53.69691406 38.89285156 -53.53835937 39.96148437 -53.375 41.0625 C-53.22417969 42.11824219 -53.07335937 43.17398438 -52.91796875 44.26171875 C-52.16358241 47.47693753 -51.02875013 49.65600323 -49.1875 52.375 C-49.8475 52.375 -50.5075 52.375 -51.1875 52.375 C-51.22875 52.931875 -51.27 53.48875 -51.3125 54.0625 C-52.63131247 57.54793296 -55.3168644 59.10241349 -58.1875 61.375 C-58.5175 62.035 -58.8475 62.695 -59.1875 63.375 C-63.49590713 62.29789822 -66.82326723 61.33552484 -70.1875 58.375 C-67.89089387 61.02493015 -66.54780822 62.27205479 -63.125 63.25 C-60.1875 64.375 -60.1875 64.375 -58.375 67.4375 C-57.983125 68.406875 -57.59125 69.37625 -57.1875 70.375 C-54.98998948 72.57251052 -50.16096462 71.70004396 -47.125 71.75 C-46.29033203 71.78738281 -45.45566406 71.82476562 -44.59570312 71.86328125 C-38.2955286 71.95167029 -34.0228089 70.49253695 -29.1875 66.375 C-27.61814406 63.23628812 -27.83548897 60.83644178 -28.1875 57.375 C-30.54168376 54.43526719 -30.54168376 54.43526719 -33.1875 52.375 C-32.6925 51.694375 -32.1975 51.01375 -31.6875 50.3125 C-29.88384889 46.78034991 -29.95728647 44.28863009 -30.1875 40.375 C-30.455625 41.468125 -30.72375 42.56125 -31 43.6875 C-32.56458883 48.54596005 -34.04428468 49.61285646 -38.1875 52.375 C-45.18406881 53.16493519 -45.18406881 53.16493519 -49.125 50.0625 C-53.1653334 44.79782314 -52.93616073 38.76873472 -52.1875 32.375 C-50.125 29.0625 -50.125 29.0625 -47.1875 27.375 C-43.50454471 27.50199846 -40.66805442 28.21481519 -37.1875 29.375 C-39.1675 28.385 -41.1475 27.395 -43.1875 26.375 C-43.82197059 21.29923531 -42.51931456 18.42314568 -39.7421875 14.34375 C-37.25245533 11.19092333 -34.66438726 8.43368325 -31.1875 6.375 C-27.75 6 -27.75 6 -25.1875 6.375 C-23.27447693 9.64113695 -22.83075339 12.36945248 -22.5625 16.125 C-22.48773438 17.10984375 -22.41296875 18.0946875 -22.3359375 19.109375 C-22.28695312 19.85703125 -22.23796875 20.6046875 -22.1875 21.375 C-22.22230469 20.44558594 -22.25710937 19.51617187 -22.29296875 18.55859375 C-22.59385606 4.81807313 -22.59385606 4.81807313 -17.75 -1.5 C-12.18092541 -5.5097337 -5.20330318 -3.68854195 0 0 Z M-20.1875 16.375 C-19.8575 17.365 -19.5275 18.355 -19.1875 19.375 C-18.8575 18.385 -18.5275 17.395 -18.1875 16.375 C-18.8475 16.375 -19.5075 16.375 -20.1875 16.375 Z M-1.1875 24.375 C-1.1875 26.025 -1.1875 27.675 -1.1875 29.375 C-0.1975 29.375 0.7925 29.375 1.8125 29.375 C1.4825 27.725 1.1525 26.075 0.8125 24.375 C0.1525 24.375 -0.5075 24.375 -1.1875 24.375 Z " fill="#6B5248" transform="translate(101.1875,143.625)"/>
<path d="M0 0 C0.4596998 5.74624746 -0.32499296 8.55130726 -4 13 C-10.55913732 19.26099471 -18.35264719 22.3474392 -26.875 25.125 C-27.75792725 25.41721436 -28.64085449 25.70942871 -29.55053711 26.01049805 C-37.43959239 28.57965952 -45.40104401 30.8779433 -53.3710022 33.17889404 C-96.90028352 45.76408209 -141.56200026 60.28353579 -171.37890625 96.3203125 C-173 98 -173 98 -176 99 C-176.103125 97.80375 -176.20625 96.6075 -176.3125 95.375 C-176.78867021 91.42558824 -178.0826894 88.50117588 -180 85 C-180 84.34 -180 83.68 -180 83 C-179.35675781 82.6596875 -178.71351563 82.319375 -178.05078125 81.96875 C-170.51672061 77.92765613 -163.2542191 73.51862132 -156 69 C-147.02167263 63.40766494 -138.06070537 57.91827767 -128.66650391 53.04980469 C-123.80033972 50.4994579 -119.15610347 47.66307563 -114.5 44.75 C-27.55834302 -9.18611434 -27.55834302 -9.18611434 0 0 Z " fill="#E4D4D1" transform="translate(300,96)"/>
<path d="M0 0 C1.56432082 3.12864165 0.60205825 6.09796563 0.15625 9.4921875 C0.00377367 11.93943252 0.26576849 13.67853273 1 16 C0.34 16 -0.32 16 -1 16 C-0.34 17.32 0.32 18.64 1 20 C0.34 20 -0.32 20 -1 20 C-1.33 22.31 -1.66 24.62 -2 27 C-2.66 27 -3.32 27 -4 27 C-4 26.34 -4 25.68 -4 25 C-4.66 25 -5.32 25 -6 25 C-6.0825 25.5775 -6.165 26.155 -6.25 26.75 C-7.225982 29.67794601 -8.63511223 31.05244537 -11 33 C-11.99 33 -12.98 33 -14 33 C-13.67 33.66 -13.34 34.32 -13 35 C-11.6078125 33.9790625 -11.6078125 33.9790625 -10.1875 32.9375 C-9.135625 32.298125 -8.08375 31.65875 -7 31 C-6.01 31.33 -5.02 31.66 -4 32 C-4.515625 32.350625 -5.03125 32.70125 -5.5625 33.0625 C-7.34435366 35.04188986 -7.34435366 35.04188986 -6.875 38.3125 C-5.63359692 43.54412724 -3.88758962 47.29753369 0 51 C0 51.66 0 52.32 0 53 C-0.99 53.33 -1.98 53.66 -3 54 C-5.51250583 57.76875875 -5.53016086 59.53150134 -5 64 C-3.1157253 67.08208502 -0.54497641 69.45502359 2 72 C-15.56792416 78.50663858 -32.70869979 78.74661076 -50.02734375 71.3515625 C-60.5167124 66.50715482 -60.5167124 66.50715482 -63 61 C-63.91098946 57.06650288 -63.70979373 53.53092765 -62.00390625 49.8515625 C-56.65420356 41.9406707 -47.90147931 37.76252806 -39 35 C-37.68 35 -36.36 35 -35 35 C-34.89042969 35.80824219 -34.78085937 36.61648437 -34.66796875 37.44921875 C-34.50941406 38.51785156 -34.35085937 39.58648437 -34.1875 40.6875 C-34.03667969 41.74324219 -33.88585937 42.79898438 -33.73046875 43.88671875 C-32.97608241 47.10193753 -31.84125013 49.28100323 -30 52 C-30.66 52 -31.32 52 -32 52 C-32.04125 52.556875 -32.0825 53.11375 -32.125 53.6875 C-33.44381247 57.17293296 -36.1293644 58.72741349 -39 61 C-39.33 61.66 -39.66 62.32 -40 63 C-44.30840713 61.92289822 -47.63576723 60.96052484 -51 58 C-48.70339387 60.64993015 -47.36030822 61.89705479 -43.9375 62.875 C-41 64 -41 64 -39.1875 67.0625 C-38.795625 68.031875 -38.40375 69.00125 -38 70 C-35.80248948 72.19751052 -30.97346462 71.32504396 -27.9375 71.375 C-27.10283203 71.41238281 -26.26816406 71.44976562 -25.40820312 71.48828125 C-19.1080286 71.57667029 -14.8353089 70.11753695 -10 66 C-8.43064406 62.86128812 -8.64798897 60.46144178 -9 57 C-11.35418376 54.06026719 -11.35418376 54.06026719 -14 52 C-13.505 51.319375 -13.01 50.63875 -12.5 49.9375 C-10.69634889 46.40534991 -10.76978647 43.91363009 -11 40 C-11.268125 41.093125 -11.53625 42.18625 -11.8125 43.3125 C-13.37708883 48.17096005 -14.85678468 49.23785646 -19 52 C-25.99656881 52.78993519 -25.99656881 52.78993519 -29.9375 49.6875 C-33.9778334 44.42282314 -33.74866073 38.39373472 -33 32 C-30.9375 28.6875 -30.9375 28.6875 -28 27 C-24.31704471 27.12699846 -21.48055442 27.83981519 -18 29 C-19.98 28.01 -21.96 27.02 -24 26 C-24.63447059 20.92423531 -23.33181456 18.04814568 -20.5546875 13.96875 C-18.06495533 10.81592333 -15.47688726 8.05868325 -12 6 C-8.5625 5.625 -8.5625 5.625 -6 6 C-4.08697693 9.26613695 -3.64325339 11.99445248 -3.375 15.75 C-3.30023438 16.73484375 -3.22546875 17.7196875 -3.1484375 18.734375 C-3.09945312 19.48203125 -3.05046875 20.2296875 -3 21 C-3.03480469 20.07058594 -3.06960937 19.14117187 -3.10546875 18.18359375 C-3.37434095 5.90509666 -3.37434095 5.90509666 0 0 Z " fill="#DECAB9" transform="translate(82,144)"/>
<path d="M0 0 C6.16240105 0.43934567 10.47402496 5.57921705 14.375 9.9375 C17.38875344 14.35985559 17.38875344 14.35985559 17.3125 17.5625 C16.12459072 20.57187018 15.27354954 21.48822523 12.375 22.9375 C8.625 23.125 8.625 23.125 5.375 22.9375 C5.53871094 23.44796875 5.70242187 23.9584375 5.87109375 24.484375 C6.54198481 27.75041828 6.4683456 30.8561747 6.4375 34.1875 C6.42847656 35.45078125 6.41945313 36.7140625 6.41015625 38.015625 C6.39855469 38.97984375 6.38695313 39.9440625 6.375 40.9375 C3.9 41.4325 3.9 41.4325 1.375 41.9375 C1.60316406 42.54078125 1.83132812 43.1440625 2.06640625 43.765625 C2.35386719 44.56484375 2.64132813 45.3640625 2.9375 46.1875 C3.22753906 46.97640625 3.51757812 47.7653125 3.81640625 48.578125 C4.42022837 51.12853452 4.2223932 52.49072229 3.375 54.9375 C-7.38012823 53.9997753 -7.38012823 53.9997753 -11.25 49.4375 C-14.3986692 45.1422056 -14.91510722 42.35283474 -14.625 36.9375 C-13.965 36.2775 -13.305 35.6175 -12.625 34.9375 C-9.24202587 35.11555127 -7.86227939 35.72587244 -5.3125 38 C-4.4771875 38.9590625 -4.4771875 38.9590625 -3.625 39.9375 C-4.264375 39.15375 -4.90375 38.37 -5.5625 37.5625 C-8.44573643 33.89292636 -8.95154752 31.69569529 -8.92578125 26.98046875 C-8.46584984 23.85651903 -6.80500297 22.11750297 -4.625 19.9375 C-4.026875 20.2675 -3.42875 20.5975 -2.8125 20.9375 C-0.57113529 22.14537988 -0.57113529 22.14537988 2.375 21.9375 C1.82070312 21.62296875 1.26640625 21.3084375 0.6953125 20.984375 C-0.02914062 20.55640625 -0.75359375 20.1284375 -1.5 19.6875 C-2.21929687 19.26984375 -2.93859375 18.8521875 -3.6796875 18.421875 C-5.87418966 16.74735528 -6.6491505 15.49661552 -7.625 12.9375 C-8.1255569 9.09989709 -7.70804208 7.12434468 -6.125 3.5625 C-3.625 0.9375 -3.625 0.9375 0 0 Z " fill="#DFC8AC" transform="translate(90.625,142.0625)"/>
<path d="M0 0 C0.10957031 0.80824219 0.21914063 1.61648437 0.33203125 2.44921875 C0.49058594 3.51785156 0.64914063 4.58648437 0.8125 5.6875 C0.96332031 6.74324219 1.11414063 7.79898438 1.26953125 8.88671875 C2.02391759 12.10193753 3.15874987 14.28100323 5 17 C4.34 17 3.68 17 3 17 C2.95875 17.556875 2.9175 18.11375 2.875 18.6875 C1.55618753 22.17293296 -1.1293644 23.72741349 -4 26 C-4.33 26.66 -4.66 27.32 -5 28 C-9.30840713 26.92289822 -12.63576723 25.96052484 -16 23 C-13.86619379 25.29186593 -12.25305671 26.88552197 -9.375 28.1875 C-5.72648371 30.97189401 -5.61560681 34.61724707 -5 39 C-9.86056767 38.4342984 -13.85159615 36.92489307 -18.1875 34.75 C-18.80302734 34.46253906 -19.41855469 34.17507812 -20.05273438 33.87890625 C-24.06286071 31.88904941 -26.20021863 30.11288066 -28 26 C-28.91098946 22.06650288 -28.70979373 18.53092765 -27.00390625 14.8515625 C-21.35432056 6.49721765 -10.12396298 0 0 0 Z " fill="#E2D2D0" transform="translate(47,179)"/>
<path d="M0 0 C4.43936951 1.35647402 6.4156882 3.16808939 9 7 C11.13068942 11.04830991 11.33664413 14.45530427 11 19 C10.34 19.99 9.68 20.98 9 22 C9.474375 22.598125 9.94875 23.19625 10.4375 23.8125 C12.74688193 27.04563471 13.13789613 29.63116207 13.125 33.5 C13.12886719 34.66015625 13.12886719 34.66015625 13.1328125 35.84375 C13 38 13 38 12 41 C7.73890368 43.84073088 4.00143521 43.5133666 -1 43 C-5.11275909 41.45771534 -6.55780938 40.66328593 -9 37 C-9.47980725 31.81808167 -8.78799169 29.28921798 -6 25 C-5.27833809 22.68308546 -4.59940471 20.35151077 -4 18 C-1.525 19.98 -1.525 19.98 1 22 C0.38125 21.360625 -0.2375 20.72125 -0.875 20.0625 C-3.52364248 16.24533878 -4.90320841 12.6811932 -5 8 C-3.1875 5.6875 -3.1875 5.6875 -1 4 C-0.2127322 1.8618034 -0.2127322 1.8618034 0 0 Z " fill="#EAD6C5" transform="translate(109,158)"/>
<path d="M0 0 C1.10601562 -0.02835938 2.21203125 -0.05671875 3.3515625 -0.0859375 C7.01322283 0.47230012 8.13831384 1.48484022 10.375 4.375 C11.0625 6.75 11.0625 6.75 10.375 9.375 C6.53540366 14.34316779 2.02536866 16.23409239 -4.0625 17.125 C-5.3309375 17.24875 -5.3309375 17.24875 -6.625 17.375 C-7.8625 17.49875 -7.8625 17.49875 -9.125 17.625 C-12.90523145 17.82395955 -14.98074795 17.7738227 -18.25 15.75 C-19.625 13.375 -19.625 13.375 -19.75 10.4375 C-18.32646752 6.56232824 -16.13123513 4.40376498 -12.625 2.375 C-8.3319027 0.65776108 -4.61491698 0.05403884 0 0 Z " fill="#E9D6C4" transform="translate(62.625,197.625)"/>
<path d="M0 0 C3.59208326 0.67351561 4.80366842 1.69037409 7 4.5625 C7 5.2225 7 5.8825 7 6.5625 C6.01 6.8925 5.02 7.2225 4 7.5625 C1.48749417 11.33125875 1.46983914 13.09400134 2 17.5625 C3.8842747 20.64458502 6.45502359 23.01752359 9 25.5625 C-3.76720659 30.29109503 -19.80937817 33.72173515 -33 28.5625 C-35.25832173 25.34873446 -35.22049747 22.42120568 -35 18.5625 C-35.66 18.2325 -36.32 17.9025 -37 17.5625 C-36.01 17.5625 -35.02 17.5625 -34 17.5625 C-33.525625 18.531875 -33.05125 19.50125 -32.5625 20.5 C-31.29806053 23.36727437 -31.29806053 23.36727437 -30 24.5625 C-26.96320174 24.7715225 -23.97758692 24.88747613 -20.9375 24.9375 C-20.10283203 24.97488281 -19.26816406 25.01226562 -18.40820312 25.05078125 C-12.1080286 25.13917029 -7.8353089 23.68003695 -3 19.5625 C-1.43064406 16.42378812 -1.64798897 14.02394178 -2 10.5625 C-4.35418376 7.62276719 -4.35418376 7.62276719 -7 5.5625 C-3.85409253 0.72264235 -3.85409253 0.72264235 0 0 Z " fill="#B9ABA9" transform="translate(75,190.4375)"/>
<path d="M0 0 C0.99 0.33 1.98 0.66 3 1 C2.484375 1.350625 1.96875 1.70125 1.4375 2.0625 C-0.36578513 4.05199017 -0.36578513 4.05199017 0.25 7.375 C0.4975 8.57125 0.745 9.7675 1 11 C1.185625 11.969375 1.37125 12.93875 1.5625 13.9375 C1.706875 14.618125 1.85125 15.29875 2 16 C0.02 16 -1.96 16 -4 16 C-4 13.69 -4 11.38 -4 9 C-4.268125 10.093125 -4.53625 11.18625 -4.8125 12.3125 C-6.37708883 17.17096005 -7.85678468 18.23785646 -12 21 C-18.99656881 21.78993519 -18.99656881 21.78993519 -22.9375 18.6875 C-26.20423534 14.43084487 -26.09873257 11.23282597 -26 6 C-25.34 6 -24.68 6 -24 6 C-23.1646875 6.99 -23.1646875 6.99 -22.3125 8 C-20.04745269 10.34489201 -20.04745269 10.34489201 -16.375 10.375 C-12.93167398 10.34813734 -12.93167398 10.34813734 -11 8 C-10.59952556 5.67724823 -10.2602896 3.34260643 -10 1 C-8.68 1.99 -7.36 2.98 -6 4 C-5.071875 3.319375 -4.14375 2.63875 -3.1875 1.9375 C-2.135625 1.298125 -1.08375 0.65875 0 0 Z " fill="#E9D6C4" transform="translate(75,175)"/>
<path d="M0 0 C4.68336338 2.45243691 9.14255805 4.82287456 11 10 C11 11.32 11 12.64 11 14 C0.4462944 18.85971028 0.4462944 18.85971028 -5 17 C-5.99 16.34 -6.98 15.68 -8 15 C-8 14.34 -8 13.68 -8 13 C-8.66 13 -9.32 13 -10 13 C-10.65271943 9.9755179 -11.11738197 7.09995113 -11 4 C-7.82251334 0.05221354 -4.93249588 -0.9485569 0 0 Z " fill="#E8D4C3" transform="translate(89,197)"/>
<path d="M0 0 C4.20142002 1.64761569 6.99528597 3.6485882 10 7 C9.01 7.495 9.01 7.495 8 8 C7.9175 8.5775 7.835 9.155 7.75 9.75 C6.58358329 13.24925014 3.82940104 14.76005751 1 17 C0.67 17.66 0.34 18.32 0 19 C-8.1875 17.11057692 -8.1875 17.11057692 -11 13 C-11.93648171 10.25949832 -12.32582862 7.88672721 -12 5 C-8.66947333 0.00421 -5.8404314 -0.81970967 0 0 Z " fill="#E3D0C0" transform="translate(42,188)"/>
<path d="M0 0 C1.86470481 1.7654744 3.34858779 3.52435778 4.76171875 5.66796875 C4.76171875 6.32796875 4.76171875 6.98796875 4.76171875 7.66796875 C3.77171875 7.99796875 2.78171875 8.32796875 1.76171875 8.66796875 C1.375 8.19746094 0.98828125 7.72695312 0.58984375 7.2421875 C-3.8376036 1.391066 -3.8376036 1.391066 -10.15625 -1.6796875 C-12.60517013 -1.92404514 -12.60517013 -1.92404514 -16.23828125 -1.33203125 C-18.72584478 1.311005 -19.16638966 3.09283606 -19.61328125 6.66796875 C-19.16352096 10.26605106 -18.58267743 11.88399828 -16.23828125 14.66796875 C-13.66217221 16.22786121 -11.0077301 17.49045962 -8.23828125 18.66796875 C-8.23828125 18.99796875 -8.23828125 19.32796875 -8.23828125 19.66796875 C-11.86356693 19.86937351 -14.10329833 19.5257364 -17.23828125 17.66796875 C-19.91383648 20.34352398 -20.24627208 21.75187249 -20.61328125 25.60546875 C-20.43050375 30.28805429 -18.71802528 33.07861405 -15.55078125 36.48046875 C-15.11765625 36.87234375 -14.68453125 37.26421875 -14.23828125 37.66796875 C-17.89144796 36.41820119 -19.01893961 35.99698122 -21.23828125 32.66796875 C-23.71328125 33.16296875 -23.71328125 33.16296875 -26.23828125 33.66796875 C-26.56828125 35.97796875 -26.89828125 38.28796875 -27.23828125 40.66796875 C-29.23828125 38.66796875 -29.23828125 38.66796875 -29.55078125 36.23046875 C-29.19037947 33.27517418 -28.5260127 32.47908948 -26.23828125 30.66796875 C-27.13546875 31.16296875 -27.13546875 31.16296875 -28.05078125 31.66796875 C-30.23828125 32.66796875 -30.23828125 32.66796875 -33.23828125 32.66796875 C-33.56828125 33.32796875 -33.89828125 33.98796875 -34.23828125 34.66796875 C-34.73328125 33.18296875 -34.73328125 33.18296875 -35.23828125 31.66796875 C-34.47515625 31.46171875 -33.71203125 31.25546875 -32.92578125 31.04296875 C-29.41599022 29.24726171 -28.71228344 27.23660563 -27.23828125 23.66796875 C-26.57828125 23.66796875 -25.91828125 23.66796875 -25.23828125 23.66796875 C-25.23828125 24.32796875 -25.23828125 24.98796875 -25.23828125 25.66796875 C-24.57828125 25.66796875 -23.91828125 25.66796875 -23.23828125 25.66796875 C-22.90828125 23.35796875 -22.57828125 21.04796875 -22.23828125 18.66796875 C-21.57828125 18.66796875 -20.91828125 18.66796875 -20.23828125 18.66796875 C-20.58890625 17.55421875 -20.93953125 16.44046875 -21.30078125 15.29296875 C-22.81284562 9.2123099 -22.39380616 3.36419354 -19.92578125 -2.39453125 C-18.23828125 -4.33203125 -18.23828125 -4.33203125 -16.55078125 -5.20703125 C-9.4279569 -5.59204878 -5.54189187 -4.37281124 0 0 Z " fill="#685148" transform="translate(103.23828125,145.33203125)"/>
<path d="M0 0 C4.43936951 1.35647402 6.4156882 3.16808939 9 7 C11.12705782 11.04140986 11.49525746 14.46013996 11 19 C9 21.4375 9 21.4375 7 23 C2.75660197 22.18396192 0.52839944 21.59792568 -2.375 18.3125 C-4.16418261 14.66532006 -5 12.06927605 -5 8 C-3.125 5.8125 -3.125 5.8125 -1 4 C-0.2127322 1.8618034 -0.2127322 1.8618034 0 0 Z " fill="#E6D2C1" transform="translate(109,158)"/>
<path d="M0 0 C0.99 0 1.98 0 3 0 C3.14695312 1.33804688 3.14695312 1.33804688 3.296875 2.703125 C3.44640625 3.87359375 3.5959375 5.0440625 3.75 6.25 C3.88921875 7.41015625 4.0284375 8.5703125 4.171875 9.765625 C5.10389059 13.40576137 5.99973617 14.78358888 9 17 C13.85788563 17.46265577 17.68671344 17.51849618 22 15 C23.04123065 12.14418351 23.04123065 12.14418351 23.3125 8.875 C23.45300781 7.77929688 23.59351563 6.68359375 23.73828125 5.5546875 C23.82464844 4.71164063 23.91101563 3.86859375 24 3 C26.45327145 6.67990717 26.59615416 9.72324193 26 14 C24.5 16.375 24.5 16.375 23 18 C23 18.66 23 19.32 23 20 C23.639375 20.309375 24.27875 20.61875 24.9375 20.9375 C27 22 27 22 28 23 C28.375 26.25 28.375 26.25 28 30 C24.86402934 33.94236311 21.03013825 37.59242336 15.86547852 38.28710938 C13.3617735 38.40302871 10.88103835 38.40917325 8.375 38.375 C7.51648438 38.38660156 6.65796875 38.39820313 5.7734375 38.41015625 C4.9484375 38.40628906 4.1234375 38.40242188 3.2734375 38.3984375 C2.52497559 38.39505371 1.77651367 38.39166992 1.00537109 38.38818359 C-1.54582451 37.89434368 -2.42240127 37.03161873 -4 35 C-4.6875 32.3125 -4.6875 32.3125 -5 30 C-5.886875 29.938125 -6.77375 29.87625 -7.6875 29.8125 C-11.89391378 28.78073813 -13.4352833 27.46991083 -16 24 C-16.3125 20.1875 -16.3125 20.1875 -16 17 C-15.67 17 -15.34 17 -15 17 C-14.855625 18.2375 -14.71125 19.475 -14.5625 20.75 C-13.86514591 23.70720079 -13.42882667 24.71463819 -10.86328125 26.421875 C-8.59888639 27.40299428 -6.35465085 28.26356599 -4 29 C-3.7215625 28.38125 -3.443125 27.7625 -3.15625 27.125 C-1.636426 24.33180994 0.5329174 22.97366608 3 21 C4.31165257 18.88339573 4.31165257 18.88339573 5 17 C4.52949219 16.47921875 4.05898438 15.9584375 3.57421875 15.421875 C1.58535118 12.36207873 1.28111476 9.85472891 0.8125 6.25 C0.65394531 5.07953125 0.49539062 3.9090625 0.33203125 2.703125 C0.22246094 1.81109375 0.11289062 0.9190625 0 0 Z M-1.0625 25.8125 C-3.28134995 28.84117341 -3.28134995 28.84117341 -3 32.25 C-2.20042544 35.29422059 -2.20042544 35.29422059 1 37 C7.80833866 37.94676284 16.2222539 37.23291779 22.1875 33.70703125 C25.0571779 31.45641693 26.75151662 29.94875471 27.6875 26.375 C26.77609562 23.22651215 25.55418217 22.04419572 23 20 C14.54579127 18.5797824 5.13058631 19.38316517 -1.0625 25.8125 Z " fill="#6A5248" transform="translate(46,178)"/>
<path d="M0 0 C4.08940364 1.19861831 7.03514637 2.79136811 10.625 5.0625 C10.295 5.7225 9.965 6.3825 9.625 7.0625 C9.295 6.7325 8.965 6.4025 8.625 6.0625 C8.191875 7.733125 8.191875 7.733125 7.75 9.4375 C6.625 13.0625 6.625 13.0625 4.625 15.0625 C0.89866541 15.40753098 -1.51436 15.54798923 -4.8125 13.6875 C-6.375 12.0625 -6.375 12.0625 -6.375 10.0625 C-7.035 10.0625 -7.695 10.0625 -8.375 10.0625 C-8.89548051 6.41913645 -8.50070346 5.23772301 -6.3125 2.1875 C-3.375 0.0625 -3.375 0.0625 0 0 Z " fill="#DEC7AC" transform="translate(57.375,170.9375)"/>
<path d="M0 0 C0.66 0.33 1.32 0.66 2 1 C-5.2104107 8.71113366 -13.33957749 12.31528317 -23 16 C-23.8765625 16.35191406 -24.753125 16.70382813 -25.65625 17.06640625 C-35.92786078 20.7071998 -48.34651341 20.74329781 -59 19 C-59 18.67 -59 18.34 -59 18 C-58.04222656 17.90203125 -57.08445313 17.8040625 -56.09765625 17.703125 C-37.44785877 15.66963584 -19.3315295 11.4593413 -3.0703125 1.6875 C-2.05710938 1.130625 -1.04390625 0.57375 0 0 Z " fill="#8A8180" transform="translate(114,205)"/>
<path d="M0 0 C0.495 1.485 0.495 1.485 1 3 C-1.9137136 7.82485908 -5.89029503 10.00398816 -10.75 12.5 C-11.50732422 12.8916333 -12.26464844 13.2832666 -13.04492188 13.68676758 C-20.45946848 17.40561646 -27.97753953 19.94091245 -36 22 C-37.00321289 22.25942383 -38.00642578 22.51884766 -39.04003906 22.78613281 C-42.39783761 23.64464397 -45.75978326 24.4835608 -49.125 25.3125 C-50.74438477 25.71311646 -50.74438477 25.71311646 -52.39648438 26.12182617 C-53.42322266 26.36650635 -54.44996094 26.61118652 -55.5078125 26.86328125 C-56.42191895 27.08282471 -57.33602539 27.30236816 -58.27783203 27.52856445 C-61.23208656 28.04019365 -64.00754791 28.08002238 -67 28 C-63.49224535 25.6614969 -60.00527981 24.74114346 -55.9921875 23.64453125 C-54.3475812 23.18190734 -52.70305266 22.71900693 -51.05859375 22.25585938 C-48.49114556 21.53923258 -45.92292884 20.82570015 -43.35302734 20.11791992 C-34.30725579 17.61817445 -25.40208648 14.97354386 -16.6953125 11.44921875 C-16.01991425 11.17987015 -15.34451599 10.91052155 -14.64865112 10.63301086 C-8.87890849 8.20702125 -3.54000931 5.31001397 0 0 Z " fill="#89807F" transform="translate(300,109)"/>
<path d="M0 0 C1.32 0.33 2.64 0.66 4 1 C3.34 1 2.68 1 2 1 C2 3.97 2 6.94 2 10 C2.99 10 3.98 10 5 10 C4.79503906 10.6290625 4.59007813 11.258125 4.37890625 11.90625 C1.84541927 19.8109774 1.84541927 19.8109774 1 28 C3.62246049 31.3312336 5.89034506 33.69154865 10.1640625 34.31640625 C10.97617188 34.39761719 11.78828125 34.47882813 12.625 34.5625 C13.44226563 34.64628906 14.25953125 34.73007813 15.1015625 34.81640625 C16.04128906 34.90728516 16.04128906 34.90728516 17 35 C14.84545751 37.35716404 12.80280126 38.78966144 9.9375 40.1875 C9.24527344 40.53167969 8.55304688 40.87585938 7.83984375 41.23046875 C6 42 6 42 4 42 C1 36.25 1 36.25 1 34 C-0.32 33.34 -1.64 32.68 -3 32 C-2.979375 30.80375 -2.95875 29.6075 -2.9375 28.375 C-2.93117429 24.81995131 -3.30111125 21.49444376 -4 18 C-3.01 17.67 -2.02 17.34 -1 17 C0.53266582 13.93466836 0.10276471 10.73245728 0.0625 7.375 C0.05798828 6.66859375 0.05347656 5.9621875 0.04882812 5.234375 C0.03703875 3.48954725 0.01910324 1.744763 0 0 Z " fill="#B9ABAA" transform="translate(98,167)"/>
<path d="M0 0 C2.203125 0 2.203125 0 5.953125 0.375 C5.078125 4.25 5.078125 4.25 3.953125 5.375 C3.51152168 8.42837151 3.46505579 11.32716354 3.953125 14.375 C6.30730876 17.31473281 6.30730876 17.31473281 8.953125 19.375 C8.953125 20.035 8.953125 20.695 8.953125 21.375 C3.52871138 20.94104691 0.19254129 19.82568767 -4.046875 16.375 C-6.39929847 13.16714982 -6.5152959 10.27850748 -6.046875 6.375 C-3.49839855 0.64092798 -3.49839855 0.64092798 0 0 Z " fill="#E6D2C1" transform="translate(89.046875,142.625)"/>
<path d="M0 0 C2.9375 1.6875 2.9375 1.6875 5 5 C5.68550098 10.70536753 6.25743113 16.11385331 3 21 C2.93941406 20.03578125 2.87882812 19.0715625 2.81640625 18.078125 C2.69072266 16.18320313 2.69072266 16.18320313 2.5625 14.25 C2.48128906 12.99703125 2.40007812 11.7440625 2.31640625 10.453125 C2.07484478 7.81682447 1.75716066 5.51962706 1 3 C-5.57722513 3.92311932 -8.36749375 5.8076784 -12.5546875 10.9296875 C-15.323953 14.89647321 -16.34485016 18.19556786 -17 23 C-16.05125 23.268125 -15.1025 23.53625 -14.125 23.8125 C-11 25 -11 25 -9 28 C-9.680625 27.690625 -10.36125 27.38125 -11.0625 27.0625 C-14.45521684 25.8353471 -17.39289223 25.19675133 -21 25 C-23.4212319 26.2910871 -23.4212319 26.2910871 -25 28 C-25.66 27.67 -26.32 27.34 -27 27 C-26.875 25.1875 -26.875 25.1875 -26 23 C-25.071875 22.62875 -24.14375 22.2575 -23.1875 21.875 C-19.00841825 19.41671662 -18.67889553 17.14616183 -17.13671875 12.71484375 C-13.70856897 4.52733825 -9.17200087 -0.93274585 0 0 Z " fill="#644C41" transform="translate(75,147)"/>
<path d="M0 0 C1.43716841 2.2825616 2 3.71743071 2 6.4375 C0.58458466 10.06450181 -1.5980834 12.23333945 -5 14 C-9.29149304 14.79352135 -12.30004411 14.46663726 -16 12 C-14.26470491 4.84190776 -7.50036841 -1.31256447 0 0 Z " fill="#DDC6AB" transform="translate(76,150)"/>
<path d="M0 0 C0.66 3.3 1.32 6.6 2 10 C-2.01227106 11.00306776 -2.88828549 11.01825679 -6.5625 9.75 C-7.32691406 9.49734375 -8.09132813 9.2446875 -8.87890625 8.984375 C-11.13703595 7.93640321 -12.44178497 6.93158924 -14 5 C-14 4.34 -14 3.68 -14 3 C-13.34 3 -12.68 3 -12 3 C-11.67 2.01 -11.34 1.02 -11 0 C-7.53278671 -1.73360665 -3.76147685 -0.48361845 0 0 Z " fill="#DEC7AB" transform="translate(93,186)"/>
<path d="M0 0 C-4.7091196 5.30180055 -9.75096466 5.69144675 -16.58203125 6.1875 C-20.95015752 6.30040795 -20.95015752 6.30040795 -23 6 C-23.66 5.34 -24.32 4.68 -25 4 C-17.16105424 -3.34901165 -9.77128376 -2.11711148 0 0 Z " fill="#DFC7AB" transform="translate(70,209)"/>
<path d="M0 0 C2.375 1.5625 2.375 1.5625 4 3 C0.37471432 3.20140476 -1.86501708 2.85776765 -5 1 C-7.67555523 3.67555523 -8.00799083 5.08390374 -8.375 8.9375 C-8.1922225 13.62008554 -6.47974403 16.4106453 -3.3125 19.8125 C-2.879375 20.204375 -2.44625 20.59625 -2 21 C-5.65316671 19.75023244 -6.78065836 19.32901247 -9 16 C-10.65 16.33 -12.3 16.66 -14 17 C-14.33 19.31 -14.66 21.62 -15 24 C-17 22 -17 22 -17.3125 19.5625 C-16.95209822 16.60720543 -16.28773145 15.81112073 -14 14 C-14.598125 14.33 -15.19625 14.66 -15.8125 15 C-18 16 -18 16 -21 16 C-21.33 16.66 -21.66 17.32 -22 18 C-22.33 17.01 -22.66 16.02 -23 15 C-22.236875 14.79375 -21.47375 14.5875 -20.6875 14.375 C-17.17770897 12.57929296 -16.47400219 10.56863688 -15 7 C-14.34 7 -13.68 7 -13 7 C-13 7.66 -13 8.32 -13 9 C-12.34 9 -11.68 9 -11 9 C-10.67 6.69 -10.34 4.38 -10 2 C-9.34 2 -8.68 2 -8 2 C-8 1.34 -8 0.68 -8 0 C-5.05854616 -1.47072692 -3.14695372 -0.75526889 0 0 Z " fill="#69524A" transform="translate(91,162)"/>
<path d="M0 0 C0.598125 0.763125 1.19625 1.52625 1.8125 2.3125 C2.534375 3.199375 3.25625 4.08625 4 5 C4.42539063 5.52722656 4.85078125 6.05445313 5.2890625 6.59765625 C7.61929213 8.50759332 9.60221333 8.69140275 12.5625 9.125 C17.85142857 9.92571429 17.85142857 9.92571429 20 11 C20.33 11.99 20.66 12.98 21 14 C21.66 14.598125 22.32 15.19625 23 15.8125 C25.46116528 18.50439953 25.67519632 20.42715954 26 24 C25.34 24 24.68 24 24 24 C23.79246094 23.46890625 23.58492187 22.9378125 23.37109375 22.390625 C20.89567832 16.71477707 18.7562223 14.38188509 13 12 C9.64761734 11.53986905 7.75250708 11.70295773 4.625 12.9375 C2.00479466 16.26314524 2.69220617 19.9217317 3 24 C3.66 24 4.32 24 5 24 C6.4375 25.3125 6.4375 25.3125 8 27 C8.556875 27.556875 9.11375 28.11375 9.6875 28.6875 C10.120625 29.120625 10.55375 29.55375 11 30 C9.68 30.33 8.36 30.66 7 31 C6.57847656 30.43410156 6.15695313 29.86820313 5.72265625 29.28515625 C5.17480469 28.55167969 4.62695312 27.81820312 4.0625 27.0625 C3.51722656 26.33160156 2.97195312 25.60070312 2.41015625 24.84765625 C1.13092062 23.0865547 1.13092062 23.0865547 0 22 C-0.27594106 18.34378089 -0.44786618 15.83175147 1.3125 12.5625 C3 11 3 11 6 11 C5.566875 10.45730469 5.13375 9.91460937 4.6875 9.35546875 C3.8521875 8.28232422 3.8521875 8.28232422 3 7.1875 C2.443125 6.47980469 1.88625 5.77210938 1.3125 5.04296875 C0 3 0 3 0 0 Z " fill="#6D554C" transform="translate(76,186)"/>
<path d="M0 0 C0.99 0 1.98 0 3 0 C3.09796875 0.89203125 3.1959375 1.7840625 3.296875 2.703125 C3.44640625 3.87359375 3.5959375 5.0440625 3.75 6.25 C3.88921875 7.41015625 4.0284375 8.5703125 4.171875 9.765625 C5.10389059 13.40576137 5.99973617 14.78358888 9 17 C13.85788563 17.46265577 17.68671344 17.51849618 22 15 C23.04123065 12.14418351 23.04123065 12.14418351 23.3125 8.875 C23.45300781 7.77929688 23.59351562 6.68359375 23.73828125 5.5546875 C23.82464844 4.71164063 23.91101563 3.86859375 24 3 C26.45327145 6.67990717 26.59615416 9.72324193 26 14 C24.5 16.375 24.5 16.375 23 18 C23 18.66 23 19.32 23 20 C13.595 20.495 13.595 20.495 4 21 C4.33 19.68 4.66 18.36 5 17 C4.00365796 15.66393102 3.0030616 14.33103163 2 13 C1.26953125 9.765625 1.26953125 9.765625 0.8125 6.25 C0.65394531 5.07953125 0.49539062 3.9090625 0.33203125 2.703125 C0.22246094 1.81109375 0.11289062 0.9190625 0 0 Z " fill="#725B53" transform="translate(46,178)"/>
<path d="M0 0 C0.8353125 0.433125 0.8353125 0.433125 1.6875 0.875 C4.01604463 2.07338209 4.01604463 2.07338209 6.6875 2.875 C9 4 9 4 9.8125 6.125 C9.874375 6.74375 9.93625 7.3625 10 8 C9.071875 7.9175 8.14375 7.835 7.1875 7.75 C3.97853447 7.66915749 3.97853447 7.66915749 2.1875 9.6875 C0.92524625 12.1455731 0.37888816 14.27200523 0 17 C-0.66 17 -1.32 17 -2 17 C-4.46201739 13.30697391 -4.73065831 9.29049358 -4 5 C-2 2 -2 2 0 0 Z " fill="#E6D3C2" transform="translate(86,162)"/>
<path d="M0 0 C4.40899977 0.23205262 6.06596154 1.88258414 9 5 C10.63978318 6.04349839 12.30094366 7.05607981 14 8 C12 9 12 9 9.0625 8.875 C5.49522129 9.02060321 5.31697146 9.57771165 3 12 C0.875 11.8125 0.875 11.8125 -1 11 C-2.50662097 7.98675805 -2.17770373 5.31713623 -2 2 C-1.34 1.34 -0.68 0.68 0 0 Z " fill="#E6D2C1" transform="translate(78,177)"/>
<path d="M0 0 C1.9375 1.5 1.9375 1.5 3 3 C1.783125 2.731875 0.56625 2.46375 -0.6875 2.1875 C-2.86686693 1.82432666 -2.86686693 1.82432666 -5 2 C-8.02409364 4.27127334 -8.02409364 4.27127334 -10 7 C-9.21625 7.28875 -8.4325 7.5775 -7.625 7.875 C-5 9 -5 9 -3 11 C-2.875 13.625 -2.875 13.625 -3 16 C-3.66 16 -4.32 16 -5 16 C-5.33 16.66 -5.66 17.32 -6 18 C-9.27641293 15.31166119 -11.32690126 13.17223894 -12.125 9 C-12.34329957 5.60993609 -12.00958292 5.01437438 -10 2 C-6.30901539 -0.46065641 -4.35570056 -0.64528897 0 0 Z " fill="#C4A68A" transform="translate(42,188)"/>
<path d="M0 0 C7.2274605 -0.24091535 13.90294338 0.65504172 21 2 C16.72092223 4.85271851 13.00129075 7.11545908 7.75 6.8125 C5 6 5 6 2 4 C2 3.34 2 2.68 2 2 C1.34 2 0.68 2 0 2 C0 1.34 0 0.68 0 0 Z " fill="#CBAC8B" transform="translate(79,208)"/>
<path d="M0 0 C2.64752004 2.57784846 4.94432065 4.91648098 7 8 C6.84749525 11.050095 6.42301114 12.52817988 4.375 14.8125 C1.1686245 16.41568775 -1.46750852 16.20379759 -5 16 C-5.33 16.99 -5.66 17.98 -6 19 C-6 18.34 -6 17.68 -6 17 C-6.66 16.67 -7.32 16.34 -8 16 C-4.12315913 14.80712589 -1.08378077 14 3 14 C2.29601265 11.01634426 2.29601265 11.01634426 0.4375 9.6875 C-1 8 -1 8 -1.25 4.9375 C-1 2 -1 2 0 0 Z " fill="#C5A584" transform="translate(101,149)"/>
<path d="M0 0 C3.78106289 0.25779974 5.52421963 0.52421963 8.25 3.25 C11.32758621 8.0862069 11.32758621 8.0862069 12 11 C10.625 13.3125 10.625 13.3125 9 15 C7.35 14.67 5.7 14.34 4 14 C4 13.34 4 12.68 4 12 C4.66 12 5.32 12 6 12 C5.07506212 8.21616321 4.60628829 6.43306306 1.375 4.125 C0.59125 3.75375 -0.1925 3.3825 -1 3 C-0.67 2.01 -0.34 1.02 0 0 Z " fill="#DEC7AC" transform="translate(33,192)"/>
<path d="M0 0 C4.71940763 0.72606271 8.45663243 3.10174043 11.4609375 6.796875 C14.40801124 11.19193295 15.67059307 14.72948912 16 20 C15.34 20.33 14.68 20.66 14 21 C13.68869141 19.89591797 13.68869141 19.89591797 13.37109375 18.76953125 C11.1850371 11.84549406 9.38028353 8.55823505 3 5 C2.9175 5.78375 2.835 6.5675 2.75 7.375 C2 10 2 10 -0.0625 11.3125 C-1.0215625 11.6528125 -1.0215625 11.6528125 -2 12 C-1.484375 11.505 -0.96875 11.01 -0.4375 10.5 C1.7171081 6.75285548 0.76845154 4.19155387 0 0 Z " fill="#775A47" transform="translate(106,153)"/>
<path d="M0 0 C1.11375 0.928125 1.11375 0.928125 2.25 1.875 C4.48801188 3.60437281 6.43739987 4.86106661 9 6 C5.25 10.875 5.25 10.875 3 12 C0.6670134 12.04022391 -1.66706666 12.04320247 -4 12 C-2.68 8.04 -1.36 4.08 0 0 Z " fill="#DEC7AC" transform="translate(105,176)"/>
<path d="M0 0 C4.41889613 1.35021826 6.34345343 3.26115668 9 7 C7.9375 8.5 7.9375 8.5 6 10 C-0.14901961 10.65882353 -0.14901961 10.65882353 -2.9375 8.5 C-3.288125 8.005 -3.63875 7.51 -4 7 C-3.525625 6.5875 -3.05125 6.175 -2.5625 5.75 C-0.83733482 3.817815 -0.43415125 2.51807725 0 0 Z " fill="#DBC3A6" transform="translate(109,158)"/>
<path d="M0 0 C0.66 0.33 1.32 0.66 2 1 C0.515 3.475 0.515 3.475 -1 6 C0.27875 5.731875 1.5575 5.46375 2.875 5.1875 C8.84984464 4.46557919 13.00102793 6.98391873 18 10 C14.53743502 11.15418833 12.19133844 10.96347296 8.5625 10.6875 C7.42941406 10.60886719 6.29632813 10.53023437 5.12890625 10.44921875 C2.26796862 10.0384724 0.44938978 9.4744484 -2 8 C-2.125 5.125 -2.125 5.125 -2 2 C-1.34 1.34 -0.68 0.68 0 0 Z " fill="#DEC6AB" transform="translate(80,199)"/>
<path d="M0 0 C1.32 0.33 2.64 0.66 4 1 C3.34 1 2.68 1 2 1 C2 3.97 2 6.94 2 10 C2.99 10 3.98 10 5 10 C4.79503906 10.67546875 4.59007813 11.3509375 4.37890625 12.046875 C4.10949219 12.93890625 3.84007813 13.8309375 3.5625 14.75 C3.29566406 15.63171875 3.02882813 16.5134375 2.75390625 17.421875 C2.11531506 19.60565835 1.53224167 21.78835498 1 24 C-0.32 24 -1.64 24 -3 24 C-3.33 22.02 -3.66 20.04 -4 18 C-3.01 17.67 -2.02 17.34 -1 17 C0.53266582 13.93466836 0.10276471 10.73245728 0.0625 7.375 C0.05798828 6.66859375 0.05347656 5.9621875 0.04882812 5.234375 C0.03703875 3.48954725 0.01910324 1.744763 0 0 Z " fill="#D1BDB4" transform="translate(98,167)"/>
<path d="M0 0 C4.29866268 1.00302129 7.04112655 2.52856986 10.75 4.875 C10.42 5.535 10.09 6.195 9.75 6.875 C8.76 6.545 7.77 6.215 6.75 5.875 C5.47125 6.1225 4.1925 6.37 2.875 6.625 C0.7578125 6.94921875 0.7578125 6.94921875 -1.25 6.875 C-4.25 4.4375 -4.25 4.4375 -6.25 1.875 C-3.25 -0.125 -3.25 -0.125 0 0 Z " fill="#CBAB88" transform="translate(57.25,171.125)"/>
<path d="M0 0 C0.99 0.33 1.98 0.66 3 1 C2.484375 1.350625 1.96875 1.70125 1.4375 2.0625 C-0.36578513 4.05199017 -0.36578513 4.05199017 0.25 7.375 C0.62125 9.169375 0.62125 9.169375 1 11 C1.185625 11.969375 1.37125 12.93875 1.5625 13.9375 C1.706875 14.618125 1.85125 15.29875 2 16 C0.02 16 -1.96 16 -4 16 C-3.95875 14.9275 -3.9175 13.855 -3.875 12.75 C-3.99186701 9.24398978 -4.37138821 7.93150123 -6 5 C-4.59240479 2.18480957 -2.77416723 1.38708362 0 0 Z " fill="#DAC9C6" transform="translate(75,175)"/>
<path d="M0 0 C0.66 0.33 1.32 0.66 2 1 C-6.25 9.25 -14.5 17.5 -23 26 C-23 22.48401315 -22.56814673 22.16359981 -20.25390625 19.70703125 C-19.66754395 19.07998291 -19.08118164 18.45293457 -18.47705078 17.80688477 C-17.84524902 17.14873779 -17.21344727 16.49059082 -16.5625 15.8125 C-15.92812012 15.14210693 -15.29374023 14.47171387 -14.64013672 13.78100586 C-9.98553281 8.90860473 -5.1934569 4.30040214 0 0 Z " fill="#877E7C" transform="translate(151,174)"/>
<path d="M0 0 C5.32365924 -0.31941955 8.35023724 0.46376577 13 3 C13.99 3 14.98 3 16 3 C15.67 4.32 15.34 5.64 15 7 C4.84682713 5.82713348 4.84682713 5.82713348 1.3125 2.375 C0.879375 1.59125 0.44625 0.8075 0 0 Z " fill="#CBAB88" transform="translate(79,190)"/>
<path d="M0 0 C1.18916016 0.02707031 1.18916016 0.02707031 2.40234375 0.0546875 C4.35208348 0.10166918 6.30119878 0.17340956 8.25 0.25 C2.23964073 5.19892717 -5.30475547 4.40510926 -12.75 4.25 C-9.14448484 -0.67366049 -5.60574573 -0.24170711 0 0 Z " fill="#C8A784" transform="translate(59.75,210.75)"/>
<path d="M0 0 C0.10441406 0.63808594 0.20882812 1.27617187 0.31640625 1.93359375 C0.54199219 2.61550781 0.76757812 3.29742187 1 4 C2.98248715 4.71706982 4.98415349 5.38290413 7 6 C7.99 7.485 7.99 7.485 9 9 C8.319375 8.690625 7.63875 8.38125 6.9375 8.0625 C3.54478316 6.8353471 0.60710777 6.19675133 -3 6 C-5.4212319 7.2910871 -5.4212319 7.2910871 -7 9 C-7.66 8.67 -8.32 8.34 -9 8 C-8.75390625 6.140625 -8.75390625 6.140625 -8 4 C-6.15234375 2.734375 -6.15234375 2.734375 -3.9375 1.75 C-2.83728516 1.24726563 -2.83728516 1.24726563 -1.71484375 0.734375 C-1.14894531 0.49203125 -0.58304688 0.2496875 0 0 Z " fill="#7E6454" transform="translate(57,166)"/>
<path d="M0 0 C3.96 0.33 7.92 0.66 12 1 C12.33 2.32 12.66 3.64 13 5 C13.99 5.928125 13.99 5.928125 15 6.875 C17.49147225 9.52218926 17.67660307 11.4426338 18 15 C17.34 15 16.68 15 16 15 C15.79246094 14.46890625 15.58492187 13.9378125 15.37109375 13.390625 C12.34427539 6.45047245 8.96989663 4.68931771 2.0625 1.75 C1.381875 1.5025 0.70125 1.255 0 1 C0 0.67 0 0.34 0 0 Z " fill="#7B6458" transform="translate(84,195)"/>
<path d="M0 0 C0.33 0 0.66 0 1 0 C1.3403125 1.794375 1.3403125 1.794375 1.6875 3.625 C2.7948776 8.16767308 4.80831111 10.64032749 8 14 C4.34683329 12.75023244 3.21934164 12.32901247 1 9 C-0.65 9.33 -2.3 9.66 -4 10 C-4.33 12.31 -4.66 14.62 -5 17 C-7 15 -7 15 -7.4375 12.6875 C-6.81569325 8.86782999 -4.90999526 7.42499605 -2 5 C-1.34 5 -0.68 5 0 5 C0 3.35 0 1.7 0 0 Z " fill="#765F57" transform="translate(81,169)"/>
<path d="M0 0 C3.62343602 1.93811694 5.26739986 4.11850553 7.6875 7.4375 C7.6875 8.0975 7.6875 8.7575 7.6875 9.4375 C6.6975 9.7675 5.7075 10.0975 4.6875 10.4375 C4.28917969 9.96699219 3.89085938 9.49648437 3.48046875 9.01171875 C2.95066406 8.38910156 2.42085938 7.76648438 1.875 7.125 C1.35292969 6.51011719 0.83085938 5.89523438 0.29296875 5.26171875 C-1.18422469 3.58325321 -2.71289131 1.99867966 -4.3125 0.4375 C-2.3125 -0.5625 -2.3125 -0.5625 0 0 Z " fill="#816552" transform="translate(100.3125,143.5625)"/>
<path d="M0 0 C2.4592723 3.68890845 2.57863173 6.71639791 2 11 C0.52754038 13.61026932 -0.33864736 14.66932368 -3 16 C-5.125 15.0625 -5.125 15.0625 -7 14 C-6.20207031 13.79632813 -5.40414062 13.59265625 -4.58203125 13.3828125 C-1.71612757 12.2302512 -1.71612757 12.2302512 -1.07421875 9.1796875 C-0.88279297 7.54386719 -0.88279297 7.54386719 -0.6875 5.875 C-0.54699219 4.77929688 -0.40648438 3.68359375 -0.26171875 2.5546875 C-0.17535156 1.71164063 -0.08898437 0.86859375 0 0 Z " fill="#93807B" transform="translate(70,181)"/>
<path d="M0 0 C0.66666667 1.33333333 1.33333333 2.66666667 2 4 C2.53625 4.886875 3.0725 5.77375 3.625 6.6875 C5.31297216 10.75397838 5.8891378 14.64148136 5 19 C4.01 19.66 3.02 20.32 2 21 C2.03480469 20.27554688 2.06960937 19.55109375 2.10546875 18.8046875 C2.26892541 12.96694978 2.07926442 9.13210737 -1 4 C-1 1 -1 1 0 0 Z " fill="#725B53" transform="translate(119,177)"/>
<path d="M0 0 C3.09438268 0.91995161 4.71026629 1.63783286 6.75 4.1875 C8.20698822 7.46572351 8.65129616 10.44322079 9 14 C8.01 14.495 8.01 14.495 7 15 C6.74605469 14.25234375 6.49210937 13.5046875 6.23046875 12.734375 C5.88628906 11.74953125 5.54210937 10.7646875 5.1875 9.75 C4.85105469 8.77546875 4.51460938 7.8009375 4.16796875 6.796875 C3.05867958 4.14051698 1.8306717 2.20310061 0 0 Z " fill="#462E26" transform="translate(113,159)"/>
<path d="M0 0 C3.65316671 1.24976756 4.78065836 1.67098753 7 5 C5.41727399 6.58272601 3.61965997 6.34735747 1.4375 6.5625 C0.19806641 6.68818359 0.19806641 6.68818359 -1.06640625 6.81640625 C-2.02353516 6.90728516 -2.02353516 6.90728516 -3 7 C-2.01 4.69 -1.02 2.38 0 0 Z " fill="#C1A07E" transform="translate(109,158)"/>
<path d="M0 0 C0.99 0 1.98 0 3 0 C1.54331217 2.96783129 -0.01232086 5.86415313 -1.625 8.75 C-2.29402344 9.94882813 -2.29402344 9.94882813 -2.9765625 11.171875 C-3.48316406 12.07679688 -3.48316406 12.07679688 -4 13 C-5.0169313 10.34501768 -5.13022151 9.30844625 -4.00390625 6.640625 C-3.52824219 5.85171875 -3.05257812 5.0628125 -2.5625 4.25 C-2.08941406 3.45078125 -1.61632813 2.6515625 -1.12890625 1.828125 C-0.75636719 1.22484375 -0.38382813 0.6215625 0 0 Z " fill="#472E26" transform="translate(61,154)"/>
<path d="M0 0 C0.886875 0.103125 1.77375 0.20625 2.6875 0.3125 C2.6875 0.9725 2.6875 1.6325 2.6875 2.3125 C-1.17006507 4.46555957 -3.86379785 5.70503254 -8.3125 5.3125 C-4.12788462 0.38942308 -4.12788462 0.38942308 0 0 Z " fill="#C8A885" transform="translate(73.3125,149.6875)"/>
<path d="M0 0 C0.99 0.33 1.98 0.66 3 1 C1.66667905 4.99996286 -0.4957827 5.83782337 -4 8 C-4.66 7.34 -5.32 6.68 -6 6 C-2.25 1.125 -2.25 1.125 0 0 Z " fill="#8C6D58" transform="translate(68,147)"/>
<path d="M0 0 C0.33 0 0.66 0 1 0 C1 3.3 1 6.6 1 10 C-0.98 10.66 -2.96 11.32 -5 12 C-5.66 11.34 -6.32 10.68 -7 10 C-5.35 10 -3.7 10 -2 10 C-1.855625 8.72125 -1.71125 7.4425 -1.5625 6.125 C-1.29357254 3.74307106 -1.07773654 2.15547309 0 0 Z " fill="#C5A787" transform="translate(96,173)"/>
<path d="M0 0 C0.66 0 1.32 0 2 0 C2.33 0.99 2.66 1.98 3 3 C-1.85526316 8.25986842 -1.85526316 8.25986842 -6 9 C-6.33 9.66 -6.66 10.32 -7 11 C-7.33 10.01 -7.66 9.02 -8 8 C-7.236875 7.79375 -6.47375 7.5875 -5.6875 7.375 C-2.17770897 5.57929296 -1.47400219 3.56863688 0 0 Z " fill="#7A635A" transform="translate(76,169)"/>
<path d="M0 0 C0.66 0.33 1.32 0.66 2 1 C-1.3 4.3 -4.6 7.6 -8 11 C-8.66 10.34 -9.32 9.68 -10 9 C-6.7 6.03 -3.4 3.06 0 0 Z " fill="#807674" transform="translate(151,174)"/>
<path d="M0 0 C1.65 1.65 3.3 3.3 5 5 C3.68 5 2.36 5 1 5 C0.71125 5.639375 0.4225 6.27875 0.125 6.9375 C-1 9 -1 9 -3 10 C-2.01 6.7 -1.02 3.4 0 0 Z " fill="#C8AD90" transform="translate(105,176)"/>
<path d="M0 0 C7.75 0.75 7.75 0.75 10 3 C5.99799622 4.60080151 2.95443764 3.29279692 -1 2 C-0.67 1.34 -0.34 0.68 0 0 Z " fill="#482F29" transform="translate(89,140)"/>
<path d="M0 0 C3.875 1.875 3.875 1.875 5 3 C5.47323944 9.38873239 5.47323944 9.38873239 3.5 11.9375 C3.005 12.288125 2.51 12.63875 2 13 C2 10 2 10 3 9 C3.34229288 5.83379087 3.25632099 4.39516153 1.5 1.6875 C1.005 1.130625 0.51 0.57375 0 0 Z " fill="#6B544D" transform="translate(69,198)"/>
<path d="M0 0 C0.66 0.33 1.32 0.66 2 1 C1.34 2.98 0.68 4.96 0 7 C-0.99 7 -1.98 7 -3 7 C-3 5.68 -3 4.36 -3 3 C-2.01 3 -1.02 3 0 3 C0 2.01 0 1.02 0 0 Z " fill="#39201A" transform="translate(103,170)"/>
<path d="M0 0 C0.99 0.33 1.98 0.66 3 1 C3.3721042 2.32303717 3.70630173 3.65737935 4 5 C4.66 5.33 5.32 5.66 6 6 C3 6 3 6 0.3125 3.5 C-0.450625 2.675 -1.21375 1.85 -2 1 C-1.34 0.67 -0.68 0.34 0 0 Z " fill="#634B40" transform="translate(98,143)"/>
<path d="M0 0 C1.32 1.65 2.64 3.3 4 5 C2.02 5.99 2.02 5.99 0 7 C-0.38133299 5.0085944 -0.71325582 3.00720923 -1 1 C-0.67 0.67 -0.34 0.34 0 0 Z " fill="#7C655B" transform="translate(83,155)"/>
<path d="M0 0 C2.69082872 0.17635452 5.32851446 0.61835921 8 1 C8 1.33 8 1.66 8 2 C5.03 2.66 2.06 3.32 -1 4 C-1 1 -1 1 0 0 Z " fill="#634B41" transform="translate(85,141)"/>
<path d="M0 0 C1.65 0 3.3 0 5 0 C5 0.99 5 1.98 5 3 C3.02 3.33 1.04 3.66 -1 4 C-0.67 2.68 -0.34 1.36 0 0 Z " fill="#4A3531" transform="translate(230,137)"/>
<path d="M0 0 C0.66 0.33 1.32 0.66 2 1 C-1.465 3.97 -1.465 3.97 -5 7 C-5.33 6.34 -5.66 5.68 -6 5 C-4.06745228 2.9754262 -2.36841312 1.57894208 0 0 Z " fill="#827876" transform="translate(114,205)"/>
<path d="M0 0 C2.52259061 1.97420135 2.9929808 2.96745642 3.6875 6.1875 C3.790625 7.115625 3.89375 8.04375 4 9 C3.34 9 2.68 9 2 9 C0.50178941 5.62902617 0 3.79557881 0 0 Z " fill="#96837C" transform="translate(98,201)"/>
<path d="M0 0 C1.09658936 3.28976808 0.79953138 4.71303767 0 8 C-1.32 8.33 -2.64 8.66 -4 9 C-2.68 6.03 -1.36 3.06 0 0 Z " fill="#422923" transform="translate(81,166)"/>
</svg>
