<?xml version="1.0" encoding="UTF-8"?>
<svg version="1.1" xmlns="http://www.w3.org/2000/svg" width="320" height="320">
<path d="M0 0 C2.78492927 1.88065941 4.9729963 3.63074329 6.625 6.625 C6.625 7.285 6.625 7.945 6.625 8.625 C7.285 8.625 7.945 8.625 8.625 8.625 C9.2759259 9.87235567 9.92051669 11.12301832 10.5625 12.375 C11.10197266 13.41914063 11.10197266 13.41914063 11.65234375 14.484375 C12.625 16.625 12.625 16.625 13.11328125 18.8125 C13.36658203 19.7096875 13.36658203 19.7096875 13.625 20.625 C14.73875 21.24375 14.73875 21.24375 15.875 21.875 C21.42021526 25.40377335 24.25003851 31.90405533 26.12109375 38.0625 C27.61617858 45.66541202 27.7659856 52.96341447 23.625 59.625 C23.955 60.285 24.285 60.945 24.625 61.625 C24.83125 60.573125 25.0375 59.52125 25.25 58.4375 C26.26579265 55.08333903 27.62981312 52.66261466 30.51953125 50.5078125 C35.32515185 48.49283986 40.55848966 48.93352474 45.625 49.625 C50.26563887 51.77958233 54.01738843 55.17333164 56.625 59.625 C57.28359232 62.63285668 57.23696836 65.49609386 57.125 68.5625 C57.12757813 69.33529297 57.13015625 70.10808594 57.1328125 70.90429688 C57.03098556 76.92736063 56.04369663 82.20630337 51.625 86.625 C46.15366077 87.38274148 40.72799484 86.68582484 35.625 84.625 C32.47948083 81.90841526 30.08593052 78.94867053 27.625 75.625 C27.46644531 76.28886719 27.30789062 76.95273438 27.14453125 77.63671875 C25.6626942 83.24477611 24.37812617 86.94132722 19.625 90.625 C11.94016051 93.18661316 3.97197266 91.61962098 -3.375 88.625 C-6.8125 86.625 -6.8125 86.625 -9.375 84.625 C-9.91382813 84.20605469 -10.45265625 83.78710938 -11.0078125 83.35546875 C-13.49570112 80.20651258 -12.82568235 76.57568092 -12.74609375 72.72265625 C-12.21467922 68.28674339 -10.70307889 65.4081282 -8.375 61.625 C-10.685 61.625 -12.995 61.625 -15.375 61.625 C-15.375 67.565 -15.375 73.505 -15.375 79.625 C-19.69356574 81.78428287 -24.72017599 81.40746735 -29.375 80.625 C-35.66566165 77.05812999 -40.08318549 71.45951826 -42.375 64.625 C-43.3906047 60.64329151 -43.47892121 56.91319943 -43.4375 52.8125 C-43.42847656 51.65105469 -43.41945313 50.48960937 -43.41015625 49.29296875 C-43.39855469 48.41253906 -43.38695312 47.53210938 -43.375 46.625 C-44.695 46.625 -46.015 46.625 -47.375 46.625 C-47.40078125 47.57761719 -47.4265625 48.53023437 -47.453125 49.51171875 C-47.53820312 51.39310547 -47.53820312 51.39310547 -47.625 53.3125 C-47.67140625 54.55386719 -47.7178125 55.79523438 -47.765625 57.07421875 C-48.45739378 61.10510224 -49.51089779 62.76089779 -52.375 65.625 C-55.625 67.4375 -55.625 67.4375 -58.375 68.625 C-57.7253125 68.99109375 -57.075625 69.3571875 -56.40625 69.734375 C-49.79426945 74.01991795 -49.79426945 74.01991795 -48.6015625 78.5859375 C-48.44494925 83.46504264 -48.68017384 86.59328843 -51.4375 90.6875 C-57.86224008 94.92509452 -62.86432536 96.13171408 -70.4375 96 C-71.26443359 95.99202393 -72.09136719 95.98404785 -72.94335938 95.97583008 C-90.25044448 95.57990545 -90.25044448 95.57990545 -96.20703125 91.3125 C-97.70429446 89.14923008 -97.87334782 87.54780014 -98.0625 84.9375 C-98.16111328 83.72513672 -98.16111328 83.72513672 -98.26171875 82.48828125 C-98.29910156 81.87339844 -98.33648437 81.25851563 -98.375 80.625 C-99.096875 80.563125 -99.81875 80.50125 -100.5625 80.4375 C-106.25803767 78.79212245 -109.54171889 73.58324195 -112.375 68.625 C-113.61337551 64.74475674 -113.4859915 62.97647308 -112.25 59.0625 C-109.72555792 54.4343562 -106.54480845 50.29758509 -101.375 48.625 C-96.15957241 48.14209004 -92.76870161 48.72915121 -88.375 51.625 C-87.32754575 53.2622591 -86.32010003 54.92659966 -85.375 56.625 C-85.20484375 55.64660156 -85.0346875 54.66820312 -84.859375 53.66015625 C-83.13930041 44.19733016 -80.9130518 35.68034807 -75.375 27.625 C-72.16048731 26.01774365 -68.93887464 26.56751815 -65.375 26.625 C-65.25382812 26.05394531 -65.13265625 25.48289063 -65.0078125 24.89453125 C-62.98387587 17.63584493 -58.27288551 11.24525792 -52.375 6.625 C-51.715 6.625 -51.055 6.625 -50.375 6.625 C-50.1275 6.00625 -49.88 5.3875 -49.625 4.75 C-48.06947068 2.10560015 -47.29878529 1.54830062 -44.375 0.625 C-37.9315767 -0.00877934 -34.66192051 0.89305611 -29.375 4.625 C-28.33878758 5.93038944 -27.33038543 7.25934395 -26.375 8.625 C-26.106875 8.02171875 -25.83875 7.4184375 -25.5625 6.796875 C-23.07329268 1.72020218 -20.89250855 -1.72355853 -15.546875 -3.9140625 C-9.82219993 -5.12901153 -4.87309114 -2.86494919 0 0 Z M-27.375 18.625 C-28.035 21.925 -28.695 25.225 -29.375 28.625 C-27.395 27.305 -25.415 25.985 -23.375 24.625 C-24.035 22.645 -24.695 20.665 -25.375 18.625 C-26.035 18.625 -26.695 18.625 -27.375 18.625 Z M-30.375 28.625 C-29.375 30.625 -29.375 30.625 -29.375 30.625 Z M-33.375 36.625 C-34.035 38.275 -34.695 39.925 -35.375 41.625 C-34.385 41.625 -33.395 41.625 -32.375 41.625 C-32.375 39.975 -32.375 38.325 -32.375 36.625 C-32.705 36.625 -33.035 36.625 -33.375 36.625 Z M-3.375 36.625 C-4.95903524 38.20903524 -4.59474935 39.9021638 -4.69140625 42.09765625 C-4.73330078 42.99677734 -4.77519531 43.89589844 -4.81835938 44.82226562 C-4.85767578 45.76779297 -4.89699219 46.71332031 -4.9375 47.6875 C-4.98068359 48.63689453 -5.02386719 49.58628906 -5.06835938 50.56445312 C-5.17479276 52.91781353 -5.27681008 55.27128354 -5.375 57.625 C-4.75109375 56.84511719 -4.1271875 56.06523437 -3.484375 55.26171875 C-2.19791667 53.65364583 -0.91145833 52.04557292 0.375 50.4375 C2.24511717 46.22973637 1.86284217 42.16161915 1.625 37.625 C-0.03114657 37.24281233 -1.69957024 36.91104898 -3.375 36.625 Z " fill="#856F64" transform="translate(184.375,116.375)"/>
<path d="M0 0 C0.33 0.66 0.66 1.32 1 2 C2.31197411 2.7077755 3.64999325 3.36777853 5 4 C5.7115625 4.42539063 6.423125 4.85078125 7.15625 5.2890625 C13.69807249 9.01790132 19.50364564 10.25123788 27 9 C30.08691577 7.20482277 30.08691577 7.20482277 32 5 C32.66 5 33.32 5 34 5 C34 3.68 34 2.36 34 1 C38.48470585 2.76184873 40.72255001 5.91573949 43.1875 9.9375 C45.61686507 16.10434979 46.12394561 23.2412244 43.625 29.375 C42 32 42 32 40 34 C40.474375 34.721875 40.94875 35.44375 41.4375 36.1875 C44.47141821 42.26985277 44.93448325 50.19655025 42.8125 56.5625 C40.15246051 60.13979448 38.2933307 62.56888977 34 64 C25.53404609 64.89115304 19.67100766 61.69706686 12.9375 56.75 C10.25631817 52.94445159 9.58750291 49.62821731 10 45 C11.5625 42 11.5625 42 14 39 C19.0941622 32.1516956 19.0941622 32.1516956 21 24 C21.18598335 21.87486672 21.37362196 19.74987796 21.5625 17.625 C21.71075143 15.75018964 21.85738409 13.87524747 22 12 C20.35 12 18.7 12 17 12 C16.67 17.94 16.34 23.88 16 30 C16.66 29.67 17.32 29.34 18 29 C16.375 34.75 16.375 34.75 13 37 C12.01 36.67 11.02 36.34 10 36 C10.433125 34.7315625 10.433125 34.7315625 10.875 33.4375 C11.24625 32.303125 11.6175 31.16875 12 30 C12.37125 28.989375 12.7425 27.97875 13.125 26.9375 C14.70684898 21.47517775 14.15226507 15.62534856 14 10 C13.34 10 12.68 10 12 10 C12.495 11.485 12.495 11.485 13 13 C13.71560996 19.72948602 12.40566788 25.71784139 10 32 C9 33 9 33 5.5 33.0625 C4.345 33.041875 3.19 33.02125 2 33 C1.67 33 1.34 33 1 33 C1.66 33.99 2.32 34.98 3 36 C3.14245897 38.76655324 3.18769445 41.42653306 3.125 44.1875 C3.11597656 44.93708984 3.10695312 45.68667969 3.09765625 46.45898438 C3.07412578 48.30612654 3.03825561 50.15310412 3 52 C-1.7124433 52.96343285 -4.89117282 53.54395295 -9.3125 51.375 C-16.2248016 45.2664544 -20.33725915 37.21908422 -21.5 28.0625 C-20.89577466 24.36161982 -19.67055828 21.67055828 -17 19 C-15.00041636 18.95919217 -12.99954746 18.95745644 -11 19 C-9.35 21.97 -7.7 24.94 -6 28 C-6.66 26.68 -7.32 25.36 -8 24 C-9.97842625 19.05393437 -11.22978509 14.32600966 -9.3125 9.140625 C-7.0195009 4.66927675 -4.33456057 2.46281851 0 0 Z " fill="#E8D4C0" transform="translate(164,142)"/>
<path d="M0 0 C0.515625 0.70125 1.03125 1.4025 1.5625 2.125 C6.23113998 7.63160101 11.95318791 13.4139186 19.421875 14.28125 C23.27936165 14.41820219 26.34620116 14.23155376 30 12.9375 C32.74535223 10.27794002 33.23582747 7.68192219 34 4 C35.36447109 4.60036728 36.68747118 5.29325371 38 6 C38.83337891 6.42539063 38.83337891 6.42539063 39.68359375 6.859375 C44.73409719 9.85709317 46.60456141 13.34680338 48.34375 18.88671875 C49.99069016 26.69988128 50.28202572 34.11152385 46 41 C46.33 41.66 46.66 42.32 47 43 C47.20625 41.948125 47.4125 40.89625 47.625 39.8125 C48.64079265 36.45833903 50.00481312 34.03761466 52.89453125 31.8828125 C57.70015185 29.86783986 62.93348966 30.30852474 68 31 C72.64063887 33.15458233 76.39238843 36.54833164 79 41 C79.65859232 44.00785668 79.61196836 46.87109386 79.5 49.9375 C79.50386719 51.09668945 79.50386719 51.09668945 79.5078125 52.27929688 C79.40598556 58.30236063 78.41869663 63.58130337 74 68 C68.52866077 68.75774148 63.10299484 68.06082484 58 66 C54.85448083 63.28341526 52.46093052 60.32367053 50 57 C49.84144531 57.66386719 49.68289062 58.32773438 49.51953125 59.01171875 C48.0376942 64.61977611 46.75312617 68.31632722 42 72 C34.31516051 74.56161316 26.34697266 72.99462098 19 70 C15.5625 68 15.5625 68 13 66 C12.46117187 65.58234375 11.92234375 65.1646875 11.3671875 64.734375 C8.42575179 61.0029537 9.47189513 55.48018636 10 51 C11.25256169 47.37720618 13.19085651 44.75857202 16 42.125 C19.01522398 38.92132452 20.37460451 35.04619729 22 31 C22.66 31 23.32 31 24 31 C23.6275176 38.26340683 18.98711686 43.55431771 14.5625 49 C12.67301191 52.62781713 12.53441937 54.83151622 13.19921875 58.8203125 C15.11485576 64.03458298 19.78690716 66.338313 24.4375 68.875 C29.79775286 70.56771143 35.60912638 70.90266128 41 69 C42.29165425 67.25160856 42.29165425 67.25160856 43 65 C43.350625 64.26007813 43.70125 63.52015625 44.0625 62.7578125 C46.16608291 56.56977278 44.99600504 48.64516174 42.4375 42.6875 C41.963125 41.800625 41.48875 40.91375 41 40 C41.639375 39.401875 42.27875 38.80375 42.9375 38.1875 C46.1553956 34.77458043 46.22786102 31.75658411 46.15234375 27.18359375 C45.71070399 20.85342383 43.97860875 16.0317699 40 11 C37.89424357 9.16699091 37.89424357 9.16699091 36 8 C36 9.32 36 10.64 36 12 C31.97048289 16.02951711 28.9510373 17.38314775 23.25 17.6875 C14.8293586 17.34898175 8.50173405 13.01175333 2 8 C-2.71122972 10.72204384 -5.17139486 12.81895209 -7 18 C-7.82142377 24.2193514 -5.74529238 28.58659214 -3 34 C-2.67 34.66 -2.34 35.32 -2 36 C-6.42679007 34.52440331 -6.91432696 32.09942632 -9 28 C-9 27.34 -9 26.68 -9 26 C-13.74467245 26.87722099 -13.74467245 26.87722099 -17.4375 29.6875 C-19.39239198 37.72427814 -16.65731251 43.79529422 -13 51 C-10.62506621 54.70461229 -8.13499026 57.34299115 -4 59 C-1.63777768 59.23979762 -1.63777768 59.23979762 0.75 59.125 C1.54921875 59.10695312 2.3484375 59.08890625 3.171875 59.0703125 C3.77515625 59.04710937 4.3784375 59.02390625 5 59 C4.93971999 56.43508544 4.85262053 53.87578243 4.75 51.3125 C4.73582031 50.59126953 4.72164062 49.87003906 4.70703125 49.12695312 C4.4822262 44.20372256 3.59292747 41.64322845 0 38 C0.515625 38.165 1.03125 38.33 1.5625 38.5 C4.73363876 39.15049 7.77218334 39.0620734 11 39 C13.77476512 31.5345605 14.36801906 24.93285519 14 17 C14.66 17 15.32 17 16 17 C18.79065208 25.37195623 16.65427699 33.5596734 12.8984375 41.2578125 C12.60195312 41.83273438 12.30546875 42.40765625 12 43 C10.35 43 8.7 43 7 43 C7 48.94 7 54.88 7 61 C2.68143426 63.15928287 -2.34517599 62.78246735 -7 62 C-14.30559023 57.85765503 -18.28404031 51.43387235 -20.75 43.625 C-21.78247261 32.78403756 -21.78247261 32.78403756 -19.4375 27.4375 C-16.35780846 24.35780846 -14.27615317 24.16446743 -10 24 C-10.01353516 23.1646875 -10.01353516 23.1646875 -10.02734375 22.3125 C-9.75224742 15.23175973 -6.99509147 11.81051534 -2 7 C-1.34 6.34 -0.68 5.68 0 5 C0 4.34 0 3.68 0 3 C-0.66 2.67 -1.32 2.34 -2 2 C-1.34 2 -0.68 2 0 2 C0 1.34 0 0.68 0 0 Z " fill="#442C25" transform="translate(162,135)"/>
<path d="M0 0 C0.639375 0.2475 1.27875 0.495 1.9375 0.75 C4.50979353 8.4668806 2.99635107 15.00109373 -0.5625 22.12890625 C-3.41908757 27.12049547 -6.24086465 31.53557643 -11.0625 34.75 C-14.25 34.875 -14.25 34.875 -17.0625 34.75 C-16.90265625 35.30816406 -16.7428125 35.86632812 -16.578125 36.44140625 C-15.44692744 41.50608622 -15.25873935 46.80405318 -17.25 51.625 C-20.6442755 55.60449542 -24.08612443 58.14311913 -29.0625 59.75 C-33.50302513 60.01088765 -37.72196603 59.73984654 -42.0625 58.75 C-47.13433905 53.44762281 -47.35374281 47.97267321 -47.27734375 40.9609375 C-46.86085249 34.73628638 -45.52661463 29.68896261 -41.75 24.6875 C-38.46353363 22.31818703 -37.14367966 21.51898983 -33.0625 21.75 C-29.54631888 23.48963983 -26.30123875 25.54176904 -23.0625 27.75 C-23.84625 26.96625 -24.63 26.1825 -25.4375 25.375 C-26.97916667 23.83333333 -28.52083333 22.29166667 -30.0625 20.75 C-29.60988642 19.31068883 -29.15017021 17.87361001 -28.6875 16.4375 C-28.30464844 15.23673828 -28.30464844 15.23673828 -27.9140625 14.01171875 C-27.0625 11.75 -27.0625 11.75 -25.0625 8.75 C-24.4025 8.75 -23.7425 8.75 -23.0625 8.75 C-22.794375 8.13125 -22.52625 7.5125 -22.25 6.875 C-21.0625 4.75 -21.0625 4.75 -18.0625 2.75 C-15.72028634 2.32388979 -13.3628343 1.97827278 -11 1.6875 C-7.49017017 1.24922404 -3.34336473 -0.40525633 0 0 Z " fill="#E9D5C4" transform="translate(151.0625,124.25)"/>
<path d="M0 0 C2.86006955 3.46218945 3.22087171 5.402255 2.87890625 9.796875 C2.375 11.875 2.375 11.875 0.5 14.1875 C-11.83548857 20.84866383 -20.78245024 20.42085108 -34.3046875 17.921875 C-37.86967772 16.79785455 -39.38755056 15.8326113 -41.625 12.875 C-42.3569357 8.48338582 -42.00790602 6.50494217 -39.6875 2.6875 C-29.94669125 -7.69159537 -11.27699962 -7.66835974 0 0 Z " fill="#EBD7C6" transform="translate(130.625,190.125)"/>
<path d="M0 0 C1.64453125 1.30078125 1.64453125 1.30078125 4.08203125 3.98828125 C4.08203125 4.97828125 4.08203125 5.96828125 4.08203125 6.98828125 C5.07203125 6.98828125 6.06203125 6.98828125 7.08203125 6.98828125 C10.54703125 13.42328125 10.54703125 13.42328125 14.08203125 19.98828125 C13.58703125 16.02828125 13.58703125 16.02828125 13.08203125 11.98828125 C13.74203125 12.31828125 14.40203125 12.64828125 15.08203125 12.98828125 C15.35015625 14.10203125 15.61828125 15.21578125 15.89453125 16.36328125 C17.29922349 20.65128915 18.29705549 20.90654458 22.08203125 22.98828125 C22.74203125 24.63828125 23.40203125 26.28828125 24.08203125 27.98828125 C21.11203125 26.00828125 18.14203125 24.02828125 15.08203125 21.98828125 C14.97890625 23.08140625 14.87578125 24.17453125 14.76953125 25.30078125 C13.88442646 30.04816149 13.88442646 30.04816149 11.08203125 31.98828125 C5.85959324 33.72909392 0.56440386 34.03233797 -4.57421875 31.87109375 C-6.75110553 30.6517616 -8.85163966 29.38579851 -10.91796875 27.98828125 C-10.91796875 27.32828125 -10.91796875 26.66828125 -10.91796875 25.98828125 C-11.51609375 25.72015625 -12.11421875 25.45203125 -12.73046875 25.17578125 C-16.22885412 23.27665776 -17.65142329 21.78791764 -18.91796875 17.98828125 C-19.6074729 10.88977952 -19.38768944 5.69959103 -14.91796875 -0.01171875 C-10.31423584 -1.62976714 -4.41330481 -2.32799582 0 0 Z " fill="#DFC8AD" transform="translate(180.91796875,117.01171875)"/>
<path d="M0 0 C0.33 0 0.66 0 1 0 C1.03738281 0.845625 1.07476562 1.69125 1.11328125 2.5625 C1.50116214 9.25534674 1.98139407 14.96278815 5 21 C5.99 21.33 6.98 21.66 8 22 C8 22.33 8 22.66 8 23 C7.21496094 23.15855469 6.42992187 23.31710938 5.62109375 23.48046875 C-1.60661971 25.08564192 -7.8747976 26.59630572 -12.375 32.9375 C-13.18139117 35.59859087 -13.6246797 38.24765114 -14 41 C-14.33 41 -14.66 41 -15 41 C-15 39.35 -15 37.7 -15 36 C-15.721875 35.938125 -16.44375 35.87625 -17.1875 35.8125 C-22.88303767 34.16712245 -26.16671889 28.95824195 -29 24 C-30.23837551 20.11975674 -30.1109915 18.35147308 -28.875 14.4375 C-26.35055792 9.8093562 -23.16980845 5.67258509 -18 4 C-12.78457241 3.51709004 -9.39370161 4.10415121 -5 7 C-4.01 8.65 -3.02 10.3 -2 12 C-1.34 8.04 -0.68 4.08 0 0 Z " fill="#E7D4C3" transform="translate(101,161)"/>
<path d="M0 0 C0.94746094 0.09667969 1.89492187 0.19335938 2.87109375 0.29296875 C5.50929702 0.80223005 7.31321454 1.35881333 9.5625 2.8125 C14.19406632 9.82601472 15.40256787 17.80044798 14.23828125 26.1328125 C13.48369253 29.01835978 12.68594259 30.68905741 10.5625 32.8125 C6.59750424 33.66801776 2.9691768 33.52692429 -0.66796875 31.6796875 C-5.86686668 27.95364808 -9.39282325 23.94653025 -11.4375 17.8125 C-11.8755075 11.24238755 -11.19818739 6.54454036 -7.171875 1.1015625 C-4.67643431 -0.75315693 -3.04148862 -0.35078227 0 0 Z " fill="#EAD7C6" transform="translate(224.4375,168.1875)"/>
<path d="M0 0 C2 3 2 3 3.375 6 C5.06249187 9.1153696 5.83899769 10.46221509 9 12 C13.89602649 12.62171765 15.84412747 12.8292129 19.875 9.9375 C22.3397107 6.53039991 23.12121689 4.07435806 24 0 C27.17272862 2.96803645 28.81018464 4.84632573 29.203125 9.3046875 C29.36275013 18.05746537 29.36275013 18.05746537 26 22 C21.9391605 25.74024691 18.37672273 27.8603639 12.80859375 28.1875 C3.64853935 27.67801841 3.64853935 27.67801841 0.25 24.125 C-2.62453106 16.93867235 -3.00644048 9.7741518 -1 2.25 C-0.67 1.5075 -0.34 0.765 0 0 Z " fill="#EAD7C6" transform="translate(106,156)"/>
<path d="M0 0 C1.86785156 0.01353516 1.86785156 0.01353516 3.7734375 0.02734375 C5.18496094 0.04474609 5.18496094 0.04474609 6.625 0.0625 C8.5659323 6.85576307 9.92283803 12.66340039 7.3125 19.5 C5.625 22.0625 5.625 22.0625 2.625 23.0625 C2.625 23.7225 2.625 24.3825 2.625 25.0625 C-6.39340491 23.25881902 -6.39340491 23.25881902 -9.375 19.0625 C-12.15213222 13.09680856 -12.98650116 7.59999779 -13.375 1.0625 C-8.85684719 0.17972245 -4.59987306 -0.04339503 0 0 Z " fill="#EBD7C6" transform="translate(200.375,151.9375)"/>
<path d="M0 0 C2.89453125 1.5234375 2.89453125 1.5234375 5.8125 3.375 C6.78832031 3.98085937 7.76414062 4.58671875 8.76953125 5.2109375 C9.50558594 5.80132812 10.24164063 6.39171875 11 7 C11 12.17899295 8.58286932 17.13447544 5.25 21.0625 C1.78669303 22.50554457 -1.36676143 22.72104735 -5 22 C-10.10455227 19.01431849 -12.12036499 15.81675601 -13.73046875 10.1484375 C-14 8 -14 8 -12.875 5.125 C-12.25625 4.42375 -11.6375 3.7225 -11 3 C-10.505 2.4225 -10.01 1.845 -9.5 1.25 C-6.28781915 -1.42681738 -3.78144794 -1.09303167 0 0 Z " fill="#E0C9AD" transform="translate(120,147)"/>
<path d="M0 0 C0.66 0 1.32 0 2 0 C0.83457164 4.95307054 -2.1342885 6.97441595 -6.02734375 9.86328125 C-8 11 -8 11 -11 11 C-10.95359375 12.02480469 -10.9071875 13.04960937 -10.859375 14.10546875 C-10.82183989 15.46611656 -10.78544159 16.82679605 -10.75 18.1875 C-10.69972656 19.19780273 -10.69972656 19.19780273 -10.6484375 20.22851562 C-10.57829731 23.82320032 -10.87976467 25.80928189 -12.8125 28.875 C-15.32483176 31.31555085 -17.79822148 32.61741382 -21 34 C-20.3503125 34.36609375 -19.700625 34.7321875 -19.03125 35.109375 C-12.41926945 39.39491795 -12.41926945 39.39491795 -11.2265625 43.9609375 C-11.06994925 48.84004264 -11.30517384 51.96828843 -14.0625 56.0625 C-20.48724008 60.30009452 -25.48932536 61.50671408 -33.0625 61.375 C-34.30290039 61.36303589 -34.30290039 61.36303589 -35.56835938 61.35083008 C-52.81334668 60.95632602 -52.81334668 60.95632602 -58.84765625 56.6953125 C-61.20754935 53.22346978 -60.55521865 48.99882196 -60 45 C-57.22994454 39.2468079 -53.4095574 36.19462688 -47.40234375 34.08984375 C-41.88844977 32.52793702 -36.98106627 31.88278015 -31.25 32.0625 C-24.70742955 32.23508579 -20.27021953 30.87500343 -15.3515625 26.55078125 C-11.90117763 22.59181364 -12.67161465 16.92578022 -13 12 C-13.87100549 8.5385946 -13.87100549 8.5385946 -15 6 C-14.34 6.33 -13.68 6.66 -13 7 C-9.18833897 7.42351789 -7.4944628 7.32589594 -4.25 5.1875 C-1.8592569 3.01628385 -1.8592569 3.01628385 0 0 Z M-56.875 42.8125 C-58.54158799 46.05308776 -58.44793775 48.41649801 -58 52 C-53.51951634 57.97397822 -45.9060736 58.01038863 -39 59 C-30.45953598 60.10199536 -22.09968718 57.92368173 -15.1875 52.60546875 C-13.19899652 49.91706437 -13.40346533 47.46361423 -13.53515625 44.21875 C-14.15300537 41.26968866 -15.55957759 39.67948724 -18.03515625 37.99609375 C-31.01163291 31.41756184 -46.15252011 32.4474361 -56.875 42.8125 Z " fill="#553D36" transform="translate(147,151)"/>
<path d="M0 0 C1.16402344 -0.02126953 1.16402344 -0.02126953 2.3515625 -0.04296875 C4.375 0.1875 4.375 0.1875 6.375 2.1875 C6 4.3125 6 4.3125 5.375 6.1875 C4.055 6.5175 2.735 6.8475 1.375 7.1875 C-0.69270152 14.31288869 -1.02552058 19.46584842 2.375 26.1875 C4.39100381 29.15175767 4.39100381 29.15175767 6.375 31.1875 C6.045 31.8475 5.715 32.5075 5.375 33.1875 C1.43379291 32.62447042 -1.3758723 31.5083055 -4.625 29.1875 C-4.625 28.5275 -4.625 27.8675 -4.625 27.1875 C-5.223125 26.919375 -5.82125 26.65125 -6.4375 26.375 C-9.93588537 24.47587651 -11.35845454 22.98713639 -12.625 19.1875 C-13.31450415 12.08899827 -13.09472069 6.89880978 -8.625 1.1875 C-5.76787942 0.15676662 -3.02126666 0.02526143 0 0 Z " fill="#E9D5C4" transform="translate(174.625,115.8125)"/>
<path d="M0 0 C4.64063887 2.15458233 8.39238843 5.54833164 11 10 C11.65859232 13.00785668 11.61196836 15.87109386 11.5 18.9375 C11.50386719 20.09668945 11.50386719 20.09668945 11.5078125 21.27929688 C11.40598556 27.30236063 10.41869663 32.58130337 6 37 C0.52866077 37.75774148 -4.89700516 37.06082484 -10 35 C-13.14551917 32.28341526 -15.53906948 29.32367053 -18 26 C-18.15855469 26.66386719 -18.31710938 27.32773438 -18.48046875 28.01171875 C-20.00261854 33.77234088 -21.34294241 37.22400736 -26 41 C-26.66 40.67 -27.32 40.34 -28 40 C-27.57847656 39.52949219 -27.15695313 39.05898437 -26.72265625 38.57421875 C-26.17480469 37.95160156 -25.62695312 37.32898438 -25.0625 36.6875 C-24.51722656 36.07261719 -23.97195312 35.45773438 -23.41015625 34.82421875 C-20.2218998 30.69979835 -20.66306006 25.95783056 -21 21 C-21.50972833 18.25900802 -22.22566448 15.68739975 -23 13 C-23.33827132 11.66791089 -23.6729105 10.33487878 -24 9 C-23.01 9.99 -22.02 10.98 -21 12 C-20.79375 10.948125 -20.5875 9.89625 -20.375 8.8125 C-19.35920735 5.45833903 -17.99518688 3.03761466 -15.10546875 0.8828125 C-10.29984815 -1.13216014 -5.06651034 -0.69147526 0 0 Z M-16 8 C-17.862762 12.29868154 -17.73195525 17.64539696 -16.3515625 22.0859375 C-13.77990433 27.82271342 -9.64847029 32.17576486 -4 35 C-0.96223916 35.35161938 1.96588927 35.40083665 5 35 C8.01627737 32.45501597 8.41268955 29.79327115 9 26 C9.08402163 14.69424016 9.08402163 14.69424016 4 5 C-3.95959645 0.55110008 -10.65199801 0.05439704 -16 8 Z " fill="#65493A" transform="translate(230,166)"/>
<path d="M0 0 C3.34492533 0.89596214 5.65219236 2.01104189 8.5 3.9375 C8.83 3.9375 9.16 3.9375 9.5 3.9375 C9.5 9.2175 9.5 14.4975 9.5 19.9375 C1.44642857 21.40178571 1.44642857 21.40178571 -2.8125 19.3125 C-7.6883071 15.00364721 -10.16043399 10.90339334 -12.5 4.9375 C-11.943125 4.855 -11.38625 4.7725 -10.8125 4.6875 C-8.30044581 4.05017425 -8.30044581 4.05017425 -6.1875 1.8125 C-3.5 -0.0625 -3.5 -0.0625 0 0 Z " fill="#E0C9AD" transform="translate(157.5,174.0625)"/>
<path d="M0 0 C0.66 0.53625 1.32 1.0725 2 1.625 C2 2.285 2 2.945 2 3.625 C0.865625 3.563125 -0.26875 3.50125 -1.4375 3.4375 C-6.35824876 3.41998844 -10.44849406 4.89237545 -15 6.625 C-15.99 6.955 -16.98 7.285 -18 7.625 C-18 8.285 -18 8.945 -18 9.625 C-19.42578125 10.921875 -19.42578125 10.921875 -21.3125 12.375 C-26.26023916 16.48312281 -27.73977915 20.32389574 -29 26.625 C-26.36 28.935 -23.72 31.245 -21 33.625 C-21.33 34.285 -21.66 34.945 -22 35.625 C-22.59167969 35.20347656 -23.18335937 34.78195313 -23.79296875 34.34765625 C-24.58316406 33.79980469 -25.37335938 33.25195312 -26.1875 32.6875 C-27.35345703 31.86958984 -27.35345703 31.86958984 -28.54296875 31.03515625 C-31.12022793 29.55599796 -33.05297173 28.92213839 -36 28.625 C-40.18398085 30.41813465 -42.05828868 32.55665247 -44 36.625 C-46.77281133 43.77593448 -47.45846679 52.01053882 -44.5625 59.1875 C-44.046875 59.991875 -43.53125 60.79625 -43 61.625 C-42.505 63.11 -42.505 63.11 -42 64.625 C-43.98 64.625 -45.96 64.625 -48 64.625 C-48.33 63.305 -48.66 61.985 -49 60.625 C-48.01 61.285 -47.02 61.945 -46 62.625 C-46.48597656 61.63242188 -46.97195312 60.63984375 -47.47265625 59.6171875 C-49.14718392 55.69186571 -49.500308 51.98877426 -49.4375 47.75 C-49.43210205 47.04963623 -49.4267041 46.34927246 -49.42114258 45.62768555 C-49.25122861 39.82844803 -47.99870047 35.52901197 -45 30.625 C-44.46375 29.635 -43.9275 28.645 -43.375 27.625 C-42 25.625 -42 25.625 -40 24.625 C-37.3276379 24.49084528 -34.67749512 24.58181459 -32 24.625 C-31.87882812 24.05394531 -31.75765625 23.48289063 -31.6328125 22.89453125 C-29.60887587 15.63584493 -24.89788551 9.24525792 -19 4.625 C-18.34 4.625 -17.68 4.625 -17 4.625 C-16.7525 4.00625 -16.505 3.3875 -16.25 2.75 C-12.83672037 -3.05257538 -5.47547743 -2.50959382 0 0 Z " fill="#482F28" transform="translate(151,118.375)"/>
<path d="M0 0 C0.639375 0.2475 1.27875 0.495 1.9375 0.75 C2.94246852 3.76490557 3.04085303 5.79181692 3 8.9375 C2.99097656 9.83855469 2.98195312 10.73960937 2.97265625 11.66796875 C2.96105469 12.35503906 2.94945312 13.04210937 2.9375 13.75 C2.2775 12.43 1.6175 11.11 0.9375 9.75 C-1.0425 10.74 -1.0425 10.74 -3.0625 11.75 C-3.0625 12.41 -3.0625 13.07 -3.0625 13.75 C-9.42477936 16.25249655 -13.71620115 17.44022733 -20.3125 14.875 C-22.0625 13.75 -22.0625 13.75 -24.0625 10.75 C-24.7225 10.42 -25.3825 10.09 -26.0625 9.75 C-25.0725 9.42 -24.0825 9.09 -23.0625 8.75 C-22.3787955 7.42532254 -21.71285814 6.09136367 -21.0625 4.75 C-17.54015104 2.40176736 -15.17643342 2.20145613 -11 1.6875 C-7.49017017 1.24922404 -3.34336473 -0.40525633 0 0 Z " fill="#DDC6AA" transform="translate(151.0625,124.25)"/>
<path d="M0 0 C3.125 2.1875 3.125 2.1875 5 4 C-6.84577592 9.64564639 -17.56008873 8.66411932 -30 5 C-31.94140625 3.39453125 -31.94140625 3.39453125 -33 2 C-31.58521865 1.35004703 -30.16808513 0.70521278 -28.75 0.0625 C-27.96109375 -0.29714844 -27.1721875 -0.65679687 -26.359375 -1.02734375 C-17.71223856 -4.59214007 -8.49923039 -3.59524967 0 0 Z " fill="#E0C9AD" transform="translate(123,202)"/>
<path d="M0 0 C3.02728548 2.04165765 3.749313 3.34120808 4.6875 6.8125 C3.676875 6.1525 2.66625 5.4925 1.625 4.8125 C-2.16252985 2.67005887 -4.92601705 2.16265067 -9.3125 2.8125 C-12.06579021 4.60812405 -13.83877461 5.86504922 -15.3125 8.8125 C-14.714375 9.080625 -14.11625 9.34875 -13.5 9.625 C-9.74533582 11.66324627 -9.74533582 11.66324627 -8.3125 13.8125 C-7.97740869 16.82832175 -7.75778022 18.91043968 -8.3125 21.8125 C-10.3125 24.3125 -10.3125 24.3125 -12.3125 25.8125 C-10.3325 26.4725 -8.3525 27.1325 -6.3125 27.8125 C-8.68748055 28.65540604 -9.90345027 28.95870332 -12.3125 28.09765625 C-16.73658127 25.39309094 -19.75814146 22.83530296 -21.81640625 17.99609375 C-22.73392524 13.95756526 -21.96019577 10.55921691 -20.3125 6.8125 C-14.68765427 -0.18055145 -8.76224974 -3.14118387 0 0 Z " fill="#CCAC8A" transform="translate(93.3125,166.1875)"/>
<path d="M0 0 C0.33 0.66 0.66 1.32 1 2 C2.83925399 3.04505735 2.83925399 3.04505735 5 4 C7.66666667 5.33333333 10.33333333 6.66666667 13 8 C12.67 9.98 12.34 11.96 12 14 C11.34 13.67 10.68 13.34 10 13 C4.54885633 12.45231783 4.54885633 12.45231783 -0.3125 14.4375 C-2.68816482 18.04499102 -3.8335152 21.86428116 -5 26 C-8.70030952 23.53312699 -8.95803768 22.24800022 -10 18 C-10.54596272 12.99534173 -9.91101195 9.76569894 -7.2890625 5.578125 C-5.20625013 3.02825774 -2.85111413 1.61995121 0 0 Z " fill="#E9D6C5" transform="translate(164,142)"/>
<path d="M0 0 C6.39138575 0.15978464 9.77150681 3.63258301 14 8 C16.95636558 11.29830666 18.89903493 13.88938423 19.3125 18.4375 C19.209375 19.283125 19.10625 20.12875 19 21 C14.66907601 21.6496386 12.32975491 20.85931814 8.875 18.375 C3.88389161 14.28095507 1.01441009 10.63777398 0.25 4.125 C0.15024443 2.75109379 0.06116286 1.37616443 0 0 Z " fill="#D0AE88" transform="translate(213,180)"/>
<path d="M0 0 C0.66 0.33 1.32 0.66 2 1 C4.92349835 10.83869637 3.87275431 23.61779165 0 33 C-0.66 33 -1.32 33 -2 33 C-2.99 35.475 -2.99 35.475 -4 38 C-2.515 38.495 -2.515 38.495 -1 39 C-2.0725 39.226875 -3.145 39.45375 -4.25 39.6875 C-8.37218701 41.13026545 -9.64414523 42.41910075 -12 46 C-12.495 44.515 -12.495 44.515 -13 43 C-13.99 42.67 -14.98 42.34 -16 42 C-15.30132812 41.54109375 -14.60265625 41.0821875 -13.8828125 40.609375 C-12.51769531 39.68898438 -12.51769531 39.68898438 -11.125 38.75 C-10.22007812 38.14671875 -9.31515625 37.5434375 -8.3828125 36.921875 C-6.03730749 35.03009063 -5.067371 33.77271086 -4 31 C-4.66 30.67 -5.32 30.34 -6 30 C-5.3503125 28.9790625 -5.3503125 28.9790625 -4.6875 27.9375 C-0.70141309 20.99875611 0.72944671 16.0239138 0 8 C-0.33 7.01 -0.66 6.02 -1 5 C-1.61746094 5.144375 -2.23492187 5.28875 -2.87109375 5.4375 C-8.72140455 6.7197599 -14.01449037 7.19308096 -20 7 C-15.31466249 2.74060226 -10.99522191 1.16954086 -4.6875 0.8125 C-2 1 -2 1 0 2 C0 1.34 0 0.68 0 0 Z " fill="#654D45" transform="translate(153,120)"/>
<path d="M0 0 C3.79379058 1.49041773 5.68343758 3.69062512 8 7 C8 7.66 8 8.32 8 9 C4.69005287 10.65497356 1.00877 10.10084335 -2.625 10.0625 C-3.42679688 10.05798828 -4.22859375 10.05347656 -5.0546875 10.04882812 C-7.03649006 10.03703168 -9.01825433 10.01909605 -11 10 C-10.3808361 12.584859 -9.75492318 15.16776172 -9.125 17.75 C-8.95097656 18.47960937 -8.77695313 19.20921875 -8.59765625 19.9609375 C-7.41840701 25.23955664 -7.41840701 25.23955664 -5 30 C-3.06896092 31.11473134 -3.06896092 31.11473134 -0.875 31.75 C-0.15054688 31.99234375 0.57390625 32.2346875 1.3203125 32.484375 C1.87460938 32.65453125 2.42890625 32.8246875 3 33 C3 33.33 3 33.66 3 34 C-1.01208627 34.47762932 -2.71549035 34.17851586 -6.1875 32 C-10.269788 28.174864 -11.82141515 23.78195517 -12.17578125 18.26171875 C-12.18609028 15.83222339 -12.13419355 13.4254242 -12 11 C-13.65 11 -15.3 11 -17 11 C-17.33 16.94 -17.66 22.88 -18 29 C-17.34 28.67 -16.68 28.34 -16 28 C-17.625 33.75 -17.625 33.75 -21 36 C-21.99 35.67 -22.98 35.34 -24 35 C-23.566875 33.7315625 -23.566875 33.7315625 -23.125 32.4375 C-22.75375 31.303125 -22.3825 30.16875 -22 29 C-21.62875 27.989375 -21.2575 26.97875 -20.875 25.9375 C-19.29315102 20.47517775 -19.84773493 14.62534856 -20 9 C-20.99 8.67 -21.98 8.34 -23 8 C-21.90300781 8.04640625 -20.80601562 8.0928125 -19.67578125 8.140625 C-18.2213815 8.1781579 -16.76695217 8.21455643 -15.3125 8.25 C-14.59126953 8.28351563 -13.87003906 8.31703125 -13.12695312 8.3515625 C-8.05668201 8.44417019 -5.81395033 7.59459511 -2 4 C-1.34 4 -0.68 4 0 4 C0 2.68 0 1.36 0 0 Z " fill="#C6A684" transform="translate(198,143)"/>
<path d="M0 0 C1.4540625 0.0309375 1.4540625 0.0309375 2.9375 0.0625 C3.27523437 0.70058594 3.61296875 1.33867187 3.9609375 1.99609375 C4.40695313 2.82238281 4.85296875 3.64867187 5.3125 4.5 C5.75335938 5.32371094 6.19421875 6.14742187 6.6484375 6.99609375 C7.77168559 9.19716578 7.77168559 9.19716578 9.9375 10.0625 C9.9375 10.7225 9.9375 11.3825 9.9375 12.0625 C10.741875 12.31 11.54625 12.5575 12.375 12.8125 C14.9375 14.0625 14.9375 14.0625 15.75 16.1875 C15.811875 16.80625 15.87375 17.425 15.9375 18.0625 C14.926875 17.381875 13.91625 16.70125 12.875 16 C9.92419391 14.32489594 8.87383406 14.0625 5.3125 14.0625 C1.69453065 15.13449092 -0.33130784 16.49683464 -3.0625 19.0625 C-6.25590786 16.14677978 -6.98809103 14.06702106 -7.3125 9.6875 C-6.96009116 4.57757176 -5.48776166 0.11199514 0 0 Z " fill="#E9D6C5" transform="translate(150.0625,160.9375)"/>
<path d="M0 0 C2.95749791 3.46741134 5.07848152 6.86873527 7 11 C6.67 8.36 6.34 5.72 6 3 C6.66 3.33 7.32 3.66 8 4 C8.268125 5.11375 8.53625 6.2275 8.8125 7.375 C10.21719224 11.6630079 11.21502424 11.91826333 15 14 C15.66 15.65 16.32 17.3 17 19 C12.545 16.03 12.545 16.03 8 13 C7.896875 14.093125 7.79375 15.18625 7.6875 16.3125 C6.80239521 21.05988024 6.80239521 21.05988024 4 23 C0.98509443 24.00496852 -1.04181692 24.10335303 -4.1875 24.0625 C-5.53908203 24.04896484 -5.53908203 24.04896484 -6.91796875 24.03515625 C-7.60503906 24.02355469 -8.29210937 24.01195312 -9 24 C-5.91111478 21.94074319 -5.29064073 21.7609626 -1.8125 21.875 C-0.554375 21.91625 0.70375 21.9575 2 22 C1.360625 21.21625 0.72125 20.4325 0.0625 19.625 C-2.72478869 15.42415776 -3.24141173 10.97308162 -3 6 C-1.5625 2.375 -1.5625 2.375 0 0 Z " fill="#CCAB87" transform="translate(188,126)"/>
<path d="M0 0 C4.50423094 2.02250717 7.44962042 4.76525758 10 9 C10.53886104 11.44257448 10.74607256 13.68190111 10.796875 16.1796875 C10.86390625 16.78039062 10.9309375 17.38109375 11 18 C11.66 18.33 12.32 18.66 13 19 C12.21625 19.66 11.4325 20.32 10.625 21 C7.3549438 24.73720709 6.89790231 27.18397855 6 32 C5.67 32 5.34 32 5 32 C5 30.35 5 28.7 5 27 C4.2575 26.896875 3.515 26.79375 2.75 26.6875 C-0.17014018 25.95746496 -1.73187554 24.93210602 -4 23 C-3.67 22.34 -3.34 21.68 -3 21 C-2.21625 21.495 -1.4325 21.99 -0.625 22.5 C1.78552327 24.16537965 1.78552327 24.16537965 4 24 C2.68 23.34 1.36 22.68 0 22 C0.33 21.01 0.66 20.02 1 19 C1.66 18.67 2.32 18.34 3 18 C3.74012762 12.82596197 3.74012762 12.82596197 1.6640625 8.35546875 C-0.16828609 6.81890594 -0.16828609 6.81890594 -3 5 C-1.125 1.125 -1.125 1.125 0 0 Z " fill="#DEC7AD" transform="translate(81,170)"/>
<path d="M0 0 C0.66 0 1.32 0 2 0 C2.32871094 0.90492188 2.32871094 0.90492188 2.6640625 1.828125 C4.8853874 7.42658613 6.63393943 10.19501379 12 13 C6.59067358 19.9119171 6.59067358 19.9119171 3 21 C-0.60154499 21.22509656 -3.53211229 20.86697193 -7 20 C-7.66 20.33 -8.32 20.66 -9 21 C-7.57973582 17.96735861 -5.88129537 15.3472687 -3.9375 12.625 C-1.08482235 8.41192133 0 5.10728316 0 0 Z " fill="#DEC7AC" transform="translate(185,164)"/>
<path d="M0 0 C7.17793311 1.70831811 13.39515122 4.06915203 19 9 C21.0625 12.375 21.0625 12.375 22 15 C17.2875567 15.96343285 14.10882718 16.54395295 9.6875 14.375 C4.8116929 10.06614721 2.33956601 5.96589334 0 0 Z " fill="#CEAD88" transform="translate(145,179)"/>
<path d="M0 0 C0.33 0.66 0.66 1.32 1 2 C1.86625 2.04125 2.7325 2.0825 3.625 2.125 C8.75940374 3.45614171 11.09465594 6.69500113 14 11 C16.92196406 16.72632585 18.61063456 22.74785552 20 29 C19.01 29 18.02 29 17 29 C16.855625 27.88625 16.71125 26.7725 16.5625 25.625 C15.00750213 19.43809359 10.71161875 15.09933232 6 11 C3.27506721 9.50510277 1.0365831 8.77294843 -2 8 C-1.34 5.36 -0.68 2.72 0 0 Z " fill="#DFC8AC" transform="translate(215,172)"/>
<path d="M0 0 C2 3.75 2 3.75 2 6 C14.41185989 9.56869027 25.7747351 12.54398664 37.87109375 6.77734375 C40 6 40 6 43 7 C42.375 8.875 42.375 8.875 41 11 C36.00178921 13.20509299 31.36154252 13.34865372 26 13.3125 C25.16855469 13.30903564 24.33710937 13.30557129 23.48046875 13.30200195 C6.13431625 13.00057592 6.13431625 13.00057592 0.10546875 8.625 C-1 7 -1 7 -0.6875 3.3125 C-0.460625 2.219375 -0.23375 1.12625 0 0 Z " fill="#6B5041" transform="translate(88,199)"/>
<path d="M0 0 C2.89453125 1.5234375 2.89453125 1.5234375 5.8125 3.375 C6.78832031 3.98085937 7.76414062 4.58671875 8.76953125 5.2109375 C9.50558594 5.80132812 10.24164063 6.39171875 11 7 C11 7.99 11 8.98 11 10 C-0.32234077 11.62689945 -0.32234077 11.62689945 -5.75 7.75 C-7.50291148 5.29592392 -7.67163788 2.95525904 -8 0 C-4.58387009 -1.13870997 -3.40771649 -0.98500418 0 0 Z " fill="#CCAB86" transform="translate(120,147)"/>
<path d="M0 0 C0.66 0 1.32 0 2 0 C1.6275176 7.26340683 -3.01288314 12.55431771 -7.4375 18 C-9.32607806 21.62606987 -9.45811906 23.82836351 -8.8125 27.81640625 C-6.85708823 33.07157539 -1.83607672 35.7047318 3 38 C2.67 38.99 2.34 39.98 2 41 C0.41176362 40.26043955 -1.17040447 39.50784063 -2.75 38.75 C-3.63171875 38.33234375 -4.5134375 37.9146875 -5.421875 37.484375 C-8.19622217 35.8870236 -10.03268861 34.53133415 -12 32 C-13.028468 26.63835434 -12.90849151 20.86335153 -10.25 16 C-8 13 -8 13 -6 11.125 C-2.98477602 7.92132452 -1.62539549 4.04619729 0 0 Z " fill="#5D4134" transform="translate(184,166)"/>
<path d="M0 0 C0 0.66 0 1.32 0 2 C-9.08405753 5.02801918 -18.96239787 2.02442288 -28 0 C-18.94991826 -6.03338783 -9.4569759 -4.72848795 0 0 Z " fill="#CEAC87" transform="translate(121,207)"/>
<path d="M0 0 C0 3 0 3 -2 6.25 C-4.20857663 10.02035582 -4.60944376 12.58153275 -4 17 C-2.85932844 20.1048773 -1.4952284 23.05157773 0 26 C0.33 26.66 0.66 27.32 1 28 C-3.42679007 26.52440331 -3.91432696 24.09942632 -6 20 C-6 19.34 -6 18.68 -6 18 C-10.74467245 18.87722099 -10.74467245 18.87722099 -14.4375 21.6875 C-16.26441177 29.19813729 -13.79631168 35.09660554 -11 42 C-11.99 42 -12.98 42 -14 42 C-17.40360369 35.70941104 -19.18069386 30.18153997 -18 23 C-16.4375 19.4375 -16.4375 19.4375 -14 17 C-10.25 16.125 -10.25 16.125 -7 16 C-6.99742187 15.43152344 -6.99484375 14.86304688 -6.9921875 14.27734375 C-6.66558274 7.75613543 -4.69061926 4.46110884 0 0 Z " fill="#3D251F" transform="translate(159,143)"/>
<path d="M0 0 C3.02728548 2.04165765 3.749313 3.34120808 4.6875 6.8125 C3.81738281 6.27109375 3.81738281 6.27109375 2.9296875 5.71875 C-3.27280406 1.8320118 -3.27280406 1.8320118 -10.3125 1.8125 C-13.5214731 3.99832226 -16.55638096 6.30026192 -18.3125 9.8125 C-18.78288175 14.61039381 -18.3174132 18.07905267 -15.734375 22.234375 C-13.16720723 25.08364912 -9.83313236 26.43671891 -6.3125 27.8125 C-8.68748055 28.65540604 -9.90345027 28.95870332 -12.3125 28.09765625 C-16.73658127 25.39309094 -19.75814146 22.83530296 -21.81640625 17.99609375 C-22.73392524 13.95756526 -21.96019577 10.55921691 -20.3125 6.8125 C-14.68765427 -0.18055145 -8.76224974 -3.14118387 0 0 Z " fill="#543C35" transform="translate(93.3125,166.1875)"/>
<path d="M0 0 C7.53545616 1.16869343 13.75948463 3.45568631 19 9.1875 C20 11 20 11 20 13 C20.66 13 21.32 13 22 13 C22.53394179 14.4117783 23.05165104 15.82970244 23.5625 17.25 C23.85253906 18.03890625 24.14257812 18.8278125 24.44140625 19.640625 C25.04522837 22.19103452 24.8473932 23.55322229 24 26 C22.34347076 23.51520614 20.83927526 21.0363745 19.375 18.4375 C18.92898437 17.65246094 18.48296875 16.86742187 18.0234375 16.05859375 C17 14 17 14 17 12 C16.01 12 15.02 12 14 12 C13.67 11.01 13.34 10.02 13 9 C8.73786724 4.46289093 3.90190445 3.87096066 -2 3 C-1.34 2.01 -0.68 1.02 0 0 Z " fill="#745949" transform="translate(171,112)"/>
<path d="M0 0 C0.515625 0.70125 1.03125 1.4025 1.5625 2.125 C6.23113998 7.63160101 11.95318791 13.4139186 19.421875 14.28125 C24.39197292 14.45770318 28.04637975 14.33586709 32 11 C32.66 10.01 33.32 9.02 34 8 C34.99 8 35.98 8 37 8 C36.3817727 11.48590816 35.91611115 12.08202466 33.1875 14.75 C28.10997681 18.08309805 22.84457433 18.04678943 17 17 C11.4743492 14.75608089 6.70743218 11.62864564 2 8 C0.02 8.99 0.02 8.99 -2 10 C-2 7 -2 7 0 5 C0 4.34 0 3.68 0 3 C-0.66 2.67 -1.32 2.34 -2 2 C-1.34 2 -0.68 2 0 2 C0 1.34 0 0.68 0 0 Z " fill="#503730" transform="translate(162,135)"/>
<path d="M0 0 C5.50162483 0.05411434 8.68999322 0.39611856 12.8125 4.3125 C13.76125 5.199375 14.71 6.08625 15.6875 7 C18.4319165 11.27806101 18.30612634 14.37623658 17.8125 19.3125 C16.8225 19.3125 15.8325 19.3125 14.8125 19.3125 C14.69132812 18.72082031 14.57015625 18.12914062 14.4453125 17.51953125 C14.27773437 16.72933594 14.11015625 15.93914062 13.9375 15.125 C13.77507812 14.34769531 13.61265625 13.57039062 13.4453125 12.76953125 C13.13207031 11.55330078 13.13207031 11.55330078 12.8125 10.3125 C12.62429687 9.42433594 12.43609375 8.53617188 12.2421875 7.62109375 C10.91260288 4.90777851 10.91260288 4.90777851 7.1875 4.203125 C5.73267705 3.96684901 4.27387614 3.754114 2.8125 3.5625 C-5.09202261 2.36023869 -5.09202261 2.36023869 -7.1875 1.3125 C-5.33807253 -0.53692747 -2.48323569 0.0533124 0 0 Z " fill="#7A6359" transform="translate(223.1875,165.6875)"/>
<path d="M0 0 C0 0.33 0 0.66 0 1 C-0.96679688 0.96519531 -1.93359375 0.93039063 -2.9296875 0.89453125 C-13.09766619 0.68311783 -22.97402327 0.92949669 -31 8 C-32.58102154 10.57410069 -33.84864943 13.20966804 -35 16 C-35.33 16 -35.66 16 -36 16 C-35.58558243 10.71617594 -34.88841677 7.68901078 -31 4 C-21.85288678 -1.96010997 -10.2557066 -4.10228264 0 0 Z " fill="#381F1A" transform="translate(123,185)"/>
<path d="M0 0 C0.66 0.33 1.32 0.66 2 1 C1.525625 1.598125 1.05125 2.19625 0.5625 2.8125 C-2.77276767 7.48187474 -2.35790392 12.48994433 -2 18 C-1.5031951 20.44514412 -0.82216116 22.63628668 0 25 C-0.66 24.67 -1.32 24.34 -2 24 C-2.15855469 24.66386719 -2.31710938 25.32773438 -2.48046875 26.01171875 C-4.00261854 31.77234088 -5.34294241 35.22400736 -10 39 C-10.66 38.67 -11.32 38.34 -12 38 C-11.57847656 37.52949219 -11.15695313 37.05898437 -10.72265625 36.57421875 C-10.17480469 35.95160156 -9.62695312 35.32898438 -9.0625 34.6875 C-8.51722656 34.07261719 -7.97195312 33.45773438 -7.41015625 32.82421875 C-4.2218998 28.69979835 -4.66306006 23.95783056 -5 19 C-5.50972833 16.25900802 -6.22566448 13.68739975 -7 11 C-7.33827132 9.66791089 -7.6729105 8.33487878 -8 7 C-7.01 7.99 -6.02 8.98 -5 10 C-4.5978125 8.3603125 -4.5978125 8.3603125 -4.1875 6.6875 C-3.12336261 3.38307337 -2.65345336 2.05039578 0 0 Z " fill="#DDC7B2" transform="translate(214,168)"/>
<path d="M0 0 C1.86785156 0.01353516 1.86785156 0.01353516 3.7734375 0.02734375 C5.18496094 0.04474609 5.18496094 0.04474609 6.625 0.0625 C6.955 1.3825 7.285 2.7025 7.625 4.0625 C3.90277889 6.54398074 -0.0539924 6.6403593 -4.375 6.0625 C-7.125 4.6875 -7.125 4.6875 -9.375 3.0625 C-10.70108822 2.38153578 -12.03186601 1.70919414 -13.375 1.0625 C-8.85684719 0.17972245 -4.59987306 -0.04339503 0 0 Z " fill="#DFC8AC" transform="translate(200.375,151.9375)"/>
<path d="M0 0 C3 1.375 3 1.375 5 3 C5 3.66 5 4.32 5 5 C3.88625 4.938125 2.7725 4.87625 1.625 4.8125 C-3.56091969 4.78461871 -8.13763334 6.3260705 -13 8 C-13.33 6.68 -13.66 5.36 -14 4 C-9.11087789 0.08870231 -6.267114 -0.696346 0 0 Z " fill="#97785E" transform="translate(148,117)"/>
<path d="M0 0 C0.66 0.33 1.32 0.66 2 1 C2 1.66 2 2.32 2 3 C1.34 3 0.68 3 0 3 C-0.33 3.66 -0.66 4.32 -1 5 C-7.2248986 7.00086026 -13.52274137 7.20894383 -20 7 C-15.31466249 2.74060226 -10.99522191 1.16954086 -4.6875 0.8125 C-2 1 -2 1 0 2 C0 1.34 0 0.68 0 0 Z " fill="#C4A481" transform="translate(153,120)"/>
<path d="M0 0 C2.35953094 2.35953094 2.49141413 3.77895617 3 7 C3.556875 7.04125 4.11375 7.0825 4.6875 7.125 C8.15543888 8.43719309 9.68848944 11.16839957 12 14 C15.28766781 16.33318361 18.048885 16.0858938 22 16 C22.66 16.33 23.32 16.66 24 17 C24 17.66 24 18.32 24 19 C19.08525551 19.66142356 14.80843121 20.04583974 10.40625 17.5 C5.45036986 13.27098228 2.36019733 9.05441924 0 3 C0 2.01 0 1.02 0 0 Z " fill="#7C5F4C" transform="translate(142,178)"/>
<path d="M0 0 C1.10191901 4.40767604 0.58706842 5.8922935 -1 10 C-1.66 10 -2.32 10 -3 10 C-3.66 11.65 -4.32 13.3 -5 15 C-4.01 15.33 -3.02 15.66 -2 16 C-3.0725 16.226875 -4.145 16.45375 -5.25 16.6875 C-9.37218701 18.13026545 -10.64414523 19.41910075 -13 23 C-13.33 22.01 -13.66 21.02 -14 20 C-14.99 19.67 -15.98 19.34 -17 19 C-15.95199219 18.29423828 -15.95199219 18.29423828 -14.8828125 17.57421875 C-13.97273437 16.95160156 -13.06265625 16.32898438 -12.125 15.6875 C-11.22007812 15.07261719 -10.31515625 14.45773438 -9.3828125 13.82421875 C-6.80028615 12.05086051 -6.80028615 12.05086051 -5 9 C-4.34 9 -3.68 9 -3 9 C-2.01 6.03 -1.02 3.06 0 0 Z " fill="#E3CFBF" transform="translate(154,143)"/>
<path d="M0 0 C0.66 0.33 1.32 0.66 2 1 C2.37876606 7.18651231 1.92296816 11.49132923 -1 17 C-3 19 -3 19 -5.0234375 19.265625 C-6.18746094 19.25789063 -6.18746094 19.25789063 -7.375 19.25 C-8.14585937 19.25515625 -8.91671875 19.2603125 -9.7109375 19.265625 C-12.1992361 18.97688045 -13.84234198 18.24139229 -16 17 C-15.67 16.34 -15.34 15.68 -15 15 C-14.34 15.33 -13.68 15.66 -13 16 C-10.85753682 16.23502905 -10.85753682 16.23502905 -8.5 16.25 C-7.30890625 16.28867188 -7.30890625 16.28867188 -6.09375 16.328125 C-5.4028125 16.21984375 -4.711875 16.1115625 -4 16 C-1.72525723 12.58788584 -1.43370356 10.3431471 -0.875 6.3125 C-0.62363281 4.54326172 -0.62363281 4.54326172 -0.3671875 2.73828125 C-0.24601563 1.83464844 -0.12484375 0.93101562 0 0 Z " fill="#402722" transform="translate(239,184)"/>
<path d="M0 0 C1.36447109 0.60036728 2.68747118 1.29325371 4 2 C4.55558594 2.28359375 5.11117187 2.5671875 5.68359375 2.859375 C10.97643281 6.00093109 12.49065323 9.73295755 14.37109375 15.4765625 C15 18 15 18 15 21 C14.01 21 13.02 21 12 21 C11.7525 19.80375 11.505 18.6075 11.25 17.375 C9.62248851 10.93324125 6.36228908 6.87276433 1 3 C0.67 4.32 0.34 5.64 0 7 C0 4.69 0 2.38 0 0 Z " fill="#482E25" transform="translate(196,139)"/>
<path d="M0 0 C1.05288873 3.38544221 1.00963022 6.34768827 0.875 9.875 C0.82161671 14.74474277 1.31849702 17.81685535 4 22 C4.33 22.99 4.66 23.98 5 25 C3.02 25 1.04 25 -1 25 C-1.33 23.68 -1.66 22.36 -2 21 C-0.515 21.99 -0.515 21.99 1 23 C0.505 22.113125 0.01 21.22625 -0.5 20.3125 C-2.85673619 14.87301883 -2.60440315 8.80854977 -2 3 C-1.34 2.01 -0.68 1.02 0 0 Z " fill="#3B221C" transform="translate(104,158)"/>
<path d="M0 0 C1.25127906 3.54667178 0.72285053 5.72253438 -0.4375 9.25 C-0.72496094 10.14203125 -1.01242188 11.0340625 -1.30859375 11.953125 C-1.53675781 12.62859375 -1.76492187 13.3040625 -2 14 C-3.65 14.33 -5.3 14.66 -7 15 C-6.68383092 8.83470299 -3.50784939 4.82731567 0 0 Z " fill="#CFAD88" transform="translate(176,160)"/>
<path d="M0 0 C0.66 0 1.32 0 2 0 C2.08636719 0.73605469 2.17273438 1.47210938 2.26171875 2.23046875 C3.15914436 8.53561846 3.15914436 8.53561846 6.25 14 C9.05980682 16.04349587 11.8244515 17.59685066 15 19 C12.62501945 19.84290604 11.40904973 20.14620332 9 19.28515625 C3.86039582 16.14317166 0.56287714 12.95917181 -1 7 C-1.01446697 4.44416777 -0.62686244 2.50744977 0 0 Z " fill="#543B31" transform="translate(72,175)"/>
<path d="M0 0 C0.33 0 0.66 0 1 0 C1 6.27 1 12.54 1 19 C1.66 18.67 2.32 18.34 3 18 C1.375 23.75 1.375 23.75 -2 26 C-2.99 25.67 -3.98 25.34 -5 25 C-4.71125 24.154375 -4.4225 23.30875 -4.125 22.4375 C-3.75375 21.303125 -3.3825 20.16875 -3 19 C-2.649375 17.96875 -2.29875 16.9375 -1.9375 15.875 C-0.66621689 10.62036313 -0.33602044 5.38516972 0 0 Z " fill="#D0B08E" transform="translate(179,153)"/>
<path d="M0 0 C2.07446681 3.11170022 2.41208186 4.69462082 2.9375 8.3125 C3.99188597 14.53217653 3.99188597 14.53217653 7 20 C9.6444911 21.3719934 12.11687307 22.14924123 15 23 C15 23.33 15 23.66 15 24 C10.98791373 24.47762932 9.28450965 24.17851586 5.8125 22 C1.63684644 18.07642001 0.15967158 13.68957906 -0.17578125 8.0390625 C-0.18614492 5.35141827 -0.13321446 2.68402468 0 0 Z " fill="#452D26" transform="translate(186,153)"/>
<path d="M0 0 C2 3 2 3 2 5 C2.99 5.0928125 2.99 5.0928125 4 5.1875 C8.18657836 6.32136497 11.42550992 8.59631064 15 11 C14.67 11.99 14.34 12.98 14 14 C2.50877193 8.64912281 2.50877193 8.64912281 0 5 C-0.25 2.25 -0.25 2.25 0 0 Z " fill="#846E64" transform="translate(172,193)"/>
<path d="M0 0 C5.94074887 1.00332648 10.20186518 2.30912706 15 6 C14.67 6.99 14.34 7.98 14 9 C13.278125 8.54625 12.55625 8.0925 11.8125 7.625 C7.25847283 4.9937843 3.21118347 3.72714188 -2 3 C-1.34 2.01 -0.68 1.02 0 0 Z " fill="#4A322B" transform="translate(171,112)"/>
<path d="M0 0 C0.33 0 0.66 0 1 0 C1.03738281 0.845625 1.07476562 1.69125 1.11328125 2.5625 C1.50436686 9.31064379 2.21653623 14.82797163 5 21 C3.35 20.67 1.7 20.34 0 20 C-2.86829544 13.14796089 -1.39357589 7.12867669 0 0 Z " fill="#D6C2B3" transform="translate(101,161)"/>
<path d="M0 0 C0 3 0 3 -1.42578125 4.796875 C-3.42483303 7.5945554 -3.70897748 9.86353297 -4.1875 13.25 C-4.34605469 14.32765625 -4.50460938 15.4053125 -4.66796875 16.515625 C-4.77753906 17.33546875 -4.88710937 18.1553125 -5 19 C-5.66 19 -6.32 19 -7 19 C-7.32248404 12.95641015 -7.54612824 8.19254493 -4 3 C-1.8125 1.125 -1.8125 1.125 0 0 Z " fill="#412821" transform="translate(218,167)"/>
<path d="M0 0 C0.66 0 1.32 0 2 0 C3.16559326 2.9482653 3.98672004 5.44224163 4.0625 8.625 C2.39347422 12.35576351 -0.3874226 13.22655291 -4 15 C-2.1682243 10.28971963 -2.1682243 10.28971963 -0.875 8.0625 C0.29033839 5.31563094 0.13409042 2.94998931 0 0 Z " fill="#CCAE90" transform="translate(185,164)"/>
<path d="M0 0 C0.66 0 1.32 0 2 0 C4.22024286 6.66072858 3.26679704 13.4829585 1 20 C0.34 20 -0.32 20 -1 20 C-0.835 18.9275 -0.67 17.855 -0.5 16.75 C0.21160726 11.17741358 0.08411046 5.60736426 0 0 Z " fill="#3E251E" transform="translate(176,152)"/>
<path d="M0 0 C1.15113281 -0.02578125 2.30226562 -0.0515625 3.48828125 -0.078125 C6.90473798 0.27228082 8.22191038 0.93660727 10.6875 3.25 C10.0275 3.91 9.3675 4.57 8.6875 5.25 C5.75390625 4.82421875 5.75390625 4.82421875 2.25 3.9375 C1.09628906 3.65261719 -0.05742187 3.36773437 -1.24609375 3.07421875 C-3.28529748 2.52610157 -5.30927613 1.91774129 -7.3125 1.25 C-5.45145086 -0.61104914 -2.49213923 0.03326548 0 0 Z " fill="#654E45" transform="translate(223.3125,165.75)"/>
<path d="M0 0 C0 0.99 0 1.98 0 3 C-0.66 3 -1.32 3 -2 3 C-2 3.66 -2 4.32 -2 5 C-4.25 7.625 -4.25 7.625 -7 10 C-8.32 10 -9.64 10 -11 10 C-9.15919405 5.21390453 -5.3291986 0 0 0 Z " fill="#5F453A" transform="translate(135,123)"/>
<path d="M0 0 C1.65 0.99 3.3 1.98 5 3 C4.67 5.97 4.34 8.94 4 12 C3.34 12 2.68 12 2 12 C1.67 13.32 1.34 14.64 1 16 C0.67 10.72 0.34 5.44 0 0 Z " fill="#D9C4B2" transform="translate(155,123)"/>
<path d="M0 0 C0.99 0.495 0.99 0.495 2 1 C2.268125 2.11375 2.53625 3.2275 2.8125 4.375 C4.21719224 8.6630079 5.21502424 8.91826333 9 11 C9.66 12.65 10.32 14.3 11 16 C8.03 14.02 5.06 12.04 2 10 C1.67 10.99 1.34 11.98 1 13 C1.020625 11.783125 1.04125 10.56625 1.0625 9.3125 C1.06824116 6.08022678 0.78766315 3.15065259 0 0 Z " fill="#AD8D6F" transform="translate(194,129)"/>
<path d="M0 0 C0.66 0.33 1.32 0.66 2 1 C1.44003133 4.31019455 0.61925428 5.79049393 -2.0625 7.8125 C-5.0337675 9.83444137 -6.87586245 10.2687952 -10.4375 9.8125 C-11.613125 9.544375 -12.78875 9.27625 -14 9 C-14 8.67 -14 8.34 -14 8 C-13.39671875 7.91363281 -12.7934375 7.82726562 -12.171875 7.73828125 C-6.75389032 6.80313013 -6.75389032 6.80313013 -2.5 3.4375 C-2.005 2.633125 -1.51 1.82875 -1 1 C-0.67 0.67 -0.34 0.34 0 0 Z " fill="#664A3B" transform="translate(197,142)"/>
<path d="M0 0 C0.33 0.66 0.66 1.32 1 2 C0.0625 4.125 0.0625 4.125 -1 6 C-6.29441695 6.50423019 -8.81413519 5.18923033 -13 2 C-12.34 1.67 -11.68 1.34 -11 1 C-10.34 1.33 -9.68 1.66 -9 2 C-5.5 2.25 -5.5 2.25 -2 2 C-1.34 1.34 -0.68 0.68 0 0 Z " fill="#4E342B" transform="translate(175,172)"/>
<path d="M0 0 C0.33 0.66 0.66 1.32 1 2 C0.67 2.66 0.34 3.32 0 4 C0.06084645 6.1505762 0.06084645 6.1505762 0.375 8.5 C0.46523437 9.2940625 0.55546875 10.088125 0.6484375 10.90625 C0.90346904 13.05104576 0.90346904 13.05104576 2 15 C1.01 15 0.02 15 -1 15 C-2.99584278 10.88357426 -3.42196743 7.55724828 -3 3 C-1.5 1.0625 -1.5 1.0625 0 0 Z " fill="#3F2620" transform="translate(175,183)"/>
<path d="M0 0 C2 3.75 2 3.75 2 6 C3.32 6.66 4.64 7.32 6 8 C6 8.66 6 9.32 6 10 C1.25 9.25 1.25 9.25 -1 7 C-0.625 3.375 -0.625 3.375 0 0 Z " fill="#6E564B" transform="translate(88,199)"/>
<path d="M0 0 C-0.886875 0.556875 -1.77375 1.11375 -2.6875 1.6875 C-5.84279378 3.77853792 -8.39868111 6.24566235 -11 9 C-11 5 -11 5 -8.625 2.3125 C-5.19489373 -0.70926028 -4.27477671 -1.28243301 0 0 Z " fill="#4C332B" transform="translate(85,167)"/>
<path d="M0 0 C0.33 1.32 0.66 2.64 1 4 C-0.8125 6.125 -0.8125 6.125 -3 8 C-3.66 8.66 -4.32 9.32 -5 10 C-5.33 9.01 -5.66 8.02 -6 7 C-6.99 6.67 -7.98 6.34 -9 6 C-6.03 4.02 -3.06 2.04 0 0 Z " fill="#D7C4B4" transform="translate(146,156)"/>
<path d="M0 0 C1.90318884 2.85478326 2.4619099 4.41941308 3.125 7.6875 C3.29257813 8.49574219 3.46015625 9.30398437 3.6328125 10.13671875 C3.75398437 10.75160156 3.87515625 11.36648437 4 12 C3.01 12 2.02 12 1 12 C0.63762737 10.37681021 0.28534843 8.7513642 -0.0625 7.125 C-0.25972656 6.22007812 -0.45695313 5.31515625 -0.66015625 4.3828125 C-1 2 -1 2 0 0 Z " fill="#563D35" transform="translate(207,148)"/>
<path d="M0 0 C0.66 0 1.32 0 2 0 C2.91397824 5.68697571 2.91397824 10.31302429 2 16 C1.34 15.67 0.68 15.34 0 15 C0 10.05 0 5.1 0 0 Z " fill="#442B24" transform="translate(153,123)"/>
<path d="M0 0 C3.6875 0.3125 3.6875 0.3125 7 1 C7.33 1.99 7.66 2.98 8 4 C4.37 3.67 0.74 3.34 -3 3 C-2.01 2.01 -1.02 1.02 0 0 Z " fill="#4C3127" transform="translate(145,118)"/>
<path d="M0 0 C1.051875 -0.00386719 1.051875 -0.00386719 2.125 -0.0078125 C4 0.125 4 0.125 6 1.125 C6 1.785 6 2.445 6 3.125 C2.37 3.125 -1.26 3.125 -5 3.125 C-5.33 2.465 -5.66 1.805 -6 1.125 C-3.75487738 0.00243869 -2.48543351 -0.00913762 0 0 Z " fill="#684C3C" transform="translate(160,193.875)"/>
<path d="M0 0 C3 1 3 1 4.16796875 3.28515625 C4.50441406 4.20167969 4.84085938 5.11820313 5.1875 6.0625 C5.53167969 6.98160156 5.87585938 7.90070313 6.23046875 8.84765625 C6.48441406 9.55792969 6.73835937 10.26820313 7 11 C6.01 11 5.02 11 4 11 C3.32880451 9.5437455 2.66318193 8.08492133 2 6.625 C1.62875 5.81289062 1.2575 5.00078125 0.875 4.1640625 C0 2 0 2 0 0 Z " fill="#4C332B" transform="translate(141,174)"/>
<path d="M0 0 C1.18951523 3.5685457 0.97717908 5.39195416 0 9 C-2.0625 10.875 -2.0625 10.875 -4 12 C-3.45660208 7.43545749 -2.20536179 4.0271824 0 0 Z " fill="#816A60" transform="translate(106,149)"/>
<path d="M0 0 C2.82249951 1.03491649 3.83374226 1.69915265 5.3125 4.375 C6.02770914 7.10579853 5.9659657 8.39189261 5 11 C0 3.5 0 3.5 0 0 Z " fill="#492F25" transform="translate(190,127)"/>
<path d="M0 0 C0 3.63195496 -0.95453155 4.74713911 -3 7.6875 C-3.556875 8.49574219 -4.11375 9.30398437 -4.6875 10.13671875 C-5.120625 10.75160156 -5.55375 11.36648437 -6 12 C-6.33 11.34 -6.66 10.68 -7 10 C-5.29152862 5.86370087 -3.32643967 2.98232523 0 0 Z " fill="#3A211C" transform="translate(159,143)"/>
<path d="M0 0 C3.93673644 1.31224548 6.22719294 2.91910327 9 6 C8.67 6.66 8.34 7.32 8 8 C5.03 6.02 2.06 4.04 -1 2 C-0.67 1.34 -0.34 0.68 0 0 Z " fill="#422820" transform="translate(121,146)"/>
<path d="M0 0 C0 0.33 0 0.66 0 1 C-0.61488281 1.19335938 -1.22976562 1.38671875 -1.86328125 1.5859375 C-3.07564453 1.97652344 -3.07564453 1.97652344 -4.3125 2.375 C-5.51326172 2.75785156 -5.51326172 2.75785156 -6.73828125 3.1484375 C-9.22724528 3.98831811 -9.22724528 3.98831811 -12 6 C-9.51338724 -0.92699268 -6.80769872 -0.10980159 0 0 Z " fill="#D9C1A5" transform="translate(119,143)"/>
<path d="M0 0 C4.455 0.99 4.455 0.99 9 2 C9 2.33 9 2.66 9 3 C5.7 3 2.4 3 -1 3 C-0.67 2.01 -0.34 1.02 0 0 Z " fill="#51372C" transform="translate(94,207)"/>
<path d="M0 0 C0.66 0 1.32 0 2 0 C2.25 6.625 2.25 6.625 0 10 C-0.74926071 6.33694766 -1.2380014 3.57644848 0 0 Z " fill="#614536" transform="translate(72,175)"/>
<path d="M0 0 C1.9375 0.8125 1.9375 0.8125 4 2 C4.33 2.99 4.66 3.98 5 5 C3.02 5 1.04 5 -1 5 C-1.33 3.68 -1.66 2.36 -2 1 C-0.515 1.99 -0.515 1.99 1 3 C0.67 2.01 0.34 1.02 0 0 Z " fill="#462E28" transform="translate(104,178)"/>
<path d="M0 0 C0.66 0 1.32 0 2 0 C0.98823563 3.40320742 0.35156418 4.75725331 -2.625 6.8125 C-3.40875 7.204375 -4.1925 7.59625 -5 8 C-3.63055898 5.05043472 -2.12169591 2.47531189 0 0 Z " fill="#4D352E" transform="translate(147,151)"/>
<path d="M0 0 C0.99 0 1.98 0 3 0 C2.125 4.75 2.125 4.75 1 7 C-0.32 6.34 -1.64 5.68 -3 5 C-1.6875 2.5 -1.6875 2.5 0 0 Z " fill="#7C655C" transform="translate(150,145)"/>
<path d="M0 0 C0.99 0.33 1.98 0.66 3 1 C1.68 3.31 0.36 5.62 -1 8 C-1.66 7.34 -2.32 6.68 -3 6 C-2.01 4.02 -1.02 2.04 0 0 Z " fill="#39201B" transform="translate(123,133)"/>
<path d="M0 0 C0.66 0.33 1.32 0.66 2 1 C-0.36620011 3.61527381 -2.942048 5.26440562 -6 7 C-5.8125 5.1875 -5.8125 5.1875 -5 3 C-2.5625 1.1875 -2.5625 1.1875 0 0 Z " fill="#442C26" transform="translate(97,186)"/>
<path d="M0 0 C0.99 0.33 1.98 0.66 3 1 C0.03 3.475 0.03 3.475 -3 6 C-3.33 5.34 -3.66 4.68 -4 4 C-2.68 2.68 -1.36 1.36 0 0 Z " fill="#644D44" transform="translate(178,178)"/>
<path d="M0 0 C0 3 0 3 -1 5 C-2.32 5 -3.64 5 -5 5 C-4.1875 3.0625 -4.1875 3.0625 -3 1 C-2.01 0.67 -1.02 0.34 0 0 Z " fill="#503830" transform="translate(129,128)"/>
<path d="M0 0 C0.66 0 1.32 0 2 0 C3.625 2.5 3.625 2.5 5 5 C3 5 1 5 -1 5 C-0.67 3.35 -0.34 1.7 0 0 Z " fill="#8D7667" transform="translate(186,119)"/>
<path d="M0 0 C1.32 0.66 2.64 1.32 4 2 C3.67 2.99 3.34 3.98 3 5 C1.35 4.01 -0.3 3.02 -2 2 C-1.34 1.34 -0.68 0.68 0 0 Z " fill="#5D453E" transform="translate(182,116)"/>
<path d="M0 0 C3.65316671 1.24976756 4.78065836 1.67098753 7 5 C3.34683329 3.75023244 2.21934164 3.32901247 0 0 Z " fill="#D4C0B1" transform="translate(139,186)"/>
<path d="M0 0 C3 1 3 1 3 1 Z " fill="#EDDAC9" transform="translate(136,185)"/>
<path d="M0 0 C3 1 3 1 3 1 Z " fill="#EDDAC9" transform="translate(133,184)"/>
<path d="" fill="#E2CFBE" transform="translate(0,0)"/>
</svg>
