<?xml version="1.0" encoding="UTF-8"?>
<svg version="1.1" xmlns="http://www.w3.org/2000/svg" width="320" height="320">
<path d="M0 0 C0.08115993 3.06303578 0.14057409 6.12390815 0.1875 9.1875 C0.22520508 10.48397461 0.22520508 10.48397461 0.26367188 11.80664062 C0.31991368 16.69967743 0.26389979 20.07439843 -3 24 C-14.70622301 34.68948533 -32.06925256 39.30551315 -47.125 42.5625 C-48.78478979 42.9387056 -50.44412625 43.31691628 -52.10302734 43.69702148 C-59.24765999 45.32468782 -66.40741586 46.87941688 -73.57521057 48.40150452 C-88.19857712 51.50914281 -102.29701816 54.76141879 -115.93505859 61.04882812 C-117.88735346 61.94811174 -119.8550983 62.79727107 -121.83203125 63.640625 C-128.17034886 66.51977258 -133.31909613 69.80789916 -138.53515625 74.36328125 C-139.43638466 75.14367516 -139.43638466 75.14367516 -140.3558197 75.93983459 C-147.22816357 81.96627416 -153.65013501 88.43005729 -160.0625 94.9375 C-161.2566781 96.14175555 -162.45133843 97.34553309 -163.64648438 98.54882812 C-165.82596939 100.74440014 -168.00269981 102.94261851 -170.17602539 105.14428711 C-186.89091686 122.05183696 -207.48472364 134.83969447 -231.83276367 135.48754883 C-248.04681136 135.55257332 -267.87734772 134.72618475 -281.5 124.75 C-286.31377746 119.45484479 -290.12865327 113.33323663 -290 106 C-288.60686086 99.72571408 -286.28486828 95.92409918 -281.25 91.9375 C-277.92969307 89.41903175 -277.92969307 89.41903175 -276.59375 85.6796875 C-276.69567271 84.13555843 -276.82841587 82.59306553 -276.99609375 81.0546875 C-277 79 -277 79 -274.8125 75.9375 C-271.81073891 73.86962014 -270.54966001 73.49290571 -267 74 C-267.33 73.319375 -267.66 72.63875 -268 71.9375 C-269.21058915 68.38139438 -269.41476049 65.73284441 -269 62 C-267.3125 60 -267.3125 60 -265 59 C-261.26742756 59 -260.03667188 59.9682177 -257.1875 62.4375 C-255 65 -255 65 -255 67 C-253.35 67 -251.7 67 -250 67 C-250 66.34 -250 65.68 -250 65 C-250.99 64.67 -251.98 64.34 -253 64 C-255.028972 59.63771021 -255.10558038 56.64343758 -254 52 C-248.4989496 50.78976891 -245.81972972 51.10816217 -241 54 C-240.360625 54.45375 -239.72125 54.9075 -239.0625 55.375 C-236.18598954 56.24666984 -234.72804755 55.01424564 -232.14453125 53.7421875 C-227.95156109 52.2910685 -223.37724372 52.60619953 -219 53 C-218.67 53.33 -218.34 53.66 -218 54 C-218.28730055 56.33944736 -218.61936779 58.6739143 -219 61 C-217.1746875 60.9071875 -217.1746875 60.9071875 -215.3125 60.8125 C-211.40073507 60.80557652 -209.16318668 61.58109254 -206 64 C-204 66 -204 66 -203.875 68.625 C-203.91625 69.40875 -203.9575 70.1925 -204 71 C-203.319375 70.649375 -202.63875 70.29875 -201.9375 69.9375 C-198.24048497 68.75760159 -195.75565735 69.14966249 -192 70 C-191.34 70.66 -190.68 71.32 -190 72 C-190.3269756 74.61580479 -190.82039068 76.64078137 -192 79 C-189.36354493 80.85750244 -188.13554961 81.65637812 -185 82 C-181.29985879 80.59488308 -178.13300071 78.44168096 -174.85498047 76.2421875 C-171.37915433 73.91460084 -167.84290612 71.68106384 -164.3125 69.4375 C-163.52246582 68.9324292 -162.73243164 68.4273584 -161.91845703 67.90698242 C-154.0696333 62.93881954 -145.97993256 58.43659414 -137.85449219 53.94018555 C-132.51567941 50.98191626 -127.23365197 47.9925934 -122.0625 44.75 C-33.92272393 -10.42503223 -33.92272393 -10.42503223 0 0 Z M-236 68 C-236.33 68.66 -236.66 69.32 -237 70 C-236.01 70.33 -235.02 70.66 -234 71 C-234 70.01 -234 69.02 -234 68 C-234.66 68 -235.32 68 -236 68 Z M-208 77 C-208.66 77.66 -209.32 78.32 -210 79 C-209.01 79 -208.02 79 -207 79 C-207.33 78.34 -207.66 77.68 -208 77 Z " fill="#371E19" transform="translate(304,93)"/>
<path d="M0 0 C1.8125 0.5625 1.8125 0.5625 4 2 C7 8 7 8 7 11 C7.70511719 10.68289062 8.41023438 10.36578125 9.13671875 10.0390625 C12.12505879 8.95461714 14.65069658 8.6035641 17.8125 8.375 C19.27623047 8.26285156 19.27623047 8.26285156 20.76953125 8.1484375 C21.87361328 8.07496094 21.87361328 8.07496094 23 8 C23 7.34 23 6.68 23 6 C24.134375 5.54625 25.26875 5.0925 26.4375 4.625 C30.04721692 3.42904194 30.04721692 3.42904194 31 1 C32.32 1 33.64 1 35 1 C35 4.3 35 7.6 35 11 C35.27457031 10.18144531 35.54914063 9.36289063 35.83203125 8.51953125 C38 6 38 6 40.21630859 5.58740234 C43.05367636 5.50698691 45.85161986 5.56582857 48.6875 5.6875 C49.67556641 5.71005859 50.66363281 5.73261719 51.68164062 5.75585938 C54.12261559 5.81482012 56.56054868 5.89704952 59 6 C59 6.66 59 7.32 59 8 C59.99 7.34 60.98 6.68 62 6 C66.07490752 5.66042437 67.53001271 5.68667514 71 8 C70.93981939 10.41926039 70.85277783 12.83248672 70.75 15.25 C70.73582031 15.93191406 70.72164063 16.61382812 70.70703125 17.31640625 C70.54053876 20.74615152 70.22312439 22.70621956 68.125 25.46875 C65.54971477 27.32447024 64.10674521 27.34519391 61 27 C61 27.66 61 28.32 61 29 C62.98 29 64.96 29 67 29 C67 29.66 67 30.32 67 31 C67.763125 30.95875 68.52625 30.9175 69.3125 30.875 C72 31 72 31 75 33 C75 33.66 75 34.32 75 35 C76.485 35.495 76.485 35.495 78 36 C76.06891037 37.03290841 74.129882 38.05098672 72.1875 39.0625 C71.10855469 39.63097656 70.02960938 40.19945312 68.91796875 40.78515625 C66 42 66 42 63 41 C64.32 40.34 65.64 39.68 67 39 C66.03223902 35.20452079 66.03223902 35.20452079 64 32 C59.96916989 31.67539739 59.96916989 31.67539739 56 32 C53.70986347 35.4352048 53.82157027 36.985331 54 41 C56.31 41.66 58.62 42.32 61 43 C58.09778228 45.90221772 54.5507105 46.45666554 50.6875 47.5 C49.87732422 47.72067139 49.06714844 47.94134277 48.23242188 48.16870117 C41.54271282 49.9435894 34.89600285 51.31322209 28 52 C27.18917969 52.08378906 26.37835938 52.16757813 25.54296875 52.25390625 C12.69417878 52.91445764 -1.31391688 47.9258674 -12 41 C-12.495 39.515 -12.495 39.515 -13 38 C-12.38511719 37.81824219 -11.77023438 37.63648438 -11.13671875 37.44921875 C-10.32847656 37.19785156 -9.52023438 36.94648438 -8.6875 36.6875 C-7.88699219 36.44386719 -7.08648437 36.20023438 -6.26171875 35.94921875 C-3.8715456 34.94608909 -2.59945933 34.02528942 -1 32 C-0.92357291 29.88850355 -0.92357291 29.88850355 -2 28 C-5.27621525 25.6058427 -9.05543885 25.45514167 -13 25 C-11.42770158 21.93815571 -10.54766044 20.27631959 -7.421875 18.69921875 C-4.71771431 17.21485657 -4.71771431 17.21485657 -4.43359375 14.2578125 C-4.43488281 13.22398437 -4.43617187 12.19015625 -4.4375 11.125 C-4.21322869 5.33599672 -4.21322869 5.33599672 -1.9375 1.75 C-1.298125 1.1725 -0.65875 0.595 0 0 Z " fill="#A42B1C" transform="translate(34,169)"/>
<path d="M0 0 C0.4596998 5.74624746 -0.32499296 8.55130726 -4 13 C-10.55913732 19.26099471 -18.35264719 22.3474392 -26.875 25.125 C-27.75792725 25.41721436 -28.64085449 25.70942871 -29.55053711 26.01049805 C-37.43959239 28.57965952 -45.40104401 30.8779433 -53.3710022 33.17889404 C-97.01857497 45.79828252 -141.54073767 60.3560363 -171.4765625 96.41796875 C-171.97929687 96.94003906 -172.48203125 97.46210938 -173 98 C-173.66 98 -174.32 98 -175 98 C-175.12117188 97.41992188 -175.24234375 96.83984375 -175.3671875 96.2421875 C-175.53476563 95.46101563 -175.70234375 94.67984375 -175.875 93.875 C-176.11863281 92.72644531 -176.11863281 92.72644531 -176.3671875 91.5546875 C-177.08860985 88.64227877 -178.02198334 85.83542646 -179 83 C-142.09414569 60.01497127 -142.09414569 60.01497127 -128.56298828 52.99780273 C-123.7323612 50.46460583 -119.12317551 47.64132574 -114.5 44.75 C-27.55598792 -9.18532931 -27.55598792 -9.18532931 0 0 Z " fill="#E4D4D1" transform="translate(300,96)"/>
<path d="M0 0 C1.7109375 1.578125 1.7109375 1.578125 3 3 C3.52207031 2.7834375 4.04414062 2.566875 4.58203125 2.34375 C10.75596899 0.00824991 16.41577926 -0.61139193 23 0 C23.495 0.495 23.495 0.495 24 1 C23.71269945 3.33944736 23.38063221 5.6739143 23 8 C24.8253125 7.9071875 24.8253125 7.9071875 26.6875 7.8125 C30.59926493 7.80557652 32.83681332 8.58109254 36 11 C38 13 38 13 38.125 15.625 C38.08375 16.40875 38.0425 17.1925 38 18 C38.7425 17.649375 39.485 17.29875 40.25 16.9375 C43.15780946 15.94620132 44.23482558 15.76043905 47 17 C49 20 49 20 48.75 22.625 C48.37875 23.800625 48.37875 23.800625 48 25 C45.59454362 26.20272819 44.05003047 26.10071472 41.375 26.0625 C40.14910156 26.04896484 40.14910156 26.04896484 38.8984375 26.03515625 C38.27195312 26.02355469 37.64546875 26.01195312 37 26 C37 25.34 37 24.68 37 24 C36.17757812 24.2165625 35.35515625 24.433125 34.5078125 24.65625 C27.50080236 26.40395692 21.20733102 27.37567169 14 27 C13.01 27 12.02 27 11 27 C10.34 27 9.68 27 9 27 C9.2475 27.556875 9.495 28.11375 9.75 28.6875 C10 31 10 31 8.0625 33.75 C7.381875 34.4925 6.70125 35.235 6 36 C6.33 32.04 6.66 28.08 7 24 C5.68 24 4.36 24 3 24 C2.505 25.485 2.505 25.485 2 27 C-1.5625 28.1875 -1.5625 28.1875 -5 29 C-5 29.66 -5 30.32 -5 31 C-10.28 31.99 -15.56 32.98 -21 34 C-22.32 31.03 -23.64 28.06 -25 25 C-26.32 25 -27.64 25 -29 25 C-30.9451 27.91765 -31.45276317 29.62537285 -32 33 C-32.33 32.34 -32.66 31.68 -33 31 C-33.66 31 -34.32 31 -35 31 C-35.3125 28.8125 -35.3125 28.8125 -35 26 C-32.8125 23.1875 -32.8125 23.1875 -30 21 C-27.1875 20.6875 -27.1875 20.6875 -25 21 C-25.33 20.319375 -25.66 19.63875 -26 18.9375 C-27.21058915 15.38139438 -27.41476049 12.73284441 -27 9 C-25.3125 7 -25.3125 7 -23 6 C-19.26742756 6 -18.03667188 6.9682177 -15.1875 9.4375 C-13 12 -13 12 -13 14 C-11.35 14 -9.7 14 -8 14 C-8 13.34 -8 12.68 -8 12 C-8.99 11.67 -9.98 11.34 -11 11 C-13.028972 6.63771021 -13.10558038 3.64343758 -12 -1 C-7.47446826 -2.37137326 -4.38955058 -1.62575948 0 0 Z M6 15 C5.67 15.66 5.34 16.32 5 17 C5.99 17.33 6.98 17.66 8 18 C8 17.01 8 16.02 8 15 C7.34 15 6.68 15 6 15 Z " fill="#451C15" transform="translate(62,146)"/>
<path d="M0 0 C0.28875 0.598125 0.5775 1.19625 0.875 1.8125 C2.04742026 4.19327792 2.04742026 4.19327792 4 7 C7.58357241 7.25015873 7.58357241 7.25015873 11 7 C11 7.66 11 8.32 11 9 C11.99 9.33 12.98 9.66 14 10 C13.175 10.66 12.35 11.32 11.5 12 C8.81229679 15.22384874 8.81229679 15.22384874 8.4375 19.0625 C8.73752945 22.90112258 8.73752945 22.90112258 10.4375 25.5 C14.26689097 27.74159471 17.67214716 27.76373874 22 27 C26.27403857 24.77561281 26.27403857 24.77561281 29 21 C29.66 21 30.32 21 31 21 C32.0209375 22.5159375 32.0209375 22.5159375 33.0625 24.0625 C34.69499199 26.08871064 35.45341414 26.90612075 38.046875 27.3515625 C43.77209679 26.93697747 48.71788815 24.8364622 53 21 C56.64077913 16.19482754 56.0924922 12.51785982 55.6171875 6.7421875 C55.74351563 5.83726562 55.86984375 4.93234375 56 4 C58.5078125 2.1328125 58.5078125 2.1328125 61 1 C61.2475 1.9075 61.495 2.815 61.75 3.75 C63.08273863 7.21512044 64.04804619 8.78603464 67 11 C70.14481791 11.80315654 70.14481791 11.80315654 73 12 C73 12.66 73 13.32 73 14 C74.1446875 13.938125 74.1446875 13.938125 75.3125 13.875 C78 14 78 14 81 16 C81 16.66 81 17.32 81 18 C82.485 18.495 82.485 18.495 84 19 C82.06891037 20.03290841 80.129882 21.05098672 78.1875 22.0625 C76.56908203 22.91521484 76.56908203 22.91521484 74.91796875 23.78515625 C72 25 72 25 69 24 C70.32 23.34 71.64 22.68 73 22 C72.03223902 18.20452079 72.03223902 18.20452079 70 15 C65.96916989 14.67539739 65.96916989 14.67539739 62 15 C59.70986347 18.4352048 59.82157027 19.985331 60 24 C62.31 24.66 64.62 25.32 67 26 C64.09778228 28.90221772 60.5507105 29.45666554 56.6875 30.5 C55.87732422 30.72067139 55.06714844 30.94134277 54.23242188 31.16870117 C47.54271282 32.9435894 40.89600285 34.31322209 34 35 C33.18917969 35.08378906 32.37835938 35.16757813 31.54296875 35.25390625 C18.69417878 35.91445764 4.68608312 30.9258674 -6 24 C-6.33 23.01 -6.66 22.02 -7 21 C-6.38511719 20.81824219 -5.77023438 20.63648438 -5.13671875 20.44921875 C-4.32847656 20.19785156 -3.52023438 19.94648438 -2.6875 19.6875 C-1.48673828 19.32205078 -1.48673828 19.32205078 -0.26171875 18.94921875 C2.1284544 17.94608909 3.40054067 17.02528942 5 15 C5.07642709 12.88850355 5.07642709 12.88850355 4 11 C0.72378475 8.6058427 -3.05543885 8.45514167 -7 8 C-5.08864614 4.46399535 -3.37357234 2.21027154 0 0 Z " fill="#B9AAA9" transform="translate(28,186)"/>
<path d="M0 0 C-0.33 2.31 -0.66 4.62 -1 7 C0.8253125 6.9071875 0.8253125 6.9071875 2.6875 6.8125 C6.59926493 6.80557652 8.83681332 7.58109254 12 10 C14 12 14 12 14.125 14.625 C14.08375 15.40875 14.0425 16.1925 14 17 C14.7425 16.649375 15.485 16.29875 16.25 15.9375 C19.15780946 14.94620132 20.23482558 14.76043905 23 16 C25 19 25 19 24.75 21.625 C24.5025 22.40875 24.255 23.1925 24 24 C21.59454362 25.20272819 20.05003047 25.10071472 17.375 25.0625 C16.14910156 25.04896484 16.14910156 25.04896484 14.8984375 25.03515625 C14.27195313 25.02355469 13.64546875 25.01195312 13 25 C13 24.34 13 23.68 13 23 C12.17757812 23.2165625 11.35515625 23.433125 10.5078125 23.65625 C3.50080236 25.40395692 -2.79266898 26.37567169 -10 26 C-10.99 26 -11.98 26 -13 26 C-13.66 26 -14.32 26 -15 26 C-14.62875 26.8353125 -14.62875 26.8353125 -14.25 27.6875 C-14 30 -14 30 -15.9375 32.75 C-16.618125 33.4925 -17.29875 34.235 -18 35 C-17.67 31.04 -17.34 27.08 -17 23 C-18.32 23 -19.64 23 -21 23 C-21.33 23.99 -21.66 24.98 -22 26 C-22.66 25.67 -23.32 25.34 -24 25 C-23.01 23.02 -22.02 21.04 -21 19 C-19.35 19.33 -17.7 19.66 -16 20 C-15.71125 19.21625 -15.4225 18.4325 -15.125 17.625 C-14 15 -14 15 -12 13 C-13.98 12.34 -15.96 11.68 -18 11 C-18 9.02 -18 7.04 -18 5 C-6.44186047 0 -6.44186047 0 0 0 Z " fill="#551E16" transform="translate(86,147)"/>
<path d="M0 0 C0.66 0 1.32 0 2 0 C2 0.66 2 1.32 2 2 C2.99 1.34 3.98 0.68 5 0 C9.07490752 -0.33957563 10.53001271 -0.31332486 14 2 C13.93981939 4.41926039 13.85277783 6.83248672 13.75 9.25 C13.73582031 9.93191406 13.72164062 10.61382812 13.70703125 11.31640625 C13.5415419 14.72548681 13.24227568 16.68560032 11.13671875 19.41796875 C8.29352216 21.52307774 6.54664116 22.07238043 3 22 C0.1474715 19.78136672 -1.60560794 18.12250048 -2.8125 14.6875 C-2.874375 14.130625 -2.93625 13.57375 -3 13 C-4.98 13.99 -4.98 13.99 -7 15 C-6.67 15.99 -6.34 16.98 -6 18 C-5.58889124 22.22177069 -5.52456317 25.87396541 -7.1875 29.8125 C-11.54006411 35.06559461 -16.38823995 37.58917236 -23 39 C-26.0625 38.6875 -26.0625 38.6875 -28 38 C-28 37.01 -28 36.02 -28 35 C-27.35933594 34.85304687 -26.71867187 34.70609375 -26.05859375 34.5546875 C-18.4129434 32.57205984 -13.41424947 29.62137421 -9 23 C-8.61500109 21.34450469 -8.27206865 19.6777567 -8 18 C-9.60875 18.0928125 -9.60875 18.0928125 -11.25 18.1875 C-15 18 -15 18 -17.4375 16.875 C-19 15 -19 15 -19.6875 12.3125 C-18.65595186 7.34231351 -15.9123213 4.16749059 -12 1 C-8.6875 0.375 -8.6875 0.375 -6 1 C-5.34 1.66 -4.68 2.32 -4 3 C-1.93125966 3.6425235 -1.93125966 3.6425235 0 4 C0 2.68 0 1.36 0 0 Z " fill="#8F1C0F" transform="translate(91,175)"/>
<path d="M0 0 C6.27 0 12.54 0 19 0 C19.495 0.99 19.495 0.99 20 2 C19.67 2.66 19.34 3.32 19 4 C14.91621717 3.25749403 10.98060777 2.17076699 7 1 C6.7525 1.5775 6.505 2.155 6.25 2.75 C5 5 5 5 2.875 6.875 C0.71753151 8.92658677 0.71753151 8.92658677 0.5625 12.125 C0.706875 13.07375 0.85125 14.0225 1 15 C4.44450737 17.29633824 6.93812283 17.54016485 11 18 C11.3174837 21.15255743 11.22777776 22.64383842 9.49609375 25.3515625 C4.52817919 30.83795012 0.75882878 34.69624497 -6.9375 35.1875 C-7.9584375 35.0946875 -7.9584375 35.0946875 -9 35 C-9.33 35.66 -9.66 36.32 -10 37 C-13.93846154 32.69230769 -13.93846154 32.69230769 -14.25 29.1875 C-14.1675 28.465625 -14.085 27.74375 -14 27 C-14.66 27 -15.32 27 -16 27 C-16.33 25.68 -16.66 24.36 -17 23 C-14.69 22.34 -12.38 21.68 -10 21 C-9.90203125 20.32453125 -9.8040625 19.6490625 -9.703125 18.953125 C-8.80866959 13.61723581 -8.22628314 10.60477091 -4 7 C-2.68 4.69 -1.36 2.38 0 0 Z " fill="#A72E20" transform="translate(72,175)"/>
<path d="M0 0 C0.309375 0.639375 0.61875 1.27875 0.9375 1.9375 C1.87279303 4.26452391 1.87279303 4.26452391 4.625 5.25 C5.40875 5.4975 6.1925 5.745 7 6 C6.67 6.99 6.34 7.98 6 9 C4.68 8.67 3.36 8.34 2 8 C2 7.34 2 6.68 2 6 C-0.64 5.34 -3.28 4.68 -6 4 C-6 3.34 -6 2.68 -6 2 C-7.98 2 -9.96 2 -12 2 C-12 1.67 -12 1.34 -12 1 C-3.62308831 -1.37345831 -3.62308831 -1.37345831 0 0 Z M-10.875 3.6796875 C-9 4 -9 4 -7 5.1875 C-5.64166564 7.64948102 -5.57447748 9.23410362 -6 12 C-6.99 12.66 -7.98 13.32 -9 14 C-5.80369954 13.0106689 -2.94922401 11.97249634 0 10.375 C3.273095 8.87483146 5.44439305 8.74602808 9 9 C1.55649217 20.00344636 -13.66458742 24.98377521 -26 28 C-28.78811483 28.3687045 -31.56678625 28.5513078 -34.375 28.6875 C-35.1187085 28.7280249 -35.86241699 28.7685498 -36.62866211 28.81030273 C-41.86643705 29.05350762 -46.81320509 28.84874826 -52 28 C-52 27.67 -52 27.34 -52 27 C-51.40832031 26.96261719 -50.81664062 26.92523438 -50.20703125 26.88671875 C-49.41683594 26.82097656 -48.62664063 26.75523437 -47.8125 26.6875 C-47.03519531 26.62949219 -46.25789063 26.57148438 -45.45703125 26.51171875 C-42.93652789 26.14039436 -42.93652789 26.14039436 -40.86328125 24.62109375 C-36.61583651 22.21633309 -32.11390165 21.42091562 -27.375 20.375 C-25.48675097 19.94631644 -23.59871998 19.51667097 -21.7109375 19.0859375 C-20.87868652 18.9007959 -20.04643555 18.7156543 -19.18896484 18.52490234 C-16.8434005 17.99574026 -16.8434005 17.99574026 -14 17 C-14.804375 16.690625 -15.60875 16.38125 -16.4375 16.0625 C-19 15 -19 15 -20 14 C-20.28250225 10.82184971 -20.24504509 8.5819821 -19 5.625 C-16.28953649 3.4227484 -14.29104139 3.49130286 -10.875 3.6796875 Z " fill="#3A211D" transform="translate(107,196)"/>
<path d="M0 0 C3.60296594 -0.41176754 4.78402067 -0.1535853 7.8125 2 C8.534375 2.66 9.25625 3.32 10 4 C10.66 3.67 11.32 3.34 12 3 C14.61823849 7.39490033 16.98205161 11.72634974 16.7109375 16.9609375 C15.08923621 21.61219065 11.17566557 24.64330481 7 27 C3.125 26.8125 3.125 26.8125 0 25 C-3.60412789 20.43477134 -4.33321167 15.92286933 -4.30078125 10.171875 C-3.775516 6.37905059 -1.93850487 3.2539189 0 0 Z " fill="#A33326" transform="translate(109,176)"/>
<path d="M0 0 C4.29604679 0.49569771 5.52416138 2.1191372 8.25 5.375 C9.24 6.86 9.24 6.86 10.25 8.375 C10.889375 8.21 11.52875 8.045 12.1875 7.875 C16.22586652 7.21567485 20.16807258 7.29496221 24.25 7.375 C24.72956403 14.56846049 24.72956403 14.56846049 22.875 17.6875 C18.28156934 20.64041971 12.92473183 22.77936306 7.43359375 21.94921875 C6.71300781 21.75972656 5.99242187 21.57023437 5.25 21.375 C4.59 19.065 3.93 16.755 3.25 14.375 C2.26 14.375 1.27 14.375 0.25 14.375 C-0.41 14.375 -1.07 14.375 -1.75 14.375 C-3.50417412 9.87992881 -4.03362108 6.1965583 -3.75 1.375 C-2.75 0.375 -2.75 0.375 0 0 Z " fill="#811A0F" transform="translate(38.75,153.625)"/>
<path d="M0 0 C0.33 0 0.66 0 1 0 C1.33 1.65 1.66 3.3 2 5 C4.64 5 7.28 5 10 5 C10.48539326 12.28089888 10.48539326 12.28089888 8.3125 15.5 C5.62023779 17.24633224 4.14839906 17.34982212 1 17 C1.33 18.32 1.66 19.64 2 21 C2.66 21 3.32 21 4 21 C3.93533622 24.29785299 3.86374708 26.9583468 1.69140625 29.578125 C-2.25869999 32.75280623 -5.85864084 33.80469512 -10.91015625 33.4765625 C-14.57581892 32.64065438 -15.99496797 31.10456572 -18 28 C-18.6846496 24.58339909 -18.84855007 21.34661206 -16.921875 18.2890625 C-13.97119453 16.30994755 -11.26069911 16.58392109 -7.75 16.5 C0.04036389 16.18649483 0.04036389 16.18649483 7 13 C8.05167527 10.42267086 8.05167527 10.42267086 8 8 C6.576875 8.061875 6.576875 8.061875 5.125 8.125 C2 8 2 8 0 6 C-0.125 2.875 -0.125 2.875 0 0 Z " fill="#A52C1E" transform="translate(54,181)"/>
<path d="M0 0 C0.28875 0.598125 0.5775 1.19625 0.875 1.8125 C2.04742026 4.19327792 2.04742026 4.19327792 4 7 C7.58357241 7.25015873 7.58357241 7.25015873 11 7 C11 7.66 11 8.32 11 9 C11.99 9.33 12.98 9.66 14 10 C13.175 10.66 12.35 11.32 11.5 12 C8.88573303 15.13712036 8.25949783 16.79121195 8.4921875 20.86328125 C9.41631206 24.75171304 11.63940833 27.83006261 14 31 C11.73466818 31.76842067 10.41484933 32.12470442 8.09301758 31.42675781 C7.45001709 31.10545898 6.8070166 30.78416016 6.14453125 30.453125 C5.44005859 30.1025 4.73558594 29.751875 4.00976562 29.390625 C3.28466797 29.01421875 2.55957031 28.6378125 1.8125 28.25 C1.07580078 27.8890625 0.33910156 27.528125 -0.41992188 27.15625 C-5.87056455 24.38830634 -5.87056455 24.38830634 -7 21 C-6.38511719 20.81824219 -5.77023438 20.63648438 -5.13671875 20.44921875 C-4.32847656 20.19785156 -3.52023438 19.94648438 -2.6875 19.6875 C-1.48673828 19.32205078 -1.48673828 19.32205078 -0.26171875 18.94921875 C2.1284544 17.94608909 3.40054067 17.02528942 5 15 C5.07642709 12.88850355 5.07642709 12.88850355 4 11 C0.72378475 8.6058427 -3.05543885 8.45514167 -7 8 C-5.08864614 4.46399535 -3.37357234 2.21027154 0 0 Z " fill="#E0CFCD" transform="translate(28,186)"/>
<path d="M0 0 C1.8125 0.5625 1.8125 0.5625 4 2 C7 8 7 8 7 11 C7.99 11.33 8.98 11.66 10 12 C9.34 12 8.68 12 8 12 C7.67 13.65 7.34 15.3 7 17 C6.34 17 5.68 17 5 17 C5.28875 17.54269531 5.5775 18.08539063 5.875 18.64453125 C6.24625 19.35996094 6.6175 20.07539063 7 20.8125 C7.556875 21.87404297 7.556875 21.87404297 8.125 22.95703125 C9 25 9 25 9 28 C8.29875 27.505 7.5975 27.01 6.875 26.5 C4.07850006 24.74822492 4.07850006 24.74822492 0.875 25.0625 C-2 25 -2 25 -3.68359375 23.4921875 C-5.5278264 20.00073222 -5.23334306 16.88061567 -4.9375 13.0625 C-4.89592773 12.00772461 -4.89592773 12.00772461 -4.85351562 10.93164062 C-4.53118805 6.0876474 -3.37087101 3.46582512 0 0 Z " fill="#4C1E17" transform="translate(34,169)"/>
<path d="M0 0 C3.125 0.1875 3.125 0.1875 6.125 2.1875 C6.06481939 4.60676039 5.97777783 7.01998672 5.875 9.4375 C5.85373047 10.46037109 5.85373047 10.46037109 5.83203125 11.50390625 C5.66487331 14.94735975 5.34588982 16.89769621 3.234375 19.66796875 C1.125 21.1875 1.125 21.1875 -1.375 21.25 C-4.79624801 19.7959696 -6.02031611 18.41602381 -7.875 15.1875 C-8.51628313 10.13739533 -8.44902103 8.2059244 -5.9375 3.75 C-3.08093173 0.20093033 -3.08093173 0.20093033 0 0 Z " fill="#A42A1C" transform="translate(98.875,174.8125)"/>
<path d="M0 0 C2.4375 2.375 2.4375 2.375 4 5 C4 5.66 4 6.32 4 7 C-4.19687747 11.08285532 -11.75981949 14 -21 14 C-21.390625 8.04296875 -21.390625 8.04296875 -21 6 C-15.91405024 1.08782985 -6.83544202 -1.09367072 0 0 Z " fill="#A62A1C" transform="translate(93,156)"/>
<path d="M0 0 C2.475 1.485 2.475 1.485 5 3 C4.52846905 5.42501634 4.05397926 7.81107261 3.375 10.1875 C2.78653641 12.08903493 2.78653641 12.08903493 4 14 C3.401875 14.020625 2.80375 14.04125 2.1875 14.0625 C-0.28638677 14.87936088 -0.28638677 14.87936088 -1.75 17.75 C-3.87425827 23.22714158 -3.23416369 29.23263512 -3 35 C-3.99 34.67 -4.98 34.34 -6 34 C-6.99 34.495 -6.99 34.495 -8 35 C-9.99960012 35.039992 -12.00047242 35.04346799 -14 35 C-14 34.67 -14 34.34 -14 34 C-13.05125 33.71125 -12.1025 33.4225 -11.125 33.125 C-7.94788422 32.23174891 -7.94788422 32.23174891 -6 30 C-5.69400937 27.43083343 -5.48912913 24.95241616 -5.375 22.375 C-5.33632812 21.66859375 -5.29765625 20.9621875 -5.2578125 20.234375 C-5.16352276 18.49001476 -5.08067109 16.74504309 -5 15 C-7.7459726 13.6270137 -9.9589047 13.87587366 -13 14 C-13.99 14.33 -14.98 14.66 -16 15 C-16 14.34 -16 13.68 -16 13 C-23.26 13 -30.52 13 -38 13 C-38 12.34 -38 11.68 -38 11 C-37.34 11 -36.68 11 -36 11 C-35.67 10.34 -35.34 9.68 -35 9 C-34.34 9.33 -33.68 9.66 -33 10 C-26.6582418 10.50686915 -21.07426803 9.79978312 -15 8 C-15 8.66 -15 9.32 -15 10 C-14.01 10 -13.02 10 -12 10 C-12 9.34 -12 8.68 -12 8 C-11.34 8 -10.68 8 -10 8 C-10 8.66 -10 9.32 -10 10 C-8.54119891 9.85892253 -7.08296449 9.71197585 -5.625 9.5625 C-4.81289062 9.48128906 -4.00078125 9.40007812 -3.1640625 9.31640625 C-0.95727195 9.10909886 -0.95727195 9.10909886 1 8 C1 6.02 1 4.04 1 2 C0.34 1.67 -0.32 1.34 -1 1 C-0.67 0.67 -0.34 0.34 0 0 Z " fill="#3B1C16" transform="translate(109,162)"/>
<path d="M0 0 C0.2475 0.9075 0.495 1.815 0.75 2.75 C2.08273863 6.21512044 3.04804619 7.78603464 6 10 C9.14481791 10.80315654 9.14481791 10.80315654 12 11 C12 11.66 12 12.32 12 13 C13.1446875 12.938125 13.1446875 12.938125 14.3125 12.875 C17 13 17 13 20 15 C20 15.66 20 16.32 20 17 C20.99 17.33 21.98 17.66 23 18 C21.06891037 19.03290841 19.129882 20.05098672 17.1875 21.0625 C16.10855469 21.63097656 15.02960938 22.19945312 13.91796875 22.78515625 C11 24 11 24 8 23 C9.32 22.34 10.64 21.68 12 21 C11.03223902 17.20452079 11.03223902 17.20452079 9 14 C4.96916989 13.67539739 4.96916989 13.67539739 1 14 C-0.9451 16.91765 -1.45276317 18.62537285 -2 22 C-2.33 22 -2.66 22 -3 22 C-3 20.35 -3 18.7 -3 17 C-3.66 17 -4.32 17 -5 17 C-5.10794277 14.73020335 -5.18556176 12.45894804 -5.25 10.1875 C-5.29640625 8.92292969 -5.3428125 7.65835938 -5.390625 6.35546875 C-5 3 -5 3 -3.046875 1.05078125 C-1 0 -1 0 0 0 Z " fill="#B4A1A0" transform="translate(89,187)"/>
<path d="M0 0 C0.66 0.33 1.32 0.66 2 1 C-5.2104107 8.71113366 -13.33957749 12.31528317 -23 16 C-23.8765625 16.35191406 -24.753125 16.70382813 -25.65625 17.06640625 C-35.92786078 20.7071998 -48.34651341 20.74329781 -59 19 C-59 18.67 -59 18.34 -59 18 C-58.04222656 17.90203125 -57.08445313 17.8040625 -56.09765625 17.703125 C-37.44785877 15.66963584 -19.3315295 11.4593413 -3.0703125 1.6875 C-2.05710938 1.130625 -1.04390625 0.57375 0 0 Z " fill="#8A8180" transform="translate(114,205)"/>
<path d="M0 0 C0.495 1.485 0.495 1.485 1 3 C-1.9137136 7.82485908 -5.89029503 10.00398816 -10.75 12.5 C-11.50732422 12.8916333 -12.26464844 13.2832666 -13.04492188 13.68676758 C-20.45946848 17.40561646 -27.97753953 19.94091245 -36 22 C-37.00321289 22.25942383 -38.00642578 22.51884766 -39.04003906 22.78613281 C-42.39783761 23.64464397 -45.75978326 24.4835608 -49.125 25.3125 C-50.74438477 25.71311646 -50.74438477 25.71311646 -52.39648438 26.12182617 C-53.42322266 26.36650635 -54.44996094 26.61118652 -55.5078125 26.86328125 C-56.42191895 27.08282471 -57.33602539 27.30236816 -58.27783203 27.52856445 C-61.23208656 28.04019365 -64.00754791 28.08002238 -67 28 C-63.49224535 25.6614969 -60.00527981 24.74114346 -55.9921875 23.64453125 C-54.3475812 23.18190734 -52.70305266 22.71900693 -51.05859375 22.25585938 C-48.49114556 21.53923258 -45.92292884 20.82570015 -43.35302734 20.11791992 C-34.30725579 17.61817445 -25.40208648 14.97354386 -16.6953125 11.44921875 C-16.01991425 11.17987015 -15.34451599 10.91052155 -14.64865112 10.63301086 C-8.87890849 8.20702125 -3.54000931 5.31001397 0 0 Z " fill="#89807F" transform="translate(300,109)"/>
<path d="M0 0 C0.625 1.8359375 0.625 1.8359375 1 4 C-2.41132704 8.47736674 -5.5239734 10.01251979 -11 11 C-14.34208237 11.14751962 -17.65745264 11.10518506 -21 11 C-21.99 11 -22.98 11 -24 11 C-24.66 11 -25.32 11 -26 11 C-25.7525 11.556875 -25.505 12.11375 -25.25 12.6875 C-25 15 -25 15 -26.9375 17.75 C-27.618125 18.4925 -28.29875 19.235 -29 20 C-28.67 16.04 -28.34 12.08 -28 8 C-29.32 8 -30.64 8 -32 8 C-32.33 8.99 -32.66 9.98 -33 11 C-33.66 10.67 -34.32 10.34 -35 10 C-34.01 8.02 -33.02 6.04 -32 4 C-30.35 4.33 -28.7 4.66 -27 5 C-26.34 3.68 -25.68 2.36 -25 1 C-25 3.31 -25 5.62 -25 8 C-16.02795685 6.38896159 -8.11523674 4.19011203 0 0 Z " fill="#8F1A0E" transform="translate(97,162)"/>
<path d="M0 0 C2.6875 0.625 2.6875 0.625 4.6875 2.625 C5.23840376 7.42573273 5.39023285 9.53689752 2.75 13.625 C-1.29406962 16.26602506 -4.59447181 16.30735945 -9.3125 15.625 C-10.3125 14.625 -10.3125 14.625 -10.8125 12.0625 C-9.94687414 6.11132221 -6.01132974 1.13421316 0 0 Z " fill="#932F22" transform="translate(82.3125,175.375)"/>
<path d="M0 0 C0.49079755 7.36196319 0.49079755 7.36196319 -1.875 10.4375 C-5.43179954 13.05279378 -7.58780627 13.26473162 -12 13 C-14.375 12 -14.375 12 -16 11 C-15.33333333 7.66666667 -14.66666667 4.33333333 -14 1 C-9.32798795 -0.20568053 -4.78503708 -0.09382426 0 0 Z " fill="#A82A1C" transform="translate(63,161)"/>
<path d="M0 0 C-0.49360614 6.4168798 -0.49360614 6.4168798 -3.0625 9.375 C-3.701875 9.91125 -4.34125 10.4475 -5 11 C-5 11.33 -5 11.66 -5 12 C-9.94367454 13.20577428 -13.20862412 12.6290678 -18 11 C-18 9.02 -18 7.04 -18 5 C-6.44186047 0 -6.44186047 0 0 0 Z " fill="#511C14" transform="translate(86,147)"/>
<path d="M0 0 C4.07674421 -0.31974464 6.32029296 -0.43803342 9.8125 1.8125 C12 4 12 4 14 7 C13.45945946 11.54054054 13.45945946 11.54054054 12 13 C6.4159491 13.66476796 3.55959929 11.91814355 -1 9 C-0.67 6.03 -0.34 3.06 0 0 Z " fill="#A72A1C" transform="translate(52,147)"/>
<path d="M0 0 C1.875 0.3203125 1.875 0.3203125 3.875 1.5078125 C5.26807149 4.03275458 5.36063105 5.47590208 4.875 8.3203125 C3.375 10.6328125 3.375 10.6328125 0.875 12.3203125 C-1.9775645 12.77694832 -4.19147698 12.60420182 -7.125 12.3203125 C-9.125 10.3203125 -9.125 10.3203125 -9.4375 7.4453125 C-9.125 4.3203125 -9.125 4.3203125 -8.125 1.9453125 C-5.41453649 -0.2569391 -3.41604139 -0.18838464 0 0 Z " fill="#5F312B" transform="translate(96.125,199.6796875)"/>
<path d="M0 0 C6.27 0 12.54 0 19 0 C19.33 0.66 19.66 1.32 20 2 C19.67 2.66 19.34 3.32 19 4 C14.91621717 3.25749403 10.98060777 2.17076699 7 1 C6.7525 1.5775 6.505 2.155 6.25 2.75 C5 5 5 5 2.9375 6.875 C0.5209638 9.52539454 0.31939776 11.48662462 0 15 C-2.31 15.66 -4.62 16.32 -7 17 C-7.75 14.25 -7.75 14.25 -8 11 C-6.3125 9.0625 -6.3125 9.0625 -4 7 C-2.68 4.69 -1.36 2.38 0 0 Z " fill="#D8C7C5" transform="translate(72,175)"/>
<path d="M0 0 C3.875 1.875 3.875 1.875 5 3 C5.07226502 4.85287502 5.0838122 6.70833878 5.0625 8.5625 C5.05347656 9.57441406 5.04445313 10.58632812 5.03515625 11.62890625 C5.02355469 12.41136719 5.01195312 13.19382813 5 14 C4.34 14 3.68 14 3 14 C2.01 15.485 2.01 15.485 1 17 C-1.5 15.5 -1.5 15.5 -4 13 C-4.70476018 8.06667872 -4.77041398 6.15562097 -2 2 C-1.34 1.34 -0.68 0.68 0 0 Z " fill="#A62B1D" transform="translate(34,169)"/>
<path d="M0 0 C0.680625 -0.00515625 1.36125 -0.0103125 2.0625 -0.015625 C4 0.25 4 0.25 7 2.25 C6.64393309 4.83148508 6.16671807 6.07045747 4.375 8 C1.11092949 9.71793185 -1.36769692 9.58632436 -5 9.25 C-7 7.25 -7 7.25 -7.3125 4.75 C-7.209375 3.925 -7.10625 3.1 -7 2.25 C-4.00261059 0.25174039 -3.36652492 -0.02550398 0 0 Z " fill="#BE3D2E" transform="translate(25,195.75)"/>
<path d="M0 0 C0.33 0 0.66 0 1 0 C1.33 1.65 1.66 3.3 2 5 C4.64 5 7.28 5 10 5 C10.48539326 12.28089888 10.48539326 12.28089888 8.3125 15.5 C5.62023779 17.24633224 4.14839906 17.34982212 1 17 C1.33 18.32 1.66 19.64 2 21 C2.66 21 3.32 21 4 21 C3.67 23.31 3.34 25.62 3 28 C2.67 28 2.34 28 2 28 C1.5359375 26.2984375 1.5359375 26.2984375 1.0625 24.5625 C0.37075469 21.21224901 0.37075469 21.21224901 -1 20 C-3.18292774 19.76518307 -5.37203174 19.58636677 -7.5625 19.4375 C-8.76003906 19.35371094 -9.95757812 19.26992187 -11.19140625 19.18359375 C-12.58166016 19.09271484 -12.58166016 19.09271484 -14 19 C-13.67 18.34 -13.34 17.68 -13 17 C-10.3046875 16.69140625 -10.3046875 16.69140625 -6.875 16.5625 C-1.53747689 16.21644081 2.45946425 15.88943184 7 13 C8.05167527 10.42267086 8.05167527 10.42267086 8 8 C6.576875 8.061875 6.576875 8.061875 5.125 8.125 C2 8 2 8 0 6 C-0.125 2.875 -0.125 2.875 0 0 Z " fill="#53211A" transform="translate(54,181)"/>
<path d="M0 0 C0.66 0 1.32 0 2 0 C2.33 0.99 2.66 1.98 3 3 C2.690625 3.556875 2.38125 4.11375 2.0625 4.6875 C0.49962469 8.08905216 0.40039671 11.36054747 1 15 C2.1179731 17.30399674 3.38482744 18.9810343 5 21 C2 21 2 21 -0.125 19.25 C-1.96645436 17.04025476 -2.60012981 15.79909134 -3 13 C-4.98 13.99 -4.98 13.99 -7 15 C-7 15.99 -7 16.98 -7 18 C-9.64 18 -12.28 18 -15 18 C-15.33 17.34 -15.66 16.68 -16 16 C-14.9275 15.87625 -13.855 15.7525 -12.75 15.625 C-8.57867696 14.95152768 -8.57867696 14.95152768 -5 13 C-4.3006486 10.81458448 -4.3006486 10.81458448 -4.25 8.375 C-4.19328125 7.55773437 -4.1365625 6.74046875 -4.078125 5.8984375 C-4.05234375 5.27195313 -4.0265625 4.64546875 -4 4 C-2.68 4 -1.36 4 0 4 C0 2.68 0 1.36 0 0 Z " fill="#5A221A" transform="translate(91,175)"/>
<path d="M0 0 C-1.74949682 4.27056661 -3.90850221 5.36216132 -7.95703125 7.25 C-10.40006301 8.14686826 -12.4198847 8.32251441 -15 8 C-15.33 8.66 -15.66 9.32 -16 10 C-16.99 8.68 -17.98 7.36 -19 6 C-18.34 6 -17.68 6 -17 6 C-16.67 5.01 -16.34 4.02 -16 3 C-10.89083483 0.33577868 -5.67193509 -0.36203841 0 0 Z " fill="#C13B2C" transform="translate(78,202)"/>
<path d="M0 0 C0 0.66 0 1.32 0 2 C2.64 1.67 5.28 1.34 8 1 C8 1.99 8 2.98 8 4 C4.08709763 5.75380558 0.4257665 6.52564918 -3.8125 7.125 C-4.97394531 7.29257813 -6.13539062 7.46015625 -7.33203125 7.6328125 C-8.65267578 7.81457031 -8.65267578 7.81457031 -10 8 C-10 7.01 -10 6.02 -10 5 C-9.34 5 -8.68 5 -8 5 C-8 3.68 -8 2.36 -8 1 C-5.29120665 -0.35439668 -2.99066732 -0.06501451 0 0 Z " fill="#C03A2B" transform="translate(83,162)"/>
<path d="M0 0 C1.65 0 3.3 0 5 0 C5 3.60777515 4.0095568 5.06295544 2 8 C1.01 8.495 1.01 8.495 0 9 C0 13.95 0 18.9 0 24 C-2 23 -2 23 -3.125 19.9375 C-5.12866722 12.01978274 -4.10349962 6.88801722 0 0 Z " fill="#901C0F" transform="translate(109,176)"/>
<path d="M0 0 C6.625 0.75 6.625 0.75 10 3 C10 3.66 10 4.32 10 5 C10.99 5.33 11.98 5.66 13 6 C11.06891037 7.03290841 9.129882 8.05098672 7.1875 9.0625 C6.10855469 9.63097656 5.02960938 10.19945312 3.91796875 10.78515625 C1 12 1 12 -2 11 C-0.68 10.34 0.64 9.68 2 9 C1.34 6.03 0.68 3.06 0 0 Z " fill="#B7A6A4" transform="translate(99,199)"/>
<path d="M0 0 C0.66 0 1.32 0 2 0 C1.34 5.94 0.68 11.88 0 18 C-1.65 17.67 -3.3 17.34 -5 17 C-5 13.37 -5 9.74 -5 6 C-4.01 5.67 -3.02 5.34 -2 5 C-0.78130071 2.49552484 -0.78130071 2.49552484 0 0 Z " fill="#C23C2D" transform="translate(113,179)"/>
<path d="M0 0 C0.33 0 0.66 0 1 0 C1.3125 3.3125 1.3125 3.3125 1 7 C-1.90966459 9.81873757 -4.41255374 10.15979168 -8.3125 10.1875 C-10.1378125 10.0946875 -10.1378125 10.0946875 -12 10 C-12.66 8.68 -13.32 7.36 -14 6 C-13.39671875 5.86722656 -12.7934375 5.73445312 -12.171875 5.59765625 C-11.37265625 5.42105469 -10.5734375 5.24445313 -9.75 5.0625 C-8.96109375 4.88847656 -8.1721875 4.71445313 -7.359375 4.53515625 C-6.58078125 4.35855469 -5.8021875 4.18195313 -5 4 C-3.89398438 3.81244141 -3.89398438 3.81244141 -2.765625 3.62109375 C-2.18296875 3.41613281 -1.6003125 3.21117187 -1 3 C-0.67 2.01 -0.34 1.02 0 0 Z " fill="#942316" transform="translate(55,203)"/>
<path d="M0 0 C-0.25 1.875 -0.25 1.875 -1 4 C-4.11129938 6.03648687 -6.58403732 6.2214727 -10.25 6.125 C-11.14203125 6.10695312 -12.0340625 6.08890625 -12.953125 6.0703125 C-13.96632813 6.03550781 -13.96632813 6.03550781 -15 6 C-14.66015625 4.078125 -14.66015625 4.078125 -14 2 C-9.32069904 -0.28258584 -5.08174565 -0.17523261 0 0 Z " fill="#A52A1C" transform="translate(83,149)"/>
<path d="M0 0 C1.670625 0.061875 1.670625 0.061875 3.375 0.125 C3.705 1.775 4.035 3.425 4.375 5.125 C1.82431155 7.47948165 0.66482642 8.10827924 -2.875 8.3125 C-3.7825 8.250625 -4.69 8.18875 -5.625 8.125 C-5.75 5.25 -5.75 5.25 -5.625 2.125 C-3.625 0.125 -3.625 0.125 0 0 Z " fill="#BE3D2E" transform="translate(94.625,201.875)"/>
<path d="M0 0 C6.875 0.875 6.875 0.875 8 2 C8.29978682 4.84797478 8.40071289 6.41896632 6.75 8.8125 C5 10 5 10 1 10 C-0.60725635 6.78548731 -0.05748185 3.56387464 0 0 Z " fill="#A42A1C" transform="translate(38,155)"/>
<path d="M0 0 C1.5625 1.1875 1.5625 1.1875 3 3 C2.57894737 7.42105263 2.57894737 7.42105263 1 9 C-4.5840509 9.66476796 -7.44040071 7.91814355 -12 5 C-12 4.67 -12 4.34 -12 4 C-8.04 3.34 -4.08 2.68 0 2 C0 1.34 0 0.68 0 0 Z " fill="#8D1A0D" transform="translate(63,151)"/>
<path d="M0 0 C0.66 0.33 1.32 0.66 2 1 C-6.25 9.25 -14.5 17.5 -23 26 C-23 22.48401315 -22.56814673 22.16359981 -20.25390625 19.70703125 C-19.66754395 19.07998291 -19.08118164 18.45293457 -18.47705078 17.80688477 C-17.84524902 17.14873779 -17.21344727 16.49059082 -16.5625 15.8125 C-15.92812012 15.14210693 -15.29374023 14.47171387 -14.64013672 13.78100586 C-9.98553281 8.90860473 -5.1934569 4.30040214 0 0 Z " fill="#877E7C" transform="translate(151,174)"/>
<path d="M0 0 C0.33 0 0.66 0 1 0 C1.33 3.3 1.66 6.6 2 10 C1.34 10 0.68 10 0 10 C0.2475 10.556875 0.495 11.11375 0.75 11.6875 C1 14 1 14 -0.9375 16.75 C-1.618125 17.4925 -2.29875 18.235 -3 19 C-2.67 15.04 -2.34 11.08 -2 7 C-3.32 7 -4.64 7 -6 7 C-6.33 7.99 -6.66 8.98 -7 10 C-7.66 9.67 -8.32 9.34 -9 9 C-8.01 7.02 -7.02 5.04 -6 3 C-4.35 3.33 -2.7 3.66 -1 4 C-0.67 2.68 -0.34 1.36 0 0 Z " fill="#662820" transform="translate(71,163)"/>
<path d="M0 0 C-0.375 2.4375 -0.375 2.4375 -1 5 C-4.21451269 6.60725635 -7.43612536 6.05748185 -11 6 C-10.8125 4.1875 -10.8125 4.1875 -10 2 C-6.42504907 -0.87982158 -4.37380275 -1.37462372 0 0 Z " fill="#B43A2C" transform="translate(111,166)"/>
<path d="M0 0 C0.86625 0.4640625 0.86625 0.4640625 1.75 0.9375 C3.84294184 1.92583364 5.74535275 2.5168613 8 3 C8 4.32 8 5.64 8 7 C8.66 7 9.32 7 10 7 C9.67 7.99 9.34 8.98 9 10 C8.67 9.67 8.34 9.34 8 9 C6.576875 9.0928125 6.576875 9.0928125 5.125 9.1875 C2 9 2 9 0.0625 7.3125 C-1.25960381 4.43497994 -0.90991047 2.97788882 0 0 Z " fill="#673A34" transform="translate(30,185)"/>
<path d="M0 0 C0.28875 0.598125 0.5775 1.19625 0.875 1.8125 C2.04742026 4.19327792 2.04742026 4.19327792 4 7 C6.56282742 7.72965366 6.56282742 7.72965366 9 8 C9 8.33 9 8.66 9 9 C3.15659442 10.24327778 -1.26696495 9.57300962 -7 8 C-5.08864614 4.46399535 -3.37357234 2.21027154 0 0 Z " fill="#D0BFBD" transform="translate(28,186)"/>
<path d="M0 0 C0.226875 0.556875 0.45375 1.11375 0.6875 1.6875 C2.92538376 5.63043806 5.38810145 8.53434042 9.8125 9.8125 C10.8953125 9.9053125 10.8953125 9.9053125 12 10 C11.01 11.32 10.02 12.64 9 14 C5.67042093 13.72253508 4.21195277 13.18903896 1.6875 10.9375 C-0.58644396 6.9791531 -0.30595085 4.51277506 0 0 Z " fill="#901B0F" transform="translate(91,182)"/>
<path d="M0 0 C0.33 0 0.66 0 1 0 C1.57007576 9.69128788 1.57007576 9.69128788 -2 14 C-4.75468994 16.47215764 -7.48593171 18.75307254 -11 20 C-12.34353414 19.71050922 -13.67965718 19.38155437 -15 19 C-14.31292969 18.61328125 -13.62585938 18.2265625 -12.91796875 17.828125 C-12.01691406 17.30734375 -11.11585937 16.7865625 -10.1875 16.25 C-9.29417969 15.73953125 -8.40085937 15.2290625 -7.48046875 14.703125 C-3.33168299 11.85450989 -1.74870307 9.1470622 -0.8125 4.25 C-0.57466797 3.05117187 -0.57466797 3.05117187 -0.33203125 1.828125 C-0.22246094 1.22484375 -0.11289063 0.6215625 0 0 Z " fill="#5E271F" transform="translate(84,193)"/>
<path d="M0 0 C0.309375 0.639375 0.61875 1.27875 0.9375 1.9375 C1.87279303 4.26452391 1.87279303 4.26452391 4.625 5.25 C5.40875 5.4975 6.1925 5.745 7 6 C7 6.66 7 7.32 7 8 C5.35 8 3.7 8 2 8 C2 7.34 2 6.68 2 6 C-0.64 5.34 -3.28 4.68 -6 4 C-6 3.34 -6 2.68 -6 2 C-7.98 2 -9.96 2 -12 2 C-12 1.67 -12 1.34 -12 1 C-3.62308831 -1.37345831 -3.62308831 -1.37345831 0 0 Z " fill="#62231B" transform="translate(107,196)"/>
<path d="M0 0 C-0.75 2.375 -0.75 2.375 -2 5 C-3.32520503 5.68268138 -4.65812182 6.3507041 -6 7 C-6.36162029 8.32594105 -6.69728039 9.65938457 -7 11 C-7.99 11.33 -8.98 11.66 -10 12 C-10.50675332 9.21285675 -10.32573728 7.51521844 -8.8046875 5.109375 C-4.6714939 0 -4.6714939 0 0 0 Z " fill="#BD392A" transform="translate(69,170)"/>
<path d="M0 0 C0.99 0.33 1.98 0.66 3 1 C2.67257813 1.84820312 2.34515625 2.69640625 2.0078125 3.5703125 C0.94067172 7.20190011 0.79802782 10.10336301 0.875 13.875 C0.90207031 15.60363281 0.90207031 15.60363281 0.9296875 17.3671875 C0.95289062 18.23601562 0.97609375 19.10484375 1 20 C0.01 19.67 -0.98 19.34 -2 19 C-2.66 19.33 -3.32 19.66 -4 20 C-5.99960012 20.039992 -8.00047242 20.04346799 -10 20 C-10 19.67 -10 19.34 -10 19 C-9.05125 18.71125 -8.1025 18.4225 -7.125 18.125 C-3.94788422 17.23174891 -3.94788422 17.23174891 -2 15 C-1.5342637 12.44132526 -1.16515752 9.95312092 -0.875 7.375 C-0.78863281 6.66859375 -0.70226562 5.9621875 -0.61328125 5.234375 C-0.40118817 3.49049859 -0.19959009 1.7453516 0 0 Z " fill="#4D1C15" transform="translate(105,177)"/>
<path d="M0 0 C3 1 3 1 4.9375 3.5 C7.04586025 6.05558818 7.7991535 6.65705216 11 7 C11 7.99 11 8.98 11 10 C6.82811893 9.75931455 4.6494442 9.61613937 1.5625 6.6875 C0 4 0 4 0 0 Z " fill="#BE392A" transform="translate(92,182)"/>
<path d="M0 0 C0 0.99 0 1.98 0 3 C-0.33 3.33 -0.66 3.66 -1 4 C-1.23287008 5.68183948 -1.41264166 7.3712416 -1.5625 9.0625 C-1.68818359 10.44115234 -1.68818359 10.44115234 -1.81640625 11.84765625 C-1.87699219 12.55792969 -1.93757813 13.26820313 -2 14 C-3.32 13.67 -4.64 13.34 -6 13 C-5.91253716 11.56138706 -5.80434652 10.12402492 -5.6875 8.6875 C-5.62949219 7.88699219 -5.57148437 7.08648437 -5.51171875 6.26171875 C-4.90935468 3.59936152 -4.10358809 2.68806452 -2 1 C-1.34 0.67 -0.68 0.34 0 0 Z " fill="#8D1B0E" transform="translate(61,173)"/>
<path d="M0 0 C3.3 0 6.6 0 10 0 C10.96142994 3.67091434 11.15459967 5.58502193 9.8125 9.1875 C8.06295054 11.90231812 6.7715124 13.39073473 4 15 C3.34 15 2.68 15 2 15 C2 14.34 2 13.68 2 13 C2.63421875 12.77570313 3.2684375 12.55140625 3.921875 12.3203125 C6.22016157 11.16214243 6.22016157 11.16214243 6.828125 8.6171875 C6.96734375 7.71226562 7.1065625 6.80734375 7.25 5.875 C7.39953125 4.96492187 7.5490625 4.05484375 7.703125 3.1171875 C7.80109375 2.41851562 7.8990625 1.71984375 8 1 C5.36 1 2.72 1 0 1 C0 0.67 0 0.34 0 0 Z " fill="#551E17" transform="translate(55,160)"/>
<path d="M0 0 C0 0.99 0 1.98 0 3 C-7.92 4.485 -7.92 4.485 -16 6 C-16 5.34 -16 4.68 -16 4 C-15.34 4 -14.68 4 -14 4 C-14 3.01 -14 2.02 -14 1 C-12.41693353 0.83081732 -10.83353281 0.66476064 -9.25 0.5 C-8.36828125 0.4071875 -7.4865625 0.314375 -6.578125 0.21875 C-4 0 -4 0 0 0 Z " fill="#381C17" transform="translate(57,174)"/>
<path d="M0 0 C0.33 0 0.66 0 1 0 C1.0825 1.2375 1.165 2.475 1.25 3.75 C1.63099302 6.65893319 1.95955463 7.93933195 3.625 10.4375 C6.70696199 12.46510657 9.36024802 12.72001908 13 13 C13 13.33 13 13.66 13 14 C8.22752594 14.46788961 5.04912418 14.68514232 0.9375 12 C-1.68250989 7.94321049 -1.47584146 5.75841461 -1 1 C-0.67 0.67 -0.34 0.34 0 0 Z " fill="#6C3C35" transform="translate(37,200)"/>
<path d="M0 0 C0 1.32 0 2.64 0 4 C-4.10791365 5.54046762 -7.78566579 4.75996191 -12 4 C-12.33 3.34 -12.66 2.68 -13 2 C-11.58461283 1.66127487 -10.16762037 1.32925376 -8.75 1 C-7.56664062 0.7215625 -7.56664062 0.7215625 -6.359375 0.4375 C-4 0 -4 0 0 0 Z " fill="#85605B" transform="translate(56,177)"/>
<path d="M0 0 C1.4540625 0.0309375 1.4540625 0.0309375 2.9375 0.0625 C1.6175 0.3925 0.2975 0.7225 -1.0625 1.0625 C-0.82853516 2.21878906 -0.82853516 2.21878906 -0.58984375 3.3984375 C-0.39519531 4.40132812 -0.20054688 5.40421875 0 6.4375 C0.19722656 7.43523437 0.39445312 8.43296875 0.59765625 9.4609375 C0.9375 12.0625 0.9375 12.0625 -0.0625 14.0625 C-0.7225 14.0625 -1.3825 14.0625 -2.0625 14.0625 C-3.81667412 9.56742881 -4.34612108 5.8840583 -4.0625 1.0625 C-3.0625 0.0625 -3.0625 0.0625 0 0 Z " fill="#6E2217" transform="translate(39.0625,153.9375)"/>
<path d="M0 0 C0.66 0 1.32 0 2 0 C0.25 6.75 0.25 6.75 -2 9 C-4.625 9.125 -4.625 9.125 -7 9 C-5.76465298 5.29395893 -3.80264776 3.66251537 -1 1 C-0.67 0.67 -0.34 0.34 0 0 Z " fill="#BD3829" transform="translate(83,181)"/>
<path d="M0 0 C0.66 0.99 1.32 1.98 2 3 C1.2884375 3.8353125 1.2884375 3.8353125 0.5625 4.6875 C-1.12395996 7.18346074 -1.58953107 9.0446237 -2 12 C-2.33 11.34 -2.66 10.68 -3 10 C-3.66 10 -4.32 10 -5 10 C-5.3125 7.8125 -5.3125 7.8125 -5 5 C-2.5 2.1875 -2.5 2.1875 0 0 Z " fill="#632118" transform="translate(32,167)"/>
<path d="M0 0 C0.99 0 1.98 0 3 0 C3.309375 1.093125 3.61875 2.18625 3.9375 3.3125 C4.58337897 5.55407994 5.2623117 7.7869351 6 10 C4.125 9.6875 4.125 9.6875 2 9 C-0.29013653 5.5647952 -0.17842973 4.014669 0 0 Z " fill="#C13C2D" transform="translate(43,187)"/>
<path d="M0 0 C-1.70828921 2.10633718 -2.52148416 2.93801608 -5.26171875 3.29296875 C-6.06222656 3.25816406 -6.86273438 3.22335938 -7.6875 3.1875 C-8.49574219 3.16042969 -9.30398437 3.13335937 -10.13671875 3.10546875 C-10.75160156 3.07066406 -11.36648437 3.03585938 -12 3 C-12 2.01 -12 1.02 -12 0 C-10.37585622 -0.19477739 -8.75063577 -0.38059458 -7.125 -0.5625 C-6.22007813 -0.66691406 -5.31515625 -0.77132812 -4.3828125 -0.87890625 C-2 -1 -2 -1 0 0 Z " fill="#931B0E" transform="translate(80,155)"/>
<path d="M0 0 C6.625 -0.25 6.625 -0.25 10 2 C10 2.66 10 3.32 10 4 C7.36 4 4.72 4 2 4 C1.34 2.68 0.68 1.36 0 0 Z " fill="#901C0F" transform="translate(41,209)"/>
<path d="M0 0 C1.134375 0.020625 2.26875 0.04125 3.4375 0.0625 C3.4375 0.7225 3.4375 1.3825 3.4375 2.0625 C-0.0319845 5.17307231 -1.99881823 5.0625 -6.5625 5.0625 C-4.14811644 0.07277397 -4.14811644 0.07277397 0 0 Z " fill="#C23C2D" transform="translate(49.5625,203.9375)"/>
<path d="M0 0 C0.66 0.33 1.32 0.66 2 1 C2 5.29 2 9.58 2 14 C-2.5 9.5 -2.5 9.5 -3 5 C-2.34 5 -1.68 5 -1 5 C-0.67 3.35 -0.34 1.7 0 0 Z " fill="#8E1C10" transform="translate(42,181)"/>
<path d="M0 0 C4.455 0.99 4.455 0.99 9 2 C9 2.99 9 3.98 9 5 C3.375 5.25 3.375 5.25 0 3 C0 2.01 0 1.02 0 0 Z " fill="#BF3A2B" transform="translate(48,169)"/>
<path d="M0 0 C0.66 0 1.32 0 2 0 C1.34 1.32 0.68 2.64 0 4 C-0.66 4 -1.32 4 -2 4 C-2 4.99 -2 5.98 -2 7 C-4.64 7 -7.28 7 -10 7 C-10.33 6.34 -10.66 5.68 -11 5 C-9.9275 4.87625 -8.855 4.7525 -7.75 4.625 C-4.62136385 4.10356064 -2.66519576 3.59911746 0 2 C0 1.34 0 0.68 0 0 Z " fill="#572119" transform="translate(86,186)"/>
<path d="M0 0 C1.33998047 0.06960937 1.33998047 0.06960937 2.70703125 0.140625 C3.60808594 0.17671875 4.50914063 0.2128125 5.4375 0.25 C6.46810547 0.31960937 6.46810547 0.31960937 7.51953125 0.390625 C7.51953125 1.380625 7.51953125 2.370625 7.51953125 3.390625 C5.97265625 3.3596875 5.97265625 3.3596875 4.39453125 3.328125 C0.96800156 3.38339161 -2.12619289 3.73613215 -5.48046875 4.390625 C-3.17521711 0.50003419 -3.17521711 0.50003419 0 0 Z " fill="#371B16" transform="translate(85.48046875,153.609375)"/>
<path d="M0 0 C1.80411967 2.75924185 2.0127245 3.88972103 1.625 7.25 C1.41875 8.1575 1.2125 9.065 1 10 C0.34 10 -0.32 10 -1 10 C-1 10.99 -1 11.98 -1 13 C-1.99 12.67 -2.98 12.34 -4 12 C-3.67 10.35 -3.34 8.7 -3 7 C-2.67 7.66 -2.34 8.32 -2 9 C-0.9986012 5.99580359 -0.48578543 3.12290635 0 0 Z " fill="#811D11" transform="translate(39,174)"/>
<path d="M0 0 C-0.33 1.32 -0.66 2.64 -1 4 C-3.64 4 -6.28 4 -9 4 C-8.67 3.01 -8.34 2.02 -8 1 C-5.17884816 -0.07009208 -3.09455459 0 0 0 Z " fill="#BE3A2B" transform="translate(60,151)"/>
<path d="M0 0 C3.875 1.875 3.875 1.875 5 3 C5.3125 5.3125 5.3125 5.3125 5 8 C3 10.3125 3 10.3125 1 12 C0.34 11.67 -0.32 11.34 -1 11 C-1 10.34 -1 9.68 -1 9 C-0.01 8.34 0.98 7.68 2 7 C2.25030977 4.41619823 2.25030977 4.41619823 2 2 C1.34 2 0.68 2 0 2 C0 1.34 0 0.68 0 0 Z " fill="#603E39" transform="translate(96,200)"/>
<path d="M0 0 C1.65 0.33 3.3 0.66 5 1 C5 2.65 5 4.3 5 6 C4.67 5.34 4.34 4.68 4 4 C2.68 4 1.36 4 0 4 C-0.33 4.99 -0.66 5.98 -1 7 C-1.66 6.67 -2.32 6.34 -3 6 C-2.01 4.02 -1.02 2.04 0 0 Z " fill="#972316" transform="translate(65,166)"/>
<path d="M0 0 C-0.5625 1.9375 -0.5625 1.9375 -2 4 C-5.625 4.75 -5.625 4.75 -9 5 C-9 4.01 -9 3.02 -9 2 C-3.375 0 -3.375 0 0 0 Z " fill="#BF3B2C" transform="translate(83,150)"/>
<path d="M0 0 C3.16115776 1.36983503 3.9927092 1.9890638 6 5 C6 5.99 6 6.98 6 8 C2.83884224 6.63016497 2.0072908 6.0109362 0 3 C0 2.01 0 1.02 0 0 Z " fill="#B23A2C" transform="translate(30,185)"/>
<path d="M0 0 C0.33 0 0.66 0 1 0 C1.3125 3.1875 1.3125 3.1875 1 7 C-1.5 9.9375 -1.5 9.9375 -4 12 C-4.66 11.67 -5.32 11.34 -6 11 C-5.53980469 10.59136719 -5.07960938 10.18273437 -4.60546875 9.76171875 C-2.84085229 7.82536346 -2.16028378 6.27511002 -1.3125 3.8125 C-1.06113281 3.09707031 -0.80976562 2.38164062 -0.55078125 1.64453125 C-0.36902344 1.10183594 -0.18726562 0.55914062 0 0 Z " fill="#901C0F" transform="translate(86,179)"/>
<path d="M0 0 C0.33 0 0.66 0 1 0 C1 2.64 1 5.28 1 8 C-1.31 8 -3.62 8 -6 8 C-6 7.34 -6 6.68 -6 6 C-5.195625 5.525625 -4.39125 5.05125 -3.5625 4.5625 C-0.7081924 3.20016328 -0.7081924 3.20016328 0 0 Z " fill="#921D10" transform="translate(46,159)"/>
<path d="M0 0 C0.66 0.33 1.32 0.66 2 1 C-1.3 4.3 -4.6 7.6 -8 11 C-8.66 10.34 -9.32 9.68 -10 9 C-6.7 6.03 -3.4 3.06 0 0 Z " fill="#807674" transform="translate(151,174)"/>
<path d="M0 0 C2.875 -0.125 2.875 -0.125 6 0 C6.66 0.66 7.32 1.32 8 2 C5 4 5 4 2.3125 3.625 C1.549375 3.41875 0.78625 3.2125 0 3 C0 2.01 0 1.02 0 0 Z " fill="#7A2218" transform="translate(63,210)"/>
<path d="M0 0 C3.3 0 6.6 0 10 0 C10 0.66 10 1.32 10 2 C6.37 2.33 2.74 2.66 -1 3 C-0.67 2.01 -0.34 1.02 0 0 Z " fill="#3B1C15" transform="translate(75,146)"/>
<path d="M0 0 C0.66 0 1.32 0 2 0 C2 2.97 2 5.94 2 9 C1.01 9.495 1.01 9.495 0 10 C-1.125 2.25 -1.125 2.25 0 0 Z " fill="#531F18" transform="translate(50,145)"/>
<path d="M0 0 C0 1.65 0 3.3 0 5 C-1.32 5.33 -2.64 5.66 -4 6 C-3.67 4.68 -3.34 3.36 -3 2 C-4.65 2 -6.3 2 -8 2 C-8 1.67 -8 1.34 -8 1 C-1.125 0 -1.125 0 0 0 Z " fill="#692219" transform="translate(86,147)"/>
<path d="M0 0 C0 0.66 0 1.32 0 2 C0.99 2.33 1.98 2.66 3 3 C1.35 3 -0.3 3 -2 3 C-2.33 3.66 -2.66 4.32 -3 5 C-3.99 3.68 -4.98 2.36 -6 1 C-3.92446352 0.4465236 -2.15634036 0 0 0 Z " fill="#AD3C2F" transform="translate(65,207)"/>
<path d="M0 0 C0.66 1.32 1.32 2.64 2 4 C0.68 4.33 -0.64 4.66 -2 5 C-2 4.34 -2 3.68 -2 3 C-3.98 3 -5.96 3 -8 3 C-8 2.67 -8 2.34 -8 2 C-5.36 1.34 -2.72 0.68 0 0 Z " fill="#79322A" transform="translate(103,195)"/>
<path d="M0 0 C0.99 0 1.98 0 3 0 C2.67 2.64 2.34 5.28 2 8 C1.34 7.67 0.68 7.34 0 7 C0 4.69 0 2.38 0 0 Z " fill="#C23C2D" transform="translate(33,176)"/>
<path d="M0 0 C1.65 0 3.3 0 5 0 C5 0.99 5 1.98 5 3 C3.02 3.33 1.04 3.66 -1 4 C-0.67 2.68 -0.34 1.36 0 0 Z " fill="#4A3531" transform="translate(230,137)"/>
<path d="M0 0 C0.66 0.33 1.32 0.66 2 1 C-1.465 3.97 -1.465 3.97 -5 7 C-5.33 6.34 -5.66 5.68 -6 5 C-4.06745228 2.9754262 -2.36841312 1.57894208 0 0 Z " fill="#827876" transform="translate(114,205)"/>
<path d="M0 0 C0.33 0 0.66 0 1 0 C1.33 4.29 1.66 8.58 2 13 C1.67 13 1.34 13 1 13 C1 11.35 1 9.7 1 8 C0.34 8 -0.32 8 -1 8 C-0.67 5.36 -0.34 2.72 0 0 Z " fill="#A17E7A" transform="translate(85,196)"/>
<path d="M0 0 C0.66 0 1.32 0 2 0 C2.33 0.99 2.66 1.98 3 3 C1.6875 5.1875 1.6875 5.1875 0 7 C-0.66 7 -1.32 7 -2 7 C-2 6.01 -2 5.02 -2 4 C-1.34 4 -0.68 4 0 4 C0 2.68 0 1.36 0 0 Z " fill="#6E3D36" transform="translate(91,175)"/>
<path d="M0 0 C-0.57344937 2.86724686 -0.8614515 3.8614515 -3 6 C-3.99 6 -4.98 6 -6 6 C-6 4 -6 4 -4.125 1.875 C-2 0 -2 0 0 0 Z " fill="#BD392A" transform="translate(46,159)"/>
</svg>
