<?xml version="1.0" encoding="UTF-8"?>
<svg version="1.1" xmlns="http://www.w3.org/2000/svg" width="320" height="320">
<path d="M0 0 C5.22070365 -0.07188576 8.48525375 0.63831314 12.57421875 3.95703125 C14.86669373 6.25544528 16.45162299 8.6644478 18.08203125 11.46875 C18.77167969 11.2521875 19.46132812 11.035625 20.171875 10.8125 C29.28627799 8.11193615 36.75983029 8.1127935 46.08203125 9.46875 C47.06929652 12.13436622 47.10958385 13.37001985 46.33203125 16.15625 C45.08203125 18.46875 45.08203125 18.46875 42.08203125 19.46875 C41.58703125 20.95375 41.58703125 20.95375 41.08203125 22.46875 C40.42203125 22.79875 39.76203125 23.12875 39.08203125 23.46875 C40.61923828 23.41654297 40.61923828 23.41654297 42.1875 23.36328125 C43.54816061 23.33512965 44.90883905 23.30783096 46.26953125 23.28125 C46.94306641 23.25611328 47.61660156 23.23097656 48.31054688 23.20507812 C52.79665753 23.13942773 55.5342665 23.69866557 59.08203125 26.46875 C63.0738852 31.86314723 63.62196888 35.85451402 63.08203125 42.46875 C63.76265625 41.97375 64.44328125 41.47875 65.14453125 40.96875 C68.823435 39.09016085 70.99115375 38.96636154 75.08203125 39.46875 C78.51953125 41.09375 78.51953125 41.09375 81.08203125 43.46875 C81.54296875 46.37890625 81.54296875 46.37890625 81.08203125 49.46875 C79 51.55078125 79 51.55078125 76.26953125 53.28125 C75.37621094 53.86519531 74.48289062 54.44914062 73.5625 55.05078125 C71.08203125 56.46875 71.08203125 56.46875 68.08203125 57.46875 C70.32633434 57.52944642 70.32633434 57.52944642 73.45703125 56.84375 C78.19741587 56.35336538 78.19741587 56.35336538 81.08203125 58.46875 C87.98845671 64.68453292 91.71533864 71.29059413 93.08203125 80.46875 C93.14837886 89.12047845 88.39769526 95.0315393 83.08203125 101.46875 C81.46949672 103.08128453 79.74604082 102.71666423 77.51953125 102.78125 C72.25449405 102.72844877 68.37302857 101.53077236 64.08203125 98.46875 C63.04556101 97.16356525 62.03780182 95.83413653 61.08203125 94.46875 C59.42130276 93.78742549 57.75426425 93.12132873 56.08203125 92.46875 C54.74869792 91.13541667 53.41536458 89.80208333 52.08203125 88.46875 C50.42386341 87.78121699 48.75743789 87.11313717 47.08203125 86.46875 C43.02506947 83.38545904 40.56921146 78.3768725 39.33203125 73.53125 C39.24953125 72.850625 39.16703125 72.17 39.08203125 71.46875 C36.97151717 72.50801749 36.97151717 72.50801749 35.08203125 74.46875 C34.56549604 77.68983259 34.56549604 77.68983259 34.64453125 81.28125 C34.29566261 89.15107738 34.29566261 89.15107738 31.83203125 92.15625 C29.33354005 94.25725396 26.94740861 95.91989737 24.08203125 97.46875 C23.42203125 98.12875 22.76203125 98.78875 22.08203125 99.46875 C14.4511096 101.79682779 5.94587652 103.15642455 -1.91796875 101.46875 C-4.95073727 98.51850579 -6.49784661 95.4253092 -7.91796875 91.46875 C-11.45477448 92.88082213 -11.45477448 92.88082213 -14.98046875 94.3203125 C-18.80601464 95.84744574 -21.7390427 96.71456918 -25.91796875 96.46875 C-26.90796875 96.96375 -26.90796875 96.96375 -27.91796875 97.46875 C-29.94941516 96.53428465 -31.95330462 95.53650224 -33.91796875 94.46875 C-33.91796875 93.80875 -33.91796875 93.14875 -33.91796875 92.46875 C-34.90796875 92.13875 -35.89796875 91.80875 -36.91796875 91.46875 C-40.03252027 86.42102857 -40.42296931 82.55985627 -39.06640625 76.78125 C-36.98647958 72.59309834 -33.11655957 71.11017439 -28.91796875 69.46875 C-29.90796875 68.14875 -30.89796875 66.82875 -31.91796875 65.46875 C-33.40296875 65.96375 -33.40296875 65.96375 -34.91796875 66.46875 C-37.92457072 66.26830987 -39.13826274 65.29566187 -41.54296875 63.40625 C-44.30877909 59.98537931 -45.77523532 56.90188243 -45.91796875 52.46875 C-45.61117187 51.71464844 -45.304375 50.96054688 -44.98828125 50.18359375 C-43.64122553 46.76679182 -43.58758499 43.6898441 -43.35546875 40.03125 C-42.97507033 36.15503229 -42.53019135 33.20464157 -39.96484375 30.12109375 C-36.65688635 27.80442822 -34.41066385 26.399685 -30.30078125 26.58984375 C-27.32066955 27.68906528 -26.6298234 28.78741163 -25.10546875 31.53125 C-24.47705078 32.63146484 -24.47705078 32.63146484 -23.8359375 33.75390625 C-23.53300781 34.31980469 -23.23007813 34.88570312 -22.91796875 35.46875 C-22.58796875 33.81875 -22.25796875 32.16875 -21.91796875 30.46875 C-22.55734375 30.13875 -23.19671875 29.80875 -23.85546875 29.46875 C-26.36321073 27.03700021 -26.63327689 25.15826996 -26.88671875 21.73046875 C-27.02430524 11.77264658 -27.02430524 11.77264658 -24.16796875 8.40625 C-21.47889385 7.28580212 -19.81702607 7.19305956 -16.91796875 7.46875 C-13.72721814 9.30078656 -11.20343057 11.5882896 -8.91796875 14.46875 C-8.41796875 18.40625 -8.41796875 18.40625 -8.91796875 21.46875 C-5.61796875 21.13875 -2.31796875 20.80875 1.08203125 20.46875 C0.58703125 18.98375 0.58703125 18.98375 0.08203125 17.46875 C-0.57796875 17.46875 -1.23796875 17.46875 -1.91796875 17.46875 C-4.2380248 12.9736414 -4.55004335 8.43239462 -3.91796875 3.46875 C-1.91796875 0.46875 -1.91796875 0.46875 0 0 Z M14.08203125 24.46875 C14.08203125 26.11875 14.08203125 27.76875 14.08203125 29.46875 C15.28859375 29.654375 15.28859375 29.654375 16.51953125 29.84375 C17.78796875 30.153125 17.78796875 30.153125 19.08203125 30.46875 C19.41203125 31.12875 19.74203125 31.78875 20.08203125 32.46875 C21.40203125 30.48875 22.72203125 28.50875 24.08203125 26.46875 C22.09062565 26.08741701 20.08924048 25.75549418 18.08203125 25.46875 C17.75203125 25.79875 17.42203125 26.12875 17.08203125 26.46875 C16.75203125 25.80875 16.42203125 25.14875 16.08203125 24.46875 C15.42203125 24.46875 14.76203125 24.46875 14.08203125 24.46875 Z M-21.91796875 39.46875 C-22.24796875 41.77875 -22.57796875 44.08875 -22.91796875 46.46875 C-22.19351563 46.51773438 -21.4690625 46.56671875 -20.72265625 46.6171875 C-15.50338008 47.02081152 -10.81983217 47.48150807 -5.91796875 49.46875 C-5.62921875 48.664375 -5.34046875 47.86 -5.04296875 47.03125 C-3.91796875 44.46875 -3.91796875 44.46875 -1.91796875 43.46875 C-3.74134766 43.28699219 -3.74134766 43.28699219 -5.6015625 43.1015625 C-7.18624992 42.93277922 -8.77088265 42.76348184 -10.35546875 42.59375 C-11.15791016 42.51511719 -11.96035156 42.43648437 -12.78710938 42.35546875 C-14.83967869 42.13029237 -16.88089884 41.80652413 -18.91796875 41.46875 C-19.24796875 40.80875 -19.57796875 40.14875 -19.91796875 39.46875 C-20.57796875 39.46875 -21.23796875 39.46875 -21.91796875 39.46875 Z M61.08203125 43.46875 C62.08203125 45.46875 62.08203125 45.46875 62.08203125 45.46875 Z M21.08203125 44.46875 C20.81390625 45.396875 20.54578125 46.325 20.26953125 47.28125 C19.10694885 50.40186591 18.52104414 51.39107236 16.08203125 53.46875 C14.3761655 55.09527316 12.70427665 56.75881566 11.08203125 58.46875 C11.08203125 59.12875 11.08203125 59.78875 11.08203125 60.46875 C9.43203125 60.79875 7.78203125 61.12875 6.08203125 61.46875 C5.1477948 64.47906744 5.03753214 65.33525268 6.08203125 68.46875 C9.38203125 68.13875 12.68203125 67.80875 16.08203125 67.46875 C16.28183594 66.416875 16.48164063 65.365 16.6875 64.28125 C17.94139186 59.9129946 20.68736944 57.86338726 24.39453125 55.46875 C24.96365234 55.06269531 25.53277344 54.65664062 26.11914062 54.23828125 C28.85331222 52.39875822 30.5380093 51.42989129 33.87109375 51.66796875 C38.24345225 53.25159683 40.877686 55.03552294 44.08203125 58.46875 C47.04414199 57.74585142 47.04414199 57.74585142 48.4765625 55.98046875 C50.50553523 54.06997618 52.05335763 53.79299286 54.76953125 53.28125 C55.57777344 53.12269531 56.38601562 52.96414062 57.21875 52.80078125 C58.14107422 52.63642578 58.14107422 52.63642578 59.08203125 52.46875 C59.08203125 51.14875 59.08203125 49.82875 59.08203125 48.46875 C59.74203125 48.13875 60.40203125 47.80875 61.08203125 47.46875 C61.08203125 46.80875 61.08203125 46.14875 61.08203125 45.46875 C59.60085324 45.75002421 58.12209876 46.04408732 56.64453125 46.34375 C55.82082031 46.50617188 54.99710938 46.66859375 54.1484375 46.8359375 C53.46652344 47.04476562 52.78460938 47.25359375 52.08203125 47.46875 C51.75203125 48.12875 51.42203125 48.78875 51.08203125 49.46875 C50.09203125 48.80875 49.10203125 48.14875 48.08203125 47.46875 C45.18041191 47.40214596 42.35220126 47.4282482 39.45703125 47.53125 C32.68074577 47.67166317 27.36814282 47.26257736 21.08203125 44.46875 Z M-9.91796875 76.46875 C-8.92796875 77.95375 -8.92796875 77.95375 -7.91796875 79.46875 C-7.58796875 78.47875 -7.25796875 77.48875 -6.91796875 76.46875 C-7.90796875 76.46875 -8.89796875 76.46875 -9.91796875 76.46875 Z " fill="#451C15" transform="translate(147.91796875,125.53125)"/>
<path d="M0 0 C3.88449579 1.9422479 6.44213041 6.02260729 8 10 C8.1953125 13.234375 8.1953125 13.234375 8.125 16.75 C8.10695313 17.92046875 8.08890625 19.0909375 8.0703125 20.296875 C8.04710938 21.18890625 8.02390625 22.0809375 8 23 C8.33 22.67 8.66 22.34 9 22 C14.88489307 21.42370162 20.0407611 21.43952079 25 25 C25.8125 26.75 25.8125 26.75 26 29 C26.185625 30.2375 26.37125 31.475 26.5625 32.75 C26.706875 33.8225 26.85125 34.895 27 36 C29.64 36.33 32.28 36.66 35 37 C35.36658354 43.47630923 35.36658354 43.47630923 33.6875 45.875 C28.67618907 49.21587396 22.08964107 48.44663962 16.37890625 47.62109375 C11.95934759 46.72303943 11.95934759 46.72303943 10 46 C9.67 45.34 9.34 44.68 9 44 C8.21625 43.690625 7.4325 43.38125 6.625 43.0625 C4.04017895 42.01626291 2.7953831 41.07886465 1 39 C-0.485 39.495 -0.485 39.495 -2 40 C-5.00660197 39.79955987 -6.22029399 38.82691187 -8.625 36.9375 C-11.39081034 33.51662931 -12.85726657 30.43313243 -13 26 C-12.69320312 25.24589844 -12.38640625 24.49179688 -12.0703125 23.71484375 C-10.72325678 20.29804182 -10.66961624 17.2210941 -10.4375 13.5625 C-10.07015801 9.5951106 -9.66463065 6.72194742 -6.87109375 3.6875 C-4.62789858 2.22714133 -2.47108979 1.02199393 0 0 Z " fill="#411C16" transform="translate(115,152)"/>
<path d="M0 0 C5.6322286 0.28161143 8.97701704 0.7471323 13 5 C16 10.17241379 16 10.17241379 16 13 C16.66 13 17.32 13 18 13 C17.5047783 16.66464055 16.9791794 18.70832354 14 21 C13.01 21.33 12.02 21.66 11 22 C11.05800781 22.58007812 11.11601562 23.16015625 11.17578125 23.7578125 C11.41921058 27.97261742 11.51577649 31.03306117 8.8125 34.4375 C3.53429193 39.24653402 -1.29073778 39.33992481 -8.125 39.3125 C-8.93582031 39.32861328 -9.74664062 39.34472656 -10.58203125 39.36132812 C-11.36191406 39.36197266 -12.14179688 39.36261719 -12.9453125 39.36328125 C-13.65187988 39.36626221 -14.35844727 39.36924316 -15.08642578 39.37231445 C-17.60212648 38.8828473 -18.48685934 38.04423717 -20 36 C-20.1875 32.4375 -20.1875 32.4375 -20 29 C-20 28.34 -20 27.68 -20 27 C-21.98 26.34 -23.96 25.68 -26 25 C-26.94153163 19.24619559 -27.49812582 13.71378219 -26 8 C-23.90863372 5.53517546 -22.81211438 5.08562656 -19.62890625 4.75 C-15.53790133 5.13904059 -13.54784123 7.27156716 -10.60546875 9.9765625 C-9 12 -9 12 -8.5 15.9375 C-8.665 16.948125 -8.83 17.95875 -9 19 C-5.7 18.67 -2.4 18.34 1 18 C0.67 17.01 0.34 16.02 0 15 C-0.66 15 -1.32 15 -2 15 C-3.3364048 9.65438081 -2.57341421 6.15730212 -1 1 C-0.67 0.67 -0.34 0.34 0 0 Z " fill="#421C16" transform="translate(148,128)"/>
<path d="M0 0 C0.495 1.485 0.495 1.485 1 3 C0.01 3 -0.98 3 -2 3 C-1.94779297 3.99580078 -1.94779297 3.99580078 -1.89453125 5.01171875 C-1.86746094 5.89472656 -1.84039062 6.77773437 -1.8125 7.6875 C-1.76029297 8.99267578 -1.76029297 8.99267578 -1.70703125 10.32421875 C-2.07235898 13.66087867 -2.93742187 15.35566906 -5 18 C-7.55859375 19.51953125 -7.55859375 19.51953125 -10.4375 20.8125 C-15.10680785 23.21808793 -17.48701556 25.0704421 -19.4296875 29.96484375 C-20.27813733 32.99253117 -20.73871713 35.86460559 -21 39 C-15.09944291 39.35403343 -11.23856831 39.06647901 -6 36 C-5.34 36 -4.68 36 -4 36 C-4 35.34 -4 34.68 -4 34 C-3.34 34 -2.68 34 -2 34 C-0.03458621 30.49033252 0.94513932 26.8678225 2 23 C2.495 21.515 2.495 21.515 3 20 C3.66 20 4.32 20 5 20 C5 20.66 5 21.32 5 22 C5.66 22.33 6.32 22.66 7 23 C6.01 25.31 5.02 27.62 4 30 C3.34 30 2.68 30 2 30 C1.7525 30.78375 1.505 31.5675 1.25 32.375 C-0.15389099 35.32317108 -1.00675737 35.9024777 -4 37 C-4 37.66 -4 38.32 -4 39 C-5.1446875 39.5259375 -5.1446875 39.5259375 -6.3125 40.0625 C-9.79710002 42.57465351 -10.18703441 44.79364055 -11.2265625 48.84375 C-12.09440521 51.26319027 -13.02638286 52.38203468 -15 54 C-15.66 54.226875 -16.32 54.45375 -17 54.6875 C-20.29095136 56.84718683 -21.0445847 60.29865034 -22 64 C-22.25514536 66.83535452 -22.25514536 66.83535452 -22 69 C-33.8553137 75.19846351 -33.8553137 75.19846351 -41 75 C-41.99 75.495 -41.99 75.495 -43 76 C-45.03144641 75.06553465 -47.03533587 74.06775224 -49 73 C-49 72.34 -49 71.68 -49 71 C-49.99 70.67 -50.98 70.34 -52 70 C-54.56539042 65.84229828 -55.34316647 62.81668336 -54.8125 57.9375 C-53.74143518 53.5041051 -51.99670859 51.75721596 -48.1875 49.3125 C-45.13059554 47.59674878 -43.67995206 46.91441821 -40.17578125 47.35546875 C-39.45777344 47.56816406 -38.73976563 47.78085938 -38 48 C-38 48.99 -38 49.98 -38 51 C-26.86462157 52.65850408 -26.86462157 52.65850408 -15.9375 50.9375 C-13.19652236 48.19652236 -13.21371826 45.7756892 -13 42 C-15.01822917 42.09765625 -17.03645833 42.1953125 -19.0546875 42.29296875 C-19.69664062 42.19628906 -20.33859375 42.09960938 -21 42 C-23.442877 38.3356845 -23.07844476 36.31446191 -23 32 C-23.83793327 29.84979181 -23.83793327 29.84979181 -25.9375 28.9375 C-30.23430691 27.62215095 -34.53253967 27.32963785 -39 27 C-39.33 27.66 -39.66 28.32 -40 29 C-41.0431271 25.87061869 -40.98072309 24.00534407 -40.8125 20.75 C-40.74665622 15.22643863 -41.78338984 12.44649051 -45 8 C-45.66 7.34 -46.32 6.68 -47 6 C-46.34 5.67 -45.68 5.34 -45 5 C-42.03595495 7.80804268 -39.55500981 10.18315774 -38 14 C-37.32041397 11.60280568 -37.32041397 11.60280568 -37 9 C-37.66 8.34 -38.32 7.68 -39 7 C-35.21293268 7 -31.73486879 7.4254048 -28 8 C-28 8.33 -28 8.66 -28 9 C-29.98 9.33 -31.96 9.66 -34 10 C-34.16677282 13.41656024 -34.16677282 13.41656024 -34 17 C-31.34852936 19.65147064 -29.33096112 19.28937297 -25.71875 19.32226562 C-24.49671875 19.31743164 -24.49671875 19.31743164 -23.25 19.3125 C-22.45078125 19.32861328 -21.6515625 19.34472656 -20.828125 19.36132812 C-14.98760051 19.36613119 -10.681061 18.40370986 -6.1875 14.375 C-4.37463311 10.74926622 -4.24826333 7.00645647 -4 3 C-4.99 2.67 -5.98 2.34 -7 2 C-4.69 1.34 -2.38 0.68 0 0 Z M-37 18 C-37.33 20.31 -37.66 22.62 -38 25 C-37.27554688 25.04898438 -36.55109375 25.09796875 -35.8046875 25.1484375 C-30.58541133 25.55206152 -25.90186342 26.01275807 -21 28 C-20.71125 27.195625 -20.4225 26.39125 -20.125 25.5625 C-19 23 -19 23 -17 22 C-18.82337891 21.81824219 -18.82337891 21.81824219 -20.68359375 21.6328125 C-22.26828117 21.46402922 -23.8529139 21.29473184 -25.4375 21.125 C-26.23994141 21.04636719 -27.04238281 20.96773437 -27.86914062 20.88671875 C-29.92170994 20.66154237 -31.96293009 20.33777413 -34 20 C-34.33 19.34 -34.66 18.68 -35 18 C-35.66 18 -36.32 18 -37 18 Z M-25 55 C-24.01 56.485 -24.01 56.485 -23 58 C-22.67 57.01 -22.34 56.02 -22 55 C-22.99 55 -23.98 55 -25 55 Z " fill="#3E1C16" transform="translate(163,147)"/>
<path d="M0 0 C0.33 0.99 0.66 1.98 1 3 C1.66 3 2.32 3 3 3 C4.25390625 4.57421875 4.25390625 4.57421875 5.5625 6.6875 C5.99691406 7.37199219 6.43132812 8.05648437 6.87890625 8.76171875 C9.64205753 14.2783936 9.87539418 20.97664558 9 27 C6.99913694 31.51887226 4.49855456 35.50144544 1 39 C-3.50337898 39.27020274 -7.338037 38.31872293 -11.375 36.375 C-15.54454474 32.60255476 -16.70718557 29.46289472 -17.3515625 24.04296875 C-17.76942079 14.77311245 -15.74454709 7.33579137 -9.625 0.25 C-6.08485318 -1.4357842 -3.74793023 -0.88186594 0 0 Z " fill="#AA2B1C" transform="translate(228,186)"/>
<path d="M0 0 C0.33 0 0.66 0 1 0 C1 1.65 1 3.3 1 5 C1.99 4.67 2.98 4.34 4 4 C9.66026815 3.52831099 12.54017176 3.96671914 17.2578125 7.04296875 C20.09342101 8.60064607 22.80312921 8.73903096 26 9 C26.495 12.465 26.495 12.465 27 16 C8.39472459 30.29615168 8.39472459 30.29615168 -1.5625 30.25 C-3.23505859 30.25773437 -3.23505859 30.25773437 -4.94140625 30.265625 C-7.88411639 30.01006397 -9.55632857 29.60981198 -12 28 C-13.84443546 24.31112907 -12.96403094 19.87854307 -12 16 C-10.15361539 12.5050577 -8.89807449 10.50379788 -5.4375 8.5625 C-1.92765643 6.31260027 -1.38961222 3.87628673 0 0 Z " fill="#A92A1B" transform="translate(153,191)"/>
<path d="M0 0 C3.5 1.625 3.5 1.625 6 4 C6.45703125 6.91015625 6.45703125 6.91015625 6 10 C3.91796875 12.08203125 3.91796875 12.08203125 1.1875 13.8125 C0.29417969 14.39644531 -0.59914062 14.98039063 -1.51953125 15.58203125 C-4 17 -4 17 -7 18 C-6.67 19.32 -6.34 20.64 -6 22 C-6.66 22 -7.32 22 -8 22 C-8.33773437 22.96421875 -8.67546875 23.9284375 -9.0234375 24.921875 C-9.47382212 26.19796475 -9.92435053 27.47400376 -10.375 28.75 C-10.59671875 29.38421875 -10.8184375 30.0184375 -11.046875 30.671875 C-12.18719302 33.89159648 -13.37470165 36.99243857 -15 40 C-19.1666604 39.52651586 -21.92884715 38.95303159 -25 36 C-25 35.34 -25 34.68 -25 34 C-25.66 34 -26.32 34 -27 34 C-29.57311998 31.52584617 -29.99013376 30.0920849 -30.375 26.5 C-29.99013376 22.9079151 -29.57311998 21.47415383 -27 19 C-26.34 19 -25.68 19 -25 19 C-25 18.34 -25 17.68 -25 17 C-23.01429422 15.67016515 -20.9440069 14.56021541 -18.84765625 13.4140625 C-16.64537774 11.72859776 -16.36143906 10.69645014 -16 8 C-15.34 8 -14.68 8 -14 8 C-13.7525 7.236875 -13.505 6.47375 -13.25 5.6875 C-10.51653245 -0.18945523 -6.15634417 -1.04964489 0 0 Z " fill="#A42A1C" transform="translate(223,165)"/>
<path d="M0 0 C11.00361343 -0.58714933 11.00361343 -0.58714933 16 3 C16.8125 4.75 16.8125 4.75 17 7 C17.185625 8.2375 17.37125 9.475 17.5625 10.75 C17.706875 11.8225 17.85125 12.895 18 14 C20.64 14.33 23.28 14.66 26 15 C26.36658354 21.47630923 26.36658354 21.47630923 24.6875 23.875 C19.69104943 27.20596704 13.0250634 26.5115916 7.34375 25.55078125 C5.21520031 25.07589912 3.10504528 24.56948085 1 24 C1 23.01 1 22.02 1 21 C0.34 21 -0.32 21 -1 21 C-4.32575612 15.4174808 -5.46450943 11.50313209 -5 5 C-4.01 5.33 -3.02 5.66 -2 6 C-1.7834375 5.071875 -1.7834375 5.071875 -1.5625 4.125 C-1 2 -1 2 0 0 Z " fill="#AA2A1B" transform="translate(124,174)"/>
<path d="M0 0 C6.83709727 -0.45642747 6.83709727 -0.45642747 9.55859375 1.6953125 C12.13300141 5.07651458 13.09704297 8.12771431 13.8046875 12.30859375 C1.63834067 15.19960686 -10.68438096 16.43647448 -23.1953125 15.30859375 C-24.1953125 14.30859375 -24.1953125 14.30859375 -24.5703125 11.05859375 C-24.1953125 7.30859375 -24.1953125 7.30859375 -21.8203125 4.43359375 C-15.62544117 -0.58130209 -7.63563041 0.73742641 0 0 Z " fill="#AB2B1C" transform="translate(194.1953125,150.69140625)"/>
<path d="M0 0 C0.94875 0.185625 1.8975 0.37125 2.875 0.5625 C3.57625 0.706875 4.2775 0.85125 5 1 C5.46693504 5.66935037 5.85149069 9.6102711 2.8125 13.4375 C-2.46570807 18.24653402 -7.29073778 18.33992481 -14.125 18.3125 C-14.93582031 18.32861328 -15.74664062 18.34472656 -16.58203125 18.36132812 C-17.36191406 18.36197266 -18.14179688 18.36261719 -18.9453125 18.36328125 C-19.65187988 18.36626221 -20.35844727 18.36924316 -21.08642578 18.37231445 C-23.60574143 17.88214396 -24.48861007 17.05125583 -26 15 C-26.1875 11.3125 -26.1875 11.3125 -26 8 C-25.37351563 7.84144531 -24.74703125 7.68289062 -24.1015625 7.51953125 C-18.84375314 6.2094023 -18.84375314 6.2094023 -15.4375 2.3125 C-15.293125 1.549375 -15.14875 0.78625 -15 0 C-9.75504054 -0.75760525 -5.23141511 -1.18895798 0 0 Z " fill="#AA2A1C" transform="translate(154,149)"/>
<path d="M0 0 C0 0.66 0 1.32 0 2 C0.598125 2.0825 1.19625 2.165 1.8125 2.25 C4.70082825 3.24028397 5.52742652 4.34936773 7 7 C7.1875 9.75 7.1875 9.75 7 12 C6.34 12 5.68 12 5 12 C4.67 12.99 4.34 13.98 4 15 C-0.14543004 18.85129753 -4.53158719 19.03349717 -10 19 C-12.50477577 18.55667686 -14.60140737 17.88643641 -17 17 C-17 16.34 -17 15.68 -17 15 C-17.639375 14.773125 -18.27875 14.54625 -18.9375 14.3125 C-21 13 -21 13 -21.8125 10.625 C-21.99255639 8.10421049 -21.79321253 6.3796376 -21 4 C-20.34 4 -19.68 4 -19 4 C-19 3.01 -19 2.02 -19 1 C-12.40337662 -2.89800472 -7.26907397 -1.65911541 0 0 Z " fill="#BC3C2E" transform="translate(102,187)"/>
<path d="M0 0 C5.60086799 1.00999259 8.27103369 2.72265629 12 7 C12.33 7.33 12.66 7.66 13 8 C12.84783778 11.95621778 12.28423344 14.52289386 10.25 17.9375 C5.18999617 21.14865628 -0.16310181 20.86686607 -6 20 C-9.68321366 18.24608873 -10.80049499 17.34580868 -12.875 13.75 C-14.12604697 9.57984344 -14.12627703 7.18331467 -13 3 C-9.65626955 -1.47561436 -5.09049221 -0.43389279 0 0 Z " fill="#A82A1B" transform="translate(125,200)"/>
<path d="M0 0 C0.33 0.66 0.66 1.32 1 2 C3.52733235 2.65555119 3.52733235 2.65555119 6 3 C6.99 5.97 7.98 8.94 9 12 C8.34 12 7.68 12 7 12 C7 11.34 7 10.68 7 10 C6.01 10.495 6.01 10.495 5 11 C4.80261189 12.97388113 4.60543503 14.94778407 4.41015625 16.921875 C3.79420153 20.04271222 2.2446494 21.82337028 0 24 C-0.66 24 -1.32 24 -2 24 C-2 24.66 -2 25.32 -2 26 C-7.12935384 28.98435133 -10.89787647 30.61021235 -17 30 C-17.66 29.67 -18.32 29.34 -19 29 C-19.5878837 23.47389318 -18.54738861 19.87114896 -15.703125 15.08984375 C-12.8388685 11.57521709 -9.18295869 9.63538071 -5 8 C-4.34 8 -3.68 8 -3 8 C-1.92474806 5.34771188 -0.90543849 2.71631546 0 0 Z " fill="#A72A1C" transform="translate(161,157)"/>
<path d="M0 0 C3.89287219 3.72361688 5.75330213 6.5726469 6 12 C5.67 12.66 5.34 13.32 5 14 C4.236875 14.144375 3.47375 14.28875 2.6875 14.4375 C-0.04173138 14.81078611 -0.04173138 14.81078611 -2 16.5 C-4.48101704 18.36076278 -5.89348902 18.85551112 -9 19 C-15.30097087 17.0776699 -15.30097087 17.0776699 -17.5 13.6875 C-18.11438259 10.38519358 -17.96048157 8.22447384 -17 5 C-12.32827606 -1.05593845 -7.08935336 -3.22243335 0 0 Z " fill="#381C16" transform="translate(197,214)"/>
<path d="M0 0 C7.85585595 5.22716569 12.37120781 12.03320549 14.57421875 21.140625 C15.71798397 28.82169053 13.38520481 33.86291147 8.9375 40.0625 C4.37025476 45.95119052 4.37025476 45.95119052 1.92578125 46.2734375 C-5.99902907 46.58142714 -5.99902907 46.58142714 -9.625 43.625 C-12 41 -12 41 -12 39 C-12.66 39 -13.32 39 -14 39 C-14.48198463 37.75108386 -14.96045677 36.50081192 -15.4375 35.25 C-15.70433594 34.55390625 -15.97117188 33.8578125 -16.24609375 33.140625 C-16.96146693 31.10940997 -17.51365652 29.0964709 -18 27 C-18.70125 27.495 -19.4025 27.99 -20.125 28.5 C-23.37119719 30.1936681 -25.39340156 30.25162315 -29 30 C-29 29.34 -29 28.68 -29 28 C-27.01432292 27.609375 -25.02864583 27.21875 -23.04296875 26.828125 C-20.33716224 25.73131624 -19.48761701 24.49241095 -18 22 C-17.08319825 19.52958859 -17.08319825 19.52958859 -16.4375 16.9375 C-15.57732794 13.70578012 -14.89077264 11.83615896 -13 9 C-12.61500109 7.34450469 -12.27206865 5.6777567 -12 4 C-11.01 4.33 -10.02 4.66 -9 5 C-8.87625 4.360625 -8.7525 3.72125 -8.625 3.0625 C-8.315625 2.0415625 -8.315625 2.0415625 -8 1 C-4.98221063 -0.50889469 -3.37677363 -0.50026276 0 0 Z M-8.1875 4.8125 C-13.71941232 10.22576541 -15.23867362 17.17532068 -15.4375 24.6875 C-15.24706057 29.90922644 -14.8214382 33.57974682 -12 38 C-8.17831179 41.45771791 -4.2754745 43.03002141 0.81640625 43.43359375 C3.77128757 42.8468463 4.63153456 41.68365755 6.4375 39.3125 C7.34054448 37.90519136 8.19690143 36.4666423 9 35 C9.37769531 34.36191406 9.75539063 33.72382813 10.14453125 33.06640625 C12.20750914 28.08323134 11.43620744 21.89023224 10.25 16.75 C8.70437348 13.34962166 6.92199305 10.20332175 5 7 C4.34 7 3.68 7 3 7 C2.67 6.01 2.34 5.02 2 4 C-2.30233136 2.88139385 -4.25580448 2.57683 -8.1875 4.8125 Z " fill="#3E1B15" transform="translate(226,182)"/>
<path d="M0 0 C1.32110092 6.71559633 1.32110092 6.71559633 0.4375 10.25 C-2.84944525 14.25149857 -6.51218068 16.1631177 -11.5625 16.9375 C-14.59747563 17.14256592 -16.11911943 16.95867285 -19.0625 15.9375 C-21 14 -21 14 -21.5625 11.1875 C-20.85006694 7.1503793 -19.68728249 5.10071057 -17 2 C-11.91967391 -0.93095736 -5.5734405 -2.78672025 0 0 Z " fill="#A92A1C" transform="translate(188,181)"/>
<path d="M0 0 C3.5 1.625 3.5 1.625 6 4 C6.45703125 6.91015625 6.45703125 6.91015625 6 10 C3.91796875 12.08203125 3.91796875 12.08203125 1.1875 13.8125 C0.29417969 14.39644531 -0.59914062 14.98039063 -1.51953125 15.58203125 C-4 17 -4 17 -7 18 C-6.67 19.32 -6.34 20.64 -6 22 C-9.3702985 20.87656717 -10.32859216 19.82104006 -12.625 17.1875 C-13.23601562 16.50042969 -13.84703125 15.81335938 -14.4765625 15.10546875 C-15.99653007 13.00479562 -16.57890154 11.53228128 -17 9 C-16.01 8.67 -15.02 8.34 -14 8 C-13.690625 7.21625 -13.38125 6.4325 -13.0625 5.625 C-10.64956389 -0.33637156 -5.97592036 -1.01888297 0 0 Z " fill="#3D1D17" transform="translate(223,165)"/>
<path d="M0 0 C2.0625 0.4375 2.0625 0.4375 4 1 C4.49193953 5.13229203 4.2100111 6.69398383 1.8125 10.1875 C-0.71594882 12.71594882 -2.88381209 14.3155741 -6 16 C-6.66 16.66 -7.32 17.32 -8 18 C-15.96199319 20.42908267 -23.7545301 20.19554474 -32 20 C-33.32 17.36 -34.64 14.72 -36 12 C-35.01 12.33 -34.02 12.66 -33 13 C-20.10123662 14.26635826 -12.5366293 10.39340857 -2.71484375 2.453125 C-1.78433283 1.66462828 -0.86243192 0.86243192 0 0 Z " fill="#4A1A13" transform="translate(178,207)"/>
<path d="M0 0 C2.85572721 0.98473352 3.97012206 1.9583843 5.75 4.4375 C8.07586553 11.06621677 7.90593818 17.59767404 5 24 C4.34 23.67 3.68 23.34 3 23 C3 22.34 3 21.68 3 21 C2.34 21.33 1.68 21.66 1 22 C1.33 22.99 1.66 23.98 2 25 C0.35 25.33 -1.3 25.66 -3 26 C-3.45375 25.030625 -3.9075 24.06125 -4.375 23.0625 C-5.65786221 19.92920418 -5.65786221 19.92920418 -8 19 C-8.35892545 13.95510345 -8.58426255 10.14765859 -6.25 5.5625 C-4.28244749 3.32167631 -2.49984673 1.60704432 0 0 Z " fill="#A82A1B" transform="translate(116,154)"/>
<path d="M0 0 C-0.34121084 2.5249602 -0.69504383 4.51565784 -2.0625 6.6875 C-9.16377168 11.49803888 -19.34325901 10.63448438 -27.47265625 9.72265625 C-32.36022669 8.76341345 -34.127521 6.89073196 -37 3 C-36.42668945 2.98018066 -35.85337891 2.96036133 -35.26269531 2.93994141 C-20.6911464 2.45886184 -20.6911464 2.45886184 -6.27734375 0.40234375 C-4 0 -4 0 0 0 Z " fill="#91190C" transform="translate(208,163)"/>
<path d="M0 0 C0.73154297 0.01353516 1.46308594 0.02707031 2.21679688 0.04101562 C3.99902422 0.07596126 5.78086573 0.12975195 7.5625 0.1875 C7.5625 2.1675 7.5625 4.1475 7.5625 6.1875 C4.97460938 7.65234375 4.97460938 7.65234375 2.38671875 9.1171875 C0.74267711 10.08178581 -0.85150588 11.13017059 -2.4375 12.1875 C-7.06672433 12.85212987 -11.11053331 13.02071164 -15.125 10.5 C-16.4375 8.1875 -16.4375 8.1875 -16.625 5.625 C-15.15472292 2.60706283 -13.5281393 2.00290091 -10.48510742 0.78295898 C-6.99141077 -0.23303316 -3.60887117 -0.12877033 0 0 Z " fill="#AA2B1C" transform="translate(183.4375,137.8125)"/>
<path d="M0 0 C1.33333333 2.66666667 2.66666667 5.33333333 4 8 C4.66 8 5.32 8 6 8 C6.5775 8.61875 7.155 9.2375 7.75 9.875 C10.36113753 12.34107433 12.57011055 13.06457561 16 14 C11.81538462 18.92307692 11.81538462 18.92307692 7.6875 19.3125 C6.800625 19.209375 5.91375 19.10625 5 19 C5 19.66 5 20.32 5 21 C6.4391134 20.71640113 7.87625518 20.42278601 9.3125 20.125 C10.51326172 19.88136719 10.51326172 19.88136719 11.73828125 19.6328125 C14.25301118 19.05521001 14.25301118 19.05521001 17 17 C18.485 23.435 18.485 23.435 20 30 C20.66 30 21.32 30 22 30 C23.625 32.5 23.625 32.5 25 35 C20.94724988 33.68559456 19.50298476 32.33731302 17 29 C15.33927151 28.31867549 13.672233 27.65257873 12 27 C10.66666667 25.66666667 9.33333333 24.33333333 8 23 C6.34183216 22.31246699 4.67540664 21.64438717 3 21 C1.1875 19.375 1.1875 19.375 0 18 C0.33 17.34 0.66 16.68 1 16 C1.2236068 13.0745356 1.2236068 13.0745356 0 11 C-0.07033769 9.12620395 -0.0843022 7.24998898 -0.0625 5.375 C-0.05347656 4.37210938 -0.04445312 3.36921875 -0.03515625 2.3359375 C-0.02355469 1.56507813 -0.01195312 0.79421875 0 0 Z " fill="#901A0D" transform="translate(192,191)"/>
<path d="M0 0 C0 0.66 0 1.32 0 2 C0.598125 2.0825 1.19625 2.165 1.8125 2.25 C4.70082825 3.24028397 5.52742652 4.34936773 7 7 C7.1875 9.75 7.1875 9.75 7 12 C6.34 12 5.68 12 5 12 C4.67 12.99 4.34 13.98 4 15 C-0.14543004 18.85129753 -4.53158719 19.03349717 -10 19 C-12.50477577 18.55667686 -14.60140737 17.88643641 -17 17 C-17 16.34 -17 15.68 -17 15 C-17.639375 14.773125 -18.27875 14.54625 -18.9375 14.3125 C-21 13 -21 13 -21.8125 10.625 C-21.99255639 8.10421049 -21.79321253 6.3796376 -21 4 C-20.34 4 -19.68 4 -19 4 C-19 3.01 -19 2.02 -19 1 C-12.40337662 -2.89800472 -7.26907397 -1.65911541 0 0 Z M-17 4 C-18.01935662 7.12602698 -18.27695578 9.09359927 -17.3125 12.25 C-15.34266223 14.87645036 -13.09323154 15.80802773 -9.88671875 16.37109375 C-3.63594071 16.55983838 -0.7474267 15.04036315 4 11 C3.65479552 9.03506426 3.65479552 9.03506426 3 7 C1.0162233 5.71563266 1.0162233 5.71563266 -1 5 C-1 4.34 -1 3.68 -1 3 C-2.72722728 2.77615618 -4.45696007 2.57160031 -6.1875 2.375 C-7.63189453 2.20097656 -7.63189453 2.20097656 -9.10546875 2.0234375 C-12.2946163 1.99761444 -14.2108105 2.47140505 -17 4 Z " fill="#381C16" transform="translate(102,187)"/>
<path d="M0 0 C3.24982356 0.17104335 4.7364965 0.78041375 7.25 2.875 C9.95904483 6.16455444 10.15714298 8.94001625 10.1875 13.0625 C10.20167969 13.94035156 10.21585938 14.81820312 10.23046875 15.72265625 C10 18 10 18 8 20 C4.5625 20.375 4.5625 20.375 1 20 C-1.59150518 17.59869704 -1.98308103 16.15754654 -2.36328125 12.6171875 C-2.34652344 11.38226563 -2.32976562 10.14734375 -2.3125 8.875 C-2.30863281 7.63492188 -2.30476563 6.39484375 -2.30078125 5.1171875 C-2 2 -2 2 0 0 Z " fill="#A82A1C" transform="translate(127,135)"/>
<path d="M0 0 C-0.34529696 2.69331632 -0.68504498 3.74426729 -2.828125 5.484375 C-9.97907587 9.22132352 -16.01779253 9.56300836 -24 9 C-24 8.01 -24 7.02 -24 6 C-24.66 6 -25.32 6 -26 6 C-25.625 4.0625 -25.625 4.0625 -25 2 C-17.57361751 -1.71319124 -7.98713635 -1.33419433 0 0 Z " fill="#C13B2C" transform="translate(169,212)"/>
<path d="M0 0 C1.32 0.33 2.64 0.66 4 1 C4 1.99 4 2.98 4 4 C3.37609375 4.55171875 2.7521875 5.1034375 2.109375 5.671875 C-0.83830216 8.9252372 -1.11212366 12.00249402 -1.75 16.25 C-1.87503906 16.99507812 -2.00007812 17.74015625 -2.12890625 18.5078125 C-2.43363834 20.33620503 -2.71878521 22.16784304 -3 24 C-4.65 24.33 -6.3 24.66 -8 25 C-8 24.34 -8 23.68 -8 23 C-8.99 23 -9.98 23 -11 23 C-11.40274706 16.55604708 -9.8690653 11.73813059 -7 6 C-6.38125 5.71125 -5.7625 5.4225 -5.125 5.125 C-2.63203665 3.80519587 -1.54852219 2.32278328 0 0 Z " fill="#C33D2E" transform="translate(225,190)"/>
<path d="M0 0 C1.85625 0.1546875 1.85625 0.1546875 3.75 0.3125 C3.75 0.9725 3.75 1.6325 3.75 2.3125 C5.07 2.9725 6.39 3.6325 7.75 4.3125 C7.6875 6.5625 7.6875 6.5625 6.75 9.3125 C2.68531019 12.40166426 1.01078815 13.37350588 -4.125 13.125 C-7.25 12.3125 -7.25 12.3125 -8.25 11.3125 C-8.66332804 7.67521325 -8.45589703 5.70713597 -6.75 2.4375 C-4.01112567 0.10945682 -3.41890388 0.00606189 0 0 Z " fill="#BD3C2E" transform="translate(191.25,215.6875)"/>
<path d="M0 0 C0.33 0.99 0.66 1.98 1 3 C0.236875 3.4125 -0.52625 3.825 -1.3125 4.25 C-4.06185486 5.81875618 -4.06185486 5.81875618 -5.625 8.1875 C-6.07875 8.785625 -6.5325 9.38375 -7 10 C-7.99 10 -8.98 10 -10 10 C-11.70695733 15.65571861 -13.39334698 21.31492008 -15 27 C-15.66 27 -16.32 27 -17 27 C-17.7455766 16.57849595 -16.62107991 8.3507241 -9.625 0.25 C-6.08485318 -1.4357842 -3.74793023 -0.88186594 0 0 Z " fill="#901A0D" transform="translate(228,186)"/>
<path d="M0 0 C5.61926695 0.28096335 8.98352071 0.74725722 13 5 C14.3125 7.75 14.3125 7.75 15 10 C11.07142246 11.85131483 8.01224888 12.22004943 3.6875 12.125 C2.61886719 12.10695312 1.55023438 12.08890625 0.44921875 12.0703125 C-0.35902344 12.04710937 -1.16726562 12.02390625 -2 12 C-3.06106444 8.81680668 -2.96156637 7.98060942 -2.125 4.875 C-1.94195312 4.17117187 -1.75890625 3.46734375 -1.5703125 2.7421875 C-1 1 -1 1 0 0 Z " fill="#A92A1B" transform="translate(148,128)"/>
<path d="M0 0 C0 0.66 0 1.32 0 2 C0.66 2 1.32 2 2 2 C1.64505955 4.62655933 1.27538036 6.57968261 -0.1875 8.8125 C-2.95683749 10.62689353 -4.74884908 10.4462364 -8 10 C-11.125 8.125 -11.125 8.125 -14 6 C-14.763125 5.67 -15.52625 5.34 -16.3125 5 C-18 4 -18 4 -18.60546875 1.9375 C-18.73566406 1.298125 -18.86585938 0.65875 -19 0 C-18.10796875 0.01160156 -17.2159375 0.02320313 -16.296875 0.03515625 C-14.54117188 0.04869141 -14.54117188 0.04869141 -12.75 0.0625 C-11.00976562 0.07990234 -11.00976562 0.07990234 -9.234375 0.09765625 C-0.34168565 -0.17084282 -0.34168565 -0.17084282 0 0 Z " fill="#8D190C" transform="translate(164,139)"/>
<path d="M0 0 C0.33 0 0.66 0 1 0 C0.76964842 3.91597693 0.26938523 6.54781766 -1.75 9.9375 C-6.81000383 13.14865628 -12.16310181 12.86686607 -18 12 C-21.34844243 10.38367025 -22.66916475 9.67742457 -24.3125 6.3125 C-24.539375 5.549375 -24.76625 4.78625 -25 4 C-23.33388095 3.957279 -21.66617115 3.95936168 -20 4 C-19.67 4.33 -19.34 4.66 -19 5 C-16.67182036 5.36760731 -14.3381615 5.70241581 -12 6 C-12 6.66 -12 7.32 -12 8 C-10.35 8 -8.7 8 -7 8 C-7 7.01 -7 6.02 -7 5 C-2.77777778 2 -2.77777778 2 0 2 C0 1.34 0 0.68 0 0 Z " fill="#8F190D" transform="translate(137,208)"/>
<path d="M0 0 C0.495 1.485 0.495 1.485 1 3 C-3.1991326 11.04833749 -9.95499782 14.44895331 -18.34765625 17.26953125 C-21.76404502 18.21042182 -24.4897724 18.57309838 -28 18 C-30.19140625 15.96875 -30.19140625 15.96875 -32 14 C-30.87464844 13.97873047 -30.87464844 13.97873047 -29.7265625 13.95703125 C-17.7684662 13.39978999 -8.47550278 8.47550278 0 0 Z " fill="#8F1A0D" transform="translate(178,207)"/>
<path d="M0 0 C0.93423645 3.01031744 1.04449911 3.86650268 0 7 C-3.08964261 9.34812838 -6.35215595 9.3463177 -10.09375 9.26953125 C-12.69108832 8.90228464 -14.16686846 7.83313154 -16 6 C-15 3 -15 3 -12.5 1.3125 C-8.17404258 -0.30973403 -4.55938053 -0.27356283 0 0 Z " fill="#BE3D2E" transform="translate(225,169)"/>
<path d="M0 0 C0 1.32 0 2.64 0 4 C-5.63526965 5.20484722 -11.14536115 5.1129643 -16.875 5.0625 C-17.84953125 5.05798828 -18.8240625 5.05347656 -19.828125 5.04882812 C-22.21881434 5.03710906 -24.6093744 5.02070219 -27 5 C-26.67 3.68 -26.34 2.36 -26 1 C-8.14350797 -0.14806378 -8.14350797 -0.14806378 0 0 Z " fill="#C53E2F" transform="translate(198,161)"/>
<path d="M0 0 C2.4375 0.375 2.4375 0.375 5 1 C5.33 1.66 5.66 2.32 6 3 C5.67 3.66 5.34 4.32 5 5 C6.4391134 4.71640113 7.87625518 4.42278601 9.3125 4.125 C10.11300781 3.96257812 10.91351563 3.80015625 11.73828125 3.6328125 C14.25301118 3.05521001 14.25301118 3.05521001 17 1 C17.99 5.29 18.98 9.58 20 14 C20.66 14 21.32 14 22 14 C23.625 16.5 23.625 16.5 25 19 C20.94724988 17.68559456 19.50298476 16.33731302 17 13 C15.33927151 12.31867549 13.672233 11.65257873 12 11 C10.66666667 9.66666667 9.33333333 8.33333333 8 7 C6.34183216 6.31246699 4.67540664 5.64438717 3 5 C1.1875 3.5 1.1875 3.5 0 2 C0 1.34 0 0.68 0 0 Z " fill="#6B1A10" transform="translate(192,207)"/>
<path d="M0 0 C0.33 0.66 0.66 1.32 1 2 C0.01 3.485 0.01 3.485 -1 5 C-1.66 5 -2.32 5 -3 5 C-3.144375 6.051875 -3.28875 7.10375 -3.4375 8.1875 C-4.03956899 12.26818985 -4.69580471 16.08741412 -6 20 C-7.65 19.67 -9.3 19.34 -11 19 C-11.68135647 12.59524916 -9.94343154 8.10506254 -6 3 C-2.6875 0.9375 -2.6875 0.9375 0 0 Z " fill="#8F1A0D" transform="translate(153,167)"/>
<path d="M0 0 C-0.33 1.65 -0.66 3.3 -1 5 C-1.99 5 -2.98 5 -4 5 C-4 5.99 -4 6.98 -4 8 C-5.65 8 -7.3 8 -9 8 C-9 7.34 -9 6.68 -9 6 C-11.31 6 -13.62 6 -16 6 C-16 4.68 -16 3.36 -16 2 C-10.48351346 -1.62926746 -6.21369499 -1.01924246 0 0 Z " fill="#C23C2D" transform="translate(134,208)"/>
<path d="M0 0 C0.99 0 1.98 0 3 0 C3.23074219 0.54269531 3.46148437 1.08539063 3.69921875 1.64453125 C5.7762575 6.20088109 7.24146236 8.87118053 12 11 C12.66 11.33 13.32 11.66 14 12 C13.67 13.32 13.34 14.64 13 16 C8.8333396 15.52651586 6.07115285 14.95303159 3 12 C3 11.34 3 10.68 3 10 C2.34 10 1.68 10 1 10 C0.63883954 8.5225254 0.28624952 7.04295325 -0.0625 5.5625 C-0.25972656 4.73878906 -0.45695313 3.91507813 -0.66015625 3.06640625 C-0.82837891 2.04353516 -0.82837891 2.04353516 -1 1 C-0.67 0.67 -0.34 0.34 0 0 Z " fill="#C13C2D" transform="translate(195,189)"/>
<path d="M0 0 C1.4540625 0.0309375 1.4540625 0.0309375 2.9375 0.0625 C3.123125 1.155625 3.30875 2.24875 3.5 3.375 C4.51266528 7.0115498 4.51266528 7.0115498 6.62890625 8.1953125 C8.77400143 9.12176212 8.77400143 9.12176212 11.9375 10.0625 C11.9375 10.3925 11.9375 10.7225 11.9375 11.0625 C9.83396505 11.1435206 7.72954048 11.20169907 5.625 11.25 C3.86736328 11.30220703 3.86736328 11.30220703 2.07421875 11.35546875 C-1.0625 11.0625 -1.0625 11.0625 -2.96484375 9.77734375 C-4.7624219 6.9690277 -4.30165293 4.29106456 -4.0625 1.0625 C-3.0625 0.0625 -3.0625 0.0625 0 0 Z " fill="#91190C" transform="translate(132.0625,155.9375)"/>
<path d="M0 0 C-1.32038663 3.56504389 -3.46360868 5.3111324 -6.40234375 7.62890625 C-8.95307912 9.81792365 -10.91862222 12.36766927 -13 15 C-13.99 14.67 -14.98 14.34 -16 14 C-15.49270927 9.56120611 -14.06272483 7.22827752 -11 4 C-7.23971513 1.03977574 -4.8448096 -0.5699776 0 0 Z " fill="#C23C2D" transform="translate(164,165)"/>
<path d="M0 0 C5.46137814 -0.09752461 10.59255982 0.22750855 16 1 C16.96349722 3.60144251 17.0123938 4.94670665 16.375 7.6875 C15 10 15 10 12.375 10.8125 C11.199375 10.9053125 11.199375 10.9053125 10 11 C10.99 10.67 11.98 10.34 13 10 C13 8.02 13 6.04 13 4 C10.43719792 4.14154136 7.87484515 4.28808562 5.3125 4.4375 C4.59126953 4.47681641 3.87003906 4.51613281 3.12695312 4.55664062 C-0.66707282 4.78185678 -4.28651492 5.12839305 -8 6 C-7.67 5.34 -7.34 4.68 -7 4 C-4.6859378 3.26924352 -2.35171131 2.59861742 0 2 C0 1.34 0 0.68 0 0 Z " fill="#521F17" transform="translate(178,134)"/>
<path d="M0 0 C1 2 1 2 0.4375 5.1875 C-0.05429934 9.47317998 0.29436268 12.04602257 2 16 C5.79708809 18.06437053 9.04425904 18.21880749 13.3125 18.125 C14.38113281 18.10695312 15.44976562 18.08890625 16.55078125 18.0703125 C17.76314453 18.03550781 17.76314453 18.03550781 19 18 C18.67 18.66 18.34 19.32 18 20 C15.97511372 20.28926947 13.94755984 20.57272154 11.91015625 20.75390625 C9.91747967 20.90406878 9.91747967 20.90406878 8 22 C5.96855359 21.06553465 3.96466413 20.06775224 2 19 C2 18.34 2 17.68 2 17 C1.01 16.67 0.02 16.34 -1 16 C-3.81633599 10.97082859 -4.57827847 7.74944299 -3 2 C-2.01 1.34 -1.02 0.68 0 0 Z " fill="#3D1B15" transform="translate(112,201)"/>
<path d="M0 0 C0.33 0.66 0.66 1.32 1 2 C2.299375 1.979375 3.59875 1.95875 4.9375 1.9375 C6.29165633 1.91600546 7.64756083 1.92851801 9 2 C9.33 2.33 9.66 2.66 10 3 C11.68608966 3.07205511 13.37500659 3.08386068 15.0625 3.0625 C15.98160156 3.05347656 16.90070313 3.04445312 17.84765625 3.03515625 C18.55792969 3.02355469 19.26820313 3.01195312 20 3 C16.29202598 6.83157316 14.47129344 8.16178846 9.125 8.3125 C5.62268493 8.27707196 4.34825091 8.23216727 1.375 6.25 C0 4 0 4 0 0 Z " fill="#901A0D" transform="translate(167,142)"/>
<path d="M0 0 C0.99 0.33 1.98 0.66 3 1 C3.06058594 1.66386719 3.12117187 2.32773438 3.18359375 3.01171875 C3.79863507 9.54908081 3.79863507 9.54908081 5 16 C3.35 16 1.7 16 0 16 C-1.97346879 11.06632803 -2.34916177 7.23742659 -2 2 C-1.34 1.34 -0.68 0.68 0 0 Z " fill="#C23C2E" transform="translate(125,182)"/>
<path d="M0 0 C-3.75 3 -3.75 3 -6 3 C-6 3.66 -6 4.32 -6 5 C-6.66 5 -7.32 5 -8 5 C-10.19466565 9.24302026 -11.15468499 12.58400886 -11.1875 17.375 C-11.20167969 18.31085938 -11.21585938 19.24671875 -11.23046875 20.2109375 C-10.98668108 23.16118154 -10.23112508 25.32364112 -9 28 C-9.99 28 -10.98 28 -12 28 C-14.97949368 22.91804102 -14.78921764 17.71668078 -14 12 C-12.16526072 7.03577232 -10.27771063 2.23596701 -5.48046875 -0.3671875 C-3 -1 -3 -1 0 0 Z " fill="#3E1B15" transform="translate(204,179)"/>
<path d="M0 0 C0.99 0 1.98 0 3 0 C2.88204674 6.01561635 2.88204674 6.01561635 0.5859375 8.578125 C-3.25599953 11.5230459 -6.04844437 12.60384825 -11 12 C-10.74609375 10.125 -10.74609375 10.125 -10 8 C-8.22265625 6.875 -8.22265625 6.875 -6.0625 6 C-3.34998625 4.89727209 -2.25599839 4.4338415 -0.74609375 1.875 C-0.49988281 1.25625 -0.25367188 0.6375 0 0 Z " fill="#C03A2B" transform="translate(181,185)"/>
<path d="M0 0 C0.33 0 0.66 0 1 0 C1.05395478 1.62463842 1.09277195 3.24978541 1.125 4.875 C1.14820313 5.77992188 1.17140625 6.68484375 1.1953125 7.6171875 C1 10 1 10 -1 12 C-4.4375 12.4375 -4.4375 12.4375 -8 12 C-9.9375 9.5 -9.9375 9.5 -11 7 C-9.906875 6.896875 -8.81375 6.79375 -7.6875 6.6875 C-3.55944323 5.95315172 -3.55944323 5.95315172 -1 3 C-0.67 2.01 -0.34 1.02 0 0 Z " fill="#911C0F" transform="translate(136,143)"/>
<path d="M0 0 C0.66 0 1.32 0 2 0 C3.2 7.2 3.2 7.2 2.4375 10.25 C-0.98627365 14.41807226 -4.61120497 16.16144969 -9.875 16.75 C-11.24890621 16.84975557 -12.62383557 16.93883714 -14 17 C-13.39414063 16.71382812 -12.78828125 16.42765625 -12.1640625 16.1328125 C-9.81772766 14.99510118 -9.81772766 14.99510118 -7.375 12.875 C-5 11 -5 11 -3 11 C-1.72746564 7.35206816 -0.67170806 3.8063457 0 0 Z " fill="#8E1B0E" transform="translate(186,181)"/>
<path d="M0 0 C0.99 0.33 1.98 0.66 3 1 C3 2.32 3 3.64 3 5 C-1.92737019 6.97094808 -5.78020872 7.1799928 -11 7 C-11 5.68 -11 4.36 -11 3 C-10.28972656 2.86722656 -9.57945312 2.73445312 -8.84765625 2.59765625 C-7.92855469 2.42105469 -7.00945312 2.24445313 -6.0625 2.0625 C-4.68771484 1.80146484 -4.68771484 1.80146484 -3.28515625 1.53515625 C-1.04710156 1.22285012 -1.04710156 1.22285012 0 0 Z " fill="#C03B2C" transform="translate(188,139)"/>
<path d="M0 0 C0.99 0.33 1.98 0.66 3 1 C2.67 1.66 2.34 2.32 2 3 C1.92818179 5.71760108 1.90700494 8.40859388 1.9375 11.125 C1.94201172 11.87910156 1.94652344 12.63320312 1.95117188 13.41015625 C1.96296501 15.27347127 1.98090058 17.13674555 2 19 C0.68 19 -0.64 19 -2 19 C-2.94250209 13.24026498 -3.36914067 7.73848525 -2 2 C-1.34 1.34 -0.68 0.68 0 0 Z " fill="#621E15" transform="translate(124,134)"/>
<path d="M0 0 C4.03520597 1.58962659 8.01811282 3.28232318 12 5 C12 6.32 12 7.64 12 9 C6.37458159 8.54996653 3.38512875 7.31558515 -1 4 C-0.67 2.68 -0.34 1.36 0 0 Z " fill="#C43D2E" transform="translate(136,158)"/>
<path d="M0 0 C0.99 0.33 1.98 0.66 3 1 C2.50886719 1.83789062 2.01773438 2.67578125 1.51171875 3.5390625 C-0.20202112 7.46250831 -0.30790664 10.12063208 -0.1875 14.375 C-0.16042969 15.62023437 -0.13335937 16.86546875 -0.10546875 18.1484375 C-0.07066406 19.08945313 -0.03585938 20.03046875 0 21 C-4.6952463 15.39599635 -5.11588746 12.06913526 -5 5 C-4.01 5.33 -3.02 5.66 -2 6 C-1.7834375 5.071875 -1.7834375 5.071875 -1.5625 4.125 C-1 2 -1 2 0 0 Z " fill="#90190C" transform="translate(124,174)"/>
<path d="M0 0 C0.5625 1.9375 0.5625 1.9375 1 4 C0 5 0 5 -2.72265625 5.09765625 C-4.37587891 5.08025391 -4.37587891 5.08025391 -6.0625 5.0625 C-7.71958984 5.04896484 -7.71958984 5.04896484 -9.41015625 5.03515625 C-10.26480469 5.02355469 -11.11945313 5.01195312 -12 5 C-12 3.68 -12 2.36 -12 1 C-7.95858806 0.36605303 -4.0934693 -0.12404452 0 0 Z " fill="#C43D2E" transform="translate(158,135)"/>
<path d="M0 0 C0.99 0 1.98 0 3 0 C7.57142857 7.28571429 7.57142857 7.28571429 7 12 C4.41851492 11.64393309 3.17954253 11.16671807 1.25 9.375 C-0.43754802 6.16865877 -0.20576047 3.56651486 0 0 Z " fill="#BB3C2E" transform="translate(106,176)"/>
<path d="M0 0 C0.33 0.66 0.66 1.32 1 2 C6.09787123 5.02096073 11.0971481 6.28108819 17 6 C17 6.66 17 7.32 17 8 C15.02 8 13.04 8 11 8 C11 8.66 11 9.32 11 10 C7.4257023 9.67506385 5.44287547 9.36129314 2.625 7.0625 C1 5 1 5 1 3 C0.34 3 -0.32 3 -1 3 C-0.67 2.01 -0.34 1.02 0 0 Z " fill="#441D16" transform="translate(213,218)"/>
<path d="M0 0 C0.33 0 0.66 0 1 0 C1.55350702 3.76384777 1.043976 4.93717714 -1.1875 8.125 C-3.50628173 10.69410475 -5.94653926 12.34948068 -9 14 C-9.66 14.66 -10.32 15.32 -11 16 C-13.1640625 16.4140625 -13.1640625 16.4140625 -15.625 16.625 C-16.44226563 16.69976562 -17.25953125 16.77453125 -18.1015625 16.8515625 C-18.72804687 16.90054688 -19.35453125 16.94953125 -20 17 C-17.58504335 14.97143641 -15.5021578 13.79181144 -12.5625 12.5625 C-5.96446377 9.66862446 -3.22555963 6.21218892 0 0 Z " fill="#8B190C" transform="translate(181,209)"/>
<path d="M0 0 C0.33 0 0.66 0 1 0 C1.99 4.29 2.98 8.58 4 13 C4.66 13 5.32 13 6 13 C7.625 15.5 7.625 15.5 9 18 C4.57882285 16.64908476 2.556657 14.8349855 0 11 C-0.35169068 9.67139075 -0.68770276 8.33841672 -1 7 C-2.47890069 5.26973898 -2.47890069 5.26973898 -4 4 C-3.34 4 -2.68 4 -2 4 C-1.34 2.68 -0.68 1.36 0 0 Z " fill="#972619" transform="translate(208,208)"/>
<path d="M0 0 C0.99 0.33 1.98 0.66 3 1 C3.56638908 5.81430721 1.82561627 8.20307814 -1 12 C-2.32 10.68 -3.64 9.36 -5 8 C-4.54625 7.4225 -4.0925 6.845 -3.625 6.25 C-2.15886484 4.2199667 -1.05142216 2.26460157 0 0 Z " fill="#C43D2F" transform="translate(114,164)"/>
<path d="M0 0 C3.3 0 6.6 0 10 0 C10 1.32 10 2.64 10 4 C6.37 4 2.74 4 -1 4 C-0.67 2.68 -0.34 1.36 0 0 Z " fill="#C53E2F" transform="translate(176,157)"/>
<path d="M0 0 C0.33 0 0.66 0 1 0 C1.05449838 1.72880982 1.09301688 3.45812712 1.125 5.1875 C1.14820312 6.15042969 1.17140625 7.11335937 1.1953125 8.10546875 C0.9913544 11.12812778 0.26874632 13.26769985 -1 16 C-1.66 15.67 -2.32 15.34 -3 15 C-3.42589023 9.46342706 -1.905247 5.10334017 0 0 Z " fill="#901B0E" transform="translate(122,162)"/>
<path d="M0 0 C0.66 0 1.32 0 2 0 C1.64505955 2.62655933 1.27538036 4.57968261 -0.1875 6.8125 C-2.79361661 8.51995571 -4.9599355 8.20267097 -8 8 C-7.67 7.01 -7.34 6.02 -7 5 C-5.33927151 4.31867549 -3.672233 3.65257873 -2 3 C-1.34 2.01 -0.68 1.02 0 0 Z " fill="#C13B2C" transform="translate(134,142)"/>
<path d="M0 0 C0.66 0.33 1.32 0.66 2 1 C0.33333333 2.66666667 -1.33333333 4.33333333 -3 6 C-3.804375 6.86625 -3.804375 6.86625 -4.625 7.75 C-6 9 -6 9 -9 10 C-9 8.68 -9 7.36 -9 6 C-7.03125 4.296875 -7.03125 4.296875 -4.5 2.75 C-3.6646875 2.22921875 -2.829375 1.7084375 -1.96875 1.171875 C-1.3190625 0.78515625 -0.669375 0.3984375 0 0 Z " fill="#541F17" transform="translate(115,152)"/>
<path d="M0 0 C0.66 0 1.32 0 2 0 C2.73080266 1.97746603 3.39421747 3.98072489 4 6 C3.67 6.66 3.34 7.32 3 8 C0.9375 8.625 0.9375 8.625 -1 9 C-1.125 2.25 -1.125 2.25 0 0 Z " fill="#501C14" transform="translate(165,144)"/>
<path d="M0 0 C1.98 1.65 3.96 3.3 6 5 C5.67 6.65 5.34 8.3 5 10 C2.66666667 7.66666667 0.33333333 5.33333333 -2 3 C-1.34 2.01 -0.68 1.02 0 0 Z " fill="#551E17" transform="translate(136,201)"/>
<path d="M0 0 C0.99 0.33 1.98 0.66 3 1 C2.67 1.66 2.34 2.32 2 3 C1.7724985 4.87056791 1.59037189 6.74685958 1.4375 8.625 C1.35371094 9.62789062 1.26992187 10.63078125 1.18359375 11.6640625 C1.12300781 12.43492187 1.06242187 13.20578125 1 14 C0.67 14 0.34 14 0 14 C-0.144375 12.7625 -0.28875 11.525 -0.4375 10.25 C-0.71549453 7.93610432 -1.03806239 5.86851174 -1.6875 3.625 C-1.790625 3.08875 -1.89375 2.5525 -2 2 C-1.34 1.34 -0.68 0.68 0 0 Z " fill="#752319" transform="translate(124,134)"/>
<path d="M0 0 C2.375 0.25 2.375 0.25 5 1 C6.3125 3.0625 6.3125 3.0625 7 5 C6.01 5.33 5.02 5.66 4 6 C2.62437146 4.71034824 1.29233607 3.37310707 0 2 C0 1.34 0 0.68 0 0 Z " fill="#3E1D17" transform="translate(202,213)"/>
<path d="M0 0 C2.05078125 0.03255208 4.1015625 0.06510417 6.15234375 0.09765625 C5.16234375 0.42765625 4.17234375 0.75765625 3.15234375 1.09765625 C3.15234375 2.08765625 3.15234375 3.07765625 3.15234375 4.09765625 C1.50234375 4.09765625 -0.14765625 4.09765625 -1.84765625 4.09765625 C-2.17765625 3.10765625 -2.50765625 2.11765625 -2.84765625 1.09765625 C-1.84765625 0.09765625 -1.84765625 0.09765625 0 0 Z " fill="#AE2D1F" transform="translate(126.84765625,211.90234375)"/>
<path d="M0 0 C0.66 0 1.32 0 2 0 C2.1953125 2.01822917 2.390625 4.03645833 2.5859375 6.0546875 C2.86374749 8.22668245 2.86374749 8.22668245 5 10 C4.01 10.495 4.01 10.495 3 11 C0.64018187 10.06421005 -1.69631264 9.06652192 -4 8 C-4 7.67 -4 7.34 -4 7 C-2.35 7 -0.7 7 1 7 C1 5.35 1 3.7 1 2 C0.34 1.67 -0.32 1.34 -1 1 C-0.67 0.67 -0.34 0.34 0 0 Z " fill="#5C2017" transform="translate(165,187)"/>
<path d="M0 0 C0 0.99 0 1.98 0 3 C-2.97 3 -5.94 3 -9 3 C-9 2.34 -9 1.68 -9 1 C-5.64919071 -1.10976881 -3.77897651 -1.0497157 0 0 Z " fill="#862418" transform="translate(125,195)"/>
<path d="M0 0 C4.75 0.75 4.75 0.75 7 3 C6 4 6 4 2.4375 4.0625 C1.303125 4.041875 0.16875 4.02125 -1 4 C-0.67 2.68 -0.34 1.36 0 0 Z " fill="#531F17" transform="translate(179,176)"/>
<path d="M0 0 C1.65 0.33 3.3 0.66 5 1 C4.67 1.99 4.34 2.98 4 4 C2.02 4.33 0.04 4.66 -2 5 C-1.34 3.35 -0.68 1.7 0 0 Z " fill="#90190D" transform="translate(162,159)"/>
<path d="M0 0 C2.1640625 -0.29296875 2.1640625 -0.29296875 4.625 -0.1875 C5.44226563 -0.16042969 6.25953125 -0.13335937 7.1015625 -0.10546875 C8.04128906 -0.05326172 8.04128906 -0.05326172 9 0 C9 0.66 9 1.32 9 2 C7.02 2 5.04 2 3 2 C3 2.66 3 3.32 3 4 C1.35 3.67 -0.3 3.34 -2 3 C-1.34 2.01 -0.68 1.02 0 0 Z " fill="#612118" transform="translate(221,224)"/>
<path d="M0 0 C2 1 2 1 3.125 4.0625 C3.41375 5.031875 3.7025 6.00125 4 7 C3.34 7 2.68 7 2 7 C2 6.34 2 5.68 2 5 C1.01 5.33 0.02 5.66 -1 6 C-1.33 4.35 -1.66 2.7 -2 1 C-1.34 0.67 -0.68 0.34 0 0 Z " fill="#A02517" transform="translate(166,162)"/>
</svg>
