<?xml version="1.0" encoding="UTF-8"?>
<svg version="1.1" xmlns="http://www.w3.org/2000/svg" width="320" height="320">
<path d="M0 0 C0.08115993 3.06303578 0.14057409 6.12390815 0.1875 9.1875 C0.22520508 10.48397461 0.22520508 10.48397461 0.26367188 11.80664062 C0.31991368 16.69967743 0.26389979 20.07439843 -3 24 C-14.70622301 34.68948533 -32.06925256 39.30551315 -47.125 42.5625 C-48.78478979 42.9387056 -50.44412625 43.31691628 -52.10302734 43.69702148 C-59.24765999 45.32468782 -66.40741586 46.87941688 -73.57521057 48.40150452 C-88.19857712 51.50914281 -102.29701816 54.76141879 -115.93505859 61.04882812 C-117.88735346 61.94811174 -119.8550983 62.79727107 -121.83203125 63.640625 C-128.17034886 66.51977258 -133.31909613 69.80789916 -138.53515625 74.36328125 C-139.43638466 75.14367516 -139.43638466 75.14367516 -140.3558197 75.93983459 C-147.22816357 81.96627416 -153.65013501 88.43005729 -160.0625 94.9375 C-161.2566781 96.14175555 -162.45133843 97.34553309 -163.64648438 98.54882812 C-165.82596939 100.74440014 -168.00269981 102.94261851 -170.17602539 105.14428711 C-186.89091686 122.05183696 -207.48472364 134.83969447 -231.83276367 135.48754883 C-248.04681136 135.55257332 -267.87734772 134.72618475 -281.5 124.75 C-286.27232872 119.50043841 -289.26446179 114.65827923 -289.625 107.4375 C-289.25149238 100.20962278 -285.98395825 95.64082832 -280.8125 90.8125 C-275.02279972 86.17315501 -268.09786761 83.05464589 -261 81 C-261 80.34 -261 79.68 -261 79 C-261.66 79 -262.32 79 -263 79 C-263.75 76.75 -263.75 76.75 -264 74 C-262.1875 71.6875 -262.1875 71.6875 -260 70 C-259.34 70 -258.68 70 -258 70 C-257.9175 69.21625 -257.835 68.4325 -257.75 67.625 C-257 65 -257 65 -255.3125 63.5 C-253 63 -253 63 -250.3125 64.4375 C-245.89981653 66.51895447 -242.68388809 65.86391714 -238 65 C-238.33644531 64.40574219 -238.67289063 63.81148438 -239.01953125 63.19921875 C-240.36912264 60.17204761 -239.77242516 58.15992112 -239 55 C-238 54 -238 54 -235.67578125 53.6875 C-232.15875678 54.09824738 -231.35976889 55.27401551 -229.1875 58 C-228.58292969 58.7425 -227.97835937 59.485 -227.35546875 60.25 C-226.90816406 60.8275 -226.46085937 61.405 -226 62 C-225.08541016 61.505 -225.08541016 61.505 -224.15234375 61 C-222 60 -222 60 -219.5625 60 C-215.82088168 61.46014374 -214.38333883 63.79951643 -212 67 C-211.67 66.34 -211.34 65.68 -211 65 C-210.01 64.67 -209.02 64.34 -208 64 C-208.61875 62.9275 -209.2375 61.855 -209.875 60.75 C-210.41833984 59.78707031 -210.41833984 59.78707031 -210.97265625 58.8046875 C-211.72686466 57.47980429 -212.51137824 56.17205427 -213.3125 54.875 C-214.25826852 52.29563131 -213.77050473 50.59169773 -213 48 C-212 47 -212 47 -208.9375 46.9375 C-207.968125 46.958125 -206.99875 46.97875 -206 47 C-205.67 47.66 -205.34 48.32 -205 49 C-204.01 46.03 -204.01 46.03 -203 43 C-201.35 42.67 -199.7 42.34 -198 42 C-195.26755647 45.92237862 -194.53386765 48.87567581 -194.25 53.625 C-194.13398438 55.31496094 -194.13398438 55.31496094 -194.015625 57.0390625 C-194 60 -194 60 -195 63 C-194.34 63 -193.68 63 -193 63 C-193.03480469 62.24074219 -193.06960937 61.48148438 -193.10546875 60.69921875 C-193.13253906 59.70535156 -193.15960938 58.71148437 -193.1875 57.6875 C-193.23970703 56.20830078 -193.23970703 56.20830078 -193.29296875 54.69921875 C-193 52 -193 52 -191.48828125 50.14453125 C-190.99714844 49.76683594 -190.50601563 49.38914063 -190 49 C-189.03760548 50.24687592 -188.08025991 51.49764969 -187.125 52.75 C-186.59132813 53.44609375 -186.05765625 54.1421875 -185.5078125 54.859375 C-184 57 -184 57 -183.0625 59.15625 C-181.67458956 61.56468283 -180.48317474 61.90865331 -177.875 62.75 C-176.78832031 63.11351562 -176.78832031 63.11351562 -175.6796875 63.484375 C-175.12539062 63.65453125 -174.57109375 63.8246875 -174 64 C-175.33333333 66.66666667 -176.66666667 69.33333333 -178 72 C-176.515 73.98 -176.515 73.98 -175 76 C-174.31711914 75.57291748 -173.63423828 75.14583496 -172.93066406 74.70581055 C-160.67780989 67.05957802 -148.42895587 59.52379963 -135.71240234 52.66503906 C-131.17457445 50.21321575 -126.74634393 47.67571419 -122.375 44.9375 C-33.82201893 -10.39408387 -33.82201893 -10.39408387 0 0 Z M-210 69 C-209.01 70.65 -208.02 72.3 -207 74 C-206.67 73.34 -206.34 72.68 -206 72 C-206.33 71.01 -206.66 70.02 -207 69 C-207.99 69 -208.98 69 -210 69 Z " fill="#7D7170" transform="translate(304,93)"/>
<path d="M0 0 C0.08115993 3.06303578 0.14057409 6.12390815 0.1875 9.1875 C0.22520508 10.48397461 0.22520508 10.48397461 0.26367188 11.80664062 C0.31991368 16.69967743 0.26389979 20.07439843 -3 24 C-14.70622301 34.68948533 -32.06925256 39.30551315 -47.125 42.5625 C-48.78478979 42.9387056 -50.44412625 43.31691628 -52.10302734 43.69702148 C-59.24765999 45.32468782 -66.40741586 46.87941688 -73.57521057 48.40150452 C-88.19857712 51.50914281 -102.29701816 54.76141879 -115.93505859 61.04882812 C-117.88735346 61.94811174 -119.8550983 62.79727107 -121.83203125 63.640625 C-128.17034886 66.51977258 -133.31909613 69.80789916 -138.53515625 74.36328125 C-139.43638466 75.14367516 -139.43638466 75.14367516 -140.3558197 75.93983459 C-147.22816357 81.96627416 -153.65013501 88.43005729 -160.0625 94.9375 C-161.2566781 96.14175555 -162.45133843 97.34553309 -163.64648438 98.54882812 C-165.82596939 100.74440014 -168.00269981 102.94261851 -170.17602539 105.14428711 C-186.89091686 122.05183696 -207.48472364 134.83969447 -231.83276367 135.48754883 C-248.04681136 135.55257332 -267.87734772 134.72618475 -281.5 124.75 C-286.27232872 119.50043841 -289.26446179 114.65827923 -289.625 107.4375 C-289.25149238 100.20962278 -285.98395825 95.64082832 -280.8125 90.8125 C-275.02279972 86.17315501 -268.09786761 83.05464589 -261 81 C-261 80.34 -261 79.68 -261 79 C-261.66 79 -262.32 79 -263 79 C-263.75 76.75 -263.75 76.75 -264 74 C-262.1875 71.6875 -262.1875 71.6875 -260 70 C-259.34 70 -258.68 70 -258 70 C-257.9175 69.21625 -257.835 68.4325 -257.75 67.625 C-257 65 -257 65 -255.3125 63.5 C-253 63 -253 63 -250.3125 64.4375 C-245.89981653 66.51895447 -242.68388809 65.86391714 -238 65 C-238.33644531 64.40574219 -238.67289063 63.81148438 -239.01953125 63.19921875 C-240.36912264 60.17204761 -239.77242516 58.15992112 -239 55 C-238 54 -238 54 -235.67578125 53.6875 C-232.15875678 54.09824738 -231.35976889 55.27401551 -229.1875 58 C-228.58292969 58.7425 -227.97835937 59.485 -227.35546875 60.25 C-226.90816406 60.8275 -226.46085937 61.405 -226 62 C-225.08541016 61.505 -225.08541016 61.505 -224.15234375 61 C-222 60 -222 60 -219.5625 60 C-215.82088168 61.46014374 -214.38333883 63.79951643 -212 67 C-211.67 66.34 -211.34 65.68 -211 65 C-210.01 64.67 -209.02 64.34 -208 64 C-208.61875 62.9275 -209.2375 61.855 -209.875 60.75 C-210.41833984 59.78707031 -210.41833984 59.78707031 -210.97265625 58.8046875 C-211.72686466 57.47980429 -212.51137824 56.17205427 -213.3125 54.875 C-214.25826852 52.29563131 -213.77050473 50.59169773 -213 48 C-212 47 -212 47 -208.9375 46.9375 C-207.968125 46.958125 -206.99875 46.97875 -206 47 C-205.67 47.66 -205.34 48.32 -205 49 C-204.01 46.03 -204.01 46.03 -203 43 C-201.35 42.67 -199.7 42.34 -198 42 C-195.26755647 45.92237862 -194.53386765 48.87567581 -194.25 53.625 C-194.13398438 55.31496094 -194.13398438 55.31496094 -194.015625 57.0390625 C-194 60 -194 60 -195 63 C-194.34 63 -193.68 63 -193 63 C-193.03480469 62.24074219 -193.06960937 61.48148438 -193.10546875 60.69921875 C-193.13253906 59.70535156 -193.15960938 58.71148437 -193.1875 57.6875 C-193.23970703 56.20830078 -193.23970703 56.20830078 -193.29296875 54.69921875 C-193 52 -193 52 -191.48828125 50.14453125 C-190.99714844 49.76683594 -190.50601563 49.38914063 -190 49 C-189.03760548 50.24687592 -188.08025991 51.49764969 -187.125 52.75 C-186.59132813 53.44609375 -186.05765625 54.1421875 -185.5078125 54.859375 C-184 57 -184 57 -183.0625 59.15625 C-181.67458956 61.56468283 -180.48317474 61.90865331 -177.875 62.75 C-176.78832031 63.11351562 -176.78832031 63.11351562 -175.6796875 63.484375 C-175.12539062 63.65453125 -174.57109375 63.8246875 -174 64 C-174.75 65.9375 -174.75 65.9375 -176 68 C-178.125 68.75 -178.125 68.75 -180 69 C-179.67 67.35 -179.34 65.7 -179 64 C-180.98 64 -182.96 64 -185 64 C-185.495 60.04 -185.495 60.04 -186 56 C-186.99 56 -187.98 56 -189 56 C-189 59.3 -189 62.6 -189 66 C-195.0546875 66.1953125 -195.0546875 66.1953125 -197 66 C-197.66 65.34 -198.32 64.68 -199 64 C-199 63.01 -199 62.02 -199 61 C-198.34 61 -197.68 61 -197 61 C-197.33 55.72 -197.66 50.44 -198 45 C-199.485 45.495 -199.485 45.495 -201 46 C-201 50.29 -201 54.58 -201 59 C-203.29264797 56.70735203 -205.19719183 54.66128825 -207 52 C-207 51.34 -207 50.68 -207 50 C-208.32 50 -209.64 50 -211 50 C-209.0471852 54.19493549 -207.32480204 57.83226872 -204.1875 61.25 C-202 64 -202 64 -202.125 66.1875 C-202.41375 66.785625 -202.7025 67.38375 -203 68 C-203.495 69.485 -203.495 69.485 -204 71 C-193.96650723 70.30313614 -193.96650723 70.30313614 -184 69 C-183.01 72.465 -183.01 72.465 -182 76 C-189.92 76 -197.84 76 -206 76 C-206 77.32 -206 78.64 -206 80 C-197.42 80 -188.84 80 -180 80 C-179.67 81.32 -179.34 82.64 -179 84 C-181 86 -181 86 -183.390625 86.01171875 C-184.33421875 85.90472656 -185.2778125 85.79773438 -186.25 85.6875 C-187.23613281 85.57664062 -188.22226563 85.46578125 -189.23828125 85.3515625 C-190.60533203 85.17753906 -190.60533203 85.17753906 -192 85 C-193.134375 84.855625 -194.26875 84.71125 -195.4375 84.5625 C-197.91122885 84.01948635 -199.8136155 83.26137567 -202 82 C-202 82.66 -202 83.32 -202 84 C-202.66 84 -203.32 84 -204 84 C-204 83.01 -204 82.02 -204 81 C-208.25414623 80.97534378 -212.50825498 80.95716101 -216.76245117 80.94506836 C-218.21070073 80.94002899 -219.65894517 80.93319747 -221.10717773 80.92456055 C-223.18474588 80.91247753 -225.26224697 80.90676789 -227.33984375 80.90234375 C-228.59144287 80.89710693 -229.84304199 80.89187012 -231.13256836 80.88647461 C-233.89732294 80.67112965 -233.89732294 80.67112965 -235 82 C-240.48183052 82.71785876 -245.81310151 83.21115766 -250.7578125 80.47265625 C-253.125 78.5625 -253.125 78.5625 -255.1953125 76.62890625 C-257.00685452 74.7749936 -257.00685452 74.7749936 -260 74 C-259.505 74.78375 -259.01 75.5675 -258.5 76.375 C-257 79 -257 79 -257 81 C-255.68 81.66 -254.36 82.32 -253 83 C-253 83.66 -253 84.32 -253 85 C-253.81984375 85.02578125 -254.6396875 85.0515625 -255.484375 85.078125 C-257.10085938 85.16320312 -257.10085938 85.16320312 -258.75 85.25 C-259.81734375 85.29640625 -260.8846875 85.3428125 -261.984375 85.390625 C-265.61232909 86.12373489 -266.56549246 87.29774621 -269 90 C-270.61952506 90.98224853 -272.26714869 91.9194154 -273.9375 92.8125 C-278.4755479 95.49376907 -281.99879766 97.99191495 -284 103 C-284.76581352 107.78427586 -284.65526575 112.82743953 -282 117 C-280.35067107 117.70847463 -278.68056434 118.36918645 -277 119 C-275.35352151 119.81119184 -273.70772149 120.62376179 -272.0625 121.4375 C-252.36711982 130.38513239 -231.53726551 127.46267263 -211.78125 120.16796875 C-197.56471808 114.53471032 -181.56955543 107.42836615 -172.35546875 94.734375 C-171.90816406 94.16203125 -171.46085937 93.5896875 -171 93 C-170.34 93 -169.68 93 -169 93 C-168.77828125 92.44570312 -168.5565625 91.89140625 -168.328125 91.3203125 C-147.65242853 55.19865455 -82.93613464 42.03717237 -45.9375 31.6875 C-24.0795954 26.27297815 -24.0795954 26.27297815 -6.5625 13.0625 C-4.82094284 9.64904796 -4.30411267 6.80140843 -4 3 C-34.39269194 1.31411878 -63.5442891 19.79491342 -90 33 C-91.6713501 33.83265381 -91.6713501 33.83265381 -93.37646484 34.68212891 C-104.81044149 40.4144057 -115.82281753 46.57900085 -126.63378906 53.41552734 C-132.24458744 56.95687447 -137.92529482 60.19999466 -143.81347656 63.25268555 C-151.18593567 67.09293299 -158.19465848 71.51189209 -165.1484375 76.05859375 C-166.13070312 76.69925781 -167.11296875 77.33992188 -168.125 78 C-168.99382812 78.5775 -169.86265625 79.155 -170.7578125 79.75 C-173 81 -173 81 -176 81 C-175.7320686 77.65785168 -175.4137868 76.352929 -172.81713867 74.13818359 C-171.8604126 73.56406738 -170.90368652 72.98995117 -169.91796875 72.3984375 C-168.85022217 71.74875 -167.78247559 71.0990625 -166.68237305 70.4296875 C-165.51775523 69.74421391 -164.35278968 69.05933081 -163.1875 68.375 C-162.00046012 67.6624533 -160.81402211 66.94890304 -159.62817383 66.234375 C-151.76239644 61.52032287 -143.78157234 57.01966248 -135.7121582 52.66381836 C-131.1736382 50.21369724 -126.74614204 47.67558773 -122.375 44.9375 C-33.82201893 -10.39408387 -33.82201893 -10.39408387 0 0 Z M-210 69 C-209.01 70.65 -208.02 72.3 -207 74 C-206.67 73.34 -206.34 72.68 -206 72 C-206.33 71.01 -206.66 70.02 -207 69 C-207.99 69 -208.98 69 -210 69 Z " fill="#361E19" transform="translate(304,93)"/>
<path d="M0 0 C0.4596998 5.74624746 -0.32499296 8.55130726 -4 13 C-10.55913732 19.26099471 -18.35264719 22.3474392 -26.875 25.125 C-27.75792725 25.41721436 -28.64085449 25.70942871 -29.55053711 26.01049805 C-37.43959239 28.57965952 -45.40104401 30.8779433 -53.3710022 33.17889404 C-109.85463859 49.22920995 -109.85463859 49.22920995 -157.3125 82.375 C-159.11328125 84.02734375 -159.11328125 84.02734375 -161 85 C-164.35858611 84.66678595 -167.03929246 83.58315612 -170 82 C-169.83984375 79.7265625 -169.83984375 79.7265625 -169 77 C-166.69140625 75.1484375 -166.69140625 75.1484375 -163.5625 73.375 C-162.3731785 72.68579138 -161.18440686 71.99563331 -159.99609375 71.3046875 C-159.03098877 70.75312988 -159.03098877 70.75312988 -158.04638672 70.19042969 C-155.13029111 68.49407056 -152.27548956 66.70345086 -149.41186523 64.92041016 C-142.61867913 60.70104891 -135.76552723 56.72881917 -128.66650391 53.04980469 C-123.80033972 50.4994579 -119.15610347 47.66307563 -114.5 44.75 C-27.55834302 -9.18611434 -27.55834302 -9.18611434 0 0 Z " fill="#E4D4D2" transform="translate(300,96)"/>
<path d="M0 0 C2.99243022 2.0959377 2.95563079 4.49506918 3.58203125 7.9375 C4.15112128 12.33894317 4.29864864 16.10014784 2.890625 20.32421875 C3.550625 20.32421875 4.210625 20.32421875 4.890625 20.32421875 C4.83841797 19.18533203 4.83841797 19.18533203 4.78515625 18.0234375 C4.74455078 16.53263672 4.74455078 16.53263672 4.703125 15.01171875 C4.66832031 14.02558594 4.63351563 13.03945312 4.59765625 12.0234375 C4.890625 9.32421875 4.890625 9.32421875 6.40234375 7.46875 C6.89347656 7.09105469 7.38460937 6.71335938 7.890625 6.32421875 C8.85301952 7.57109467 9.81036509 8.82186844 10.765625 10.07421875 C11.29929687 10.7703125 11.83296875 11.46640625 12.3828125 12.18359375 C13.890625 14.32421875 13.890625 14.32421875 14.828125 16.48046875 C16.21603544 18.88890158 17.40745026 19.23287206 20.015625 20.07421875 C21.10230469 20.43773437 21.10230469 20.43773437 22.2109375 20.80859375 C22.76523438 20.97875 23.31953125 21.14890625 23.890625 21.32421875 C23.140625 23.26171875 23.140625 23.26171875 21.890625 25.32421875 C19.765625 26.07421875 19.765625 26.07421875 17.890625 26.32421875 C18.220625 24.67421875 18.550625 23.02421875 18.890625 21.32421875 C16.910625 21.32421875 14.930625 21.32421875 12.890625 21.32421875 C12.395625 17.36421875 12.395625 17.36421875 11.890625 13.32421875 C10.900625 13.32421875 9.910625 13.32421875 8.890625 13.32421875 C8.890625 16.62421875 8.890625 19.92421875 8.890625 23.32421875 C2.8359375 23.51953125 2.8359375 23.51953125 0.890625 23.32421875 C0.230625 22.66421875 -0.429375 22.00421875 -1.109375 21.32421875 C-1.109375 20.33421875 -1.109375 19.34421875 -1.109375 18.32421875 C-0.449375 18.32421875 0.210625 18.32421875 0.890625 18.32421875 C0.560625 13.04421875 0.230625 7.76421875 -0.109375 2.32421875 C-1.099375 2.65421875 -2.089375 2.98421875 -3.109375 3.32421875 C-3.109375 7.61421875 -3.109375 11.90421875 -3.109375 16.32421875 C-5.40202297 14.03157078 -7.30656683 11.985507 -9.109375 9.32421875 C-9.109375 8.66421875 -9.109375 8.00421875 -9.109375 7.32421875 C-10.429375 7.32421875 -11.749375 7.32421875 -13.109375 7.32421875 C-11.1565602 11.51915424 -9.43417704 15.15648747 -6.296875 18.57421875 C-4.109375 21.32421875 -4.109375 21.32421875 -4.234375 23.51171875 C-4.6675 24.40890625 -4.6675 24.40890625 -5.109375 25.32421875 C-5.604375 26.80921875 -5.604375 26.80921875 -6.109375 28.32421875 C3.92411777 27.62735489 3.92411777 27.62735489 13.890625 26.32421875 C14.880625 29.78921875 14.880625 29.78921875 15.890625 33.32421875 C7.970625 33.32421875 0.050625 33.32421875 -8.109375 33.32421875 C-8.109375 34.64421875 -8.109375 35.96421875 -8.109375 37.32421875 C0.470625 37.32421875 9.050625 37.32421875 17.890625 37.32421875 C18.385625 39.30421875 18.385625 39.30421875 18.890625 41.32421875 C16.890625 43.32421875 16.890625 43.32421875 14.5 43.3359375 C13.55640625 43.22894531 12.6128125 43.12195313 11.640625 43.01171875 C10.65449219 42.90085938 9.66835937 42.79 8.65234375 42.67578125 C7.74097656 42.55976563 6.82960938 42.44375 5.890625 42.32421875 C4.75625 42.17984375 3.621875 42.03546875 2.453125 41.88671875 C-0.02060385 41.3437051 -1.9229905 40.58559442 -4.109375 39.32421875 C-4.109375 39.98421875 -4.109375 40.64421875 -4.109375 41.32421875 C-4.769375 41.32421875 -5.429375 41.32421875 -6.109375 41.32421875 C-6.109375 40.33421875 -6.109375 39.34421875 -6.109375 38.32421875 C-10.36352123 38.29956253 -14.61762998 38.28137976 -18.87182617 38.26928711 C-20.32007573 38.26424774 -21.76832017 38.25741622 -23.21655273 38.2487793 C-25.29412088 38.23669628 -27.37162197 38.23098664 -29.44921875 38.2265625 C-30.70081787 38.22132568 -31.95241699 38.21608887 -33.24194336 38.21069336 C-36.00669794 37.9953484 -36.00669794 37.9953484 -37.109375 39.32421875 C-38.62865538 39.39601839 -40.15104982 39.40813882 -41.671875 39.38671875 C-42.49816406 39.37769531 -43.32445313 39.36867187 -44.17578125 39.359375 C-44.81386719 39.34777344 -45.45195313 39.33617187 -46.109375 39.32421875 C-46.604375 37.83921875 -46.604375 37.83921875 -47.109375 36.32421875 C-49.31828543 34.19868003 -49.31828543 34.19868003 -51.984375 32.13671875 C-52.86867188 31.42128906 -53.75296875 30.70585937 -54.6640625 29.96875 C-57.0331303 28.04518848 -57.0331303 28.04518848 -60.109375 28.32421875 C-60.421875 26.01171875 -60.421875 26.01171875 -60.109375 23.32421875 C-57.984375 21.32421875 -57.984375 21.32421875 -55.109375 20.32421875 C-53.109375 21.32421875 -51.109375 22.32421875 -49.109375 23.32421875 C-46.04814883 23.30916354 -43.11608302 22.87878934 -40.109375 22.32421875 C-40.44582031 21.72996094 -40.78226563 21.13570312 -41.12890625 20.5234375 C-42.47849764 17.49626636 -41.88180016 15.48413987 -41.109375 12.32421875 C-40.109375 11.32421875 -40.109375 11.32421875 -37.78515625 11.01171875 C-34.26813178 11.42246613 -33.46914389 12.59823426 -31.296875 15.32421875 C-30.69230469 16.06671875 -30.08773437 16.80921875 -29.46484375 17.57421875 C-29.01753906 18.15171875 -28.57023437 18.72921875 -28.109375 19.32421875 C-27.49964844 18.99421875 -26.88992187 18.66421875 -26.26171875 18.32421875 C-24.109375 17.32421875 -24.109375 17.32421875 -21.671875 17.32421875 C-17.93025668 18.78436249 -16.49271383 21.12373518 -14.109375 24.32421875 C-13.779375 23.66421875 -13.449375 23.00421875 -13.109375 22.32421875 C-12.119375 21.99421875 -11.129375 21.66421875 -10.109375 21.32421875 C-10.728125 20.25171875 -11.346875 19.17921875 -11.984375 18.07421875 C-12.52771484 17.11128906 -12.52771484 17.11128906 -13.08203125 16.12890625 C-13.83623966 14.80402304 -14.62075324 13.49627302 -15.421875 12.19921875 C-16.36764352 9.61985006 -15.87987973 7.91591648 -15.109375 5.32421875 C-14.109375 4.32421875 -14.109375 4.32421875 -11.046875 4.26171875 C-9.5928125 4.29265625 -9.5928125 4.29265625 -8.109375 4.32421875 C-7.614375 5.31421875 -7.614375 5.31421875 -7.109375 6.32421875 C-6.84125 5.35484375 -6.573125 4.38546875 -6.296875 3.38671875 C-5.905 2.37609375 -5.513125 1.36546875 -5.109375 0.32421875 C-2.109375 -0.67578125 -2.109375 -0.67578125 0 0 Z M-12.109375 26.32421875 C-11.119375 27.97421875 -10.129375 29.62421875 -9.109375 31.32421875 C-8.779375 30.66421875 -8.449375 30.00421875 -8.109375 29.32421875 C-8.439375 28.33421875 -8.769375 27.34421875 -9.109375 26.32421875 C-10.099375 26.32421875 -11.089375 26.32421875 -12.109375 26.32421875 Z " fill="#4F5162" transform="translate(106.109375,135.67578125)"/>
<path d="M0 0 C3.39721776 0.58726521 4.9569333 1.72557413 7.4375 4.0625 C12.72594048 8.24918205 18.54510117 7.74880618 25 7 C25.33 6.67 25.66 6.34 26 6 C27.56172745 5.91314397 29.12729344 5.89297781 30.69140625 5.90234375 C31.63564453 5.90556641 32.57988281 5.90878906 33.55273438 5.91210938 C34.54595703 5.92048828 35.53917969 5.92886719 36.5625 5.9375 C37.55958984 5.94201172 38.55667969 5.94652344 39.58398438 5.95117188 C42.05604849 5.96299993 44.52799518 5.97948151 47 6 C47 6.66 47 7.32 47 8 C49.64 8 52.28 8 55 8 C54 11 54 11 51.95703125 12.0859375 C48.2379068 13.23557438 44.51790211 13.9540806 40.6875 14.625 C39.94693359 14.7590625 39.20636719 14.893125 38.44335938 15.03125 C36.62974956 15.35886984 34.81498476 15.68008494 33 16 C33.495 16.45375 33.99 16.9075 34.5 17.375 C36 19 36 19 36 21 C35.01 21 34.02 21 33 21 C32.34 20.01 31.68 19.02 31 18 C28.80545319 17.42006301 28.80545319 17.42006301 26.375 17.3125 C25.55773437 17.24675781 24.74046875 17.18101562 23.8984375 17.11328125 C23.27195313 17.07589844 22.64546875 17.03851563 22 17 C21.67 17.66 21.34 18.32 21 19 C19.02 19 17.04 19 15 19 C17.5866429 22.87996435 19.15047436 22.76627413 23.625 23.6875 C24.81351563 23.93886719 26.00203125 24.19023437 27.2265625 24.44921875 C28.14179687 24.63097656 29.05703125 24.81273437 30 25 C30 25.99 30 26.98 30 28 C26.04 28.495 26.04 28.495 22 29 C22 28.34 22 27.68 22 27 C20.68644531 26.92523438 19.37289062 26.85046875 18.01953125 26.7734375 C16.2837434 26.64208058 14.54807135 26.50918714 12.8125 26.375 C11.51602539 26.30732422 11.51602539 26.30732422 10.19335938 26.23828125 C3.81895359 25.70097502 3.81895359 25.70097502 1.37646484 23.61035156 C0.18918069 22.12079296 -0.91095 20.56281751 -2 19 C-2.99 18.67 -3.98 18.34 -5 18 C-3.92458627 24.0223169 -2.15767089 27.63361056 1.7578125 32.3359375 C3 34 3 34 3 36 C3.66 36.33 4.32 36.66 5 37 C2 38 2 38 -0.1875 37.0625 C-1.0846875 36.5365625 -1.0846875 36.5365625 -2 36 C-2 35.34 -2 34.68 -2 34 C-2.99 34 -3.98 34 -5 34 C-6.82421875 31.6640625 -6.82421875 31.6640625 -8.6875 28.625 C-9.62142578 27.12839844 -9.62142578 27.12839844 -10.57421875 25.6015625 C-12 23 -12 23 -12 21 C-10.68 21.33 -9.36 21.66 -8 22 C-8.33 21.34 -8.66 20.68 -9 20 C-9.99 20 -10.98 20 -12 20 C-11.53199289 24.05606165 -11.12046792 27.46588679 -9 31 C-9.9075 30.67 -10.815 30.34 -11.75 30 C-15.07045807 28.80394277 -15.07045807 28.80394277 -19 29 C-19.33 30.32 -19.66 31.64 -20 33 C-19.34 33.226875 -18.68 33.45375 -18 33.6875 C-14.71133018 35.12629305 -11.86260797 36.91498271 -8.8671875 38.87890625 C-6.89250091 40.15651676 -6.89250091 40.15651676 -4 41 C-3.875 47.75 -3.875 47.75 -5 50 C-9.4248407 49.45097988 -12.76941452 48.37024709 -16.6875 46.25 C-18.08548828 45.51523438 -18.08548828 45.51523438 -19.51171875 44.765625 C-22.90712438 42.35632618 -24.56366952 39.8840006 -25.50390625 35.82421875 C-25.65366555 30.36299644 -24.49272721 27.04932569 -20.984375 22.84765625 C-18.07757875 20.1411314 -14.86563438 18.27463503 -11.3671875 16.421875 C-8.89359055 15.09675311 -8.89359055 15.09675311 -7.0859375 12.84375 C-4.24686236 10.33430531 -2.47387389 10.58809244 1.25 10.75 C2.32765625 10.78609375 3.4053125 10.8221875 4.515625 10.859375 C5.74539062 10.92898437 5.74539062 10.92898437 7 11 C6.4946875 10.45730469 5.989375 9.91460937 5.46875 9.35546875 C4.8190625 8.64003906 4.169375 7.92460937 3.5 7.1875 C2.8503125 6.47980469 2.200625 5.77210938 1.53125 5.04296875 C0 3 0 3 0 0 Z " fill="#B48E8E" transform="translate(44,167)"/>
<path d="M0 0 C2.0625 0.4375 2.0625 0.4375 4 1 C4.33 2.32 4.66 3.64 5 5 C3.35 4.01 1.7 3.02 0 2 C0.42152344 2.68707031 0.84304687 3.37414062 1.27734375 4.08203125 C1.82519531 4.98308594 2.37304688 5.88414062 2.9375 6.8125 C3.48277344 7.70582031 4.02804688 8.59914062 4.58984375 9.51953125 C6 12 6 12 7 15 C7.99 15 8.98 15 10 15 C10 15.66 10 16.32 10 17 C11.98 17.33 13.96 17.66 16 18 C15.67 17.34 15.34 16.68 15 16 C15.639375 15.87625 16.27875 15.7525 16.9375 15.625 C17.618125 15.41875 18.29875 15.2125 19 15 C19.33 14.34 19.66 13.68 20 13 C21.98 13 23.96 13 26 13 C25 15 25 15 23 16 C24.32064453 15.45859375 24.32064453 15.45859375 25.66796875 14.90625 C26.82941406 14.4421875 27.99085937 13.978125 29.1875 13.5 C30.91033203 12.80390625 30.91033203 12.80390625 32.66796875 12.09375 C35.71990077 11.09194348 37.83115072 10.76129196 41 11 C39.96423609 13.84683647 39.23356397 14.86384838 36.57421875 16.4140625 C35.62160156 16.81367188 34.66898438 17.21328125 33.6875 17.625 C32.74261719 18.02976563 31.79773437 18.43453125 30.82421875 18.8515625 C28.21998955 19.91054367 25.61023365 20.95590654 23 22 C27.62 20.68 32.24 19.36 37 18 C37.495 18.99 37.495 18.99 38 20 C45.22699215 22.55070311 52.41273028 22.191813 60 22 C59.48139518 19.38794451 58.95277294 16.7797086 58.39453125 14.17578125 C58.20246094 13.23089844 58.01039062 12.28601563 57.8125 11.3125 C57.61269531 10.35988281 57.41289063 9.40726563 57.20703125 8.42578125 C57.13871094 7.62527344 57.07039063 6.82476562 57 6 C59 4 59 4 61.625 3.875 C62.40875 3.91625 63.1925 3.9575 64 4 C63.9071875 5.423125 63.9071875 5.423125 63.8125 6.875 C63.80010174 12.95014836 65.64799326 18.97198988 69 24 C49.82596435 34.55245522 26.9733912 37.21232207 6 32 C6.66 28.7 7.32 25.4 8 22 C6.35 21.67 4.7 21.34 3 21 C0.10546875 19.37109375 0.10546875 19.37109375 -2.8125 17.4375 C-4.27623047 16.47650391 -4.27623047 16.47650391 -5.76953125 15.49609375 C-6.50558594 15.00238281 -7.24164062 14.50867188 -8 14 C-7.67 12.35 -7.34 10.7 -7 9 C-3.28111761 9.50712033 -0.26545761 10.11608215 3 12 C2.34 11.113125 1.68 10.22625 1 9.3125 C-0.98420124 6.0261667 -1.53055241 4.71386688 -1 1 C-0.67 0.67 -0.34 0.34 0 0 Z " fill="#BAACAB" transform="translate(32,186)"/>
<path d="M0 0 C0.99 0 1.98 0 3 0 C4.50156874 3.00313748 4.09281204 5.79067522 4.0625 9.125 C4.05347656 10.40632812 4.04445313 11.68765625 4.03515625 13.0078125 C4.02355469 13.99523437 4.01195313 14.98265625 4 16 C3.34 16 2.68 16 2 16 C2.4100567 18.07935207 2.4100567 18.07935207 4 20 C6.69658452 20.68790422 9.2017019 20.81946464 12 21 C12 17.7 12 14.4 12 11 C12.99 11 13.98 11 15 11 C16.35439668 13.70879335 16.06501451 16.00933268 16 19 C17.98 19 19.96 19 22 19 C22.12375 20.2375 22.2475 21.475 22.375 22.75 C22.76248275 25.94532873 23.52109724 28.14078799 25 31 C25.125 33.75 25.125 33.75 25 36 C25.66 36 26.32 36 27 36 C27.020625 36.598125 27.04125 37.19625 27.0625 37.8125 C27.90456616 40.43314602 27.90456616 40.43314602 31.5625 41.75 C33.2640625 42.36875 33.2640625 42.36875 35 43 C31.75670771 48.97448579 27.23992589 52.80805929 22 57 C21.27167969 57.77730469 20.54335937 58.55460937 19.79296875 59.35546875 C16.67711084 62.30572862 13.54642854 64.2563032 9.8125 66.3125 C9.18408203 66.67150391 8.55566406 67.03050781 7.90820312 67.40039062 C3.27842262 70 3.27842262 70 1 70 C0.505 67.03 0.505 67.03 0 64 C-0.33 65.65 -0.66 67.3 -1 69 C-3.5499869 67.72500655 -3.65976415 66.81508648 -4.625 64.1875 C-4.88539062 63.50042969 -5.14578125 62.81335938 -5.4140625 62.10546875 C-6 60 -6 60 -6 56 C-3 57 -3 57 -1 59 C2.8667677 62.81328241 2.8667677 62.81328241 7.875 64.3125 C8.57625 64.209375 9.2775 64.10625 10 64 C10 62.68 10 61.36 10 60 C9.34 60 8.68 60 8 60 C7.34 58.68 6.68 57.36 6 56 C7.98 55.505 7.98 55.505 10 55 C9.5532033 49.72779892 9.01438606 46.45604896 6 42 C6 41.34 6 40.68 6 40 C10.97063121 39.08702692 15.02936879 39.08702692 20 40 C20.33 38.35 20.66 36.7 21 35 C12.42 35 3.84 35 -5 35 C-5 33.68 -5 32.36 -5 31 C-2.62384014 29.81192007 -1.1488258 29.87085478 1.5 29.8671875 C2.8303125 29.86525391 2.8303125 29.86525391 4.1875 29.86328125 C5.115625 29.86714844 6.04375 29.87101562 7 29.875 C7.928125 29.87113281 8.85625 29.86726563 9.8125 29.86328125 C10.699375 29.86457031 11.58625 29.86585938 12.5 29.8671875 C13.3146875 29.86831543 14.129375 29.86944336 14.96875 29.87060547 C17 30 17 30 19 31 C18.01 29.02 17.02 27.04 16 25 C14.72769531 25.24556641 14.72769531 25.24556641 13.4296875 25.49609375 C9.9354469 26.00948445 6.65372426 26.09850739 3.125 26.0625 C1.97257812 26.05347656 0.82015625 26.04445312 -0.3671875 26.03515625 C-1.23601562 26.02355469 -2.10484375 26.01195312 -3 26 C-2.566875 24.4840625 -2.566875 24.4840625 -2.125 22.9375 C-1.98895482 18.65207676 -2.14439386 18.29716111 -4.8125 15.3125 C-5.35519531 14.77238281 -5.89789063 14.23226562 -6.45703125 13.67578125 C-9.04279603 10.86744432 -10 8.8287463 -10 5 C-8.68 5 -7.36 5 -6 5 C-4.515625 6.75 -4.515625 6.75 -3.25 9 C-2.82203125 9.7425 -2.3940625 10.485 -1.953125 11.25 C-1.63859375 11.8275 -1.3240625 12.405 -1 13 C-1.01160156 12.14535156 -1.02320312 11.29070312 -1.03515625 10.41015625 C-1.04417969 9.30542969 -1.05320312 8.20070312 -1.0625 7.0625 C-1.07410156 5.96035156 -1.08570312 4.85820312 -1.09765625 3.72265625 C-1 1 -1 1 0 0 Z " fill="#AA8D76" transform="translate(103,138)"/>
<path d="M0 0 C4.2016026 0.49147186 6.00594094 2.75009422 8.75 5.8125 C9.54921875 6.68519531 10.3484375 7.55789062 11.171875 8.45703125 C13 11 13 11 13 15 C13.61875 15.12375 14.2375 15.2475 14.875 15.375 C17 16 17 16 19 18 C19 18.99 19 19.98 19 21 C19.99 21.33 20.98 21.66 22 22 C22 22.33 22 22.66 22 23 C21.14450562 23.03758423 21.14450562 23.03758423 20.27172852 23.07592773 C17.70173843 23.19156549 15.13214473 23.31443624 12.5625 23.4375 C11.21575195 23.49647461 11.21575195 23.49647461 9.84179688 23.55664062 C8.98779297 23.59853516 8.13378906 23.64042969 7.25390625 23.68359375 C6.06776733 23.73858032 6.06776733 23.73858032 4.85766602 23.79467773 C2.98598559 23.80563257 2.98598559 23.80563257 2 25 C0.48071962 25.07179964 -1.04167482 25.08392007 -2.5625 25.0625 C-3.38878906 25.05347656 -4.21507813 25.04445312 -5.06640625 25.03515625 C-6.02353516 25.01775391 -6.02353516 25.01775391 -7 25 C-7.33 24.01 -7.66 23.02 -8 22 C-10.20891043 19.87446128 -10.20891043 19.87446128 -12.875 17.8125 C-13.75929688 17.09707031 -14.64359375 16.38164062 -15.5546875 15.64453125 C-17.9237553 13.72096973 -17.9237553 13.72096973 -21 14 C-21.3125 11.6875 -21.3125 11.6875 -21 9 C-18.875 7 -18.875 7 -16 6 C-13.98276656 6.96476382 -11.98387708 7.96838392 -10 9 C-6.22623449 8.78384744 -6.22623449 8.78384744 -3 8 C-2.67 8.66 -2.34 9.32 -2 10 C0.3140622 10.73075648 2.64828869 11.40138258 5 12 C4.175 11.13375 3.35 10.2675 2.5 9.375 C0.34134101 6.82109359 0.0123706 6.13360249 -0.3125 2.625 C-0.209375 1.75875 -0.10625 0.8925 0 0 Z " fill="#836243" transform="translate(67,150)"/>
<path d="M0 0 C2.99243022 2.0959377 2.95563079 4.49506918 3.58203125 7.9375 C4.15112128 12.33894317 4.29864864 16.10014784 2.890625 20.32421875 C3.550625 20.32421875 4.210625 20.32421875 4.890625 20.32421875 C4.83841797 19.18533203 4.83841797 19.18533203 4.78515625 18.0234375 C4.75808594 17.02957031 4.73101562 16.03570312 4.703125 15.01171875 C4.66832031 14.02558594 4.63351563 13.03945312 4.59765625 12.0234375 C4.890625 9.32421875 4.890625 9.32421875 6.40234375 7.46875 C6.89347656 7.09105469 7.38460937 6.71335938 7.890625 6.32421875 C8.85301952 7.57109467 9.81036509 8.82186844 10.765625 10.07421875 C11.29929687 10.7703125 11.83296875 11.46640625 12.3828125 12.18359375 C13.890625 14.32421875 13.890625 14.32421875 14.828125 16.48046875 C16.21603544 18.88890158 17.40745026 19.23287206 20.015625 20.07421875 C20.74007812 20.3165625 21.46453125 20.55890625 22.2109375 20.80859375 C22.76523438 20.97875 23.31953125 21.14890625 23.890625 21.32421875 C23.140625 23.26171875 23.140625 23.26171875 21.890625 25.32421875 C19.765625 26.07421875 19.765625 26.07421875 17.890625 26.32421875 C18.220625 24.67421875 18.550625 23.02421875 18.890625 21.32421875 C16.910625 21.32421875 14.930625 21.32421875 12.890625 21.32421875 C12.560625 18.68421875 12.230625 16.04421875 11.890625 13.32421875 C10.900625 13.32421875 9.910625 13.32421875 8.890625 13.32421875 C8.890625 16.62421875 8.890625 19.92421875 8.890625 23.32421875 C2.8359375 23.51953125 2.8359375 23.51953125 0.890625 23.32421875 C0.230625 22.66421875 -0.429375 22.00421875 -1.109375 21.32421875 C-1.109375 20.33421875 -1.109375 19.34421875 -1.109375 18.32421875 C-0.449375 18.32421875 0.210625 18.32421875 0.890625 18.32421875 C0.560625 13.04421875 0.230625 7.76421875 -0.109375 2.32421875 C-1.099375 2.65421875 -2.089375 2.98421875 -3.109375 3.32421875 C-3.109375 7.61421875 -3.109375 11.90421875 -3.109375 16.32421875 C-5.40202297 14.03157078 -7.30656683 11.985507 -9.109375 9.32421875 C-9.109375 8.66421875 -9.109375 8.00421875 -9.109375 7.32421875 C-10.429375 7.32421875 -11.749375 7.32421875 -13.109375 7.32421875 C-11.1565602 11.51915424 -9.43417704 15.15648747 -6.296875 18.57421875 C-4.109375 21.32421875 -4.109375 21.32421875 -4.234375 23.51171875 C-4.6675 24.40890625 -4.6675 24.40890625 -5.109375 25.32421875 C-5.439375 26.31421875 -5.769375 27.30421875 -6.109375 28.32421875 C3.92411777 27.62735489 3.92411777 27.62735489 13.890625 26.32421875 C14.550625 28.63421875 15.210625 30.94421875 15.890625 33.32421875 C12.28553395 33.24343115 8.68214579 33.13058191 5.078125 33.01171875 C4.05396484 32.98916016 3.02980469 32.96660156 1.97460938 32.94335938 C0.50024414 32.89018555 0.50024414 32.89018555 -1.00390625 32.8359375 C-1.90987549 32.80975342 -2.81584473 32.78356934 -3.74926758 32.7565918 C-6.5300242 32.24715557 -7.47866886 31.61030896 -9.109375 29.32421875 C-9.109375 28.33421875 -9.109375 27.34421875 -9.109375 26.32421875 C-10.429375 26.32421875 -11.749375 26.32421875 -13.109375 26.32421875 C-13.109375 25.00421875 -13.109375 23.68421875 -13.109375 22.32421875 C-12.119375 21.99421875 -11.129375 21.66421875 -10.109375 21.32421875 C-10.728125 20.25171875 -11.346875 19.17921875 -11.984375 18.07421875 C-12.34660156 17.43226563 -12.70882812 16.7903125 -13.08203125 16.12890625 C-13.83623966 14.80402304 -14.62075324 13.49627302 -15.421875 12.19921875 C-16.36764352 9.61985006 -15.87987973 7.91591648 -15.109375 5.32421875 C-14.109375 4.32421875 -14.109375 4.32421875 -11.046875 4.26171875 C-9.5928125 4.29265625 -9.5928125 4.29265625 -8.109375 4.32421875 C-7.779375 4.98421875 -7.449375 5.64421875 -7.109375 6.32421875 C-6.84125 5.35484375 -6.573125 4.38546875 -6.296875 3.38671875 C-5.7090625 1.87078125 -5.7090625 1.87078125 -5.109375 0.32421875 C-2.109375 -0.67578125 -2.109375 -0.67578125 0 0 Z " fill="#4D4852" transform="translate(106.109375,135.67578125)"/>
<path d="M0 0 C3.078125 1.92578125 3.078125 1.92578125 6.25 4.3125 C7.30703125 5.09238281 8.3640625 5.87226563 9.453125 6.67578125 C11.90776078 8.91582464 12.73325971 9.7620693 13 13 C12.278125 13.556875 11.55625 14.11375 10.8125 14.6875 C7.99594914 16.90187334 7.99594914 16.90187334 5.7734375 19.375 C2.66611486 22.31601523 -0.46401057 24.2620518 -4.1875 26.3125 C-4.81591797 26.67150391 -5.44433594 27.03050781 -6.09179688 27.40039062 C-10.72157738 30 -10.72157738 30 -13 30 C-13.33 28.02 -13.66 26.04 -14 24 C-14.33 25.65 -14.66 27.3 -15 29 C-17.5499869 27.72500655 -17.65976415 26.81508648 -18.625 24.1875 C-19.01558594 23.15689453 -19.01558594 23.15689453 -19.4140625 22.10546875 C-20 20 -20 20 -20 16 C-17 17 -17 17 -15 19 C-11.1332323 22.81328241 -11.1332323 22.81328241 -6.125 24.3125 C-5.42375 24.209375 -4.7225 24.10625 -4 24 C-4 22.68 -4 21.36 -4 20 C-4.66 20 -5.32 20 -6 20 C-6.66 18.68 -7.32 17.36 -8 16 C-6.68 15.67 -5.36 15.34 -4 15 C-4.4467967 9.72779892 -4.98561394 6.45604896 -8 2 C-8 1.34 -8 0.68 -8 0 C-4.56001206 -1.14666265 -3.4227508 -1.05353457 0 0 Z " fill="#A08367" transform="translate(117,178)"/>
<path d="M0 0 C2.0625 0.4375 2.0625 0.4375 4 1 C4.33 2.32 4.66 3.64 5 5 C3.35 4.01 1.7 3.02 0 2 C0.42152344 2.68707031 0.84304687 3.37414062 1.27734375 4.08203125 C1.82519531 4.98308594 2.37304688 5.88414062 2.9375 6.8125 C3.48277344 7.70582031 4.02804688 8.59914062 4.58984375 9.51953125 C6 12 6 12 7 15 C7.99 15 8.98 15 10 15 C10 15.66 10 16.32 10 17 C11.98 17.33 13.96 17.66 16 18 C15.67 17.34 15.34 16.68 15 16 C15.639375 15.87625 16.27875 15.7525 16.9375 15.625 C17.618125 15.41875 18.29875 15.2125 19 15 C19.33 14.34 19.66 13.68 20 13 C21.98 13 23.96 13 26 13 C25 15 25 15 23 16 C24.32064453 15.45859375 24.32064453 15.45859375 25.66796875 14.90625 C26.82941406 14.4421875 27.99085937 13.978125 29.1875 13.5 C30.91033203 12.80390625 30.91033203 12.80390625 32.66796875 12.09375 C35.71990077 11.09194348 37.83115072 10.76129196 41 11 C39.97921159 13.74737909 39.26080829 14.84262337 36.71484375 16.37890625 C33.81938546 17.61283573 30.92292273 18.83238772 28 20 C26.84177734 20.48726562 26.84177734 20.48726562 25.66015625 20.984375 C19.01739264 23.53096792 12.09445978 24.48674908 5.2890625 22.015625 C0.60880461 19.73874278 -3.76073661 17.0121082 -8 14 C-7.67 12.35 -7.34 10.7 -7 9 C-3.28111761 9.50712033 -0.26545761 10.11608215 3 12 C2.34 11.113125 1.68 10.22625 1 9.3125 C-0.98420124 6.0261667 -1.53055241 4.71386688 -1 1 C-0.67 0.67 -0.34 0.34 0 0 Z " fill="#A58660" transform="translate(32,186)"/>
<path d="M0 0 C0.12117188 0.60328125 0.24234375 1.2065625 0.3671875 1.828125 C0.53476562 2.62734375 0.70234375 3.4265625 0.875 4.25 C1.11863281 5.43335938 1.11863281 5.43335938 1.3671875 6.640625 C1.99150075 8.96831144 2.84838542 10.89031952 4 13 C3.0925 12.67 2.185 12.34 1.25 12 C-2.07045807 10.80394277 -2.07045807 10.80394277 -6 11 C-6.33 12.32 -6.66 13.64 -7 15 C-6.34 15.226875 -5.68 15.45375 -5 15.6875 C-1.71133018 17.12629305 1.13739203 18.91498271 4.1328125 20.87890625 C6.10749909 22.15651676 6.10749909 22.15651676 9 23 C9.125 29.75 9.125 29.75 8 32 C3.5751593 31.45097988 0.23058548 30.37024709 -3.6875 28.25 C-4.61949219 27.76015625 -5.55148438 27.2703125 -6.51171875 26.765625 C-9.90712438 24.35632618 -11.56366952 21.8840006 -12.50390625 17.82421875 C-12.65897608 12.16933883 -11.26054788 9.09249058 -7.703125 4.7265625 C-3.04072398 0 -3.04072398 0 0 0 Z " fill="#E1D0CE" transform="translate(31,185)"/>
<path d="M0 0 C1.1437207 0.25426758 1.1437207 0.25426758 2.31054688 0.51367188 C7.9500738 1.8250738 7.9500738 1.8250738 10.1875 4.0625 C12.3769648 4.67600042 14.58981857 5.20809812 16.8125 5.6875 C18.00101563 5.94789063 19.18953125 6.20828125 20.4140625 6.4765625 C21.32929687 6.66992188 22.24453125 6.86328125 23.1875 7.0625 C23.1875 8.0525 23.1875 9.0425 23.1875 10.0625 C20.5475 10.3925 17.9075 10.7225 15.1875 11.0625 C15.1875 10.4025 15.1875 9.7425 15.1875 9.0625 C13.87394531 8.98773438 12.56039062 8.91296875 11.20703125 8.8359375 C9.4712434 8.70458058 7.73557135 8.57168714 6 8.4375 C4.70352539 8.36982422 4.70352539 8.36982422 3.38085938 8.30078125 C-2.99354641 7.76347502 -2.99354641 7.76347502 -5.43603516 5.67285156 C-6.62331931 4.18329296 -7.72345 2.62531751 -8.8125 1.0625 C-9.8025 0.7325 -10.7925 0.4025 -11.8125 0.0625 C-10.73708627 6.0848169 -8.97017089 9.69611056 -5.0546875 14.3984375 C-3.8125 16.0625 -3.8125 16.0625 -3.8125 18.0625 C-3.1525 18.3925 -2.4925 18.7225 -1.8125 19.0625 C-4.8125 20.0625 -4.8125 20.0625 -7 19.125 C-7.8971875 18.5990625 -7.8971875 18.5990625 -8.8125 18.0625 C-8.8125 17.4025 -8.8125 16.7425 -8.8125 16.0625 C-9.8025 16.0625 -10.7925 16.0625 -11.8125 16.0625 C-13.63671875 13.7265625 -13.63671875 13.7265625 -15.5 10.6875 C-16.12261719 9.68976563 -16.74523438 8.69203125 -17.38671875 7.6640625 C-18.8125 5.0625 -18.8125 5.0625 -18.8125 3.0625 C-16.8325 3.5575 -16.8325 3.5575 -14.8125 4.0625 C-15.1425 3.4025 -15.4725 2.7425 -15.8125 2.0625 C-17.1325 2.0625 -18.4525 2.0625 -19.8125 2.0625 C-19.8125 1.0725 -19.8125 0.0825 -19.8125 -0.9375 C-14.13595964 -4.79754745 -6.23621769 -1.45493717 0 0 Z " fill="#DACAC7" transform="translate(50.8125,184.9375)"/>
<path d="M0 0 C3.39592437 0.6077717 5.38646483 1.85504695 8.0625 4 C10.49603602 5.9430921 12.00385831 7.0012861 15 8 C15 9.65 15 11.3 15 13 C17.31 13.66 19.62 14.32 22 15 C21.67 16.32 21.34 17.64 21 19 C14.44974457 20.44861418 8.90755156 19.80955554 2.5 18.1875 C1.79359375 18.00993164 1.0871875 17.83236328 0.359375 17.64941406 C-4.72181901 16.27818099 -4.72181901 16.27818099 -7 14 C-6.34 13.01 -5.68 12.02 -5 11 C-2.1796875 10.70703125 -2.1796875 10.70703125 1.125 10.8125 C2.76855469 10.85310547 2.76855469 10.85310547 4.4453125 10.89453125 C5.28835937 10.92933594 6.13140625 10.96414062 7 11 C6.4946875 10.45730469 5.989375 9.91460937 5.46875 9.35546875 C4.8190625 8.64003906 4.169375 7.92460937 3.5 7.1875 C2.8503125 6.47980469 2.200625 5.77210938 1.53125 5.04296875 C0 3 0 3 0 0 Z " fill="#A88866" transform="translate(44,167)"/>
<path d="M0 0 C-0.25 2.375 -0.25 2.375 -1 5 C-4.96486689 7.61236557 -9.52485271 7.79347938 -14.125 8.4375 C-16.95895181 8.84786688 -16.95895181 8.84786688 -19.109375 10.1171875 C-22.52639884 11.71273995 -25.52319992 10.04304003 -29 9 C-28.34 6.03 -27.68 3.06 -27 0 C-19.4822695 -1.12765957 -19.4822695 -1.12765957 -16.875 -0.4375 C-14.82936725 0.22742502 -14.82936725 0.22742502 -12.3125 -1.0625 C-7.7934885 -2.34146552 -4.4267466 -1.27883791 0 0 Z " fill="#A28886" transform="translate(67,209)"/>
<path d="M0 0 C0.99 0 1.98 0 3 0 C4.50156874 3.00313748 4.09281204 5.79067522 4.0625 9.125 C4.05347656 10.40632812 4.04445313 11.68765625 4.03515625 13.0078125 C4.02355469 13.99523437 4.01195313 14.98265625 4 16 C3.34 16 2.68 16 2 16 C2.4100567 18.07935207 2.4100567 18.07935207 4 20 C6.69658452 20.68790422 9.2017019 20.81946464 12 21 C12 22.32 12 23.64 12 25 C9.11584117 26.44207941 6.58278472 26.09394887 3.375 26.0625 C2.18648437 26.05347656 0.99796875 26.04445312 -0.2265625 26.03515625 C-1.14179687 26.02355469 -2.05703125 26.01195312 -3 26 C-2.566875 24.4840625 -2.566875 24.4840625 -2.125 22.9375 C-1.98895482 18.65207676 -2.14439386 18.29716111 -4.8125 15.3125 C-5.35519531 14.77238281 -5.89789063 14.23226562 -6.45703125 13.67578125 C-9.04279603 10.86744432 -10 8.8287463 -10 5 C-8.68 5 -7.36 5 -6 5 C-4.515625 6.75 -4.515625 6.75 -3.25 9 C-2.82203125 9.7425 -2.3940625 10.485 -1.953125 11.25 C-1.63859375 11.8275 -1.3240625 12.405 -1 13 C-1.01160156 12.14535156 -1.02320312 11.29070312 -1.03515625 10.41015625 C-1.04417969 9.30542969 -1.05320312 8.20070312 -1.0625 7.0625 C-1.07410156 5.96035156 -1.08570312 4.85820312 -1.09765625 3.72265625 C-1 1 -1 1 0 0 Z " fill="#E1B769" transform="translate(103,138)"/>
<path d="M0 0 C1.6171875 2.21484375 1.6171875 2.21484375 2.875 4.9375 C3.30554688 5.83339844 3.73609375 6.72929687 4.1796875 7.65234375 C4.45039062 8.42707031 4.72109375 9.20179688 5 10 C4.67 10.66 4.34 11.32 4 12 C3.34 11.67 2.68 11.34 2 11 C2.5053125 11.55429688 3.010625 12.10859375 3.53125 12.6796875 C4.1809375 13.40414062 4.830625 14.12859375 5.5 14.875 C6.1496875 15.59429687 6.799375 16.31359375 7.46875 17.0546875 C9 19 9 19 9 21 C5.86915901 20.42235562 4.22256994 19.59969956 1.984375 17.34765625 C1.45585938 16.81849609 0.92734375 16.28933594 0.3828125 15.74414062 C-0.15601562 15.18919922 -0.69484375 14.63425781 -1.25 14.0625 C-1.80429688 13.51142578 -2.35859375 12.96035156 -2.9296875 12.39257812 C-7 8.26712592 -7 8.26712592 -7 6 C-5.68 6.33 -4.36 6.66 -3 7 C-2.67 6.34 -2.34 5.68 -2 5 C-3.98 5 -5.96 5 -8 5 C-8 6.32 -8 7.64 -8 9 C-9.98 9.33 -11.96 9.66 -14 10 C-14.33 8.68 -14.66 7.36 -15 6 C-13.02 5.01 -11.04 4.02 -9 3 C-9.60328125 3.22816406 -10.2065625 3.45632812 -10.828125 3.69140625 C-12.02695313 4.12259766 -12.02695313 4.12259766 -13.25 4.5625 C-14.03890625 4.85253906 -14.8278125 5.14257812 -15.640625 5.44140625 C-18.19103452 6.04522837 -19.55322229 5.8473932 -22 5 C-22 4.34 -22 3.68 -22 3 C-19.2735685 2.2996047 -16.54476473 1.6144225 -13.8125 0.9375 C-13.04357422 0.73833984 -12.27464844 0.53917969 -11.48242188 0.33398438 C-3.63261746 -1.58635405 -3.63261746 -1.58635405 0 0 Z " fill="#AA9176" transform="translate(102,180)"/>
<path d="M0 0 C1.75 0.1875 1.75 0.1875 4 1 C4.52980469 1.81855469 5.05960938 2.63710937 5.60546875 3.48046875 C8.97873659 7.02982888 11.8401467 6.87792329 16.5625 7.125 C24.50228127 7.61831974 24.50228127 7.61831974 27.02734375 9.5546875 C27.34832031 10.03164062 27.66929688 10.50859375 28 11 C24.07844114 13.61437258 20.55763232 13.21703011 16 13 C15.01 12.67 14.02 12.34 13 12 C12.67 13.65 12.34 15.3 12 17 C8.71478096 16.69928047 7.3182483 16.32686625 4.98046875 13.92578125 C4.38878906 13.06339844 3.79710937 12.20101562 3.1875 11.3125 C2.58292969 10.46300781 1.97835937 9.61351562 1.35546875 8.73828125 C-0.20255289 5.59080815 -0.25889081 3.46710633 0 0 Z " fill="#6C7285" transform="translate(39,185)"/>
<path d="M0 0 C0.495 1.485 0.495 1.485 1 3 C-1.9137136 7.82485908 -5.89029503 10.00398816 -10.75 12.5 C-11.50732422 12.8916333 -12.26464844 13.2832666 -13.04492188 13.68676758 C-20.45946848 17.40561646 -27.97753953 19.94091245 -36 22 C-37.00321289 22.25942383 -38.00642578 22.51884766 -39.04003906 22.78613281 C-42.39783761 23.64464397 -45.75978326 24.4835608 -49.125 25.3125 C-50.74438477 25.71311646 -50.74438477 25.71311646 -52.39648438 26.12182617 C-53.42322266 26.36650635 -54.44996094 26.61118652 -55.5078125 26.86328125 C-56.42191895 27.08282471 -57.33602539 27.30236816 -58.27783203 27.52856445 C-61.23208656 28.04019365 -64.00754791 28.08002238 -67 28 C-63.49224535 25.6614969 -60.00527981 24.74114346 -55.9921875 23.64453125 C-54.3475812 23.18190734 -52.70305266 22.71900693 -51.05859375 22.25585938 C-48.49114556 21.53923258 -45.92292884 20.82570015 -43.35302734 20.11791992 C-34.30725579 17.61817445 -25.40208648 14.97354386 -16.6953125 11.44921875 C-16.01991425 11.17987015 -15.34451599 10.91052155 -14.64865112 10.63301086 C-8.87890849 8.20702125 -3.54000931 5.31001397 0 0 Z " fill="#89807F" transform="translate(300,109)"/>
<path d="M0 0 C0.66 0.33 1.32 0.66 2 1 C-5.32053953 7.64583543 -12.76302625 11.5669784 -22 15 C-22.83144531 15.33 -23.66289063 15.66 -24.51953125 16 C-34.86889549 19.66723639 -47.25806356 19.75777142 -58 18 C-58 17.67 -58 17.34 -58 17 C-57.04222656 16.90203125 -56.08445313 16.8040625 -55.09765625 16.703125 C-36.35798965 14.65983691 -19.32948492 10.0371169 -2.57421875 1.19140625 C-1.72472656 0.79824219 -0.87523437 0.40507812 0 0 Z " fill="#8A8180" transform="translate(113,206)"/>
<path d="M0 0 C0.99 0 1.98 0 3 0 C3.8353125 1.794375 3.8353125 1.794375 4.6875 3.625 C6.12113272 6.54383497 7.61567078 8.85680615 9.8125 11.25 C12 14 12 14 11.875 16.1875 C11.441875 17.0846875 11.441875 17.0846875 11 18 C10.67 18.99 10.34 19.98 10 21 C20.03349277 20.30313614 20.03349277 20.30313614 30 19 C30.66 21.31 31.32 23.62 32 26 C28.39490895 25.9192124 24.79152079 25.80636316 21.1875 25.6875 C20.16333984 25.66494141 19.13917969 25.64238281 18.08398438 25.61914062 C17.10107422 25.58369141 16.11816406 25.54824219 15.10546875 25.51171875 C14.19949951 25.48553467 13.29353027 25.45935059 12.36010742 25.43237305 C9.5793508 24.92293682 8.63070614 24.28609021 7 22 C7 21.01 7 20.02 7 19 C5.68 19 4.36 19 3 19 C3 17.68 3 16.36 3 15 C3.99 14.67 4.98 14.34 6 14 C5.38125 12.9275 4.7625 11.855 4.125 10.75 C0 3.49468085 0 3.49468085 0 0 Z " fill="#7B5C40" transform="translate(90,143)"/>
<path d="M0 0 C0.66 0 1.32 0 2 0 C3.81040307 3.98288676 4.45897502 7.67180013 5 12 C5.20625 12.94875 5.4125 13.8975 5.625 14.875 C5.74875 15.57625 5.8725 16.2775 6 17 C4.09731293 18.90268707 0.84310855 18.17427843 -1.6875 18.1875 C-2.90824219 18.20167969 -4.12898438 18.21585938 -5.38671875 18.23046875 C-8.94410541 18.00356517 -11.69249668 17.28540452 -15 16 C-15.33 14.35 -15.66 12.7 -16 11 C-12.23491505 8.48994336 -9.60538391 8.9741705 -5.3125 9.375 C-4.61060547 9.43171875 -3.90871094 9.4884375 -3.18554688 9.546875 C-1.45619715 9.68804641 0.27204088 9.84271959 2 10 C1.34 6.7 0.68 3.4 0 0 Z " fill="#696D7D" transform="translate(87,191)"/>
<path d="M0 0 C6.75 2.625 6.75 2.625 9 6 C9 6.99 9 7.98 9 9 C10.11375 9.433125 10.11375 9.433125 11.25 9.875 C13.56739797 10.82302644 15.77917115 11.84845911 18 13 C18 13.66 18 14.32 18 15 C17.34 15 16.68 15 16 15 C16 15.99 16 16.98 16 18 C17.32 17.67 18.64 17.34 20 17 C19.67 17.66 19.34 18.32 19 19 C16.03 19 13.06 19 10 19 C9.67 18.01 9.34 17.02 9 16 C6.79108957 13.87446128 6.79108957 13.87446128 4.125 11.8125 C3.24070312 11.09707031 2.35640625 10.38164062 1.4453125 9.64453125 C-0.9237553 7.72096973 -0.9237553 7.72096973 -4 8 C-4.25 5.6875 -4.25 5.6875 -4 3 C-2 1.1875 -2 1.1875 0 0 Z " fill="#5D5864" transform="translate(50,156)"/>
<path d="M0 0 C-3.465 1.485 -3.465 1.485 -7 3 C-7 3.99 -7 4.98 -7 6 C-5.02 6 -3.04 6 -1 6 C-1 4.68 -1 3.36 -1 2 C0.98 2 2.96 2 5 2 C4.67 2.99 4.34 3.98 4 5 C2.68 4.34 1.36 3.68 0 3 C6.91149919 11.99729516 6.91149919 11.99729516 16 18 C14.89847594 16.56047403 13.7936696 15.12345929 12.6875 13.6875 C12.07261719 12.88699219 11.45773438 12.08648437 10.82421875 11.26171875 C9.30083693 9.37298626 7.75565593 7.66922364 6 6 C12.74203822 7.62738854 12.74203822 7.62738854 14.6875 10.4375 C16 13 16 13 16 15 C16.66 15 17.32 15 18 15 C18 16.32 18 17.64 18 19 C15.8125 19.8125 15.8125 19.8125 13 20 C10.1875 17.5625 10.1875 17.5625 8 15 C7.34 15.33 6.68 15.66 6 16 C5.71125 15.360625 5.4225 14.72125 5.125 14.0625 C4.17176549 11.84793921 4.17176549 11.84793921 2 11 C3.32 14.96 4.64 18.92 6 23 C6.33 21.02 6.66 19.04 7 17 C9 19 9 19 9.125 22.625 C9.08375 23.73875 9.0425 24.8525 9 26 C8.01 26.33 7.02 26.66 6 27 C2.25211467 23.00225564 0.61838048 19.37281404 0 14 C0.12412016 11.56356728 0.50001959 9.39990599 1 7 C-0.6396875 7.556875 -0.6396875 7.556875 -2.3125 8.125 C-3.529375 8.41375 -4.74625 8.7025 -6 9 C-6.99 8.34 -7.98 7.68 -9 7 C-9 5.68 -9 4.36 -9 3 C-9.66 2.67 -10.32 2.34 -11 2 C-9.54494642 1.47007308 -8.08581873 0.9513211 -6.625 0.4375 C-5.81289062 0.14746094 -5.00078125 -0.14257812 -4.1640625 -0.44140625 C-2 -1 -2 -1 0 0 Z " fill="#A0836A" transform="translate(95,183)"/>
<path d="M0 0 C1.625 2.75 1.625 2.75 3 6 C2.13844963 9.02132734 1.09184937 9.93820012 -1.53125 11.703125 C-2.5109375 12.21359375 -3.490625 12.7240625 -4.5 13.25 C-5.96953125 14.03117188 -5.96953125 14.03117188 -7.46875 14.828125 C-10 16 -10 16 -12 16 C-12.33 14.02 -12.66 12.04 -13 10 C-13.33 11.65 -13.66 13.3 -14 15 C-16.5499869 13.72500655 -16.65976415 12.81508648 -17.625 10.1875 C-17.88539062 9.50042969 -18.14578125 8.81335938 -18.4140625 8.10546875 C-19 6 -19 6 -19 2 C-16 3 -16 3 -14 5 C-10.1332323 8.81328241 -10.1332323 8.81328241 -5.125 10.3125 C-4.42375 10.209375 -3.7225 10.10625 -3 10 C-3 8.68 -3 7.36 -3 6 C-3.66 6 -4.32 6 -5 6 C-5.66 4.68 -6.32 3.36 -7 2 C-2.25 0 -2.25 0 0 0 Z " fill="#B6A7A5" transform="translate(116,192)"/>
<path d="M0 0 C3.86028469 0.55146924 5.54750485 2.01102153 8 5 C10.58183288 9.22642505 12.63616973 12.91064214 12 18 C10.35 18.33 8.7 18.66 7 19 C6.03576974 17.60823368 5.07888398 16.2113777 4.125 14.8125 C3.59132813 14.03519531 3.05765625 13.25789062 2.5078125 12.45703125 C0.3569916 8.95219616 -1.17774515 6.33308865 -0.625 2.1875 C-0.41875 1.465625 -0.2125 0.74375 0 0 Z " fill="#747C90" transform="translate(102,175)"/>
<path d="M0 0 C3.96 0 7.92 0 12 0 C12 0.33 12 0.66 12 1 C8.7 1 5.4 1 2 1 C2 1.66 2 2.32 2 3 C1.34 3 0.68 3 0 3 C0 4.32 0 5.64 0 7 C8.58 7 17.16 7 26 7 C26.33 8.32 26.66 9.64 27 11 C25 13 25 13 22.609375 13.01171875 C21.66578125 12.90472656 20.7221875 12.79773438 19.75 12.6875 C18.27080078 12.52121094 18.27080078 12.52121094 16.76171875 12.3515625 C15.85035156 12.23554688 14.93898438 12.11953125 14 12 C12.865625 11.855625 11.73125 11.71125 10.5625 11.5625 C8.08877115 11.01948635 6.1863845 10.26137567 4 9 C4 9.66 4 10.32 4 11 C3.34 11 2.68 11 2 11 C2 10.01 2 9.02 2 8 C-0.31 8 -2.62 8 -5 8 C-4.01 7.34 -3.02 6.68 -2 6 C-0.78715124 2.94570927 -0.78715124 2.94570927 0 0 Z " fill="#573A38" transform="translate(98,166)"/>
<path d="M0 0 C8.81982878 0.49923559 16.70068801 4.08118435 24 9 C24 9.66 24 10.32 24 11 C14.55826311 11.15551096 7.19290594 7.18384397 -1 3 C-0.67 2.01 -0.34 1.02 0 0 Z " fill="#DEB468" transform="translate(61,161)"/>
<path d="M0 0 C5.74167222 1.12581808 9.89416356 6.34768302 13.875 10.3125 C13.545 10.9725 13.215 11.6325 12.875 12.3125 C8.08593135 12.01318321 5.3313263 9.59232829 1.7421875 6.6875 C-0.18275029 5.12219136 -0.18275029 5.12219136 -3.125 4.3125 C-2.135 6.2925 -1.145 8.2725 -0.125 10.3125 C-4.80192308 8.83557692 -4.80192308 8.83557692 -6.4375 6.1875 C-6.664375 5.56875 -6.89125 4.95 -7.125 4.3125 C-4.87172892 1.33818217 -3.77047201 0.3770472 0 0 Z " fill="#453235" transform="translate(47.125,162.6875)"/>
<path d="M0 0 C0.33 0.66 0.66 1.32 1 2 C1.66 1.67 2.32 1.34 3 1 C5.3329866 0.95977609 7.66706666 0.95679753 10 1 C9.39009109 4.55780196 8.4216319 7.6828589 7 11 C6.34 10.67 5.68 10.34 5 10 C1.36145635 10.98520566 -2.20599894 12.10142289 -5.79101562 13.26171875 C-6.53931641 13.49503906 -7.28761719 13.72835937 -8.05859375 13.96875 C-8.74236084 14.18982422 -9.42612793 14.41089844 -10.13061523 14.63867188 C-12 15 -12 15 -15 14 C-14.01 13.61328125 -13.02 13.2265625 -12 12.828125 C0.01084022 9.15421954 0.01084022 9.15421954 9 2 C1.63415742 4.24276814 -5.70766118 6.52802074 -13 9 C-10.94766315 6.7522025 -9.99332739 5.9977758 -7 5 C-8.65 4.67 -10.3 4.34 -12 4 C-12 3.34 -12 2.68 -12 2 C-8.37 2 -4.74 2 -1 2 C-0.67 1.34 -0.34 0.68 0 0 Z " fill="#8C6F59" transform="translate(64,195)"/>
<path d="M0 0 C-1.03255007 2.82150311 -1.76421177 3.86053049 -4.390625 5.4140625 C-5.33421875 5.81367188 -6.2778125 6.21328125 -7.25 6.625 C-8.73113281 7.25341797 -8.73113281 7.25341797 -10.2421875 7.89453125 C-14.99836432 9.80104406 -18.82492962 11.3044159 -24 11 C-23.02551631 8.54327534 -22.39919155 7.24597488 -20.1171875 5.83984375 C-19.37726562 5.54207031 -18.63734375 5.24429688 -17.875 4.9375 C-17.07320312 4.61136719 -16.27140625 4.28523437 -15.4453125 3.94921875 C-14.63835938 3.63597656 -13.83140625 3.32273438 -13 3 C-12.27554688 2.69707031 -11.55109375 2.39414063 -10.8046875 2.08203125 C-7.09136895 0.57834902 -4.01825705 -0.3767116 0 0 Z " fill="#E7BB6C" transform="translate(73,197)"/>
<path d="M0 0 C0.33 0 0.66 0 1 0 C1.309375 1.485 1.309375 1.485 1.625 3 C2.77317002 7.14523148 5.05711926 10.01213805 7.7578125 13.30078125 C9 15 9 15 9 17 C9.66 17.33 10.32 17.66 11 18 C8 19 8 19 5.8125 18.0625 C4.9153125 17.5365625 4.9153125 17.5365625 4 17 C4 16.34 4 15.68 4 15 C3.01 15 2.02 15 1 15 C-0.82421875 12.6640625 -0.82421875 12.6640625 -2.6875 9.625 C-3.31011719 8.62726563 -3.93273438 7.62953125 -4.57421875 6.6015625 C-6 4 -6 4 -6 2 C-3.525 2.99 -3.525 2.99 -1 4 C-0.67 2.68 -0.34 1.36 0 0 Z " fill="#AA8F91" transform="translate(38,186)"/>
<path d="M0 0 C3.27075883 -0.0580476 6.54138524 -0.09361165 9.8125 -0.125 C10.74126953 -0.14175781 11.67003906 -0.15851563 12.62695312 -0.17578125 C13.51962891 -0.18222656 14.41230469 -0.18867188 15.33203125 -0.1953125 C16.15421143 -0.20578613 16.9763916 -0.21625977 17.82348633 -0.22705078 C20 0 20 0 23 2 C23 2.66 23 3.32 23 4 C15.41 4 7.82 4 0 4 C0 2.68 0 1.36 0 0 Z " fill="#DEA3A9" transform="translate(100,168)"/>
<path d="M0 0 C3.71455039 0.47168894 4.68199271 1.99116059 7.01953125 4.84375 C7.71691406 5.6790625 8.41429688 6.514375 9.1328125 7.375 C9.65230469 8.0246875 10.17179687 8.674375 10.70703125 9.34375 C10.37703125 10.00375 10.04703125 10.66375 9.70703125 11.34375 C9.16433594 10.85003906 8.62164062 10.35632813 8.0625 9.84765625 C7.34707031 9.20699219 6.63164063 8.56632813 5.89453125 7.90625 C5.18683594 7.26816406 4.47914062 6.63007813 3.75 5.97265625 C1.70806973 4.15288988 1.70806973 4.15288988 -1.29296875 3.34375 C-0.11116791 8.36640357 1.15695407 11.4386651 4.70703125 15.34375 C1.32679608 15.34375 -1.12765812 14.46919378 -4.29296875 13.34375 C-4.29296875 12.68375 -4.29296875 12.02375 -4.29296875 11.34375 C-3.63296875 11.01375 -2.97296875 10.68375 -2.29296875 10.34375 C-2.95296875 9.35375 -3.61296875 8.36375 -4.29296875 7.34375 C-3.61275429 0.54160541 -3.61275429 0.54160541 0 0 Z " fill="#4F302D" transform="translate(68.29296875,146.65625)"/>
<path d="M0 0 C2.5 1.375 2.5 1.375 5 3 C5 3.66 5 4.32 5 5 C5.598125 5.20625 6.19625 5.4125 6.8125 5.625 C9.87311475 7.54881498 10.6750005 9.68750124 12 13 C12 14.32 12 15.64 12 17 C10.02 17.99 10.02 17.99 8 19 C5 13.25 5 13.25 5 11 C4.34 11 3.68 11 3 11 C2.01 7.37 1.02 3.74 0 0 Z " fill="#B39A9A" transform="translate(111,181)"/>
<path d="M0 0 C16.8929385 0.59453303 16.8929385 0.59453303 24 4 C24 4.66 24 5.32 24 6 C15.16749011 6.56377723 8.21472661 5.26258646 0 2 C0 1.34 0 0.68 0 0 Z " fill="#E8BD6D" transform="translate(40,179)"/>
<path d="M0 0 C0.8971875 0.5259375 0.8971875 0.5259375 1.8125 1.0625 C1.4825 1.7225 1.1525 2.3825 0.8125 3.0625 C-0.5075 3.0625 -1.8275 3.0625 -3.1875 3.0625 C-3.1875 7.3525 -3.1875 11.6425 -3.1875 16.0625 C-5.48014797 13.76985203 -7.38469183 11.72378825 -9.1875 9.0625 C-9.1875 8.4025 -9.1875 7.7425 -9.1875 7.0625 C-11.4975 7.0625 -13.8075 7.0625 -16.1875 7.0625 C-15.5275 6.0725 -14.8675 5.0825 -14.1875 4.0625 C-11.0625 3.875 -11.0625 3.875 -8.1875 4.0625 C-7.8575 4.7225 -7.5275 5.3825 -7.1875 6.0625 C-6.919375 5.093125 -6.65125 4.12375 -6.375 3.125 C-5.7871875 1.6090625 -5.7871875 1.6090625 -5.1875 0.0625 C-2.1875 -0.9375 -2.1875 -0.9375 0 0 Z " fill="#4B302A" transform="translate(106.1875,135.9375)"/>
<path d="M0 0 C0.99 0 1.98 0 3 0 C4.50156874 3.00313748 4.09281204 5.79067522 4.0625 9.125 C4.05347656 10.40632812 4.04445313 11.68765625 4.03515625 13.0078125 C4.02355469 13.99523437 4.01195313 14.98265625 4 16 C3.34 16 2.68 16 2 16 C1.67 16.66 1.34 17.32 1 18 C0.67 17.01 0.34 16.02 0 15 C-0.66 15 -1.32 15 -2 15 C-1.835 14.175 -1.67 13.35 -1.5 12.5 C-1.11004197 9.77029378 -0.96065453 7.41709197 -1 4.6875 C-1 1 -1 1 0 0 Z " fill="#CB9693" transform="translate(103,138)"/>
<path d="M0 0 C4.26560884 1.41418383 7.0059986 3.48251131 10.3125 6.5 C11.19550781 7.2940625 12.07851563 8.088125 12.98828125 8.90625 C15 11 15 11 15 13 C11.5535062 13.42227311 10.24096542 13.16463039 7.32421875 11.171875 C6.45410156 10.37265625 5.58398438 9.5734375 4.6875 8.75 C3.80449219 7.96109375 2.92148437 7.1721875 2.01171875 6.359375 C0 4 0 4 0 0 Z " fill="#7092BB" transform="translate(50,160)"/>
<path d="M0 0 C3.95262453 0.53293814 5.59776117 2.31528658 8.1875 5.25 C9.22970703 6.40242187 9.22970703 6.40242187 10.29296875 7.578125 C12.09554852 10.13556084 12.63443924 11.92274227 13 15 C9.04737547 14.46706186 7.40223883 12.68471342 4.8125 9.75 C4.11769531 8.98171875 3.42289062 8.2134375 2.70703125 7.421875 C0.90445148 4.86443916 0.36556076 3.07725773 0 0 Z " fill="#7093BC" transform="translate(82,157)"/>
<path d="M0 0 C4.44637912 0.54362664 7.15350055 2.19288756 10.75 4.8125 C11.71421875 5.49957031 12.6784375 6.18664062 13.671875 6.89453125 C16.02195033 9.01985105 16.69450118 9.91029607 17 13 C10.58188013 11.78930921 4.09906283 6.99016345 0 2 C0 1.34 0 0.68 0 0 Z " fill="#E6BB6C" transform="translate(113,178)"/>
<path d="M0 0 C0.66 2.31 1.32 4.62 2 7 C-5.26 6.67 -12.52 6.34 -20 6 C-16.76951353 2.76951353 -15.43497105 2.32819143 -11.125 1.3125 C-9.58199219 0.93544922 -9.58199219 0.93544922 -8.0078125 0.55078125 C-5.25122779 0.04600405 -2.79230447 -0.10818892 0 0 Z " fill="#6B4C3C" transform="translate(120,162)"/>
<path d="M0 0 C-0.33 0.99 -0.66 1.98 -1 3 C-3.77799075 3.89122235 -6.40909536 4.58410125 -9.25 5.1875 C-10.39662109 5.45336914 -10.39662109 5.45336914 -11.56640625 5.72460938 C-15.43754656 6.59043437 -19.00778876 7.23154825 -23 7 C-22.67 6.01 -22.34 5.02 -22 4 C-19.59418489 3.10306893 -17.35392165 2.4204035 -14.875 1.8125 C-14.22273438 1.63525391 -13.57046875 1.45800781 -12.8984375 1.27539062 C-8.52416901 0.15144664 -4.54582655 -0.17120645 0 0 Z " fill="#EEB1B8" transform="translate(65,210)"/>
<path d="M0 0 C4.22445961 0.48445638 6.01148244 2.78745569 8.75 5.875 C9.94882813 7.20144531 9.94882813 7.20144531 11.171875 8.5546875 C13 11 13 11 13 14 C8.46879435 13.53180187 6.64439816 12.08988187 3.6875 8.6875 C2.99011719 7.90761719 2.29273437 7.12773437 1.57421875 6.32421875 C0 4 0 4 0 0 Z " fill="#E1A6AC" transform="translate(67,150)"/>
<path d="M0 0 C0.89203125 0.01804688 1.7840625 0.03609375 2.703125 0.0546875 C3.71632813 0.08949219 3.71632813 0.08949219 4.75 0.125 C4.5 2.5 4.5 2.5 3.75 5.125 C-0.21486689 7.73736557 -4.77485271 7.91847938 -9.375 8.5625 C-12.21530842 8.97982417 -12.21530842 8.97982417 -14.421875 10.2421875 C-16.25 11.125 -16.25 11.125 -19.5 10.25 C-20.4075 9.87875 -21.315 9.5075 -22.25 9.125 C-21.92 8.465 -21.59 7.805 -21.25 7.125 C-19.421875 6.81640625 -19.421875 6.81640625 -17 6.6875 C-10.63975834 6.1720535 -4.3427968 5.0456554 1.75 3.125 C2.08 2.465 2.41 1.805 2.75 1.125 C-3.19 1.62 -3.19 1.62 -9.25 2.125 C-5.38209997 0.19104999 -4.0999541 -0.10789353 0 0 Z " fill="#9E7D7D" transform="translate(62.25,208.875)"/>
<path d="M0 0 C2.97 0 5.94 0 9 0 C12 5.75 12 5.75 12 8 C7.6822542 7.49202991 3.96697886 6.80317221 0 5 C0 3.35 0 1.7 0 0 Z " fill="#DCCCC9" transform="translate(59,175)"/>
<path d="M0 0 C3.3 0.66 6.6 1.32 10 2 C10 3.32 10 4.64 10 6 C7.11584117 7.44207941 4.58278472 7.09394887 1.375 7.0625 C0.18648438 7.05347656 -1.00203125 7.04445312 -2.2265625 7.03515625 C-3.14179687 7.02355469 -4.05703125 7.01195312 -5 7 C-4.67 5.68 -4.34 4.36 -4 3 C-1 3 -1 3 1 4 C0.67 2.68 0.34 1.36 0 0 Z " fill="#B89358" transform="translate(105,157)"/>
<path d="M0 0 C-1 3 -1 3 -3.125 4.125 C-9.707431 6.12834857 -16.18872646 6.12334298 -23 6 C-23 5.34 -23 4.68 -23 4 C-20.10555905 3.3267344 -17.20969987 2.66119596 -14.3125 2 C-13.49587891 1.80921875 -12.67925781 1.6184375 -11.83789062 1.421875 C-7.82760674 0.51266084 -4.14282748 -0.27000098 0 0 Z " fill="#F3B4BB" transform="translate(99,175)"/>
<path d="M0 0 C4.43054103 0.61627826 7.82358243 2.26965845 11.75 4.375 C12.89984375 4.98085937 14.0496875 5.58671875 15.234375 6.2109375 C18 8 18 8 19 11 C15.27209995 10.39980142 12.29695477 9.3384777 8.9375 7.625 C8.10089844 7.20476562 7.26429687 6.78453125 6.40234375 6.3515625 C4.08369394 5.04708635 2.01391612 3.73950261 0 2 C0 1.34 0 0.68 0 0 Z " fill="#E7BC6D" transform="translate(26,197)"/>
<path d="M0 0 C3.15213946 5.33438986 3.15213946 5.33438986 2.5 8.1875 C0.59937491 10.48408865 -1.34417402 11.67208701 -4 13 C-4.66 13 -5.32 13 -6 13 C-5.67 12.01 -5.34 11.02 -5 10 C-4.34 10 -3.68 10 -3 10 C-3 8.68 -3 7.36 -3 6 C-3.66 6 -4.32 6 -5 6 C-5.66 4.68 -6.32 3.36 -7 2 C-2.25 0 -2.25 0 0 0 Z " fill="#DAC9C7" transform="translate(116,192)"/>
<path d="M0 0 C1.796875 0.171875 1.796875 0.171875 4 1 C5.703125 3.328125 5.703125 3.328125 7.25 6.25 C8.03117187 7.68085938 8.03117187 7.68085938 8.828125 9.140625 C10.01306919 12.03188883 10.24763973 13.91575974 10 17 C5.81624532 15.60541511 5.33736111 13.47096261 3.3125 9.625 C2.68988281 8.46226562 2.06726563 7.29953125 1.42578125 6.1015625 C0 3 0 3 0 0 Z " fill="#7193BD" transform="translate(102,175)"/>
<path d="M0 0 C2.43757413 -0.02698422 4.87484915 -0.04683099 7.3125 -0.0625 C8.00279297 -0.07087891 8.69308594 -0.07925781 9.40429688 -0.08789062 C12.5483025 -0.10307906 14.99420019 -0.00193327 18 1 C18 1.99 18 2.98 18 4 C5.33029613 4.18451025 5.33029613 4.18451025 0 3 C0 2.01 0 1.02 0 0 Z " fill="#7397C2" transform="translate(73,203)"/>
<path d="M0 0 C0.66 0.33 1.32 0.66 2 1 C-6.25 9.25 -14.5 17.5 -23 26 C-23 22.48401315 -22.56814673 22.16359981 -20.25390625 19.70703125 C-19.66754395 19.07998291 -19.08118164 18.45293457 -18.47705078 17.80688477 C-17.84524902 17.14873779 -17.21344727 16.49059082 -16.5625 15.8125 C-15.92812012 15.14210693 -15.29374023 14.47171387 -14.64013672 13.78100586 C-9.98553281 8.90860473 -5.1934569 4.30040214 0 0 Z " fill="#877E7C" transform="translate(151,174)"/>
<path d="M0 0 C6.2076064 1.05307609 10.47797107 6.28771746 14.5 10.8125 C16 13 16 13 16 15 C12.86915901 14.42235562 11.22256994 13.59969956 8.984375 11.34765625 C8.45585938 10.81849609 7.92734375 10.28933594 7.3828125 9.74414062 C6.84398438 9.18919922 6.30515625 8.63425781 5.75 8.0625 C5.19570312 7.51142578 4.64140625 6.96035156 4.0703125 6.39257812 C0 2.26712592 0 2.26712592 0 0 Z " fill="#E6BB6C" transform="translate(95,186)"/>
<path d="M0 0 C1.32 0 2.64 0 4 0 C4.33 0.99 4.66 1.98 5 3 C4.360625 3.12375 3.72125 3.2475 3.0625 3.375 C2.381875 3.58125 1.70125 3.7875 1 4 C0.67 4.66 0.34 5.32 0 6 C1.03125 6.2475 2.0625 6.495 3.125 6.75 C7.00600143 7.84079063 9.76009641 9.62933884 13 12 C12.67 12.99 12.34 13.98 12 15 C10.02 15.33 8.04 15.66 6 16 C6 15.01 6 14.02 6 13 C6.66 13 7.32 13 8 13 C8 12.34 8 11.68 8 11 C7.1646875 10.8453125 7.1646875 10.8453125 6.3125 10.6875 C3.44533595 9.83509988 1.39084346 8.80928694 -1 7 C-1.9375 4.4375 -1.9375 4.4375 -2 2 C-1.34 1.34 -0.68 0.68 0 0 Z " fill="#664C37" transform="translate(60,158)"/>
<path d="M0 0 C3.32140231 0.61949751 5.48166622 1.80723857 8.1875 3.8125 C8.88230469 4.31394531 9.57710937 4.81539062 10.29296875 5.33203125 C12.21295682 7.20808367 12.61932203 8.38070828 13 11 C8.06502008 10.29500287 4.56430801 8.72613298 1.1875 5 C0 3 0 3 0 0 Z " fill="#E8ACB2" transform="translate(44,167)"/>
<path d="M0 0 C0.96421875 0.08378906 1.9284375 0.16757813 2.921875 0.25390625 C4.81679687 0.40666016 4.81679687 0.40666016 6.75 0.5625 C8.62945312 0.71912109 8.62945312 0.71912109 10.546875 0.87890625 C13.39452364 0.97876723 15.34286067 0.90584295 18 0 C18.33 0.99 18.66 1.98 19 3 C17 5 17 5 14.57421875 5.01171875 C13.14529297 4.85123047 13.14529297 4.85123047 11.6875 4.6875 C10.74261719 4.58824219 9.79773438 4.48898438 8.82421875 4.38671875 C6.18637051 4.02551961 3.60329538 3.55480065 1 3 C0.67 2.01 0.34 1.02 0 0 Z " fill="#3E241C" transform="translate(106,174)"/>
<path d="M0 0 C1.21816406 0.03480469 1.21816406 0.03480469 2.4609375 0.0703125 C3.68683594 0.09738281 3.68683594 0.09738281 4.9375 0.125 C5.87722656 0.15980469 5.87722656 0.15980469 6.8359375 0.1953125 C7.1659375 1.8453125 7.4959375 3.4953125 7.8359375 5.1953125 C5.08718068 5.86749757 2.33713024 6.53323685 -0.4140625 7.1953125 C-1.19136719 7.38609375 -1.96867187 7.576875 -2.76953125 7.7734375 C-3.90068359 8.04414063 -3.90068359 8.04414063 -5.0546875 8.3203125 C-5.74594727 8.48789063 -6.43720703 8.65546875 -7.14941406 8.828125 C-9.1640625 9.1953125 -9.1640625 9.1953125 -13.1640625 9.1953125 C-13.4940625 10.1853125 -13.8240625 11.1753125 -14.1640625 12.1953125 C-15.1540625 10.8753125 -16.1440625 9.5553125 -17.1640625 8.1953125 C-15.99488281 8.00195312 -14.82570313 7.80859375 -13.62109375 7.609375 C-12.07286718 7.34664564 -10.5246928 7.08360858 -8.9765625 6.8203125 C-7.82317383 6.63082031 -7.82317383 6.63082031 -6.64648438 6.4375 C-2.62035985 5.74631982 1.1587543 5.06603483 4.8359375 3.1953125 C5.1659375 2.5353125 5.4959375 1.8753125 5.8359375 1.1953125 C2.5359375 1.5253125 -0.7640625 1.8553125 -4.1640625 2.1953125 C-2.1640625 0.1953125 -2.1640625 0.1953125 0 0 Z " fill="#9C7B7A" transform="translate(93.1640625,173.8046875)"/>
<path d="M0 0 C1.5625 1.8125 1.5625 1.8125 3 4 C2.67 4.99 2.34 5.98 2 7 C1.34 6.67 0.68 6.34 0 6 C0.33 7.98 0.66 9.96 1 12 C0.34 11.67 -0.32 11.34 -1 11 C-1 10.01 -1 9.02 -1 8 C-9.58 8 -18.16 8 -27 8 C-26.67 6.68 -26.34 5.36 -26 4 C-25.67 4.66 -25.34 5.32 -25 6 C-17.41 6.33 -9.82 6.66 -2 7 C-2.33 5.68 -2.66 4.36 -3 3 C-2.34 3 -1.68 3 -1 3 C-0.67 2.01 -0.34 1.02 0 0 Z " fill="#916667" transform="translate(125,165)"/>
<path d="M0 0 C2.86724686 0.57344937 3.8614515 0.8614515 6 3 C6.103125 3.61875 6.20625 4.2375 6.3125 4.875 C7.30802953 7.95209127 9.49041506 9.06955005 12 11 C12 11.66 12 12.32 12 13 C11.01 13 10.02 13 9 13 C8.34 12.01 7.68 11.02 7 10 C4.80545319 9.42006301 4.80545319 9.42006301 2.375 9.3125 C1.55773437 9.24675781 0.74046875 9.18101562 -0.1015625 9.11328125 C-0.72804688 9.07589844 -1.35453125 9.03851563 -2 9 C-2 8.67 -2 8.34 -2 8 C-0.35 8 1.3 8 3 8 C2.505 7.236875 2.01 6.47375 1.5 5.6875 C0 3 0 3 0 0 Z " fill="#CFA0A4" transform="translate(68,175)"/>
<path d="M0 0 C7.36633663 -0.49108911 7.36633663 -0.49108911 10.5 1.9375 C12 4 12 4 12 5 C6.5610835 5.21755666 2.12919186 5.10428384 -3 3 C-2.01 2.67 -1.02 2.34 0 2 C0 1.34 0 0.68 0 0 Z " fill="#7190B6" transform="translate(65,185)"/>
<path d="M0 0 C1.32 0.66 2.64 1.32 4 2 C3.34 3.65 2.68 5.3 2 7 C4.64 7 7.28 7 10 7 C10 7.33 10 7.66 10 8 C6.7 8.33 3.4 8.66 0 9 C-0.33 7.68 -0.66 6.36 -1 5 C-2.32 5 -3.64 5 -5 5 C-5 3.68 -5 2.36 -5 1 C-3.35 1 -1.7 1 0 1 C0 0.67 0 0.34 0 0 Z " fill="#71553C" transform="translate(98,157)"/>
<path d="M0 0 C0.99 0 1.98 0 3 0 C4.38226016 2.76452033 4.09525387 5.0461363 4.0625 8.125 C4.05347656 9.22070312 4.04445313 10.31640625 4.03515625 11.4453125 C4.02355469 12.28835937 4.01195313 13.13140625 4 14 C2.68 13.67 1.36 13.34 0 13 C0 8.71 0 4.42 0 0 Z " fill="#6C89AD" transform="translate(115,149)"/>
<path d="M0 0 C0.66 0 1.32 0 2 0 C2.33 0.99 2.66 1.98 3 3 C2.01 3 1.02 3 0 3 C0.99 6.63 1.98 10.26 3 14 C-2 12 -2 12 -3.1875 9.5625 C-3.455625 8.716875 -3.72375 7.87125 -4 7 C-4.66 6.01 -5.32 5.02 -6 4 C-5.34 4 -4.68 4 -4 4 C-3.34 3.34 -2.68 2.68 -2 2 C-1.34 1.34 -0.68 0.68 0 0 Z " fill="#4F4853" transform="translate(82,153)"/>
<path d="M0 0 C1.58367747 0.14204741 3.16693318 0.28880153 4.75 0.4375 C5.63171875 0.51871094 6.5134375 0.59992188 7.421875 0.68359375 C9.69350452 0.96238465 11.79851823 1.38790577 14 2 C14 2.99 14 3.98 14 5 C9.48382401 5.07654536 5.40914783 5.10228696 1 4 C0.67 2.68 0.34 1.36 0 0 Z " fill="#EAAEB5" transform="translate(49,193)"/>
<path d="M0 0 C0.33 0.66 0.66 1.32 1 2 C2.6635479 2.67441131 4.33066942 3.3400321 6 4 C8.3125 5.5 8.3125 5.5 10 7 C10 7.66 10 8.32 10 9 C6.04 9 2.08 9 -2 9 C-2 8.01 -2 7.02 -2 6 C-0.68 5.67 0.64 5.34 2 5 C2 4.34 2 3.68 2 3 C1.34 3 0.68 3 0 3 C0 2.01 0 1.02 0 0 Z " fill="#462B22" transform="translate(41,169)"/>
<path d="M0 0 C3.59981466 1.44775155 5.15103283 3.20954292 7.25 6.4375 C7.77078125 7.21996094 8.2915625 8.00242188 8.828125 8.80859375 C10 11 10 11 10 14 C6.40018534 12.55224845 4.84896717 10.79045708 2.75 7.5625 C2.22921875 6.78003906 1.7084375 5.99757812 1.171875 5.19140625 C0 3 0 3 0 0 Z " fill="#7295BF" transform="translate(40,187)"/>
<path d="M0 0 C1.890625 0.265625 1.890625 0.265625 4 1 C6.43315632 4.88578696 7.42634867 9.45228087 7 14 C4 13 4 13 2.83203125 10.8203125 C2.49558594 9.93085938 2.15914063 9.04140625 1.8125 8.125 C1.29623047 6.79855469 1.29623047 6.79855469 0.76953125 5.4453125 C0 3 0 3 0 0 Z " fill="#7091B9" transform="translate(82,187)"/>
<path d="M0 0 C0 0.66 0 1.32 0 2 C-1.98 2 -3.96 2 -6 2 C-6 3.32 -6 4.64 -6 6 C-7.98 6.33 -9.96 6.66 -12 7 C-12.33 5.68 -12.66 4.36 -13 3 C-8.37802694 0.78145293 -5.23175837 -0.38281159 0 0 Z " fill="#CCA461" transform="translate(100,183)"/>
<path d="M0 0 C0 0.66 0 1.32 0 2 C-2.39531933 2.64779076 -4.79121748 3.29329009 -7.1875 3.9375 C-7.86103516 4.11990234 -8.53457031 4.30230469 -9.22851562 4.49023438 C-12.80148458 5.4488358 -16.36156738 6.32883282 -20 7 C-20.33 6.01 -20.66 5.02 -21 4 C-18.25124318 3.32781493 -15.50119274 2.66207565 -12.75 2 C-11.97269531 1.80921875 -11.19539063 1.6184375 -10.39453125 1.421875 C-9.64042969 1.24140625 -8.88632813 1.0609375 -8.109375 0.875 C-7.41811523 0.70742187 -6.72685547 0.53984375 -6.01464844 0.3671875 C-4 0 -4 0 0 0 Z " fill="#CEBDBA" transform="translate(101,179)"/>
<path d="M0 0 C0.66 1.98 1.32 3.96 2 6 C-1.3 5.67 -4.6 5.34 -8 5 C-8 3.68 -8 2.36 -8 1 C-5.23735711 0.40267181 -2.83967231 0 0 0 Z " fill="#B9ACAB" transform="translate(83,195)"/>
<path d="M0 0 C1.34173403 0.92543709 2.67320159 1.86577405 4 2.8125 C5.11375 3.59560547 5.11375 3.59560547 6.25 4.39453125 C6.8275 4.92433594 7.405 5.45414063 8 6 C8 6.99 8 7.98 8 9 C3.16743695 8.58578031 1.17320782 6.53586014 -2 3 C-1.34 3 -0.68 3 0 3 C0 2.01 0 1.02 0 0 Z " fill="#53444C" transform="translate(52,166)"/>
<path d="M0 0 C1.98 0.495 1.98 0.495 4 1 C3.01 1.33 2.02 1.66 1 2 C4.71274665 6.5565527 9.79007402 8.57400393 15 11 C14.67 11.66 14.34 12.32 14 13 C8.19657726 11.51194289 3.82409121 8.40902445 -1 5 C-0.67 3.35 -0.34 1.7 0 0 Z " fill="#AD9170" transform="translate(25,195)"/>
<path d="M0 0 C-0.33 1.32 -0.66 2.64 -1 4 C-1.33 3.67 -1.66 3.34 -2 3 C-3.19238281 3.37253906 -4.38476562 3.74507812 -5.61328125 4.12890625 C-7.17954818 4.60722729 -8.74596218 5.08506689 -10.3125 5.5625 C-11.09818359 5.80935547 -11.88386719 6.05621094 -12.69335938 6.31054688 C-13.45068359 6.53935547 -14.20800781 6.76816406 -14.98828125 7.00390625 C-15.68477783 7.21861572 -16.38127441 7.4333252 -17.09887695 7.65454102 C-19 8 -19 8 -22 7 C-20.94039062 6.57847656 -19.88078125 6.15695313 -18.7890625 5.72265625 C-17.40102351 5.16931638 -16.01300367 4.61592847 -14.625 4.0625 C-13.92632812 3.78470703 -13.22765625 3.50691406 -12.5078125 3.22070312 C-4.16216631 -0.10953069 -4.16216631 -0.10953069 0 0 Z " fill="#977D63" transform="translate(71,202)"/>
<path d="M0 0 C2.02408755 0.09002398 4.04544287 0.24641038 6.0625 0.4375 C7.71958984 0.59025391 7.71958984 0.59025391 9.41015625 0.74609375 C10.26480469 0.82988281 11.11945313 0.91367188 12 1 C8.79619983 3.13586678 7.98060033 3.23132175 4.3125 3.125 C3.50425781 3.10695312 2.69601563 3.08890625 1.86328125 3.0703125 C0.94095703 3.03550781 0.94095703 3.03550781 0 3 C0 3.99 0 4.98 0 6 C1.98 6 3.96 6 6 6 C4.25 7.125 4.25 7.125 2 8 C-0.25 7.125 -0.25 7.125 -2 6 C-1.125 1.125 -1.125 1.125 0 0 Z " fill="#6A7082" transform="translate(73,200)"/>
<path d="M0 0 C1.8125 0.125 1.8125 0.125 4 1 C6.28905989 4.67884625 7 6.61551956 7 11 C6.01 11 5.02 11 4 11 C3.32591692 9.73308493 2.66099503 8.46129251 2 7.1875 C1.62875 6.47980469 1.2575 5.77210938 0.875 5.04296875 C0 3 0 3 0 0 Z " fill="#EAAEB5" transform="translate(116,187)"/>
<path d="M0 0 C2 3 2 3 3 6 C3.33 4.02 3.66 2.04 4 0 C6 2 6 2 6.125 5.625 C6.08375 6.73875 6.0425 7.8525 6 9 C5.01 9.33 4.02 9.66 3 10 C0.9375 7.8125 0.9375 7.8125 -1 5 C-0.75 2.1875 -0.75 2.1875 0 0 Z " fill="#A98687" transform="translate(98,200)"/>
<path d="M0 0 C0.66 0 1.32 0 2 0 C4.24828052 4.49656104 4.16682272 8.07872966 4 13 C1.03 12.67 -1.94 12.34 -5 12 C-2 10 -2 10 2 10 C1.34 6.7 0.68 3.4 0 0 Z " fill="#616474" transform="translate(87,191)"/>
<path d="M0 0 C3.4087928 1.3984791 4.87393835 2.85006933 6.75 6 C7.17796875 6.70125 7.6059375 7.4025 8.046875 8.125 C9 10 9 10 9 12 C5.5912072 10.6015209 4.12606165 9.14993067 2.25 6 C1.82203125 5.29875 1.3940625 4.5975 0.953125 3.875 C0 2 0 2 0 0 Z " fill="#F0B2B9" transform="translate(32,188)"/>
<path d="M0 0 C2.0625 0.4375 2.0625 0.4375 4 1 C4.33 2.32 4.66 3.64 5 5 C3.35 4.01 1.7 3.02 0 2 C0.42152344 2.69867188 0.84304687 3.39734375 1.27734375 4.1171875 C1.82519531 5.02726563 2.37304688 5.93734375 2.9375 6.875 C3.48277344 7.77992188 4.02804688 8.68484375 4.58984375 9.6171875 C5.43898017 11.05201636 6.25437724 12.50875448 7 14 C5.35 13.67 3.7 13.34 2 13 C1.814375 12.1028125 1.814375 12.1028125 1.625 11.1875 C1.04524015 8.73768652 1.04524015 8.73768652 -1 6 C-1.1875 3.375 -1.1875 3.375 -1 1 C-0.67 0.67 -0.34 0.34 0 0 Z " fill="#AB8988" transform="translate(32,186)"/>
<path d="M0 0 C3.2500454 2.16669693 4.1296594 3.6489731 6 7 C6.556875 7.928125 7.11375 8.85625 7.6875 9.8125 C8.120625 10.534375 8.55375 11.25625 9 12 C6.03 11.01 3.06 10.02 0 9 C0 8.34 0 7.68 0 7 C0.66 6.67 1.32 6.34 2 6 C1.34 5.01 0.68 4.02 0 3 C0 2.01 0 1.02 0 0 Z " fill="#40261E" transform="translate(64,151)"/>
<path d="M0 0 C2.75 1.9375 2.75 1.9375 5 4 C2.03 6.475 2.03 6.475 -1 9 C-1.99 6.36 -2.98 3.72 -4 1 C-2.68 0.67 -1.36 0.34 0 0 Z " fill="#B4998E" transform="translate(124,188)"/>
<path d="M0 0 C1.98 0 3.96 0 6 0 C5.34 0.66 4.68 1.32 4 2 C7.67387495 2.85298376 11.0447393 3.10789471 14.8125 3.0625 C15.78832031 3.05347656 16.76414062 3.04445312 17.76953125 3.03515625 C18.50558594 3.02355469 19.24164063 3.01195312 20 3 C19.01 4.485 19.01 4.485 18 6 C15.37124622 5.77245411 12.74953041 5.51918261 10.125 5.25 C9.37863281 5.188125 8.63226563 5.12625 7.86328125 5.0625 C5.6953125 4.828125 5.6953125 4.828125 2 4 C0.4921875 1.921875 0.4921875 1.921875 0 0 Z " fill="#6E686A" transform="translate(59,186)"/>
<path d="M0 0 C6.13602988 1.41600689 10.26698362 5.0663375 15 9 C14.01 10.485 14.01 10.485 13 12 C12.34 11.29875 11.68 10.5975 11 9.875 C8.11536514 6.96542593 4.89763674 4.61789844 1.57421875 2.234375 C1.05472656 1.82703125 0.53523438 1.4196875 0 1 C0 0.67 0 0.34 0 0 Z " fill="#AB8C62" transform="translate(117,178)"/>
<path d="M0 0 C1.67542976 0.28604898 3.34385343 0.61781233 5 1 C5 4 5 4 3 6.1875 C2.34 6.785625 1.68 7.38375 1 8 C-1 6 -1 6 -1.1875 3.4375 C-1 1 -1 1 0 0 Z " fill="#74829B" transform="translate(132,179)"/>
<path d="M0 0 C4.05945076 3.74539583 6.78815487 8.45785844 7.25 14 C7.1675 14.66 7.085 15.32 7 16 C5.35 16.33 3.7 16.66 2 17 C2 16.34 2 15.68 2 15 C2.99 15 3.98 15 5 15 C4.80664062 14.41992188 4.61328125 13.83984375 4.4140625 13.2421875 C2.94270833 8.828125 1.47135417 4.4140625 0 0 Z " fill="#6E7485" transform="translate(107,177)"/>
<path d="M0 0 C0.66 0.33 1.32 0.66 2 1 C2 7.27 2 13.54 2 20 C3.98 20 5.96 20 8 20 C8 20.33 8 20.66 8 21 C4.625 21.125 4.625 21.125 1 21 C0.34 20.34 -0.32 19.68 -1 19 C-1 18.01 -1 17.02 -1 16 C-0.34 16 0.32 16 1 16 C0.67 10.72 0.34 5.44 0 0 Z " fill="#755443" transform="translate(106,138)"/>
<path d="M0 0 C-2 2 -2 2 -5.5625 2.5 C-7.2640625 2.7475 -7.2640625 2.7475 -9 3 C-9.33 3.66 -9.66 4.32 -10 5 C-10 3.02 -10 1.04 -10 -1 C-5.92224809 -1.9267618 -3.57818963 -2.33958553 0 0 Z " fill="#B2A3A0" transform="translate(50,210)"/>
<path d="M0 0 C6.74203822 1.62738854 6.74203822 1.62738854 8.6875 4.4375 C10 7 10 7 10 9 C10.66 9 11.32 9 12 9 C12 10.32 12 11.64 12 13 C11.34 13 10.68 13 10 13 C8.96564444 11.35443434 7.97236487 9.6829392 7 8 C4.82355697 5.14341853 2.60437391 2.47415521 0 0 Z " fill="#AC9172" transform="translate(101,189)"/>
<path d="M0 0 C2.45098556 0.39532025 4.63904279 1.21301426 7 2 C8.1875 5.5625 8.1875 5.5625 9 9 C5.37 6.69 1.74 4.38 -2 2 C-1.34 1.34 -0.68 0.68 0 0 Z " fill="#D0BFBB" transform="translate(123,178)"/>
<path d="M0 0 C8.57142857 -0.14285714 8.57142857 -0.14285714 12 1 C12 1.66 12 2.32 12 3 C8.7 3.33 5.4 3.66 2 4 C1.34 2.68 0.68 1.36 0 0 Z " fill="#E0D0CD" transform="translate(72,173)"/>
<path d="M0 0 C3.59231497 0.56845424 5.13251878 1.8471346 7.5625 4.5 C9.83403472 6.96883952 10.74320043 7.91440014 14 9 C14 9.66 14 10.32 14 11 C10.20411134 10.45773019 8.52788007 8.79872437 6 6 C5.01 6.495 5.01 6.495 4 7 C2.02 3.535 2.02 3.535 0 0 Z " fill="#977B65" transform="translate(97,192)"/>
<path d="M0 0 C0.99 0.33 1.98 0.66 3 1 C4.80795432 5.0916861 5.21156222 8.55719328 5 13 C2.4500131 11.72500655 2.34023585 10.81508648 1.375 8.1875 C0.98441406 7.15689453 0.98441406 7.15689453 0.5859375 6.10546875 C0 4 0 4 0 0 Z " fill="#EEB0B7" transform="translate(97,194)"/>
<path d="M0 0 C12.19673577 -0.39700044 12.19673577 -0.39700044 18 2 C18.33 2.99 18.66 3.98 19 5 C17.68 5 16.36 5 15 5 C15 4.34 15 3.68 15 3 C10.05 2.67 5.1 2.34 0 2 C0 1.34 0 0.68 0 0 Z " fill="#A38281" transform="translate(48,192)"/>
<path d="M0 0 C2.97 0.99 5.94 1.98 9 3 C7 7 7 7 4.875 7.75 C3.946875 7.87375 3.946875 7.87375 3 8 C3.33 6.35 3.66 4.7 4 3 C2.35 3 0.7 3 -1 3 C-0.67 2.01 -0.34 1.02 0 0 Z " fill="#7A5F45" transform="translate(121,154)"/>
<path d="M0 0 C4.32239956 3.34003602 7.17477391 6.32751069 10 11 C5.44262737 10.56179109 2.42346555 10.14958831 -1 7 C1.97 7.495 1.97 7.495 5 8 C4.175 7.05125 3.35 6.1025 2.5 5.125 C0 2.25 0 2.25 0 0 Z " fill="#7B5848" transform="translate(67,154)"/>
<path d="M0 0 C1.98 0 3.96 0 6 0 C5 2 5 2 2.625 2.8125 C-0.62165014 4.28122268 -1.43523027 5.87046053 -3 9 C-2.34 9.33 -1.68 9.66 -1 10 C-1.99 10 -2.98 10 -4 10 C-3.979375 9.21625 -3.95875 8.4325 -3.9375 7.625 C-3.81315937 5.01885039 -3.81315937 5.01885039 -5 3 C-4.360625 2.87625 -3.72125 2.7525 -3.0625 2.625 C-2.0415625 2.315625 -2.0415625 2.315625 -1 2 C-0.67 1.34 -0.34 0.68 0 0 Z " fill="#9F8D80" transform="translate(52,199)"/>
<path d="M0 0 C0 0.99 0 1.98 0 3 C-2.64 3.33 -5.28 3.66 -8 4 C-8 3.34 -8 2.68 -8 2 C-8.66 2 -9.32 2 -10 2 C-10 1.34 -10 0.68 -10 0 C-6.30458414 -0.95024979 -3.69541586 -0.95024979 0 0 Z " fill="#BCAEAD" transform="translate(74,192)"/>
<path d="M0 0 C1.65 0 3.3 0 5 0 C5 1.32 5 2.64 5 4 C6.65 4 8.3 4 10 4 C10 4.33 10 4.66 10 5 C8.35 5 6.7 5 5 5 C5 6.32 5 7.64 5 9 C6.32 9.33 7.64 9.66 9 10 C7.35 10 5.7 10 4 10 C4 8.35 4 6.7 4 5 C2.02 5 0.04 5 -2 5 C-2 4.67 -2 4.34 -2 4 C-0.02 4 1.96 4 4 4 C4 3.01 4 2.02 4 1 C2.68 0.67 1.36 0.34 0 0 Z " fill="#A1918C" transform="translate(70,191)"/>
<path d="M0 0 C-1 3 -1 3 -3.3125 4.25 C-6.09873015 5.0275526 -7.33438378 4.98726527 -10 4 C-9.01 4 -8.02 4 -7 4 C-7.33 3.01 -7.66 2.02 -8 1 C-5.07175348 0.02391783 -3.04386724 -0.08226668 0 0 Z " fill="#E8ACB2" transform="translate(99,175)"/>
<path d="M0 0 C3.375 -0.1875 3.375 -0.1875 7 0 C7.66 0.99 8.32 1.98 9 3 C6.69 3.33 4.38 3.66 2 4 C1.34 2.68 0.68 1.36 0 0 Z " fill="#422B24" transform="translate(106,174)"/>
<path d="M0 0 C0.66 0.33 1.32 0.66 2 1 C-1.3 4.3 -4.6 7.6 -8 11 C-8.66 10.34 -9.32 9.68 -10 9 C-6.7 6.03 -3.4 3.06 0 0 Z " fill="#807674" transform="translate(151,174)"/>
<path d="M0 0 C3.465 1.485 3.465 1.485 7 3 C7 3.66 7 4.32 7 5 C2.71 4.34 -1.58 3.68 -6 3 C-6 2.67 -6 2.34 -6 2 C-4.02 2 -2.04 2 0 2 C0 1.34 0 0.68 0 0 Z " fill="#95765C" transform="translate(51,176)"/>
<path d="M0 0 C0.66 0.99 1.32 1.98 2 3 C0.02 2.34 -1.96 1.68 -4 1 C-3.01 2.98 -2.02 4.96 -1 7 C-5.67692308 5.52307692 -5.67692308 5.52307692 -7.3125 2.875 C-7.539375 2.25625 -7.76625 1.6375 -8 1 C-5.01726077 0.00575359 -3.10494126 -0.31845551 0 0 Z " fill="#7F5757" transform="translate(48,166)"/>
<path d="M0 0 C1.20628008 2.33214148 2.1654738 4.49642139 3 7 C0.03 6.505 0.03 6.505 -3 6 C-3.33 5.01 -3.66 4.02 -4 3 C-3 1 -3 1 0 0 Z " fill="#614D4E" transform="translate(119,162)"/>
<path d="M0 0 C0.99 0 1.98 0 3 0 C3 0.99 3 1.98 3 3 C5.64 3 8.28 3 11 3 C11 3.33 11 3.66 11 4 C7.7 4.33 4.4 4.66 1 5 C0.67 3.35 0.34 1.7 0 0 Z " fill="#7F5F3E" transform="translate(97,161)"/>
<path d="M0 0 C0.66 0 1.32 0 2 0 C2.33 0.99 2.66 1.98 3 3 C2.01 3.33 1.02 3.66 0 4 C-1.66710346 5.49985609 -1.66710346 5.49985609 -3 7 C-3.99 6.01 -4.98 5.02 -6 4 C-5.34 4 -4.68 4 -4 4 C-3.34 3.34 -2.68 2.68 -2 2 C-1.34 1.34 -0.68 0.68 0 0 Z " fill="#513F45" transform="translate(82,153)"/>
<path d="M0 0 C2.475 0.99 2.475 0.99 5 2 C5 2.99 5 3.98 5 5 C2.29120665 6.35439668 -0.00933268 6.06501451 -3 6 C-3.33 5.34 -3.66 4.68 -4 4 C-1.03 4.495 -1.03 4.495 2 5 C1.34 3.35 0.68 1.7 0 0 Z " fill="#9C8266" transform="translate(43,203)"/>
<path d="M0 0 C2 1.375 2 1.375 4 3 C4 3.66 4 4.32 4 5 C4.66 5.33 5.32 5.66 6 6 C3 7 3 7 0.8125 6.0625 C0.214375 5.711875 -0.38375 5.36125 -1 5 C-0.67 3.35 -0.34 1.7 0 0 Z " fill="#BDAEAC" transform="translate(43,198)"/>
<path d="M0 0 C3.3 0 6.6 0 10 0 C9.34 1.32 8.68 2.64 8 4 C6.68 3.34 5.36 2.68 4 2 C4 2.66 4 3.32 4 4 C3.34 4 2.68 4 2 4 C2 3.01 2 2.02 2 1 C1.34 0.67 0.68 0.34 0 0 Z " fill="#4A3D43" transform="translate(98,173)"/>
<path d="M0 0 C3.125 -0.1875 3.125 -0.1875 6 0 C6 1.65 6 3.3 6 5 C5.67 4.34 5.34 3.68 5 3 C2.69 3 0.38 3 -2 3 C-1.34 2.01 -0.68 1.02 0 0 Z " fill="#6D5036" transform="translate(92,140)"/>
<path d="M0 0 C2.5 2.3125 2.5 2.3125 5 5 C5 5.99 5 6.98 5 8 C3.66666667 8 2.33333333 8 1 8 C0 2.25 0 2.25 0 0 Z " fill="#967348" transform="translate(96,151)"/>
<path d="M0 0 C0.33 0 0.66 0 1 0 C1.33 3.96 1.66 7.92 2 12 C-0.50816459 9.49183541 -1.61410019 8.09162264 -3 5 C-2.34 5 -1.68 5 -1 5 C-0.67 3.35 -0.34 1.7 0 0 Z " fill="#6C4B3D" transform="translate(101,140)"/>
<path d="M0 0 C1.32 0 2.64 0 4 0 C4.66 1.32 5.32 2.64 6 4 C5.34 4 4.68 4 4 4 C3.67 5.32 3.34 6.64 3 8 C0 3.375 0 3.375 0 0 Z " fill="#C79F5C" transform="translate(93,143)"/>
<path d="M0 0 C0.99 0 1.98 0 3 0 C3 0.66 3 1.32 3 2 C2.34 2 1.68 2 1 2 C1 4.64 1 7.28 1 10 C0.34 9.67 -0.32 9.34 -1 9 C-1.09765625 2.84765625 -1.09765625 2.84765625 -1 1 C-0.67 0.67 -0.34 0.34 0 0 Z " fill="#BF8A8E" transform="translate(103,138)"/>
<path d="M0 0 C4.42857143 5.14285714 4.42857143 5.14285714 5 9 C3.02 7.68 1.04 6.36 -1 5 C-0.67 3.35 -0.34 1.7 0 0 Z " fill="#D0C0BE" transform="translate(102,183)"/>
<path d="M0 0 C3.63 0 7.26 0 11 0 C11 0.66 11 1.32 11 2 C8.69 2.33 6.38 2.66 4 3 C4 2.34 4 1.68 4 1 C2.68 0.67 1.36 0.34 0 0 Z " fill="#BFADA9" transform="translate(80,173)"/>
<path d="M0 0 C2 1 2 1 3 3 C-1.455 4.485 -1.455 4.485 -6 6 C-5 3 -5 3 -2.5625 1.25 C-1.716875 0.8375 -0.87125 0.425 0 0 Z " fill="#422B26" transform="translate(113,203)"/>
<path d="M0 0 C4.42857143 5.14285714 4.42857143 5.14285714 5 9 C4.01 9.495 4.01 9.495 3 10 C0 4.25 0 4.25 0 2 C-0.66 1.67 -1.32 1.34 -2 1 C-1.34 0.67 -0.68 0.34 0 0 Z " fill="#AD8C8C" transform="translate(116,190)"/>
<path d="M0 0 C0.33 0.99 0.66 1.98 1 3 C-0.65 3.66 -2.3 4.32 -4 5 C-4.33 3.68 -4.66 2.36 -5 1 C-3.35 0.67 -1.7 0.34 0 0 Z " fill="#E9BD6E" transform="translate(92,185)"/>
<path d="M0 0 C1.5625 1.8125 1.5625 1.8125 3 4 C2.67 4.99 2.34 5.98 2 7 C-0.475 6.01 -0.475 6.01 -3 5 C-3 4.34 -3 3.68 -3 3 C-2.34 3 -1.68 3 -1 3 C-0.67 2.01 -0.34 1.02 0 0 Z " fill="#9F767B" transform="translate(125,165)"/>
<path d="M0 0 C1.5 1.125 1.5 1.125 3 3 C3.1875 6.1875 3.1875 6.1875 3 9 C2.67 8.01 2.34 7.02 2 6 C1.34 6 0.68 6 0 6 C-0.38218767 4.34385343 -0.71395102 2.67542976 -1 1 C-0.67 0.67 -0.34 0.34 0 0 Z " fill="#484754" transform="translate(94,163)"/>
<path d="M0 0 C1.98 0 3.96 0 6 0 C6 0.99 6 1.98 6 3 C3.69 3 1.38 3 -1 3 C-0.67 2.01 -0.34 1.02 0 0 Z " fill="#E7BC6D" transform="translate(108,160)"/>
<path d="M0 0 C2.31 0 4.62 0 7 0 C6.67 0.99 6.34 1.98 6 3 C4.02 3.33 2.04 3.66 0 4 C0.66 3.34 1.32 2.68 2 2 C1.34 1.34 0.68 0.68 0 0 Z " fill="#E1A7AD" transform="translate(58,210)"/>
<path d="M0 0 C0.99 0 1.98 0 3 0 C3.33 1.98 3.66 3.96 4 6 C2.68 5.34 1.36 4.68 0 4 C0 2.68 0 1.36 0 0 Z " fill="#D59EA4" transform="translate(121,163)"/>
<path d="M0 0 C1.65 0 3.3 0 5 0 C5 0.99 5 1.98 5 3 C3.02 3.33 1.04 3.66 -1 4 C-0.67 2.68 -0.34 1.36 0 0 Z " fill="#4A3531" transform="translate(230,137)"/>
<path d="M0 0 C2.97 0.33 5.94 0.66 9 1 C7.515 2.485 7.515 2.485 6 4 C4.02 3.34 2.04 2.68 0 2 C0 1.34 0 0.68 0 0 Z " fill="#987B7B" transform="translate(40,216)"/>
<path d="M0 0 C0.99 0 1.98 0 3 0 C3 1.32 3 2.64 3 4 C1.35 4 -0.3 4 -2 4 C-1.34 2.68 -0.68 1.36 0 0 Z " fill="#DCB267" transform="translate(78,190)"/>
<path d="M0 0 C0.99 0.33 1.98 0.66 3 1 C3.33 2.98 3.66 4.96 4 7 C3.34 7 2.68 7 2 7 C0 4 0 4 0 0 Z " fill="#E0A5AB" transform="translate(125,171)"/>
<path d="M0 0 C4.35535069 1.16142685 6.64619703 2.07699505 9 6 C4.75177626 5.52797514 2.80010291 3.03344482 0 0 Z " fill="#4F5364" transform="translate(57,164)"/>
<path d="M0 0 C2.475 0.495 2.475 0.495 5 1 C5.33 2.32 5.66 3.64 6 5 C4.125 4.75 4.125 4.75 2 4 C0.75 1.9375 0.75 1.9375 0 0 Z " fill="#494854" transform="translate(53,159)"/>
<path d="M0 0 C3.465 1.485 3.465 1.485 7 3 C6.01 3.66 5.02 4.32 4 5 C2.68 4.34 1.36 3.68 0 3 C0 2.01 0 1.02 0 0 Z " fill="#565767" transform="translate(50,156)"/>
<path d="M0 0 C0.99 0 1.98 0 3 0 C2.855625 0.53625 2.71125 1.0725 2.5625 1.625 C1.90546252 4.39915827 1.44780052 7.18525388 1 10 C0.67 10 0.34 10 0 10 C0 6.7 0 3.4 0 0 Z " fill="#6E8FB8" transform="translate(115,149)"/>
<path d="" fill="#876B47" transform="translate(0,0)"/>
<path d="" fill="#4C586D" transform="translate(0,0)"/>
</svg>
