<?xml version="1.0" encoding="UTF-8"?>
<svg version="1.1" xmlns="http://www.w3.org/2000/svg" width="320" height="320">
<path d="M0 0 C3.96205833 4.52806666 6.43440666 9.58374739 9 15 C9.721875 14.484375 10.44375 13.96875 11.1875 13.4375 C14 12 14 12 16.5625 12 C22.54120354 14.45280145 26.16856574 22.43151262 29 28 C29 28.99 29 29.98 29 31 C29.66 31 30.32 31 31 31 C32.99785435 35.1205746 33.17835515 38.45194365 33 43 C34.65 43.66 36.3 44.32 38 45 C37.13947918 47.89447912 36.41419954 49.64691186 34.09375 51.625 C29.5304775 53.65312111 25.13083619 53.57130338 20.1875 53.6875 C19.20845703 53.72166016 18.22941406 53.75582031 17.22070312 53.79101562 C14.81391655 53.87319858 12.40748055 53.94244433 10 54 C10.68102783 53.98952637 11.36205566 53.97905273 12.0637207 53.96826172 C15.14660966 53.92671122 18.22943971 53.90067689 21.3125 53.875 C22.38435547 53.85824219 23.45621094 53.84148437 24.56054688 53.82421875 C25.58857422 53.81777344 26.61660156 53.81132812 27.67578125 53.8046875 C28.62364502 53.79421387 29.57150879 53.78374023 30.5480957 53.77294922 C33 54 33 54 36 56 C36 56.66 36 57.32 36 58 C37.98 58.66 39.96 59.32 42 60 C42 60.66 42 61.32 42 62 C39.69 61.67 37.38 61.34 35 61 C35 62.32 35 63.64 35 65 C35.66 65 36.32 65 37 65 C41 71.75 41 71.75 41 74 C41.66 74 42.32 74 43 74 C43.67667998 75.24460783 44.34094719 76.49596896 45 77.75 C45.37125 78.44609375 45.7425 79.1421875 46.125 79.859375 C47 82 47 82 47 86 C46.34 86 45.68 86 45 86 C45 86.66 45 87.32 45 88 C40.44262737 87.56179109 37.42346555 87.14958831 34 84 C34.04125 84.9075 34.0825 85.815 34.125 86.75 C33.93761468 91.62201835 33.93761468 91.62201835 32 94 C29.0625 94.9375 29.0625 94.9375 26 95 C23.52514946 93.29629854 23.02855824 92.11026231 22.26953125 89.1796875 C20.02255639 72.93233083 20.02255639 72.93233083 22 67 C20.02 67 18.04 67 16 67 C16.11426509 69.41760876 16.24099661 71.83347218 16.375 74.25 C16.4059375 74.93191406 16.436875 75.61382812 16.46875 76.31640625 C16.68259374 79.98739038 17.01077055 82.86251616 19 86 C18.34 86 17.68 86 17 86 C17.309375 86.8971875 17.309375 86.8971875 17.625 87.8125 C18 90 18 90 16 93 C-6.40420609 89.93203664 -6.40420609 89.93203664 -11.26171875 84.4453125 C-11.83535156 83.63835937 -12.40898437 82.83140625 -13 82 C-16.47540951 79.48332415 -19.81961777 79.83921607 -24 80 C-23.360625 80.53625 -22.72125 81.0725 -22.0625 81.625 C-19.61470596 84.44367193 -19.33285388 86.33860732 -19 90 C-22.48845384 93.31065237 -25.79706747 93.52463921 -30.3984375 93.65234375 C-31.46730698 93.6935006 -31.46730698 93.6935006 -32.55776978 93.73548889 C-34.06203556 93.78872404 -35.56658156 93.83449828 -37.07128906 93.87329102 C-39.36177088 93.93713128 -41.64854053 94.03842259 -43.9375 94.14257812 C-45.40357397 94.18978715 -46.86972127 94.23478138 -48.3359375 94.27734375 C-49.01425629 94.31045151 -49.69257507 94.34355927 -50.39144897 94.37767029 C-55.59394652 94.46318204 -58.05167129 93.10520797 -62 90 C-61.8125 87.6875 -61.8125 87.6875 -61 85 C-57.68035674 82.39811744 -56.30683959 82 -52 82 C-52 81.34 -52 80.68 -52 80 C-52.73992187 79.88527344 -53.47984375 79.77054687 -54.2421875 79.65234375 C-63.02551793 77.57470043 -70.89542707 69.34419168 -77 63 C-77 62.34 -77 61.68 -77 61 C-77.66 61 -78.32 61 -79 61 C-79.25 58.6875 -79.25 58.6875 -79 56 C-77.375 54.125 -77.375 54.125 -75 53 C-71.12273569 53.23738353 -69.25923117 53.82717922 -66 56 C-66.14308594 55.09507812 -66.14308594 55.09507812 -66.2890625 54.171875 C-66.39992188 53.37265625 -66.51078125 52.5734375 -66.625 51.75 C-66.79902344 50.56664062 -66.79902344 50.56664062 -66.9765625 49.359375 C-67.00319395 46.67847541 -66.36592084 45.27305911 -65 43 C-59.46153846 42.63076923 -59.46153846 42.63076923 -57.125 44.5 C-56.75375 44.995 -56.3825 45.49 -56 46 C-55.01 45.01 -54.02 44.02 -53 43 C-53.66 42.01 -54.32 41.02 -55 40 C-54.625 36.3125 -54.625 36.3125 -54 33 C-49.20862412 31.3709322 -45.94367454 30.79422572 -41 32 C-41.639375 31.319375 -42.27875 30.63875 -42.9375 29.9375 C-45.37083036 26.47184767 -45.92197514 24.2133427 -46 20 C-44.44489767 17.40816278 -43.27584134 17.07881181 -40.375 16.25 C-39.59125 16.1675 -38.8075 16.085 -38 16 C-37.67 16.33 -37.34 16.66 -37 17 C-36.79375 15.88625 -36.5875 14.7725 -36.375 13.625 C-35 10 -35 10 -32.125 8.4375 C-28.65591096 7.95182754 -27.76213295 7.95067556 -25 10 C-23.29503463 11.62746694 -21.62102968 13.28891311 -20 15 C-19.01 14.34 -18.02 13.68 -17 13 C-12.1930393 13.26705337 -8.94573045 14.24994544 -5 17 C-5.28875 16.40832031 -5.5775 15.81664063 -5.875 15.20703125 C-9.7952851 6.86281332 -9.7952851 6.86281332 -9 3 C-6.74226407 -0.63746344 -4.0215603 -0.80431206 0 0 Z M-12 29 C-11.34 29.66 -10.68 30.32 -10 31 C-10 30.34 -10 29.68 -10 29 C-10.66 29 -11.32 29 -12 29 Z M-9 31 C-9 31.99 -9 32.98 -9 34 C-7.34151823 35.01351664 -5.67334039 36.01120795 -4 37 C-2.65705519 38.65893182 -1.32255312 40.32476605 0 42 C3.69418201 43.231394 6.2056261 42.64432764 10 42 C7.28290948 38.73147045 3.68989459 37.17676017 -0.0625 35.375 C-0.69994141 35.06304687 -1.33738281 34.75109375 -1.99414062 34.4296875 C-3.66041867 33.61498464 -5.33000673 32.80705994 -7 32 C-7.66 31.67 -8.32 31.34 -9 31 Z M-21 36 C-21.33 37.65 -21.66 39.3 -22 41 C-21.25943359 41.50660156 -21.25943359 41.50660156 -20.50390625 42.0234375 C-19.86324219 42.46945313 -19.22257812 42.91546875 -18.5625 43.375 C-17.60537109 44.03628906 -17.60537109 44.03628906 -16.62890625 44.7109375 C-15 46 -15 46 -14 48 C-10.97065509 48.65772428 -10.97065509 48.65772428 -8 49 C-10.38088639 42.45558386 -10.38088639 42.45558386 -15.11328125 37.66796875 C-17.52759414 36.75070727 -17.52759414 36.75070727 -21 36 Z M17 38 C17 38.66 17 39.32 17 40 C16.01 40.33 15.02 40.66 14 41 C16.31 41.33 18.62 41.66 21 42 C21 41.34 21 40.68 21 40 C20.34 40 19.68 40 19 40 C19 39.34 19 38.68 19 38 C18.34 38 17.68 38 17 38 Z M-46 46 C-46.22267708 49.37823416 -46.22267708 49.37823416 -45 53 C-40.34364817 56.28038491 -34.43023679 57.54547229 -29 59 C-20.45264416 61.36629818 -20.45264416 61.36629818 -18.4375 64.1875 C-17.18745704 66.20182502 -17.18745704 66.20182502 -15.125 66.21875 C-13.0822401 66.18956772 -11.04065598 66.09717409 -9 66 C-8.34 66.33 -7.68 66.66 -7 67 C-7.33 65.35 -7.66 63.7 -8 62 C-8.80824219 61.80664062 -9.61648437 61.61328125 -10.44921875 61.4140625 C-11.51785156 61.15367187 -12.58648437 60.89328125 -13.6875 60.625 C-14.74324219 60.36976563 -15.79898438 60.11453125 -16.88671875 59.8515625 C-22.5317662 58.30749682 -22.5317662 58.30749682 -25 57 C-25.12632812 56.35289062 -25.25265625 55.70578125 -25.3828125 55.0390625 C-25.58648437 54.36617187 -25.79015625 53.69328125 -26 53 C-28.33414541 51.91948767 -30.43608795 51.11494937 -32.875 50.375 C-39.77335984 48.15109344 -39.77335984 48.15109344 -43 46 C-43.99 46 -44.98 46 -46 46 Z M-50 67 C-50 67.99 -50 68.98 -50 70 C-47.5609294 72.20142332 -47.5609294 72.20142332 -45 74 C-44.67 73.34 -44.34 72.68 -44 72 C-45.98 70.35 -47.96 68.7 -50 67 Z M-38 68 C-38 68.66 -38 69.32 -38 70 C-37.01 69.67 -36.02 69.34 -35 69 C-35.99 68.67 -36.98 68.34 -38 68 Z M-5 70 C-5.66 71.65 -6.32 73.3 -7 75 C-1.06 75.99 -1.06 75.99 5 77 C4.67 74.69 4.34 72.38 4 70 C1.03 70 -1.94 70 -5 70 Z " fill="#6E543A" transform="translate(175,111)"/>
<path d="M0 0 C3.96205833 4.52806666 6.43440666 9.58374739 9 15 C9.721875 14.484375 10.44375 13.96875 11.1875 13.4375 C14 12 14 12 16.5625 12 C22.54120354 14.45280145 26.16856574 22.43151262 29 28 C29 28.99 29 29.98 29 31 C29.66 31 30.32 31 31 31 C32.99785435 35.1205746 33.17835515 38.45194365 33 43 C34.65 43.66 36.3 44.32 38 45 C37.13947918 47.89447912 36.41419954 49.64691186 34.09375 51.625 C29.5304775 53.65312111 25.13083619 53.57130338 20.1875 53.6875 C18.71893555 53.73874023 18.71893555 53.73874023 17.22070312 53.79101562 C14.81391655 53.87319858 12.40748055 53.94244433 10 54 C11.02154175 53.98428955 11.02154175 53.98428955 12.0637207 53.96826172 C15.14660966 53.92671122 18.22943971 53.90067689 21.3125 53.875 C22.38435547 53.85824219 23.45621094 53.84148437 24.56054688 53.82421875 C25.58857422 53.81777344 26.61660156 53.81132812 27.67578125 53.8046875 C28.62364502 53.79421387 29.57150879 53.78374023 30.5480957 53.77294922 C33 54 33 54 36 56 C36 56.66 36 57.32 36 58 C37.98 58.66 39.96 59.32 42 60 C42 60.66 42 61.32 42 62 C39.69 61.67 37.38 61.34 35 61 C35 62.32 35 63.64 35 65 C35.66 65 36.32 65 37 65 C41 71.75 41 71.75 41 74 C41.66 74 42.32 74 43 74 C43.67667998 75.24460783 44.34094719 76.49596896 45 77.75 C45.37125 78.44609375 45.7425 79.1421875 46.125 79.859375 C47 82 47 82 47 86 C46.34 86 45.68 86 45 86 C45 86.66 45 87.32 45 88 C42.69 87.67 40.38 87.34 38 87 C37.67 85.35 37.34 83.7 37 82 C39.31 82.99 41.62 83.98 44 85 C40.66189912 78.75213862 36.99579247 72.84589913 33 67 C32.20664415 65.81362786 31.41473368 64.62628639 30.625 63.4375 C30.08875 62.633125 29.5525 61.82875 29 61 C29.66 60.67 30.32 60.34 31 60 C31.33 58.35 31.66 56.7 32 55 C25.73 55.99 19.46 56.98 13 58 C13 59.98 13 61.96 13 64 C13.99 64.33 14.98 64.66 16 65 C15.01 65 14.02 65 13 65 C13 66.98 13 68.96 13 71 C12.67 71 12.34 71 12 71 C10.96409801 65.94997778 10.89748328 61.12583611 11 56 C9.02 56 7.04 56 5 56 C5 55.01 5 54.02 5 53 C4.4225 52.896875 3.845 52.79375 3.25 52.6875 C0.67950842 51.90207202 -0.93657284 50.69495803 -3 49 C-2.8125 47.1875 -2.8125 47.1875 -2 45 C1.5388835 42.27000416 4.64786463 41.64409196 9 41 C7.85660156 40.46890625 6.71320313 39.9378125 5.53515625 39.390625 C4.04391378 38.67782986 2.55304759 37.9642471 1.0625 37.25 C-0.06961914 36.72792969 -0.06961914 36.72792969 -1.22460938 36.1953125 C-2.30258789 35.67324219 -2.30258789 35.67324219 -3.40234375 35.140625 C-4.06741943 34.82641602 -4.73249512 34.51220703 -5.41772461 34.18847656 C-7.45310469 32.65966461 -7.63654389 31.46518056 -8 29 C-9.32 29 -10.64 29 -12 29 C-12.33 29.66 -12.66 30.32 -13 31 C-17.0361565 28.08499808 -19.29205533 25.14156243 -22 21 C-26.17596729 15.39565841 -26.17596729 15.39565841 -32 12 C-30.85651371 19.71853243 -27.08707762 24.22675842 -22 30 C-22.99 30.66 -23.98 31.32 -25 32 C-25.66 30.68 -26.32 29.36 -27 28 C-27.66 28 -28.32 28 -29 28 C-30.5078125 26.25 -30.5078125 26.25 -32.125 24 C-32.66382813 23.2575 -33.20265625 22.515 -33.7578125 21.75 C-34.37269531 20.88375 -34.37269531 20.88375 -35 20 C-34.34 19.67 -33.68 19.34 -33 19 C-33.33 18.34 -33.66 17.68 -34 17 C-34.66 17 -35.32 17 -36 17 C-35.67 14.69 -35.34 12.38 -35 10 C-29.66666667 7.81818182 -29.66666667 7.81818182 -26.9375 8.5625 C-24.36217103 10.47322795 -22.20217905 12.67547767 -20 15 C-19.01 14.34 -18.02 13.68 -17 13 C-12.1930393 13.26705337 -8.94573045 14.24994544 -5 17 C-5.28875 16.40832031 -5.5775 15.81664063 -5.875 15.20703125 C-9.7952851 6.86281332 -9.7952851 6.86281332 -9 3 C-6.74226407 -0.63746344 -4.0215603 -0.80431206 0 0 Z M17 38 C17 38.66 17 39.32 17 40 C16.01 40.33 15.02 40.66 14 41 C16.31 41.33 18.62 41.66 21 42 C21 41.34 21 40.68 21 40 C20.34 40 19.68 40 19 40 C19 39.34 19 38.68 19 38 C18.34 38 17.68 38 17 38 Z " fill="#795657" transform="translate(175,111)"/>
<path d="M0 0 C4.17187726 0.49416314 5.87297679 2.67365874 8.5625 5.75 C9.32691406 6.61109375 10.09132812 7.4721875 10.87890625 8.359375 C13 11 13 11 14.62109375 13.7421875 C16.37489657 16.6138533 17.77649611 17.19412403 21 18 C21.99 17.67 22.98 17.34 24 17 C23.505 19.475 23.505 19.475 23 22 C23.556875 22.04125 24.11375 22.0825 24.6875 22.125 C28.19165291 23.4508957 29.74407314 26.09104168 32 29 C32.66 29.66 33.32 30.32 34 31 C32.02 32.485 32.02 32.485 30 34 C30.03955898 35.92309422 30.03955898 35.92309422 31 38 C33.98352894 39.78379415 33.98352894 39.78379415 37 41 C37 41.99 37 42.98 37 44 C38.98 44 40.96 44 43 44 C45.29612756 59.74487472 45.29612756 59.74487472 45 67 C42.36 67 39.72 67 37 67 C36.505 62.545 36.505 62.545 36 58 C34.88625 58.185625 33.7725 58.37125 32.625 58.5625 C29 59 29 59 27 58 C27 56.02 27 54.04 27 52 C27.66 52.66 28.32 53.32 29 54 C31.65537372 54.56520003 34.29144713 54.73788198 37 55 C37 52.69 37 50.38 37 48 C35.845 48.556875 34.69 49.11375 33.5 49.6875 C28.62066841 51.34243253 24.69157117 50.82100626 19.75 49.875 C19.06486328 49.74569092 18.37972656 49.61638184 17.67382812 49.4831543 C13.6275536 48.61715286 10.31388747 47.50410294 7 45 C6.67 44.01 6.34 43.02 6 42 C3.69645385 41.00729533 1.50512739 40.1904944 -0.875 39.4375 C-4.53721697 38.24265547 -7.75829411 37.16113726 -11 35 C-12.32 35 -13.64 35 -15 35 C-15 34.34 -15 33.68 -15 33 C-15.763125 32.731875 -16.52625 32.46375 -17.3125 32.1875 C-21.5679558 30.30718232 -21.5679558 30.30718232 -23 28 C-22.6875 24.3125 -22.6875 24.3125 -22 21 C-17.20862412 19.3709322 -13.94367454 18.79422572 -9 20 C-9.9590625 18.9790625 -9.9590625 18.9790625 -10.9375 17.9375 C-13.37083036 14.47184767 -13.92197514 12.2133427 -14 8 C-12.49565523 5.49275872 -11.34192652 5.10520816 -8.5625 4.25 C-6.04251867 4.00414816 -4.38257205 4.20580932 -2 5 C-1.67 4.34 -1.34 3.68 -1 3 C-1.268125 3.70125 -1.53625 4.4025 -1.8125 5.125 C-2.0301742 8.4626711 -1.66420439 8.78470875 0.4375 11.1875 C1.283125 12.115625 2.12875 13.04375 3 14 C3 14.66 3 15.32 3 16 C3.66 16 4.32 16 5 16 C6.625 17.5 6.625 17.5 8 19 C8 15.24167933 7.06392776 14.6301838 4.5625 11.9375 C0.65548955 7.69898564 -0.12706168 5.84483712 0 0 Z M11 24 C10.67 25.65 10.34 27.3 10 29 C10.74056641 29.50660156 10.74056641 29.50660156 11.49609375 30.0234375 C12.13675781 30.46945313 12.77742188 30.91546875 13.4375 31.375 C14.39462891 32.03628906 14.39462891 32.03628906 15.37109375 32.7109375 C17 34 17 34 18 36 C21.02934491 36.65772428 21.02934491 36.65772428 24 37 C21.61911361 30.45558386 21.61911361 30.45558386 16.88671875 25.66796875 C14.47240586 24.75070727 14.47240586 24.75070727 11 24 Z " fill="#4F322F" transform="translate(143,123)"/>
<path d="M0 0 C1.32 0 2.64 0 4 0 C9.55580866 10.37357631 9.55580866 10.37357631 10 16 C10.66 16 11.32 16 12 16 C12.2475 17.093125 12.495 18.18625 12.75 19.3125 C14.02002851 23.05908409 14.65756352 24.10595266 18 26 C17.34 25.21625 16.68 24.4325 16 23.625 C14 21 14 21 14 19 C14.66 19 15.32 19 16 19 C15.6390625 18.11957031 15.278125 17.23914063 14.90625 16.33203125 C14.4421875 15.17058594 13.978125 14.00914062 13.5 12.8125 C12.80390625 11.08966797 12.80390625 11.08966797 12.09375 9.33203125 C11.09194348 6.28009923 10.76129196 4.16884928 11 1 C12.32 1 13.64 1 15 1 C15.31453125 1.63808594 15.6290625 2.27617187 15.953125 2.93359375 C16.38109375 3.75988281 16.8090625 4.58617187 17.25 5.4375 C17.66765625 6.26121094 18.0853125 7.08492187 18.515625 7.93359375 C19.78456933 10.09976285 19.78456933 10.09976285 21.734375 10.6640625 C22.85585937 10.83035156 22.85585937 10.83035156 24 11 C26.33594441 11.63632448 28.66904011 12.28315215 31 12.9375 C32.216875 13.27652344 33.43375 13.61554688 34.6875 13.96484375 C37.34194434 14.79435761 39.64797688 15.53283995 42 17 C42.75 19.125 42.75 19.125 43 21 C41.35 21.33 39.7 21.66 38 22 C38.495 22.99 38.495 22.99 39 24 C39.99 23.67 40.98 23.34 42 23 C44.22818441 22.93062938 46.45834524 22.91542916 48.6875 22.9375 C50.45673828 22.95103516 50.45673828 22.95103516 52.26171875 22.96484375 C53.16535156 22.97644531 54.06898438 22.98804688 55 23 C54.8046875 24.8671875 54.8046875 24.8671875 54 27 C43.64328506 32.84714903 31.35332707 33.23530289 19.796875 32.97265625 C16.00152636 32.89378139 16.00152636 32.89378139 12.328125 33.65234375 C6.75519969 34.23449205 3.32310253 31.24406727 -1 28 C-2.91693701 26.27216122 -4.70239059 24.49319802 -6.4609375 22.60546875 C-8.13993996 20.77948761 -8.13993996 20.77948761 -10.9375 18.6875 C-11.618125 18.130625 -12.29875 17.57375 -13 17 C-13 16.34 -13 15.68 -13 15 C-13.66 14.67 -14.32 14.34 -15 14 C-13.3125 11.9375 -13.3125 11.9375 -11 10 C-6.30361742 10.20035762 -3.77854426 12.51154165 -0.3125 15.5 C3.13148297 18.56832544 3.13148297 18.56832544 7 21 C6.4946875 19.98679688 5.989375 18.97359375 5.46875 17.9296875 C4.81188556 16.57842351 4.15566971 15.22684411 3.5 13.875 C3.16613281 13.20984375 2.83226563 12.5446875 2.48828125 11.859375 C0.50352741 7.7278466 -0.40901691 4.68908674 0 0 Z M26 22 C26 22.66 26 23.32 26 24 C26.99 23.67 27.98 23.34 29 23 C28.01 22.67 27.02 22.34 26 22 Z " fill="#595665" transform="translate(111,157)"/>
<path d="M0 0 C3.57964054 0.60543603 3.95977746 0.95049534 6.4375 4 C8.82539293 7.53789045 10.79190762 11.26331601 12.69140625 15.08203125 C14.21155719 17.31007338 15.52508778 18.01108159 18 19 C18 17.02 18 15.04 18 13 C20.27734375 13.18359375 20.27734375 13.18359375 23 14 C24.87890625 16.22265625 24.87890625 16.22265625 26.5625 19.0625 C27.15289062 20.05636719 27.74328125 21.05023438 28.3515625 22.07421875 C28.89554688 23.03972656 29.43953125 24.00523437 30 25 C30.44085938 25.76957031 30.88171875 26.53914063 31.3359375 27.33203125 C33.30341323 30.98093128 34.52168758 33.82649933 34 38 C33.21625 37.814375 32.4325 37.62875 31.625 37.4375 C29.02910225 36.74037734 29.02910225 36.74037734 27 38 C26.01 37.67 25.02 37.34 24 37 C24 36.34 24 35.68 24 35 C23.34 35 22.68 35 22 35 C22 35.66 22 36.32 22 37 C19 39 19 39 17 40 C15.02880859 39.19555664 15.02880859 39.19555664 12.6484375 37.91015625 C11.79765625 37.45576172 10.946875 37.00136719 10.0703125 36.53320312 C9.18085938 36.04787109 8.29140625 35.56253906 7.375 35.0625 C6.4778125 34.58103516 5.580625 34.09957031 4.65625 33.60351562 C2.43356364 32.40941284 0.21515174 31.20800619 -2 30 C-0.68 29.67 0.64 29.34 2 29 C1.28457031 28.42765625 0.56914062 27.8553125 -0.16796875 27.265625 C-4.4453125 23.84375 -8.72265625 20.421875 -13 17 C-12.34 15.68 -11.68 14.36 -11 13 C-6.85493919 13.82145852 -3.7163581 15.80122359 -0.12109375 17.94140625 C2.05228124 19.22327718 2.05228124 19.22327718 5 19 C4.6390625 18.13117188 4.278125 17.26234375 3.90625 16.3671875 C3.4421875 15.21476563 2.978125 14.06234375 2.5 12.875 C2.0359375 11.73804687 1.571875 10.60109375 1.09375 9.4296875 C0.01684959 6.0528355 -0.21360807 3.51385272 0 0 Z " fill="#866A55" transform="translate(170,114)"/>
<path d="M0 0 C0.125 2.375 0.125 2.375 0 5 C-0.66 5.66 -1.32 6.32 -2 7 C-1.22076172 7.92619141 -1.22076172 7.92619141 -0.42578125 8.87109375 C10.26486686 21.85400652 10.26486686 21.85400652 12 30 C11.195625 29.814375 10.39125 29.62875 9.5625 29.4375 C8.2940625 29.2209375 8.2940625 29.2209375 7 29 C6.67 29.33 6.34 29.66 6 30 C5.34 30.33 4.68 30.66 4 31 C3.34 30.34 2.68 29.68 2 29 C2.04125 29.9075 2.0825 30.815 2.125 31.75 C1.93761468 36.62201835 1.93761468 36.62201835 0 39 C-2.9375 39.9375 -2.9375 39.9375 -6 40 C-8.47485054 38.29629854 -8.97144176 37.11026231 -9.73046875 34.1796875 C-11.97744361 17.93233083 -11.97744361 17.93233083 -10 12 C-10 11.01 -10 10.02 -10 9 C-12.97 9 -15.94 9 -19 9 C-19.33 7.02 -19.66 5.04 -20 3 C-13.32948436 0.95800542 -7.0208425 -0.17124006 0 0 Z " fill="#765445" transform="translate(207,166)"/>
<path d="M0 0 C1.32 0.66 2.64 1.32 4 2 C4 2.66 4 3.32 4 4 C4.66 4 5.32 4 6 4 C6.66 4.66 7.32 5.32 8 6 C8.99 6 9.98 6 11 6 C9.68 6.99 8.36 7.98 7 9 C7.03955898 10.92309422 7.03955898 10.92309422 8 13 C10.98352894 14.78379415 10.98352894 14.78379415 14 16 C14 16.99 14 17.98 14 19 C15.98 19 17.96 19 20 19 C22.29612756 34.74487472 22.29612756 34.74487472 22 42 C19.36 42 16.72 42 14 42 C13.67 39.03 13.34 36.06 13 33 C11.88625 33.185625 10.7725 33.37125 9.625 33.5625 C6 34 6 34 4 33 C4 31.02 4 29.04 4 27 C4.66 27.66 5.32 28.32 6 29 C8.65537372 29.56520003 11.29144713 29.73788198 14 30 C14 27.69 14 25.38 14 23 C12.845 23.556875 11.69 24.11375 10.5 24.6875 C3.36847444 27.16006745 -3.90420169 24.69776769 -11 23 C-11 21.68 -11 20.36 -11 19 C-12.4166747 17.2488427 -12.4166747 17.2488427 -14 16 C-7.06918811 14.11898633 -1.88131426 13.83920084 5 16 C4.319375 14.3603125 4.319375 14.3603125 3.625 12.6875 C3.36976563 12.07261719 3.11453125 11.45773438 2.8515625 10.82421875 C1.93193308 8.73466068 1.93193308 8.73466068 0 6 C-0.125 2.8125 -0.125 2.8125 0 0 Z " fill="#615150" transform="translate(166,148)"/>
<path d="M0 0 C3.96205833 4.52806666 6.43440666 9.58374739 9 15 C9.78375 14.505 10.5675 14.01 11.375 13.5 C14 12 14 12 16 12 C16.495 13.485 16.495 13.485 17 15 C16.01 15.33 15.02 15.66 14 16 C13.67 17.98 13.34 19.96 13 22 C12.34 22 11.68 22 11 22 C10.67 22.66 10.34 23.32 10 24 C9.56300781 23.19949219 9.56300781 23.19949219 9.1171875 22.3828125 C7.75881618 19.91382312 6.38138094 17.45618909 5 15 C4.49597656 14.09121094 3.99195313 13.18242188 3.47265625 12.24609375 C2.96605469 11.36050781 2.45945313 10.47492188 1.9375 9.5625 C1.47214844 8.73878906 1.00679687 7.91507812 0.52734375 7.06640625 C-1.13494997 4.81742063 -2.4260367 4.01297911 -5 3 C-3.47214176 9.59904729 -1.92382423 15.87389209 1 22 C-0.6875 22.6875 -0.6875 22.6875 -3 23 C-5.68998079 21.62052267 -8.06762493 19.95381712 -10.5625 18.25 C-12.89362584 16.76138859 -12.89362584 16.76138859 -15.3125 17.3125 C-15.869375 17.539375 -16.42625 17.76625 -17 18 C-17 18.66 -17 19.32 -17 20 C-15.48581041 21.41500259 -15.48581041 21.41500259 -13.5 22.8203125 C-12.778125 23.35527344 -12.05625 23.89023438 -11.3125 24.44140625 C-10.549375 24.99699219 -9.78625 25.55257812 -9 26.125 C-8.236875 26.68832031 -7.47375 27.25164062 -6.6875 27.83203125 C-4.79581434 29.22714943 -2.89991415 30.61611971 -1 32 C-3.6666419 33.33332095 -5.16680303 32.67102033 -8 32 C-8 31.01 -8 30.02 -8 29 C-9.32 29 -10.64 29 -12 29 C-12.33 29.66 -12.66 30.32 -13 31 C-17.0361565 28.08499808 -19.29205533 25.14156243 -22 21 C-26.17596729 15.39565841 -26.17596729 15.39565841 -32 12 C-30.85651371 19.71853243 -27.08707762 24.22675842 -22 30 C-22.99 30.66 -23.98 31.32 -25 32 C-25.66 30.68 -26.32 29.36 -27 28 C-27.66 28 -28.32 28 -29 28 C-30.5078125 26.25 -30.5078125 26.25 -32.125 24 C-32.66382813 23.2575 -33.20265625 22.515 -33.7578125 21.75 C-34.37269531 20.88375 -34.37269531 20.88375 -35 20 C-34.34 19.67 -33.68 19.34 -33 19 C-33.33 18.34 -33.66 17.68 -34 17 C-34.66 17 -35.32 17 -36 17 C-35.67 14.69 -35.34 12.38 -35 10 C-29.66666667 7.81818182 -29.66666667 7.81818182 -26.9375 8.5625 C-24.36217103 10.47322795 -22.20217905 12.67547767 -20 15 C-19.01 14.34 -18.02 13.68 -17 13 C-12.1930393 13.26705337 -8.94573045 14.24994544 -5 17 C-5.28875 16.40832031 -5.5775 15.81664063 -5.875 15.20703125 C-9.7952851 6.86281332 -9.7952851 6.86281332 -9 3 C-6.74226407 -0.63746344 -4.0215603 -0.80431206 0 0 Z " fill="#5E555D" transform="translate(175,111)"/>
<path d="M0 0 C5.53846154 -0.36923077 5.53846154 -0.36923077 7.875 1.5 C8.24625 1.995 8.6175 2.49 9 3 C9.4125 2.484375 9.825 1.96875 10.25 1.4375 C12 0 12 0 14 0.125 C16.35588282 1.15569873 17.44074665 1.94462058 19 4 C19.23589844 4.98355469 19.47179687 5.96710938 19.71484375 6.98046875 C20.70375067 10.21062434 20.70375067 10.21062434 23.65234375 11.3203125 C24.73644531 11.58585938 25.82054687 11.85140625 26.9375 12.125 C28.09765625 12.434375 29.2578125 12.74375 30.453125 13.0625 C32.20882812 13.5265625 32.20882812 13.5265625 34 14 C36.07181799 14.68059721 38.13552749 15.38672418 40.1875 16.125 C41.06792969 16.43695313 41.94835937 16.74890625 42.85546875 17.0703125 C45 18 45 18 47 20 C46.625 22.125 46.625 22.125 46 24 C45.34 23.01 44.68 22.02 44 21 C42.06337672 20.04244475 42.06337672 20.04244475 39.7890625 19.39453125 C38.95632812 19.13349609 38.12359375 18.87246094 37.265625 18.60351562 C36.39421875 18.34248047 35.5228125 18.08144531 34.625 17.8125 C33.76132813 17.53986328 32.89765625 17.26722656 32.0078125 16.98632812 C28.09053524 15.78031452 25.15215956 15 21 15 C18.03 9.555 18.03 9.555 15 4 C14.34 4 13.68 4 13 4 C13.39243632 7.84587594 13.95389346 11.18195178 15.5625 14.6875 C17 18 17 18 17 22 C16.34 22 15.68 22 15 22 C15 22.99 15 23.98 15 25 C14.34 25 13.68 25 13 25 C13 23.02 13 21.04 13 19 C12.34 19 11.68 19 11 19 C10.18395001 17.0848421 9.37229368 15.16781166 8.5625 13.25 C8.11003906 12.18265625 7.65757813 11.1153125 7.19140625 10.015625 C6.26020447 7.6586159 5.5215928 5.47007165 5 3 C3.68 3 2.36 3 1 3 C2.1905073 8.84430857 4.12937567 13.55899508 6.9765625 18.80078125 C8 21 8 21 8 24 C3.29388378 22.67640481 0.48563912 19.87821051 -2.9375 16.55859375 C-5.30222097 14.77161711 -7.08839712 14.36900523 -10 14 C-10.99 15.485 -10.99 15.485 -12 17 C-12.66 17 -13.32 17 -14 17 C-13.6875 14.625 -13.6875 14.625 -13 12 C-10 10 -10 10 -7 10.25 C-4 11 -4 11 -1 13 C-1.09539062 12.39671875 -1.19078125 11.7934375 -1.2890625 11.171875 C-1.39992188 10.37265625 -1.51078125 9.5734375 -1.625 8.75 C-1.74101563 7.96109375 -1.85703125 7.1721875 -1.9765625 6.359375 C-2.00319395 3.67847541 -1.36592084 2.27305911 0 0 Z " fill="#482E2B" transform="translate(110,154)"/>
<path d="M0 0 C0.495 2.97 0.495 2.97 1 6 C-2.50992259 9.35040609 -5.86944086 9.5113305 -10.50390625 9.6171875 C-11.58344826 9.65478683 -11.58344826 9.65478683 -12.68479919 9.69314575 C-14.20168187 9.74199286 -15.71881359 9.78357954 -17.23608398 9.81835938 C-19.55905739 9.87491618 -21.8793383 9.96327866 -24.20117188 10.0546875 C-25.67702798 10.0982708 -27.15294022 10.14000082 -28.62890625 10.1796875 C-29.32270889 10.20763397 -30.01651154 10.23558044 -30.7313385 10.26437378 C-35.55490004 10.34306671 -35.55490004 10.34306671 -37.96069336 8.48876953 C-38.30366455 7.99747559 -38.64663574 7.50618164 -39 7 C-38.375 4.625 -38.375 4.625 -37 2 C-32.76996733 0.20236168 -28.9611884 -0.29550008 -24.39453125 -0.44921875 C-23.16412109 -0.49240234 -21.93371094 -0.53558594 -20.66601562 -0.58007812 C-18.75852539 -0.63325195 -18.75852539 -0.63325195 -16.8125 -0.6875 C-15.52923828 -0.73455078 -14.24597656 -0.78160156 -12.92382812 -0.83007812 C-3.40554965 -1.13518322 -3.40554965 -1.13518322 0 0 Z " fill="#946869" transform="translate(155,195)"/>
<path d="M0 0 C0 0.66 0 1.32 0 2 C-1.98 2.33 -3.96 2.66 -6 3 C-5.88573491 5.41760876 -5.75900339 7.83347218 -5.625 10.25 C-5.5940625 10.93191406 -5.563125 11.61382812 -5.53125 12.31640625 C-5.31740626 15.98739038 -4.98922945 18.86251616 -3 22 C-3.66 22 -4.32 22 -5 22 C-4.79375 22.598125 -4.5875 23.19625 -4.375 23.8125 C-4 26 -4 26 -6 29 C-27.13602902 26.10569693 -27.13602902 26.10569693 -32.87109375 21.49609375 C-34 20 -34 20 -34 18 C-32.97261719 18.26554687 -31.94523438 18.53109375 -30.88671875 18.8046875 C-22.96438278 20.8312425 -15.08090164 22.69883787 -7 24 C-7 22.68 -7 21.36 -7 20 C-9.9936952 18.98040815 -12.99486933 17.98536184 -16 17 C-17.24136719 16.58814453 -17.24136719 16.58814453 -18.5078125 16.16796875 C-24.03687134 14.40872276 -29.2145731 13.46656669 -35 13 C-31.0213521 10.77195717 -27.48667477 10.55305156 -23 11 C-19.5 12 -19.5 12 -17 13 C-17 13.66 -17 14.32 -17 15 C-16.236875 14.814375 -15.47375 14.62875 -14.6875 14.4375 C-12 14 -12 14 -9 15 C-9 10.38 -9 5.76 -9 1 C-5.8035914 -0.06546953 -3.34252724 -0.07427838 0 0 Z " fill="#494551" transform="translate(197,175)"/>
<path d="M0 0 C2.47430709 0.98456803 3.7525347 1.57982454 5.125 3.91015625 C5.70924198 5.34728719 6.29257272 6.78478891 6.875 8.22265625 C7.83165277 10.13165969 7.83165277 10.13165969 9.6875 10.625 C10.450625 10.74875 11.21375 10.8725 12 11 C14.33594441 11.63632448 16.66904011 12.28315215 19 12.9375 C20.216875 13.27652344 21.43375 13.61554688 22.6875 13.96484375 C25.34194434 14.79435761 27.64797688 15.53283995 30 17 C30.75 19.125 30.75 19.125 31 21 C23.96600532 22.91836219 18.65597104 20.44612185 12 18 C11.67 18 11.34 18 11 18 C11 19.65 11 21.3 11 23 C9.68 23 8.36 23 7 23 C-1.60056657 6.10481586 -1.60056657 6.10481586 -1 1 C-0.67 0.67 -0.34 0.34 0 0 Z " fill="#7291B9" transform="translate(123,157)"/>
<path d="M0 0 C0.89203125 0.00902344 1.7840625 0.01804688 2.703125 0.02734375 C3.37859375 0.03894531 4.0540625 0.05054688 4.75 0.0625 C4.75 0.3925 4.75 0.7225 4.75 1.0625 C0.295 1.5575 0.295 1.5575 -4.25 2.0625 C-3.56897217 2.05202637 -2.88794434 2.04155273 -2.1862793 2.03076172 C0.89660966 1.98921122 3.97943971 1.96317689 7.0625 1.9375 C8.13435547 1.92074219 9.20621094 1.90398437 10.31054688 1.88671875 C11.33857422 1.88027344 12.36660156 1.87382812 13.42578125 1.8671875 C14.37364502 1.85671387 15.32150879 1.84624023 16.2980957 1.83544922 C18.75 2.0625 18.75 2.0625 21.75 4.0625 C21.75 4.7225 21.75 5.3825 21.75 6.0625 C23.73 6.7225 25.71 7.3825 27.75 8.0625 C27.75 8.7225 27.75 9.3825 27.75 10.0625 C25.44 9.7325 23.13 9.4025 20.75 9.0625 C20.75 10.3825 20.75 11.7025 20.75 13.0625 C21.41 13.0625 22.07 13.0625 22.75 13.0625 C26.75 19.8125 26.75 19.8125 26.75 22.0625 C27.41 22.0625 28.07 22.0625 28.75 22.0625 C29.42667998 23.30710783 30.09094719 24.55846896 30.75 25.8125 C31.12125 26.50859375 31.4925 27.2046875 31.875 27.921875 C32.75 30.0625 32.75 30.0625 32.75 34.0625 C32.09 34.0625 31.43 34.0625 30.75 34.0625 C30.75 34.7225 30.75 35.3825 30.75 36.0625 C28.44 35.7325 26.13 35.4025 23.75 35.0625 C23.42 33.4125 23.09 31.7625 22.75 30.0625 C25.06 31.0525 27.37 32.0425 29.75 33.0625 C26.41189912 26.81463862 22.74579247 20.90839913 18.75 15.0625 C17.95664415 13.87612786 17.16473368 12.68878639 16.375 11.5 C15.83875 10.695625 15.3025 9.89125 14.75 9.0625 C15.41 8.7325 16.07 8.4025 16.75 8.0625 C17.08 6.4125 17.41 4.7625 17.75 3.0625 C11.48 4.0525 5.21 5.0425 -1.25 6.0625 C-1.25 8.0425 -1.25 10.0225 -1.25 12.0625 C-0.26 12.3925 0.73 12.7225 1.75 13.0625 C0.76 13.0625 -0.23 13.0625 -1.25 13.0625 C-1.25 15.0425 -1.25 17.0225 -1.25 19.0625 C-1.58 19.0625 -1.91 19.0625 -2.25 19.0625 C-3.28590199 14.01247778 -3.35251672 9.18833611 -3.25 4.0625 C-5.23 4.0625 -7.21 4.0625 -9.25 4.0625 C-9.25 3.0725 -9.25 2.0825 -9.25 1.0625 C-6.09493858 0.12630187 -3.28413498 -0.0432123 0 0 Z " fill="#715644" transform="translate(189.25,162.9375)"/>
<path d="M0 0 C7.75629825 1.66820605 14.3543412 6.80844137 20.875 11.125 C21.85690308 11.77263306 21.85690308 11.77263306 22.85864258 12.43334961 C28.86397535 16.45688365 28.86397535 16.45688365 31 19 C31 19.99 31 20.98 31 22 C25.79574859 22.42387568 22.90751986 21.24589229 18.4375 18.625 C17.84050293 18.27501953 17.24350586 17.92503906 16.62841797 17.56445312 C10.01569744 13.58327228 3.98723786 8.85344199 -2 4 C-1.34 2.68 -0.68 1.36 0 0 Z " fill="#E4B96A" transform="translate(159,127)"/>
<path d="M0 0 C3.96205833 4.52806666 6.43440666 9.58374739 9 15 C9.78375 14.505 10.5675 14.01 11.375 13.5 C14 12 14 12 16 12 C16.33 12.99 16.66 13.98 17 15 C16.01 15.33 15.02 15.66 14 16 C13.67 17.98 13.34 19.96 13 22 C12.34 22 11.68 22 11 22 C10.67 22.66 10.34 23.32 10 24 C9.56300781 23.19949219 9.56300781 23.19949219 9.1171875 22.3828125 C7.75881618 19.91382312 6.38138094 17.45618909 5 15 C4.49597656 14.09121094 3.99195313 13.18242188 3.47265625 12.24609375 C2.96605469 11.36050781 2.45945313 10.47492188 1.9375 9.5625 C1.47214844 8.73878906 1.00679687 7.91507812 0.52734375 7.06640625 C-1.13494997 4.81742063 -2.4260367 4.01297911 -5 3 C-3.47214176 9.59904729 -1.92382423 15.87389209 1 22 C-0.5625 22.75 -0.5625 22.75 -3 23 C-5.59288748 22.00926789 -7.83488663 20.73778836 -10 19 C-10.9375 16.75 -10.9375 16.75 -11 15 C-8.83125748 15.50603992 -7.00032373 15.99983813 -5 17 C-5.433125 16.11248047 -5.433125 16.11248047 -5.875 15.20703125 C-9.7952851 6.86281332 -9.7952851 6.86281332 -9 3 C-6.74226407 -0.63746344 -4.0215603 -0.80431206 0 0 Z " fill="#482B26" transform="translate(175,111)"/>
<path d="M0 0 C-0.1953125 1.8671875 -0.1953125 1.8671875 -1 4 C-11.50025146 9.92818625 -24.28887245 10.33513561 -36 10 C-36 8.68 -36 7.36 -36 6 C-24.47134393 1.0591474 -12.47301869 -0.56791147 0 0 Z " fill="#EABE6D" transform="translate(166,180)"/>
<path d="M0 0 C4.36676335 -0.22246975 7.16453598 0.22948098 11.0625 2.1875 C16.34878743 4.74725235 21.72271139 6.80933653 27.25 8.7890625 C29.85635351 9.93674658 31.33066883 10.71626222 33 13 C33 13.99 33 14.98 33 16 C24.58328138 15.82092088 18.43130695 13.83747818 11 10 C8.7708526 8.89579443 6.54168612 7.7916274 4.3125 6.6875 C2.5406436 5.79369188 0.76942634 4.89860919 -1 4 C-0.67 2.68 -0.34 1.36 0 0 Z " fill="#E8BC6C" transform="translate(124,146)"/>
<path d="M0 0 C2.25250728 1.84032167 3.37779765 3.49296 5 6 C4.67 6.99 4.34 7.98 4 9 C3.34 8.67 2.68 8.34 2 8 C2 7.34 2 6.68 2 6 C1.34 6 0.68 6 0 6 C-1.37310707 4.70766393 -2.71034824 3.37562854 -4 2 C-3.10052519 5.52870888 -2.26696028 8.55848878 -0.375 11.6875 C1 14 1 14 1 18 C-0.19496094 17.85691406 -0.19496094 17.85691406 -1.4140625 17.7109375 C-9.38387714 16.80602301 -9.38387714 16.80602301 -17 19 C-16.01 19.99 -15.02 20.98 -14 22 C-15.32 22.33 -16.64 22.66 -18 23 C-18.66 20.69 -19.32 18.38 -20 16 C-17.69 16 -15.38 16 -13 16 C-14.65475777 12.39846838 -16.08925078 10.7025523 -19.6875 9.1875 C-20.780625 8.795625 -21.87375 8.40375 -23 8 C-20.67342969 6.5351224 -19.33884066 5.98262356 -16.5625 6.125 C-13.40696842 7.20249859 -11.41644358 8.72163891 -9 11 C-9 11.66 -9 12.32 -9 13 C-7.35 13 -5.7 13 -4 13 C-6.25464464 7.05744748 -6.25464464 7.05744748 -11.25 3.5 C-12.1575 3.335 -13.065 3.17 -14 3 C-14 2.67 -14 2.34 -14 2 C-4.10472973 -0.72972973 -4.10472973 -0.72972973 0 0 Z " fill="#5C4B4D" transform="translate(170,146)"/>
<path d="M0 0 C3.7117145 1.27409207 6.25329189 3.55836472 9.12890625 6.1328125 C10.27601184 7.13675283 11.42314703 8.14065934 12.5703125 9.14453125 C13.11703613 9.62841309 13.66375977 10.11229492 14.22705078 10.61083984 C16.13141948 12.2752593 18.09909949 13.85617923 20.06640625 15.4453125 C20.95328125 16.2703125 21.84015625 17.0953125 22.75390625 17.9453125 C22.75390625 18.9353125 22.75390625 19.9253125 22.75390625 20.9453125 C17.87501845 21.52613248 15.66954117 19.8316311 11.87890625 16.8828125 C11.35441895 16.47740234 10.82993164 16.07199219 10.28955078 15.65429688 C6.61214273 12.76320286 3.24275139 9.67959384 0.05859375 6.2578125 C-1.23295207 4.81894241 -1.23295207 4.81894241 -3.24609375 3.9453125 C-2.58609375 5.5953125 -1.92609375 7.2453125 -1.24609375 8.9453125 C-2.23609375 8.2853125 -3.22609375 7.6253125 -4.24609375 6.9453125 C-4.24609375 6.2853125 -4.24609375 5.6253125 -4.24609375 4.9453125 C-4.90609375 4.6153125 -5.56609375 4.2853125 -6.24609375 3.9453125 C-2.95916149 -0.07204915 -2.95916149 -0.07204915 0 0 Z " fill="#E7BC6C" transform="translate(102.24609375,167.0546875)"/>
<path d="M0 0 C4.17187726 0.49416314 5.87297679 2.67365874 8.5625 5.75 C9.32691406 6.61109375 10.09132812 7.4721875 10.87890625 8.359375 C13 11 13 11 14.62109375 13.7421875 C16.37489657 16.6138533 17.77649611 17.19412403 21 18 C21.99 17.67 22.98 17.34 24 17 C23.75 18.875 23.75 18.875 23 21 C20.05231784 23.10548726 17.55517658 23.48786365 14 23 C11.46484375 20.8046875 11.46484375 20.8046875 8.9375 17.875 C8.10089844 16.92367187 7.26429688 15.97234375 6.40234375 14.9921875 C-0.59749429 6.27369004 -0.59749429 6.27369004 0 0 Z " fill="#7392BA" transform="translate(143,123)"/>
<path d="M0 0 C2.27734375 0.18359375 2.27734375 0.18359375 5 1 C6.87890625 3.22265625 6.87890625 3.22265625 8.5625 6.0625 C9.15289062 7.05636719 9.74328125 8.05023438 10.3515625 9.07421875 C10.89554688 10.03972656 11.43953125 11.00523437 12 12 C12.44085938 12.76957031 12.88171875 13.53914062 13.3359375 14.33203125 C15.30341323 17.98093128 16.52168758 20.82649933 16 25 C12.70129636 24.72510803 11.33532783 24.36575072 9.0625 21.88671875 C6.80497664 18.72704116 4.97588806 15.4665906 3.25 12 C2.93417969 11.39671875 2.61835938 10.7934375 2.29296875 10.171875 C0.51789146 6.63708905 -0.39014198 3.96144163 0 0 Z " fill="#7193BD" transform="translate(188,127)"/>
<path d="M0 0 C1.02787125 0.00212242 1.02787125 0.00212242 2.07650757 0.00428772 C4.26719511 0.0098895 6.4577808 0.02244219 8.6484375 0.03515625 C10.13281102 0.04017103 11.61718615 0.04473397 13.1015625 0.04882812 C16.74222065 0.05985948 20.38281914 0.07712526 24.0234375 0.09765625 C24.5184375 2.07765625 24.5184375 2.07765625 25.0234375 4.09765625 C22.04984301 5.5844535 19.36044571 5.2087823 16.046875 5.1953125 C15.3616275 5.19389755 14.67638 5.1924826 13.97036743 5.19102478 C11.77967989 5.185423 9.5890942 5.17287031 7.3984375 5.16015625 C5.91406398 5.15514147 4.42968885 5.15057853 2.9453125 5.14648438 C-0.69534565 5.13545302 -4.33594414 5.11818724 -7.9765625 5.09765625 C-8.3065625 3.77765625 -8.6365625 2.45765625 -8.9765625 1.09765625 C-6.00296801 -0.389141 -3.31357071 -0.0134698 0 0 Z " fill="#F2B3BA" transform="translate(182.9765625,155.90234375)"/>
<path d="M0 0 C3.55435986 1.43556219 5.03428242 3.09439478 7.0625 6.3125 C7.82626953 7.51712891 7.82626953 7.51712891 8.60546875 8.74609375 C9.06566406 9.48988281 9.52585938 10.23367187 10 11 C10.61875 11.94875 11.2375 12.8975 11.875 13.875 C13 16 13 16 13 19 C13.66 19 14.32 19 15 19 C16.99785435 23.1205746 17.17835515 26.45194365 17 31 C17.66 31.33 18.32 31.66 19 32 C18.67 33.65 18.34 35.3 18 37 C17.34 36.01 16.68 35.02 16 34 C13.80545319 33.42006301 13.80545319 33.42006301 11.375 33.3125 C10.55773437 33.24675781 9.74046875 33.18101562 8.8984375 33.11328125 C8.27195313 33.07589844 7.64546875 33.03851563 7 33 C7 32.67 7 32.34 7 32 C8.98 31.67 10.96 31.34 13 31 C10.36 30.67 7.72 30.34 5 30 C5.33 29.34 5.66 28.68 6 28 C8.62113708 28 10.50935112 28.31292445 13 29 C11.35756097 22.7587317 8.78844707 17.56964245 5.5 12.0625 C5.10820557 11.39984131 4.71641113 10.73718262 4.31274414 10.05444336 C2.41609661 6.94781719 1.06919675 5.04613117 -2 3 C-1.34 2.67 -0.68 2.34 0 2 C0 1.34 0 0.68 0 0 Z " fill="#4D4D5D" transform="translate(191,123)"/>
<path d="M0 0 C8.90383499 -0.46499719 19.87204024 -0.1447929 27 6 C27 7.32 27 8.64 27 10 C21.13640052 10.3061317 16.29351113 9.22100207 10.6875 7.5625 C9.87732422 7.33240234 9.06714844 7.10230469 8.23242188 6.86523438 C2.3520976 5.1760488 2.3520976 5.1760488 0 4 C0 2.68 0 1.36 0 0 Z " fill="#7397C2" transform="translate(163,189)"/>
<path d="M0 0 C5.75140242 0.63904471 9.28388371 6.04297188 12.734375 10.2578125 C15.98998525 14.73930069 18.86417133 19.54308398 20 25 C15.65584331 24.51731592 13.78772351 23.34526822 11 20 C8 15.5 8 15.5 8 13 C7.34 13 6.68 13 6 13 C4.4921875 10.91796875 4.4921875 10.91796875 2.875 8.1875 C2.33617187 7.29417969 1.79734375 6.40085938 1.2421875 5.48046875 C0 3 0 3 0 0 Z " fill="#E6BB6C" transform="translate(199,171)"/>
<path d="M0 0 C2.31 0.33 4.62 0.66 7 1 C6.360625 1.268125 5.72125 1.53625 5.0625 1.8125 C2.66868314 2.88667752 2.66868314 2.88667752 2 6 C3.2684375 6.37125 3.2684375 6.37125 4.5625 6.75 C7.63746413 7.86816877 10.20544479 9.25523057 13.0078125 10.91796875 C18.36258837 13.82634702 24.00181129 15.94337957 30 17 C30.33 19.31 30.66 21.62 31 24 C30.34 24 29.68 24 29 24 C28.67 23.01 28.34 22.02 28 21 C25.69645385 20.00729533 23.50512739 19.1904944 21.125 18.4375 C17.46278303 17.24265547 14.24170589 16.16113726 11 14 C9.68 14 8.36 14 7 14 C7 13.34 7 12.68 7 12 C6.236875 11.731875 5.47375 11.46375 4.6875 11.1875 C0.4320442 9.30718232 0.4320442 9.30718232 -1 7 C-0.6875 3.3125 -0.6875 3.3125 0 0 Z " fill="#826147" transform="translate(121,144)"/>
<path d="M0 0 C2.31 0 4.62 0 7 0 C6.67 0.99 6.34 1.98 6 3 C6 2.34 6 1.68 6 1 C4.68 1 3.36 1 2 1 C3.1905073 6.84430857 5.12937567 11.55899508 7.9765625 16.80078125 C9 19 9 19 9 22 C4.29388378 20.67640481 1.48563912 17.87821051 -1.9375 14.55859375 C-4.30222097 12.77161711 -6.08839712 12.36900523 -9 12 C-9.99 13.485 -9.99 13.485 -11 15 C-11.66 15 -12.32 15 -13 15 C-12.6875 12.625 -12.6875 12.625 -12 10 C-9 8 -9 8 -6 8.25 C-3 9 -3 9 0 11 C-0.08378906 10.37351563 -0.16757813 9.74703125 -0.25390625 9.1015625 C-0.35574219 8.28429687 -0.45757812 7.46703125 -0.5625 6.625 C-0.66691406 5.81289062 -0.77132812 5.00078125 -0.87890625 4.1640625 C-1 2 -1 2 0 0 Z " fill="#51322F" transform="translate(109,156)"/>
<path d="M0 0 C2.33488527 0.38584968 3.670047 0.66045534 5.34375 2.3828125 C6.57998189 4.24551326 7.80898196 6.10793969 9 8 C9.38671875 8.58523437 9.7734375 9.17046875 10.171875 9.7734375 C12.7692331 13.93297475 13.60976196 17.21958396 14 22 C10.84859577 21.65930765 9.39218439 21.41923159 7.1875 19.0625 C6 17 6 17 6 15 C5.34 15 4.68 15 4 15 C-0.59225513 5.77448747 -0.59225513 5.77448747 0 0 Z " fill="#EBAEB5" transform="translate(170,114)"/>
<path d="M0 0 C6.21836466 0.52565313 8.964464 4.60149025 12.8828125 9.0546875 C15.68563939 12.95382306 16.17845608 15.27091391 16 20 C11.7434165 18.64056757 9.64856388 16.85503926 6.8125 13.4375 C4.28073479 10.24707165 4.28073479 10.24707165 1 8 C0.40644386 5.35139573 0.25790731 2.70802678 0 0 Z " fill="#EDB0B6" transform="translate(133,131)"/>
<path d="M0 0 C1.9480957 0.00483398 1.9480957 0.00483398 3.93554688 0.00976562 C5.30729233 0.01812094 6.67903712 0.02658588 8.05078125 0.03515625 C9.4342432 0.0401729 10.81770688 0.04473552 12.20117188 0.04882812 C15.5885852 0.06063096 18.97591158 0.07709606 22.36328125 0.09765625 C22.03328125 1.41765625 21.70328125 2.73765625 21.36328125 4.09765625 C10.80328125 4.09765625 0.24328125 4.09765625 -10.63671875 4.09765625 C-10.30671875 3.10765625 -9.97671875 2.11765625 -9.63671875 1.09765625 C-6.21920222 -0.04151593 -3.60183938 -0.01572856 0 0 Z " fill="#F7B8BF" transform="translate(129.63671875,195.90234375)"/>
<path d="M0 0 C3.10763926 2.47198577 5.70961109 4.63493965 8.1875 7.75 C9.87380415 10.2581635 9.87380415 10.2581635 13 11 C13 9.35 13 7.7 13 6 C13.99 6.66 14.98 7.32 16 8 C15.67 9.65 15.34 11.3 15 13 C8.66800155 15.17662447 3.05747651 11.48664325 -2.625 8.875 C-6.07220265 7.30971907 -9.20314726 6.38942079 -13 6 C-13 5.34 -13 4.68 -13 4 C-7.28728072 2.3887202 -3.31329355 3.91010454 2 6 C1.34 4.02 0.68 2.04 0 0 Z " fill="#5B3D31" transform="translate(135,139)"/>
<path d="M0 0 C6.93862867 0.45499204 13.85695936 1.54453964 20 5 C20.8125 7.13671875 20.8125 7.13671875 21 9 C14.97252298 10.64385737 10.47258094 9.27966375 4.57421875 7.49609375 C2 6 2 6 0.64453125 2.84765625 C0.43183594 1.90792969 0.21914062 0.96820313 0 0 Z " fill="#ECAFB6" transform="translate(133,169)"/>
<path d="M0 0 C1.25039062 0.00322266 2.50078125 0.00644531 3.7890625 0.00976562 C5.74199219 0.02233398 5.74199219 0.02233398 7.734375 0.03515625 C9.71050781 0.04192383 9.71050781 0.04192383 11.7265625 0.04882812 C14.97921241 0.06061309 18.23177084 0.07706614 21.484375 0.09765625 C21.979375 1.58265625 21.979375 1.58265625 22.484375 3.09765625 C21.66759277 3.11747559 20.85081055 3.13729492 20.00927734 3.15771484 C16.2923306 3.25323768 12.57592481 3.36280749 8.859375 3.47265625 C7.57417969 3.50359375 6.28898437 3.53453125 4.96484375 3.56640625 C3.72089844 3.60507813 2.47695312 3.64375 1.1953125 3.68359375 C-0.51712646 3.7307251 -0.51712646 3.7307251 -2.26416016 3.77880859 C-5.65255067 4.11108356 -8.38572959 4.76167636 -11.515625 6.09765625 C-12.95485699 8.60761121 -12.95485699 8.60761121 -13.515625 11.09765625 C-14.505625 10.43765625 -15.495625 9.77765625 -16.515625 9.09765625 C-16.328125 6.78515625 -16.328125 6.78515625 -15.515625 4.09765625 C-10.52640227 0.32202824 -6.11430574 -0.0277923 0 0 Z " fill="#442824" transform="translate(129.515625,191.90234375)"/>
<path d="M0 0 C0.99 0.33 1.98 0.66 3 1 C3 1.66 3 2.32 3 3 C3.66 3 4.32 3 5 3 C9 9.75 9 9.75 9 12 C9.66 12 10.32 12 11 12 C11.67667998 13.24460783 12.34094719 14.49596896 13 15.75 C13.37125 16.44609375 13.7425 17.1421875 14.125 17.859375 C15 20 15 20 15 24 C14.34 24 13.68 24 13 24 C13 24.66 13 25.32 13 26 C10.69 25.67 8.38 25.34 6 25 C5.67 23.35 5.34 21.7 5 20 C7.31 20.99 9.62 21.98 12 23 C8.66270608 16.75364899 5.0000283 10.84168355 1 5 C0.34 4.01 -0.32 3.02 -1 2 C-0.67 1.34 -0.34 0.68 0 0 Z " fill="#886546" transform="translate(207,173)"/>
<path d="M0 0 C0.6875 3.125 0.6875 3.125 1 6 C-1.56528888 5.40615522 -4.12675454 4.80038512 -6.6875 4.1875 C-7.40873047 4.02185547 -8.12996094 3.85621094 -8.87304688 3.68554688 C-13.04137494 2.67677342 -16.46191156 1.54714454 -20 -1 C-20 -1.33 -20 -1.66 -20 -2 C-13.01508568 -4.73322734 -6.32648099 -4.21765399 0 0 Z " fill="#7596BF" transform="translate(172,166)"/>
<path d="M0 0 C1.32 0 2.64 0 4 0 C11 13.51908397 11 13.51908397 11 20 C9.25 19.875 9.25 19.875 7 19 C2.49607929 13.26773728 -0.54078583 7.39073971 0 0 Z " fill="#E8ACB2" transform="translate(111,157)"/>
<path d="M0 0 C1.54107422 0.39832031 1.54107422 0.39832031 3.11328125 0.8046875 C11.03561722 2.8312425 18.91909836 4.69883787 27 6 C27.33 7.32 27.66 8.64 28 10 C24.75883859 11.08038714 23.91056185 10.94153328 20.7265625 10.109375 C19.9015625 9.89410156 19.0765625 9.67882812 18.2265625 9.45703125 C17.36804688 9.22371094 16.50953125 8.99039063 15.625 8.75 C14.77421875 8.53214844 13.9234375 8.31429687 13.046875 8.08984375 C8.65427737 6.91985279 4.65455396 5.82463533 1 3 C0.67 2.01 0.34 1.02 0 0 Z " fill="#4D4C5B" transform="translate(163,193)"/>
<path d="M0 0 C1.921875 0.6796875 1.921875 0.6796875 4 2 C6.1453667 8.01107461 6.23853461 14.67883294 6 21 C4.35 20.67 2.7 20.34 1 20 C0.66089006 17.95928485 0.32897296 15.91737379 0 13.875 C-0.185625 12.73804688 -0.37125 11.60109375 -0.5625 10.4296875 C-0.97094364 7.22778108 -1.15299699 4.22249903 -1 1 C-0.67 0.67 -0.34 0.34 0 0 Z " fill="#7296C0" transform="translate(182,169)"/>
<path d="M0 0 C0 1.65 0 3.3 0 5 C-1.32 5 -2.64 5 -4 5 C-4 4.34 -4 3.68 -4 3 C-5.65 3.33 -7.3 3.66 -9 4 C-9.33 5.32 -9.66 6.64 -10 8 C-14.455 8.495 -14.455 8.495 -19 9 C-19.33 7.02 -19.66 5.04 -20 3 C-13.32948436 0.95800542 -7.0208425 -0.17124006 0 0 Z " fill="#E8BD6E" transform="translate(207,166)"/>
<path d="M0 0 C1.98 0.99 1.98 0.99 4 2 C4 2.66 4 3.32 4 4 C4.66 4 5.32 4 6 4 C6.66 4.66 7.32 5.32 8 6 C8.99 6 9.98 6 11 6 C9.68 6.99 8.36 7.98 7 9 C7.40689 11.84823003 7.89072258 12.8941375 10 14.9375 C12.29919283 17.30854261 12.64136887 18.77231982 13 22 C11.35 22 9.7 22 8 22 C7.67386719 21.26394531 7.34773437 20.52789062 7.01171875 19.76953125 C6.57472656 18.79371094 6.13773438 17.81789062 5.6875 16.8125 C5.25824219 15.84957031 4.82898438 14.88664063 4.38671875 13.89453125 C3.05761813 10.98340809 3.05761813 10.98340809 1.34375 8.34375 C-0.33677299 5.41260524 -0.23185618 3.32327191 0 0 Z " fill="#E2A7AD" transform="translate(166,148)"/>
<path d="M0 0 C1.32 0.33 2.64 0.66 4 1 C6.07965362 7.75887425 6.21133202 13.95559921 6 21 C4.68 20.67 3.36 20.34 2 20 C0.3879491 13.23514355 -0.26618595 6.95041086 0 0 Z " fill="#E9ACB3" transform="translate(199,182)"/>
<path d="M0 0 C3.00866351 1.33501303 4.91659458 2.76269304 7.125 5.1875 C12.3797385 10.58946177 18.34470187 15.9375209 26 17 C25.01 17.33 24.02 17.66 23 18 C23 18.66 23 19.32 23 20 C17.27592063 18.56898016 13.4930309 15.63597876 9 12 C8.34128906 11.49984375 7.68257813 10.9996875 7.00390625 10.484375 C3.06172244 7.36996783 1.09316139 5.10141983 0 0 Z " fill="#8F684B" transform="translate(99,171)"/>
<path d="M0 0 C0.66 0 1.32 0 2 0 C2.12375 0.804375 2.2475 1.60875 2.375 2.4375 C2.58125 3.283125 2.7875 4.12875 3 5 C3.66 5.33 4.32 5.66 5 6 C4.67 6.99 4.34 7.98 4 9 C4 8.34 4 7.68 4 7 C3.34 7 2.68 7 2 7 C2 7.66 2 8.32 2 9 C-1 11 -1 11 -3 12 C-4.97119141 11.19555664 -4.97119141 11.19555664 -7.3515625 9.91015625 C-8.20234375 9.45576172 -9.053125 9.00136719 -9.9296875 8.53320312 C-10.81914062 8.04787109 -11.70859375 7.56253906 -12.625 7.0625 C-13.97078125 6.34030273 -13.97078125 6.34030273 -15.34375 5.60351562 C-17.56643636 4.40941284 -19.78484826 3.20800619 -22 2 C-18.5336472 1.04401639 -16.49652052 0.9429124 -13 2 C-11.25433481 3.01565975 -9.50904497 4.03235436 -7.78125 5.078125 C-5.26719135 6.37926062 -2.79456107 6.7273599 0 7 C0 4.69 0 2.38 0 0 Z " fill="#826A5C" transform="translate(190,142)"/>
<path d="M0 0 C2.0625 0.4375 2.0625 0.4375 4 1 C3.67 1.66 3.34 2.32 3 3 C2.33625569 6.40168959 2.57017757 8.35076559 4.4921875 11.25390625 C5.72612946 12.8078539 6.98601653 14.34162432 8.2734375 15.8515625 C9.87127677 17.83982403 10.96150018 19.68173272 12 22 C11.01 22.33 10.02 22.66 9 23 C8.34 21.68 7.68 20.36 7 19 C6.34 19 5.68 19 5 19 C3.4921875 17.25 3.4921875 17.25 1.875 15 C1.33617187 14.2575 0.79734375 13.515 0.2421875 12.75 C-0.16773438 12.1725 -0.57765625 11.595 -1 11 C-0.34 10.67 0.32 10.34 1 10 C0.67 9.34 0.34 8.68 0 8 C-0.66 8 -1.32 8 -2 8 C-1.125 1.125 -1.125 1.125 0 0 Z " fill="#514955" transform="translate(141,120)"/>
<path d="M0 0 C0.9178125 0.00451172 1.835625 0.00902344 2.78125 0.01367188 C5.02090391 0.02533674 7.26041545 0.04170386 9.5 0.0625 C9.17 1.0525 8.84 2.0425 8.5 3.0625 C-4.865 3.5575 -4.865 3.5575 -18.5 4.0625 C-18.5 3.0725 -18.5 2.0825 -18.5 1.0625 C-12.28829926 0.14090421 -6.27390894 -0.05927385 0 0 Z " fill="#603F3C" transform="translate(138.5,200.9375)"/>
<path d="M0 0 C1.32 0.33 2.64 0.66 4 1 C3.08897137 4.06436901 2.41524459 5.68213349 -0.1550293 7.6496582 C-3.61011885 9.28958786 -6.01707167 9.34338672 -9.83203125 9.29296875 C-11.12431641 9.28330078 -12.41660156 9.27363281 -13.74804688 9.26367188 C-15.1028707 9.23860985 -16.45768841 9.21321506 -17.8125 9.1875 C-19.18683445 9.17244013 -20.56118468 9.15875401 -21.93554688 9.14648438 C-25.29076632 9.11116628 -28.64518166 9.06183851 -32 9 C-32 8.34 -32 7.68 -32 7 C-31.24380371 6.97494385 -30.48760742 6.9498877 -29.70849609 6.92407227 C-26.26384541 6.80763114 -22.81943592 6.68512338 -19.375 6.5625 C-17.59029297 6.50352539 -17.59029297 6.50352539 -15.76953125 6.44335938 C-14.61582031 6.40146484 -13.46210938 6.35957031 -12.2734375 6.31640625 C-11.21560059 6.27974854 -10.15776367 6.24309082 -9.06787109 6.20532227 C-5.99072727 5.99937941 -3.0313191 5.55819179 0 5 C0 3.35 0 1.7 0 0 Z " fill="#3A201B" transform="translate(209,155)"/>
<path d="M0 0 C0.33 0.66 0.66 1.32 1 2 C7.27 1.67 13.54 1.34 20 1 C20 1.66 20 2.32 20 3 C22.97 2.34 25.94 1.68 29 1 C24.16773783 5.83226217 14.92262937 5.14086265 8.5 5.1875 C4.96147019 5.16792849 2.35915286 5.11971762 -1 4 C-1.99 4 -2.98 4 -4 4 C-4 3.34 -4 2.68 -4 2 C-2.68 2 -1.36 2 0 2 C0 1.34 0 0.68 0 0 Z " fill="#704F3E" transform="translate(127,188)"/>
<path d="M0 0 C0.66 0 1.32 0 2 0 C2.33 2.31 2.66 4.62 3 7 C3.99 7.33 4.98 7.66 6 8 C8.34264206 11.24365824 9.43589129 14.05123902 10 18 C5.86894386 17.39249174 2.56700675 16.18884505 -1 14 C-1.875 11.8125 -1.875 11.8125 -2 10 C0.16874252 10.50603992 1.99967627 10.99983813 4 12 C3.71125 11.38511719 3.4225 10.77023438 3.125 10.13671875 C2.75375 9.32847656 2.3825 8.52023438 2 7.6875 C1.443125 6.48673828 1.443125 6.48673828 0.875 5.26171875 C0 3 0 3 0 0 Z " fill="#42281D" transform="translate(166,116)"/>
<path d="M0 0 C0 2.31 0 4.62 0 7 C-6.15234375 7.09765625 -6.15234375 7.09765625 -8 7 C-8.33 6.67 -8.66 6.34 -9 6 C-9.99 8.97 -10.98 11.94 -12 15 C-12.66 14.67 -13.32 14.34 -14 14 C-13.67 13.34 -13.34 12.68 -13 12 C-12.92966231 10.12620395 -12.9156978 8.24998898 -12.9375 6.375 C-12.94652344 5.37210938 -12.95554688 4.36921875 -12.96484375 3.3359375 C-12.97644531 2.56507813 -12.98804688 1.79421875 -13 1 C-12.113125 1.20625 -11.22625 1.4125 -10.3125 1.625 C-6.19956967 2.09061475 -3.85235668 0 0 0 Z " fill="#D9B067" transform="translate(180,171)"/>
<path d="M0 0 C0.66 0 1.32 0 2 0 C3.99785435 4.1205746 4.17835515 7.45194365 4 12 C4.66 12.33 5.32 12.66 6 13 C5.67 14.65 5.34 16.3 5 18 C4.34 17.01 3.68 16.02 3 15 C0.80545319 14.42006301 0.80545319 14.42006301 -1.625 14.3125 C-2.44226563 14.24675781 -3.25953125 14.18101562 -4.1015625 14.11328125 C-4.72804687 14.07589844 -5.35453125 14.03851563 -6 14 C-6 13.67 -6 13.34 -6 13 C-4.02 12.67 -2.04 12.34 0 12 C-2.64 11.67 -5.28 11.34 -8 11 C-7.67 10.34 -7.34 9.68 -7 9 C-4.37886292 9 -2.49064888 9.31292445 0 10 C-0.185625 8.72125 -0.37125 7.4425 -0.5625 6.125 C-1.125 2.25 -1.125 2.25 0 0 Z " fill="#524F5C" transform="translate(204,142)"/>
<path d="M0 0 C4.64543215 0.48389918 8.5445373 1.44190458 12.875 3.17578125 C15.9082344 4.35227474 19.00918395 5.29551491 22.1171875 6.25390625 C24 7 24 7 26 9 C25.625 11.125 25.625 11.125 25 13 C24.34 12.01 23.68 11.02 23 10 C21.0609874 9.10595178 21.0609874 9.10595178 18.7890625 8.53515625 C17.95632812 8.29216797 17.12359375 8.04917969 16.265625 7.79882812 C14.51346712 7.31024564 12.76086569 6.82325088 11.0078125 6.33789062 C6.36127846 4.97906624 3.08086238 3.98446726 0 0 Z " fill="#3F231F" transform="translate(131,165)"/>
<path d="M0 0 C2.94435184 1.28815393 4.56633405 2.90166086 5.87890625 5.84765625 C6.10449219 6.53730469 6.33007812 7.22695312 6.5625 7.9375 C7.46601756 10.67868039 7.90700794 11.78200794 10 13.875 C9.01 14.205 8.02 14.535 7 14.875 C5.02 11.245 3.04 7.615 1 3.875 C0.34 3.875 -0.32 3.875 -1 3.875 C-1 6.185 -1 8.495 -1 10.875 C-1.99 10.875 -2.98 10.875 -4 10.875 C-5.3370565 3.46041393 -5.3370565 3.46041393 -3.8125 0.8125 C-2 -0.125 -2 -0.125 0 0 Z " fill="#45404B" transform="translate(124,154.125)"/>
<path d="M0 0 C0.391875 0.515625 0.78375 1.03125 1.1875 1.5625 C1.785625 2.036875 2.38375 2.51125 3 3 C5.43717258 2.72965366 5.43717258 2.72965366 8 2 C9.6662553 1.9629721 11.33401319 1.95240038 13 2 C13.33 3.32 13.66 4.64 14 6 C13.04738281 6.06058594 12.09476563 6.12117187 11.11328125 6.18359375 C9.85902344 6.26738281 8.60476562 6.35117188 7.3125 6.4375 C6.07113281 6.51871094 4.82976562 6.59992188 3.55078125 6.68359375 C0.61819663 6.94491317 -2.13441617 7.34798379 -5 8 C-4.67 7.01 -4.34 6.02 -4 5 C-2.35 4.67 -0.7 4.34 1 4 C0.67 2.68 0.34 1.36 0 0 Z " fill="#8B6A49" transform="translate(153,174)"/>
<path d="M0 0 C4.54805635 -0.17835515 7.8794254 0.00214565 12 2 C11.67 2.99 11.34 3.98 11 5 C9.43883181 5.33951619 7.87598662 5.67132544 6.3125 6 C5.00732422 6.2784375 5.00732422 6.2784375 3.67578125 6.5625 C1.06287036 6.98972047 -1.35813038 7.07616201 -4 7 C-1.94766315 4.7522025 -0.99332739 3.9977758 2 3 C1.34 2.01 0.68 1.02 0 0 Z " fill="#462B21" transform="translate(137,177)"/>
<path d="M0 0 C2.0625 0.4375 2.0625 0.4375 4 1 C3.01 1 2.02 1 1 1 C1 1.66 1 2.32 1 3 C13.87 3.495 13.87 3.495 27 4 C27 4.33 27 4.66 27 5 C18.42 5.33 9.84 5.66 1 6 C0.67 6.99 0.34 7.98 0 9 C-0.99 8.01 -1.98 7.02 -3 6 C-1.125 1.125 -1.125 1.125 0 0 Z " fill="#C69094" transform="translate(119,196)"/>
<path d="M0 0 C0.66 0 1.32 0 2 0 C3.98363508 6.23428168 5.00318287 12.54189755 6 19 C6.99 19 7.98 19 9 19 C9 19.66 9 20.32 9 21 C4.25 20.25 4.25 20.25 2 18 C1.3671875 15.13671875 1.3671875 15.13671875 0.875 11.6875 C0.70742187 10.55699219 0.53984375 9.42648438 0.3671875 8.26171875 C0.05242879 5.46572381 -0.07376764 2.80843941 0 0 Z " fill="#381F19" transform="translate(196,185)"/>
<path d="M0 0 C4.17799643 2.08899822 4.92391901 3.05544612 7 7 C6.34 7.66 5.68 8.32 5 9 C4.34 8.34 3.68 7.68 3 7 C3.020625 7.94875 3.04125 8.8975 3.0625 9.875 C3 13 3 13 2 15 C1.34 15 0.68 15 0 15 C0 10.05 0 5.1 0 0 Z " fill="#3F241D" transform="translate(206,188)"/>
<path d="M0 0 C0.33 0 0.66 0 1 0 C1.2475 1.051875 1.495 2.10375 1.75 3.1875 C2.76700786 6.8133541 4.45373429 9.19910772 7 12 C6.34 12 5.68 12 5 12 C4.01 13.485 4.01 13.485 3 15 C2.608125 14.278125 2.21625 13.55625 1.8125 12.8125 C-0.14649898 9.772674 -2.37963597 7.47872273 -5 5 C-4.34 4.34 -3.68 3.68 -3 3 C-2.01 3.33 -1.02 3.66 0 4 C0 2.68 0 1.36 0 0 Z " fill="#926F4F" transform="translate(122,173)"/>
<path d="M0 0 C0 1.65 0 3.3 0 5 C-1.32 5 -2.64 5 -4 5 C-4 4.34 -4 3.68 -4 3 C-5.2065625 3.2784375 -5.2065625 3.2784375 -6.4375 3.5625 C-10.78253084 4.09610028 -14.68989724 3.6225704 -19 3 C-19 2.67 -19 2.34 -19 2 C-16.95928485 1.66089006 -14.91737379 1.32897296 -12.875 1 C-11.73804688 0.814375 -10.60109375 0.62875 -9.4296875 0.4375 C-6.23862398 0.03043951 -3.21182209 -0.07809902 0 0 Z " fill="#CFA660" transform="translate(207,166)"/>
<path d="M0 0 C2.31 0.33 4.62 0.66 7 1 C6.360625 1.268125 5.72125 1.53625 5.0625 1.8125 C2.66868314 2.88667752 2.66868314 2.88667752 2 6 C2.66 6.33 3.32 6.66 4 7 C3.67 7.66 3.34 8.32 3 9 C3.99 9 4.98 9 6 9 C6 9.66 6 10.32 6 11 C7.32 11.33 8.64 11.66 10 12 C9.01 12.66 8.02 13.32 7 14 C7 13.34 7 12.68 7 12 C6.236875 11.731875 5.47375 11.46375 4.6875 11.1875 C0.4320442 9.30718232 0.4320442 9.30718232 -1 7 C-0.6875 3.3125 -0.6875 3.3125 0 0 Z " fill="#8A6A55" transform="translate(121,144)"/>
<path d="M0 0 C4.29 0.99 8.58 1.98 13 3 C12.67 4.32 12.34 5.64 12 7 C10.55989519 6.74337755 9.1229313 6.46909179 7.6875 6.1875 C6.88699219 6.03667969 6.08648437 5.88585937 5.26171875 5.73046875 C2.73679476 4.91499244 1.61930266 4.08046329 0 2 C0 1.34 0 0.68 0 0 Z " fill="#4D5265" transform="translate(163,193)"/>
<path d="M0 0 C0.8353125 0.7425 0.8353125 0.7425 1.6875 1.5 C4.41508925 3.26924708 5.80848491 3.4199362 9 3 C9.66 2.34 10.32 1.68 11 1 C13.475 1.99 13.475 1.99 16 3 C15.67 3.66 15.34 4.32 15 5 C12.19921875 5.5546875 12.19921875 5.5546875 8.6875 5.875 C6.96080078 6.05675781 6.96080078 6.05675781 5.19921875 6.2421875 C2 6 2 6 -0.41796875 4.0078125 C-1.20107422 3.01394531 -1.20107422 3.01394531 -2 2 C-1.34 1.34 -0.68 0.68 0 0 Z " fill="#4F4B58" transform="translate(153,142)"/>
<path d="M0 0 C2.93446333 2.60841185 4.75591171 5.63806602 6.75 9 C7.70132813 10.5778125 7.70132813 10.5778125 8.671875 12.1875 C10 15 10 15 9 18 C8.34 17.67 7.68 17.34 7 17 C7 16.01 7 15.02 7 14 C5.68 13.34 4.36 12.68 3 12 C3.33 10.68 3.66 9.36 4 8 C3.34 8 2.68 8 2 8 C2 7.01 2 6.02 2 5 C1.34 5 0.68 5 0 5 C0 3.35 0 1.7 0 0 Z " fill="#413E48" transform="translate(188,134)"/>
<path d="M0 0 C2.3125 1.4375 2.3125 1.4375 4 3 C4 3.66 4 4.32 4 5 C3.34 5 2.68 5 2 5 C1.67 6.32 1.34 7.64 1 9 C0.649375 8.236875 0.29875 7.47375 -0.0625 6.6875 C-2.65502364 3.09141882 -4.87447406 2.47896213 -9 1 C-5.64846558 -1.11022538 -3.75933548 -1.22178403 0 0 Z " fill="#8C6A4A" transform="translate(156,153)"/>
<path d="M0 0 C3.44862127 1.14954042 3.84195809 1.82527151 5.6875 4.8125 C6.12449219 5.49957031 6.56148437 6.18664062 7.01171875 6.89453125 C8 9 8 9 8 13 C6.140625 12.80859375 6.140625 12.80859375 4 12 C2.734375 9.78515625 2.734375 9.78515625 1.75 7.0625 C1.41484375 6.16660156 1.0796875 5.27070313 0.734375 4.34765625 C0 2 0 2 0 0 Z " fill="#583C3D" transform="translate(163,151)"/>
<path d="M0 0 C0.99 0.33 1.98 0.66 3 1 C3 1.99 3 2.98 3 4 C3.66 4.33 4.32 4.66 5 5 C5 5.66 5 6.32 5 7 C4.34 7 3.68 7 3 7 C3 7.66 3 8.32 3 9 C0.69 8.67 -1.62 8.34 -4 8 C-4.33 6.35 -4.66 4.7 -5 3 C-1.535 4.485 -1.535 4.485 2 6 C1.34 4.02 0.68 2.04 0 0 Z " fill="#6D5038" transform="translate(217,190)"/>
<path d="M0 0 C0.66 0.66 1.32 1.32 2 2 C4.21072977 2.24253813 4.21072977 2.24253813 6.625 2.125 C7.44226563 2.10695312 8.25953125 2.08890625 9.1015625 2.0703125 C9.72804687 2.04710937 10.35453125 2.02390625 11 2 C10.67 3.32 10.34 4.64 10 6 C2.25 7.125 2.25 7.125 0 6 C0 4.02 0 2.04 0 0 Z " fill="#765948" transform="translate(170,175)"/>
<path d="M0 0 C0.99 0.66 1.98 1.32 3 2 C2.67 3.65 2.34 5.3 2 7 C-2.97601626 8.71050559 -6.42616295 7.00885647 -11 5 C-9 4 -9 4 -6 4 C-5.67 3.34 -5.34 2.68 -5 2 C-3.35 2.99 -1.7 3.98 0 5 C0 3.35 0 1.7 0 0 Z " fill="#8D6659" transform="translate(148,145)"/>
<path d="M0 0 C4.18358477 0.55848826 7.02629569 3.04446302 10.25 5.5625 C10.80429688 5.98724609 11.35859375 6.41199219 11.9296875 6.84960938 C13.29089411 7.89398341 14.64605833 8.94622464 16 10 C13.3333581 11.33332095 11.83319697 10.67102033 9 10 C9 9.01 9 8.02 9 7 C8.01 7 7.02 7 6 7 C3.9375 4.625 3.9375 4.625 2 2 C1.34 1.34 0.68 0.68 0 0 Z " fill="#6A4D33" transform="translate(158,133)"/>
<path d="M0 0 C1.00289062 0.28746094 2.00578125 0.57492188 3.0390625 0.87109375 C3.80992187 1.09925781 4.58078125 1.32742187 5.375 1.5625 C5.045 2.5525 4.715 3.5425 4.375 4.5625 C0.745 3.9025 -2.885 3.2425 -6.625 2.5625 C-6.955 1.5725 -7.285 0.5825 -7.625 -0.4375 C-4.72405209 -1.88797396 -3.06527404 -0.89106803 0 0 Z " fill="#53576A" transform="translate(161.625,168.4375)"/>
<path d="M0 0 C0.928125 0.20625 1.85625 0.4125 2.8125 0.625 C2.4825 1.945 2.1525 3.265 1.8125 4.625 C0.1625 4.295 -1.4875 3.965 -3.1875 3.625 C-4.1775 5.11 -4.1775 5.11 -5.1875 6.625 C-5.8475 6.625 -6.5075 6.625 -7.1875 6.625 C-6.875 4.25 -6.875 4.25 -6.1875 1.625 C-3.1875 -0.375 -3.1875 -0.375 0 0 Z " fill="#684C38" transform="translate(103.1875,164.375)"/>
<path d="M0 0 C0.226875 0.515625 0.45375 1.03125 0.6875 1.5625 C2.21152528 4.39283267 4.08367853 6.79879341 6.07421875 9.31640625 C6.37972656 9.87199219 6.68523437 10.42757812 7 11 C6.67 11.99 6.34 12.98 6 14 C4.84237881 12.78192862 3.6993417 11.54998765 2.5625 10.3125 C1.92441406 9.62800781 1.28632813 8.94351563 0.62890625 8.23828125 C-1.16221098 5.77710578 -1.62798558 3.99183426 -2 1 C-1.34 0.67 -0.68 0.34 0 0 Z " fill="#3B1F1B" transform="translate(131,132)"/>
<path d="M0 0 C0.33 0 0.66 0 1 0 C1.33 4.29 1.66 8.58 2 13 C1.01 13.33 0.02 13.66 -1 14 C-2.51708428 4.58997722 -2.51708428 4.58997722 0 0 Z " fill="#4E5061" transform="translate(181,176)"/>
<path d="M0 0 C-1.65 0.33 -3.3 0.66 -5 1 C-5 2.32 -5 3.64 -5 5 C-7.64 5.33 -10.28 5.66 -13 6 C-13 5.34 -13 4.68 -13 4 C-12.01 3.67 -11.02 3.34 -10 3 C-9.71125 2.34 -9.4225 1.68 -9.125 1 C-8 -1 -8 -1 -5.5625 -1.875 C-3 -2 -3 -2 0 0 Z " fill="#644932" transform="translate(135,185)"/>
<path d="M0 0 C0.33 0.99 0.66 1.98 1 3 C0.01 3.33 -0.98 3.66 -2 4 C-2.33 5.98 -2.66 7.96 -3 10 C-3.66 10 -4.32 10 -5 10 C-6.125 3.25 -6.125 3.25 -5 1 C-2 0 -2 0 0 0 Z " fill="#4B3E45" transform="translate(191,123)"/>
<path d="M0 0 C4.29 0 8.58 0 13 0 C12.67 0.66 12.34 1.32 12 2 C8.01624339 3.17169312 4.12560776 3.08089427 0 3 C0 2.01 0 1.02 0 0 Z " fill="#482B26" transform="translate(120,202)"/>
<path d="M0 0 C0.598125 0.45375 1.19625 0.9075 1.8125 1.375 C3.50590652 2.63295913 5.24477086 3.82984724 7 5 C5 7 3 9 1 11 C0.01 10.34 -0.98 9.68 -2 9 C-1.01 9 -0.02 9 1 9 C0.67 6.03 0.34 3.06 0 0 Z " fill="#534B55" transform="translate(133,172)"/>
<path d="M0 0 C1.32 0.33 2.64 0.66 4 1 C2.92598892 3.91517292 2.22189824 5.77810176 0 8 C-3.125 7.625 -3.125 7.625 -6 7 C-3 5 -3 5 0 5 C0 3.35 0 1.7 0 0 Z " fill="#462B25" transform="translate(209,155)"/>
<path d="M0 0 C0.33 0.99 0.66 1.98 1 3 C-5.93 2.67 -12.86 2.34 -20 2 C-20 1.67 -20 1.34 -20 1 C-13.31184516 0.37577221 -6.71884955 -0.12920865 0 0 Z " fill="#391C16" transform="translate(151,192)"/>
<path d="M0 0 C0 0.66 0 1.32 0 2 C-4.29 1.67 -8.58 1.34 -13 1 C-13 0.34 -13 -0.32 -13 -1 C-8.15507803 -2.51403812 -4.7408989 -1.36602172 0 0 Z " fill="#472D22" transform="translate(135,144)"/>
<path d="M0 0 C0 0.66 0 1.32 0 2 C-2.64 2.66 -5.28 3.32 -8 4 C-7.67 4.99 -7.34 5.98 -7 7 C-7.99 7.495 -7.99 7.495 -9 8 C-9 5.69 -9 3.38 -9 1 C-5.8035914 -0.06546953 -3.34252724 -0.07427838 0 0 Z " fill="#402E2A" transform="translate(197,175)"/>
<path d="M0 0 C2.475 0.99 2.475 0.99 5 2 C4.01 2.495 4.01 2.495 3 3 C3.04125 4.0725 3.0825 5.145 3.125 6.25 C3.0114175 9.65747485 2.78726636 11.20739631 1 14 C0.34 13.67 -0.32 13.34 -1 13 C-0.67 12.34 -0.34 11.68 0 11 C0.07033769 9.12620395 0.0843022 7.24998898 0.0625 5.375 C0.05347656 4.37210938 0.04445312 3.36921875 0.03515625 2.3359375 C0.02355469 1.56507813 0.01195312 0.79421875 0 0 Z " fill="#A7856B" transform="translate(167,172)"/>
<path d="M0 0 C4.2742558 1.5830577 6.26531794 4.50568404 9 8 C4.25 7.125 4.25 7.125 2 6 C1.27306096 4.02111039 0.60183749 2.02045442 0 0 Z " fill="#7C5B42" transform="translate(99,171)"/>
<path d="M0 0 C1.423125 0.495 1.423125 0.495 2.875 1 C5.77062452 2.10159191 5.77062452 2.10159191 8 2 C10 5 10 5 10 8 C4.98886765 6.5682479 3.05530451 4.01554307 0 0 Z " fill="#674933" transform="translate(108,170)"/>
<path d="M0 0 C3.33193619 2.69728168 4.60371996 6.02060187 6 10 C5.6875 12.4375 5.6875 12.4375 5 14 C1.93757784 9.15939723 0.46588495 5.70709064 0 0 Z " fill="#3E2320" transform="translate(180,121)"/>
<path d="M0 0 C5.66153846 1.47692308 5.66153846 1.47692308 7.375 4.125 C7.684375 5.053125 7.684375 5.053125 8 6 C6.25 6.75 6.25 6.75 4 7 C1.75 5.25 1.75 5.25 0 3 C0 2.01 0 1.02 0 0 Z " fill="#5C5C6C" transform="translate(144,119)"/>
<path d="M0 0 C0.33 0.66 0.66 1.32 1 2 C4.3 2 7.6 2 11 2 C11 2.33 11 2.66 11 3 C10.2575 3.144375 9.515 3.28875 8.75 3.4375 C6.08713438 3.94197586 6.08713438 3.94197586 3.875 4.625 C2 5 2 5 -1 4 C-1.99 4 -2.98 4 -4 4 C-4 3.34 -4 2.68 -4 2 C-2.68 2 -1.36 2 0 2 C0 1.34 0 0.68 0 0 Z " fill="#98754F" transform="translate(127,188)"/>
<path d="M0 0 C-0.33 1.32 -0.66 2.64 -1 4 C-1.70125 3.814375 -2.4025 3.62875 -3.125 3.4375 C-6.33888698 2.94843024 -8.83560336 3.33768442 -12 4 C-12 3.34 -12 2.68 -12 2 C-7.8803623 0.70756464 -4.33168317 -0.26252625 0 0 Z " fill="#60462F" transform="translate(159,187)"/>
<path d="M0 0 C0.66 0.33 1.32 0.66 2 1 C2 1.99 2 2.98 2 4 C3.32 4.33 4.64 4.66 6 5 C6 5.33 6 5.66 6 6 C2.37 6.66 -1.26 7.32 -5 8 C-4.67 7.01 -4.34 6.02 -4 5 C-2.35 4.67 -0.7 4.34 1 4 C0.67 2.68 0.34 1.36 0 0 Z " fill="#70503D" transform="translate(153,174)"/>
<path d="M0 0 C0.66 0.33 1.32 0.66 2 1 C2 1.66 2 2.32 2 3 C-0.31 2.67 -2.62 2.34 -5 2 C-5.99 3.485 -5.99 3.485 -7 5 C-8.32 4.34 -9.64 3.68 -11 3 C-8.20838707 -1.1874194 -4.55428654 -0.28916105 0 0 Z " fill="#674C36" transform="translate(215,170)"/>
<path d="M0 0 C1.77049689 -0.05410687 3.54146849 -0.09284119 5.3125 -0.125 C6.29863281 -0.14820313 7.28476563 -0.17140625 8.30078125 -0.1953125 C11 0 11 0 14 2 C13.67 2.99 13.34 3.98 13 5 C12.01 5 11.02 5 10 5 C10 3.68 10 2.36 10 1 C8.72125 1.20625 7.4425 1.4125 6.125 1.625 C3.9453125 1.9765625 3.9453125 1.9765625 2 2 C1.34 1.34 0.68 0.68 0 0 Z " fill="#75573B" transform="translate(197,165)"/>
<path d="M0 0 C0.7940625 -0.01417969 1.588125 -0.02835938 2.40625 -0.04296875 C4.5 0.1875 4.5 0.1875 6.5 2.1875 C0.065 2.6825 0.065 2.6825 -6.5 3.1875 C-6.5 2.5275 -6.5 1.8675 -6.5 1.1875 C-4.14653604 0.01076802 -2.6193967 0.02126134 0 0 Z " fill="#472A26" transform="translate(199.5,152.8125)"/>
<path d="M0 0 C5.75 -0.125 5.75 -0.125 8 1 C7.67 1.66 7.34 2.32 7 3 C5.68 2.67 4.36 2.34 3 2 C3.33 3.98 3.66 5.96 4 8 C2 7 2 7 1 4 C0.34 4 -0.32 4 -1 4 C-0.67 2.68 -0.34 1.36 0 0 Z " fill="#694845" transform="translate(130,129)"/>
<path d="M0 0 C4.29 0 8.58 0 13 0 C13 0.33 13 0.66 13 1 C10.36 1 7.72 1 5 1 C4.67 2.32 4.34 3.64 4 5 C2 3.625 2 3.625 0 2 C0 1.34 0 0.68 0 0 Z " fill="#5E657A" transform="translate(158,188)"/>
<path d="M0 0 C3.3 0.99 6.6 1.98 10 3 C9.01 3.33 8.02 3.66 7 4 C7 4.66 7 5.32 7 6 C4.0625 5.25 4.0625 5.25 1 4 C0.67 2.68 0.34 1.36 0 0 Z " fill="#805F3F" transform="translate(115,185)"/>
<path d="M0 0 C0.66 0 1.32 0 2 0 C2.33 2.97 2.66 5.94 3 9 C2.01 9 1.02 9 0 9 C-0.33 9.66 -0.66 10.32 -1 11 C-1.14285714 3.57142857 -1.14285714 3.57142857 0 0 Z " fill="#575E72" transform="translate(189,179)"/>
<path d="M0 0 C2.97903734 2.97903734 4 5.80285329 4 10 C3.01 10 2.02 10 1 10 C-0.83691257 6.21812119 -1.15837626 4.05431692 0 0 Z " fill="#4A4E5E" transform="translate(123,165)"/>
<path d="M0 0 C3.375 -0.125 3.375 -0.125 7 0 C8.95216435 1.95216435 9.84826645 3.53199953 11 6 C6.49197399 4.74194623 3.5087188 3.09592835 0 0 Z " fill="#A47D5C" transform="translate(168,143)"/>
<path d="M0 0 C0.625 1.8125 0.625 1.8125 1 4 C0.01 5.485 0.01 5.485 -1 7 C-1.66 6.67 -2.32 6.34 -3 6 C-3 5.34 -3 4.68 -3 4 C-5.97 3.505 -5.97 3.505 -9 3 C-8.34 2.34 -7.68 1.68 -7 1 C-3.375 1.375 -3.375 1.375 0 2 C0 1.34 0 0.68 0 0 Z " fill="#372420" transform="translate(141,126)"/>
<path d="M0 0 C5.75 1.625 5.75 1.625 8 5 C8 5.66 8 6.32 8 7 C7.4225 6.690625 6.845 6.38125 6.25 6.0625 C4.15705816 5.07416636 2.25464725 4.4831387 0 4 C0 2.68 0 1.36 0 0 Z " fill="#3C2318" transform="translate(106,166)"/>
<path d="M0 0 C0.99 0 1.98 0 3 0 C3 0.99 3 1.98 3 3 C4.98 3 6.96 3 9 3 C8.67 4.32 8.34 5.64 8 7 C5.6875 6.875 5.6875 6.875 3 6 C1.1875 2.9375 1.1875 2.9375 0 0 Z " fill="#54484D" transform="translate(177,164)"/>
<path d="M0 0 C1.32 0.33 2.64 0.66 4 1 C4.33 2.65 4.66 4.3 5 6 C2 8 2 8 -0.1875 7.625 C-0.785625 7.41875 -1.38375 7.2125 -2 7 C-1.01 6.67 -0.02 6.34 1 6 C0.67 4.02 0.34 2.04 0 0 Z " fill="#50332E" transform="translate(149,145)"/>
<path d="M0 0 C4.42857143 5.14285714 4.42857143 5.14285714 5 9 C2.08482708 7.92598892 0.22189824 7.22189824 -2 5 C-1.34 4.67 -0.68 4.34 0 4 C0 2.68 0 1.36 0 0 Z " fill="#6F4E41" transform="translate(175,129)"/>
<path d="M0 0 C2.31 0.33 4.62 0.66 7 1 C7 2.32 7 3.64 7 5 C4.36 4.67 1.72 4.34 -1 4 C-0.67 2.68 -0.34 1.36 0 0 Z " fill="#5D432F" transform="translate(158,124)"/>
<path d="M0 0 C1.98 0 3.96 0 6 0 C6.33 1.32 6.66 2.64 7 4 C3.23375329 5.25541557 1.62811066 4.37061958 -2 3 C-1.01 2.67 -0.02 2.34 1 2 C0.67 1.34 0.34 0.68 0 0 Z " fill="#616478" transform="translate(184,199)"/>
<path d="M0 0 C0.33 0 0.66 0 1 0 C1.66 3.96 2.32 7.92 3 12 C3.99 12 4.98 12 6 12 C6 12.66 6 13.32 6 14 C4.35 13.67 2.7 13.34 1 13 C0.1276588 10.00519083 -0.10829766 7.36424089 -0.0625 4.25 C-0.05347656 3.45078125 -0.04445312 2.6515625 -0.03515625 1.828125 C-0.02355469 1.22484375 -0.01195312 0.6215625 0 0 Z " fill="#4F312D" transform="translate(199,192)"/>
<path d="M0 0 C1.32 2.64 2.64 5.28 4 8 C3.01 8.495 3.01 8.495 2 9 C1.67 8.01 1.34 7.02 1 6 C0.34 5.67 -0.32 5.34 -1 5 C-3 4 -3 4 -4 1 C-2 0 -2 0 0 0 Z " fill="#997258" transform="translate(218,185)"/>
<path d="M0 0 C1.485 0.99 1.485 0.99 3 2 C3.99 1.67 4.98 1.34 6 1 C5.67 2.98 5.34 4.96 5 7 C3.35 7 1.7 7 0 7 C0 4.69 0 2.38 0 0 Z " fill="#664F55" transform="translate(183,131)"/>
<path d="M0 0 C1.32 0.33 2.64 0.66 4 1 C4 1.99 4 2.98 4 4 C4.66 4 5.32 4 6 4 C6 5.32 6 6.64 6 8 C2.83884224 6.63016497 2.0072908 6.0109362 0 3 C0 2.01 0 1.02 0 0 Z " fill="#42404C" transform="translate(149,124)"/>
<path d="M0 0 C3.16115776 1.36983503 3.9927092 1.9890638 6 5 C5.01 5.66 4.02 6.32 3 7 C1.35 5.68 -0.3 4.36 -2 3 C-1.34 2.67 -0.68 2.34 0 2 C0 1.34 0 0.68 0 0 Z " fill="#595969" transform="translate(191,123)"/>
<path d="M0 0 C0.99 0.33 1.98 0.66 3 1 C3.66 4.3 4.32 7.6 5 11 C4.01 10.67 3.02 10.34 2 10 C1.67 7.69 1.34 5.38 1 3 C0.34 3 -0.32 3 -1 3 C-0.67 2.01 -0.34 1.02 0 0 Z " fill="#6E4C4A" transform="translate(167,113)"/>
<path d="M0 0 C1.32 0 2.64 0 4 0 C4 0.66 4 1.32 4 2 C6.97 1.34 9.94 0.68 13 0 C10.73437327 2.26562673 9.15839295 2.94462749 5.95703125 3.09765625 C5.24933594 3.08605469 4.54164063 3.07445312 3.8125 3.0625 C1.9253125 3.0315625 1.9253125 3.0315625 0 3 C0 2.01 0 1.02 0 0 Z " fill="#A07558" transform="translate(143,189)"/>
<path d="M0 0 C2.75 0.25 2.75 0.25 5 1 C3.68 1.33 2.36 1.66 1 2 C1 2.66 1 3.32 1 4 C0.34 4 -0.32 4 -1 4 C-0.34 5.65 0.32 7.3 1 9 C0.01 8.34 -0.98 7.68 -2 7 C-2 6.34 -2 5.68 -2 5 C-2.66 4.67 -3.32 4.34 -4 4 C-2.3125 1.9375 -2.3125 1.9375 0 0 Z " fill="#BC9462" transform="translate(100,167)"/>
<path d="M0 0 C4.455 0.99 4.455 0.99 9 2 C8.01 2.33 7.02 2.66 6 3 C6 3.66 6 4.32 6 5 C4.125 4.75 4.125 4.75 2 4 C1.34 2.68 0.68 1.36 0 0 Z " fill="#4B4C5C" transform="translate(163,193)"/>
<path d="M0 0 C1.32 0.99 2.64 1.98 4 3 C-2.93 2.505 -2.93 2.505 -10 2 C-5.96639925 -0.01680038 -4.36227606 -0.45440376 0 0 Z " fill="#3F3942" transform="translate(172,186)"/>
<path d="M0 0 C2.4375 0.75 2.4375 0.75 5 2 C5.8125 4.125 5.8125 4.125 6 6 C5.01 6.495 5.01 6.495 4 7 C3.67 6.01 3.34 5.02 3 4 C0.49552484 2.78130071 0.49552484 2.78130071 -2 2 C-1.34 1.34 -0.68 0.68 0 0 Z " fill="#533532" transform="translate(151,171)"/>
<path d="M0 0 C1.65 0 3.3 0 5 0 C5 0.66 5 1.32 5 2 C5.99 2.33 6.98 2.66 8 3 C5 4 5 4 2.8125 3.0625 C2.214375 2.711875 1.61625 2.36125 1 2 C1 2.99 1 3.98 1 5 C0.34 5 -0.32 5 -1 5 C-0.67 3.35 -0.34 1.7 0 0 Z " fill="#977446" transform="translate(198,169)"/>
<path d="M0 0 C1.32 0.66 2.64 1.32 4 2 C3.67 3.65 3.34 5.3 3 7 C2.34 6.01 1.68 5.02 1 4 C-1.19454681 3.42006301 -1.19454681 3.42006301 -3.625 3.3125 C-4.44226563 3.24675781 -5.25953125 3.18101562 -6.1015625 3.11328125 C-6.72804687 3.07589844 -7.35453125 3.03851563 -8 3 C-8 2.67 -8 2.34 -8 2 C-5.36 2 -2.72 2 0 2 C0 1.34 0 0.68 0 0 Z " fill="#996C6E" transform="translate(206,153)"/>
<path d="M0 0 C1.65 1.65 3.3 3.3 5 5 C4.01 5.66 3.02 6.32 2 7 C1.566875 6.0409375 1.566875 6.0409375 1.125 5.0625 C0.17176549 2.84793921 0.17176549 2.84793921 -2 2 C-1.34 1.34 -0.68 0.68 0 0 Z " fill="#505465" transform="translate(148,136)"/>
<path d="M0 0 C1.65 0 3.3 0 5 0 C4.01 0.33 3.02 0.66 2 1 C2 3.64 2 6.28 2 9 C1.67 7.68 1.34 6.36 1 5 C0.34 5 -0.32 5 -1 5 C-0.67 3.35 -0.34 1.7 0 0 Z " fill="#5D3C39" transform="translate(197,180)"/>
<path d="M0 0 C1.32 0 2.64 0 4 0 C4.12375 0.78375 4.2475 1.5675 4.375 2.375 C4.79117993 5.14057822 4.79117993 5.14057822 7 7 C5.35 6.67 3.7 6.34 2 6 C2 4.68 2 3.36 2 2 C1.34 2 0.68 2 0 2 C0 1.34 0 0.68 0 0 Z " fill="#7B6351" transform="translate(153,126)"/>
<path d="M0 0 C0.33 0 0.66 0 1 0 C1.33 1.98 1.66 3.96 2 6 C-0.35968744 8.09749995 -1.54616994 8.96905704 -4.75 9.1875 C-5.4925 9.125625 -6.235 9.06375 -7 9 C-6.34 8.34 -5.68 7.68 -5 7 C-3.68 7 -2.36 7 -1 7 C-0.67 4.69 -0.34 2.38 0 0 Z " fill="#D79DA4" transform="translate(154,195)"/>
<path d="M0 0 C3.63 0.33 7.26 0.66 11 1 C11 1.33 11 1.66 11 2 C8.36 2 5.72 2 3 2 C2.67 2.99 2.34 3.98 2 5 C1.01 4.01 0.02 3.02 -1 2 C-0.67 1.34 -0.34 0.68 0 0 Z " fill="#996C6D" transform="translate(117,200)"/>
<path d="M0 0 C0.33 0 0.66 0 1 0 C1 1.98 1 3.96 1 6 C-0.65 6.33 -2.3 6.66 -4 7 C-4.33 6.34 -4.66 5.68 -5 5 C-4.34 4.34 -3.68 3.68 -3 3 C-2.01 3.33 -1.02 3.66 0 4 C0 2.68 0 1.36 0 0 Z " fill="#825D4E" transform="translate(122,173)"/>
<path d="M0 0 C3.91211733 1.15585285 6.8745041 2.35534962 10 5 C8.1875 5.625 8.1875 5.625 6 6 C5.01 5.34 4.02 4.68 3 4 C3 3.34 3 2.68 3 2 C2.01 1.67 1.02 1.34 0 1 C0 0.67 0 0.34 0 0 Z " fill="#63472D" transform="translate(176,145)"/>
<path d="M0 0 C1.98 0.66 3.96 1.32 6 2 C5.67 2.66 5.34 3.32 5 4 C2.93359375 4.4140625 2.93359375 4.4140625 0.4375 4.625 C-0.38878906 4.69976562 -1.21507812 4.77453125 -2.06640625 4.8515625 C-3.02353516 4.92503906 -3.02353516 4.92503906 -4 5 C-2.68 3.35 -1.36 1.7 0 0 Z " fill="#413135" transform="translate(163,143)"/>
<path d="M0 0 C0.66 0 1.32 0 2 0 C1.67 2.64 1.34 5.28 1 8 C0.01 7.34 -0.98 6.68 -2 6 C-1.125 1.125 -1.125 1.125 0 0 Z " fill="#371E18" transform="translate(115,195)"/>
<path d="M0 0 C2 0 2 0 3.5 1.4375 C3.995 1.953125 4.49 2.46875 5 3 C5.66 3.33 6.32 3.66 7 4 C6.34 4.66 5.68 5.32 5 6 C4.01 6 3.02 6 2 6 C0 3 0 3 0 0 Z " fill="#3C2422" transform="translate(146,139)"/>
<path d="M0 0 C0.99 0.495 0.99 0.495 2 1 C2 1.99 2 2.98 2 4 C2.99 4.33 3.98 4.66 5 5 C4.01 5 3.02 5 2 5 C2 6.98 2 8.96 2 11 C1.67 11 1.34 11 1 11 C0.67 7.37 0.34 3.74 0 0 Z " fill="#636468" transform="translate(186,171)"/>
<path d="M0 0 C0.99 0.33 1.98 0.66 3 1 C3.6875 3.0625 3.6875 3.0625 4 5 C3.01 5 2.02 5 1 5 C0.34 3.68 -0.32 2.36 -1 1 C-0.67 0.67 -0.34 0.34 0 0 Z " fill="#444553" transform="translate(144,132)"/>
<path d="M0 0 C2.31 0.33 4.62 0.66 7 1 C7 1.33 7 1.66 7 2 C5.576875 2.37125 5.576875 2.37125 4.125 2.75 C0.91306809 3.6857077 0.91306809 3.6857077 -0.375 6.125 C-0.58125 6.74375 -0.7875 7.3625 -1 8 C-0.67 5.36 -0.34 2.72 0 0 Z " fill="#5B3B38" transform="translate(117,194)"/>
<path d="M0 0 C2.31 0 4.62 0 7 0 C7.33 0.99 7.66 1.98 8 3 C7.34 3 6.68 3 6 3 C5.67 3.66 5.34 4.32 5 5 C4.67 3.68 4.34 2.36 4 1 C2.68 0.67 1.36 0.34 0 0 Z " fill="#82633F" transform="translate(193,174)"/>
<path d="M0 0 C0.33 0.66 0.66 1.32 1 2 C0.67 2.66 0.34 3.32 0 4 C0.66 4 1.32 4 2 4 C2.33 5.65 2.66 7.3 3 9 C2.01 9 1.02 9 0 9 C-0.87890625 2.84765625 -0.87890625 2.84765625 -1 1 C-0.67 0.67 -0.34 0.34 0 0 Z " fill="#59515E" transform="translate(120,156)"/>
<path d="M0 0 C0.99 0 1.98 0 3 0 C3 0.66 3 1.32 3 2 C3.66 2 4.32 2 5 2 C5.33 2.99 5.66 3.98 6 5 C3 5 3 5 1.3125 3.625 C0 2 0 2 0 0 Z " fill="#6F5136" transform="translate(185,140)"/>
<path d="M0 0 C1 4 1 4 1 4 Z " fill="#ECB0B9" transform="translate(156,193)"/>
<path d="" fill="#6E5048" transform="translate(0,0)"/>
</svg>
