<?xml version="1.0" encoding="UTF-8"?>
<svg version="1.1" xmlns="http://www.w3.org/2000/svg" width="320" height="320">
<path d="M0 0 C0.93972656 -0.00128906 1.87945312 -0.00257812 2.84765625 -0.00390625 C3.83636719 -0.00003906 4.82507813 0.00382812 5.84375 0.0078125 C7.32681641 0.00201172 7.32681641 0.00201172 8.83984375 -0.00390625 C10.24943359 -0.00197266 10.24943359 -0.00197266 11.6875 0 C12.55568359 0.00112793 13.42386719 0.00225586 14.31835938 0.00341797 C16.34375 0.1328125 16.34375 0.1328125 17.34375 1.1328125 C17.27975474 2.78214478 17.14301084 4.42896381 16.96875 6.0703125 C16.87851563 6.96621094 16.78828125 7.86210938 16.6953125 8.78515625 C16.34375 11.1328125 16.34375 11.1328125 15.34375 13.1328125 C14.35375 13.1328125 13.36375 13.1328125 12.34375 13.1328125 C12.67375 16.1028125 13.00375 19.0728125 13.34375 22.1328125 C14.99375 22.4628125 16.64375 22.7928125 18.34375 23.1328125 C18.67375 25.7728125 19.00375 28.4128125 19.34375 31.1328125 C21.25800781 31.08253906 21.25800781 31.08253906 23.2109375 31.03125 C39.30600537 31.05011878 59.72482488 35.53998095 71.98925781 46.47680664 C74.6972391 49.53156903 76.37676567 52.74285283 78.09375 56.40234375 C78.79010343 57.83926074 79.48798577 59.27543763 80.18725586 60.7109375 C80.54246307 61.4443335 80.89767029 62.17772949 81.26364136 62.93334961 C83.99173604 68.48866394 86.92432859 73.94142312 89.82592773 79.4074707 C90.91401921 81.45996777 91.99512084 83.51605348 93.07617188 85.57226562 C96.76238787 92.54529974 100.57883997 99.32803948 104.91992188 105.92407227 C108.81178357 111.96139613 109.78052986 116.99874143 109.34375 124.1328125 C110.33375 124.41125 110.33375 124.41125 111.34375 124.6953125 C116.70176099 127.26269276 120.96574126 131.08802533 124.28125 136.0078125 C125.41523425 139.34306029 125.78517832 142.28566386 125.9375 145.7890625 C126.25089726 148.31105889 126.25089726 148.31105889 127.84375 150.984375 C130.66097112 156.89760475 130.63997447 164.38216299 128.5 170.57421875 C119.10891084 186.78653822 96.34092106 193.39349604 79.36816406 197.92773438 C72.08524269 199.68592737 64.74651343 200.99375601 57.34375 202.1328125 C56.28494629 202.29652344 55.22614258 202.46023438 54.13525391 202.62890625 C4.93865834 209.8041819 -63.41084241 210.95466539 -106.18359375 182.11328125 C-110.93632387 178.3065922 -115.43642238 173.90847509 -117.65625 168.1328125 C-117.95703125 164.890625 -117.95703125 164.890625 -117.96875 161.2578125 C-117.98550781 160.06414062 -118.00226563 158.87046875 -118.01953125 157.640625 C-117.62248554 153.80678575 -116.42631595 151.51902563 -114.65625 148.1328125 C-114.13593069 145.20975813 -114.13593069 145.20975813 -113.90625 142.2578125 C-112.82851854 135.01904953 -109.5298018 131.22462709 -103.93359375 126.7578125 C-100.22395833 124.1328125 -100.22395833 124.1328125 -97.65625 124.1328125 C-97.90375 122.4003125 -97.90375 122.4003125 -98.15625 120.6328125 C-98.18568764 111.31579832 -91.55998694 102.23273651 -86.86328125 94.5234375 C-82.97428881 88.09490839 -79.48560569 81.45633066 -75.96875 74.8203125 C-74.97100738 72.9411701 -73.97248094 71.0624544 -72.97245789 69.18452454 C-72.07280476 67.4946011 -71.17560694 65.8033712 -70.27856445 64.11206055 C-69.23636082 62.19813865 -68.15054163 60.3069899 -67.01245117 58.44848633 C-65.49984959 56.05840304 -65.49984959 56.05840304 -64.59375 52.8203125 C-61.31390226 45.16178478 -53.10422935 41.04681942 -45.84375 37.8828125 C-33.81563401 33.19369968 -20.53714658 30.79452633 -7.65625 31.1328125 C-7.32625 28.4928125 -6.99625 25.8528125 -6.65625 23.1328125 C-5.00625 22.8028125 -3.35625 22.4728125 -1.65625 22.1328125 C-1.32625 19.1628125 -0.99625 16.1928125 -0.65625 13.1328125 C-1.64625 13.1328125 -2.63625 13.1328125 -3.65625 13.1328125 C-4.9397498 9.0416569 -6.03646934 5.441965 -5.65625 1.1328125 C-4.03424485 -0.48919265 -2.23601969 0.002905 0 0 Z " fill="#D7D7D7" transform="translate(155.65625,61.8671875)"/>
<path d="M0 0 C0.93972656 -0.00128906 1.87945312 -0.00257812 2.84765625 -0.00390625 C3.83636719 -0.00003906 4.82507813 0.00382812 5.84375 0.0078125 C7.32681641 0.00201172 7.32681641 0.00201172 8.83984375 -0.00390625 C10.24943359 -0.00197266 10.24943359 -0.00197266 11.6875 0 C12.55568359 0.00112793 13.42386719 0.00225586 14.31835938 0.00341797 C16.34375 0.1328125 16.34375 0.1328125 17.34375 1.1328125 C17.27975474 2.78214478 17.14301084 4.42896381 16.96875 6.0703125 C16.87851563 6.96621094 16.78828125 7.86210938 16.6953125 8.78515625 C16.34375 11.1328125 16.34375 11.1328125 15.34375 13.1328125 C14.35375 13.1328125 13.36375 13.1328125 12.34375 13.1328125 C12.67375 16.1028125 13.00375 19.0728125 13.34375 22.1328125 C14.99375 22.4628125 16.64375 22.7928125 18.34375 23.1328125 C18.67375 25.7728125 19.00375 28.4128125 19.34375 31.1328125 C21.25800781 31.08253906 21.25800781 31.08253906 23.2109375 31.03125 C39.30600537 31.05011878 59.72482488 35.53998095 71.98925781 46.47680664 C74.6972391 49.53156903 76.37676567 52.74285283 78.09375 56.40234375 C78.79010343 57.83926074 79.48798577 59.27543763 80.18725586 60.7109375 C80.54246307 61.4443335 80.89767029 62.17772949 81.26364136 62.93334961 C83.99173604 68.48866394 86.92432859 73.94142312 89.82592773 79.4074707 C90.91401921 81.45996777 91.99512084 83.51605348 93.07617188 85.57226562 C96.76238787 92.54529974 100.57883997 99.32803948 104.91992188 105.92407227 C108.81178357 111.96139613 109.78052986 116.99874143 109.34375 124.1328125 C110.33375 124.41125 110.33375 124.41125 111.34375 124.6953125 C116.70176099 127.26269276 120.96574126 131.08802533 124.28125 136.0078125 C125.41523425 139.34306029 125.78517832 142.28566386 125.9375 145.7890625 C126.25089726 148.31105889 126.25089726 148.31105889 127.84375 150.984375 C130.66097112 156.89760475 130.63997447 164.38216299 128.5 170.57421875 C119.10891084 186.78653822 96.34092106 193.39349604 79.36816406 197.92773438 C72.08524269 199.68592737 64.74651343 200.99375601 57.34375 202.1328125 C56.28494629 202.29652344 55.22614258 202.46023438 54.13525391 202.62890625 C4.93865834 209.8041819 -63.41084241 210.95466539 -106.18359375 182.11328125 C-110.93632387 178.3065922 -115.43642238 173.90847509 -117.65625 168.1328125 C-117.95703125 164.890625 -117.95703125 164.890625 -117.96875 161.2578125 C-117.98550781 160.06414062 -118.00226563 158.87046875 -118.01953125 157.640625 C-117.62248554 153.80678575 -116.42631595 151.51902563 -114.65625 148.1328125 C-114.13593069 145.20975813 -114.13593069 145.20975813 -113.90625 142.2578125 C-112.82851854 135.01904953 -109.5298018 131.22462709 -103.93359375 126.7578125 C-100.22395833 124.1328125 -100.22395833 124.1328125 -97.65625 124.1328125 C-97.90375 122.4003125 -97.90375 122.4003125 -98.15625 120.6328125 C-98.18568764 111.31579832 -91.55998694 102.23273651 -86.86328125 94.5234375 C-82.97428881 88.09490839 -79.48560569 81.45633066 -75.96875 74.8203125 C-74.97100738 72.9411701 -73.97248094 71.0624544 -72.97245789 69.18452454 C-72.07280476 67.4946011 -71.17560694 65.8033712 -70.27856445 64.11206055 C-69.23636082 62.19813865 -68.15054163 60.3069899 -67.01245117 58.44848633 C-65.49984959 56.05840304 -65.49984959 56.05840304 -64.59375 52.8203125 C-61.31390226 45.16178478 -53.10422935 41.04681942 -45.84375 37.8828125 C-33.81563401 33.19369968 -20.53714658 30.79452633 -7.65625 31.1328125 C-7.32625 28.4928125 -6.99625 25.8528125 -6.65625 23.1328125 C-5.00625 22.8028125 -3.35625 22.4728125 -1.65625 22.1328125 C-1.32625 19.1628125 -0.99625 16.1928125 -0.65625 13.1328125 C-1.64625 13.1328125 -2.63625 13.1328125 -3.65625 13.1328125 C-4.9397498 9.0416569 -6.03646934 5.441965 -5.65625 1.1328125 C-4.03424485 -0.48919265 -2.23601969 0.002905 0 0 Z M-53.58203125 50.80859375 C-59.05864226 56.67378914 -65.65625 64.95424694 -65.65625 73.1328125 C-66.31625 73.1328125 -66.97625 73.1328125 -67.65625 73.1328125 C-70.02605013 76.08658748 -70.02605013 76.08658748 -69.65625 80.1328125 C-70.31625 80.1328125 -70.97625 80.1328125 -71.65625 80.1328125 C-72.13868164 81.06009155 -72.13868164 81.06009155 -72.63085938 82.00610352 C-73.59296213 83.85465152 -74.5555724 85.70293542 -75.51855469 87.55102539 C-76.61437506 89.65494169 -77.70876621 91.75960299 -78.80175781 93.86499023 C-81.23108103 98.53436208 -83.66658938 103.1940777 -86.234375 107.7890625 C-86.60626953 108.45993896 -86.97816406 109.13081543 -87.36132812 109.82202148 C-88.34083728 111.57804338 -89.33400516 113.32642676 -90.328125 115.07421875 C-91.77676887 118.41036036 -92.03001883 120.53655028 -91.65625 124.1328125 C-87.4200871 133.18279688 -76.55967058 138.51168977 -67.65625 142.1328125 C-48.43805396 149.01599991 -27.31769215 152.2281746 -6.93359375 152.3359375 C-6.03843048 152.34295181 -5.14326721 152.34996613 -4.22097778 152.35719299 C-1.34518341 152.37460329 1.53040485 152.38104596 4.40625 152.3828125 C5.88147629 152.38382462 5.88147629 152.38382462 7.38650513 152.38485718 C37.57624653 152.35195903 73.77584889 150.93716637 98.34375 131.1328125 C102.16019111 126.81051062 102.16019111 126.81051062 103.59765625 121.41357422 C103.29397529 117.4896658 102.129938 115.106915 100.28125 111.640625 C99.97050537 111.04982147 99.65976074 110.45901794 99.33959961 109.85031128 C98.35241085 107.97981412 97.34848518 106.1189327 96.34375 104.2578125 C95.66814147 102.98497381 94.99365025 101.7115414 94.3203125 100.4375 C92.67432823 97.32896386 91.01321799 94.22881297 89.34375 91.1328125 C88.68375 91.1328125 88.02375 91.1328125 87.34375 91.1328125 C86.35375 88.1628125 85.36375 85.1928125 84.34375 82.1328125 C83.68375 82.1328125 83.02375 82.1328125 82.34375 82.1328125 C82.09625 81.4521875 81.84875 80.7715625 81.59375 80.0703125 C80.37878203 77.21513777 78.91100039 74.61885729 77.34375 71.9453125 C76.34375 70.1328125 76.34375 70.1328125 74.90625 66.7578125 C70.36924314 56.23195658 65.74617196 49.1306122 54.77929688 44.66552734 C43.30677863 40.30760158 31.59805678 37.85806739 19.34375 37.1328125 C19.08980469 37.75671875 18.83585937 38.380625 18.57421875 39.0234375 C16.77740253 42.10369387 14.7657251 42.51898463 11.48828125 43.59375 C5.40962958 45.12171709 -0.23251998 44.16857708 -5.65625 41.1328125 C-7.15625 38.9453125 -7.15625 38.9453125 -7.65625 37.1328125 C-22.22754373 37.1328125 -42.40158086 41.07956086 -53.58203125 50.80859375 Z " fill="#361D18" transform="translate(155.65625,61.8671875)"/>
<path d="M0 0 C2 1.375 2 1.375 4 3 C4 3.66 4 4.32 4 5 C4.99 5.33 5.98 5.66 7 6 C9.65060125 8.92245779 11.8277043 11.72766164 13.9375 15.0625 C19.89244691 23.54378803 28.84733669 27.2925234 38.4375 30.0625 C39.31929932 30.31999023 40.20109863 30.57748047 41.10961914 30.84277344 C62.58505644 36.96475701 84.75162318 38.45890761 107 38.5 C107.92389526 38.50301117 108.84779053 38.50602234 109.79968262 38.50912476 C126.53391051 38.50570814 141.84574381 36.58628467 158 32 C158.81823242 31.77618652 159.63646484 31.55237305 160.47949219 31.32177734 C171.62270248 28.21289482 183.43779591 24.09569859 190 14 C190.45375 13.01 190.9075 12.02 191.375 11 C193.64825277 6.80322566 196.83357598 3.38844454 201 1 C204.39433909 1.04849056 205.77766673 1.81998177 208.421875 3.9609375 C209.19015625 4.75757813 209.9584375 5.55421875 210.75 6.375 C211.91789062 7.56222656 211.91789062 7.56222656 213.109375 8.7734375 C216.41397014 12.66521277 216.09290456 16.07605843 216 21 C215.34 21 214.68 21 214 21 C213.74605469 21.74507812 213.49210938 22.49015625 213.23046875 23.2578125 C209.17586629 32.29378369 198.83621346 36.69206012 190.11474609 40.20507812 C174.69840295 46 174.69840295 46 167 46 C167 46.66 167 47.32 167 48 C163.77394931 48.64175382 160.54369924 49.25974127 157.3125 49.875 C156.43916016 50.04902344 155.56582031 50.22304687 154.66601562 50.40234375 C137.2614508 53.67707023 119.72792598 54.352289 102.0625 54.25 C100.62322647 54.24534729 100.62322647 54.24534729 99.15487671 54.24060059 C79.9940781 54.16804219 61.6369841 53.46119597 43.04882812 48.5234375 C40.95227388 47.98780686 38.84995979 47.5168021 36.734375 47.0625 C19.4398739 43.32442189 -0.37914746 38.21612111 -11 23 C-11 22.34 -11 21.68 -11 21 C-11.66 21 -12.32 21 -13 21 C-13.29842544 15.92676745 -13.1367504 13.04741988 -10 9 C-6.87560342 5.60969733 -3.8452786 2.56351907 0 0 Z " fill="#795345" transform="translate(60,191)"/>
<path d="M0 0 C-4.618709 14.19356692 -10.4797428 27.85587342 -16.29624939 41.58641052 C-19.71111814 49.65979262 -23.04428783 57.76662134 -26.375 65.875 C-26.93879111 67.24666792 -27.50259293 68.61833144 -28.06640625 69.98999023 C-29.15115165 72.62954139 -30.2353713 75.26930782 -31.31933594 77.90917969 C-34.20759489 84.94163106 -37.10437893 91.97057766 -40 99 C-48.73421469 97.71134537 -56.38528227 94.16410488 -62.26171875 87.39453125 C-64.97208984 83.66091894 -65.38020824 81.63302139 -65 77 C-63.97097308 74.49876378 -62.9169906 72.24362628 -61.640625 69.87890625 C-61.29497498 69.21592026 -60.94932495 68.55293427 -60.59320068 67.86985779 C-59.49017204 65.76119863 -58.37031974 63.66201393 -57.25 61.5625 C-56.51192551 60.15617326 -55.77493557 58.74927677 -55.0390625 57.34179688 C-51.7969693 51.16381018 -48.4856033 45.04458639 -45 39 C-44.34 39 -43.68 39 -43 39 C-42.7834375 37.824375 -42.7834375 37.824375 -42.5625 36.625 C-42 34 -42 34 -41 32 C-40.34 32 -39.68 32 -39 32 C-38.90847656 31.31679687 -38.81695312 30.63359375 -38.72265625 29.9296875 C-36.47755423 20.82792255 -30.02367372 10.90488274 -22 6 C-14.67261204 2.40240359 -8.19509664 -0.1862522 0 0 Z " fill="#E7E7E7" transform="translate(129,103)"/>
<path d="M0 0 C16.47983454 4.84953464 16.47983454 4.84953464 23 11 C23.5259375 11.48597656 24.051875 11.97195312 24.59375 12.47265625 C26.49117445 14.53347003 27.55471219 16.90527193 28.7578125 19.4140625 C30.33399262 22.69529281 31.98307102 25.93887475 33.625 29.1875 C35.58880693 33.07652377 37.45050838 36.92683143 39 41 C39.66 41 40.32 41 41 41 C41.99 43.97 42.98 46.94 44 50 C44.66 50 45.32 50 46 50 C48.00975285 53.72705306 50.00289466 57.46238305 51.98144531 61.20605469 C52.65603738 62.47697839 53.33502343 63.74558032 54.01855469 65.01171875 C55.0033418 66.837738 55.97174563 68.67167107 56.9375 70.5078125 C57.81728516 72.15740967 57.81728516 72.15740967 58.71484375 73.84033203 C60.08564687 77.21057026 60.35933055 79.40100087 60 83 C56.01810845 91.50676832 46.32425229 96.4324633 38 100 C37.01 99.505 37.01 99.505 36 99 C35.55404362 97.00202712 35.1170056 95.00186751 34.70996094 92.99560547 C33.32290037 87.14304936 31.28943246 81.46688155 29.36914062 75.77124023 C28.62842313 73.57266045 27.89572228 71.37153034 27.1640625 69.16992188 C24.91016506 62.42204371 22.59048704 55.72570051 19.88037109 49.14428711 C18.50466102 45.79352128 17.25753602 42.39645862 16 39 C13.40329765 32.03248124 10.69252895 25.12043255 7.8671875 18.2421875 C7.49851563 17.33726563 7.12984375 16.43234375 6.75 15.5 C6.24726563 14.27796875 6.24726563 14.27796875 5.734375 13.03125 C5 11 5 11 5 9 C4.34 9 3.68 9 3 9 C2.01 6.03 1.02 3.06 0 0 Z " fill="#A6A5A5" transform="translate(199,103)"/>
<path d="M0 0 C0.66 0 1.32 0 2 0 C3.43304064 2.86608129 3.30644155 4.81300783 3 8 C0.35864972 12.96573853 -3.55783804 17.51635559 -8 21 C-8.99 21 -9.98 21 -11 21 C-11 21.66 -11 22.32 -11 23 C-38.17943031 37.20251398 -68.32787537 41.31326354 -98.66552734 42.81982422 C-100.86792286 42.93882904 -103.06911024 43.08322224 -105.26806641 43.25439453 C-122.57822015 44.59563616 -134.25520395 41.17473694 -149 32 C-149 31.67 -149 31.34 -149 31 C-148.3325325 30.98969254 -147.665065 30.97938507 -146.97737122 30.96876526 C-139.91835825 30.85908895 -132.85943282 30.74465979 -125.80053711 30.62768555 C-123.17946231 30.58484337 -120.55836856 30.54314246 -117.93725586 30.50268555 C-87.67487857 30.54814836 -87.67487857 30.54814836 -57.75 26.75 C-56.12276001 26.4238269 -56.12276001 26.4238269 -54.46264648 26.09106445 C-46.53685188 24.45304732 -38.80026229 22.39252558 -31.09765625 19.91796875 C-28 19 -28 19 -25 19 C-25 18.34 -25 17.68 -25 17 C-23.47246094 16.37544922 -23.47246094 16.37544922 -21.9140625 15.73828125 C-13.46125093 12.10744346 -5.44391558 7.50884908 0 0 Z " fill="#4F281C" transform="translate(277,218)"/>
<path d="M0 0 C0.969375 0.86625 1.93875 1.7325 2.9375 2.625 C24.92750353 21.32964444 54.67500747 28.25146422 82.9375 29.5625 C83.81212891 29.60568359 84.68675781 29.64886719 85.58789062 29.69335938 C87.72511995 29.79846901 89.86254238 29.89963985 92 30 C92 30.33 92 30.66 92 31 C90.02 31.33 88.04 31.66 86 32 C91.94 34.97 97.88 37.94 104 41 C104 41.33 104 41.66 104 42 C77.04036946 43.2992593 45.32793529 39.29516606 21 27 C19.54400391 26.27296875 19.54400391 26.27296875 18.05859375 25.53125 C9.77906049 21.20957618 2.98514733 16.77763054 -1 8 C-1.36440295 4.72037344 -1.46650366 2.93300732 0 0 Z " fill="#4F281B" transform="translate(44,218)"/>
<path d="M0 0 C-1.71051838 5.71063688 -4.31969581 10.73822517 -7.078125 15.99023438 C-9.27271603 20.26067923 -10.75529722 24.33909997 -12 29 C-12.77661163 31.0555859 -13.58821559 33.09835869 -14.4375 35.125 C-14.84871094 36.11757812 -15.25992188 37.11015625 -15.68359375 38.1328125 C-17 41 -17 41 -18.49609375 43.4609375 C-20.22715555 46.38350936 -21.4165032 49.32676913 -22.625 52.5 C-23.05039063 53.6034375 -23.47578125 54.706875 -23.9140625 55.84375 C-24.85352973 58.57428786 -25.52282477 61.15815641 -26 64 C-26.66 64 -27.32 64 -28 64 C-28.18175781 64.6290625 -28.36351563 65.258125 -28.55078125 65.90625 C-29.7722165 70.0653936 -31.01850798 74.15939933 -32.625 78.1875 C-34.02692005 81.79138872 -34.59991803 85.15921309 -35 89 C-40.42318648 86.18411471 -44.17848871 83.64302259 -47 78 C-47.52517137 72.83440316 -46.04036559 69.32490089 -43.640625 64.87890625 C-43.29497498 64.21592026 -42.94932495 63.55293427 -42.59320068 62.86985779 C-41.49017204 60.76119863 -40.37031974 58.66201393 -39.25 56.5625 C-38.51192551 55.15617326 -37.77493557 53.74927677 -37.0390625 52.34179688 C-33.7969693 46.16381018 -30.4856033 40.04458639 -27 34 C-26.34 34 -25.68 34 -25 34 C-24.7834375 32.824375 -24.7834375 32.824375 -24.5625 31.625 C-24 29 -24 29 -23 27 C-22.34 27 -21.68 27 -21 27 C-20.90847656 26.31679687 -20.81695312 25.63359375 -20.72265625 24.9296875 C-19.83439093 21.32861188 -18.26388564 18.3192374 -16.4375 15.125 C-16.0854248 14.50729736 -15.73334961 13.88959473 -15.37060547 13.25317383 C-12.22775741 7.97026227 -6.83179677 0 0 0 Z " fill="#989696" transform="translate(111,108)"/>
<path d="M0 0 C0.54092285 0.18828369 1.0818457 0.37656738 1.63916016 0.57055664 C10.93847138 3.74717261 20.38837889 5.98257296 30 8 C30.96631348 8.20334961 31.93262695 8.40669922 32.92822266 8.61621094 C70.21229189 16.09143667 109.24800116 13.14062403 145.82226562 3.56933594 C149.2077345 2.68425596 152.60434358 1.84503779 156 1 C143.42887329 14.94105719 112.93913617 16.31519126 95.4375 17.6875 C63.48424975 19.33670001 28.60421544 17.81644854 0 2 C0 1.34 0 0.68 0 0 Z " fill="#4F281B" transform="translate(83,207)"/>
<path d="M0 0 C0.66 0.33 1.32 0.66 2 1 C-4.27989914 17.22721123 -10.59744346 33.39539216 -17.73876953 49.26708984 C-24.30044927 63.97644774 -30.09209652 79.01919838 -36 94 C-37.32 93.67 -38.64 93.34 -40 93 C-40.42855287 86.32681962 -39.08056598 81.61763518 -36.5 75.5 C-36.16613281 74.67757812 -35.83226563 73.85515625 -35.48828125 73.0078125 C-34.67120431 71.00013772 -33.83732063 68.99931661 -33 67 C-32.34 67 -31.68 67 -31 67 C-30.9071875 65.3603125 -30.9071875 65.3603125 -30.8125 63.6875 C-30.22832017 59.04651583 -28.48789199 55.3373677 -26.46875 51.15234375 C-24.46716768 46.85639446 -22.76121572 42.45919116 -21.0559082 38.03881836 C-19.9069721 35.10040943 -18.76021087 32.6403163 -17 30 C-16.52393106 28.65716674 -16.08845234 27.29958508 -15.68359375 25.93359375 C-13.99069201 20.68697989 -11.6312887 15.92907592 -9.0625 11.0625 C-8.63259766 10.21365234 -8.20269531 9.36480469 -7.75976562 8.49023438 C-7.33501953 7.68005859 -6.91027344 6.86988281 -6.47265625 6.03515625 C-6.09375244 5.3069165 -5.71484863 4.57867676 -5.32446289 3.82836914 C-3.75951674 1.66802227 -2.50720089 0.87197533 0 0 Z " fill="#D5D5D5" transform="translate(116,105)"/>
<path d="M0 0 C22.11 0 44.22 0 67 0 C63.6138753 3.3861247 61.06189146 5.34683505 57 7.6875 C55.96875 8.28949219 54.9375 8.89148438 53.875 9.51171875 C44.753957 14.23334563 31.86984204 13.54501583 22 12 C14.15078267 9.44159999 6.98713676 5.3476452 0 1 C0 0.67 0 0.34 0 0 Z " fill="#7A5345" transform="translate(128,249)"/>
<path d="M0 0 C1.15750747 3.35226189 0.90631205 4.95717126 -0.625 8.125 C-1.00011719 8.91648438 -1.37523438 9.70796875 -1.76171875 10.5234375 C-2.56850034 12.13700069 -3.38323226 13.74662078 -4.20703125 15.3515625 C-8.37032485 23.46668083 -12.46076527 31.94863054 -14 41 C-14.66 41 -15.32 41 -16 41 C-16.18175781 41.6290625 -16.36351563 42.258125 -16.55078125 42.90625 C-17.7722165 47.0653936 -19.01850798 51.15939933 -20.625 55.1875 C-22.02692005 58.79138872 -22.59991803 62.15921309 -23 66 C-29.75 62.25 -29.75 62.25 -32 60 C-32.54012953 55.17871808 -31.52478341 52.47327908 -29.02734375 48.38671875 C-28.05873413 46.7788147 -28.05873413 46.7788147 -27.07055664 45.13842773 C-26.35974132 43.98799269 -25.64871769 42.83768634 -24.9375 41.6875 C-24.21543175 40.49825571 -23.49466382 39.30822102 -22.77514648 38.11743164 C-21.28209326 35.65040827 -19.78208396 33.18782956 -18.27636719 30.72851562 C-15.33989733 25.92760552 -12.44968105 21.09921627 -9.55883789 16.27075195 C-8.24538634 14.07770388 -6.92953301 11.88609218 -5.61108398 9.69604492 C-5.01884033 8.71224854 -4.42659668 7.72845215 -3.81640625 6.71484375 C-3.29506104 5.84980225 -2.77371582 4.98476074 -2.23657227 4.09350586 C-1.44579268 2.75472305 -0.69536634 1.39073268 0 0 Z " fill="#AFADAD" transform="translate(99,131)"/>
<path d="M0 0 C1.32 0 2.64 0 4 0 C4.165 0.598125 4.33 1.19625 4.5 1.8125 C6.85343675 5.24459526 10.06831279 6.00272897 14 7 C19.91552214 7.75288464 25.00884355 6.20248021 30 3 C30.33 2.01 30.66 1.02 31 0 C32.32 0.33 33.64 0.66 35 1 C34.70540991 4.53508103 34.25118587 5.76203444 31.625 8.25 C25.91375446 12.05749703 19.63444088 11.44647359 13 11 C8.56082514 10.00513083 5.0288066 8.47141158 2 5 C0.8125 2.3125 0.8125 2.3125 0 0 Z " fill="#9C9B9B" transform="translate(144,99)"/>
<path d="M0 0 C1.39456452 0.00667256 2.78911118 0.01863093 4.18359375 0.03515625 C4.89451172 0.03966797 5.60542969 0.04417969 6.33789062 0.04882812 C8.09899388 0.06064761 9.86005411 0.07858362 11.62109375 0.09765625 C11.62109375 2.40765625 11.62109375 4.71765625 11.62109375 7.09765625 C9.02592854 8.39523886 7.07926348 8.23034727 4.18359375 8.22265625 C3.21550781 8.22523437 2.24742187 8.2278125 1.25 8.23046875 C-1.37890625 8.09765625 -1.37890625 8.09765625 -4.37890625 7.09765625 C-4.42144981 5.09810879 -4.41971408 3.09723989 -4.37890625 1.09765625 C-3.37890625 0.09765625 -3.37890625 0.09765625 0 0 Z " fill="#959393" transform="translate(157.37890625,92.90234375)"/>
<path d="M0 0 C0.99 0 1.98 0 3 0 C3 4.29 3 8.58 3 13 C2.01 13 1.02 13 0 13 C0 8.71 0 4.42 0 0 Z " fill="#7E7371" transform="translate(160,75)"/>
</svg>
