<?xml version="1.0" encoding="UTF-8"?>
<svg version="1.1" xmlns="http://www.w3.org/2000/svg" width="960" height="960">
<path d="M0 0 C4.04382531 4.03605619 7.59754044 8.62034342 10.52490234 13.52197266 C10.52490234 14.51197266 10.52490234 15.50197266 10.52490234 16.52197266 C11.76240234 16.50134766 12.99990234 16.48072266 14.27490234 16.45947266 C24.01186155 17.56176993 32.216033 26.40271047 38.30224609 33.54931641 C46.77108666 44.87583253 52.60016147 56.97098781 56.52490234 70.52197266 C56.71777832 71.17536621 56.9106543 71.82875977 57.109375 72.50195312 C63.20927691 93.77981496 63.91737547 116.02388554 64.05883789 138.01098633 C64.15078417 146.67319579 64.95660354 154.44560994 66.84375 162.91967773 C67.98296535 168.94445283 68.01499969 174.90670893 67.96240234 181.02197266 C67.95337891 182.29443848 67.94435547 183.5669043 67.93505859 184.87792969 C67.78109283 193.2166725 67.21132722 200.57208711 64.29199219 208.4453125 C63.31993326 211.07686349 62.41892897 213.73016441 61.51318359 216.38525391 C59.81729291 221.33593841 58.07921682 226.26989096 56.30932617 231.19458008 C52.47540365 242.56986281 56.00247213 252.99729064 59.68115234 263.97119141 C63.54601544 275.85564542 65.10482005 288.20585084 59.52490234 299.70947266 C58.96802734 300.67240234 58.41115234 301.63533203 57.83740234 302.62744141 C55.67020282 307.40689035 56.11375865 311.13531089 57.58349609 316.09228516 C58.03853516 317.26533203 58.49357422 318.43837891 58.96240234 319.64697266 C63.56868352 331.64167634 64.45658424 343.58077312 59.39990234 355.64306641 C59.11115234 356.26310547 58.82240234 356.88314453 58.52490234 357.52197266 C59.30865234 357.64443359 60.09240234 357.76689453 60.89990234 357.89306641 C63.52490234 358.52197266 63.52490234 358.52197266 65.52490234 360.58447266 C67.3732391 362.76515575 67.3732391 362.76515575 70.08740234 362.83447266 C72.65911286 362.58447019 72.65911286 362.58447019 75.52490234 361.52197266 C75.52490234 362.84197266 75.52490234 364.16197266 75.52490234 365.52197266 C76.24419922 365.78880859 76.96349609 366.05564453 77.70458984 366.33056641 C87.0285223 370.26934674 94.91125208 376.99275922 102.52490234 383.52197266 C103.33185547 384.20517578 104.13880859 384.88837891 104.97021484 385.59228516 C109.95296875 389.89941141 114.32973242 394.45202515 118.52490234 399.52197266 C119.16169922 400.24771484 119.79849609 400.97345703 120.45458984 401.72119141 C132.06899945 415.39184862 138.52490234 430.50995788 138.52490234 448.52197266 C137.81112037 456.38472725 134.83202811 461.77437487 128.77490234 466.89697266 C122.28444082 471.77300006 114.8348897 475.06878845 107.52490234 478.52197266 C108.63905543 484.70619549 110.0912137 490.69110681 111.88500977 496.71191406 C122.17777896 531.38259176 126.56856864 567.49771341 128.52490234 603.52197266 C128.61167236 605.04709473 128.61167236 605.04709473 128.70019531 606.60302734 C129.4399481 620.11174744 129.64103304 633.62955696 129.70013428 647.15615845 C129.70805621 648.84528366 129.71895117 650.53439875 129.73345947 652.22348022 C129.85817033 668.43939078 128.6089264 684.26161174 127.52490234 700.52197266 C-25.26509766 700.52197266 -178.05509766 700.52197266 -335.47509766 700.52197266 C-337.77940104 672.87033201 -337.77940104 672.87033201 -337.74072266 663.44775391 C-337.74354248 662.36119003 -337.7463623 661.27462616 -337.74926758 660.15513611 C-337.75344354 656.71477092 -337.7411171 653.27479894 -337.72509766 649.83447266 C-337.72199585 648.64019653 -337.71889404 647.44592041 -337.71569824 646.2154541 C-337.55120956 591.88538538 -334.43520076 535.01596671 -316.01489258 483.37939453 C-315.33556301 481.36421525 -315.33556301 481.36421525 -315.47509766 478.52197266 C-316.53728516 478.01408203 -317.59947266 477.50619141 -318.69384766 476.98291016 C-341.24552065 466.05765233 -341.24552065 466.05765233 -345.78759766 455.45947266 C-348.84505413 437.94858555 -343.37005888 421.76543664 -333.33837891 407.47900391 C-331.13461317 404.73715533 -328.84467386 402.1216048 -326.47509766 399.52197266 C-325.5861245 398.51500008 -324.69813644 397.50715716 -323.81103516 396.49853516 C-314.7206224 386.25972391 -305.13037307 378.01387452 -293.63110352 370.59423828 C-292.87966064 370.10890625 -292.12821777 369.62357422 -291.35400391 369.12353516 C-290.34188843 368.47892334 -290.34188843 368.47892334 -289.30932617 367.82128906 C-286.32248393 365.70549319 -284.51339859 363.57942406 -282.47509766 360.52197266 C-281.81509766 361.18197266 -281.15509766 361.84197266 -280.47509766 362.52197266 C-277.90448455 363.16965058 -277.90448455 363.16965058 -275.47509766 363.52197266 C-275.47509766 362.86197266 -275.47509766 362.20197266 -275.47509766 361.52197266 C-270.18098001 357.52197266 -270.18098001 357.52197266 -266.47509766 357.52197266 C-266.90822266 356.75240234 -266.90822266 356.75240234 -267.35009766 355.96728516 C-272.54740874 345.24783106 -272.01112741 333.26917581 -268.27148438 322.18212891 C-267.71229991 320.65367018 -267.13030288 319.13330385 -266.52246094 317.62353516 C-264.63617489 312.83535567 -264.16086869 309.67545382 -265.47509766 304.52197266 C-266.27596029 302.74694597 -267.13180503 300.99581732 -268.03759766 299.27197266 C-273.7913036 285.83547568 -270.65054705 271.69389839 -266.11230469 258.40869141 C-265.1829711 255.65700942 -264.36814416 252.88516315 -263.60009766 250.08447266 C-263.35517578 249.24013672 -263.11025391 248.39580078 -262.85791016 247.52587891 C-261.82866891 239.44948588 -263.94543992 232.25343705 -266.78759766 224.77197266 C-267.42606318 223.02308269 -268.06146976 221.27307303 -268.69384766 219.52197266 C-269.00064453 218.67376953 -269.30744141 217.82556641 -269.62353516 216.95166016 C-271.51553863 211.55337501 -272.99386031 206.04497823 -274.47509766 200.52197266 C-274.70068359 199.79236328 -274.92626953 199.06275391 -275.15869141 198.31103516 C-276.9103269 192.39171522 -276.69951566 186.62333721 -276.47509766 180.52197266 C-276.43384766 179.25611328 -276.39259766 177.99025391 -276.35009766 176.68603516 C-276.28999925 175.33957165 -276.22752198 173.99321209 -276.16259766 172.64697266 C-276.10458984 171.43267578 -276.04658203 170.21837891 -275.98681641 168.96728516 C-275.67740064 165.26834036 -274.83680089 161.8051688 -273.95947266 158.20166016 C-272.17260551 150.14601489 -272.08055597 142.30870607 -272.05142212 134.08435059 C-271.8827249 102.81615275 -269.13440823 72.1979828 -253.47509766 44.52197266 C-252.90919922 43.50490234 -252.34330078 42.48783203 -251.76025391 41.43994141 C-245.98252554 31.7197631 -237.72413584 22.62792465 -227.47509766 17.52197266 C-226.10810313 17.24908382 -224.73195183 17.01783408 -223.35009766 16.83447266 C-220.3497181 16.26410347 -219.59314359 15.67290828 -217.66650391 13.20947266 C-216.53160507 11.3491485 -215.44183763 9.46020404 -214.40869141 7.54150391 C-205.80313401 -5.89707361 -189.12060048 -16.57947708 -173.92822266 -20.36083984 C-170.1204041 -21.17454381 -166.32317383 -21.89276711 -162.47509766 -22.47802734 C-160.8671936 -22.72637329 -160.8671936 -22.72637329 -159.22680664 -22.97973633 C-149.88075903 -24.33244566 -140.60268528 -24.94980641 -131.16259766 -25.16552734 C-130.39595795 -25.18449066 -129.62931824 -25.20345398 -128.83944702 -25.22299194 C-29.7014871 -27.55439165 -29.7014871 -27.55439165 0 0 Z " fill="#361C17" transform="translate(582.47509765625,259.47802734375)"/>
<path d="M0 0 C3.53035801 1.46251438 7.06246455 2.9206447 10.59619141 4.375 C11.72702148 4.84059326 12.85785156 5.30618652 14.02294922 5.78588867 C21.54834574 8.84840845 29.07814043 11.51551785 36.88525391 13.7578125 C39.53369141 14.5625 39.53369141 14.5625 40.53369141 15.5625 C43.04269716 44.56193865 29.36129983 73.61531951 18.62744141 99.734375 C14.89810953 109.3773617 16.30439411 119.6462774 18.34619141 129.5625 C18.55775879 130.60575439 18.76932617 131.64900879 18.98730469 132.72387695 C22.89783826 150.88104671 28.95164307 168.58365131 34.69775391 186.2265625 C40.32609472 203.51753047 43.53369141 219.20358589 43.53369141 237.5625 C-49.19630859 237.5625 -141.92630859 237.5625 -237.46630859 237.5625 C-237.46630859 208.69169078 -228.51832056 182.7872272 -219.59130859 155.625 C-211.21229856 130.1071058 -207.83349477 110.8738458 -218.21630859 85.75 C-227.70660879 62.37590291 -233.66742362 40.76303757 -235.46630859 15.5625 C-234.67385742 15.29211914 -233.88140625 15.02173828 -233.06494141 14.74316406 C-218.47059536 9.73567058 -204.04355294 4.57191388 -189.90380859 -1.625 C-121.82043403 -31.39660009 -68.21328213 -28.28847761 0 0 Z " fill="#FEE49C" transform="translate(575.46630859375,722.4375)"/>
<path d="M0 0 C0.94875 0.04125 1.8975 0.0825 2.875 0.125 C3.875 2.125 3.875 2.125 3.16015625 5.06640625 C0.02363009 14.35573451 -3.69395456 21.50430304 -12.125 27.125 C-12.84882467 29.18425139 -12.84882467 29.18425139 -13.125 31.125 C-4.01906254 27.20002696 0.00158785 22.78128394 3.75 13.5625 C5.42248973 9.1814184 5.99855116 5.79935232 5.875 1.125 C6.875 0.125 6.875 0.125 9.37890625 0.02734375 C10.89291016 0.04474609 10.89291016 0.04474609 12.4375 0.0625 C13.44941406 0.07152344 14.46132813 0.08054687 15.50390625 0.08984375 C16.28636719 0.10144531 17.06882812 0.11304688 17.875 0.125 C18.875 2.125 18.875 2.125 19.0625 6 C19.88452253 13.82818383 23.61936902 21.54021015 29.5 26.8125 C31.88536031 28.71070926 33.88695399 29.53130527 36.875 30.125 C36.875 29.135 36.875 28.145 36.875 27.125 C35.17082239 25.95546635 33.46564011 24.7873524 31.75390625 23.62890625 C26.17844231 19.16621681 23.51633207 11.89049075 21.875 5.125 C21.875 4.135 21.875 3.145 21.875 2.125 C23.855 2.125 25.835 2.125 27.875 2.125 C28.08125 2.785 28.2875 3.445 28.5 4.125 C34.64801954 17.53886082 47.49988558 21.93487695 60.51806641 26.91113281 C71.80424415 31.33043719 84.83594762 39.34189374 90.875 50.125 C91.98147189 53.63699644 92.61115075 57.23490535 93.296875 60.84765625 C94.30448281 65.70328353 95.58709879 69.25521937 98.875 73.125 C101.89026977 74.99820391 101.89026977 74.99820391 105.25 76.4375 C113.84667332 80.8465441 116.88255494 85.99046643 120.125 94.875 C123.41419815 105.91737367 124.20011144 116.83922701 124.125 128.3125 C124.13273438 129.50552734 124.14046875 130.69855469 124.1484375 131.92773438 C124.1068278 150.84974335 124.1068278 150.84974335 117.03125 158.0703125 C116.3196875 158.74835938 115.608125 159.42640625 114.875 160.125 C114.1015625 160.90617188 113.328125 161.68734375 112.53125 162.4921875 C83.44644011 190.61334405 42.57823107 199.77490928 3.41796875 199.3359375 C-30.47767322 198.65474484 -63.76375901 185.56482926 -89.125 163.125 C-90.17494141 162.28582031 -90.17494141 162.28582031 -91.24609375 161.4296875 C-98.50161753 155.18480841 -99.03221383 146.57380907 -99.78100586 137.515625 C-100.91093142 120.25473404 -100.58662133 97.36723972 -89.82421875 82.91796875 C-86.50966493 79.420543 -82.55785403 77.22545933 -78.19921875 75.25390625 C-73.4580865 72.96963482 -71.7938535 70.53914202 -69.953125 65.828125 C-69.00236014 62.72468498 -68.30602196 59.61077256 -67.625 56.4375 C-65.37435281 46.18455168 -59.61711267 40.91139628 -51.20703125 35.11328125 C-44.60407055 30.89092514 -37.91308117 27.60755707 -30.68359375 24.609375 C-15.79217488 18.65249096 -15.79217488 18.65249096 -5.125 7.125 C-5.0807678 5.45892038 -5.07518837 3.79092214 -5.125 2.125 C-3.125 0.125 -3.125 0.125 0 0 Z " fill="#A36462" transform="translate(466.125,333.875)"/>
<path d="M0 0 C0.60247559 0.12117187 1.20495117 0.24234375 1.82568359 0.3671875 C22.89096616 4.52507208 41.10815062 5.30736519 62 0 C77.84963235 37.55206631 82.7457879 80.6230043 85 121 C85.04236786 121.75140259 85.08473572 122.50280518 85.12838745 123.27697754 C85.9007625 137.33561424 86.18634439 151.36927835 86.18530273 165.44824219 C86.18748926 168.73385597 86.20574659 172.01913249 86.22460938 175.3046875 C86.22754568 177.48958223 86.22952889 179.6744785 86.23046875 181.859375 C86.23765427 182.79360291 86.24483978 183.72783081 86.25224304 184.69036865 C86.21350034 196.88132164 84.94161077 208.75905999 84 221 C56.94 221 29.88 221 2 221 C1.505 211.595 1.505 211.595 1 202 C-2.37225769 181.06390018 -9.02832821 160.98375991 -15.64208984 140.88208008 C-21.51113047 122.98236315 -21.51113047 122.98236315 -23.5625 113.8125 C-23.79706909 112.82793823 -23.79706909 112.82793823 -24.03637695 111.82348633 C-26.81101901 98.18107808 -25.38551667 86.45132194 -19.84295654 73.87030029 C-18.28240465 70.32368709 -16.82473451 66.7343142 -15.34765625 63.15234375 C-15.05435425 62.44934143 -14.76105225 61.74633911 -14.4588623 61.02203369 C-6.22714228 41.20861016 -2.07172276 21.27781143 0 0 Z " fill="#A36462" transform="translate(621,739)"/>
<path d="M0 0 C0.8206897 0.18175781 0.8206897 0.18175781 1.65795898 0.3671875 C20.39180322 4.43593513 36.16914111 4.79297071 54.99755859 1.36376953 C57.66026229 0.88005477 60.32955955 0.43868479 63 0 C63.09704224 0.98673706 63.09704224 0.98673706 63.19604492 1.9934082 C65.79233003 27.61974509 72.12729766 50.85423515 82.359375 74.546875 C93.06516762 99.34692711 84.84648755 122.70051597 76.55331421 147.41290283 C69.72038788 167.82981125 69.72038788 167.82981125 64.1875 188.625 C63.97617432 189.50720215 63.76484863 190.3894043 63.54711914 191.29833984 C61.41515301 201.13973801 60.96469487 210.87070384 60 221 C33.27 221 6.54 221 -21 221 C-23.3044966 196.80278573 -23.3044966 196.80278573 -23.265625 185.36328125 C-23.26844482 184.08624832 -23.27126465 182.80921539 -23.27416992 181.4934845 C-23.27984948 178.123705 -23.27157584 174.75412832 -23.25794983 171.38437653 C-23.24989182 169.28430689 -23.24493306 167.18424787 -23.24060059 165.08416748 C-23.19135402 144.33813243 -22.96870326 123.66732228 -21 103 C-20.9391925 102.34902344 -20.87838501 101.69804688 -20.81573486 101.02734375 C-17.57173016 66.59114628 -10.94558542 32.83675626 0 0 Z " fill="#A36462" transform="translate(273,739)"/>
<path d="M0 0 C3.91788233 0.01071724 7.83530533 0.00004333 11.75317383 -0.01269531 C74.57255289 -0.04982407 74.57255289 -0.04982407 98.98950195 20.26074219 C99.92665039 21.02 100.86379883 21.77925781 101.8293457 22.56152344 C107.54339535 27.39913239 111.81314302 32.43027927 114.98950195 39.26074219 C114.98950195 39.92074219 114.98950195 40.58074219 114.98950195 41.26074219 C116.30950195 41.26074219 117.62950195 41.26074219 118.98950195 41.26074219 C119.31950195 40.60074219 119.64950195 39.94074219 119.98950195 39.26074219 C120.37750977 39.69 120.76551758 40.11925781 121.1652832 40.56152344 C123.33334498 42.58102423 125.62969126 43.93566419 128.17700195 45.44824219 C138.63679379 52.07323518 144.82071557 60.74434514 150.98950195 71.26074219 C151.54766602 72.20691406 152.10583008 73.15308594 152.6809082 74.12792969 C166.47807781 99.56083242 167.47432907 129.92414569 167.57470703 158.19140625 C167.63787348 167.12987466 168.26978458 175.35635541 170.34863281 184.06591797 C170.98186089 187.22265038 171.10388985 190.05120595 170.98950195 193.26074219 C168.35794592 190.83161354 166.35408079 188.33619717 164.36450195 185.38574219 C160.40636917 179.95599593 154.89012464 177.21105353 148.98950195 174.26074219 C148.64233398 172.3815918 148.64233398 172.3815918 148.49731445 169.91308594 C148.43455322 169.00574707 148.37179199 168.0984082 148.30712891 167.16357422 C148.24356201 166.18501465 148.17999512 165.20645508 148.11450195 164.19824219 C146.8422141 148.24382972 142.98619249 134.62838317 135.98950195 120.26074219 C135.50481445 119.26171875 135.02012695 118.26269531 134.52075195 117.23339844 C118.34332835 85.91210884 88.02849718 64.80963183 55.36450195 53.44824219 C12.88306146 40.27218043 -33.09467139 42.91716307 -72.88549805 63.51074219 C-102.03406481 79.29409517 -125.02000784 104.86412841 -136.01049805 136.26074219 C-137.61875682 141.86562517 -138.8684955 147.54487301 -140.01049805 153.26074219 C-140.20901367 154.24816406 -140.4075293 155.23558594 -140.61206055 156.25292969 C-141.01320964 159.28121207 -141.04553827 162.22315382 -141.04589844 165.27416992 C-141.16283226 174.38552727 -141.16283226 174.38552727 -143.57299805 176.87402344 C-145.57299805 177.69824219 -145.57299805 177.69824219 -147.7487793 178.35449219 C-152.26648488 180.16469546 -155.02880194 184.55341207 -158.01049805 188.26074219 C-158.83549805 189.27136719 -159.66049805 190.28199219 -160.51049805 191.32324219 C-161.00549805 191.96261719 -161.50049805 192.60199219 -162.01049805 193.26074219 C-162.16164428 188.25567717 -161.62647664 183.90493392 -160.5378418 179.02636719 C-158.79822305 170.52178659 -158.61746255 162.21232293 -158.58654785 153.55715942 C-158.42888623 123.92778322 -155.67658489 95.47492892 -141.01049805 69.26074219 C-140.44331055 68.23980469 -139.87612305 67.21886719 -139.29174805 66.16699219 C-133.1718351 55.89015724 -124.91103456 47.41753446 -114.01049805 42.26074219 C-113.35049805 42.26074219 -112.69049805 42.26074219 -112.01049805 42.26074219 C-112.01049805 41.60074219 -112.01049805 40.94074219 -112.01049805 40.26074219 C-109.04049805 40.75574219 -109.04049805 40.75574219 -106.01049805 41.26074219 C-105.90479492 40.69613281 -105.7990918 40.13152344 -105.69018555 39.54980469 C-101.99292499 27.09811109 -87.77846557 16.49818708 -77.01049805 10.26074219 C-54.00045585 -1.04405766 -24.95465229 -0.08100642 0 0 Z " fill="#623439" transform="translate(474.010498046875,238.7392578125)"/>
<path d="M0 0 C1.66926835 1.43080145 3.33795319 2.86221119 5.00390625 4.296875 C6.25135089 5.3612309 7.5078292 6.41519223 8.77734375 7.453125 C23.50654702 19.61056262 36.09628402 37.98553845 38.25 57.234375 C38.62462185 64.02439596 36.74241655 69.41077493 32.62109375 74.8046875 C18.75562666 88.76666596 -5.35619965 94.19523659 -24.1875 94.3125 C-53.5888163 94.27249821 -80.8208516 82.80022739 -107.49316406 71.4569397 C-136.89511536 58.96759796 -167.231932 48.52441739 -199.5 48.625 C-200.19520752 48.62587616 -200.89041504 48.62675232 -201.60668945 48.62765503 C-214.08078241 48.6791258 -225.89513093 49.90660748 -238 53 C-239.39677979 53.35408936 -239.39677979 53.35408936 -240.82177734 53.71533203 C-262.31490307 59.31141026 -282.99214274 67.29299729 -303.3125 76.1875 C-320.74036868 83.79669857 -338.33355079 89.38337547 -357 93 C-357.92167969 93.19207031 -358.84335937 93.38414062 -359.79296875 93.58203125 C-381.1295267 96.36280068 -400.15739511 92.96525755 -419 83 C-419.97195313 82.49210938 -420.94390625 81.98421875 -421.9453125 81.4609375 C-429.07874573 77.47899119 -434.37124815 72.90983179 -437 65 C-439.10677208 50.31912511 -432.34901414 36.59506548 -424 25 C-407.87381818 4.01462464 -407.87381818 4.01462464 -399 1 C-399.76183594 2.28970703 -399.76183594 2.28970703 -400.5390625 3.60546875 C-413.11029898 24.79499836 -413.11029898 24.79499836 -413.31640625 48.89453125 C-409.86747341 58.21094319 -403.71890111 64.39234715 -395 69 C-386.578732 72.64217326 -378.12842154 75.06276403 -369 76 C-367.82630859 76.12568359 -367.82630859 76.12568359 -366.62890625 76.25390625 C-353.41482998 76.9446927 -339.83988547 71.5464404 -327.81591797 66.59942627 C-325.68017699 65.72129145 -323.53839271 64.85957008 -321.39453125 64.00146484 C-317.87955839 62.59308837 -314.36861069 61.17505183 -310.85913086 59.75305176 C-295.14428289 53.38766127 -279.40676341 48.31251827 -263 44 C-263 43.01 -263 42.02 -263 41 C-269.58005809 42.21909788 -275.98658219 43.71545367 -282.390625 45.65625 C-283.24795227 45.91515015 -284.10527954 46.17405029 -284.98858643 46.4407959 C-294.41521119 49.34907632 -303.57626818 52.88555331 -312.75 56.5 C-314.40205606 57.1452683 -316.05439992 57.78980023 -317.70703125 58.43359375 C-320.139402 59.38119867 -322.57167933 60.32901949 -325.00306702 61.27914429 C-330.29616219 63.34560532 -335.59973605 65.38191156 -340.91796875 67.3828125 C-341.56872375 67.62858032 -342.21947876 67.87434814 -342.88995361 68.12756348 C-359.03083197 74.17042754 -375.32894003 73.27440674 -391.171875 66.6796875 C-400.0428114 62.1952086 -406.64841543 56.5161062 -410 47 C-411.80522896 32.51303759 -407.43891815 20.80458639 -399 9 C-398.34 8.67 -397.68 8.34 -397 8 C-397.03480469 8.82242188 -397.06960938 9.64484375 -397.10546875 10.4921875 C-397.32485911 19.53942793 -397.00717584 27.62089967 -391.1875 34.9375 C-383.59835812 42.80361786 -372.98258501 43.03630191 -362.62451172 43.33886719 C-346.26276348 43.5491067 -330.15754712 41.29591931 -314 39 C-313.14243103 38.87884827 -312.28486206 38.75769653 -311.40130615 38.63287354 C-287.18658357 35.20193616 -263.09354905 31.29389176 -239.09423828 26.57714844 C-226.17650863 24.05916495 -213.61528743 22.82148281 -200.4375 22.8125 C-199.51904297 22.80025391 -198.60058594 22.78800781 -197.65429688 22.77539062 C-179.10309296 22.73801412 -161.03878003 26.0878175 -142.87200928 29.51055908 C-136.15016813 30.77657358 -129.42180109 32.00692525 -122.69140625 33.2265625 C-122.02140594 33.34800503 -121.35140564 33.46944756 -120.66110229 33.59457016 C-107.93835733 35.89268817 -95.184835 37.8794241 -82.375 39.625 C-81.49979706 39.7449231 -80.62459412 39.86484619 -79.72286987 39.98840332 C-44.04048694 46.25708587 -44.04048694 46.25708587 -10.68359375 37.54296875 C-5.63068371 32.91211152 -2.7961176 26.78430646 -2 20 C-1.85690203 15.99325682 -1.87979074 12.00697532 -2 8 C1.56506999 11.15673598 3.5919381 14.63795507 5.625 18.875 C6.07359375 19.77412109 6.07359375 19.77412109 6.53125 20.69140625 C10.97463662 29.75512852 12.79930683 38.65193259 10.34765625 48.6640625 C6.47685311 58.33276391 -1.0254145 63.29239645 -10.2578125 67.48828125 C-23.05943086 72.89363022 -37.36314384 74.03446478 -50.66015625 69.9921875 C-51.38536469 69.77493011 -52.11057312 69.55767273 -52.85775757 69.33383179 C-61.54568342 66.64216216 -69.93397176 63.18945586 -78.34887695 59.75540161 C-97.54193471 51.94023526 -116.47549615 44.44090115 -137 41 C-137.33 41.99 -137.66 42.98 -138 44 C-137.01644531 44.20753906 -136.03289062 44.41507813 -135.01953125 44.62890625 C-126.95872356 46.39172287 -119.07490215 48.48603804 -111.25 51.109375 C-110.34876907 51.4107991 -109.44753815 51.71222321 -108.51899719 52.02278137 C-97.31088293 55.83452062 -86.37569402 60.33189632 -75.42504883 64.81958008 C-52.69503055 74.10990433 -32.57468181 80.00704593 -8.6875 70.8125 C2.15803956 65.87733622 9.90155962 59.81987334 14.3125 48.6875 C17.1566514 33.43250611 11.6605945 21.3862397 4.0234375 8.53125 C2.39373151 5.77033633 1.08302862 3.02782196 0 0 Z " fill="#FDC87F" transform="translate(678,645)"/>
<path d="M0 0 C9.405 2.475 9.405 2.475 19 5 C22.64569749 5.70787897 26.14839858 6.35412062 29.8125 6.8125 C30.71935547 6.92867676 31.62621094 7.04485352 32.56054688 7.16455078 C55.62269255 9.86255163 78.07469926 7.3707595 100.32421875 0.98828125 C104 0 104 0 107 0 C107.33 17.49 107.66 34.98 108 53 C112.29 53.99 116.58 54.98 121 56 C123.31 56.99 125.62 57.98 128 59 C127.67 87.05 127.34 115.1 127 144 C120.50428931 143.40948085 114.5812769 142.86463073 108.26953125 141.66015625 C107.59057297 141.53313828 106.91161469 141.4061203 106.21208191 141.2752533 C104.07794409 140.87582261 101.94510649 140.47002149 99.8125 140.0625 C62.69233699 132.97338616 29.18491629 135.22287434 -7.63452148 142.83105469 C-8.39708252 142.98606445 -9.15964355 143.14107422 -9.9453125 143.30078125 C-10.59000488 143.43653564 -11.23469727 143.57229004 -11.89892578 143.7121582 C-14.57598276 144.07890817 -17.2979379 144 -20 144 C-20.33 115.95 -20.66 87.9 -21 59 C-14.40758706 56.46445656 -7.79144239 53.94041211 -1 52 C-0.67 34.84 -0.34 17.68 0 0 Z " fill="#A36462" transform="translate(425,529)"/>
<path d="M0 0 C0.99257813 0.57492187 1.98515625 1.14984375 3.0078125 1.7421875 C14.60794431 8.81048939 25.11840324 17.7257439 35 27 C35.79664063 27.69738281 36.59328125 28.39476562 37.4140625 29.11328125 C45.78713262 36.80853141 51.31800742 46.24119739 57 56 C57.42732422 56.73202637 57.85464844 57.46405273 58.29492188 58.21826172 C62.88162685 66.18995497 66.76081483 74.35193365 70.0625 82.9375 C70.36196533 83.69417969 70.66143066 84.45085937 70.9699707 85.23046875 C74.03393849 93.62862183 73.52533722 101.62431057 71.375 110.1875 C71.19606201 110.91380615 71.01712402 111.6401123 70.83276367 112.38842773 C68.06967166 123.10167314 63.77092081 132.95699691 58.4375 142.625 C58.07374268 143.28830322 57.70998535 143.95160645 57.33520508 144.63500977 C54.99653726 148.72361553 52.47267839 151.8141685 49 155 C49.01571045 154.25129639 49.0314209 153.50259277 49.04760742 152.73120117 C50.35162619 119.51702048 50.35162619 119.51702048 37.703125 89.67578125 C34.81951037 86.83846319 31.52342365 84.94104776 28 83 C22.2002777 79.49828088 19.7695802 76.82959716 17.97265625 70.22265625 C17.50444678 68.14238381 17.06161045 66.05822777 16.62695312 63.97070312 C14.13320824 52.96274975 5.96880566 46.50370832 -3.0625 40.4375 C-8.76584887 36.92468317 -14.77734 34.36466932 -20.921875 31.74609375 C-42.15487528 22.69024943 -42.15487528 22.69024943 -47 13 C-47.66 13 -48.32 13 -49 13 C-49.66 13.99 -50.32 14.98 -51 16 C-51 14.68 -51 13.36 -51 12 C-52.98 12 -54.96 12 -57 12 C-56.09500643 14.5671651 -55.17662391 17.12814695 -54.25 19.6875 C-53.99734375 20.40873047 -53.7446875 21.12996094 -53.484375 21.87304688 C-50.88444874 28.990345 -47.54169733 32.98577664 -41 37 C-41.33 38.32 -41.66 39.64 -42 41 C-47.95385424 39.69305639 -51.37149959 36.71958794 -55 32 C-59.08016955 25.1402805 -60.65533207 18.92736243 -61 11 C-64.63 11 -68.26 11 -72 11 C-72.0825 12.27875 -72.165 13.5575 -72.25 14.875 C-73.34278683 24.28182716 -77.09959087 31.53377391 -84 38 C-87.08879671 40.24639761 -88.19327059 41 -92 41 C-91.66192514 38.03806053 -91.41526802 36.42287019 -89.29296875 34.26171875 C-88.59816406 33.74222656 -87.90335937 33.22273438 -87.1875 32.6875 C-80.22316251 26.91704893 -78.30196363 19.51028979 -76 11 C-80.73102709 10.66992834 -83.27931694 11.00530388 -87 14 C-87.99002582 15.40909925 -88.96774019 16.82687748 -89.9375 18.25 C-96.29337543 26.76134622 -107.6151088 29.87419125 -117.12890625 33.765625 C-126.07474813 37.61172845 -133.71642451 42.55061179 -141 49 C-141.99193359 49.78503906 -141.99193359 49.78503906 -143.00390625 50.5859375 C-148.66665998 55.79616015 -149.71165164 62.55175564 -151.05200195 69.85449219 C-151.89767445 74.06880696 -152.52788198 77.09499773 -155.87109375 79.96484375 C-158.38514876 81.60007803 -160.80385684 83.07577159 -163.5 84.375 C-172.76602707 89.44333024 -176.06524644 97.10301193 -179 107 C-183.40030093 123.5979351 -182.29533167 140.97980881 -182 158 C-196.84801217 143.49656196 -206.20769962 120.12388641 -208.01586914 99.5703125 C-207.98872549 95.17387551 -206.6302221 91.44086111 -205.0625 87.375 C-204.7425708 86.50963623 -204.4226416 85.64427246 -204.09301758 84.75268555 C-197.46430078 67.27697763 -188.23492172 49.20829619 -176 35 C-175.39929688 34.2678125 -174.79859375 33.535625 -174.1796875 32.78125 C-169.04593555 26.71219911 -163.2324242 21.90036463 -157 17 C-155.97157043 16.13956486 -154.94558584 15.27620021 -153.921875 14.41015625 C-109.53916897 -22.60334576 -50.00109806 -29.1785748 0 0 Z " fill="#623439" transform="translate(545,324)"/>
<path d="M0 0 C4.44223311 0.06013676 8.19495916 1.33347209 12.3046875 2.91796875 C19.81903432 5.59732998 27.35151943 7.45764452 35.1796875 8.98046875 C36.16437012 9.17858154 37.14905273 9.37669434 38.16357422 9.58081055 C58.63164291 13.40001578 79.29412837 13.56973133 100.04291916 13.48841858 C102.20757797 13.48036498 104.37222653 13.47540391 106.53689575 13.47106934 C141.09138795 13.39142614 175.6297129 13.00971645 209.20458984 3.80541992 C210.3311499 3.49761597 210.3311499 3.49761597 211.48046875 3.18359375 C212.12669189 2.99958008 212.77291504 2.81556641 213.4387207 2.62597656 C215.8018877 2.15653076 218.02654358 2.16693347 220.4296875 2.23046875 C220.56431396 3.15605591 220.56431396 3.15605591 220.70166016 4.1003418 C222.55774984 16.60641057 224.80620283 28.72271382 228.58642578 40.8034668 C228.84020996 41.62242432 229.09399414 42.44138184 229.35546875 43.28515625 C229.58661377 44.00171387 229.81775879 44.71827148 230.0559082 45.45654297 C230.4296875 47.23046875 230.4296875 47.23046875 229.4296875 49.23046875 C227.453125 49.94140625 227.453125 49.94140625 224.8046875 50.60546875 C221.55387924 51.43067392 218.3201703 52.26260408 215.1015625 53.20703125 C179.82192387 63.38683887 139.53187404 63.46996404 102.9921875 63.41796875 C101.79286087 63.41706238 101.79286087 63.41706238 100.56930542 63.4161377 C88.09782963 63.39070564 75.78632169 63.06625453 63.4296875 61.23046875 C62.54893555 61.1015625 61.66818359 60.97265625 60.76074219 60.83984375 C44.65861113 58.3930901 29.43873706 54.19586163 14.1640625 48.5859375 C13.5354129 48.3563031 12.90676331 48.1266687 12.25906372 47.89007568 C9.12933358 46.7454149 6.00889583 45.58428156 2.89599609 44.39404297 C1.75469238 43.97010254 0.61338867 43.54616211 -0.5625 43.109375 C-1.57683105 42.72338135 -2.59116211 42.3373877 -3.63623047 41.93969727 C-6.96782424 41.13438191 -9.25992116 41.45167994 -12.5703125 42.23046875 C-12.32796875 41.28171875 -12.085625 40.33296875 -11.8359375 39.35546875 C-9.33950619 29.30441165 -7.47335889 19.22515314 -5.87792969 8.9921875 C-5.72098633 7.99832031 -5.56404297 7.00445313 -5.40234375 5.98046875 C-5.26546143 5.0884375 -5.1285791 4.19640625 -4.98754883 3.27734375 C-4.27202804 -0.23285302 -3.82462889 0.24688523 0 0 Z " fill="#F3D78C" transform="translate(370.5703125,831.76953125)"/>
<path d="M0 0 C6.3742798 1.27485596 10.04035431 5.11145134 14 10 C20.45979841 20.11523509 22.58646515 28.84347277 20.50390625 40.86328125 C19.04122082 46.30909876 17.10262214 50.10250896 13 54 C12.01 54 11.02 54 10 54 C9.65001953 55.12535156 9.65001953 55.12535156 9.29296875 56.2734375 C6.59643785 61.95977759 -0.20365233 65.35472483 -5.8125 67.875 C-11.10254518 69.74207477 -15.69955119 70.11495747 -21.3125 70.0625 C-22.56675781 70.05347656 -23.82101562 70.04445313 -25.11328125 70.03515625 C-26.06589844 70.02355469 -27.01851562 70.01195312 -28 70 C-28 70.99 -28 71.98 -28 73 C-19.19877771 75.93374076 -9.18338166 73.37344318 -1.03125 69.640625 C4.27686171 66.81157645 9.20392499 63.62370112 14 60 C13.80664062 60.6290625 13.61328125 61.258125 13.4140625 61.90625 C12.5945927 64.59995272 11.79551384 67.29913351 11 70 C10.68095703 71.03640625 10.68095703 71.03640625 10.35546875 72.09375 C6.4672794 85.74437161 11.28925803 99.28917206 15.8125 112.25 C19.13254236 123.36828138 17.15640978 132.5788258 12.359375 142.8125 C8.98014063 150.73622197 11.08986665 156.58854202 14 164.25 C17.26030837 172.84372186 19.15678853 181.13738926 15.86328125 190.08984375 C14.68669787 192.49357999 13.40288891 194.72556158 12 197 C11.12432373 196.73521851 11.12432373 196.73521851 10.23095703 196.46508789 C7.53170619 195.65477972 4.82847281 194.85860352 2.125 194.0625 C1.2071875 193.78470703 0.289375 193.50691406 -0.65625 193.22070312 C-8.17354695 191.02374662 -15.67916116 189.04209561 -23.4375 190.9375 C-28.05014242 191.64840905 -30.38817269 189.74071812 -34.0625 187.0625 C-35.72700584 185.73135198 -37.37942979 184.38430016 -39 183 C-38.67 182.34 -38.34 181.68 -38 181 C-37.24713862 177.71365927 -37.24713862 177.71365927 -38 174 C-40.27831834 171.13192623 -43.02434984 169.10895594 -46 167 C-47.22589844 166.12214844 -47.22589844 166.12214844 -48.4765625 165.2265625 C-53.85943887 161.67686384 -57.54956717 159.9067063 -64 161 C-65.678298 162.31866272 -67.34614767 163.65080468 -69 165 C-73.05359951 164.83110002 -76.28905882 163.53868293 -80 162 C-82.31 161.34 -84.62 160.68 -87 160 C-87.33 143.17 -87.66 126.34 -88 109 C-81.4 106.03 -74.8 103.06 -68 100 C-58.94757894 94.76971228 -50.89260509 89.55413332 -43.24633789 82.49072266 C-39.46586305 79.06460874 -39.46586305 79.06460874 -36.32421875 78.62890625 C-35.55722656 78.42136719 -34.79023437 78.21382813 -34 78 C-32.54461613 75.0922622 -32.54461613 75.0922622 -31.79589844 72.93847656 C-30.45995959 69.68468685 -28.30257722 67.10841526 -26.125 64.375 C-25.70347656 63.8284375 -25.28195312 63.281875 -24.84765625 62.71875 C-20.89914335 57.67141547 -16.98231458 53.28475478 -11.25 50.25 C-4.35130498 46.26958703 1.54281006 40.6229092 6 34 C6 33.34 6 32.68 6 32 C1.78297058 32.47920789 0.15806169 34.7344819 -2.5 37.875 C-5.15446725 40.99308995 -7.61614151 43.67744258 -11 46 C-11.66 45.67 -12.32 45.34 -13 45 C-12.77860352 44.49364014 -12.55720703 43.98728027 -12.32910156 43.46557617 C-7.27235452 31.75902259 -3.52735178 20.43570056 -1.32861328 7.86767578 C-1.0439529 6.24980662 -0.72613558 4.63783778 -0.40234375 3.02734375 C0.03244369 1.18100202 0.03244369 1.18100202 0 0 Z " fill="#623439" transform="translate(623,418)"/>
<path d="M0 0 C3.04087146 1.44198573 5.89193769 3.13075604 8.77124023 4.86914062 C17.28861447 9.94915012 25.80211404 13.96206471 36 13 C37.42073348 12.61902119 38.83742222 12.22268592 40.25 11.8125 C44 11 44 11 45.9375 12.0625 C47.19764659 14.36041436 47.65033821 16.41250276 48 19 C48.69609375 19.06316406 49.3921875 19.12632812 50.109375 19.19140625 C53.89590887 20.25061235 56.31827292 22.44000917 59.25 24.9375 C70.11871118 33.79865186 82.03559909 40.63381234 95.08740234 45.75683594 C96.75716373 46.42951489 98.38403354 47.20674563 100 48 C100.96813254 50.90439761 101.12144834 52.7281824 101.11352539 55.74682617 C101.11341209 57.18798042 101.11341209 57.18798042 101.11329651 58.6582489 C101.10813522 59.69270645 101.10297394 60.727164 101.09765625 61.79296875 C101.0962413 62.85413406 101.09482635 63.91529938 101.09336853 65.00862122 C101.08776606 68.40160935 101.07521314 71.79453177 101.0625 75.1875 C101.05748532 77.48632717 101.05292236 79.78515538 101.04882812 82.08398438 C101.03779583 87.72267872 101.0210553 93.36133466 101 99 C98.58732675 99.867242 96.17095531 100.71896936 93.75 101.5625 C92.72712891 101.9327832 92.72712891 101.9327832 91.68359375 102.31054688 C85.28466955 104.51600133 85.28466955 104.51600133 82 103 C81.4225 102.484375 80.845 101.96875 80.25 101.4375 C76.95195889 99.33041818 73.76309137 99.45189016 70 100 C67.34177793 101.09848123 65.09394327 102.59575685 62.75 104.25 C62.151875 104.64574219 61.55375 105.04148437 60.9375 105.44921875 C57.643254 107.67210598 54.46811848 109.86667075 52 113 C51.92641743 115.10808788 51.92641743 115.10808788 52.4375 117.25 C52.59793727 120.69940126 52.23731803 121.72192124 49.953125 124.3984375 C46.33959879 127.30763233 43.12753295 129.86345684 38.3828125 130.16796875 C36.61030681 129.92283498 34.8430263 129.63774508 33.08203125 129.3203125 C23.82525243 128.35826451 13.52109297 131.80946855 5.0390625 135.23046875 C3 136 3 136 1 136 C-3.76368142 128.34408344 -4.39116276 119.76003892 -3 111 C-1.98136348 107.20758837 -0.65174883 103.55595372 0.86474609 99.93554688 C3.32371523 93.96397317 4.00559317 89.13960006 1.9765625 82.8046875 C1.53054688 81.83789062 1.08453125 80.87109375 0.625 79.875 C-5.53308524 66.29840272 -3.79456103 57.13695608 0.5625 43.3125 C5.30335887 27.98792335 5.96300605 15.06723849 0 0 Z " fill="#63353A" transform="translate(320,479)"/>
<path d="M0 0 C21.86414882 18.99703351 40.00557104 44.37783856 43.375 73.97265625 C43.49508043 76.33566754 43.47792805 78.60531106 43.375 80.97265625 C41.6224578 78.34384295 40.23826033 75.72042919 38.86376953 72.8840332 C27.6844945 49.86024726 14.72101485 30.84306227 -5.625 14.97265625 C-6.1701123 14.54581543 -6.71522461 14.11897461 -7.27685547 13.67919922 C-33.17913157 -6.44085905 -60.38537407 -18.40345893 -93.37475586 -18.39794922 C-96.28884984 -18.40230837 -99.20140843 -18.43867907 -102.11523438 -18.4765625 C-113.60250269 -18.54663811 -123.65706509 -17.56093626 -134.625 -14.02734375 C-135.5337085 -13.74052734 -136.44241699 -13.45371094 -137.37866211 -13.15820312 C-139.70488326 -12.37219342 -141.97516264 -11.51340376 -144.25 -10.58984375 C-145.48314941 -10.08940552 -145.48314941 -10.08940552 -146.74121094 -9.57885742 C-163.74754135 -2.37980957 -178.81881123 7.80435211 -192.625 19.97265625 C-194.08873047 21.24496094 -194.08873047 21.24496094 -195.58203125 22.54296875 C-197.96735323 24.65292373 -200.3172902 26.77818433 -202.625 28.97265625 C-203.43807617 29.73219604 -203.43807617 29.73219604 -204.26757812 30.50708008 C-208.54778462 34.6170775 -211.86347625 38.88514961 -215 43.91015625 C-215.46696289 44.64814453 -215.93392578 45.38613281 -216.41503906 46.14648438 C-217.83547559 48.41184405 -219.2350611 50.6884735 -220.625 52.97265625 C-221.04104492 53.65602051 -221.45708984 54.33938477 -221.88574219 55.04345703 C-227.85116075 64.96236088 -232.4704654 75.17888146 -236.625 85.97265625 C-236.955 85.97265625 -237.285 85.97265625 -237.625 85.97265625 C-239.60643853 60.98451482 -226.78636991 35.30780366 -211.07910156 16.64208984 C-159.54772128 -42.52036455 -60.48080589 -50.70684046 0 0 Z " fill="#F0D48A" transform="translate(574.625,321.02734375)"/>
<path d="M0 0 C3.53035801 1.46251438 7.06246455 2.9206447 10.59619141 4.375 C11.72702148 4.84059326 12.85785156 5.30618652 14.02294922 5.78588867 C21.54834574 8.84840845 29.07814043 11.51551785 36.88525391 13.7578125 C39.53369141 14.5625 39.53369141 14.5625 40.53369141 15.5625 C40.63308003 17.33103292 40.66338364 19.10368275 40.65869141 20.875 C40.66126953 21.84050781 40.66384766 22.80601562 40.66650391 23.80078125 C40.54927717 26.23840779 40.16304776 28.22350679 39.53369141 30.5625 C31.76591645 30.07138673 25.1327024 27.97721954 17.84619141 25.3125 C16.63664795 24.87574951 15.42710449 24.43899902 14.1809082 23.98901367 C-0.84189498 18.49706071 -15.43373368 11.94163397 -30.02978516 5.41650391 C-73.31991176 -13.85415579 -115.63695193 -14.96474606 -159.59130859 1.875 C-165.23315745 4.06206333 -170.85253195 6.30452586 -176.46630859 8.5625 C-177.58505371 9.01125488 -178.70379883 9.46000977 -179.85644531 9.92236328 C-186.07753319 12.42680314 -192.27659112 14.98165968 -198.46630859 17.5625 C-200.88544281 18.56763661 -203.30513541 19.57138109 -205.72583008 20.57275391 C-207.15728663 21.16517757 -208.58787893 21.75969669 -210.01733398 22.35693359 C-224.32147241 28.28982767 -224.32147241 28.28982767 -231.63037109 25.8359375 C-233.46630859 24.5625 -233.46630859 24.5625 -234.29443359 22.3984375 C-234.43365234 21.58632813 -234.57287109 20.77421875 -234.71630859 19.9375 C-234.86583984 19.12023437 -235.01537109 18.30296875 -235.16943359 17.4609375 C-235.26740234 16.83445312 -235.36537109 16.20796875 -235.46630859 15.5625 C-234.67385742 15.29211914 -233.88140625 15.02173828 -233.06494141 14.74316406 C-218.47059536 9.73567058 -204.04355294 4.57191388 -189.90380859 -1.625 C-121.82043403 -31.39660009 -68.21328213 -28.28847761 0 0 Z " fill="#F2D68B" transform="translate(575.46630859375,722.4375)"/>
<path d="M0 0 C0.02329413 8.15458217 0.04100135 16.30915016 0.05181217 24.46375751 C0.05700396 28.25132241 0.06403333 32.03886433 0.07543945 35.82641602 C0.08640123 39.4898469 0.09230464 43.15325586 0.09487724 46.81670189 C0.09670777 48.2059482 0.10028161 49.59519348 0.10573006 50.98443031 C0.13607434 59.05127356 -0.07987155 66.98188681 -1 75 C-20.12809435 79.01946543 -39.20452208 81.28813388 -58.75 81.25 C-59.76587692 81.24883682 -59.76587692 81.24883682 -60.80227661 81.24765015 C-72.79419561 81.20766917 -72.79419561 81.20766917 -78 80 C-76.54054887 74.48172029 -73.8557114 70.4952218 -70.5625 65.9375 C-70.02971436 65.19234131 -69.49692871 64.44718262 -68.94799805 63.67944336 C-63.97375396 56.80758731 -58.61588681 50.35170331 -53 44 C-52.2059375 43.08347656 -51.411875 42.16695312 -50.59375 41.22265625 C-46.03613824 36.03290998 -41.29360416 31.42354811 -36 27 C-35.08992188 26.20207031 -34.17984375 25.40414062 -33.2421875 24.58203125 C-24.86261113 17.27190218 -15.98224916 10.76735925 -6.90014648 4.359375 C-5.52228379 3.37364463 -4.16476243 2.35928007 -2.82055664 1.328125 C-1 0 -1 0 0 0 Z " fill="#A36462" transform="translate(377,603)"/>
<path d="M0 0 C14.88608961 9.8270485 29.23074131 20.51450261 42 33 C43.12455438 34.06297164 44.24957832 35.12544666 45.375 36.1875 C58.15768122 48.42038848 69.24612925 62.59590186 78 78 C78 78.66 78 79.32 78 80 C71.38126292 81.23663757 64.90397894 81.2339682 58.1875 81.25 C57.52782227 81.25167175 56.86814453 81.25334351 56.18847656 81.25506592 C43.86545796 81.25692358 31.81638015 80.17338668 19.62451172 78.38476562 C17.22194616 78.03253834 14.81786319 77.70544192 12.41015625 77.390625 C3.35402219 76.1770111 3.35402219 76.1770111 1 75 C-0.02389059 70.65184677 -0.12167966 66.43709599 -0.11352539 61.98486328 C-0.11367142 61.31099075 -0.11381744 60.63711823 -0.1139679 59.94282532 C-0.11327621 57.73528727 -0.10551897 55.52783564 -0.09765625 53.3203125 C-0.09578942 51.78189134 -0.09436677 50.24346958 -0.09336853 48.70504761 C-0.08956419 44.67075945 -0.07975184 40.63650773 -0.06866455 36.60223389 C-0.0584055 32.47961927 -0.05386131 28.35699872 -0.04882812 24.234375 C-0.03812757 16.15623335 -0.02107635 8.07812122 0 0 Z " fill="#A36462" transform="translate(580,603)"/>
<path d="M0 0 C0.8206897 0.18175781 0.8206897 0.18175781 1.65795898 0.3671875 C20.39180322 4.43593513 36.16914111 4.79297071 54.99755859 1.36376953 C57.66026229 0.88005477 60.32955955 0.43868479 63 0 C63.09704224 0.98673706 63.09704224 0.98673706 63.19604492 1.9934082 C65.79233003 27.61974509 72.12729766 50.85423515 82.359375 74.546875 C93.06516762 99.34692711 84.84648755 122.70051597 76.55331421 147.41290283 C68.4245421 171.71434363 61.58262143 195.29604507 60 221 C56.04 221 52.08 221 48 221 C47.63458362 207.47959386 49.86293327 195.16087137 54 182.3125 C54.39227783 181.07298584 54.78455566 179.83347168 55.1887207 178.55639648 C60.60526058 161.59497889 66.62025413 144.74317569 73.94140625 128.50390625 C75.5890649 124.60667675 76.12720118 121.30585573 76.1328125 117.078125 C76.13410156 116.13453125 76.13539063 115.1909375 76.13671875 114.21875 C76.13285156 113.2390625 76.12898438 112.259375 76.125 111.25 C76.12886719 110.28578125 76.13273437 109.3215625 76.13671875 108.328125 C76.13082876 103.99309155 76.0408068 99.77989522 75.4296875 95.484375 C75 92 75 92 76 89 C75.12181919 86.5020425 74.17446252 84.15720228 73.09765625 81.74609375 C72.45086265 80.24906451 71.8045613 78.75182252 71.15869141 77.25439453 C70.81590149 76.46824768 70.47311157 75.68210083 70.11993408 74.87213135 C51.45053681 31.88779727 51.45053681 31.88779727 52 13 C51.43796875 13.144375 50.8759375 13.28875 50.296875 13.4375 C34.7501359 16.87113563 12.56346123 17.28173061 -2 10 C-1.54177532 6.53058454 -1.10868317 3.32604951 0 0 Z " fill="#975554" transform="translate(273,739)"/>
<path d="M0 0 C0.60247559 0.12117187 1.20495117 0.24234375 1.82568359 0.3671875 C22.77124463 4.50144134 41.22446867 5.4868711 62 0 C62.65134925 1.56020867 63.29582964 3.12328579 63.9375 4.6875 C64.47697266 5.99267578 64.47697266 5.99267578 65.02734375 7.32421875 C65.9570312 9.88179265 66.54162625 12.3221323 67 15 C66.46375 15.04898438 65.9275 15.09796875 65.375 15.1484375 C64.59125 15.22320313 63.8075 15.29796875 63 15.375 C61.62134766 15.50648438 61.62134766 15.50648438 60.21484375 15.640625 C57.95101298 15.89368992 55.69290632 16.2008706 53.44140625 16.546875 C37.95613388 18.85485114 23.16669616 17.93393913 8 14 C8.04640625 14.64582031 8.0928125 15.29164063 8.140625 15.95703125 C8.940852 36.84867188 0.79586507 57.55553388 -8.25 76 C-22.8113982 105.74392428 -11.93970787 134.41739894 -2.26049805 164.12133789 C4.56826557 185.1028202 4.56826557 185.1028202 6.3125 193.9375 C6.47782227 194.76088867 6.64314453 195.58427734 6.81347656 196.43261719 C8.33297208 204.64040973 8.3876735 212.68655726 8 221 C6.02 221 4.04 221 2 221 C1.97421875 219.86046875 1.9484375 218.7209375 1.921875 217.546875 C1.07727295 190.87057595 -7.36682716 166.03367916 -15.64208984 140.88208008 C-21.51113047 122.98236315 -21.51113047 122.98236315 -23.5625 113.8125 C-23.79706909 112.82793823 -23.79706909 112.82793823 -24.03637695 111.82348633 C-26.81101901 98.18107808 -25.38551667 86.45132194 -19.84295654 73.87030029 C-18.28240465 70.32368709 -16.82473451 66.7343142 -15.34765625 63.15234375 C-15.05435425 62.44934143 -14.76105225 61.74633911 -14.4588623 61.02203369 C-6.22714228 41.20861016 -2.07172276 21.27781143 0 0 Z " fill="#975554" transform="translate(621,739)"/>
<path d="M0 0 C0.99 0.66 1.98 1.32 3 2 C3.36076355 5.01187134 3.36076355 5.01187134 3.34057617 8.92822266 C3.34101425 9.64052536 3.34145233 10.35282806 3.34190369 11.0867157 C3.3398101 13.44610812 3.31645325 15.80479391 3.29296875 18.1640625 C3.2873748 19.79787813 3.28310375 21.43169878 3.28010559 23.06552124 C3.26864094 27.36960702 3.23916008 31.67338998 3.20599365 35.97735596 C3.17532751 40.36767479 3.16160767 44.75804247 3.14648438 49.1484375 C3.11429171 57.7657641 3.06307608 66.3828444 3 75 C4.02432129 74.79636841 4.02432129 74.79636841 5.06933594 74.58862305 C46.16687876 66.45516461 46.16687876 66.45516461 66.92724609 66.60888672 C69.50021307 66.62500133 72.07161034 66.60889519 74.64453125 66.58984375 C86.66871086 66.57471837 98.16925709 67.93134865 110 70 C111.15097168 70.18900879 112.30194336 70.37801758 113.48779297 70.57275391 C116.2257361 71.02554153 118.95671037 71.50615605 121.6875 72 C122.57115234 72.15210938 123.45480469 72.30421875 124.36523438 72.4609375 C130.13100557 73.49920183 135.48056375 75.03156883 141 77 C141 80.63 141 84.26 141 88 C131.79033073 87.35075439 122.86351999 85.7920667 113.8125 84.0625 C76.69233699 76.97338616 43.18491629 79.22287434 6.36547852 86.83105469 C5.60291748 86.98606445 4.84035645 87.14107422 4.0546875 87.30078125 C3.08764893 87.50441284 3.08764893 87.50441284 2.10107422 87.7121582 C-0.57598276 88.07890817 -3.2979379 88 -6 88 C-6.33 59.95 -6.66 31.9 -7 3 C-4.69 2.01 -2.38 1.02 0 0 Z " fill="#975554" transform="translate(411,585)"/>
<path d="M0 0 C1.67449219 0.48919922 1.67449219 0.48919922 3.3828125 0.98828125 C35.85193499 10.18124008 67.87072362 10.29786329 100.32421875 0.98828125 C104 0 104 0 107 0 C107.11734799 2.87502579 107.07823643 4.38953286 106 7 C103.04029875 9.85524121 99.47390815 11.82574219 96 14 C94.63883452 14.93635176 93.28236808 15.87955696 91.9296875 16.828125 C82.05619427 23.70091491 72.10087893 29.36151764 61 34 C60.11699219 34.38027344 59.23398437 34.76054688 58.32421875 35.15234375 C51.43311077 37.80841912 44.78750459 38.29740241 37.75 35.88671875 C29.06342222 31.90866097 22.03455797 26.32165892 14.80078125 20.14453125 C12.46218472 18.1599993 10.12645803 16.3522617 7.54296875 14.69921875 C6.53878906 14.05597656 5.53460938 13.41273438 4.5 12.75 C3.6234375 12.22921875 2.746875 11.7084375 1.84375 11.171875 C-0.74076628 8.12740244 -0.35452838 5.7120007 -0.15820312 1.83691406 C-0.10599609 1.23073242 -0.05378906 0.62455078 0 0 Z " fill="#975554" transform="translate(425,529)"/>
<path d="M0 0 C16.81369772 14.60886411 34.45815634 34.47906441 39.375 56.97265625 C39.08102334 58.31521597 38.75263687 59.65118764 38.375 60.97265625 C37.85292969 59.90789062 37.33085938 58.843125 36.79296875 57.74609375 C28.79474023 41.82160969 16.72152764 22.73674204 0.9375 13.5546875 C-1.86816958 11.82252869 -4.15654526 9.84576722 -6.625 7.66015625 C-20.15761654 -3.86342249 -34.83380928 -13.18803001 -51.625 -19.02734375 C-53.38038028 -19.67140655 -55.13558 -20.31596163 -56.890625 -20.9609375 C-66.50197782 -24.41200235 -75.31603019 -27.067301 -85.625 -27.02734375 C-86.72585938 -27.07503906 -87.82671875 -27.12273437 -88.9609375 -27.171875 C-97.37545639 -27.42714692 -105.2178641 -26.23834097 -113.41210938 -24.48486328 C-115.75324832 -24.00082816 -118.10003278 -23.57036806 -120.453125 -23.1484375 C-131.89939524 -21.06060569 -142.7421339 -18.14537373 -153.625 -14.02734375 C-154.41825684 -13.72812012 -155.21151367 -13.42889648 -156.02880859 -13.12060547 C-167.07175497 -8.88245417 -177.02350074 -3.93950083 -186.625 2.97265625 C-187.16817871 3.35647461 -187.71135742 3.74029297 -188.27099609 4.13574219 C-200.42312522 12.78958569 -210.76103539 23.16956996 -219.91796875 34.92578125 C-221.625 36.97265625 -221.625 36.97265625 -223.625 37.97265625 C-222.09054847 26.5472131 -211.31880958 16.95057992 -203.625 8.97265625 C-202.96886719 8.25335938 -202.31273437 7.5340625 -201.63671875 6.79296875 C-151.66672775 -46.49408803 -54.1624337 -45.40954512 0 0 Z " fill="#FBE19A" transform="translate(574.625,321.02734375)"/>
<path d="M0 0 C0.94875 0.04125 1.8975 0.0825 2.875 0.125 C3.875 2.125 3.875 2.125 3.16015625 5.06640625 C0.02363009 14.35573451 -3.69395456 21.50430304 -12.125 27.125 C-12.62 28.61 -12.62 28.61 -13.125 30.125 C-15.54248047 31.45605469 -15.54248047 31.45605469 -18.7421875 32.796875 C-19.9075 33.29703125 -21.0728125 33.7971875 -22.2734375 34.3125 C-23.51513666 34.83449649 -24.75732742 35.35532511 -26 35.875 C-41.42821021 42.35351251 -52.59287296 47.58848629 -59.578125 63.41796875 C-63.43008168 72.0265083 -67.95906882 77.34887665 -74.76416016 83.77783203 C-83.61972309 92.24982488 -86.0794011 100.33687112 -86.6875 112.375 C-86.75553833 113.62700195 -86.75553833 113.62700195 -86.82495117 114.90429688 C-87.09909412 120.82369593 -87.12659287 126.71777779 -87.046875 132.640625 C-87.03885361 133.37935852 -87.03083221 134.11809204 -87.02256775 134.87921143 C-86.98154121 138.60451184 -86.91988752 142.32745023 -86.82446289 146.05175781 C-86.80528605 147.44074352 -86.78693904 148.829741 -86.76953125 150.21875 C-86.74221924 151.45302734 -86.71490723 152.68730469 -86.68676758 153.95898438 C-87.20352029 157.6922708 -88.22165734 158.8226826 -91.125 161.125 C-97.01875106 156.66486406 -98.03210299 151.22506193 -99.125 144.125 C-101.39452184 125.19904596 -101.74460644 98.92191494 -89.82421875 82.91796875 C-86.50966493 79.420543 -82.55785403 77.22545933 -78.19921875 75.25390625 C-73.4580865 72.96963482 -71.7938535 70.53914202 -69.953125 65.828125 C-69.00236014 62.72468498 -68.30602196 59.61077256 -67.625 56.4375 C-65.37435281 46.18455168 -59.61711267 40.91139628 -51.20703125 35.11328125 C-44.60407055 30.89092514 -37.91308117 27.60755707 -30.68359375 24.609375 C-15.79217488 18.65249096 -15.79217488 18.65249096 -5.125 7.125 C-5.0807678 5.45892038 -5.07518837 3.79092214 -5.125 2.125 C-3.125 0.125 -3.125 0.125 0 0 Z " fill="#965554" transform="translate(466.125,333.875)"/>
<path d="M0 0 C1.98 0 3.96 0 6 0 C6.20625 0.66 6.4125 1.32 6.625 2 C12.77301954 15.41386082 25.62488558 19.80987695 38.64306641 24.78613281 C49.92924415 29.20543719 62.96094762 37.21689374 69 48 C70.10647189 51.51199644 70.73615075 55.10990535 71.421875 58.72265625 C72.42948281 63.57828353 73.71209879 67.13021937 77 71 C80.01526977 72.87320391 80.01526977 72.87320391 83.375 74.3125 C91.97167332 78.7215441 95.00755494 83.86546643 98.25 92.75 C101.55570367 103.8527321 102.30614895 114.77857264 102.1875 126.3125 C102.1865332 128.12717773 102.1865332 128.12717773 102.18554688 129.97851562 C102.15555091 136.07436267 101.93566624 141.97430944 101 148 C94.50149595 148.36783985 94.50149595 148.36783985 92.28515625 146.7421875 C90.70779417 144.60387903 90.65446952 143.56936486 90.75 140.9375 C90.77578125 140.14085937 90.8015625 139.34421875 90.828125 138.5234375 C90.9981002 136.02789254 91.23326011 133.54945722 91.5 131.0625 C92.35687878 122.82134236 92.03769524 115.34520757 90.625 107.1875 C90.43599121 106.09296509 90.43599121 106.09296509 90.24316406 104.97631836 C88.89304973 97.66432134 87.23474916 93.83545253 81.875 88.625 C81.38362549 88.14313232 80.89225098 87.66126465 80.38598633 87.16479492 C77.57652181 84.43310421 74.68496145 81.83454203 71.6875 79.3125 C64.52702966 73.0783328 61.72406893 68.27774367 60.45703125 58.81640625 C58.84317988 48.87121959 49.95879054 42.78238077 42.3984375 37.015625 C34.8501309 31.86179633 26.58482851 28.94059998 18 26 C17.67 26.99 17.34 27.98 17 29 C16.34 28.67 15.68 28.34 15 28 C15 27.01 15 26.02 15 25 C13.29582239 23.83046635 11.59064011 22.6623524 9.87890625 21.50390625 C4.30344231 17.04121681 1.64133207 9.76549075 0 3 C0 2.01 0 1.02 0 0 Z " fill="#965554" transform="translate(488,336)"/>
<path d="M0 0 C6.08498244 12.16996488 2.1520316 33.53980306 2.13037109 47.14404297 C2.12458766 50.81476523 2.12802121 54.48541573 2.13394356 58.15613556 C2.13754141 60.99729972 2.13641569 63.83844655 2.13381577 66.67961121 C2.13282556 68.69221036 2.13585916 70.70481019 2.13894653 72.71740723 C2.13579437 73.92376831 2.13264221 75.13012939 2.12939453 76.37304688 C2.12859894 77.43873901 2.12780334 78.50443115 2.12698364 79.60241699 C2 82 2 82 1 83 C0.92820036 84.51928038 0.91607993 86.04167482 0.9375 87.5625 C0.94652344 88.38878906 0.95554687 89.21507812 0.96484375 90.06640625 C0.97644531 90.70449219 0.98804688 91.34257813 1 92 C-0.87387477 92.3396019 -2.74916697 92.67138691 -4.625 93 C-5.66914063 93.185625 -6.71328125 93.37125 -7.7890625 93.5625 C-10.90891229 93.98758902 -13.85679493 94.03070286 -17 94 C-16.99777939 92.96905212 -16.99555878 91.93810425 -16.99327087 90.87591553 C-16.97300715 81.16450775 -16.95801225 71.45310426 -16.94818783 61.74168015 C-16.94296723 56.748839 -16.93588447 51.75601492 -16.92456055 46.76318359 C-16.91370249 41.9456592 -16.90771695 37.12815122 -16.90512276 32.31061554 C-16.90327379 30.47180167 -16.89966327 28.63298871 -16.89426994 26.79418182 C-16.88702083 24.22051546 -16.8860107 21.6469171 -16.88647461 19.07324219 C-16.88287933 18.31151199 -16.87928406 17.5497818 -16.87557983 16.76496887 C-16.8822098 13.37020843 -16.93065577 10.24428109 -18 7 C-16.3990869 5.84962529 -14.79414775 4.70485184 -13.1875 3.5625 C-12.29417969 2.92441406 -11.40085937 2.28632812 -10.48046875 1.62890625 C-6.62835008 -0.90075278 -4.37778791 -1.2672544 0 0 Z " fill="#F3D78B" transform="translate(398,583)"/>
<path d="M0 0 C5.96924746 0 10.10328795 3.91800999 14.5625 7.5 C14.2325 8.49 13.9025 9.48 13.5625 10.5 C13.47127869 13.19271286 13.43647866 15.85900425 13.44897461 18.55151367 C13.44882858 19.37125168 13.44868256 20.19098969 13.4485321 21.03556824 C13.44922904 23.74639528 13.45701122 26.4571537 13.46484375 29.16796875 C13.46670871 31.04698143 13.46813224 32.9259946 13.46913147 34.80500793 C13.47295052 39.75175315 13.48277562 44.69846902 13.49383545 49.64520264 C13.5040627 54.69250085 13.50863191 59.73980379 13.51367188 64.78710938 C13.52439841 74.69141914 13.54146752 84.59570713 13.5625 94.5 C11.52059019 94.35761163 9.47897955 94.21092972 7.4375 94.0625 C5.73207031 93.94068359 5.73207031 93.94068359 3.9921875 93.81640625 C0.8084522 93.52269035 -2.29260907 93.06875687 -5.4375 92.5 C-5.46082233 82.84989543 -5.47851536 73.19980079 -5.48931217 63.54967403 C-5.49449794 59.0672041 -5.5015159 54.58475365 -5.51293945 50.10229492 C-5.52392322 45.7645251 -5.52980913 41.42677384 -5.53237724 37.08899117 C-5.53420392 35.44627147 -5.53776982 33.80355262 -5.54323006 32.16084099 C-5.57581512 21.93720476 -5.598138 11.67197829 -4.4375 1.5 C-3.4375 0.5 -3.4375 0.5 0 0 Z " fill="#F3D78B" transform="translate(562.4375,582.5)"/>
<path d="M0 0 C0.66 0.33 1.32 0.66 2 1 C1.49210937 1.78761719 0.98421875 2.57523438 0.4609375 3.38671875 C-8.06339203 16.87559226 -14.25839318 28.60544102 -13 45 C-10.71823855 54.6616299 -4.95791388 61.38002556 3.32421875 66.5859375 C12.27350167 71.31533957 21.9637923 73.96955955 32 75 C32.78246094 75.08378906 33.56492187 75.16757812 34.37109375 75.25390625 C47.58602318 75.9447373 61.16202649 70.54575781 73.18682861 65.59860229 C75.31452267 64.7234612 77.44800385 63.8639799 79.58349609 63.00805664 C82.42641915 61.86769097 85.26740332 60.72274745 88.10644531 59.57275391 C101.23203768 54.26241502 114.18980178 49.22450097 128 46 C127.98828125 48.21875 127.98828125 48.21875 127 51 C124.60498813 52.8989755 121.92759396 54.16660247 119.1875 55.5 C118.412854 55.8923584 117.63820801 56.2847168 116.84008789 56.68896484 C111.66394721 59.27783985 106.42053316 61.64115667 101.0390625 63.7734375 C98.23673389 64.90445445 95.49030141 66.12725928 92.74047852 67.37939453 C63.68573122 80.4994691 39.05489007 88.59968084 8.125 77.6875 C-4.49259796 72.59727099 -14.37181104 62.49204174 -20.125 50.2265625 C-21.46231077 46.8235842 -22.11756995 43.64200867 -22.31640625 39.99609375 C-22.35830078 39.25552734 -22.40019531 38.51496094 -22.44335938 37.75195312 C-22.48267578 36.98818359 -22.52199219 36.22441406 -22.5625 35.4375 C-22.60568359 34.66986328 -22.64886719 33.90222656 -22.69335938 33.11132812 C-23.08781814 25.92967403 -22.77501664 23.2619529 -18.0625 17.875 C-17.56685547 17.29967529 -17.07121094 16.72435059 -16.56054688 16.1315918 C-6.00530267 4.00353511 -6.00530267 4.00353511 0 0 Z " fill="#EFB66B" transform="translate(277,646)"/>
<path d="M0 0 C6.3742798 1.27485596 10.04035431 5.11145134 14 10 C20.45979841 20.11523509 22.58646515 28.84347277 20.50390625 40.86328125 C19.04122082 46.30909876 17.10262214 50.10250896 13 54 C12.01 54 11.02 54 10 54 C9.65001953 55.12535156 9.65001953 55.12535156 9.29296875 56.2734375 C6.59643785 61.95977759 -0.20365233 65.35472483 -5.8125 67.875 C-10.49247676 69.5267565 -14.66667779 70.13865929 -19.625 70.125 C-20.56601562 70.12757813 -21.50703125 70.13015625 -22.4765625 70.1328125 C-25 70 -25 70 -28 69 C-23.7577756 60.00901695 -18.80790752 53.89117309 -9.8203125 49.59765625 C-3.52133968 46.02940157 1.9771651 40.00846494 6 34 C6 33.34 6 32.68 6 32 C1.78297058 32.47920789 0.15806169 34.7344819 -2.5 37.875 C-5.15446725 40.99308995 -7.61614151 43.67744258 -11 46 C-11.66 45.67 -12.32 45.34 -13 45 C-12.77860352 44.49364014 -12.55720703 43.98728027 -12.32910156 43.46557617 C-7.27235452 31.75902259 -3.52735178 20.43570056 -1.32861328 7.86767578 C-1.0439529 6.24980662 -0.72613558 4.63783778 -0.40234375 3.02734375 C0.03244369 1.18100202 0.03244369 1.18100202 0 0 Z " fill="#A26361" transform="translate(623,418)"/>
<path d="M0 0 C19.50253054 -1.50276348 38.45045738 7.51209202 53.8125 19.0625 C58.1583089 22.81776344 61.22696589 26.99389551 64 32 C64.61875 33.0725 65.2375 34.145 65.875 35.25 C68.31378617 43.37928723 68.06410189 51.59510204 64.15625 59.1875 C62.7032808 61.46512739 61.08699346 63.28568394 59 65 C54.79291193 63.59763731 53.74378799 60.59108105 51.625 56.9375 C46.20089747 47.93825935 39.85784498 39.94177903 33 32 C32.5241748 31.44828125 32.04834961 30.8965625 31.55810547 30.328125 C22.53015364 19.9628176 12.5821966 10.37573214 1.51171875 2.20703125 C1.01285156 1.80871094 0.51398437 1.41039062 0 1 C0 0.67 0 0.34 0 0 Z " fill="#D4994B" transform="translate(605,615)"/>
<path d="M0 0 C1.66095703 0.04060547 1.66095703 0.04060547 3.35546875 0.08203125 C4.57169922 0.13423828 4.57169922 0.13423828 5.8125 0.1875 C2.69613349 3.3924311 -0.46624396 6.26759966 -4 9 C-16.61704325 19.25028345 -27.60904725 31.08072152 -37.1875 44.1875 C-37.63883301 44.79932129 -38.09016602 45.41114258 -38.55517578 46.04150391 C-39.92008487 47.89679949 -41.27548604 49.75848069 -42.625 51.625 C-43.02638184 52.18010254 -43.42776367 52.73520508 -43.84130859 53.30712891 C-46.56364488 57.14142157 -48.90891637 61.08189715 -51.1875 65.1875 C-55.26706032 63.89849607 -57.01600577 62.7417302 -59 58.9375 C-62.41851415 51.49657015 -62.60409027 42.68647311 -60.125 34.875 C-53.85330431 21.35345424 -41.52126565 14.03478278 -28.625 7.8125 C-27.76310059 7.39556885 -26.90120117 6.9786377 -26.01318359 6.54907227 C-17.67157385 2.67668955 -9.30300983 -0.30009709 0 0 Z " fill="#D4994B" transform="translate(346.1875,614.8125)"/>
<path d="M0 0 C1.66853111 1.43016952 3.33621008 2.86118531 5 4.296875 C6.25609155 5.36651546 7.52529254 6.42113971 8.8125 7.453125 C18.47953322 15.30758949 21.67856483 23.06476518 23.31640625 35.37890625 C23.98415521 47.07528327 18.48515197 57.44160933 11 66 C8.51204371 68.64345356 5.93060907 70.8601902 3 73 C2.19691406 73.59554687 1.39382813 74.19109375 0.56640625 74.8046875 C-5.83765973 79.0377297 -12.14887893 81.13307115 -19.5625 82.9375 C-20.42447998 83.14906738 -21.28645996 83.36063477 -22.17456055 83.57861328 C-32.97340257 85.98062736 -42.13703992 85.19843902 -52.6875 82.0625 C-53.76692871 81.74893555 -54.84635742 81.43537109 -55.95849609 81.11230469 C-72.84115077 76.08948784 -88.94051594 69.75436138 -104.73168945 61.96606445 C-111.55579227 58.61611517 -118.45415492 55.70936703 -125.59521484 53.10498047 C-130.81439368 51.18560632 -130.81439368 51.18560632 -133 49 C-133 48.01 -133 47.02 -133 46 C-126.67114063 46.58780415 -120.99653904 48.02515184 -114.9609375 49.98828125 C-114.00754486 50.29526443 -113.05415222 50.60224762 -112.0718689 50.91853333 C-100.05633916 54.8650849 -88.36768543 59.64462329 -76.65185547 64.39233398 C-53.45092537 73.76773862 -33.08333098 80.20283286 -8.6875 70.8125 C2.15803956 65.87733622 9.90155962 59.81987334 14.3125 48.6875 C17.1566514 33.43250611 11.6605945 21.3862397 4.0234375 8.53125 C2.39373151 5.77033633 1.08302862 3.02782196 0 0 Z " fill="#EFB56B" transform="translate(678,645)"/>
<path d="M0 0 C0.23074219 1.26972656 0.46148437 2.53945313 0.69921875 3.84765625 C2.71201997 14.58958136 5.20629832 24.74435979 9 35 C9.32484375 35.89074219 9.6496875 36.78148437 9.984375 37.69921875 C10.64031825 39.47212196 11.31658351 41.23750483 12 43 C7.08846702 41.05328761 4.43560597 37.06330154 1.12109375 33.1171875 C-0.85439265 30.64677262 -0.85439265 30.64677262 -4 31 C-1.63121051 39.42236263 5.58849905 44.76431567 12.5703125 49.359375 C17.40312744 52.62269055 20.87398655 55.84446188 24.25 60.625 C24.93578125 61.58664062 25.6215625 62.54828125 26.328125 63.5390625 C28 66 28 66 29 68 C24.09233276 70.45383362 17.26175934 69.52915493 12.078125 68.31640625 C5.70501485 66.14702836 0.41594242 62.94912468 -5 59 C-5.99 58.34 -6.98 57.68 -8 57 C-8.495 55.515 -8.495 55.515 -9 54 C-9.99 53.67 -10.98 53.34 -12 53 C-13.5703125 50.890625 -13.5703125 50.890625 -15.125 48.25 C-15.64320313 47.38890625 -16.16140625 46.5278125 -16.6953125 45.640625 C-20.28753853 38.37013161 -20.29141972 28.09926302 -18.31640625 20.30078125 C-15.63754432 13.93153692 -7.89354815 0 0 0 Z " fill="#A26462" transform="translate(332,419)"/>
<path d="M0 0 C1.44037669 0.93307421 2.87718985 1.87165077 4.3125 2.8125 C5.11300781 3.33457031 5.91351562 3.85664062 6.73828125 4.39453125 C8.7237402 5.80389849 10.3491852 7.22096657 12 9 C11.67 9.66 11.34 10.32 11 11 C9.79252435 23.10854594 9.71394751 35.34307958 9.4375 47.5 C9.39415998 49.30599632 9.35054171 51.11198598 9.30664062 52.91796875 C9.20123187 57.27857608 9.09954431 61.63925502 9 66 C12.58269242 66.48403686 16.16625924 66.96129217 19.75 67.4375 C21.24466797 67.63956055 21.24466797 67.63956055 22.76953125 67.84570312 C32.33050598 69.11021914 41.68250555 70.15320263 51.33984375 69.81640625 C52.58701172 69.77708984 53.83417969 69.73777344 55.11914062 69.69726562 C57.69312198 69.60641922 60.26627605 69.48864214 62.83789062 69.34570312 C71.9970078 69.12161228 71.9970078 69.12161228 74.98876953 71.74169922 C76.74103158 74.46518344 78 76.72391714 78 80 C71.38126292 81.23663757 64.90397894 81.2339682 58.1875 81.25 C57.52782227 81.25167175 56.86814453 81.25334351 56.18847656 81.25506592 C43.86545796 81.25692358 31.81638015 80.17338668 19.62451172 78.38476562 C17.22194616 78.03253834 14.81786319 77.70544192 12.41015625 77.390625 C3.35402219 76.1770111 3.35402219 76.1770111 1 75 C-0.02389059 70.65184677 -0.12167966 66.43709599 -0.11352539 61.98486328 C-0.11367142 61.31099075 -0.11381744 60.63711823 -0.1139679 59.94282532 C-0.11327621 57.73528727 -0.10551897 55.52783564 -0.09765625 53.3203125 C-0.09578942 51.78189134 -0.09436677 50.24346958 -0.09336853 48.70504761 C-0.08956419 44.67075945 -0.07975184 40.63650773 -0.06866455 36.60223389 C-0.0584055 32.47961927 -0.05386131 28.35699872 -0.04882812 24.234375 C-0.03812757 16.15623335 -0.02107635 8.07812122 0 0 Z " fill="#975554" transform="translate(580,603)"/>
<path d="M0 0 C0.85037842 0.00161133 1.70075684 0.00322266 2.5769043 0.00488281 C13.33544414 0.21388597 21.76122659 3.55165432 29.6875 10.9375 C33.96566901 15.5721831 33.96566901 15.5721831 33.8125 19.9375 C32.9375 23.375 32.9375 23.375 31.23046875 24.57421875 C19.781318 28.57264448 -2.01553688 25.29238524 -13.0625 20.375 C-16.46050919 18.36393334 -17.6936546 17.22916829 -19.25 13.625 C-18.97100507 8.78908789 -16.43658157 5.74149937 -13.0625 2.375 C-8.7534569 -0.15966429 -4.88674746 -0.00949713 0 0 Z " fill="#361C17" transform="translate(520.0625,402.625)"/>
<path d="M0 0 C0 0.66 0 1.32 0 2 C0.66 2 1.32 2 2 2 C4.04231709 4.67072234 4.94579843 6.67479056 5.5 10 C4.79192753 14.24843484 3.45626793 15.44236173 0 18 C-10.91718736 23.33218414 -30.11284619 24.7917428 -42 23 C-44.78125 21.65625 -44.78125 21.65625 -47 20 C-47.74134955 16.29325226 -47.19053259 14.39763322 -45.5625 11 C-35.78862121 -0.4425898 -14.01105544 -7.88330747 0 0 Z " fill="#351B17" transform="translate(450,405)"/>
<path d="M0 0 C1.17578125 2.66015625 1.17578125 2.66015625 2.3125 6.0625 C5.05095018 13.52579855 8.00454452 19.232696 14.8125 23.5625 C17.71925519 25.48741788 17.95917978 25.8818362 19.1875 29.4375 C18.91287817 34.65531481 16.96813366 37.10279008 13.265625 40.671875 C9.0430558 44.21883313 5.56254535 45.71402486 0.078125 46.1875 C-2.3363669 45.96965111 -3.87367125 45.12367869 -6 44 C-6.01981934 43.4016333 -6.03963867 42.8032666 -6.06005859 42.18676758 C-6.55549206 26.8460944 -6.55549206 26.8460944 -8.59765625 11.65625 C-9.75160711 4.03793363 -9.75160711 4.03793363 -7.6875 1.1875 C-4.73834913 -0.88782839 -3.44367871 -1.1478929 0 0 Z " fill="#965554" transform="translate(478,418)"/>
<path d="M0 0 C0 2.64 0 5.28 0 8 C-19.12809435 12.01946543 -38.20452208 14.28813388 -57.75 14.25 C-58.76587692 14.24883682 -58.76587692 14.24883682 -59.80227661 14.24765015 C-71.79419561 14.20766917 -71.79419561 14.20766917 -77 13 C-75.79157144 8.56909529 -74.48331435 6.01887244 -71 3 C-71 3.66 -71 4.32 -71 5 C-50.94665882 7.29181042 -30.86471261 5.61029546 -11.40307617 0.18261719 C-7.25313174 -0.92885173 -4.17912773 -1.0045361 0 0 Z " fill="#975554" transform="translate(376,670)"/>
<path d="M0 0 C1.72838316 0.0073463 3.45690264 0.05209389 5.18359375 0.12890625 C6.07949219 0.15114258 6.97539062 0.17337891 7.8984375 0.19628906 C23.15414952 0.76561455 23.15414952 0.76561455 28.8984375 5.61328125 C30.62109375 7.69140625 30.62109375 7.69140625 30.68359375 10.69140625 C29.37542168 14.38506855 27.88306841 15.59442254 24.62109375 17.69140625 C15.62849562 20.68893896 4.34407258 19.34264073 -4.27734375 15.859375 C-6.4111341 14.67349523 -7.85471299 13.59541466 -9.37890625 11.69140625 C-9.21549884 5.64533224 -6.2871595 0.42305511 0 0 Z " fill="#C47278" transform="translate(403.37890625,475.30859375)"/>
<path d="M0 0 C1.26263672 -0.00809692 1.26263672 -0.00809692 2.55078125 -0.01635742 C8.61727294 0.05477294 8.61727294 0.05477294 10.875 2.3125 C10.875 3.3025 10.875 4.2925 10.875 5.3125 C11.865 5.6425 12.855 5.9725 13.875 6.3125 C14.125 9.125 14.125 9.125 13.875 12.3125 C10.38993412 16.40366429 4.07741666 18.02589318 -1.10546875 18.48974609 C-3.34316436 18.60876177 -5.57181584 18.6637064 -7.8125 18.6875 C-8.53719482 18.70127686 -9.26188965 18.71505371 -10.00854492 18.72924805 C-15.56990173 18.68139881 -19.39590304 17.22286787 -24 14 C-25.74735796 11.37896306 -25.50777832 9.37472655 -25.125 6.3125 C-19.76117177 -0.69508205 -8.00229066 0.03243764 0 0 Z " fill="#C47278" transform="translate(548.125,475.6875)"/>
<path d="M0 0 C2.475 0.99 2.475 0.99 5 2 C4.67 2.99 4.34 3.98 4 5 C3.90877869 7.69271286 3.87397866 10.35900425 3.88647461 13.05151367 C3.88632858 13.87125168 3.88618256 14.69098969 3.8860321 15.53556824 C3.88672904 18.24639528 3.89451122 20.9571537 3.90234375 23.66796875 C3.90420871 25.54698143 3.90563224 27.4259946 3.90663147 29.30500793 C3.91045052 34.25175315 3.92027562 39.19846902 3.93133545 44.14520264 C3.9415627 49.19250085 3.94613191 54.23980379 3.95117188 59.28710938 C3.96189841 69.19141914 3.97896752 79.09570713 4 89 C0.625 89.125 0.625 89.125 -3 89 C-3.66 88.34 -4.32 87.68 -5 87 C-4.71744879 84.99219624 -4.37354651 82.99288086 -4 81 C-3.95357843 78.56424301 -3.96116418 76.12715891 -4.0078125 73.69140625 C-4.02783447 72.22527451 -4.0467443 70.75912728 -4.06469727 69.29296875 C-4.08030197 68.13740479 -4.08030197 68.13740479 -4.09622192 66.95849609 C-4.27502041 52.07214787 -3.76012286 37.33927933 -2.5625 22.5 C-2.49492493 21.65357941 -2.42734985 20.80715881 -2.35772705 19.93508911 C-2.16266403 17.52906737 -1.96073436 15.12378709 -1.75390625 12.71875 C-1.69343613 12.00887436 -1.632966 11.29899872 -1.57066345 10.56761169 C-1.24650374 6.98786625 -0.78746431 3.50814291 0 0 Z " fill="#FDE39C" transform="translate(572,588)"/>
<path d="M0 0 C2 2.375 2 2.375 3 5 C2.6875 7.125 2.6875 7.125 1 9 C-4.34772604 11.28857182 -9.2332376 12.59355146 -15 13.1875 C-15.7211499 13.26790527 -16.4422998 13.34831055 -17.18530273 13.43115234 C-24.78915835 14.20565735 -32.36722317 14.18491249 -40 14 C-40.33 13.34 -40.66 12.68 -41 12 C-35.45370856 4.12973432 -28.75265045 0.64902438 -19.47265625 -1.6171875 C-13.14104528 -2.59743691 -5.78337844 -3.03627368 0 0 Z " fill="#623439" transform="translate(448,409)"/>
<path d="M0 0 C2.36801327 1.91165097 3.58128485 3.34067727 5.3125 5.9375 C5.3125 6.9275 5.3125 7.9175 5.3125 8.9375 C-3.07280975 9.14064344 -11.34336941 9.05533654 -19.6875 8.125 C-20.36804443 8.05490723 -21.04858887 7.98481445 -21.74975586 7.91259766 C-26.75718184 7.30019184 -31.05447379 5.95185922 -35.6875 3.9375 C-37.1875 1.75 -37.1875 1.75 -37.6875 -0.0625 C-34.23464854 -5.85835781 -34.23464854 -5.85835781 -31.88671875 -6.734375 C-20.71919211 -8.40057791 -9.28129527 -6.73019783 0 0 Z " fill="#623439" transform="translate(543.6875,414.0625)"/>
<path d="M0 0 C6.08498244 12.16996488 2.1520316 33.53980306 2.13037109 47.14404297 C2.12458766 50.81476523 2.12802121 54.48541573 2.13394356 58.15613556 C2.13754141 60.99729972 2.13641569 63.83844655 2.13381577 66.67961121 C2.13282556 68.69221036 2.13585916 70.70481019 2.13894653 72.71740723 C2.13579437 73.92376831 2.13264221 75.13012939 2.12939453 76.37304688 C2.12820114 77.97158508 2.12820114 77.97158508 2.12698364 79.60241699 C2 82 2 82 1 83 C0.92820036 84.51928038 0.91607993 86.04167482 0.9375 87.5625 C0.94652344 88.38878906 0.95554687 89.21507812 0.96484375 90.06640625 C0.97644531 90.70449219 0.98804688 91.34257813 1 92 C-0.65 92 -2.3 92 -4 92 C-3.99777939 90.9314679 -3.99555878 89.86293579 -3.99327087 88.76202393 C-3.97300867 78.69742845 -3.95801298 68.6328371 -3.94818783 58.56822586 C-3.94296685 53.39378256 -3.93588338 48.21935571 -3.92456055 43.04492188 C-3.91370386 38.05233346 -3.90771724 33.05976087 -3.90512276 28.06716156 C-3.90327354 26.1613617 -3.89966254 24.25556272 -3.89426994 22.34976959 C-3.88702266 19.68270487 -3.88601063 17.01570578 -3.88647461 14.34863281 C-3.88287933 13.5588504 -3.87928406 12.76906799 -3.87557983 11.95535278 C-3.88216555 8.46231828 -4.06283927 5.3603399 -5 2 C-5.66 2 -6.32 2 -7 2 C-7 1.34 -7 0.68 -7 0 C-4.30234372 -1.34882814 -2.84835666 -0.80338265 0 0 Z " fill="#FDE39B" transform="translate(398,583)"/>
<path d="M0 0 C5.75 1.75 5.75 1.75 8 4 C8.20272331 6.52509773 8.28385098 8.91372103 8.25 11.4375 C8.23876099 12.51197388 8.23876099 12.51197388 8.22729492 13.6081543 C7.96990037 26.4534367 7.96990037 26.4534367 6 31 C4.3698588 32.05849773 2.69800141 33.05418343 1 34 C-1.13098811 36.13739459 -1.13098811 36.13739459 -3.0625 38.5 C-5.52203694 41.42222211 -7.85794418 43.81665609 -11 46 C-11.66 45.67 -12.32 45.34 -13 45 C-12.77860352 44.49364014 -12.55720703 43.98728027 -12.32910156 43.46557617 C-7.27235452 31.75902259 -3.52735178 20.43570056 -1.32861328 7.86767578 C-1.0439529 6.24980662 -0.72613558 4.63783778 -0.40234375 3.02734375 C0.03244369 1.18100202 0.03244369 1.18100202 0 0 Z " fill="#955453" transform="translate(623,418)"/>
<path d="M0 0 C4.07809574 0.84960328 5.41189684 2.39418456 8 5.625 C8.59375 9.18359375 8.59375 9.18359375 8.5 13.0625 C8.4896875 14.33996094 8.479375 15.61742187 8.46875 16.93359375 C7.97693667 20.80662368 7.03731461 23.31436375 5 26.625 C2.15916359 28.04541821 0.14522722 27.93952272 -3 27.625 C-5.84780619 25.39293569 -6.84997666 24.07507001 -8 20.625 C-8.19741449 18.1714199 -8.31215287 15.71070681 -8.375 13.25 C-8.42398437 11.94289063 -8.47296875 10.63578125 -8.5234375 9.2890625 C-7.76430973 3.97516808 -5.30601249 1.10541927 0 0 Z " fill="#371D18" transform="translate(517,434.375)"/>
<path d="M0 0 C3.5 0.5625 3.5 0.5625 5.6875 2.0390625 C8.36157564 5.76202126 8.08622761 9.02694268 8 13.5 C8.01546875 14.29857422 8.0309375 15.09714844 8.046875 15.91992188 C8.0203843 19.91670618 7.78009425 22.09467017 5.6875 25.58984375 C3.5 27.5625 3.5 27.5625 0 28.1875 C-3.5 27.5625 -3.5 27.5625 -5.6875 25.5546875 C-8.08932162 21.58961129 -8.09418681 18.60701348 -8 14.0625 C-8.01546875 13.31613281 -8.0309375 12.56976563 -8.046875 11.80078125 C-8.01953548 7.93907368 -7.73019448 5.94301545 -5.6875 2.56640625 C-3.5 0.5625 -3.5 0.5625 0 0 Z " fill="#341B16" transform="translate(439.5,434.4375)"/>
<path d="M0 0 C0.23074219 1.26972656 0.46148437 2.53945313 0.69921875 3.84765625 C2.71201997 14.58958136 5.20629832 24.74435979 9 35 C9.32484375 35.89074219 9.6496875 36.78148437 9.984375 37.69921875 C10.64031825 39.47212196 11.31658351 41.23750483 12 43 C8.14280418 41.46239347 6.09958899 39.06804458 3.4375 35.9375 C0.31925656 32.10004484 0.31925656 32.10004484 -4 30 C-5.1328125 27.453125 -5.1328125 27.453125 -6.125 24.25 C-6.45757812 23.20328125 -6.79015625 22.1565625 -7.1328125 21.078125 C-8.5589733 16.01589658 -9.73758918 11.25532288 -9 6 C-6.65195468 3.19709773 -3.82409607 0 0 0 Z " fill="#965453" transform="translate(332,419)"/>
<path d="M0 0 C0.99 0.33 1.98 0.66 3 1 C4.17578125 3.66015625 4.17578125 3.66015625 5.3125 7.0625 C8.05095018 14.52579855 11.00454452 20.232696 17.8125 24.5625 C20.71925519 26.48741788 20.95917978 26.8818362 22.1875 30.4375 C21.91287817 35.65531481 19.96813366 38.10279008 16.265625 41.671875 C12.0430558 45.21883313 8.56254535 46.71402486 3.078125 47.1875 C0.66595845 46.96986091 -0.91603556 46.20156508 -3 45 C-3 44.01 -3 43.02 -3 42 C-2.13117188 41.92523438 -1.26234375 41.85046875 -0.3671875 41.7734375 C7.37935512 41.05621908 7.37935512 41.05621908 13.875 37.1875 C16.16136717 34.27580006 16.16136717 34.27580006 16.3125 31.4375 C14.73133995 28.50105991 12.725568 27.42743077 9.98046875 25.64453125 C4.42943304 21.03509134 0.94122109 13.831605 -1 7 C-1.1875 3.6875 -1.1875 3.6875 -1 1 C-0.67 0.67 -0.34 0.34 0 0 Z " fill="#371C18" transform="translate(475,417)"/>
<path d="M0 0 C0 9.55193566 -9.05890118 19.47192902 -15.01953125 26.3203125 C-17 28 -17 28 -20.625 28 C-24 27 -24 27 -25.2109375 24.9375 C-25.60152344 23.9784375 -25.60152344 23.9784375 -26 23 C-21.74060361 16.45826494 -17.71640528 12.97429057 -10.734375 9.55078125 C-6.42282736 7.1055178 -3.26351671 3.684314 0 0 Z " fill="#955453" transform="translate(624,458)"/>
<path d="M0 0 C0.99 0 1.98 0 3 0 C3.94044984 8.83778991 4.12448434 17.60543966 4.07516479 26.48060608 C4.062204 28.83502094 4.05583755 31.18937841 4.05102539 33.54382324 C4.03970903 38.52924174 4.02042404 43.51461161 4 48.5 C3.97634278 54.31021272 3.95601202 60.12039925 3.94406128 65.9306488 C3.93759794 68.2461611 3.92510036 70.56159022 3.91235352 72.8770752 C3.90872186 74.29370045 3.90537002 75.71032645 3.90234375 77.12695312 C3.89710693 78.36094849 3.89187012 79.59494385 3.88647461 80.86633301 C3.98029741 83.45614497 4.22786477 85.54485426 5 88 C3.35 88 1.7 88 0 88 C0.00222061 86.96905212 0.00444122 85.93810425 0.00672913 84.87591553 C0.02699285 75.16450775 0.04198775 65.45310426 0.05181217 55.74168015 C0.05703277 50.748839 0.06411553 45.75601492 0.07543945 40.76318359 C0.08629751 35.9456592 0.09228305 31.12815122 0.09487724 26.31061554 C0.09672621 24.47180167 0.10033673 22.63298871 0.10573006 20.79418182 C0.11297917 18.22051546 0.1139893 15.6469171 0.11352539 13.07324219 C0.11712067 12.31151199 0.12071594 11.5497818 0.12442017 10.76496887 C0.1177266 7.33764054 -0.08791194 4.30145678 -1 1 C-0.67 0.67 -0.34 0.34 0 0 Z " fill="#FDE39B" transform="translate(381,589)"/>
<path d="M0 0 C1.35069583 0.88861568 2.69818792 1.78226779 4.03515625 2.69140625 C5.43919216 3.62649975 6.86682442 4.52654817 8.30859375 5.40234375 C15.95305112 10.28000844 21.91280223 16.82560447 26 25 C23.23547967 26.38226016 20.9538637 26.09525387 17.875 26.0625 C16.77929688 26.05347656 15.68359375 26.04445313 14.5546875 26.03515625 C13.71164062 26.02355469 12.86859375 26.01195312 12 26 C12.66 25.67 13.32 25.34 14 25 C13.64695801 24.45585449 13.29391602 23.91170898 12.93017578 23.35107422 C11.32161878 20.86339135 9.72325999 18.36930964 8.125 15.875 C7.56941406 15.0190625 7.01382812 14.163125 6.44140625 13.28125 C3.67868607 8.95409792 1.30191354 5.02637505 0 0 Z " fill="#955453" transform="translate(335,462)"/>
<path d="M0 0 C0.66 0 1.32 0 2 0 C2.33 1.0725 2.66 2.145 3 3.25 C4.68913133 7.12092596 6.70056702 8.57635864 10.5612793 10.15576172 C19.21617397 13.15192007 28.6250429 13.50421406 37.6875 14.125 C38.87794922 14.21136719 40.06839844 14.29773438 41.29492188 14.38671875 C44.19627875 14.59645539 47.09790511 14.80078324 50 15 C49.67 16.32 49.34 17.64 49 19 C39.25336136 19.46535675 29.99686464 18.95587811 20.375 17.25 C19.45187012 17.09305664 18.52874023 16.93611328 17.57763672 16.77441406 C11.13271357 15.55050119 5.95188206 13.76143805 1.0625 9.1875 C-0.44366969 6.0865624 -0.19572189 3.39251283 0 0 Z " fill="#975554" transform="translate(499,413)"/>
<path d="M0 0 C2.69127129 1.09644386 4.19764694 2.20313713 6.25 4.3125 C12.08035135 10.01034336 18.75515533 14.06589462 27 14.1875 C30.43989334 14.1207558 33.65874738 13.8910007 37 13 C37.495 14.98 37.495 14.98 38 17 C32.88561258 20.14731534 28.83813883 20.80652467 23 20 C13.70879905 17.74758765 6.98413797 13.0789984 0.375 6.3125 C-1 4 -1 4 -0.75 1.6875 C-0.5025 1.130625 -0.255 0.57375 0 0 Z " fill="#371D18" transform="translate(457,485)"/>
<path d="M0 0 C0.99 0.33 1.98 0.66 3 1 C3.144375 1.639375 3.28875 2.27875 3.4375 2.9375 C3.79069384 5.13640751 3.79069384 5.13640751 5.72265625 6.11328125 C18.58330247 11.12077129 40.53409676 5.68608771 53 1 C52.67 2.32 52.34 3.64 52 5 C17.80380466 15.17710731 17.80380466 15.17710731 2.4375 8.4375 C0 7 0 7 -1 6 C-1.125 3.5 -1.125 3.5 -1 1 C-0.67 0.67 -0.34 0.34 0 0 Z " fill="#965554" transform="translate(400,420)"/>
<path d="M0 0 C1.4540625 0.0309375 1.4540625 0.0309375 2.9375 0.0625 C2.24527344 1.63064453 2.24527344 1.63064453 1.5390625 3.23046875 C-0.65017763 9.1306124 -1.12407679 15.1418566 -1.6875 21.375 C-1.74942535 22.03048828 -1.81135071 22.68597656 -1.87515259 23.36132812 C-3.95357521 45.84011962 -3.82948791 68.50612985 -4.0625 91.0625 C-4.3925 91.0625 -4.7225 91.0625 -5.0625 91.0625 C-5.08582526 81.5427793 -5.10351681 72.02306866 -5.11431217 62.50332546 C-5.11949732 58.08138954 -5.12651409 53.65947338 -5.13793945 49.23754883 C-5.1489255 44.95813367 -5.15480959 40.67873735 -5.15737724 36.39930916 C-5.15920352 34.77891812 -5.16276859 33.15852793 -5.16823006 31.53814507 C-5.20107339 21.37554579 -5.21299462 11.17385065 -4.0625 1.0625 C-3.0625 0.0625 -3.0625 0.0625 0 0 Z " fill="#FDE39C" transform="translate(562.0625,582.9375)"/>
<path d="M0 0 C1.32 0.33 2.64 0.66 4 1 C3.12763495 11.03219804 -0.6258136 19.08980735 -8 26 C-11.08879671 28.24639761 -12.19327059 29 -16 29 C-15.66192514 26.03806053 -15.41526802 24.42287019 -13.29296875 22.26171875 C-12.25076172 21.48248047 -12.25076172 21.48248047 -11.1875 20.6875 C-4.53563362 15.1878319 -2.46154031 8.0559501 0 0 Z " fill="#371D18" transform="translate(469,336)"/>
<path d="M0 0 C1.32 0 2.64 0 4 0 C4.38671875 1.09699219 4.7734375 2.19398438 5.171875 3.32421875 C5.69741142 4.77882847 6.2234814 6.2332455 6.75 7.6875 C7.12898438 8.7693457 7.12898438 8.7693457 7.515625 9.87304688 C10.11555126 16.990345 13.45830267 20.98577664 20 25 C19.67 26.32 19.34 27.64 19 29 C13.04950674 27.69379416 9.62325717 24.72121389 6 20 C2.17880585 13.48727064 0.36952734 7.51372263 0 0 Z " fill="#361C17" transform="translate(484,336)"/>
<path d="M0 0 C9 2 9 2 18 4 C15.32444477 6.67555523 13.91609626 7.00799083 10.0625 7.375 C6.33611941 7.22205154 3.90513283 6.46496119 1 4 C0.37109375 1.890625 0.37109375 1.890625 0 0 Z " fill="#F7C279" transform="translate(618,717)"/>
<path d="M0 0 C0.66 0.33 1.32 0.66 2 1 C-1.45694284 4.59522056 -5.19851094 7.78214204 -9 11 C-10.31322112 12.12415815 -11.62575004 13.24912554 -12.9375 14.375 C-13.95833333 15.25 -14.97916667 16.125 -16 17 C-14.39896758 13.00215573 -11.58884625 10.32637809 -8.5625 7.375 C-8.07201172 6.88515625 -7.58152344 6.3953125 -7.07617188 5.890625 C-4.81112438 3.6530882 -2.65832501 1.77221668 0 0 Z " fill="#D49F5F" transform="translate(277,646)"/>
</svg>
