<?xml version="1.0" encoding="UTF-8"?>
<svg version="1.1" xmlns="http://www.w3.org/2000/svg" width="960" height="960">
<path d="M0 0 C0.81791016 0.41121094 1.63582031 0.82242188 2.47851562 1.24609375 C4.46578766 2.2455405 6.45209076 3.24685938 8.4375 4.25 C8.4375 4.91 8.4375 5.57 8.4375 6.25 C9.13875 6.4975 9.84 6.745 10.5625 7 C14.3616888 8.65182122 17.93139086 10.61840474 20.77075195 13.69433594 C26.33558472 19.53412384 33.06515794 19.77429051 40.75 20.75 C43.46018747 21.14040372 46.16602857 21.55612836 48.87109375 21.98046875 C49.53232239 22.08356857 50.19355103 22.1866684 50.87481689 22.29289246 C59.11579098 23.62081428 66.76798986 25.99982279 74.4375 29.25 C75.1190918 29.53713867 75.80068359 29.82427734 76.50292969 30.12011719 C106.12152395 42.96456149 128.21246917 70.10415944 140.6875 99.375 C146.03179026 113.5198594 150.76224465 129.24334382 150.39453125 144.4296875 C150.37214256 146.0143104 150.3506872 147.59894671 150.33007812 149.18359375 C150.29305606 151.65450995 150.25000655 154.12472747 150.19067383 156.59521484 C150.13578196 158.9984718 150.10698959 161.4009567 150.08203125 163.8046875 C150.05824905 164.53203094 150.03446686 165.25937439 150.00996399 166.00875854 C149.985433 170.87891301 151.03972012 174.17503184 153.45292664 178.40628052 C159.67253882 190.05317304 156.97428377 207.25322945 153.4375 219.25 C147.76048965 235.67709377 137.03382973 253.37711279 121.1875 261.6875 C118.32710634 263.05046536 115.55397098 263.69655774 112.4375 264.25 C112.31375 264.78625 112.19 265.3225 112.0625 265.875 C110.58854538 271.47602755 108.478224 276.67892339 105.9375 281.875 C105.60089355 282.56416504 105.26428711 283.25333008 104.91748047 283.96337891 C103.07127439 287.57327441 101.1167946 290.7865664 98.5390625 293.921875 C88.84791965 305.82541939 88.58088822 317.24706389 88.4375 332.25 C88.38878747 333.67204276 88.33616865 335.09396465 88.27734375 336.515625 C88.0083948 347.13326201 89.29212104 357.70855348 90.4375 368.25 C91.16324219 367.99734375 91.88898438 367.7446875 92.63671875 367.484375 C95.4375 367.25 95.4375 367.25 97.83203125 368.953125 C102.88201604 374.27233354 107.46264614 379.6777105 111.6484375 385.70703125 C112.53402344 386.96580078 112.53402344 386.96580078 113.4375 388.25 C114.23389893 389.46985596 114.23389893 389.46985596 115.04638672 390.71435547 C118.19203081 394.05013856 121.18671929 394.99784451 125.484375 396.36328125 C126.25557678 396.62255905 127.02677856 396.88183685 127.8213501 397.14897156 C130.27190889 397.96894426 132.72924453 398.76593669 135.1875 399.5625 C136.85596837 400.11633566 138.52394388 400.67165847 140.19140625 401.22851562 C144.26793161 402.58629703 148.35068506 403.92352758 152.4375 405.25 C152.4375 405.91 152.4375 406.57 152.4375 407.25 C153.44127686 407.36625732 154.44505371 407.48251465 155.47924805 407.60229492 C159.41464685 408.16782759 163.00917622 409.30918671 166.76953125 410.61328125 C167.44618332 410.8465361 168.12283539 411.07979095 168.81999207 411.32011414 C170.243735 411.81225004 171.66643983 412.30739862 173.08813477 412.80541992 C175.23161103 413.55606023 177.3781229 414.29739374 179.52539062 415.03710938 C185.26939849 417.02534287 190.99672334 419.02521592 196.62109375 421.3359375 C201.40501843 423.29506856 206.28573481 424.86939545 211.20727539 426.4453125 C226.88834794 431.47909629 240.73476238 436.15091298 252.4375 448.25 C253.12972656 448.95640625 253.82195313 449.6628125 254.53515625 450.390625 C257.99706474 454.11555323 260.29345886 457.16537271 261.4375 462.25 C262.0975 462.25 262.7575 462.25 263.4375 462.25 C267.13406711 469.37057627 269.7274537 476.75617615 272.1875 484.375 C272.64588257 485.76936279 272.64588257 485.76936279 273.11352539 487.19189453 C274.92677276 492.9249486 275.88384674 498.2681376 276.4375 504.25 C276.7675 504.58 277.0975 504.91 277.4375 505.25 C277.88729463 508.25027104 278.27925025 511.24020788 278.63671875 514.25195312 C278.75230133 515.1965892 278.86788391 516.14122528 278.98696899 517.11448669 C279.23822302 519.17248254 279.48748221 521.23072267 279.73501587 523.28916931 C280.12620941 526.54130427 280.52270227 529.79275299 280.9206543 533.04406738 C281.90798918 541.12001014 282.88599859 549.19707747 283.86437988 557.27410889 C284.69084169 564.0940186 285.52076037 570.91348996 286.3553772 577.73240662 C286.74717479 580.94558019 287.13379355 584.15935087 287.52026367 587.37316895 C287.75934904 589.33149259 287.99867496 591.28978689 288.23828125 593.24804688 C288.39884506 594.60082985 288.39884506 594.60082985 288.56265259 595.98094177 C288.70998896 599.94167616 288.70998896 599.94167616 290.4375 603.25 C290.68706643 604.60874795 290.87821604 605.97830499 291.04455566 607.34973145 C291.20852592 608.67485497 291.20852592 608.67485497 291.37580872 610.02674866 C291.492202 611.00340988 291.60859528 611.98007111 291.72851562 612.98632812 C291.85385178 614.00899277 291.97918793 615.03165741 292.10832214 616.08531189 C292.3808565 618.31355472 292.65139631 620.54204216 292.92021179 622.77073669 C293.3450121 626.29171096 293.77510898 629.81200115 294.20666504 633.33215332 C295.27747385 642.07590046 296.3389597 650.82077502 297.40081787 659.56561279 C298.29774116 666.94920284 299.19811961 674.33235524 300.10319519 681.71495056 C300.52823027 685.19403229 300.94808818 688.67371477 301.36779785 692.15344238 C301.62710628 694.27354993 301.88665518 696.39362809 302.14648438 698.51367188 C302.26287766 699.4903331 302.37927094 700.46699432 302.49919128 701.47325134 C302.66316154 702.79837486 302.66316154 702.79837486 302.83044434 704.15026855 C302.92409019 704.92235405 303.01773605 705.69443954 303.11421967 706.48992157 C303.26918295 708.27092718 303.26918295 708.27092718 304.4375 709.25 C304.73175855 710.91964737 304.96689232 712.59976482 305.17773438 714.28198242 C305.38299744 715.89583076 305.38299744 715.89583076 305.59240723 717.5422821 C305.73722534 718.7181337 305.88204346 719.89398529 306.03125 721.10546875 C306.18283569 722.31382889 306.33442139 723.52218903 306.49060059 724.76716614 C306.81207457 727.33857533 307.13138322 729.91025599 307.44873047 732.48217773 C307.92993189 736.3762558 308.41949051 740.26921392 308.91015625 744.16210938 C309.22186322 746.66399913 309.53307592 749.16595053 309.84375 751.66796875 C309.98856812 752.81750534 310.13338623 753.96704193 310.28259277 755.15141296 C310.95482856 760.63806509 311.4982168 766.07849633 311.78710938 771.59887695 C312.69032462 782.2242007 314.68440773 792.73144639 316.4375 803.25 C108.2075 803.25 -100.0225 803.25 -314.5625 803.25 C-312.5825 790.38 -310.6025 777.51 -308.5625 764.25 C-307.14781 753.10412115 -307.14781 753.10412115 -305.85620117 741.94775391 C-305.5625 740.25 -305.5625 740.25 -304.5625 739.25 C-304.11270537 736.24972896 -303.72074975 733.25979212 -303.36328125 730.24804688 C-303.24769867 729.3034108 -303.13211609 728.35877472 -303.01303101 727.38551331 C-302.76177698 725.32751746 -302.51251779 723.26927733 -302.26498413 721.21083069 C-301.87379059 717.95869573 -301.47729773 714.70724701 -301.0793457 711.45593262 C-300.23560625 704.55453406 -299.39858808 697.65232912 -298.5625 690.75 C-297.59409693 682.75534392 -296.62299837 674.76103572 -295.6446228 666.76759338 C-295.25282521 663.55441981 -294.86620645 660.34064913 -294.47973633 657.12683105 C-294.24065096 655.16850741 -294.00132504 653.21021311 -293.76171875 651.25195312 C-293.65467621 650.35009781 -293.54763367 649.44824249 -293.43734741 648.51905823 C-292.67634346 642.36384346 -292.67634346 642.36384346 -291.5625 641.25 C-291.31293357 639.89125205 -291.12178396 638.52169501 -290.95544434 637.15026855 C-290.84613083 636.26685287 -290.73681732 635.38343719 -290.62419128 634.47325134 C-290.44960136 633.00825951 -290.44960136 633.00825951 -290.27148438 631.51367188 C-290.14614822 630.49100723 -290.02081207 629.46834259 -289.89167786 628.41468811 C-289.6191435 626.18644528 -289.34860369 623.95795784 -289.07978821 621.72926331 C-288.6549879 618.20828904 -288.22489102 614.68799885 -287.79333496 611.16784668 C-286.8782672 603.69581145 -285.96991895 596.22296745 -285.0625 588.75 C-284.0114893 580.09449559 -282.95778471 571.439338 -281.89680481 562.78504944 C-281.47176973 559.30596771 -281.05191182 555.82628523 -280.63220215 552.34655762 C-280.37289372 550.22645007 -280.11334482 548.10637191 -279.85351562 545.98632812 C-279.73712234 545.0096669 -279.62072906 544.03300568 -279.50080872 543.02674866 C-279.39149521 542.14333298 -279.2821817 541.2599173 -279.16955566 540.34973145 C-279.07590981 539.57764595 -278.98226395 538.80556046 -278.88578033 538.01007843 C-278.5625 536.25 -278.5625 536.25 -277.5625 535.25 C-277.2009676 532.47327811 -276.89384987 529.70740299 -276.6171875 526.921875 C-273.01919513 492.94150513 -267.50608013 461.89572664 -239.5625 439.25 C-234.23547557 435.33368955 -228.83284629 433.26195543 -222.5625 431.25 C-217.85406987 429.70598226 -213.14838146 428.15374 -208.44360352 426.59863281 C-206.98710951 426.11816 -205.53008079 425.63930496 -204.07250977 425.16210938 C-196.06953258 422.54049113 -188.24471573 419.77578218 -180.50024414 416.45117188 C-175.0818492 414.23572243 -169.50464991 412.4877127 -163.9375 410.6875 C-156.89762961 408.40269902 -149.94814383 406.06101435 -143.09960938 403.25219727 C-138.17642162 401.3074623 -133.1469133 399.66882042 -128.125 398 C-126.51334961 397.45472656 -126.51334961 397.45472656 -124.86914062 396.8984375 C-123.84111328 396.55554688 -122.81308594 396.21265625 -121.75390625 395.859375 C-120.82779541 395.54967773 -119.90168457 395.23998047 -118.94750977 394.92089844 C-116.5625 394.25 -116.5625 394.25 -113.5625 394.25 C-113.31628906 393.53199219 -113.07007813 392.81398438 -112.81640625 392.07421875 C-110.4580345 386.7623721 -106.31237955 382.6355512 -102.5625 378.25 C-101.76457031 377.280625 -100.96664062 376.31125 -100.14453125 375.3125 C-99.37496094 374.405 -98.60539063 373.4975 -97.8125 372.5625 C-97.11640625 371.73363281 -96.4203125 370.90476562 -95.703125 370.05078125 C-93.5625 368.25 -93.5625 368.25 -90.796875 367.98046875 C-90.05953125 368.06941406 -89.3221875 368.15835937 -88.5625 368.25 C-86.74503638 352.77152769 -86.36013162 337.71954826 -87.38134766 322.16601562 C-87.54241317 319.5733384 -87.64462929 316.98658537 -87.73046875 314.390625 C-88.23571103 304.59745491 -91.3527099 298.27009971 -96.87890625 290.2578125 C-99.67135675 286.20098855 -101.94030693 281.97095288 -104.125 277.5625 C-104.45902832 276.90306396 -104.79305664 276.24362793 -105.13720703 275.56420898 C-106.81486382 272.15467792 -108.03608619 269.02143047 -108.5625 265.25 C-109.635 265.085 -110.7075 264.92 -111.8125 264.75 C-125.60236235 261.2780843 -136.4099211 248.90125975 -143.5625 237.25 C-153.18935275 220.6771902 -157.07482066 203.13559677 -154.0546875 184.0390625 C-152.60904002 178.63865524 -150.03595346 173.64053688 -146.5625 169.25 C-145.9025 168.92 -145.2425 168.59 -144.5625 168.25 C-144.2325 156.37 -143.9025 144.49 -143.5625 132.25 C-145.5425 131.92 -147.5225 131.59 -149.5625 131.25 C-153.51313146 129.3719409 -156.84247551 127.1453111 -158.43359375 122.95703125 C-158.82303632 120.49591483 -159.10160353 118.68990821 -158.5625 116.25 C-155.75180704 113.47898741 -152.5677973 112.37729708 -148.875 111.125 C-145.44548744 110.15411082 -145.44548744 110.15411082 -142.5625 108.25 C-143.408125 108.07984375 -144.25375 107.9096875 -145.125 107.734375 C-151.10165432 106.45754431 -156.42177256 105.13985077 -161.7734375 102.16796875 C-164.59471436 100.72037036 -167.49412419 100.01709395 -170.5625 99.25 C-170.5625 96.94 -170.5625 94.63 -170.5625 92.25 C-169.70527344 92.22421875 -168.84804688 92.1984375 -167.96484375 92.171875 C-156.32616941 91.59453377 -151.06304727 88.38322599 -143.10546875 80.13671875 C-131.9983861 67.52821787 -123.47361752 51.93376911 -117.5625 36.25 C-116.9025 36.25 -116.2425 36.25 -115.5625 36.25 C-115.4490625 35.40308594 -115.335625 34.55617187 -115.21875 33.68359375 C-113.40842127 24.21169521 -108.87518867 15.31180023 -104 7.0625 C-103.63648438 6.43931885 -103.27296875 5.8161377 -102.8984375 5.17407227 C-100.5626536 1.3601097 -98.08975686 -1.058586 -94.5625 -3.75 C-93.95277344 -4.58015625 -93.34304688 -5.4103125 -92.71484375 -6.265625 C-89.91369293 -9.49889527 -86.99401781 -10.81321413 -83.125 -12.5 C-82.14176758 -12.95439453 -82.14176758 -12.95439453 -81.13867188 -13.41796875 C-55.38009097 -25.04420888 -23.29708194 -11.77317556 0 0 Z " fill="#331514" transform="translate(477.5625,156.75)"/>
<path d="M0 0 C3.91958554 1.21998237 7.83505399 2.45271805 11.75 3.6875 C12.84183594 4.02716797 13.93367187 4.36683594 15.05859375 4.71679688 C21.56906261 6.77780329 27.82984009 9.13440414 34.10644531 11.81958008 C38.64883032 13.67263707 43.30586289 15.08634776 48 16.5 C53.71574261 18.22131153 59.26815139 20.05872904 64.7578125 22.4140625 C72.26039798 25.61493983 80.00929923 28.03569133 87.78564453 30.47412109 C100.39085768 34.44332605 113.25796849 38.80067272 122.4375 48.75 C123.01749756 49.35706787 123.59749512 49.96413574 124.19506836 50.58959961 C138.14059452 65.54006728 142.93754869 84.46190415 147 104 C147.15734336 104.74053336 147.31468672 105.48106672 147.47679806 106.24404049 C148.70140625 112.14970267 149.60041527 118.03639522 150.31274414 124.02368164 C150.42847275 124.96963196 150.54420135 125.91558228 150.66343689 126.89019775 C150.91172188 128.9235071 151.15827757 130.95702823 151.40324593 132.99073982 C151.79064998 136.20574792 152.18295531 139.4201251 152.57652283 142.63438416 C153.55153805 150.60516196 154.51866387 158.57689244 155.48516846 166.54870605 C156.30518642 173.31056537 157.12858473 180.07199488 157.95681572 186.83285332 C158.34411832 190.0061687 158.72632654 193.18007221 159.1084137 196.35401917 C159.34423224 198.283001 159.58029736 200.21195272 159.81665039 202.14086914 C159.97485764 203.47244301 159.97485764 203.47244301 160.13626099 204.83091736 C160.28601417 208.73834694 160.28601417 208.73834694 162 212 C162.41914924 214.75601948 162.78052662 217.50011431 163.10742188 220.26757812 C163.26616539 221.5674894 163.26616539 221.5674894 163.42811584 222.8936615 C163.65808964 224.78141045 163.88606828 226.66940326 164.11231995 228.55760193 C164.46990639 231.54089763 164.8327954 234.52350452 165.19714355 237.50598145 C166.10100484 244.9141201 166.99553767 252.32337999 167.89044189 259.73260498 C168.64644195 265.98883429 169.4059009 272.24462443 170.1700592 278.49986267 C170.52861955 281.44712841 170.88199906 284.39498692 171.23522949 287.34289551 C171.45409179 289.13943525 171.67319473 290.93594569 171.89257812 292.73242188 C171.99026993 293.55947128 172.08796173 294.38652069 172.18861389 295.2386322 C172.34357034 298.92897162 172.34357034 298.92897162 174 302 C174.30439506 303.85552472 174.5484552 305.72097842 174.76855469 307.58837891 C174.98448273 309.39020126 174.98448273 309.39020126 175.20477295 311.22842407 C175.28057335 311.87770496 175.35637375 312.52698586 175.43447113 313.19594193 C175.67519759 315.25498205 175.92169548 317.31325869 176.16973877 319.37142944 C176.87447595 325.22843643 177.56863455 331.08668599 178.25976562 336.9453125 C178.7657191 341.22734376 179.27819276 345.50855445 179.796875 349.7890625 C179.88250198 350.49634743 179.96812897 351.20363235 180.05635071 351.93235016 C181.83524717 366.51350187 184.13879449 380.99410846 186.60845947 395.4727478 C187 398 187 398 187 400 C88.33 400 -10.34 400 -112 400 C-112.61280374 396.32317753 -113.13195555 393.11141221 -113.29612732 389.46284485 C-113.33588369 388.60646486 -113.37564007 387.75008488 -113.41660118 386.86775398 C-113.47419829 385.4836247 -113.47419829 385.4836247 -113.53295898 384.0715332 C-113.57585871 383.08413588 -113.61875843 382.09673855 -113.66295815 381.07942009 C-113.80148172 377.7992727 -113.93141927 374.51888768 -114.05859375 371.23828125 C-114.10332762 370.09624048 -114.14806149 368.95419971 -114.19415092 367.77755165 C-115.21084449 341.1364575 -115.20196361 314.51548997 -115.07904053 287.859375 C-115.03499458 278.08150047 -115.00653413 268.30361489 -114.98463058 258.5256691 C-114.97276619 254.9510933 -114.94963086 251.37672337 -114.92495728 247.80221558 C-114.86554364 236.27439059 -115.04249012 224.824913 -115.71044922 213.31494141 C-115.82037397 211.13802341 -115.92915822 208.96104748 -116.03672791 206.78401184 C-116.23694467 202.73874769 -116.52687779 198.7144397 -116.87159729 194.679245 C-117.65728791 182.26152258 -117.65728791 182.26152258 -114.70220184 178.22903442 C-111.46098937 175.11117763 -107.80395703 172.95610277 -103.80611229 170.9448185 C-100.9706734 169.4615358 -98.42659846 167.63653832 -95.8046875 165.8046875 C-93.82973454 164.4923662 -91.85318872 163.18243864 -89.875 161.875 C-88.89402344 161.22402344 -87.91304687 160.57304688 -86.90234375 159.90234375 C-78.71975701 154.47237489 -78.71975701 154.47237489 -74.96264648 152.0065918 C-68.23869427 147.57242667 -61.71919032 142.94310229 -55.3125 138.0625 C-54.44044922 137.41087891 -53.56839844 136.75925781 -52.66992188 136.08789062 C-48.2976481 132.76548423 -44.04329436 129.31686016 -39.98046875 125.62109375 C-39.26141357 124.97454834 -38.5423584 124.32800293 -37.80151367 123.66186523 C-33.21278435 116.88168963 -33.65777121 107.69067513 -33.4375 99.76953125 C-33.40068115 98.73487228 -33.3638623 97.70021332 -33.32592773 96.63420105 C-33.17010347 92.2520365 -33.03320317 87.86933835 -32.89550781 83.48657227 C-32.79160178 80.2681068 -32.67733591 77.05012235 -32.5625 73.83203125 C-32.53534912 72.84958939 -32.50819824 71.86714752 -32.48022461 70.85493469 C-32.04167238 58.68028895 -32.04167238 58.68028895 -28.6887207 54.27856445 C-28.16882568 53.873396 -27.64893066 53.46822754 -27.11328125 53.05078125 C-26.49018066 52.56432129 -25.86708008 52.07786133 -25.22509766 51.57666016 C-19.62059574 47.60542103 -13.84794123 43.89504681 -8.06835938 40.18554688 C2.27178742 33.54286551 2.27178742 33.54286551 11 25 C11.74622581 19.01038219 8.17972746 14.49955424 4.9375 9.6875 C4.00536229 8.27721252 3.07678601 6.86456252 2.15234375 5.44921875 C1.5334729 4.52629028 1.5334729 4.52629028 0.90209961 3.5847168 C0 2 0 2 0 0 Z " fill="#2B0208" transform="translate(601,560)"/>
<path d="M0 0 C0.33 0.66 0.66 1.32 1 2 C-0.38835369 4.57583919 -1.82174735 7.02681498 -3.375 9.5 C-4.21655137 10.86433327 -5.05771483 12.22890592 -5.8984375 13.59375 C-6.46570557 14.50157227 -6.46570557 14.50157227 -7.04443359 15.42773438 C-9.33029028 19.18882713 -9.71554529 21.56361921 -9 26 C-3.41043206 33.12338078 5.55852855 37.8480667 13.07470703 42.73876953 C16.13871782 44.74595692 19.16771717 46.80204672 22.1875 48.875 C23.21230469 49.57367187 24.23710937 50.27234375 25.29296875 50.9921875 C26.18628906 51.65476562 27.07960938 52.31734375 28 53 C28.75925781 53.51820313 29.51851562 54.03640625 30.30078125 54.5703125 C33.15312734 58.64883955 32.8363517 63.13384809 33 68 C33.04237793 69.14710449 33.08475586 70.29420898 33.12841797 71.47607422 C33.2506998 75.29623981 33.34469584 79.11651263 33.4375 82.9375 C33.69674396 92.18294951 34.01843809 101.41190798 34.875 110.625 C34.94130615 111.41640381 35.0076123 112.20780762 35.07592773 113.02319336 C35.85094267 120.48798499 38.78590277 124.18906204 44.30078125 128.84765625 C56.91900307 138.90936424 70.11972479 148.14345076 83.5625 157.0625 C84.44357422 157.64837891 85.32464844 158.23425781 86.23242188 158.83789062 C89.64380808 161.10627363 93.05611721 163.37326481 96.46899414 165.6394043 C100.44484806 168.28350609 104.40446516 170.94356064 108.3125 173.6875 C109.11300781 174.24824219 109.91351563 174.80898438 110.73828125 175.38671875 C111.48464844 175.91910156 112.23101562 176.45148438 113 177 C113.70310303 177.43646347 114.40620605 177.87292694 115.13061523 178.32261658 C117 180 117 180 117.36230469 182.02320862 C117.29946289 182.82451706 117.23662109 183.6258255 117.171875 184.45141602 C117.11378662 185.41417953 117.05569824 186.37694305 116.99584961 187.36888123 C116.87415405 189.01353111 116.87415405 189.01353111 116.75 190.69140625 C116.61102666 193.25536311 116.48030115 195.81836222 116.36328125 198.38330078 C116.31277367 199.47060502 116.31277367 199.47060502 116.26124573 200.57987499 C115.78783857 211.74315343 115.91043632 222.91908284 115.9375 234.08984375 C115.94116476 236.51185075 115.94466204 238.93385801 115.94799805 241.35586548 C115.96216618 250.13596381 115.98613777 258.91603065 116.01037598 267.69610596 C116.15310061 320.39674853 116.15310061 320.39674853 115.625 346.06640625 C115.60193283 347.32275029 115.60193283 347.32275029 115.57839966 348.60447502 C115.24958218 365.78086925 114.04060531 382.8300124 113 400 C14.66 400 -83.68 400 -185 400 C-182.69 380.53 -180.38 361.06 -178 341 C-177.34 341 -176.68 341 -176 341 C-175.95686172 340.0915332 -175.91372345 339.18306641 -175.86927795 338.24707031 C-175.24110641 326.67772253 -173.93155561 315.24370558 -172.49609375 303.75 C-172.25048521 301.75509663 -172.0052994 299.76014117 -171.76051331 297.76513672 C-171.12192075 292.56982853 -170.47767232 287.37523763 -169.83215332 282.18078613 C-169.17172487 276.85793299 -168.51677232 271.53440627 -167.86132812 266.2109375 C-166.57950999 255.80663366 -165.29170246 245.40308099 -164 235 C-163.34 235 -162.68 235 -162 235 C-162.0186058 233.689104 -162.03721161 232.37820801 -162.05638123 231.02758789 C-162.05390809 226.47635632 -161.67106182 222.06901443 -161.09790039 217.55859375 C-161.00197098 216.76884659 -160.90604156 215.97909943 -160.8072052 215.16542053 C-160.49275436 212.58875069 -160.1704609 210.01313552 -159.84765625 207.4375 C-159.62549589 205.63676233 -159.40369473 203.83598031 -159.18223572 202.03515625 C-158.71913227 198.27934349 -158.25222093 194.52403004 -157.7824707 190.76904297 C-157.17941557 185.94654557 -156.58518455 181.12300948 -155.99364567 176.29908752 C-155.53790603 172.58937796 -155.07797164 168.88019817 -154.61669731 165.1711731 C-154.39579991 163.39143821 -154.17612902 161.61155066 -153.95768929 159.83151245 C-153.65317055 157.3558774 -153.34312086 154.88099893 -153.03149414 152.40625 C-152.94158203 151.66657486 -152.85166992 150.92689972 -152.7590332 150.16481018 C-152.11432702 145.11432702 -152.11432702 145.11432702 -151 144 C-150.61376616 141.29636315 -150.28277934 138.60435222 -149.984375 135.890625 C-149.78656802 134.17805324 -149.58796952 132.46557276 -149.38867188 130.75317383 C-149.28482178 129.85353912 -149.18097168 128.95390442 -149.07397461 128.02700806 C-145.73063396 99.36894766 -141.9936496 70.54514653 -121 49 C-120.37738281 48.32710937 -119.75476563 47.65421875 -119.11328125 46.9609375 C-107.23198493 34.41215263 -87.45988437 30.7419297 -71.47241211 25.51513672 C-65.51891118 23.5578739 -59.75484845 21.48401368 -54 19 C-49.43853235 17.37151342 -44.8459704 15.84042865 -40.25 14.3125 C-38.40341797 13.68891602 -38.40341797 13.68891602 -36.51953125 13.05273438 C-35.34261719 12.66021484 -34.16570312 12.26769531 -32.953125 11.86328125 C-31.88223633 11.50532471 -30.81134766 11.14736816 -29.70800781 10.77856445 C-27 10 -27 10 -24 10 C-24 9.34 -24 8.68 -24 8 C-16.08 5.36 -8.16 2.72 0 0 Z " fill="#2B0208" transform="translate(356,560)"/>
<path d="M0 0 C0.64453125 0.52851563 1.2890625 1.05703125 1.953125 1.6015625 C4.07401161 3.25216556 6.19065114 4.20020348 8.75 5 C8.75 3.68 8.75 2.36 8.75 1 C16.80774247 1.25715171 23.06930204 2.89521161 30.3125 6.375 C31.25923584 6.81908203 32.20597168 7.26316406 33.18139648 7.72070312 C50.57423736 16.06063521 73.24172977 26.96763172 80.29296875 46.05078125 C86.92231718 65.12977294 89.19629817 84.22084361 90.15527344 104.27368164 C90.18947891 104.98820496 90.22368439 105.70272827 90.25892639 106.43890381 C90.3496301 108.39369998 90.43323808 110.34882173 90.51635742 112.30395508 C90.76524895 116.24122659 91.2408933 120.08861397 91.75 124 C93.08587044 146.83824651 89.31987086 172.28029663 79.64038086 193.08349609 C78.64462455 195.22681582 77.81407613 197.4070579 77 199.625 C73.15117508 209.2998893 68.25646242 218.73456566 61.58984375 226.76171875 C59.39903255 229.42697313 57.40142665 232.20795635 55.375 235 C38.1781798 257.87119185 12.91997529 272.0977755 -15.1875 276.375 C-41.43979371 279.06489019 -66.94952151 271.56383374 -88 255.5625 C-89.43045507 254.39164604 -90.84684523 253.20343566 -92.25 252 C-93.46429688 250.96746094 -93.46429688 250.96746094 -94.703125 249.9140625 C-109.87130765 236.65353472 -109.87130765 236.65353472 -112.1875 230.515625 C-113.14221557 227.81323963 -113.14221557 227.81323963 -115.59375 225.6640625 C-118.7368219 222.51174627 -120.64394176 219.26186542 -122.75 215.375 C-123.1416333 214.66206787 -123.5332666 213.94913574 -123.93676758 213.21459961 C-139.32449304 184.91382957 -145.7600026 154.49560229 -145.12890625 122.390625 C-145.10453562 120.92804814 -145.08069587 119.46546235 -145.05735779 118.00286865 C-144.99520602 114.19545129 -144.9259531 110.38819671 -144.85510254 106.58093262 C-144.78378731 102.67902903 -144.71935159 98.7770121 -144.65429688 94.875 C-144.52617601 87.24987445 -144.3905356 79.62490794 -144.25 72 C-143.35804932 72.00523682 -142.46609863 72.01047363 -141.54711914 72.01586914 C-138.1979913 72.0330397 -134.84891111 72.04551226 -131.49975586 72.05493164 C-130.057691 72.05992148 -128.61563109 72.06671573 -127.17358398 72.07543945 C-119.46784327 72.1208459 -111.89850379 72.08531842 -104.25 71 C-104.25 70.34 -104.25 69.68 -104.25 69 C-103.693125 68.79246094 -103.13625 68.58492188 -102.5625 68.37109375 C-93.67286681 64.78220468 -87.83306863 59.38904236 -82.4765625 51.50390625 C-82.07179688 51.00761719 -81.66703125 50.51132812 -81.25 50 C-80.59 50 -79.93 50 -79.25 50 C-78.87101562 48.7315625 -78.87101562 48.7315625 -78.484375 47.4375 C-77.15575198 43.73753716 -75.41193561 40.4175849 -73.5 37 C-70.74046737 31.98713961 -68.36539083 27.00503463 -66.25 21.6875 C-62.59053783 12.92065838 -56.99175246 4.36255075 -48.25 0 C-34.44780542 -5.47617437 -12.87595638 -9.75811852 0 0 Z " fill="#E5A58B" transform="translate(506.25,225)"/>
<path d="M0 0 C3.51273527 2.93922747 6.88122531 5.83380462 10 9.1875 C29.41386583 28.73107985 57.17900939 39.70293285 84.5 40.375 C114.07922238 39.58831855 141.02178819 27.25145218 161.8125 6.3125 C162.41707031 5.66925781 163.02164063 5.02601563 163.64453125 4.36328125 C164.09183594 3.91339844 164.53914062 3.46351563 165 3 C165.33 3 165.66 3 166 3 C166.10483316 8.62604619 166.07222962 14.22368502 165.70703125 19.83984375 C165.15850438 28.39782671 164.80141978 36.66007113 165.875 45.1875 C165.96426758 45.90993896 166.05353516 46.63237793 166.14550781 47.37670898 C166.52661281 50.39087243 166.9193721 53.40325699 167.32617188 56.4140625 C169.06858105 70.05030825 169.06858105 70.05030825 166.6640625 74.4375 C164.57379101 76.34860536 162.44537595 77.57258234 160 79 C158.31607621 80.08138194 156.63525524 81.16760588 154.95703125 82.2578125 C149.08774442 86.00204656 143.06311969 89.38366289 136.9375 92.6875 C135.92623047 93.24244141 134.91496094 93.79738281 133.87304688 94.36914062 C117.93520548 103 117.93520548 103 112 103 C112 103.66 112 104.32 112 105 C97.85180235 110.82905743 97.85180235 110.82905743 91.625 112.9375 C90.93664062 113.17339844 90.24828125 113.40929687 89.5390625 113.65234375 C81.81556943 114.70986819 74.71444158 112.14022751 67.5625 109.5 C66.66595703 109.17902344 65.76941406 108.85804688 64.84570312 108.52734375 C58.43956368 106.21978184 58.43956368 106.21978184 56 105 C56 104.34 56 103.68 56 103 C55.16984375 102.90074219 54.3396875 102.80148437 53.484375 102.69921875 C49.48295314 101.89624284 45.95221516 100.47356319 42.25 98.8125 C41.54045166 98.49716309 40.83090332 98.18182617 40.09985352 97.85693359 C35.41872018 95.73743674 30.97424972 93.41954431 26.6328125 90.66015625 C24.54426269 89.34319235 22.44691155 88.09591766 20.3046875 86.87109375 C8.01981927 79.79720947 8.01981927 79.79720947 3.296875 74.3125 C1.92130247 72.72234453 1.92130247 72.72234453 -1 72 C-0.8842815 68.81209632 -0.75681177 65.62477803 -0.625 62.4375 C-0.58463623 61.4467749 -0.54427246 60.4560498 -0.50268555 59.43530273 C-0.23075668 53.3895287 0.23937588 47.40625103 0.88769531 41.39013672 C2.15566905 29.43112055 1.66126939 18.12881918 0.21533203 6.20043945 C0 4 0 4 0 0 Z " fill="#E4A58B" transform="translate(395,466)"/>
<path d="M0 0 C0.14695312 1.80984375 0.14695312 1.80984375 0.296875 3.65625 C0.44707609 5.27091175 0.5981653 6.88549105 0.75 8.5 C0.811875 9.29148437 0.87375 10.08296875 0.9375 10.8984375 C1.01484375 11.68476562 1.0921875 12.47109375 1.171875 13.28125 C1.2661377 14.34956055 1.2661377 14.34956055 1.36230469 15.43945312 C1.9577073 17.83018152 2.72453944 19.52513357 3.85839844 21.69165039 C6.19621965 26.19580887 7.65775154 30.79732737 9.09375 35.65234375 C9.3671521 36.55191299 9.6405542 37.45148224 9.92224121 38.37831116 C10.7882836 41.229374 11.64509911 44.08307823 12.5 46.9375 C13.35537755 49.78819438 14.21299779 52.63811429 15.07775879 55.48597717 C15.61320622 57.24962243 16.14344185 59.01486219 16.6673584 60.78196716 C18.37374971 66.40672179 20.52697617 71.67225658 23 77 C23.78155949 78.80416918 24.55959825 80.60987336 25.33203125 82.41796875 C29.4304882 91.96189352 33.55529326 101.42875251 38.31665039 110.66357422 C39.84879232 113.70030397 41.28452147 116.75747867 42.6875 119.85546875 C46.37483678 127.88313199 50.29524102 135.78881461 54.25 143.6875 C54.62405975 144.4353476 54.99811951 145.18319519 55.3835144 145.95370483 C62.78233412 160.72666376 70.46086602 175.23886161 79.30859375 189.203125 C84 196.96073903 84 196.96073903 84 200 C79.57342072 199.09287952 76.43356294 196.70908824 72.8125 194.125 C67.13753298 190.14346972 61.40755986 186.28960758 55.5625 182.5625 C9.46260627 152.98279317 9.46260627 152.98279317 6.94433594 142.03759766 C5.8303083 136.74996439 5.59097717 131.54548486 5.4375 126.15625 C5.40068115 125.14711548 5.3638623 124.13798096 5.32592773 123.0982666 C5.17012413 118.82094487 5.03369274 114.54305794 4.89550781 110.26513672 C4.79124701 107.12439953 4.67707837 103.98412506 4.5625 100.84375 C4.53534912 99.89036743 4.50819824 98.93698486 4.48022461 97.95471191 C4.25118603 87.95035757 4.25118603 87.95035757 0.546875 78.90625 C-0.34257812 78.21015625 -0.34257812 78.21015625 -1.25 77.5 C-1.96414063 76.93925781 -2.67828125 76.37851562 -3.4140625 75.80078125 C-7.02154909 73.28861914 -10.70028389 70.89849557 -14.42041016 68.55786133 C-18.91638135 65.72793124 -23.29658833 62.76752951 -27.625 59.6875 C-28.20459473 59.27910889 -28.78418945 58.87071777 -29.38134766 58.44995117 C-32.53462989 56.18971191 -35.34504091 53.82979786 -38 51 C-36.48786465 45.01931083 -33.23208426 40.54413956 -29.75 35.5625 C-28.90888672 34.33176758 -28.90888672 34.33176758 -28.05078125 33.07617188 C-25.00153938 28.66427804 -21.81687496 24.51405527 -18.27294922 20.49047852 C-16.71294062 18.66388617 -15.4398671 16.73502081 -14.1875 14.6875 C-4.640625 0 -4.640625 0 0 0 Z " fill="#4A181E" transform="translate(389,532)"/>
<path d="M0 0 C8.16479798 3.39892043 13.55311366 12.28712249 17.61328125 19.7734375 C19.14780959 22.23732807 20.94424033 23.95568241 23 26 C26.15165918 30.22895359 29.08270191 34.60733113 32 39 C32.96679688 40.45212891 32.96679688 40.45212891 33.953125 41.93359375 C34.50484375 42.80113281 35.0565625 43.66867187 35.625 44.5625 C36.11226562 45.32691406 36.59953125 46.09132813 37.1015625 46.87890625 C38.21094084 49.49800382 37.99694739 50.37194026 37 53 C35.45629883 54.50463867 35.45629883 54.50463867 33.45703125 55.91796875 C32.7194458 56.44575928 31.98186035 56.9735498 31.22192383 57.51733398 C30.42681396 58.06848877 29.6317041 58.61964355 28.8125 59.1875 C28.00256592 59.76121338 27.19263184 60.33492676 26.3581543 60.92602539 C21.4240883 64.39505557 16.41115152 67.71663251 11.3125 70.9375 C1.30236322 76.76803592 1.30236322 76.76803592 -3.61349487 86.64233398 C-4.34002388 91.07413223 -4.45961826 95.51742553 -4.59765625 100 C-4.63684677 101.03511719 -4.67603729 102.07023438 -4.71641541 103.13671875 C-4.83973796 106.42424605 -4.95179136 109.7120258 -5.0625 113 C-5.17851152 116.28787744 -5.29699157 119.5756318 -5.41929626 122.86328125 C-5.49460709 124.9021981 -5.56607899 126.94126165 -5.6330719 128.98046875 C-6.17190935 144.00800156 -6.17190935 144.00800156 -9.26953125 147.71875 C-10.17058594 148.4715625 -11.07164062 149.224375 -12 150 C-12.74636719 150.7321875 -13.49273438 151.464375 -14.26171875 152.21875 C-26.26548091 163.50731216 -40.10955494 172.55729899 -53.84960938 181.578125 C-56.37277894 183.2464878 -58.88190541 184.93498904 -61.390625 186.625 C-62.797677 187.57064819 -62.797677 187.57064819 -64.2331543 188.53540039 C-66.07998442 189.77697891 -67.92527301 191.02085442 -69.76879883 192.26733398 C-74.07365007 195.15312889 -78.28505332 197.83995053 -83 200 C-82.59020552 194.27470262 -80.92314508 190.80299246 -77.51953125 186.171875 C-71.75278578 177.91712701 -67.20255245 169.23407364 -62.6875 160.25 C-61.8341042 158.56736093 -60.98033523 156.88491107 -60.1262207 155.20263672 C-57.39683331 149.81201852 -54.69411871 144.40831811 -52 139 C-51.53158691 138.05974976 -51.06317383 137.11949951 -50.58056641 136.15075684 C-47.26384967 129.48481208 -43.97015029 122.80777642 -40.6875 116.125 C-40.24965179 115.23687622 -39.81180359 114.34875244 -39.36068726 113.43371582 C-34.08698467 102.71934179 -29.17053058 91.95036597 -24.74960327 80.85650635 C-23.64908665 78.13090979 -22.47988622 75.43527148 -21.3203125 72.734375 C-18.7956105 66.68582483 -16.80837041 60.50861804 -14.875 54.25 C-11.11887964 42.19850958 -11.11887964 42.19850958 -9.38671875 37.69140625 C-7.58567223 32.89707114 -6.2950006 28.01556447 -4.96484375 23.07421875 C-4 20 -4 20 -2 17 C-1.54861089 15.07552109 -1.54861089 15.07552109 -1.3671875 12.98828125 C-1.24150391 11.85229492 -1.24150391 11.85229492 -1.11328125 10.69335938 C-1.03464844 9.90767578 -0.95601562 9.12199219 -0.875 8.3125 C-0.74544922 7.11657227 -0.74544922 7.11657227 -0.61328125 5.89648438 C-0.40151528 3.93176674 -0.19978527 1.96597204 0 0 Z " fill="#4A181E" transform="translate(569,532)"/>
<path d="M0 0 C0 1.98 0 3.96 0 6 C0.99 6.33 1.98 6.66 3 7 C3.44063461 11.02049567 3.87674859 15.0414724 4.3125 19.0625 C4.51661499 20.92515503 4.51661499 20.92515503 4.72485352 22.82543945 C5.46766441 29.6939785 6.14962705 36.5608153 6.7265625 43.4453125 C6.90613317 45.51965817 7.08661913 47.59392281 7.2671814 49.66818237 C7.43398169 51.64578653 7.58399493 53.62478373 7.73364258 55.60375977 C8.36043458 63.26525468 8.36043458 63.26525468 11.05859375 70.36328125 C14.32975071 76.8478909 13.60643404 84.40006842 13.625 91.5 C13.73755841 106.10941944 14.82953449 120.36918113 16 135 C-4.79 135 -25.58 135 -47 135 C-45.88098524 126.04788194 -45.88098524 126.04788194 -44.87109375 121.89453125 C-44.64510498 120.93538818 -44.41911621 119.97624512 -44.1862793 118.98803711 C-43.81563354 117.41614624 -43.81563354 117.41614624 -43.4375 115.8125 C-40.81028116 104.36837655 -38.68416163 92.87479267 -36.684021 81.30657959 C-33.9730901 65.64183114 -31.13937876 50.01035633 -27.88735962 34.44778442 C-27.5081038 32.62672431 -27.13426446 30.80452663 -26.76620483 28.98117065 C-26.252337 26.44595792 -25.71727488 23.91615593 -25.17578125 21.38671875 C-25.03012726 20.65221497 -24.88447327 19.91771118 -24.73440552 19.16094971 C-23.2924937 12.64961811 -20.34783847 7.34783847 -15.625 2.625 C-10.37587758 -0.62445673 -5.99221198 -1.46151512 0 0 Z " fill="#39080F" transform="translate(655,825)"/>
<path d="M0 0 C3.51273527 2.93922747 6.88122531 5.83380462 10 9.1875 C29.41386583 28.73107985 57.17900939 39.70293285 84.5 40.375 C114.07922238 39.58831855 141.02178819 27.25145218 161.8125 6.3125 C162.41707031 5.66925781 163.02164063 5.02601563 163.64453125 4.36328125 C164.09183594 3.91339844 164.53914062 3.46351563 165 3 C165.33 3 165.66 3 166 3 C166.05460198 4.8746679 166.09306244 6.74980905 166.125 8.625 C166.14820313 9.66914063 166.17140625 10.71328125 166.1953125 11.7890625 C165.90559809 16.55196734 165.08511076 19.77221727 161.890625 23.38671875 C151.54973325 32.39675608 140.75879767 40.71943731 129.734375 48.87109375 C127.15443303 50.87976286 124.80797862 53.00140769 122.4375 55.25 C111.81932763 64.82157832 97.42785734 67.55710114 83.5 66.9375 C71.12525175 66.14067853 59.33453837 63.17676276 49 56 C48.34 55.01 47.68 54.02 47 53 C44.45107762 51.81090225 41.91886957 50.73451749 39.3125 49.6875 C31.35294623 46.33005138 23.99446402 42.24918414 16.625 37.75 C15.63282471 37.14760498 14.64064941 36.54520996 13.6184082 35.92456055 C2.52280938 29.05120616 2.52280938 29.05120616 1.36230469 24.49804688 C1.29946289 23.58087891 1.23662109 22.66371094 1.171875 21.71875 C1.09453125 20.71199219 1.0171875 19.70523437 0.9375 18.66796875 C0.8446875 17.09982422 0.8446875 17.09982422 0.75 15.5 C0.67265625 14.45457031 0.5953125 13.40914063 0.515625 12.33203125 C0.21984491 8.20695536 0 4.13732359 0 0 Z " fill="#D38A6E" transform="translate(395,466)"/>
<path d="M0 0 C1.31212371 3.93637114 0.38269282 5.70360744 -0.87109375 9.63671875 C-1.17286278 10.59587944 -1.17286278 10.59587944 -1.48072815 11.57441711 C-2.12476177 13.6148257 -2.78094233 15.65109096 -3.4375 17.6875 C-3.876457 19.07070803 -4.31461784 20.45416899 -4.75195312 21.83789062 C-5.82541481 25.22824326 -6.9098037 28.61498632 -8 32 C-8.66 32 -9.32 32 -10 32 C-10.12238037 32.71115967 -10.24476074 33.42231934 -10.37084961 34.1550293 C-11.02182517 37.09869177 -11.95536926 39.71846616 -13.06640625 42.51953125 C-13.6706543 44.0519043 -13.6706543 44.0519043 -14.28710938 45.61523438 C-14.70798828 46.67033203 -15.12886719 47.72542969 -15.5625 48.8125 C-15.98724609 49.88693359 -16.41199219 50.96136719 -16.84960938 52.06835938 C-17.89600656 54.71374552 -18.94625244 57.35753511 -20 60 C-20.66 60 -21.32 60 -22 60 C-22.27634277 60.86512207 -22.55268555 61.73024414 -22.83740234 62.62158203 C-23.94952582 65.85332598 -25.21693758 68.93123128 -26.6015625 72.0546875 C-27.09140625 73.16328125 -27.58125 74.271875 -28.0859375 75.4140625 C-28.59382812 76.55617188 -29.10171875 77.69828125 -29.625 78.875 C-30.3984375 80.62296875 -30.3984375 80.62296875 -31.1875 82.40625 C-32.45591027 85.27191765 -33.72681693 88.13645045 -35 91 C-35.66 91 -36.32 91 -37 91 C-37.5259375 92.7634375 -37.5259375 92.7634375 -38.0625 94.5625 C-40.39955405 101.64173168 -43.77472581 108.29319696 -47 115 C-47.66 115 -48.32 115 -49 115 C-49.2475 115.825 -49.495 116.65 -49.75 117.5 C-51.18704811 121.52373471 -53.02354515 125.21979024 -55 129 C-55.33 129 -55.66 129 -56 129 C-56.7164787 123.96521269 -57.42842471 118.92981274 -58.13623047 113.89379883 C-58.37750658 112.18171 -58.62000699 110.46979323 -58.86376953 108.75805664 C-59.21450869 106.29357722 -59.56079899 103.82850678 -59.90625 101.36328125 C-60.0156189 100.60163162 -60.12498779 99.83998199 -60.2376709 99.05525208 C-60.75352035 95.34308213 -61.12962772 91.74948172 -61 88 C-61.66 88 -62.32 88 -63 88 C-63.20363159 87.04130005 -63.20363159 87.04130005 -63.41137695 86.06323242 C-64.04186679 83.10395911 -64.67716192 80.14573605 -65.3125 77.1875 C-65.52583984 76.18267578 -65.73917969 75.17785156 -65.95898438 74.14257812 C-67.25653247 68.11963099 -68.7213859 62.18856683 -70.43823242 56.27075195 C-71 54 -71 54 -71 51 C-69.13671875 49.140625 -69.13671875 49.140625 -66.6875 47.25 C-65.88699219 46.61578125 -65.08648437 45.9815625 -64.26171875 45.328125 C-63.51535156 44.88984375 -62.76898438 44.4515625 -62 44 C-61.01 44.33 -60.02 44.66 -59 45 C-58.67 49.62 -58.34 54.24 -58 59 C-56.02 59 -54.04 59 -52 59 C-51.75636719 58.27425781 -51.51273437 57.54851563 -51.26171875 56.80078125 C-49.84485241 53.65560117 -48.16884189 51.69795719 -45.8125 49.1875 C-45.00554687 48.31738281 -44.19859375 47.44726562 -43.3671875 46.55078125 C-42.58601563 45.70902344 -41.80484375 44.86726562 -41 44 C-39.80698623 42.62978126 -38.61896418 41.25518972 -37.4375 39.875 C-34.50488111 36.50214964 -31.40220954 33.35385749 -28.1875 30.25 C-26.29430507 28.30271379 -24.51057286 26.31509193 -22.73046875 24.265625 C-19.02348513 19.99799596 -15.18819618 15.86426072 -11.3125 11.75 C-10.66216797 11.05648437 -10.01183594 10.36296875 -9.34179688 9.6484375 C-6.27405981 6.3836898 -3.19655003 3.13990231 0 0 Z " fill="#F9F9F9" transform="translate(553,569)"/>
<path d="M0 0 C3.2221248 1.38691459 5.03354401 2.92436673 7.25 5.625 C9.72391299 8.55352094 12.26267394 11.3157229 15 14 C18.21746797 17.17423903 21.22156844 20.46462893 24.171875 23.88671875 C28.68874355 29.10814159 33.31748064 34.23489425 38.06640625 39.24609375 C39.12831118 40.37172927 40.18950749 41.4980337 41.25 42.625 C41.76989502 43.17591309 42.28979004 43.72682617 42.82543945 44.29443359 C45.61189073 47.30381898 47.88994998 50.19458625 49.875 53.8125 C50.57625 54.864375 51.2775 55.91625 52 57 C53.98 57 55.96 57 58 57 C58.66 52.38 59.32 47.76 60 43 C68.096 47.048 68.096 47.048 71 50 C71.4375 53.3125 71.4375 53.3125 71 56 C70.34 56 69.68 56 69 56 C68.88269531 56.93972656 68.76539063 57.87945313 68.64453125 58.84765625 C67.94028947 63.77241533 66.78813193 68.58917289 65.6875 73.4375 C62.98675286 85.55081079 60.91959482 97.74162053 59 110 C58.34 110 57.68 110 57 110 C56.67 115.61 56.34 121.22 56 127 C55.34 127 54.68 127 54 127 C53.46632813 125.84886719 52.93265625 124.69773437 52.3828125 123.51171875 C48.48064677 115.15373758 44.47831745 106.88314397 40.125 98.75 C18 57.29931238 18 57.29931238 18 49 C17.34 49 16.68 49 16 49 C14.72470247 45.85595863 13.45560671 42.70944782 12.1875 39.5625 C11.65286133 38.24475586 11.65286133 38.24475586 11.10742188 36.90039062 C9.12182155 31.96371458 7.27814644 27.02164017 5.66162109 21.95141602 C5.01904988 20.05618661 4.22963278 18.21274805 3.4375 16.375 C1.0818887 10.84443434 -0.29445313 6.03628915 0 0 Z " fill="#F9F8F8" transform="translate(405,570)"/>
<path d="M0 0 C1.7325 0.12375 1.7325 0.12375 3.5 0.25 C7.15247569 1.03267336 8.67556124 1.90815763 10.96533203 4.83691406 C13.30132354 9.72055842 12.69596912 15.44799515 12.6875 20.75 C12.72639373 23.35295048 12.77066311 25.95582621 12.8203125 28.55859375 C12.84254883 29.82558105 12.86478516 31.09256836 12.88769531 32.39794922 C13.11378318 39.6494718 14.00981588 46.8187618 15 54 C14.34 54 13.68 54 13 54 C11.5625 51.953125 11.5625 51.953125 10 49.25 C9.484375 48.36828125 8.96875 47.4865625 8.4375 46.578125 C7.22849521 44.4098012 6.08486923 42.23232706 5 40 C4.34 40 3.68 40 3 40 C2.12143904 45.56421943 4.30950109 49.02651003 7.15234375 53.58984375 C8.97388998 55.96594106 10.62643288 57.3035358 13.0625 59 C19.34681403 63.96955352 20.66663872 73.44297888 22 81 C22 81.99 22 82.98 22 84 C7.76314223 78.87972659 -2.73387045 64.97684089 -9.1875 51.875 C-15.74693907 36.94480222 -18.20092002 22.71485102 -13.265625 6.91015625 C-11.89029213 3.74773963 -10.35522286 1.51253736 -8 -1 C-4.25890201 -2.24703266 -3.55570977 -1.45460854 0 0 Z " fill="#E3A48A" transform="translate(344,331)"/>
<path d="M0 0 C5.59480587 2.39777394 7.7005277 6.64013911 10 12 C15.05463166 26.56630305 10.74255069 43.20023464 4.3125 56.6640625 C-2.0508941 68.62194058 -11.02348186 79.37662254 -23 86 C-25.32759633 81.34480734 -21.31596514 73.62089023 -19.8203125 68.8828125 C-18.20632117 64.21220486 -16.22227926 60.99078422 -12.61328125 57.58984375 C-9.12899938 54.15618099 -7.15295948 49.8355137 -6.75 45 C-6.8325 44.34 -6.915 43.68 -7 43 C-10.14921339 43.69030588 -10.14921339 43.69030588 -11.38671875 46.28515625 C-11.81597656 47.20167969 -12.24523437 48.11820312 -12.6875 49.0625 C-13.12449219 49.98160156 -13.56148437 50.90070313 -14.01171875 51.84765625 C-14.33785156 52.55792969 -14.66398438 53.26820313 -15 54 C-15.33 54 -15.66 54 -16 54 C-15.92491211 53.10498779 -15.84982422 52.20997559 -15.77246094 51.2878418 C-15.25212599 44.46748533 -14.92485669 37.73480467 -15.078125 30.89453125 C-15.09073364 30.22880096 -15.10334229 29.56307068 -15.11633301 28.87716675 C-15.1700681 26.15824521 -15.22829435 23.44027726 -15.32226562 20.72241211 C-15.38870912 18.69707188 -15.42141947 16.67071301 -15.453125 14.64453125 C-15.48567383 13.46221924 -15.51822266 12.27990723 -15.55175781 11.06176758 C-15 8 -15 8 -12.66308594 5.61987305 C-9.69041661 3.81168997 -7.40986572 3.50785234 -4 3 C-1.67780342 1.55269907 -1.67780342 1.55269907 0 0 Z " fill="#E3A48A" transform="translate(617,328)"/>
<path d="M0 0 C0.99 0.33 1.98 0.66 3 1 C3.75195312 2.93920898 3.75195312 2.93920898 4.28125 5.49609375 C4.48210205 6.4389624 4.6829541 7.38183105 4.88989258 8.35327148 C5.19189575 9.8799646 5.19189575 9.8799646 5.5 11.4375 C5.71358154 12.47269775 5.92716309 13.50789551 6.1472168 14.57446289 C7.45631425 21.01205481 8.69005506 27.46468787 9.8125 33.9375 C9.93625 34.63866943 10.06 35.33983887 10.1875 36.06225586 C10.95967077 40.77760749 11.10101943 45.24145334 11 50 C11.66 50 12.32 50 13 50 C16.62784532 72.25477752 16.62784532 72.25477752 11.4375 80.375 C9.98491188 82.27066526 8.50730849 84.14754753 7 86 C5.96019493 87.74775745 4.95458319 89.51677685 4 91.3125 C3.608125 92.03050781 3.21625 92.74851562 2.8125 93.48828125 C2.4103125 94.23658203 2.4103125 94.23658203 2 95 C-1 94 -1 94 -2.140625 92.1015625 C-2.50671875 91.28429687 -2.8728125 90.46703125 -3.25 89.625 C-4.60794095 86.61992698 -5.7853237 84.24129954 -7.984375 81.76953125 C-11.82401431 77.32715786 -13.25720278 73.66886675 -12.953125 67.83203125 C-12.41945512 62.41794364 -11.55921214 57.06478403 -10.63525391 51.70507812 C-9.95570844 47.74167228 -9.33807379 43.77176703 -8.73046875 39.796875 C-5.37172143 18.05522449 -5.37172143 18.05522449 -3 8 C-2.34 8 -1.68 8 -1 8 C-0.67 5.36 -0.34 2.72 0 0 Z " fill="#AC081E" transform="translate(478,634)"/>
<path d="M0 0 C3.37842843 1.24474213 6.1402686 2.65937598 9.05859375 4.7578125 C14.43973078 8.42854458 20.16598142 11.13693206 26.0625 13.875 C27.11888672 14.37257813 28.17527344 14.87015625 29.26367188 15.3828125 C31.83951608 16.59497448 34.41822737 17.80053079 37 19 C37 19.66 37 20.32 37 21 C38.8871875 21.5259375 38.8871875 21.5259375 40.8125 22.0625 C47.11463625 23.93953914 53.24648177 26.25934555 59.39770508 28.57446289 C60.19200928 28.87215576 60.98631348 29.16984863 61.8046875 29.4765625 C62.51608887 29.74549316 63.22749023 30.01442383 63.96044922 30.29150391 C65.95635131 30.98483738 67.94320693 31.52090996 70 32 C70.93708638 35.05642708 71.22484939 36.50042265 69.890625 39.46484375 C69.34921875 40.28082031 68.8078125 41.09679687 68.25 41.9375 C67.69054687 42.81019531 67.13109375 43.68289063 66.5546875 44.58203125 C66.04164063 45.37996094 65.52859375 46.17789063 65 47 C63.96838392 48.98387708 62.96476382 50.98276656 62 53 C61.67128906 53.63679687 61.34257812 54.27359375 61.00390625 54.9296875 C58.96848167 58.88124438 57.28253822 62.72487261 56 67 C54.8717446 65.8717446 53.74385044 64.74312686 52.6171875 63.61328125 C51.46082551 62.4597124 50.29870256 61.31190691 49.1328125 60.16796875 C45.16206479 56.25129737 41.41480377 52.23321077 37.78515625 48 C35.91558091 45.90542107 33.95093833 43.95612984 31.9375 42 C29.32013206 39.43296606 27.06885315 36.85662701 24.9375 33.875 C23.03226462 31.22513085 21.16784505 29.16846013 18.625 27.125 C14.00154579 23.38318008 10.60584435 18.69131503 7 14 C6.29746094 13.12601563 5.59492188 12.25203125 4.87109375 11.3515625 C1.72367605 7.39593525 0 5.1554877 0 0 Z " fill="#F5F2E0" transform="translate(402,551)"/>
<path d="M0 0 C-1.35099496 9.38941499 -8.1724854 16.57233384 -14.80859375 22.8828125 C-16.85582952 24.86071229 -18.71487532 26.8992219 -20.5625 29.0625 C-22.93731602 31.8322046 -25.40017817 34.44009866 -28 37 C-31.1188979 40.07731259 -34.01825663 43.26314345 -36.87109375 46.5859375 C-40.31826605 50.49484113 -43.89741507 54.28194087 -47.46948242 58.07666016 C-49.70479679 60.4640571 -51.83649124 62.77571807 -53.765625 65.421875 C-54.17296875 65.94265625 -54.5803125 66.4634375 -55 67 C-55.66 67 -56.32 67 -57 67 C-57.15855469 66.32195312 -57.31710937 65.64390625 -57.48046875 64.9453125 C-59.01033957 58.84273387 -61.01111603 53.52817841 -64.01171875 47.99609375 C-65 46 -65 46 -65 44 C-65.66 44 -66.32 44 -67 44 C-67.83848804 42.54462432 -68.67063934 41.08559627 -69.5 39.625 C-70.19609375 38.40683594 -70.19609375 38.40683594 -70.90625 37.1640625 C-72 35 -72 35 -72 33 C-70.7625 32.60039063 -69.525 32.20078125 -68.25 31.7890625 C-62.42321346 29.84603924 -56.71559744 27.620672 -51 25.375 C-49.95199219 24.96765625 -48.90398437 24.5603125 -47.82421875 24.140625 C-46.83035156 23.75132812 -45.83648437 23.36203125 -44.8125 22.9609375 C-43.91144531 22.60821777 -43.01039063 22.25549805 -42.08203125 21.89208984 C-40.05029216 21.17411533 -40.05029216 21.17411533 -39 20 C-37.33382885 19.95936168 -35.66611905 19.957279 -34 20 C-34 19.34 -34 18.68 -34 18 C-33.42145264 17.70343506 -32.84290527 17.40687012 -32.24682617 17.10131836 C-17.71938724 9.70278069 -17.71938724 9.70278069 -3.86328125 1.14453125 C-2 0 -2 0 0 0 Z " fill="#F5F2E0" transform="translate(556,551)"/>
<path d="M0 0 C0 2.64 0 5.28 0 8 C0.74507813 7.896875 1.49015625 7.79375 2.2578125 7.6875 C5 8 5 8 6.9921875 10.125 C7.61351562 11.07375 8.23484375 12.0225 8.875 13 C11.85662871 17.3877377 14.94733761 21.36190073 18.5546875 25.24609375 C21.62108147 28.96720427 22.45755144 32.09920775 22.3125 36.9765625 C21.58894253 41.66159712 18.78271975 44.35959293 15.25 47.25 C7.37038185 51.49287131 -1.61119752 52.25249999 -10.37109375 50.53515625 C-15.34868777 48.94496081 -18.19362887 46.50720212 -21 42 C-23.30563647 34.13371086 -20.70639678 27.22410057 -17.01953125 20.10742188 C-5.95745407 0 -5.95745407 0 0 0 Z " fill="#D1896D" transform="translate(479,364)"/>
<path d="M0 0 C3.31578947 2.63157895 3.31578947 2.63157895 4.5 5 C1.18674832 4.59839374 -1.22934397 3.68523936 -4.0625 2 C-11.60525028 -2.38850925 -19.72631 -1.54595209 -28.0234375 0.31640625 C-40.34453119 3.71733905 -49.200123 11.86771767 -55.56689453 22.83837891 C-59.03702049 29.08701648 -62.28696608 35.45285295 -65.3828125 41.89453125 C-73.51690161 58.79551098 -85.96518886 72.63732502 -103.97265625 79.28125 C-118.61566749 83.90362108 -129.94535343 83.12152048 -144.5 78 C-144.5 76.02 -144.5 74.04 -144.5 72 C-143.60804932 72.00523682 -142.71609863 72.01047363 -141.79711914 72.01586914 C-138.4479913 72.0330397 -135.09891111 72.04551226 -131.74975586 72.05493164 C-130.307691 72.05992148 -128.86563109 72.06671573 -127.42358398 72.07543945 C-119.71784327 72.1208459 -112.14850379 72.08531842 -104.5 71 C-104.5 70.34 -104.5 69.68 -104.5 69 C-103.943125 68.79246094 -103.38625 68.58492188 -102.8125 68.37109375 C-93.92286681 64.78220468 -88.08306863 59.38904236 -82.7265625 51.50390625 C-82.32179688 51.00761719 -81.91703125 50.51132812 -81.5 50 C-80.84 50 -80.18 50 -79.5 50 C-79.12101562 48.7315625 -79.12101562 48.7315625 -78.734375 47.4375 C-77.40575198 43.73753716 -75.66193561 40.4175849 -73.75 37 C-70.99046737 31.98713961 -68.61539083 27.00503463 -66.5 21.6875 C-62.84053783 12.92065838 -57.24175246 4.36255075 -48.5 0 C-34.4016703 -5.59366927 -13.26362386 -9.55726851 0 0 Z " fill="#D0886D" transform="translate(506.5,225)"/>
<path d="M0 0 C1.32257813 0.01027222 1.32257813 0.01027222 2.671875 0.02075195 C15.77715044 0.33496788 27.96285676 3.74999732 39.75 9.4375 C40.76449219 9.91316406 41.77898437 10.38882812 42.82421875 10.87890625 C47.03748091 12.98829109 50.09792956 14.56186256 52.9375 18.375 C53.89475474 21.98311401 54.23143059 24.7236069 53.75 28.4375 C52.3125 30.875 52.3125 30.875 49.75 32.4375 C43.38089721 33.24894427 37.80779882 31.87364016 31.8125 29.875 C25.89090162 27.98448586 19.97149692 26.20185791 13.94921875 24.65625 C12.79607178 24.35920166 11.6429248 24.06215332 10.45483398 23.75610352 C8.20044515 23.18115551 5.94351142 22.61606968 3.68383789 22.06225586 C-3.24591896 20.27708385 -10.74887615 18.33925321 -14.8125 12 C-15.36910374 8.73989238 -15.27935672 6.59419395 -14.25 3.4375 C-9.84835501 -0.23487837 -5.46151589 -0.06504282 0 0 Z " fill="#351B16" transform="translate(405.25,310.5625)"/>
<path d="M0 0 C1.41829102 -0.01836914 1.41829102 -0.01836914 2.86523438 -0.03710938 C3.77724609 -0.03904297 4.68925781 -0.04097656 5.62890625 -0.04296875 C6.45592041 -0.04707764 7.28293457 -0.05118652 8.13500977 -0.05541992 C10.68124525 0.21321589 12.27844871 0.8266126 14.4375 2.1875 C16.08150169 5.47550338 16.20196532 8.65894355 15.4375 12.1875 C10.76365978 18.83083292 2.64953165 20.28860203 -4.75 22.1875 C-7.26215007 22.86298126 -9.7738669 23.54007576 -12.28515625 24.21875 C-13.5189502 24.54746094 -14.75274414 24.87617188 -16.02392578 25.21484375 C-19.20637659 26.08961152 -22.35129064 27.03080308 -25.49609375 28.03125 C-26.38208252 28.31226563 -27.26807129 28.59328125 -28.1809082 28.8828125 C-29.78817725 29.39879173 -31.39252192 29.92402541 -32.99291992 30.4609375 C-38.37807632 32.16107334 -43.93103215 33.17658915 -49.5625 32.1875 C-51.64802353 30.53878372 -52.44308683 29.75229201 -52.99609375 27.13671875 C-52.99738281 26.39035156 -52.99867188 25.64398438 -53 24.875 C-53.01933594 24.13636719 -53.03867187 23.39773438 -53.05859375 22.63671875 C-52.33335846 19.05622641 -50.87227074 17.01138101 -48.5625 14.1875 C-46.13591132 12.59568085 -43.97070956 11.3441539 -41.375 10.125 C-40.68172607 9.78847412 -39.98845215 9.45194824 -39.27416992 9.10522461 C-26.78989927 3.26916706 -13.75608204 0.00941553 0 0 Z " fill="#351C16" transform="translate(550.5625,310.8125)"/>
<path d="M0 0 C0.66 0 1.32 0 2 0 C2.78998048 4.18392062 3.12981005 8.14139187 3.14476013 12.39682007 C3.15510788 14.29929504 3.15510788 14.29929504 3.16566467 16.24020386 C3.16837946 17.63458238 3.1710166 19.02896105 3.17358398 20.42333984 C3.17989719 21.9029764 3.18666383 23.38261107 3.19384766 24.86224365 C3.20850235 28.05089294 3.22023607 31.239535 3.22979546 34.42820358 C3.24539355 39.52464826 3.26936235 44.62103338 3.29469299 49.71743774 C3.36106435 63.31545523 3.41821893 76.91350725 3.46710646 90.51159883 C3.50848395 101.99476733 3.55816848 113.47786576 3.62109375 124.9609375 C3.62571735 125.81890521 3.63034095 126.67687292 3.63510466 127.56083965 C3.79120112 155.74329254 4.41980909 183.85584326 6 212 C2.7 212 -0.6 212 -4 212 C-3.94235977 210.72450287 -3.88471954 209.44900574 -3.82533264 208.13485718 C-2.4810463 177.72506662 -1.78893699 147.35075942 -1.62109375 116.9140625 C-1.61638958 116.07545779 -1.61168542 115.23685308 -1.6068387 114.37283611 C-1.54509519 103.20953975 -1.49895729 92.04619977 -1.45739746 80.8828125 C-1.40809936 67.7024049 -1.34932979 54.52203965 -1.28178078 41.34171331 C-1.25701844 36.43490002 -1.23752962 31.52810345 -1.22239864 26.62125134 C-1.21223491 23.6100205 -1.19810067 20.59881767 -1.18292236 17.58760834 C-1.17675276 16.19193296 -1.17230138 14.79624881 -1.16966438 13.40056229 C-1.16587242 11.50373166 -1.15550676 9.6069175 -1.14476013 7.71011353 C-1.14090522 6.649042 -1.1370503 5.58797047 -1.13307858 4.49474525 C-1 2 -1 2 0 0 Z " fill="#47181D" transform="translate(478,748)"/>
<path d="M0 0 C0.66 0 1.32 0 2 0 C2.1959375 0.95777344 2.391875 1.91554688 2.59375 2.90234375 C7.9893909 27.61613785 22.46258773 46.39541119 39 65 C39.69802734 65.79059814 39.69802734 65.79059814 40.41015625 66.59716797 C45.93219548 72.82827014 51.57730498 78.68304368 58 84 C59.30324219 85.15242188 59.30324219 85.15242188 60.6328125 86.328125 C78.60588674 101.95271754 99.00382972 111.57981849 123 113 C119.1407003 115.62026138 115.20062725 115.16274391 110.75 114.875 C109.95513184 114.82569336 109.16026367 114.77638672 108.34130859 114.72558594 C86.88653895 113.09783579 66.29199025 103.97305733 50 90 C49.19046875 89.31164062 48.3809375 88.62328125 47.546875 87.9140625 C32.37869235 74.65353472 32.37869235 74.65353472 30.0625 68.515625 C29.10778443 65.81323963 29.10778443 65.81323963 26.65625 63.6640625 C23.5131781 60.51174627 21.60605824 57.26186542 19.5 53.375 C18.91255005 52.30560181 18.91255005 52.30560181 18.31323242 51.21459961 C9.47125014 34.95261808 3.84215075 18.05810852 0 0 Z " fill="#D0886D" transform="translate(364,387)"/>
<path d="M0 0 C0.33 0 0.66 0 1 0 C1.27544028 15.02679723 -1.17098333 29.85648859 -4.9375 44.375 C-5.17807129 45.30650879 -5.41864258 46.23801758 -5.66650391 47.19775391 C-7.07999096 52.38554215 -8.84159168 57.2090422 -11.10961914 62.08349609 C-12.10537545 64.22681582 -12.93592387 66.4070579 -13.75 68.625 C-17.59882492 78.2998893 -22.49353758 87.73456566 -29.16015625 95.76171875 C-31.35096745 98.42697313 -33.34857335 101.20795635 -35.375 104 C-45.22411401 117.09899001 -57.3765564 126.80786311 -71.75 134.5 C-72.52972168 134.92144287 -73.30944336 135.34288574 -74.11279297 135.77709961 C-79.34759056 138.4786271 -84.20455081 139.93788581 -90 141 C-86.65518051 138.19447205 -83.34067681 136.00028109 -79.5 133.9375 C-72.86259435 130.12261857 -67.29380863 125.52017878 -61.61132812 120.43945312 C-60.02781399 119.02484716 -58.42916316 117.62908358 -56.828125 116.234375 C-28.51732545 91.27810449 -12.32559537 54.21425498 -4 18 C-3.79407227 17.11521973 -3.58814453 16.23043945 -3.37597656 15.31884766 C-2.19810869 10.22312699 -1.07425784 5.11852265 0 0 Z " fill="#D1896D" transform="translate(597,356)"/>
<path d="M0 0 C0.33 0 0.66 0 1 0 C1.07294785 0.61165512 1.14589569 1.22331024 1.22105408 1.85350037 C1.97837438 8.19633861 2.74168572 14.53843505 3.50854492 20.88012695 C3.79427658 23.249732 4.07845899 25.61952437 4.36108398 27.98950195 C4.76663488 31.38803266 5.17767883 34.78585966 5.58984375 38.18359375 C5.71592514 39.25024765 5.84200653 40.31690155 5.97190857 41.4158783 C6.15198204 42.88729027 6.15198204 42.88729027 6.33569336 44.38842773 C6.4400621 45.25668686 6.54443085 46.12494598 6.65196228 47.01951599 C6.8038168 48.99516605 6.8038168 48.99516605 8 50 C8.29425855 51.66964737 8.52939232 53.34976482 8.74023438 55.03198242 C8.87707642 56.10788132 9.01391846 57.18378021 9.15490723 58.2922821 C9.29972534 59.4681337 9.44454346 60.64398529 9.59375 61.85546875 C9.74533569 63.06382889 9.89692139 64.27218903 10.05310059 65.51716614 C10.37457457 68.08857533 10.69388322 70.66025599 11.01123047 73.23217773 C11.49243189 77.1262558 11.98199051 81.01921392 12.47265625 84.91210938 C12.78436322 87.41399913 13.09557592 89.91595053 13.40625 92.41796875 C13.62347717 94.14227364 13.62347717 94.14227364 13.84509277 95.90141296 C14.69650186 102.85044125 15.31572604 109.78045329 15.74229431 116.76878357 C16.17491054 122.19309794 17.1119915 127.52125249 18.0625 132.875 C18.3419043 134.49728516 18.3419043 134.49728516 18.62695312 136.15234375 C19.07856051 138.76935062 19.53625706 141.38512147 20 144 C18.02 144 16.04 144 14 144 C12.29295039 136.70834916 10.98295842 129.39591907 9.8125 122 C9.71005981 121.35634491 9.60761963 120.71268982 9.5020752 120.04953003 C6.60537488 101.68166663 4.50641753 83.19961571 2.32348633 64.73632812 C2.17677994 63.5074437 2.03007355 62.27855927 1.87892151 61.01243591 C1.59971576 58.67081972 1.32422438 56.32875699 1.05284119 53.98622131 C0.92873367 52.94735275 0.80462616 51.90848419 0.67675781 50.83813477 C0.51617889 49.4673452 0.51617889 49.4673452 0.35235596 48.06886292 C0.20775524 46.01497235 0.20775524 46.01497235 -1 45 C-3.46694031 31.85498957 -6.81392268 12.04900961 0 0 Z " fill="#4B4646" transform="translate(774,816)"/>
<path d="M0 0 C2.475 0.495 2.475 0.495 5 1 C5.44063461 5.02049567 5.87674859 9.0414724 6.3125 13.0625 C6.44857666 14.30427002 6.58465332 15.54604004 6.72485352 16.82543945 C7.46766441 23.6939785 8.14962705 30.5608153 8.7265625 37.4453125 C8.90613317 39.51965817 9.08661913 41.59392281 9.2671814 43.66818237 C9.43398169 45.64578653 9.58399493 47.62478373 9.73364258 49.60375977 C10.36043458 57.26525468 10.36043458 57.26525468 13.05859375 64.36328125 C16.03273405 70.25909706 15.58823313 76.76007427 15.61502075 83.21395874 C15.63197449 87.09771284 15.71085195 90.98026997 15.78515625 94.86328125 C15.79858566 95.63726761 15.81201508 96.41125397 15.82585144 97.20869446 C16.03567887 107.8407208 16.97970566 118.41834471 18 129 C16.02 129 14.04 129 12 129 C9.16289859 107.04452771 7.05724257 85.01746043 4.9284668 62.984375 C4.41291693 57.65076425 3.8898323 52.31792078 3.36492634 46.98522377 C2.95721321 42.83154099 2.55434409 38.67739869 2.15282249 34.52311325 C1.9619493 32.55594862 1.76940324 30.58894549 1.57506752 28.6221199 C-0.35281382 9.07092294 -0.35281382 9.07092294 0 0 Z " fill="#341A15" transform="translate(653,831)"/>
<path d="M0 0 C1.66611905 -0.042721 3.33382885 -0.04063832 5 0 C6 1 6 1 6.11499023 4.46899414 C6.05429797 9.17235088 5.63522074 13.81897855 5.16015625 18.49609375 C5.07374374 19.37024429 4.98733124 20.24439484 4.89830017 21.14503479 C4.71614365 22.9763619 4.53199889 24.80749224 4.34594727 26.63842773 C4.06092796 29.45302407 3.78498638 32.26841488 3.50976562 35.08398438 C3.33127088 36.86724181 3.15225339 38.65044701 2.97265625 40.43359375 C2.89032242 41.2782872 2.80798859 42.12298065 2.72315979 42.99327087 C2.11485713 48.88514287 2.11485713 48.88514287 1 50 C0.70274754 52.26967133 0.46906489 54.54768342 0.25976562 56.82714844 C0.1929509 57.54102722 0.12613617 58.25490601 0.05729675 58.99041748 C-0.16380938 61.36304355 -0.378677 63.7361951 -0.59375 66.109375 C-0.74640122 67.75510918 -0.89952421 69.40079965 -1.05310059 71.04644775 C-1.45760157 75.39089363 -1.8571845 79.73577628 -2.25531006 84.08081055 C-2.8916245 91.02201866 -3.53306659 97.96274476 -4.17878723 104.9030838 C-4.40328968 107.32740758 -4.62433136 109.75202986 -4.84509277 112.17669678 C-4.98318514 113.66956787 -5.12140281 115.16242738 -5.25976562 116.65527344 C-5.37888306 117.95575623 -5.49800049 119.25623901 -5.62072754 120.59613037 C-5.93906871 123.45315783 -6.37673205 126.19646798 -7 129 C-8.65 129 -10.3 129 -12 129 C-11.37500279 114.31686789 -10.14529945 99.72569115 -8.75 85.09765625 C-8.52936848 82.75787203 -8.30899572 80.4180634 -8.08886719 78.07823181 C-7.63075441 73.21801121 -7.16993026 68.35805803 -6.70703125 63.49829102 C-6.1137609 57.26802917 -5.5268443 51.03718787 -4.9418335 44.80614567 C-4.48946343 39.99419965 -4.0340879 35.18254182 -3.57775879 30.37096977 C-3.36000595 28.07171187 -3.14312159 25.77237154 -2.92712402 23.47294807 C-2.62630705 20.27602235 -2.32151856 17.07950006 -2.015625 13.88305664 C-1.92728394 12.93610931 -1.83894287 11.98916199 -1.7479248 11.01351929 C-1.66385376 10.14357834 -1.57978271 9.27363739 -1.49316406 8.37733459 C-1.42164124 7.62401887 -1.35011841 6.87070314 -1.27642822 6.09455967 C-1.00066007 4.00500148 -0.55232576 2.03237552 0 0 Z " fill="#331915" transform="translate(300,831)"/>
<path d="M0 0 C8.05774247 0.25715171 14.31930204 1.89521161 21.5625 5.375 C22.50923584 5.81908203 23.45597168 6.26316406 24.43139648 6.72070312 C41.4210323 14.86729688 63.94210837 25.71194542 71.23828125 44.125 C74 52.02104811 74 52.02104811 74 56 C71.3604415 55.39667234 69.51703405 54.72200112 67.90625 52.47265625 C67.5453125 51.84230469 67.184375 51.21195312 66.8125 50.5625 C56.46631619 33.06804374 34.31044183 16.43681394 15 10 C11.74422851 9.72940158 8.48870817 9.55513711 5.2265625 9.37890625 C2.0837191 9.00983142 -0.21571258 8.49339052 -3 7 C-3.33 6.01 -3.66 5.02 -4 4 C-2.68 4 -1.36 4 0 4 C0 2.68 0 1.36 0 0 Z " fill="#D0886D" transform="translate(515,226)"/>
<path d="M0 0 C0.35592722 4.2340509 -0.37906425 6.0187794 -3 9.3125 C-6.26404342 13.74893453 -8.89438575 18.28681568 -11.375 23.1875 C-11.72046875 23.85241455 -12.0659375 24.5173291 -12.421875 25.20239258 C-14.79409202 29.97707238 -16.70054138 34.84756379 -15.5 40.25 C-12.59842868 43.63516653 -8.97317927 44.72147299 -4.703125 45.32421875 C1.96628994 45.63220129 8.07224648 44.07708039 14 41 C16.39112429 37.41331356 16.62895395 36.2316022 16 32 C14.34302512 29.23588837 12.29835106 26.86485699 10.1875 24.4375 C2.95137946 15.88882049 2.95137946 15.88882049 1 12 C1.3125 9.6875 1.3125 9.6875 2 8 C4.83660947 8.33989874 5.8115347 8.77463241 7.67578125 11.00390625 C8.21589844 11.84824219 8.75601562 12.69257813 9.3125 13.5625 C12.1064531 17.77149401 15.08241337 21.5142661 18.51953125 25.2109375 C21.61035506 28.94602273 22.45841664 32.07011548 22.3125 36.9765625 C21.58894253 41.66159712 18.78271975 44.35959293 15.25 47.25 C7.37038185 51.49287131 -1.61119752 52.25249999 -10.37109375 50.53515625 C-15.34868777 48.94496081 -18.19362887 46.50720212 -21 42 C-23.30563647 34.13371086 -20.70639678 27.22410057 -17.01953125 20.10742188 C-5.95745407 0 -5.95745407 0 0 0 Z " fill="#371D18" transform="translate(479,364)"/>
<path d="M0 0 C2.78436692 -0.34150799 5.27626041 -0.47396304 8.0625 -0.4375 C9.26664551 -0.42614014 9.26664551 -0.42614014 10.49511719 -0.41455078 C25.66350097 -0.00756516 44.66105925 4.45214814 56 15 C56.9375 18.3125 56.9375 18.3125 57 21 C51.02207246 22.31877662 47.0542317 21.48838232 41.3125 19.5625 C39.5595956 18.99947546 37.80561916 18.43978142 36.05078125 17.8828125 C35.0963916 17.57891602 34.14200195 17.27501953 33.15869141 16.96191406 C29.65890512 15.89612662 26.13972283 14.93726278 22.60546875 13.9921875 C21.34629639 13.6511499 20.08712402 13.3101123 18.78979492 12.95874023 C16.29472818 12.28639184 13.79621111 11.62669898 11.29418945 10.98071289 C10.14523193 10.66610107 8.99627441 10.35148926 7.8125 10.02734375 C6.78769531 9.75656006 5.76289063 9.48577637 4.70703125 9.20678711 C1.41872396 7.74086874 0.02140863 5.93110282 -2 3 C-1.34 2.01 -0.68 1.02 0 0 Z " fill="#300B10" transform="translate(397,316)"/>
<path d="M0 0 C1.15048828 -0.00580078 1.15048828 -0.00580078 2.32421875 -0.01171875 C7.99650022 -0.00174989 7.99650022 -0.00174989 10.25 1.125 C10.25 3.375 10.25 3.375 9.25 6.125 C2.78084859 9.98338673 -3.9900971 11.72735934 -11.25 13.5625 C-20.16169618 15.87567424 -28.94917474 18.34331713 -37.67578125 21.27734375 C-40.58080387 22.07834745 -42.76374332 22.46855165 -45.75 22.125 C-47.75 20.125 -47.75 20.125 -47.78125 17.25390625 C-46.61784749 13.72403727 -45.41671802 12.74580384 -42.19116211 11.00610352 C-41.55057861 10.69471436 -40.90999512 10.3833252 -40.25 10.0625 C-39.58943604 9.72597412 -38.92887207 9.38944824 -38.24829102 9.04272461 C-26.27815896 3.19971031 -13.30609145 -0.06847045 0 0 Z " fill="#300B10" transform="translate(550.75,315.875)"/>
<path d="M0 0 C6.12489038 0.66574895 10.86393892 2.15918168 17 4 C17 15.88 17 27.76 17 40 C14.03 38.02 11.06 36.04 8 34 C3.66134719 32.59904458 3.66134719 32.59904458 0 32 C-1.41721441 21.27277712 -0.69099652 10.75828427 0 0 Z " fill="#300B10" transform="translate(340,291)"/>
<path d="M0 0 C4.58181818 3.16363636 4.58181818 3.16363636 6 6 C6.13108517 7.96609317 6.20284382 9.93626646 6.24609375 11.90625 C6.27775635 13.11772705 6.30941895 14.3292041 6.34204102 15.57739258 C6.38929321 17.51908325 6.38929321 17.51908325 6.4375 19.5 C6.75903069 30.76329644 7.46111171 41.83932471 9 53 C8.34 53 7.68 53 7 53 C5.5625 50.98828125 5.5625 50.98828125 4 48.3125 C3.484375 47.44238281 2.96875 46.57226562 2.4375 45.67578125 C0.0830197 41.29312091 -1.22402761 37.66376427 -1.5625 32.6875 C-1.78985878 29.50911706 -2.08390554 26.39700723 -2.5234375 23.23828125 C-3.11345009 18.65140915 -3.11138885 14.11811622 -3.0625 9.5 C-3.05798828 8.67757813 -3.05347656 7.85515625 -3.04882812 7.0078125 C-3.03718489 5.00517604 -3.01925556 3.00257773 -3 1 C-2.01 0.67 -1.02 0.34 0 0 Z " fill="#D18A6E" transform="translate(350,332)"/>
<path d="M0 0 C3.5 0.5 3.5 0.5 5.19165039 2.2421875 C7.44595056 6.13242224 6.9720366 10.10443332 6.9375 14.5 C6.95748047 15.40234375 6.97746094 16.3046875 6.99804688 17.234375 C6.99318038 23.81388086 6.99318038 23.81388086 4.6328125 27.09765625 C1.97724431 28.84371666 0.61907643 29.05983423 -2.5 28.5 C-5.0048111 26.62139167 -5.48700625 25.53898126 -6.5 22.5 C-6.7484418 19.52509771 -6.73112739 16.54673111 -6.75 13.5625 C-6.770625 12.75103516 -6.79125 11.93957031 -6.8125 11.10351562 C-6.83569444 7.56926336 -6.83129028 5.14761262 -5.203125 1.96484375 C-3.5 0.5 -3.5 0.5 0 0 Z " fill="#361D17" transform="translate(434.5,350.5)"/>
<path d="M0 0 C1.5625 1.0625 1.5625 1.0625 3 3 C3.19926713 6.52038592 2.97170358 8.85338978 0.6328125 11.61328125 C-8.82728066 19.46962471 -22.10862013 21.68330475 -33.8034668 24.30102539 C-38.04371321 25.25376035 -42.00208384 26.25281908 -46 28 C-52.50151286 29.51197973 -59.32177739 30.08068631 -65.5625 27.5625 C-68 26 -68 26 -69 25 C-69.04063832 23.33382885 -69.042721 21.66611905 -69 20 C-68.54625 20.825 -68.0925 21.65 -67.625 22.5 C-64.76814299 25.2208162 -64.44019806 25.37561919 -60.7421875 25.41796875 C-53.67312333 25.23298151 -47.17707428 22.95891145 -40.5 20.8125 C-38.49759243 20.18379157 -36.49385337 19.55948092 -34.48986816 18.93582153 C-33.16963599 18.52485361 -31.84988653 18.11233155 -30.53063965 17.69821167 C-26.79070658 16.5301212 -23.04328565 15.44536972 -19.25 14.46484375 C-18.02120117 14.14713013 -18.02120117 14.14713013 -16.76757812 13.82299805 C-15.3163062 13.45627376 -13.86202664 13.10113459 -12.40429688 12.76098633 C-7.41665267 11.48450675 -4.59224768 9.5651159 -1 6 C-0.03701276 2.82437198 -0.03701276 2.82437198 0 0 Z " fill="#CF886D" transform="translate(566,317)"/>
<path d="M0 0 C0.5625 1.9375 0.5625 1.9375 1 4 C-0.52178295 5.52178295 -2.01524435 5.30275593 -4.13671875 5.5 C-5.4513208 5.6230249 -5.4513208 5.6230249 -6.79248047 5.74853516 C-7.74783691 5.83151855 -8.70319336 5.91450195 -9.6875 6 C-10.67121582 6.08685059 -11.65493164 6.17370117 -12.66845703 6.26318359 C-28.42769271 7.59922187 -44.18617928 8.20390313 -60 8 C-60 4 -60 4 -59 3 C-52.98307794 1.97107357 -46.81122424 1.75957036 -40.72265625 1.46484375 C-39.44557045 1.40037804 -39.44557045 1.40037804 -38.14268494 1.33460999 C-36.35536241 1.2450898 -34.56797148 1.15692591 -32.78051758 1.07006836 C-30.07286808 0.93800569 -27.36554284 0.80036173 -24.65820312 0.66210938 C-22.90887077 0.57518609 -21.15952227 0.48858687 -19.41015625 0.40234375 C-18.21749901 0.34142799 -18.21749901 0.34142799 -17.00074768 0.27928162 C-11.33054143 0.00854881 -5.67618617 -0.04324349 0 0 Z " fill="#381E18" transform="translate(508,440)"/>
<path d="M0 0 C2.03667615 1.54506466 2.86073078 2.72146156 4 5 C5.01928585 20.85888868 5.01928585 20.85888868 1.3125 26.625 C-1 28 -1 28 -4.125 27.9375 C-7 27 -7 27 -9 24 C-9.43111757 20.51427072 -9.32424544 17.00953857 -9.3125 13.5 C-9.32861328 12.53707031 -9.34472656 11.57414062 -9.36132812 10.58203125 C-9.36197266 9.65777344 -9.36261719 8.73351562 -9.36328125 7.78125 C-9.36626221 6.93626953 -9.36924316 6.09128906 -9.37231445 5.22070312 C-8.47242047 -0.14679566 -4.8565716 -0.60707145 0 0 Z " fill="#351C16" transform="translate(525,351)"/>
<path d="M0 0 C3.97700637 1.32566879 4.3624788 2.99706299 6.20507812 6.58007812 C6.57052734 7.31677734 6.93597656 8.05347656 7.3125 8.8125 C7.69728516 9.53759766 8.08207031 10.26269531 8.47851562 11.00976562 C8.83236328 11.71423828 9.18621094 12.41871094 9.55078125 13.14453125 C9.87731689 13.78753174 10.20385254 14.43053223 10.5402832 15.09301758 C11 17 11 17 10.22338867 19.1628418 C8.75794402 21.36349456 7.42498487 22.03000605 5 23 C5 23.66 5 24.32 5 25 C3.35 25.66 1.7 26.32 0 27 C-1.53771021 25.79201323 -3.05482456 24.55777086 -4.5625 23.3125 C-5.40941406 22.62800781 -6.25632812 21.94351563 -7.12890625 21.23828125 C-9 19 -9 19 -8.9375 16.5625 C-7.93463069 13.82132388 -6.78429249 11.27748556 -5.4375 8.6875 C-4.98246094 7.80449219 -4.52742188 6.92148437 -4.05859375 6.01171875 C-3.53458984 5.01591797 -3.53458984 5.01591797 -3 4 C-2.34 4 -1.68 4 -1 4 C-0.67 2.68 -0.34 1.36 0 0 Z " fill="#A9081E" transform="translate(478,589)"/>
<path d="M0 0 C0.66 0.99 1.32 1.98 2 3 C7.25909016 9.47272635 16.51676764 10.78182859 24.25 12.8125 C30.05436724 14.35358676 35.83710199 15.91968553 41.56640625 17.72265625 C42.89140137 18.13777466 42.89140137 18.13777466 44.24316406 18.5612793 C45.90351756 19.08712101 47.56072105 19.62306312 49.21386719 20.17114258 C54.47655531 21.83119636 59.47331377 22.69599525 65 22 C67.5189267 20.68236671 67.5189267 20.68236671 69 19 C68.6875 21.375 68.6875 21.375 68 24 C63.26102092 27.15931938 58.5521355 26.4864788 53 26 C48.16266039 25.02484068 43.47426704 23.66768606 38.75 22.25 C36.19286136 21.50533271 33.6333382 20.76910248 31.07421875 20.03125 C29.85653809 19.67675781 28.63885742 19.32226562 27.38427734 18.95703125 C21.98927056 17.4313909 16.5417834 16.18345201 11.06640625 14.984375 C7.54013359 13.85237409 4.98376526 12.17118365 2 10 C1.360625 9.566875 0.72125 9.13375 0.0625 8.6875 C-1.7335923 5.83488282 -0.65383723 3.15030664 0 0 Z " fill="#D0886D" transform="translate(390,320)"/>
<path d="M0 0 C0.99 0.66 1.98 1.32 3 2 C3.30452383 4.70834687 3.42005327 7.18415406 3.3984375 9.89453125 C3.40274277 11.07108528 3.40274277 11.07108528 3.40713501 12.27140808 C3.40917847 13.93330607 3.40362892 15.59522796 3.39111328 17.25708008 C3.37512685 19.79238307 3.39091803 22.32607632 3.41015625 24.86132812 C3.40817261 26.47656601 3.40432642 28.09180289 3.3984375 29.70703125 C3.40754654 30.84009453 3.40754654 30.84009453 3.4168396 31.99604797 C3.35670765 36.53569016 2.69045937 39.33663047 0 43 C-0.73351929 44.268326 -1.46326688 45.53884865 -2.1875 46.8125 C-2.785625 47.864375 -3.38375 48.91625 -4 50 C-4.33 50 -4.66 50 -5 50 C-4.92563721 49.10498779 -4.85127441 48.20997559 -4.7746582 47.2878418 C-4.25770151 40.47132931 -3.92164234 33.73125892 -4.04296875 26.89453125 C-4.05321075 26.22880096 -4.06345276 25.56307068 -4.07400513 24.87716675 C-4.11898613 22.15846562 -4.16967706 19.44041029 -4.24682617 16.72241211 C-4.30117322 14.69685714 -4.32871819 12.67063859 -4.35546875 10.64453125 C-4.38278076 9.46221924 -4.41009277 8.27990723 -4.43823242 7.06176758 C-3.91451661 3.40275923 -2.83577124 2.27218752 0 0 Z " fill="#D0886D" transform="translate(606,332)"/>
<path d="M0 0 C0.33 0 0.66 0 1 0 C1.87953651 20.19676432 1.87953651 20.19676432 -3.8046875 27.234375 C-7.29570276 30.42239648 -10.55346824 32.37322009 -15 34 C-14.40336519 31.47717364 -13.79794859 28.9569878 -13.1875 26.4375 C-13.02185547 25.73302734 -12.85621094 25.02855469 -12.68554688 24.30273438 C-11.03289983 17.53623609 -8.85528383 11.63056823 -4.375 6.1875 C-1.9427328 3.25111594 -1.9427328 3.25111594 0 0 Z " fill="#CF886C" transform="translate(608,380)"/>
<path d="M0 0 C0.33 0 0.66 0 1 0 C0.93941406 0.99515625 0.87882813 1.9903125 0.81640625 3.015625 C0.13476357 14.34021973 -0.44923682 25.66834047 -1 37 C-1.33 37 -1.66 37 -2 37 C-3.7515995 26.15676497 -5.63968999 9.97262254 0 0 Z " fill="#40302F" transform="translate(774,816)"/>
<path d="M0 0 C3.68302456 0.59956214 7.34469909 1.25019468 11 2 C12.3921875 2.2784375 12.3921875 2.2784375 13.8125 2.5625 C14.534375 2.706875 15.25625 2.85125 16 3 C14.02 3.99 14.02 3.99 12 5 C12 5.99 12 6.98 12 8 C7.91878361 8.3200954 5.62759043 8.37388366 2.0625 6.25 C0 4 0 4 0 0 Z " fill="#190908" transform="translate(433,221)"/>
<path d="M0 0 C3.0960135 4.64402025 4.25503538 8.15419241 4.1953125 13.73828125 C4.18886719 14.80498047 4.18242188 15.87167969 4.17578125 16.97070312 C4.15902344 18.07349609 4.14226563 19.17628906 4.125 20.3125 C4.11597656 21.43462891 4.10695313 22.55675781 4.09765625 23.71289062 C4.07414486 26.47547909 4.04128155 29.23762932 4 32 C3.67 32 3.34 32 3 32 C2.93941406 31.21753906 2.87882813 30.43507813 2.81640625 29.62890625 C2.73261719 28.61699219 2.64882813 27.60507812 2.5625 26.5625 C2.44068359 25.04849609 2.44068359 25.04849609 2.31640625 23.50390625 C2.26788532 21.06359221 2.26788532 21.06359221 1 20 C0.84344973 18.51361008 0.74933057 17.02050873 0.68359375 15.52734375 C0.64169922 14.62822266 0.59980469 13.72910156 0.55664062 12.80273438 C0.51732422 11.85720703 0.47800781 10.91167969 0.4375 9.9375 C0.39431641 8.98810547 0.35113281 8.03871094 0.30664062 7.06054688 C0.20020724 4.70718647 0.09818992 2.35371646 0 0 Z " fill="#380A0F" transform="translate(664,892)"/>
<path d="M0 0 C2.77290487 1.11848264 4.58722095 2.11635554 5.88134766 4.88671875 C6.61883482 7.24256624 7.23691143 9.59951258 7.8125 12 C8.02841797 12.81984375 8.24433594 13.6396875 8.46679688 14.484375 C9.31219372 17.76934561 10 20.59248019 10 24 C8.68 23.34 7.36 22.68 6 22 C6 20.68 6 19.36 6 18 C5.47311454 16.08233025 5.47311454 16.08233025 4.6875 14.1796875 C4.28144531 13.12974609 4.28144531 13.12974609 3.8671875 12.05859375 C3.58101563 11.33800781 3.29484375 10.61742187 3 9.875 C0 2.23986486 0 2.23986486 0 0 Z " fill="#CF886D" transform="translate(356,391)"/>
<path d="M0 0 C5.24990666 1.99496453 8.83001375 4.23684167 13 8 C10.51042165 8.91191297 9.39294506 9.15965671 6.89453125 8.14453125 C6.20746094 7.70496094 5.52039063 7.26539063 4.8125 6.8125 C4.11769531 6.38582031 3.42289062 5.95914063 2.70703125 5.51953125 C0.71122902 3.74294757 0.37357722 2.60388898 0 0 Z " fill="#BF7C63" transform="translate(498,221)"/>
<path d="M0 0 C0.66 0.33 1.32 0.66 2 1 C-1.96 4.96 -5.92 8.92 -10 13 C-10 8.83248505 -7.76127698 6.85829482 -5 4 C-3.36927384 2.62294236 -1.7133562 1.27277889 0 0 Z " fill="#AA6D57" transform="translate(456,226)"/>
<path d="M0 0 C1.88391785 3.26545761 2.49287967 6.28111761 3 10 C1.68 9.34 0.36 8.68 -1 8 C-1 4.88742431 -0.82638376 2.89234315 0 0 Z " fill="#C48168" transform="translate(363,405)"/>
<path d="M0 0 C0.66 0.33 1.32 0.66 2 1 C-0.475 5.455 -0.475 5.455 -3 10 C-4 7 -4 7 -2.625 3.875 C-1 1 -1 1 0 0 Z " fill="#CB856B" transform="translate(465,376)"/>
<path d="M0 0 C0.33 0.99 0.66 1.98 1 3 C0.01 4.485 0.01 4.485 -1 6 C-1.66 6 -2.32 6 -3 6 C-4.34882408 6.63474075 -5.6846659 7.29848848 -7 8 C-6.02133662 6.85373678 -5.04205413 5.70800212 -4.0625 4.5625 C-3.51722656 3.92441406 -2.97195313 3.28632812 -2.41015625 2.62890625 C-1.63204305 1.73008851 -0.84063472 0.84063472 0 0 Z " fill="#DCD8D7" transform="translate(553,569)"/>
</svg>
